%TF.GenerationSoftware,KiCad,Pcbnew,(6.0.11)*%
%TF.CreationDate,2023-09-13T08:26:01+09:00*%
%TF.ProjectId,MD,4d442e6b-6963-4616-945f-706362585858,rev?*%
%TF.SameCoordinates,Original*%
%TF.FileFunction,Paste,Top*%
%TF.FilePolarity,Positive*%
%FSLAX46Y46*%
G04 Gerber Fmt 4.6, Leading zero omitted, Abs format (unit mm)*
G04 Created by KiCad (PCBNEW (6.0.11)) date 2023-09-13 08:26:01*
%MOMM*%
%LPD*%
G01*
G04 APERTURE LIST*
G04 Aperture macros list*
%AMRoundRect*
0 Rectangle with rounded corners*
0 $1 Rounding radius*
0 $2 $3 $4 $5 $6 $7 $8 $9 X,Y pos of 4 corners*
0 Add a 4 corners polygon primitive as box body*
4,1,4,$2,$3,$4,$5,$6,$7,$8,$9,$2,$3,0*
0 Add four circle primitives for the rounded corners*
1,1,$1+$1,$2,$3*
1,1,$1+$1,$4,$5*
1,1,$1+$1,$6,$7*
1,1,$1+$1,$8,$9*
0 Add four rect primitives between the rounded corners*
20,1,$1+$1,$2,$3,$4,$5,0*
20,1,$1+$1,$4,$5,$6,$7,0*
20,1,$1+$1,$6,$7,$8,$9,0*
20,1,$1+$1,$8,$9,$2,$3,0*%
G04 Aperture macros list end*
%ADD10RoundRect,0.125000X-0.625000X-0.125000X0.625000X-0.125000X0.625000X0.125000X-0.625000X0.125000X0*%
%ADD11RoundRect,0.125000X-0.125000X-0.625000X0.125000X-0.625000X0.125000X0.625000X-0.125000X0.625000X0*%
%ADD12RoundRect,0.250001X0.799999X-1.999999X0.799999X1.999999X-0.799999X1.999999X-0.799999X-1.999999X0*%
%ADD13R,0.900000X1.200000*%
%ADD14RoundRect,0.135000X-0.226274X-0.035355X-0.035355X-0.226274X0.226274X0.035355X0.035355X0.226274X0*%
%ADD15RoundRect,0.135000X-0.135000X-0.185000X0.135000X-0.185000X0.135000X0.185000X-0.135000X0.185000X0*%
%ADD16RoundRect,0.140000X-0.170000X0.140000X-0.170000X-0.140000X0.170000X-0.140000X0.170000X0.140000X0*%
%ADD17RoundRect,0.135000X0.185000X-0.135000X0.185000X0.135000X-0.185000X0.135000X-0.185000X-0.135000X0*%
%ADD18RoundRect,0.250001X1.999999X0.799999X-1.999999X0.799999X-1.999999X-0.799999X1.999999X-0.799999X0*%
%ADD19RoundRect,0.135000X0.135000X0.185000X-0.135000X0.185000X-0.135000X-0.185000X0.135000X-0.185000X0*%
%ADD20RoundRect,0.237500X-0.250000X-0.237500X0.250000X-0.237500X0.250000X0.237500X-0.250000X0.237500X0*%
%ADD21RoundRect,0.250000X1.100000X-0.412500X1.100000X0.412500X-1.100000X0.412500X-1.100000X-0.412500X0*%
%ADD22R,1.200000X0.900000*%
%ADD23R,1.600000X1.400000*%
%ADD24RoundRect,0.237500X-0.287500X-0.237500X0.287500X-0.237500X0.287500X0.237500X-0.287500X0.237500X0*%
%ADD25RoundRect,0.140000X0.170000X-0.140000X0.170000X0.140000X-0.170000X0.140000X-0.170000X-0.140000X0*%
%ADD26R,3.050000X2.750000*%
%ADD27R,2.200000X1.200000*%
%ADD28RoundRect,0.237500X0.237500X-0.250000X0.237500X0.250000X-0.237500X0.250000X-0.237500X-0.250000X0*%
%ADD29RoundRect,0.140000X0.021213X-0.219203X0.219203X-0.021213X-0.021213X0.219203X-0.219203X0.021213X0*%
%ADD30RoundRect,0.250001X-0.799999X1.999999X-0.799999X-1.999999X0.799999X-1.999999X0.799999X1.999999X0*%
%ADD31RoundRect,0.250000X-0.475000X0.337500X-0.475000X-0.337500X0.475000X-0.337500X0.475000X0.337500X0*%
%ADD32RoundRect,0.237500X0.035355X0.371231X-0.371231X-0.035355X-0.035355X-0.371231X0.371231X0.035355X0*%
%ADD33R,1.400000X1.600000*%
%ADD34R,2.225000X0.850000*%
%ADD35R,3.750000X4.700000*%
%ADD36R,1.825000X0.850000*%
%ADD37RoundRect,0.250000X-1.100000X0.412500X-1.100000X-0.412500X1.100000X-0.412500X1.100000X0.412500X0*%
%ADD38RoundRect,0.237500X-0.237500X0.250000X-0.237500X-0.250000X0.237500X-0.250000X0.237500X0.250000X0*%
%ADD39RoundRect,0.150000X-0.150000X0.675000X-0.150000X-0.675000X0.150000X-0.675000X0.150000X0.675000X0*%
%ADD40RoundRect,0.237500X0.250000X0.237500X-0.250000X0.237500X-0.250000X-0.237500X0.250000X-0.237500X0*%
%ADD41RoundRect,0.237500X-0.035355X-0.371231X0.371231X0.035355X0.035355X0.371231X-0.371231X-0.035355X0*%
%ADD42R,0.800000X1.900000*%
%ADD43RoundRect,0.150000X0.150000X-0.675000X0.150000X0.675000X-0.150000X0.675000X-0.150000X-0.675000X0*%
%ADD44R,0.850000X2.225000*%
%ADD45R,0.850000X1.825000*%
%ADD46R,4.700000X3.750000*%
%ADD47RoundRect,0.135000X-0.185000X0.135000X-0.185000X-0.135000X0.185000X-0.135000X0.185000X0.135000X0*%
%ADD48RoundRect,0.140000X0.140000X0.170000X-0.140000X0.170000X-0.140000X-0.170000X0.140000X-0.170000X0*%
%ADD49R,2.750000X3.050000*%
%ADD50R,1.200000X2.200000*%
%ADD51RoundRect,0.140000X-0.021213X0.219203X-0.219203X0.021213X0.021213X-0.219203X0.219203X-0.021213X0*%
%ADD52RoundRect,0.140000X-0.219203X-0.021213X-0.021213X-0.219203X0.219203X0.021213X0.021213X0.219203X0*%
%ADD53RoundRect,0.237500X0.237500X-0.287500X0.237500X0.287500X-0.237500X0.287500X-0.237500X-0.287500X0*%
%ADD54RoundRect,0.150000X-0.675000X-0.150000X0.675000X-0.150000X0.675000X0.150000X-0.675000X0.150000X0*%
%ADD55RoundRect,0.250001X-1.999999X-0.799999X1.999999X-0.799999X1.999999X0.799999X-1.999999X0.799999X0*%
%ADD56R,2.600000X3.400000*%
%ADD57R,2.000000X1.500000*%
%ADD58RoundRect,0.140000X-0.140000X-0.170000X0.140000X-0.170000X0.140000X0.170000X-0.140000X0.170000X0*%
%ADD59RoundRect,0.250000X-0.337500X-0.475000X0.337500X-0.475000X0.337500X0.475000X-0.337500X0.475000X0*%
%ADD60R,0.800000X1.800000*%
G04 APERTURE END LIST*
D10*
%TO.C,U2*%
X133913400Y-94602675D03*
X133913400Y-95402675D03*
X133913400Y-96202675D03*
X133913400Y-97002675D03*
X133913400Y-97802675D03*
X133913400Y-98602675D03*
X133913400Y-99402675D03*
X133913400Y-100202675D03*
D11*
X135288400Y-101577675D03*
X136088400Y-101577675D03*
X136888400Y-101577675D03*
X137688400Y-101577675D03*
X138488400Y-101577675D03*
X139288400Y-101577675D03*
X140088400Y-101577675D03*
X140888400Y-101577675D03*
D10*
X142263400Y-100202675D03*
X142263400Y-99402675D03*
X142263400Y-98602675D03*
X142263400Y-97802675D03*
X142263400Y-97002675D03*
X142263400Y-96202675D03*
X142263400Y-95402675D03*
X142263400Y-94602675D03*
D11*
X140888400Y-93227675D03*
X140088400Y-93227675D03*
X139288400Y-93227675D03*
X138488400Y-93227675D03*
X137688400Y-93227675D03*
X136888400Y-93227675D03*
X136088400Y-93227675D03*
X135288400Y-93227675D03*
%TD*%
D12*
%TO.C,C32*%
X162520000Y-103560000D03*
X162520000Y-96360000D03*
%TD*%
D13*
%TO.C,D15*%
X196250000Y-121450000D03*
X199550000Y-121450000D03*
%TD*%
D14*
%TO.C,R62*%
X215578752Y-98968752D03*
X216300000Y-99690000D03*
%TD*%
D15*
%TO.C,R7*%
X102510000Y-111710000D03*
X103530000Y-111710000D03*
%TD*%
D16*
%TO.C,C11*%
X131920000Y-97800000D03*
X131920000Y-98760000D03*
%TD*%
D15*
%TO.C,R10*%
X102510000Y-114210000D03*
X103530000Y-114210000D03*
%TD*%
D17*
%TO.C,R35*%
X122350000Y-113680000D03*
X122350000Y-112660000D03*
%TD*%
D18*
%TO.C,C13*%
X172220000Y-108982500D03*
X165020000Y-108982500D03*
%TD*%
D16*
%TO.C,C29*%
X217180000Y-90090000D03*
X217180000Y-91050000D03*
%TD*%
D19*
%TO.C,R53*%
X202130000Y-100640000D03*
X201110000Y-100640000D03*
%TD*%
D15*
%TO.C,R5*%
X169020000Y-87060000D03*
X170040000Y-87060000D03*
%TD*%
D17*
%TO.C,R1*%
X105020000Y-126470000D03*
X105020000Y-125450000D03*
%TD*%
D20*
%TO.C,R37*%
X124245000Y-117610000D03*
X126070000Y-117610000D03*
%TD*%
D17*
%TO.C,R2*%
X104020000Y-101720000D03*
X104020000Y-100700000D03*
%TD*%
D21*
%TO.C,C24*%
X198670000Y-102847500D03*
X198670000Y-99722500D03*
%TD*%
D20*
%TO.C,R47*%
X197757500Y-97885000D03*
X199582500Y-97885000D03*
%TD*%
D16*
%TO.C,C10*%
X151520000Y-120480000D03*
X151520000Y-121440000D03*
%TD*%
D22*
%TO.C,D18*%
X209220000Y-106535000D03*
X209220000Y-103235000D03*
%TD*%
D17*
%TO.C,R18*%
X153520000Y-121470000D03*
X153520000Y-120450000D03*
%TD*%
D15*
%TO.C,R12*%
X102510000Y-119210000D03*
X103530000Y-119210000D03*
%TD*%
%TO.C,R41*%
X128970000Y-125620000D03*
X129990000Y-125620000D03*
%TD*%
D17*
%TO.C,R29*%
X148060000Y-123172500D03*
X148060000Y-122152500D03*
%TD*%
D19*
%TO.C,R50*%
X193410000Y-130850000D03*
X192390000Y-130850000D03*
%TD*%
D23*
%TO.C,SW3*%
X105320000Y-123710000D03*
X113320000Y-123710000D03*
X113320000Y-128210000D03*
X105320000Y-128210000D03*
%TD*%
D24*
%TO.C,D3*%
X115895000Y-102440000D03*
X117645000Y-102440000D03*
%TD*%
D16*
%TO.C,C26*%
X145410000Y-89298656D03*
X145410000Y-90258656D03*
%TD*%
D15*
%TO.C,R15*%
X108010000Y-89930000D03*
X109030000Y-89930000D03*
%TD*%
D25*
%TO.C,C1*%
X113520000Y-126440000D03*
X113520000Y-125480000D03*
%TD*%
D15*
%TO.C,R9*%
X119260000Y-104480000D03*
X120280000Y-104480000D03*
%TD*%
D26*
%TO.C,Q1*%
X174095000Y-97935000D03*
X170745000Y-100985000D03*
X170745000Y-97935000D03*
X174095000Y-100985000D03*
D27*
X178720000Y-101740000D03*
X178720000Y-99460000D03*
X178720000Y-97180000D03*
%TD*%
D28*
%TO.C,R56*%
X153770000Y-95622500D03*
X153770000Y-93797500D03*
%TD*%
D29*
%TO.C,C7*%
X133050589Y-92979411D03*
X133729411Y-92300589D03*
%TD*%
D30*
%TO.C,C16*%
X174620000Y-114382500D03*
X174620000Y-121582500D03*
%TD*%
D31*
%TO.C,C2*%
X169550000Y-82882500D03*
X169550000Y-84957500D03*
%TD*%
D24*
%TO.C,D6*%
X115895000Y-96710000D03*
X117645000Y-96710000D03*
%TD*%
D32*
%TO.C,D22*%
X215709999Y-96270001D03*
X214472563Y-97507437D03*
%TD*%
D33*
%TO.C,SW7*%
X110770000Y-81780000D03*
X110770000Y-89780000D03*
X106270000Y-81780000D03*
X106270000Y-89780000D03*
%TD*%
D34*
%TO.C,Q14*%
X198537500Y-118555000D03*
X198537500Y-117285000D03*
X198537500Y-116015000D03*
X198537500Y-114745000D03*
D35*
X194850000Y-116650000D03*
D36*
X192062500Y-116015000D03*
X192062500Y-117285000D03*
X192062500Y-114745000D03*
X192062500Y-118555000D03*
%TD*%
D37*
%TO.C,C23*%
X197500000Y-123887500D03*
X197500000Y-127012500D03*
%TD*%
D17*
%TO.C,R14*%
X168620000Y-120470000D03*
X168620000Y-119450000D03*
%TD*%
D19*
%TO.C,R51*%
X198710000Y-129450000D03*
X197690000Y-129450000D03*
%TD*%
D38*
%TO.C,R31*%
X122270000Y-118797500D03*
X122270000Y-120622500D03*
%TD*%
D39*
%TO.C,U8*%
X193425000Y-95460000D03*
X192155000Y-95460000D03*
X190885000Y-95460000D03*
X189615000Y-95460000D03*
X189615000Y-100710000D03*
X190885000Y-100710000D03*
X192155000Y-100710000D03*
X193425000Y-100710000D03*
%TD*%
D40*
%TO.C,R63*%
X184932500Y-121460000D03*
X183107500Y-121460000D03*
%TD*%
D41*
%TO.C,D21*%
X213060118Y-96020745D03*
X214297554Y-94783309D03*
%TD*%
D42*
%TO.C,Q2*%
X161930000Y-87040000D03*
X160030000Y-87040000D03*
X160980000Y-90040000D03*
%TD*%
D38*
%TO.C,R65*%
X156520000Y-117547500D03*
X156520000Y-119372500D03*
%TD*%
D34*
%TO.C,Q16*%
X198557500Y-109790000D03*
X198557500Y-108520000D03*
X198557500Y-107250000D03*
X198557500Y-105980000D03*
D36*
X192082500Y-108520000D03*
X192082500Y-107250000D03*
X192082500Y-109790000D03*
D35*
X194870000Y-107885000D03*
D36*
X192082500Y-105980000D03*
%TD*%
D43*
%TO.C,U10*%
X147865000Y-95335000D03*
X149135000Y-95335000D03*
X150405000Y-95335000D03*
X151675000Y-95335000D03*
X151675000Y-90085000D03*
X150405000Y-90085000D03*
X149135000Y-90085000D03*
X147865000Y-90085000D03*
%TD*%
D44*
%TO.C,Q15*%
X202195000Y-121087500D03*
X203465000Y-121087500D03*
X204735000Y-121087500D03*
X206005000Y-121087500D03*
D45*
X203465000Y-114612500D03*
X202195000Y-114612500D03*
X204735000Y-114612500D03*
D46*
X204100000Y-117400000D03*
D45*
X206005000Y-114612500D03*
%TD*%
D47*
%TO.C,R52*%
X196220000Y-102775000D03*
X196220000Y-103795000D03*
%TD*%
D22*
%TO.C,D1*%
X161260000Y-83040000D03*
X161260000Y-79740000D03*
%TD*%
D20*
%TO.C,R38*%
X124337500Y-107970000D03*
X126162500Y-107970000D03*
%TD*%
D48*
%TO.C,C20*%
X189880000Y-121450000D03*
X188920000Y-121450000D03*
%TD*%
D38*
%TO.C,R32*%
X122350000Y-109257500D03*
X122350000Y-111082500D03*
%TD*%
D20*
%TO.C,R46*%
X193057500Y-103185000D03*
X194882500Y-103185000D03*
%TD*%
D44*
%TO.C,Q17*%
X206025000Y-103447500D03*
X204755000Y-103447500D03*
X203485000Y-103447500D03*
X202215000Y-103447500D03*
D45*
X204755000Y-109922500D03*
D46*
X204120000Y-107135000D03*
D45*
X203485000Y-109922500D03*
X202215000Y-109922500D03*
X206025000Y-109922500D03*
%TD*%
D19*
%TO.C,R40*%
X143600000Y-125610000D03*
X142580000Y-125610000D03*
%TD*%
D22*
%TO.C,D13*%
X195670000Y-100335000D03*
X195670000Y-97035000D03*
%TD*%
D49*
%TO.C,U3*%
X155795000Y-109960000D03*
X152745000Y-106610000D03*
X152745000Y-109960000D03*
X155795000Y-106610000D03*
D50*
X151990000Y-114585000D03*
X154270000Y-114585000D03*
X156550000Y-114585000D03*
%TD*%
D17*
%TO.C,R17*%
X104040000Y-97230000D03*
X104040000Y-96210000D03*
%TD*%
D16*
%TO.C,C14*%
X159520000Y-111480000D03*
X159520000Y-112440000D03*
%TD*%
D40*
%TO.C,R58*%
X151682500Y-87210000D03*
X149857500Y-87210000D03*
%TD*%
D31*
%TO.C,C18*%
X186510000Y-123452500D03*
X186510000Y-125527500D03*
%TD*%
D15*
%TO.C,R8*%
X119260000Y-102440000D03*
X120280000Y-102440000D03*
%TD*%
D38*
%TO.C,R60*%
X142320000Y-81897500D03*
X142320000Y-83722500D03*
%TD*%
D48*
%TO.C,C15*%
X155020000Y-103600000D03*
X154060000Y-103600000D03*
%TD*%
D51*
%TO.C,C9*%
X143038147Y-101645315D03*
X142359325Y-102324137D03*
%TD*%
D22*
%TO.C,D16*%
X209200000Y-117900000D03*
X209200000Y-121200000D03*
%TD*%
D20*
%TO.C,R45*%
X194487500Y-129450000D03*
X196312500Y-129450000D03*
%TD*%
D49*
%TO.C,Q3*%
X182270000Y-105235000D03*
X182270000Y-101885000D03*
X185320000Y-105235000D03*
X185320000Y-101885000D03*
D50*
X186075000Y-97260000D03*
X183795000Y-97260000D03*
X181515000Y-97260000D03*
%TD*%
D19*
%TO.C,R13*%
X161790000Y-84770000D03*
X160770000Y-84770000D03*
%TD*%
D42*
%TO.C,Q9*%
X124220000Y-123010000D03*
X126120000Y-123010000D03*
X125170000Y-120010000D03*
%TD*%
D19*
%TO.C,R6*%
X161510000Y-92240000D03*
X160490000Y-92240000D03*
%TD*%
D52*
%TO.C,C28*%
X211820589Y-103300589D03*
X212499411Y-103979411D03*
%TD*%
D15*
%TO.C,R30*%
X154010000Y-102460000D03*
X155030000Y-102460000D03*
%TD*%
D13*
%TO.C,D12*%
X194750000Y-121450000D03*
X191450000Y-121450000D03*
%TD*%
D28*
%TO.C,R66*%
X157020000Y-103372500D03*
X157020000Y-101547500D03*
%TD*%
D24*
%TO.C,D4*%
X115895000Y-104480000D03*
X117645000Y-104480000D03*
%TD*%
D48*
%TO.C,C8*%
X109000000Y-81600000D03*
X108040000Y-81600000D03*
%TD*%
D15*
%TO.C,R11*%
X102510000Y-116710000D03*
X103530000Y-116710000D03*
%TD*%
%TO.C,R16*%
X119260000Y-96710000D03*
X120280000Y-96710000D03*
%TD*%
D53*
%TO.C,D11*%
X149940000Y-123535000D03*
X149940000Y-121785000D03*
%TD*%
D28*
%TO.C,R57*%
X153770000Y-91622500D03*
X153770000Y-89797500D03*
%TD*%
D17*
%TO.C,R3*%
X104020000Y-106220000D03*
X104020000Y-105200000D03*
%TD*%
D54*
%TO.C,U7*%
X189275000Y-123745000D03*
X189275000Y-125015000D03*
X189275000Y-126285000D03*
X189275000Y-127555000D03*
X194525000Y-127555000D03*
X194525000Y-126285000D03*
X194525000Y-125015000D03*
X194525000Y-123745000D03*
%TD*%
D17*
%TO.C,R4*%
X169530000Y-80950000D03*
X169530000Y-79930000D03*
%TD*%
D40*
%TO.C,R59*%
X147682500Y-87210000D03*
X145857500Y-87210000D03*
%TD*%
D55*
%TO.C,C5*%
X165020000Y-126982500D03*
X172220000Y-126982500D03*
%TD*%
D30*
%TO.C,C30*%
X162620000Y-114382500D03*
X162620000Y-121582500D03*
%TD*%
D56*
%TO.C,D2*%
X177520000Y-108670000D03*
D57*
X177520000Y-105450000D03*
%TD*%
D58*
%TO.C,C21*%
X195190000Y-95485000D03*
X196150000Y-95485000D03*
%TD*%
D30*
%TO.C,C4*%
X180520000Y-123382500D03*
X180520000Y-130582500D03*
%TD*%
D22*
%TO.C,D7*%
X159520000Y-109610000D03*
X159520000Y-106310000D03*
%TD*%
D42*
%TO.C,Q10*%
X124300000Y-113270000D03*
X126200000Y-113270000D03*
X125250000Y-110270000D03*
%TD*%
D20*
%TO.C,R44*%
X190487500Y-129450000D03*
X192312500Y-129450000D03*
%TD*%
D17*
%TO.C,R34*%
X122270000Y-123320000D03*
X122270000Y-122300000D03*
%TD*%
D59*
%TO.C,C17*%
X183912500Y-94700000D03*
X185987500Y-94700000D03*
%TD*%
D30*
%TO.C,C31*%
X156520000Y-123360000D03*
X156520000Y-130560000D03*
%TD*%
D60*
%TO.C,Q13*%
X156320000Y-93360000D03*
X158220000Y-93360000D03*
X157270000Y-90060000D03*
%TD*%
D13*
%TO.C,D17*%
X188170000Y-103085000D03*
X191470000Y-103085000D03*
%TD*%
M02*
