%TF.GenerationSoftware,KiCad,Pcbnew,7.0.11*%
%TF.CreationDate,2024-11-13T01:10:25+09:00*%
%TF.ProjectId,MD,4d442e6b-6963-4616-945f-706362585858,rev?*%
%TF.SameCoordinates,Original*%
%TF.FileFunction,Copper,L1,Top*%
%TF.FilePolarity,Positive*%
%FSLAX46Y46*%
G04 Gerber Fmt 4.6, Leading zero omitted, Abs format (unit mm)*
G04 Created by KiCad (PCBNEW 7.0.11) date 2024-11-13 01:10:25*
%MOMM*%
%LPD*%
G01*
G04 APERTURE LIST*
G04 Aperture macros list*
%AMRoundRect*
0 Rectangle with rounded corners*
0 $1 Rounding radius*
0 $2 $3 $4 $5 $6 $7 $8 $9 X,Y pos of 4 corners*
0 Add a 4 corners polygon primitive as box body*
4,1,4,$2,$3,$4,$5,$6,$7,$8,$9,$2,$3,0*
0 Add four circle primitives for the rounded corners*
1,1,$1+$1,$2,$3*
1,1,$1+$1,$4,$5*
1,1,$1+$1,$6,$7*
1,1,$1+$1,$8,$9*
0 Add four rect primitives between the rounded corners*
20,1,$1+$1,$2,$3,$4,$5,0*
20,1,$1+$1,$4,$5,$6,$7,0*
20,1,$1+$1,$6,$7,$8,$9,0*
20,1,$1+$1,$8,$9,$2,$3,0*%
G04 Aperture macros list end*
%TA.AperFunction,SMDPad,CuDef*%
%ADD10RoundRect,0.250000X0.362500X1.425000X-0.362500X1.425000X-0.362500X-1.425000X0.362500X-1.425000X0*%
%TD*%
%TA.AperFunction,SMDPad,CuDef*%
%ADD11RoundRect,0.225000X0.225000X0.250000X-0.225000X0.250000X-0.225000X-0.250000X0.225000X-0.250000X0*%
%TD*%
%TA.AperFunction,SMDPad,CuDef*%
%ADD12RoundRect,0.225000X-0.225000X-0.375000X0.225000X-0.375000X0.225000X0.375000X-0.225000X0.375000X0*%
%TD*%
%TA.AperFunction,SMDPad,CuDef*%
%ADD13RoundRect,0.225000X0.250000X-0.225000X0.250000X0.225000X-0.250000X0.225000X-0.250000X-0.225000X0*%
%TD*%
%TA.AperFunction,SMDPad,CuDef*%
%ADD14RoundRect,0.200000X0.200000X0.275000X-0.200000X0.275000X-0.200000X-0.275000X0.200000X-0.275000X0*%
%TD*%
%TA.AperFunction,SMDPad,CuDef*%
%ADD15R,0.900000X0.400000*%
%TD*%
%TA.AperFunction,SMDPad,CuDef*%
%ADD16R,0.900000X0.375000*%
%TD*%
%TA.AperFunction,SMDPad,CuDef*%
%ADD17R,0.700000X0.400000*%
%TD*%
%TA.AperFunction,SMDPad,CuDef*%
%ADD18R,2.200000X2.650000*%
%TD*%
%TA.AperFunction,SMDPad,CuDef*%
%ADD19R,0.700000X0.375000*%
%TD*%
%TA.AperFunction,SMDPad,CuDef*%
%ADD20RoundRect,0.237500X-0.237500X0.287500X-0.237500X-0.287500X0.237500X-0.287500X0.237500X0.287500X0*%
%TD*%
%TA.AperFunction,SMDPad,CuDef*%
%ADD21R,1.500000X0.700000*%
%TD*%
%TA.AperFunction,SMDPad,CuDef*%
%ADD22R,0.800000X1.000000*%
%TD*%
%TA.AperFunction,ComponentPad*%
%ADD23RoundRect,0.250000X-0.675000X0.600000X-0.675000X-0.600000X0.675000X-0.600000X0.675000X0.600000X0*%
%TD*%
%TA.AperFunction,ComponentPad*%
%ADD24O,1.850000X1.700000*%
%TD*%
%TA.AperFunction,ComponentPad*%
%ADD25RoundRect,0.250000X0.600000X0.675000X-0.600000X0.675000X-0.600000X-0.675000X0.600000X-0.675000X0*%
%TD*%
%TA.AperFunction,ComponentPad*%
%ADD26O,1.700000X1.850000*%
%TD*%
%TA.AperFunction,ComponentPad*%
%ADD27C,1.200000*%
%TD*%
%TA.AperFunction,ComponentPad*%
%ADD28R,1.000000X1.000000*%
%TD*%
%TA.AperFunction,ComponentPad*%
%ADD29O,1.000000X1.000000*%
%TD*%
%TA.AperFunction,ViaPad*%
%ADD30C,0.450000*%
%TD*%
%TA.AperFunction,ViaPad*%
%ADD31C,0.600000*%
%TD*%
%TA.AperFunction,Conductor*%
%ADD32C,0.200000*%
%TD*%
%TA.AperFunction,Conductor*%
%ADD33C,1.000000*%
%TD*%
G04 APERTURE END LIST*
D10*
%TO.P,R61,1*%
%TO.N,GND*%
X27462500Y-21400000D03*
%TO.P,R61,2*%
%TO.N,/MotorDriver/BridgeB_S*%
X21537500Y-21400000D03*
%TD*%
D11*
%TO.P,C41,1*%
%TO.N,/MotorDriver/BridgeC_S*%
X21275000Y-9500000D03*
%TO.P,C41,2*%
%TO.N,Net-(C41-Pad2)*%
X19725000Y-9500000D03*
%TD*%
%TO.P,C38,1*%
%TO.N,/MotorDriver/BridgeB_S*%
X21275000Y-18700000D03*
%TO.P,C38,2*%
%TO.N,Net-(C38-Pad2)*%
X19725000Y-18700000D03*
%TD*%
D12*
%TO.P,D18,1,K*%
%TO.N,VDD*%
X11750000Y-7500000D03*
%TO.P,D18,2,A*%
%TO.N,/MotorDriver/Phase_W*%
X15050000Y-7500000D03*
%TD*%
D13*
%TO.P,C40,1*%
%TO.N,/MotorDriver/Phase_W*%
X15200000Y-11075000D03*
%TO.P,C40,2*%
%TO.N,Net-(C40-Pad2)*%
X15200000Y-9525000D03*
%TD*%
D14*
%TO.P,R67,1*%
%TO.N,Net-(C33-Pad2)*%
X13725000Y-27900000D03*
%TO.P,R67,2*%
%TO.N,VDD*%
X12075000Y-27900000D03*
%TD*%
%TO.P,R68,1*%
%TO.N,Net-(C34-Pad2)*%
X18325000Y-27900000D03*
%TO.P,R68,2*%
%TO.N,/MotorDriver/Phase_U*%
X16675000Y-27900000D03*
%TD*%
D15*
%TO.P,Q12,1,S*%
%TO.N,/MotorDriver/BridgeC_S*%
X20050000Y-13075000D03*
%TO.P,Q12,2,S*%
X20050000Y-12425000D03*
D16*
%TO.P,Q12,3,S*%
X20050000Y-11787500D03*
D15*
%TO.P,Q12,4,G*%
%TO.N,Net-(Q12-G)*%
X20050000Y-11125000D03*
D17*
%TO.P,Q12,5,D*%
%TO.N,/MotorDriver/Phase_W*%
X16450000Y-13075000D03*
X16450000Y-12425000D03*
D18*
X17900000Y-12100000D03*
D19*
X16450000Y-11787500D03*
D17*
X16450000Y-11125000D03*
%TD*%
D15*
%TO.P,Q10,1,S*%
%TO.N,/MotorDriver/Phase_U*%
X13850000Y-31475000D03*
%TO.P,Q10,2,S*%
X13850000Y-30825000D03*
D16*
%TO.P,Q10,3,S*%
X13850000Y-30187500D03*
D15*
%TO.P,Q10,4,G*%
%TO.N,Net-(Q10-G)*%
X13850000Y-29525000D03*
D17*
%TO.P,Q10,5,D*%
%TO.N,VDD*%
X10250000Y-31475000D03*
X10250000Y-30825000D03*
D18*
X11700000Y-30500000D03*
D19*
X10250000Y-30187500D03*
D17*
X10250000Y-29525000D03*
%TD*%
D13*
%TO.P,C37,1*%
%TO.N,/MotorDriver/Phase_V*%
X15200000Y-20275000D03*
%TO.P,C37,2*%
%TO.N,Net-(C37-Pad2)*%
X15200000Y-18725000D03*
%TD*%
D10*
%TO.P,R66,1*%
%TO.N,GND*%
X27462500Y-12200000D03*
%TO.P,R66,2*%
%TO.N,/MotorDriver/BridgeC_S*%
X21537500Y-12200000D03*
%TD*%
D12*
%TO.P,D17,1,K*%
%TO.N,/MotorDriver/Phase_V*%
X16550000Y-16700000D03*
%TO.P,D17,2,A*%
%TO.N,/MotorDriver/BridgeB_S*%
X19850000Y-16700000D03*
%TD*%
D20*
%TO.P,D1,1,K*%
%TO.N,nFAULT*%
X34013195Y-9625000D03*
%TO.P,D1,2,A*%
%TO.N,Net-(D1-A)*%
X34013195Y-11375000D03*
%TD*%
D14*
%TO.P,R73,1*%
%TO.N,Net-(C40-Pad2)*%
X13725000Y-9500000D03*
%TO.P,R73,2*%
%TO.N,VDD*%
X12075000Y-9500000D03*
%TD*%
D21*
%TO.P,SW4,1,A*%
%TO.N,/Power/PowerSW*%
X7000000Y-9500000D03*
%TO.P,SW4,2,B*%
%TO.N,Net-(SW4-B)*%
X7000000Y-12500000D03*
%TO.P,SW4,3,C*%
%TO.N,unconnected-(SW4-C-Pad3)*%
X7000000Y-14000000D03*
%TO.P,SW4,4,shell*%
%TO.N,GND*%
X1900000Y-9500000D03*
%TO.P,SW4,5,shell*%
X1900000Y-12500000D03*
%TO.P,SW4,6,shell*%
X1900000Y-14000000D03*
D22*
%TO.P,SW4,G1,shell*%
X6300000Y-8250000D03*
%TO.P,SW4,G2,shell*%
X6300000Y-15250000D03*
%TO.P,SW4,G3,shell*%
X2600000Y-8250000D03*
%TO.P,SW4,G4,shell*%
X2600000Y-15250000D03*
%TD*%
D12*
%TO.P,D15,1,K*%
%TO.N,/MotorDriver/Phase_U*%
X16550000Y-25900000D03*
%TO.P,D15,2,A*%
%TO.N,/MotorDriver/BridgeA_S*%
X19850000Y-25900000D03*
%TD*%
D23*
%TO.P,J6,1,Pin_1*%
%TO.N,/MotorDriver/Phase_W*%
X6950000Y-19500000D03*
D24*
%TO.P,J6,2,Pin_2*%
%TO.N,/MotorDriver/Phase_V*%
X6950000Y-22000000D03*
%TO.P,J6,3,Pin_3*%
%TO.N,/MotorDriver/Phase_U*%
X6950000Y-24500000D03*
%TD*%
D15*
%TO.P,Q6,1,S*%
%TO.N,/Power/S-S*%
X13850000Y-5375000D03*
%TO.P,Q6,2,S*%
X13850000Y-4725000D03*
D16*
%TO.P,Q6,3,S*%
X13850000Y-4087500D03*
D15*
%TO.P,Q6,4,G*%
%TO.N,Net-(Q6-G)*%
X13850000Y-3425000D03*
D17*
%TO.P,Q6,5,D*%
%TO.N,VDD*%
X10250000Y-5375000D03*
X10250000Y-4725000D03*
D18*
X11700000Y-4400000D03*
D19*
X10250000Y-4087500D03*
D17*
X10250000Y-3425000D03*
%TD*%
D15*
%TO.P,Q9,1,S*%
%TO.N,/MotorDriver/Phase_V*%
X13850000Y-22275000D03*
%TO.P,Q9,2,S*%
X13850000Y-21625000D03*
D16*
%TO.P,Q9,3,S*%
X13850000Y-20987500D03*
D15*
%TO.P,Q9,4,G*%
%TO.N,Net-(Q9-G)*%
X13850000Y-20325000D03*
D17*
%TO.P,Q9,5,D*%
%TO.N,VDD*%
X10250000Y-22275000D03*
X10250000Y-21625000D03*
D18*
X11700000Y-21300000D03*
D19*
X10250000Y-20987500D03*
D17*
X10250000Y-20325000D03*
%TD*%
D11*
%TO.P,C34,1*%
%TO.N,/MotorDriver/BridgeA_S*%
X21275000Y-27900000D03*
%TO.P,C34,2*%
%TO.N,Net-(C34-Pad2)*%
X19725000Y-27900000D03*
%TD*%
D13*
%TO.P,C33,1*%
%TO.N,/MotorDriver/Phase_U*%
X15200000Y-29475000D03*
%TO.P,C33,2*%
%TO.N,Net-(C33-Pad2)*%
X15200000Y-27925000D03*
%TD*%
D15*
%TO.P,Q8,1,S*%
%TO.N,/MotorDriver/BridgeB_S*%
X20050000Y-22275000D03*
%TO.P,Q8,2,S*%
X20050000Y-21625000D03*
D16*
%TO.P,Q8,3,S*%
X20050000Y-20987500D03*
D15*
%TO.P,Q8,4,G*%
%TO.N,Net-(Q8-G)*%
X20050000Y-20325000D03*
D17*
%TO.P,Q8,5,D*%
%TO.N,/MotorDriver/Phase_V*%
X16450000Y-22275000D03*
X16450000Y-21625000D03*
D18*
X17900000Y-21300000D03*
D19*
X16450000Y-20987500D03*
D17*
X16450000Y-20325000D03*
%TD*%
D11*
%TO.P,C35,1*%
%TO.N,/MotorDriver/BridgeA_S*%
X19875000Y-33100000D03*
%TO.P,C35,2*%
%TO.N,VDD*%
X18325000Y-33100000D03*
%TD*%
D12*
%TO.P,D16,1,K*%
%TO.N,VDD*%
X11750000Y-16700000D03*
%TO.P,D16,2,A*%
%TO.N,/MotorDriver/Phase_V*%
X15050000Y-16700000D03*
%TD*%
D14*
%TO.P,R74,1*%
%TO.N,Net-(C41-Pad2)*%
X18325000Y-9500000D03*
%TO.P,R74,2*%
%TO.N,/MotorDriver/Phase_W*%
X16675000Y-9500000D03*
%TD*%
%TO.P,R70,1*%
%TO.N,Net-(C37-Pad2)*%
X13725000Y-18700000D03*
%TO.P,R70,2*%
%TO.N,VDD*%
X12075000Y-18700000D03*
%TD*%
D12*
%TO.P,D19,1,K*%
%TO.N,/MotorDriver/Phase_W*%
X16550000Y-7500000D03*
%TO.P,D19,2,A*%
%TO.N,/MotorDriver/BridgeC_S*%
X19850000Y-7500000D03*
%TD*%
%TO.P,D14,1,K*%
%TO.N,VDD*%
X11750000Y-25900000D03*
%TO.P,D14,2,A*%
%TO.N,/MotorDriver/Phase_U*%
X15050000Y-25900000D03*
%TD*%
D10*
%TO.P,R56,1*%
%TO.N,GND*%
X27462500Y-30600000D03*
%TO.P,R56,2*%
%TO.N,/MotorDriver/BridgeA_S*%
X21537500Y-30600000D03*
%TD*%
D11*
%TO.P,C39,1*%
%TO.N,/MotorDriver/BridgeC_S*%
X19875000Y-14700000D03*
%TO.P,C39,2*%
%TO.N,VDD*%
X18325000Y-14700000D03*
%TD*%
D15*
%TO.P,Q11,1,S*%
%TO.N,/MotorDriver/Phase_W*%
X13850000Y-13075000D03*
%TO.P,Q11,2,S*%
X13850000Y-12425000D03*
D16*
%TO.P,Q11,3,S*%
X13850000Y-11787500D03*
D15*
%TO.P,Q11,4,G*%
%TO.N,Net-(Q11-G)*%
X13850000Y-11125000D03*
D17*
%TO.P,Q11,5,D*%
%TO.N,VDD*%
X10250000Y-13075000D03*
X10250000Y-12425000D03*
D18*
X11700000Y-12100000D03*
D19*
X10250000Y-11787500D03*
D17*
X10250000Y-11125000D03*
%TD*%
D25*
%TO.P,J5,1,Pin_1*%
%TO.N,GND*%
X26150000Y-6850000D03*
D26*
%TO.P,J5,2,Pin_2*%
%TO.N,/Power/24VBAT*%
X23650000Y-6850000D03*
%TD*%
D14*
%TO.P,R71,1*%
%TO.N,Net-(C38-Pad2)*%
X18325000Y-18700000D03*
%TO.P,R71,2*%
%TO.N,/MotorDriver/Phase_V*%
X16675000Y-18700000D03*
%TD*%
D15*
%TO.P,Q7,1,S*%
%TO.N,/MotorDriver/BridgeA_S*%
X20050000Y-31475000D03*
%TO.P,Q7,2,S*%
X20050000Y-30825000D03*
D16*
%TO.P,Q7,3,S*%
X20050000Y-30187500D03*
D15*
%TO.P,Q7,4,G*%
%TO.N,Net-(Q7-G)*%
X20050000Y-29525000D03*
D17*
%TO.P,Q7,5,D*%
%TO.N,/MotorDriver/Phase_U*%
X16450000Y-31475000D03*
X16450000Y-30825000D03*
D18*
X17900000Y-30500000D03*
D19*
X16450000Y-30187500D03*
D17*
X16450000Y-29525000D03*
%TD*%
D11*
%TO.P,C36,1*%
%TO.N,/MotorDriver/BridgeB_S*%
X19875000Y-23900000D03*
%TO.P,C36,2*%
%TO.N,VDD*%
X18325000Y-23900000D03*
%TD*%
D15*
%TO.P,Q2,1,S*%
%TO.N,/Power/S-S*%
X16550000Y-3425000D03*
%TO.P,Q2,2,S*%
X16550000Y-4075000D03*
D16*
%TO.P,Q2,3,S*%
X16550000Y-4712500D03*
D15*
%TO.P,Q2,4,G*%
%TO.N,Net-(Q2-G)*%
X16550000Y-5375000D03*
D17*
%TO.P,Q2,5,D*%
%TO.N,/Power/24VBAT*%
X20150000Y-3425000D03*
X20150000Y-4075000D03*
D18*
X18700000Y-4400000D03*
D19*
X20150000Y-4712500D03*
D17*
X20150000Y-5375000D03*
%TD*%
D27*
%TO.P,C17,1*%
%TO.N,VDD*%
X12500000Y-1100000D03*
%TO.P,C17,2*%
%TO.N,GND*%
X10500000Y-1100000D03*
%TD*%
D28*
%TO.P,J4,1,Pin_1*%
%TO.N,VDD*%
X31355000Y-7175000D03*
D29*
%TO.P,J4,2,Pin_2*%
X32625000Y-7175000D03*
%TO.P,J4,3,Pin_3*%
%TO.N,SOC*%
X31355000Y-8445000D03*
%TO.P,J4,4,Pin_4*%
%TO.N,ENABLE*%
X32625000Y-8445000D03*
%TO.P,J4,5,Pin_5*%
%TO.N,SOB*%
X31355000Y-9715000D03*
%TO.P,J4,6,Pin_6*%
%TO.N,nFAULT*%
X32625000Y-9715000D03*
%TO.P,J4,7,Pin_7*%
%TO.N,SOA*%
X31355000Y-10985000D03*
%TO.P,J4,8,Pin_8*%
%TO.N,INB_L*%
X32625000Y-10985000D03*
%TO.P,J4,9,Pin_9*%
%TO.N,MISO1*%
X31355000Y-12255000D03*
%TO.P,J4,10,Pin_10*%
%TO.N,INC_L*%
X32625000Y-12255000D03*
%TO.P,J4,11,Pin_11*%
%TO.N,MOSI1*%
X31355000Y-13525000D03*
%TO.P,J4,12,Pin_12*%
%TO.N,INA_L*%
X32625000Y-13525000D03*
%TO.P,J4,13,Pin_13*%
%TO.N,SCLK1*%
X31355000Y-14795000D03*
%TO.P,J4,14,Pin_14*%
%TO.N,CAL*%
X32625000Y-14795000D03*
%TO.P,J4,15,Pin_15*%
%TO.N,CS1_MD*%
X31355000Y-16065000D03*
%TO.P,J4,16,Pin_16*%
%TO.N,+3.3V*%
X32625000Y-16065000D03*
%TO.P,J4,17,Pin_17*%
%TO.N,INA_H*%
X31355000Y-17335000D03*
%TO.P,J4,18,Pin_18*%
%TO.N,GND*%
X32625000Y-17335000D03*
%TO.P,J4,19,Pin_19*%
%TO.N,INB_H*%
X31355000Y-18605000D03*
%TO.P,J4,20,Pin_20*%
%TO.N,GND*%
X32625000Y-18605000D03*
%TO.P,J4,21,Pin_21*%
%TO.N,INC_H*%
X31355000Y-19875000D03*
%TO.P,J4,22,Pin_22*%
%TO.N,GND*%
X32625000Y-19875000D03*
%TO.P,J4,23,Pin_23*%
X31355000Y-21145000D03*
%TO.P,J4,24,Pin_24*%
X32625000Y-21145000D03*
%TO.P,J4,25,Pin_25*%
X31355000Y-22415000D03*
%TO.P,J4,26,Pin_26*%
X32625000Y-22415000D03*
%TD*%
D27*
%TO.P,C2,1*%
%TO.N,VDD*%
X17800000Y-1100000D03*
%TO.P,C2,2*%
%TO.N,GND*%
X15800000Y-1100000D03*
%TD*%
D30*
%TO.N,/Power/S-S*%
X16750000Y-3900000D03*
X14750000Y-3900000D03*
X15700000Y-5900000D03*
X13750000Y-5900000D03*
X16250000Y-3400000D03*
X4399660Y-6666988D03*
X16250000Y-4400000D03*
X13750000Y-4900000D03*
X14750000Y-5900000D03*
X14250000Y-4400000D03*
X15250000Y-3400000D03*
X13757483Y-4050002D03*
X14250000Y-5400000D03*
X16900000Y-4700000D03*
X15750000Y-3900000D03*
X15250000Y-5400000D03*
X14750000Y-4900000D03*
X6472237Y-2875502D03*
X15250000Y-4400000D03*
X15750000Y-4900000D03*
%TO.N,Net-(Q6-G)*%
X7201878Y-6379074D03*
X13234655Y-3497052D03*
%TO.N,VDD*%
X2500000Y-27250000D03*
X7500000Y-32250000D03*
X12000000Y-31750000D03*
X10500000Y-3250000D03*
X8500000Y-5250000D03*
X4500000Y-28250000D03*
X12500000Y-4250000D03*
X8500000Y-29250000D03*
X3500000Y-17250000D03*
X10500000Y-31250000D03*
X6500000Y-30250000D03*
X3500000Y-19250000D03*
X11500000Y-3250000D03*
X3500000Y-21250000D03*
X8500000Y-10250000D03*
X9500000Y-32250000D03*
X8500000Y-6250000D03*
X11750000Y-11100000D03*
X3500000Y-29250000D03*
X10500000Y-6250000D03*
X11000000Y-13000000D03*
X9500000Y-3250000D03*
X8500000Y-7250000D03*
X2500000Y-19250000D03*
X4500000Y-23250000D03*
X11500000Y-4250000D03*
X2500000Y-28250000D03*
X12500000Y-32250000D03*
X3500000Y-25250000D03*
X4500000Y-29250000D03*
X8500000Y-28250000D03*
X5500000Y-31250000D03*
X7500000Y-31250000D03*
X11000000Y-20250000D03*
X4500000Y-25250000D03*
X4500000Y-26250000D03*
X3500000Y-20250000D03*
X9500000Y-4250000D03*
X3500000Y-28250000D03*
X12500000Y-3250000D03*
X6500000Y-29250000D03*
X10500000Y-4250000D03*
X11000000Y-30750000D03*
X2500000Y-20250000D03*
X10500000Y-8250000D03*
X11750000Y-20250000D03*
X10000000Y-31750000D03*
X5500000Y-30250000D03*
X11500000Y-31250000D03*
X2500000Y-18250000D03*
X7500000Y-29250000D03*
X9500000Y-31250000D03*
X11500000Y-32250000D03*
X8500000Y-9250000D03*
X2500000Y-17250000D03*
X4500000Y-17250000D03*
X7500000Y-28250000D03*
X6500000Y-32250000D03*
X4500000Y-18250000D03*
X3500000Y-26250000D03*
X9500000Y-30250000D03*
X3500000Y-22250000D03*
X9500000Y-9250000D03*
X12500000Y-29500000D03*
X11750000Y-13000000D03*
X8500000Y-30250000D03*
X8500000Y-8250000D03*
X10500000Y-5250000D03*
X6500000Y-26250000D03*
X9500000Y-29250000D03*
X11000000Y-11100000D03*
X4500000Y-20250000D03*
X2500000Y-26250000D03*
X5500000Y-28250000D03*
X2500000Y-21250000D03*
X5500000Y-29250000D03*
X2500000Y-24250000D03*
X8500000Y-3250000D03*
X5500000Y-26250000D03*
X12500000Y-5250000D03*
X10000000Y-30750000D03*
X5500000Y-27250000D03*
X9500000Y-8250000D03*
X2500000Y-25250000D03*
X5000000Y-23750000D03*
X11500000Y-6250000D03*
X11500000Y-7250000D03*
X9500000Y-6250000D03*
X8500000Y-32250000D03*
X9500000Y-7250000D03*
X11000000Y-31750000D03*
X4500000Y-21250000D03*
X11000000Y-22250000D03*
X8500000Y-31250000D03*
X4500000Y-30250000D03*
X10500000Y-7250000D03*
X4500000Y-22250000D03*
X6500000Y-27250000D03*
X7500000Y-30250000D03*
X12500000Y-6250000D03*
X4500000Y-24250000D03*
X11500000Y-5250000D03*
X11750000Y-22250000D03*
X8500000Y-4250000D03*
X2500000Y-23250000D03*
X6500000Y-31250000D03*
X3500000Y-27250000D03*
X10000000Y-29750000D03*
X4500000Y-19250000D03*
X5500000Y-24250000D03*
X9500000Y-5250000D03*
X10500000Y-30250000D03*
X4500000Y-27250000D03*
X3500000Y-18250000D03*
X6500000Y-28250000D03*
X3500000Y-23250000D03*
X5500000Y-25250000D03*
X3500000Y-24250000D03*
X10500000Y-32250000D03*
X2500000Y-22250000D03*
X7500000Y-27250000D03*
%TO.N,GND*%
X1200000Y-18000000D03*
X3500000Y-1000000D03*
X29000000Y-25750000D03*
X4400000Y-34200000D03*
X8500000Y-1000000D03*
X26500228Y-27437238D03*
X30000000Y-3000000D03*
X24351545Y-18027628D03*
X23297632Y-14332182D03*
X27986153Y-7665974D03*
X28709998Y-28812955D03*
X30250000Y-27250000D03*
X18381441Y-25963656D03*
X28756875Y-22677496D03*
X29150090Y-12960821D03*
X24373553Y-19172059D03*
X12400000Y-34200000D03*
X5000000Y-2250000D03*
X27474292Y-31284367D03*
X27480841Y-27437238D03*
X23022036Y-19174995D03*
X24500000Y-30000000D03*
X1200000Y-24400000D03*
X25488832Y-31249656D03*
X29344024Y-31853527D03*
X4400000Y-14200000D03*
X29333997Y-29477170D03*
X27807183Y-22673218D03*
X26547831Y-28808191D03*
X1200000Y-9800000D03*
X33425406Y-10489133D03*
X26500000Y-31250000D03*
X2400000Y-16200000D03*
X27990709Y-12960821D03*
X24931740Y-31751324D03*
X29097797Y-9024165D03*
X29210575Y-23148666D03*
X27829842Y-21806477D03*
X7580781Y-3804482D03*
X26515790Y-32264037D03*
X28250000Y-1000000D03*
X25512482Y-19128042D03*
X28789730Y-16986068D03*
X19528831Y-26935634D03*
X26500000Y-30000000D03*
X34000000Y-27250000D03*
X27474292Y-28812955D03*
X29176980Y-22223782D03*
X8000000Y-33400000D03*
X1800000Y-7600000D03*
X32254152Y-27291344D03*
X25551586Y-32256384D03*
X5000000Y-7800000D03*
X26056645Y-31720715D03*
X24426680Y-31208003D03*
X25000000Y-4000000D03*
X30250000Y-30500000D03*
X29303917Y-28013254D03*
X22750000Y-34000000D03*
X18100705Y-6895796D03*
X25468466Y-18011122D03*
X7866903Y-11731696D03*
X28681425Y-32363518D03*
X25495976Y-20178938D03*
X22791394Y-28041123D03*
X4400000Y-16200000D03*
X1200000Y-21200000D03*
X28076884Y-28055206D03*
X1200000Y-15000000D03*
X26000000Y-2250000D03*
X34199707Y-12345095D03*
X23870146Y-25260727D03*
X26532128Y-4791837D03*
X29323971Y-30610201D03*
X24748659Y-2724188D03*
X26033688Y-28039901D03*
X26631680Y-19095280D03*
X28092189Y-29455599D03*
X5600000Y-8600000D03*
X29181436Y-7759009D03*
X26664471Y-26206642D03*
X26982588Y-28039901D03*
X24357047Y-16960226D03*
X1200000Y-28400000D03*
X24013133Y-20638110D03*
X27393171Y-22167330D03*
X5750000Y-3500000D03*
X2800000Y-30000000D03*
X22833753Y-8770887D03*
X21579589Y-23925000D03*
X27467350Y-29979239D03*
X25030864Y-8816469D03*
X2000000Y-10400000D03*
X4000000Y-4750000D03*
X26698716Y-3517930D03*
X29982009Y-10367076D03*
X23750000Y-5250000D03*
X28274760Y-24821045D03*
X18733451Y-7810217D03*
X25452972Y-27465799D03*
X20813551Y-24159771D03*
X4300000Y-12300000D03*
X1800000Y-33600000D03*
X8250000Y-2000000D03*
X21015422Y-5729515D03*
X26959631Y-29371422D03*
X33250000Y-33500000D03*
X27462500Y-14010821D03*
X1000000Y-31800000D03*
X1200000Y-12400000D03*
X25733952Y-9847384D03*
X33500000Y-5250000D03*
X29554012Y-23658551D03*
X5750000Y-1000000D03*
X32000000Y-5000000D03*
X5000000Y-32200000D03*
X29173765Y-21402366D03*
X28266181Y-21415332D03*
X22238945Y-6912995D03*
X28082808Y-10323724D03*
X29946357Y-12960821D03*
X20750000Y-2250000D03*
X24962349Y-28116426D03*
X7595912Y-5543687D03*
X33000000Y-1250000D03*
X28698086Y-14010821D03*
X28342209Y-11772599D03*
X24602686Y-33182327D03*
X28668345Y-27424521D03*
X30000000Y-34000000D03*
X21099956Y-6899647D03*
X22990265Y-18090221D03*
X19204805Y-15468521D03*
X29287570Y-6936842D03*
X22999342Y-17068990D03*
X2000000Y-8800000D03*
X32000000Y-29200000D03*
X17250000Y-6250000D03*
X22972721Y-32233427D03*
X29398304Y-24244577D03*
X34000000Y-24750000D03*
X33000000Y-25800000D03*
X18697974Y-15730527D03*
X23646133Y-31713062D03*
X1000000Y-7600000D03*
X25457461Y-17009745D03*
X24980217Y-12429030D03*
X23250000Y-2250000D03*
X3400000Y-13400000D03*
X26629403Y-17983611D03*
X28742871Y-21800876D03*
X34000000Y-4000000D03*
X26692009Y-9045455D03*
X27385353Y-21420307D03*
X29649445Y-16934577D03*
X1500000Y-1500000D03*
X31250000Y-25750000D03*
X24107411Y-13111340D03*
X28168713Y-30588157D03*
X26500000Y-34000000D03*
X34000000Y-30000000D03*
X28696114Y-29958412D03*
X25980355Y-11659595D03*
X29935007Y-11561298D03*
X27005545Y-31705410D03*
X24114795Y-8176756D03*
X26618399Y-20085403D03*
X19681317Y-2249359D03*
X18500000Y-2250000D03*
X10800000Y-33400000D03*
X28033289Y-9024165D03*
X15800000Y-34200000D03*
X24676541Y-10940279D03*
X24048265Y-9809304D03*
X24916435Y-29424989D03*
X30009473Y-14010821D03*
X24500000Y-27500000D03*
X29179034Y-11751864D03*
X22735465Y-29893769D03*
X34089777Y-8569233D03*
X750000Y-3500000D03*
X23569609Y-30955473D03*
X28675287Y-31284367D03*
X25481533Y-28760589D03*
X28084536Y-31789587D03*
X25491054Y-29998255D03*
X26885587Y-10524244D03*
X23562945Y-3772711D03*
X28269516Y-22210886D03*
X2000000Y-4750000D03*
X2400000Y-12200000D03*
X19250000Y-34000000D03*
X26150453Y-20771724D03*
X4200000Y-8800000D03*
X27510605Y-32256384D03*
X27750000Y-4000000D03*
X22083254Y-2665392D03*
X29750000Y-1750000D03*
X30750000Y-1000000D03*
X750000Y-5750000D03*
X6800000Y-34200000D03*
X9400000Y-34200000D03*
X6918568Y-10320203D03*
X24462839Y-28770109D03*
X28070936Y-5728687D03*
X19000000Y-6250000D03*
X23048628Y-20491082D03*
X28287790Y-23148385D03*
X23000000Y-31250000D03*
X34165357Y-5968842D03*
X22799545Y-11011964D03*
X25941859Y-29371422D03*
X24380766Y-32317603D03*
X29500000Y-5750000D03*
X22250000Y-3750000D03*
X26612896Y-17004243D03*
X28758080Y-23568373D03*
%TO.N,+3.3V*%
X30172927Y-25334785D03*
X23768761Y-16541125D03*
%TO.N,/MotorDriver/Phase_U*%
X17250000Y-28950000D03*
X15250000Y-26950000D03*
X16750000Y-26450000D03*
X17250000Y-27950000D03*
X13750000Y-30450000D03*
X16750000Y-27450000D03*
X15250000Y-25950000D03*
X15750000Y-31450000D03*
X14750000Y-25450000D03*
X18750000Y-31450000D03*
X17250000Y-26950000D03*
X17250000Y-31950000D03*
X18750000Y-30450000D03*
X16250000Y-25950000D03*
X18250000Y-29950000D03*
X15750000Y-26450000D03*
X15250000Y-30950000D03*
X14750000Y-30450000D03*
X15750000Y-30450000D03*
X18250000Y-30950000D03*
X18443292Y-24838834D03*
X14250000Y-31950000D03*
X16250000Y-30950000D03*
X16250000Y-29950000D03*
X5386387Y-11520073D03*
X17750000Y-29450000D03*
X16250000Y-27950000D03*
X17250000Y-30950000D03*
X23767989Y-23398042D03*
X14750000Y-26450000D03*
X17750000Y-30450000D03*
X15250000Y-28950000D03*
X14250000Y-30950000D03*
X16750000Y-25450000D03*
X14750000Y-31450000D03*
X15250000Y-29950000D03*
X13750000Y-31450000D03*
X18750000Y-29450000D03*
X15250000Y-31950000D03*
X14750000Y-29450000D03*
X16750000Y-30450000D03*
X16250000Y-31950000D03*
X16250000Y-28950000D03*
X15750000Y-29450000D03*
X16250000Y-26950000D03*
X18250000Y-28950000D03*
X16750000Y-29450000D03*
X15750000Y-25450000D03*
X17750000Y-31450000D03*
X18250000Y-31950000D03*
X16750000Y-28450000D03*
X17250000Y-29950000D03*
X16750000Y-31450000D03*
%TO.N,/MotorDriver/BridgeA_S*%
X22861486Y-24046663D03*
%TO.N,/MotorDriver/BridgeB_S*%
X20800000Y-23500000D03*
%TO.N,/MotorDriver/Phase_V*%
X16750000Y-16250000D03*
X15500000Y-22500000D03*
X16000000Y-23000000D03*
X14500000Y-21500000D03*
X16000000Y-22000000D03*
X15000000Y-23000000D03*
X17500000Y-22500000D03*
X15250000Y-17750000D03*
X14750000Y-16250000D03*
X17000000Y-21000000D03*
X18000000Y-23000000D03*
X19000000Y-23000000D03*
X17250000Y-17750000D03*
X14500000Y-22500000D03*
X18500000Y-20500000D03*
X14000000Y-23000000D03*
X17000000Y-22000000D03*
X15000000Y-21000000D03*
X17500000Y-20500000D03*
X16250000Y-16750000D03*
X15750000Y-17250000D03*
X17000000Y-23000000D03*
X19000000Y-22000000D03*
X14750000Y-17250000D03*
X19000000Y-21000000D03*
X16500000Y-21500000D03*
X15000000Y-22000000D03*
X15500000Y-21500000D03*
X16000000Y-21000000D03*
X15750000Y-16250000D03*
X17250000Y-18500000D03*
X16750000Y-17250000D03*
X15250000Y-16750000D03*
X5687798Y-10870725D03*
X18500000Y-21500000D03*
X18500000Y-22500000D03*
X16250000Y-17750000D03*
X13500000Y-21500000D03*
X17500000Y-21500000D03*
X18000000Y-22000000D03*
X16500000Y-20500000D03*
X15500000Y-20500000D03*
X18000000Y-21000000D03*
X16500000Y-22500000D03*
X13500000Y-22500000D03*
X16250000Y-18500000D03*
X14000000Y-22000000D03*
%TO.N,/MotorDriver/BridgeC_S*%
X23729902Y-11795725D03*
%TO.N,/MotorDriver/Phase_W*%
X17250000Y-8550000D03*
X16750000Y-10050000D03*
X15750000Y-8050000D03*
X16750000Y-8050000D03*
X17750000Y-13050000D03*
X15750000Y-12050000D03*
X18750000Y-12050000D03*
X14750000Y-12050000D03*
X16250000Y-12550000D03*
X15250000Y-10550000D03*
X15250000Y-8550000D03*
X16250000Y-13550000D03*
X15250000Y-7550000D03*
X18250000Y-11550000D03*
X17250000Y-13550000D03*
X15750000Y-13050000D03*
X14250000Y-12550000D03*
X16250000Y-9550000D03*
X16750000Y-12050000D03*
X17250000Y-10550000D03*
X15250000Y-13550000D03*
X14750000Y-13050000D03*
X15250000Y-12550000D03*
X16250000Y-10550000D03*
X17250000Y-12550000D03*
X18250000Y-12550000D03*
X16250000Y-7550000D03*
X17250000Y-11550000D03*
X16750000Y-9050000D03*
X16250000Y-8550000D03*
X18250000Y-10550000D03*
X15750000Y-7050000D03*
X17250000Y-9550000D03*
X13750000Y-13050000D03*
X7165288Y-11523492D03*
X14750000Y-8050000D03*
X16750000Y-11050000D03*
X14750000Y-7050000D03*
X15250000Y-11550000D03*
X16750000Y-7050000D03*
X18750000Y-13050000D03*
X13750000Y-12050000D03*
X16250000Y-11550000D03*
X17750000Y-12050000D03*
X14250000Y-13550000D03*
X15750000Y-11050000D03*
X18750000Y-11050000D03*
X18250000Y-13550000D03*
X17750000Y-11050000D03*
X16750000Y-13050000D03*
X14750000Y-11050000D03*
%TO.N,Net-(Q2-G)*%
X17174998Y-5351351D03*
X7389113Y-2877910D03*
%TO.N,/Power/PowerSW*%
X6933550Y-9230046D03*
%TO.N,Net-(Q7-G)*%
X20394037Y-29525000D03*
X24412018Y-24737537D03*
%TO.N,Net-(Q8-G)*%
X20286570Y-20345822D03*
%TO.N,Net-(Q9-G)*%
X13850000Y-20325000D03*
%TO.N,Net-(Q10-G)*%
X17728562Y-24901923D03*
X24317989Y-23045644D03*
X13850000Y-29525000D03*
%TO.N,Net-(Q11-G)*%
X13850000Y-11125000D03*
%TO.N,Net-(Q12-G)*%
X20169096Y-11135620D03*
%TO.N,Net-(SW4-B)*%
X6436387Y-12500000D03*
X2890539Y-7100000D03*
%TO.N,SOC*%
X22217835Y-15216305D03*
%TO.N,SOB*%
X22752987Y-14720583D03*
%TO.N,SOA*%
X23277987Y-15104426D03*
%TO.N,nFAULT*%
X29917724Y-7869813D03*
%TO.N,ENABLE*%
X30385131Y-15837595D03*
X30519077Y-6414650D03*
%TO.N,CAL*%
X30130446Y-24195652D03*
X30674260Y-16708724D03*
X32414994Y-24540000D03*
%TO.N,INA_L*%
X30680403Y-17969222D03*
X33682987Y-23822298D03*
%TO.N,INB_L*%
X30665804Y-19238584D03*
%TO.N,INC_L*%
X30670589Y-20504359D03*
D31*
%TO.N,Net-(D1-A)*%
X34013195Y-11375000D03*
%TD*%
D32*
%TO.N,Net-(Q6-G)*%
X13850000Y-3425000D02*
X13306707Y-3425000D01*
X13306707Y-3425000D02*
X13234655Y-3497052D01*
D33*
%TO.N,VDD*%
X18300000Y-23925000D02*
X18325000Y-23900000D01*
X11750000Y-25900000D02*
X11750000Y-25600000D01*
X18325000Y-33100000D02*
X13350000Y-33100000D01*
X13450000Y-14700000D02*
X11750000Y-13000000D01*
X11750000Y-22250000D02*
X13425000Y-23925000D01*
X18325000Y-14700000D02*
X13450000Y-14700000D01*
X13425000Y-23925000D02*
X18300000Y-23925000D01*
X13350000Y-33100000D02*
X12500000Y-32250000D01*
X11750000Y-25600000D02*
X13425000Y-23925000D01*
X11750000Y-16700000D02*
X11750000Y-16400000D01*
X11750000Y-16400000D02*
X13450000Y-14700000D01*
%TO.N,GND*%
X27462500Y-21400000D02*
X27462500Y-12200000D01*
D32*
X27385353Y-21420307D02*
X27405660Y-21400000D01*
D33*
X27462500Y-12200000D02*
X27462500Y-10944032D01*
D32*
X21704589Y-23800000D02*
X22365686Y-23800000D01*
X23745146Y-25385727D02*
X23745146Y-30139615D01*
X27405660Y-21400000D02*
X27462500Y-21400000D01*
D33*
X27462500Y-12200000D02*
X27462500Y-8162500D01*
D32*
X23870146Y-25260727D02*
X23745146Y-25385727D01*
D33*
X27462500Y-28801163D02*
X27462500Y-28519813D01*
X27462500Y-30600000D02*
X27462500Y-27455579D01*
X27393171Y-22167330D02*
X27462500Y-22098001D01*
X27807183Y-22673218D02*
X27462500Y-22328535D01*
X27462500Y-8162500D02*
X26150000Y-6850000D01*
X27474292Y-28812955D02*
X27462500Y-28801163D01*
X27462500Y-22236659D02*
X27393171Y-22167330D01*
D32*
X23200000Y-21400000D02*
X27365046Y-21400000D01*
X23000000Y-23165685D02*
X23000000Y-21600000D01*
D33*
X27462500Y-27418897D02*
X27462500Y-23017901D01*
D32*
X21579589Y-23925000D02*
X21704589Y-23800000D01*
X23000000Y-21600000D02*
X23200000Y-21400000D01*
D33*
X27480841Y-27437238D02*
X27462500Y-27418897D01*
D32*
X22365686Y-23800000D02*
X23000000Y-23165685D01*
X25980355Y-11659595D02*
X26922095Y-11659595D01*
D33*
X27462500Y-22328535D02*
X27462500Y-22236659D01*
X27462500Y-27455579D02*
X27480841Y-27437238D01*
D32*
X23745146Y-30139615D02*
X24205531Y-30600000D01*
X26922095Y-11659595D02*
X27462500Y-12200000D01*
D33*
X27462500Y-22098001D02*
X27829842Y-21806477D01*
D32*
X27365046Y-21400000D02*
X27385353Y-21420307D01*
X24205531Y-30600000D02*
X27462500Y-30600000D01*
D33*
X27462500Y-23017901D02*
X27807183Y-22673218D01*
%TO.N,Net-(C33-Pad2)*%
X13725000Y-27900000D02*
X15175000Y-27900000D01*
X15175000Y-27900000D02*
X15200000Y-27925000D01*
D32*
%TO.N,/MotorDriver/BridgeA_S*%
X23345146Y-30154854D02*
X22900000Y-30600000D01*
X22900000Y-30600000D02*
X21537500Y-30600000D01*
X23345146Y-24530323D02*
X23345146Y-30154854D01*
X22861486Y-24046663D02*
X23345146Y-24530323D01*
D33*
%TO.N,Net-(C34-Pad2)*%
X18325000Y-27900000D02*
X19725000Y-27900000D01*
D32*
%TO.N,/MotorDriver/BridgeB_S*%
X22600000Y-23000000D02*
X22600000Y-21600000D01*
X20800000Y-23500000D02*
X20900000Y-23400000D01*
X22400000Y-21400000D02*
X21537500Y-21400000D01*
X20900000Y-23400000D02*
X22200000Y-23400000D01*
X22200000Y-23400000D02*
X22600000Y-23000000D01*
X22600000Y-21600000D02*
X22400000Y-21400000D01*
D33*
%TO.N,Net-(C37-Pad2)*%
X15175000Y-18700000D02*
X15200000Y-18725000D01*
X13725000Y-18700000D02*
X15175000Y-18700000D01*
%TO.N,Net-(C38-Pad2)*%
X18325000Y-18700000D02*
X19725000Y-18700000D01*
D32*
%TO.N,/MotorDriver/BridgeC_S*%
X22081789Y-11655711D02*
X21537500Y-12200000D01*
X23589888Y-11655711D02*
X22081789Y-11655711D01*
X23729902Y-11795725D02*
X23589888Y-11655711D01*
D33*
%TO.N,Net-(C40-Pad2)*%
X15175000Y-9500000D02*
X15200000Y-9525000D01*
X13725000Y-9500000D02*
X15175000Y-9500000D01*
%TO.N,Net-(C41-Pad2)*%
X18325000Y-9500000D02*
X19725000Y-9500000D01*
%TO.N,/Power/24VBAT*%
X21200000Y-4400000D02*
X23650000Y-6850000D01*
X18700000Y-4400000D02*
X21200000Y-4400000D01*
D32*
%TO.N,Net-(Q2-G)*%
X17174998Y-5351351D02*
X17151349Y-5375000D01*
X17151349Y-5375000D02*
X16550000Y-5375000D01*
%TO.N,Net-(SW4-B)*%
X6436387Y-12500000D02*
X7000000Y-12500000D01*
X3600815Y-7810276D02*
X2890539Y-7100000D01*
X7000000Y-12500000D02*
X5526478Y-12500000D01*
X5526478Y-12500000D02*
X3600815Y-10574337D01*
X3600815Y-10574337D02*
X3600815Y-7810276D01*
%TO.N,nFAULT*%
X34013195Y-9625000D02*
X32715000Y-9625000D01*
X32715000Y-9625000D02*
X32625000Y-9715000D01*
%TO.N,ENABLE*%
X30522351Y-6417924D02*
X30522351Y-6442491D01*
X30555000Y-15667726D02*
X30555000Y-6450573D01*
X30555000Y-6450573D02*
X30522351Y-6417924D01*
X30385131Y-15837595D02*
X30555000Y-15667726D01*
%TO.N,INA_L*%
X33780829Y-23724456D02*
X33780829Y-14680829D01*
X33682987Y-23822298D02*
X33780829Y-23724456D01*
X33780829Y-14680829D02*
X32625000Y-13525000D01*
%TD*%
%TA.AperFunction,Conductor*%
%TO.N,/MotorDriver/BridgeB_S*%
G36*
X19972787Y-15909438D02*
G01*
X20353991Y-16067338D01*
X20394218Y-16094218D01*
X22105781Y-17805781D01*
X22132661Y-17846009D01*
X22290561Y-18227212D01*
X22300000Y-18274665D01*
X22300000Y-22798638D01*
X22280315Y-22865677D01*
X22263681Y-22886319D01*
X22086319Y-23063681D01*
X22024996Y-23097166D01*
X21998638Y-23100000D01*
X20600000Y-23100000D01*
X20400000Y-23300000D01*
X20400000Y-23441418D01*
X20400000Y-24041082D01*
X20398473Y-24060481D01*
X20387641Y-24128867D01*
X20357711Y-24192002D01*
X20352850Y-24197149D01*
X20269585Y-24280415D01*
X20186317Y-24363682D01*
X20124997Y-24397166D01*
X20098638Y-24400000D01*
X19701362Y-24400000D01*
X19634323Y-24380315D01*
X19613681Y-24363681D01*
X19436319Y-24186319D01*
X19402834Y-24124996D01*
X19400000Y-24098638D01*
X19400000Y-23181971D01*
X19409298Y-23143251D01*
X19406703Y-23142408D01*
X19409720Y-23133122D01*
X19430804Y-23000002D01*
X19430804Y-22999997D01*
X19409719Y-22866875D01*
X19406703Y-22857590D01*
X19409291Y-22856749D01*
X19400000Y-22818028D01*
X19400000Y-22181971D01*
X19409298Y-22143251D01*
X19406703Y-22142408D01*
X19409720Y-22133122D01*
X19430804Y-22000002D01*
X19430804Y-21999997D01*
X19409719Y-21866875D01*
X19406703Y-21857590D01*
X19409291Y-21856749D01*
X19400000Y-21818028D01*
X19400000Y-21181971D01*
X19409298Y-21143251D01*
X19406703Y-21142408D01*
X19409720Y-21133122D01*
X19430804Y-21000002D01*
X19430804Y-20999996D01*
X19415967Y-20906317D01*
X19424922Y-20837024D01*
X19450755Y-20799244D01*
X19488183Y-20761816D01*
X19549505Y-20728333D01*
X19575861Y-20725500D01*
X19580252Y-20725500D01*
X20064715Y-20725500D01*
X20121007Y-20739013D01*
X20153444Y-20755541D01*
X20153445Y-20755541D01*
X20153447Y-20755542D01*
X20286568Y-20776626D01*
X20286570Y-20776626D01*
X20286572Y-20776626D01*
X20419692Y-20755542D01*
X20419693Y-20755541D01*
X20419696Y-20755541D01*
X20452132Y-20739013D01*
X20508425Y-20725500D01*
X20519750Y-20725500D01*
X20519751Y-20725499D01*
X20534568Y-20722552D01*
X20578229Y-20713868D01*
X20578229Y-20713867D01*
X20578231Y-20713867D01*
X20644552Y-20669552D01*
X20688867Y-20603231D01*
X20688867Y-20603229D01*
X20688868Y-20603229D01*
X20700499Y-20544752D01*
X20700500Y-20544750D01*
X20700500Y-20462117D01*
X20702027Y-20442719D01*
X20717374Y-20345823D01*
X20717374Y-20345819D01*
X20702027Y-20248923D01*
X20700500Y-20229525D01*
X20700500Y-20105249D01*
X20700499Y-20105247D01*
X20688868Y-20046770D01*
X20688867Y-20046769D01*
X20644552Y-19980447D01*
X20578230Y-19936132D01*
X20542371Y-19928999D01*
X20514330Y-19914330D01*
X20450000Y-19850000D01*
X20309439Y-19510655D01*
X20300000Y-19463202D01*
X20300000Y-19230101D01*
X20313515Y-19173807D01*
X20357396Y-19087685D01*
X20359719Y-19083126D01*
X20359719Y-19083124D01*
X20359720Y-19083123D01*
X20375886Y-18981054D01*
X20382419Y-18956475D01*
X20384784Y-18950235D01*
X20384790Y-18950225D01*
X20425500Y-18785056D01*
X20425500Y-18614944D01*
X20384790Y-18449775D01*
X20384788Y-18449771D01*
X20382416Y-18443514D01*
X20375886Y-18418944D01*
X20359720Y-18316878D01*
X20359719Y-18316876D01*
X20359719Y-18316874D01*
X20298528Y-18196780D01*
X20298526Y-18196778D01*
X20298523Y-18196774D01*
X20203225Y-18101476D01*
X20203221Y-18101473D01*
X20203220Y-18101472D01*
X20083126Y-18040281D01*
X20083124Y-18040280D01*
X20083121Y-18040279D01*
X20072012Y-18038520D01*
X20008877Y-18008591D01*
X20003728Y-18003728D01*
X19394218Y-17394218D01*
X19367338Y-17353990D01*
X19209439Y-16972787D01*
X19200000Y-16925334D01*
X19200000Y-16201362D01*
X19219685Y-16134323D01*
X19236319Y-16113681D01*
X19413681Y-15936319D01*
X19475004Y-15902834D01*
X19501362Y-15900000D01*
X19925335Y-15900000D01*
X19972787Y-15909438D01*
G37*
%TD.AperFunction*%
%TD*%
%TA.AperFunction,Conductor*%
%TO.N,/MotorDriver/Phase_U*%
G36*
X16776540Y-25219685D02*
G01*
X16782692Y-25223905D01*
X17043108Y-25414325D01*
X17085605Y-25469785D01*
X17088075Y-25476811D01*
X17322580Y-26213823D01*
X17621298Y-27152651D01*
X17625667Y-27171225D01*
X17685753Y-27558247D01*
X17676586Y-27627512D01*
X17673022Y-27634887D01*
X17665211Y-27649772D01*
X17665210Y-27649774D01*
X17624500Y-27814944D01*
X17624500Y-27985055D01*
X17665208Y-28150221D01*
X17665209Y-28150224D01*
X17665210Y-28150225D01*
X17700000Y-28216511D01*
X17700000Y-28300000D01*
X17779921Y-28379921D01*
X17796950Y-28413342D01*
X17796952Y-28413344D01*
X17796954Y-28413347D01*
X17886652Y-28503045D01*
X17886654Y-28503046D01*
X17886658Y-28503050D01*
X17997877Y-28559719D01*
X17999698Y-28560647D01*
X18093475Y-28575499D01*
X18093481Y-28575500D01*
X18107982Y-28575499D01*
X18151958Y-28583558D01*
X18156128Y-28585140D01*
X18282626Y-28600500D01*
X18999138Y-28600500D01*
X19066177Y-28620185D01*
X19086819Y-28636819D01*
X19163681Y-28713681D01*
X19197166Y-28775004D01*
X19200000Y-28801362D01*
X19200000Y-30054240D01*
X19198738Y-30071887D01*
X19194500Y-30101362D01*
X19194500Y-32004138D01*
X19174815Y-32071177D01*
X19158181Y-32091819D01*
X18986319Y-32263681D01*
X18924996Y-32297166D01*
X18898638Y-32300000D01*
X13592018Y-32300000D01*
X13524979Y-32280315D01*
X13504337Y-32263681D01*
X13236319Y-31995662D01*
X13202834Y-31934339D01*
X13200000Y-31907981D01*
X13200000Y-30101362D01*
X13219685Y-30034323D01*
X13236319Y-30013681D01*
X13288181Y-29961819D01*
X13349504Y-29928334D01*
X13375862Y-29925500D01*
X13380252Y-29925500D01*
X13669011Y-29925500D01*
X13706673Y-29934541D01*
X13707595Y-29931704D01*
X13716876Y-29934720D01*
X13849998Y-29955804D01*
X13850000Y-29955804D01*
X13850002Y-29955804D01*
X13983123Y-29934720D01*
X13992405Y-29931704D01*
X13993326Y-29934541D01*
X14030989Y-29925500D01*
X14319750Y-29925500D01*
X14319751Y-29925499D01*
X14334568Y-29922552D01*
X14378229Y-29913868D01*
X14378229Y-29913867D01*
X14378231Y-29913867D01*
X14444552Y-29869552D01*
X14488867Y-29803231D01*
X14488867Y-29803229D01*
X14488868Y-29803229D01*
X14500499Y-29744752D01*
X14500500Y-29744750D01*
X14500500Y-29304262D01*
X14500000Y-29294084D01*
X14500000Y-28724500D01*
X14519685Y-28657461D01*
X14572489Y-28611706D01*
X14624000Y-28600500D01*
X14988655Y-28600500D01*
X15011006Y-28602531D01*
X15157394Y-28629357D01*
X15327196Y-28619086D01*
X15436135Y-28585140D01*
X15449056Y-28581114D01*
X15478694Y-28576603D01*
X15478638Y-28575882D01*
X15483491Y-28575500D01*
X15583121Y-28559720D01*
X15583121Y-28559719D01*
X15583126Y-28559719D01*
X15703220Y-28498528D01*
X15798528Y-28403220D01*
X15859719Y-28283126D01*
X15870270Y-28216510D01*
X15875500Y-28183493D01*
X15875500Y-28130712D01*
X15881115Y-28093821D01*
X15894085Y-28052198D01*
X15894086Y-28052196D01*
X15904357Y-27882394D01*
X15877531Y-27736005D01*
X15875500Y-27713654D01*
X15875500Y-27666506D01*
X15859720Y-27566878D01*
X15859719Y-27566876D01*
X15859719Y-27566874D01*
X15798528Y-27446780D01*
X15798526Y-27446778D01*
X15798523Y-27446774D01*
X15703225Y-27351476D01*
X15703222Y-27351474D01*
X15703220Y-27351472D01*
X15596215Y-27296950D01*
X15583123Y-27290279D01*
X15526407Y-27281297D01*
X15501834Y-27274766D01*
X15446702Y-27253857D01*
X15439790Y-27250994D01*
X15384932Y-27226305D01*
X15384930Y-27226304D01*
X15374946Y-27224474D01*
X15353343Y-27218451D01*
X15343874Y-27214860D01*
X15343871Y-27214859D01*
X15284171Y-27207610D01*
X15276770Y-27206483D01*
X15217609Y-27195642D01*
X15217603Y-27195642D01*
X15157567Y-27199274D01*
X15150079Y-27199500D01*
X14624000Y-27199500D01*
X14556961Y-27179815D01*
X14511206Y-27127011D01*
X14500000Y-27075500D01*
X14500000Y-25501362D01*
X14519685Y-25434323D01*
X14536319Y-25413681D01*
X14713681Y-25236319D01*
X14775004Y-25202834D01*
X14801362Y-25200000D01*
X16709501Y-25200000D01*
X16776540Y-25219685D01*
G37*
%TD.AperFunction*%
%TD*%
%TA.AperFunction,Conductor*%
%TO.N,/Power/24VBAT*%
G36*
X19806249Y-3099685D02*
G01*
X19826103Y-3115538D01*
X19853159Y-3142114D01*
X19853166Y-3142122D01*
X19862623Y-3151412D01*
X19868922Y-3157343D01*
X19868923Y-3157344D01*
X19948735Y-3201988D01*
X19948739Y-3201990D01*
X20015778Y-3221675D01*
X20073676Y-3230000D01*
X20370999Y-3230000D01*
X20438038Y-3249685D01*
X20483793Y-3302489D01*
X20494999Y-3353999D01*
X20494999Y-3575491D01*
X20495000Y-3575509D01*
X20499697Y-3619186D01*
X20510897Y-3670674D01*
X20513390Y-3680872D01*
X20513391Y-3680875D01*
X20556399Y-3761583D01*
X20556401Y-3761586D01*
X20602160Y-3814395D01*
X20610096Y-3822494D01*
X20619746Y-3832343D01*
X20619747Y-3832344D01*
X20619749Y-3832345D01*
X20647788Y-3848029D01*
X20699563Y-3876990D01*
X20766602Y-3896675D01*
X20824500Y-3905000D01*
X20824504Y-3905000D01*
X21175071Y-3905000D01*
X21175079Y-3905000D01*
X21181279Y-3904906D01*
X21188767Y-3904680D01*
X21194976Y-3904399D01*
X21194977Y-3904398D01*
X21195020Y-3904397D01*
X21215076Y-3903183D01*
X21244915Y-3904986D01*
X21264733Y-3908618D01*
X21270834Y-3909641D01*
X21278235Y-3910768D01*
X21284400Y-3911612D01*
X21313306Y-3915121D01*
X21331653Y-3918770D01*
X21336294Y-3920064D01*
X21353882Y-3926432D01*
X21380452Y-3938390D01*
X21386142Y-3940849D01*
X21393046Y-3943709D01*
X21393066Y-3943716D01*
X21393071Y-3943719D01*
X21398844Y-3946008D01*
X21426041Y-3956322D01*
X21442982Y-3964255D01*
X21447192Y-3966630D01*
X21462736Y-3977016D01*
X21485667Y-3994981D01*
X21490622Y-3998744D01*
X21495420Y-4002274D01*
X21496650Y-4003179D01*
X21501712Y-4006786D01*
X21518258Y-4018206D01*
X21540640Y-4038034D01*
X21553987Y-4053100D01*
X21558172Y-4057683D01*
X21558203Y-4057716D01*
X21558204Y-4057717D01*
X21563326Y-4063159D01*
X21567614Y-4067577D01*
X23335834Y-5835798D01*
X23335839Y-5835802D01*
X23360207Y-5856634D01*
X23391395Y-5879337D01*
X23474046Y-5915096D01*
X23499214Y-5919869D01*
X23542685Y-5928114D01*
X23542687Y-5928114D01*
X23542692Y-5928115D01*
X23601124Y-5930725D01*
X23637845Y-5927108D01*
X23662151Y-5927108D01*
X23672366Y-5928114D01*
X23803501Y-5941029D01*
X23827331Y-5945768D01*
X23963248Y-5986998D01*
X23985700Y-5996298D01*
X24110954Y-6063249D01*
X24131163Y-6076752D01*
X24137105Y-6081629D01*
X24240957Y-6166856D01*
X24258147Y-6184046D01*
X24348244Y-6293832D01*
X24361748Y-6314042D01*
X24423301Y-6429199D01*
X24428697Y-6439293D01*
X24438000Y-6461752D01*
X24479228Y-6597664D01*
X24483970Y-6621504D01*
X24494403Y-6727422D01*
X24495000Y-6739577D01*
X24495000Y-6960421D01*
X24494403Y-6972576D01*
X24483970Y-7078494D01*
X24479228Y-7102334D01*
X24438001Y-7238244D01*
X24428698Y-7260703D01*
X24361747Y-7385957D01*
X24348243Y-7406167D01*
X24258144Y-7515954D01*
X24240954Y-7533144D01*
X24131167Y-7623243D01*
X24110957Y-7636747D01*
X23985703Y-7703698D01*
X23963244Y-7713001D01*
X23827335Y-7754228D01*
X23803494Y-7758970D01*
X23662153Y-7772891D01*
X23637845Y-7772891D01*
X23496504Y-7758970D01*
X23472664Y-7754228D01*
X23367288Y-7722263D01*
X23336752Y-7713000D01*
X23314296Y-7703698D01*
X23189042Y-7636748D01*
X23168832Y-7623244D01*
X23059046Y-7533147D01*
X23041856Y-7515957D01*
X22951752Y-7406162D01*
X22938248Y-7385952D01*
X22904401Y-7322629D01*
X22871298Y-7260697D01*
X22861998Y-7238246D01*
X22820768Y-7102330D01*
X22816029Y-7078499D01*
X22805597Y-6972567D01*
X22805000Y-6960415D01*
X22805000Y-6841518D01*
X22804731Y-6836496D01*
X22803822Y-6819550D01*
X22800988Y-6793192D01*
X22777029Y-6716675D01*
X22743544Y-6655352D01*
X22714843Y-6617013D01*
X22708501Y-6608541D01*
X22708498Y-6608538D01*
X22708491Y-6608528D01*
X21935761Y-5835798D01*
X21091477Y-4991513D01*
X21091476Y-4991512D01*
X21075126Y-4976825D01*
X21075112Y-4976813D01*
X21054463Y-4960172D01*
X20983418Y-4923009D01*
X20916386Y-4903326D01*
X20915737Y-4903232D01*
X20858481Y-4895000D01*
X20824500Y-4895000D01*
X20824492Y-4895000D01*
X20780813Y-4899697D01*
X20729325Y-4910897D01*
X20719127Y-4913390D01*
X20719124Y-4913391D01*
X20638416Y-4956399D01*
X20638413Y-4956401D01*
X20585604Y-5002160D01*
X20567660Y-5019742D01*
X20567654Y-5019749D01*
X20523011Y-5099559D01*
X20523009Y-5099564D01*
X20503326Y-5166596D01*
X20503325Y-5166601D01*
X20503325Y-5166602D01*
X20495903Y-5218225D01*
X20495000Y-5224503D01*
X20495000Y-5445999D01*
X20475315Y-5513038D01*
X20422511Y-5558793D01*
X20371000Y-5569999D01*
X20073675Y-5569999D01*
X20031795Y-5574313D01*
X20031792Y-5574313D01*
X20031788Y-5574314D01*
X19982299Y-5584618D01*
X19982275Y-5584623D01*
X19973876Y-5586557D01*
X19892407Y-5628119D01*
X19892400Y-5628124D01*
X19838796Y-5672922D01*
X19838794Y-5672924D01*
X19833459Y-5678864D01*
X19774015Y-5715582D01*
X19741213Y-5719999D01*
X17667062Y-5719999D01*
X17600023Y-5700314D01*
X17554268Y-5647510D01*
X17544324Y-5578352D01*
X17556577Y-5539705D01*
X17570164Y-5513038D01*
X17584717Y-5484477D01*
X17584717Y-5484475D01*
X17584718Y-5484474D01*
X17605802Y-5351353D01*
X17605802Y-5351348D01*
X17584718Y-5218229D01*
X17584717Y-5218227D01*
X17584717Y-5218225D01*
X17523526Y-5098131D01*
X17523524Y-5098129D01*
X17523521Y-5098125D01*
X17436319Y-5010923D01*
X17402834Y-4949600D01*
X17400000Y-4923242D01*
X17400000Y-4743612D01*
X17401344Y-4725405D01*
X17401553Y-4723994D01*
X17405500Y-4683912D01*
X17405500Y-3401361D01*
X17404321Y-3379383D01*
X17404161Y-3377904D01*
X17403072Y-3367770D01*
X17415471Y-3299011D01*
X17463077Y-3247870D01*
X17464982Y-3246762D01*
X17480259Y-3238065D01*
X17501303Y-3224315D01*
X17560668Y-3154745D01*
X17564972Y-3146519D01*
X17613490Y-3096242D01*
X17674844Y-3080000D01*
X19739210Y-3080000D01*
X19806249Y-3099685D01*
G37*
%TD.AperFunction*%
%TD*%
%TA.AperFunction,Conductor*%
%TO.N,GND*%
G36*
X30100000Y-6340602D02*
G01*
X30088273Y-6414647D01*
X30088273Y-6414652D01*
X30100000Y-6488696D01*
X30100000Y-7480172D01*
X30074207Y-7471995D01*
X30050846Y-7460092D01*
X29917726Y-7439009D01*
X29917722Y-7439009D01*
X29784602Y-7460092D01*
X29664502Y-7521286D01*
X29664498Y-7521289D01*
X29569200Y-7616587D01*
X29569197Y-7616591D01*
X29508003Y-7736691D01*
X29486920Y-7869810D01*
X29486920Y-7869815D01*
X29508003Y-8002934D01*
X29508004Y-8002937D01*
X29508005Y-8002939D01*
X29569196Y-8123033D01*
X29569197Y-8123034D01*
X29569200Y-8123038D01*
X29664498Y-8218336D01*
X29664502Y-8218339D01*
X29664504Y-8218341D01*
X29784598Y-8279532D01*
X29784600Y-8279532D01*
X29784602Y-8279533D01*
X29917722Y-8300617D01*
X29917724Y-8300617D01*
X29917726Y-8300617D01*
X30050845Y-8279533D01*
X30050845Y-8279532D01*
X30050850Y-8279532D01*
X30074208Y-8267630D01*
X30100000Y-8262786D01*
X30100000Y-15520976D01*
X30036607Y-15584369D01*
X30036604Y-15584373D01*
X29975410Y-15704473D01*
X29954327Y-15837592D01*
X29954327Y-15837597D01*
X29975410Y-15970716D01*
X29975411Y-15970719D01*
X29975412Y-15970721D01*
X30036603Y-16090815D01*
X30036604Y-16090816D01*
X30036607Y-16090820D01*
X30100000Y-16154213D01*
X30100000Y-23769669D01*
X29997324Y-23785931D01*
X29877224Y-23847125D01*
X29877220Y-23847128D01*
X29781922Y-23942426D01*
X29781919Y-23942430D01*
X29720725Y-24062530D01*
X29699642Y-24195649D01*
X29699642Y-24195654D01*
X29720725Y-24328773D01*
X29720726Y-24328776D01*
X29720727Y-24328778D01*
X29781918Y-24448872D01*
X29781919Y-24448873D01*
X29781922Y-24448877D01*
X29877220Y-24544175D01*
X29877224Y-24544178D01*
X29877226Y-24544180D01*
X29997320Y-24605371D01*
X29997322Y-24605371D01*
X29997324Y-24605372D01*
X30100000Y-24621634D01*
X30100000Y-24915530D01*
X30039805Y-24925064D01*
X29919705Y-24986258D01*
X29919701Y-24986261D01*
X29824403Y-25081559D01*
X29824400Y-25081563D01*
X29763206Y-25201663D01*
X29742123Y-25334782D01*
X29742123Y-25334787D01*
X29763206Y-25467906D01*
X29763207Y-25467909D01*
X29763208Y-25467911D01*
X29824399Y-25588005D01*
X29824400Y-25588006D01*
X29824403Y-25588010D01*
X29919701Y-25683308D01*
X29919705Y-25683311D01*
X29919707Y-25683313D01*
X30039801Y-25744504D01*
X30039803Y-25744504D01*
X30039805Y-25744505D01*
X30063991Y-25748335D01*
X30100000Y-25754038D01*
X30100000Y-32700000D01*
X24900000Y-32700000D01*
X24900000Y-30900000D01*
X26900000Y-30900000D01*
X26900000Y-30300000D01*
X24900000Y-30300000D01*
X24900000Y-21700000D01*
X26900000Y-21700000D01*
X26900000Y-21100000D01*
X24900000Y-21100000D01*
X24900000Y-11900000D01*
X25600000Y-11900000D01*
X25700000Y-12000000D01*
X26900000Y-12000000D01*
X26900000Y-11300000D01*
X25700000Y-11300000D01*
X25699999Y-11300000D01*
X25600000Y-11399999D01*
X25600000Y-11400000D01*
X25600000Y-11900000D01*
X24900000Y-11900000D01*
X24900000Y-5500000D01*
X30100000Y-5500000D01*
X30100000Y-6340602D01*
G37*
%TD.AperFunction*%
%TD*%
%TA.AperFunction,Conductor*%
%TO.N,/MotorDriver/BridgeC_S*%
G36*
X19972787Y-6709438D02*
G01*
X20353991Y-6867338D01*
X20394218Y-6894218D01*
X22105781Y-8605781D01*
X22132661Y-8646009D01*
X22290561Y-9027212D01*
X22300000Y-9074665D01*
X22300000Y-13625334D01*
X22290561Y-13672787D01*
X22132661Y-14053990D01*
X22105781Y-14094218D01*
X21194218Y-15005781D01*
X21153990Y-15032661D01*
X20772788Y-15190561D01*
X20725335Y-15200000D01*
X19701362Y-15200000D01*
X19634323Y-15180315D01*
X19613681Y-15163681D01*
X19436319Y-14986319D01*
X19402834Y-14924996D01*
X19400000Y-14898638D01*
X19400000Y-11701362D01*
X19419685Y-11634323D01*
X19436319Y-11613681D01*
X19488181Y-11561819D01*
X19549504Y-11528334D01*
X19575862Y-11525500D01*
X19580252Y-11525500D01*
X19967264Y-11525500D01*
X20023559Y-11539015D01*
X20035972Y-11545340D01*
X20169094Y-11566424D01*
X20169096Y-11566424D01*
X20169098Y-11566424D01*
X20302219Y-11545340D01*
X20302220Y-11545339D01*
X20302222Y-11545339D01*
X20314633Y-11539014D01*
X20370928Y-11525500D01*
X20519750Y-11525500D01*
X20519751Y-11525499D01*
X20534568Y-11522552D01*
X20578229Y-11513868D01*
X20578229Y-11513867D01*
X20578231Y-11513867D01*
X20644552Y-11469552D01*
X20688867Y-11403231D01*
X20688867Y-11403229D01*
X20688868Y-11403229D01*
X20700499Y-11344752D01*
X20700500Y-11344750D01*
X20700500Y-10905249D01*
X20700499Y-10905247D01*
X20688868Y-10846770D01*
X20688867Y-10846769D01*
X20644552Y-10780447D01*
X20578230Y-10736132D01*
X20542371Y-10728999D01*
X20514330Y-10714330D01*
X20450000Y-10650000D01*
X20309439Y-10310655D01*
X20300000Y-10263202D01*
X20300000Y-10030101D01*
X20313515Y-9973807D01*
X20357396Y-9887685D01*
X20359719Y-9883126D01*
X20359719Y-9883124D01*
X20359720Y-9883123D01*
X20375886Y-9781054D01*
X20382419Y-9756475D01*
X20384784Y-9750235D01*
X20384790Y-9750225D01*
X20425500Y-9585056D01*
X20425500Y-9414944D01*
X20384790Y-9249775D01*
X20384788Y-9249771D01*
X20382416Y-9243514D01*
X20375886Y-9218944D01*
X20359720Y-9116878D01*
X20359719Y-9116876D01*
X20359719Y-9116874D01*
X20298528Y-8996780D01*
X20298526Y-8996778D01*
X20298523Y-8996774D01*
X20203225Y-8901476D01*
X20203221Y-8901473D01*
X20203220Y-8901472D01*
X20083126Y-8840281D01*
X20083124Y-8840280D01*
X20083121Y-8840279D01*
X20072012Y-8838520D01*
X20008877Y-8808591D01*
X20003728Y-8803728D01*
X19394218Y-8194218D01*
X19367338Y-8153990D01*
X19209439Y-7772787D01*
X19200000Y-7725334D01*
X19200000Y-7001362D01*
X19219685Y-6934323D01*
X19236319Y-6913681D01*
X19413681Y-6736319D01*
X19475004Y-6702834D01*
X19501362Y-6700000D01*
X19925335Y-6700000D01*
X19972787Y-6709438D01*
G37*
%TD.AperFunction*%
%TD*%
%TA.AperFunction,Conductor*%
%TO.N,/MotorDriver/Phase_V*%
G36*
X16776540Y-16019685D02*
G01*
X16782692Y-16023905D01*
X17043108Y-16214325D01*
X17085605Y-16269785D01*
X17088075Y-16276811D01*
X17322580Y-17013823D01*
X17621298Y-17952651D01*
X17625667Y-17971225D01*
X17685753Y-18358247D01*
X17676586Y-18427512D01*
X17673022Y-18434887D01*
X17665211Y-18449772D01*
X17665210Y-18449774D01*
X17624500Y-18614944D01*
X17624500Y-18785055D01*
X17665208Y-18950221D01*
X17665209Y-18950224D01*
X17665210Y-18950225D01*
X17700000Y-19016511D01*
X17700000Y-19100000D01*
X17779921Y-19179921D01*
X17796950Y-19213342D01*
X17796952Y-19213344D01*
X17796954Y-19213347D01*
X17886652Y-19303045D01*
X17886654Y-19303046D01*
X17886658Y-19303050D01*
X17997877Y-19359719D01*
X17999698Y-19360647D01*
X18093475Y-19375499D01*
X18093481Y-19375500D01*
X18107982Y-19375499D01*
X18151958Y-19383558D01*
X18156128Y-19385140D01*
X18282626Y-19400500D01*
X18999138Y-19400500D01*
X19066177Y-19420185D01*
X19086819Y-19436819D01*
X19163681Y-19513681D01*
X19197166Y-19575004D01*
X19200000Y-19601362D01*
X19200000Y-21128199D01*
X19199140Y-21142778D01*
X19194500Y-21181968D01*
X19194500Y-21818033D01*
X19199141Y-21857260D01*
X19200000Y-21871827D01*
X19200000Y-22128199D01*
X19199140Y-22142778D01*
X19194500Y-22181968D01*
X19194500Y-22818033D01*
X19199141Y-22857260D01*
X19200000Y-22871827D01*
X19200000Y-22998638D01*
X19180315Y-23065677D01*
X19163681Y-23086319D01*
X18986319Y-23263681D01*
X18924996Y-23297166D01*
X18898638Y-23300000D01*
X18830101Y-23300000D01*
X18773807Y-23286485D01*
X18683123Y-23240279D01*
X18583493Y-23224500D01*
X18583488Y-23224500D01*
X18530715Y-23224500D01*
X18493826Y-23218886D01*
X18452196Y-23205914D01*
X18282395Y-23195643D01*
X18282391Y-23195643D01*
X18136006Y-23222469D01*
X18113655Y-23224500D01*
X13766519Y-23224500D01*
X13699480Y-23204815D01*
X13678838Y-23188181D01*
X13236319Y-22745662D01*
X13202834Y-22684339D01*
X13200000Y-22657981D01*
X13200000Y-20901362D01*
X13219685Y-20834323D01*
X13236319Y-20813681D01*
X13288181Y-20761819D01*
X13349504Y-20728334D01*
X13375862Y-20725500D01*
X13380252Y-20725500D01*
X13669011Y-20725500D01*
X13706673Y-20734541D01*
X13707595Y-20731704D01*
X13716876Y-20734720D01*
X13849998Y-20755804D01*
X13850000Y-20755804D01*
X13850002Y-20755804D01*
X13983123Y-20734720D01*
X13992405Y-20731704D01*
X13993326Y-20734541D01*
X14030989Y-20725500D01*
X14319750Y-20725500D01*
X14319751Y-20725499D01*
X14334568Y-20722552D01*
X14378229Y-20713868D01*
X14378229Y-20713867D01*
X14378231Y-20713867D01*
X14444552Y-20669552D01*
X14488867Y-20603231D01*
X14488867Y-20603229D01*
X14488868Y-20603229D01*
X14500499Y-20544752D01*
X14500500Y-20544750D01*
X14500500Y-20104262D01*
X14500000Y-20094084D01*
X14500000Y-19524500D01*
X14519685Y-19457461D01*
X14572489Y-19411706D01*
X14624000Y-19400500D01*
X14988655Y-19400500D01*
X15011006Y-19402531D01*
X15157394Y-19429357D01*
X15327196Y-19419086D01*
X15436135Y-19385140D01*
X15449056Y-19381114D01*
X15478694Y-19376603D01*
X15478638Y-19375882D01*
X15483491Y-19375500D01*
X15583121Y-19359720D01*
X15583121Y-19359719D01*
X15583126Y-19359719D01*
X15703220Y-19298528D01*
X15798528Y-19203220D01*
X15859719Y-19083126D01*
X15870270Y-19016510D01*
X15875500Y-18983493D01*
X15875500Y-18930712D01*
X15881115Y-18893821D01*
X15894085Y-18852198D01*
X15894086Y-18852196D01*
X15904357Y-18682394D01*
X15877531Y-18536005D01*
X15875500Y-18513654D01*
X15875500Y-18466506D01*
X15859720Y-18366878D01*
X15859719Y-18366876D01*
X15859719Y-18366874D01*
X15798528Y-18246780D01*
X15798526Y-18246778D01*
X15798523Y-18246774D01*
X15703225Y-18151476D01*
X15703222Y-18151474D01*
X15703220Y-18151472D01*
X15596215Y-18096950D01*
X15583123Y-18090279D01*
X15526407Y-18081297D01*
X15501834Y-18074766D01*
X15446702Y-18053857D01*
X15439790Y-18050994D01*
X15384932Y-18026305D01*
X15384930Y-18026304D01*
X15374946Y-18024474D01*
X15353343Y-18018451D01*
X15343874Y-18014860D01*
X15343871Y-18014859D01*
X15284171Y-18007610D01*
X15276770Y-18006483D01*
X15217609Y-17995642D01*
X15217603Y-17995642D01*
X15157567Y-17999274D01*
X15150079Y-17999500D01*
X14624000Y-17999500D01*
X14556961Y-17979815D01*
X14511206Y-17927011D01*
X14500000Y-17875500D01*
X14500000Y-16301362D01*
X14519685Y-16234323D01*
X14536319Y-16213681D01*
X14713681Y-16036319D01*
X14775004Y-16002834D01*
X14801362Y-16000000D01*
X16709501Y-16000000D01*
X16776540Y-16019685D01*
G37*
%TD.AperFunction*%
%TD*%
%TA.AperFunction,Conductor*%
%TO.N,/MotorDriver/Phase_W*%
G36*
X16776540Y-6819685D02*
G01*
X16782692Y-6823905D01*
X17043108Y-7014325D01*
X17085605Y-7069785D01*
X17088075Y-7076811D01*
X17322580Y-7813823D01*
X17621298Y-8752651D01*
X17625667Y-8771225D01*
X17685753Y-9158247D01*
X17676586Y-9227512D01*
X17673022Y-9234887D01*
X17665211Y-9249772D01*
X17665210Y-9249774D01*
X17624500Y-9414944D01*
X17624500Y-9585055D01*
X17665208Y-9750221D01*
X17665209Y-9750224D01*
X17665210Y-9750225D01*
X17700000Y-9816511D01*
X17700000Y-9900000D01*
X17779921Y-9979921D01*
X17796950Y-10013342D01*
X17796952Y-10013344D01*
X17796954Y-10013347D01*
X17886652Y-10103045D01*
X17886654Y-10103046D01*
X17886658Y-10103050D01*
X17997877Y-10159719D01*
X17999698Y-10160647D01*
X18093475Y-10175499D01*
X18093481Y-10175500D01*
X18107982Y-10175499D01*
X18151958Y-10183558D01*
X18156128Y-10185140D01*
X18282626Y-10200500D01*
X18999138Y-10200500D01*
X19066177Y-10220185D01*
X19086819Y-10236819D01*
X19163681Y-10313681D01*
X19197166Y-10375004D01*
X19200000Y-10401362D01*
X19200000Y-11654240D01*
X19198738Y-11671887D01*
X19194500Y-11701362D01*
X19194500Y-13604138D01*
X19174815Y-13671177D01*
X19158181Y-13691819D01*
X18986319Y-13863681D01*
X18924996Y-13897166D01*
X18898638Y-13900000D01*
X13692019Y-13900000D01*
X13624980Y-13880315D01*
X13604338Y-13863681D01*
X13236319Y-13495662D01*
X13202834Y-13434339D01*
X13200000Y-13407981D01*
X13200000Y-11701362D01*
X13219685Y-11634323D01*
X13236319Y-11613681D01*
X13288181Y-11561819D01*
X13349504Y-11528334D01*
X13375862Y-11525500D01*
X13380252Y-11525500D01*
X13669011Y-11525500D01*
X13706673Y-11534541D01*
X13707595Y-11531704D01*
X13716876Y-11534720D01*
X13849998Y-11555804D01*
X13850000Y-11555804D01*
X13850002Y-11555804D01*
X13983123Y-11534720D01*
X13992405Y-11531704D01*
X13993326Y-11534541D01*
X14030989Y-11525500D01*
X14319750Y-11525500D01*
X14319751Y-11525499D01*
X14334568Y-11522552D01*
X14378229Y-11513868D01*
X14378229Y-11513867D01*
X14378231Y-11513867D01*
X14444552Y-11469552D01*
X14488867Y-11403231D01*
X14488867Y-11403229D01*
X14488868Y-11403229D01*
X14500499Y-11344752D01*
X14500500Y-11344750D01*
X14500500Y-10904262D01*
X14500000Y-10894084D01*
X14500000Y-10324500D01*
X14519685Y-10257461D01*
X14572489Y-10211706D01*
X14624000Y-10200500D01*
X14988655Y-10200500D01*
X15011006Y-10202531D01*
X15157394Y-10229357D01*
X15327196Y-10219086D01*
X15436135Y-10185140D01*
X15449056Y-10181114D01*
X15478694Y-10176603D01*
X15478638Y-10175882D01*
X15483491Y-10175500D01*
X15583121Y-10159720D01*
X15583121Y-10159719D01*
X15583126Y-10159719D01*
X15703220Y-10098528D01*
X15798528Y-10003220D01*
X15859719Y-9883126D01*
X15870270Y-9816510D01*
X15875500Y-9783493D01*
X15875500Y-9730712D01*
X15881115Y-9693821D01*
X15894085Y-9652198D01*
X15894086Y-9652196D01*
X15904357Y-9482394D01*
X15877531Y-9336005D01*
X15875500Y-9313654D01*
X15875500Y-9266506D01*
X15859720Y-9166878D01*
X15859719Y-9166876D01*
X15859719Y-9166874D01*
X15798528Y-9046780D01*
X15798526Y-9046778D01*
X15798523Y-9046774D01*
X15703225Y-8951476D01*
X15703222Y-8951474D01*
X15703220Y-8951472D01*
X15596215Y-8896950D01*
X15583123Y-8890279D01*
X15526407Y-8881297D01*
X15501834Y-8874766D01*
X15446702Y-8853857D01*
X15439790Y-8850994D01*
X15384932Y-8826305D01*
X15384930Y-8826304D01*
X15374946Y-8824474D01*
X15353343Y-8818451D01*
X15343874Y-8814860D01*
X15343871Y-8814859D01*
X15284171Y-8807610D01*
X15276770Y-8806483D01*
X15217609Y-8795642D01*
X15217603Y-8795642D01*
X15157567Y-8799274D01*
X15150079Y-8799500D01*
X14624000Y-8799500D01*
X14556961Y-8779815D01*
X14511206Y-8727011D01*
X14500000Y-8675500D01*
X14500000Y-7101362D01*
X14519685Y-7034323D01*
X14536319Y-7013681D01*
X14713681Y-6836319D01*
X14775004Y-6802834D01*
X14801362Y-6800000D01*
X16709501Y-6800000D01*
X16776540Y-6819685D01*
G37*
%TD.AperFunction*%
%TD*%
%TA.AperFunction,Conductor*%
%TO.N,/MotorDriver/BridgeA_S*%
G36*
X19972787Y-25109438D02*
G01*
X20353991Y-25267338D01*
X20394218Y-25294218D01*
X22105781Y-27005781D01*
X22132661Y-27046009D01*
X22290561Y-27427212D01*
X22300000Y-27474665D01*
X22300000Y-32025334D01*
X22290561Y-32072787D01*
X22132661Y-32453990D01*
X22105781Y-32494218D01*
X21194218Y-33405781D01*
X21153990Y-33432661D01*
X20772788Y-33590561D01*
X20725335Y-33600000D01*
X19701362Y-33600000D01*
X19634323Y-33580315D01*
X19613681Y-33563681D01*
X19436319Y-33386319D01*
X19402834Y-33324996D01*
X19400000Y-33298638D01*
X19400000Y-30101362D01*
X19419685Y-30034323D01*
X19436319Y-30013681D01*
X19488181Y-29961819D01*
X19549504Y-29928334D01*
X19575862Y-29925500D01*
X19580252Y-29925500D01*
X20213048Y-29925500D01*
X20250710Y-29934541D01*
X20251632Y-29931704D01*
X20260913Y-29934720D01*
X20394035Y-29955804D01*
X20394037Y-29955804D01*
X20394039Y-29955804D01*
X20482787Y-29941747D01*
X20527163Y-29934719D01*
X20546303Y-29924965D01*
X20577831Y-29914032D01*
X20578227Y-29913867D01*
X20578231Y-29913867D01*
X20604730Y-29896159D01*
X20617317Y-29888782D01*
X20647257Y-29873528D01*
X20742565Y-29778220D01*
X20803756Y-29658126D01*
X20824841Y-29525000D01*
X20818355Y-29484050D01*
X20803757Y-29391878D01*
X20803756Y-29391876D01*
X20803756Y-29391874D01*
X20742565Y-29271780D01*
X20647257Y-29176472D01*
X20647254Y-29176470D01*
X20632141Y-29168770D01*
X20617315Y-29161216D01*
X20604725Y-29153836D01*
X20598042Y-29149370D01*
X20578234Y-29136134D01*
X20577838Y-29135970D01*
X20546313Y-29125038D01*
X20527161Y-29115280D01*
X20523609Y-29114126D01*
X20519847Y-29111553D01*
X20518470Y-29110852D01*
X20518560Y-29110673D01*
X20493615Y-29093615D01*
X20452906Y-29052906D01*
X20447369Y-29043649D01*
X20309439Y-28710655D01*
X20300000Y-28663202D01*
X20300000Y-28430101D01*
X20313515Y-28373807D01*
X20350966Y-28300304D01*
X20359719Y-28283126D01*
X20359719Y-28283124D01*
X20359720Y-28283123D01*
X20375886Y-28181054D01*
X20382419Y-28156475D01*
X20384784Y-28150235D01*
X20384790Y-28150225D01*
X20425500Y-27985056D01*
X20425500Y-27814944D01*
X20384790Y-27649775D01*
X20384788Y-27649771D01*
X20382416Y-27643514D01*
X20375886Y-27618944D01*
X20359720Y-27516878D01*
X20359719Y-27516876D01*
X20359719Y-27516874D01*
X20298528Y-27396780D01*
X20298526Y-27396778D01*
X20298523Y-27396774D01*
X20203225Y-27301476D01*
X20203221Y-27301473D01*
X20203220Y-27301472D01*
X20083126Y-27240281D01*
X20083124Y-27240280D01*
X20083121Y-27240279D01*
X20072012Y-27238520D01*
X20008877Y-27208591D01*
X20003728Y-27203728D01*
X19973683Y-27173683D01*
X19940198Y-27112360D01*
X19938891Y-27066604D01*
X19959635Y-26935635D01*
X19959635Y-26935631D01*
X19938551Y-26802512D01*
X19938550Y-26802510D01*
X19938550Y-26802508D01*
X19877359Y-26682414D01*
X19877357Y-26682412D01*
X19877354Y-26682408D01*
X19782056Y-26587110D01*
X19782052Y-26587107D01*
X19782051Y-26587106D01*
X19661957Y-26525915D01*
X19661955Y-26525914D01*
X19661952Y-26525913D01*
X19528833Y-26504830D01*
X19528828Y-26504830D01*
X19454720Y-26516567D01*
X19385427Y-26507612D01*
X19331975Y-26462616D01*
X19320762Y-26441546D01*
X19209439Y-26172786D01*
X19200000Y-26125334D01*
X19200000Y-25401362D01*
X19219685Y-25334323D01*
X19236319Y-25313681D01*
X19413681Y-25136319D01*
X19475004Y-25102834D01*
X19501362Y-25100000D01*
X19925335Y-25100000D01*
X19972787Y-25109438D01*
G37*
%TD.AperFunction*%
%TD*%
%TA.AperFunction,Conductor*%
%TO.N,/Power/S-S*%
G36*
X16965677Y-3119685D02*
G01*
X16986319Y-3136319D01*
X17163681Y-3313681D01*
X17197166Y-3375004D01*
X17200000Y-3401362D01*
X17200000Y-4683913D01*
X17190561Y-4731367D01*
X17134364Y-4867036D01*
X17090522Y-4921439D01*
X17050759Y-4937412D01*
X17051151Y-4938617D01*
X17041874Y-4941631D01*
X17003890Y-4960985D01*
X16947595Y-4974500D01*
X16080247Y-4974500D01*
X16021770Y-4986131D01*
X16021769Y-4986132D01*
X15955447Y-5030447D01*
X15911132Y-5096769D01*
X15911131Y-5096770D01*
X15899500Y-5155247D01*
X15899500Y-5594752D01*
X15911131Y-5653229D01*
X15911132Y-5653230D01*
X15955447Y-5719552D01*
X16021767Y-5763866D01*
X16025410Y-5765375D01*
X16079815Y-5809215D01*
X16101881Y-5875508D01*
X16084603Y-5943208D01*
X16033467Y-5990820D01*
X16025413Y-5994498D01*
X15672788Y-6140561D01*
X15625335Y-6150000D01*
X13501362Y-6150000D01*
X13434323Y-6130315D01*
X13413681Y-6113681D01*
X13236319Y-5936319D01*
X13202834Y-5874996D01*
X13200000Y-5848638D01*
X13200000Y-4224665D01*
X13209439Y-4177213D01*
X13235745Y-4113702D01*
X13292380Y-3976974D01*
X13336220Y-3922572D01*
X13359096Y-3911225D01*
X13359085Y-3911202D01*
X13385908Y-3897534D01*
X13487875Y-3845580D01*
X13487876Y-3845578D01*
X13496570Y-3841149D01*
X13497933Y-3843824D01*
X13548719Y-3825702D01*
X13555802Y-3825500D01*
X14319750Y-3825500D01*
X14319751Y-3825499D01*
X14334568Y-3822552D01*
X14378229Y-3813868D01*
X14378229Y-3813867D01*
X14378231Y-3813867D01*
X14444552Y-3769552D01*
X14488867Y-3703231D01*
X14488867Y-3703229D01*
X14488868Y-3703229D01*
X14500499Y-3644752D01*
X14500500Y-3644750D01*
X14500500Y-3224000D01*
X14520185Y-3156961D01*
X14572989Y-3111206D01*
X14624500Y-3100000D01*
X16898638Y-3100000D01*
X16965677Y-3119685D01*
G37*
%TD.AperFunction*%
%TD*%
%TA.AperFunction,Conductor*%
%TO.N,GND*%
G36*
X11773960Y-520185D02*
G01*
X11819715Y-572989D01*
X11829659Y-642147D01*
X11811915Y-690472D01*
X11774211Y-750476D01*
X11714631Y-920745D01*
X11714630Y-920750D01*
X11694435Y-1099996D01*
X11694435Y-1100003D01*
X11714630Y-1279249D01*
X11714631Y-1279254D01*
X11774211Y-1449523D01*
X11860305Y-1586540D01*
X11870184Y-1602262D01*
X11997738Y-1729816D01*
X12150478Y-1825789D01*
X12320745Y-1885368D01*
X12320750Y-1885369D01*
X12499996Y-1905565D01*
X12500000Y-1905565D01*
X12500004Y-1905565D01*
X12679249Y-1885369D01*
X12679252Y-1885368D01*
X12679255Y-1885368D01*
X12849522Y-1825789D01*
X13002262Y-1729816D01*
X13129816Y-1602262D01*
X13225789Y-1449522D01*
X13285368Y-1279255D01*
X13294499Y-1198213D01*
X13305565Y-1100003D01*
X13305565Y-1099996D01*
X13285369Y-920750D01*
X13285368Y-920745D01*
X13239857Y-790682D01*
X13225789Y-750478D01*
X13188085Y-690472D01*
X13169085Y-623235D01*
X13189453Y-556400D01*
X13242721Y-511186D01*
X13293079Y-500500D01*
X17006921Y-500500D01*
X17073960Y-520185D01*
X17119715Y-572989D01*
X17129659Y-642147D01*
X17111915Y-690472D01*
X17074211Y-750476D01*
X17014631Y-920745D01*
X17014630Y-920750D01*
X16994435Y-1099996D01*
X16994435Y-1100003D01*
X17014630Y-1279249D01*
X17014631Y-1279254D01*
X17074211Y-1449523D01*
X17160305Y-1586540D01*
X17170184Y-1602262D01*
X17297738Y-1729816D01*
X17450478Y-1825789D01*
X17620745Y-1885368D01*
X17620750Y-1885369D01*
X17799996Y-1905565D01*
X17800000Y-1905565D01*
X17800004Y-1905565D01*
X17979249Y-1885369D01*
X17979252Y-1885368D01*
X17979255Y-1885368D01*
X18149522Y-1825789D01*
X18302262Y-1729816D01*
X18429816Y-1602262D01*
X18525789Y-1449522D01*
X18585368Y-1279255D01*
X18594499Y-1198213D01*
X18605565Y-1100003D01*
X18605565Y-1099996D01*
X18585369Y-920750D01*
X18585368Y-920745D01*
X18539857Y-790682D01*
X18525789Y-750478D01*
X18488085Y-690472D01*
X18469085Y-623235D01*
X18489453Y-556400D01*
X18542721Y-511186D01*
X18593079Y-500500D01*
X31934108Y-500500D01*
X31996249Y-500500D01*
X32003736Y-500726D01*
X32293796Y-518271D01*
X32308657Y-520075D01*
X32506872Y-556400D01*
X32590798Y-571780D01*
X32605335Y-575363D01*
X32879172Y-660695D01*
X32893163Y-666000D01*
X33154743Y-783727D01*
X33167989Y-790680D01*
X33413465Y-939075D01*
X33425776Y-947573D01*
X33620339Y-1100003D01*
X33651573Y-1124473D01*
X33662781Y-1134403D01*
X33865596Y-1337218D01*
X33875525Y-1348425D01*
X33995481Y-1501538D01*
X34052422Y-1574217D01*
X34060926Y-1586537D01*
X34147541Y-1729815D01*
X34209316Y-1832004D01*
X34216275Y-1845263D01*
X34333997Y-2106831D01*
X34339306Y-2120832D01*
X34424635Y-2394663D01*
X34428219Y-2409201D01*
X34479923Y-2691340D01*
X34481728Y-2706205D01*
X34499274Y-2996263D01*
X34499500Y-3003750D01*
X34499500Y-8785758D01*
X34479815Y-8852797D01*
X34427011Y-8898552D01*
X34357853Y-8908496D01*
X34334549Y-8902801D01*
X34333044Y-8902274D01*
X34303455Y-8899500D01*
X34303451Y-8899500D01*
X33722939Y-8899500D01*
X33722935Y-8899500D01*
X33693345Y-8902274D01*
X33568718Y-8945884D01*
X33462484Y-9024288D01*
X33462483Y-9024289D01*
X33384080Y-9130522D01*
X33359239Y-9201511D01*
X33318516Y-9258286D01*
X33253563Y-9284032D01*
X33185002Y-9270575D01*
X33159800Y-9250911D01*
X33158797Y-9252045D01*
X33153183Y-9247072D01*
X33153183Y-9247071D01*
X33069363Y-9172813D01*
X33032238Y-9113626D01*
X33033006Y-9043761D01*
X33069363Y-8987186D01*
X33153183Y-8912929D01*
X33249818Y-8772930D01*
X33310140Y-8613872D01*
X33330645Y-8445000D01*
X33310140Y-8276128D01*
X33249818Y-8117070D01*
X33153183Y-7977071D01*
X33069363Y-7902813D01*
X33032238Y-7843626D01*
X33033006Y-7773761D01*
X33069363Y-7717186D01*
X33153183Y-7642929D01*
X33249818Y-7502930D01*
X33310140Y-7343872D01*
X33330645Y-7175000D01*
X33310140Y-7006128D01*
X33298871Y-6976415D01*
X33276291Y-6916874D01*
X33249818Y-6847070D01*
X33249616Y-6846778D01*
X33215101Y-6796774D01*
X33153183Y-6707071D01*
X33056954Y-6621820D01*
X33025849Y-6594263D01*
X32875226Y-6515210D01*
X32710056Y-6474500D01*
X32539944Y-6474500D01*
X32374773Y-6515210D01*
X32224149Y-6594264D01*
X32224147Y-6594266D01*
X32216223Y-6601286D01*
X32152989Y-6631005D01*
X32083726Y-6621820D01*
X32030897Y-6577358D01*
X31999553Y-6530448D01*
X31933230Y-6486132D01*
X31933229Y-6486131D01*
X31874752Y-6474500D01*
X31874748Y-6474500D01*
X31065266Y-6474500D01*
X30998227Y-6454815D01*
X30952472Y-6402011D01*
X30942793Y-6369897D01*
X30928797Y-6281528D01*
X30928796Y-6281526D01*
X30928796Y-6281524D01*
X30867605Y-6161430D01*
X30867603Y-6161428D01*
X30867600Y-6161424D01*
X30772302Y-6066126D01*
X30772298Y-6066123D01*
X30772297Y-6066122D01*
X30652203Y-6004931D01*
X30652201Y-6004930D01*
X30652198Y-6004929D01*
X30519079Y-5983846D01*
X30519075Y-5983846D01*
X30385955Y-6004929D01*
X30265855Y-6066123D01*
X30265851Y-6066126D01*
X30170553Y-6161424D01*
X30170550Y-6161428D01*
X30109356Y-6281528D01*
X30100000Y-6340602D01*
X30100000Y-5500000D01*
X24900000Y-5500000D01*
X24900000Y-21100000D01*
X23000000Y-21100000D01*
X22850164Y-21249834D01*
X22788843Y-21283318D01*
X22719151Y-21278334D01*
X22674804Y-21249833D01*
X22659962Y-21234991D01*
X22648687Y-21222035D01*
X22643955Y-21215768D01*
X22609683Y-21184525D01*
X22605560Y-21180589D01*
X22592797Y-21167826D01*
X22592796Y-21167825D01*
X22592794Y-21167823D01*
X22589077Y-21164737D01*
X22580679Y-21158084D01*
X22552443Y-21132344D01*
X22553963Y-21130676D01*
X22517582Y-21090083D01*
X22505500Y-21036693D01*
X22505500Y-18274669D01*
X22505500Y-18274665D01*
X22501551Y-18234574D01*
X22492112Y-18187121D01*
X22480418Y-18148570D01*
X22322518Y-17767367D01*
X22322514Y-17767359D01*
X22303533Y-17731848D01*
X22303526Y-17731836D01*
X22276649Y-17691613D01*
X22276640Y-17691602D01*
X22251091Y-17660471D01*
X21131747Y-16541127D01*
X23337957Y-16541127D01*
X23359040Y-16674246D01*
X23359041Y-16674249D01*
X23359042Y-16674251D01*
X23399812Y-16754266D01*
X23420234Y-16794346D01*
X23420237Y-16794350D01*
X23515535Y-16889648D01*
X23515539Y-16889651D01*
X23515541Y-16889653D01*
X23635635Y-16950844D01*
X23635637Y-16950844D01*
X23635639Y-16950845D01*
X23768759Y-16971929D01*
X23768761Y-16971929D01*
X23768763Y-16971929D01*
X23901882Y-16950845D01*
X23901882Y-16950844D01*
X23901887Y-16950844D01*
X24021981Y-16889653D01*
X24117289Y-16794345D01*
X24178480Y-16674251D01*
X24178481Y-16674246D01*
X24199565Y-16541127D01*
X24199565Y-16541122D01*
X24178481Y-16408003D01*
X24178480Y-16408001D01*
X24178480Y-16407999D01*
X24117289Y-16287905D01*
X24117287Y-16287903D01*
X24117284Y-16287899D01*
X24021986Y-16192601D01*
X24021982Y-16192598D01*
X24021981Y-16192597D01*
X23901887Y-16131406D01*
X23901885Y-16131405D01*
X23901882Y-16131404D01*
X23768763Y-16110321D01*
X23768759Y-16110321D01*
X23635639Y-16131404D01*
X23515539Y-16192598D01*
X23515535Y-16192601D01*
X23420237Y-16287899D01*
X23420234Y-16287903D01*
X23359040Y-16408003D01*
X23337957Y-16541122D01*
X23337957Y-16541127D01*
X21131747Y-16541127D01*
X20539527Y-15948907D01*
X20508401Y-15923361D01*
X20508388Y-15923351D01*
X20468158Y-15896469D01*
X20468145Y-15896462D01*
X20432640Y-15877484D01*
X20432635Y-15877482D01*
X20337097Y-15837909D01*
X20051429Y-15719581D01*
X20051428Y-15719580D01*
X20051424Y-15719579D01*
X20012888Y-15707889D01*
X20012880Y-15707887D01*
X19965420Y-15698447D01*
X19934091Y-15695362D01*
X19925335Y-15694500D01*
X19501362Y-15694500D01*
X19501361Y-15694500D01*
X19479381Y-15695678D01*
X19453034Y-15698511D01*
X19453032Y-15698512D01*
X19376521Y-15722470D01*
X19376516Y-15722471D01*
X19315188Y-15755960D01*
X19268384Y-15790998D01*
X19268363Y-15791016D01*
X19091013Y-15968365D01*
X19091012Y-15968366D01*
X19076325Y-15984716D01*
X19076313Y-15984730D01*
X19059672Y-16005379D01*
X19022509Y-16076424D01*
X19002826Y-16143456D01*
X19002825Y-16143464D01*
X18996692Y-16186121D01*
X18993973Y-16205028D01*
X18964946Y-16268583D01*
X18906168Y-16306357D01*
X18836298Y-16306355D01*
X18786057Y-16277494D01*
X18084750Y-15614615D01*
X18049552Y-15554259D01*
X18052572Y-15484455D01*
X18092852Y-15427365D01*
X18157603Y-15401114D01*
X18169928Y-15400500D01*
X18367374Y-15400500D01*
X18422872Y-15393761D01*
X18493872Y-15385140D01*
X18498044Y-15383557D01*
X18542014Y-15375500D01*
X18583493Y-15375500D01*
X18683121Y-15359720D01*
X18683121Y-15359719D01*
X18683126Y-15359719D01*
X18803220Y-15298528D01*
X18898528Y-15203220D01*
X18959719Y-15083126D01*
X18959720Y-15083121D01*
X18971507Y-15008702D01*
X19001436Y-14945567D01*
X19060747Y-14908635D01*
X19130610Y-14909633D01*
X19188843Y-14948242D01*
X19212314Y-14991045D01*
X19222470Y-15023479D01*
X19222473Y-15023486D01*
X19223971Y-15026230D01*
X19237607Y-15066248D01*
X19240280Y-15083123D01*
X19240280Y-15083124D01*
X19240281Y-15083126D01*
X19301472Y-15203220D01*
X19301474Y-15203222D01*
X19301476Y-15203225D01*
X19396774Y-15298523D01*
X19396778Y-15298526D01*
X19396780Y-15298528D01*
X19516874Y-15359719D01*
X19516875Y-15359719D01*
X19516877Y-15359720D01*
X19533489Y-15362351D01*
X19571563Y-15374947D01*
X19576425Y-15377490D01*
X19643456Y-15397173D01*
X19643458Y-15397173D01*
X19643464Y-15397175D01*
X19701362Y-15405500D01*
X19701366Y-15405500D01*
X20725330Y-15405500D01*
X20725335Y-15405500D01*
X20765426Y-15401551D01*
X20812879Y-15392112D01*
X20851430Y-15380418D01*
X21232632Y-15222518D01*
X21244252Y-15216307D01*
X21787031Y-15216307D01*
X21808114Y-15349426D01*
X21808115Y-15349429D01*
X21808116Y-15349431D01*
X21869307Y-15469525D01*
X21869308Y-15469526D01*
X21869311Y-15469530D01*
X21964609Y-15564828D01*
X21964613Y-15564831D01*
X21964615Y-15564833D01*
X22084709Y-15626024D01*
X22084711Y-15626024D01*
X22084713Y-15626025D01*
X22217833Y-15647109D01*
X22217835Y-15647109D01*
X22217837Y-15647109D01*
X22350956Y-15626025D01*
X22350956Y-15626024D01*
X22350961Y-15626024D01*
X22471055Y-15564833D01*
X22566363Y-15469525D01*
X22627554Y-15349431D01*
X22638453Y-15280615D01*
X22668381Y-15217483D01*
X22727693Y-15180551D01*
X22797555Y-15181549D01*
X22855788Y-15220158D01*
X22871409Y-15243718D01*
X22929459Y-15357646D01*
X22929461Y-15357648D01*
X22929463Y-15357651D01*
X23024761Y-15452949D01*
X23024765Y-15452952D01*
X23024767Y-15452954D01*
X23144861Y-15514145D01*
X23144863Y-15514145D01*
X23144865Y-15514146D01*
X23277985Y-15535230D01*
X23277987Y-15535230D01*
X23277989Y-15535230D01*
X23411108Y-15514146D01*
X23411108Y-15514145D01*
X23411113Y-15514145D01*
X23531207Y-15452954D01*
X23626515Y-15357646D01*
X23687706Y-15237552D01*
X23690087Y-15222518D01*
X23708791Y-15104428D01*
X23708791Y-15104423D01*
X23687707Y-14971304D01*
X23687706Y-14971302D01*
X23687706Y-14971300D01*
X23626515Y-14851206D01*
X23626513Y-14851204D01*
X23626510Y-14851200D01*
X23531212Y-14755902D01*
X23531208Y-14755899D01*
X23531207Y-14755898D01*
X23411113Y-14694707D01*
X23411111Y-14694706D01*
X23411108Y-14694705D01*
X23268348Y-14672095D01*
X23268670Y-14670061D01*
X23213755Y-14653937D01*
X23168000Y-14601133D01*
X23162865Y-14587945D01*
X23162708Y-14587463D01*
X23162706Y-14587460D01*
X23162706Y-14587457D01*
X23101515Y-14467363D01*
X23101513Y-14467361D01*
X23101510Y-14467357D01*
X23006212Y-14372059D01*
X23006208Y-14372056D01*
X23006207Y-14372055D01*
X22886113Y-14310864D01*
X22886111Y-14310863D01*
X22886108Y-14310862D01*
X22752989Y-14289779D01*
X22752985Y-14289779D01*
X22619865Y-14310862D01*
X22499765Y-14372056D01*
X22499761Y-14372059D01*
X22404463Y-14467357D01*
X22404460Y-14467361D01*
X22343266Y-14587461D01*
X22328414Y-14681237D01*
X22298485Y-14744372D01*
X22239173Y-14781303D01*
X22225339Y-14784312D01*
X22084711Y-14806584D01*
X21965364Y-14867395D01*
X21896695Y-14880291D01*
X21871436Y-14870038D01*
X21882124Y-14898694D01*
X21868925Y-14963834D01*
X21808114Y-15083181D01*
X21787031Y-15216302D01*
X21787031Y-15216307D01*
X21244252Y-15216307D01*
X21268161Y-15203527D01*
X21308389Y-15176647D01*
X21339528Y-15151091D01*
X21670761Y-14819857D01*
X21732082Y-14786374D01*
X21791428Y-14790618D01*
X21788706Y-14727102D01*
X21821387Y-14669231D01*
X22251091Y-14239528D01*
X22276647Y-14208389D01*
X22303527Y-14168161D01*
X22322518Y-14132632D01*
X22480418Y-13751429D01*
X22492112Y-13712878D01*
X22501551Y-13665425D01*
X22505500Y-13625334D01*
X22505500Y-12080211D01*
X22525185Y-12013172D01*
X22577989Y-11967417D01*
X22629500Y-11956211D01*
X23258137Y-11956211D01*
X23325176Y-11975896D01*
X23368621Y-12023916D01*
X23374688Y-12035823D01*
X23381373Y-12048943D01*
X23381378Y-12048950D01*
X23476676Y-12144248D01*
X23476680Y-12144251D01*
X23476682Y-12144253D01*
X23596776Y-12205444D01*
X23596778Y-12205444D01*
X23596780Y-12205445D01*
X23729900Y-12226529D01*
X23729902Y-12226529D01*
X23729904Y-12226529D01*
X23863023Y-12205445D01*
X23863023Y-12205444D01*
X23863028Y-12205444D01*
X23983122Y-12144253D01*
X24078430Y-12048945D01*
X24139621Y-11928851D01*
X24139903Y-11927070D01*
X24160706Y-11795727D01*
X24160706Y-11795722D01*
X24139622Y-11662603D01*
X24139621Y-11662601D01*
X24139621Y-11662599D01*
X24078430Y-11542505D01*
X24078428Y-11542503D01*
X24078425Y-11542499D01*
X23983127Y-11447201D01*
X23983123Y-11447198D01*
X23983122Y-11447197D01*
X23863028Y-11386006D01*
X23863026Y-11386005D01*
X23863023Y-11386004D01*
X23729904Y-11364921D01*
X23729897Y-11364921D01*
X23721193Y-11366299D01*
X23657012Y-11359453D01*
X23646061Y-11355211D01*
X23639137Y-11355211D01*
X23610746Y-11351917D01*
X23604007Y-11350332D01*
X23577554Y-11354022D01*
X23560424Y-11355211D01*
X22629500Y-11355211D01*
X22562461Y-11335526D01*
X22516706Y-11282722D01*
X22505500Y-11231211D01*
X22505500Y-9074669D01*
X22505500Y-9074665D01*
X22501551Y-9034574D01*
X22492112Y-8987121D01*
X22480418Y-8948570D01*
X22322518Y-8567367D01*
X22322514Y-8567359D01*
X22303533Y-8531848D01*
X22303526Y-8531836D01*
X22276649Y-8491613D01*
X22276640Y-8491602D01*
X22251091Y-8460471D01*
X20539527Y-6748907D01*
X20508401Y-6723361D01*
X20508388Y-6723351D01*
X20468158Y-6696469D01*
X20468145Y-6696462D01*
X20432640Y-6677484D01*
X20432635Y-6677482D01*
X20409439Y-6667874D01*
X20051429Y-6519581D01*
X20051428Y-6519580D01*
X20051424Y-6519579D01*
X20012888Y-6507889D01*
X20012880Y-6507887D01*
X19965420Y-6498447D01*
X19934091Y-6495362D01*
X19925335Y-6494500D01*
X19501362Y-6494500D01*
X19501361Y-6494500D01*
X19479381Y-6495678D01*
X19453034Y-6498511D01*
X19453032Y-6498512D01*
X19376521Y-6522470D01*
X19376516Y-6522471D01*
X19315188Y-6555960D01*
X19268384Y-6590998D01*
X19268363Y-6591016D01*
X19091013Y-6768365D01*
X19091012Y-6768366D01*
X19076325Y-6784716D01*
X19076313Y-6784730D01*
X19059672Y-6805379D01*
X19022509Y-6876424D01*
X19002826Y-6943456D01*
X19002825Y-6943464D01*
X18994500Y-7001362D01*
X18994500Y-7725334D01*
X18995973Y-7740284D01*
X18998449Y-7765427D01*
X19007886Y-7812870D01*
X19019582Y-7851429D01*
X19132086Y-8123038D01*
X19177481Y-8232631D01*
X19196472Y-8268161D01*
X19218159Y-8300617D01*
X19223353Y-8308390D01*
X19223358Y-8308396D01*
X19248907Y-8339527D01*
X19497199Y-8587819D01*
X19530684Y-8649142D01*
X19525700Y-8718834D01*
X19483828Y-8774767D01*
X19418364Y-8799184D01*
X19409518Y-8799500D01*
X18282626Y-8799500D01*
X18156130Y-8814859D01*
X18156119Y-8814862D01*
X18151943Y-8816446D01*
X18107989Y-8824500D01*
X18093488Y-8824500D01*
X17999694Y-8839354D01*
X17990418Y-8842369D01*
X17989205Y-8838638D01*
X17939202Y-8847906D01*
X17874524Y-8821477D01*
X17834402Y-8764276D01*
X17829334Y-8743564D01*
X17829175Y-8742539D01*
X17828734Y-8739698D01*
X17825707Y-8724171D01*
X17821338Y-8705597D01*
X17817124Y-8690343D01*
X17283901Y-7014503D01*
X17281944Y-7008656D01*
X17281056Y-7006130D01*
X17279478Y-7001640D01*
X17279470Y-7001621D01*
X17248722Y-6944793D01*
X17248722Y-6944792D01*
X17206235Y-6889345D01*
X17206230Y-6889340D01*
X17206226Y-6889334D01*
X17164405Y-6848441D01*
X17119238Y-6815414D01*
X17104747Y-6803000D01*
X17098528Y-6796781D01*
X17098528Y-6796780D01*
X17003220Y-6701472D01*
X16883126Y-6640281D01*
X16883124Y-6640280D01*
X16875827Y-6637909D01*
X16850072Y-6629935D01*
X16834437Y-6622509D01*
X16767406Y-6602826D01*
X16766757Y-6602732D01*
X16709501Y-6594500D01*
X15703032Y-6594500D01*
X15635993Y-6574815D01*
X15590238Y-6522011D01*
X15580294Y-6452853D01*
X15609319Y-6389297D01*
X15668097Y-6351523D01*
X15678833Y-6348884D01*
X15712879Y-6342112D01*
X15751430Y-6330418D01*
X15768195Y-6323473D01*
X15796251Y-6315559D01*
X15833126Y-6309719D01*
X15936069Y-6257267D01*
X15961921Y-6244095D01*
X15962172Y-6244589D01*
X15972211Y-6238965D01*
X16104055Y-6184355D01*
X16110778Y-6181429D01*
X16118832Y-6177751D01*
X16173503Y-6141220D01*
X16224639Y-6093608D01*
X16241953Y-6075387D01*
X16283721Y-5994026D01*
X16300999Y-5926326D01*
X16305713Y-5901634D01*
X16305712Y-5901628D01*
X16306071Y-5893818D01*
X16328807Y-5827751D01*
X16383652Y-5784464D01*
X16429941Y-5775500D01*
X17019750Y-5775500D01*
X17038729Y-5771724D01*
X17048220Y-5769835D01*
X17091811Y-5768979D01*
X17174998Y-5782155D01*
X17175000Y-5782155D01*
X17297399Y-5762769D01*
X17366693Y-5771724D01*
X17419899Y-5816350D01*
X17455448Y-5869552D01*
X17521769Y-5913867D01*
X17521770Y-5913868D01*
X17580247Y-5925499D01*
X17580250Y-5925500D01*
X17580252Y-5925500D01*
X19819750Y-5925500D01*
X19819751Y-5925499D01*
X19834568Y-5922552D01*
X19878229Y-5913868D01*
X19878229Y-5913867D01*
X19878231Y-5913867D01*
X19944552Y-5869552D01*
X19944553Y-5869551D01*
X19970575Y-5830608D01*
X20024187Y-5785804D01*
X20073676Y-5775500D01*
X20519750Y-5775500D01*
X20519751Y-5775499D01*
X20534568Y-5772552D01*
X20578229Y-5763868D01*
X20578229Y-5763867D01*
X20578231Y-5763867D01*
X20644552Y-5719552D01*
X20688867Y-5653231D01*
X20688867Y-5653229D01*
X20688868Y-5653229D01*
X20700499Y-5594752D01*
X20700500Y-5594750D01*
X20700500Y-5224500D01*
X20720185Y-5157461D01*
X20772989Y-5111706D01*
X20824500Y-5100500D01*
X20858481Y-5100500D01*
X20925520Y-5120185D01*
X20946162Y-5136819D01*
X22563181Y-6753838D01*
X22596666Y-6815161D01*
X22599500Y-6841519D01*
X22599500Y-6976608D01*
X22603229Y-7014469D01*
X22614699Y-7130932D01*
X22628067Y-7175000D01*
X22674768Y-7328954D01*
X22772315Y-7511450D01*
X22806969Y-7553677D01*
X22903589Y-7671410D01*
X22987509Y-7740280D01*
X23063550Y-7802685D01*
X23246046Y-7900232D01*
X23444066Y-7960300D01*
X23444065Y-7960300D01*
X23462529Y-7962118D01*
X23650000Y-7980583D01*
X23855934Y-7960300D01*
X24053954Y-7900232D01*
X24236450Y-7802685D01*
X24396410Y-7671410D01*
X24527685Y-7511450D01*
X24625232Y-7328954D01*
X24685300Y-7130934D01*
X24700500Y-6976608D01*
X24700500Y-6723392D01*
X24685300Y-6569066D01*
X24625232Y-6371046D01*
X24527685Y-6188550D01*
X24449769Y-6093608D01*
X24396410Y-6028589D01*
X24270794Y-5925500D01*
X24236450Y-5897315D01*
X24053954Y-5799768D01*
X23855934Y-5739700D01*
X23855932Y-5739699D01*
X23855934Y-5739699D01*
X23668463Y-5721235D01*
X23650000Y-5719417D01*
X23649999Y-5719417D01*
X23580983Y-5726214D01*
X23512337Y-5713195D01*
X23481149Y-5690492D01*
X21712940Y-3922283D01*
X21707805Y-3916828D01*
X21667929Y-3871816D01*
X21667924Y-3871812D01*
X21618438Y-3837655D01*
X21612403Y-3833215D01*
X21565060Y-3796124D01*
X21565055Y-3796120D01*
X21555813Y-3791961D01*
X21536266Y-3780936D01*
X21527931Y-3775183D01*
X21527932Y-3775183D01*
X21527930Y-3775182D01*
X21471694Y-3753854D01*
X21464790Y-3750994D01*
X21409932Y-3726305D01*
X21409930Y-3726304D01*
X21399946Y-3724474D01*
X21378343Y-3718451D01*
X21368874Y-3714860D01*
X21368871Y-3714859D01*
X21309171Y-3707610D01*
X21301770Y-3706483D01*
X21242609Y-3695642D01*
X21242603Y-3695642D01*
X21182567Y-3699274D01*
X21175079Y-3699500D01*
X20824500Y-3699500D01*
X20757461Y-3679815D01*
X20711706Y-3627011D01*
X20700500Y-3575500D01*
X20700500Y-3205249D01*
X20700499Y-3205247D01*
X20688868Y-3146770D01*
X20688867Y-3146769D01*
X20644552Y-3080447D01*
X20578230Y-3036132D01*
X20578229Y-3036131D01*
X20519752Y-3024500D01*
X20519748Y-3024500D01*
X20073676Y-3024500D01*
X20006637Y-3004815D01*
X20001735Y-3000000D01*
X30394551Y-3000000D01*
X30414317Y-3251151D01*
X30473126Y-3496110D01*
X30569533Y-3728859D01*
X30701160Y-3943653D01*
X30701161Y-3943656D01*
X30701164Y-3943659D01*
X30864776Y-4135224D01*
X31013066Y-4261875D01*
X31056343Y-4298838D01*
X31056346Y-4298839D01*
X31271140Y-4430466D01*
X31503889Y-4526873D01*
X31748852Y-4585683D01*
X32000000Y-4605449D01*
X32251148Y-4585683D01*
X32496111Y-4526873D01*
X32728859Y-4430466D01*
X32943659Y-4298836D01*
X33135224Y-4135224D01*
X33298836Y-3943659D01*
X33430466Y-3728859D01*
X33526873Y-3496111D01*
X33585683Y-3251148D01*
X33605449Y-3000000D01*
X33585683Y-2748852D01*
X33526873Y-2503889D01*
X33517317Y-2480818D01*
X33430466Y-2271140D01*
X33298839Y-2056346D01*
X33298838Y-2056343D01*
X33261875Y-2013066D01*
X33135224Y-1864776D01*
X32977205Y-1729815D01*
X32943656Y-1701161D01*
X32943653Y-1701160D01*
X32728859Y-1569533D01*
X32496110Y-1473126D01*
X32251151Y-1414317D01*
X32000000Y-1394551D01*
X31748848Y-1414317D01*
X31503889Y-1473126D01*
X31271140Y-1569533D01*
X31056346Y-1701160D01*
X31056343Y-1701161D01*
X30864776Y-1864776D01*
X30701161Y-2056343D01*
X30701160Y-2056346D01*
X30569533Y-2271140D01*
X30473126Y-2503889D01*
X30414317Y-2748848D01*
X30394551Y-3000000D01*
X20001735Y-3000000D01*
X19970575Y-2969392D01*
X19944553Y-2930448D01*
X19878230Y-2886132D01*
X19878229Y-2886131D01*
X19819752Y-2874500D01*
X19819748Y-2874500D01*
X17580252Y-2874500D01*
X17580247Y-2874500D01*
X17521770Y-2886131D01*
X17521769Y-2886132D01*
X17455447Y-2930447D01*
X17411132Y-2996769D01*
X17411131Y-2996771D01*
X17410972Y-2997573D01*
X17410144Y-2999155D01*
X17406458Y-3008054D01*
X17405661Y-3007723D01*
X17378582Y-3059482D01*
X17317864Y-3094052D01*
X17248095Y-3090308D01*
X17201676Y-3061056D01*
X17131629Y-2991009D01*
X17131628Y-2991008D01*
X17131624Y-2991004D01*
X17115283Y-2976325D01*
X17115269Y-2976313D01*
X17094620Y-2959672D01*
X17023575Y-2922509D01*
X16956543Y-2902826D01*
X16955894Y-2902732D01*
X16898638Y-2894500D01*
X14624500Y-2894500D01*
X14624492Y-2894500D01*
X14580813Y-2899197D01*
X14529325Y-2910397D01*
X14519127Y-2912890D01*
X14519124Y-2912891D01*
X14438416Y-2955899D01*
X14438413Y-2955901D01*
X14394200Y-2994213D01*
X14330644Y-3023238D01*
X14312997Y-3024500D01*
X13380247Y-3024500D01*
X13321773Y-3036131D01*
X13321770Y-3036132D01*
X13321769Y-3036133D01*
X13307972Y-3045351D01*
X13241297Y-3066228D01*
X13239084Y-3066248D01*
X13224896Y-3066248D01*
X13224896Y-3064139D01*
X13168304Y-3056822D01*
X13114855Y-3011823D01*
X13109376Y-3002736D01*
X13094954Y-2976325D01*
X13082661Y-2953812D01*
X13066046Y-2931617D01*
X13047618Y-2907001D01*
X13047615Y-2906998D01*
X13047608Y-2906988D01*
X12931629Y-2791009D01*
X12931628Y-2791008D01*
X12931624Y-2791004D01*
X12915283Y-2776325D01*
X12915269Y-2776313D01*
X12894620Y-2759672D01*
X12823575Y-2722509D01*
X12756543Y-2702826D01*
X12755894Y-2702732D01*
X12698638Y-2694500D01*
X8401362Y-2694500D01*
X8401361Y-2694500D01*
X8379381Y-2695678D01*
X8353034Y-2698511D01*
X8353032Y-2698512D01*
X8276521Y-2722470D01*
X8276516Y-2722471D01*
X8215188Y-2755960D01*
X8168384Y-2790998D01*
X8168370Y-2791010D01*
X8027762Y-2931617D01*
X7966438Y-2965101D01*
X7896747Y-2960116D01*
X7840813Y-2918245D01*
X7817608Y-2863332D01*
X7798833Y-2744788D01*
X7798832Y-2744786D01*
X7798832Y-2744784D01*
X7737641Y-2624690D01*
X7737639Y-2624688D01*
X7737636Y-2624684D01*
X7642338Y-2529386D01*
X7642334Y-2529383D01*
X7642333Y-2529382D01*
X7522239Y-2468191D01*
X7522237Y-2468190D01*
X7522234Y-2468189D01*
X7389115Y-2447106D01*
X7389111Y-2447106D01*
X7255991Y-2468189D01*
X7135891Y-2529383D01*
X7135887Y-2529386D01*
X7040589Y-2624684D01*
X7034852Y-2632582D01*
X7033231Y-2631405D01*
X6993787Y-2673161D01*
X6925964Y-2689949D01*
X6859831Y-2667404D01*
X6827159Y-2629693D01*
X6826498Y-2630174D01*
X6820902Y-2622471D01*
X6820803Y-2622357D01*
X6820765Y-2622282D01*
X6820762Y-2622279D01*
X6820760Y-2622276D01*
X6725462Y-2526978D01*
X6725458Y-2526975D01*
X6725457Y-2526974D01*
X6605363Y-2465783D01*
X6605361Y-2465782D01*
X6605358Y-2465781D01*
X6472239Y-2444698D01*
X6472235Y-2444698D01*
X6339115Y-2465781D01*
X6219015Y-2526975D01*
X6219011Y-2526978D01*
X6123713Y-2622276D01*
X6123710Y-2622280D01*
X6062516Y-2742380D01*
X6041433Y-2875499D01*
X6041433Y-2875504D01*
X6062516Y-3008623D01*
X6062517Y-3008626D01*
X6062518Y-3008628D01*
X6123709Y-3128722D01*
X6123710Y-3128723D01*
X6123713Y-3128727D01*
X6219011Y-3224025D01*
X6219015Y-3224028D01*
X6219017Y-3224030D01*
X6339111Y-3285221D01*
X6339113Y-3285221D01*
X6339115Y-3285222D01*
X6472235Y-3306306D01*
X6472237Y-3306306D01*
X6472239Y-3306306D01*
X6605358Y-3285222D01*
X6605358Y-3285221D01*
X6605363Y-3285221D01*
X6725457Y-3224030D01*
X6820765Y-3128722D01*
X6820768Y-3128715D01*
X6826498Y-3120830D01*
X6828120Y-3122008D01*
X6867542Y-3080262D01*
X6935362Y-3063461D01*
X7001499Y-3085994D01*
X7034191Y-3123718D01*
X7034852Y-3123238D01*
X7040436Y-3130924D01*
X7040544Y-3131049D01*
X7040584Y-3131129D01*
X7040589Y-3131135D01*
X7135887Y-3226433D01*
X7135891Y-3226436D01*
X7135893Y-3226438D01*
X7255987Y-3287629D01*
X7255989Y-3287629D01*
X7255991Y-3287630D01*
X7389111Y-3308714D01*
X7389113Y-3308714D01*
X7389115Y-3308714D01*
X7522234Y-3287630D01*
X7522234Y-3287629D01*
X7522239Y-3287629D01*
X7642333Y-3226438D01*
X7653576Y-3215195D01*
X7682819Y-3185953D01*
X7744142Y-3152468D01*
X7813834Y-3157452D01*
X7869767Y-3199324D01*
X7894184Y-3264788D01*
X7894500Y-3273634D01*
X7894500Y-8825500D01*
X7874815Y-8892539D01*
X7822011Y-8938294D01*
X7770500Y-8949500D01*
X7306114Y-8949500D01*
X7239075Y-8929815D01*
X7218432Y-8913180D01*
X7186774Y-8881521D01*
X7186771Y-8881519D01*
X7186770Y-8881518D01*
X7066676Y-8820327D01*
X7066674Y-8820326D01*
X7066671Y-8820325D01*
X6933552Y-8799242D01*
X6933548Y-8799242D01*
X6800428Y-8820325D01*
X6680328Y-8881519D01*
X6680325Y-8881521D01*
X6648668Y-8913180D01*
X6587346Y-8946666D01*
X6560986Y-8949500D01*
X6230247Y-8949500D01*
X6171770Y-8961131D01*
X6171769Y-8961132D01*
X6105447Y-9005447D01*
X6061132Y-9071769D01*
X6061131Y-9071770D01*
X6049500Y-9130247D01*
X6049500Y-9869752D01*
X6061131Y-9928229D01*
X6061132Y-9928230D01*
X6105447Y-9994552D01*
X6171769Y-10038867D01*
X6171770Y-10038868D01*
X6230247Y-10050499D01*
X6230250Y-10050500D01*
X7770500Y-10050500D01*
X7837539Y-10070185D01*
X7883294Y-10122989D01*
X7894500Y-10174500D01*
X7894500Y-11311682D01*
X7895678Y-11333662D01*
X7898511Y-11360009D01*
X7898512Y-11360011D01*
X7922470Y-11436522D01*
X7922471Y-11436527D01*
X7927657Y-11446024D01*
X7955956Y-11497849D01*
X7955958Y-11497852D01*
X7955960Y-11497855D01*
X7990998Y-11544659D01*
X7991002Y-11544663D01*
X7991009Y-11544673D01*
X7991016Y-11544680D01*
X8033213Y-11586877D01*
X8056015Y-11618261D01*
X8056901Y-11620000D01*
X8069826Y-11645365D01*
X8081815Y-11682263D01*
X8086572Y-11712298D01*
X8086572Y-11751090D01*
X8082516Y-11776712D01*
X8081817Y-11781123D01*
X8069829Y-11818019D01*
X8056021Y-11845120D01*
X8033216Y-11876508D01*
X7991009Y-11918714D01*
X7977735Y-11933493D01*
X7918292Y-11970213D01*
X7848433Y-11968967D01*
X7838029Y-11965192D01*
X7828226Y-11961131D01*
X7769752Y-11949500D01*
X7769748Y-11949500D01*
X7628125Y-11949500D01*
X7561086Y-11929815D01*
X7515331Y-11877011D01*
X7505387Y-11807853D01*
X7517638Y-11769210D01*
X7575007Y-11656618D01*
X7575549Y-11653199D01*
X7596092Y-11523494D01*
X7596092Y-11523489D01*
X7575008Y-11390370D01*
X7575007Y-11390368D01*
X7575007Y-11390366D01*
X7513816Y-11270272D01*
X7513814Y-11270270D01*
X7513811Y-11270266D01*
X7418513Y-11174968D01*
X7418509Y-11174965D01*
X7418508Y-11174964D01*
X7298414Y-11113773D01*
X7298412Y-11113772D01*
X7298409Y-11113771D01*
X7165290Y-11092688D01*
X7165286Y-11092688D01*
X7032166Y-11113771D01*
X6912066Y-11174965D01*
X6912062Y-11174968D01*
X6816764Y-11270266D01*
X6816761Y-11270270D01*
X6755567Y-11390370D01*
X6734484Y-11523489D01*
X6734484Y-11523494D01*
X6755567Y-11656613D01*
X6755568Y-11656616D01*
X6755569Y-11656618D01*
X6812936Y-11769208D01*
X6825832Y-11837874D01*
X6799556Y-11902615D01*
X6742449Y-11942872D01*
X6702451Y-11949500D01*
X6230247Y-11949500D01*
X6171770Y-11961131D01*
X6171769Y-11961132D01*
X6105447Y-12005447D01*
X6061132Y-12071769D01*
X6061132Y-12071770D01*
X6055578Y-12099692D01*
X6023193Y-12161603D01*
X5962477Y-12196177D01*
X5933961Y-12199500D01*
X5702311Y-12199500D01*
X5635272Y-12179815D01*
X5614630Y-12163181D01*
X5548595Y-12097146D01*
X5515110Y-12035823D01*
X5520094Y-11966131D01*
X5561966Y-11910198D01*
X5579965Y-11898989D01*
X5639607Y-11868601D01*
X5734915Y-11773293D01*
X5796106Y-11653199D01*
X5801364Y-11620000D01*
X5817191Y-11520075D01*
X5817191Y-11520070D01*
X5796444Y-11389079D01*
X5805399Y-11319785D01*
X5850395Y-11266333D01*
X5862605Y-11259206D01*
X5941018Y-11219253D01*
X6036326Y-11123945D01*
X6097517Y-11003851D01*
X6097518Y-11003846D01*
X6118602Y-10870727D01*
X6118602Y-10870722D01*
X6097518Y-10737603D01*
X6097517Y-10737601D01*
X6097517Y-10737599D01*
X6036326Y-10617505D01*
X6036324Y-10617503D01*
X6036321Y-10617499D01*
X5941023Y-10522201D01*
X5941019Y-10522198D01*
X5941018Y-10522197D01*
X5820924Y-10461006D01*
X5820922Y-10461005D01*
X5820919Y-10461004D01*
X5687800Y-10439921D01*
X5687796Y-10439921D01*
X5554676Y-10461004D01*
X5434576Y-10522198D01*
X5434572Y-10522201D01*
X5339274Y-10617499D01*
X5339271Y-10617503D01*
X5278077Y-10737603D01*
X5256994Y-10870722D01*
X5256994Y-10870728D01*
X5277740Y-11001718D01*
X5268785Y-11071011D01*
X5223789Y-11124463D01*
X5211563Y-11131599D01*
X5133168Y-11171544D01*
X5133161Y-11171549D01*
X5037863Y-11266847D01*
X5037860Y-11266852D01*
X5037859Y-11266853D01*
X5014382Y-11312930D01*
X5007479Y-11326478D01*
X4959504Y-11377274D01*
X4891683Y-11394069D01*
X4825548Y-11371531D01*
X4809313Y-11357864D01*
X4586073Y-11134624D01*
X4552588Y-11073301D01*
X4557572Y-11003609D01*
X4599444Y-10947676D01*
X4629780Y-10931003D01*
X4777930Y-10874818D01*
X4917929Y-10778183D01*
X5030734Y-10650852D01*
X5031942Y-10648552D01*
X5086540Y-10544523D01*
X5109790Y-10500225D01*
X5150500Y-10335056D01*
X5150500Y-10164944D01*
X5109790Y-9999775D01*
X5091673Y-9965256D01*
X5030736Y-9849150D01*
X4998685Y-9812972D01*
X4917929Y-9721817D01*
X4835948Y-9665229D01*
X4777931Y-9625182D01*
X4618874Y-9564860D01*
X4618868Y-9564859D01*
X4492374Y-9549500D01*
X4492372Y-9549500D01*
X4407628Y-9549500D01*
X4407626Y-9549500D01*
X4281131Y-9564859D01*
X4281125Y-9564860D01*
X4122068Y-9625182D01*
X4095755Y-9643346D01*
X4029401Y-9665229D01*
X3961749Y-9647764D01*
X3914279Y-9596496D01*
X3901315Y-9541296D01*
X3901315Y-7877413D01*
X3902504Y-7860282D01*
X3903586Y-7852516D01*
X3903588Y-7852512D01*
X3901447Y-7806196D01*
X3901315Y-7800471D01*
X3901315Y-7782435D01*
X3900861Y-7777542D01*
X3899632Y-7766956D01*
X3898400Y-7740284D01*
X3895603Y-7733951D01*
X3887147Y-7706644D01*
X3885876Y-7699843D01*
X3871814Y-7677132D01*
X3863813Y-7661954D01*
X3853021Y-7637511D01*
X3848124Y-7632614D01*
X3830378Y-7610210D01*
X3826733Y-7604323D01*
X3826732Y-7604322D01*
X3805417Y-7588226D01*
X3792463Y-7576953D01*
X3350930Y-7135420D01*
X3317445Y-7074097D01*
X3316138Y-7067136D01*
X3300259Y-6966878D01*
X3300258Y-6966876D01*
X3300258Y-6966874D01*
X3239067Y-6846780D01*
X3239065Y-6846778D01*
X3239062Y-6846774D01*
X3143764Y-6751476D01*
X3143760Y-6751473D01*
X3143759Y-6751472D01*
X3023665Y-6690281D01*
X3023663Y-6690280D01*
X3023660Y-6690279D01*
X2890541Y-6669196D01*
X2890537Y-6669196D01*
X2757417Y-6690279D01*
X2757413Y-6690280D01*
X2757413Y-6690281D01*
X2735442Y-6701476D01*
X2637317Y-6751473D01*
X2637313Y-6751476D01*
X2542015Y-6846774D01*
X2542012Y-6846778D01*
X2480818Y-6966878D01*
X2459735Y-7099997D01*
X2459735Y-7100002D01*
X2480818Y-7233121D01*
X2480819Y-7233124D01*
X2480820Y-7233126D01*
X2537248Y-7343872D01*
X2542012Y-7353221D01*
X2542015Y-7353225D01*
X2637313Y-7448523D01*
X2637317Y-7448526D01*
X2637319Y-7448528D01*
X2757413Y-7509719D01*
X2757415Y-7509719D01*
X2757417Y-7509720D01*
X2857675Y-7525599D01*
X2920810Y-7555528D01*
X2925959Y-7560391D01*
X3263996Y-7898428D01*
X3297481Y-7959751D01*
X3300315Y-7986109D01*
X3300315Y-10507198D01*
X3299127Y-10524325D01*
X3298042Y-10532102D01*
X3300183Y-10578416D01*
X3300315Y-10584141D01*
X3300315Y-10602179D01*
X3300762Y-10607008D01*
X3301996Y-10617642D01*
X3303230Y-10644329D01*
X3303231Y-10644334D01*
X3306029Y-10650671D01*
X3314479Y-10677957D01*
X3315752Y-10684766D01*
X3315752Y-10684767D01*
X3315754Y-10684770D01*
X3329816Y-10707483D01*
X3337812Y-10722652D01*
X3348609Y-10747102D01*
X3348610Y-10747103D01*
X3348611Y-10747105D01*
X3353504Y-10751998D01*
X3371250Y-10774402D01*
X3374892Y-10780285D01*
X3374894Y-10780287D01*
X3374895Y-10780288D01*
X3374896Y-10780289D01*
X3375107Y-10780448D01*
X3396211Y-10796385D01*
X3409165Y-10807658D01*
X5266517Y-12665010D01*
X5277788Y-12677962D01*
X5282517Y-12684225D01*
X5316795Y-12715474D01*
X5320936Y-12719429D01*
X5333681Y-12732174D01*
X5337409Y-12735270D01*
X5345802Y-12741918D01*
X5365545Y-12759916D01*
X5371346Y-12762163D01*
X5372006Y-12762419D01*
X5397287Y-12775745D01*
X5402998Y-12779657D01*
X5428995Y-12785771D01*
X5445396Y-12790851D01*
X5470302Y-12800500D01*
X5470305Y-12800500D01*
X5477230Y-12800500D01*
X5505618Y-12803793D01*
X5512359Y-12805379D01*
X5538811Y-12801689D01*
X5555942Y-12800500D01*
X5933961Y-12800500D01*
X6001000Y-12820185D01*
X6046755Y-12872989D01*
X6055578Y-12900308D01*
X6061132Y-12928229D01*
X6061132Y-12928230D01*
X6105447Y-12994552D01*
X6171769Y-13038867D01*
X6171770Y-13038868D01*
X6230247Y-13050499D01*
X6230250Y-13050500D01*
X7770500Y-13050500D01*
X7837539Y-13070185D01*
X7883294Y-13122989D01*
X7894500Y-13174500D01*
X7894500Y-13325500D01*
X7874815Y-13392539D01*
X7822011Y-13438294D01*
X7770500Y-13449500D01*
X6230247Y-13449500D01*
X6171770Y-13461131D01*
X6171769Y-13461132D01*
X6105447Y-13505447D01*
X6061132Y-13571769D01*
X6061131Y-13571770D01*
X6049500Y-13630247D01*
X6049500Y-14369752D01*
X6061131Y-14428229D01*
X6061132Y-14428230D01*
X6105447Y-14494552D01*
X6171769Y-14538867D01*
X6171770Y-14538868D01*
X6230247Y-14550499D01*
X6230250Y-14550500D01*
X7659518Y-14550500D01*
X7726557Y-14570185D01*
X7772312Y-14622989D01*
X7782256Y-14692147D01*
X7753231Y-14755703D01*
X7747199Y-14762181D01*
X5951199Y-16558181D01*
X5889876Y-16591666D01*
X5863518Y-16594500D01*
X2301361Y-16594500D01*
X2279381Y-16595678D01*
X2253034Y-16598511D01*
X2253032Y-16598512D01*
X2176521Y-16622470D01*
X2176516Y-16622471D01*
X2115188Y-16655960D01*
X2068384Y-16690998D01*
X2068363Y-16691016D01*
X1891013Y-16868365D01*
X1891012Y-16868366D01*
X1876325Y-16884716D01*
X1876313Y-16884730D01*
X1859672Y-16905379D01*
X1822509Y-16976424D01*
X1802826Y-17043456D01*
X1794500Y-17101365D01*
X1794500Y-28225329D01*
X1798449Y-28265427D01*
X1807886Y-28312870D01*
X1819582Y-28351429D01*
X1954238Y-28676518D01*
X1977481Y-28732631D01*
X1996472Y-28768161D01*
X2010595Y-28789297D01*
X2023353Y-28808390D01*
X2023358Y-28808396D01*
X2048907Y-28839527D01*
X3430500Y-30221120D01*
X3463985Y-30282443D01*
X3459001Y-30352135D01*
X3417129Y-30408068D01*
X3351665Y-30432485D01*
X3313873Y-30429375D01*
X3251152Y-30414318D01*
X3251148Y-30414317D01*
X3000000Y-30394551D01*
X2748848Y-30414317D01*
X2503889Y-30473126D01*
X2271140Y-30569533D01*
X2056346Y-30701160D01*
X2056343Y-30701161D01*
X1864776Y-30864776D01*
X1701161Y-31056343D01*
X1701160Y-31056346D01*
X1569533Y-31271140D01*
X1473126Y-31503889D01*
X1414317Y-31748848D01*
X1394551Y-32000000D01*
X1414317Y-32251151D01*
X1473126Y-32496110D01*
X1569533Y-32728859D01*
X1701160Y-32943653D01*
X1701161Y-32943656D01*
X1756604Y-33008571D01*
X1864776Y-33135224D01*
X1923122Y-33185056D01*
X2056343Y-33298838D01*
X2056346Y-33298839D01*
X2271140Y-33430466D01*
X2503889Y-33526873D01*
X2748852Y-33585683D01*
X3000000Y-33605449D01*
X3251148Y-33585683D01*
X3496111Y-33526873D01*
X3728859Y-33430466D01*
X3943659Y-33298836D01*
X4135224Y-33135224D01*
X4298836Y-32943659D01*
X4430466Y-32728859D01*
X4526873Y-32496111D01*
X4585683Y-32251148D01*
X4605449Y-32000000D01*
X4585683Y-31748852D01*
X4570624Y-31686126D01*
X4574115Y-31616344D01*
X4614779Y-31559527D01*
X4679705Y-31533714D01*
X4748281Y-31547100D01*
X4778879Y-31569499D01*
X5910471Y-32701091D01*
X5941610Y-32726647D01*
X5941613Y-32726649D01*
X5981836Y-32753526D01*
X5981848Y-32753533D01*
X6017359Y-32772514D01*
X6017361Y-32772514D01*
X6017367Y-32772518D01*
X6398570Y-32930418D01*
X6437121Y-32942112D01*
X6437124Y-32942112D01*
X6437125Y-32942113D01*
X6444868Y-32943653D01*
X6484574Y-32951551D01*
X6524665Y-32955500D01*
X12163481Y-32955500D01*
X12230520Y-32975185D01*
X12251162Y-32991819D01*
X12837051Y-33577707D01*
X12842171Y-33583145D01*
X12882071Y-33628183D01*
X12915957Y-33651573D01*
X12931574Y-33662352D01*
X12937603Y-33666788D01*
X12984944Y-33703878D01*
X12984946Y-33703879D01*
X12984949Y-33703881D01*
X12994177Y-33708034D01*
X13013731Y-33719062D01*
X13022070Y-33724818D01*
X13078331Y-33746154D01*
X13085208Y-33749003D01*
X13106563Y-33758615D01*
X13140063Y-33773693D01*
X13140066Y-33773693D01*
X13140069Y-33773695D01*
X13149919Y-33775500D01*
X13150034Y-33775521D01*
X13171656Y-33781548D01*
X13174777Y-33782731D01*
X13181128Y-33785140D01*
X13238550Y-33792112D01*
X13240815Y-33792387D01*
X13248222Y-33793514D01*
X13307394Y-33804358D01*
X13367433Y-33800725D01*
X13374921Y-33800500D01*
X18367374Y-33800500D01*
X18424906Y-33793514D01*
X18493872Y-33785140D01*
X18498044Y-33783557D01*
X18542014Y-33775500D01*
X18583493Y-33775500D01*
X18683121Y-33759720D01*
X18683121Y-33759719D01*
X18683126Y-33759719D01*
X18803220Y-33698528D01*
X18898528Y-33603220D01*
X18959719Y-33483126D01*
X18965749Y-33445056D01*
X18971507Y-33408702D01*
X19001436Y-33345567D01*
X19060747Y-33308635D01*
X19130610Y-33309633D01*
X19188843Y-33348242D01*
X19212314Y-33391045D01*
X19222470Y-33423479D01*
X19222473Y-33423486D01*
X19223971Y-33426230D01*
X19237607Y-33466248D01*
X19240280Y-33483123D01*
X19240280Y-33483124D01*
X19240281Y-33483126D01*
X19301472Y-33603220D01*
X19301474Y-33603222D01*
X19301476Y-33603225D01*
X19396774Y-33698523D01*
X19396778Y-33698526D01*
X19396780Y-33698528D01*
X19516874Y-33759719D01*
X19516875Y-33759719D01*
X19516877Y-33759720D01*
X19533489Y-33762351D01*
X19571563Y-33774947D01*
X19576425Y-33777490D01*
X19643456Y-33797173D01*
X19643458Y-33797173D01*
X19643464Y-33797175D01*
X19701362Y-33805500D01*
X19701366Y-33805500D01*
X20725330Y-33805500D01*
X20725335Y-33805500D01*
X20765426Y-33801551D01*
X20812879Y-33792112D01*
X20851430Y-33780418D01*
X21232632Y-33622518D01*
X21268161Y-33603527D01*
X21308389Y-33576647D01*
X21339528Y-33551091D01*
X22251091Y-32639528D01*
X22276647Y-32608389D01*
X22303527Y-32568161D01*
X22322518Y-32532632D01*
X22480418Y-32151429D01*
X22492112Y-32112878D01*
X22501551Y-32065425D01*
X22505500Y-32025334D01*
X22505500Y-31024500D01*
X22525185Y-30957461D01*
X22577989Y-30911706D01*
X22629500Y-30900500D01*
X22832862Y-30900500D01*
X22849990Y-30901689D01*
X22857761Y-30902772D01*
X22857761Y-30902771D01*
X22857765Y-30902773D01*
X22904080Y-30900632D01*
X22909805Y-30900500D01*
X22927843Y-30900500D01*
X22927844Y-30900500D01*
X22927844Y-30900499D01*
X22932731Y-30900046D01*
X22943318Y-30898817D01*
X22969992Y-30897585D01*
X22976322Y-30894789D01*
X23003629Y-30886332D01*
X23010433Y-30885061D01*
X23033150Y-30870995D01*
X23048326Y-30862996D01*
X23072765Y-30852206D01*
X23077665Y-30847305D01*
X23100061Y-30829566D01*
X23105952Y-30825919D01*
X23122053Y-30804595D01*
X23133314Y-30791655D01*
X23449805Y-30475165D01*
X23511127Y-30441681D01*
X23580819Y-30446665D01*
X23625166Y-30475166D01*
X24050000Y-30900000D01*
X24900000Y-30900000D01*
X24900000Y-32700000D01*
X30100000Y-32700000D01*
X30100000Y-32000000D01*
X30394551Y-32000000D01*
X30414317Y-32251151D01*
X30473126Y-32496110D01*
X30569533Y-32728859D01*
X30701160Y-32943653D01*
X30701161Y-32943656D01*
X30756604Y-33008571D01*
X30864776Y-33135224D01*
X30923122Y-33185056D01*
X31056343Y-33298838D01*
X31056346Y-33298839D01*
X31271140Y-33430466D01*
X31503889Y-33526873D01*
X31748852Y-33585683D01*
X32000000Y-33605449D01*
X32251148Y-33585683D01*
X32496111Y-33526873D01*
X32728859Y-33430466D01*
X32943659Y-33298836D01*
X33135224Y-33135224D01*
X33298836Y-32943659D01*
X33430466Y-32728859D01*
X33526873Y-32496111D01*
X33585683Y-32251148D01*
X33605449Y-32000000D01*
X33585683Y-31748852D01*
X33526873Y-31503889D01*
X33430466Y-31271141D01*
X33430466Y-31271140D01*
X33298839Y-31056346D01*
X33298838Y-31056343D01*
X33214384Y-30957461D01*
X33135224Y-30864776D01*
X33008571Y-30756604D01*
X32943656Y-30701161D01*
X32943653Y-30701160D01*
X32728859Y-30569533D01*
X32496110Y-30473126D01*
X32251151Y-30414317D01*
X32000000Y-30394551D01*
X31748848Y-30414317D01*
X31503889Y-30473126D01*
X31271140Y-30569533D01*
X31056346Y-30701160D01*
X31056343Y-30701161D01*
X30864776Y-30864776D01*
X30701161Y-31056343D01*
X30701160Y-31056346D01*
X30569533Y-31271140D01*
X30473126Y-31503889D01*
X30414317Y-31748848D01*
X30394551Y-32000000D01*
X30100000Y-32000000D01*
X30100000Y-25754038D01*
X30172925Y-25765589D01*
X30172927Y-25765589D01*
X30172929Y-25765589D01*
X30306048Y-25744505D01*
X30306048Y-25744504D01*
X30306053Y-25744504D01*
X30426147Y-25683313D01*
X30521455Y-25588005D01*
X30582646Y-25467911D01*
X30593186Y-25401365D01*
X30603731Y-25334787D01*
X30603731Y-25334782D01*
X30582647Y-25201663D01*
X30582646Y-25201661D01*
X30582646Y-25201659D01*
X30521455Y-25081565D01*
X30521453Y-25081563D01*
X30521450Y-25081559D01*
X30426152Y-24986261D01*
X30426148Y-24986258D01*
X30426147Y-24986257D01*
X30306053Y-24925066D01*
X30306051Y-24925065D01*
X30306048Y-24925064D01*
X30172929Y-24903981D01*
X30172925Y-24903981D01*
X30100000Y-24915530D01*
X30100000Y-24621634D01*
X30130444Y-24626456D01*
X30130446Y-24626456D01*
X30130448Y-24626456D01*
X30263567Y-24605372D01*
X30263567Y-24605371D01*
X30263572Y-24605371D01*
X30383666Y-24544180D01*
X30387844Y-24540002D01*
X31984190Y-24540002D01*
X32005273Y-24673121D01*
X32005274Y-24673124D01*
X32005275Y-24673126D01*
X32054022Y-24768797D01*
X32066467Y-24793221D01*
X32066470Y-24793225D01*
X32161768Y-24888523D01*
X32161772Y-24888526D01*
X32161774Y-24888528D01*
X32281868Y-24949719D01*
X32281870Y-24949719D01*
X32281872Y-24949720D01*
X32414992Y-24970804D01*
X32414994Y-24970804D01*
X32414996Y-24970804D01*
X32548115Y-24949720D01*
X32548115Y-24949719D01*
X32548120Y-24949719D01*
X32668214Y-24888528D01*
X32763522Y-24793220D01*
X32824713Y-24673126D01*
X32826504Y-24661819D01*
X32845798Y-24540002D01*
X32845798Y-24539997D01*
X32824714Y-24406878D01*
X32824713Y-24406876D01*
X32824713Y-24406874D01*
X32763522Y-24286780D01*
X32763520Y-24286778D01*
X32763517Y-24286774D01*
X32668219Y-24191476D01*
X32668215Y-24191473D01*
X32668214Y-24191472D01*
X32548120Y-24130281D01*
X32548118Y-24130280D01*
X32548115Y-24130279D01*
X32414996Y-24109196D01*
X32414992Y-24109196D01*
X32281872Y-24130279D01*
X32161772Y-24191473D01*
X32161768Y-24191476D01*
X32066470Y-24286774D01*
X32066467Y-24286778D01*
X32005273Y-24406878D01*
X31984190Y-24539997D01*
X31984190Y-24540002D01*
X30387844Y-24540002D01*
X30478974Y-24448872D01*
X30540165Y-24328778D01*
X30540317Y-24327818D01*
X30561250Y-24195654D01*
X30561250Y-24195649D01*
X30540166Y-24062530D01*
X30540165Y-24062528D01*
X30540165Y-24062526D01*
X30478974Y-23942432D01*
X30478972Y-23942430D01*
X30478969Y-23942426D01*
X30383671Y-23847128D01*
X30383667Y-23847125D01*
X30383666Y-23847124D01*
X30263572Y-23785933D01*
X30263570Y-23785932D01*
X30263567Y-23785931D01*
X30130448Y-23764848D01*
X30130444Y-23764848D01*
X30100000Y-23769669D01*
X30100000Y-16154213D01*
X30131905Y-16186118D01*
X30131909Y-16186121D01*
X30131911Y-16186123D01*
X30252005Y-16247314D01*
X30255006Y-16247789D01*
X30258363Y-16249380D01*
X30261291Y-16250332D01*
X30261168Y-16250710D01*
X30318141Y-16277718D01*
X30355072Y-16337029D01*
X30354076Y-16406892D01*
X30330119Y-16446623D01*
X30331471Y-16447605D01*
X30325733Y-16455502D01*
X30264539Y-16575602D01*
X30243456Y-16708721D01*
X30243456Y-16708726D01*
X30264539Y-16841845D01*
X30264540Y-16841848D01*
X30264541Y-16841850D01*
X30320077Y-16950845D01*
X30325733Y-16961945D01*
X30325736Y-16961949D01*
X30421034Y-17057247D01*
X30421038Y-17057250D01*
X30421040Y-17057252D01*
X30541134Y-17118443D01*
X30554996Y-17120638D01*
X30618131Y-17150566D01*
X30655064Y-17209876D01*
X30658697Y-17258058D01*
X30649355Y-17334999D01*
X30649355Y-17335000D01*
X30659759Y-17420691D01*
X30648298Y-17489615D01*
X30601394Y-17541400D01*
X30556068Y-17558109D01*
X30547282Y-17559500D01*
X30427181Y-17620695D01*
X30427177Y-17620698D01*
X30331879Y-17715996D01*
X30331876Y-17716000D01*
X30270682Y-17836100D01*
X30249599Y-17969219D01*
X30249599Y-17969224D01*
X30270682Y-18102343D01*
X30270683Y-18102346D01*
X30270684Y-18102348D01*
X30331875Y-18222442D01*
X30331876Y-18222443D01*
X30331879Y-18222447D01*
X30427177Y-18317745D01*
X30427181Y-18317748D01*
X30427183Y-18317750D01*
X30547277Y-18378941D01*
X30556244Y-18380361D01*
X30619380Y-18410290D01*
X30656312Y-18469600D01*
X30659945Y-18517781D01*
X30649355Y-18604999D01*
X30649355Y-18605000D01*
X30659408Y-18687797D01*
X30647947Y-18756720D01*
X30601043Y-18808506D01*
X30555711Y-18825216D01*
X30532682Y-18828863D01*
X30412582Y-18890057D01*
X30412578Y-18890060D01*
X30317280Y-18985358D01*
X30317277Y-18985362D01*
X30256083Y-19105462D01*
X30235000Y-19238581D01*
X30235000Y-19238586D01*
X30256083Y-19371705D01*
X30256084Y-19371708D01*
X30256085Y-19371710D01*
X30311328Y-19480130D01*
X30317277Y-19491805D01*
X30317280Y-19491809D01*
X30412578Y-19587107D01*
X30412582Y-19587110D01*
X30412584Y-19587112D01*
X30532678Y-19648303D01*
X30556045Y-19652003D01*
X30619179Y-19681931D01*
X30656112Y-19741241D01*
X30659745Y-19789422D01*
X30649355Y-19874998D01*
X30649355Y-19875000D01*
X30658995Y-19954395D01*
X30647534Y-20023318D01*
X30600630Y-20075104D01*
X30555300Y-20091814D01*
X30537466Y-20094638D01*
X30417367Y-20155832D01*
X30417363Y-20155835D01*
X30322065Y-20251133D01*
X30322062Y-20251137D01*
X30260868Y-20371237D01*
X30239785Y-20504356D01*
X30239785Y-20504361D01*
X30260868Y-20637480D01*
X30260869Y-20637483D01*
X30260870Y-20637485D01*
X30322061Y-20757579D01*
X30322062Y-20757580D01*
X30322065Y-20757584D01*
X30417363Y-20852882D01*
X30417367Y-20852885D01*
X30417369Y-20852887D01*
X30537463Y-20914078D01*
X30537465Y-20914078D01*
X30537467Y-20914079D01*
X30670587Y-20935163D01*
X30670589Y-20935163D01*
X30670591Y-20935163D01*
X30803710Y-20914079D01*
X30803710Y-20914078D01*
X30803715Y-20914078D01*
X30923809Y-20852887D01*
X31019117Y-20757579D01*
X31080308Y-20637485D01*
X31080308Y-20637482D01*
X31084738Y-20628789D01*
X31088279Y-20630593D01*
X31116686Y-20588928D01*
X31181008Y-20561643D01*
X31224980Y-20564417D01*
X31269944Y-20575500D01*
X31269946Y-20575500D01*
X31440056Y-20575500D01*
X31605225Y-20534790D01*
X31684692Y-20493081D01*
X31755849Y-20455736D01*
X31755850Y-20455734D01*
X31755852Y-20455734D01*
X31883183Y-20342929D01*
X31979818Y-20202930D01*
X32040140Y-20043872D01*
X32060645Y-19875000D01*
X32040140Y-19706128D01*
X31979818Y-19547070D01*
X31979755Y-19546979D01*
X31928683Y-19472989D01*
X31883183Y-19407071D01*
X31799363Y-19332813D01*
X31762238Y-19273626D01*
X31763006Y-19203761D01*
X31799363Y-19147186D01*
X31883183Y-19072929D01*
X31979818Y-18932930D01*
X32040140Y-18773872D01*
X32060645Y-18605000D01*
X32040140Y-18436128D01*
X32026448Y-18400026D01*
X31979817Y-18277068D01*
X31891120Y-18148570D01*
X31883183Y-18137071D01*
X31799363Y-18062813D01*
X31762238Y-18003626D01*
X31763006Y-17933761D01*
X31799363Y-17877186D01*
X31883183Y-17802929D01*
X31979818Y-17662930D01*
X32040140Y-17503872D01*
X32060645Y-17335000D01*
X32040140Y-17166128D01*
X31979818Y-17007070D01*
X31958664Y-16976424D01*
X31898770Y-16889653D01*
X31883183Y-16867071D01*
X31799363Y-16792813D01*
X31762238Y-16733626D01*
X31763006Y-16663761D01*
X31799363Y-16607186D01*
X31883183Y-16532929D01*
X31887950Y-16526021D01*
X31942230Y-16482033D01*
X32011678Y-16474372D01*
X32074244Y-16505473D01*
X32092046Y-16526017D01*
X32096817Y-16532929D01*
X32170844Y-16598511D01*
X32224150Y-16645736D01*
X32374773Y-16724789D01*
X32374775Y-16724790D01*
X32539944Y-16765500D01*
X32710056Y-16765500D01*
X32875225Y-16724790D01*
X32991505Y-16663761D01*
X33025849Y-16645736D01*
X33025850Y-16645734D01*
X33025852Y-16645734D01*
X33153183Y-16532929D01*
X33249818Y-16392930D01*
X33249818Y-16392929D01*
X33254079Y-16386757D01*
X33256783Y-16388624D01*
X33295009Y-16349038D01*
X33363012Y-16332995D01*
X33428893Y-16356264D01*
X33471736Y-16411457D01*
X33480329Y-16456815D01*
X33480329Y-23373853D01*
X33460644Y-23440892D01*
X33436380Y-23466582D01*
X33436667Y-23466869D01*
X33334463Y-23569072D01*
X33334460Y-23569076D01*
X33273266Y-23689176D01*
X33252183Y-23822295D01*
X33252183Y-23822300D01*
X33273266Y-23955419D01*
X33273267Y-23955422D01*
X33273268Y-23955424D01*
X33334459Y-24075518D01*
X33334460Y-24075519D01*
X33334463Y-24075523D01*
X33429761Y-24170821D01*
X33429765Y-24170824D01*
X33429767Y-24170826D01*
X33549861Y-24232017D01*
X33549863Y-24232017D01*
X33549865Y-24232018D01*
X33682985Y-24253102D01*
X33682987Y-24253102D01*
X33682989Y-24253102D01*
X33816108Y-24232018D01*
X33816108Y-24232017D01*
X33816113Y-24232017D01*
X33936207Y-24170826D01*
X34031515Y-24075518D01*
X34092706Y-23955424D01*
X34095768Y-23936091D01*
X34113791Y-23822300D01*
X34113791Y-23822295D01*
X34094126Y-23698137D01*
X34092706Y-23689172D01*
X34092705Y-23689170D01*
X34089690Y-23679888D01*
X34091467Y-23679310D01*
X34081329Y-23637072D01*
X34081329Y-14747965D01*
X34082518Y-14730834D01*
X34083600Y-14723068D01*
X34083602Y-14723064D01*
X34081461Y-14676749D01*
X34081329Y-14671024D01*
X34081329Y-14652988D01*
X34080875Y-14648095D01*
X34079646Y-14637509D01*
X34078975Y-14622989D01*
X34078414Y-14610837D01*
X34075617Y-14604504D01*
X34067161Y-14577197D01*
X34065890Y-14570396D01*
X34051828Y-14547685D01*
X34043827Y-14532507D01*
X34033035Y-14508064D01*
X34028138Y-14503167D01*
X34010392Y-14480763D01*
X34006747Y-14474876D01*
X34006746Y-14474875D01*
X33985431Y-14458779D01*
X33972477Y-14447506D01*
X33341539Y-13816568D01*
X33308054Y-13755245D01*
X33308825Y-13699203D01*
X33310135Y-13693883D01*
X33310140Y-13693872D01*
X33330645Y-13525000D01*
X33310140Y-13356128D01*
X33298524Y-13325500D01*
X33249817Y-13197068D01*
X33198683Y-13122989D01*
X33153183Y-13057071D01*
X33069363Y-12982813D01*
X33032238Y-12923626D01*
X33033006Y-12853761D01*
X33069363Y-12797186D01*
X33153183Y-12722929D01*
X33249818Y-12582930D01*
X33310140Y-12423872D01*
X33330645Y-12255000D01*
X33315082Y-12126831D01*
X33326542Y-12057910D01*
X33373446Y-12006123D01*
X33440901Y-11987916D01*
X33507492Y-12009068D01*
X33511811Y-12012116D01*
X33568718Y-12054115D01*
X33568719Y-12054115D01*
X33568720Y-12054116D01*
X33693346Y-12097725D01*
X33693345Y-12097725D01*
X33722935Y-12100500D01*
X33722939Y-12100500D01*
X34303455Y-12100500D01*
X34318247Y-12099112D01*
X34333044Y-12097725D01*
X34334538Y-12097201D01*
X34335717Y-12097141D01*
X34340418Y-12096115D01*
X34340587Y-12096892D01*
X34404316Y-12093636D01*
X34464946Y-12128360D01*
X34497177Y-12190351D01*
X34499500Y-12214241D01*
X34499500Y-31996249D01*
X34499274Y-32003736D01*
X34481728Y-32293794D01*
X34479923Y-32308659D01*
X34428219Y-32590798D01*
X34424635Y-32605336D01*
X34339306Y-32879167D01*
X34333997Y-32893168D01*
X34216275Y-33154736D01*
X34209316Y-33167995D01*
X34060928Y-33413459D01*
X34052422Y-33425782D01*
X33875526Y-33651573D01*
X33865596Y-33662781D01*
X33662781Y-33865596D01*
X33651573Y-33875526D01*
X33425782Y-34052422D01*
X33413459Y-34060928D01*
X33167995Y-34209316D01*
X33154736Y-34216275D01*
X32893168Y-34333997D01*
X32879167Y-34339306D01*
X32605336Y-34424635D01*
X32590798Y-34428219D01*
X32308659Y-34479923D01*
X32293794Y-34481728D01*
X32003736Y-34499274D01*
X31996249Y-34499500D01*
X3003751Y-34499500D01*
X2996264Y-34499274D01*
X2706205Y-34481728D01*
X2691340Y-34479923D01*
X2409201Y-34428219D01*
X2394663Y-34424635D01*
X2120832Y-34339306D01*
X2106831Y-34333997D01*
X1845263Y-34216275D01*
X1832004Y-34209316D01*
X1586540Y-34060928D01*
X1574217Y-34052422D01*
X1348426Y-33875526D01*
X1337218Y-33865596D01*
X1134403Y-33662781D01*
X1124473Y-33651573D01*
X1088337Y-33605449D01*
X947573Y-33425776D01*
X939075Y-33413465D01*
X790680Y-33167989D01*
X783727Y-33154743D01*
X666000Y-32893163D01*
X660693Y-32879167D01*
X646018Y-32832074D01*
X575363Y-32605335D01*
X571780Y-32590798D01*
X520076Y-32308659D01*
X518271Y-32293794D01*
X515691Y-32251148D01*
X500726Y-32003736D01*
X500500Y-31996249D01*
X500500Y-13335055D01*
X3749500Y-13335055D01*
X3790210Y-13500226D01*
X3869263Y-13650849D01*
X3882178Y-13665427D01*
X3982071Y-13778183D01*
X4037681Y-13816568D01*
X4122068Y-13874817D01*
X4122069Y-13874817D01*
X4122070Y-13874818D01*
X4281128Y-13935140D01*
X4337897Y-13942033D01*
X4407626Y-13950500D01*
X4407628Y-13950500D01*
X4492374Y-13950500D01*
X4534538Y-13945380D01*
X4618872Y-13935140D01*
X4777930Y-13874818D01*
X4917929Y-13778183D01*
X5030734Y-13650852D01*
X5041549Y-13630247D01*
X5096787Y-13525000D01*
X5109790Y-13500225D01*
X5150500Y-13335056D01*
X5150500Y-13164944D01*
X5109790Y-12999775D01*
X5100889Y-12982815D01*
X5030736Y-12849150D01*
X4984698Y-12797184D01*
X4917929Y-12721817D01*
X4845805Y-12672033D01*
X4777931Y-12625182D01*
X4618874Y-12564860D01*
X4618868Y-12564859D01*
X4492374Y-12549500D01*
X4492372Y-12549500D01*
X4407628Y-12549500D01*
X4407626Y-12549500D01*
X4281131Y-12564859D01*
X4281125Y-12564860D01*
X4122068Y-12625182D01*
X3982072Y-12721816D01*
X3869263Y-12849150D01*
X3790210Y-12999773D01*
X3749500Y-13164944D01*
X3749500Y-13335055D01*
X500500Y-13335055D01*
X500500Y-6666990D01*
X3968856Y-6666990D01*
X3989939Y-6800109D01*
X3989940Y-6800112D01*
X3989941Y-6800114D01*
X4049434Y-6916875D01*
X4051133Y-6920209D01*
X4051136Y-6920213D01*
X4146434Y-7015511D01*
X4146438Y-7015514D01*
X4146440Y-7015516D01*
X4266534Y-7076707D01*
X4266536Y-7076707D01*
X4266538Y-7076708D01*
X4399658Y-7097792D01*
X4399660Y-7097792D01*
X4399662Y-7097792D01*
X4532781Y-7076708D01*
X4532781Y-7076707D01*
X4532786Y-7076707D01*
X4652880Y-7015516D01*
X4748188Y-6920208D01*
X4809379Y-6800114D01*
X4811172Y-6788793D01*
X4830464Y-6666990D01*
X4830464Y-6666985D01*
X4809380Y-6533866D01*
X4809379Y-6533864D01*
X4809379Y-6533862D01*
X4748188Y-6413768D01*
X4748186Y-6413766D01*
X4748183Y-6413762D01*
X4713497Y-6379076D01*
X6771074Y-6379076D01*
X6792157Y-6512195D01*
X6792158Y-6512198D01*
X6792159Y-6512200D01*
X6853350Y-6632294D01*
X6853351Y-6632295D01*
X6853354Y-6632299D01*
X6948652Y-6727597D01*
X6948656Y-6727600D01*
X6948658Y-6727602D01*
X7068752Y-6788793D01*
X7068754Y-6788793D01*
X7068756Y-6788794D01*
X7201876Y-6809878D01*
X7201878Y-6809878D01*
X7201880Y-6809878D01*
X7334999Y-6788794D01*
X7334999Y-6788793D01*
X7335004Y-6788793D01*
X7455098Y-6727602D01*
X7550406Y-6632294D01*
X7611597Y-6512200D01*
X7614214Y-6495678D01*
X7632682Y-6379076D01*
X7632682Y-6379071D01*
X7611598Y-6245952D01*
X7611597Y-6245950D01*
X7611597Y-6245948D01*
X7550406Y-6125854D01*
X7550404Y-6125852D01*
X7550401Y-6125848D01*
X7455103Y-6030550D01*
X7455099Y-6030547D01*
X7455098Y-6030546D01*
X7335004Y-5969355D01*
X7335002Y-5969354D01*
X7334999Y-5969353D01*
X7201880Y-5948270D01*
X7201876Y-5948270D01*
X7068756Y-5969353D01*
X7068752Y-5969354D01*
X7068752Y-5969355D01*
X7020331Y-5994027D01*
X6948656Y-6030547D01*
X6948652Y-6030550D01*
X6853354Y-6125848D01*
X6853351Y-6125852D01*
X6792157Y-6245952D01*
X6771074Y-6379071D01*
X6771074Y-6379076D01*
X4713497Y-6379076D01*
X4652885Y-6318464D01*
X4652881Y-6318461D01*
X4652880Y-6318460D01*
X4532786Y-6257269D01*
X4532784Y-6257268D01*
X4532781Y-6257267D01*
X4399662Y-6236184D01*
X4399658Y-6236184D01*
X4266538Y-6257267D01*
X4146438Y-6318461D01*
X4146434Y-6318464D01*
X4051136Y-6413762D01*
X4051133Y-6413766D01*
X3989939Y-6533866D01*
X3968856Y-6666985D01*
X3968856Y-6666990D01*
X500500Y-6666990D01*
X500500Y-3003750D01*
X500613Y-3000000D01*
X1394551Y-3000000D01*
X1414317Y-3251151D01*
X1473126Y-3496110D01*
X1569533Y-3728859D01*
X1701160Y-3943653D01*
X1701161Y-3943656D01*
X1701164Y-3943659D01*
X1864776Y-4135224D01*
X2013066Y-4261875D01*
X2056343Y-4298838D01*
X2056346Y-4298839D01*
X2271140Y-4430466D01*
X2503889Y-4526873D01*
X2748852Y-4585683D01*
X3000000Y-4605449D01*
X3251148Y-4585683D01*
X3496111Y-4526873D01*
X3728859Y-4430466D01*
X3943659Y-4298836D01*
X4135224Y-4135224D01*
X4298836Y-3943659D01*
X4430466Y-3728859D01*
X4526873Y-3496111D01*
X4585683Y-3251148D01*
X4605449Y-3000000D01*
X4585683Y-2748852D01*
X4526873Y-2503889D01*
X4517317Y-2480818D01*
X4430466Y-2271140D01*
X4298839Y-2056346D01*
X4298838Y-2056343D01*
X4261875Y-2013066D01*
X4135224Y-1864776D01*
X3977205Y-1729815D01*
X3943656Y-1701161D01*
X3943653Y-1701160D01*
X3728859Y-1569533D01*
X3496110Y-1473126D01*
X3251151Y-1414317D01*
X3000000Y-1394551D01*
X2748848Y-1414317D01*
X2503889Y-1473126D01*
X2271140Y-1569533D01*
X2056346Y-1701160D01*
X2056343Y-1701161D01*
X1864776Y-1864776D01*
X1701161Y-2056343D01*
X1701160Y-2056346D01*
X1569533Y-2271140D01*
X1473126Y-2503889D01*
X1414317Y-2748848D01*
X1394551Y-3000000D01*
X500613Y-3000000D01*
X500726Y-2996263D01*
X502665Y-2964201D01*
X518271Y-2706200D01*
X520076Y-2691339D01*
X523408Y-2673161D01*
X571780Y-2409197D01*
X575358Y-2394683D01*
X660700Y-2120806D01*
X665997Y-2106841D01*
X783730Y-1845249D01*
X790675Y-1832016D01*
X939079Y-1586526D01*
X947566Y-1574230D01*
X1124480Y-1348416D01*
X1134395Y-1337225D01*
X1337225Y-1134395D01*
X1348416Y-1124480D01*
X1574230Y-947566D01*
X1586526Y-939079D01*
X1832016Y-790675D01*
X1845249Y-783730D01*
X2106841Y-665997D01*
X2120806Y-660700D01*
X2394683Y-575358D01*
X2409197Y-571780D01*
X2691343Y-520075D01*
X2706200Y-518271D01*
X2996264Y-500726D01*
X3003751Y-500500D01*
X3065892Y-500500D01*
X11706921Y-500500D01*
X11773960Y-520185D01*
G37*
%TD.AperFunction*%
%TA.AperFunction,Conductor*%
G36*
X24900000Y-30300000D02*
G01*
X24401362Y-30300000D01*
X24334323Y-30280315D01*
X24313681Y-30263681D01*
X24086319Y-30036319D01*
X24052834Y-29974996D01*
X24050000Y-29948638D01*
X24050000Y-25801362D01*
X24069685Y-25734323D01*
X24086319Y-25713681D01*
X24177950Y-25622050D01*
X24300000Y-25500000D01*
X24300000Y-25291988D01*
X24319685Y-25224949D01*
X24372489Y-25179194D01*
X24404603Y-25169514D01*
X24412013Y-25168340D01*
X24412018Y-25168341D01*
X24545144Y-25147256D01*
X24665238Y-25086065D01*
X24760546Y-24990757D01*
X24821737Y-24870663D01*
X24832929Y-24800000D01*
X24842822Y-24737539D01*
X24842822Y-24737534D01*
X24821738Y-24604415D01*
X24821737Y-24604413D01*
X24821737Y-24604411D01*
X24760546Y-24484317D01*
X24760544Y-24484315D01*
X24760541Y-24484311D01*
X24665243Y-24389013D01*
X24665239Y-24389010D01*
X24665238Y-24389009D01*
X24545144Y-24327818D01*
X24545142Y-24327817D01*
X24545139Y-24327816D01*
X24412020Y-24306733D01*
X24412016Y-24306733D01*
X24278896Y-24327816D01*
X24278892Y-24327817D01*
X24278892Y-24327818D01*
X24268522Y-24333102D01*
X24158796Y-24389010D01*
X24158792Y-24389013D01*
X24063494Y-24484311D01*
X24063491Y-24484315D01*
X24002297Y-24604415D01*
X23987888Y-24695397D01*
X23957959Y-24758532D01*
X23898648Y-24795464D01*
X23865415Y-24800000D01*
X23769646Y-24800000D01*
X23702607Y-24780315D01*
X23656852Y-24727511D01*
X23645646Y-24676000D01*
X23645646Y-24597467D01*
X23646835Y-24580336D01*
X23647918Y-24572563D01*
X23647920Y-24572559D01*
X23645778Y-24526222D01*
X23645646Y-24520497D01*
X23645646Y-24502478D01*
X23645195Y-24497621D01*
X23643965Y-24487025D01*
X23642732Y-24460332D01*
X23639933Y-24453995D01*
X23631477Y-24426690D01*
X23630207Y-24419890D01*
X23622148Y-24406874D01*
X23616149Y-24397185D01*
X23608142Y-24381996D01*
X23597352Y-24357558D01*
X23592455Y-24352661D01*
X23574709Y-24330257D01*
X23573793Y-24328778D01*
X23571065Y-24324371D01*
X23571064Y-24324370D01*
X23571063Y-24324369D01*
X23549748Y-24308273D01*
X23536794Y-24297000D01*
X23321877Y-24082083D01*
X23288392Y-24020760D01*
X23287085Y-24013799D01*
X23271206Y-23913541D01*
X23271205Y-23913539D01*
X23271205Y-23913537D01*
X23210014Y-23793443D01*
X23210012Y-23793441D01*
X23210009Y-23793437D01*
X23114709Y-23698137D01*
X23108889Y-23693909D01*
X23066222Y-23638580D01*
X23060241Y-23568967D01*
X23092845Y-23507171D01*
X23094091Y-23505908D01*
X23133417Y-23466582D01*
X23146612Y-23453387D01*
X23207934Y-23419903D01*
X23277626Y-23424887D01*
X23333559Y-23466759D01*
X23356765Y-23521670D01*
X23358268Y-23531163D01*
X23358269Y-23531166D01*
X23358270Y-23531168D01*
X23419460Y-23651260D01*
X23419462Y-23651263D01*
X23419465Y-23651267D01*
X23514763Y-23746565D01*
X23514767Y-23746568D01*
X23514769Y-23746570D01*
X23634863Y-23807761D01*
X23634865Y-23807761D01*
X23634867Y-23807762D01*
X23767987Y-23828846D01*
X23767989Y-23828846D01*
X23767991Y-23828846D01*
X23901110Y-23807762D01*
X23901110Y-23807761D01*
X23901115Y-23807761D01*
X24021209Y-23746570D01*
X24116517Y-23651262D01*
X24173083Y-23540244D01*
X24221055Y-23489451D01*
X24288876Y-23472655D01*
X24302954Y-23474066D01*
X24317989Y-23476448D01*
X24420032Y-23460285D01*
X24451110Y-23455364D01*
X24451110Y-23455363D01*
X24451115Y-23455363D01*
X24571209Y-23394172D01*
X24666517Y-23298864D01*
X24727708Y-23178770D01*
X24747691Y-23052601D01*
X24748793Y-23045646D01*
X24748793Y-23045641D01*
X24727709Y-22912522D01*
X24727708Y-22912520D01*
X24727708Y-22912518D01*
X24666517Y-22792424D01*
X24666515Y-22792422D01*
X24666512Y-22792418D01*
X24571214Y-22697120D01*
X24571210Y-22697117D01*
X24571209Y-22697116D01*
X24451115Y-22635925D01*
X24451113Y-22635924D01*
X24451110Y-22635923D01*
X24317991Y-22614840D01*
X24317987Y-22614840D01*
X24184867Y-22635923D01*
X24064767Y-22697117D01*
X24064763Y-22697120D01*
X23969465Y-22792418D01*
X23969462Y-22792423D01*
X23912896Y-22903439D01*
X23864921Y-22954235D01*
X23797100Y-22971030D01*
X23783019Y-22969618D01*
X23767989Y-22967238D01*
X23767987Y-22967238D01*
X23767986Y-22967238D01*
X23634867Y-22988321D01*
X23514767Y-23049515D01*
X23514763Y-23049518D01*
X23511681Y-23052601D01*
X23507008Y-23055152D01*
X23506870Y-23055253D01*
X23506857Y-23055235D01*
X23450358Y-23086086D01*
X23380666Y-23081102D01*
X23324733Y-23039230D01*
X23300316Y-22973766D01*
X23300000Y-22964920D01*
X23300000Y-21824000D01*
X23319685Y-21756961D01*
X23372489Y-21711206D01*
X23424000Y-21700000D01*
X24900000Y-21700000D01*
X24900000Y-30300000D01*
G37*
%TD.AperFunction*%
%TA.AperFunction,Conductor*%
G36*
X21153115Y-23878984D02*
G01*
X21193372Y-23936091D01*
X21200000Y-23976089D01*
X21200000Y-24100000D01*
X21400000Y-24300000D01*
X21750000Y-24300000D01*
X21913681Y-24136319D01*
X21975004Y-24102834D01*
X22001362Y-24100000D01*
X22335751Y-24100000D01*
X22402790Y-24119685D01*
X22447335Y-24171093D01*
X22447337Y-24171093D01*
X22447339Y-24171097D01*
X22448545Y-24172489D01*
X22450155Y-24176623D01*
X22451766Y-24179785D01*
X22451767Y-24179789D01*
X22512958Y-24299883D01*
X22512959Y-24299884D01*
X22512962Y-24299888D01*
X22608260Y-24395186D01*
X22608264Y-24395189D01*
X22608266Y-24395191D01*
X22728360Y-24456382D01*
X22728362Y-24456382D01*
X22728364Y-24456383D01*
X22828622Y-24472262D01*
X22891757Y-24502191D01*
X22896906Y-24507054D01*
X23008327Y-24618475D01*
X23041812Y-24679798D01*
X23044646Y-24706156D01*
X23044646Y-29979021D01*
X23024961Y-30046060D01*
X23008327Y-30066702D01*
X22811848Y-30263181D01*
X22750525Y-30296666D01*
X22724167Y-30299500D01*
X22629500Y-30299500D01*
X22562461Y-30279815D01*
X22516706Y-30227011D01*
X22505500Y-30175500D01*
X22505500Y-27474669D01*
X22505500Y-27474665D01*
X22501551Y-27434574D01*
X22492112Y-27387121D01*
X22480418Y-27348570D01*
X22322518Y-26967367D01*
X22315923Y-26955029D01*
X22303533Y-26931848D01*
X22303526Y-26931836D01*
X22276649Y-26891613D01*
X22276640Y-26891602D01*
X22256288Y-26866804D01*
X22251091Y-26860471D01*
X20539528Y-25148908D01*
X20537514Y-25147255D01*
X20508401Y-25123361D01*
X20508388Y-25123351D01*
X20468158Y-25096469D01*
X20468145Y-25096462D01*
X20432640Y-25077484D01*
X20432635Y-25077482D01*
X20337097Y-25037909D01*
X20051429Y-24919581D01*
X20051428Y-24919580D01*
X20051424Y-24919579D01*
X20012888Y-24907889D01*
X20012880Y-24907887D01*
X19965420Y-24898447D01*
X19934091Y-24895362D01*
X19925335Y-24894500D01*
X19501362Y-24894500D01*
X19501361Y-24894500D01*
X19479381Y-24895678D01*
X19453034Y-24898511D01*
X19453032Y-24898512D01*
X19376521Y-24922470D01*
X19376516Y-24922471D01*
X19315188Y-24955960D01*
X19268384Y-24990998D01*
X19268363Y-24991016D01*
X19091013Y-25168365D01*
X19091012Y-25168366D01*
X19076325Y-25184716D01*
X19076313Y-25184730D01*
X19059672Y-25205379D01*
X19022509Y-25276424D01*
X19002826Y-25343456D01*
X19002825Y-25343464D01*
X18994500Y-25401362D01*
X18994500Y-26125334D01*
X18997461Y-26155403D01*
X18998449Y-26165428D01*
X19007889Y-26212883D01*
X19019576Y-26251413D01*
X19019581Y-26251428D01*
X19130900Y-26520179D01*
X19139342Y-26538069D01*
X19139344Y-26538072D01*
X19139352Y-26538089D01*
X19150565Y-26559159D01*
X19199633Y-26619829D01*
X19199635Y-26619831D01*
X19199637Y-26619833D01*
X19221099Y-26637899D01*
X19253085Y-26664825D01*
X19253098Y-26664835D01*
X19253097Y-26664835D01*
X19272706Y-26679388D01*
X19273269Y-26679806D01*
X19359088Y-26711417D01*
X19428381Y-26720372D01*
X19428382Y-26720371D01*
X19428383Y-26720372D01*
X19443002Y-26720163D01*
X19486866Y-26719537D01*
X19509432Y-26715962D01*
X19548221Y-26715962D01*
X19578263Y-26720719D01*
X19615155Y-26732706D01*
X19642258Y-26746515D01*
X19673642Y-26769317D01*
X19695142Y-26790817D01*
X19717945Y-26822202D01*
X19731754Y-26849303D01*
X19743743Y-26886200D01*
X19748500Y-26916233D01*
X19748500Y-26955029D01*
X19735922Y-27034443D01*
X19735921Y-27034447D01*
X19733474Y-27072477D01*
X19733423Y-27075355D01*
X19732565Y-27075339D01*
X19715711Y-27139512D01*
X19664244Y-27186767D01*
X19609511Y-27199500D01*
X18282626Y-27199500D01*
X18156130Y-27214859D01*
X18156119Y-27214862D01*
X18151943Y-27216446D01*
X18107989Y-27224500D01*
X18093488Y-27224500D01*
X17999694Y-27239354D01*
X17990418Y-27242369D01*
X17989205Y-27238638D01*
X17939202Y-27247906D01*
X17874524Y-27221477D01*
X17834402Y-27164276D01*
X17829334Y-27143564D01*
X17829175Y-27142539D01*
X17828734Y-27139698D01*
X17825707Y-27124171D01*
X17821338Y-27105597D01*
X17817124Y-27090343D01*
X17372163Y-25691901D01*
X17370595Y-25622050D01*
X17376912Y-25604174D01*
X17473503Y-25385696D01*
X17518612Y-25332343D01*
X17585408Y-25311847D01*
X17606309Y-25313365D01*
X17728559Y-25332727D01*
X17728562Y-25332727D01*
X17728564Y-25332727D01*
X17861683Y-25311643D01*
X17861683Y-25311642D01*
X17861688Y-25311642D01*
X17981782Y-25250451D01*
X18031085Y-25201148D01*
X18092408Y-25167662D01*
X18162100Y-25172646D01*
X18181351Y-25182980D01*
X18181377Y-25182931D01*
X18190070Y-25187360D01*
X18190072Y-25187362D01*
X18310166Y-25248553D01*
X18310168Y-25248553D01*
X18310170Y-25248554D01*
X18443290Y-25269638D01*
X18443292Y-25269638D01*
X18443294Y-25269638D01*
X18576413Y-25248554D01*
X18576413Y-25248553D01*
X18576418Y-25248553D01*
X18696512Y-25187362D01*
X18791820Y-25092054D01*
X18853011Y-24971960D01*
X18855546Y-24955956D01*
X18874096Y-24838836D01*
X18874096Y-24838831D01*
X18853011Y-24705709D01*
X18853011Y-24705708D01*
X18807172Y-24615745D01*
X18794276Y-24547078D01*
X18820552Y-24482338D01*
X18829968Y-24471779D01*
X18898528Y-24403220D01*
X18959719Y-24283126D01*
X18962392Y-24266248D01*
X18971507Y-24208702D01*
X19001436Y-24145567D01*
X19060747Y-24108635D01*
X19130610Y-24109633D01*
X19188843Y-24148242D01*
X19212314Y-24191045D01*
X19222470Y-24223479D01*
X19222473Y-24223486D01*
X19223971Y-24226230D01*
X19237607Y-24266248D01*
X19240280Y-24283123D01*
X19240280Y-24283124D01*
X19240281Y-24283126D01*
X19301472Y-24403220D01*
X19301474Y-24403222D01*
X19301476Y-24403225D01*
X19396774Y-24498523D01*
X19396777Y-24498525D01*
X19396780Y-24498528D01*
X19516874Y-24559719D01*
X19516875Y-24559719D01*
X19516877Y-24559720D01*
X19533489Y-24562351D01*
X19571563Y-24574947D01*
X19576425Y-24577490D01*
X19643456Y-24597173D01*
X19643458Y-24597173D01*
X19643464Y-24597175D01*
X19701362Y-24605500D01*
X19701366Y-24605500D01*
X20098637Y-24605500D01*
X20098638Y-24605500D01*
X20120606Y-24604322D01*
X20146965Y-24601488D01*
X20223484Y-24577528D01*
X20284804Y-24544044D01*
X20320856Y-24517054D01*
X20338858Y-24505845D01*
X20353220Y-24498528D01*
X20448528Y-24403220D01*
X20451172Y-24398029D01*
X20473975Y-24366642D01*
X20498160Y-24342459D01*
X20502252Y-24338249D01*
X20507113Y-24333102D01*
X20543402Y-24280031D01*
X20573332Y-24216896D01*
X20590611Y-24161016D01*
X20601443Y-24092630D01*
X20603339Y-24076607D01*
X20604866Y-24057208D01*
X20605500Y-24041082D01*
X20605500Y-24041048D01*
X20605529Y-24040310D01*
X20627828Y-23974094D01*
X20682386Y-23930445D01*
X20748832Y-23922700D01*
X20799998Y-23930804D01*
X20800000Y-23930804D01*
X20800002Y-23930804D01*
X20933121Y-23909720D01*
X20933121Y-23909719D01*
X20933126Y-23909719D01*
X21019707Y-23865603D01*
X21088374Y-23852708D01*
X21153115Y-23878984D01*
G37*
%TD.AperFunction*%
%TA.AperFunction,Conductor*%
G36*
X30207614Y-8281011D02*
G01*
X30247872Y-8338117D01*
X30254500Y-8378116D01*
X30254500Y-15350617D01*
X30234815Y-15417656D01*
X30186796Y-15461101D01*
X30131912Y-15489066D01*
X30131905Y-15489071D01*
X30100000Y-15520976D01*
X30100000Y-8262786D01*
X30142874Y-8254735D01*
X30207614Y-8281011D01*
G37*
%TD.AperFunction*%
%TA.AperFunction,Conductor*%
G36*
X33375022Y-10110885D02*
G01*
X33390547Y-10128239D01*
X33441300Y-10197008D01*
X33462485Y-10225712D01*
X33568718Y-10304115D01*
X33568719Y-10304115D01*
X33568720Y-10304116D01*
X33693346Y-10347725D01*
X33693345Y-10347725D01*
X33722935Y-10350500D01*
X33722939Y-10350500D01*
X34303455Y-10350500D01*
X34318247Y-10349112D01*
X34333044Y-10347725D01*
X34334538Y-10347201D01*
X34335717Y-10347141D01*
X34340418Y-10346115D01*
X34340587Y-10346892D01*
X34404316Y-10343636D01*
X34464946Y-10378360D01*
X34497177Y-10440351D01*
X34499500Y-10464241D01*
X34499500Y-10535758D01*
X34479815Y-10602797D01*
X34427011Y-10648552D01*
X34357853Y-10658496D01*
X34334549Y-10652801D01*
X34333044Y-10652274D01*
X34303455Y-10649500D01*
X34303451Y-10649500D01*
X33722939Y-10649500D01*
X33722935Y-10649500D01*
X33693345Y-10652274D01*
X33568720Y-10695883D01*
X33462641Y-10774173D01*
X33397012Y-10798143D01*
X33328842Y-10782827D01*
X33279774Y-10733087D01*
X33273066Y-10718372D01*
X33273037Y-10718296D01*
X33249818Y-10657070D01*
X33246871Y-10652801D01*
X33197497Y-10581271D01*
X33153183Y-10517071D01*
X33069363Y-10442813D01*
X33032238Y-10383626D01*
X33033006Y-10313761D01*
X33069363Y-10257186D01*
X33153183Y-10182929D01*
X33188729Y-10131430D01*
X33243008Y-10087443D01*
X33312457Y-10079783D01*
X33375022Y-10110885D01*
G37*
%TD.AperFunction*%
%TA.AperFunction,Conductor*%
G36*
X30109356Y-6547771D02*
G01*
X30109357Y-6547774D01*
X30109358Y-6547776D01*
X30170100Y-6666988D01*
X30170550Y-6667871D01*
X30170552Y-6667874D01*
X30218180Y-6715501D01*
X30251666Y-6776824D01*
X30254500Y-6803183D01*
X30254500Y-7361509D01*
X30234815Y-7428548D01*
X30182011Y-7474303D01*
X30112853Y-7484247D01*
X30100000Y-7480172D01*
X30100000Y-6488696D01*
X30109356Y-6547771D01*
G37*
%TD.AperFunction*%
%TD*%
%TA.AperFunction,Conductor*%
%TO.N,VDD*%
G36*
X12765677Y-2919685D02*
G01*
X12786319Y-2936319D01*
X12902298Y-3052298D01*
X12935783Y-3113621D01*
X12930799Y-3183313D01*
X12902298Y-3227660D01*
X12886131Y-3243826D01*
X12886128Y-3243830D01*
X12824934Y-3363930D01*
X12803851Y-3497049D01*
X12803851Y-3497054D01*
X12824934Y-3630173D01*
X12824935Y-3630176D01*
X12824936Y-3630178D01*
X12886127Y-3750272D01*
X12963682Y-3827827D01*
X12997166Y-3889148D01*
X13000000Y-3915507D01*
X13000000Y-4164972D01*
X12998659Y-4183161D01*
X12998449Y-4184570D01*
X12994500Y-4224670D01*
X12994500Y-5848638D01*
X12995678Y-5870618D01*
X12999163Y-5903021D01*
X12998578Y-5903083D01*
X13000000Y-5916883D01*
X13000000Y-11654240D01*
X12998738Y-11671887D01*
X12994500Y-11701362D01*
X12994500Y-13407981D01*
X12995678Y-13429961D01*
X12999163Y-13462364D01*
X12998578Y-13462426D01*
X13000000Y-13476226D01*
X13000000Y-20854240D01*
X12998738Y-20871887D01*
X12994500Y-20901362D01*
X12994500Y-22657981D01*
X12995678Y-22679961D01*
X12999163Y-22712364D01*
X12998578Y-22712426D01*
X13000000Y-22726226D01*
X13000000Y-30054240D01*
X12998738Y-30071887D01*
X12994500Y-30101362D01*
X12994500Y-31907981D01*
X12995678Y-31929961D01*
X12999163Y-31962364D01*
X12998578Y-31962426D01*
X13000000Y-31976226D01*
X13000000Y-32448638D01*
X12980315Y-32515677D01*
X12963681Y-32536319D01*
X12786319Y-32713681D01*
X12724996Y-32747166D01*
X12698638Y-32750000D01*
X6524665Y-32750000D01*
X6477212Y-32740561D01*
X6096009Y-32582661D01*
X6055781Y-32555781D01*
X2194218Y-28694218D01*
X2167338Y-28653990D01*
X2009439Y-28272787D01*
X2000000Y-28225334D01*
X2000000Y-24500000D01*
X5819417Y-24500000D01*
X5839699Y-24705932D01*
X5839700Y-24705934D01*
X5899768Y-24903954D01*
X5997315Y-25086450D01*
X6031969Y-25128677D01*
X6128589Y-25246410D01*
X6225209Y-25325702D01*
X6288550Y-25377685D01*
X6471046Y-25475232D01*
X6669066Y-25535300D01*
X6669065Y-25535300D01*
X6707647Y-25539100D01*
X6823392Y-25550500D01*
X6823395Y-25550500D01*
X7076605Y-25550500D01*
X7076608Y-25550500D01*
X7230934Y-25535300D01*
X7428954Y-25475232D01*
X7611450Y-25377685D01*
X7771410Y-25246410D01*
X7902685Y-25086450D01*
X8000232Y-24903954D01*
X8060300Y-24705934D01*
X8080583Y-24500000D01*
X8060300Y-24294066D01*
X8000232Y-24096046D01*
X7902685Y-23913550D01*
X7850702Y-23850209D01*
X7771410Y-23753589D01*
X7611452Y-23622317D01*
X7611453Y-23622317D01*
X7611450Y-23622315D01*
X7428954Y-23524768D01*
X7230934Y-23464700D01*
X7230932Y-23464699D01*
X7230934Y-23464699D01*
X7111805Y-23452966D01*
X7076608Y-23449500D01*
X6823392Y-23449500D01*
X6785298Y-23453251D01*
X6669067Y-23464699D01*
X6471043Y-23524769D01*
X6360898Y-23583643D01*
X6288550Y-23622315D01*
X6288548Y-23622316D01*
X6288547Y-23622317D01*
X6128589Y-23753589D01*
X5997317Y-23913547D01*
X5899769Y-24096043D01*
X5839699Y-24294067D01*
X5819417Y-24500000D01*
X2000000Y-24500000D01*
X2000000Y-22000000D01*
X5819417Y-22000000D01*
X5839699Y-22205932D01*
X5839700Y-22205934D01*
X5899768Y-22403954D01*
X5997315Y-22586450D01*
X5997317Y-22586452D01*
X6128589Y-22746410D01*
X6172962Y-22782825D01*
X6288550Y-22877685D01*
X6471046Y-22975232D01*
X6669066Y-23035300D01*
X6669065Y-23035300D01*
X6707647Y-23039100D01*
X6823392Y-23050500D01*
X6823395Y-23050500D01*
X7076605Y-23050500D01*
X7076608Y-23050500D01*
X7230934Y-23035300D01*
X7428954Y-22975232D01*
X7611450Y-22877685D01*
X7771410Y-22746410D01*
X7902685Y-22586450D01*
X8000232Y-22403954D01*
X8060300Y-22205934D01*
X8080583Y-22000000D01*
X8060300Y-21794066D01*
X8000232Y-21596046D01*
X7902685Y-21413550D01*
X7850702Y-21350209D01*
X7771410Y-21253589D01*
X7633365Y-21140300D01*
X7611450Y-21122315D01*
X7428954Y-21024768D01*
X7230934Y-20964700D01*
X7230932Y-20964699D01*
X7230934Y-20964699D01*
X7111805Y-20952966D01*
X7076608Y-20949500D01*
X6823392Y-20949500D01*
X6785298Y-20953251D01*
X6669067Y-20964699D01*
X6471043Y-21024769D01*
X6360898Y-21083643D01*
X6288550Y-21122315D01*
X6288548Y-21122316D01*
X6288547Y-21122317D01*
X6128589Y-21253589D01*
X5997317Y-21413547D01*
X5899769Y-21596043D01*
X5839699Y-21794067D01*
X5819417Y-22000000D01*
X2000000Y-22000000D01*
X2000000Y-20154269D01*
X5824500Y-20154269D01*
X5827353Y-20184699D01*
X5827353Y-20184701D01*
X5872206Y-20312880D01*
X5872207Y-20312882D01*
X5952850Y-20422150D01*
X6062118Y-20502793D01*
X6104845Y-20517744D01*
X6190299Y-20547646D01*
X6220730Y-20550500D01*
X6220734Y-20550500D01*
X7679270Y-20550500D01*
X7709699Y-20547646D01*
X7709701Y-20547646D01*
X7773790Y-20525219D01*
X7837882Y-20502793D01*
X7947150Y-20422150D01*
X8027793Y-20312882D01*
X8050219Y-20248790D01*
X8072646Y-20184701D01*
X8072646Y-20184699D01*
X8075500Y-20154269D01*
X8075500Y-18845730D01*
X8072646Y-18815300D01*
X8072646Y-18815298D01*
X8027793Y-18687119D01*
X8027792Y-18687117D01*
X7947150Y-18577850D01*
X7837882Y-18497207D01*
X7837880Y-18497206D01*
X7709700Y-18452353D01*
X7679270Y-18449500D01*
X7679266Y-18449500D01*
X6220734Y-18449500D01*
X6220730Y-18449500D01*
X6190300Y-18452353D01*
X6190298Y-18452353D01*
X6062119Y-18497206D01*
X6062117Y-18497207D01*
X5952850Y-18577850D01*
X5872207Y-18687117D01*
X5872206Y-18687119D01*
X5827353Y-18815298D01*
X5827353Y-18815300D01*
X5824500Y-18845730D01*
X5824500Y-20154269D01*
X2000000Y-20154269D01*
X2000000Y-17101362D01*
X2019685Y-17034323D01*
X2036319Y-17013681D01*
X2213681Y-16836319D01*
X2275004Y-16802834D01*
X2301362Y-16800000D01*
X5749998Y-16800000D01*
X5750000Y-16800000D01*
X6000000Y-16800000D01*
X8100000Y-14700000D01*
X8100000Y-12151709D01*
X8119685Y-12084670D01*
X8136314Y-12064032D01*
X8215431Y-11984916D01*
X8276622Y-11864822D01*
X8276623Y-11864817D01*
X8297707Y-11731698D01*
X8297707Y-11731693D01*
X8276623Y-11598574D01*
X8276622Y-11598572D01*
X8276622Y-11598570D01*
X8215431Y-11478476D01*
X8215429Y-11478474D01*
X8215426Y-11478470D01*
X8136319Y-11399363D01*
X8102834Y-11338040D01*
X8100000Y-11311682D01*
X8100000Y-3201362D01*
X8119685Y-3134323D01*
X8136319Y-3113681D01*
X8313681Y-2936319D01*
X8375004Y-2902834D01*
X8401362Y-2900000D01*
X12698638Y-2900000D01*
X12765677Y-2919685D01*
G37*
%TD.AperFunction*%
%TD*%
M02*
