%TF.GenerationSoftware,KiCad,Pcbnew,7.0.11*%
%TF.CreationDate,2024-11-13T01:10:25+09:00*%
%TF.ProjectId,MD,4d442e6b-6963-4616-945f-706362585858,rev?*%
%TF.SameCoordinates,Original*%
%TF.FileFunction,Soldermask,Top*%
%TF.FilePolarity,Negative*%
%FSLAX46Y46*%
G04 Gerber Fmt 4.6, Leading zero omitted, Abs format (unit mm)*
G04 Created by KiCad (PCBNEW 7.0.11) date 2024-11-13 01:10:25*
%MOMM*%
%LPD*%
G01*
G04 APERTURE LIST*
G04 Aperture macros list*
%AMRoundRect*
0 Rectangle with rounded corners*
0 $1 Rounding radius*
0 $2 $3 $4 $5 $6 $7 $8 $9 X,Y pos of 4 corners*
0 Add a 4 corners polygon primitive as box body*
4,1,4,$2,$3,$4,$5,$6,$7,$8,$9,$2,$3,0*
0 Add four circle primitives for the rounded corners*
1,1,$1+$1,$2,$3*
1,1,$1+$1,$4,$5*
1,1,$1+$1,$6,$7*
1,1,$1+$1,$8,$9*
0 Add four rect primitives between the rounded corners*
20,1,$1+$1,$2,$3,$4,$5,0*
20,1,$1+$1,$4,$5,$6,$7,0*
20,1,$1+$1,$6,$7,$8,$9,0*
20,1,$1+$1,$8,$9,$2,$3,0*%
G04 Aperture macros list end*
%ADD10RoundRect,0.250000X0.362500X1.425000X-0.362500X1.425000X-0.362500X-1.425000X0.362500X-1.425000X0*%
%ADD11RoundRect,0.225000X0.225000X0.250000X-0.225000X0.250000X-0.225000X-0.250000X0.225000X-0.250000X0*%
%ADD12RoundRect,0.225000X-0.225000X-0.375000X0.225000X-0.375000X0.225000X0.375000X-0.225000X0.375000X0*%
%ADD13RoundRect,0.225000X0.250000X-0.225000X0.250000X0.225000X-0.250000X0.225000X-0.250000X-0.225000X0*%
%ADD14RoundRect,0.200000X0.200000X0.275000X-0.200000X0.275000X-0.200000X-0.275000X0.200000X-0.275000X0*%
%ADD15R,0.900000X0.400000*%
%ADD16R,0.900000X0.375000*%
%ADD17R,0.700000X0.400000*%
%ADD18R,2.200000X2.650000*%
%ADD19R,0.700000X0.375000*%
%ADD20RoundRect,0.237500X-0.237500X0.287500X-0.237500X-0.287500X0.237500X-0.287500X0.237500X0.287500X0*%
%ADD21C,0.900000*%
%ADD22R,1.500000X0.700000*%
%ADD23R,0.800000X1.000000*%
%ADD24RoundRect,0.250000X-0.675000X0.600000X-0.675000X-0.600000X0.675000X-0.600000X0.675000X0.600000X0*%
%ADD25O,1.850000X1.700000*%
%ADD26RoundRect,0.250000X0.600000X0.675000X-0.600000X0.675000X-0.600000X-0.675000X0.600000X-0.675000X0*%
%ADD27O,1.700000X1.850000*%
%ADD28C,1.200000*%
%ADD29R,1.000000X1.000000*%
%ADD30O,1.000000X1.000000*%
G04 APERTURE END LIST*
D10*
%TO.C,R61*%
X27462500Y-21400000D03*
X21537500Y-21400000D03*
%TD*%
D11*
%TO.C,C41*%
X21275000Y-9500000D03*
X19725000Y-9500000D03*
%TD*%
%TO.C,C38*%
X21275000Y-18700000D03*
X19725000Y-18700000D03*
%TD*%
D12*
%TO.C,D18*%
X11750000Y-7500000D03*
X15050000Y-7500000D03*
%TD*%
D13*
%TO.C,C40*%
X15200000Y-11075000D03*
X15200000Y-9525000D03*
%TD*%
D14*
%TO.C,R67*%
X13725000Y-27900000D03*
X12075000Y-27900000D03*
%TD*%
%TO.C,R68*%
X18325000Y-27900000D03*
X16675000Y-27900000D03*
%TD*%
D15*
%TO.C,Q12*%
X20050000Y-13075000D03*
X20050000Y-12425000D03*
D16*
X20050000Y-11787500D03*
D15*
X20050000Y-11125000D03*
D17*
X16450000Y-13075000D03*
X16450000Y-12425000D03*
D18*
X17900000Y-12100000D03*
D19*
X16450000Y-11787500D03*
D17*
X16450000Y-11125000D03*
%TD*%
D15*
%TO.C,Q10*%
X13850000Y-31475000D03*
X13850000Y-30825000D03*
D16*
X13850000Y-30187500D03*
D15*
X13850000Y-29525000D03*
D17*
X10250000Y-31475000D03*
X10250000Y-30825000D03*
D18*
X11700000Y-30500000D03*
D19*
X10250000Y-30187500D03*
D17*
X10250000Y-29525000D03*
%TD*%
D13*
%TO.C,C37*%
X15200000Y-20275000D03*
X15200000Y-18725000D03*
%TD*%
D10*
%TO.C,R66*%
X27462500Y-12200000D03*
X21537500Y-12200000D03*
%TD*%
D12*
%TO.C,D17*%
X16550000Y-16700000D03*
X19850000Y-16700000D03*
%TD*%
D20*
%TO.C,D1*%
X34013195Y-9625000D03*
X34013195Y-11375000D03*
%TD*%
D14*
%TO.C,R73*%
X13725000Y-9500000D03*
X12075000Y-9500000D03*
%TD*%
D21*
%TO.C,SW4*%
X4450000Y-10250000D03*
X4450000Y-13250000D03*
D22*
X7000000Y-9500000D03*
X7000000Y-12500000D03*
X7000000Y-14000000D03*
X1900000Y-9500000D03*
X1900000Y-12500000D03*
X1900000Y-14000000D03*
D23*
X6300000Y-8250000D03*
X6300000Y-15250000D03*
X2600000Y-8250000D03*
X2600000Y-15250000D03*
%TD*%
D12*
%TO.C,D15*%
X16550000Y-25900000D03*
X19850000Y-25900000D03*
%TD*%
D24*
%TO.C,J6*%
X6950000Y-19500000D03*
D25*
X6950000Y-22000000D03*
X6950000Y-24500000D03*
%TD*%
D15*
%TO.C,Q6*%
X13850000Y-5375000D03*
X13850000Y-4725000D03*
D16*
X13850000Y-4087500D03*
D15*
X13850000Y-3425000D03*
D17*
X10250000Y-5375000D03*
X10250000Y-4725000D03*
D18*
X11700000Y-4400000D03*
D19*
X10250000Y-4087500D03*
D17*
X10250000Y-3425000D03*
%TD*%
D15*
%TO.C,Q9*%
X13850000Y-22275000D03*
X13850000Y-21625000D03*
D16*
X13850000Y-20987500D03*
D15*
X13850000Y-20325000D03*
D17*
X10250000Y-22275000D03*
X10250000Y-21625000D03*
D18*
X11700000Y-21300000D03*
D19*
X10250000Y-20987500D03*
D17*
X10250000Y-20325000D03*
%TD*%
D11*
%TO.C,C34*%
X21275000Y-27900000D03*
X19725000Y-27900000D03*
%TD*%
D13*
%TO.C,C33*%
X15200000Y-29475000D03*
X15200000Y-27925000D03*
%TD*%
D15*
%TO.C,Q8*%
X20050000Y-22275000D03*
X20050000Y-21625000D03*
D16*
X20050000Y-20987500D03*
D15*
X20050000Y-20325000D03*
D17*
X16450000Y-22275000D03*
X16450000Y-21625000D03*
D18*
X17900000Y-21300000D03*
D19*
X16450000Y-20987500D03*
D17*
X16450000Y-20325000D03*
%TD*%
D11*
%TO.C,C35*%
X19875000Y-33100000D03*
X18325000Y-33100000D03*
%TD*%
D12*
%TO.C,D16*%
X11750000Y-16700000D03*
X15050000Y-16700000D03*
%TD*%
D14*
%TO.C,R74*%
X18325000Y-9500000D03*
X16675000Y-9500000D03*
%TD*%
%TO.C,R70*%
X13725000Y-18700000D03*
X12075000Y-18700000D03*
%TD*%
D12*
%TO.C,D19*%
X16550000Y-7500000D03*
X19850000Y-7500000D03*
%TD*%
%TO.C,D14*%
X11750000Y-25900000D03*
X15050000Y-25900000D03*
%TD*%
D10*
%TO.C,R56*%
X27462500Y-30600000D03*
X21537500Y-30600000D03*
%TD*%
D11*
%TO.C,C39*%
X19875000Y-14700000D03*
X18325000Y-14700000D03*
%TD*%
D15*
%TO.C,Q11*%
X13850000Y-13075000D03*
X13850000Y-12425000D03*
D16*
X13850000Y-11787500D03*
D15*
X13850000Y-11125000D03*
D17*
X10250000Y-13075000D03*
X10250000Y-12425000D03*
D18*
X11700000Y-12100000D03*
D19*
X10250000Y-11787500D03*
D17*
X10250000Y-11125000D03*
%TD*%
D26*
%TO.C,J5*%
X26150000Y-6850000D03*
D27*
X23650000Y-6850000D03*
%TD*%
D14*
%TO.C,R71*%
X18325000Y-18700000D03*
X16675000Y-18700000D03*
%TD*%
D15*
%TO.C,Q7*%
X20050000Y-31475000D03*
X20050000Y-30825000D03*
D16*
X20050000Y-30187500D03*
D15*
X20050000Y-29525000D03*
D17*
X16450000Y-31475000D03*
X16450000Y-30825000D03*
D18*
X17900000Y-30500000D03*
D19*
X16450000Y-30187500D03*
D17*
X16450000Y-29525000D03*
%TD*%
D11*
%TO.C,C36*%
X19875000Y-23900000D03*
X18325000Y-23900000D03*
%TD*%
D15*
%TO.C,Q2*%
X16550000Y-3425000D03*
X16550000Y-4075000D03*
D16*
X16550000Y-4712500D03*
D15*
X16550000Y-5375000D03*
D17*
X20150000Y-3425000D03*
X20150000Y-4075000D03*
D18*
X18700000Y-4400000D03*
D19*
X20150000Y-4712500D03*
D17*
X20150000Y-5375000D03*
%TD*%
D28*
%TO.C,C17*%
X12500000Y-1100000D03*
X10500000Y-1100000D03*
%TD*%
D29*
%TO.C,J4*%
X31355000Y-7175000D03*
D30*
X32625000Y-7175000D03*
X31355000Y-8445000D03*
X32625000Y-8445000D03*
X31355000Y-9715000D03*
X32625000Y-9715000D03*
X31355000Y-10985000D03*
X32625000Y-10985000D03*
X31355000Y-12255000D03*
X32625000Y-12255000D03*
X31355000Y-13525000D03*
X32625000Y-13525000D03*
X31355000Y-14795000D03*
X32625000Y-14795000D03*
X31355000Y-16065000D03*
X32625000Y-16065000D03*
X31355000Y-17335000D03*
X32625000Y-17335000D03*
X31355000Y-18605000D03*
X32625000Y-18605000D03*
X31355000Y-19875000D03*
X32625000Y-19875000D03*
X31355000Y-21145000D03*
X32625000Y-21145000D03*
X31355000Y-22415000D03*
X32625000Y-22415000D03*
%TD*%
D28*
%TO.C,C2*%
X17800000Y-1100000D03*
X15800000Y-1100000D03*
%TD*%
M02*
