M48
; DRILL file {KiCad 7.0.11} date Wed Nov 13 01:10:25 2024
; FORMAT={-:-/ absolute / inch / decimal}
; #@! TF.CreationDate,2024-11-13T01:10:25+09:00
; #@! TF.GenerationSoftware,Kicad,Pcbnew,7.0.11
; #@! TF.FileFunction,Plated,1,4,PTH
FMAT,2
INCH
; #@! TA.AperFunction,Plated,PTH,ViaDrill
T1C0.0118
; #@! TA.AperFunction,Plated,PTH,ComponentDrill
T2C0.0256
; #@! TA.AperFunction,Plated,PTH,ComponentDrill
T3C0.0276
; #@! TA.AperFunction,Plated,PTH,ComponentDrill
T4C0.0335
%
G90
G05
T1
X0.0295Y-0.1378
X0.0295Y-0.2264
X0.0394Y-0.2992
X0.0394Y-1.252
X0.0472Y-0.3858
X0.0472Y-0.4882
X0.0472Y-0.5906
X0.0472Y-0.7087
X0.0472Y-0.8346
X0.0472Y-0.9606
X0.0472Y-1.1181
X0.0591Y-0.0591
X0.0709Y-0.2992
X0.0709Y-1.3228
X0.0787Y-0.187
X0.0787Y-0.3465
X0.0787Y-0.4094
X0.0945Y-0.4803
X0.0945Y-0.6378
X0.0984Y-0.6791
X0.0984Y-0.7185
X0.0984Y-0.7579
X0.0984Y-0.7972
X0.0984Y-0.8366
X0.0984Y-0.876
X0.0984Y-0.9154
X0.0984Y-0.9547
X0.0984Y-0.9941
X0.0984Y-1.0335
X0.0984Y-1.0728
X0.0984Y-1.1122
X0.1102Y-1.1811
X0.1138Y-0.2795
X0.1339Y-0.5276
X0.1378Y-0.0394
X0.1378Y-0.6791
X0.1378Y-0.7185
X0.1378Y-0.7579
X0.1378Y-0.7972
X0.1378Y-0.8366
X0.1378Y-0.876
X0.1378Y-0.9154
X0.1378Y-0.9547
X0.1378Y-0.9941
X0.1378Y-1.0335
X0.1378Y-1.0728
X0.1378Y-1.1122
X0.1378Y-1.1516
X0.1575Y-0.187
X0.1654Y-0.3465
X0.1693Y-0.4843
X0.1732Y-0.2625
X0.1732Y-0.5591
X0.1732Y-0.6378
X0.1732Y-1.3465
X0.1772Y-0.6791
X0.1772Y-0.7185
X0.1772Y-0.7579
X0.1772Y-0.7972
X0.1772Y-0.8366
X0.1772Y-0.876
X0.1772Y-0.9154
X0.1772Y-0.9547
X0.1772Y-0.9941
X0.1772Y-1.0335
X0.1772Y-1.0728
X0.1772Y-1.1122
X0.1772Y-1.1516
X0.1772Y-1.1909
X0.1969Y-0.0886
X0.1969Y-0.3071
X0.1969Y-0.935
X0.1969Y-1.2677
X0.2121Y-0.4535
X0.2165Y-0.9547
X0.2165Y-0.9941
X0.2165Y-1.0335
X0.2165Y-1.0728
X0.2165Y-1.1122
X0.2165Y-1.1516
X0.2165Y-1.1909
X0.2165Y-1.2303
X0.2205Y-0.3386
X0.2239Y-0.428
X0.2264Y-0.0394
X0.2264Y-0.1378
X0.2534Y-0.4921
X0.2548Y-0.1132
X0.2559Y-1.0335
X0.2559Y-1.0728
X0.2559Y-1.1122
X0.2559Y-1.1516
X0.2559Y-1.1909
X0.2559Y-1.2303
X0.2559Y-1.2697
X0.2677Y-1.3465
X0.2724Y-0.4063
X0.273Y-0.3634
X0.2821Y-0.4537
X0.2835Y-0.2511
X0.2909Y-0.1133
X0.2953Y-1.0728
X0.2953Y-1.1122
X0.2953Y-1.1516
X0.2953Y-1.1909
X0.2953Y-1.2303
X0.2953Y-1.2697
X0.2985Y-0.1498
X0.2991Y-0.2183
X0.3097Y-0.4619
X0.315Y-1.315
X0.3248Y-0.0787
X0.3346Y-0.0394
X0.3346Y-0.128
X0.3346Y-0.1673
X0.3346Y-0.2067
X0.3346Y-0.2461
X0.3346Y-0.2854
X0.3346Y-0.3248
X0.3346Y-0.3642
X0.3346Y-0.4035
X0.3346Y-1.1122
X0.3346Y-1.1516
X0.3346Y-1.1909
X0.3346Y-1.2303
X0.3346Y-1.2697
X0.3701Y-1.3465
X0.374Y-0.128
X0.374Y-0.1673
X0.374Y-0.2067
X0.374Y-0.2461
X0.374Y-0.2854
X0.374Y-0.3248
X0.374Y-0.3642
X0.374Y-1.1516
X0.374Y-1.1909
X0.374Y-1.2303
X0.374Y-1.2697
X0.3937Y-1.1713
X0.3937Y-1.2106
X0.3937Y-1.25
X0.4134Y-0.128
X0.4134Y-0.1673
X0.4134Y-0.2067
X0.4134Y-0.2461
X0.4134Y-0.2854
X0.4134Y-0.3248
X0.4134Y-1.1909
X0.4134Y-1.2303
X0.4134Y-1.2697
X0.4252Y-1.315
X0.4331Y-0.437
X0.4331Y-0.5118
X0.4331Y-0.7972
X0.4331Y-0.876
X0.4331Y-1.2106
X0.4331Y-1.25
X0.4528Y-0.128
X0.4528Y-0.1673
X0.4528Y-0.2067
X0.4528Y-0.2461
X0.4528Y-0.2854
X0.4528Y-1.2303
X0.4528Y-1.2697
X0.4626Y-0.437
X0.4626Y-0.5118
X0.4626Y-0.7972
X0.4626Y-0.876
X0.4724Y-1.25
X0.4882Y-1.3465
X0.4921Y-0.128
X0.4921Y-0.1673
X0.4921Y-0.2067
X0.4921Y-0.2461
X0.4921Y-1.1614
X0.4921Y-1.2697
X0.521Y-0.1377
X0.5315Y-0.8465
X0.5315Y-0.8858
X0.5413Y-0.1929
X0.5413Y-0.2323
X0.5413Y-0.4744
X0.5413Y-0.5138
X0.5413Y-1.1988
X0.5413Y-1.2382
X0.5416Y-0.1594
X0.5453Y-0.438
X0.5453Y-0.8002
X0.5453Y-1.1624
X0.5512Y-0.8661
X0.5512Y-0.9055
X0.561Y-0.1732
X0.561Y-0.2126
X0.561Y-0.4941
X0.561Y-0.5335
X0.561Y-1.2185
X0.561Y-1.2579
X0.5709Y-0.8465
X0.5709Y-0.8858
X0.5807Y-0.1535
X0.5807Y-0.1929
X0.5807Y-0.2323
X0.5807Y-0.2776
X0.5807Y-0.3169
X0.5807Y-0.435
X0.5807Y-0.4744
X0.5807Y-0.5138
X0.5807Y-0.6398
X0.5807Y-0.6791
X0.5807Y-1.002
X0.5807Y-1.0413
X0.5807Y-1.1594
X0.5807Y-1.1988
X0.5807Y-1.2382
X0.5906Y-0.8268
X0.5906Y-0.8661
X0.5906Y-0.9055
X0.6004Y-0.1339
X0.6004Y-0.1732
X0.6004Y-0.2126
X0.6004Y-0.2972
X0.6004Y-0.3366
X0.6004Y-0.4154
X0.6004Y-0.4547
X0.6004Y-0.4941
X0.6004Y-0.5335
X0.6004Y-0.6594
X0.6004Y-0.6988
X0.6004Y-1.0217
X0.6004Y-1.061
X0.6004Y-1.1398
X0.6004Y-1.1791
X0.6004Y-1.2185
X0.6004Y-1.2579
X0.6102Y-0.8071
X0.6102Y-0.8465
X0.6102Y-0.8858
X0.6181Y-0.2323
X0.6201Y-0.1535
X0.6201Y-0.1929
X0.6201Y-0.2776
X0.6201Y-0.3169
X0.6201Y-0.435
X0.6201Y-0.4744
X0.6201Y-0.5138
X0.6201Y-0.6398
X0.6201Y-0.6791
X0.6201Y-1.002
X0.6201Y-1.0413
X0.6201Y-1.1594
X0.6201Y-1.1988
X0.6201Y-1.2382
X0.622Y-1.3465
X0.6299Y-0.8268
X0.6299Y-0.8661
X0.6299Y-0.9055
X0.6398Y-0.1339
X0.6398Y-0.1732
X0.6398Y-0.2972
X0.6398Y-0.3366
X0.6398Y-0.376
X0.6398Y-0.4154
X0.6398Y-0.4547
X0.6398Y-0.4941
X0.6398Y-0.5335
X0.6398Y-0.6594
X0.6398Y-0.6988
X0.6398Y-0.7283
X0.6398Y-1.0217
X0.6398Y-1.061
X0.6398Y-1.1004
X0.6398Y-1.1398
X0.6398Y-1.1791
X0.6398Y-1.2185
X0.6398Y-1.2579
X0.6496Y-0.8071
X0.6496Y-0.8465
X0.6496Y-0.8858
X0.6594Y-0.1535
X0.6594Y-0.2776
X0.6594Y-0.3169
X0.6594Y-0.3563
X0.6594Y-0.3957
X0.6594Y-0.435
X0.6594Y-0.4744
X0.6594Y-0.5138
X0.6594Y-0.6398
X0.6594Y-0.6791
X0.6594Y-1.002
X0.6594Y-1.0413
X0.6594Y-1.0807
X0.6594Y-1.1201
X0.6594Y-1.1594
X0.6594Y-1.1988
X0.6594Y-1.2382
X0.6654Y-0.185
X0.6693Y-0.8268
X0.6693Y-0.8661
X0.6693Y-0.9055
X0.6762Y-0.2107
X0.6791Y-0.2461
X0.6791Y-0.3366
X0.6791Y-0.376
X0.6791Y-0.4154
X0.6791Y-0.4547
X0.6791Y-0.4941
X0.6791Y-0.5335
X0.6791Y-0.6988
X0.6791Y-0.7283
X0.6791Y-1.061
X0.6791Y-1.1004
X0.6791Y-1.1398
X0.6791Y-1.1791
X0.6791Y-1.2185
X0.6791Y-1.2579
X0.689Y-0.8071
X0.689Y-0.8465
X0.689Y-0.8858
X0.698Y-0.9804
X0.6988Y-0.435
X0.6988Y-0.4744
X0.6988Y-0.5138
X0.6988Y-1.1594
X0.6988Y-1.1988
X0.6988Y-1.2382
X0.7087Y-0.8268
X0.7087Y-0.8661
X0.7087Y-0.9055
X0.7126Y-0.2715
X0.7185Y-0.4154
X0.7185Y-0.4547
X0.7185Y-0.4941
X0.7185Y-0.5335
X0.7185Y-1.1398
X0.7185Y-1.1791
X0.7185Y-1.2185
X0.7185Y-1.2579
X0.7237Y-1.0222
X0.7261Y-0.9779
X0.7283Y-0.0886
X0.7283Y-0.8071
X0.7283Y-0.8465
X0.7283Y-0.8858
X0.7361Y-0.6193
X0.7375Y-0.3075
X0.7382Y-0.435
X0.7382Y-0.4744
X0.7382Y-0.5138
X0.7382Y-1.1594
X0.7382Y-1.1988
X0.7382Y-1.2382
X0.748Y-0.2461
X0.748Y-0.8268
X0.748Y-0.8661
X0.748Y-0.9055
X0.7561Y-0.609
X0.7579Y-1.3386
X0.7689Y-1.0605
X0.7749Y-0.0886
X0.7941Y-0.4384
X0.7987Y-0.801
X0.8029Y-1.1624
X0.8169Y-0.0886
X0.8189Y-0.9252
X0.8194Y-0.9512
X0.8274Y-0.2256
X0.8307Y-0.2716
X0.8496Y-0.9419
X0.8694Y-0.1049
X0.8747Y-0.5991
X0.8755Y-0.2722
X0.876Y-0.1476
X0.8951Y-1.1769
X0.8957Y-1.3386
X0.8958Y-0.5796
X0.8973Y-1.104
X0.8976Y-0.4335
X0.899Y-0.3453
X0.9001Y-0.9467
X0.9044Y-1.269
X0.9051Y-0.7122
X0.9055Y-0.672
X0.9055Y-1.2303
X0.9064Y-0.7549
X0.9074Y-0.8067
X0.9154Y-0.0886
X0.9165Y-0.5947
X0.9172Y-0.5643
X0.9277Y-0.1485
X0.9279Y-1.2187
X0.931Y-1.2485
X0.9342Y-0.4644
X0.935Y-0.2067
X0.9357Y-0.9212
X0.9358Y-0.6512
X0.9398Y-0.9945
X0.9454Y-0.8125
X0.9468Y-0.3862
X0.9491Y-0.5162
X0.9494Y-0.3219
X0.9574Y-0.9073
X0.9587Y-0.7097
X0.9589Y-0.6677
X0.9596Y-0.7548
X0.9599Y-1.2723
X0.9611Y-0.9739
X0.9617Y-1.2287
X0.9631Y-1.1327
X0.9646Y-1.0827
X0.9646Y-1.1811
X0.9686Y-1.3064
X0.9715Y-0.4307
X0.9744Y-0.1073
X0.981Y-1.1585
X0.9816Y-1.2501
X0.9828Y-1.1069
X0.9835Y-0.4893
X0.9843Y-0.1575
X0.9855Y-0.3471
X1.0021Y-1.0813
X1.0023Y-0.6697
X1.0027Y-0.7091
X1.0032Y-1.1323
X1.0035Y-1.2303
X1.0036Y-1.181
X1.0038Y-0.7944
X1.0044Y-0.7531
X1.006Y-1.2699
X1.0131Y-0.3877
X1.0213Y-1.1564
X1.0228Y-0.459
X1.0236Y-0.0886
X1.0249Y-1.1039
X1.0259Y-1.2488
X1.0295Y-0.8178
X1.0433Y-1.1811
X1.0433Y-1.2303
X1.0433Y-1.3386
X1.0433Y-1.0802
X1.0439Y-1.2702
X1.0446Y-0.1887
X1.0452Y-1.1342
X1.0478Y-0.6695
X1.048Y-0.7908
X1.0484Y-0.708
X1.0485Y-0.7518
X1.0498Y-1.0318
X1.0509Y-0.3561
X1.0511Y-0.1385
X1.0585Y-0.4143
X1.0614Y-1.1564
X1.0623Y-1.1039
X1.0632Y-1.2482
X1.0782Y-0.8433
X1.0785Y-0.8727
X1.0812Y-0.5516
X1.0814Y-1.1803
X1.0817Y-1.1344
X1.0817Y-1.2317
X1.0819Y-1.0802
X1.0831Y-1.2699
X1.0925Y-0.1575
X1.0948Y-0.8926
X1.0957Y-0.8585
X1.1018Y-0.3018
X1.102Y-0.5103
X1.1037Y-0.3553
X1.1052Y-0.2255
X1.1054Y-1.1045
X1.1056Y-0.4064
X1.1057Y-1.2516
X1.106Y-1.1597
X1.109Y-1.2043
X1.1122Y-0.0394
X1.1128Y-0.8431
X1.113Y-0.8744
X1.1132Y-0.9772
X1.1137Y-0.9114
X1.1158Y-0.4635
X1.1287Y-1.0797
X1.1289Y-1.2317
X1.1292Y-1.2742
X1.1298Y-1.1795
X1.1298Y-0.5516
X1.1303Y-1.1344
X1.1316Y-0.8583
X1.1322Y-0.8928
X1.1322Y-0.9279
X1.1335Y-0.6687
X1.1417Y-1.0138
X1.1456Y-0.3553
X1.1476Y-0.5103
X1.1486Y-0.8426
X1.1487Y-0.875
X1.1488Y-0.4627
X1.1489Y-0.3055
X1.15Y-0.9114
X1.1531Y-0.2731
X1.1537Y-1.1029
X1.1545Y-1.2051
X1.1549Y-1.1605
X1.1553Y-1.2541
X1.1574Y-0.9545
X1.1614Y-0.2264
X1.1635Y-0.9314
X1.1673Y-0.6667
X1.1713Y-0.0689
X1.1779Y-0.3098
X1.1785Y-0.4552
X1.179Y-0.5103
X1.1804Y-0.4082
X1.1811Y-0.1181
X1.1811Y-1.3386
X1.1815Y-0.5516
X1.1862Y-0.9526
X1.1879Y-0.9974
X1.1909Y-1.0728
X1.1909Y-1.2008
X1.1963Y-0.6235
X1.2015Y-0.2525
X1.2073Y-0.7574
X1.2075Y-0.8073
X1.2076Y-0.6578
X1.2079Y-0.7074
X1.2106Y-0.0394
X1.2303Y-1.0138
X1.2598Y-0.1969
X1.2598Y-1.1496
X1.2698Y-1.0745
X1.2762Y-0.9661
X1.2992Y-0.0492
X1.2992Y-1.0157
X1.3091Y-1.3189
X1.316Y-0.413
X1.3189Y-0.2067
X1.3261Y-0.9379
X1.3386Y-0.1575
X1.3386Y-0.9744
X1.3386Y-1.0728
X1.3386Y-1.1811
X1.3391Y-0.4478
X1.3421Y-0.3374
X1.3451Y-0.235
X1.3464Y-0.486
T2
X0.4134Y-0.0433
X0.4921Y-0.0433
X0.622Y-0.0433
X0.7008Y-0.0433
T3
X1.2344Y-0.2825
X1.2344Y-0.3325
X1.2344Y-0.3825
X1.2344Y-0.4325
X1.2344Y-0.4825
X1.2344Y-0.5325
X1.2344Y-0.5825
X1.2344Y-0.6325
X1.2344Y-0.6825
X1.2344Y-0.7325
X1.2344Y-0.7825
X1.2344Y-0.8325
X1.2344Y-0.8825
X1.2844Y-0.2825
X1.2844Y-0.3325
X1.2844Y-0.3825
X1.2844Y-0.4325
X1.2844Y-0.4825
X1.2844Y-0.5325
X1.2844Y-0.5825
X1.2844Y-0.6325
X1.2844Y-0.6825
X1.2844Y-0.7325
X1.2844Y-0.7825
X1.2844Y-0.8325
X1.2844Y-0.8825
T4
X0.2736Y-0.7677
X0.2736Y-0.8661
X0.2736Y-0.9646
X0.9311Y-0.2697
X1.0295Y-0.2697
M30
