%TF.GenerationSoftware,KiCad,Pcbnew,7.0.11*%
%TF.CreationDate,2024-11-13T01:10:25+09:00*%
%TF.ProjectId,MD,4d442e6b-6963-4616-945f-706362585858,rev?*%
%TF.SameCoordinates,Original*%
%TF.FileFunction,Paste,Bot*%
%TF.FilePolarity,Positive*%
%FSLAX46Y46*%
G04 Gerber Fmt 4.6, Leading zero omitted, Abs format (unit mm)*
G04 Created by KiCad (PCBNEW 7.0.11) date 2024-11-13 01:10:25*
%MOMM*%
%LPD*%
G01*
G04 APERTURE LIST*
G04 Aperture macros list*
%AMRoundRect*
0 Rectangle with rounded corners*
0 $1 Rounding radius*
0 $2 $3 $4 $5 $6 $7 $8 $9 X,Y pos of 4 corners*
0 Add a 4 corners polygon primitive as box body*
4,1,4,$2,$3,$4,$5,$6,$7,$8,$9,$2,$3,0*
0 Add four circle primitives for the rounded corners*
1,1,$1+$1,$2,$3*
1,1,$1+$1,$4,$5*
1,1,$1+$1,$6,$7*
1,1,$1+$1,$8,$9*
0 Add four rect primitives between the rounded corners*
20,1,$1+$1,$2,$3,$4,$5,0*
20,1,$1+$1,$4,$5,$6,$7,0*
20,1,$1+$1,$6,$7,$8,$9,0*
20,1,$1+$1,$8,$9,$2,$3,0*%
G04 Aperture macros list end*
%ADD10RoundRect,0.140000X0.170000X-0.140000X0.170000X0.140000X-0.170000X0.140000X-0.170000X-0.140000X0*%
%ADD11RoundRect,0.135000X-0.185000X0.135000X-0.185000X-0.135000X0.185000X-0.135000X0.185000X0.135000X0*%
%ADD12RoundRect,0.250000X-0.650000X0.325000X-0.650000X-0.325000X0.650000X-0.325000X0.650000X0.325000X0*%
%ADD13RoundRect,0.135000X0.135000X0.185000X-0.135000X0.185000X-0.135000X-0.185000X0.135000X-0.185000X0*%
%ADD14RoundRect,0.150000X0.150000X-0.587500X0.150000X0.587500X-0.150000X0.587500X-0.150000X-0.587500X0*%
%ADD15RoundRect,0.135000X-0.135000X-0.185000X0.135000X-0.185000X0.135000X0.185000X-0.135000X0.185000X0*%
%ADD16RoundRect,0.225000X0.250000X-0.225000X0.250000X0.225000X-0.250000X0.225000X-0.250000X-0.225000X0*%
%ADD17RoundRect,0.237500X-0.287500X-0.237500X0.287500X-0.237500X0.287500X0.237500X-0.287500X0.237500X0*%
%ADD18RoundRect,0.135000X0.185000X-0.135000X0.185000X0.135000X-0.185000X0.135000X-0.185000X-0.135000X0*%
%ADD19RoundRect,0.140000X-0.170000X0.140000X-0.170000X-0.140000X0.170000X-0.140000X0.170000X0.140000X0*%
%ADD20RoundRect,0.250000X-0.250000X0.250000X-0.250000X-0.250000X0.250000X-0.250000X0.250000X0.250000X0*%
%ADD21RoundRect,0.140000X0.140000X0.170000X-0.140000X0.170000X-0.140000X-0.170000X0.140000X-0.170000X0*%
%ADD22RoundRect,0.135000X-0.035355X0.226274X-0.226274X0.035355X0.035355X-0.226274X0.226274X-0.035355X0*%
%ADD23O,0.230000X1.210000*%
%ADD24O,1.210000X0.230000*%
G04 APERTURE END LIST*
%TO.C,U6*%
G36*
X23732987Y-21000821D02*
G01*
X22562987Y-21000821D01*
X22562987Y-19830821D01*
X23732987Y-19830821D01*
X23732987Y-21000821D01*
G37*
G36*
X25102987Y-21000821D02*
G01*
X23932987Y-21000821D01*
X23932987Y-19830821D01*
X25102987Y-19830821D01*
X25102987Y-21000821D01*
G37*
G36*
X26472987Y-21000821D02*
G01*
X25302987Y-21000821D01*
X25302987Y-19830821D01*
X26472987Y-19830821D01*
X26472987Y-21000821D01*
G37*
G36*
X23732987Y-19630821D02*
G01*
X22562987Y-19630821D01*
X22562987Y-18460821D01*
X23732987Y-18460821D01*
X23732987Y-19630821D01*
G37*
G36*
X25102987Y-19630821D02*
G01*
X23932987Y-19630821D01*
X23932987Y-18460821D01*
X25102987Y-18460821D01*
X25102987Y-19630821D01*
G37*
G36*
X26472987Y-19630821D02*
G01*
X25302987Y-19630821D01*
X25302987Y-18460821D01*
X26472987Y-18460821D01*
X26472987Y-19630821D01*
G37*
G36*
X23732987Y-18260821D02*
G01*
X22562987Y-18260821D01*
X22562987Y-17090821D01*
X23732987Y-17090821D01*
X23732987Y-18260821D01*
G37*
G36*
X25102987Y-18260821D02*
G01*
X23932987Y-18260821D01*
X23932987Y-17090821D01*
X25102987Y-17090821D01*
X25102987Y-18260821D01*
G37*
G36*
X26472987Y-18260821D02*
G01*
X25302987Y-18260821D01*
X25302987Y-17090821D01*
X26472987Y-17090821D01*
X26472987Y-18260821D01*
G37*
%TD*%
D10*
%TO.C,C26*%
X29046592Y-17711952D03*
X29046592Y-16751952D03*
%TD*%
D11*
%TO.C,R1*%
X34172320Y-14149096D03*
X34172320Y-15169096D03*
%TD*%
D12*
%TO.C,C23*%
X24186288Y-26387049D03*
X24186288Y-29337049D03*
%TD*%
D13*
%TO.C,R29*%
X7367926Y-4622934D03*
X6347926Y-4622934D03*
%TD*%
D14*
%TO.C,Q5*%
X7028896Y-8058847D03*
X5128896Y-8058847D03*
X6078896Y-6183847D03*
%TD*%
D15*
%TO.C,R26*%
X6489069Y-1419813D03*
X7509069Y-1419813D03*
%TD*%
D16*
%TO.C,C28*%
X27376853Y-25255142D03*
X27376853Y-23705142D03*
%TD*%
D17*
%TO.C,D22*%
X1125000Y-8000000D03*
X2875000Y-8000000D03*
%TD*%
D11*
%TO.C,R28*%
X6523448Y-2550501D03*
X6523448Y-3570501D03*
%TD*%
D18*
%TO.C,R72*%
X5713895Y-10526175D03*
X5713895Y-9506175D03*
%TD*%
D19*
%TO.C,C1*%
X34159743Y-16216675D03*
X34159743Y-17176675D03*
%TD*%
D17*
%TO.C,D20*%
X1120288Y-11196083D03*
X2870288Y-11196083D03*
%TD*%
D11*
%TO.C,R24*%
X7597912Y-2552780D03*
X7597912Y-3572780D03*
%TD*%
D20*
%TO.C,D5*%
X19559617Y-25676490D03*
X19559617Y-28176490D03*
%TD*%
D10*
%TO.C,C29*%
X24032631Y-14265961D03*
X24032631Y-13305961D03*
%TD*%
D13*
%TO.C,R75*%
X7165288Y-11523492D03*
X6145288Y-11523492D03*
%TD*%
D18*
%TO.C,R30*%
X18033291Y-27011083D03*
X18033291Y-25991083D03*
%TD*%
D17*
%TO.C,D21*%
X1120288Y-9598472D03*
X2870288Y-9598472D03*
%TD*%
D13*
%TO.C,R69*%
X5210000Y-11500000D03*
X4190000Y-11500000D03*
%TD*%
D12*
%TO.C,C24*%
X21788621Y-26387049D03*
X21788621Y-29337049D03*
%TD*%
D19*
%TO.C,C25*%
X25921593Y-25487339D03*
X25921593Y-26447339D03*
%TD*%
D11*
%TO.C,R4*%
X7046543Y-9527803D03*
X7046543Y-10547803D03*
%TD*%
D13*
%TO.C,R18*%
X3857439Y-6639825D03*
X2837439Y-6639825D03*
%TD*%
D21*
%TO.C,C14*%
X1869679Y-6646407D03*
X909679Y-6646407D03*
%TD*%
D13*
%TO.C,R19*%
X6706336Y-12581390D03*
X5686336Y-12581390D03*
%TD*%
D22*
%TO.C,R2*%
X25857881Y-12480947D03*
X25136633Y-13202195D03*
%TD*%
D23*
%TO.C,U6*%
X26767988Y-22250821D03*
X26267989Y-22250821D03*
X25767987Y-22250821D03*
X25267988Y-22250821D03*
X24767987Y-22250821D03*
X24267987Y-22250821D03*
X23767989Y-22250821D03*
X23267987Y-22250821D03*
X22767988Y-22250821D03*
X22267986Y-22250821D03*
D24*
X21312987Y-21295822D03*
X21312987Y-20795823D03*
X21312987Y-20295821D03*
X21312987Y-19795822D03*
X21312987Y-19295821D03*
X21312987Y-18795821D03*
X21312987Y-18295823D03*
X21312987Y-17795821D03*
X21312987Y-17295822D03*
X21312987Y-16795820D03*
D23*
X22267986Y-15840821D03*
X22767988Y-15840821D03*
X23267987Y-15840821D03*
X23767989Y-15840821D03*
X24267987Y-15840821D03*
X24767987Y-15840821D03*
X25267988Y-15840821D03*
X25767987Y-15840821D03*
X26267989Y-15840821D03*
X26767988Y-15840821D03*
D24*
X27722987Y-16795820D03*
X27722987Y-17295822D03*
X27722987Y-17795821D03*
X27722987Y-18295823D03*
X27722987Y-18795821D03*
X27722987Y-19295821D03*
X27722987Y-19795822D03*
X27722987Y-20295821D03*
X27722987Y-20795823D03*
X27722987Y-21295822D03*
%TD*%
D10*
%TO.C,C27*%
X25926688Y-24491447D03*
X25926688Y-23531447D03*
%TD*%
D11*
%TO.C,R3*%
X30165448Y-25495071D03*
X30165448Y-26515071D03*
%TD*%
M02*
