%TF.GenerationSoftware,KiCad,Pcbnew,7.0.11*%
%TF.CreationDate,2024-11-13T01:10:25+09:00*%
%TF.ProjectId,MD,4d442e6b-6963-4616-945f-706362585858,rev?*%
%TF.SameCoordinates,Original*%
%TF.FileFunction,Legend,Top*%
%TF.FilePolarity,Positive*%
%FSLAX46Y46*%
G04 Gerber Fmt 4.6, Leading zero omitted, Abs format (unit mm)*
G04 Created by KiCad (PCBNEW 7.0.11) date 2024-11-13 01:10:25*
%MOMM*%
%LPD*%
G01*
G04 APERTURE LIST*
G04 Aperture macros list*
%AMRoundRect*
0 Rectangle with rounded corners*
0 $1 Rounding radius*
0 $2 $3 $4 $5 $6 $7 $8 $9 X,Y pos of 4 corners*
0 Add a 4 corners polygon primitive as box body*
4,1,4,$2,$3,$4,$5,$6,$7,$8,$9,$2,$3,0*
0 Add four circle primitives for the rounded corners*
1,1,$1+$1,$2,$3*
1,1,$1+$1,$4,$5*
1,1,$1+$1,$6,$7*
1,1,$1+$1,$8,$9*
0 Add four rect primitives between the rounded corners*
20,1,$1+$1,$2,$3,$4,$5,0*
20,1,$1+$1,$4,$5,$6,$7,0*
20,1,$1+$1,$6,$7,$8,$9,0*
20,1,$1+$1,$8,$9,$2,$3,0*%
G04 Aperture macros list end*
%ADD10C,0.260000*%
%ADD11C,0.120000*%
%ADD12C,0.100000*%
%ADD13C,0.160000*%
%ADD14RoundRect,0.250000X0.362500X1.425000X-0.362500X1.425000X-0.362500X-1.425000X0.362500X-1.425000X0*%
%ADD15RoundRect,0.225000X0.225000X0.250000X-0.225000X0.250000X-0.225000X-0.250000X0.225000X-0.250000X0*%
%ADD16RoundRect,0.225000X-0.225000X-0.375000X0.225000X-0.375000X0.225000X0.375000X-0.225000X0.375000X0*%
%ADD17RoundRect,0.225000X0.250000X-0.225000X0.250000X0.225000X-0.250000X0.225000X-0.250000X-0.225000X0*%
%ADD18RoundRect,0.200000X0.200000X0.275000X-0.200000X0.275000X-0.200000X-0.275000X0.200000X-0.275000X0*%
%ADD19R,0.900000X0.400000*%
%ADD20R,0.900000X0.375000*%
%ADD21R,0.700000X0.400000*%
%ADD22R,2.200000X2.650000*%
%ADD23R,0.700000X0.375000*%
%ADD24RoundRect,0.237500X-0.237500X0.287500X-0.237500X-0.287500X0.237500X-0.287500X0.237500X0.287500X0*%
%ADD25C,0.900000*%
%ADD26R,1.500000X0.700000*%
%ADD27R,0.800000X1.000000*%
%ADD28RoundRect,0.250000X-0.675000X0.600000X-0.675000X-0.600000X0.675000X-0.600000X0.675000X0.600000X0*%
%ADD29O,1.850000X1.700000*%
%ADD30RoundRect,0.250000X0.600000X0.675000X-0.600000X0.675000X-0.600000X-0.675000X0.600000X-0.675000X0*%
%ADD31O,1.700000X1.850000*%
%ADD32C,1.200000*%
%ADD33R,1.000000X1.000000*%
%ADD34O,1.000000X1.000000*%
G04 APERTURE END LIST*
D10*
X31359523Y-26149194D02*
X32807142Y-26149194D01*
X31178571Y-27777765D02*
X33169047Y-27777765D01*
X30635714Y-29044432D02*
X33530952Y-29044432D01*
X31178571Y-26873003D02*
X31178571Y-27777765D01*
X31178571Y-26873003D02*
X33169047Y-26873003D01*
X33169047Y-26873003D02*
X33169047Y-27777765D01*
X29911904Y-24882527D02*
X29911904Y-27596813D01*
X29911904Y-27596813D02*
X30635714Y-28320622D01*
X32445238Y-25425384D02*
X33530952Y-26511099D01*
X33530952Y-25425384D02*
X32807142Y-25787289D01*
X30997618Y-25425384D02*
X31359523Y-25787289D01*
X31359523Y-25787289D02*
X30454761Y-26692051D01*
X32988095Y-24882527D02*
X32445238Y-25425384D01*
X31540476Y-28139670D02*
X31540476Y-28682527D01*
X32264285Y-24701575D02*
X32626190Y-25787289D01*
X32807142Y-27958718D02*
X32445238Y-28682527D01*
X30454761Y-25606337D02*
X30092857Y-26330146D01*
X29730952Y-27596813D02*
X29188095Y-29044432D01*
X30816666Y-25063480D02*
X31902380Y-24882527D01*
X31902380Y-24882527D02*
X31359523Y-25968241D01*
X29369047Y-25787289D02*
X29007142Y-26692051D01*
X29911904Y-26692051D02*
X29549999Y-28501575D01*
D11*
%TO.C,R61*%
X26677064Y-23110000D02*
X22322936Y-23110000D01*
X26677064Y-19690000D02*
X22322936Y-19690000D01*
%TO.C,C41*%
X20640580Y-10010000D02*
X20359420Y-10010000D01*
X20640580Y-8990000D02*
X20359420Y-8990000D01*
%TO.C,C38*%
X20640580Y-19210000D02*
X20359420Y-19210000D01*
X20640580Y-18190000D02*
X20359420Y-18190000D01*
%TO.C,D18*%
X11040000Y-6500000D02*
X11040000Y-8500000D01*
X11040000Y-6500000D02*
X15050000Y-6500000D01*
X11040000Y-8500000D02*
X15050000Y-8500000D01*
%TO.C,C40*%
X14690000Y-10440580D02*
X14690000Y-10159420D01*
X15710000Y-10440580D02*
X15710000Y-10159420D01*
%TO.C,R67*%
X13137258Y-28422500D02*
X12662742Y-28422500D01*
X13137258Y-27377500D02*
X12662742Y-27377500D01*
%TO.C,R68*%
X17737258Y-28422500D02*
X17262742Y-28422500D01*
X17737258Y-27377500D02*
X17262742Y-27377500D01*
D12*
%TO.C,Q12*%
X16630000Y-13650000D02*
X20400000Y-13650000D01*
X16630000Y-10550000D02*
X19824000Y-10550000D01*
D13*
X20380000Y-13600000D02*
G75*
G03*
X20220000Y-13600000I-80000J0D01*
G01*
X20220000Y-13600000D02*
G75*
G03*
X20380000Y-13600000I80000J0D01*
G01*
D12*
%TO.C,Q10*%
X10430000Y-32050000D02*
X14200000Y-32050000D01*
X10430000Y-28950000D02*
X13624000Y-28950000D01*
D13*
X14180000Y-32000000D02*
G75*
G03*
X14020000Y-32000000I-80000J0D01*
G01*
X14020000Y-32000000D02*
G75*
G03*
X14180000Y-32000000I80000J0D01*
G01*
D11*
%TO.C,C37*%
X14690000Y-19640580D02*
X14690000Y-19359420D01*
X15710000Y-19640580D02*
X15710000Y-19359420D01*
%TO.C,R66*%
X26677064Y-13910000D02*
X22322936Y-13910000D01*
X26677064Y-10490000D02*
X22322936Y-10490000D01*
%TO.C,D17*%
X15840000Y-15700000D02*
X15840000Y-17700000D01*
X15840000Y-15700000D02*
X19850000Y-15700000D01*
X15840000Y-17700000D02*
X19850000Y-17700000D01*
%TO.C,D1*%
X34748195Y-8840000D02*
X33278195Y-8840000D01*
X33278195Y-8840000D02*
X33278195Y-11300000D01*
X34748195Y-11300000D02*
X34748195Y-8840000D01*
%TO.C,R73*%
X13137258Y-10022500D02*
X12662742Y-10022500D01*
X13137258Y-8977500D02*
X12662742Y-8977500D01*
D12*
%TO.C,SW4*%
X7950000Y-9050000D02*
X7950000Y-9950000D01*
X950000Y-9950000D02*
X950000Y-9100000D01*
X5200000Y-15100000D02*
X5200000Y-15100000D01*
X5200000Y-15100000D02*
X3700000Y-15100000D01*
X3700000Y-15100000D02*
X5200000Y-15100000D01*
X3700000Y-15100000D02*
X3700000Y-15100000D01*
X7950000Y-7550000D02*
X950000Y-7550000D01*
X950000Y-7550000D02*
X950000Y-7050000D01*
X950000Y-7050000D02*
X7950000Y-7050000D01*
X7950000Y-7050000D02*
X7950000Y-7550000D01*
G36*
X7950000Y-7550000D02*
G01*
X950000Y-7550000D01*
X950000Y-7050000D01*
X7950000Y-7050000D01*
X7950000Y-7550000D01*
G37*
X7950000Y-11750000D02*
X6250000Y-11750000D01*
X6250000Y-10050000D01*
X7800000Y-10050000D01*
X7950000Y-9900000D01*
X7950000Y-11750000D01*
G36*
X7950000Y-11750000D02*
G01*
X6250000Y-11750000D01*
X6250000Y-10050000D01*
X7800000Y-10050000D01*
X7950000Y-9900000D01*
X7950000Y-11750000D01*
G37*
X1100000Y-10050000D02*
X2650000Y-10050000D01*
X2650000Y-11750000D01*
X950000Y-11750000D01*
X950000Y-9950000D01*
X1100000Y-10050000D01*
G36*
X1100000Y-10050000D02*
G01*
X2650000Y-10050000D01*
X2650000Y-11750000D01*
X950000Y-11750000D01*
X950000Y-9950000D01*
X1100000Y-10050000D01*
G37*
X7950000Y-9100000D02*
X7800000Y-8950000D01*
X6900000Y-8950000D01*
X6900000Y-7700000D01*
X6650000Y-7450000D01*
X7950000Y-7450000D01*
X7950000Y-9100000D01*
G36*
X7950000Y-9100000D02*
G01*
X7800000Y-8950000D01*
X6900000Y-8950000D01*
X6900000Y-7700000D01*
X6650000Y-7450000D01*
X7950000Y-7450000D01*
X7950000Y-9100000D01*
G37*
X5700000Y-7700000D02*
X5700000Y-8750000D01*
X3200000Y-8750000D01*
X3200000Y-7700000D01*
X3050000Y-7550000D01*
X5850000Y-7550000D01*
X5700000Y-7700000D01*
G36*
X5700000Y-7700000D02*
G01*
X5700000Y-8750000D01*
X3200000Y-8750000D01*
X3200000Y-7700000D01*
X3050000Y-7550000D01*
X5850000Y-7550000D01*
X5700000Y-7700000D01*
G37*
X2000000Y-7700000D02*
X2000000Y-8950000D01*
X1100000Y-8950000D01*
X950000Y-9100000D01*
X950000Y-7550000D01*
X2150000Y-7550000D01*
X2000000Y-7700000D01*
G36*
X2000000Y-7700000D02*
G01*
X2000000Y-8950000D01*
X1100000Y-8950000D01*
X950000Y-9100000D01*
X950000Y-7550000D01*
X2150000Y-7550000D01*
X2000000Y-7700000D01*
G37*
D11*
%TO.C,D15*%
X15840000Y-24900000D02*
X15840000Y-26900000D01*
X15840000Y-24900000D02*
X19850000Y-24900000D01*
X15840000Y-26900000D02*
X19850000Y-26900000D01*
%TO.C,J6*%
X8660000Y-16640000D02*
X8660000Y-19050000D01*
X6250000Y-16640000D02*
X8660000Y-16640000D01*
X8360000Y-16940000D02*
X240000Y-16940000D01*
X240000Y-16940000D02*
X240000Y-27060000D01*
X8360000Y-27060000D02*
X8360000Y-16940000D01*
X240000Y-27060000D02*
X8360000Y-27060000D01*
D12*
%TO.C,Q6*%
X10430000Y-5950000D02*
X14200000Y-5950000D01*
X10430000Y-2850000D02*
X13624000Y-2850000D01*
D13*
X14180000Y-5900000D02*
G75*
G03*
X14020000Y-5900000I-80000J0D01*
G01*
X14020000Y-5900000D02*
G75*
G03*
X14180000Y-5900000I80000J0D01*
G01*
D12*
%TO.C,Q9*%
X10430000Y-22850000D02*
X14200000Y-22850000D01*
X10430000Y-19750000D02*
X13624000Y-19750000D01*
D13*
X14180000Y-22800000D02*
G75*
G03*
X14020000Y-22800000I-80000J0D01*
G01*
X14020000Y-22800000D02*
G75*
G03*
X14180000Y-22800000I80000J0D01*
G01*
D11*
%TO.C,C34*%
X20640580Y-28410000D02*
X20359420Y-28410000D01*
X20640580Y-27390000D02*
X20359420Y-27390000D01*
%TO.C,C33*%
X14690000Y-28840580D02*
X14690000Y-28559420D01*
X15710000Y-28840580D02*
X15710000Y-28559420D01*
D12*
%TO.C,Q8*%
X16630000Y-22850000D02*
X20400000Y-22850000D01*
X16630000Y-19750000D02*
X19824000Y-19750000D01*
D13*
X20380000Y-22800000D02*
G75*
G03*
X20220000Y-22800000I-80000J0D01*
G01*
X20220000Y-22800000D02*
G75*
G03*
X20380000Y-22800000I80000J0D01*
G01*
D11*
%TO.C,C35*%
X19240580Y-33610000D02*
X18959420Y-33610000D01*
X19240580Y-32590000D02*
X18959420Y-32590000D01*
%TO.C,D16*%
X11040000Y-15700000D02*
X11040000Y-17700000D01*
X11040000Y-15700000D02*
X15050000Y-15700000D01*
X11040000Y-17700000D02*
X15050000Y-17700000D01*
%TO.C,R74*%
X17737258Y-10022500D02*
X17262742Y-10022500D01*
X17737258Y-8977500D02*
X17262742Y-8977500D01*
%TO.C,R70*%
X13137258Y-19222500D02*
X12662742Y-19222500D01*
X13137258Y-18177500D02*
X12662742Y-18177500D01*
%TO.C,D19*%
X15840000Y-6500000D02*
X15840000Y-8500000D01*
X15840000Y-6500000D02*
X19850000Y-6500000D01*
X15840000Y-8500000D02*
X19850000Y-8500000D01*
%TO.C,D14*%
X11040000Y-24900000D02*
X11040000Y-26900000D01*
X11040000Y-24900000D02*
X15050000Y-24900000D01*
X11040000Y-26900000D02*
X15050000Y-26900000D01*
%TO.C,R56*%
X26677064Y-32310000D02*
X22322936Y-32310000D01*
X26677064Y-28890000D02*
X22322936Y-28890000D01*
%TO.C,C39*%
X19240580Y-15210000D02*
X18959420Y-15210000D01*
X19240580Y-14190000D02*
X18959420Y-14190000D01*
D12*
%TO.C,Q11*%
X10430000Y-13650000D02*
X14200000Y-13650000D01*
X10430000Y-10550000D02*
X13624000Y-10550000D01*
D13*
X14180000Y-13600000D02*
G75*
G03*
X14020000Y-13600000I-80000J0D01*
G01*
X14020000Y-13600000D02*
G75*
G03*
X14180000Y-13600000I80000J0D01*
G01*
D11*
%TO.C,J5*%
X29010000Y-8560000D02*
X26600000Y-8560000D01*
X29010000Y-6150000D02*
X29010000Y-8560000D01*
X28710000Y-8260000D02*
X28710000Y-140000D01*
X28710000Y-140000D02*
X21090000Y-140000D01*
X21090000Y-8260000D02*
X28710000Y-8260000D01*
X21090000Y-140000D02*
X21090000Y-8260000D01*
%TO.C,R71*%
X17737258Y-19222500D02*
X17262742Y-19222500D01*
X17737258Y-18177500D02*
X17262742Y-18177500D01*
D12*
%TO.C,Q7*%
X16630000Y-32050000D02*
X20400000Y-32050000D01*
X16630000Y-28950000D02*
X19824000Y-28950000D01*
D13*
X20380000Y-32000000D02*
G75*
G03*
X20220000Y-32000000I-80000J0D01*
G01*
X20220000Y-32000000D02*
G75*
G03*
X20380000Y-32000000I80000J0D01*
G01*
D11*
%TO.C,C36*%
X19240580Y-24410000D02*
X18959420Y-24410000D01*
X19240580Y-23390000D02*
X18959420Y-23390000D01*
D12*
%TO.C,Q2*%
X19970000Y-2850000D02*
X16200000Y-2850000D01*
X19970000Y-5950000D02*
X16776000Y-5950000D01*
D13*
X16380000Y-2900000D02*
G75*
G03*
X16220000Y-2900000I-80000J0D01*
G01*
X16220000Y-2900000D02*
G75*
G03*
X16380000Y-2900000I80000J0D01*
G01*
%TD*%
%LPC*%
D14*
%TO.C,R61*%
X27462500Y-21400000D03*
X21537500Y-21400000D03*
%TD*%
D15*
%TO.C,C41*%
X21275000Y-9500000D03*
X19725000Y-9500000D03*
%TD*%
%TO.C,C38*%
X21275000Y-18700000D03*
X19725000Y-18700000D03*
%TD*%
D16*
%TO.C,D18*%
X11750000Y-7500000D03*
X15050000Y-7500000D03*
%TD*%
D17*
%TO.C,C40*%
X15200000Y-11075000D03*
X15200000Y-9525000D03*
%TD*%
D18*
%TO.C,R67*%
X13725000Y-27900000D03*
X12075000Y-27900000D03*
%TD*%
%TO.C,R68*%
X18325000Y-27900000D03*
X16675000Y-27900000D03*
%TD*%
D19*
%TO.C,Q12*%
X20050000Y-13075000D03*
X20050000Y-12425000D03*
D20*
X20050000Y-11787500D03*
D19*
X20050000Y-11125000D03*
D21*
X16450000Y-13075000D03*
X16450000Y-12425000D03*
D22*
X17900000Y-12100000D03*
D23*
X16450000Y-11787500D03*
D21*
X16450000Y-11125000D03*
%TD*%
D19*
%TO.C,Q10*%
X13850000Y-31475000D03*
X13850000Y-30825000D03*
D20*
X13850000Y-30187500D03*
D19*
X13850000Y-29525000D03*
D21*
X10250000Y-31475000D03*
X10250000Y-30825000D03*
D22*
X11700000Y-30500000D03*
D23*
X10250000Y-30187500D03*
D21*
X10250000Y-29525000D03*
%TD*%
D17*
%TO.C,C37*%
X15200000Y-20275000D03*
X15200000Y-18725000D03*
%TD*%
D14*
%TO.C,R66*%
X27462500Y-12200000D03*
X21537500Y-12200000D03*
%TD*%
D16*
%TO.C,D17*%
X16550000Y-16700000D03*
X19850000Y-16700000D03*
%TD*%
D24*
%TO.C,D1*%
X34013195Y-9625000D03*
X34013195Y-11375000D03*
%TD*%
D18*
%TO.C,R73*%
X13725000Y-9500000D03*
X12075000Y-9500000D03*
%TD*%
D25*
%TO.C,SW4*%
X4450000Y-10250000D03*
X4450000Y-13250000D03*
D26*
X7000000Y-9500000D03*
X7000000Y-12500000D03*
X7000000Y-14000000D03*
X1900000Y-9500000D03*
X1900000Y-12500000D03*
X1900000Y-14000000D03*
D27*
X6300000Y-8250000D03*
X6300000Y-15250000D03*
X2600000Y-8250000D03*
X2600000Y-15250000D03*
%TD*%
D16*
%TO.C,D15*%
X16550000Y-25900000D03*
X19850000Y-25900000D03*
%TD*%
D28*
%TO.C,J6*%
X6950000Y-19500000D03*
D29*
X6950000Y-22000000D03*
X6950000Y-24500000D03*
%TD*%
D19*
%TO.C,Q6*%
X13850000Y-5375000D03*
X13850000Y-4725000D03*
D20*
X13850000Y-4087500D03*
D19*
X13850000Y-3425000D03*
D21*
X10250000Y-5375000D03*
X10250000Y-4725000D03*
D22*
X11700000Y-4400000D03*
D23*
X10250000Y-4087500D03*
D21*
X10250000Y-3425000D03*
%TD*%
D19*
%TO.C,Q9*%
X13850000Y-22275000D03*
X13850000Y-21625000D03*
D20*
X13850000Y-20987500D03*
D19*
X13850000Y-20325000D03*
D21*
X10250000Y-22275000D03*
X10250000Y-21625000D03*
D22*
X11700000Y-21300000D03*
D23*
X10250000Y-20987500D03*
D21*
X10250000Y-20325000D03*
%TD*%
D15*
%TO.C,C34*%
X21275000Y-27900000D03*
X19725000Y-27900000D03*
%TD*%
D17*
%TO.C,C33*%
X15200000Y-29475000D03*
X15200000Y-27925000D03*
%TD*%
D19*
%TO.C,Q8*%
X20050000Y-22275000D03*
X20050000Y-21625000D03*
D20*
X20050000Y-20987500D03*
D19*
X20050000Y-20325000D03*
D21*
X16450000Y-22275000D03*
X16450000Y-21625000D03*
D22*
X17900000Y-21300000D03*
D23*
X16450000Y-20987500D03*
D21*
X16450000Y-20325000D03*
%TD*%
D15*
%TO.C,C35*%
X19875000Y-33100000D03*
X18325000Y-33100000D03*
%TD*%
D16*
%TO.C,D16*%
X11750000Y-16700000D03*
X15050000Y-16700000D03*
%TD*%
D18*
%TO.C,R74*%
X18325000Y-9500000D03*
X16675000Y-9500000D03*
%TD*%
%TO.C,R70*%
X13725000Y-18700000D03*
X12075000Y-18700000D03*
%TD*%
D16*
%TO.C,D19*%
X16550000Y-7500000D03*
X19850000Y-7500000D03*
%TD*%
%TO.C,D14*%
X11750000Y-25900000D03*
X15050000Y-25900000D03*
%TD*%
D14*
%TO.C,R56*%
X27462500Y-30600000D03*
X21537500Y-30600000D03*
%TD*%
D15*
%TO.C,C39*%
X19875000Y-14700000D03*
X18325000Y-14700000D03*
%TD*%
D19*
%TO.C,Q11*%
X13850000Y-13075000D03*
X13850000Y-12425000D03*
D20*
X13850000Y-11787500D03*
D19*
X13850000Y-11125000D03*
D21*
X10250000Y-13075000D03*
X10250000Y-12425000D03*
D22*
X11700000Y-12100000D03*
D23*
X10250000Y-11787500D03*
D21*
X10250000Y-11125000D03*
%TD*%
D30*
%TO.C,J5*%
X26150000Y-6850000D03*
D31*
X23650000Y-6850000D03*
%TD*%
D18*
%TO.C,R71*%
X18325000Y-18700000D03*
X16675000Y-18700000D03*
%TD*%
D19*
%TO.C,Q7*%
X20050000Y-31475000D03*
X20050000Y-30825000D03*
D20*
X20050000Y-30187500D03*
D19*
X20050000Y-29525000D03*
D21*
X16450000Y-31475000D03*
X16450000Y-30825000D03*
D22*
X17900000Y-30500000D03*
D23*
X16450000Y-30187500D03*
D21*
X16450000Y-29525000D03*
%TD*%
D15*
%TO.C,C36*%
X19875000Y-23900000D03*
X18325000Y-23900000D03*
%TD*%
D19*
%TO.C,Q2*%
X16550000Y-3425000D03*
X16550000Y-4075000D03*
D20*
X16550000Y-4712500D03*
D19*
X16550000Y-5375000D03*
D21*
X20150000Y-3425000D03*
X20150000Y-4075000D03*
D22*
X18700000Y-4400000D03*
D23*
X20150000Y-4712500D03*
D21*
X20150000Y-5375000D03*
%TD*%
D32*
%TO.C,C17*%
X12500000Y-1100000D03*
X10500000Y-1100000D03*
%TD*%
D33*
%TO.C,J4*%
X31355000Y-7175000D03*
D34*
X32625000Y-7175000D03*
X31355000Y-8445000D03*
X32625000Y-8445000D03*
X31355000Y-9715000D03*
X32625000Y-9715000D03*
X31355000Y-10985000D03*
X32625000Y-10985000D03*
X31355000Y-12255000D03*
X32625000Y-12255000D03*
X31355000Y-13525000D03*
X32625000Y-13525000D03*
X31355000Y-14795000D03*
X32625000Y-14795000D03*
X31355000Y-16065000D03*
X32625000Y-16065000D03*
X31355000Y-17335000D03*
X32625000Y-17335000D03*
X31355000Y-18605000D03*
X32625000Y-18605000D03*
X31355000Y-19875000D03*
X32625000Y-19875000D03*
X31355000Y-21145000D03*
X32625000Y-21145000D03*
X31355000Y-22415000D03*
X32625000Y-22415000D03*
%TD*%
D32*
%TO.C,C2*%
X17800000Y-1100000D03*
X15800000Y-1100000D03*
%TD*%
%LPD*%
M02*
