%TF.GenerationSoftware,KiCad,Pcbnew,(6.0.11)*%
%TF.CreationDate,2023-10-13T19:34:53+09:00*%
%TF.ProjectId,ESP32,45535033-322e-46b6-9963-61645f706362,rev?*%
%TF.SameCoordinates,Original*%
%TF.FileFunction,Soldermask,Bot*%
%TF.FilePolarity,Negative*%
%FSLAX46Y46*%
G04 Gerber Fmt 4.6, Leading zero omitted, Abs format (unit mm)*
G04 Created by KiCad (PCBNEW (6.0.11)) date 2023-10-13 19:34:53*
%MOMM*%
%LPD*%
G01*
G04 APERTURE LIST*
G04 Aperture macros list*
%AMRoundRect*
0 Rectangle with rounded corners*
0 $1 Rounding radius*
0 $2 $3 $4 $5 $6 $7 $8 $9 X,Y pos of 4 corners*
0 Add a 4 corners polygon primitive as box body*
4,1,4,$2,$3,$4,$5,$6,$7,$8,$9,$2,$3,0*
0 Add four circle primitives for the rounded corners*
1,1,$1+$1,$2,$3*
1,1,$1+$1,$4,$5*
1,1,$1+$1,$6,$7*
1,1,$1+$1,$8,$9*
0 Add four rect primitives between the rounded corners*
20,1,$1+$1,$2,$3,$4,$5,0*
20,1,$1+$1,$4,$5,$6,$7,0*
20,1,$1+$1,$6,$7,$8,$9,0*
20,1,$1+$1,$8,$9,$2,$3,0*%
%AMHorizOval*
0 Thick line with rounded ends*
0 $1 width*
0 $2 $3 position (X,Y) of the first rounded end (center of the circle)*
0 $4 $5 position (X,Y) of the second rounded end (center of the circle)*
0 Add line between two ends*
20,1,$1,$2,$3,$4,$5,0*
0 Add two circle primitives to create the rounded ends*
1,1,$1,$2,$3*
1,1,$1,$4,$5*%
%AMRotRect*
0 Rectangle, with rotation*
0 The origin of the aperture is its center*
0 $1 length*
0 $2 width*
0 $3 Rotation angle, in degrees counterclockwise*
0 Add horizontal line*
21,1,$1,$2,0,0,$3*%
G04 Aperture macros list end*
%ADD10RoundRect,0.250000X0.675000X-0.600000X0.675000X0.600000X-0.675000X0.600000X-0.675000X-0.600000X0*%
%ADD11O,1.850000X1.700000*%
%ADD12RoundRect,0.250000X0.600000X0.675000X-0.600000X0.675000X-0.600000X-0.675000X0.600000X-0.675000X0*%
%ADD13O,1.700000X1.850000*%
%ADD14R,1.700000X1.700000*%
%ADD15O,1.700000X1.700000*%
%ADD16C,1.524000*%
%ADD17C,1.600000*%
%ADD18C,1.400000*%
%ADD19R,3.500000X3.500000*%
%ADD20C,3.500000*%
%ADD21RotRect,1.600000X1.600000X225.000000*%
%ADD22HorizOval,1.600000X0.000000X0.000000X0.000000X0.000000X0*%
%ADD23RotRect,1.600000X1.600000X45.000000*%
%ADD24HorizOval,1.600000X0.000000X0.000000X0.000000X0.000000X0*%
%ADD25C,2.000000*%
%ADD26R,1.600000X1.600000*%
%ADD27O,1.600000X1.600000*%
%ADD28RoundRect,0.381000X-0.538815X0.000000X0.000000X-0.538815X0.538815X0.000000X0.000000X0.538815X0*%
%ADD29C,1.440000*%
%ADD30C,0.650000*%
%ADD31O,2.100000X1.000000*%
%ADD32O,1.800000X1.000000*%
%ADD33RoundRect,0.425000X-0.601041X0.000000X0.000000X-0.601041X0.601041X0.000000X0.000000X0.601041X0*%
%ADD34C,1.700000*%
%ADD35RoundRect,0.425000X0.000000X-0.601041X0.601041X0.000000X0.000000X0.601041X-0.601041X0.000000X0*%
%ADD36RoundRect,1.325000X1.325000X-1.325000X1.325000X1.325000X-1.325000X1.325000X-1.325000X-1.325000X0*%
%ADD37C,3.000000*%
%ADD38R,1.524000X1.524000*%
%ADD39RoundRect,0.250000X-0.600000X-0.675000X0.600000X-0.675000X0.600000X0.675000X-0.600000X0.675000X0*%
%ADD40RotRect,1.400000X1.400000X45.000000*%
%ADD41RoundRect,0.250000X-0.675000X0.600000X-0.675000X-0.600000X0.675000X-0.600000X0.675000X0.600000X0*%
%ADD42RotRect,1.800000X0.800000X135.000000*%
%ADD43RoundRect,0.237500X-0.344715X0.008839X0.008839X-0.344715X0.344715X-0.008839X-0.008839X0.344715X0*%
%ADD44RotRect,1.800000X0.800000X315.000000*%
%ADD45RotRect,0.900000X1.200000X225.000000*%
G04 APERTURE END LIST*
D10*
%TO.C,J5*%
X121020000Y-104640000D03*
D11*
X121020000Y-102140000D03*
X121020000Y-99640000D03*
%TD*%
D12*
%TO.C,J3*%
X180730000Y-34620000D03*
D13*
X178230000Y-34620000D03*
X175730000Y-34620000D03*
X173230000Y-34620000D03*
X170730000Y-34620000D03*
%TD*%
D14*
%TO.C,JP1*%
X118070000Y-93160000D03*
D15*
X115530000Y-93160000D03*
%TD*%
D16*
%TO.C,U7*%
X181575000Y-163065000D03*
X181575000Y-160525000D03*
X181575000Y-157985000D03*
%TD*%
D17*
%TO.C,C9*%
X109272767Y-62502233D03*
X105737233Y-66037767D03*
%TD*%
D18*
%TO.C,J9*%
X237230000Y-86120000D03*
X237230000Y-97120000D03*
D19*
X227230000Y-94120000D03*
D20*
X227230000Y-89120000D03*
%TD*%
D21*
%TO.C,SW11*%
X144674012Y-73270000D03*
D22*
X142877961Y-71473949D03*
X141081910Y-69677898D03*
X139285858Y-67881846D03*
X133897705Y-73270000D03*
X135693756Y-75066051D03*
X137489807Y-76862102D03*
X139285858Y-78658154D03*
%TD*%
D10*
%TO.C,J4*%
X233730000Y-116620000D03*
D11*
X233730000Y-114120000D03*
X233730000Y-111620000D03*
X233730000Y-109120000D03*
X233730000Y-106620000D03*
%TD*%
D16*
%TO.C,MK1*%
X145230000Y-158120000D03*
X147730000Y-158120000D03*
%TD*%
D23*
%TO.C,SW2*%
X216211433Y-139825445D03*
D24*
X218007484Y-141621496D03*
X223395638Y-136233343D03*
X221599587Y-134437291D03*
%TD*%
D25*
%TO.C,TP5*%
X197270000Y-42890000D03*
%TD*%
D26*
%TO.C,U6*%
X162430000Y-160320000D03*
D27*
X162430000Y-162860000D03*
X162430000Y-165400000D03*
X162430000Y-167940000D03*
X170050000Y-167940000D03*
X170050000Y-165400000D03*
X170050000Y-162860000D03*
X170050000Y-160320000D03*
%TD*%
D25*
%TO.C,TP4*%
X196230000Y-151290000D03*
%TD*%
D28*
%TO.C,SW3*%
X121446051Y-121153949D03*
D16*
X119650000Y-122950000D03*
X117853949Y-124746051D03*
%TD*%
D29*
%TO.C,RV1*%
X209960001Y-130789999D03*
X209960001Y-128250001D03*
X212499999Y-128250001D03*
%TD*%
D30*
%TO.C,J10*%
X98335000Y-114630000D03*
X98335000Y-120410000D03*
D31*
X98835000Y-113200000D03*
X98835000Y-121840000D03*
D32*
X94655000Y-121840000D03*
X94655000Y-113200000D03*
%TD*%
D25*
%TO.C,TP3*%
X129990000Y-44020000D03*
%TD*%
D12*
%TO.C,J8*%
X168690000Y-147500000D03*
D13*
X166190000Y-147500000D03*
X163690000Y-147500000D03*
%TD*%
D25*
%TO.C,TP1*%
X144990000Y-41500000D03*
%TD*%
D33*
%TO.C,U5*%
X140137898Y-122823949D03*
D34*
X141933949Y-124620000D03*
X143730000Y-126416051D03*
X145526051Y-128212102D03*
%TD*%
D25*
%TO.C,TP2*%
X214900000Y-90320000D03*
%TD*%
D35*
%TO.C,SW1*%
X144523949Y-64612426D03*
D34*
X146320000Y-66408477D03*
X148116051Y-68204528D03*
X142727898Y-62816375D03*
X149912102Y-70000579D03*
%TD*%
D36*
%TO.C,U8*%
X100070000Y-86050000D03*
%TD*%
D37*
%TO.C,F1*%
X141910000Y-50270000D03*
X135210000Y-50270000D03*
X158210000Y-50270000D03*
X151510000Y-50270000D03*
%TD*%
D16*
%TO.C,J1*%
X104670000Y-117525000D03*
X104670000Y-109905000D03*
D38*
X104670000Y-125145000D03*
D16*
X104670000Y-114985000D03*
X104670000Y-120065000D03*
X104670000Y-122605000D03*
X104670000Y-112445000D03*
X97050000Y-109905000D03*
X94510000Y-125145000D03*
X97050000Y-125145000D03*
X94510000Y-109905000D03*
%TD*%
D39*
%TO.C,J6*%
X163730000Y-57120000D03*
D13*
X166230000Y-57120000D03*
X168730000Y-57120000D03*
%TD*%
D18*
%TO.C,J2*%
X150230000Y-31120000D03*
X161230000Y-31120000D03*
D19*
X158230000Y-41120000D03*
D20*
X153230000Y-41120000D03*
%TD*%
D40*
%TO.C,SW8*%
X204076000Y-70624000D03*
D18*
X205843767Y-68856233D03*
X207611534Y-67088466D03*
X206409452Y-72957452D03*
X208177219Y-71189685D03*
X209944986Y-69421918D03*
%TD*%
D28*
%TO.C,SW4*%
X110766051Y-131963949D03*
D16*
X108970000Y-133760000D03*
X107173949Y-135556051D03*
%TD*%
D23*
%TO.C,U4*%
X200255989Y-147320000D03*
D24*
X202052040Y-149116051D03*
X203848091Y-150912102D03*
X205644143Y-152708154D03*
X211032296Y-147320000D03*
X209236245Y-145523949D03*
X207440194Y-143727898D03*
X205644143Y-141931846D03*
%TD*%
D41*
%TO.C,J7*%
X211230000Y-99620000D03*
D11*
X211230000Y-102120000D03*
X211230000Y-104620000D03*
%TD*%
D40*
%TO.C,SW12*%
X195372051Y-62127949D03*
D18*
X197139818Y-60360182D03*
X198907585Y-58592415D03*
X197705503Y-64461401D03*
X199473270Y-62693634D03*
X201241037Y-60925867D03*
%TD*%
D42*
%TO.C,Q8*%
X127950000Y-66490000D03*
X126606497Y-67833503D03*
X124944796Y-64828299D03*
%TD*%
D43*
%TO.C,R34*%
X142394765Y-129644765D03*
X143685235Y-130935235D03*
%TD*%
D44*
%TO.C,Q5*%
X127041522Y-62715025D03*
X128385025Y-61371522D03*
X130046726Y-64376726D03*
%TD*%
D45*
%TO.C,D3*%
X120196726Y-66353274D03*
X117863274Y-68686726D03*
%TD*%
D43*
%TO.C,R33*%
X139664765Y-126964765D03*
X140955235Y-128255235D03*
%TD*%
M02*
