M48
; DRILL file {KiCad (6.0.11)} date Fri Oct 13 19:34:53 2023
; FORMAT={-:-/ absolute / inch / decimal}
; #@! TF.CreationDate,2023-10-13T19:34:53+09:00
; #@! TF.GenerationSoftware,Kicad,Pcbnew,(6.0.11)
; #@! TF.FileFunction,Plated,1,2,PTH
FMAT,2
INCH
; #@! TA.AperFunction,Plated,PTH,ViaDrill
T1C0.0118
; #@! TA.AperFunction,Plated,PTH,ViaDrill
T2C0.0157
; #@! TA.AperFunction,Plated,PTH,ViaDrill
T3C0.0236
; #@! TA.AperFunction,Plated,PTH,ComponentDrill
T4C0.0236
; #@! TA.AperFunction,Plated,PTH,ComponentDrill
T5C0.0256
; #@! TA.AperFunction,Plated,PTH,ComponentDrill
T6C0.0300
; #@! TA.AperFunction,Plated,PTH,ComponentDrill
T7C0.0315
; #@! TA.AperFunction,Plated,PTH,ComponentDrill
T8C0.0335
; #@! TA.AperFunction,Plated,PTH,ComponentDrill
T9C0.0354
; #@! TA.AperFunction,Plated,PTH,ComponentDrill
T10C0.0394
; #@! TA.AperFunction,Plated,PTH,ComponentDrill
T11C0.0433
; #@! TA.AperFunction,Plated,PTH,ViaDrill
T12C0.0551
; #@! TA.AperFunction,Plated,PTH,ComponentDrill
T13C0.0669
; #@! TA.AperFunction,Plated,PTH,ComponentDrill
T14C0.0748
; #@! TA.AperFunction,Plated,PTH,ComponentDrill
T15C0.1575
%
G90
G05
T1
X3.6665Y-4.7181
X3.7712Y-4.0406
X3.7787Y-3.902
X3.7831Y-3.165
X3.7837Y-3.2683
X3.7981Y-3.5783
X3.8Y-3.0882
X3.819Y-4.7005
X3.8256Y-2.5366
X3.835Y-3.7985
X3.8355Y-4.6492
X3.839Y-2.9489
X3.8413Y-2.5871
X3.8472Y-3.2494
X3.8699Y-2.6232
X3.8701Y-3.8336
X3.8705Y-2.9484
X3.8705Y-3.1924
X3.8736Y-3.6323
X3.8742Y-3.9241
X3.8742Y-3.9591
X3.8744Y-3.5693
X3.8988Y-3.8623
X3.9183Y-3.0591
X3.9193Y-3.5705
X3.9233Y-3.8873
X3.9261Y-3.8201
X3.9362Y-2.4272
X3.9394Y-4.3744
X3.9413Y-4.0705
X3.9421Y-4.237
X3.9507Y-3.1678
X3.9657Y-3.6319
X3.9728Y-3.7547
X3.9783Y-3.9638
X3.9854Y-3.1929
X3.9957Y-4.5657
X3.9957Y-4.7256
X4.0016Y-4.3079
X4.0031Y-3.848
X4.012Y-2.9329
X4.0173Y-3.1432
X4.0193Y-3.9516
X4.0268Y-3.235
X4.0268Y-3.5701
X4.0272Y-3.6315
X4.035Y-3.5112
X4.035Y-3.7551
X4.0409Y-4.026
X4.0429Y-4.3185
X4.0488Y-4.5709
X4.0496Y-4.8776
X4.0528Y-4.4783
X4.0548Y-4.6956
X4.0555Y-2.311
X4.0638Y-3.3729
X4.0701Y-3.1972
X4.1193Y-3.9535
X4.1252Y-3.5689
X4.1264Y-3.6311
X4.1523Y-4.2217
X4.1562Y-4.1854
X4.1693Y-3.9579
X4.172Y-3.7551
X4.174Y-2.1913
X4.1862Y-2.7606
X4.2091Y-3.6634
X4.2094Y-5.0051
X4.2102Y-3.5717
X4.2512Y-3.0728
X4.261Y-3.926
X4.2913Y-2.0693
X4.3402Y-3.7913
X4.3402Y-3.9331
X4.3409Y-4.1264
X4.3413Y-3.6343
X4.3413Y-3.698
X4.3414Y-2.8238
X4.3421Y-4.2217
X4.3425Y-4.0016
X4.3609Y-5.0416
X4.3793Y-2.8466
X4.3923Y-3.6219
X4.3945Y-3.9805
X4.3968Y-2.7098
X4.4079Y-3.0161
X4.4094Y-1.9539
X4.4129Y-2.8618
X4.4168Y-4.9486
X4.4181Y-4.4964
X4.4211Y-3.8532
X4.4272Y-3.9323
X4.4508Y-4.1317
X4.4732Y-3.6185
X4.4732Y-3.6429
X4.4732Y-3.6673
X4.4732Y-3.6913
X4.4732Y-3.7402
X4.4732Y-3.7642
X4.4736Y-3.5941
X4.4736Y-3.7157
X4.485Y-3.8836
X4.4941Y-3.6303
X4.4945Y-3.5823
X4.4945Y-3.6063
X4.4945Y-3.7756
X4.4949Y-3.6543
X4.4949Y-3.7024
X4.4949Y-3.7272
X4.4953Y-3.7516
X4.4957Y-3.678
X4.5091Y-3.7953
X4.515Y-3.6185
X4.5154Y-3.5945
X4.5185Y-3.7724
X4.5193Y-3.7236
X4.5197Y-3.748
X4.5283Y-1.8346
X4.5339Y-3.7921
X4.5362Y-3.5819
X4.5362Y-3.6059
X4.5445Y-3.7264
X4.5445Y-3.7508
X4.5484Y-4.0598
X4.5496Y-3.774
X4.5602Y-3.5827
X4.5606Y-3.6055
X4.5677Y-3.7587
X4.5681Y-3.7346
X4.5693Y-3.5366
X4.5693Y-3.5606
X4.5894Y-3.5728
X4.5906Y-3.5488
X4.6109Y-2.6469
X4.6197Y-3.0694
X4.6445Y-1.7173
X4.6995Y-5.3955
X4.707Y-3.4585
X4.7457Y-4.7232
X4.7657Y-1.5996
X4.7892Y-3.5737
X4.8669Y-2.3901
X4.8852Y-3.4337
X4.9015Y-2.5848
X4.9382Y-2.4929
X4.9495Y-5.6455
X4.9547Y-2.6354
X4.9749Y-2.9844
X4.9802Y-3.0154
X4.9907Y-3.0723
X4.9917Y-2.3961
X5.0075Y-6.7756
X5.0185Y-3.0122
X5.0445Y-2.3709
X5.0711Y-2.7947
X5.0727Y-2.6637
X5.0764Y-1.2531
X5.0874Y-1.5102
X5.1199Y-5.0292
X5.1302Y-2.7196
X5.1429Y-2.5598
X5.1441Y-6.9122
X5.1445Y-5.0559
X5.1535Y-1.5102
X5.1729Y-2.7864
X5.1827Y-5.8106
X5.1937Y-1.5085
X5.1945Y-5.8905
X5.2012Y-5.4311
X5.2152Y-2.7867
X5.2467Y-2.7866
X5.2579Y-3.3201
X5.2584Y-2.8158
X5.2827Y-3.3933
X5.2838Y-3.2932
X5.3056Y-1.3497
X5.322Y-2.6398
X5.3307Y-2.4894
X5.3457Y-2.5689
X5.3634Y-5.9921
X5.4165Y-2.6343
X5.4181Y-2.5083
X5.4673Y-5.7543
X5.4699Y-2.5876
X5.5189Y-6.1457
X5.5217Y-5.6961
X5.6471Y-4.6459
X5.6811Y-6.3094
X5.6961Y-4.6972
X5.7228Y-2.4563
X5.8138Y-2.1303
X5.8138Y-2.5062
X5.8457Y-6.4736
X5.9957Y-6.6205
X6.0738Y-6.0526
X6.1941Y-6.6709
X6.2362Y-6.6197
X6.572Y-1.4356
X6.6028Y-1.3929
X6.7205Y-1.5419
X6.7461Y-1.4425
X6.7634Y-1.4594
X6.7669Y-1.5648
X6.7799Y-1.4772
X6.7819Y-1.4433
X6.7984Y-1.4941
X6.7992Y-1.4614
X6.8051Y-1.4358
X6.8106Y-1.5643
X6.8165Y-1.4776
X6.822Y-1.4531
X6.822Y-1.502
X6.8283Y-1.4295
X6.8398Y-1.4846
X6.8449Y-1.4614
X6.8453Y-1.5087
X6.8459Y-1.5648
X6.8469Y-1.4142
X6.852Y-1.4382
X6.8634Y-1.4791
X6.8685Y-1.3976
X6.8689Y-1.4559
X6.8701Y-1.4217
X6.885Y-1.1537
X6.8866Y-1.4394
X6.8866Y-1.4862
X6.8921Y-1.463
X6.8937Y-1.4161
X6.9094Y-1.4791
X6.9122Y-1.4496
X6.9157Y-1.4264
X6.9295Y-1.4657
X6.9311Y-1.4902
X7.0433Y-1.5567
X7.1894Y-1.5583
X7.1896Y-2.8012
X7.2399Y-2.8524
X7.3429Y-1.5563
X7.4512Y-1.6071
X7.489Y-1.6071
X7.7575Y-2.3012
X8.0831Y-6.678
X8.0909Y-4.6528
X8.1071Y-1.6047
X8.1732Y-1.4551
X8.1811Y-1.6819
X8.1992Y-6.5591
X8.2161Y-4.5268
X8.2197Y-3.6673
X8.2217Y-4.4012
X8.2244Y-4.1799
X8.2276Y-4.0559
X8.2276Y-4.2843
X8.2354Y-1.5177
X8.2591Y-1.7587
X8.2598Y-1.4409
X8.2921Y-1.5752
X8.3106Y-6.5421
X8.3185Y-6.4406
X8.337Y-1.8354
X8.3547Y-1.6335
X8.4106Y-1.6913
X8.4189Y-1.9169
X8.422Y-1.6051
X8.437Y-6.3217
X8.4693Y-1.7547
X8.4929Y-1.9917
X8.5272Y-1.8142
X8.5469Y-6.3087
X8.5547Y-6.2055
X8.5756Y-2.0744
X8.5906Y-1.8744
X8.6106Y-1.7925
X8.6469Y-1.9319
X8.6508Y-2.1524
X8.6732Y-6.0839
X8.7067Y-1.9902
X8.7295Y-2.2335
X8.7618Y-1.9488
X8.7685Y-2.0508
X8.772Y-6.0846
X8.7917Y-5.9673
X8.8004Y-4.4957
X8.8142Y-4.4524
X8.8146Y-2.313
X8.8146Y-3.7504
X8.8146Y-4.0925
X8.815Y-3.6256
X8.8161Y-3.9157
X8.8161Y-4.2752
X8.8268Y-2.1094
X8.8827Y-2.1673
X8.8839Y-2.3819
X8.9055Y-5.8476
X8.9185Y-2.0984
X8.9421Y-2.2283
X8.9701Y-2.4713
X8.9925Y-5.8622
X8.998Y-2.2866
X9.0276Y-5.7303
X9.0453Y-2.5461
X9.0606Y-2.2453
X9.0634Y-2.3445
X9.0646Y-2.5677
X9.1094Y-2.3949
X9.1457Y-5.7091
X9.1472Y-5.6118
X9.2831Y-5.5697
T2
X3.646Y-2.7315
X3.7079Y-5.2354
X3.7083Y-4.5638
X3.7106Y-4.0299
X3.7134Y-4.1677
X3.7224Y-5.0925
X3.7409Y-2.9263
X3.7551Y-2.5181
X3.7669Y-4.5102
X3.7681Y-4.6177
X3.7858Y-2.6059
X3.7913Y-4.0909
X3.8291Y-5.2142
X3.8516Y-5.3685
X3.852Y-3.9976
X3.8555Y-4.1594
X3.8752Y-5.5665
X3.9055Y-5.011
X3.9094Y-3.2283
X3.9157Y-5.1252
X3.9429Y-2.9055
X3.9555Y-4.8319
X3.9559Y-5.3618
X3.9776Y-3.0815
X4.0008Y-5.6909
X4.0283Y-4.1508
X4.0563Y-4.7862
X4.0575Y-5.0953
X4.0598Y-3.0846
X4.1063Y-3.7807
X4.1165Y-5.8102
X4.1193Y-5.5055
X4.1248Y-3.4929
X4.1272Y-2.5335
X4.1311Y-5.0055
X4.1319Y-5.337
X4.139Y-4.1252
X4.1409Y-3.328
X4.1425Y-4.0213
X4.1496Y-3.1055
X4.1539Y-2.4618
X4.1539Y-3.2146
X4.1571Y-3.8488
X4.1941Y-3.3823
X4.1996Y-5.2594
X4.2087Y-5.411
X4.2315Y-2.5906
X4.2335Y-5.9299
X4.2508Y-4.6217
X4.2567Y-4.1374
X4.2583Y-3.772
X4.2583Y-4.278
X4.2626Y-4.0425
X4.2646Y-3.3209
X4.2705Y-3.1488
X4.274Y-3.4886
X4.2744Y-5.6661
X4.2756Y-3.6106
X4.278Y-5.1913
X4.2882Y-4.6673
X4.2949Y-2.3165
X4.3059Y-5.3319
X4.3177Y-5.522
X4.3197Y-5.1063
X4.3425Y-4.9787
X4.3531Y-6.0457
X4.3642Y-5.4319
X4.3681Y-2.2736
X4.3693Y-4.8091
X4.3823Y-3.0618
X4.3965Y-2.4157
X4.3979Y-4.0242
X4.4106Y-5.324
X4.4201Y-4.3929
X4.4394Y-5.2067
X4.4407Y-3.4115
X4.4437Y-5.835
X4.4461Y-2.6524
X4.4472Y-5.5878
X4.4488Y-2.8
X4.4728Y-5.0217
X4.4744Y-6.1673
X4.4799Y-5.3854
X4.4862Y-3.3763
X4.4945Y-5.1063
X4.5035Y-4.4795
X4.5055Y-2.9969
X4.5106Y-5.3189
X4.5177Y-4.9094
X4.5291Y-5.6409
X4.5311Y-2.2146
X4.5331Y-2.6508
X4.5394Y-2.7315
X4.5429Y-5.2157
X4.5512Y-5.7661
X4.5622Y-3.0445
X4.5677Y-5.4677
X4.5827Y-2.3874
X4.5874Y-4.9728
X4.5913Y-6.2839
X4.5967Y-3.9152
X4.6031Y-4.5657
X4.6047Y-2.0453
X4.6075Y-5.9819
X4.6335Y-5.5594
X4.6378Y-4.6059
X4.6514Y-2.701
X4.6559Y-3.1224
X4.6587Y-5.6673
X4.6795Y-5.063
X4.6902Y-2.6976
X4.7Y-5.824
X4.7051Y-2.3886
X4.7091Y-6.4016
X4.7213Y-3.3799
X4.7217Y-2.615
X4.7228Y-5.2083
X4.7272Y-2.9669
X4.7524Y-5.5543
X4.7531Y-3.2646
X4.7555Y-6.1571
X4.7633Y-2.5881
X4.7693Y-2.9244
X4.7724Y-1.9669
X4.774Y-5.8961
X4.7815Y-6.0193
X4.7854Y-5.3228
X4.7906Y-2.3094
X4.7913Y-2.4217
X4.8118Y-3.1996
X4.8165Y-5.0791
X4.8256Y-4.9441
X4.8256Y-6.5217
X4.8323Y-4.8134
X4.8323Y-5.7055
X4.8354Y-2.3472
X4.8445Y-1.8008
X4.848Y-2.9437
X4.8522Y-2.2612
X4.8587Y-6.2795
X4.8717Y-1.4697
X4.8878Y-2.2969
X4.8888Y-2.2392
X4.889Y-5.4858
X4.889Y-5.7941
X4.9055Y-5.9177
X4.907Y-3.3441
X4.9146Y-2.7701
X4.9154Y-5.2071
X4.9248Y-6.6209
X4.928Y-2.3039
X4.9294Y-2.2392
X4.9327Y-2.9484
X4.9329Y-2.184
X4.9362Y-6.0878
X4.9406Y-4.6701
X4.9551Y-5.0992
X4.9577Y-2.1522
X4.9618Y-2.7256
X4.9646Y-5.372
X4.9717Y-2.3039
X4.975Y-2.2392
X4.9752Y-4.9472
X4.9819Y-6.674
X4.9831Y-2.0913
X4.987Y-1.3559
X4.9888Y-2.184
X5.0004Y-3.3504
X5.0024Y-1.6102
X5.0035Y-5.5795
X5.0087Y-5.8169
X5.0155Y-2.1522
X5.0209Y-2.3039
X5.0224Y-3.1626
X5.0227Y-2.2392
X5.026Y-2.0913
X5.0268Y-2.7402
X5.0343Y-1.7055
X5.0382Y-6.1642
X5.0408Y-2.184
X5.0488Y-6.4276
X5.0567Y-4.7728
X5.0591Y-5.0413
X5.0616Y-2.2392
X5.0633Y-2.1416
X5.0642Y-2.3039
X5.0665Y-6.6902
X5.0705Y-1.3382
X5.0724Y-2.0913
X5.0728Y-1.5858
X5.0764Y-5.9496
X5.0772Y-5.3323
X5.0791Y-5.4866
X5.0839Y-5.1138
X5.0862Y-5.6843
X5.0863Y-2.1858
X5.0882Y-3.1807
X5.0898Y-5.2118
X5.0902Y-2.0075
X5.1006Y-2.3226
X5.1036Y-2.1522
X5.1046Y-3.3919
X5.1065Y-2.2813
X5.115Y-2.6004
X5.1182Y-2.2176
X5.1224Y-3.0528
X5.1225Y-2.1003
X5.1232Y-2.363
X5.1276Y-1.8551
X5.1283Y-6.7902
X5.1365Y-2.1851
X5.1374Y-6.0409
X5.1409Y-1.5882
X5.1445Y-6.5571
X5.1511Y-2.2477
X5.1529Y-2.1306
X5.1547Y-2.3906
X5.1555Y-6.222
X5.1672Y-2.2158
X5.1736Y-3.3539
X5.1819Y-2.265
X5.1819Y-3.2173
X5.184Y-2.1617
X5.1874Y-4.9476
X5.1949Y-2.3906
X5.1957Y-6.6925
X5.1992Y-2.0047
X5.2057Y-1.1006
X5.2102Y-3.0701
X5.2114Y-2.6764
X5.2131Y-2.1908
X5.2138Y-5.0425
X5.2169Y-5.5142
X5.2172Y-2.2477
X5.2185Y-5.3343
X5.2205Y-2.3551
X5.2209Y-5.1161
X5.2224Y-5.7236
X5.228Y-2.3063
X5.2295Y-5.2173
X5.237Y-4.7795
X5.2402Y-2.2752
X5.2413Y-2.3906
X5.2416Y-2.2194
X5.2547Y-2.4713
X5.2583Y-1.7484
X5.2629Y-2.323
X5.2654Y-2.3551
X5.2665Y-6.0394
X5.2684Y-2.2462
X5.2961Y-2.2846
X5.3024Y-3.2437
X5.3051Y-3.1697
X5.3114Y-4.8602
X5.3122Y-6.3756
X5.3287Y-1.4004
X5.3331Y-3.0319
X5.339Y-5.0417
X5.3413Y-2.8634
X5.3531Y-6.6874
X5.3535Y-1.6642
X5.3575Y-5.4602
X5.378Y-1.4516
X5.3854Y-1.3335
X5.3858Y-5.685
X5.3882Y-5.8748
X5.3906Y-6.9122
X5.3929Y-5.1197
X5.3933Y-3.2252
X5.3969Y-5.2173
X5.3976Y-4.7764
X5.413Y-4.9476
X5.4252Y-2.9504
X5.4339Y-6.2343
X5.4417Y-1.7504
X5.45Y-1.5894
X5.465Y-1.4378
X5.4681Y-1.2535
X5.4693Y-5.0421
X5.4764Y-6.8031
X5.4768Y-5.311
X5.485Y-2.4689
X5.4886Y-2.8614
X5.4925Y-3.0209
X5.4961Y-1.5461
X5.4992Y-3.1642
X5.5118Y-3.478
X5.5177Y-1.3425
X5.5201Y-5.6146
X5.5343Y-1.1913
X5.5386Y-1.6724
X5.5472Y-5.1106
X5.5496Y-6.572
X5.5547Y-2.5
X5.5567Y-1.3382
X5.5606Y-3.0854
X5.5606Y-6.0118
X5.5764Y-5.4406
X5.5795Y-2.9346
X5.5862Y-4.5409
X5.5886Y-2.5941
X5.5921Y-1.3417
X5.6031Y-5.2102
X5.6197Y-1.752
X5.6268Y-1.6311
X5.6287Y-1.3425
X5.6413Y-3.4335
X5.661Y-5.6984
X5.6618Y-1.5472
X5.6642Y-2.6626
X5.6646Y-1.2201
X5.6657Y-1.3449
X5.6689Y-6.4657
X5.6827Y-2.9689
X5.6976Y-4.6193
X5.7028Y-1.3433
X5.7067Y-6.8071
X5.7106Y-2.0031
X5.7272Y-5.4949
X5.728Y-1.8295
X5.7315Y-3.2945
X5.7339Y-1.448
X5.7366Y-2.7358
X5.737Y-1.3433
X5.7512Y-6.0035
X5.7571Y-5.6496
X5.7606Y-1.7028
X5.7642Y-3.4087
X5.7657Y-1.4516
X5.7701Y-1.3433
X5.7728Y-5.3579
X5.7764Y-5.1055
X5.7909Y-1.578
X5.7949Y-2.8677
X5.8028Y-1.4516
X5.8035Y-1.3409
X5.8252Y-2.5571
X5.8291Y-3.2232
X5.8346Y-2.0122
X5.8398Y-1.3406
X5.8417Y-1.4488
X5.8421Y-2.8028
X5.8449Y-1.248
X5.8492Y-5.8937
X5.8504Y-1.1882
X5.8524Y-6.3138
X5.8634Y-2.5969
X5.8665Y-4.5394
X5.8764Y-1.4504
X5.8807Y-1.3398
X5.8807Y-4.6929
X5.8909Y-6.6839
X5.9038Y-2.5506
X5.9043Y-2.6484
X5.9051Y-6.1606
X5.9102Y-1.4512
X5.9122Y-3.2874
X5.9276Y-4.8996
X5.9283Y-1.3402
X5.9331Y-5.8256
X5.9335Y-3.1114
X5.9425Y-3.0339
X5.9457Y-6.8071
X5.9461Y-1.4488
X5.9657Y-1.3441
X5.9783Y-1.4504
X5.9799Y-1.1917
X5.9815Y-1.2496
X5.9815Y-6.4287
X6.0039Y-3.1941
X6.0102Y-1.4516
X6.0134Y-1.3425
X6.0232Y-4.9886
X6.0295Y-4.7055
X6.0331Y-5.5311
X6.0366Y-5.2961
X6.0421Y-1.4528
X6.0535Y-1.3425
X6.0551Y-6.1035
X6.074Y-1.4524
X6.0906Y-1.3433
X6.1063Y-1.4528
X6.1067Y-6.3571
X6.113Y-6.5839
X6.1213Y-6.002
X6.1299Y-1.3417
X6.1398Y-1.4531
X6.1417Y-1.2161
X6.1535Y-6.8087
X6.1638Y-1.3402
X6.1724Y-1.4539
X6.1732Y-6.1929
X6.2004Y-1.3417
X6.2039Y-1.4516
X6.2157Y-6.3602
X6.2256Y-6.1004
X6.2354Y-1.4528
X6.2406Y-1.3417
X6.2425Y-6.4701
X6.2673Y-1.4528
X6.2764Y-6.7835
X6.2787Y-1.3402
X6.2894Y-1.2508
X6.2925Y-1.1925
X6.2996Y-1.4539
X6.3161Y-1.3425
X6.3319Y-1.4531
X6.3335Y-6.4701
X6.3528Y-1.3417
X6.3642Y-1.4531
X6.3846Y-1.3445
X6.3992Y-1.452
X6.4004Y-6.7874
X6.4126Y-1.1902
X6.4173Y-1.2531
X6.4272Y-6.1957
X6.4276Y-1.3469
X6.4386Y-1.4539
X6.4634Y-1.3477
X6.4795Y-1.4504
X6.4929Y-1.5272
X6.5157Y-1.4492
X6.5358Y-1.2512
X6.5791Y-1.3421
X6.6185Y-1.1894
X6.6441Y-1.352
X6.6772Y-6.6823
X6.6846Y-6.7917
X6.7142Y-1.2177
X6.7343Y-1.2835
X6.7854Y-6.1996
X6.8102Y-6.6917
X6.8291Y-1.1925
X6.8539Y-6.5937
X6.8768Y-6.7925
X6.8909Y-1.2874
X6.9571Y-6.5205
X6.9583Y-6.6744
X6.9783Y-6.3764
X6.9811Y-1.2118
X6.9972Y-1.4815
X7.0425Y-5.6291
X7.0559Y-3.3406
X7.0579Y-2.7437
X7.0587Y-1.2874
X7.061Y-4.6878
X7.0642Y-5.178
X7.0642Y-5.415
X7.065Y-3.0575
X7.0736Y-6.2028
X7.0756Y-4.9783
X7.085Y-2.5736
X7.1003Y-6.7908
X7.1012Y-1.4697
X7.1634Y-2.8524
X7.1717Y-6.1457
X7.1776Y-6.4831
X7.1819Y-2.6874
X7.1906Y-1.2098
X7.1909Y-4.5299
X7.1941Y-3.0799
X7.2Y-6.6823
X7.2004Y-5.515
X7.2024Y-4.6925
X7.2043Y-5.0772
X7.2079Y-3.3465
X7.2154Y-5.2776
X7.2217Y-3.5012
X7.2413Y-6.8012
X7.2516Y-6.3362
X7.2528Y-1.4795
X7.2673Y-4.8157
X7.2807Y-2.7472
X7.2843Y-3.0004
X7.3161Y-6.0154
X7.3299Y-3.2244
X7.3449Y-6.465
X7.3461Y-5.1547
X7.3531Y-6.6831
X7.3575Y-4.928
X7.3823Y-1.2055
X7.4209Y-5.2866
X7.4303Y-3.135
X7.4315Y-6.1488
X7.4331Y-4.535
X7.4354Y-1.4476
X7.4358Y-5.8886
X7.4378Y-4.6665
X7.4398Y-6.8102
X7.4496Y-2.9291
X7.4776Y-3.3618
X7.4791Y-3.4992
X7.4862Y-1.3126
X7.5075Y-4.7693
X7.515Y-4.9453
X7.5358Y-1.5736
X7.5484Y-2.3071
X7.5551Y-6.2626
X7.5693Y-3.2854
X7.572Y-6.589
X7.5748Y-1.2083
X7.6028Y-6.4429
X7.6031Y-5.0984
X7.6031Y-5.7232
X7.6217Y-3.1043
X7.6217Y-6.7992
X7.6402Y-5.9492
X7.6437Y-2.3906
X7.6445Y-2.3118
X7.687Y-1.315
X7.6992Y-4.5382
X7.7012Y-6.9114
X7.7024Y-4.6504
X7.7043Y-3.4098
X7.7079Y-3.5012
X7.7177Y-4.7953
X7.7244Y-6.6866
X7.7358Y-2.4925
X7.761Y-1.8492
X7.7626Y-6.0634
X7.7756Y-5.5457
X7.7768Y-6.4528
X7.7776Y-4.9323
X7.7823Y-1.5874
X7.7961Y-5.7996
X7.798Y-2.4303
X7.8051Y-1.4634
X7.8228Y-3.2862
X7.8272Y-2.5898
X7.8287Y-6.2224
X7.8634Y-5.4618
X7.8756Y-4.8331
X7.8803Y-2.3516
X7.9016Y-6.5236
X7.9213Y-2.6661
X7.9248Y-5.7386
X7.9264Y-3.4047
X7.9339Y-6.6917
X7.9382Y-4.6567
X7.9429Y-4.5398
X7.9449Y-4.7705
X7.9571Y-6.7917
X7.9677Y-6.637
X7.9748Y-2.448
X7.9776Y-2.5752
X7.9972Y-5.6835
X7.998Y-3.4957
X8.0035Y-6.4559
X8.0122Y-5.5835
X8.0409Y-1.8543
X8.0433Y-6.2217
X8.0465Y-5.8689
X8.048Y-1.6827
X8.0571Y-5.3614
X8.0638Y-6.7823
X8.0697Y-4.535
X8.0701Y-2.837
X8.1126Y-1.3106
X8.1193Y-5.7165
X8.124Y-2.5953
X8.1976Y-2.8819
X8.2059Y-5.402
X8.2071Y-5.1091
X8.2126Y-2.6921
X8.2366Y-5.8091
X8.2413Y-6.2165
X8.2461Y-5.6531
X8.2614Y-2.8
X8.2661Y-2.9626
X8.2764Y-1.9165
X8.2776Y-5.9953
X8.2929Y-2.076
X8.3177Y-3.7772
X8.3209Y-4.9984
X8.326Y-4.3303
X8.326Y-4.3933
X8.3311Y-5.7362
X8.3594Y-5.852
X8.4236Y-5.0799
X8.4264Y-5.4736
X8.45Y-5.6256
X8.4661Y-5.9858
X8.5098Y-2.1496
X8.5126Y-4.9024
X8.5343Y-2.3205
X8.5571Y-5.2106
X8.5642Y-5.3441
X8.5748Y-4.7575
X8.5913Y-5.6594
X8.6028Y-5.4988
X8.6205Y-5.0213
X8.6622Y-4.8413
X8.6646Y-5.2319
X8.7028Y-5.7492
X8.7197Y-5.3681
X8.7484Y-4.7374
X8.7563Y-2.3878
X8.7587Y-4.6524
X8.7768Y-4.9701
X8.7917Y-2.5878
X8.8051Y-5.2843
X8.8063Y-2.9819
X8.8406Y-4.7909
X8.8571Y-4.6213
X8.8996Y-4.3067
X8.9146Y-3.9268
X8.9217Y-4.4327
X8.9228Y-4.176
X8.9256Y-4.5528
X8.9307Y-3.087
X8.9307Y-4.6957
X8.937Y-5.5173
X8.9521Y-4.607
X8.9543Y-2.6043
X8.9819Y-5.1783
X8.9917Y-4.9768
X8.9972Y-4.4819
X8.9996Y-2.9
X9.0091Y-4.6217
X9.0449Y-4.8307
X9.0638Y-3.2335
X9.0736Y-3.5543
X9.0799Y-5.4173
X9.0835Y-3.8051
X9.0854Y-2.7449
X9.0909Y-4.0461
X9.0961Y-4.3689
X9.128Y-4.5008
X9.1799Y-4.7232
X9.1933Y-4.9594
X9.1933Y-5.2504
X9.2039Y-4.0878
X9.2043Y-2.4201
X9.2067Y-3.6988
X9.2071Y-2.8472
X9.2102Y-3.3902
X9.2646Y-4.4402
X9.2681Y-4.237
X9.2953Y-2.4988
X9.2953Y-5.1484
X9.3055Y-4.9138
X9.3445Y-3.3228
X9.3453Y-3.4622
X9.3453Y-3.7583
X9.3453Y-3.8996
X9.3476Y-2.9894
X9.3795Y-4.3508
X9.3831Y-4.8417
X9.3854Y-4.6102
X9.3858Y-5.0661
X9.3878Y-4.0803
T3
X3.7951Y-4.4142
X4.1173Y-2.8252
X4.1445Y-2.7925
X4.1591Y-2.8354
X4.1913Y-2.811
X4.2415Y-4.3463
X4.261Y-4.3868
X4.6045Y-5.3005
X4.6243Y-2.9207
X4.6445Y-5.3405
X4.6631Y-2.9491
X4.6638Y-2.9012
T5
X4.2194Y-5.3369
X4.2902Y-5.2661
X4.3609Y-5.1954
X4.6399Y-4.9113
X4.7106Y-4.8406
X4.7813Y-4.7698
T6
X3.7209Y-4.327
X3.7209Y-4.927
X3.8209Y-4.327
X3.8209Y-4.927
X4.1209Y-4.327
X4.1209Y-4.427
X4.1209Y-4.527
X4.1209Y-4.627
X4.1209Y-4.727
X4.1209Y-4.827
X4.1209Y-4.927
X5.7177Y-6.2252
X5.8161Y-6.2252
X7.1486Y-6.2199
X7.1486Y-6.3199
X7.1486Y-6.4199
T7
X4.1629Y-2.5999
X4.3021Y-2.4607
X5.2716Y-2.8846
X5.3423Y-2.9554
X5.413Y-3.0261
X5.4837Y-2.6725
X5.4837Y-3.0968
X5.5544Y-2.7432
X5.6251Y-2.8139
X5.6958Y-2.8846
X6.3949Y-6.3118
X6.3949Y-6.4118
X6.3949Y-6.5118
X6.3949Y-6.6118
X6.6949Y-6.3118
X6.6949Y-6.4118
X6.6949Y-6.5118
X6.6949Y-6.6118
X7.8841Y-5.8
X7.9548Y-5.8707
X8.0255Y-5.9414
X8.0962Y-5.5879
X8.0962Y-6.0121
X8.1669Y-5.6586
X8.2376Y-5.7293
X8.2661Y-5.0492
X8.2661Y-5.1492
X8.3084Y-5.8
X8.3661Y-5.0492
X8.5123Y-5.5049
X8.583Y-5.5756
X8.7244Y-5.2928
X8.7951Y-5.3635
T8
X4.7646Y-3.9228
X4.7646Y-4.0213
X4.7646Y-4.1197
X6.4445Y-5.8071
X6.4461Y-2.2488
X6.5429Y-5.8071
X6.5445Y-2.2488
X6.6413Y-5.8071
X6.6429Y-2.2488
X6.7217Y-1.363
X6.8201Y-1.363
X6.9185Y-1.363
X7.0169Y-1.363
X7.1154Y-1.363
X8.3161Y-3.922
X8.3161Y-4.0205
X8.3161Y-4.1189
X9.202Y-4.1976
X9.202Y-4.2961
X9.202Y-4.3945
X9.202Y-4.4929
X9.202Y-4.5913
T9
X7.6918Y-2.446
X7.7614Y-2.3764
X7.7837Y-2.5379
X7.831Y-2.3068
X7.8533Y-2.4683
X7.9229Y-2.3987
X8.0345Y-2.7805
X8.1041Y-2.7109
X8.1264Y-2.8723
X8.1737Y-2.6413
X8.196Y-2.8027
X8.2656Y-2.7331
T10
X4.5484Y-3.6677
X4.6484Y-3.6677
X5.1177Y-1.7331
X5.5172Y-4.8356
X5.588Y-4.9063
X5.6587Y-4.977
X5.7083Y-1.6339
X5.7294Y-5.0477
X5.9146Y-1.2252
X6.3476Y-1.2252
X7.7256Y-5.9563
X7.7665Y-1.6886
X8.4606Y-3.5559
X9.3398Y-3.3906
X9.3398Y-3.8236
T11
X5.6192Y-2.4731
X5.6899Y-2.5438
X5.7606Y-2.6145
X5.8313Y-2.6852
X5.9021Y-2.7559
T12
X3.7323Y-3.9461
T13
X5.3232Y-1.9791
X5.587Y-1.9791
X5.965Y-1.9791
X6.2287Y-1.9791
T14
X6.0327Y-1.6189
X6.2295Y-1.6189
X8.9461Y-3.5087
X8.9461Y-3.7055
T4
G00X3.7423Y-4.4567
M15
G01X3.7108Y-4.4567
M16
G05
G00X3.7423Y-4.7969
M15
G01X3.7108Y-4.7969
M16
G05
G00X3.9128Y-4.4567
M15
G01X3.8695Y-4.4567
M16
G05
G00X3.9128Y-4.7969
M15
G01X3.8695Y-4.7969
M16
G05
T15
G00X3.9398Y-3.3878
M15
G01X3.9398Y-3.3878
M16
G05
T0
M30
