%TF.GenerationSoftware,KiCad,Pcbnew,(6.0.11)*%
%TF.CreationDate,2023-09-12T01:08:27+09:00*%
%TF.ProjectId,Main,4d61696e-2e6b-4696-9361-645f70636258,rev?*%
%TF.SameCoordinates,Original*%
%TF.FileFunction,Soldermask,Bot*%
%TF.FilePolarity,Negative*%
%FSLAX46Y46*%
G04 Gerber Fmt 4.6, Leading zero omitted, Abs format (unit mm)*
G04 Created by KiCad (PCBNEW (6.0.11)) date 2023-09-12 01:08:27*
%MOMM*%
%LPD*%
G01*
G04 APERTURE LIST*
G04 Aperture macros list*
%AMRoundRect*
0 Rectangle with rounded corners*
0 $1 Rounding radius*
0 $2 $3 $4 $5 $6 $7 $8 $9 X,Y pos of 4 corners*
0 Add a 4 corners polygon primitive as box body*
4,1,4,$2,$3,$4,$5,$6,$7,$8,$9,$2,$3,0*
0 Add four circle primitives for the rounded corners*
1,1,$1+$1,$2,$3*
1,1,$1+$1,$4,$5*
1,1,$1+$1,$6,$7*
1,1,$1+$1,$8,$9*
0 Add four rect primitives between the rounded corners*
20,1,$1+$1,$2,$3,$4,$5,0*
20,1,$1+$1,$4,$5,$6,$7,0*
20,1,$1+$1,$6,$7,$8,$9,0*
20,1,$1+$1,$8,$9,$2,$3,0*%
%AMFreePoly0*
4,1,6,1.000000,0.000000,0.500000,-0.750000,-0.500000,-0.750000,-0.500000,0.750000,0.500000,0.750000,1.000000,0.000000,1.000000,0.000000,$1*%
%AMFreePoly1*
4,1,6,0.500000,-0.750000,-0.650000,-0.750000,-0.150000,0.000000,-0.650000,0.750000,0.500000,0.750000,0.500000,-0.750000,0.500000,-0.750000,$1*%
G04 Aperture macros list end*
%ADD10RoundRect,0.381000X-0.381000X0.381000X-0.381000X-0.381000X0.381000X-0.381000X0.381000X0.381000X0*%
%ADD11C,1.524000*%
%ADD12RoundRect,0.250000X0.600000X0.675000X-0.600000X0.675000X-0.600000X-0.675000X0.600000X-0.675000X0*%
%ADD13O,1.700000X1.850000*%
%ADD14C,2.000000*%
%ADD15R,1.700000X1.700000*%
%ADD16O,1.700000X1.700000*%
%ADD17R,1.600000X1.600000*%
%ADD18O,1.600000X1.600000*%
%ADD19C,3.200000*%
%ADD20RoundRect,0.250000X-0.600000X-0.675000X0.600000X-0.675000X0.600000X0.675000X-0.600000X0.675000X0*%
%ADD21R,1.400000X1.400000*%
%ADD22C,1.400000*%
%ADD23RoundRect,0.250000X0.675000X-0.600000X0.675000X0.600000X-0.675000X0.600000X-0.675000X-0.600000X0*%
%ADD24O,1.850000X1.700000*%
%ADD25R,1.524000X1.524000*%
%ADD26RoundRect,0.250000X0.600000X0.600000X-0.600000X0.600000X-0.600000X-0.600000X0.600000X-0.600000X0*%
%ADD27C,1.700000*%
%ADD28RoundRect,0.381000X0.381000X-0.381000X0.381000X0.381000X-0.381000X0.381000X-0.381000X-0.381000X0*%
%ADD29R,3.500000X3.500000*%
%ADD30C,3.500000*%
%ADD31RoundRect,0.425000X0.425000X0.425000X-0.425000X0.425000X-0.425000X-0.425000X0.425000X-0.425000X0*%
%ADD32R,2.000000X2.000000*%
%ADD33R,1.308000X1.308000*%
%ADD34C,1.308000*%
%ADD35O,3.100000X4.300000*%
%ADD36C,1.600000*%
%ADD37RoundRect,0.237500X0.237500X-0.250000X0.237500X0.250000X-0.237500X0.250000X-0.237500X-0.250000X0*%
%ADD38FreePoly0,90.000000*%
%ADD39FreePoly1,90.000000*%
%ADD40R,0.900000X1.200000*%
%ADD41FreePoly0,0.000000*%
%ADD42FreePoly1,0.000000*%
%ADD43RoundRect,0.237500X-0.237500X0.250000X-0.237500X-0.250000X0.237500X-0.250000X0.237500X0.250000X0*%
%ADD44RoundRect,0.250000X0.475000X-0.337500X0.475000X0.337500X-0.475000X0.337500X-0.475000X-0.337500X0*%
%ADD45RoundRect,0.250000X-0.337500X-0.475000X0.337500X-0.475000X0.337500X0.475000X-0.337500X0.475000X0*%
%ADD46RoundRect,0.250000X-0.475000X0.337500X-0.475000X-0.337500X0.475000X-0.337500X0.475000X0.337500X0*%
%ADD47R,1.200000X0.900000*%
%ADD48R,0.800000X1.800000*%
G04 APERTURE END LIST*
D10*
%TO.C,SW5*%
X173130000Y-145670000D03*
D11*
X170590000Y-145670000D03*
X168050000Y-145670000D03*
%TD*%
D12*
%TO.C,J14*%
X161190000Y-57390001D03*
D13*
X158690000Y-57390001D03*
%TD*%
D14*
%TO.C,TP4*%
X189940000Y-101240000D03*
%TD*%
%TO.C,TP2*%
X131940000Y-53740000D03*
%TD*%
%TO.C,TP5*%
X123940000Y-53740000D03*
%TD*%
D15*
%TO.C,JP3*%
X140170000Y-147805000D03*
D16*
X140170000Y-145265000D03*
%TD*%
D14*
%TO.C,TP1*%
X127940000Y-53740000D03*
%TD*%
D17*
%TO.C,SW13*%
X184140000Y-159940000D03*
D18*
X184140000Y-162480000D03*
X184140000Y-165020000D03*
X184140000Y-167560000D03*
X191760000Y-167560000D03*
X191760000Y-165020000D03*
X191760000Y-162480000D03*
X191760000Y-159940000D03*
%TD*%
D19*
%TO.C,H4*%
X103940000Y-164740000D03*
%TD*%
D17*
%TO.C,SW6*%
X179100000Y-145440000D03*
D18*
X179100000Y-147980000D03*
X179100000Y-150520000D03*
X179100000Y-153060000D03*
X186720000Y-153060000D03*
X186720000Y-150520000D03*
X186720000Y-147980000D03*
X186720000Y-145440000D03*
%TD*%
D20*
%TO.C,J7*%
X130440000Y-162090000D03*
D13*
X132940000Y-162090000D03*
X135440000Y-162090000D03*
X137940000Y-162090000D03*
X140440000Y-162090000D03*
%TD*%
D21*
%TO.C,SW14*%
X180590000Y-52392501D03*
D22*
X180590000Y-54892501D03*
X180590000Y-57392501D03*
X177290000Y-52392501D03*
X177290000Y-54892501D03*
X177290000Y-57392501D03*
%TD*%
D23*
%TO.C,J10*%
X201290000Y-109740000D03*
D24*
X201290000Y-107240000D03*
X201290000Y-104740000D03*
X201290000Y-102240000D03*
X201290000Y-99740000D03*
%TD*%
D10*
%TO.C,SW10*%
X122480000Y-135330000D03*
D11*
X119940000Y-135330000D03*
X117400000Y-135330000D03*
%TD*%
D10*
%TO.C,SW15*%
X206480000Y-91740000D03*
D11*
X203940000Y-91740000D03*
X201400000Y-91740000D03*
%TD*%
D23*
%TO.C,J12*%
X201290000Y-84290000D03*
D24*
X201290000Y-81790000D03*
%TD*%
D15*
%TO.C,JP1*%
X182215000Y-128740000D03*
D16*
X179675000Y-128740000D03*
%TD*%
D11*
%TO.C,J1*%
X195250000Y-145835000D03*
X195250000Y-153455000D03*
D25*
X195250000Y-138215000D03*
D11*
X195250000Y-148375000D03*
X195250000Y-143295000D03*
X195250000Y-140755000D03*
X195250000Y-150915000D03*
X202870000Y-153455000D03*
X202870000Y-138215000D03*
X205410000Y-153455000D03*
X205410000Y-138215000D03*
%TD*%
D26*
%TO.C,J5*%
X113137500Y-99240000D03*
D27*
X110597500Y-99240000D03*
X113137500Y-96700000D03*
X110597500Y-96700000D03*
X113137500Y-94160000D03*
X110597500Y-94160000D03*
X113137500Y-91620000D03*
X110597500Y-91620000D03*
X113137500Y-89080000D03*
X110597500Y-89080000D03*
%TD*%
D28*
%TO.C,U3*%
X125350000Y-74740000D03*
D11*
X127890000Y-74740000D03*
X130430000Y-74740000D03*
%TD*%
D12*
%TO.C,J11*%
X141190000Y-57390000D03*
D13*
X138690000Y-57390000D03*
%TD*%
D19*
%TO.C,H3*%
X103940000Y-54740000D03*
%TD*%
D11*
%TO.C,U7*%
X172130000Y-105470000D03*
X179750000Y-105470000D03*
X172130000Y-102930000D03*
X179750000Y-110550000D03*
X179750000Y-108010000D03*
X172130000Y-110550000D03*
X172130000Y-108010000D03*
X179750000Y-102930000D03*
%TD*%
D21*
%TO.C,SW2*%
X192880000Y-125632500D03*
D22*
X192880000Y-128132500D03*
X192880000Y-130632500D03*
X189580000Y-125632500D03*
X189580000Y-128132500D03*
X189580000Y-130632500D03*
%TD*%
D20*
%TO.C,J6*%
X112440000Y-162090000D03*
D13*
X114940000Y-162090000D03*
X117440000Y-162090000D03*
X119940000Y-162090000D03*
X122440000Y-162090000D03*
%TD*%
D21*
%TO.C,SW16*%
X121590000Y-103740000D03*
D22*
X121590000Y-106240000D03*
X121590000Y-108740000D03*
X118290000Y-103740000D03*
X118290000Y-106240000D03*
X118290000Y-108740000D03*
%TD*%
D14*
%TO.C,TP3*%
X176940000Y-74740000D03*
%TD*%
D22*
%TO.C,J3*%
X103115000Y-72740000D03*
X103115000Y-61740000D03*
D29*
X113115000Y-64740000D03*
D30*
X113115000Y-69740000D03*
%TD*%
D12*
%TO.C,J13*%
X151190000Y-57390000D03*
D13*
X148690000Y-57390000D03*
%TD*%
D19*
%TO.C,H5*%
X203940000Y-164740000D03*
%TD*%
D20*
%TO.C,J8*%
X148440000Y-162090000D03*
D13*
X150940000Y-162090000D03*
X153440000Y-162090000D03*
X155940000Y-162090000D03*
X158440000Y-162090000D03*
%TD*%
D31*
%TO.C,SW1*%
X110940000Y-137870000D03*
D27*
X110940000Y-135330000D03*
X110940000Y-132790000D03*
X110940000Y-140410000D03*
X110940000Y-130250000D03*
%TD*%
D32*
%TO.C,LS1*%
X186340000Y-91740000D03*
D14*
X186340000Y-84140000D03*
%TD*%
D10*
%TO.C,SW11*%
X122480000Y-139330000D03*
D11*
X119940000Y-139330000D03*
X117400000Y-139330000D03*
%TD*%
D33*
%TO.C,U9*%
X189050000Y-76757000D03*
D34*
X191590000Y-76757000D03*
X194130000Y-76757000D03*
X196670000Y-76757000D03*
X199210000Y-76757000D03*
X201750000Y-76757000D03*
X204290000Y-76757000D03*
X206830000Y-76757000D03*
X206830000Y-58723000D03*
X204290000Y-58723000D03*
X201750000Y-58723000D03*
X199210000Y-58723000D03*
X196670000Y-58723000D03*
X194130000Y-58723000D03*
X191590000Y-58723000D03*
X189050000Y-58723000D03*
%TD*%
D35*
%TO.C,U5*%
X161048579Y-138544012D03*
%TD*%
D36*
%TO.C,C19*%
X130680000Y-101240000D03*
X135680000Y-101240000D03*
%TD*%
D10*
%TO.C,SW7*%
X122480000Y-131330000D03*
D11*
X119940000Y-131330000D03*
X117400000Y-131330000D03*
%TD*%
D20*
%TO.C,J9*%
X166440000Y-162090000D03*
D13*
X168940000Y-162090000D03*
X171440000Y-162090000D03*
X173940000Y-162090000D03*
X176440000Y-162090000D03*
%TD*%
D10*
%TO.C,SW3*%
X206480000Y-158740000D03*
D11*
X203940000Y-158740000D03*
X201400000Y-158740000D03*
%TD*%
%TO.C,J4*%
X112630000Y-110240000D03*
X112630000Y-117860000D03*
D25*
X112630000Y-125480000D03*
D11*
X112630000Y-115320000D03*
X112630000Y-120400000D03*
X112630000Y-122940000D03*
X112630000Y-112780000D03*
X105010000Y-125480000D03*
X105010000Y-110240000D03*
X102470000Y-125480000D03*
X102470000Y-110240000D03*
%TD*%
D12*
%TO.C,J15*%
X171190000Y-57390001D03*
D13*
X168690000Y-57390001D03*
%TD*%
D15*
%TO.C,J2*%
X198040000Y-132890000D03*
D16*
X198040000Y-130350000D03*
X198040000Y-127810000D03*
X198040000Y-125270000D03*
X198040000Y-122730000D03*
X198040000Y-120190000D03*
X198040000Y-117650000D03*
%TD*%
D37*
%TO.C,R2*%
X197940000Y-150152500D03*
X197940000Y-148327500D03*
%TD*%
D38*
%TO.C,JP2*%
X205440000Y-104465000D03*
D39*
X205440000Y-103015000D03*
%TD*%
D40*
%TO.C,D7*%
X137790000Y-93240000D03*
X141090000Y-93240000D03*
%TD*%
D41*
%TO.C,JP6*%
X152715000Y-165240000D03*
D42*
X154165000Y-165240000D03*
%TD*%
D37*
%TO.C,R5*%
X109940000Y-113867500D03*
X109940000Y-112042500D03*
%TD*%
D32*
%TO.C,H1*%
X203940000Y-145740000D03*
%TD*%
D43*
%TO.C,R44*%
X174440000Y-104082224D03*
X174440000Y-105907224D03*
%TD*%
D37*
%TO.C,R1*%
X197962500Y-153652500D03*
X197962500Y-151827500D03*
%TD*%
D44*
%TO.C,C1*%
X197940000Y-140277500D03*
X197940000Y-138202500D03*
%TD*%
D45*
%TO.C,C11*%
X126902500Y-77240000D03*
X128977500Y-77240000D03*
%TD*%
D46*
%TO.C,C5*%
X109940000Y-123417500D03*
X109940000Y-125492500D03*
%TD*%
D41*
%TO.C,JP4*%
X116715000Y-165240000D03*
D42*
X118165000Y-165240000D03*
%TD*%
D32*
%TO.C,H2*%
X203940000Y-128740000D03*
%TD*%
D40*
%TO.C,D5*%
X126240000Y-79740000D03*
X129540000Y-79740000D03*
%TD*%
D47*
%TO.C,D2*%
X120090000Y-69890000D03*
X120090000Y-66590000D03*
%TD*%
D43*
%TO.C,R45*%
X174440000Y-107582224D03*
X174440000Y-109407224D03*
%TD*%
D41*
%TO.C,JP7*%
X170715000Y-165240000D03*
D42*
X172165000Y-165240000D03*
%TD*%
D37*
%TO.C,R7*%
X109940000Y-117367500D03*
X109940000Y-115542500D03*
%TD*%
D48*
%TO.C,Q7*%
X140740000Y-87040000D03*
X142640000Y-87040000D03*
X141690000Y-90340000D03*
%TD*%
%TO.C,Q10*%
X138640000Y-90340000D03*
X136740000Y-90340000D03*
X137690000Y-87040000D03*
%TD*%
D41*
%TO.C,JP5*%
X134715000Y-165240000D03*
D42*
X136165000Y-165240000D03*
%TD*%
M02*
