%TF.GenerationSoftware,KiCad,Pcbnew,(6.0.11)*%
%TF.CreationDate,2023-09-12T01:08:27+09:00*%
%TF.ProjectId,Main,4d61696e-2e6b-4696-9361-645f70636258,rev?*%
%TF.SameCoordinates,Original*%
%TF.FileFunction,Paste,Top*%
%TF.FilePolarity,Positive*%
%FSLAX46Y46*%
G04 Gerber Fmt 4.6, Leading zero omitted, Abs format (unit mm)*
G04 Created by KiCad (PCBNEW (6.0.11)) date 2023-09-12 01:08:27*
%MOMM*%
%LPD*%
G01*
G04 APERTURE LIST*
G04 Aperture macros list*
%AMRoundRect*
0 Rectangle with rounded corners*
0 $1 Rounding radius*
0 $2 $3 $4 $5 $6 $7 $8 $9 X,Y pos of 4 corners*
0 Add a 4 corners polygon primitive as box body*
4,1,4,$2,$3,$4,$5,$6,$7,$8,$9,$2,$3,0*
0 Add four circle primitives for the rounded corners*
1,1,$1+$1,$2,$3*
1,1,$1+$1,$4,$5*
1,1,$1+$1,$6,$7*
1,1,$1+$1,$8,$9*
0 Add four rect primitives between the rounded corners*
20,1,$1+$1,$2,$3,$4,$5,0*
20,1,$1+$1,$4,$5,$6,$7,0*
20,1,$1+$1,$6,$7,$8,$9,0*
20,1,$1+$1,$8,$9,$2,$3,0*%
%AMHorizOval*
0 Thick line with rounded ends*
0 $1 width*
0 $2 $3 position (X,Y) of the first rounded end (center of the circle)*
0 $4 $5 position (X,Y) of the second rounded end (center of the circle)*
0 Add line between two ends*
20,1,$1,$2,$3,$4,$5,0*
0 Add two circle primitives to create the rounded ends*
1,1,$1,$2,$3*
1,1,$1,$4,$5*%
G04 Aperture macros list end*
%ADD10RoundRect,0.135000X-0.185000X0.135000X-0.185000X-0.135000X0.185000X-0.135000X0.185000X0.135000X0*%
%ADD11RoundRect,0.140000X-0.140000X-0.170000X0.140000X-0.170000X0.140000X0.170000X-0.140000X0.170000X0*%
%ADD12RoundRect,0.140000X-0.219203X-0.021213X-0.021213X-0.219203X0.219203X0.021213X0.021213X0.219203X0*%
%ADD13R,0.800000X1.900000*%
%ADD14RoundRect,0.135000X-0.135000X-0.185000X0.135000X-0.185000X0.135000X0.185000X-0.135000X0.185000X0*%
%ADD15RoundRect,0.140000X0.140000X0.170000X-0.140000X0.170000X-0.140000X-0.170000X0.140000X-0.170000X0*%
%ADD16RoundRect,0.135000X0.135000X0.185000X-0.135000X0.185000X-0.135000X-0.185000X0.135000X-0.185000X0*%
%ADD17RoundRect,0.140000X-0.170000X0.140000X-0.170000X-0.140000X0.170000X-0.140000X0.170000X0.140000X0*%
%ADD18R,1.600000X1.400000*%
%ADD19RoundRect,0.237500X-0.250000X-0.237500X0.250000X-0.237500X0.250000X0.237500X-0.250000X0.237500X0*%
%ADD20RoundRect,0.135000X0.185000X-0.135000X0.185000X0.135000X-0.185000X0.135000X-0.185000X-0.135000X0*%
%ADD21RoundRect,0.250001X-0.799999X1.999999X-0.799999X-1.999999X0.799999X-1.999999X0.799999X1.999999X0*%
%ADD22RoundRect,0.140000X0.170000X-0.140000X0.170000X0.140000X-0.170000X0.140000X-0.170000X-0.140000X0*%
%ADD23R,0.620000X0.575000*%
%ADD24RoundRect,0.250001X-1.999999X-0.799999X1.999999X-0.799999X1.999999X0.799999X-1.999999X0.799999X0*%
%ADD25RoundRect,0.237500X-0.287500X-0.237500X0.287500X-0.237500X0.287500X0.237500X-0.287500X0.237500X0*%
%ADD26RoundRect,0.237500X-0.237500X0.250000X-0.237500X-0.250000X0.237500X-0.250000X0.237500X0.250000X0*%
%ADD27RoundRect,0.237500X0.237500X-0.250000X0.237500X0.250000X-0.237500X0.250000X-0.237500X-0.250000X0*%
%ADD28RoundRect,0.140000X0.021213X-0.219203X0.219203X-0.021213X-0.021213X0.219203X-0.219203X0.021213X0*%
%ADD29RoundRect,0.237500X0.250000X0.237500X-0.250000X0.237500X-0.250000X-0.237500X0.250000X-0.237500X0*%
%ADD30RoundRect,0.250001X0.799999X-1.999999X0.799999X1.999999X-0.799999X1.999999X-0.799999X-1.999999X0*%
%ADD31RoundRect,0.237500X0.287500X0.237500X-0.287500X0.237500X-0.287500X-0.237500X0.287500X-0.237500X0*%
%ADD32RoundRect,0.140000X-0.021213X0.219203X-0.219203X0.021213X0.021213X-0.219203X0.219203X-0.021213X0*%
%ADD33RoundRect,0.140000X0.219203X0.021213X0.021213X0.219203X-0.219203X-0.021213X-0.021213X-0.219203X0*%
%ADD34R,2.750000X3.050000*%
%ADD35R,1.200000X2.200000*%
%ADD36R,1.800000X0.800000*%
%ADD37R,0.800000X1.800000*%
%ADD38R,3.400000X2.600000*%
%ADD39R,1.500000X2.000000*%
%ADD40R,0.300000X1.400000*%
%ADD41R,1.400000X1.600000*%
%ADD42RoundRect,0.075000X-0.548008X0.441942X0.441942X-0.548008X0.548008X-0.441942X-0.441942X0.548008X0*%
%ADD43RoundRect,0.075000X-0.548008X-0.441942X-0.441942X-0.548008X0.548008X0.441942X0.441942X0.548008X0*%
%ADD44RoundRect,0.150000X-0.150000X0.675000X-0.150000X-0.675000X0.150000X-0.675000X0.150000X0.675000X0*%
%ADD45R,0.575000X0.620000*%
%ADD46RoundRect,0.250000X0.574524X0.097227X0.097227X0.574524X-0.574524X-0.097227X-0.097227X-0.574524X0*%
%ADD47HorizOval,0.900000X-0.176777X0.176777X0.176777X-0.176777X0*%
%ADD48HorizOval,0.900000X0.176777X0.176777X-0.176777X-0.176777X0*%
%ADD49HorizOval,0.900000X0.106066X0.106066X-0.106066X-0.106066X0*%
%ADD50RoundRect,0.250000X-0.337500X-0.475000X0.337500X-0.475000X0.337500X0.475000X-0.337500X0.475000X0*%
%ADD51RoundRect,0.150000X-0.675000X-0.150000X0.675000X-0.150000X0.675000X0.150000X-0.675000X0.150000X0*%
G04 APERTURE END LIST*
D10*
%TO.C,R47*%
X125210000Y-134860000D03*
X125210000Y-135880000D03*
%TD*%
D11*
%TO.C,C2*%
X191450000Y-139340000D03*
X192410000Y-139340000D03*
%TD*%
D12*
%TO.C,C27*%
X154764499Y-106216786D03*
X155443321Y-106895608D03*
%TD*%
D10*
%TO.C,R26*%
X128680000Y-96230000D03*
X128680000Y-97250000D03*
%TD*%
D13*
%TO.C,Q6*%
X175390000Y-138740000D03*
X173490000Y-138740000D03*
X174440000Y-141740000D03*
%TD*%
D14*
%TO.C,R56*%
X180430000Y-60740000D03*
X181450000Y-60740000D03*
%TD*%
D15*
%TO.C,C35*%
X114488656Y-159352000D03*
X113528656Y-159352000D03*
%TD*%
%TO.C,C37*%
X150420000Y-159240000D03*
X149460000Y-159240000D03*
%TD*%
D16*
%TO.C,R46*%
X120450000Y-144330000D03*
X119430000Y-144330000D03*
%TD*%
D17*
%TO.C,C7*%
X115830000Y-117952164D03*
X115830000Y-118912164D03*
%TD*%
D18*
%TO.C,SW4*%
X166590000Y-149420000D03*
X174590000Y-149420000D03*
X166590000Y-153920000D03*
X174590000Y-153920000D03*
%TD*%
D19*
%TO.C,R74*%
X173115000Y-124240000D03*
X174940000Y-124240000D03*
%TD*%
D13*
%TO.C,Q16*%
X177890000Y-62740000D03*
X175990000Y-62740000D03*
X176940000Y-65740000D03*
%TD*%
D16*
%TO.C,R49*%
X129450000Y-144330000D03*
X128430000Y-144330000D03*
%TD*%
D14*
%TO.C,R8*%
X103930000Y-131830000D03*
X104950000Y-131830000D03*
%TD*%
D15*
%TO.C,C33*%
X129420000Y-152330000D03*
X128460000Y-152330000D03*
%TD*%
D19*
%TO.C,R78*%
X180027500Y-125240000D03*
X181852500Y-125240000D03*
%TD*%
D20*
%TO.C,R33*%
X176940000Y-153750000D03*
X176940000Y-152730000D03*
%TD*%
D21*
%TO.C,C14*%
X145940000Y-75140000D03*
X145940000Y-82340000D03*
%TD*%
D22*
%TO.C,C34*%
X151170000Y-149010000D03*
X151170000Y-148050000D03*
%TD*%
D23*
%TO.C,Q11*%
X134230000Y-98628000D03*
X135180000Y-98628000D03*
X136130000Y-98628000D03*
X136130000Y-95852000D03*
X135180000Y-95852000D03*
X134230000Y-95852000D03*
%TD*%
D14*
%TO.C,R51*%
X130430000Y-138330000D03*
X131450000Y-138330000D03*
%TD*%
%TO.C,R42*%
X180225000Y-140240000D03*
X181245000Y-140240000D03*
%TD*%
D20*
%TO.C,R23*%
X177140000Y-140750000D03*
X177140000Y-139730000D03*
%TD*%
D23*
%TO.C,Q18*%
X133990000Y-159240000D03*
X134940000Y-159240000D03*
X135890000Y-159240000D03*
X135890000Y-156464000D03*
X134940000Y-156464000D03*
X133990000Y-156464000D03*
%TD*%
D16*
%TO.C,R12*%
X104950000Y-138830000D03*
X103930000Y-138830000D03*
%TD*%
D24*
%TO.C,C9*%
X124489998Y-61740000D03*
X131689998Y-61740000D03*
%TD*%
D11*
%TO.C,C23*%
X151460000Y-122740000D03*
X152420000Y-122740000D03*
%TD*%
D25*
%TO.C,D16*%
X127065000Y-138330000D03*
X128815000Y-138330000D03*
%TD*%
D20*
%TO.C,R21*%
X166440000Y-152250000D03*
X166440000Y-151230000D03*
%TD*%
D26*
%TO.C,R11*%
X116240000Y-85327500D03*
X116240000Y-87152500D03*
%TD*%
D27*
%TO.C,R55*%
X151170000Y-146442500D03*
X151170000Y-144617500D03*
%TD*%
D25*
%TO.C,D13*%
X179860000Y-142040000D03*
X181610000Y-142040000D03*
%TD*%
D28*
%TO.C,C30*%
X144800589Y-110379411D03*
X145479411Y-109700589D03*
%TD*%
D20*
%TO.C,R59*%
X137400000Y-158362000D03*
X137400000Y-157342000D03*
%TD*%
D15*
%TO.C,C36*%
X132440000Y-159240000D03*
X131480000Y-159240000D03*
%TD*%
D16*
%TO.C,R28*%
X140450000Y-80680000D03*
X139430000Y-80680000D03*
%TD*%
D17*
%TO.C,C32*%
X169440000Y-103700000D03*
X169440000Y-104660000D03*
%TD*%
D28*
%TO.C,C24*%
X167013223Y-139493223D03*
X167692045Y-138814401D03*
%TD*%
D20*
%TO.C,R64*%
X172850000Y-158362000D03*
X172850000Y-157342000D03*
%TD*%
D14*
%TO.C,R38*%
X110430000Y-144180000D03*
X111450000Y-144180000D03*
%TD*%
%TO.C,R41*%
X154122718Y-95240000D03*
X155142718Y-95240000D03*
%TD*%
D13*
%TO.C,Q13*%
X175890000Y-89240000D03*
X177790000Y-89240000D03*
X176840000Y-86240000D03*
%TD*%
D14*
%TO.C,R57*%
X176430000Y-60740000D03*
X177450000Y-60740000D03*
%TD*%
D29*
%TO.C,R75*%
X180352500Y-117240000D03*
X178527500Y-117240000D03*
%TD*%
D15*
%TO.C,C8*%
X112320000Y-101140000D03*
X111360000Y-101140000D03*
%TD*%
D13*
%TO.C,Q23*%
X164990000Y-67240000D03*
X166890000Y-67240000D03*
X165940000Y-64240000D03*
%TD*%
D27*
%TO.C,R62*%
X143170000Y-147442500D03*
X143170000Y-145617500D03*
%TD*%
D30*
%TO.C,C10*%
X140940000Y-71340000D03*
X140940000Y-64140000D03*
%TD*%
D31*
%TO.C,D10*%
X168815000Y-78010000D03*
X167065000Y-78010000D03*
%TD*%
D32*
%TO.C,C22*%
X160219411Y-116440589D03*
X159540589Y-117119411D03*
%TD*%
D20*
%TO.C,R30*%
X176940000Y-146103641D03*
X176940000Y-145083641D03*
%TD*%
D14*
%TO.C,R39*%
X130340000Y-131330000D03*
X131360000Y-131330000D03*
%TD*%
D11*
%TO.C,C21*%
X151460000Y-105740000D03*
X152420000Y-105740000D03*
%TD*%
D31*
%TO.C,D1*%
X191805000Y-150420000D03*
X190055000Y-150420000D03*
%TD*%
D20*
%TO.C,R58*%
X119390000Y-158473500D03*
X119390000Y-157453500D03*
%TD*%
D14*
%TO.C,R53*%
X172330000Y-91240000D03*
X173350000Y-91240000D03*
%TD*%
D20*
%TO.C,R32*%
X176940000Y-151250000D03*
X176940000Y-150230000D03*
%TD*%
D33*
%TO.C,C28*%
X144279411Y-117579411D03*
X143600589Y-116900589D03*
%TD*%
D15*
%TO.C,C38*%
X167940000Y-159240000D03*
X166980000Y-159240000D03*
%TD*%
D11*
%TO.C,C15*%
X133140000Y-71510000D03*
X134100000Y-71510000D03*
%TD*%
D25*
%TO.C,D15*%
X127065000Y-136330000D03*
X128815000Y-136330000D03*
%TD*%
D31*
%TO.C,D8*%
X168815000Y-74010000D03*
X167065000Y-74010000D03*
%TD*%
D13*
%TO.C,Q12*%
X171890000Y-89240000D03*
X173790000Y-89240000D03*
X172840000Y-86240000D03*
%TD*%
D23*
%TO.C,Q1*%
X117440000Y-71128000D03*
X118390000Y-71128000D03*
X119340000Y-71128000D03*
X119340000Y-68352000D03*
X118390000Y-68352000D03*
X117440000Y-68352000D03*
%TD*%
D14*
%TO.C,R43*%
X184600000Y-140240000D03*
X185620000Y-140240000D03*
%TD*%
D16*
%TO.C,R52*%
X177350000Y-91240000D03*
X176330000Y-91240000D03*
%TD*%
D14*
%TO.C,R4*%
X120930000Y-72740000D03*
X121950000Y-72740000D03*
%TD*%
D19*
%TO.C,R17*%
X143527500Y-87796585D03*
X145352500Y-87796585D03*
%TD*%
D16*
%TO.C,R18*%
X140450000Y-82740000D03*
X139430000Y-82740000D03*
%TD*%
D30*
%TO.C,C17*%
X161040000Y-93340000D03*
X161040000Y-86140000D03*
%TD*%
D10*
%TO.C,R40*%
X125210000Y-130820000D03*
X125210000Y-131840000D03*
%TD*%
D34*
%TO.C,U4*%
X140915000Y-95165000D03*
X143965000Y-95165000D03*
X143965000Y-98515000D03*
X140915000Y-98515000D03*
D35*
X144720000Y-90540000D03*
X142440000Y-90540000D03*
X140160000Y-90540000D03*
%TD*%
D21*
%TO.C,C16*%
X151040000Y-86140000D03*
X151040000Y-93340000D03*
%TD*%
D15*
%TO.C,C31*%
X120420000Y-152330000D03*
X119460000Y-152330000D03*
%TD*%
D26*
%TO.C,R54*%
X144170000Y-138617500D03*
X144170000Y-140442500D03*
%TD*%
D23*
%TO.C,Q4*%
X192380000Y-135202000D03*
X191430000Y-135202000D03*
X190480000Y-135202000D03*
X190480000Y-137978000D03*
X191430000Y-137978000D03*
X192380000Y-137978000D03*
%TD*%
D14*
%TO.C,R19*%
X172930000Y-136740000D03*
X173950000Y-136740000D03*
%TD*%
D25*
%TO.C,D12*%
X127065000Y-131330000D03*
X128815000Y-131330000D03*
%TD*%
D14*
%TO.C,R6*%
X119680000Y-66740000D03*
X120700000Y-66740000D03*
%TD*%
D23*
%TO.C,Q5*%
X186980000Y-137978000D03*
X187930000Y-137978000D03*
X188880000Y-137978000D03*
X188880000Y-135202000D03*
X187930000Y-135202000D03*
X186980000Y-135202000D03*
%TD*%
D20*
%TO.C,R31*%
X176940000Y-148750000D03*
X176940000Y-147730000D03*
%TD*%
D14*
%TO.C,R14*%
X189285000Y-139340000D03*
X190305000Y-139340000D03*
%TD*%
D23*
%TO.C,Q3*%
X122840000Y-68352000D03*
X121890000Y-68352000D03*
X120940000Y-68352000D03*
X120940000Y-71128000D03*
X121890000Y-71128000D03*
X122840000Y-71128000D03*
%TD*%
D36*
%TO.C,Q26*%
X172290000Y-120290000D03*
X172290000Y-122190000D03*
X175590000Y-121240000D03*
%TD*%
D11*
%TO.C,C39*%
X189150000Y-79220000D03*
X190110000Y-79220000D03*
%TD*%
D14*
%TO.C,R73*%
X184430000Y-73240000D03*
X185450000Y-73240000D03*
%TD*%
D16*
%TO.C,R65*%
X158450000Y-69240000D03*
X157430000Y-69240000D03*
%TD*%
D25*
%TO.C,D14*%
X184235000Y-142040000D03*
X185985000Y-142040000D03*
%TD*%
D16*
%TO.C,R15*%
X134140000Y-69990000D03*
X133120000Y-69990000D03*
%TD*%
%TO.C,R27*%
X140450000Y-81710000D03*
X139430000Y-81710000D03*
%TD*%
D37*
%TO.C,Q14*%
X148120000Y-137880000D03*
X146220000Y-137880000D03*
X147170000Y-141180000D03*
%TD*%
D38*
%TO.C,D4*%
X128650000Y-69740000D03*
D39*
X125430000Y-69740000D03*
%TD*%
D11*
%TO.C,C6*%
X119100000Y-116650000D03*
X120060000Y-116650000D03*
%TD*%
D40*
%TO.C,U2*%
X117440000Y-122740000D03*
X117940000Y-122740000D03*
X118440000Y-122740000D03*
X118940000Y-122740000D03*
X119440000Y-122740000D03*
X119440000Y-118340000D03*
X118940000Y-118340000D03*
X118440000Y-118340000D03*
X117940000Y-118340000D03*
X117440000Y-118340000D03*
%TD*%
D26*
%TO.C,R10*%
X116240000Y-81827500D03*
X116240000Y-83652500D03*
%TD*%
D41*
%TO.C,SW9*%
X117690000Y-144330000D03*
X117690000Y-152330000D03*
X122190000Y-152330000D03*
X122190000Y-144330000D03*
%TD*%
D16*
%TO.C,R35*%
X165450000Y-76010000D03*
X164430000Y-76010000D03*
%TD*%
D14*
%TO.C,R69*%
X157430000Y-62240000D03*
X158450000Y-62240000D03*
%TD*%
D15*
%TO.C,C26*%
X111420000Y-152330000D03*
X110460000Y-152330000D03*
%TD*%
D16*
%TO.C,R66*%
X162450000Y-69240000D03*
X161430000Y-69240000D03*
%TD*%
D42*
%TO.C,U6*%
X150578819Y-107575519D03*
X150225266Y-107929072D03*
X149871713Y-108282625D03*
X149518159Y-108636179D03*
X149164606Y-108989732D03*
X148811052Y-109343286D03*
X148457499Y-109696839D03*
X148103946Y-110050392D03*
X147750392Y-110403946D03*
X147396839Y-110757499D03*
X147043286Y-111111052D03*
X146689732Y-111464606D03*
X146336179Y-111818159D03*
X145982625Y-112171713D03*
X145629072Y-112525266D03*
X145275519Y-112878819D03*
D43*
X145275519Y-115601181D03*
X145629072Y-115954734D03*
X145982625Y-116308287D03*
X146336179Y-116661841D03*
X146689732Y-117015394D03*
X147043286Y-117368948D03*
X147396839Y-117722501D03*
X147750392Y-118076054D03*
X148103946Y-118429608D03*
X148457499Y-118783161D03*
X148811052Y-119136714D03*
X149164606Y-119490268D03*
X149518159Y-119843821D03*
X149871713Y-120197375D03*
X150225266Y-120550928D03*
X150578819Y-120904481D03*
D42*
X153301181Y-120904481D03*
X153654734Y-120550928D03*
X154008287Y-120197375D03*
X154361841Y-119843821D03*
X154715394Y-119490268D03*
X155068948Y-119136714D03*
X155422501Y-118783161D03*
X155776054Y-118429608D03*
X156129608Y-118076054D03*
X156483161Y-117722501D03*
X156836714Y-117368948D03*
X157190268Y-117015394D03*
X157543821Y-116661841D03*
X157897375Y-116308287D03*
X158250928Y-115954734D03*
X158604481Y-115601181D03*
D43*
X158604481Y-112878819D03*
X158250928Y-112525266D03*
X157897375Y-112171713D03*
X157543821Y-111818159D03*
X157190268Y-111464606D03*
X156836714Y-111111052D03*
X156483161Y-110757499D03*
X156129608Y-110403946D03*
X155776054Y-110050392D03*
X155422501Y-109696839D03*
X155068948Y-109343286D03*
X154715394Y-108989732D03*
X154361841Y-108636179D03*
X154008287Y-108282625D03*
X153654734Y-107929072D03*
X153301181Y-107575519D03*
%TD*%
D10*
%TO.C,R29*%
X143530000Y-85313641D03*
X143530000Y-86333641D03*
%TD*%
D40*
%TO.C,U1*%
X189940000Y-145940000D03*
X190440000Y-145940000D03*
X190940000Y-145940000D03*
X191440000Y-145940000D03*
X191940000Y-145940000D03*
X191940000Y-141540000D03*
X191440000Y-141540000D03*
X190940000Y-141540000D03*
X190440000Y-141540000D03*
X189940000Y-141540000D03*
%TD*%
D44*
%TO.C,U8*%
X149075000Y-143905000D03*
X147805000Y-143905000D03*
X146535000Y-143905000D03*
X145265000Y-143905000D03*
X145265000Y-149155000D03*
X146535000Y-149155000D03*
X147805000Y-149155000D03*
X149075000Y-149155000D03*
%TD*%
D16*
%TO.C,R22*%
X175950000Y-136740000D03*
X174930000Y-136740000D03*
%TD*%
D17*
%TO.C,C25*%
X137800000Y-96760000D03*
X137800000Y-97720000D03*
%TD*%
D16*
%TO.C,R37*%
X165450000Y-80010000D03*
X164430000Y-80010000D03*
%TD*%
D23*
%TO.C,Q17*%
X115940000Y-159351500D03*
X116890000Y-159351500D03*
X117840000Y-159351500D03*
X117840000Y-156575500D03*
X116890000Y-156575500D03*
X115940000Y-156575500D03*
%TD*%
D16*
%TO.C,R67*%
X166450000Y-69240000D03*
X165430000Y-69240000D03*
%TD*%
D10*
%TO.C,R24*%
X127180000Y-96230000D03*
X127180000Y-97250000D03*
%TD*%
D27*
%TO.C,R77*%
X185940000Y-120452500D03*
X185940000Y-118627500D03*
%TD*%
D31*
%TO.C,D3*%
X125840000Y-120540000D03*
X124090000Y-120540000D03*
%TD*%
D14*
%TO.C,R3*%
X190410000Y-148540000D03*
X191430000Y-148540000D03*
%TD*%
D41*
%TO.C,SW12*%
X126690000Y-144330000D03*
X126690000Y-152330000D03*
X131190000Y-144330000D03*
X131190000Y-152330000D03*
%TD*%
D19*
%TO.C,R20*%
X156527500Y-95240000D03*
X158352500Y-95240000D03*
%TD*%
D20*
%TO.C,R63*%
X155290000Y-158362000D03*
X155290000Y-157342000D03*
%TD*%
D17*
%TO.C,C3*%
X188440000Y-141260000D03*
X188440000Y-142220000D03*
%TD*%
D16*
%TO.C,R25*%
X140450000Y-79620000D03*
X139430000Y-79620000D03*
%TD*%
D21*
%TO.C,C12*%
X155940000Y-75140000D03*
X155940000Y-82340000D03*
%TD*%
D16*
%TO.C,R34*%
X165450000Y-74010000D03*
X164430000Y-74010000D03*
%TD*%
%TO.C,R9*%
X122450000Y-120540000D03*
X121430000Y-120540000D03*
%TD*%
D11*
%TO.C,C20*%
X140960000Y-88240000D03*
X141920000Y-88240000D03*
%TD*%
D16*
%TO.C,R36*%
X165450000Y-78010000D03*
X164430000Y-78010000D03*
%TD*%
D19*
%TO.C,R60*%
X144527500Y-151530000D03*
X146352500Y-151530000D03*
%TD*%
D31*
%TO.C,D9*%
X168815000Y-76010000D03*
X167065000Y-76010000D03*
%TD*%
D19*
%TO.C,R16*%
X132647500Y-68150000D03*
X134472500Y-68150000D03*
%TD*%
D23*
%TO.C,Q19*%
X151880000Y-159240000D03*
X152830000Y-159240000D03*
X153780000Y-159240000D03*
X153780000Y-156464000D03*
X152830000Y-156464000D03*
X151880000Y-156464000D03*
%TD*%
D31*
%TO.C,D11*%
X168815000Y-80010000D03*
X167065000Y-80010000D03*
%TD*%
D45*
%TO.C,Q9*%
X139302000Y-84790000D03*
X139302000Y-85740000D03*
X139302000Y-86690000D03*
X142078000Y-86690000D03*
X142078000Y-85740000D03*
X142078000Y-84790000D03*
%TD*%
D14*
%TO.C,R72*%
X169430000Y-62240000D03*
X170450000Y-62240000D03*
%TD*%
D30*
%TO.C,C13*%
X150940000Y-71340000D03*
X150940000Y-64140000D03*
%TD*%
D13*
%TO.C,Q24*%
X168990000Y-67240000D03*
X170890000Y-67240000D03*
X169940000Y-64240000D03*
%TD*%
%TO.C,Q21*%
X156990000Y-67240000D03*
X158890000Y-67240000D03*
X157940000Y-64240000D03*
%TD*%
D46*
%TO.C,C29*%
X149973623Y-123773623D03*
X148506377Y-122306377D03*
%TD*%
D47*
%TO.C,U5*%
X162809275Y-141075454D03*
X163707300Y-140177428D03*
X164605326Y-139279403D03*
X165503351Y-138381377D03*
X166401377Y-137483351D03*
X167299403Y-136585326D03*
X168197428Y-135687300D03*
X169095454Y-134789275D03*
D48*
X169095454Y-131550725D03*
X168197428Y-130652700D03*
X167299403Y-129754674D03*
X166401377Y-128856649D03*
X165503351Y-127958623D03*
X164605326Y-127060597D03*
X163707300Y-126162572D03*
X162809275Y-125264546D03*
D47*
X159570725Y-125264546D03*
X158672700Y-126162572D03*
X157774674Y-127060597D03*
X156876649Y-127958623D03*
X155978623Y-128856649D03*
X155080597Y-129754674D03*
X154182572Y-130652700D03*
X153284546Y-131550725D03*
D48*
X153284546Y-134789275D03*
X154182572Y-135687300D03*
X155080597Y-136585326D03*
X155978623Y-137483351D03*
X156876649Y-138381377D03*
X157774674Y-139279403D03*
D49*
X158601989Y-140248139D03*
X159500015Y-141146164D03*
%TD*%
D13*
%TO.C,Q2*%
X103490000Y-136830000D03*
X105390000Y-136830000D03*
X104440000Y-133830000D03*
%TD*%
D50*
%TO.C,C4*%
X118402500Y-64740000D03*
X120477500Y-64740000D03*
%TD*%
D51*
%TO.C,U10*%
X178315000Y-119335000D03*
X178315000Y-120605000D03*
X178315000Y-121875000D03*
X178315000Y-123145000D03*
X183565000Y-123145000D03*
X183565000Y-121875000D03*
X183565000Y-120605000D03*
X183565000Y-119335000D03*
%TD*%
D14*
%TO.C,R50*%
X130430000Y-136330000D03*
X131450000Y-136330000D03*
%TD*%
D45*
%TO.C,Q25*%
X186328000Y-76690000D03*
X186328000Y-75740000D03*
X186328000Y-74790000D03*
X183552000Y-74790000D03*
X183552000Y-75740000D03*
X183552000Y-76690000D03*
%TD*%
D13*
%TO.C,Q22*%
X160990000Y-67240000D03*
X162890000Y-67240000D03*
X161940000Y-64240000D03*
%TD*%
D17*
%TO.C,C18*%
X174740000Y-151260000D03*
X174740000Y-152220000D03*
%TD*%
D27*
%TO.C,R13*%
X122600000Y-66442500D03*
X122600000Y-64617500D03*
%TD*%
D14*
%TO.C,R71*%
X165430000Y-62240000D03*
X166450000Y-62240000D03*
%TD*%
%TO.C,R70*%
X161430000Y-62240000D03*
X162450000Y-62240000D03*
%TD*%
D25*
%TO.C,D6*%
X169715000Y-142040000D03*
X171465000Y-142040000D03*
%TD*%
D15*
%TO.C,C40*%
X182920000Y-117240000D03*
X181960000Y-117240000D03*
%TD*%
D23*
%TO.C,Q20*%
X169440000Y-159240000D03*
X170390000Y-159240000D03*
X171340000Y-159240000D03*
X171340000Y-156464000D03*
X170390000Y-156464000D03*
X169440000Y-156464000D03*
%TD*%
D10*
%TO.C,R48*%
X125210000Y-138820000D03*
X125210000Y-139840000D03*
%TD*%
D27*
%TO.C,R76*%
X185940000Y-123907224D03*
X185940000Y-122082224D03*
%TD*%
D23*
%TO.C,Q8*%
X132130000Y-95852000D03*
X131180000Y-95852000D03*
X130230000Y-95852000D03*
X130230000Y-98628000D03*
X131180000Y-98628000D03*
X132130000Y-98628000D03*
%TD*%
D13*
%TO.C,Q15*%
X181890000Y-62740000D03*
X179990000Y-62740000D03*
X180940000Y-65740000D03*
%TD*%
D19*
%TO.C,R61*%
X148027500Y-151530000D03*
X149852500Y-151530000D03*
%TD*%
D16*
%TO.C,R68*%
X170450000Y-69240000D03*
X169430000Y-69240000D03*
%TD*%
D41*
%TO.C,SW8*%
X113190000Y-144330000D03*
X113190000Y-152330000D03*
X108690000Y-144330000D03*
X108690000Y-152330000D03*
%TD*%
M02*
