M48
; DRILL file {KiCad (6.0.11)} date Tue Sep 12 01:08:27 2023
; FORMAT={-:-/ absolute / inch / decimal}
; #@! TF.CreationDate,2023-09-12T01:08:27+09:00
; #@! TF.GenerationSoftware,Kicad,Pcbnew,(6.0.11)
; #@! TF.FileFunction,Plated,1,2,PTH
FMAT,2
INCH
; #@! TA.AperFunction,Plated,PTH,ViaDrill
T1C0.0118
; #@! TA.AperFunction,Plated,PTH,ViaDrill
T2C0.0157
; #@! TA.AperFunction,Plated,PTH,ViaDrill
T3C0.0236
; #@! TA.AperFunction,Plated,PTH,ComponentDrill
T4C0.0256
; #@! TA.AperFunction,Plated,PTH,ComponentDrill
T5C0.0300
; #@! TA.AperFunction,Plated,PTH,ComponentDrill
T6C0.0315
; #@! TA.AperFunction,Plated,PTH,ComponentDrill
T7C0.0335
; #@! TA.AperFunction,Plated,PTH,ComponentDrill
T8C0.0354
; #@! TA.AperFunction,Plated,PTH,ComponentDrill
T9C0.0394
; #@! TA.AperFunction,Plated,PTH,ComponentDrill
T10C0.0433
; #@! TA.AperFunction,Plated,PTH,ViaDrill
T11C0.0630
; #@! TA.AperFunction,Plated,PTH,ComponentDrill
T12C0.0748
%
G90
G05
T1
X4.0921Y-5.1512
X4.3614Y-4.9902
X4.4307Y-5.0602
X4.5311Y-5.1157
X4.7614Y-2.691
X4.8752Y-2.8535
X5.0449Y-6.2299
X5.1272Y-3.7737
X5.4539Y-3.8874
X5.4543Y-3.7339
X5.4559Y-3.1764
X5.4891Y-6.2693
X5.4937Y-6.2299
X5.5106Y-3.1064
X5.5117Y-4.8582
X5.5492Y-4.4252
X5.5781Y-3.2128
X5.6626Y-4.426
X5.6736Y-6.2323
X5.6866Y-3.4976
X5.7055Y-4.0031
X5.7378Y-4.0409
X5.7423Y-4.3451
X5.7575Y-5.0134
X5.7678Y-4.5351
X5.7705Y-3.5303
X5.8126Y-4.5685
X5.8362Y-3.9425
X5.8378Y-6.2311
X5.8645Y-4.6324
X5.8717Y-4.974
X5.8894Y-4.5961
X5.8898Y-3.5323
X5.9494Y-3.5655
X6.0094Y-3.5409
X6.0841Y-4.3488
X6.1154Y-3.0886
X6.1236Y-4.3902
X6.1303Y-4.1622
X6.1307Y-4.1205
X6.1417Y-5.074
X6.1453Y-4.5098
X6.149Y-4.2784
X6.1551Y-4.5724
X6.1602Y-2.7677
X6.1669Y-6.2335
X6.1709Y-4.4415
X6.1787Y-6.3008
X6.1906Y-4.3087
X6.2Y-3.6224
X6.2004Y-3.0807
X6.2114Y-4.4787
X6.2185Y-2.763
X6.2339Y-4.6236
X6.2654Y-4.3402
X6.274Y-3.0555
X6.274Y-3.3606
X6.2756Y-3.1807
X6.2807Y-6.2335
X6.2914Y-4.411
X6.3031Y-4.3418
X6.3165Y-4.6177
X6.3205Y-6.3323
X6.3453Y-2.9976
X6.3496Y-3.1024
X6.352Y-3.5406
X6.3555Y-3.2756
X6.3559Y-6.3323
X6.3614Y-6.3886
X6.3756Y-2.765
X6.3945Y-6.2343
X6.4179Y-5.3402
X6.4295Y-2.9094
X6.4425Y-5.3835
X6.4433Y-4.3807
X6.5134Y-4.6177
X6.5134Y-5.5173
X6.5343Y-2.7638
X6.5467Y-5.5064
X6.5575Y-6.2331
X6.5587Y-5.8827
X6.5862Y-4.3799
X6.665Y-4.6185
X6.6894Y-2.7591
X6.6913Y-5.272
X6.7228Y-4.3799
X6.752Y-5.4256
X6.7882Y-4.6189
X6.8035Y-5.272
X6.8126Y-4.7732
X6.8169Y-5.5429
X6.9319Y-4.4533
X6.9319Y-4.9626
X6.9346Y-5.0055
X6.9402Y-6.2323
X6.9524Y-4.6146
X6.9622Y-5.2152
X6.9744Y-5.4508
X6.9854Y-5.3602
X7.0291Y-5.2398
X7.0406Y-6.337
X7.0587Y-4.6547
X7.1739Y-5.431
X7.1819Y-6.4823
X7.1961Y-5.4087
X7.2772Y-4.7181
X7.289Y-4.8441
X7.4109Y-5.6308
X7.4362Y-5.4322
X7.4465Y-5.2776
X7.4795Y-5.522
X7.4992Y-2.9827
X7.4992Y-5.326
X7.5133Y-5.521
X7.5189Y-5.6862
X7.5276Y-5.2736
X7.5307Y-5.9835
X7.5669Y-5.8476
X7.5732Y-5.613
X7.5768Y-5.5201
X7.5917Y-2.9846
X7.5978Y-5.7031
X7.613Y-5.5071
X7.887Y-5.078
X7.9567Y-5.0764
T2
X3.9339Y-3.8618
X3.9366Y-4.3543
X3.9378Y-6.1756
X3.9394Y-5.3409
X3.9421Y-4.8634
X3.9441Y-5.7902
X3.9441Y-6.6299
X3.9496Y-2.0087
X3.9496Y-2.4417
X3.9496Y-2.8748
X3.9496Y-3.3866
X4.0335Y-5.1717
X4.0587Y-3.4417
X4.1335Y-4.261
X4.135Y-3.8516
X4.1354Y-4.4197
X4.1354Y-4.861
X4.1465Y-3.563
X4.1724Y-5.0602
X4.176Y-5.7764
X4.1803Y-5.5213
X4.1827Y-3.1114
X4.1835Y-5.2122
X4.2354Y-6.3142
X4.2555Y-3.7059
X4.2587Y-4.8606
X4.2697Y-3.9827
X4.2736Y-4.3461
X4.276Y-4.6854
X4.2992Y-5.4142
X4.3008Y-5.3378
X4.3035Y-3.4256
X4.3071Y-5.2
X4.3087Y-5.0634
X4.311Y-5.5957
X4.3232Y-5.9228
X4.3579Y-5.7287
X4.3717Y-5.6354
X4.374Y-6.6406
X4.3827Y-2.0087
X4.3827Y-2.8748
X4.4016Y-4.0925
X4.4016Y-4.2626
X4.4055Y-3.1051
X4.4091Y-5.8276
X4.4094Y-5.5854
X4.478Y-4.022
X4.4799Y-6.0858
X4.4886Y-5.0024
X4.4984Y-4.6878
X4.4996Y-4.4811
X4.5016Y-5.1567
X4.5197Y-3.8476
X4.5213Y-3.7563
X4.5224Y-5.2906
X4.5232Y-4.9378
X4.5244Y-3.6571
X4.5331Y-6.463
X4.5413Y-5.578
X4.5433Y-5.6929
X4.5524Y-5.9646
X4.5594Y-3.5075
X4.5614Y-5.0689
X4.5646Y-3.1465
X4.5717Y-4.7228
X4.5807Y-4.1673
X4.5846Y-4.5815
X4.585Y-4.0728
X4.5917Y-4.3268
X4.5976Y-3.9705
X4.6071Y-3.8492
X4.622Y-2.6252
X4.6291Y-4.9409
X4.6449Y-3.3047
X4.6551Y-5.2488
X4.6587Y-5.4051
X4.6768Y-5.611
X4.6933Y-3.5555
X4.7028Y-2.8539
X4.7055Y-4.7543
X4.7091Y-3.972
X4.7098Y-3.6575
X4.7138Y-5.8539
X4.7146Y-6.5488
X4.7154Y-6.1138
X4.7193Y-5.9445
X4.7209Y-4.0697
X4.7224Y-5.0913
X4.7228Y-5.748
X4.7256Y-3.8492
X4.7264Y-6.2933
X4.7268Y-4.9177
X4.7291Y-3.7587
X4.7386Y-4.5543
X4.7476Y-2.4602
X4.7764Y-2.0087
X4.7831Y-2.9236
X4.7843Y-5.2484
X4.7843Y-5.561
X4.8106Y-5.6823
X4.8185Y-4.5843
X4.8331Y-4.8165
X4.837Y-4.3366
X4.837Y-6.6402
X4.8382Y-6.2618
X4.8402Y-3.6543
X4.8417Y-3.5441
X4.8457Y-3.7535
X4.8476Y-3.8465
X4.8677Y-6.4882
X4.8693Y-5.1055
X4.8713Y-3.0205
X4.8913Y-4.1988
X4.8917Y-4.0846
X4.9154Y-6.1079
X4.9161Y-5.5713
X4.9224Y-3.9701
X4.9429Y-3.8492
X4.952Y-5.0083
X4.9591Y-4.4335
X4.9606Y-6.2433
X4.9638Y-4.8441
X4.9709Y-2.3366
X4.9717Y-5.2287
X4.9744Y-6.3843
X4.9878Y-3.3252
X4.9882Y-5.3051
X5.0236Y-3.7535
X5.0315Y-4.724
X5.0382Y-3.1673
X5.0461Y-4.3327
X5.0563Y-4.1311
X5.063Y-6.5929
X5.0713Y-5.5598
X5.0752Y-5.735
X5.0787Y-5.9339
X5.0846Y-5.8339
X5.1047Y-6.2516
X5.1083Y-6.076
X5.1142Y-2.6028
X5.1161Y-2.1181
X5.1213Y-3.6583
X5.1213Y-5.3031
X5.128Y-4.5992
X5.1295Y-5.2319
X5.1362Y-2.3272
X5.165Y-5.9972
X5.1669Y-3.1799
X5.1717Y-4.8787
X5.1929Y-4.2669
X5.1929Y-4.4681
X5.1988Y-4.037
X5.1996Y-5.1118
X5.2063Y-3.5634
X5.2094Y-2.0087
X5.2374Y-5.9232
X5.2374Y-6.4917
X5.2453Y-5.5634
X5.2807Y-4.7213
X5.2866Y-6.0807
X5.3059Y-5.0028
X5.3307Y-5.9465
X5.3362Y-4.3976
X5.3366Y-2.8346
X5.3492Y-4.1874
X5.3543Y-3.3945
X5.3591Y-5.3012
X5.361Y-5.572
X5.3661Y-4.5118
X5.3752Y-2.1972
X5.3752Y-5.8413
X5.3827Y-4.6217
X5.3827Y-4.7937
X5.4157Y-3.9898
X5.4331Y-6.1224
X5.4339Y-6.4937
X5.4476Y-3.098
X5.452Y-2.9594
X5.4524Y-2.5921
X5.4626Y-3.4476
X5.4843Y-4.3122
X5.4874Y-4.0933
X5.4959Y-4.6022
X5.5047Y-4.5122
X5.5114Y-2.3953
X5.5154Y-4.6984
X5.5331Y-6.2327
X5.5366Y-6.4622
X5.5425Y-6.1189
X5.5559Y-4.5421
X5.572Y-5.9437
X5.5791Y-5.0811
X5.5858Y-3.9898
X5.5862Y-5.8087
X5.5898Y-5.3661
X5.5936Y-3.3382
X5.5976Y-4.1972
X5.6031Y-2.0087
X5.6098Y-6.3783
X5.6154Y-4.6169
X5.6335Y-5.6453
X5.6398Y-2.5984
X5.6402Y-3.1315
X5.6413Y-3.2701
X5.6547Y-5.8709
X5.6555Y-5.9972
X5.6748Y-6.0543
X5.6886Y-4.0961
X5.6917Y-5.3882
X5.6917Y-5.7953
X5.6957Y-6.6004
X5.6969Y-5.0831
X5.7039Y-2.3051
X5.7165Y-4.2728
X5.7244Y-4.9472
X5.7567Y-5.7402
X5.7736Y-3.7846
X5.774Y-3.6098
X5.7748Y-3.689
X5.7823Y-3.8665
X5.7988Y-4.8673
X5.8059Y-4.2189
X5.8083Y-4.4543
X5.8087Y-5.3394
X5.815Y-5.0717
X5.8193Y-4.9449
X5.826Y-3.1728
X5.8272Y-2.4094
X5.8516Y-6.0913
X5.8531Y-2.5969
X5.8535Y-4.4059
X5.8776Y-3.7358
X5.8819Y-4.1453
X5.8858Y-5.8067
X5.8902Y-3.9071
X5.9157Y-4.9382
X5.9197Y-5.4835
X5.9232Y-5.6343
X5.9248Y-5.0783
X5.9378Y-3.2539
X5.939Y-5.9217
X5.9413Y-4.5063
X5.9449Y-6.489
X5.9457Y-4.3504
X5.9787Y-4.215
X5.9795Y-4.7169
X5.9843Y-4.7815
X5.9878Y-4.6343
X6.0071Y-4.9551
X6.0094Y-4.2906
X6.0094Y-4.8803
X6.0134Y-5.8358
X6.022Y-4.4236
X6.0244Y-3.4331
X6.0295Y-6.0772
X6.037Y-3.6126
X6.0398Y-4.1331
X6.0437Y-5.078
X6.0449Y-2.6157
X6.0492Y-5.4209
X6.0543Y-3.1768
X6.0677Y-5.2398
X6.0756Y-2.0087
X6.0839Y-5.9941
X6.085Y-2.411
X6.0894Y-3.3654
X6.0898Y-4.5118
X6.0953Y-4.6035
X6.1008Y-5.6866
X6.1055Y-3.9189
X6.1075Y-5.9394
X6.1079Y-3.6831
X6.1165Y-4.8346
X6.1177Y-3.5295
X6.1217Y-2.6575
X6.1217Y-4.9524
X6.124Y-4.435
X6.1488Y-6.5709
X6.1614Y-2.5264
X6.1835Y-2.2138
X6.1906Y-5.1433
X6.198Y-4.9138
X6.1984Y-3.4496
X6.1984Y-3.8091
X6.1996Y-4.1618
X6.2008Y-3.9756
X6.2114Y-5.3791
X6.2157Y-2.3882
X6.2165Y-2.852
X6.2173Y-4.789
X6.2453Y-6.0819
X6.2646Y-5.939
X6.265Y-5.0449
X6.2661Y-4.5295
X6.2661Y-5.8339
X6.2724Y-3.5512
X6.274Y-3.8106
X6.2756Y-3.976
X6.2768Y-4.1571
X6.2803Y-2.7827
X6.2902Y-6.4614
X6.2929Y-2.9417
X6.315Y-2.485
X6.3224Y-4.2677
X6.3232Y-5.6102
X6.324Y-4.4764
X6.3469Y-4.9295
X6.3496Y-4.1287
X6.3508Y-5.3169
X6.352Y-3.8024
X6.3528Y-4.7406
X6.3531Y-3.9673
X6.3709Y-5.1512
X6.3835Y-4.3201
X6.3972Y-4.1925
X6.3992Y-5.0512
X6.4043Y-4.5303
X6.4043Y-6.0429
X6.4126Y-2.3563
X6.415Y-5.8799
X6.4264Y-4.2776
X6.4358Y-6.3398
X6.437Y-2.7827
X6.4445Y-4.1303
X6.4453Y-3.9496
X6.4484Y-3.6327
X6.4508Y-3.2114
X6.4579Y-5.6102
X6.4606Y-4.6823
X6.4705Y-2.4827
X6.4803Y-6.1197
X6.4839Y-5.102
X6.4858Y-5.9409
X6.5012Y-4.0524
X6.5075Y-2.863
X6.5118Y-4.1913
X6.5161Y-6.5728
X6.5201Y-5.8122
X6.5268Y-5.3094
X6.5343Y-4.2992
X6.5421Y-2.2866
X6.5457Y-4.9382
X6.548Y-2.0087
X6.5661Y-3.6642
X6.5772Y-3.3488
X6.5783Y-4.1291
X6.5819Y-3.9512
X6.5843Y-2.7843
X6.5866Y-4.5106
X6.587Y-5.2626
X6.5937Y-5.0213
X6.5961Y-5.9937
X6.5969Y-5.6705
X6.5984Y-5.5685
X6.6051Y-6.1209
X6.6217Y-3.7862
X6.624Y-5.9406
X6.6315Y-6.5012
X6.6319Y-2.4874
X6.6386Y-5.4228
X6.6441Y-4.872
X6.648Y-4.1902
X6.6717Y-5.0862
X6.6823Y-5.5283
X6.687Y-2.387
X6.6917Y-3.5291
X6.702Y-3.1335
X6.7059Y-3.9622
X6.7193Y-4.3004
X6.7268Y-5.8343
X6.7382Y-5.1677
X6.7413Y-2.7839
X6.7476Y-6.0224
X6.7488Y-4.8713
X6.7835Y-4.9945
X6.7906Y-3.6909
X6.7913Y-4.4921
X6.7953Y-4.6878
X6.7969Y-5.0969
X6.7969Y-5.1657
X6.8091Y-2.9142
X6.815Y-5.9602
X6.8181Y-3.1331
X6.8209Y-3.2295
X6.8224Y-6.5827
X6.8228Y-6.1232
X6.8434Y-4.1098
X6.8484Y-2.4969
X6.8587Y-3.9925
X6.8728Y-4.2398
X6.8756Y-2.548
X6.8799Y-3.5969
X6.8815Y-3.774
X6.8831Y-3.4008
X6.8898Y-5.728
X6.9024Y-2.0087
X6.9106Y-5.8091
X6.9295Y-3.1272
X6.9429Y-2.3331
X6.9508Y-4.7063
X6.9626Y-4.5067
X6.9709Y-3.6846
X6.9713Y-5.0539
X6.9724Y-4.1193
X6.9724Y-4.3618
X6.9736Y-3.8756
X6.998Y-5.5941
X6.9992Y-3.2976
X7.0012Y-5.1717
X7.0035Y-5.9744
X7.0039Y-4.9579
X7.0102Y-2.7791
X7.0142Y-6.4362
X7.0402Y-3.4445
X7.0402Y-5.5417
X7.0402Y-6.124
X7.0512Y-3.9606
X7.0732Y-3.778
X7.0791Y-4.476
X7.0878Y-2.9969
X7.0917Y-4.7413
X7.1059Y-4.8606
X7.1106Y-5.6571
X7.1134Y-5.9732
X7.1217Y-5.811
X7.1437Y-2.8913
X7.1469Y-3.5091
X7.1547Y-4.6697
X7.161Y-6.5913
X7.1622Y-5.1421
X7.1661Y-5.2626
X7.1693Y-3.0622
X7.1732Y-6.2484
X7.176Y-4.3772
X7.1823Y-5.3366
X7.1839Y-3.9354
X7.1957Y-4.5295
X7.2022Y-4.8959
X7.2138Y-4.9575
X7.2169Y-5.4854
X7.2173Y-2.7567
X7.2201Y-5.7114
X7.2362Y-3.4217
X7.2417Y-3.6063
X7.2429Y-6.1209
X7.25Y-5.3941
X7.2567Y-2.4417
X7.2567Y-5.0614
X7.2587Y-6.0118
X7.2598Y-4.9213
X7.2697Y-5.7972
X7.2929Y-4.4831
X7.2941Y-5.3441
X7.2961Y-2.0087
X7.2972Y-5.4413
X7.3016Y-4.5772
X7.3398Y-6.3594
X7.3409Y-6.6362
X7.3461Y-3.5102
X7.3465Y-3.1213
X7.3669Y-4.9567
X7.3681Y-2.8831
X7.3697Y-5.1929
X7.3744Y-5.05
X7.3748Y-4.3661
X7.4047Y-4.1429
X7.4051Y-4.9008
X7.4256Y-4.6689
X7.426Y-4.5917
X7.4665Y-5.6244
X7.4752Y-4.4799
X7.476Y-6.0669
X7.5276Y-5.6268
X7.5303Y-5.0941
X7.5323Y-5.187
X7.5783Y-4.3819
X7.5843Y-3.0898
X7.6256Y-6.3606
X7.6327Y-6.6346
X7.6484Y-4.9925
X7.6567Y-5.2555
X7.6638Y-5.0941
X7.6835Y-3.2953
X7.6898Y-2.9142
X7.6969Y-6.1524
X7.6992Y-3.6071
X7.7043Y-3.9398
X7.7197Y-4.6717
X7.724Y-5.1693
X7.7291Y-2.0087
X7.7291Y-2.4417
X7.7307Y-4.8795
X7.7429Y-4.9815
X7.7642Y-5.6059
X7.7693Y-4.5177
X7.7697Y-5.3535
X7.8362Y-5.652
X7.8441Y-4.1102
X7.8512Y-6.252
X7.8602Y-4.6705
X7.8878Y-4.985
X7.8976Y-5.3492
X7.9102Y-6.6346
X7.9173Y-6.348
X7.9303Y-3.1346
X7.939Y-4.4528
X7.9449Y-5.7469
X7.9941Y-3.3831
X8.0012Y-4.0677
X8.1622Y-2.0087
X8.1622Y-2.4417
X8.1622Y-2.9142
X8.1634Y-5.1933
X8.1665Y-5.8969
X8.1677Y-4.5205
X8.1681Y-3.5291
X8.1681Y-5.5594
X8.1705Y-3.1071
X8.1709Y-4.8437
X8.172Y-4.248
X8.1732Y-3.6898
X8.1768Y-6.1748
X8.1803Y-6.3268
X8.1803Y-6.6453
T3
X4.6669Y-6.1748
X4.7248Y-2.7614
X4.7417Y-6.1827
X4.9878Y-3.9551
X4.9878Y-4.0016
X5.3756Y-6.1827
X5.4248Y-3.6709
X5.4465Y-6.1827
X5.45Y-4.8594
X5.5181Y-3.5646
X5.539Y-4.3618
X5.5559Y-3.6768
X5.5705Y-4.3303
X5.6984Y-3.3835
X5.911Y-5.0134
X6.0764Y-6.1827
X6.1512Y-6.1827
X6.5075Y-5.3697
X6.7693Y-6.1827
X6.7732Y-2.7181
X6.8402Y-6.1827
X7.3598Y-5.3913
X7.3598Y-5.474
T4
X4.622Y-5.1705
X4.622Y-5.328
X4.622Y-5.4854
X4.722Y-5.1705
X4.722Y-5.328
X4.722Y-5.4854
X4.822Y-5.1705
X4.822Y-5.328
X4.822Y-5.4854
X6.6161Y-5.735
X6.7161Y-5.735
X6.8161Y-5.735
X7.9291Y-3.6118
X7.9291Y-6.2496
X8.0291Y-3.6118
X8.0291Y-6.2496
X8.1291Y-3.6118
X8.1291Y-6.2496
T5
X4.0343Y-4.3402
X4.0343Y-4.9402
X4.1343Y-4.3402
X4.1343Y-4.9402
X4.4343Y-4.3402
X4.4343Y-4.4402
X4.4343Y-4.5402
X4.4343Y-4.6402
X4.4343Y-4.7402
X4.4343Y-4.8402
X4.4343Y-4.9402
X4.935Y-2.9425
X5.035Y-2.9425
X5.135Y-2.9425
X6.7768Y-4.0524
X6.7768Y-4.1524
X6.7768Y-4.2524
X6.7768Y-4.3524
X7.0768Y-4.0524
X7.0768Y-4.1524
X7.0768Y-4.2524
X7.0768Y-4.3524
X7.687Y-5.4415
X7.687Y-5.5415
X7.687Y-5.6415
X7.687Y-5.7415
X7.687Y-5.8415
X7.687Y-5.9415
X7.687Y-6.0415
X7.987Y-5.4415
X7.987Y-6.0415
X8.087Y-5.4415
X8.087Y-6.0415
T6
X5.1449Y-3.9858
X5.3417Y-3.9858
X7.0512Y-5.726
X7.0512Y-5.826
X7.0512Y-5.926
X7.0512Y-6.026
X7.2496Y-6.2969
X7.2496Y-6.3969
X7.2496Y-6.4969
X7.2496Y-6.5969
X7.3512Y-5.726
X7.3512Y-5.826
X7.3512Y-5.926
X7.3512Y-6.026
X7.4429Y-2.3119
X7.4429Y-3.0219
X7.5429Y-2.3119
X7.5429Y-3.0219
X7.5496Y-6.2969
X7.5496Y-6.3969
X7.5496Y-6.4969
X7.5496Y-6.5969
X7.6429Y-2.3119
X7.6429Y-3.0219
X7.7429Y-2.3119
X7.7429Y-3.0219
X7.8429Y-2.3119
X7.8429Y-3.0219
X7.9429Y-2.3119
X7.9429Y-3.0219
X8.0429Y-2.3119
X8.0429Y-3.0219
X8.1429Y-2.3119
X8.1429Y-3.0219
T7
X4.4268Y-6.3815
X4.5252Y-6.3815
X4.6236Y-6.3815
X4.722Y-6.3815
X4.8205Y-6.3815
X5.1354Y-6.3815
X5.2339Y-6.3815
X5.3323Y-6.3815
X5.4307Y-6.3815
X5.4602Y-2.2594
X5.5291Y-6.3815
X5.5587Y-2.2594
X5.8441Y-6.3815
X5.8539Y-2.2594
X5.9425Y-6.3815
X5.9524Y-2.2594
X6.0409Y-6.3815
X6.1394Y-6.3815
X6.2378Y-6.3815
X6.2476Y-2.2594
X6.3461Y-2.2594
X6.5528Y-6.3815
X6.6413Y-2.2594
X6.6512Y-6.3815
X6.7398Y-2.2594
X6.7496Y-6.3815
X6.848Y-6.3815
X6.9465Y-6.3815
X7.9248Y-3.2201
X7.9248Y-3.3185
X7.9248Y-3.9268
X7.9248Y-4.0252
X7.9248Y-4.1236
X7.9248Y-4.222
X7.9248Y-4.3205
T8
X4.6571Y-4.0843
X4.6571Y-4.1827
X4.6571Y-4.2811
X4.787Y-4.0843
X4.787Y-4.1827
X4.787Y-4.2811
X6.9799Y-2.0627
X6.9799Y-2.1611
X6.9799Y-2.2595
X7.1098Y-2.0627
X7.1098Y-2.1611
X7.1098Y-2.2595
X7.4638Y-4.9462
X7.4638Y-5.0446
X7.4638Y-5.143
X7.5937Y-4.9462
X7.5937Y-5.0446
X7.5937Y-5.143
T9
X4.0596Y-2.4307
X4.0596Y-2.8638
X4.3542Y-3.5071
X4.3542Y-3.6071
X4.3542Y-3.7071
X4.3542Y-3.8071
X4.3542Y-3.9071
X4.4542Y-3.5071
X4.4542Y-3.6071
X4.4542Y-3.7071
X4.4542Y-3.8071
X4.4542Y-3.9071
X4.8795Y-2.1157
X5.037Y-2.1157
X5.1945Y-2.1157
X5.5185Y-5.7191
X5.5185Y-5.8191
X6.9661Y-2.9425
X7.0738Y-5.0685
X7.1738Y-5.0685
X7.3362Y-3.3126
X7.3362Y-3.6118
X7.478Y-3.9858
X7.7969Y-4.6319
X7.7969Y-4.7319
X7.7969Y-4.8319
X7.7969Y-4.9319
X7.7969Y-5.0319
X7.7969Y-5.1319
X7.7969Y-5.2319
T10
X4.3677Y-5.128
X4.3677Y-5.228
X4.3677Y-5.328
X4.3677Y-5.428
X4.3677Y-5.528
T11
X6.8728Y-4.5083
X6.8728Y-4.5909
T12
X4.4533Y-2.5488
X4.4533Y-2.7457
T0
M30
