%TF.GenerationSoftware,KiCad,Pcbnew,(6.0.11)*%
%TF.CreationDate,2023-05-24T21:09:08+09:00*%
%TF.ProjectId,power,706f7765-722e-46b6-9963-61645f706362,rev?*%
%TF.SameCoordinates,Original*%
%TF.FileFunction,Legend,Top*%
%TF.FilePolarity,Positive*%
%FSLAX46Y46*%
G04 Gerber Fmt 4.6, Leading zero omitted, Abs format (unit mm)*
G04 Created by KiCad (PCBNEW (6.0.11)) date 2023-05-24 21:09:08*
%MOMM*%
%LPD*%
G01*
G04 APERTURE LIST*
G04 Aperture macros list*
%AMRoundRect*
0 Rectangle with rounded corners*
0 $1 Rounding radius*
0 $2 $3 $4 $5 $6 $7 $8 $9 X,Y pos of 4 corners*
0 Add a 4 corners polygon primitive as box body*
4,1,4,$2,$3,$4,$5,$6,$7,$8,$9,$2,$3,0*
0 Add four circle primitives for the rounded corners*
1,1,$1+$1,$2,$3*
1,1,$1+$1,$4,$5*
1,1,$1+$1,$6,$7*
1,1,$1+$1,$8,$9*
0 Add four rect primitives between the rounded corners*
20,1,$1+$1,$2,$3,$4,$5,0*
20,1,$1+$1,$4,$5,$6,$7,0*
20,1,$1+$1,$6,$7,$8,$9,0*
20,1,$1+$1,$8,$9,$2,$3,0*%
G04 Aperture macros list end*
%ADD10C,0.150000*%
%ADD11C,0.120000*%
%ADD12C,2.200000*%
%ADD13C,1.400000*%
%ADD14R,3.500000X3.500000*%
%ADD15C,3.500000*%
%ADD16C,1.524000*%
%ADD17RoundRect,0.250001X-1.999999X-0.799999X1.999999X-0.799999X1.999999X0.799999X-1.999999X0.799999X0*%
%ADD18R,1.200000X2.200000*%
%ADD19R,5.800000X6.400000*%
%ADD20C,1.700000*%
%ADD21C,3.000000*%
%ADD22R,2.200000X1.200000*%
%ADD23R,6.400000X5.800000*%
%ADD24R,2.000000X0.900000*%
%ADD25RoundRect,1.025000X1.025000X-1.025000X1.025000X1.025000X-1.025000X1.025000X-1.025000X-1.025000X0*%
%ADD26C,4.100000*%
G04 APERTURE END LIST*
D10*
%TO.C,REF\u002A\u002A*%
X164586666Y-105258380D02*
X164253333Y-104782190D01*
X164015238Y-105258380D02*
X164015238Y-104258380D01*
X164396190Y-104258380D01*
X164491428Y-104306000D01*
X164539047Y-104353619D01*
X164586666Y-104448857D01*
X164586666Y-104591714D01*
X164539047Y-104686952D01*
X164491428Y-104734571D01*
X164396190Y-104782190D01*
X164015238Y-104782190D01*
X165015238Y-104734571D02*
X165348571Y-104734571D01*
X165491428Y-105258380D02*
X165015238Y-105258380D01*
X165015238Y-104258380D01*
X165491428Y-104258380D01*
X166253333Y-104734571D02*
X165920000Y-104734571D01*
X165920000Y-105258380D02*
X165920000Y-104258380D01*
X166396190Y-104258380D01*
X166920000Y-104258380D02*
X166920000Y-104496476D01*
X166681904Y-104401238D02*
X166920000Y-104496476D01*
X167158095Y-104401238D01*
X166777142Y-104686952D02*
X166920000Y-104496476D01*
X167062857Y-104686952D01*
X167681904Y-104258380D02*
X167681904Y-104496476D01*
X167443809Y-104401238D02*
X167681904Y-104496476D01*
X167920000Y-104401238D01*
X167539047Y-104686952D02*
X167681904Y-104496476D01*
X167824761Y-104686952D01*
%TO.C,J6*%
X140020666Y-108758380D02*
X140020666Y-109472666D01*
X139973047Y-109615523D01*
X139877809Y-109710761D01*
X139734952Y-109758380D01*
X139639714Y-109758380D01*
X140925428Y-108758380D02*
X140734952Y-108758380D01*
X140639714Y-108806000D01*
X140592095Y-108853619D01*
X140496857Y-108996476D01*
X140449238Y-109186952D01*
X140449238Y-109567904D01*
X140496857Y-109663142D01*
X140544476Y-109710761D01*
X140639714Y-109758380D01*
X140830190Y-109758380D01*
X140925428Y-109710761D01*
X140973047Y-109663142D01*
X141020666Y-109567904D01*
X141020666Y-109329809D01*
X140973047Y-109234571D01*
X140925428Y-109186952D01*
X140830190Y-109139333D01*
X140639714Y-109139333D01*
X140544476Y-109186952D01*
X140496857Y-109234571D01*
X140449238Y-109329809D01*
X134282571Y-97308142D02*
X135425428Y-97308142D01*
X145282571Y-97308142D02*
X146425428Y-97308142D01*
X145854000Y-97879571D02*
X145854000Y-96736714D01*
%TO.C,REF\u002A\u002A*%
X99186666Y-104758380D02*
X98853333Y-104282190D01*
X98615238Y-104758380D02*
X98615238Y-103758380D01*
X98996190Y-103758380D01*
X99091428Y-103806000D01*
X99139047Y-103853619D01*
X99186666Y-103948857D01*
X99186666Y-104091714D01*
X99139047Y-104186952D01*
X99091428Y-104234571D01*
X98996190Y-104282190D01*
X98615238Y-104282190D01*
X99615238Y-104234571D02*
X99948571Y-104234571D01*
X100091428Y-104758380D02*
X99615238Y-104758380D01*
X99615238Y-103758380D01*
X100091428Y-103758380D01*
X100853333Y-104234571D02*
X100520000Y-104234571D01*
X100520000Y-104758380D02*
X100520000Y-103758380D01*
X100996190Y-103758380D01*
X101520000Y-103758380D02*
X101520000Y-103996476D01*
X101281904Y-103901238D02*
X101520000Y-103996476D01*
X101758095Y-103901238D01*
X101377142Y-104186952D02*
X101520000Y-103996476D01*
X101662857Y-104186952D01*
X102281904Y-103758380D02*
X102281904Y-103996476D01*
X102043809Y-103901238D02*
X102281904Y-103996476D01*
X102520000Y-103901238D01*
X102139047Y-104186952D02*
X102281904Y-103996476D01*
X102424761Y-104186952D01*
%TO.C,MES1*%
X149381904Y-77758380D02*
X149381904Y-76758380D01*
X149715238Y-77472666D01*
X150048571Y-76758380D01*
X150048571Y-77758380D01*
X150524761Y-77234571D02*
X150858095Y-77234571D01*
X151000952Y-77758380D02*
X150524761Y-77758380D01*
X150524761Y-76758380D01*
X151000952Y-76758380D01*
X151381904Y-77710761D02*
X151524761Y-77758380D01*
X151762857Y-77758380D01*
X151858095Y-77710761D01*
X151905714Y-77663142D01*
X151953333Y-77567904D01*
X151953333Y-77472666D01*
X151905714Y-77377428D01*
X151858095Y-77329809D01*
X151762857Y-77282190D01*
X151572380Y-77234571D01*
X151477142Y-77186952D01*
X151429523Y-77139333D01*
X151381904Y-77044095D01*
X151381904Y-76948857D01*
X151429523Y-76853619D01*
X151477142Y-76806000D01*
X151572380Y-76758380D01*
X151810476Y-76758380D01*
X151953333Y-76806000D01*
X152905714Y-77758380D02*
X152334285Y-77758380D01*
X152620000Y-77758380D02*
X152620000Y-76758380D01*
X152524761Y-76901238D01*
X152429523Y-76996476D01*
X152334285Y-77044095D01*
%TO.C,C1*%
X143235333Y-84263142D02*
X143187714Y-84310761D01*
X143044857Y-84358380D01*
X142949619Y-84358380D01*
X142806761Y-84310761D01*
X142711523Y-84215523D01*
X142663904Y-84120285D01*
X142616285Y-83929809D01*
X142616285Y-83786952D01*
X142663904Y-83596476D01*
X142711523Y-83501238D01*
X142806761Y-83406000D01*
X142949619Y-83358380D01*
X143044857Y-83358380D01*
X143187714Y-83406000D01*
X143235333Y-83453619D01*
X144187714Y-84358380D02*
X143616285Y-84358380D01*
X143902000Y-84358380D02*
X143902000Y-83358380D01*
X143806761Y-83501238D01*
X143711523Y-83596476D01*
X143616285Y-83644095D01*
%TO.C,J4*%
X154986666Y-108758380D02*
X154986666Y-109472666D01*
X154939047Y-109615523D01*
X154843809Y-109710761D01*
X154700952Y-109758380D01*
X154605714Y-109758380D01*
X155891428Y-109091714D02*
X155891428Y-109758380D01*
X155653333Y-108710761D02*
X155415238Y-109425047D01*
X156034285Y-109425047D01*
X160014571Y-97308142D02*
X161157428Y-97308142D01*
X160586000Y-97879571D02*
X160586000Y-96736714D01*
X149014571Y-97308142D02*
X150157428Y-97308142D01*
%TO.C,J2*%
X125288666Y-108758380D02*
X125288666Y-109472666D01*
X125241047Y-109615523D01*
X125145809Y-109710761D01*
X125002952Y-109758380D01*
X124907714Y-109758380D01*
X125717238Y-108853619D02*
X125764857Y-108806000D01*
X125860095Y-108758380D01*
X126098190Y-108758380D01*
X126193428Y-108806000D01*
X126241047Y-108853619D01*
X126288666Y-108948857D01*
X126288666Y-109044095D01*
X126241047Y-109186952D01*
X125669619Y-109758380D01*
X126288666Y-109758380D01*
X119550571Y-97308142D02*
X120693428Y-97308142D01*
X130550571Y-97308142D02*
X131693428Y-97308142D01*
X131122000Y-97879571D02*
X131122000Y-96736714D01*
%TO.C,Q1*%
X124971619Y-80111238D02*
X124924000Y-80206476D01*
X124828761Y-80301714D01*
X124685904Y-80444571D01*
X124638285Y-80539809D01*
X124638285Y-80635047D01*
X124876380Y-80587428D02*
X124828761Y-80682666D01*
X124733523Y-80777904D01*
X124543047Y-80825523D01*
X124209714Y-80825523D01*
X124019238Y-80777904D01*
X123924000Y-80682666D01*
X123876380Y-80587428D01*
X123876380Y-80396952D01*
X123924000Y-80301714D01*
X124019238Y-80206476D01*
X124209714Y-80158857D01*
X124543047Y-80158857D01*
X124733523Y-80206476D01*
X124828761Y-80301714D01*
X124876380Y-80396952D01*
X124876380Y-80587428D01*
X124876380Y-79206476D02*
X124876380Y-79777904D01*
X124876380Y-79492190D02*
X123876380Y-79492190D01*
X124019238Y-79587428D01*
X124114476Y-79682666D01*
X124162095Y-79777904D01*
%TO.C,J5*%
X110556666Y-108758380D02*
X110556666Y-109472666D01*
X110509047Y-109615523D01*
X110413809Y-109710761D01*
X110270952Y-109758380D01*
X110175714Y-109758380D01*
X111509047Y-108758380D02*
X111032857Y-108758380D01*
X110985238Y-109234571D01*
X111032857Y-109186952D01*
X111128095Y-109139333D01*
X111366190Y-109139333D01*
X111461428Y-109186952D01*
X111509047Y-109234571D01*
X111556666Y-109329809D01*
X111556666Y-109567904D01*
X111509047Y-109663142D01*
X111461428Y-109710761D01*
X111366190Y-109758380D01*
X111128095Y-109758380D01*
X111032857Y-109710761D01*
X110985238Y-109663142D01*
X115818571Y-97308142D02*
X116961428Y-97308142D01*
X116390000Y-97879571D02*
X116390000Y-96736714D01*
X104818571Y-97308142D02*
X105961428Y-97308142D01*
%TO.C,J3*%
X166172380Y-86953333D02*
X166886666Y-86953333D01*
X167029523Y-87000952D01*
X167124761Y-87096190D01*
X167172380Y-87239047D01*
X167172380Y-87334285D01*
X166172380Y-86572380D02*
X166172380Y-85953333D01*
X166553333Y-86286666D01*
X166553333Y-86143809D01*
X166600952Y-86048571D01*
X166648571Y-86000952D01*
X166743809Y-85953333D01*
X166981904Y-85953333D01*
X167077142Y-86000952D01*
X167124761Y-86048571D01*
X167172380Y-86143809D01*
X167172380Y-86429523D01*
X167124761Y-86524761D01*
X167077142Y-86572380D01*
X155106142Y-81691428D02*
X155106142Y-80548571D01*
X155677571Y-81120000D02*
X154534714Y-81120000D01*
X155106142Y-92691428D02*
X155106142Y-91548571D01*
%TO.C,SW1*%
X153157238Y-79190666D02*
X153109619Y-79333523D01*
X153109619Y-79571619D01*
X153157238Y-79666857D01*
X153204857Y-79714476D01*
X153300095Y-79762095D01*
X153395333Y-79762095D01*
X153490571Y-79714476D01*
X153538190Y-79666857D01*
X153585809Y-79571619D01*
X153633428Y-79381142D01*
X153681047Y-79285904D01*
X153728666Y-79238285D01*
X153823904Y-79190666D01*
X153919142Y-79190666D01*
X154014380Y-79238285D01*
X154062000Y-79285904D01*
X154109619Y-79381142D01*
X154109619Y-79619238D01*
X154062000Y-79762095D01*
X154109619Y-80095428D02*
X153109619Y-80333523D01*
X153823904Y-80524000D01*
X153109619Y-80714476D01*
X154109619Y-80952571D01*
X153109619Y-81857333D02*
X153109619Y-81285904D01*
X153109619Y-81571619D02*
X154109619Y-81571619D01*
X153966761Y-81476380D01*
X153871523Y-81381142D01*
X153823904Y-81285904D01*
%TO.C,REF\u002A\u002A*%
X164786666Y-69358380D02*
X164453333Y-68882190D01*
X164215238Y-69358380D02*
X164215238Y-68358380D01*
X164596190Y-68358380D01*
X164691428Y-68406000D01*
X164739047Y-68453619D01*
X164786666Y-68548857D01*
X164786666Y-68691714D01*
X164739047Y-68786952D01*
X164691428Y-68834571D01*
X164596190Y-68882190D01*
X164215238Y-68882190D01*
X165215238Y-68834571D02*
X165548571Y-68834571D01*
X165691428Y-69358380D02*
X165215238Y-69358380D01*
X165215238Y-68358380D01*
X165691428Y-68358380D01*
X166453333Y-68834571D02*
X166120000Y-68834571D01*
X166120000Y-69358380D02*
X166120000Y-68358380D01*
X166596190Y-68358380D01*
X167120000Y-68358380D02*
X167120000Y-68596476D01*
X166881904Y-68501238D02*
X167120000Y-68596476D01*
X167358095Y-68501238D01*
X166977142Y-68786952D02*
X167120000Y-68596476D01*
X167262857Y-68786952D01*
X167881904Y-68358380D02*
X167881904Y-68596476D01*
X167643809Y-68501238D02*
X167881904Y-68596476D01*
X168120000Y-68501238D01*
X167739047Y-68786952D02*
X167881904Y-68596476D01*
X168024761Y-68786952D01*
%TO.C,F1*%
X116398666Y-68522571D02*
X116065333Y-68522571D01*
X116065333Y-69046380D02*
X116065333Y-68046380D01*
X116541523Y-68046380D01*
X117446285Y-69046380D02*
X116874857Y-69046380D01*
X117160571Y-69046380D02*
X117160571Y-68046380D01*
X117065333Y-68189238D01*
X116970095Y-68284476D01*
X116874857Y-68332095D01*
%TO.C,Q2*%
X127015761Y-94716619D02*
X126920523Y-94669000D01*
X126825285Y-94573761D01*
X126682428Y-94430904D01*
X126587190Y-94383285D01*
X126491952Y-94383285D01*
X126539571Y-94621380D02*
X126444333Y-94573761D01*
X126349095Y-94478523D01*
X126301476Y-94288047D01*
X126301476Y-93954714D01*
X126349095Y-93764238D01*
X126444333Y-93669000D01*
X126539571Y-93621380D01*
X126730047Y-93621380D01*
X126825285Y-93669000D01*
X126920523Y-93764238D01*
X126968142Y-93954714D01*
X126968142Y-94288047D01*
X126920523Y-94478523D01*
X126825285Y-94573761D01*
X126730047Y-94621380D01*
X126539571Y-94621380D01*
X127349095Y-93716619D02*
X127396714Y-93669000D01*
X127491952Y-93621380D01*
X127730047Y-93621380D01*
X127825285Y-93669000D01*
X127872904Y-93716619D01*
X127920523Y-93811857D01*
X127920523Y-93907095D01*
X127872904Y-94049952D01*
X127301476Y-94621380D01*
X127920523Y-94621380D01*
%TO.C,J1*%
X98572380Y-85683333D02*
X99286666Y-85683333D01*
X99429523Y-85730952D01*
X99524761Y-85826190D01*
X99572380Y-85969047D01*
X99572380Y-86064285D01*
X99572380Y-84683333D02*
X99572380Y-85254761D01*
X99572380Y-84969047D02*
X98572380Y-84969047D01*
X98715238Y-85064285D01*
X98810476Y-85159523D01*
X98858095Y-85254761D01*
X116837142Y-80021428D02*
X116837142Y-78878571D01*
X117408571Y-79450000D02*
X116265714Y-79450000D01*
X116837142Y-92321428D02*
X116837142Y-91178571D01*
%TO.C,REF\u002A\u002A*%
X98786666Y-69558380D02*
X98453333Y-69082190D01*
X98215238Y-69558380D02*
X98215238Y-68558380D01*
X98596190Y-68558380D01*
X98691428Y-68606000D01*
X98739047Y-68653619D01*
X98786666Y-68748857D01*
X98786666Y-68891714D01*
X98739047Y-68986952D01*
X98691428Y-69034571D01*
X98596190Y-69082190D01*
X98215238Y-69082190D01*
X99215238Y-69034571D02*
X99548571Y-69034571D01*
X99691428Y-69558380D02*
X99215238Y-69558380D01*
X99215238Y-68558380D01*
X99691428Y-68558380D01*
X100453333Y-69034571D02*
X100120000Y-69034571D01*
X100120000Y-69558380D02*
X100120000Y-68558380D01*
X100596190Y-68558380D01*
X101120000Y-68558380D02*
X101120000Y-68796476D01*
X100881904Y-68701238D02*
X101120000Y-68796476D01*
X101358095Y-68701238D01*
X100977142Y-68986952D02*
X101120000Y-68796476D01*
X101262857Y-68986952D01*
X101881904Y-68558380D02*
X101881904Y-68796476D01*
X101643809Y-68701238D02*
X101881904Y-68796476D01*
X102120000Y-68701238D01*
X101739047Y-68986952D02*
X101881904Y-68796476D01*
X102024761Y-68986952D01*
D11*
%TO.C,J6*%
X135294000Y-108311000D02*
X134704000Y-108311000D01*
X145414000Y-106091000D02*
X145414000Y-101191000D01*
X145414000Y-101191000D02*
X135294000Y-101191000D01*
X145414000Y-110411000D02*
X145414000Y-108311000D01*
X145414000Y-110411000D02*
X135294000Y-110411000D01*
X146004000Y-108311000D02*
X145414000Y-108311000D01*
X135294000Y-106091000D02*
X135294000Y-101191000D01*
X146004000Y-106091000D02*
X145414000Y-106091000D01*
X135294000Y-106091000D02*
X134704000Y-106091000D01*
X135294000Y-110411000D02*
X135294000Y-108311000D01*
X134704000Y-106091000D02*
G75*
G03*
X134704000Y-108311000I0J-1110000D01*
G01*
X146004000Y-108311000D02*
G75*
G03*
X146004000Y-106091000I0J1110000D01*
G01*
%TO.C,MES1*%
X133736000Y-68126000D02*
X133736000Y-72126000D01*
X158736000Y-78126000D02*
X158736000Y-76126000D01*
X136736000Y-76126000D02*
X153736000Y-76126000D01*
X158736000Y-76126000D02*
X160736000Y-76126000D01*
X163736000Y-72126000D02*
X163736000Y-68126000D01*
X163736000Y-68126000D02*
X160736000Y-68126000D01*
X136736000Y-64126000D02*
X136736000Y-68126000D01*
X160736000Y-72126000D02*
X163736000Y-72126000D01*
X153736000Y-78126000D02*
X158736000Y-78126000D01*
X160736000Y-68126000D02*
X160736000Y-64126000D01*
X160736000Y-64126000D02*
X136736000Y-64126000D01*
X160736000Y-76126000D02*
X160736000Y-72126000D01*
X136736000Y-68126000D02*
X133736000Y-68126000D01*
X153736000Y-76126000D02*
X153736000Y-78126000D01*
X136736000Y-72126000D02*
X136736000Y-76126000D01*
X133736000Y-72126000D02*
X136736000Y-72126000D01*
%TO.C,C1*%
X139142000Y-85964437D02*
X140206437Y-84900000D01*
X140206437Y-84900000D02*
X147662000Y-84900000D01*
X139142000Y-92355563D02*
X139142000Y-90470000D01*
X147662000Y-84900000D02*
X147662000Y-87850000D01*
X147662000Y-93420000D02*
X147662000Y-90470000D01*
X140206437Y-93420000D02*
X147662000Y-93420000D01*
X139142000Y-85964437D02*
X139142000Y-87850000D01*
X139142000Y-92355563D02*
X140206437Y-93420000D01*
%TO.C,J4*%
X150026000Y-106091000D02*
X150026000Y-101191000D01*
X160146000Y-106091000D02*
X160146000Y-101191000D01*
X150026000Y-110411000D02*
X150026000Y-108311000D01*
X160736000Y-106091000D02*
X160146000Y-106091000D01*
X160146000Y-110411000D02*
X160146000Y-108311000D01*
X150026000Y-108311000D02*
X149436000Y-108311000D01*
X160146000Y-101191000D02*
X150026000Y-101191000D01*
X160146000Y-110411000D02*
X150026000Y-110411000D01*
X150026000Y-106091000D02*
X149436000Y-106091000D01*
X160736000Y-108311000D02*
X160146000Y-108311000D01*
X149436000Y-106091000D02*
G75*
G03*
X149436000Y-108311000I0J-1110000D01*
G01*
X160736000Y-108311000D02*
G75*
G03*
X160736000Y-106091000I0J1110000D01*
G01*
%TO.C,J2*%
X120562000Y-110411000D02*
X120562000Y-108311000D01*
X130682000Y-101191000D02*
X120562000Y-101191000D01*
X120562000Y-106091000D02*
X120562000Y-101191000D01*
X130682000Y-110411000D02*
X130682000Y-108311000D01*
X130682000Y-110411000D02*
X120562000Y-110411000D01*
X131272000Y-108311000D02*
X130682000Y-108311000D01*
X131272000Y-106091000D02*
X130682000Y-106091000D01*
X130682000Y-106091000D02*
X130682000Y-101191000D01*
X120562000Y-108311000D02*
X119972000Y-108311000D01*
X120562000Y-106091000D02*
X119972000Y-106091000D01*
X119972000Y-106091000D02*
G75*
G03*
X119972000Y-108311000I0J-1110000D01*
G01*
X131272000Y-108311000D02*
G75*
G03*
X131272000Y-106091000I0J1110000D01*
G01*
%TO.C,Q1*%
X132104000Y-82486000D02*
X132104000Y-83586000D01*
X125474000Y-80986000D02*
X125474000Y-82486000D01*
X125474000Y-82486000D02*
X125744000Y-82486000D01*
X132374000Y-82486000D02*
X132104000Y-82486000D01*
X125744000Y-82486000D02*
X125744000Y-85316000D01*
X132374000Y-80986000D02*
X132374000Y-82486000D01*
%TO.C,J5*%
X105830000Y-108311000D02*
X105240000Y-108311000D01*
X116540000Y-108311000D02*
X115950000Y-108311000D01*
X105830000Y-106091000D02*
X105240000Y-106091000D01*
X105830000Y-106091000D02*
X105830000Y-101191000D01*
X115950000Y-110411000D02*
X105830000Y-110411000D01*
X116540000Y-106091000D02*
X115950000Y-106091000D01*
X115950000Y-106091000D02*
X115950000Y-101191000D01*
X115950000Y-110411000D02*
X115950000Y-108311000D01*
X105830000Y-110411000D02*
X105830000Y-108311000D01*
X115950000Y-101191000D02*
X105830000Y-101191000D01*
X116540000Y-108311000D02*
G75*
G03*
X116540000Y-106091000I0J1110000D01*
G01*
X105240000Y-106091000D02*
G75*
G03*
X105240000Y-108311000I0J-1110000D01*
G01*
%TO.C,J3*%
X163889000Y-81560000D02*
X158989000Y-81560000D01*
X163889000Y-80970000D02*
X163889000Y-81560000D01*
X166109000Y-80970000D02*
X166109000Y-81560000D01*
X168209000Y-81560000D02*
X168209000Y-91680000D01*
X168209000Y-91680000D02*
X166109000Y-91680000D01*
X163889000Y-91680000D02*
X163889000Y-92270000D01*
X168209000Y-81560000D02*
X166109000Y-81560000D01*
X158989000Y-81560000D02*
X158989000Y-91680000D01*
X163889000Y-91680000D02*
X158989000Y-91680000D01*
X166109000Y-91680000D02*
X166109000Y-92270000D01*
X163889000Y-92270000D02*
G75*
G03*
X166109000Y-92270000I1110000J0D01*
G01*
X166109000Y-80970000D02*
G75*
G03*
X163889000Y-80970000I-1110000J0D01*
G01*
%TO.C,SW1*%
X148482000Y-83064000D02*
X138322000Y-83064000D01*
X138322000Y-83064000D02*
X138322000Y-77984000D01*
X138322000Y-77984000D02*
X148482000Y-77984000D01*
X148482000Y-77984000D02*
X148482000Y-83064000D01*
X148482000Y-83064000D02*
X138322000Y-83064000D01*
%TO.C,F1*%
X103732000Y-65284000D02*
X113732000Y-65284000D01*
X113732000Y-65284000D02*
X113732000Y-72904000D01*
X113732000Y-72904000D02*
X103732000Y-72904000D01*
X103732000Y-72904000D02*
X103732000Y-65284000D01*
X119732000Y-65284000D02*
X129732000Y-65284000D01*
X129732000Y-65284000D02*
X129732000Y-72904000D01*
X129732000Y-72904000D02*
X119732000Y-72904000D01*
X119732000Y-72904000D02*
X119732000Y-65284000D01*
%TO.C,Q2*%
X128081000Y-86219000D02*
X129581000Y-86219000D01*
X129581000Y-93119000D02*
X129581000Y-92849000D01*
X129581000Y-92849000D02*
X132411000Y-92849000D01*
X128081000Y-93119000D02*
X129581000Y-93119000D01*
X129581000Y-86219000D02*
X129581000Y-86489000D01*
X129581000Y-86489000D02*
X130681000Y-86489000D01*
%TO.C,J1*%
X116190000Y-86640000D02*
X116190000Y-82900000D01*
X97770000Y-93210000D02*
X112080000Y-93210000D01*
X97770000Y-93210000D02*
X97770000Y-77490000D01*
X97770000Y-77490000D02*
X112080000Y-77490000D01*
X112080000Y-93210000D02*
G75*
G03*
X115602958Y-91216806I1J4109999D01*
G01*
X116010413Y-80398352D02*
G75*
G03*
X112080000Y-77490000I-3930413J-1201648D01*
G01*
%TD*%
%LPC*%
D12*
%TO.C,REF\u002A\u002A*%
X165920000Y-108006000D03*
%TD*%
D13*
%TO.C,J6*%
X145854000Y-107201000D03*
X134854000Y-107201000D03*
D14*
X137854000Y-97201000D03*
D15*
X142854000Y-97201000D03*
%TD*%
D12*
%TO.C,REF\u002A\u002A*%
X99920000Y-108006000D03*
%TD*%
D16*
%TO.C,MES1*%
X157736000Y-77126000D03*
X155736000Y-77111000D03*
%TD*%
D17*
%TO.C,C1*%
X139802000Y-89160000D03*
X147002000Y-89160000D03*
%TD*%
D13*
%TO.C,J4*%
X160586000Y-107201000D03*
X149586000Y-107201000D03*
D14*
X152586000Y-97201000D03*
D15*
X157586000Y-97201000D03*
%TD*%
D13*
%TO.C,J2*%
X120122000Y-107201000D03*
X131122000Y-107201000D03*
D14*
X123122000Y-97201000D03*
D15*
X128122000Y-97201000D03*
%TD*%
D18*
%TO.C,Q1*%
X126644000Y-84216000D03*
X128924000Y-84216000D03*
D19*
X128924000Y-77916000D03*
D18*
X131204000Y-84216000D03*
%TD*%
D13*
%TO.C,J5*%
X105390000Y-107201000D03*
X116390000Y-107201000D03*
D14*
X108390000Y-97201000D03*
D15*
X113390000Y-97201000D03*
%TD*%
D13*
%TO.C,J3*%
X164999000Y-92120000D03*
X164999000Y-81120000D03*
D14*
X154999000Y-89120000D03*
D15*
X154999000Y-84120000D03*
%TD*%
D20*
%TO.C,SW1*%
X145942000Y-80524000D03*
X143402000Y-80524000D03*
X140862000Y-80524000D03*
X148482000Y-80524000D03*
X138322000Y-80524000D03*
%TD*%
D12*
%TO.C,REF\u002A\u002A*%
X165920000Y-66506000D03*
%TD*%
D21*
%TO.C,F1*%
X105232000Y-69094000D03*
X111932000Y-69094000D03*
X121532000Y-69094000D03*
X128232000Y-69094000D03*
%TD*%
D22*
%TO.C,Q2*%
X131311000Y-91949000D03*
D23*
X125011000Y-89669000D03*
D22*
X131311000Y-89669000D03*
X131311000Y-87389000D03*
%TD*%
D24*
%TO.C,J1*%
X108230000Y-92100000D03*
X108230000Y-78600000D03*
D25*
X114230000Y-88950000D03*
D26*
X114230000Y-81750000D03*
%TD*%
D12*
%TO.C,REF\u002A\u002A*%
X99920000Y-66506000D03*
%TD*%
M02*
