%TF.GenerationSoftware,KiCad,Pcbnew,(6.0.11)*%
%TF.CreationDate,2023-05-24T21:09:08+09:00*%
%TF.ProjectId,power,706f7765-722e-46b6-9963-61645f706362,rev?*%
%TF.SameCoordinates,Original*%
%TF.FileFunction,Soldermask,Top*%
%TF.FilePolarity,Negative*%
%FSLAX46Y46*%
G04 Gerber Fmt 4.6, Leading zero omitted, Abs format (unit mm)*
G04 Created by KiCad (PCBNEW (6.0.11)) date 2023-05-24 21:09:08*
%MOMM*%
%LPD*%
G01*
G04 APERTURE LIST*
G04 Aperture macros list*
%AMRoundRect*
0 Rectangle with rounded corners*
0 $1 Rounding radius*
0 $2 $3 $4 $5 $6 $7 $8 $9 X,Y pos of 4 corners*
0 Add a 4 corners polygon primitive as box body*
4,1,4,$2,$3,$4,$5,$6,$7,$8,$9,$2,$3,0*
0 Add four circle primitives for the rounded corners*
1,1,$1+$1,$2,$3*
1,1,$1+$1,$4,$5*
1,1,$1+$1,$6,$7*
1,1,$1+$1,$8,$9*
0 Add four rect primitives between the rounded corners*
20,1,$1+$1,$2,$3,$4,$5,0*
20,1,$1+$1,$4,$5,$6,$7,0*
20,1,$1+$1,$6,$7,$8,$9,0*
20,1,$1+$1,$8,$9,$2,$3,0*%
G04 Aperture macros list end*
%ADD10C,2.200000*%
%ADD11C,1.400000*%
%ADD12R,3.500000X3.500000*%
%ADD13C,3.500000*%
%ADD14C,1.524000*%
%ADD15RoundRect,0.250001X-1.999999X-0.799999X1.999999X-0.799999X1.999999X0.799999X-1.999999X0.799999X0*%
%ADD16R,1.200000X2.200000*%
%ADD17R,5.800000X6.400000*%
%ADD18C,1.700000*%
%ADD19C,3.000000*%
%ADD20R,2.200000X1.200000*%
%ADD21R,6.400000X5.800000*%
%ADD22R,2.000000X0.900000*%
%ADD23RoundRect,1.025000X1.025000X-1.025000X1.025000X1.025000X-1.025000X1.025000X-1.025000X-1.025000X0*%
%ADD24C,4.100000*%
G04 APERTURE END LIST*
D10*
%TO.C,REF\u002A\u002A*%
X165920000Y-108006000D03*
%TD*%
D11*
%TO.C,J6*%
X145854000Y-107201000D03*
X134854000Y-107201000D03*
D12*
X137854000Y-97201000D03*
D13*
X142854000Y-97201000D03*
%TD*%
D10*
%TO.C,REF\u002A\u002A*%
X99920000Y-108006000D03*
%TD*%
D14*
%TO.C,MES1*%
X157736000Y-77126000D03*
X155736000Y-77111000D03*
%TD*%
D15*
%TO.C,C1*%
X139802000Y-89160000D03*
X147002000Y-89160000D03*
%TD*%
D11*
%TO.C,J4*%
X160586000Y-107201000D03*
X149586000Y-107201000D03*
D12*
X152586000Y-97201000D03*
D13*
X157586000Y-97201000D03*
%TD*%
D11*
%TO.C,J2*%
X120122000Y-107201000D03*
X131122000Y-107201000D03*
D12*
X123122000Y-97201000D03*
D13*
X128122000Y-97201000D03*
%TD*%
D16*
%TO.C,Q1*%
X126644000Y-84216000D03*
X128924000Y-84216000D03*
D17*
X128924000Y-77916000D03*
D16*
X131204000Y-84216000D03*
%TD*%
D11*
%TO.C,J5*%
X105390000Y-107201000D03*
X116390000Y-107201000D03*
D12*
X108390000Y-97201000D03*
D13*
X113390000Y-97201000D03*
%TD*%
D11*
%TO.C,J3*%
X164999000Y-92120000D03*
X164999000Y-81120000D03*
D12*
X154999000Y-89120000D03*
D13*
X154999000Y-84120000D03*
%TD*%
D18*
%TO.C,SW1*%
X145942000Y-80524000D03*
X143402000Y-80524000D03*
X140862000Y-80524000D03*
X148482000Y-80524000D03*
X138322000Y-80524000D03*
%TD*%
D10*
%TO.C,REF\u002A\u002A*%
X165920000Y-66506000D03*
%TD*%
D19*
%TO.C,F1*%
X105232000Y-69094000D03*
X111932000Y-69094000D03*
X121532000Y-69094000D03*
X128232000Y-69094000D03*
%TD*%
D20*
%TO.C,Q2*%
X131311000Y-91949000D03*
D21*
X125011000Y-89669000D03*
D20*
X131311000Y-89669000D03*
X131311000Y-87389000D03*
%TD*%
D22*
%TO.C,J1*%
X108230000Y-92100000D03*
X108230000Y-78600000D03*
D23*
X114230000Y-88950000D03*
D24*
X114230000Y-81750000D03*
%TD*%
D10*
%TO.C,REF\u002A\u002A*%
X99920000Y-66506000D03*
%TD*%
M02*
