M48
; DRILL file {KiCad (6.0.11)} date Wed May 24 21:09:20 2023
; FORMAT={-:-/ absolute / metric / decimal}
; #@! TF.CreationDate,2023-05-24T21:09:20+09:00
; #@! TF.GenerationSoftware,Kicad,Pcbnew,(6.0.11)
; #@! TF.FileFunction,MixedPlating,1,2
FMAT,2
METRIC
; #@! TA.AperFunction,Plated,PTH,ViaDrill
T1C0.400
; #@! TA.AperFunction,Plated,PTH,ComponentDrill
T2C0.600
; #@! TA.AperFunction,Plated,PTH,ComponentDrill
T3C0.762
; #@! TA.AperFunction,Plated,PTH,ComponentDrill
T4C1.000
; #@! TA.AperFunction,Plated,PTH,ComponentDrill
T5C1.100
; #@! TA.AperFunction,Plated,PTH,ComponentDrill
T6C1.700
; #@! TA.AperFunction,Plated,PTH,ComponentDrill
T7C1.900
; #@! TA.AperFunction,Plated,PTH,ComponentDrill
T8C2.700
; #@! TA.AperFunction,NonPlated,NPTH,ComponentDrill
T9C2.200
%
G90
G05
T1
X97.92Y-64.506
X97.92Y-66.506
X97.92Y-68.506
X97.92Y-70.506
X97.92Y-76.506
X97.92Y-82.506
X97.92Y-88.506
X97.92Y-94.506
X97.92Y-100.506
X97.92Y-105.506
X97.92Y-108.006
X97.92Y-110.006
X99.92Y-64.506
X99.92Y-68.506
X99.92Y-106.006
X99.92Y-110.006
X100.92Y-70.506
X100.92Y-76.506
X101.42Y-68.506
X101.42Y-82.506
X101.72Y-105.506
X101.92Y-64.506
X101.92Y-66.506
X101.92Y-108.006
X102.42Y-110.006
X103.92Y-88.506
X103.92Y-94.506
X103.92Y-100.506
X103.92Y-106.006
X103.92Y-108.506
X104.42Y-85.006
X106.32Y-91.106
X106.32Y-93.306
X106.92Y-106.006
X106.92Y-108.506
X106.92Y-110.006
X108.42Y-64.506
X108.42Y-65.506
X109.92Y-90.906
X109.92Y-93.306
X109.92Y-100.506
X110.42Y-85.506
X110.92Y-106.006
X112.92Y-110.006
X113.92Y-64.506
X113.92Y-66.506
X114.92Y-106.006
X114.92Y-108.506
X115.12Y-104.106
X115.92Y-85.006
X117.92Y-70.506
X117.92Y-76.506
X117.92Y-80.006
X118.42Y-105.506
X118.42Y-108.506
X118.92Y-110.006
X119.42Y-64.506
X119.42Y-66.006
X120.92Y-84.706
X121.92Y-105.506
X121.92Y-108.506
X122.92Y-83.106
X124.42Y-110.006
X124.92Y-64.506
X124.92Y-65.506
X125.92Y-105.506
X125.92Y-108.506
X126.52Y-84.106
X129.92Y-64.506
X129.92Y-65.506
X129.92Y-105.506
X129.92Y-108.506
X129.92Y-110.006
X131.311Y-91.949
X132.226Y-85.238
X132.72Y-82.906
X132.92Y-105.506
X132.92Y-108.506
X133.92Y-68.006
X134.12Y-76.306
X134.12Y-80.106
X134.12Y-85.706
X134.32Y-72.106
X134.92Y-84.106
X135.92Y-64.506
X135.92Y-110.006
X136.32Y-67.906
X136.32Y-72.106
X136.42Y-105.506
X136.42Y-108.506
X136.52Y-76.306
X136.85Y-81.6
X137.475Y-77.925
X137.52Y-82.106
X139.6Y-79.8
X140.92Y-105.506
X140.92Y-108.506
X141.624Y-109.988
X141.92Y-76.506
X142.125Y-79.75
X142.625Y-77.975
X144.72Y-79.306
X144.92Y-105.506
X144.92Y-108.506
X145.52Y-88.706
X145.52Y-89.706
X146.92Y-88.706
X146.92Y-89.706
X147.12Y-79.306
X147.212Y-109.988
X147.52Y-76.506
X147.92Y-105.506
X147.92Y-108.506
X148.32Y-88.706
X148.32Y-89.706
X149.72Y-79.306
X151.42Y-105.506
X151.42Y-108.506
X152.52Y-76.506
X153.054Y-109.988
X155.42Y-105.506
X155.42Y-108.506
X158.642Y-104.908
X158.642Y-107.194
X158.642Y-109.988
X159.15Y-78.238
X159.404Y-76.46
X160.674Y-105.416
X160.674Y-108.972
X161.182Y-64.522
X161.182Y-67.824
X161.182Y-72.396
X161.182Y-75.19
X162.452Y-107.194
X162.706Y-100.844
X162.706Y-105.924
X162.706Y-109.988
X162.96Y-82.81
X162.96Y-85.604
X162.96Y-90.684
X162.96Y-96.018
X163.214Y-81.032
X163.214Y-92.208
X163.722Y-66.554
X163.722Y-107.956
X163.92Y-75.306
X163.976Y-70.11
X164.992Y-79.254
X164.992Y-82.81
X164.992Y-90.43
X164.992Y-93.986
X165.754Y-64.522
X166.008Y-68.586
X166.008Y-105.924
X166.008Y-109.988
X166.77Y-81.032
X166.77Y-92.208
X167.786Y-64.522
X168.04Y-66.554
X168.04Y-70.11
X168.04Y-75.19
X168.04Y-79.762
X168.04Y-82.81
X168.04Y-85.604
X168.04Y-90.684
X168.04Y-96.018
X168.04Y-100.844
X168.04Y-105.924
X168.04Y-107.956
X168.04Y-109.988
T3
X155.736Y-77.111
X157.736Y-77.126
T4
X105.39Y-107.201
X116.39Y-107.201
X120.122Y-107.201
X131.122Y-107.201
X134.854Y-107.201
X145.854Y-107.201
X149.586Y-107.201
X160.586Y-107.201
X164.999Y-81.12
X164.999Y-92.12
T5
X138.322Y-80.524
X140.862Y-80.524
X143.402Y-80.524
X145.942Y-80.524
X148.482Y-80.524
T6
X105.232Y-69.094
X111.932Y-69.094
X121.532Y-69.094
X128.232Y-69.094
T7
X108.39Y-97.201
X113.39Y-97.201
X123.122Y-97.201
X128.122Y-97.201
X137.854Y-97.201
X142.854Y-97.201
X152.586Y-97.201
X154.999Y-84.12
X154.999Y-89.12
X157.586Y-97.201
T8
X114.23Y-81.75
X114.23Y-88.95
T9
X99.92Y-66.506
X99.92Y-108.006
X165.92Y-66.506
X165.92Y-108.006
T2
G00X107.68Y-78.6
M15
G01X108.78Y-78.6
M16
G05
G00X107.68Y-92.1
M15
G01X108.78Y-92.1
M16
G05
T0
M30
