%TF.GenerationSoftware,KiCad,Pcbnew,(6.0.11)*%
%TF.CreationDate,2023-05-24T21:09:08+09:00*%
%TF.ProjectId,power,706f7765-722e-46b6-9963-61645f706362,rev?*%
%TF.SameCoordinates,Original*%
%TF.FileFunction,Soldermask,Bot*%
%TF.FilePolarity,Negative*%
%FSLAX46Y46*%
G04 Gerber Fmt 4.6, Leading zero omitted, Abs format (unit mm)*
G04 Created by KiCad (PCBNEW (6.0.11)) date 2023-05-24 21:09:08*
%MOMM*%
%LPD*%
G01*
G04 APERTURE LIST*
G04 Aperture macros list*
%AMRoundRect*
0 Rectangle with rounded corners*
0 $1 Rounding radius*
0 $2 $3 $4 $5 $6 $7 $8 $9 X,Y pos of 4 corners*
0 Add a 4 corners polygon primitive as box body*
4,1,4,$2,$3,$4,$5,$6,$7,$8,$9,$2,$3,0*
0 Add four circle primitives for the rounded corners*
1,1,$1+$1,$2,$3*
1,1,$1+$1,$4,$5*
1,1,$1+$1,$6,$7*
1,1,$1+$1,$8,$9*
0 Add four rect primitives between the rounded corners*
20,1,$1+$1,$2,$3,$4,$5,0*
20,1,$1+$1,$4,$5,$6,$7,0*
20,1,$1+$1,$6,$7,$8,$9,0*
20,1,$1+$1,$8,$9,$2,$3,0*%
G04 Aperture macros list end*
%ADD10C,2.200000*%
%ADD11C,1.400000*%
%ADD12R,3.500000X3.500000*%
%ADD13C,3.500000*%
%ADD14C,1.524000*%
%ADD15C,1.700000*%
%ADD16C,3.000000*%
%ADD17R,2.000000X0.900000*%
%ADD18RoundRect,1.025000X1.025000X-1.025000X1.025000X1.025000X-1.025000X1.025000X-1.025000X-1.025000X0*%
%ADD19C,4.100000*%
%ADD20RoundRect,0.237500X0.300000X0.237500X-0.300000X0.237500X-0.300000X-0.237500X0.300000X-0.237500X0*%
%ADD21RoundRect,0.237500X-0.250000X-0.237500X0.250000X-0.237500X0.250000X0.237500X-0.250000X0.237500X0*%
%ADD22RoundRect,0.237500X-0.237500X0.300000X-0.237500X-0.300000X0.237500X-0.300000X0.237500X0.300000X0*%
%ADD23R,0.900000X1.200000*%
%ADD24RoundRect,0.237500X0.250000X0.237500X-0.250000X0.237500X-0.250000X-0.237500X0.250000X-0.237500X0*%
G04 APERTURE END LIST*
D10*
%TO.C,REF\u002A\u002A*%
X165920000Y-108006000D03*
%TD*%
D11*
%TO.C,J6*%
X145854000Y-107201000D03*
X134854000Y-107201000D03*
D12*
X137854000Y-97201000D03*
D13*
X142854000Y-97201000D03*
%TD*%
D10*
%TO.C,REF\u002A\u002A*%
X99920000Y-108006000D03*
%TD*%
D14*
%TO.C,MES1*%
X157736000Y-77126000D03*
X155736000Y-77111000D03*
%TD*%
D11*
%TO.C,J4*%
X160586000Y-107201000D03*
X149586000Y-107201000D03*
D12*
X152586000Y-97201000D03*
D13*
X157586000Y-97201000D03*
%TD*%
D11*
%TO.C,J2*%
X120122000Y-107201000D03*
X131122000Y-107201000D03*
D12*
X123122000Y-97201000D03*
D13*
X128122000Y-97201000D03*
%TD*%
D11*
%TO.C,J5*%
X105390000Y-107201000D03*
X116390000Y-107201000D03*
D12*
X108390000Y-97201000D03*
D13*
X113390000Y-97201000D03*
%TD*%
D11*
%TO.C,J3*%
X164999000Y-92120000D03*
X164999000Y-81120000D03*
D12*
X154999000Y-89120000D03*
D13*
X154999000Y-84120000D03*
%TD*%
D15*
%TO.C,SW1*%
X145942000Y-80524000D03*
X143402000Y-80524000D03*
X140862000Y-80524000D03*
X148482000Y-80524000D03*
X138322000Y-80524000D03*
%TD*%
D10*
%TO.C,REF\u002A\u002A*%
X165920000Y-66506000D03*
%TD*%
D16*
%TO.C,F1*%
X105232000Y-69094000D03*
X111932000Y-69094000D03*
X121532000Y-69094000D03*
X128232000Y-69094000D03*
%TD*%
D17*
%TO.C,J1*%
X108230000Y-92100000D03*
X108230000Y-78600000D03*
D18*
X114230000Y-88950000D03*
D19*
X114230000Y-81750000D03*
%TD*%
D10*
%TO.C,REF\u002A\u002A*%
X99920000Y-66506000D03*
%TD*%
D20*
%TO.C,C4*%
X142994500Y-101352000D03*
X141269500Y-101352000D03*
%TD*%
D21*
%TO.C,R1*%
X144775500Y-83064000D03*
X146600500Y-83064000D03*
%TD*%
D22*
%TO.C,C2*%
X159150000Y-83979500D03*
X159150000Y-85704500D03*
%TD*%
D20*
%TO.C,C5*%
X157726500Y-101352000D03*
X156001500Y-101352000D03*
%TD*%
%TO.C,C3*%
X113530500Y-101352000D03*
X111805500Y-101352000D03*
%TD*%
%TO.C,C6*%
X128262500Y-101352000D03*
X126537500Y-101352000D03*
%TD*%
D23*
%TO.C,D1*%
X113556000Y-103892000D03*
X110256000Y-103892000D03*
%TD*%
D24*
%TO.C,R2*%
X142028500Y-83064000D03*
X140203500Y-83064000D03*
%TD*%
M02*
