%TF.GenerationSoftware,KiCad,Pcbnew,(6.0.11)*%
%TF.CreationDate,2023-05-24T21:09:08+09:00*%
%TF.ProjectId,power,706f7765-722e-46b6-9963-61645f706362,rev?*%
%TF.SameCoordinates,Original*%
%TF.FileFunction,Legend,Bot*%
%TF.FilePolarity,Positive*%
%FSLAX46Y46*%
G04 Gerber Fmt 4.6, Leading zero omitted, Abs format (unit mm)*
G04 Created by KiCad (PCBNEW (6.0.11)) date 2023-05-24 21:09:08*
%MOMM*%
%LPD*%
G01*
G04 APERTURE LIST*
G04 Aperture macros list*
%AMRoundRect*
0 Rectangle with rounded corners*
0 $1 Rounding radius*
0 $2 $3 $4 $5 $6 $7 $8 $9 X,Y pos of 4 corners*
0 Add a 4 corners polygon primitive as box body*
4,1,4,$2,$3,$4,$5,$6,$7,$8,$9,$2,$3,0*
0 Add four circle primitives for the rounded corners*
1,1,$1+$1,$2,$3*
1,1,$1+$1,$4,$5*
1,1,$1+$1,$6,$7*
1,1,$1+$1,$8,$9*
0 Add four rect primitives between the rounded corners*
20,1,$1+$1,$2,$3,$4,$5,0*
20,1,$1+$1,$4,$5,$6,$7,0*
20,1,$1+$1,$6,$7,$8,$9,0*
20,1,$1+$1,$8,$9,$2,$3,0*%
G04 Aperture macros list end*
%ADD10C,0.150000*%
%ADD11C,0.120000*%
%ADD12C,2.200000*%
%ADD13C,1.400000*%
%ADD14R,3.500000X3.500000*%
%ADD15C,3.500000*%
%ADD16C,1.524000*%
%ADD17C,1.700000*%
%ADD18C,3.000000*%
%ADD19R,2.000000X0.900000*%
%ADD20RoundRect,1.025000X1.025000X-1.025000X1.025000X1.025000X-1.025000X1.025000X-1.025000X-1.025000X0*%
%ADD21C,4.100000*%
%ADD22RoundRect,0.237500X0.300000X0.237500X-0.300000X0.237500X-0.300000X-0.237500X0.300000X-0.237500X0*%
%ADD23RoundRect,0.237500X-0.250000X-0.237500X0.250000X-0.237500X0.250000X0.237500X-0.250000X0.237500X0*%
%ADD24RoundRect,0.237500X-0.237500X0.300000X-0.237500X-0.300000X0.237500X-0.300000X0.237500X0.300000X0*%
%ADD25R,0.900000X1.200000*%
%ADD26RoundRect,0.237500X0.250000X0.237500X-0.250000X0.237500X-0.250000X-0.237500X0.250000X-0.237500X0*%
G04 APERTURE END LIST*
D10*
%TO.C,C4*%
X142298666Y-100279142D02*
X142346285Y-100326761D01*
X142489142Y-100374380D01*
X142584380Y-100374380D01*
X142727238Y-100326761D01*
X142822476Y-100231523D01*
X142870095Y-100136285D01*
X142917714Y-99945809D01*
X142917714Y-99802952D01*
X142870095Y-99612476D01*
X142822476Y-99517238D01*
X142727238Y-99422000D01*
X142584380Y-99374380D01*
X142489142Y-99374380D01*
X142346285Y-99422000D01*
X142298666Y-99469619D01*
X141441523Y-99707714D02*
X141441523Y-100374380D01*
X141679619Y-99326761D02*
X141917714Y-100041047D01*
X141298666Y-100041047D01*
%TO.C,R1*%
X145854666Y-85102380D02*
X146188000Y-84626190D01*
X146426095Y-85102380D02*
X146426095Y-84102380D01*
X146045142Y-84102380D01*
X145949904Y-84150000D01*
X145902285Y-84197619D01*
X145854666Y-84292857D01*
X145854666Y-84435714D01*
X145902285Y-84530952D01*
X145949904Y-84578571D01*
X146045142Y-84626190D01*
X146426095Y-84626190D01*
X144902285Y-85102380D02*
X145473714Y-85102380D01*
X145188000Y-85102380D02*
X145188000Y-84102380D01*
X145283238Y-84245238D01*
X145378476Y-84340476D01*
X145473714Y-84388095D01*
%TO.C,C2*%
X158077142Y-84675333D02*
X158124761Y-84627714D01*
X158172380Y-84484857D01*
X158172380Y-84389619D01*
X158124761Y-84246761D01*
X158029523Y-84151523D01*
X157934285Y-84103904D01*
X157743809Y-84056285D01*
X157600952Y-84056285D01*
X157410476Y-84103904D01*
X157315238Y-84151523D01*
X157220000Y-84246761D01*
X157172380Y-84389619D01*
X157172380Y-84484857D01*
X157220000Y-84627714D01*
X157267619Y-84675333D01*
X157267619Y-85056285D02*
X157220000Y-85103904D01*
X157172380Y-85199142D01*
X157172380Y-85437238D01*
X157220000Y-85532476D01*
X157267619Y-85580095D01*
X157362857Y-85627714D01*
X157458095Y-85627714D01*
X157600952Y-85580095D01*
X158172380Y-85008666D01*
X158172380Y-85627714D01*
%TO.C,C5*%
X157030666Y-100279142D02*
X157078285Y-100326761D01*
X157221142Y-100374380D01*
X157316380Y-100374380D01*
X157459238Y-100326761D01*
X157554476Y-100231523D01*
X157602095Y-100136285D01*
X157649714Y-99945809D01*
X157649714Y-99802952D01*
X157602095Y-99612476D01*
X157554476Y-99517238D01*
X157459238Y-99422000D01*
X157316380Y-99374380D01*
X157221142Y-99374380D01*
X157078285Y-99422000D01*
X157030666Y-99469619D01*
X156125904Y-99374380D02*
X156602095Y-99374380D01*
X156649714Y-99850571D01*
X156602095Y-99802952D01*
X156506857Y-99755333D01*
X156268761Y-99755333D01*
X156173523Y-99802952D01*
X156125904Y-99850571D01*
X156078285Y-99945809D01*
X156078285Y-100183904D01*
X156125904Y-100279142D01*
X156173523Y-100326761D01*
X156268761Y-100374380D01*
X156506857Y-100374380D01*
X156602095Y-100326761D01*
X156649714Y-100279142D01*
%TO.C,C3*%
X112834666Y-100279142D02*
X112882285Y-100326761D01*
X113025142Y-100374380D01*
X113120380Y-100374380D01*
X113263238Y-100326761D01*
X113358476Y-100231523D01*
X113406095Y-100136285D01*
X113453714Y-99945809D01*
X113453714Y-99802952D01*
X113406095Y-99612476D01*
X113358476Y-99517238D01*
X113263238Y-99422000D01*
X113120380Y-99374380D01*
X113025142Y-99374380D01*
X112882285Y-99422000D01*
X112834666Y-99469619D01*
X112501333Y-99374380D02*
X111882285Y-99374380D01*
X112215619Y-99755333D01*
X112072761Y-99755333D01*
X111977523Y-99802952D01*
X111929904Y-99850571D01*
X111882285Y-99945809D01*
X111882285Y-100183904D01*
X111929904Y-100279142D01*
X111977523Y-100326761D01*
X112072761Y-100374380D01*
X112358476Y-100374380D01*
X112453714Y-100326761D01*
X112501333Y-100279142D01*
%TO.C,C6*%
X127566666Y-100279142D02*
X127614285Y-100326761D01*
X127757142Y-100374380D01*
X127852380Y-100374380D01*
X127995238Y-100326761D01*
X128090476Y-100231523D01*
X128138095Y-100136285D01*
X128185714Y-99945809D01*
X128185714Y-99802952D01*
X128138095Y-99612476D01*
X128090476Y-99517238D01*
X127995238Y-99422000D01*
X127852380Y-99374380D01*
X127757142Y-99374380D01*
X127614285Y-99422000D01*
X127566666Y-99469619D01*
X126709523Y-99374380D02*
X126900000Y-99374380D01*
X126995238Y-99422000D01*
X127042857Y-99469619D01*
X127138095Y-99612476D01*
X127185714Y-99802952D01*
X127185714Y-100183904D01*
X127138095Y-100279142D01*
X127090476Y-100326761D01*
X126995238Y-100374380D01*
X126804761Y-100374380D01*
X126709523Y-100326761D01*
X126661904Y-100279142D01*
X126614285Y-100183904D01*
X126614285Y-99945809D01*
X126661904Y-99850571D01*
X126709523Y-99802952D01*
X126804761Y-99755333D01*
X126995238Y-99755333D01*
X127090476Y-99802952D01*
X127138095Y-99850571D01*
X127185714Y-99945809D01*
%TO.C,D1*%
X112644095Y-106158380D02*
X112644095Y-105158380D01*
X112406000Y-105158380D01*
X112263142Y-105206000D01*
X112167904Y-105301238D01*
X112120285Y-105396476D01*
X112072666Y-105586952D01*
X112072666Y-105729809D01*
X112120285Y-105920285D01*
X112167904Y-106015523D01*
X112263142Y-106110761D01*
X112406000Y-106158380D01*
X112644095Y-106158380D01*
X111120285Y-106158380D02*
X111691714Y-106158380D01*
X111406000Y-106158380D02*
X111406000Y-105158380D01*
X111501238Y-105301238D01*
X111596476Y-105396476D01*
X111691714Y-105444095D01*
%TO.C,R2*%
X141291666Y-85052380D02*
X141625000Y-84576190D01*
X141863095Y-85052380D02*
X141863095Y-84052380D01*
X141482142Y-84052380D01*
X141386904Y-84100000D01*
X141339285Y-84147619D01*
X141291666Y-84242857D01*
X141291666Y-84385714D01*
X141339285Y-84480952D01*
X141386904Y-84528571D01*
X141482142Y-84576190D01*
X141863095Y-84576190D01*
X140910714Y-84147619D02*
X140863095Y-84100000D01*
X140767857Y-84052380D01*
X140529761Y-84052380D01*
X140434523Y-84100000D01*
X140386904Y-84147619D01*
X140339285Y-84242857D01*
X140339285Y-84338095D01*
X140386904Y-84480952D01*
X140958333Y-85052380D01*
X140339285Y-85052380D01*
D11*
%TO.C,C4*%
X142278267Y-101862000D02*
X141985733Y-101862000D01*
X142278267Y-100842000D02*
X141985733Y-100842000D01*
%TO.C,R1*%
X145433276Y-83586500D02*
X145942724Y-83586500D01*
X145433276Y-82541500D02*
X145942724Y-82541500D01*
%TO.C,C2*%
X158640000Y-84695733D02*
X158640000Y-84988267D01*
X159660000Y-84695733D02*
X159660000Y-84988267D01*
%TO.C,C5*%
X157010267Y-100842000D02*
X156717733Y-100842000D01*
X157010267Y-101862000D02*
X156717733Y-101862000D01*
%TO.C,C3*%
X112814267Y-100842000D02*
X112521733Y-100842000D01*
X112814267Y-101862000D02*
X112521733Y-101862000D01*
%TO.C,C6*%
X127546267Y-100842000D02*
X127253733Y-100842000D01*
X127546267Y-101862000D02*
X127253733Y-101862000D01*
%TO.C,D1*%
X114156000Y-102892000D02*
X114156000Y-104892000D01*
X114156000Y-104892000D02*
X110256000Y-104892000D01*
X114156000Y-102892000D02*
X110256000Y-102892000D01*
%TO.C,R2*%
X141370724Y-83586500D02*
X140861276Y-83586500D01*
X141370724Y-82541500D02*
X140861276Y-82541500D01*
%TD*%
%LPC*%
D12*
%TO.C,REF\u002A\u002A*%
X165920000Y-108006000D03*
%TD*%
D13*
%TO.C,J6*%
X145854000Y-107201000D03*
X134854000Y-107201000D03*
D14*
X137854000Y-97201000D03*
D15*
X142854000Y-97201000D03*
%TD*%
D12*
%TO.C,REF\u002A\u002A*%
X99920000Y-108006000D03*
%TD*%
D16*
%TO.C,MES1*%
X157736000Y-77126000D03*
X155736000Y-77111000D03*
%TD*%
D13*
%TO.C,J4*%
X160586000Y-107201000D03*
X149586000Y-107201000D03*
D14*
X152586000Y-97201000D03*
D15*
X157586000Y-97201000D03*
%TD*%
D13*
%TO.C,J2*%
X120122000Y-107201000D03*
X131122000Y-107201000D03*
D14*
X123122000Y-97201000D03*
D15*
X128122000Y-97201000D03*
%TD*%
D13*
%TO.C,J5*%
X105390000Y-107201000D03*
X116390000Y-107201000D03*
D14*
X108390000Y-97201000D03*
D15*
X113390000Y-97201000D03*
%TD*%
D13*
%TO.C,J3*%
X164999000Y-92120000D03*
X164999000Y-81120000D03*
D14*
X154999000Y-89120000D03*
D15*
X154999000Y-84120000D03*
%TD*%
D17*
%TO.C,SW1*%
X145942000Y-80524000D03*
X143402000Y-80524000D03*
X140862000Y-80524000D03*
X148482000Y-80524000D03*
X138322000Y-80524000D03*
%TD*%
D12*
%TO.C,REF\u002A\u002A*%
X165920000Y-66506000D03*
%TD*%
D18*
%TO.C,F1*%
X105232000Y-69094000D03*
X111932000Y-69094000D03*
X121532000Y-69094000D03*
X128232000Y-69094000D03*
%TD*%
D19*
%TO.C,J1*%
X108230000Y-92100000D03*
X108230000Y-78600000D03*
D20*
X114230000Y-88950000D03*
D21*
X114230000Y-81750000D03*
%TD*%
D12*
%TO.C,REF\u002A\u002A*%
X99920000Y-66506000D03*
%TD*%
D22*
%TO.C,C4*%
X142994500Y-101352000D03*
X141269500Y-101352000D03*
%TD*%
D23*
%TO.C,R1*%
X144775500Y-83064000D03*
X146600500Y-83064000D03*
%TD*%
D24*
%TO.C,C2*%
X159150000Y-83979500D03*
X159150000Y-85704500D03*
%TD*%
D22*
%TO.C,C5*%
X157726500Y-101352000D03*
X156001500Y-101352000D03*
%TD*%
%TO.C,C3*%
X113530500Y-101352000D03*
X111805500Y-101352000D03*
%TD*%
%TO.C,C6*%
X128262500Y-101352000D03*
X126537500Y-101352000D03*
%TD*%
D25*
%TO.C,D1*%
X113556000Y-103892000D03*
X110256000Y-103892000D03*
%TD*%
D26*
%TO.C,R2*%
X142028500Y-83064000D03*
X140203500Y-83064000D03*
%TD*%
M02*
