  0
SECTION
  2
HEADER
  9
$ANGBASE
  50
0.0
  9
$ANGDIR
  70
1
  9
$MEASUREMENT
  70
0
  0
ENDSEC
  0
SECTION
  2
TABLES
  0
TABLE
  2
LTYPE
  70
4
  0
LTYPE
  5
40F
  2
CONTINUOUS
  70
0
  3
Solid line
  72
65
  73
0
  40
0.0
  0
LTYPE
  5
410
  2
DASHDOT
 70
0
  3
Dash Dot ____ _ ____ _
 72
65
 73
4
 40
2.0
 49
1.25
 49
-0.25
 49
0.25
 49
-0.25
  0
LTYPE
  5
411
  2
DASHED
 70
0
  3
Dashed __ __ __ __ __
 72
65
 73
2
 40
0.75
 49
0.5
 49
-0.25
  0
LTYPE
  5
43B
  2
DOTTED
 70
0
  3
Dotted .  .  .  .
 72
65
 73
2
 40
0.2
 49
0.0
 49
-0.2
  0
ENDTAB
  0
TABLE
  2
STYLE
  70
4
  0
STYLE
  2
KICAD
  70
0
  40
0
  41
1
  42
1
  50
0
  71
0
  3
isocp.shx
  0
STYLE
  2
KICADB
  70
0
  40
0
  41
1
  42
1
  50
0
  71
0
  3
isocp.shx
  0
STYLE
  2
KICADI
  70
0
  40
0
  41
1
  42
1
  50
15
  71
0
  3
isocp.shx
  0
STYLE
  2
KICADBI
  70
0
  40
0
  41
1
  42
1
  50
15
  71
0
  3
isocp.shx
  0
ENDTAB
  0
TABLE
  2
LAYER
  70
1
  0
LAYER
  2
BLACK
  70
0
  62
7
  6
CONTINUOUS
  0
ENDTAB
  0
ENDSEC
  0
SECTION
  2
ENTITIES
0
LINE
8
BLACK
6
CONTINUOUS
10
7.9555
20
-1.70853
11
7.95563
21
-1.70851
0
LINE
8
BLACK
6
CONTINUOUS
10
7.95563
20
-1.70851
11
7.95574
21
-1.70857
0
LINE
8
BLACK
6
CONTINUOUS
10
7.95574
20
-1.70857
11
7.95613
21
-1.70864
0
LINE
8
BLACK
6
CONTINUOUS
10
7.95613
20
-1.70864
11
7.95672
21
-1.70914
0
LINE
8
BLACK
6
CONTINUOUS
10
7.95672
20
-1.70914
11
7.95738
21
-1.70952
0
LINE
8
BLACK
6
CONTINUOUS
10
7.95738
20
-1.70952
11
7.95747
21
-1.70977
0
LINE
8
BLACK
6
CONTINUOUS
10
7.95747
20
-1.70977
11
7.95768
21
-1.70994
0
LINE
8
BLACK
6
CONTINUOUS
10
7.95768
20
-1.70994
11
7.95781
21
-1.7107
0
LINE
8
BLACK
6
CONTINUOUS
10
7.95781
20
-1.7107
11
7.95807
21
-1.71142
0
LINE
8
BLACK
6
CONTINUOUS
10
7.95807
20
-1.71142
11
7.95807
21
-5.25472
0
LINE
8
BLACK
6
CONTINUOUS
10
7.95807
20
-5.25472
11
7.958
21
-5.25511
0
LINE
8
BLACK
6
CONTINUOUS
10
7.958
20
-5.25511
11
7.95803
21
-5.25524
0
LINE
8
BLACK
6
CONTINUOUS
10
7.95803
20
-5.25524
11
7.95796
21
-5.25535
0
LINE
8
BLACK
6
CONTINUOUS
10
7.95796
20
-5.25535
11
7.95789
21
-5.25573
0
LINE
8
BLACK
6
CONTINUOUS
10
7.95789
20
-5.25573
11
7.9574
21
-5.25632
0
LINE
8
BLACK
6
CONTINUOUS
10
7.9574
20
-5.25632
11
7.95702
21
-5.25699
0
LINE
8
BLACK
6
CONTINUOUS
10
7.95702
20
-5.25699
11
7.95677
21
-5.25708
0
LINE
8
BLACK
6
CONTINUOUS
10
7.95677
20
-5.25708
11
7.95659
21
-5.25728
0
LINE
8
BLACK
6
CONTINUOUS
10
7.95659
20
-5.25728
11
7.95584
21
-5.25741
0
LINE
8
BLACK
6
CONTINUOUS
10
7.95584
20
-5.25741
11
7.95512
21
-5.25768
0
LINE
8
BLACK
6
CONTINUOUS
10
7.95512
20
-5.25768
11
3.62441
21
-5.25768
0
LINE
8
BLACK
6
CONTINUOUS
10
3.62441
20
-5.25768
11
3.62403
21
-5.25761
0
LINE
8
BLACK
6
CONTINUOUS
10
3.62403
20
-5.25761
11
3.6239
21
-5.25763
0
LINE
8
BLACK
6
CONTINUOUS
10
3.6239
20
-5.25763
11
3.62378
21
-5.25757
0
LINE
8
BLACK
6
CONTINUOUS
10
3.62378
20
-5.25757
11
3.6234
21
-5.2575
0
LINE
8
BLACK
6
CONTINUOUS
10
3.6234
20
-5.2575
11
3.62281
21
-5.25701
0
LINE
8
BLACK
6
CONTINUOUS
10
3.62281
20
-5.25701
11
3.62215
21
-5.25662
0
LINE
8
BLACK
6
CONTINUOUS
10
3.62215
20
-5.25662
11
3.62206
21
-5.25637
0
LINE
8
BLACK
6
CONTINUOUS
10
3.62206
20
-5.25637
11
3.62185
21
-5.2562
0
LINE
8
BLACK
6
CONTINUOUS
10
3.62185
20
-5.2562
11
3.62172
21
-5.25545
0
LINE
8
BLACK
6
CONTINUOUS
10
3.62172
20
-5.25545
11
3.62146
21
-5.25472
0
LINE
8
BLACK
6
CONTINUOUS
10
3.62146
20
-5.25472
11
3.62146
21
-1.71142
0
LINE
8
BLACK
6
CONTINUOUS
10
3.62146
20
-1.71142
11
3.62152
21
-1.71103
0
LINE
8
BLACK
6
CONTINUOUS
10
3.62152
20
-1.71103
11
3.6215
21
-1.7109
0
LINE
8
BLACK
6
CONTINUOUS
10
3.6215
20
-1.7109
11
3.62157
21
-1.71079
0
LINE
8
BLACK
6
CONTINUOUS
10
3.62157
20
-1.71079
11
3.62163
21
-1.71041
0
LINE
8
BLACK
6
CONTINUOUS
10
3.62163
20
-1.71041
11
3.62213
21
-1.70982
0
LINE
8
BLACK
6
CONTINUOUS
10
3.62213
20
-1.70982
11
3.62251
21
-1.70916
0
LINE
8
BLACK
6
CONTINUOUS
10
3.62251
20
-1.70916
11
3.62276
21
-1.70906
0
LINE
8
BLACK
6
CONTINUOUS
10
3.62276
20
-1.70906
11
3.62293
21
-1.70886
0
LINE
8
BLACK
6
CONTINUOUS
10
3.62293
20
-1.70886
11
3.62369
21
-1.70873
0
LINE
8
BLACK
6
CONTINUOUS
10
3.62369
20
-1.70873
11
3.62441
21
-1.70846
0
LINE
8
BLACK
6
CONTINUOUS
10
3.62441
20
-1.70846
11
7.95512
21
-1.70846
0
LINE
8
BLACK
6
CONTINUOUS
10
7.95512
20
-1.70846
11
7.9555
21
-1.70853
0
LINE
8
BLACK
6
CONTINUOUS
10
3.62736
20
-1.71437
11
3.62736
21
-5.25177
0
LINE
8
BLACK
6
CONTINUOUS
10
3.62736
20
-5.25177
11
7.95217
21
-5.25177
0
LINE
8
BLACK
6
CONTINUOUS
10
7.95217
20
-5.25177
11
7.95217
21
-1.71437
0
LINE
8
BLACK
6
CONTINUOUS
10
7.95217
20
-1.71437
11
3.62736
21
-1.71437
0
LINE
8
BLACK
6
CONTINUOUS
10
5.9686
20
-2.32332
11
5.96693
21
-2.32402
0
LINE
8
BLACK
6
CONTINUOUS
10
5.96693
20
-2.32402
11
5.06142
21
-2.32402
0
LINE
8
BLACK
6
CONTINUOUS
10
5.06142
20
-2.32402
11
5.05975
21
-2.32332
0
LINE
8
BLACK
6
CONTINUOUS
10
5.05975
20
-2.32332
11
5.05906
21
-2.32165
0
LINE
8
BLACK
6
CONTINUOUS
10
5.05906
20
-2.32165
11
5.05906
21
-1.88858
0
LINE
8
BLACK
6
CONTINUOUS
10
5.05906
20
-1.88858
11
5.05975
21
-1.88691
0
LINE
8
BLACK
6
CONTINUOUS
10
5.05975
20
-1.88691
11
5.06142
21
-1.88622
0
LINE
8
BLACK
6
CONTINUOUS
10
5.06142
20
-1.88622
11
5.96693
21
-1.88622
0
LINE
8
BLACK
6
CONTINUOUS
10
5.96693
20
-1.88622
11
5.9686
21
-1.88691
0
LINE
8
BLACK
6
CONTINUOUS
10
5.9686
20
-1.88691
11
5.96929
21
-1.88858
0
LINE
8
BLACK
6
CONTINUOUS
10
5.96929
20
-1.88858
11
5.96929
21
-2.32165
0
LINE
8
BLACK
6
CONTINUOUS
10
5.96929
20
-2.32165
11
5.9686
21
-2.32332
0
LINE
8
BLACK
6
CONTINUOUS
10
5.96457
20
-2.31929
11
5.96457
21
-1.89094
0
LINE
8
BLACK
6
CONTINUOUS
10
5.96457
20
-1.89094
11
5.06378
21
-1.89094
0
LINE
8
BLACK
6
CONTINUOUS
10
5.06378
20
-1.89094
11
5.06378
21
-2.31929
0
LINE
8
BLACK
6
CONTINUOUS
10
5.06378
20
-2.31929
11
5.96457
21
-2.31929
0
LINE
8
BLACK
6
CONTINUOUS
10
4.9576
20
-2.08883
11
4.96111
21
-2.0813
0
LINE
8
BLACK
6
CONTINUOUS
10
4.96111
20
-2.0813
11
4.96587
21
-2.0745
0
LINE
8
BLACK
6
CONTINUOUS
10
4.96587
20
-2.0745
11
4.97174
21
-2.06863
0
LINE
8
BLACK
6
CONTINUOUS
10
4.97174
20
-2.06863
11
4.97854
21
-2.06386
0
LINE
8
BLACK
6
CONTINUOUS
10
4.97854
20
-2.06386
11
4.98607
21
-2.06035
0
LINE
8
BLACK
6
CONTINUOUS
10
4.98607
20
-2.06035
11
4.99409
21
-2.0582
0
LINE
8
BLACK
6
CONTINUOUS
10
4.99409
20
-2.0582
11
5.00236
21
-2.05748
0
LINE
8
BLACK
6
CONTINUOUS
10
5.00236
20
-2.05748
11
5.01063
21
-2.0582
0
LINE
8
BLACK
6
CONTINUOUS
10
5.01063
20
-2.0582
11
5.01866
21
-2.06035
0
LINE
8
BLACK
6
CONTINUOUS
10
5.01866
20
-2.06035
11
5.02618
21
-2.06386
0
LINE
8
BLACK
6
CONTINUOUS
10
5.02618
20
-2.06386
11
5.03298
21
-2.06863
0
LINE
8
BLACK
6
CONTINUOUS
10
5.03298
20
-2.06863
11
5.03885
21
-2.0745
0
LINE
8
BLACK
6
CONTINUOUS
10
5.03885
20
-2.0745
11
5.04362
21
-2.0813
0
LINE
8
BLACK
6
CONTINUOUS
10
5.04362
20
-2.0813
11
5.04713
21
-2.08883
0
LINE
8
BLACK
6
CONTINUOUS
10
5.04713
20
-2.08883
11
5.04928
21
-2.09685
0
LINE
8
BLACK
6
CONTINUOUS
10
5.04928
20
-2.09685
11
5.05
21
-2.10512
0
LINE
8
BLACK
6
CONTINUOUS
10
5.05
20
-2.10512
11
5.04928
21
-2.11339
0
LINE
8
BLACK
6
CONTINUOUS
10
5.04928
20
-2.11339
11
5.04713
21
-2.12141
0
LINE
8
BLACK
6
CONTINUOUS
10
5.04713
20
-2.12141
11
5.04362
21
-2.12894
0
LINE
8
BLACK
6
CONTINUOUS
10
5.04362
20
-2.12894
11
5.03885
21
-2.13574
0
LINE
8
BLACK
6
CONTINUOUS
10
5.03885
20
-2.13574
11
5.03298
21
-2.14161
0
LINE
8
BLACK
6
CONTINUOUS
10
5.03298
20
-2.14161
11
5.02618
21
-2.14637
0
LINE
8
BLACK
6
CONTINUOUS
10
5.02618
20
-2.14637
11
5.01866
21
-2.14988
0
LINE
8
BLACK
6
CONTINUOUS
10
5.01866
20
-2.14988
11
5.01063
21
-2.15203
0
LINE
8
BLACK
6
CONTINUOUS
10
5.01063
20
-2.15203
11
5.00236
21
-2.15276
0
LINE
8
BLACK
6
CONTINUOUS
10
5.00236
20
-2.15276
11
4.99409
21
-2.15203
0
LINE
8
BLACK
6
CONTINUOUS
10
4.99409
20
-2.15203
11
4.98607
21
-2.14988
0
LINE
8
BLACK
6
CONTINUOUS
10
4.98607
20
-2.14988
11
4.97854
21
-2.14637
0
LINE
8
BLACK
6
CONTINUOUS
10
4.97854
20
-2.14637
11
4.97174
21
-2.14161
0
LINE
8
BLACK
6
CONTINUOUS
10
4.97174
20
-2.14161
11
4.96587
21
-2.13574
0
LINE
8
BLACK
6
CONTINUOUS
10
4.96587
20
-2.13574
11
4.96111
21
-2.12894
0
LINE
8
BLACK
6
CONTINUOUS
10
4.96111
20
-2.12894
11
4.9576
21
-2.12141
0
LINE
8
BLACK
6
CONTINUOUS
10
4.9576
20
-2.12141
11
4.95545
21
-2.11339
0
LINE
8
BLACK
6
CONTINUOUS
10
4.95545
20
-2.11339
11
4.95472
21
-2.10512
0
LINE
8
BLACK
6
CONTINUOUS
10
4.95472
20
-2.10512
11
4.95482
21
-2.10399
0
LINE
8
BLACK
6
CONTINUOUS
10
4.95482
20
-2.10399
11
4.95545
21
-2.09685
0
LINE
8
BLACK
6
CONTINUOUS
10
4.95545
20
-2.09685
11
4.9576
21
-2.08883
0
LINE
8
BLACK
6
CONTINUOUS
10
4.96174
20
-2.1195
11
4.96504
21
-2.12667
0
LINE
8
BLACK
6
CONTINUOUS
10
4.96504
20
-2.12667
11
4.96959
21
-2.13311
0
LINE
8
BLACK
6
CONTINUOUS
10
4.96959
20
-2.13311
11
4.97524
21
-2.13861
0
LINE
8
BLACK
6
CONTINUOUS
10
4.97524
20
-2.13861
11
4.9818
21
-2.14299
0
LINE
8
BLACK
6
CONTINUOUS
10
4.9818
20
-2.14299
11
4.98904
21
-2.14611
0
LINE
8
BLACK
6
CONTINUOUS
10
4.98904
20
-2.14611
11
4.99674
21
-2.14785
0
LINE
8
BLACK
6
CONTINUOUS
10
4.99674
20
-2.14785
11
5.00462
21
-2.14816
0
LINE
8
BLACK
6
CONTINUOUS
10
5.00462
20
-2.14816
11
5.01242
21
-2.14702
0
LINE
8
BLACK
6
CONTINUOUS
10
5.01242
20
-2.14702
11
5.01989
21
-2.14449
0
LINE
8
BLACK
6
CONTINUOUS
10
5.01989
20
-2.14449
11
5.02677
21
-2.14064
0
LINE
8
BLACK
6
CONTINUOUS
10
5.02677
20
-2.14064
11
5.03284
21
-2.13559
0
LINE
8
BLACK
6
CONTINUOUS
10
5.03284
20
-2.13559
11
5.03788
21
-2.12953
0
LINE
8
BLACK
6
CONTINUOUS
10
5.03788
20
-2.12953
11
5.04173
21
-2.12265
0
LINE
8
BLACK
6
CONTINUOUS
10
5.04173
20
-2.12265
11
5.04427
21
-2.11518
0
LINE
8
BLACK
6
CONTINUOUS
10
5.04427
20
-2.11518
11
5.0454
21
-2.10737
0
LINE
8
BLACK
6
CONTINUOUS
10
5.0454
20
-2.10737
11
5.04546
21
-2.10512
0
LINE
8
BLACK
6
CONTINUOUS
10
5.04546
20
-2.10512
11
5.04474
21
-2.09726
0
LINE
8
BLACK
6
CONTINUOUS
10
5.04474
20
-2.09726
11
5.0426
21
-2.08967
0
LINE
8
BLACK
6
CONTINUOUS
10
5.0426
20
-2.08967
11
5.03911
21
-2.0826
0
LINE
8
BLACK
6
CONTINUOUS
10
5.03911
20
-2.0826
11
5.03439
21
-2.07628
0
LINE
8
BLACK
6
CONTINUOUS
10
5.03439
20
-2.07628
11
5.0286
21
-2.07093
0
LINE
8
BLACK
6
CONTINUOUS
10
5.0286
20
-2.07093
11
5.02193
21
-2.06672
0
LINE
8
BLACK
6
CONTINUOUS
10
5.02193
20
-2.06672
11
5.0146
21
-2.0638
0
LINE
8
BLACK
6
CONTINUOUS
10
5.0146
20
-2.0638
11
5.00687
21
-2.06226
0
LINE
8
BLACK
6
CONTINUOUS
10
5.00687
20
-2.06226
11
4.99898
21
-2.06215
0
LINE
8
BLACK
6
CONTINUOUS
10
4.99898
20
-2.06215
11
4.99121
21
-2.06349
0
LINE
8
BLACK
6
CONTINUOUS
10
4.99121
20
-2.06349
11
4.98381
21
-2.06622
0
LINE
8
BLACK
6
CONTINUOUS
10
4.98381
20
-2.06622
11
4.97703
21
-2.07025
0
LINE
8
BLACK
6
CONTINUOUS
10
4.97703
20
-2.07025
11
4.9711
21
-2.07545
0
LINE
8
BLACK
6
CONTINUOUS
10
4.9711
20
-2.07545
11
4.96622
21
-2.08165
0
LINE
8
BLACK
6
CONTINUOUS
10
4.96622
20
-2.08165
11
4.96255
21
-2.08863
0
LINE
8
BLACK
6
CONTINUOUS
10
4.96255
20
-2.08863
11
4.96021
21
-2.09616
0
LINE
8
BLACK
6
CONTINUOUS
10
4.96021
20
-2.09616
11
4.95928
21
-2.10399
0
LINE
8
BLACK
6
CONTINUOUS
10
4.95928
20
-2.10399
11
4.9598
21
-2.11186
0
LINE
8
BLACK
6
CONTINUOUS
10
4.9598
20
-2.11186
11
4.96174
21
-2.1195
0
LINE
8
BLACK
6
CONTINUOUS
10
5.98122
20
-2.08883
11
5.98473
21
-2.0813
0
LINE
8
BLACK
6
CONTINUOUS
10
5.98473
20
-2.0813
11
5.98949
21
-2.0745
0
LINE
8
BLACK
6
CONTINUOUS
10
5.98949
20
-2.0745
11
5.99536
21
-2.06863
0
LINE
8
BLACK
6
CONTINUOUS
10
5.99536
20
-2.06863
11
6.00217
21
-2.06386
0
LINE
8
BLACK
6
CONTINUOUS
10
6.00217
20
-2.06386
11
6.00969
21
-2.06035
0
LINE
8
BLACK
6
CONTINUOUS
10
6.00969
20
-2.06035
11
6.01771
21
-2.0582
0
LINE
8
BLACK
6
CONTINUOUS
10
6.01771
20
-2.0582
11
6.02598
21
-2.05748
0
LINE
8
BLACK
6
CONTINUOUS
10
6.02598
20
-2.05748
11
6.03426
21
-2.0582
0
LINE
8
BLACK
6
CONTINUOUS
10
6.03426
20
-2.0582
11
6.04228
21
-2.06035
0
LINE
8
BLACK
6
CONTINUOUS
10
6.04228
20
-2.06035
11
6.0498
21
-2.06386
0
LINE
8
BLACK
6
CONTINUOUS
10
6.0498
20
-2.06386
11
6.05661
21
-2.06863
0
LINE
8
BLACK
6
CONTINUOUS
10
6.05661
20
-2.06863
11
6.06248
21
-2.0745
0
LINE
8
BLACK
6
CONTINUOUS
10
6.06248
20
-2.0745
11
6.06724
21
-2.0813
0
LINE
8
BLACK
6
CONTINUOUS
10
6.06724
20
-2.0813
11
6.07075
21
-2.08883
0
LINE
8
BLACK
6
CONTINUOUS
10
6.07075
20
-2.08883
11
6.0729
21
-2.09685
0
LINE
8
BLACK
6
CONTINUOUS
10
6.0729
20
-2.09685
11
6.07362
21
-2.10512
0
LINE
8
BLACK
6
CONTINUOUS
10
6.07362
20
-2.10512
11
6.0729
21
-2.11339
0
LINE
8
BLACK
6
CONTINUOUS
10
6.0729
20
-2.11339
11
6.07075
21
-2.12141
0
LINE
8
BLACK
6
CONTINUOUS
10
6.07075
20
-2.12141
11
6.06724
21
-2.12894
0
LINE
8
BLACK
6
CONTINUOUS
10
6.06724
20
-2.12894
11
6.06248
21
-2.13574
0
LINE
8
BLACK
6
CONTINUOUS
10
6.06248
20
-2.13574
11
6.05661
21
-2.14161
0
LINE
8
BLACK
6
CONTINUOUS
10
6.05661
20
-2.14161
11
6.0498
21
-2.14637
0
LINE
8
BLACK
6
CONTINUOUS
10
6.0498
20
-2.14637
11
6.04228
21
-2.14988
0
LINE
8
BLACK
6
CONTINUOUS
10
6.04228
20
-2.14988
11
6.03426
21
-2.15203
0
LINE
8
BLACK
6
CONTINUOUS
10
6.03426
20
-2.15203
11
6.02598
21
-2.15276
0
LINE
8
BLACK
6
CONTINUOUS
10
6.02598
20
-2.15276
11
6.01771
21
-2.15203
0
LINE
8
BLACK
6
CONTINUOUS
10
6.01771
20
-2.15203
11
6.00969
21
-2.14988
0
LINE
8
BLACK
6
CONTINUOUS
10
6.00969
20
-2.14988
11
6.00217
21
-2.14637
0
LINE
8
BLACK
6
CONTINUOUS
10
6.00217
20
-2.14637
11
5.99536
21
-2.14161
0
LINE
8
BLACK
6
CONTINUOUS
10
5.99536
20
-2.14161
11
5.98949
21
-2.13574
0
LINE
8
BLACK
6
CONTINUOUS
10
5.98949
20
-2.13574
11
5.98473
21
-2.12894
0
LINE
8
BLACK
6
CONTINUOUS
10
5.98473
20
-2.12894
11
5.98122
21
-2.12141
0
LINE
8
BLACK
6
CONTINUOUS
10
5.98122
20
-2.12141
11
5.97907
21
-2.11339
0
LINE
8
BLACK
6
CONTINUOUS
10
5.97907
20
-2.11339
11
5.97835
21
-2.10512
0
LINE
8
BLACK
6
CONTINUOUS
10
5.97835
20
-2.10512
11
5.97845
21
-2.10399
0
LINE
8
BLACK
6
CONTINUOUS
10
5.97845
20
-2.10399
11
5.97907
21
-2.09685
0
LINE
8
BLACK
6
CONTINUOUS
10
5.97907
20
-2.09685
11
5.98122
21
-2.08883
0
LINE
8
BLACK
6
CONTINUOUS
10
5.98536
20
-2.1195
11
5.98866
21
-2.12667
0
LINE
8
BLACK
6
CONTINUOUS
10
5.98866
20
-2.12667
11
5.99321
21
-2.13311
0
LINE
8
BLACK
6
CONTINUOUS
10
5.99321
20
-2.13311
11
5.99886
21
-2.13861
0
LINE
8
BLACK
6
CONTINUOUS
10
5.99886
20
-2.13861
11
6.00542
21
-2.14299
0
LINE
8
BLACK
6
CONTINUOUS
10
6.00542
20
-2.14299
11
6.01267
21
-2.14611
0
LINE
8
BLACK
6
CONTINUOUS
10
6.01267
20
-2.14611
11
6.02036
21
-2.14785
0
LINE
8
BLACK
6
CONTINUOUS
10
6.02036
20
-2.14785
11
6.02824
21
-2.14816
0
LINE
8
BLACK
6
CONTINUOUS
10
6.02824
20
-2.14816
11
6.03605
21
-2.14702
0
LINE
8
BLACK
6
CONTINUOUS
10
6.03605
20
-2.14702
11
6.04351
21
-2.14449
0
LINE
8
BLACK
6
CONTINUOUS
10
6.04351
20
-2.14449
11
6.05039
21
-2.14064
0
LINE
8
BLACK
6
CONTINUOUS
10
6.05039
20
-2.14064
11
6.05646
21
-2.13559
0
LINE
8
BLACK
6
CONTINUOUS
10
6.05646
20
-2.13559
11
6.0615
21
-2.12953
0
LINE
8
BLACK
6
CONTINUOUS
10
6.0615
20
-2.12953
11
6.06536
21
-2.12265
0
LINE
8
BLACK
6
CONTINUOUS
10
6.06536
20
-2.12265
11
6.06789
21
-2.11518
0
LINE
8
BLACK
6
CONTINUOUS
10
6.06789
20
-2.11518
11
6.06902
21
-2.10737
0
LINE
8
BLACK
6
CONTINUOUS
10
6.06902
20
-2.10737
11
6.06908
21
-2.10512
0
LINE
8
BLACK
6
CONTINUOUS
10
6.06908
20
-2.10512
11
6.06836
21
-2.09726
0
LINE
8
BLACK
6
CONTINUOUS
10
6.06836
20
-2.09726
11
6.06622
21
-2.08967
0
LINE
8
BLACK
6
CONTINUOUS
10
6.06622
20
-2.08967
11
6.06273
21
-2.0826
0
LINE
8
BLACK
6
CONTINUOUS
10
6.06273
20
-2.0826
11
6.05801
21
-2.07628
0
LINE
8
BLACK
6
CONTINUOUS
10
6.05801
20
-2.07628
11
6.05222
21
-2.07093
0
LINE
8
BLACK
6
CONTINUOUS
10
6.05222
20
-2.07093
11
6.04555
21
-2.06672
0
LINE
8
BLACK
6
CONTINUOUS
10
6.04555
20
-2.06672
11
6.03822
21
-2.0638
0
LINE
8
BLACK
6
CONTINUOUS
10
6.03822
20
-2.0638
11
6.03049
21
-2.06226
0
LINE
8
BLACK
6
CONTINUOUS
10
6.03049
20
-2.06226
11
6.0226
21
-2.06215
0
LINE
8
BLACK
6
CONTINUOUS
10
6.0226
20
-2.06215
11
6.01483
21
-2.06349
0
LINE
8
BLACK
6
CONTINUOUS
10
6.01483
20
-2.06349
11
6.00743
21
-2.06622
0
LINE
8
BLACK
6
CONTINUOUS
10
6.00743
20
-2.06622
11
6.00065
21
-2.07025
0
LINE
8
BLACK
6
CONTINUOUS
10
6.00065
20
-2.07025
11
5.99472
21
-2.07545
0
LINE
8
BLACK
6
CONTINUOUS
10
5.99472
20
-2.07545
11
5.98984
21
-2.08165
0
LINE
8
BLACK
6
CONTINUOUS
10
5.98984
20
-2.08165
11
5.98617
21
-2.08863
0
LINE
8
BLACK
6
CONTINUOUS
10
5.98617
20
-2.08863
11
5.98383
21
-2.09616
0
LINE
8
BLACK
6
CONTINUOUS
10
5.98383
20
-2.09616
11
5.9829
21
-2.10399
0
LINE
8
BLACK
6
CONTINUOUS
10
5.9829
20
-2.10399
11
5.98342
21
-2.11186
0
LINE
8
BLACK
6
CONTINUOUS
10
5.98342
20
-2.11186
11
5.98536
21
-2.1195
  0
ENDSEC
  0
EOF
