%TF.GenerationSoftware,KiCad,Pcbnew,(6.0.11)*%
%TF.CreationDate,2023-05-24T21:09:08+09:00*%
%TF.ProjectId,power,706f7765-722e-46b6-9963-61645f706362,rev?*%
%TF.SameCoordinates,Original*%
%TF.FileFunction,Copper,L1,Top*%
%TF.FilePolarity,Positive*%
%FSLAX46Y46*%
G04 Gerber Fmt 4.6, Leading zero omitted, Abs format (unit mm)*
G04 Created by KiCad (PCBNEW (6.0.11)) date 2023-05-24 21:09:08*
%MOMM*%
%LPD*%
G01*
G04 APERTURE LIST*
G04 Aperture macros list*
%AMRoundRect*
0 Rectangle with rounded corners*
0 $1 Rounding radius*
0 $2 $3 $4 $5 $6 $7 $8 $9 X,Y pos of 4 corners*
0 Add a 4 corners polygon primitive as box body*
4,1,4,$2,$3,$4,$5,$6,$7,$8,$9,$2,$3,0*
0 Add four circle primitives for the rounded corners*
1,1,$1+$1,$2,$3*
1,1,$1+$1,$4,$5*
1,1,$1+$1,$6,$7*
1,1,$1+$1,$8,$9*
0 Add four rect primitives between the rounded corners*
20,1,$1+$1,$2,$3,$4,$5,0*
20,1,$1+$1,$4,$5,$6,$7,0*
20,1,$1+$1,$6,$7,$8,$9,0*
20,1,$1+$1,$8,$9,$2,$3,0*%
G04 Aperture macros list end*
%TA.AperFunction,ComponentPad*%
%ADD10C,1.400000*%
%TD*%
%TA.AperFunction,ComponentPad*%
%ADD11R,3.500000X3.500000*%
%TD*%
%TA.AperFunction,ComponentPad*%
%ADD12C,3.500000*%
%TD*%
%TA.AperFunction,ComponentPad*%
%ADD13C,1.524000*%
%TD*%
%TA.AperFunction,SMDPad,CuDef*%
%ADD14RoundRect,0.250001X-1.999999X-0.799999X1.999999X-0.799999X1.999999X0.799999X-1.999999X0.799999X0*%
%TD*%
%TA.AperFunction,SMDPad,CuDef*%
%ADD15R,1.200000X2.200000*%
%TD*%
%TA.AperFunction,SMDPad,CuDef*%
%ADD16R,5.800000X6.400000*%
%TD*%
%TA.AperFunction,ComponentPad*%
%ADD17C,1.700000*%
%TD*%
%TA.AperFunction,ComponentPad*%
%ADD18C,3.000000*%
%TD*%
%TA.AperFunction,SMDPad,CuDef*%
%ADD19R,2.200000X1.200000*%
%TD*%
%TA.AperFunction,SMDPad,CuDef*%
%ADD20R,6.400000X5.800000*%
%TD*%
%TA.AperFunction,ComponentPad*%
%ADD21R,2.000000X0.900000*%
%TD*%
%TA.AperFunction,ComponentPad*%
%ADD22RoundRect,1.025000X1.025000X-1.025000X1.025000X1.025000X-1.025000X1.025000X-1.025000X-1.025000X0*%
%TD*%
%TA.AperFunction,ComponentPad*%
%ADD23C,4.100000*%
%TD*%
%TA.AperFunction,ViaPad*%
%ADD24C,0.800000*%
%TD*%
%TA.AperFunction,Conductor*%
%ADD25C,5.000000*%
%TD*%
%TA.AperFunction,Conductor*%
%ADD26C,2.500000*%
%TD*%
%TA.AperFunction,Conductor*%
%ADD27C,2.000000*%
%TD*%
%TA.AperFunction,Conductor*%
%ADD28C,4.000000*%
%TD*%
%TA.AperFunction,Conductor*%
%ADD29C,0.250000*%
%TD*%
G04 APERTURE END LIST*
D10*
%TO.P,J6,*%
%TO.N,*%
X145854000Y-107201000D03*
X134854000Y-107201000D03*
D11*
%TO.P,J6,1,Pin_1*%
%TO.N,GND*%
X137854000Y-97201000D03*
D12*
%TO.P,J6,2,Pin_2*%
%TO.N,VDD*%
X142854000Y-97201000D03*
%TD*%
D13*
%TO.P,MES1,1,-*%
%TO.N,GND*%
X157736000Y-77126000D03*
%TO.P,MES1,2,+*%
%TO.N,VDD*%
X155736000Y-77111000D03*
%TD*%
D14*
%TO.P,C1,1*%
%TO.N,VDD*%
X139802000Y-89160000D03*
%TO.P,C1,2*%
%TO.N,GND*%
X147002000Y-89160000D03*
%TD*%
D10*
%TO.P,J4,*%
%TO.N,*%
X160586000Y-107201000D03*
X149586000Y-107201000D03*
D11*
%TO.P,J4,1,Pin_1*%
%TO.N,GND*%
X152586000Y-97201000D03*
D12*
%TO.P,J4,2,Pin_2*%
%TO.N,VDD*%
X157586000Y-97201000D03*
%TD*%
D10*
%TO.P,J2,*%
%TO.N,*%
X120122000Y-107201000D03*
X131122000Y-107201000D03*
D11*
%TO.P,J2,1,Pin_1*%
%TO.N,GND*%
X123122000Y-97201000D03*
D12*
%TO.P,J2,2,Pin_2*%
%TO.N,VDD*%
X128122000Y-97201000D03*
%TD*%
D15*
%TO.P,Q1,1,G*%
%TO.N,GND*%
X126644000Y-84216000D03*
%TO.P,Q1,2,D*%
%TO.N,Net-(F1-Pad2)*%
X128924000Y-84216000D03*
D16*
X128924000Y-77916000D03*
D15*
%TO.P,Q1,3,S*%
%TO.N,Net-(Q1-Pad3)*%
X131204000Y-84216000D03*
%TD*%
D10*
%TO.P,J5,*%
%TO.N,*%
X105390000Y-107201000D03*
X116390000Y-107201000D03*
D11*
%TO.P,J5,1,Pin_1*%
%TO.N,GND*%
X108390000Y-97201000D03*
D12*
%TO.P,J5,2,Pin_2*%
%TO.N,VDD*%
X113390000Y-97201000D03*
%TD*%
D10*
%TO.P,J3,*%
%TO.N,*%
X164999000Y-92120000D03*
X164999000Y-81120000D03*
D11*
%TO.P,J3,1,Pin_1*%
%TO.N,GND*%
X154999000Y-89120000D03*
D12*
%TO.P,J3,2,Pin_2*%
%TO.N,VDD*%
X154999000Y-84120000D03*
%TD*%
D17*
%TO.P,SW1,1,A*%
%TO.N,unconnected-(SW1-Pad1)*%
X145942000Y-80524000D03*
%TO.P,SW1,2,B*%
%TO.N,Net-(Q1-Pad3)*%
X143402000Y-80524000D03*
%TO.P,SW1,3,C*%
%TO.N,Net-(Q2-Pad1)*%
X140862000Y-80524000D03*
%TO.P,SW1,4*%
%TO.N,N/C*%
X148482000Y-80524000D03*
%TO.P,SW1,5*%
X138322000Y-80524000D03*
%TD*%
D18*
%TO.P,F1,1*%
%TO.N,+7.5V*%
X105232000Y-69094000D03*
X111932000Y-69094000D03*
%TO.P,F1,2*%
%TO.N,Net-(F1-Pad2)*%
X121532000Y-69094000D03*
X128232000Y-69094000D03*
%TD*%
D19*
%TO.P,Q2,1,G*%
%TO.N,Net-(Q2-Pad1)*%
X131311000Y-91949000D03*
D20*
%TO.P,Q2,2,D*%
%TO.N,VDD*%
X125011000Y-89669000D03*
D19*
X131311000Y-89669000D03*
%TO.P,Q2,3,S*%
%TO.N,Net-(Q1-Pad3)*%
X131311000Y-87389000D03*
%TD*%
D21*
%TO.P,J1,*%
%TO.N,*%
X108230000Y-92100000D03*
X108230000Y-78600000D03*
D22*
%TO.P,J1,1,Pin_1*%
%TO.N,GND*%
X114230000Y-88950000D03*
D23*
%TO.P,J1,2,Pin_2*%
%TO.N,+7.5V*%
X114230000Y-81750000D03*
%TD*%
D24*
%TO.N,GND*%
X141920000Y-76506000D03*
X145520000Y-89706000D03*
X99920000Y-106006000D03*
X163214000Y-81032000D03*
X97920000Y-110006000D03*
X159150000Y-78238000D03*
X137520000Y-82106000D03*
X144920000Y-105506000D03*
X113920000Y-64506000D03*
X99920000Y-110006000D03*
X163722000Y-107956000D03*
X136420000Y-108506000D03*
X136320000Y-67906000D03*
X129920000Y-110006000D03*
X162706000Y-105924000D03*
X168040000Y-109988000D03*
X103920000Y-100506000D03*
X160674000Y-108972000D03*
X134920000Y-84106000D03*
X163214000Y-92208000D03*
X114920000Y-106006000D03*
X163920000Y-75306000D03*
X168040000Y-96018000D03*
X147920000Y-105506000D03*
X136420000Y-105506000D03*
X162960000Y-96018000D03*
X158642000Y-109988000D03*
X118420000Y-105506000D03*
X163976000Y-70110000D03*
X97920000Y-82506000D03*
X120920000Y-84706000D03*
X134120000Y-80106000D03*
X164992000Y-93986000D03*
X125920000Y-105506000D03*
X104420000Y-85006000D03*
X151420000Y-108506000D03*
X101920000Y-108006000D03*
X129920000Y-65506000D03*
X168040000Y-100844000D03*
X102420000Y-110006000D03*
X158642000Y-104908000D03*
X97920000Y-100506000D03*
X100920000Y-70506000D03*
X97920000Y-68506000D03*
X106320000Y-91106000D03*
X168040000Y-85604000D03*
X112920000Y-110006000D03*
X164992000Y-90430000D03*
X101420000Y-82506000D03*
X122920000Y-83106000D03*
X141624000Y-109988000D03*
X129920000Y-105506000D03*
X168040000Y-75190000D03*
X168040000Y-70110000D03*
X97920000Y-108006000D03*
X168040000Y-79762000D03*
X97920000Y-66506000D03*
X109920000Y-93306000D03*
X132720000Y-82906000D03*
X160674000Y-105416000D03*
X117920000Y-76506000D03*
X137475000Y-77925000D03*
X97920000Y-64506000D03*
X155420000Y-105506000D03*
X142625000Y-77975000D03*
X135920000Y-64506000D03*
X121920000Y-105506000D03*
X119420000Y-66006000D03*
X166770000Y-81032000D03*
X140920000Y-105506000D03*
X148320000Y-89706000D03*
X124420000Y-110006000D03*
X106320000Y-93306000D03*
X115920000Y-85006000D03*
X132920000Y-105506000D03*
X148320000Y-88706000D03*
X114920000Y-108506000D03*
X144720000Y-79306000D03*
X117920000Y-80006000D03*
X124920000Y-65506000D03*
X158642000Y-107194000D03*
X155420000Y-108506000D03*
X134320000Y-72106000D03*
X118420000Y-108506000D03*
X100920000Y-76506000D03*
X103920000Y-88506000D03*
X134120000Y-76306000D03*
X132920000Y-108506000D03*
X118920000Y-110006000D03*
X97920000Y-88506000D03*
X117920000Y-70506000D03*
X99920000Y-64506000D03*
X129920000Y-64506000D03*
X113920000Y-66506000D03*
X168040000Y-105924000D03*
X159404000Y-76460000D03*
X162706000Y-100844000D03*
X101920000Y-64506000D03*
X109920000Y-100506000D03*
X108420000Y-65506000D03*
X106920000Y-106006000D03*
X140920000Y-108506000D03*
X139600000Y-79800000D03*
X165754000Y-64522000D03*
X161182000Y-67824000D03*
X101420000Y-68506000D03*
X136520000Y-76306000D03*
X147120000Y-79306000D03*
X168040000Y-107956000D03*
X124920000Y-64506000D03*
X101920000Y-66506000D03*
X115120000Y-104106000D03*
X145520000Y-88706000D03*
X136850000Y-81600000D03*
X144920000Y-108506000D03*
X168040000Y-90684000D03*
X108420000Y-64506000D03*
X153054000Y-109988000D03*
X133920000Y-68006000D03*
X162960000Y-82810000D03*
X129920000Y-108506000D03*
X97920000Y-94506000D03*
X147920000Y-108506000D03*
X147212000Y-109988000D03*
X163722000Y-66554000D03*
X161182000Y-64522000D03*
X103920000Y-108506000D03*
X166008000Y-109988000D03*
X166770000Y-92208000D03*
X162960000Y-90684000D03*
X134120000Y-85706000D03*
X146920000Y-88706000D03*
X161182000Y-72396000D03*
X168040000Y-82810000D03*
X149720000Y-79306000D03*
X142125000Y-79750000D03*
X109920000Y-90906000D03*
X164992000Y-79254000D03*
X147520000Y-76506000D03*
X162960000Y-85604000D03*
X166008000Y-68586000D03*
X152520000Y-76506000D03*
X125920000Y-108506000D03*
X167786000Y-64522000D03*
X106920000Y-108506000D03*
X103920000Y-94506000D03*
X119420000Y-64506000D03*
X135920000Y-110006000D03*
X168040000Y-66554000D03*
X166008000Y-105924000D03*
X162706000Y-109988000D03*
X164992000Y-82810000D03*
X126520000Y-84106000D03*
X151420000Y-105506000D03*
X97920000Y-105506000D03*
X97920000Y-76506000D03*
X136320000Y-72106000D03*
X162452000Y-107194000D03*
X101720000Y-105506000D03*
X99920000Y-68506000D03*
X103920000Y-106006000D03*
X110420000Y-85506000D03*
X110920000Y-106006000D03*
X121920000Y-108506000D03*
X106920000Y-110006000D03*
X97920000Y-70506000D03*
X146920000Y-89706000D03*
X161182000Y-75190000D03*
%TO.N,Net-(Q1-Pad3)*%
X132226000Y-85238000D03*
%TO.N,Net-(Q2-Pad1)*%
X131311000Y-91949000D03*
%TD*%
D25*
%TO.N,VDD*%
X142304000Y-101651000D02*
X155549000Y-101651000D01*
X158899000Y-84120000D02*
X159449000Y-84670000D01*
D26*
X154324000Y-79545000D02*
X159449000Y-84670000D01*
X148552000Y-93986000D02*
X148136000Y-93570000D01*
D25*
X124860000Y-92751000D02*
X126146873Y-92751000D01*
D27*
X147785138Y-84120000D02*
X143616000Y-84120000D01*
D28*
X146756825Y-85170000D02*
X159076000Y-85170000D01*
D26*
X150716000Y-85910000D02*
X150716000Y-90650162D01*
D27*
X155736000Y-77111000D02*
X155736000Y-80908127D01*
D26*
X154999000Y-84120000D02*
X152524127Y-84120000D01*
D25*
X143780071Y-94110071D02*
X145688000Y-96018000D01*
X154999000Y-84120000D02*
X158899000Y-84120000D01*
X159449000Y-95338000D02*
X157586000Y-97201000D01*
X142304000Y-92751000D02*
X135111000Y-92751000D01*
X148136000Y-93570000D02*
X148136000Y-92910000D01*
X142854000Y-97201000D02*
X147304000Y-101651000D01*
X126664000Y-88016000D02*
X127400000Y-88016000D01*
D26*
X157586000Y-97201000D02*
X157586000Y-94726127D01*
X148136000Y-91660000D02*
X149706162Y-91660000D01*
D25*
X142304000Y-92751000D02*
X142304000Y-101651000D01*
D27*
X155736000Y-77111000D02*
X154794138Y-77111000D01*
D25*
X128122000Y-101101000D02*
X128122000Y-97201000D01*
D26*
X151799000Y-92320000D02*
X159008000Y-92320000D01*
D27*
X159449000Y-81901630D02*
X159449000Y-84670000D01*
D25*
X118672000Y-101651000D02*
X118672000Y-95256000D01*
D26*
X150798999Y-90567163D02*
X150798999Y-85910000D01*
D25*
X131711000Y-95249000D02*
X127572000Y-95249000D01*
D28*
X142302001Y-86620000D02*
X143012001Y-85910000D01*
D25*
X159449000Y-84670000D02*
X159449000Y-92761000D01*
X143616000Y-84120000D02*
X142302001Y-85433999D01*
X127400000Y-88016000D02*
X127272000Y-88144000D01*
D26*
X125181000Y-89839000D02*
X132325824Y-89839000D01*
X133863000Y-93999000D02*
X135111000Y-92751000D01*
X149706162Y-91660000D02*
X150798999Y-90567163D01*
D27*
X157772370Y-81901630D02*
X156729503Y-81901630D01*
D26*
X152524127Y-84120000D02*
X151799000Y-84845127D01*
X155605873Y-80778000D02*
X155736000Y-80908127D01*
X134941000Y-89839000D02*
X135111000Y-89669000D01*
D25*
X124905000Y-101651000D02*
X127572000Y-101651000D01*
X126146873Y-92751000D02*
X127400000Y-94004127D01*
D26*
X152546000Y-81667000D02*
X152546000Y-80778000D01*
D25*
X125011000Y-91632000D02*
X128122000Y-94743000D01*
X142854000Y-93301000D02*
X142304000Y-92751000D01*
X145688000Y-96018000D02*
X148136000Y-93570000D01*
D26*
X125011000Y-89669000D02*
X125181000Y-89839000D01*
D25*
X142052000Y-86870001D02*
X142052000Y-91181929D01*
X123486000Y-88144000D02*
X122447000Y-88144000D01*
X142854000Y-97201000D02*
X142854000Y-92212000D01*
D26*
X154999000Y-84120000D02*
X152546000Y-81667000D01*
D25*
X122447000Y-88144000D02*
X119399000Y-91192000D01*
X125011000Y-89669000D02*
X123486000Y-88144000D01*
X148136000Y-101444000D02*
X147929000Y-101651000D01*
X118672000Y-92751000D02*
X124860000Y-92751000D01*
D26*
X157586000Y-94726127D02*
X156845873Y-93986000D01*
D27*
X155736000Y-77111000D02*
X155736000Y-78188630D01*
D25*
X142302001Y-85433999D02*
X142302001Y-86620000D01*
D27*
X155736000Y-77111000D02*
X155736000Y-77900688D01*
D25*
X135111000Y-89669000D02*
X140660000Y-84120000D01*
D26*
X128849127Y-93999000D02*
X133863000Y-93999000D01*
D25*
X143780071Y-92910000D02*
X148136000Y-92910000D01*
X127572000Y-101651000D02*
X128122000Y-101101000D01*
D27*
X159449000Y-81613688D02*
X159449000Y-84670000D01*
X131311000Y-89669000D02*
X129685000Y-89669000D01*
D25*
X147304000Y-101651000D02*
X157036000Y-101651000D01*
X135111000Y-92751000D02*
X135111000Y-89669000D01*
X142052000Y-91181929D02*
X143780071Y-92910000D01*
D28*
X143012001Y-85910000D02*
X146016825Y-85910000D01*
D25*
X132943000Y-101651000D02*
X133404000Y-101190000D01*
D26*
X156845873Y-93986000D02*
X148552000Y-93986000D01*
D25*
X142304000Y-101651000D02*
X142854000Y-101101000D01*
D26*
X148136000Y-92910000D02*
X148136000Y-91660000D01*
D25*
X159449000Y-84797000D02*
X159449000Y-83578260D01*
X133404000Y-101190000D02*
X133404000Y-95249000D01*
X142854000Y-97201000D02*
X142854000Y-93301000D01*
D26*
X129685000Y-89669000D02*
X129855000Y-89839000D01*
D25*
X119399000Y-91192000D02*
X123488000Y-91192000D01*
X132181000Y-95719000D02*
X131711000Y-95249000D01*
D26*
X155605873Y-80535873D02*
X154324000Y-79254000D01*
D25*
X157036000Y-101651000D02*
X157036000Y-93570000D01*
X142854000Y-101101000D02*
X142854000Y-97201000D01*
D27*
X155736000Y-77900688D02*
X159449000Y-81613688D01*
D25*
X127572000Y-101651000D02*
X132181000Y-101651000D01*
X125011000Y-89669000D02*
X126664000Y-88016000D01*
X128122000Y-97201000D02*
X128122000Y-94726127D01*
D28*
X146016825Y-85910000D02*
X150716000Y-85910000D01*
D25*
X143780071Y-92910000D02*
X143780071Y-94110071D01*
X132181000Y-101651000D02*
X132943000Y-101651000D01*
X142302001Y-86620000D02*
X142052000Y-86870001D01*
D26*
X159008000Y-92320000D02*
X159449000Y-92761000D01*
D25*
X124905000Y-101651000D02*
X118672000Y-101651000D01*
D26*
X151799000Y-84845127D02*
X151799000Y-92320000D01*
D28*
X150716000Y-85910000D02*
X150798999Y-85910000D01*
D27*
X131311000Y-89669000D02*
X139293000Y-89669000D01*
D25*
X128122000Y-94726127D02*
X127400000Y-94004127D01*
D28*
X150798999Y-85910000D02*
X151049000Y-86160001D01*
D25*
X142854000Y-92212000D02*
X139802000Y-89160000D01*
D28*
X159076000Y-85170000D02*
X159449000Y-84797000D01*
D25*
X118672000Y-95256000D02*
X118672000Y-92751000D01*
X159449000Y-92761000D02*
X159449000Y-99238000D01*
X159449000Y-83578260D02*
X157772370Y-81901630D01*
X127400000Y-94004127D02*
X127400000Y-88016000D01*
X132181000Y-101651000D02*
X132181000Y-95719000D01*
X125011000Y-89669000D02*
X125011000Y-91632000D01*
D28*
X146016825Y-85910000D02*
X146756825Y-85170000D01*
D25*
X127572000Y-95249000D02*
X127572000Y-101651000D01*
X113390000Y-97201000D02*
X119399000Y-91192000D01*
X113390000Y-97201000D02*
X117840000Y-101651000D01*
X159449000Y-84797000D02*
X159449000Y-97751000D01*
X159449000Y-92761000D02*
X159449000Y-95338000D01*
D27*
X159449000Y-81901630D02*
X157772370Y-81901630D01*
D26*
X150716000Y-90650162D02*
X149706162Y-91660000D01*
D25*
X128122000Y-94743000D02*
X128122000Y-97201000D01*
D27*
X139293000Y-89669000D02*
X139802000Y-89160000D01*
D25*
X159449000Y-84670000D02*
X159449000Y-84797000D01*
X143616000Y-84120000D02*
X154999000Y-84120000D01*
D26*
X152546000Y-80778000D02*
X155605873Y-80778000D01*
D25*
X148136000Y-92910000D02*
X148136000Y-101444000D01*
D26*
X128122000Y-94726127D02*
X128849127Y-93999000D01*
D25*
X132181000Y-101651000D02*
X142304000Y-101651000D01*
X157586000Y-99614000D02*
X155549000Y-101651000D01*
X117840000Y-101651000D02*
X124905000Y-101651000D01*
X140660000Y-84120000D02*
X143616000Y-84120000D01*
X159449000Y-99238000D02*
X157036000Y-101651000D01*
X159449000Y-97751000D02*
X157586000Y-99614000D01*
D27*
X159449000Y-81901630D02*
X159449000Y-84797000D01*
X155736000Y-80908127D02*
X152524127Y-84120000D01*
X129685000Y-89669000D02*
X125011000Y-89669000D01*
D26*
X129855000Y-89839000D02*
X134941000Y-89839000D01*
X155605873Y-80778000D02*
X155605873Y-80535873D01*
D25*
X157586000Y-97201000D02*
X157586000Y-99614000D01*
X139293000Y-89669000D02*
X135111000Y-89669000D01*
D27*
X154794138Y-77111000D02*
X147785138Y-84120000D01*
D25*
X123488000Y-91192000D02*
X125011000Y-89669000D01*
X127272000Y-88144000D02*
X122447000Y-88144000D01*
D27*
X156729503Y-81901630D02*
X155736000Y-80908127D01*
X155736000Y-78188630D02*
X159449000Y-81901630D01*
D26*
X154324000Y-79254000D02*
X154324000Y-79545000D01*
D29*
%TO.N,GND*%
X125720000Y-84906000D02*
X125120000Y-84906000D01*
X158366000Y-76460000D02*
X157736000Y-77090000D01*
X126520000Y-84106000D02*
X125920000Y-83506000D01*
X157736000Y-77090000D02*
X157736000Y-77126000D01*
X159404000Y-76460000D02*
X158366000Y-76460000D01*
X108815000Y-97201000D02*
X110920000Y-99306000D01*
X108390000Y-97201000D02*
X108825000Y-97201000D01*
X125920000Y-83506000D02*
X125320000Y-83506000D01*
X126520000Y-84106000D02*
X125720000Y-84906000D01*
X108390000Y-97201000D02*
X108815000Y-97201000D01*
X108825000Y-97201000D02*
X110920000Y-95106000D01*
D25*
%TO.N,+7.5V*%
X104530000Y-75450000D02*
X104530000Y-75688000D01*
X105232000Y-69094000D02*
X114160000Y-78022000D01*
X114230000Y-81750000D02*
X111930000Y-79450000D01*
X106064000Y-81750000D02*
X114230000Y-81750000D01*
X111914000Y-75434000D02*
X104546000Y-75434000D01*
X114230000Y-71392000D02*
X111932000Y-69094000D01*
X105232000Y-69094000D02*
X111932000Y-69094000D01*
X104530000Y-80216000D02*
X104530000Y-69796000D01*
X104530000Y-69796000D02*
X105232000Y-69094000D01*
X114230000Y-78022000D02*
X114230000Y-71392000D01*
X114160000Y-78022000D02*
X114230000Y-78022000D01*
X104546000Y-75434000D02*
X104530000Y-75450000D01*
X104530000Y-80216000D02*
X106064000Y-81750000D01*
X114230000Y-81750000D02*
X114230000Y-78022000D01*
X111930000Y-75450000D02*
X111914000Y-75434000D01*
X111930000Y-79450000D02*
X111930000Y-75450000D01*
%TO.N,Net-(F1-Pad2)*%
X124030000Y-77916000D02*
X128924000Y-77916000D01*
X125622000Y-80416000D02*
X130194000Y-80416000D01*
X121532000Y-69094000D02*
X121532000Y-75418000D01*
X128232000Y-69094000D02*
X128232000Y-77224000D01*
X121532000Y-76326000D02*
X121532000Y-75418000D01*
X128924000Y-77916000D02*
X128924000Y-77984000D01*
X121532000Y-75418000D02*
X124030000Y-77916000D01*
X130194000Y-80016000D02*
X130194000Y-80416000D01*
X126492000Y-80416000D02*
X125622000Y-80416000D01*
X121532000Y-69094000D02*
X125368000Y-69094000D01*
X125368000Y-76578000D02*
X124030000Y-77916000D01*
X125368000Y-69094000D02*
X128232000Y-69094000D01*
X130702000Y-69856000D02*
X130702000Y-79508000D01*
X128924000Y-77984000D02*
X126492000Y-80416000D01*
X128232000Y-69094000D02*
X129940000Y-69094000D01*
X130702000Y-79508000D02*
X130194000Y-80016000D01*
X128232000Y-77224000D02*
X128924000Y-77916000D01*
X129940000Y-69094000D02*
X130702000Y-69856000D01*
X125368000Y-69094000D02*
X125368000Y-76578000D01*
D27*
X128924000Y-84216000D02*
X128924000Y-77916000D01*
D25*
X125622000Y-80416000D02*
X121532000Y-76326000D01*
D27*
%TO.N,Net-(Q1-Pad3)*%
X132226000Y-85238000D02*
X131204000Y-84216000D01*
X131210000Y-84222000D02*
X131210000Y-87288000D01*
X131210000Y-87288000D02*
X131311000Y-87389000D01*
X131204000Y-84216000D02*
X131210000Y-84222000D01*
X132226000Y-86620000D02*
X132226000Y-85238000D01*
X131311000Y-87389000D02*
X131457000Y-87389000D01*
X131457000Y-87389000D02*
X132226000Y-86620000D01*
%TD*%
%TA.AperFunction,Conductor*%
%TO.N,GND*%
G36*
X136889492Y-64034502D02*
G01*
X136935985Y-64088158D01*
X136946089Y-64158432D01*
X136916595Y-64223012D01*
X136907676Y-64231852D01*
X136903042Y-64234776D01*
X136897102Y-64241501D01*
X136897098Y-64241505D01*
X136883468Y-64256938D01*
X136871276Y-64268982D01*
X136855673Y-64282427D01*
X136855671Y-64282430D01*
X136848873Y-64288287D01*
X136843993Y-64295816D01*
X136843992Y-64295817D01*
X136834906Y-64309835D01*
X136823615Y-64324709D01*
X136812569Y-64337217D01*
X136806622Y-64343951D01*
X136800312Y-64357391D01*
X136794058Y-64370711D01*
X136785737Y-64385691D01*
X136774529Y-64402983D01*
X136774527Y-64402988D01*
X136769648Y-64410515D01*
X136767078Y-64419108D01*
X136767076Y-64419113D01*
X136762289Y-64435120D01*
X136755628Y-64452564D01*
X136748533Y-64467676D01*
X136744719Y-64475800D01*
X136743338Y-64484667D01*
X136743338Y-64484668D01*
X136740170Y-64505015D01*
X136736387Y-64521732D01*
X136730485Y-64541466D01*
X136730484Y-64541472D01*
X136727914Y-64550066D01*
X136727859Y-64559037D01*
X136727859Y-64559038D01*
X136727704Y-64584497D01*
X136727671Y-64585289D01*
X136727500Y-64586386D01*
X136727500Y-64617377D01*
X136727498Y-64618147D01*
X136727024Y-64695721D01*
X136727408Y-64697065D01*
X136727500Y-64698410D01*
X136727500Y-68563469D01*
X136707498Y-68631590D01*
X136653842Y-68678083D01*
X136583568Y-68688187D01*
X136535665Y-68670901D01*
X136495501Y-68646288D01*
X136495490Y-68646282D01*
X136491271Y-68643697D01*
X136486701Y-68641804D01*
X136486697Y-68641802D01*
X136254662Y-68545690D01*
X136254660Y-68545689D01*
X136250089Y-68543796D01*
X136148452Y-68519395D01*
X136001062Y-68484009D01*
X136001056Y-68484008D01*
X135996249Y-68482854D01*
X135736000Y-68462372D01*
X135475751Y-68482854D01*
X135470944Y-68484008D01*
X135470938Y-68484009D01*
X135323548Y-68519395D01*
X135221911Y-68543796D01*
X135217340Y-68545689D01*
X135217338Y-68545690D01*
X134985303Y-68641802D01*
X134985299Y-68641804D01*
X134980729Y-68643697D01*
X134758144Y-68780097D01*
X134559637Y-68949637D01*
X134390097Y-69148144D01*
X134253697Y-69370729D01*
X134251804Y-69375299D01*
X134251802Y-69375303D01*
X134155690Y-69607338D01*
X134153796Y-69611911D01*
X134138165Y-69677019D01*
X134094009Y-69860938D01*
X134094008Y-69860944D01*
X134092854Y-69865751D01*
X134084440Y-69972666D01*
X134072901Y-70119282D01*
X134072899Y-70119282D01*
X134072900Y-70119290D01*
X134072372Y-70126000D01*
X134092854Y-70386249D01*
X134094008Y-70391056D01*
X134094009Y-70391062D01*
X134108295Y-70450565D01*
X134153796Y-70640089D01*
X134155689Y-70644660D01*
X134155690Y-70644662D01*
X134244198Y-70858338D01*
X134253697Y-70881271D01*
X134390097Y-71103856D01*
X134559637Y-71302363D01*
X134758144Y-71471903D01*
X134980729Y-71608303D01*
X134985299Y-71610196D01*
X134985303Y-71610198D01*
X135174416Y-71688531D01*
X135221911Y-71708204D01*
X135310931Y-71729576D01*
X135470938Y-71767991D01*
X135470944Y-71767992D01*
X135475751Y-71769146D01*
X135736000Y-71789628D01*
X135996249Y-71769146D01*
X136001056Y-71767992D01*
X136001062Y-71767991D01*
X136161069Y-71729576D01*
X136250089Y-71708204D01*
X136297584Y-71688531D01*
X136486697Y-71610198D01*
X136486701Y-71610196D01*
X136491271Y-71608303D01*
X136495491Y-71605717D01*
X136495501Y-71605712D01*
X136535665Y-71581099D01*
X136604198Y-71562560D01*
X136671875Y-71584016D01*
X136717208Y-71638655D01*
X136727500Y-71688531D01*
X136727500Y-75617377D01*
X136727498Y-75618147D01*
X136727024Y-75695721D01*
X136729491Y-75704352D01*
X136735150Y-75724153D01*
X136738728Y-75740915D01*
X136742920Y-75770187D01*
X136746634Y-75778355D01*
X136746634Y-75778356D01*
X136753548Y-75793562D01*
X136759996Y-75811086D01*
X136767051Y-75835771D01*
X136771843Y-75843365D01*
X136771844Y-75843368D01*
X136782830Y-75860780D01*
X136790969Y-75875863D01*
X136803208Y-75902782D01*
X136809069Y-75909584D01*
X136819970Y-75922235D01*
X136831073Y-75937239D01*
X136844776Y-75958958D01*
X136851501Y-75964897D01*
X136851504Y-75964901D01*
X136866938Y-75978532D01*
X136878982Y-75990724D01*
X136892427Y-76006327D01*
X136892430Y-76006329D01*
X136898287Y-76013127D01*
X136905816Y-76018007D01*
X136905817Y-76018008D01*
X136919835Y-76027094D01*
X136934709Y-76038385D01*
X136947217Y-76049431D01*
X136953951Y-76055378D01*
X136980711Y-76067942D01*
X136995691Y-76076263D01*
X137012983Y-76087471D01*
X137012988Y-76087473D01*
X137020515Y-76092352D01*
X137029108Y-76094922D01*
X137029113Y-76094924D01*
X137045120Y-76099711D01*
X137062564Y-76106372D01*
X137077676Y-76113467D01*
X137077678Y-76113468D01*
X137085800Y-76117281D01*
X137094667Y-76118662D01*
X137094668Y-76118662D01*
X137097353Y-76119080D01*
X137115017Y-76121830D01*
X137131732Y-76125613D01*
X137151466Y-76131515D01*
X137151472Y-76131516D01*
X137160066Y-76134086D01*
X137169037Y-76134141D01*
X137169038Y-76134141D01*
X137179097Y-76134202D01*
X137194506Y-76134296D01*
X137195289Y-76134329D01*
X137196386Y-76134500D01*
X137227377Y-76134500D01*
X137228147Y-76134502D01*
X137301785Y-76134952D01*
X137301786Y-76134952D01*
X137305721Y-76134976D01*
X137307065Y-76134592D01*
X137308410Y-76134500D01*
X153333107Y-76134500D01*
X153401228Y-76154502D01*
X153447721Y-76208158D01*
X153457825Y-76278432D01*
X153428331Y-76343012D01*
X153422202Y-76349595D01*
X149875515Y-79896282D01*
X149813203Y-79930308D01*
X149742388Y-79925243D01*
X149685552Y-79882696D01*
X149680628Y-79875627D01*
X149679294Y-79873564D01*
X149575451Y-79713047D01*
X149564822Y-79696617D01*
X149564820Y-79696614D01*
X149562014Y-79692277D01*
X149411670Y-79527051D01*
X149407619Y-79523852D01*
X149407615Y-79523848D01*
X149240414Y-79391800D01*
X149240410Y-79391798D01*
X149236359Y-79388598D01*
X149040789Y-79280638D01*
X149035920Y-79278914D01*
X149035916Y-79278912D01*
X148835087Y-79207795D01*
X148835083Y-79207794D01*
X148830212Y-79206069D01*
X148825119Y-79205162D01*
X148825116Y-79205161D01*
X148615373Y-79167800D01*
X148615367Y-79167799D01*
X148610284Y-79166894D01*
X148536452Y-79165992D01*
X148392081Y-79164228D01*
X148392079Y-79164228D01*
X148386911Y-79164165D01*
X148166091Y-79197955D01*
X147953756Y-79267357D01*
X147923443Y-79283137D01*
X147809439Y-79342484D01*
X147755607Y-79370507D01*
X147751474Y-79373610D01*
X147751471Y-79373612D01*
X147581100Y-79501530D01*
X147576965Y-79504635D01*
X147422629Y-79666138D01*
X147315201Y-79823621D01*
X147260293Y-79868621D01*
X147189768Y-79876792D01*
X147126021Y-79845538D01*
X147105324Y-79821054D01*
X147024822Y-79696617D01*
X147024820Y-79696614D01*
X147022014Y-79692277D01*
X146871670Y-79527051D01*
X146867619Y-79523852D01*
X146867615Y-79523848D01*
X146700414Y-79391800D01*
X146700410Y-79391798D01*
X146696359Y-79388598D01*
X146500789Y-79280638D01*
X146495920Y-79278914D01*
X146495916Y-79278912D01*
X146295087Y-79207795D01*
X146295083Y-79207794D01*
X146290212Y-79206069D01*
X146285119Y-79205162D01*
X146285116Y-79205161D01*
X146075373Y-79167800D01*
X146075367Y-79167799D01*
X146070284Y-79166894D01*
X145996452Y-79165992D01*
X145852081Y-79164228D01*
X145852079Y-79164228D01*
X145846911Y-79164165D01*
X145626091Y-79197955D01*
X145413756Y-79267357D01*
X145383443Y-79283137D01*
X145269439Y-79342484D01*
X145215607Y-79370507D01*
X145211474Y-79373610D01*
X145211471Y-79373612D01*
X145041100Y-79501530D01*
X145036965Y-79504635D01*
X144882629Y-79666138D01*
X144775201Y-79823621D01*
X144720293Y-79868621D01*
X144649768Y-79876792D01*
X144586021Y-79845538D01*
X144565324Y-79821054D01*
X144484822Y-79696617D01*
X144484820Y-79696614D01*
X144482014Y-79692277D01*
X144331670Y-79527051D01*
X144327619Y-79523852D01*
X144327615Y-79523848D01*
X144160414Y-79391800D01*
X144160410Y-79391798D01*
X144156359Y-79388598D01*
X143960789Y-79280638D01*
X143955920Y-79278914D01*
X143955916Y-79278912D01*
X143755087Y-79207795D01*
X143755083Y-79207794D01*
X143750212Y-79206069D01*
X143745119Y-79205162D01*
X143745116Y-79205161D01*
X143535373Y-79167800D01*
X143535367Y-79167799D01*
X143530284Y-79166894D01*
X143456452Y-79165992D01*
X143312081Y-79164228D01*
X143312079Y-79164228D01*
X143306911Y-79164165D01*
X143086091Y-79197955D01*
X142873756Y-79267357D01*
X142843443Y-79283137D01*
X142729439Y-79342484D01*
X142675607Y-79370507D01*
X142671474Y-79373610D01*
X142671471Y-79373612D01*
X142501100Y-79501530D01*
X142496965Y-79504635D01*
X142342629Y-79666138D01*
X142235201Y-79823621D01*
X142180293Y-79868621D01*
X142109768Y-79876792D01*
X142046021Y-79845538D01*
X142025324Y-79821054D01*
X141944822Y-79696617D01*
X141944820Y-79696614D01*
X141942014Y-79692277D01*
X141791670Y-79527051D01*
X141787619Y-79523852D01*
X141787615Y-79523848D01*
X141620414Y-79391800D01*
X141620410Y-79391798D01*
X141616359Y-79388598D01*
X141420789Y-79280638D01*
X141415920Y-79278914D01*
X141415916Y-79278912D01*
X141215087Y-79207795D01*
X141215083Y-79207794D01*
X141210212Y-79206069D01*
X141205119Y-79205162D01*
X141205116Y-79205161D01*
X140995373Y-79167800D01*
X140995367Y-79167799D01*
X140990284Y-79166894D01*
X140916452Y-79165992D01*
X140772081Y-79164228D01*
X140772079Y-79164228D01*
X140766911Y-79164165D01*
X140546091Y-79197955D01*
X140333756Y-79267357D01*
X140303443Y-79283137D01*
X140189439Y-79342484D01*
X140135607Y-79370507D01*
X140131474Y-79373610D01*
X140131471Y-79373612D01*
X139961100Y-79501530D01*
X139956965Y-79504635D01*
X139802629Y-79666138D01*
X139695201Y-79823621D01*
X139640293Y-79868621D01*
X139569768Y-79876792D01*
X139506021Y-79845538D01*
X139485324Y-79821054D01*
X139404822Y-79696617D01*
X139404820Y-79696614D01*
X139402014Y-79692277D01*
X139251670Y-79527051D01*
X139247619Y-79523852D01*
X139247615Y-79523848D01*
X139080414Y-79391800D01*
X139080410Y-79391798D01*
X139076359Y-79388598D01*
X138880789Y-79280638D01*
X138875920Y-79278914D01*
X138875916Y-79278912D01*
X138675087Y-79207795D01*
X138675083Y-79207794D01*
X138670212Y-79206069D01*
X138665119Y-79205162D01*
X138665116Y-79205161D01*
X138455373Y-79167800D01*
X138455367Y-79167799D01*
X138450284Y-79166894D01*
X138376452Y-79165992D01*
X138232081Y-79164228D01*
X138232079Y-79164228D01*
X138226911Y-79164165D01*
X138006091Y-79197955D01*
X137793756Y-79267357D01*
X137763443Y-79283137D01*
X137649439Y-79342484D01*
X137595607Y-79370507D01*
X137591474Y-79373610D01*
X137591471Y-79373612D01*
X137421100Y-79501530D01*
X137416965Y-79504635D01*
X137262629Y-79666138D01*
X137259720Y-79670403D01*
X137259714Y-79670411D01*
X137232315Y-79710577D01*
X137136743Y-79850680D01*
X137110654Y-79906884D01*
X137046906Y-80044219D01*
X137042688Y-80053305D01*
X136982989Y-80268570D01*
X136959251Y-80490695D01*
X136959548Y-80495848D01*
X136959548Y-80495851D01*
X136966357Y-80613933D01*
X136972110Y-80713715D01*
X136973247Y-80718761D01*
X136973248Y-80718767D01*
X136996641Y-80822564D01*
X137021222Y-80931639D01*
X137105266Y-81138616D01*
X137116798Y-81157435D01*
X137205647Y-81302423D01*
X137221987Y-81329088D01*
X137368250Y-81497938D01*
X137540126Y-81640632D01*
X137733000Y-81753338D01*
X137737825Y-81755180D01*
X137737826Y-81755181D01*
X137768997Y-81767084D01*
X137941692Y-81833030D01*
X137946760Y-81834061D01*
X137946763Y-81834062D01*
X138054379Y-81855957D01*
X138160597Y-81877567D01*
X138165772Y-81877757D01*
X138165774Y-81877757D01*
X138341644Y-81884206D01*
X138408986Y-81906691D01*
X138453482Y-81962014D01*
X138461004Y-82032611D01*
X138426122Y-82099216D01*
X133949595Y-86575743D01*
X133887283Y-86609769D01*
X133816468Y-86604704D01*
X133759632Y-86562157D01*
X133734821Y-86495637D01*
X133734500Y-86486648D01*
X133734500Y-85262002D01*
X133734549Y-85258483D01*
X133737193Y-85163850D01*
X133737193Y-85163847D01*
X133737334Y-85158795D01*
X133726941Y-85080902D01*
X133726241Y-85074353D01*
X133720346Y-85001077D01*
X133720345Y-85001073D01*
X133719940Y-84996035D01*
X133712101Y-84964122D01*
X133709573Y-84950738D01*
X133705898Y-84923194D01*
X133705229Y-84918180D01*
X133682522Y-84842971D01*
X133680781Y-84836608D01*
X133663244Y-84765209D01*
X133662037Y-84760294D01*
X133649199Y-84730048D01*
X133644561Y-84717237D01*
X133636530Y-84690638D01*
X133635067Y-84685792D01*
X133632849Y-84681244D01*
X133632846Y-84681237D01*
X133600629Y-84615182D01*
X133597893Y-84609180D01*
X133574092Y-84553109D01*
X133567188Y-84536844D01*
X133549681Y-84509044D01*
X133543052Y-84497134D01*
X133541421Y-84493789D01*
X133528654Y-84467612D01*
X133483357Y-84403400D01*
X133479699Y-84397914D01*
X133440529Y-84335714D01*
X133440528Y-84335713D01*
X133437833Y-84331433D01*
X133434492Y-84327644D01*
X133434488Y-84327638D01*
X133416102Y-84306783D01*
X133407656Y-84296088D01*
X133405574Y-84293137D01*
X133388726Y-84269253D01*
X133383733Y-84263785D01*
X133370062Y-84248813D01*
X133370054Y-84248805D01*
X133369091Y-84247750D01*
X133329375Y-84208034D01*
X133323956Y-84202264D01*
X133280650Y-84153142D01*
X133280647Y-84153139D01*
X133277302Y-84149345D01*
X133245011Y-84122821D01*
X133235892Y-84114551D01*
X132349405Y-83228064D01*
X132315379Y-83165752D01*
X132312500Y-83138969D01*
X132312500Y-83067866D01*
X132305745Y-83005684D01*
X132254615Y-82869295D01*
X132209607Y-82809241D01*
X132184760Y-82742737D01*
X132199813Y-82673355D01*
X132220873Y-82645050D01*
X132286327Y-82578907D01*
X132290117Y-82575235D01*
X132366441Y-82504310D01*
X132366448Y-82504302D01*
X132369096Y-82501842D01*
X132396004Y-82470337D01*
X132407116Y-82457327D01*
X132413366Y-82450531D01*
X132451978Y-82411512D01*
X132451979Y-82411511D01*
X132454534Y-82408929D01*
X132521072Y-82324070D01*
X132524415Y-82319987D01*
X132532012Y-82311092D01*
X132594422Y-82238019D01*
X132627076Y-82189424D01*
X132632500Y-82181959D01*
X132641416Y-82170589D01*
X132668614Y-82135902D01*
X132724938Y-82043990D01*
X132727785Y-82039556D01*
X132785907Y-81953060D01*
X132785912Y-81953052D01*
X132787931Y-81950047D01*
X132789588Y-81946836D01*
X132789596Y-81946823D01*
X132814783Y-81898024D01*
X132819315Y-81889981D01*
X132837537Y-81860245D01*
X132849895Y-81840079D01*
X132854024Y-81831185D01*
X132895290Y-81742284D01*
X132897612Y-81737544D01*
X132900958Y-81731063D01*
X132947060Y-81641741D01*
X132967753Y-81586979D01*
X132971331Y-81578469D01*
X132994445Y-81528673D01*
X132994448Y-81528665D01*
X132995973Y-81525380D01*
X133024300Y-81439729D01*
X133049848Y-81395480D01*
X133063737Y-81379891D01*
X133116284Y-81305123D01*
X133120210Y-81299838D01*
X133174367Y-81230769D01*
X133174375Y-81230758D01*
X133176614Y-81227902D01*
X133215792Y-81163969D01*
X133220130Y-81157365D01*
X133261145Y-81099007D01*
X133261146Y-81099005D01*
X133263235Y-81096033D01*
X133264968Y-81092842D01*
X133264975Y-81092830D01*
X133306832Y-81015737D01*
X133310131Y-81010022D01*
X133321316Y-80991771D01*
X133355232Y-80936425D01*
X133355999Y-80935174D01*
X133356003Y-80935166D01*
X133357895Y-80932079D01*
X133359422Y-80928790D01*
X133359426Y-80928782D01*
X133389466Y-80864067D01*
X133393022Y-80856997D01*
X133427050Y-80794325D01*
X133427055Y-80794314D01*
X133428785Y-80791128D01*
X133462862Y-80706359D01*
X133465480Y-80700306D01*
X133486210Y-80655647D01*
X133503973Y-80617380D01*
X133527518Y-80546188D01*
X133530237Y-80538758D01*
X133553999Y-80479650D01*
X133558193Y-80469216D01*
X133582307Y-80381073D01*
X133584213Y-80374759D01*
X133611773Y-80291423D01*
X133612913Y-80287977D01*
X133613649Y-80284425D01*
X133613651Y-80284416D01*
X133628113Y-80214576D01*
X133629955Y-80206900D01*
X133649745Y-80134563D01*
X133660863Y-80061906D01*
X133663570Y-80044219D01*
X133664738Y-80037728D01*
X133682531Y-79951804D01*
X133683270Y-79948236D01*
X133685359Y-79924835D01*
X133689934Y-79873564D01*
X133690885Y-79865705D01*
X133701674Y-79795199D01*
X133702224Y-79791605D01*
X133705573Y-79700280D01*
X133705987Y-79693700D01*
X133710251Y-79645925D01*
X133710251Y-79645917D01*
X133710500Y-79643131D01*
X133710500Y-79568213D01*
X133710585Y-79563596D01*
X133714805Y-79448527D01*
X133714805Y-79448519D01*
X133714938Y-79444888D01*
X133710888Y-79393429D01*
X133710500Y-79383543D01*
X133710500Y-70029431D01*
X133710966Y-70020959D01*
X133710881Y-70020955D01*
X133711071Y-70017322D01*
X133711469Y-70013720D01*
X133710501Y-69828796D01*
X133710500Y-69828316D01*
X133710500Y-69767568D01*
X133710338Y-69764752D01*
X133710132Y-69758183D01*
X133709672Y-69670405D01*
X133709653Y-69666775D01*
X133700644Y-69592329D01*
X133699942Y-69584465D01*
X133695836Y-69513247D01*
X133695836Y-69513244D01*
X133695627Y-69509626D01*
X133679911Y-69419581D01*
X133678950Y-69413065D01*
X133677575Y-69401698D01*
X133667971Y-69322338D01*
X133653736Y-69263042D01*
X133650469Y-69249436D01*
X133648864Y-69241686D01*
X133636599Y-69171412D01*
X133635976Y-69167842D01*
X133610016Y-69080201D01*
X133608315Y-69073856D01*
X133605917Y-69063865D01*
X133586977Y-68984975D01*
X133561207Y-68914556D01*
X133558734Y-68907078D01*
X133537437Y-68835180D01*
X133536016Y-68831849D01*
X133536013Y-68831840D01*
X133506981Y-68763776D01*
X133501575Y-68751102D01*
X133499152Y-68744981D01*
X133468990Y-68662561D01*
X133467744Y-68659156D01*
X133434051Y-68592164D01*
X133430730Y-68585008D01*
X133402744Y-68519395D01*
X133402741Y-68519390D01*
X133401316Y-68516048D01*
X133356022Y-68436640D01*
X133352918Y-68430850D01*
X133313491Y-68352455D01*
X133313488Y-68352449D01*
X133311854Y-68349201D01*
X133270701Y-68286552D01*
X133266564Y-68279803D01*
X133229417Y-68214676D01*
X133175311Y-68141019D01*
X133171547Y-68135604D01*
X133123356Y-68062241D01*
X133123354Y-68062238D01*
X133121370Y-68059218D01*
X133119054Y-68056448D01*
X133119045Y-68056436D01*
X133073284Y-68001706D01*
X133068400Y-67995478D01*
X133028403Y-67941030D01*
X133024018Y-67935060D01*
X132961798Y-67868103D01*
X132957450Y-67863171D01*
X132924883Y-67824221D01*
X132871922Y-67771260D01*
X132868717Y-67767936D01*
X132833380Y-67729909D01*
X132787842Y-67680904D01*
X132748582Y-67647372D01*
X132741329Y-67640667D01*
X132189969Y-67089307D01*
X132184301Y-67082979D01*
X132184237Y-67083037D01*
X132181812Y-67080344D01*
X132179541Y-67077509D01*
X132048123Y-66947460D01*
X132047656Y-66946994D01*
X132004800Y-66904138D01*
X132002695Y-66902263D01*
X131997895Y-66897755D01*
X131935516Y-66836025D01*
X131935506Y-66836016D01*
X131932929Y-66833466D01*
X131873926Y-66787202D01*
X131867859Y-66782129D01*
X131859240Y-66774449D01*
X131811891Y-66732263D01*
X131737112Y-66679707D01*
X131731817Y-66675774D01*
X131662759Y-66621626D01*
X131662757Y-66621625D01*
X131659902Y-66619386D01*
X131656808Y-66617490D01*
X131656798Y-66617483D01*
X131595983Y-66580215D01*
X131589368Y-66575870D01*
X131531016Y-66534859D01*
X131530998Y-66534848D01*
X131528033Y-66532764D01*
X131524836Y-66531028D01*
X131447725Y-66489160D01*
X131442013Y-66485862D01*
X131367184Y-66440007D01*
X131367174Y-66440002D01*
X131364079Y-66438105D01*
X131360789Y-66436578D01*
X131360780Y-66436573D01*
X131296070Y-66406536D01*
X131289000Y-66402980D01*
X131226318Y-66368947D01*
X131223128Y-66367215D01*
X131219767Y-66365864D01*
X131219763Y-66365862D01*
X131138342Y-66333131D01*
X131132289Y-66330512D01*
X131127429Y-66328256D01*
X131049380Y-66292027D01*
X130978173Y-66268477D01*
X130970797Y-66265777D01*
X130901216Y-66237806D01*
X130813049Y-66213686D01*
X130806768Y-66211790D01*
X130753822Y-66194280D01*
X130723422Y-66184226D01*
X130723417Y-66184225D01*
X130719977Y-66183087D01*
X130716422Y-66182351D01*
X130716419Y-66182350D01*
X130646575Y-66167886D01*
X130638878Y-66166038D01*
X130570066Y-66147213D01*
X130570056Y-66147211D01*
X130566562Y-66146255D01*
X130476222Y-66132431D01*
X130469742Y-66131266D01*
X130380236Y-66112730D01*
X130376614Y-66112407D01*
X130376609Y-66112406D01*
X130305563Y-66106066D01*
X130297704Y-66105115D01*
X130248878Y-66097643D01*
X130223605Y-66093776D01*
X130132280Y-66090427D01*
X130125703Y-66090013D01*
X130117275Y-66089261D01*
X130077925Y-66085749D01*
X130077917Y-66085749D01*
X130075131Y-66085500D01*
X130000213Y-66085500D01*
X129995596Y-66085415D01*
X129880527Y-66081195D01*
X129880519Y-66081195D01*
X129876888Y-66081062D01*
X129873267Y-66081347D01*
X129873265Y-66081347D01*
X129825427Y-66085112D01*
X129815541Y-66085500D01*
X128263096Y-66085500D01*
X128261117Y-66085484D01*
X128109446Y-66083101D01*
X128109442Y-66083101D01*
X128105804Y-66083044D01*
X128102190Y-66083405D01*
X128102184Y-66083405D01*
X128087440Y-66084877D01*
X128074926Y-66085500D01*
X125399096Y-66085500D01*
X125397117Y-66085484D01*
X125245446Y-66083101D01*
X125245442Y-66083101D01*
X125241804Y-66083044D01*
X125238190Y-66083405D01*
X125238184Y-66083405D01*
X125223440Y-66084877D01*
X125210926Y-66085500D01*
X121563096Y-66085500D01*
X121561117Y-66085484D01*
X121409445Y-66083101D01*
X121409442Y-66083101D01*
X121405804Y-66083044D01*
X121402189Y-66083405D01*
X121402185Y-66083405D01*
X121298507Y-66093754D01*
X121293245Y-66094168D01*
X121189243Y-66100164D01*
X121189235Y-66100165D01*
X121185626Y-66100373D01*
X121127955Y-66110439D01*
X121118823Y-66111689D01*
X121060569Y-66117503D01*
X121057038Y-66118273D01*
X121057031Y-66118274D01*
X120955210Y-66140475D01*
X120950031Y-66141491D01*
X120847415Y-66159400D01*
X120847408Y-66159402D01*
X120843842Y-66160024D01*
X120787721Y-66176648D01*
X120778790Y-66178941D01*
X120725132Y-66190640D01*
X120725129Y-66190641D01*
X120721583Y-66191414D01*
X120662085Y-66211785D01*
X120619550Y-66226348D01*
X120614528Y-66227950D01*
X120511180Y-66258563D01*
X120457352Y-66281523D01*
X120448732Y-66284832D01*
X120393339Y-66303797D01*
X120296002Y-66350225D01*
X120291222Y-66352383D01*
X120195388Y-66393259D01*
X120195382Y-66393262D01*
X120192048Y-66394684D01*
X120141812Y-66423338D01*
X120141198Y-66423688D01*
X120133018Y-66427964D01*
X120080188Y-66453163D01*
X119988849Y-66510460D01*
X119984347Y-66513154D01*
X119890676Y-66566583D01*
X119887759Y-66568726D01*
X119887754Y-66568729D01*
X119843488Y-66601246D01*
X119835850Y-66606436D01*
X119786279Y-66637532D01*
X119783450Y-66639799D01*
X119783445Y-66639802D01*
X119702141Y-66704939D01*
X119697971Y-66708139D01*
X119661840Y-66734680D01*
X119613990Y-66769830D01*
X119611060Y-66771982D01*
X119608407Y-66774448D01*
X119608405Y-66774449D01*
X119568177Y-66811830D01*
X119561188Y-66817863D01*
X119515509Y-66854459D01*
X119512956Y-66857039D01*
X119439673Y-66931093D01*
X119435883Y-66934765D01*
X119359559Y-67005690D01*
X119359552Y-67005698D01*
X119356904Y-67008158D01*
X119354557Y-67010906D01*
X119354556Y-67010907D01*
X119318884Y-67052673D01*
X119312634Y-67059469D01*
X119271466Y-67101071D01*
X119269230Y-67103923D01*
X119269228Y-67103925D01*
X119204928Y-67185930D01*
X119201585Y-67190013D01*
X119131578Y-67271981D01*
X119129549Y-67275001D01*
X119098929Y-67320569D01*
X119093505Y-67328035D01*
X119057386Y-67374098D01*
X119010774Y-67450162D01*
X119001065Y-67466005D01*
X118998215Y-67470444D01*
X118940093Y-67556940D01*
X118940088Y-67556948D01*
X118938069Y-67559953D01*
X118936412Y-67563164D01*
X118936404Y-67563177D01*
X118911217Y-67611976D01*
X118906685Y-67620019D01*
X118876105Y-67669921D01*
X118874575Y-67673217D01*
X118874574Y-67673219D01*
X118830710Y-67767716D01*
X118828397Y-67772438D01*
X118778940Y-67868259D01*
X118777661Y-67871645D01*
X118758247Y-67923021D01*
X118754669Y-67931531D01*
X118731555Y-67981327D01*
X118731552Y-67981335D01*
X118730027Y-67984620D01*
X118696166Y-68087005D01*
X118694426Y-68091919D01*
X118656302Y-68192811D01*
X118655417Y-68196335D01*
X118655415Y-68196341D01*
X118642041Y-68249588D01*
X118639466Y-68258453D01*
X118621087Y-68314023D01*
X118620350Y-68317584D01*
X118620349Y-68317586D01*
X118599224Y-68419594D01*
X118598049Y-68424726D01*
X118571780Y-68529308D01*
X118571307Y-68532899D01*
X118571307Y-68532900D01*
X118564138Y-68587350D01*
X118562598Y-68596452D01*
X118561713Y-68600725D01*
X118550730Y-68653764D01*
X118550408Y-68657376D01*
X118541147Y-68761141D01*
X118540568Y-68766386D01*
X118531054Y-68838654D01*
X118526494Y-68873289D01*
X118526437Y-68876925D01*
X118525575Y-68931813D01*
X118525093Y-68941021D01*
X118523500Y-68958869D01*
X118523500Y-69062904D01*
X118523484Y-69064883D01*
X118521133Y-69214557D01*
X118521044Y-69220196D01*
X118521405Y-69223810D01*
X118521405Y-69223816D01*
X118522877Y-69238560D01*
X118523500Y-69251074D01*
X118523500Y-75244569D01*
X118523034Y-75253041D01*
X118523119Y-75253045D01*
X118522929Y-75256678D01*
X118522531Y-75260280D01*
X118522550Y-75263906D01*
X118523498Y-75445024D01*
X118523500Y-75445684D01*
X118523500Y-76152569D01*
X118523034Y-76161041D01*
X118523119Y-76161045D01*
X118522929Y-76164678D01*
X118522531Y-76168280D01*
X118522550Y-76171906D01*
X118523498Y-76353024D01*
X118523500Y-76353684D01*
X118523500Y-76414432D01*
X118523605Y-76416251D01*
X118523605Y-76416258D01*
X118523662Y-76417241D01*
X118523868Y-76423817D01*
X118524253Y-76497336D01*
X118524347Y-76515225D01*
X118533356Y-76589671D01*
X118534057Y-76597520D01*
X118538373Y-76672374D01*
X118540576Y-76684993D01*
X118554087Y-76762408D01*
X118555049Y-76768931D01*
X118566029Y-76859662D01*
X118566875Y-76863187D01*
X118566876Y-76863191D01*
X118583531Y-76932564D01*
X118585136Y-76940314D01*
X118598024Y-77014158D01*
X118623984Y-77101799D01*
X118625681Y-77108127D01*
X118647023Y-77197025D01*
X118648267Y-77200423D01*
X118672790Y-77267435D01*
X118675266Y-77274922D01*
X118696563Y-77346820D01*
X118697984Y-77350151D01*
X118697987Y-77350160D01*
X118732420Y-77430886D01*
X118734848Y-77437019D01*
X118766256Y-77522844D01*
X118767885Y-77526082D01*
X118767888Y-77526090D01*
X118799939Y-77589818D01*
X118803271Y-77596995D01*
X118832684Y-77665952D01*
X118877980Y-77745364D01*
X118881083Y-77751152D01*
X118911146Y-77810926D01*
X118922147Y-77832799D01*
X118963307Y-77895459D01*
X118967431Y-77902189D01*
X119004583Y-77967324D01*
X119006729Y-77970245D01*
X119058695Y-78040988D01*
X119062460Y-78046405D01*
X119112630Y-78122782D01*
X119114955Y-78125563D01*
X119114959Y-78125568D01*
X119160716Y-78180294D01*
X119165600Y-78186522D01*
X119209982Y-78246940D01*
X119212441Y-78249586D01*
X119272202Y-78313897D01*
X119276550Y-78318829D01*
X119309117Y-78357779D01*
X119362078Y-78410740D01*
X119365283Y-78414064D01*
X119446158Y-78501096D01*
X119485418Y-78534628D01*
X119492671Y-78541333D01*
X123372031Y-82420692D01*
X123377701Y-82427022D01*
X123377765Y-82426965D01*
X123380191Y-82429660D01*
X123382459Y-82432491D01*
X123385028Y-82435033D01*
X123385035Y-82435041D01*
X123513972Y-82562634D01*
X123514439Y-82563100D01*
X123557200Y-82605861D01*
X123558573Y-82607084D01*
X123558577Y-82607088D01*
X123559293Y-82607726D01*
X123564096Y-82612236D01*
X123626493Y-82673983D01*
X123629071Y-82676534D01*
X123688087Y-82722808D01*
X123694131Y-82727862D01*
X123750109Y-82777737D01*
X123824877Y-82830284D01*
X123830162Y-82834210D01*
X123899231Y-82888367D01*
X123899242Y-82888375D01*
X123902098Y-82890614D01*
X123966031Y-82929792D01*
X123972635Y-82934130D01*
X124020611Y-82967848D01*
X124033967Y-82977235D01*
X124037155Y-82978966D01*
X124037170Y-82978975D01*
X124114263Y-83020832D01*
X124119968Y-83024125D01*
X124147459Y-83040972D01*
X124194826Y-83069999D01*
X124194834Y-83070003D01*
X124197921Y-83071895D01*
X124201210Y-83073422D01*
X124201218Y-83073426D01*
X124265933Y-83103466D01*
X124273003Y-83107022D01*
X124335675Y-83141050D01*
X124335686Y-83141055D01*
X124338872Y-83142785D01*
X124423639Y-83176861D01*
X124429693Y-83179480D01*
X124512620Y-83217973D01*
X124556395Y-83232450D01*
X124583808Y-83241516D01*
X124591238Y-83244235D01*
X124660784Y-83272193D01*
X124692351Y-83280829D01*
X124748927Y-83296307D01*
X124755241Y-83298213D01*
X124780980Y-83306725D01*
X124842023Y-83326913D01*
X124845575Y-83327649D01*
X124845584Y-83327651D01*
X124891264Y-83337110D01*
X124915433Y-83342115D01*
X124923100Y-83343955D01*
X124995437Y-83363745D01*
X125052559Y-83372486D01*
X125085781Y-83377570D01*
X125092272Y-83378738D01*
X125159527Y-83392665D01*
X125181764Y-83397270D01*
X125185386Y-83397593D01*
X125185391Y-83397594D01*
X125256436Y-83403934D01*
X125264297Y-83404885D01*
X125338395Y-83416224D01*
X125414618Y-83419019D01*
X125481959Y-83441503D01*
X125526455Y-83496827D01*
X125536000Y-83544934D01*
X125536000Y-83943885D01*
X125540475Y-83959124D01*
X125541865Y-83960329D01*
X125549548Y-83962000D01*
X126772000Y-83962000D01*
X126840121Y-83982002D01*
X126886614Y-84035658D01*
X126898000Y-84088000D01*
X126898000Y-84344000D01*
X126877998Y-84412121D01*
X126824342Y-84458614D01*
X126772000Y-84470000D01*
X125554116Y-84470000D01*
X125538877Y-84474475D01*
X125537672Y-84475865D01*
X125536001Y-84483548D01*
X125536001Y-85009500D01*
X125515999Y-85077621D01*
X125462343Y-85124114D01*
X125410001Y-85135500D01*
X123546213Y-85135500D01*
X123541596Y-85135415D01*
X123426527Y-85131195D01*
X123426519Y-85131195D01*
X123422888Y-85131062D01*
X123419267Y-85131347D01*
X123419265Y-85131347D01*
X123371427Y-85135112D01*
X123361541Y-85135500D01*
X122620431Y-85135500D01*
X122611959Y-85135034D01*
X122611955Y-85135119D01*
X122608322Y-85134929D01*
X122604720Y-85134531D01*
X122435833Y-85135415D01*
X122419976Y-85135498D01*
X122419316Y-85135500D01*
X122358568Y-85135500D01*
X122356749Y-85135605D01*
X122356742Y-85135605D01*
X122356239Y-85135634D01*
X122355752Y-85135662D01*
X122349183Y-85135868D01*
X122265701Y-85136305D01*
X122257775Y-85136347D01*
X122183329Y-85145356D01*
X122175480Y-85146057D01*
X122125903Y-85148915D01*
X122104247Y-85150164D01*
X122104244Y-85150164D01*
X122100626Y-85150373D01*
X122010581Y-85166089D01*
X122004069Y-85167049D01*
X121966303Y-85171620D01*
X121916948Y-85177592D01*
X121916946Y-85177592D01*
X121913338Y-85178029D01*
X121909813Y-85178875D01*
X121909809Y-85178876D01*
X121840436Y-85195531D01*
X121832686Y-85197136D01*
X121758842Y-85210024D01*
X121671201Y-85235984D01*
X121664873Y-85237681D01*
X121601448Y-85252907D01*
X121579494Y-85258178D01*
X121579491Y-85258179D01*
X121575975Y-85259023D01*
X121505556Y-85284793D01*
X121498078Y-85287266D01*
X121426180Y-85308563D01*
X121422849Y-85309984D01*
X121422840Y-85309987D01*
X121372643Y-85331398D01*
X121342102Y-85344425D01*
X121335981Y-85346848D01*
X121253563Y-85377009D01*
X121253560Y-85377010D01*
X121250156Y-85378256D01*
X121246918Y-85379885D01*
X121246910Y-85379888D01*
X121183182Y-85411939D01*
X121176005Y-85415271D01*
X121107048Y-85444684D01*
X121027636Y-85489980D01*
X121021848Y-85493083D01*
X120940201Y-85534147D01*
X120877541Y-85575307D01*
X120870811Y-85579431D01*
X120805676Y-85616583D01*
X120802755Y-85618729D01*
X120732012Y-85670695D01*
X120726595Y-85674460D01*
X120650218Y-85724630D01*
X120647437Y-85726955D01*
X120647432Y-85726959D01*
X120592706Y-85772716D01*
X120586478Y-85777600D01*
X120566114Y-85792559D01*
X120526060Y-85821982D01*
X120486464Y-85858777D01*
X120459103Y-85884202D01*
X120454171Y-85888550D01*
X120415221Y-85921117D01*
X120362260Y-85974078D01*
X120358936Y-85977283D01*
X120271904Y-86058158D01*
X120238372Y-86097418D01*
X120231667Y-86104671D01*
X117314260Y-89022078D01*
X117310936Y-89025283D01*
X117223904Y-89106158D01*
X117190372Y-89145418D01*
X117183667Y-89152671D01*
X117003095Y-89333243D01*
X116940783Y-89367269D01*
X116869968Y-89362204D01*
X116813132Y-89319657D01*
X116788321Y-89253137D01*
X116788000Y-89244148D01*
X116788000Y-89222115D01*
X116783525Y-89206876D01*
X116782135Y-89205671D01*
X116774452Y-89204000D01*
X114502115Y-89204000D01*
X114486876Y-89208475D01*
X114485671Y-89209865D01*
X114484000Y-89217548D01*
X114484000Y-91489885D01*
X114488475Y-91505124D01*
X114489865Y-91506329D01*
X114497548Y-91508000D01*
X114524148Y-91508000D01*
X114592269Y-91528002D01*
X114638762Y-91581658D01*
X114648866Y-91651932D01*
X114619372Y-91716512D01*
X114613243Y-91723095D01*
X111284674Y-95051664D01*
X111283264Y-95053053D01*
X111171699Y-95161167D01*
X111103388Y-95244625D01*
X111100021Y-95248569D01*
X111028263Y-95329109D01*
X110994603Y-95377002D01*
X110989028Y-95384347D01*
X110951947Y-95429651D01*
X110949990Y-95432699D01*
X110949988Y-95432702D01*
X110893690Y-95520395D01*
X110890761Y-95524754D01*
X110877085Y-95544213D01*
X110821550Y-95588444D01*
X110750917Y-95595629D01*
X110687614Y-95563486D01*
X110651736Y-95502222D01*
X110647999Y-95471761D01*
X110647999Y-95406331D01*
X110647629Y-95399510D01*
X110642105Y-95348648D01*
X110638479Y-95333396D01*
X110593324Y-95212946D01*
X110584786Y-95197351D01*
X110508285Y-95095276D01*
X110495724Y-95082715D01*
X110393649Y-95006214D01*
X110378054Y-94997676D01*
X110257606Y-94952522D01*
X110242351Y-94948895D01*
X110191486Y-94943369D01*
X110184672Y-94943000D01*
X108662115Y-94943000D01*
X108646876Y-94947475D01*
X108645671Y-94948865D01*
X108644000Y-94956548D01*
X108644000Y-99440884D01*
X108648475Y-99456123D01*
X108649865Y-99457328D01*
X108657548Y-99458999D01*
X110184669Y-99458999D01*
X110191490Y-99458629D01*
X110242352Y-99453105D01*
X110257604Y-99449479D01*
X110378054Y-99404324D01*
X110393649Y-99395786D01*
X110495724Y-99319285D01*
X110508285Y-99306724D01*
X110584786Y-99204649D01*
X110593324Y-99189054D01*
X110638478Y-99068606D01*
X110642105Y-99053351D01*
X110647631Y-99002486D01*
X110648000Y-98995672D01*
X110648000Y-98933877D01*
X110668002Y-98865756D01*
X110721658Y-98819263D01*
X110791932Y-98809159D01*
X110856512Y-98838653D01*
X110882114Y-98869168D01*
X110897511Y-98894894D01*
X110933162Y-98941355D01*
X110938484Y-98948845D01*
X110970630Y-98997782D01*
X111039800Y-99080509D01*
X111043072Y-99084593D01*
X111108720Y-99170147D01*
X111111233Y-99172740D01*
X111111238Y-99172746D01*
X111149456Y-99212184D01*
X111155629Y-99219040D01*
X111167117Y-99232779D01*
X111240664Y-99306326D01*
X111242053Y-99307736D01*
X111350167Y-99419301D01*
X111352974Y-99421599D01*
X111352980Y-99421604D01*
X111364449Y-99430991D01*
X111373737Y-99439399D01*
X115590031Y-103655692D01*
X115595701Y-103662022D01*
X115595765Y-103661965D01*
X115598191Y-103664660D01*
X115600459Y-103667491D01*
X115603028Y-103670033D01*
X115603035Y-103670041D01*
X115731972Y-103797634D01*
X115732439Y-103798100D01*
X115775200Y-103840861D01*
X115776573Y-103842084D01*
X115776577Y-103842088D01*
X115777293Y-103842726D01*
X115782096Y-103847236D01*
X115847071Y-103911534D01*
X115906087Y-103957808D01*
X115912131Y-103962862D01*
X115968109Y-104012737D01*
X116042877Y-104065284D01*
X116048162Y-104069210D01*
X116117231Y-104123367D01*
X116117242Y-104123375D01*
X116120098Y-104125614D01*
X116184031Y-104164792D01*
X116190635Y-104169130D01*
X116251967Y-104212235D01*
X116255158Y-104213968D01*
X116255170Y-104213975D01*
X116332263Y-104255832D01*
X116337968Y-104259125D01*
X116343446Y-104262482D01*
X116412826Y-104304999D01*
X116412834Y-104305003D01*
X116415921Y-104306895D01*
X116419210Y-104308422D01*
X116419218Y-104308426D01*
X116483933Y-104338466D01*
X116491003Y-104342022D01*
X116553671Y-104376048D01*
X116553685Y-104376055D01*
X116556872Y-104377785D01*
X116560237Y-104379138D01*
X116560244Y-104379141D01*
X116641658Y-104411869D01*
X116647709Y-104414487D01*
X116730620Y-104452973D01*
X116801827Y-104476523D01*
X116809203Y-104479223D01*
X116878784Y-104507194D01*
X116966952Y-104531314D01*
X116973251Y-104533216D01*
X117056576Y-104560774D01*
X117056592Y-104560778D01*
X117060023Y-104561913D01*
X117063563Y-104562646D01*
X117063570Y-104562648D01*
X117133433Y-104577116D01*
X117141128Y-104578964D01*
X117213437Y-104598745D01*
X117262912Y-104606316D01*
X117303781Y-104612570D01*
X117310272Y-104613738D01*
X117378454Y-104627857D01*
X117399764Y-104632270D01*
X117403386Y-104632593D01*
X117403391Y-104632594D01*
X117474436Y-104638934D01*
X117482297Y-104639885D01*
X117556395Y-104651224D01*
X117647720Y-104654573D01*
X117654297Y-104654987D01*
X117662725Y-104655739D01*
X117702075Y-104659251D01*
X117702083Y-104659251D01*
X117704869Y-104659500D01*
X117779787Y-104659500D01*
X117784404Y-104659585D01*
X117899473Y-104663805D01*
X117899481Y-104663805D01*
X117903112Y-104663938D01*
X117906733Y-104663653D01*
X117906735Y-104663653D01*
X117954571Y-104659888D01*
X117964457Y-104659500D01*
X118640904Y-104659500D01*
X118642883Y-104659516D01*
X118794554Y-104661899D01*
X118794558Y-104661899D01*
X118798196Y-104661956D01*
X118801810Y-104661595D01*
X118801816Y-104661595D01*
X118816560Y-104660123D01*
X118829074Y-104659500D01*
X127398569Y-104659500D01*
X127407042Y-104659966D01*
X127407046Y-104659881D01*
X127410677Y-104660071D01*
X127414280Y-104660469D01*
X127436552Y-104660352D01*
X127554935Y-104659733D01*
X127557573Y-104659747D01*
X127694554Y-104661899D01*
X127694558Y-104661899D01*
X127698196Y-104661956D01*
X127701810Y-104661595D01*
X127701816Y-104661595D01*
X127716560Y-104660123D01*
X127729074Y-104659500D01*
X132149904Y-104659500D01*
X132151883Y-104659516D01*
X132303554Y-104661899D01*
X132303558Y-104661899D01*
X132307196Y-104661956D01*
X132310810Y-104661595D01*
X132310816Y-104661595D01*
X132325560Y-104660123D01*
X132338074Y-104659500D01*
X132769569Y-104659500D01*
X132778041Y-104659966D01*
X132778045Y-104659881D01*
X132781678Y-104660071D01*
X132785280Y-104660469D01*
X132970024Y-104659502D01*
X132970684Y-104659500D01*
X142130569Y-104659500D01*
X142139042Y-104659966D01*
X142139046Y-104659881D01*
X142142677Y-104660071D01*
X142146280Y-104660469D01*
X142168552Y-104660352D01*
X142286935Y-104659733D01*
X142289573Y-104659747D01*
X142426554Y-104661899D01*
X142426558Y-104661899D01*
X142430196Y-104661956D01*
X142433810Y-104661595D01*
X142433816Y-104661595D01*
X142448560Y-104660123D01*
X142461074Y-104659500D01*
X147243787Y-104659500D01*
X147248404Y-104659585D01*
X147363473Y-104663805D01*
X147363481Y-104663805D01*
X147367112Y-104663938D01*
X147370733Y-104663653D01*
X147370735Y-104663653D01*
X147418571Y-104659888D01*
X147428457Y-104659500D01*
X147755569Y-104659500D01*
X147764041Y-104659966D01*
X147764045Y-104659881D01*
X147767678Y-104660071D01*
X147771280Y-104660469D01*
X147956024Y-104659502D01*
X147956684Y-104659500D01*
X155375569Y-104659500D01*
X155384041Y-104659966D01*
X155384045Y-104659881D01*
X155387678Y-104660071D01*
X155391280Y-104660469D01*
X155576024Y-104659502D01*
X155576684Y-104659500D01*
X156862569Y-104659500D01*
X156871042Y-104659966D01*
X156871046Y-104659881D01*
X156874677Y-104660071D01*
X156878280Y-104660469D01*
X156900552Y-104660352D01*
X157018935Y-104659733D01*
X157021573Y-104659747D01*
X157158555Y-104661899D01*
X157158558Y-104661899D01*
X157162196Y-104661956D01*
X157165811Y-104661595D01*
X157165814Y-104661595D01*
X157187721Y-104659408D01*
X157199579Y-104658787D01*
X157221595Y-104658672D01*
X157221596Y-104658672D01*
X157225225Y-104658653D01*
X157299671Y-104649644D01*
X157307520Y-104648943D01*
X157349746Y-104646508D01*
X157378755Y-104644836D01*
X157378760Y-104644835D01*
X157382374Y-104644627D01*
X157440045Y-104634561D01*
X157449177Y-104633311D01*
X157507431Y-104627497D01*
X157532511Y-104622029D01*
X157544185Y-104620054D01*
X157569662Y-104616971D01*
X157573187Y-104616125D01*
X157573191Y-104616124D01*
X157642564Y-104599469D01*
X157650314Y-104597864D01*
X157720588Y-104585599D01*
X157720587Y-104585599D01*
X157724158Y-104584976D01*
X157780279Y-104568352D01*
X157789210Y-104566059D01*
X157846417Y-104553586D01*
X157870687Y-104545276D01*
X157882086Y-104541965D01*
X157903492Y-104536826D01*
X157903506Y-104536822D01*
X157907025Y-104535977D01*
X157977444Y-104510207D01*
X157984922Y-104507734D01*
X158056820Y-104486437D01*
X158110650Y-104463476D01*
X158119268Y-104460168D01*
X158144737Y-104451448D01*
X158174661Y-104441203D01*
X158197830Y-104430152D01*
X158208750Y-104425562D01*
X158232844Y-104416744D01*
X158236086Y-104415113D01*
X158236094Y-104415110D01*
X158299818Y-104383061D01*
X158306995Y-104379729D01*
X158320164Y-104374112D01*
X158375952Y-104350316D01*
X158393809Y-104340131D01*
X158426802Y-104321312D01*
X158434984Y-104317035D01*
X158484535Y-104293400D01*
X158487812Y-104291837D01*
X158490880Y-104289913D01*
X158490890Y-104289907D01*
X158509547Y-104278203D01*
X158519876Y-104272382D01*
X158542799Y-104260853D01*
X158605459Y-104219693D01*
X158612189Y-104215569D01*
X158674173Y-104180214D01*
X158677324Y-104178417D01*
X158680241Y-104176274D01*
X158680246Y-104176271D01*
X158724512Y-104143754D01*
X158732150Y-104138564D01*
X158756376Y-104123367D01*
X158781721Y-104107468D01*
X158801747Y-104091424D01*
X158811341Y-104084454D01*
X158832782Y-104070370D01*
X158835567Y-104068042D01*
X158835577Y-104068034D01*
X158890294Y-104022284D01*
X158896522Y-104017400D01*
X158923793Y-103997367D01*
X158956940Y-103973018D01*
X158967865Y-103962866D01*
X158999823Y-103933170D01*
X159006812Y-103927137D01*
X159049656Y-103892812D01*
X159052491Y-103890541D01*
X159100439Y-103842088D01*
X159128327Y-103813907D01*
X159132117Y-103810235D01*
X159208428Y-103739322D01*
X159208435Y-103739315D01*
X159211096Y-103736842D01*
X159244628Y-103697582D01*
X159251333Y-103690329D01*
X161453692Y-101487969D01*
X161460022Y-101482299D01*
X161459965Y-101482235D01*
X161462660Y-101479809D01*
X161465491Y-101477541D01*
X161468033Y-101474972D01*
X161468041Y-101474965D01*
X161595633Y-101346029D01*
X161596099Y-101345562D01*
X161638861Y-101302800D01*
X161640726Y-101300707D01*
X161645236Y-101295904D01*
X161706983Y-101233507D01*
X161706984Y-101233506D01*
X161709534Y-101230929D01*
X161755808Y-101171913D01*
X161760866Y-101165864D01*
X161808318Y-101112606D01*
X161810737Y-101109891D01*
X161863284Y-101035123D01*
X161867210Y-101029838D01*
X161921367Y-100960769D01*
X161921375Y-100960758D01*
X161923614Y-100957902D01*
X161962792Y-100893969D01*
X161967130Y-100887365D01*
X162008145Y-100829007D01*
X162008146Y-100829005D01*
X162010235Y-100826033D01*
X162011968Y-100822842D01*
X162011975Y-100822830D01*
X162053832Y-100745737D01*
X162057131Y-100740022D01*
X162102999Y-100665174D01*
X162103003Y-100665166D01*
X162104895Y-100662079D01*
X162106422Y-100658790D01*
X162106426Y-100658782D01*
X162136466Y-100594067D01*
X162140022Y-100586997D01*
X162174048Y-100524329D01*
X162174055Y-100524315D01*
X162175785Y-100521128D01*
X162209870Y-100436340D01*
X162212488Y-100430289D01*
X162249448Y-100350665D01*
X162250973Y-100347380D01*
X162274523Y-100276173D01*
X162277223Y-100268797D01*
X162305194Y-100199216D01*
X162329314Y-100111048D01*
X162331216Y-100104749D01*
X162358774Y-100021424D01*
X162358778Y-100021408D01*
X162359913Y-100017977D01*
X162375116Y-99944567D01*
X162376964Y-99936872D01*
X162395786Y-99868068D01*
X162396745Y-99864563D01*
X162410570Y-99774219D01*
X162411738Y-99767728D01*
X162429531Y-99681804D01*
X162430270Y-99678236D01*
X162436934Y-99603564D01*
X162437885Y-99595705D01*
X162448674Y-99525199D01*
X162449224Y-99521605D01*
X162452573Y-99430280D01*
X162452987Y-99423700D01*
X162457251Y-99375925D01*
X162457251Y-99375917D01*
X162457500Y-99373131D01*
X162457500Y-99298213D01*
X162457585Y-99293596D01*
X162461805Y-99178527D01*
X162461805Y-99178519D01*
X162461938Y-99174888D01*
X162457888Y-99123429D01*
X162457500Y-99113543D01*
X162457500Y-97811213D01*
X162457585Y-97806596D01*
X162461805Y-97691527D01*
X162461805Y-97691519D01*
X162461938Y-97687888D01*
X162457888Y-97636427D01*
X162457500Y-97626541D01*
X162457500Y-95398213D01*
X162457585Y-95393596D01*
X162461805Y-95278527D01*
X162461805Y-95278519D01*
X162461938Y-95274888D01*
X162457888Y-95223427D01*
X162457500Y-95213541D01*
X162457500Y-92120000D01*
X163785884Y-92120000D01*
X163804314Y-92330655D01*
X163859044Y-92534910D01*
X163861366Y-92539891D01*
X163861367Y-92539892D01*
X163913859Y-92652460D01*
X163948411Y-92726558D01*
X164069699Y-92899776D01*
X164219224Y-93049301D01*
X164392442Y-93170589D01*
X164397420Y-93172910D01*
X164397423Y-93172912D01*
X164579108Y-93257633D01*
X164584090Y-93259956D01*
X164589398Y-93261378D01*
X164589400Y-93261379D01*
X164783030Y-93313262D01*
X164783032Y-93313262D01*
X164788345Y-93314686D01*
X164999000Y-93333116D01*
X165209655Y-93314686D01*
X165214968Y-93313262D01*
X165214970Y-93313262D01*
X165408600Y-93261379D01*
X165408602Y-93261378D01*
X165413910Y-93259956D01*
X165418892Y-93257633D01*
X165600577Y-93172912D01*
X165600580Y-93172910D01*
X165605558Y-93170589D01*
X165778776Y-93049301D01*
X165928301Y-92899776D01*
X166049589Y-92726558D01*
X166084142Y-92652460D01*
X166136633Y-92539892D01*
X166136634Y-92539891D01*
X166138956Y-92534910D01*
X166193686Y-92330655D01*
X166212116Y-92120000D01*
X166193686Y-91909345D01*
X166192262Y-91904030D01*
X166140379Y-91710400D01*
X166140378Y-91710398D01*
X166138956Y-91705090D01*
X166058376Y-91532285D01*
X166051912Y-91518423D01*
X166051910Y-91518420D01*
X166049589Y-91513442D01*
X165928301Y-91340224D01*
X165778776Y-91190699D01*
X165605558Y-91069411D01*
X165600580Y-91067090D01*
X165600577Y-91067088D01*
X165418892Y-90982367D01*
X165418891Y-90982366D01*
X165413910Y-90980044D01*
X165408602Y-90978622D01*
X165408600Y-90978621D01*
X165214970Y-90926738D01*
X165214968Y-90926738D01*
X165209655Y-90925314D01*
X164999000Y-90906884D01*
X164788345Y-90925314D01*
X164783032Y-90926738D01*
X164783030Y-90926738D01*
X164589400Y-90978621D01*
X164589398Y-90978622D01*
X164584090Y-90980044D01*
X164579109Y-90982366D01*
X164579108Y-90982367D01*
X164397423Y-91067088D01*
X164397420Y-91067090D01*
X164392442Y-91069411D01*
X164219224Y-91190699D01*
X164069699Y-91340224D01*
X163948411Y-91513442D01*
X163946090Y-91518420D01*
X163946088Y-91518423D01*
X163939624Y-91532285D01*
X163859044Y-91705090D01*
X163857622Y-91710398D01*
X163857621Y-91710400D01*
X163805738Y-91904030D01*
X163804314Y-91909345D01*
X163785884Y-92120000D01*
X162457500Y-92120000D01*
X162457500Y-84843431D01*
X162457966Y-84834959D01*
X162457881Y-84834955D01*
X162458071Y-84831322D01*
X162458469Y-84827720D01*
X162457502Y-84643077D01*
X162457500Y-84642417D01*
X162457500Y-83751691D01*
X162457966Y-83743219D01*
X162457881Y-83743215D01*
X162458071Y-83739582D01*
X162458469Y-83735980D01*
X162458061Y-83658070D01*
X162457502Y-83551159D01*
X162457500Y-83550500D01*
X162457500Y-83489828D01*
X162457338Y-83487012D01*
X162457132Y-83480443D01*
X162456672Y-83392665D01*
X162456653Y-83389035D01*
X162447644Y-83314589D01*
X162446942Y-83306725D01*
X162446452Y-83298213D01*
X162442627Y-83231886D01*
X162426911Y-83141841D01*
X162425950Y-83135325D01*
X162415408Y-83048208D01*
X162415408Y-83048206D01*
X162414971Y-83044598D01*
X162410058Y-83024131D01*
X162397469Y-82971696D01*
X162395864Y-82963946D01*
X162383599Y-82893672D01*
X162382976Y-82890102D01*
X162357016Y-82802461D01*
X162355315Y-82796116D01*
X162344902Y-82752739D01*
X162333977Y-82707235D01*
X162308207Y-82636816D01*
X162305734Y-82629338D01*
X162284437Y-82557440D01*
X162283016Y-82554109D01*
X162283013Y-82554100D01*
X162248580Y-82473374D01*
X162246152Y-82467241D01*
X162215991Y-82384823D01*
X162215990Y-82384820D01*
X162214744Y-82381416D01*
X162213115Y-82378178D01*
X162213112Y-82378170D01*
X162181061Y-82314442D01*
X162177729Y-82307265D01*
X162165061Y-82277566D01*
X162148316Y-82238308D01*
X162103020Y-82158896D01*
X162099917Y-82153108D01*
X162060482Y-82074700D01*
X162058853Y-82071461D01*
X162017693Y-82008801D01*
X162013569Y-82002071D01*
X161985614Y-81953060D01*
X161976417Y-81936936D01*
X161922305Y-81863272D01*
X161918540Y-81857855D01*
X161870358Y-81784504D01*
X161870355Y-81784500D01*
X161868370Y-81781478D01*
X161856335Y-81767084D01*
X161820284Y-81723966D01*
X161815400Y-81717738D01*
X161795367Y-81690467D01*
X161771018Y-81657320D01*
X161708798Y-81590363D01*
X161704450Y-81585431D01*
X161671883Y-81546481D01*
X161618922Y-81493520D01*
X161615717Y-81490196D01*
X161550975Y-81420525D01*
X161534842Y-81403164D01*
X161495582Y-81369632D01*
X161488329Y-81362927D01*
X161245402Y-81120000D01*
X163785884Y-81120000D01*
X163804314Y-81330655D01*
X163805738Y-81335968D01*
X163805738Y-81335970D01*
X163855571Y-81521947D01*
X163859044Y-81534910D01*
X163861366Y-81539891D01*
X163861367Y-81539892D01*
X163945148Y-81719560D01*
X163948411Y-81726558D01*
X164069699Y-81899776D01*
X164219224Y-82049301D01*
X164392442Y-82170589D01*
X164397420Y-82172910D01*
X164397423Y-82172912D01*
X164579108Y-82257633D01*
X164584090Y-82259956D01*
X164589398Y-82261378D01*
X164589400Y-82261379D01*
X164783030Y-82313262D01*
X164783032Y-82313262D01*
X164788345Y-82314686D01*
X164999000Y-82333116D01*
X165209655Y-82314686D01*
X165214968Y-82313262D01*
X165214970Y-82313262D01*
X165408600Y-82261379D01*
X165408602Y-82261378D01*
X165413910Y-82259956D01*
X165418892Y-82257633D01*
X165600577Y-82172912D01*
X165600580Y-82172910D01*
X165605558Y-82170589D01*
X165778776Y-82049301D01*
X165928301Y-81899776D01*
X166049589Y-81726558D01*
X166052853Y-81719560D01*
X166136633Y-81539892D01*
X166136634Y-81539891D01*
X166138956Y-81534910D01*
X166142430Y-81521947D01*
X166192262Y-81335970D01*
X166192262Y-81335968D01*
X166193686Y-81330655D01*
X166212116Y-81120000D01*
X166193686Y-80909345D01*
X166180592Y-80860478D01*
X166140379Y-80710400D01*
X166140378Y-80710398D01*
X166138956Y-80705090D01*
X166117434Y-80658935D01*
X166051912Y-80518423D01*
X166051910Y-80518420D01*
X166049589Y-80513442D01*
X165928301Y-80340224D01*
X165778776Y-80190699D01*
X165605558Y-80069411D01*
X165600580Y-80067090D01*
X165600577Y-80067088D01*
X165418892Y-79982367D01*
X165418891Y-79982366D01*
X165413910Y-79980044D01*
X165408602Y-79978622D01*
X165408600Y-79978621D01*
X165214970Y-79926738D01*
X165214968Y-79926738D01*
X165209655Y-79925314D01*
X164999000Y-79906884D01*
X164788345Y-79925314D01*
X164783032Y-79926738D01*
X164783030Y-79926738D01*
X164589400Y-79978621D01*
X164589398Y-79978622D01*
X164584090Y-79980044D01*
X164579109Y-79982366D01*
X164579108Y-79982367D01*
X164397423Y-80067088D01*
X164397420Y-80067090D01*
X164392442Y-80069411D01*
X164219224Y-80190699D01*
X164069699Y-80340224D01*
X163948411Y-80513442D01*
X163946090Y-80518420D01*
X163946088Y-80518423D01*
X163880566Y-80658935D01*
X163859044Y-80705090D01*
X163857622Y-80710398D01*
X163857621Y-80710400D01*
X163817408Y-80860478D01*
X163804314Y-80909345D01*
X163785884Y-81120000D01*
X161245402Y-81120000D01*
X159837170Y-79711768D01*
X159644261Y-79539893D01*
X159641300Y-79537812D01*
X159641295Y-79537808D01*
X159363377Y-79342484D01*
X159363375Y-79342483D01*
X159360403Y-79340394D01*
X159264091Y-79288101D01*
X159235118Y-79266465D01*
X158376842Y-78408189D01*
X158342816Y-78345877D01*
X158347881Y-78275062D01*
X158393666Y-78215881D01*
X158421765Y-78196206D01*
X158430139Y-78185729D01*
X158423071Y-78172281D01*
X157465885Y-77215095D01*
X157431859Y-77152783D01*
X157436924Y-77081968D01*
X157465885Y-77036905D01*
X157646905Y-76855885D01*
X157709217Y-76821859D01*
X157780032Y-76826924D01*
X157825095Y-76855885D01*
X158783003Y-77813793D01*
X158794777Y-77820223D01*
X158806793Y-77810926D01*
X158836897Y-77767932D01*
X158842377Y-77758441D01*
X158931645Y-77567007D01*
X158935391Y-77556715D01*
X158990059Y-77352691D01*
X158991962Y-77341896D01*
X159010372Y-77131475D01*
X159010372Y-77120525D01*
X158991962Y-76910104D01*
X158990059Y-76899309D01*
X158935391Y-76695285D01*
X158931645Y-76684993D01*
X158842376Y-76493556D01*
X158836898Y-76484070D01*
X158730958Y-76332770D01*
X158708270Y-76265496D01*
X158725555Y-76196636D01*
X158777325Y-76148052D01*
X158834171Y-76134500D01*
X160227377Y-76134500D01*
X160228148Y-76134502D01*
X160305721Y-76134976D01*
X160334152Y-76126850D01*
X160350915Y-76123272D01*
X160351753Y-76123152D01*
X160380187Y-76119080D01*
X160403564Y-76108451D01*
X160421087Y-76102004D01*
X160445771Y-76094949D01*
X160453365Y-76090157D01*
X160453368Y-76090156D01*
X160470780Y-76079170D01*
X160485865Y-76071030D01*
X160512782Y-76058792D01*
X160532235Y-76042030D01*
X160547239Y-76030927D01*
X160568958Y-76017224D01*
X160574897Y-76010499D01*
X160574901Y-76010496D01*
X160588532Y-75995062D01*
X160600724Y-75983018D01*
X160616327Y-75969573D01*
X160616329Y-75969570D01*
X160623127Y-75963713D01*
X160637094Y-75942165D01*
X160648385Y-75927291D01*
X160659431Y-75914783D01*
X160659432Y-75914782D01*
X160665378Y-75908049D01*
X160677943Y-75881287D01*
X160686263Y-75866309D01*
X160697471Y-75849017D01*
X160697473Y-75849012D01*
X160702352Y-75841485D01*
X160704922Y-75832892D01*
X160704924Y-75832887D01*
X160709711Y-75816880D01*
X160716372Y-75799436D01*
X160723467Y-75784324D01*
X160723468Y-75784322D01*
X160727281Y-75776200D01*
X160731830Y-75746983D01*
X160735613Y-75730268D01*
X160741515Y-75710534D01*
X160741516Y-75710528D01*
X160744086Y-75701934D01*
X160744296Y-75667494D01*
X160744329Y-75666711D01*
X160744500Y-75665614D01*
X160744500Y-75634623D01*
X160744502Y-75633853D01*
X160744952Y-75560215D01*
X160744952Y-75560214D01*
X160744976Y-75556279D01*
X160744592Y-75554935D01*
X160744500Y-75553590D01*
X160744500Y-71688531D01*
X160764502Y-71620410D01*
X160818158Y-71573917D01*
X160888432Y-71563813D01*
X160936335Y-71581099D01*
X160976499Y-71605712D01*
X160976509Y-71605717D01*
X160980729Y-71608303D01*
X160985299Y-71610196D01*
X160985303Y-71610198D01*
X161174416Y-71688531D01*
X161221911Y-71708204D01*
X161310931Y-71729576D01*
X161470938Y-71767991D01*
X161470944Y-71767992D01*
X161475751Y-71769146D01*
X161736000Y-71789628D01*
X161996249Y-71769146D01*
X162001056Y-71767992D01*
X162001062Y-71767991D01*
X162161069Y-71729576D01*
X162250089Y-71708204D01*
X162297584Y-71688531D01*
X162486697Y-71610198D01*
X162486701Y-71610196D01*
X162491271Y-71608303D01*
X162713856Y-71471903D01*
X162912363Y-71302363D01*
X163081903Y-71103856D01*
X163218303Y-70881271D01*
X163227803Y-70858338D01*
X163316310Y-70644662D01*
X163316311Y-70644660D01*
X163318204Y-70640089D01*
X163363705Y-70450565D01*
X163377991Y-70391062D01*
X163377992Y-70391056D01*
X163379146Y-70386249D01*
X163399628Y-70126000D01*
X163379146Y-69865751D01*
X163377992Y-69860944D01*
X163377991Y-69860938D01*
X163333835Y-69677019D01*
X163318204Y-69611911D01*
X163316310Y-69607338D01*
X163220198Y-69375303D01*
X163220196Y-69375299D01*
X163218303Y-69370729D01*
X163081903Y-69148144D01*
X162912363Y-68949637D01*
X162713856Y-68780097D01*
X162491271Y-68643697D01*
X162486701Y-68641804D01*
X162486697Y-68641802D01*
X162254662Y-68545690D01*
X162254660Y-68545689D01*
X162250089Y-68543796D01*
X162148452Y-68519395D01*
X162001062Y-68484009D01*
X162001056Y-68484008D01*
X161996249Y-68482854D01*
X161736000Y-68462372D01*
X161475751Y-68482854D01*
X161470944Y-68484008D01*
X161470938Y-68484009D01*
X161323548Y-68519395D01*
X161221911Y-68543796D01*
X161217340Y-68545689D01*
X161217338Y-68545690D01*
X160985303Y-68641802D01*
X160985299Y-68641804D01*
X160980729Y-68643697D01*
X160976510Y-68646282D01*
X160976499Y-68646288D01*
X160936335Y-68670901D01*
X160867802Y-68689440D01*
X160800125Y-68667984D01*
X160754792Y-68613345D01*
X160744500Y-68563469D01*
X160744500Y-66506000D01*
X164306526Y-66506000D01*
X164326391Y-66758403D01*
X164327545Y-66763210D01*
X164327546Y-66763216D01*
X164365179Y-66919968D01*
X164385495Y-67004591D01*
X164387388Y-67009162D01*
X164387389Y-67009164D01*
X164461462Y-67187991D01*
X164482384Y-67238502D01*
X164614672Y-67454376D01*
X164779102Y-67646898D01*
X164971624Y-67811328D01*
X165187498Y-67943616D01*
X165192068Y-67945509D01*
X165192072Y-67945511D01*
X165416836Y-68038611D01*
X165421409Y-68040505D01*
X165487767Y-68056436D01*
X165662784Y-68098454D01*
X165662790Y-68098455D01*
X165667597Y-68099609D01*
X165767416Y-68107465D01*
X165854345Y-68114307D01*
X165854352Y-68114307D01*
X165856801Y-68114500D01*
X165983199Y-68114500D01*
X165985648Y-68114307D01*
X165985655Y-68114307D01*
X166072584Y-68107465D01*
X166172403Y-68099609D01*
X166177210Y-68098455D01*
X166177216Y-68098454D01*
X166352233Y-68056436D01*
X166418591Y-68040505D01*
X166423164Y-68038611D01*
X166647928Y-67945511D01*
X166647932Y-67945509D01*
X166652502Y-67943616D01*
X166868376Y-67811328D01*
X167060898Y-67646898D01*
X167225328Y-67454376D01*
X167357616Y-67238502D01*
X167378539Y-67187991D01*
X167452611Y-67009164D01*
X167452612Y-67009162D01*
X167454505Y-67004591D01*
X167474821Y-66919968D01*
X167512454Y-66763216D01*
X167512455Y-66763210D01*
X167513609Y-66758403D01*
X167533474Y-66506000D01*
X167513609Y-66253597D01*
X167507453Y-66227952D01*
X167455660Y-66012221D01*
X167454505Y-66007409D01*
X167357616Y-65773498D01*
X167225328Y-65557624D01*
X167060898Y-65365102D01*
X166868376Y-65200672D01*
X166652502Y-65068384D01*
X166647932Y-65066491D01*
X166647928Y-65066489D01*
X166423164Y-64973389D01*
X166423162Y-64973388D01*
X166418591Y-64971495D01*
X166333968Y-64951179D01*
X166177216Y-64913546D01*
X166177210Y-64913545D01*
X166172403Y-64912391D01*
X166072584Y-64904535D01*
X165985655Y-64897693D01*
X165985648Y-64897693D01*
X165983199Y-64897500D01*
X165856801Y-64897500D01*
X165854352Y-64897693D01*
X165854345Y-64897693D01*
X165767416Y-64904535D01*
X165667597Y-64912391D01*
X165662790Y-64913545D01*
X165662784Y-64913546D01*
X165506032Y-64951179D01*
X165421409Y-64971495D01*
X165416838Y-64973388D01*
X165416836Y-64973389D01*
X165192072Y-65066489D01*
X165192068Y-65066491D01*
X165187498Y-65068384D01*
X164971624Y-65200672D01*
X164779102Y-65365102D01*
X164614672Y-65557624D01*
X164482384Y-65773498D01*
X164385495Y-66007409D01*
X164384340Y-66012221D01*
X164332548Y-66227952D01*
X164326391Y-66253597D01*
X164306526Y-66506000D01*
X160744500Y-66506000D01*
X160744500Y-64634623D01*
X160744502Y-64633853D01*
X160744800Y-64585102D01*
X160744976Y-64556279D01*
X160736850Y-64527847D01*
X160733272Y-64511085D01*
X160730352Y-64490698D01*
X160729080Y-64481813D01*
X160718451Y-64458436D01*
X160712004Y-64440913D01*
X160707416Y-64424862D01*
X160704949Y-64416229D01*
X160700156Y-64408632D01*
X160689170Y-64391220D01*
X160681030Y-64376135D01*
X160678564Y-64370711D01*
X160668792Y-64349218D01*
X160652030Y-64329765D01*
X160640927Y-64314761D01*
X160627224Y-64293042D01*
X160620499Y-64287103D01*
X160620496Y-64287099D01*
X160605062Y-64273468D01*
X160593018Y-64261276D01*
X160579574Y-64245674D01*
X160579571Y-64245671D01*
X160573713Y-64238873D01*
X160567447Y-64234812D01*
X160529669Y-64175598D01*
X160529904Y-64104601D01*
X160568485Y-64045003D01*
X160633164Y-64015724D01*
X160650682Y-64014500D01*
X168285500Y-64014500D01*
X168353621Y-64034502D01*
X168400114Y-64088158D01*
X168411500Y-64140500D01*
X168411500Y-110371500D01*
X168391498Y-110439621D01*
X168337842Y-110486114D01*
X168285500Y-110497500D01*
X97554500Y-110497500D01*
X97486379Y-110477498D01*
X97439886Y-110423842D01*
X97428500Y-110371500D01*
X97428500Y-108006000D01*
X98306526Y-108006000D01*
X98326391Y-108258403D01*
X98327545Y-108263210D01*
X98327546Y-108263216D01*
X98359349Y-108395686D01*
X98385495Y-108504591D01*
X98482384Y-108738502D01*
X98614672Y-108954376D01*
X98779102Y-109146898D01*
X98971624Y-109311328D01*
X99187498Y-109443616D01*
X99192068Y-109445509D01*
X99192072Y-109445511D01*
X99416836Y-109538611D01*
X99421409Y-109540505D01*
X99506032Y-109560821D01*
X99662784Y-109598454D01*
X99662790Y-109598455D01*
X99667597Y-109599609D01*
X99767416Y-109607465D01*
X99854345Y-109614307D01*
X99854352Y-109614307D01*
X99856801Y-109614500D01*
X99983199Y-109614500D01*
X99985648Y-109614307D01*
X99985655Y-109614307D01*
X100072584Y-109607465D01*
X100172403Y-109599609D01*
X100177210Y-109598455D01*
X100177216Y-109598454D01*
X100333968Y-109560821D01*
X100418591Y-109540505D01*
X100423164Y-109538611D01*
X100647928Y-109445511D01*
X100647932Y-109445509D01*
X100652502Y-109443616D01*
X100868376Y-109311328D01*
X101060898Y-109146898D01*
X101225328Y-108954376D01*
X101357616Y-108738502D01*
X101454505Y-108504591D01*
X101480651Y-108395686D01*
X101512454Y-108263216D01*
X101512455Y-108263210D01*
X101513609Y-108258403D01*
X101533474Y-108006000D01*
X101513609Y-107753597D01*
X101454505Y-107507409D01*
X101417044Y-107416970D01*
X101359511Y-107278072D01*
X101359509Y-107278068D01*
X101357616Y-107273498D01*
X101313189Y-107201000D01*
X104176884Y-107201000D01*
X104195314Y-107411655D01*
X104196738Y-107416968D01*
X104196738Y-107416970D01*
X104222261Y-107512221D01*
X104250044Y-107615910D01*
X104252366Y-107620891D01*
X104252367Y-107620892D01*
X104314249Y-107753597D01*
X104339411Y-107807558D01*
X104460699Y-107980776D01*
X104610224Y-108130301D01*
X104783442Y-108251589D01*
X104788420Y-108253910D01*
X104788423Y-108253912D01*
X104808376Y-108263216D01*
X104975090Y-108340956D01*
X104980398Y-108342378D01*
X104980400Y-108342379D01*
X105174030Y-108394262D01*
X105174032Y-108394262D01*
X105179345Y-108395686D01*
X105390000Y-108414116D01*
X105600655Y-108395686D01*
X105605968Y-108394262D01*
X105605970Y-108394262D01*
X105799600Y-108342379D01*
X105799602Y-108342378D01*
X105804910Y-108340956D01*
X105971624Y-108263216D01*
X105991577Y-108253912D01*
X105991580Y-108253910D01*
X105996558Y-108251589D01*
X106169776Y-108130301D01*
X106319301Y-107980776D01*
X106440589Y-107807558D01*
X106465752Y-107753597D01*
X106527633Y-107620892D01*
X106527634Y-107620891D01*
X106529956Y-107615910D01*
X106557740Y-107512221D01*
X106583262Y-107416970D01*
X106583262Y-107416968D01*
X106584686Y-107411655D01*
X106603116Y-107201000D01*
X115176884Y-107201000D01*
X115195314Y-107411655D01*
X115196738Y-107416968D01*
X115196738Y-107416970D01*
X115222261Y-107512221D01*
X115250044Y-107615910D01*
X115252366Y-107620891D01*
X115252367Y-107620892D01*
X115314249Y-107753597D01*
X115339411Y-107807558D01*
X115460699Y-107980776D01*
X115610224Y-108130301D01*
X115783442Y-108251589D01*
X115788420Y-108253910D01*
X115788423Y-108253912D01*
X115808376Y-108263216D01*
X115975090Y-108340956D01*
X115980398Y-108342378D01*
X115980400Y-108342379D01*
X116174030Y-108394262D01*
X116174032Y-108394262D01*
X116179345Y-108395686D01*
X116390000Y-108414116D01*
X116600655Y-108395686D01*
X116605968Y-108394262D01*
X116605970Y-108394262D01*
X116799600Y-108342379D01*
X116799602Y-108342378D01*
X116804910Y-108340956D01*
X116971624Y-108263216D01*
X116991577Y-108253912D01*
X116991580Y-108253910D01*
X116996558Y-108251589D01*
X117169776Y-108130301D01*
X117319301Y-107980776D01*
X117440589Y-107807558D01*
X117465752Y-107753597D01*
X117527633Y-107620892D01*
X117527634Y-107620891D01*
X117529956Y-107615910D01*
X117557740Y-107512221D01*
X117583262Y-107416970D01*
X117583262Y-107416968D01*
X117584686Y-107411655D01*
X117603116Y-107201000D01*
X118908884Y-107201000D01*
X118927314Y-107411655D01*
X118928738Y-107416968D01*
X118928738Y-107416970D01*
X118954261Y-107512221D01*
X118982044Y-107615910D01*
X118984366Y-107620891D01*
X118984367Y-107620892D01*
X119046249Y-107753597D01*
X119071411Y-107807558D01*
X119192699Y-107980776D01*
X119342224Y-108130301D01*
X119515442Y-108251589D01*
X119520420Y-108253910D01*
X119520423Y-108253912D01*
X119540376Y-108263216D01*
X119707090Y-108340956D01*
X119712398Y-108342378D01*
X119712400Y-108342379D01*
X119906030Y-108394262D01*
X119906032Y-108394262D01*
X119911345Y-108395686D01*
X120122000Y-108414116D01*
X120332655Y-108395686D01*
X120337968Y-108394262D01*
X120337970Y-108394262D01*
X120531600Y-108342379D01*
X120531602Y-108342378D01*
X120536910Y-108340956D01*
X120703624Y-108263216D01*
X120723577Y-108253912D01*
X120723580Y-108253910D01*
X120728558Y-108251589D01*
X120901776Y-108130301D01*
X121051301Y-107980776D01*
X121172589Y-107807558D01*
X121197752Y-107753597D01*
X121259633Y-107620892D01*
X121259634Y-107620891D01*
X121261956Y-107615910D01*
X121289740Y-107512221D01*
X121315262Y-107416970D01*
X121315262Y-107416968D01*
X121316686Y-107411655D01*
X121335116Y-107201000D01*
X129908884Y-107201000D01*
X129927314Y-107411655D01*
X129928738Y-107416968D01*
X129928738Y-107416970D01*
X129954261Y-107512221D01*
X129982044Y-107615910D01*
X129984366Y-107620891D01*
X129984367Y-107620892D01*
X130046249Y-107753597D01*
X130071411Y-107807558D01*
X130192699Y-107980776D01*
X130342224Y-108130301D01*
X130515442Y-108251589D01*
X130520420Y-108253910D01*
X130520423Y-108253912D01*
X130540376Y-108263216D01*
X130707090Y-108340956D01*
X130712398Y-108342378D01*
X130712400Y-108342379D01*
X130906030Y-108394262D01*
X130906032Y-108394262D01*
X130911345Y-108395686D01*
X131122000Y-108414116D01*
X131332655Y-108395686D01*
X131337968Y-108394262D01*
X131337970Y-108394262D01*
X131531600Y-108342379D01*
X131531602Y-108342378D01*
X131536910Y-108340956D01*
X131703624Y-108263216D01*
X131723577Y-108253912D01*
X131723580Y-108253910D01*
X131728558Y-108251589D01*
X131901776Y-108130301D01*
X132051301Y-107980776D01*
X132172589Y-107807558D01*
X132197752Y-107753597D01*
X132259633Y-107620892D01*
X132259634Y-107620891D01*
X132261956Y-107615910D01*
X132289740Y-107512221D01*
X132315262Y-107416970D01*
X132315262Y-107416968D01*
X132316686Y-107411655D01*
X132335116Y-107201000D01*
X133640884Y-107201000D01*
X133659314Y-107411655D01*
X133660738Y-107416968D01*
X133660738Y-107416970D01*
X133686261Y-107512221D01*
X133714044Y-107615910D01*
X133716366Y-107620891D01*
X133716367Y-107620892D01*
X133778249Y-107753597D01*
X133803411Y-107807558D01*
X133924699Y-107980776D01*
X134074224Y-108130301D01*
X134247442Y-108251589D01*
X134252420Y-108253910D01*
X134252423Y-108253912D01*
X134272376Y-108263216D01*
X134439090Y-108340956D01*
X134444398Y-108342378D01*
X134444400Y-108342379D01*
X134638030Y-108394262D01*
X134638032Y-108394262D01*
X134643345Y-108395686D01*
X134854000Y-108414116D01*
X135064655Y-108395686D01*
X135069968Y-108394262D01*
X135069970Y-108394262D01*
X135263600Y-108342379D01*
X135263602Y-108342378D01*
X135268910Y-108340956D01*
X135435624Y-108263216D01*
X135455577Y-108253912D01*
X135455580Y-108253910D01*
X135460558Y-108251589D01*
X135633776Y-108130301D01*
X135783301Y-107980776D01*
X135904589Y-107807558D01*
X135929752Y-107753597D01*
X135991633Y-107620892D01*
X135991634Y-107620891D01*
X135993956Y-107615910D01*
X136021740Y-107512221D01*
X136047262Y-107416970D01*
X136047262Y-107416968D01*
X136048686Y-107411655D01*
X136067116Y-107201000D01*
X144640884Y-107201000D01*
X144659314Y-107411655D01*
X144660738Y-107416968D01*
X144660738Y-107416970D01*
X144686261Y-107512221D01*
X144714044Y-107615910D01*
X144716366Y-107620891D01*
X144716367Y-107620892D01*
X144778249Y-107753597D01*
X144803411Y-107807558D01*
X144924699Y-107980776D01*
X145074224Y-108130301D01*
X145247442Y-108251589D01*
X145252420Y-108253910D01*
X145252423Y-108253912D01*
X145272376Y-108263216D01*
X145439090Y-108340956D01*
X145444398Y-108342378D01*
X145444400Y-108342379D01*
X145638030Y-108394262D01*
X145638032Y-108394262D01*
X145643345Y-108395686D01*
X145854000Y-108414116D01*
X146064655Y-108395686D01*
X146069968Y-108394262D01*
X146069970Y-108394262D01*
X146263600Y-108342379D01*
X146263602Y-108342378D01*
X146268910Y-108340956D01*
X146435624Y-108263216D01*
X146455577Y-108253912D01*
X146455580Y-108253910D01*
X146460558Y-108251589D01*
X146633776Y-108130301D01*
X146783301Y-107980776D01*
X146904589Y-107807558D01*
X146929752Y-107753597D01*
X146991633Y-107620892D01*
X146991634Y-107620891D01*
X146993956Y-107615910D01*
X147021740Y-107512221D01*
X147047262Y-107416970D01*
X147047262Y-107416968D01*
X147048686Y-107411655D01*
X147067116Y-107201000D01*
X148372884Y-107201000D01*
X148391314Y-107411655D01*
X148392738Y-107416968D01*
X148392738Y-107416970D01*
X148418261Y-107512221D01*
X148446044Y-107615910D01*
X148448366Y-107620891D01*
X148448367Y-107620892D01*
X148510249Y-107753597D01*
X148535411Y-107807558D01*
X148656699Y-107980776D01*
X148806224Y-108130301D01*
X148979442Y-108251589D01*
X148984420Y-108253910D01*
X148984423Y-108253912D01*
X149004376Y-108263216D01*
X149171090Y-108340956D01*
X149176398Y-108342378D01*
X149176400Y-108342379D01*
X149370030Y-108394262D01*
X149370032Y-108394262D01*
X149375345Y-108395686D01*
X149586000Y-108414116D01*
X149796655Y-108395686D01*
X149801968Y-108394262D01*
X149801970Y-108394262D01*
X149995600Y-108342379D01*
X149995602Y-108342378D01*
X150000910Y-108340956D01*
X150167624Y-108263216D01*
X150187577Y-108253912D01*
X150187580Y-108253910D01*
X150192558Y-108251589D01*
X150365776Y-108130301D01*
X150515301Y-107980776D01*
X150636589Y-107807558D01*
X150661752Y-107753597D01*
X150723633Y-107620892D01*
X150723634Y-107620891D01*
X150725956Y-107615910D01*
X150753740Y-107512221D01*
X150779262Y-107416970D01*
X150779262Y-107416968D01*
X150780686Y-107411655D01*
X150799116Y-107201000D01*
X159372884Y-107201000D01*
X159391314Y-107411655D01*
X159392738Y-107416968D01*
X159392738Y-107416970D01*
X159418261Y-107512221D01*
X159446044Y-107615910D01*
X159448366Y-107620891D01*
X159448367Y-107620892D01*
X159510249Y-107753597D01*
X159535411Y-107807558D01*
X159656699Y-107980776D01*
X159806224Y-108130301D01*
X159979442Y-108251589D01*
X159984420Y-108253910D01*
X159984423Y-108253912D01*
X160004376Y-108263216D01*
X160171090Y-108340956D01*
X160176398Y-108342378D01*
X160176400Y-108342379D01*
X160370030Y-108394262D01*
X160370032Y-108394262D01*
X160375345Y-108395686D01*
X160586000Y-108414116D01*
X160796655Y-108395686D01*
X160801968Y-108394262D01*
X160801970Y-108394262D01*
X160995600Y-108342379D01*
X160995602Y-108342378D01*
X161000910Y-108340956D01*
X161167624Y-108263216D01*
X161187577Y-108253912D01*
X161187580Y-108253910D01*
X161192558Y-108251589D01*
X161365776Y-108130301D01*
X161490077Y-108006000D01*
X164306526Y-108006000D01*
X164326391Y-108258403D01*
X164327545Y-108263210D01*
X164327546Y-108263216D01*
X164359349Y-108395686D01*
X164385495Y-108504591D01*
X164482384Y-108738502D01*
X164614672Y-108954376D01*
X164779102Y-109146898D01*
X164971624Y-109311328D01*
X165187498Y-109443616D01*
X165192068Y-109445509D01*
X165192072Y-109445511D01*
X165416836Y-109538611D01*
X165421409Y-109540505D01*
X165506032Y-109560821D01*
X165662784Y-109598454D01*
X165662790Y-109598455D01*
X165667597Y-109599609D01*
X165767416Y-109607465D01*
X165854345Y-109614307D01*
X165854352Y-109614307D01*
X165856801Y-109614500D01*
X165983199Y-109614500D01*
X165985648Y-109614307D01*
X165985655Y-109614307D01*
X166072584Y-109607465D01*
X166172403Y-109599609D01*
X166177210Y-109598455D01*
X166177216Y-109598454D01*
X166333968Y-109560821D01*
X166418591Y-109540505D01*
X166423164Y-109538611D01*
X166647928Y-109445511D01*
X166647932Y-109445509D01*
X166652502Y-109443616D01*
X166868376Y-109311328D01*
X167060898Y-109146898D01*
X167225328Y-108954376D01*
X167357616Y-108738502D01*
X167454505Y-108504591D01*
X167480651Y-108395686D01*
X167512454Y-108263216D01*
X167512455Y-108263210D01*
X167513609Y-108258403D01*
X167533474Y-108006000D01*
X167513609Y-107753597D01*
X167454505Y-107507409D01*
X167417044Y-107416970D01*
X167359511Y-107278072D01*
X167359509Y-107278068D01*
X167357616Y-107273498D01*
X167225328Y-107057624D01*
X167060898Y-106865102D01*
X166868376Y-106700672D01*
X166652502Y-106568384D01*
X166647932Y-106566491D01*
X166647928Y-106566489D01*
X166423164Y-106473389D01*
X166423162Y-106473388D01*
X166418591Y-106471495D01*
X166333968Y-106451179D01*
X166177216Y-106413546D01*
X166177210Y-106413545D01*
X166172403Y-106412391D01*
X166072584Y-106404535D01*
X165985655Y-106397693D01*
X165985648Y-106397693D01*
X165983199Y-106397500D01*
X165856801Y-106397500D01*
X165854352Y-106397693D01*
X165854345Y-106397693D01*
X165767416Y-106404535D01*
X165667597Y-106412391D01*
X165662790Y-106413545D01*
X165662784Y-106413546D01*
X165506032Y-106451179D01*
X165421409Y-106471495D01*
X165416838Y-106473388D01*
X165416836Y-106473389D01*
X165192072Y-106566489D01*
X165192068Y-106566491D01*
X165187498Y-106568384D01*
X164971624Y-106700672D01*
X164779102Y-106865102D01*
X164614672Y-107057624D01*
X164482384Y-107273498D01*
X164480491Y-107278068D01*
X164480489Y-107278072D01*
X164422956Y-107416970D01*
X164385495Y-107507409D01*
X164326391Y-107753597D01*
X164306526Y-108006000D01*
X161490077Y-108006000D01*
X161515301Y-107980776D01*
X161636589Y-107807558D01*
X161661752Y-107753597D01*
X161723633Y-107620892D01*
X161723634Y-107620891D01*
X161725956Y-107615910D01*
X161753740Y-107512221D01*
X161779262Y-107416970D01*
X161779262Y-107416968D01*
X161780686Y-107411655D01*
X161799116Y-107201000D01*
X161780686Y-106990345D01*
X161725956Y-106786090D01*
X161636589Y-106594442D01*
X161515301Y-106421224D01*
X161365776Y-106271699D01*
X161192558Y-106150411D01*
X161187580Y-106148090D01*
X161187577Y-106148088D01*
X161005892Y-106063367D01*
X161005891Y-106063366D01*
X161000910Y-106061044D01*
X160995602Y-106059622D01*
X160995600Y-106059621D01*
X160801970Y-106007738D01*
X160801968Y-106007738D01*
X160796655Y-106006314D01*
X160586000Y-105987884D01*
X160375345Y-106006314D01*
X160370032Y-106007738D01*
X160370030Y-106007738D01*
X160176400Y-106059621D01*
X160176398Y-106059622D01*
X160171090Y-106061044D01*
X160166109Y-106063366D01*
X160166108Y-106063367D01*
X159984423Y-106148088D01*
X159984420Y-106148090D01*
X159979442Y-106150411D01*
X159806224Y-106271699D01*
X159656699Y-106421224D01*
X159535411Y-106594442D01*
X159446044Y-106786090D01*
X159391314Y-106990345D01*
X159372884Y-107201000D01*
X150799116Y-107201000D01*
X150780686Y-106990345D01*
X150725956Y-106786090D01*
X150636589Y-106594442D01*
X150515301Y-106421224D01*
X150365776Y-106271699D01*
X150192558Y-106150411D01*
X150187580Y-106148090D01*
X150187577Y-106148088D01*
X150005892Y-106063367D01*
X150005891Y-106063366D01*
X150000910Y-106061044D01*
X149995602Y-106059622D01*
X149995600Y-106059621D01*
X149801970Y-106007738D01*
X149801968Y-106007738D01*
X149796655Y-106006314D01*
X149586000Y-105987884D01*
X149375345Y-106006314D01*
X149370032Y-106007738D01*
X149370030Y-106007738D01*
X149176400Y-106059621D01*
X149176398Y-106059622D01*
X149171090Y-106061044D01*
X149166109Y-106063366D01*
X149166108Y-106063367D01*
X148984423Y-106148088D01*
X148984420Y-106148090D01*
X148979442Y-106150411D01*
X148806224Y-106271699D01*
X148656699Y-106421224D01*
X148535411Y-106594442D01*
X148446044Y-106786090D01*
X148391314Y-106990345D01*
X148372884Y-107201000D01*
X147067116Y-107201000D01*
X147048686Y-106990345D01*
X146993956Y-106786090D01*
X146904589Y-106594442D01*
X146783301Y-106421224D01*
X146633776Y-106271699D01*
X146460558Y-106150411D01*
X146455580Y-106148090D01*
X146455577Y-106148088D01*
X146273892Y-106063367D01*
X146273891Y-106063366D01*
X146268910Y-106061044D01*
X146263602Y-106059622D01*
X146263600Y-106059621D01*
X146069970Y-106007738D01*
X146069968Y-106007738D01*
X146064655Y-106006314D01*
X145854000Y-105987884D01*
X145643345Y-106006314D01*
X145638032Y-106007738D01*
X145638030Y-106007738D01*
X145444400Y-106059621D01*
X145444398Y-106059622D01*
X145439090Y-106061044D01*
X145434109Y-106063366D01*
X145434108Y-106063367D01*
X145252423Y-106148088D01*
X145252420Y-106148090D01*
X145247442Y-106150411D01*
X145074224Y-106271699D01*
X144924699Y-106421224D01*
X144803411Y-106594442D01*
X144714044Y-106786090D01*
X144659314Y-106990345D01*
X144640884Y-107201000D01*
X136067116Y-107201000D01*
X136048686Y-106990345D01*
X135993956Y-106786090D01*
X135904589Y-106594442D01*
X135783301Y-106421224D01*
X135633776Y-106271699D01*
X135460558Y-106150411D01*
X135455580Y-106148090D01*
X135455577Y-106148088D01*
X135273892Y-106063367D01*
X135273891Y-106063366D01*
X135268910Y-106061044D01*
X135263602Y-106059622D01*
X135263600Y-106059621D01*
X135069970Y-106007738D01*
X135069968Y-106007738D01*
X135064655Y-106006314D01*
X134854000Y-105987884D01*
X134643345Y-106006314D01*
X134638032Y-106007738D01*
X134638030Y-106007738D01*
X134444400Y-106059621D01*
X134444398Y-106059622D01*
X134439090Y-106061044D01*
X134434109Y-106063366D01*
X134434108Y-106063367D01*
X134252423Y-106148088D01*
X134252420Y-106148090D01*
X134247442Y-106150411D01*
X134074224Y-106271699D01*
X133924699Y-106421224D01*
X133803411Y-106594442D01*
X133714044Y-106786090D01*
X133659314Y-106990345D01*
X133640884Y-107201000D01*
X132335116Y-107201000D01*
X132316686Y-106990345D01*
X132261956Y-106786090D01*
X132172589Y-106594442D01*
X132051301Y-106421224D01*
X131901776Y-106271699D01*
X131728558Y-106150411D01*
X131723580Y-106148090D01*
X131723577Y-106148088D01*
X131541892Y-106063367D01*
X131541891Y-106063366D01*
X131536910Y-106061044D01*
X131531602Y-106059622D01*
X131531600Y-106059621D01*
X131337970Y-106007738D01*
X131337968Y-106007738D01*
X131332655Y-106006314D01*
X131122000Y-105987884D01*
X130911345Y-106006314D01*
X130906032Y-106007738D01*
X130906030Y-106007738D01*
X130712400Y-106059621D01*
X130712398Y-106059622D01*
X130707090Y-106061044D01*
X130702109Y-106063366D01*
X130702108Y-106063367D01*
X130520423Y-106148088D01*
X130520420Y-106148090D01*
X130515442Y-106150411D01*
X130342224Y-106271699D01*
X130192699Y-106421224D01*
X130071411Y-106594442D01*
X129982044Y-106786090D01*
X129927314Y-106990345D01*
X129908884Y-107201000D01*
X121335116Y-107201000D01*
X121316686Y-106990345D01*
X121261956Y-106786090D01*
X121172589Y-106594442D01*
X121051301Y-106421224D01*
X120901776Y-106271699D01*
X120728558Y-106150411D01*
X120723580Y-106148090D01*
X120723577Y-106148088D01*
X120541892Y-106063367D01*
X120541891Y-106063366D01*
X120536910Y-106061044D01*
X120531602Y-106059622D01*
X120531600Y-106059621D01*
X120337970Y-106007738D01*
X120337968Y-106007738D01*
X120332655Y-106006314D01*
X120122000Y-105987884D01*
X119911345Y-106006314D01*
X119906032Y-106007738D01*
X119906030Y-106007738D01*
X119712400Y-106059621D01*
X119712398Y-106059622D01*
X119707090Y-106061044D01*
X119702109Y-106063366D01*
X119702108Y-106063367D01*
X119520423Y-106148088D01*
X119520420Y-106148090D01*
X119515442Y-106150411D01*
X119342224Y-106271699D01*
X119192699Y-106421224D01*
X119071411Y-106594442D01*
X118982044Y-106786090D01*
X118927314Y-106990345D01*
X118908884Y-107201000D01*
X117603116Y-107201000D01*
X117584686Y-106990345D01*
X117529956Y-106786090D01*
X117440589Y-106594442D01*
X117319301Y-106421224D01*
X117169776Y-106271699D01*
X116996558Y-106150411D01*
X116991580Y-106148090D01*
X116991577Y-106148088D01*
X116809892Y-106063367D01*
X116809891Y-106063366D01*
X116804910Y-106061044D01*
X116799602Y-106059622D01*
X116799600Y-106059621D01*
X116605970Y-106007738D01*
X116605968Y-106007738D01*
X116600655Y-106006314D01*
X116390000Y-105987884D01*
X116179345Y-106006314D01*
X116174032Y-106007738D01*
X116174030Y-106007738D01*
X115980400Y-106059621D01*
X115980398Y-106059622D01*
X115975090Y-106061044D01*
X115970109Y-106063366D01*
X115970108Y-106063367D01*
X115788423Y-106148088D01*
X115788420Y-106148090D01*
X115783442Y-106150411D01*
X115610224Y-106271699D01*
X115460699Y-106421224D01*
X115339411Y-106594442D01*
X115250044Y-106786090D01*
X115195314Y-106990345D01*
X115176884Y-107201000D01*
X106603116Y-107201000D01*
X106584686Y-106990345D01*
X106529956Y-106786090D01*
X106440589Y-106594442D01*
X106319301Y-106421224D01*
X106169776Y-106271699D01*
X105996558Y-106150411D01*
X105991580Y-106148090D01*
X105991577Y-106148088D01*
X105809892Y-106063367D01*
X105809891Y-106063366D01*
X105804910Y-106061044D01*
X105799602Y-106059622D01*
X105799600Y-106059621D01*
X105605970Y-106007738D01*
X105605968Y-106007738D01*
X105600655Y-106006314D01*
X105390000Y-105987884D01*
X105179345Y-106006314D01*
X105174032Y-106007738D01*
X105174030Y-106007738D01*
X104980400Y-106059621D01*
X104980398Y-106059622D01*
X104975090Y-106061044D01*
X104970109Y-106063366D01*
X104970108Y-106063367D01*
X104788423Y-106148088D01*
X104788420Y-106148090D01*
X104783442Y-106150411D01*
X104610224Y-106271699D01*
X104460699Y-106421224D01*
X104339411Y-106594442D01*
X104250044Y-106786090D01*
X104195314Y-106990345D01*
X104176884Y-107201000D01*
X101313189Y-107201000D01*
X101225328Y-107057624D01*
X101060898Y-106865102D01*
X100868376Y-106700672D01*
X100652502Y-106568384D01*
X100647932Y-106566491D01*
X100647928Y-106566489D01*
X100423164Y-106473389D01*
X100423162Y-106473388D01*
X100418591Y-106471495D01*
X100333968Y-106451179D01*
X100177216Y-106413546D01*
X100177210Y-106413545D01*
X100172403Y-106412391D01*
X100072584Y-106404535D01*
X99985655Y-106397693D01*
X99985648Y-106397693D01*
X99983199Y-106397500D01*
X99856801Y-106397500D01*
X99854352Y-106397693D01*
X99854345Y-106397693D01*
X99767416Y-106404535D01*
X99667597Y-106412391D01*
X99662790Y-106413545D01*
X99662784Y-106413546D01*
X99506032Y-106451179D01*
X99421409Y-106471495D01*
X99416838Y-106473388D01*
X99416836Y-106473389D01*
X99192072Y-106566489D01*
X99192068Y-106566491D01*
X99187498Y-106568384D01*
X98971624Y-106700672D01*
X98779102Y-106865102D01*
X98614672Y-107057624D01*
X98482384Y-107273498D01*
X98480491Y-107278068D01*
X98480489Y-107278072D01*
X98422956Y-107416970D01*
X98385495Y-107507409D01*
X98326391Y-107753597D01*
X98306526Y-108006000D01*
X97428500Y-108006000D01*
X97428500Y-98995669D01*
X106132001Y-98995669D01*
X106132371Y-99002490D01*
X106137895Y-99053352D01*
X106141521Y-99068604D01*
X106186676Y-99189054D01*
X106195214Y-99204649D01*
X106271715Y-99306724D01*
X106284276Y-99319285D01*
X106386351Y-99395786D01*
X106401946Y-99404324D01*
X106522394Y-99449478D01*
X106537649Y-99453105D01*
X106588514Y-99458631D01*
X106595328Y-99459000D01*
X108117885Y-99459000D01*
X108133124Y-99454525D01*
X108134329Y-99453135D01*
X108136000Y-99445452D01*
X108136000Y-97473115D01*
X108131525Y-97457876D01*
X108130135Y-97456671D01*
X108122452Y-97455000D01*
X106150116Y-97455000D01*
X106134877Y-97459475D01*
X106133672Y-97460865D01*
X106132001Y-97468548D01*
X106132001Y-98995669D01*
X97428500Y-98995669D01*
X97428500Y-96928885D01*
X106132000Y-96928885D01*
X106136475Y-96944124D01*
X106137865Y-96945329D01*
X106145548Y-96947000D01*
X108117885Y-96947000D01*
X108133124Y-96942525D01*
X108134329Y-96941135D01*
X108136000Y-96933452D01*
X108136000Y-94961116D01*
X108131525Y-94945877D01*
X108130135Y-94944672D01*
X108122452Y-94943001D01*
X106595331Y-94943001D01*
X106588510Y-94943371D01*
X106537648Y-94948895D01*
X106522396Y-94952521D01*
X106401946Y-94997676D01*
X106386351Y-95006214D01*
X106284276Y-95082715D01*
X106271715Y-95095276D01*
X106195214Y-95197351D01*
X106186676Y-95212946D01*
X106141522Y-95333394D01*
X106137895Y-95348649D01*
X106132369Y-95399514D01*
X106132000Y-95406328D01*
X106132000Y-96928885D01*
X97428500Y-96928885D01*
X97428500Y-92598134D01*
X106721500Y-92598134D01*
X106728255Y-92660316D01*
X106779385Y-92796705D01*
X106866739Y-92913261D01*
X106983295Y-93000615D01*
X107119684Y-93051745D01*
X107181866Y-93058500D01*
X109278134Y-93058500D01*
X109340316Y-93051745D01*
X109476705Y-93000615D01*
X109593261Y-92913261D01*
X109680615Y-92796705D01*
X109731745Y-92660316D01*
X109738500Y-92598134D01*
X109738500Y-91601866D01*
X109731745Y-91539684D01*
X109680615Y-91403295D01*
X109593261Y-91286739D01*
X109476705Y-91199385D01*
X109340316Y-91148255D01*
X109278134Y-91141500D01*
X107181866Y-91141500D01*
X107119684Y-91148255D01*
X106983295Y-91199385D01*
X106866739Y-91286739D01*
X106779385Y-91403295D01*
X106728255Y-91539684D01*
X106721500Y-91601866D01*
X106721500Y-92598134D01*
X97428500Y-92598134D01*
X97428500Y-90042309D01*
X111672000Y-90042309D01*
X111672161Y-90046822D01*
X111682395Y-90189593D01*
X111683797Y-90199025D01*
X111736271Y-90429991D01*
X111739286Y-90439611D01*
X111827907Y-90658957D01*
X111832421Y-90667972D01*
X111954975Y-90870333D01*
X111960872Y-90878509D01*
X112114205Y-91058674D01*
X112121326Y-91065795D01*
X112301491Y-91219128D01*
X112309667Y-91225025D01*
X112512028Y-91347579D01*
X112521043Y-91352093D01*
X112740389Y-91440714D01*
X112750009Y-91443729D01*
X112980975Y-91496203D01*
X112990407Y-91497605D01*
X113133178Y-91507839D01*
X113137691Y-91508000D01*
X113957885Y-91508000D01*
X113973124Y-91503525D01*
X113974329Y-91502135D01*
X113976000Y-91494452D01*
X113976000Y-89222115D01*
X113971525Y-89206876D01*
X113970135Y-89205671D01*
X113962452Y-89204000D01*
X111690115Y-89204000D01*
X111674876Y-89208475D01*
X111673671Y-89209865D01*
X111672000Y-89217548D01*
X111672000Y-90042309D01*
X97428500Y-90042309D01*
X97428500Y-88677885D01*
X111672000Y-88677885D01*
X111676475Y-88693124D01*
X111677865Y-88694329D01*
X111685548Y-88696000D01*
X113957885Y-88696000D01*
X113973124Y-88691525D01*
X113974329Y-88690135D01*
X113976000Y-88682452D01*
X113976000Y-88677885D01*
X114484000Y-88677885D01*
X114488475Y-88693124D01*
X114489865Y-88694329D01*
X114497548Y-88696000D01*
X116769885Y-88696000D01*
X116785124Y-88691525D01*
X116786329Y-88690135D01*
X116788000Y-88682452D01*
X116788000Y-87857691D01*
X116787839Y-87853178D01*
X116777605Y-87710407D01*
X116776203Y-87700975D01*
X116723729Y-87470009D01*
X116720714Y-87460389D01*
X116632093Y-87241043D01*
X116627579Y-87232028D01*
X116505025Y-87029667D01*
X116499128Y-87021491D01*
X116345795Y-86841326D01*
X116338674Y-86834205D01*
X116158509Y-86680872D01*
X116150333Y-86674975D01*
X115947972Y-86552421D01*
X115938957Y-86547907D01*
X115719611Y-86459286D01*
X115709991Y-86456271D01*
X115479025Y-86403797D01*
X115469593Y-86402395D01*
X115326822Y-86392161D01*
X115322309Y-86392000D01*
X114502115Y-86392000D01*
X114486876Y-86396475D01*
X114485671Y-86397865D01*
X114484000Y-86405548D01*
X114484000Y-88677885D01*
X113976000Y-88677885D01*
X113976000Y-86410115D01*
X113971525Y-86394876D01*
X113970135Y-86393671D01*
X113962452Y-86392000D01*
X113137691Y-86392000D01*
X113133178Y-86392161D01*
X112990407Y-86402395D01*
X112980975Y-86403797D01*
X112750009Y-86456271D01*
X112740389Y-86459286D01*
X112521043Y-86547907D01*
X112512028Y-86552421D01*
X112309667Y-86674975D01*
X112301491Y-86680872D01*
X112121326Y-86834205D01*
X112114205Y-86841326D01*
X111960872Y-87021491D01*
X111954975Y-87029667D01*
X111832421Y-87232028D01*
X111827907Y-87241043D01*
X111739286Y-87460389D01*
X111736271Y-87470009D01*
X111683797Y-87700975D01*
X111682395Y-87710407D01*
X111672161Y-87853178D01*
X111672000Y-87857691D01*
X111672000Y-88677885D01*
X97428500Y-88677885D01*
X97428500Y-75513112D01*
X101517062Y-75513112D01*
X101517347Y-75516733D01*
X101517347Y-75516735D01*
X101521112Y-75564573D01*
X101521500Y-75574459D01*
X101521500Y-80042569D01*
X101521034Y-80051041D01*
X101521119Y-80051045D01*
X101520929Y-80054678D01*
X101520531Y-80058280D01*
X101520930Y-80134563D01*
X101521498Y-80243024D01*
X101521500Y-80243684D01*
X101521500Y-80304432D01*
X101521605Y-80306251D01*
X101521605Y-80306258D01*
X101521662Y-80307241D01*
X101521868Y-80313817D01*
X101522305Y-80397299D01*
X101522347Y-80405225D01*
X101531356Y-80479671D01*
X101532057Y-80487520D01*
X101533839Y-80518423D01*
X101535224Y-80542440D01*
X101536373Y-80562374D01*
X101545974Y-80617380D01*
X101552087Y-80652408D01*
X101553049Y-80658931D01*
X101564029Y-80749662D01*
X101564875Y-80753187D01*
X101564876Y-80753191D01*
X101581531Y-80822564D01*
X101583136Y-80830314D01*
X101596024Y-80904158D01*
X101621984Y-80991799D01*
X101623681Y-80998127D01*
X101645023Y-81087025D01*
X101670764Y-81157365D01*
X101670790Y-81157435D01*
X101673266Y-81164922D01*
X101694563Y-81236820D01*
X101695984Y-81240151D01*
X101695987Y-81240160D01*
X101730420Y-81320886D01*
X101732848Y-81327019D01*
X101760714Y-81403164D01*
X101764256Y-81412844D01*
X101765885Y-81416082D01*
X101765888Y-81416090D01*
X101797939Y-81479818D01*
X101801271Y-81486995D01*
X101803354Y-81491878D01*
X101830684Y-81555952D01*
X101875980Y-81635364D01*
X101879083Y-81641152D01*
X101920147Y-81722799D01*
X101961307Y-81785459D01*
X101965431Y-81792189D01*
X102002583Y-81857324D01*
X102026572Y-81889981D01*
X102056695Y-81930988D01*
X102060460Y-81936405D01*
X102110630Y-82012782D01*
X102112955Y-82015563D01*
X102112959Y-82015568D01*
X102158716Y-82070294D01*
X102163600Y-82076522D01*
X102168255Y-82082859D01*
X102207982Y-82136940D01*
X102210441Y-82139586D01*
X102270202Y-82203897D01*
X102274550Y-82208829D01*
X102307117Y-82247779D01*
X102360078Y-82300740D01*
X102363283Y-82304064D01*
X102444158Y-82391096D01*
X102483418Y-82424628D01*
X102490671Y-82431333D01*
X103814031Y-83754693D01*
X103819699Y-83761021D01*
X103819763Y-83760963D01*
X103822188Y-83763656D01*
X103824459Y-83766491D01*
X103827039Y-83769044D01*
X103955877Y-83896540D01*
X103956344Y-83897006D01*
X103999200Y-83939862D01*
X104001305Y-83941737D01*
X104006105Y-83946245D01*
X104068484Y-84007975D01*
X104068494Y-84007984D01*
X104071071Y-84010534D01*
X104127217Y-84054557D01*
X104130067Y-84056792D01*
X104136118Y-84061851D01*
X104192110Y-84111738D01*
X104195077Y-84113824D01*
X104195078Y-84113824D01*
X104266891Y-84164295D01*
X104272186Y-84168228D01*
X104344098Y-84224614D01*
X104347192Y-84226510D01*
X104347202Y-84226517D01*
X104408017Y-84263785D01*
X104414632Y-84268130D01*
X104472984Y-84309141D01*
X104473002Y-84309152D01*
X104475967Y-84311236D01*
X104556302Y-84354854D01*
X104561997Y-84358143D01*
X104639921Y-84405895D01*
X104643213Y-84407423D01*
X104643224Y-84407429D01*
X104707920Y-84437460D01*
X104714990Y-84441016D01*
X104777671Y-84475049D01*
X104777685Y-84475055D01*
X104780872Y-84476786D01*
X104784237Y-84478139D01*
X104784244Y-84478142D01*
X104865668Y-84510874D01*
X104871721Y-84513493D01*
X104951336Y-84550449D01*
X104951341Y-84550451D01*
X104954620Y-84551973D01*
X105025799Y-84575513D01*
X105033233Y-84578234D01*
X105099416Y-84604840D01*
X105099421Y-84604842D01*
X105102785Y-84606194D01*
X105124787Y-84612213D01*
X105190941Y-84630311D01*
X105197251Y-84632215D01*
X105284023Y-84660913D01*
X105346534Y-84673858D01*
X105357423Y-84676113D01*
X105365120Y-84677961D01*
X105433932Y-84696786D01*
X105433935Y-84696787D01*
X105437438Y-84697745D01*
X105494788Y-84706521D01*
X105527784Y-84711570D01*
X105534276Y-84712738D01*
X105620199Y-84730532D01*
X105620204Y-84730533D01*
X105623764Y-84731270D01*
X105676777Y-84736001D01*
X105698423Y-84737933D01*
X105706281Y-84738884D01*
X105759054Y-84746959D01*
X105780395Y-84750225D01*
X105845425Y-84752609D01*
X105871728Y-84753574D01*
X105878311Y-84753988D01*
X105926074Y-84758251D01*
X105926084Y-84758251D01*
X105928869Y-84758500D01*
X106003777Y-84758500D01*
X106008394Y-84758585D01*
X106123473Y-84762805D01*
X106123480Y-84762805D01*
X106127112Y-84762938D01*
X106130733Y-84762653D01*
X106130735Y-84762653D01*
X106178573Y-84758888D01*
X106188459Y-84758500D01*
X114169787Y-84758500D01*
X114174404Y-84758585D01*
X114289473Y-84762805D01*
X114289481Y-84762805D01*
X114293112Y-84762938D01*
X114318698Y-84760925D01*
X114330544Y-84760553D01*
X114346786Y-84760808D01*
X114352556Y-84760899D01*
X114352559Y-84760899D01*
X114356196Y-84760956D01*
X114359811Y-84760595D01*
X114359815Y-84760595D01*
X114463493Y-84750246D01*
X114468755Y-84749832D01*
X114572757Y-84743836D01*
X114572765Y-84743835D01*
X114576374Y-84743627D01*
X114583413Y-84742399D01*
X114601638Y-84739218D01*
X114613415Y-84737730D01*
X114624973Y-84736820D01*
X114638993Y-84735717D01*
X114642545Y-84735020D01*
X114642553Y-84735019D01*
X114664164Y-84730779D01*
X114675905Y-84729045D01*
X114685737Y-84728064D01*
X114701431Y-84726497D01*
X114704968Y-84725726D01*
X114704973Y-84725725D01*
X114806790Y-84703525D01*
X114811969Y-84702509D01*
X114914594Y-84684598D01*
X114918158Y-84683976D01*
X114921623Y-84682950D01*
X114921634Y-84682947D01*
X114942751Y-84676691D01*
X114954285Y-84673858D01*
X114975889Y-84669620D01*
X114975892Y-84669619D01*
X114979451Y-84668921D01*
X115003875Y-84661126D01*
X115015339Y-84658055D01*
X115036858Y-84653363D01*
X115036875Y-84653358D01*
X115040417Y-84652586D01*
X115142455Y-84617650D01*
X115147478Y-84616048D01*
X115160425Y-84612213D01*
X115250820Y-84585437D01*
X115254156Y-84584014D01*
X115254173Y-84584008D01*
X115274418Y-84575373D01*
X115285540Y-84571236D01*
X115306521Y-84564540D01*
X115309977Y-84563437D01*
X115313283Y-84561944D01*
X115313289Y-84561942D01*
X115332851Y-84553109D01*
X115333356Y-84552881D01*
X115344374Y-84548519D01*
X115368661Y-84540203D01*
X115465998Y-84493775D01*
X115470778Y-84491617D01*
X115566612Y-84450741D01*
X115566618Y-84450738D01*
X115569952Y-84449316D01*
X115592238Y-84436604D01*
X115602800Y-84431222D01*
X115626189Y-84420662D01*
X115648212Y-84407481D01*
X115658654Y-84401882D01*
X115681812Y-84390837D01*
X115773151Y-84333540D01*
X115777653Y-84330846D01*
X115871324Y-84277417D01*
X115874241Y-84275274D01*
X115874246Y-84275271D01*
X115892004Y-84262226D01*
X115901892Y-84255657D01*
X115920777Y-84244355D01*
X115920783Y-84244351D01*
X115923894Y-84242489D01*
X115944240Y-84226877D01*
X115953986Y-84220103D01*
X115972643Y-84208399D01*
X115972645Y-84208397D01*
X115975721Y-84206468D01*
X115978550Y-84204201D01*
X115978555Y-84204198D01*
X116047023Y-84149345D01*
X116059870Y-84139053D01*
X116064029Y-84135861D01*
X116111797Y-84100772D01*
X116148011Y-84074170D01*
X116148015Y-84074166D01*
X116150940Y-84072018D01*
X116169731Y-84054557D01*
X116178794Y-84046898D01*
X116196267Y-84033490D01*
X116199147Y-84031280D01*
X116217570Y-84013427D01*
X116226463Y-84005587D01*
X116243654Y-83991814D01*
X116243655Y-83991813D01*
X116246491Y-83989541D01*
X116291627Y-83943930D01*
X116322327Y-83912907D01*
X116326117Y-83909235D01*
X116402432Y-83838318D01*
X116402436Y-83838314D01*
X116405096Y-83835842D01*
X116407453Y-83833082D01*
X116407458Y-83833077D01*
X116421762Y-83816329D01*
X116429877Y-83807687D01*
X116448301Y-83789833D01*
X116464544Y-83769988D01*
X116472487Y-83761166D01*
X116472631Y-83761021D01*
X116490534Y-83742929D01*
X116557072Y-83658070D01*
X116560415Y-83653987D01*
X116564231Y-83649519D01*
X116630422Y-83572019D01*
X116632454Y-83568995D01*
X116644728Y-83550730D01*
X116651805Y-83541200D01*
X116665755Y-83524157D01*
X116665758Y-83524153D01*
X116668053Y-83521349D01*
X116681912Y-83499762D01*
X116688789Y-83490084D01*
X116691193Y-83487019D01*
X116704614Y-83469902D01*
X116760938Y-83377990D01*
X116763785Y-83373556D01*
X116821907Y-83287060D01*
X116821912Y-83287052D01*
X116823931Y-83284047D01*
X116835697Y-83261251D01*
X116841633Y-83250971D01*
X116853523Y-83232450D01*
X116853526Y-83232445D01*
X116855489Y-83229387D01*
X116866775Y-83206349D01*
X116872486Y-83195961D01*
X116885895Y-83174079D01*
X116887418Y-83170798D01*
X116887425Y-83170785D01*
X116931290Y-83076284D01*
X116933612Y-83071544D01*
X116934410Y-83069999D01*
X116983060Y-82975741D01*
X116992131Y-82951736D01*
X116996840Y-82940854D01*
X117000134Y-82934130D01*
X117008126Y-82917816D01*
X117016693Y-82893625D01*
X117021172Y-82882649D01*
X117030448Y-82862666D01*
X117030450Y-82862662D01*
X117031973Y-82859380D01*
X117065834Y-82756995D01*
X117067574Y-82752081D01*
X117105698Y-82651189D01*
X117111949Y-82626304D01*
X117115374Y-82614957D01*
X117123940Y-82590768D01*
X117129666Y-82565763D01*
X117132858Y-82554332D01*
X117139776Y-82533415D01*
X117139776Y-82533414D01*
X117140913Y-82529977D01*
X117146229Y-82504310D01*
X117161102Y-82432491D01*
X117162777Y-82424402D01*
X117163954Y-82419262D01*
X117165901Y-82411512D01*
X117190220Y-82314692D01*
X117193570Y-82289247D01*
X117195672Y-82277566D01*
X117200584Y-82256120D01*
X117200584Y-82256118D01*
X117201396Y-82252574D01*
X117204210Y-82227085D01*
X117206067Y-82215362D01*
X117210532Y-82193800D01*
X117210532Y-82193798D01*
X117211270Y-82190236D01*
X117220853Y-82082859D01*
X117221432Y-82077614D01*
X117235032Y-81974314D01*
X117235032Y-81974308D01*
X117235506Y-81970711D01*
X117235804Y-81951720D01*
X117235909Y-81945067D01*
X117236654Y-81933221D01*
X117239071Y-81911325D01*
X117239071Y-81911324D01*
X117239469Y-81907720D01*
X117239222Y-81860612D01*
X117238733Y-81767084D01*
X117238747Y-81764446D01*
X117240899Y-81627446D01*
X117240899Y-81627442D01*
X117240956Y-81623804D01*
X117239123Y-81605439D01*
X117238500Y-81592926D01*
X117238500Y-78053096D01*
X117238516Y-78051117D01*
X117240899Y-77899446D01*
X117240899Y-77899442D01*
X117240956Y-77895804D01*
X117239123Y-77877439D01*
X117238500Y-77864926D01*
X117238500Y-71565431D01*
X117238966Y-71556959D01*
X117238881Y-71556955D01*
X117239071Y-71553322D01*
X117239469Y-71549720D01*
X117238502Y-71364976D01*
X117238500Y-71364316D01*
X117238500Y-71303568D01*
X117238338Y-71300752D01*
X117238132Y-71294183D01*
X117237672Y-71206405D01*
X117237653Y-71202775D01*
X117228644Y-71128329D01*
X117227942Y-71120465D01*
X117227202Y-71107621D01*
X117223627Y-71045626D01*
X117207911Y-70955581D01*
X117206950Y-70949065D01*
X117196408Y-70861948D01*
X117196408Y-70861946D01*
X117195971Y-70858338D01*
X117178469Y-70785436D01*
X117176864Y-70777686D01*
X117164599Y-70707412D01*
X117163976Y-70703842D01*
X117138016Y-70616201D01*
X117136315Y-70609856D01*
X117115822Y-70524494D01*
X117115821Y-70524491D01*
X117114977Y-70520975D01*
X117089207Y-70450556D01*
X117086734Y-70443078D01*
X117065437Y-70371180D01*
X117064016Y-70367849D01*
X117064013Y-70367840D01*
X117029580Y-70287114D01*
X117027152Y-70280981D01*
X116996990Y-70198561D01*
X116995744Y-70195156D01*
X116962051Y-70128164D01*
X116958730Y-70121008D01*
X116930744Y-70055395D01*
X116930741Y-70055390D01*
X116929316Y-70052048D01*
X116884022Y-69972640D01*
X116880918Y-69966850D01*
X116880725Y-69966465D01*
X116839854Y-69885201D01*
X116802921Y-69828976D01*
X116798701Y-69822552D01*
X116794564Y-69815803D01*
X116757417Y-69750676D01*
X116703311Y-69677019D01*
X116699547Y-69671604D01*
X116651356Y-69598241D01*
X116651354Y-69598238D01*
X116649370Y-69595218D01*
X116647054Y-69592448D01*
X116647045Y-69592436D01*
X116601284Y-69537706D01*
X116596400Y-69531478D01*
X116565013Y-69488751D01*
X116552018Y-69471060D01*
X116489798Y-69404103D01*
X116485450Y-69399171D01*
X116452883Y-69360221D01*
X116399922Y-69307260D01*
X116396717Y-69303936D01*
X116347595Y-69251074D01*
X116315842Y-69216904D01*
X116276582Y-69183372D01*
X116269329Y-69176667D01*
X114181969Y-67089307D01*
X114176301Y-67082979D01*
X114176237Y-67083037D01*
X114173812Y-67080344D01*
X114171541Y-67077509D01*
X114040123Y-66947460D01*
X114039656Y-66946994D01*
X113996800Y-66904138D01*
X113994695Y-66902263D01*
X113989895Y-66897755D01*
X113927516Y-66836025D01*
X113927506Y-66836016D01*
X113924929Y-66833466D01*
X113865926Y-66787202D01*
X113859859Y-66782129D01*
X113851240Y-66774449D01*
X113803891Y-66732263D01*
X113729112Y-66679707D01*
X113723817Y-66675774D01*
X113654759Y-66621626D01*
X113654757Y-66621625D01*
X113651902Y-66619386D01*
X113648808Y-66617490D01*
X113648798Y-66617483D01*
X113587983Y-66580215D01*
X113581368Y-66575870D01*
X113523016Y-66534859D01*
X113522998Y-66534848D01*
X113520033Y-66532764D01*
X113516836Y-66531028D01*
X113439725Y-66489160D01*
X113434013Y-66485862D01*
X113359184Y-66440007D01*
X113359174Y-66440002D01*
X113356079Y-66438105D01*
X113352789Y-66436578D01*
X113352780Y-66436573D01*
X113288070Y-66406536D01*
X113281000Y-66402980D01*
X113218318Y-66368947D01*
X113215128Y-66367215D01*
X113211767Y-66365864D01*
X113211763Y-66365862D01*
X113130342Y-66333131D01*
X113124289Y-66330512D01*
X113119429Y-66328256D01*
X113041380Y-66292027D01*
X112970173Y-66268477D01*
X112962797Y-66265777D01*
X112893216Y-66237806D01*
X112805049Y-66213686D01*
X112798768Y-66211790D01*
X112745822Y-66194280D01*
X112715422Y-66184226D01*
X112715417Y-66184225D01*
X112711977Y-66183087D01*
X112708422Y-66182351D01*
X112708419Y-66182350D01*
X112638575Y-66167886D01*
X112630878Y-66166038D01*
X112562066Y-66147213D01*
X112562056Y-66147211D01*
X112558562Y-66146255D01*
X112468222Y-66132431D01*
X112461742Y-66131266D01*
X112372236Y-66112730D01*
X112368614Y-66112407D01*
X112368609Y-66112406D01*
X112297563Y-66106066D01*
X112289704Y-66105115D01*
X112240878Y-66097643D01*
X112215605Y-66093776D01*
X112124280Y-66090427D01*
X112117703Y-66090013D01*
X112109275Y-66089261D01*
X112069925Y-66085749D01*
X112069917Y-66085749D01*
X112067131Y-66085500D01*
X111992213Y-66085500D01*
X111987596Y-66085415D01*
X111872527Y-66081195D01*
X111872519Y-66081195D01*
X111868888Y-66081062D01*
X111865267Y-66081347D01*
X111865265Y-66081347D01*
X111817427Y-66085112D01*
X111807541Y-66085500D01*
X105405431Y-66085500D01*
X105396958Y-66085034D01*
X105396954Y-66085119D01*
X105393323Y-66084929D01*
X105389720Y-66084531D01*
X105374123Y-66084613D01*
X105281893Y-66085095D01*
X105276617Y-66085012D01*
X105172527Y-66081195D01*
X105172519Y-66081195D01*
X105168888Y-66081062D01*
X105165268Y-66081347D01*
X105165263Y-66081347D01*
X105110531Y-66085654D01*
X105101308Y-66086040D01*
X105051165Y-66086303D01*
X105042775Y-66086347D01*
X104968329Y-66095356D01*
X104960480Y-66096057D01*
X104918254Y-66098492D01*
X104889245Y-66100164D01*
X104889240Y-66100165D01*
X104885626Y-66100373D01*
X104882059Y-66100995D01*
X104882055Y-66100996D01*
X104860362Y-66104782D01*
X104848585Y-66106270D01*
X104837027Y-66107180D01*
X104823007Y-66108283D01*
X104805642Y-66111690D01*
X104765558Y-66119554D01*
X104756438Y-66120998D01*
X104701946Y-66127592D01*
X104701940Y-66127593D01*
X104698338Y-66128029D01*
X104694813Y-66128875D01*
X104694809Y-66128876D01*
X104625436Y-66145531D01*
X104617686Y-66147136D01*
X104543842Y-66160024D01*
X104540377Y-66161050D01*
X104540366Y-66161053D01*
X104519249Y-66167309D01*
X104507717Y-66170142D01*
X104482549Y-66175079D01*
X104479085Y-66176184D01*
X104479083Y-66176185D01*
X104426792Y-66192873D01*
X104417898Y-66195357D01*
X104364494Y-66208178D01*
X104364491Y-66208179D01*
X104360975Y-66209023D01*
X104290556Y-66234793D01*
X104283078Y-66237266D01*
X104211180Y-66258563D01*
X104187580Y-66268629D01*
X104176471Y-66272760D01*
X104152022Y-66280563D01*
X104148711Y-66282058D01*
X104098664Y-66304655D01*
X104090112Y-66308145D01*
X104038563Y-66327009D01*
X104038560Y-66327010D01*
X104035156Y-66328256D01*
X104031920Y-66329884D01*
X104031912Y-66329887D01*
X103968182Y-66361939D01*
X103961005Y-66365271D01*
X103956448Y-66367215D01*
X103892048Y-66394684D01*
X103888900Y-66396479D01*
X103888901Y-66396479D01*
X103869764Y-66407394D01*
X103859191Y-66412781D01*
X103835811Y-66423338D01*
X103785580Y-66453400D01*
X103777496Y-66457845D01*
X103725201Y-66484147D01*
X103662541Y-66525307D01*
X103655811Y-66529431D01*
X103590676Y-66566583D01*
X103587759Y-66568726D01*
X103587754Y-66568729D01*
X103569996Y-66581774D01*
X103560108Y-66588343D01*
X103541230Y-66599641D01*
X103541226Y-66599644D01*
X103538106Y-66601511D01*
X103491645Y-66637162D01*
X103484155Y-66642484D01*
X103435218Y-66674630D01*
X103432433Y-66676958D01*
X103432423Y-66676966D01*
X103377706Y-66722716D01*
X103371478Y-66727600D01*
X103361840Y-66734680D01*
X103311060Y-66771982D01*
X103308399Y-66774455D01*
X103292269Y-66789443D01*
X103283206Y-66797102D01*
X103265736Y-66810507D01*
X103265729Y-66810513D01*
X103262853Y-66812720D01*
X103260245Y-66815247D01*
X103260243Y-66815249D01*
X103220816Y-66853456D01*
X103213960Y-66859629D01*
X103200221Y-66871117D01*
X103147260Y-66924078D01*
X103143936Y-66927283D01*
X103060743Y-67004591D01*
X103056904Y-67008158D01*
X103054556Y-67010907D01*
X103054541Y-67010923D01*
X103040238Y-67027671D01*
X103032123Y-67036313D01*
X103013699Y-67054167D01*
X103011401Y-67056975D01*
X103011397Y-67056979D01*
X103002009Y-67068449D01*
X102993601Y-67077737D01*
X102525307Y-67546031D01*
X102518979Y-67551699D01*
X102519037Y-67551763D01*
X102516344Y-67554188D01*
X102513509Y-67556459D01*
X102506861Y-67563177D01*
X102383460Y-67687877D01*
X102382994Y-67688344D01*
X102340138Y-67731200D01*
X102338263Y-67733305D01*
X102333755Y-67738105D01*
X102272025Y-67800484D01*
X102272016Y-67800494D01*
X102269466Y-67803071D01*
X102267225Y-67805928D01*
X102267225Y-67805929D01*
X102223207Y-67862068D01*
X102218135Y-67868134D01*
X102168263Y-67924109D01*
X102115707Y-67998888D01*
X102111774Y-68004183D01*
X102082389Y-68041660D01*
X102055386Y-68076098D01*
X102053490Y-68079192D01*
X102053483Y-68079202D01*
X102016215Y-68140017D01*
X102011870Y-68146632D01*
X101970859Y-68204984D01*
X101970848Y-68205002D01*
X101968764Y-68207967D01*
X101967029Y-68211162D01*
X101967028Y-68211164D01*
X101925160Y-68288275D01*
X101921862Y-68293987D01*
X101876007Y-68368816D01*
X101876002Y-68368826D01*
X101874105Y-68371921D01*
X101872578Y-68375211D01*
X101872573Y-68375220D01*
X101842536Y-68439930D01*
X101838980Y-68447000D01*
X101803215Y-68512872D01*
X101801864Y-68516233D01*
X101801862Y-68516237D01*
X101769131Y-68597658D01*
X101766513Y-68603709D01*
X101728027Y-68686620D01*
X101704477Y-68757827D01*
X101701777Y-68765203D01*
X101673806Y-68834784D01*
X101651981Y-68914565D01*
X101649691Y-68922934D01*
X101647790Y-68929232D01*
X101619087Y-69016023D01*
X101618351Y-69019578D01*
X101618350Y-69019581D01*
X101603886Y-69089425D01*
X101602038Y-69097122D01*
X101583213Y-69165934D01*
X101583211Y-69165944D01*
X101582255Y-69169438D01*
X101574992Y-69216904D01*
X101568432Y-69259775D01*
X101567266Y-69266258D01*
X101548730Y-69355764D01*
X101548407Y-69359386D01*
X101548406Y-69359391D01*
X101542066Y-69430437D01*
X101541115Y-69438296D01*
X101529776Y-69512395D01*
X101529076Y-69531478D01*
X101526427Y-69603718D01*
X101526013Y-69610297D01*
X101521500Y-69660869D01*
X101521500Y-69735787D01*
X101521415Y-69740404D01*
X101518174Y-69828796D01*
X101517062Y-69859112D01*
X101517347Y-69862733D01*
X101517347Y-69862735D01*
X101521112Y-69910573D01*
X101521500Y-69920459D01*
X101521500Y-75389787D01*
X101521415Y-75394404D01*
X101519535Y-75445684D01*
X101517062Y-75513112D01*
X97428500Y-75513112D01*
X97428500Y-66506000D01*
X98306526Y-66506000D01*
X98326391Y-66758403D01*
X98327545Y-66763210D01*
X98327546Y-66763216D01*
X98365179Y-66919968D01*
X98385495Y-67004591D01*
X98387388Y-67009162D01*
X98387389Y-67009164D01*
X98461462Y-67187991D01*
X98482384Y-67238502D01*
X98614672Y-67454376D01*
X98779102Y-67646898D01*
X98971624Y-67811328D01*
X99187498Y-67943616D01*
X99192068Y-67945509D01*
X99192072Y-67945511D01*
X99416836Y-68038611D01*
X99421409Y-68040505D01*
X99487767Y-68056436D01*
X99662784Y-68098454D01*
X99662790Y-68098455D01*
X99667597Y-68099609D01*
X99767416Y-68107465D01*
X99854345Y-68114307D01*
X99854352Y-68114307D01*
X99856801Y-68114500D01*
X99983199Y-68114500D01*
X99985648Y-68114307D01*
X99985655Y-68114307D01*
X100072584Y-68107465D01*
X100172403Y-68099609D01*
X100177210Y-68098455D01*
X100177216Y-68098454D01*
X100352233Y-68056436D01*
X100418591Y-68040505D01*
X100423164Y-68038611D01*
X100647928Y-67945511D01*
X100647932Y-67945509D01*
X100652502Y-67943616D01*
X100868376Y-67811328D01*
X101060898Y-67646898D01*
X101225328Y-67454376D01*
X101357616Y-67238502D01*
X101378539Y-67187991D01*
X101452611Y-67009164D01*
X101452612Y-67009162D01*
X101454505Y-67004591D01*
X101474821Y-66919968D01*
X101512454Y-66763216D01*
X101512455Y-66763210D01*
X101513609Y-66758403D01*
X101533474Y-66506000D01*
X101513609Y-66253597D01*
X101507453Y-66227952D01*
X101455660Y-66012221D01*
X101454505Y-66007409D01*
X101357616Y-65773498D01*
X101225328Y-65557624D01*
X101060898Y-65365102D01*
X100868376Y-65200672D01*
X100652502Y-65068384D01*
X100647932Y-65066491D01*
X100647928Y-65066489D01*
X100423164Y-64973389D01*
X100423162Y-64973388D01*
X100418591Y-64971495D01*
X100333968Y-64951179D01*
X100177216Y-64913546D01*
X100177210Y-64913545D01*
X100172403Y-64912391D01*
X100072584Y-64904535D01*
X99985655Y-64897693D01*
X99985648Y-64897693D01*
X99983199Y-64897500D01*
X99856801Y-64897500D01*
X99854352Y-64897693D01*
X99854345Y-64897693D01*
X99767416Y-64904535D01*
X99667597Y-64912391D01*
X99662790Y-64913545D01*
X99662784Y-64913546D01*
X99506032Y-64951179D01*
X99421409Y-64971495D01*
X99416838Y-64973388D01*
X99416836Y-64973389D01*
X99192072Y-65066489D01*
X99192068Y-65066491D01*
X99187498Y-65068384D01*
X98971624Y-65200672D01*
X98779102Y-65365102D01*
X98614672Y-65557624D01*
X98482384Y-65773498D01*
X98385495Y-66007409D01*
X98384340Y-66012221D01*
X98332548Y-66227952D01*
X98326391Y-66253597D01*
X98306526Y-66506000D01*
X97428500Y-66506000D01*
X97428500Y-64140500D01*
X97448502Y-64072379D01*
X97502158Y-64025886D01*
X97554500Y-64014500D01*
X136821371Y-64014500D01*
X136889492Y-64034502D01*
G37*
%TD.AperFunction*%
%TD*%
M02*
