%TF.GenerationSoftware,KiCad,Pcbnew,(6.0.11)*%
%TF.CreationDate,2023-05-24T21:09:08+09:00*%
%TF.ProjectId,power,706f7765-722e-46b6-9963-61645f706362,rev?*%
%TF.SameCoordinates,Original*%
%TF.FileFunction,Copper,L2,Bot*%
%TF.FilePolarity,Positive*%
%FSLAX46Y46*%
G04 Gerber Fmt 4.6, Leading zero omitted, Abs format (unit mm)*
G04 Created by KiCad (PCBNEW (6.0.11)) date 2023-05-24 21:09:08*
%MOMM*%
%LPD*%
G01*
G04 APERTURE LIST*
G04 Aperture macros list*
%AMRoundRect*
0 Rectangle with rounded corners*
0 $1 Rounding radius*
0 $2 $3 $4 $5 $6 $7 $8 $9 X,Y pos of 4 corners*
0 Add a 4 corners polygon primitive as box body*
4,1,4,$2,$3,$4,$5,$6,$7,$8,$9,$2,$3,0*
0 Add four circle primitives for the rounded corners*
1,1,$1+$1,$2,$3*
1,1,$1+$1,$4,$5*
1,1,$1+$1,$6,$7*
1,1,$1+$1,$8,$9*
0 Add four rect primitives between the rounded corners*
20,1,$1+$1,$2,$3,$4,$5,0*
20,1,$1+$1,$4,$5,$6,$7,0*
20,1,$1+$1,$6,$7,$8,$9,0*
20,1,$1+$1,$8,$9,$2,$3,0*%
G04 Aperture macros list end*
%TA.AperFunction,ComponentPad*%
%ADD10C,1.400000*%
%TD*%
%TA.AperFunction,ComponentPad*%
%ADD11R,3.500000X3.500000*%
%TD*%
%TA.AperFunction,ComponentPad*%
%ADD12C,3.500000*%
%TD*%
%TA.AperFunction,ComponentPad*%
%ADD13C,1.524000*%
%TD*%
%TA.AperFunction,ComponentPad*%
%ADD14C,1.700000*%
%TD*%
%TA.AperFunction,ComponentPad*%
%ADD15C,3.000000*%
%TD*%
%TA.AperFunction,ComponentPad*%
%ADD16R,2.000000X0.900000*%
%TD*%
%TA.AperFunction,ComponentPad*%
%ADD17RoundRect,1.025000X1.025000X-1.025000X1.025000X1.025000X-1.025000X1.025000X-1.025000X-1.025000X0*%
%TD*%
%TA.AperFunction,ComponentPad*%
%ADD18C,4.100000*%
%TD*%
%TA.AperFunction,SMDPad,CuDef*%
%ADD19RoundRect,0.237500X0.300000X0.237500X-0.300000X0.237500X-0.300000X-0.237500X0.300000X-0.237500X0*%
%TD*%
%TA.AperFunction,SMDPad,CuDef*%
%ADD20RoundRect,0.237500X-0.250000X-0.237500X0.250000X-0.237500X0.250000X0.237500X-0.250000X0.237500X0*%
%TD*%
%TA.AperFunction,SMDPad,CuDef*%
%ADD21RoundRect,0.237500X-0.237500X0.300000X-0.237500X-0.300000X0.237500X-0.300000X0.237500X0.300000X0*%
%TD*%
%TA.AperFunction,SMDPad,CuDef*%
%ADD22R,0.900000X1.200000*%
%TD*%
%TA.AperFunction,SMDPad,CuDef*%
%ADD23RoundRect,0.237500X0.250000X0.237500X-0.250000X0.237500X-0.250000X-0.237500X0.250000X-0.237500X0*%
%TD*%
%TA.AperFunction,ViaPad*%
%ADD24C,0.800000*%
%TD*%
%TA.AperFunction,Conductor*%
%ADD25C,1.000000*%
%TD*%
%TA.AperFunction,Conductor*%
%ADD26C,0.250000*%
%TD*%
G04 APERTURE END LIST*
D10*
%TO.P,J6,*%
%TO.N,*%
X145854000Y-107201000D03*
X134854000Y-107201000D03*
D11*
%TO.P,J6,1,Pin_1*%
%TO.N,GND*%
X137854000Y-97201000D03*
D12*
%TO.P,J6,2,Pin_2*%
%TO.N,VDD*%
X142854000Y-97201000D03*
%TD*%
D13*
%TO.P,MES1,1,-*%
%TO.N,GND*%
X157736000Y-77126000D03*
%TO.P,MES1,2,+*%
%TO.N,VDD*%
X155736000Y-77111000D03*
%TD*%
D10*
%TO.P,J4,*%
%TO.N,*%
X160586000Y-107201000D03*
X149586000Y-107201000D03*
D11*
%TO.P,J4,1,Pin_1*%
%TO.N,GND*%
X152586000Y-97201000D03*
D12*
%TO.P,J4,2,Pin_2*%
%TO.N,VDD*%
X157586000Y-97201000D03*
%TD*%
D10*
%TO.P,J2,*%
%TO.N,*%
X120122000Y-107201000D03*
X131122000Y-107201000D03*
D11*
%TO.P,J2,1,Pin_1*%
%TO.N,GND*%
X123122000Y-97201000D03*
D12*
%TO.P,J2,2,Pin_2*%
%TO.N,VDD*%
X128122000Y-97201000D03*
%TD*%
D10*
%TO.P,J5,*%
%TO.N,*%
X105390000Y-107201000D03*
X116390000Y-107201000D03*
D11*
%TO.P,J5,1,Pin_1*%
%TO.N,GND*%
X108390000Y-97201000D03*
D12*
%TO.P,J5,2,Pin_2*%
%TO.N,VDD*%
X113390000Y-97201000D03*
%TD*%
D10*
%TO.P,J3,*%
%TO.N,*%
X164999000Y-92120000D03*
X164999000Y-81120000D03*
D11*
%TO.P,J3,1,Pin_1*%
%TO.N,GND*%
X154999000Y-89120000D03*
D12*
%TO.P,J3,2,Pin_2*%
%TO.N,VDD*%
X154999000Y-84120000D03*
%TD*%
D14*
%TO.P,SW1,1,A*%
%TO.N,unconnected-(SW1-Pad1)*%
X145942000Y-80524000D03*
%TO.P,SW1,2,B*%
%TO.N,Net-(Q1-Pad3)*%
X143402000Y-80524000D03*
%TO.P,SW1,3,C*%
%TO.N,Net-(Q2-Pad1)*%
X140862000Y-80524000D03*
%TO.P,SW1,4*%
%TO.N,N/C*%
X148482000Y-80524000D03*
%TO.P,SW1,5*%
X138322000Y-80524000D03*
%TD*%
D15*
%TO.P,F1,1*%
%TO.N,+7.5V*%
X105232000Y-69094000D03*
X111932000Y-69094000D03*
%TO.P,F1,2*%
%TO.N,Net-(F1-Pad2)*%
X121532000Y-69094000D03*
X128232000Y-69094000D03*
%TD*%
D16*
%TO.P,J1,*%
%TO.N,*%
X108230000Y-92100000D03*
X108230000Y-78600000D03*
D17*
%TO.P,J1,1,Pin_1*%
%TO.N,GND*%
X114230000Y-88950000D03*
D18*
%TO.P,J1,2,Pin_2*%
%TO.N,+7.5V*%
X114230000Y-81750000D03*
%TD*%
D19*
%TO.P,C4,1*%
%TO.N,VDD*%
X142994500Y-101352000D03*
%TO.P,C4,2*%
%TO.N,GND*%
X141269500Y-101352000D03*
%TD*%
D20*
%TO.P,R1,1*%
%TO.N,GND*%
X144775500Y-83064000D03*
%TO.P,R1,2*%
%TO.N,Net-(Q1-Pad3)*%
X146600500Y-83064000D03*
%TD*%
D21*
%TO.P,C2,1*%
%TO.N,VDD*%
X159150000Y-83979500D03*
%TO.P,C2,2*%
%TO.N,GND*%
X159150000Y-85704500D03*
%TD*%
D19*
%TO.P,C5,1*%
%TO.N,VDD*%
X157726500Y-101352000D03*
%TO.P,C5,2*%
%TO.N,GND*%
X156001500Y-101352000D03*
%TD*%
%TO.P,C3,1*%
%TO.N,VDD*%
X113530500Y-101352000D03*
%TO.P,C3,2*%
%TO.N,GND*%
X111805500Y-101352000D03*
%TD*%
%TO.P,C6,1*%
%TO.N,VDD*%
X128262500Y-101352000D03*
%TO.P,C6,2*%
%TO.N,GND*%
X126537500Y-101352000D03*
%TD*%
D22*
%TO.P,D1,1,K*%
%TO.N,VDD*%
X113556000Y-103892000D03*
%TO.P,D1,2,A*%
%TO.N,GND*%
X110256000Y-103892000D03*
%TD*%
D23*
%TO.P,R2,1*%
%TO.N,GND*%
X142028500Y-83064000D03*
%TO.P,R2,2*%
%TO.N,Net-(Q2-Pad1)*%
X140203500Y-83064000D03*
%TD*%
D24*
%TO.N,GND*%
X141920000Y-76506000D03*
X145520000Y-89706000D03*
X99920000Y-106006000D03*
X163214000Y-81032000D03*
X97920000Y-110006000D03*
X159150000Y-78238000D03*
X137520000Y-82106000D03*
X144920000Y-105506000D03*
X113920000Y-64506000D03*
X99920000Y-110006000D03*
X163722000Y-107956000D03*
X136420000Y-108506000D03*
X136320000Y-67906000D03*
X129920000Y-110006000D03*
X162706000Y-105924000D03*
X168040000Y-109988000D03*
X103920000Y-100506000D03*
X160674000Y-108972000D03*
X134920000Y-84106000D03*
X163214000Y-92208000D03*
X114920000Y-106006000D03*
X163920000Y-75306000D03*
X168040000Y-96018000D03*
X147920000Y-105506000D03*
X136420000Y-105506000D03*
X162960000Y-96018000D03*
X158642000Y-109988000D03*
X118420000Y-105506000D03*
X163976000Y-70110000D03*
X97920000Y-82506000D03*
X120920000Y-84706000D03*
X134120000Y-80106000D03*
X164992000Y-93986000D03*
X125920000Y-105506000D03*
X104420000Y-85006000D03*
X151420000Y-108506000D03*
X101920000Y-108006000D03*
X129920000Y-65506000D03*
X168040000Y-100844000D03*
X102420000Y-110006000D03*
X158642000Y-104908000D03*
X97920000Y-100506000D03*
X100920000Y-70506000D03*
X97920000Y-68506000D03*
X106320000Y-91106000D03*
X168040000Y-85604000D03*
X112920000Y-110006000D03*
X164992000Y-90430000D03*
X101420000Y-82506000D03*
X122920000Y-83106000D03*
X141624000Y-109988000D03*
X129920000Y-105506000D03*
X168040000Y-75190000D03*
X168040000Y-70110000D03*
X97920000Y-108006000D03*
X168040000Y-79762000D03*
X97920000Y-66506000D03*
X109920000Y-93306000D03*
X132720000Y-82906000D03*
X160674000Y-105416000D03*
X117920000Y-76506000D03*
X137475000Y-77925000D03*
X97920000Y-64506000D03*
X155420000Y-105506000D03*
X142625000Y-77975000D03*
X135920000Y-64506000D03*
X121920000Y-105506000D03*
X119420000Y-66006000D03*
X166770000Y-81032000D03*
X140920000Y-105506000D03*
X148320000Y-89706000D03*
X124420000Y-110006000D03*
X106320000Y-93306000D03*
X115920000Y-85006000D03*
X132920000Y-105506000D03*
X148320000Y-88706000D03*
X114920000Y-108506000D03*
X144720000Y-79306000D03*
X117920000Y-80006000D03*
X124920000Y-65506000D03*
X158642000Y-107194000D03*
X155420000Y-108506000D03*
X134320000Y-72106000D03*
X118420000Y-108506000D03*
X100920000Y-76506000D03*
X103920000Y-88506000D03*
X134120000Y-76306000D03*
X132920000Y-108506000D03*
X118920000Y-110006000D03*
X97920000Y-88506000D03*
X117920000Y-70506000D03*
X99920000Y-64506000D03*
X129920000Y-64506000D03*
X113920000Y-66506000D03*
X168040000Y-105924000D03*
X159404000Y-76460000D03*
X162706000Y-100844000D03*
X101920000Y-64506000D03*
X109920000Y-100506000D03*
X108420000Y-65506000D03*
X106920000Y-106006000D03*
X140920000Y-108506000D03*
X139600000Y-79800000D03*
X165754000Y-64522000D03*
X161182000Y-67824000D03*
X101420000Y-68506000D03*
X136520000Y-76306000D03*
X147120000Y-79306000D03*
X168040000Y-107956000D03*
X124920000Y-64506000D03*
X101920000Y-66506000D03*
X115120000Y-104106000D03*
X145520000Y-88706000D03*
X136850000Y-81600000D03*
X144920000Y-108506000D03*
X168040000Y-90684000D03*
X108420000Y-64506000D03*
X153054000Y-109988000D03*
X133920000Y-68006000D03*
X162960000Y-82810000D03*
X129920000Y-108506000D03*
X97920000Y-94506000D03*
X147920000Y-108506000D03*
X147212000Y-109988000D03*
X163722000Y-66554000D03*
X161182000Y-64522000D03*
X103920000Y-108506000D03*
X166008000Y-109988000D03*
X166770000Y-92208000D03*
X162960000Y-90684000D03*
X134120000Y-85706000D03*
X146920000Y-88706000D03*
X161182000Y-72396000D03*
X168040000Y-82810000D03*
X149720000Y-79306000D03*
X142125000Y-79750000D03*
X109920000Y-90906000D03*
X164992000Y-79254000D03*
X147520000Y-76506000D03*
X162960000Y-85604000D03*
X166008000Y-68586000D03*
X152520000Y-76506000D03*
X125920000Y-108506000D03*
X167786000Y-64522000D03*
X106920000Y-108506000D03*
X103920000Y-94506000D03*
X119420000Y-64506000D03*
X135920000Y-110006000D03*
X168040000Y-66554000D03*
X166008000Y-105924000D03*
X162706000Y-109988000D03*
X164992000Y-82810000D03*
X126520000Y-84106000D03*
X151420000Y-105506000D03*
X97920000Y-105506000D03*
X97920000Y-76506000D03*
X136320000Y-72106000D03*
X162452000Y-107194000D03*
X101720000Y-105506000D03*
X99920000Y-68506000D03*
X103920000Y-106006000D03*
X110420000Y-85506000D03*
X110920000Y-106006000D03*
X121920000Y-108506000D03*
X106920000Y-110006000D03*
X97920000Y-70506000D03*
X146920000Y-89706000D03*
X161182000Y-75190000D03*
%TO.N,Net-(Q1-Pad3)*%
X132226000Y-85238000D03*
%TO.N,Net-(Q2-Pad1)*%
X131311000Y-91949000D03*
%TD*%
D25*
%TO.N,VDD*%
X113390000Y-97201000D02*
X113390000Y-101211500D01*
X142994500Y-97341500D02*
X142854000Y-97201000D01*
X128262500Y-101352000D02*
X128262500Y-97341500D01*
X155139500Y-83979500D02*
X154999000Y-84120000D01*
X159150000Y-83979500D02*
X155139500Y-83979500D01*
X157726500Y-101352000D02*
X157726500Y-97341500D01*
X142994500Y-101352000D02*
X142994500Y-97341500D01*
X157726500Y-97341500D02*
X157586000Y-97201000D01*
X113556000Y-103892000D02*
X113556000Y-97367000D01*
X113556000Y-97367000D02*
X113390000Y-97201000D01*
X113390000Y-101211500D02*
X113530500Y-101352000D01*
X128262500Y-97341500D02*
X128122000Y-97201000D01*
D26*
%TO.N,GND*%
X112120000Y-100706000D02*
X112120000Y-100106000D01*
X144720000Y-79306000D02*
X144720000Y-80963701D01*
X144775500Y-82925500D02*
X143850000Y-82000000D01*
X126566000Y-101352000D02*
X127520000Y-102306000D01*
X141575000Y-82825000D02*
X141575000Y-81900000D01*
X111805500Y-101352000D02*
X111805500Y-101391500D01*
X156001500Y-101352000D02*
X156001500Y-101387500D01*
X159150000Y-85704500D02*
X159118500Y-85704500D01*
X144839000Y-83064000D02*
X145725000Y-83950000D01*
X111805500Y-101352000D02*
X111805500Y-101020500D01*
X156001500Y-101352000D02*
X156074000Y-101352000D01*
X144775500Y-83064000D02*
X144839000Y-83064000D01*
X146676000Y-81950000D02*
X145706299Y-81950000D01*
X154602000Y-76024000D02*
X154320000Y-76306000D01*
X139600000Y-81325000D02*
X138819000Y-82106000D01*
X146927000Y-81699000D02*
X147120000Y-81506000D01*
X156074000Y-101352000D02*
X156520000Y-100906000D01*
X112320000Y-101906000D02*
X112320000Y-102506000D01*
X141269500Y-101352000D02*
X141269500Y-101455500D01*
X139600000Y-79800000D02*
X139600000Y-81325000D01*
X144775500Y-83064000D02*
X144775500Y-82925500D01*
X158520000Y-85106000D02*
X157920000Y-85106000D01*
X141814000Y-83064000D02*
X141575000Y-82825000D01*
X142028500Y-83064000D02*
X141611000Y-83064000D01*
X142125000Y-79750000D02*
X142125000Y-82967500D01*
X147120000Y-79306000D02*
X147120000Y-81506000D01*
X144775500Y-83064000D02*
X144775500Y-83850500D01*
X159404000Y-76460000D02*
X158402000Y-76460000D01*
X159150000Y-85704500D02*
X159150000Y-85676000D01*
X127120000Y-100906000D02*
X127120000Y-100106000D01*
X159118500Y-85704500D02*
X158520000Y-85106000D01*
X142028500Y-83064000D02*
X141814000Y-83064000D01*
X126537500Y-101352000D02*
X126566000Y-101352000D01*
X156634000Y-76024000D02*
X154602000Y-76024000D01*
X111805500Y-101391500D02*
X112320000Y-101906000D01*
X126674000Y-101352000D02*
X127120000Y-100906000D01*
X141920000Y-100906000D02*
X141920000Y-100106000D01*
X158402000Y-76460000D02*
X157736000Y-77126000D01*
X144720000Y-80963701D02*
X145455299Y-81699000D01*
X144775500Y-83850500D02*
X144320000Y-84306000D01*
X147120000Y-81506000D02*
X146676000Y-81950000D01*
X141575000Y-81900000D02*
X141600000Y-81875000D01*
X141611000Y-83064000D02*
X140500000Y-84175000D01*
X141474000Y-101352000D02*
X141920000Y-100906000D01*
X141269500Y-101352000D02*
X141474000Y-101352000D01*
X111805500Y-101020500D02*
X112120000Y-100706000D01*
X126537500Y-101352000D02*
X126674000Y-101352000D01*
X145706299Y-81950000D02*
X145455299Y-81699000D01*
X138819000Y-82106000D02*
X137520000Y-82106000D01*
X142125000Y-82967500D02*
X142028500Y-83064000D01*
X156520000Y-100906000D02*
X156520000Y-99906000D01*
X159150000Y-85676000D02*
X160320000Y-84506000D01*
X156001500Y-101387500D02*
X156920000Y-102306000D01*
X157736000Y-77126000D02*
X156634000Y-76024000D01*
X141269500Y-101455500D02*
X142120000Y-102306000D01*
%TO.N,Net-(Q1-Pad3)*%
X138000000Y-79000000D02*
X132226000Y-84774000D01*
X132226000Y-84774000D02*
X132226000Y-85238000D01*
X143402000Y-80002000D02*
X142400000Y-79000000D01*
X143402000Y-80524000D02*
X143402000Y-80002000D01*
X143402000Y-80524000D02*
X143518495Y-80524000D01*
X146058495Y-83064000D02*
X146600500Y-83064000D01*
X143518495Y-80524000D02*
X146058495Y-83064000D01*
X142400000Y-79000000D02*
X138000000Y-79000000D01*
%TO.N,Net-(Q2-Pad1)*%
X140862000Y-82405500D02*
X140203500Y-83064000D01*
X140196000Y-83064000D02*
X131311000Y-91949000D01*
X140862000Y-80524000D02*
X140862000Y-82405500D01*
X140203500Y-83064000D02*
X140196000Y-83064000D01*
%TD*%
%TA.AperFunction,Conductor*%
%TO.N,GND*%
G36*
X136889492Y-64034502D02*
G01*
X136935985Y-64088158D01*
X136946089Y-64158432D01*
X136916595Y-64223012D01*
X136907676Y-64231852D01*
X136903042Y-64234776D01*
X136897102Y-64241501D01*
X136897098Y-64241505D01*
X136883468Y-64256938D01*
X136871276Y-64268982D01*
X136855673Y-64282427D01*
X136855671Y-64282430D01*
X136848873Y-64288287D01*
X136843993Y-64295816D01*
X136843992Y-64295817D01*
X136834906Y-64309835D01*
X136823615Y-64324709D01*
X136812569Y-64337217D01*
X136806622Y-64343951D01*
X136800312Y-64357391D01*
X136794058Y-64370711D01*
X136785737Y-64385691D01*
X136774529Y-64402983D01*
X136774527Y-64402988D01*
X136769648Y-64410515D01*
X136767078Y-64419108D01*
X136767076Y-64419113D01*
X136762289Y-64435120D01*
X136755628Y-64452564D01*
X136748533Y-64467676D01*
X136744719Y-64475800D01*
X136743338Y-64484667D01*
X136743338Y-64484668D01*
X136740170Y-64505015D01*
X136736387Y-64521732D01*
X136730485Y-64541466D01*
X136730484Y-64541472D01*
X136727914Y-64550066D01*
X136727859Y-64559037D01*
X136727859Y-64559038D01*
X136727704Y-64584497D01*
X136727671Y-64585289D01*
X136727500Y-64586386D01*
X136727500Y-64617377D01*
X136727498Y-64618147D01*
X136727024Y-64695721D01*
X136727408Y-64697065D01*
X136727500Y-64698410D01*
X136727500Y-68563469D01*
X136707498Y-68631590D01*
X136653842Y-68678083D01*
X136583568Y-68688187D01*
X136535665Y-68670901D01*
X136495501Y-68646288D01*
X136495490Y-68646282D01*
X136491271Y-68643697D01*
X136486701Y-68641804D01*
X136486697Y-68641802D01*
X136254662Y-68545690D01*
X136254660Y-68545689D01*
X136250089Y-68543796D01*
X136161069Y-68522424D01*
X136001062Y-68484009D01*
X136001056Y-68484008D01*
X135996249Y-68482854D01*
X135736000Y-68462372D01*
X135475751Y-68482854D01*
X135470944Y-68484008D01*
X135470938Y-68484009D01*
X135310931Y-68522424D01*
X135221911Y-68543796D01*
X135217340Y-68545689D01*
X135217338Y-68545690D01*
X134985303Y-68641802D01*
X134985299Y-68641804D01*
X134980729Y-68643697D01*
X134758144Y-68780097D01*
X134559637Y-68949637D01*
X134390097Y-69148144D01*
X134253697Y-69370729D01*
X134251804Y-69375299D01*
X134251802Y-69375303D01*
X134160623Y-69595428D01*
X134153796Y-69611911D01*
X134138439Y-69675877D01*
X134094009Y-69860938D01*
X134094008Y-69860944D01*
X134092854Y-69865751D01*
X134091892Y-69877975D01*
X134072901Y-70119282D01*
X134072899Y-70119282D01*
X134072900Y-70119290D01*
X134072372Y-70126000D01*
X134072760Y-70130930D01*
X134072760Y-70130933D01*
X134076049Y-70172723D01*
X134092854Y-70386249D01*
X134094008Y-70391056D01*
X134094009Y-70391062D01*
X134094578Y-70393431D01*
X134153796Y-70640089D01*
X134155689Y-70644660D01*
X134155690Y-70644662D01*
X134201984Y-70756424D01*
X134253697Y-70881271D01*
X134390097Y-71103856D01*
X134559637Y-71302363D01*
X134758144Y-71471903D01*
X134980729Y-71608303D01*
X134985299Y-71610196D01*
X134985303Y-71610198D01*
X135174416Y-71688531D01*
X135221911Y-71708204D01*
X135310931Y-71729576D01*
X135470938Y-71767991D01*
X135470944Y-71767992D01*
X135475751Y-71769146D01*
X135736000Y-71789628D01*
X135996249Y-71769146D01*
X136001056Y-71767992D01*
X136001062Y-71767991D01*
X136161069Y-71729576D01*
X136250089Y-71708204D01*
X136297584Y-71688531D01*
X136486697Y-71610198D01*
X136486701Y-71610196D01*
X136491271Y-71608303D01*
X136495491Y-71605717D01*
X136495501Y-71605712D01*
X136535665Y-71581099D01*
X136604198Y-71562560D01*
X136671875Y-71584016D01*
X136717208Y-71638655D01*
X136727500Y-71688531D01*
X136727500Y-75617377D01*
X136727498Y-75618147D01*
X136727024Y-75695721D01*
X136729491Y-75704352D01*
X136735150Y-75724153D01*
X136738728Y-75740915D01*
X136742920Y-75770187D01*
X136746634Y-75778355D01*
X136746634Y-75778356D01*
X136753548Y-75793562D01*
X136759996Y-75811086D01*
X136767051Y-75835771D01*
X136771843Y-75843365D01*
X136771844Y-75843368D01*
X136782830Y-75860780D01*
X136790969Y-75875863D01*
X136803208Y-75902782D01*
X136809069Y-75909584D01*
X136819970Y-75922235D01*
X136831073Y-75937239D01*
X136844776Y-75958958D01*
X136851501Y-75964897D01*
X136851504Y-75964901D01*
X136866938Y-75978532D01*
X136878982Y-75990724D01*
X136892427Y-76006327D01*
X136892430Y-76006329D01*
X136898287Y-76013127D01*
X136905816Y-76018007D01*
X136905817Y-76018008D01*
X136919835Y-76027094D01*
X136934709Y-76038385D01*
X136947217Y-76049431D01*
X136953951Y-76055378D01*
X136980711Y-76067942D01*
X136995691Y-76076263D01*
X137012983Y-76087471D01*
X137012988Y-76087473D01*
X137020515Y-76092352D01*
X137029108Y-76094922D01*
X137029113Y-76094924D01*
X137045120Y-76099711D01*
X137062564Y-76106372D01*
X137077676Y-76113467D01*
X137077678Y-76113468D01*
X137085800Y-76117281D01*
X137094667Y-76118662D01*
X137094668Y-76118662D01*
X137097353Y-76119080D01*
X137115017Y-76121830D01*
X137131732Y-76125613D01*
X137151466Y-76131515D01*
X137151472Y-76131516D01*
X137160066Y-76134086D01*
X137169037Y-76134141D01*
X137169038Y-76134141D01*
X137179097Y-76134202D01*
X137194506Y-76134296D01*
X137195289Y-76134329D01*
X137196386Y-76134500D01*
X137227377Y-76134500D01*
X137228147Y-76134502D01*
X137301785Y-76134952D01*
X137301786Y-76134952D01*
X137305721Y-76134976D01*
X137307065Y-76134592D01*
X137308410Y-76134500D01*
X154626715Y-76134500D01*
X154694836Y-76154502D01*
X154741329Y-76208158D01*
X154751433Y-76278432D01*
X154729928Y-76332770D01*
X154634672Y-76468810D01*
X154634669Y-76468816D01*
X154631512Y-76473324D01*
X154629189Y-76478306D01*
X154629186Y-76478311D01*
X154539883Y-76669822D01*
X154537560Y-76674804D01*
X154480022Y-76889537D01*
X154460647Y-77111000D01*
X154480022Y-77332463D01*
X154537560Y-77547196D01*
X154539882Y-77552177D01*
X154539883Y-77552178D01*
X154629186Y-77743689D01*
X154629189Y-77743694D01*
X154631512Y-77748676D01*
X154634668Y-77753183D01*
X154634669Y-77753185D01*
X154681610Y-77820223D01*
X154759023Y-77930781D01*
X154916219Y-78087977D01*
X154920727Y-78091134D01*
X154920730Y-78091136D01*
X154931203Y-78098469D01*
X155098323Y-78215488D01*
X155103305Y-78217811D01*
X155103310Y-78217814D01*
X155294822Y-78307117D01*
X155299804Y-78309440D01*
X155305112Y-78310862D01*
X155305114Y-78310863D01*
X155345353Y-78321645D01*
X155514537Y-78366978D01*
X155736000Y-78386353D01*
X155957463Y-78366978D01*
X156126647Y-78321645D01*
X156166886Y-78310863D01*
X156166888Y-78310862D01*
X156172196Y-78309440D01*
X156177178Y-78307117D01*
X156368690Y-78217814D01*
X156368695Y-78217811D01*
X156373677Y-78215488D01*
X156417537Y-78184777D01*
X157041777Y-78184777D01*
X157051074Y-78196793D01*
X157094069Y-78226898D01*
X157103555Y-78232376D01*
X157294993Y-78321645D01*
X157305285Y-78325391D01*
X157509309Y-78380059D01*
X157520104Y-78381962D01*
X157730525Y-78400372D01*
X157741475Y-78400372D01*
X157951896Y-78381962D01*
X157962691Y-78380059D01*
X158166715Y-78325391D01*
X158177007Y-78321645D01*
X158368445Y-78232376D01*
X158377931Y-78226898D01*
X158421764Y-78196207D01*
X158430139Y-78185729D01*
X158423071Y-78172281D01*
X157748812Y-77498022D01*
X157734868Y-77490408D01*
X157733035Y-77490539D01*
X157726420Y-77494790D01*
X157048207Y-78173003D01*
X157041777Y-78184777D01*
X156417537Y-78184777D01*
X156540797Y-78098469D01*
X156551270Y-78091136D01*
X156551273Y-78091134D01*
X156555781Y-78087977D01*
X156712977Y-77930781D01*
X156790391Y-77820223D01*
X156837331Y-77753185D01*
X156837332Y-77753183D01*
X156840488Y-77748676D01*
X156842811Y-77743694D01*
X156842814Y-77743689D01*
X156906569Y-77606966D01*
X156931669Y-77571121D01*
X157646905Y-76855885D01*
X157709217Y-76821859D01*
X157780032Y-76826924D01*
X157825095Y-76855885D01*
X158783003Y-77813793D01*
X158794777Y-77820223D01*
X158806793Y-77810926D01*
X158836897Y-77767932D01*
X158842377Y-77758441D01*
X158931645Y-77567007D01*
X158935391Y-77556715D01*
X158990059Y-77352691D01*
X158991962Y-77341896D01*
X159010372Y-77131475D01*
X159010372Y-77120525D01*
X158991962Y-76910104D01*
X158990059Y-76899309D01*
X158935391Y-76695285D01*
X158931645Y-76684993D01*
X158842376Y-76493556D01*
X158836898Y-76484070D01*
X158730958Y-76332770D01*
X158708270Y-76265496D01*
X158725555Y-76196636D01*
X158777325Y-76148052D01*
X158834171Y-76134500D01*
X160227377Y-76134500D01*
X160228148Y-76134502D01*
X160305721Y-76134976D01*
X160334152Y-76126850D01*
X160350915Y-76123272D01*
X160351753Y-76123152D01*
X160380187Y-76119080D01*
X160403564Y-76108451D01*
X160421087Y-76102004D01*
X160445771Y-76094949D01*
X160453365Y-76090157D01*
X160453368Y-76090156D01*
X160470780Y-76079170D01*
X160485865Y-76071030D01*
X160512782Y-76058792D01*
X160532235Y-76042030D01*
X160547239Y-76030927D01*
X160568958Y-76017224D01*
X160574897Y-76010499D01*
X160574901Y-76010496D01*
X160588532Y-75995062D01*
X160600724Y-75983018D01*
X160616327Y-75969573D01*
X160616329Y-75969570D01*
X160623127Y-75963713D01*
X160637094Y-75942165D01*
X160648385Y-75927291D01*
X160659431Y-75914783D01*
X160659432Y-75914782D01*
X160665378Y-75908049D01*
X160677943Y-75881287D01*
X160686263Y-75866309D01*
X160697471Y-75849017D01*
X160697473Y-75849012D01*
X160702352Y-75841485D01*
X160704922Y-75832892D01*
X160704924Y-75832887D01*
X160709711Y-75816880D01*
X160716372Y-75799436D01*
X160723467Y-75784324D01*
X160723468Y-75784322D01*
X160727281Y-75776200D01*
X160731830Y-75746983D01*
X160735613Y-75730268D01*
X160741515Y-75710534D01*
X160741516Y-75710528D01*
X160744086Y-75701934D01*
X160744296Y-75667494D01*
X160744329Y-75666711D01*
X160744500Y-75665614D01*
X160744500Y-75634623D01*
X160744502Y-75633853D01*
X160744952Y-75560215D01*
X160744952Y-75560214D01*
X160744976Y-75556279D01*
X160744592Y-75554935D01*
X160744500Y-75553590D01*
X160744500Y-71688531D01*
X160764502Y-71620410D01*
X160818158Y-71573917D01*
X160888432Y-71563813D01*
X160936335Y-71581099D01*
X160976499Y-71605712D01*
X160976509Y-71605717D01*
X160980729Y-71608303D01*
X160985299Y-71610196D01*
X160985303Y-71610198D01*
X161174416Y-71688531D01*
X161221911Y-71708204D01*
X161310931Y-71729576D01*
X161470938Y-71767991D01*
X161470944Y-71767992D01*
X161475751Y-71769146D01*
X161736000Y-71789628D01*
X161996249Y-71769146D01*
X162001056Y-71767992D01*
X162001062Y-71767991D01*
X162161069Y-71729576D01*
X162250089Y-71708204D01*
X162297584Y-71688531D01*
X162486697Y-71610198D01*
X162486701Y-71610196D01*
X162491271Y-71608303D01*
X162713856Y-71471903D01*
X162912363Y-71302363D01*
X163081903Y-71103856D01*
X163218303Y-70881271D01*
X163270017Y-70756424D01*
X163316310Y-70644662D01*
X163316311Y-70644660D01*
X163318204Y-70640089D01*
X163377422Y-70393431D01*
X163377991Y-70391062D01*
X163377992Y-70391056D01*
X163379146Y-70386249D01*
X163399628Y-70126000D01*
X163379146Y-69865751D01*
X163377992Y-69860944D01*
X163377991Y-69860938D01*
X163333561Y-69675877D01*
X163318204Y-69611911D01*
X163311377Y-69595428D01*
X163220198Y-69375303D01*
X163220196Y-69375299D01*
X163218303Y-69370729D01*
X163081903Y-69148144D01*
X162912363Y-68949637D01*
X162713856Y-68780097D01*
X162491271Y-68643697D01*
X162486701Y-68641804D01*
X162486697Y-68641802D01*
X162254662Y-68545690D01*
X162254660Y-68545689D01*
X162250089Y-68543796D01*
X162161069Y-68522424D01*
X162001062Y-68484009D01*
X162001056Y-68484008D01*
X161996249Y-68482854D01*
X161736000Y-68462372D01*
X161475751Y-68482854D01*
X161470944Y-68484008D01*
X161470938Y-68484009D01*
X161310931Y-68522424D01*
X161221911Y-68543796D01*
X161217340Y-68545689D01*
X161217338Y-68545690D01*
X160985303Y-68641802D01*
X160985299Y-68641804D01*
X160980729Y-68643697D01*
X160976510Y-68646282D01*
X160976499Y-68646288D01*
X160936335Y-68670901D01*
X160867802Y-68689440D01*
X160800125Y-68667984D01*
X160754792Y-68613345D01*
X160744500Y-68563469D01*
X160744500Y-66506000D01*
X164306526Y-66506000D01*
X164326391Y-66758403D01*
X164385495Y-67004591D01*
X164387388Y-67009162D01*
X164387389Y-67009164D01*
X164467078Y-67201549D01*
X164482384Y-67238502D01*
X164614672Y-67454376D01*
X164779102Y-67646898D01*
X164971624Y-67811328D01*
X165187498Y-67943616D01*
X165192068Y-67945509D01*
X165192072Y-67945511D01*
X165412756Y-68036921D01*
X165421409Y-68040505D01*
X165465591Y-68051112D01*
X165662784Y-68098454D01*
X165662790Y-68098455D01*
X165667597Y-68099609D01*
X165767416Y-68107465D01*
X165854345Y-68114307D01*
X165854352Y-68114307D01*
X165856801Y-68114500D01*
X165983199Y-68114500D01*
X165985648Y-68114307D01*
X165985655Y-68114307D01*
X166072584Y-68107465D01*
X166172403Y-68099609D01*
X166177210Y-68098455D01*
X166177216Y-68098454D01*
X166374409Y-68051112D01*
X166418591Y-68040505D01*
X166427244Y-68036921D01*
X166647928Y-67945511D01*
X166647932Y-67945509D01*
X166652502Y-67943616D01*
X166868376Y-67811328D01*
X167060898Y-67646898D01*
X167225328Y-67454376D01*
X167357616Y-67238502D01*
X167372923Y-67201549D01*
X167452611Y-67009164D01*
X167452612Y-67009162D01*
X167454505Y-67004591D01*
X167513609Y-66758403D01*
X167533474Y-66506000D01*
X167513609Y-66253597D01*
X167454505Y-66007409D01*
X167357616Y-65773498D01*
X167225328Y-65557624D01*
X167060898Y-65365102D01*
X166868376Y-65200672D01*
X166652502Y-65068384D01*
X166647932Y-65066491D01*
X166647928Y-65066489D01*
X166423164Y-64973389D01*
X166423162Y-64973388D01*
X166418591Y-64971495D01*
X166333968Y-64951179D01*
X166177216Y-64913546D01*
X166177210Y-64913545D01*
X166172403Y-64912391D01*
X166072584Y-64904535D01*
X165985655Y-64897693D01*
X165985648Y-64897693D01*
X165983199Y-64897500D01*
X165856801Y-64897500D01*
X165854352Y-64897693D01*
X165854345Y-64897693D01*
X165767416Y-64904535D01*
X165667597Y-64912391D01*
X165662790Y-64913545D01*
X165662784Y-64913546D01*
X165506032Y-64951179D01*
X165421409Y-64971495D01*
X165416838Y-64973388D01*
X165416836Y-64973389D01*
X165192072Y-65066489D01*
X165192068Y-65066491D01*
X165187498Y-65068384D01*
X164971624Y-65200672D01*
X164779102Y-65365102D01*
X164614672Y-65557624D01*
X164482384Y-65773498D01*
X164385495Y-66007409D01*
X164326391Y-66253597D01*
X164306526Y-66506000D01*
X160744500Y-66506000D01*
X160744500Y-64634623D01*
X160744502Y-64633853D01*
X160744800Y-64585102D01*
X160744976Y-64556279D01*
X160736850Y-64527847D01*
X160733272Y-64511085D01*
X160730352Y-64490698D01*
X160729080Y-64481813D01*
X160718451Y-64458436D01*
X160712004Y-64440913D01*
X160707416Y-64424862D01*
X160704949Y-64416229D01*
X160700156Y-64408632D01*
X160689170Y-64391220D01*
X160681030Y-64376135D01*
X160678564Y-64370711D01*
X160668792Y-64349218D01*
X160652030Y-64329765D01*
X160640927Y-64314761D01*
X160627224Y-64293042D01*
X160620499Y-64287103D01*
X160620496Y-64287099D01*
X160605062Y-64273468D01*
X160593018Y-64261276D01*
X160579574Y-64245674D01*
X160579571Y-64245671D01*
X160573713Y-64238873D01*
X160567447Y-64234812D01*
X160529669Y-64175598D01*
X160529904Y-64104601D01*
X160568485Y-64045003D01*
X160633164Y-64015724D01*
X160650682Y-64014500D01*
X168285500Y-64014500D01*
X168353621Y-64034502D01*
X168400114Y-64088158D01*
X168411500Y-64140500D01*
X168411500Y-110371500D01*
X168391498Y-110439621D01*
X168337842Y-110486114D01*
X168285500Y-110497500D01*
X97554500Y-110497500D01*
X97486379Y-110477498D01*
X97439886Y-110423842D01*
X97428500Y-110371500D01*
X97428500Y-108006000D01*
X98306526Y-108006000D01*
X98326391Y-108258403D01*
X98327545Y-108263210D01*
X98327546Y-108263216D01*
X98359349Y-108395686D01*
X98385495Y-108504591D01*
X98482384Y-108738502D01*
X98614672Y-108954376D01*
X98779102Y-109146898D01*
X98971624Y-109311328D01*
X99187498Y-109443616D01*
X99192068Y-109445509D01*
X99192072Y-109445511D01*
X99416836Y-109538611D01*
X99421409Y-109540505D01*
X99506032Y-109560821D01*
X99662784Y-109598454D01*
X99662790Y-109598455D01*
X99667597Y-109599609D01*
X99767416Y-109607465D01*
X99854345Y-109614307D01*
X99854352Y-109614307D01*
X99856801Y-109614500D01*
X99983199Y-109614500D01*
X99985648Y-109614307D01*
X99985655Y-109614307D01*
X100072584Y-109607465D01*
X100172403Y-109599609D01*
X100177210Y-109598455D01*
X100177216Y-109598454D01*
X100333968Y-109560821D01*
X100418591Y-109540505D01*
X100423164Y-109538611D01*
X100647928Y-109445511D01*
X100647932Y-109445509D01*
X100652502Y-109443616D01*
X100868376Y-109311328D01*
X101060898Y-109146898D01*
X101225328Y-108954376D01*
X101357616Y-108738502D01*
X101454505Y-108504591D01*
X101480651Y-108395686D01*
X101512454Y-108263216D01*
X101512455Y-108263210D01*
X101513609Y-108258403D01*
X101533474Y-108006000D01*
X101513609Y-107753597D01*
X101454505Y-107507409D01*
X101417044Y-107416970D01*
X101359511Y-107278072D01*
X101359509Y-107278068D01*
X101357616Y-107273498D01*
X101313189Y-107201000D01*
X104176884Y-107201000D01*
X104195314Y-107411655D01*
X104196738Y-107416968D01*
X104196738Y-107416970D01*
X104222261Y-107512221D01*
X104250044Y-107615910D01*
X104252366Y-107620891D01*
X104252367Y-107620892D01*
X104314249Y-107753597D01*
X104339411Y-107807558D01*
X104460699Y-107980776D01*
X104610224Y-108130301D01*
X104783442Y-108251589D01*
X104788420Y-108253910D01*
X104788423Y-108253912D01*
X104808376Y-108263216D01*
X104975090Y-108340956D01*
X104980398Y-108342378D01*
X104980400Y-108342379D01*
X105174030Y-108394262D01*
X105174032Y-108394262D01*
X105179345Y-108395686D01*
X105390000Y-108414116D01*
X105600655Y-108395686D01*
X105605968Y-108394262D01*
X105605970Y-108394262D01*
X105799600Y-108342379D01*
X105799602Y-108342378D01*
X105804910Y-108340956D01*
X105971624Y-108263216D01*
X105991577Y-108253912D01*
X105991580Y-108253910D01*
X105996558Y-108251589D01*
X106169776Y-108130301D01*
X106319301Y-107980776D01*
X106440589Y-107807558D01*
X106465752Y-107753597D01*
X106527633Y-107620892D01*
X106527634Y-107620891D01*
X106529956Y-107615910D01*
X106557740Y-107512221D01*
X106583262Y-107416970D01*
X106583262Y-107416968D01*
X106584686Y-107411655D01*
X106603116Y-107201000D01*
X115176884Y-107201000D01*
X115195314Y-107411655D01*
X115196738Y-107416968D01*
X115196738Y-107416970D01*
X115222261Y-107512221D01*
X115250044Y-107615910D01*
X115252366Y-107620891D01*
X115252367Y-107620892D01*
X115314249Y-107753597D01*
X115339411Y-107807558D01*
X115460699Y-107980776D01*
X115610224Y-108130301D01*
X115783442Y-108251589D01*
X115788420Y-108253910D01*
X115788423Y-108253912D01*
X115808376Y-108263216D01*
X115975090Y-108340956D01*
X115980398Y-108342378D01*
X115980400Y-108342379D01*
X116174030Y-108394262D01*
X116174032Y-108394262D01*
X116179345Y-108395686D01*
X116390000Y-108414116D01*
X116600655Y-108395686D01*
X116605968Y-108394262D01*
X116605970Y-108394262D01*
X116799600Y-108342379D01*
X116799602Y-108342378D01*
X116804910Y-108340956D01*
X116971624Y-108263216D01*
X116991577Y-108253912D01*
X116991580Y-108253910D01*
X116996558Y-108251589D01*
X117169776Y-108130301D01*
X117319301Y-107980776D01*
X117440589Y-107807558D01*
X117465752Y-107753597D01*
X117527633Y-107620892D01*
X117527634Y-107620891D01*
X117529956Y-107615910D01*
X117557740Y-107512221D01*
X117583262Y-107416970D01*
X117583262Y-107416968D01*
X117584686Y-107411655D01*
X117603116Y-107201000D01*
X118908884Y-107201000D01*
X118927314Y-107411655D01*
X118928738Y-107416968D01*
X118928738Y-107416970D01*
X118954261Y-107512221D01*
X118982044Y-107615910D01*
X118984366Y-107620891D01*
X118984367Y-107620892D01*
X119046249Y-107753597D01*
X119071411Y-107807558D01*
X119192699Y-107980776D01*
X119342224Y-108130301D01*
X119515442Y-108251589D01*
X119520420Y-108253910D01*
X119520423Y-108253912D01*
X119540376Y-108263216D01*
X119707090Y-108340956D01*
X119712398Y-108342378D01*
X119712400Y-108342379D01*
X119906030Y-108394262D01*
X119906032Y-108394262D01*
X119911345Y-108395686D01*
X120122000Y-108414116D01*
X120332655Y-108395686D01*
X120337968Y-108394262D01*
X120337970Y-108394262D01*
X120531600Y-108342379D01*
X120531602Y-108342378D01*
X120536910Y-108340956D01*
X120703624Y-108263216D01*
X120723577Y-108253912D01*
X120723580Y-108253910D01*
X120728558Y-108251589D01*
X120901776Y-108130301D01*
X121051301Y-107980776D01*
X121172589Y-107807558D01*
X121197752Y-107753597D01*
X121259633Y-107620892D01*
X121259634Y-107620891D01*
X121261956Y-107615910D01*
X121289740Y-107512221D01*
X121315262Y-107416970D01*
X121315262Y-107416968D01*
X121316686Y-107411655D01*
X121335116Y-107201000D01*
X129908884Y-107201000D01*
X129927314Y-107411655D01*
X129928738Y-107416968D01*
X129928738Y-107416970D01*
X129954261Y-107512221D01*
X129982044Y-107615910D01*
X129984366Y-107620891D01*
X129984367Y-107620892D01*
X130046249Y-107753597D01*
X130071411Y-107807558D01*
X130192699Y-107980776D01*
X130342224Y-108130301D01*
X130515442Y-108251589D01*
X130520420Y-108253910D01*
X130520423Y-108253912D01*
X130540376Y-108263216D01*
X130707090Y-108340956D01*
X130712398Y-108342378D01*
X130712400Y-108342379D01*
X130906030Y-108394262D01*
X130906032Y-108394262D01*
X130911345Y-108395686D01*
X131122000Y-108414116D01*
X131332655Y-108395686D01*
X131337968Y-108394262D01*
X131337970Y-108394262D01*
X131531600Y-108342379D01*
X131531602Y-108342378D01*
X131536910Y-108340956D01*
X131703624Y-108263216D01*
X131723577Y-108253912D01*
X131723580Y-108253910D01*
X131728558Y-108251589D01*
X131901776Y-108130301D01*
X132051301Y-107980776D01*
X132172589Y-107807558D01*
X132197752Y-107753597D01*
X132259633Y-107620892D01*
X132259634Y-107620891D01*
X132261956Y-107615910D01*
X132289740Y-107512221D01*
X132315262Y-107416970D01*
X132315262Y-107416968D01*
X132316686Y-107411655D01*
X132335116Y-107201000D01*
X133640884Y-107201000D01*
X133659314Y-107411655D01*
X133660738Y-107416968D01*
X133660738Y-107416970D01*
X133686261Y-107512221D01*
X133714044Y-107615910D01*
X133716366Y-107620891D01*
X133716367Y-107620892D01*
X133778249Y-107753597D01*
X133803411Y-107807558D01*
X133924699Y-107980776D01*
X134074224Y-108130301D01*
X134247442Y-108251589D01*
X134252420Y-108253910D01*
X134252423Y-108253912D01*
X134272376Y-108263216D01*
X134439090Y-108340956D01*
X134444398Y-108342378D01*
X134444400Y-108342379D01*
X134638030Y-108394262D01*
X134638032Y-108394262D01*
X134643345Y-108395686D01*
X134854000Y-108414116D01*
X135064655Y-108395686D01*
X135069968Y-108394262D01*
X135069970Y-108394262D01*
X135263600Y-108342379D01*
X135263602Y-108342378D01*
X135268910Y-108340956D01*
X135435624Y-108263216D01*
X135455577Y-108253912D01*
X135455580Y-108253910D01*
X135460558Y-108251589D01*
X135633776Y-108130301D01*
X135783301Y-107980776D01*
X135904589Y-107807558D01*
X135929752Y-107753597D01*
X135991633Y-107620892D01*
X135991634Y-107620891D01*
X135993956Y-107615910D01*
X136021740Y-107512221D01*
X136047262Y-107416970D01*
X136047262Y-107416968D01*
X136048686Y-107411655D01*
X136067116Y-107201000D01*
X144640884Y-107201000D01*
X144659314Y-107411655D01*
X144660738Y-107416968D01*
X144660738Y-107416970D01*
X144686261Y-107512221D01*
X144714044Y-107615910D01*
X144716366Y-107620891D01*
X144716367Y-107620892D01*
X144778249Y-107753597D01*
X144803411Y-107807558D01*
X144924699Y-107980776D01*
X145074224Y-108130301D01*
X145247442Y-108251589D01*
X145252420Y-108253910D01*
X145252423Y-108253912D01*
X145272376Y-108263216D01*
X145439090Y-108340956D01*
X145444398Y-108342378D01*
X145444400Y-108342379D01*
X145638030Y-108394262D01*
X145638032Y-108394262D01*
X145643345Y-108395686D01*
X145854000Y-108414116D01*
X146064655Y-108395686D01*
X146069968Y-108394262D01*
X146069970Y-108394262D01*
X146263600Y-108342379D01*
X146263602Y-108342378D01*
X146268910Y-108340956D01*
X146435624Y-108263216D01*
X146455577Y-108253912D01*
X146455580Y-108253910D01*
X146460558Y-108251589D01*
X146633776Y-108130301D01*
X146783301Y-107980776D01*
X146904589Y-107807558D01*
X146929752Y-107753597D01*
X146991633Y-107620892D01*
X146991634Y-107620891D01*
X146993956Y-107615910D01*
X147021740Y-107512221D01*
X147047262Y-107416970D01*
X147047262Y-107416968D01*
X147048686Y-107411655D01*
X147067116Y-107201000D01*
X148372884Y-107201000D01*
X148391314Y-107411655D01*
X148392738Y-107416968D01*
X148392738Y-107416970D01*
X148418261Y-107512221D01*
X148446044Y-107615910D01*
X148448366Y-107620891D01*
X148448367Y-107620892D01*
X148510249Y-107753597D01*
X148535411Y-107807558D01*
X148656699Y-107980776D01*
X148806224Y-108130301D01*
X148979442Y-108251589D01*
X148984420Y-108253910D01*
X148984423Y-108253912D01*
X149004376Y-108263216D01*
X149171090Y-108340956D01*
X149176398Y-108342378D01*
X149176400Y-108342379D01*
X149370030Y-108394262D01*
X149370032Y-108394262D01*
X149375345Y-108395686D01*
X149586000Y-108414116D01*
X149796655Y-108395686D01*
X149801968Y-108394262D01*
X149801970Y-108394262D01*
X149995600Y-108342379D01*
X149995602Y-108342378D01*
X150000910Y-108340956D01*
X150167624Y-108263216D01*
X150187577Y-108253912D01*
X150187580Y-108253910D01*
X150192558Y-108251589D01*
X150365776Y-108130301D01*
X150515301Y-107980776D01*
X150636589Y-107807558D01*
X150661752Y-107753597D01*
X150723633Y-107620892D01*
X150723634Y-107620891D01*
X150725956Y-107615910D01*
X150753740Y-107512221D01*
X150779262Y-107416970D01*
X150779262Y-107416968D01*
X150780686Y-107411655D01*
X150799116Y-107201000D01*
X159372884Y-107201000D01*
X159391314Y-107411655D01*
X159392738Y-107416968D01*
X159392738Y-107416970D01*
X159418261Y-107512221D01*
X159446044Y-107615910D01*
X159448366Y-107620891D01*
X159448367Y-107620892D01*
X159510249Y-107753597D01*
X159535411Y-107807558D01*
X159656699Y-107980776D01*
X159806224Y-108130301D01*
X159979442Y-108251589D01*
X159984420Y-108253910D01*
X159984423Y-108253912D01*
X160004376Y-108263216D01*
X160171090Y-108340956D01*
X160176398Y-108342378D01*
X160176400Y-108342379D01*
X160370030Y-108394262D01*
X160370032Y-108394262D01*
X160375345Y-108395686D01*
X160586000Y-108414116D01*
X160796655Y-108395686D01*
X160801968Y-108394262D01*
X160801970Y-108394262D01*
X160995600Y-108342379D01*
X160995602Y-108342378D01*
X161000910Y-108340956D01*
X161167624Y-108263216D01*
X161187577Y-108253912D01*
X161187580Y-108253910D01*
X161192558Y-108251589D01*
X161365776Y-108130301D01*
X161490077Y-108006000D01*
X164306526Y-108006000D01*
X164326391Y-108258403D01*
X164327545Y-108263210D01*
X164327546Y-108263216D01*
X164359349Y-108395686D01*
X164385495Y-108504591D01*
X164482384Y-108738502D01*
X164614672Y-108954376D01*
X164779102Y-109146898D01*
X164971624Y-109311328D01*
X165187498Y-109443616D01*
X165192068Y-109445509D01*
X165192072Y-109445511D01*
X165416836Y-109538611D01*
X165421409Y-109540505D01*
X165506032Y-109560821D01*
X165662784Y-109598454D01*
X165662790Y-109598455D01*
X165667597Y-109599609D01*
X165767416Y-109607465D01*
X165854345Y-109614307D01*
X165854352Y-109614307D01*
X165856801Y-109614500D01*
X165983199Y-109614500D01*
X165985648Y-109614307D01*
X165985655Y-109614307D01*
X166072584Y-109607465D01*
X166172403Y-109599609D01*
X166177210Y-109598455D01*
X166177216Y-109598454D01*
X166333968Y-109560821D01*
X166418591Y-109540505D01*
X166423164Y-109538611D01*
X166647928Y-109445511D01*
X166647932Y-109445509D01*
X166652502Y-109443616D01*
X166868376Y-109311328D01*
X167060898Y-109146898D01*
X167225328Y-108954376D01*
X167357616Y-108738502D01*
X167454505Y-108504591D01*
X167480651Y-108395686D01*
X167512454Y-108263216D01*
X167512455Y-108263210D01*
X167513609Y-108258403D01*
X167533474Y-108006000D01*
X167513609Y-107753597D01*
X167454505Y-107507409D01*
X167417044Y-107416970D01*
X167359511Y-107278072D01*
X167359509Y-107278068D01*
X167357616Y-107273498D01*
X167225328Y-107057624D01*
X167060898Y-106865102D01*
X166868376Y-106700672D01*
X166652502Y-106568384D01*
X166647932Y-106566491D01*
X166647928Y-106566489D01*
X166423164Y-106473389D01*
X166423162Y-106473388D01*
X166418591Y-106471495D01*
X166333968Y-106451179D01*
X166177216Y-106413546D01*
X166177210Y-106413545D01*
X166172403Y-106412391D01*
X166072584Y-106404535D01*
X165985655Y-106397693D01*
X165985648Y-106397693D01*
X165983199Y-106397500D01*
X165856801Y-106397500D01*
X165854352Y-106397693D01*
X165854345Y-106397693D01*
X165767416Y-106404535D01*
X165667597Y-106412391D01*
X165662790Y-106413545D01*
X165662784Y-106413546D01*
X165506032Y-106451179D01*
X165421409Y-106471495D01*
X165416838Y-106473388D01*
X165416836Y-106473389D01*
X165192072Y-106566489D01*
X165192068Y-106566491D01*
X165187498Y-106568384D01*
X164971624Y-106700672D01*
X164779102Y-106865102D01*
X164614672Y-107057624D01*
X164482384Y-107273498D01*
X164480491Y-107278068D01*
X164480489Y-107278072D01*
X164422956Y-107416970D01*
X164385495Y-107507409D01*
X164326391Y-107753597D01*
X164306526Y-108006000D01*
X161490077Y-108006000D01*
X161515301Y-107980776D01*
X161636589Y-107807558D01*
X161661752Y-107753597D01*
X161723633Y-107620892D01*
X161723634Y-107620891D01*
X161725956Y-107615910D01*
X161753740Y-107512221D01*
X161779262Y-107416970D01*
X161779262Y-107416968D01*
X161780686Y-107411655D01*
X161799116Y-107201000D01*
X161780686Y-106990345D01*
X161725956Y-106786090D01*
X161636589Y-106594442D01*
X161515301Y-106421224D01*
X161365776Y-106271699D01*
X161192558Y-106150411D01*
X161187580Y-106148090D01*
X161187577Y-106148088D01*
X161005892Y-106063367D01*
X161005891Y-106063366D01*
X161000910Y-106061044D01*
X160995602Y-106059622D01*
X160995600Y-106059621D01*
X160801970Y-106007738D01*
X160801968Y-106007738D01*
X160796655Y-106006314D01*
X160586000Y-105987884D01*
X160375345Y-106006314D01*
X160370032Y-106007738D01*
X160370030Y-106007738D01*
X160176400Y-106059621D01*
X160176398Y-106059622D01*
X160171090Y-106061044D01*
X160166109Y-106063366D01*
X160166108Y-106063367D01*
X159984423Y-106148088D01*
X159984420Y-106148090D01*
X159979442Y-106150411D01*
X159806224Y-106271699D01*
X159656699Y-106421224D01*
X159535411Y-106594442D01*
X159446044Y-106786090D01*
X159391314Y-106990345D01*
X159372884Y-107201000D01*
X150799116Y-107201000D01*
X150780686Y-106990345D01*
X150725956Y-106786090D01*
X150636589Y-106594442D01*
X150515301Y-106421224D01*
X150365776Y-106271699D01*
X150192558Y-106150411D01*
X150187580Y-106148090D01*
X150187577Y-106148088D01*
X150005892Y-106063367D01*
X150005891Y-106063366D01*
X150000910Y-106061044D01*
X149995602Y-106059622D01*
X149995600Y-106059621D01*
X149801970Y-106007738D01*
X149801968Y-106007738D01*
X149796655Y-106006314D01*
X149586000Y-105987884D01*
X149375345Y-106006314D01*
X149370032Y-106007738D01*
X149370030Y-106007738D01*
X149176400Y-106059621D01*
X149176398Y-106059622D01*
X149171090Y-106061044D01*
X149166109Y-106063366D01*
X149166108Y-106063367D01*
X148984423Y-106148088D01*
X148984420Y-106148090D01*
X148979442Y-106150411D01*
X148806224Y-106271699D01*
X148656699Y-106421224D01*
X148535411Y-106594442D01*
X148446044Y-106786090D01*
X148391314Y-106990345D01*
X148372884Y-107201000D01*
X147067116Y-107201000D01*
X147048686Y-106990345D01*
X146993956Y-106786090D01*
X146904589Y-106594442D01*
X146783301Y-106421224D01*
X146633776Y-106271699D01*
X146460558Y-106150411D01*
X146455580Y-106148090D01*
X146455577Y-106148088D01*
X146273892Y-106063367D01*
X146273891Y-106063366D01*
X146268910Y-106061044D01*
X146263602Y-106059622D01*
X146263600Y-106059621D01*
X146069970Y-106007738D01*
X146069968Y-106007738D01*
X146064655Y-106006314D01*
X145854000Y-105987884D01*
X145643345Y-106006314D01*
X145638032Y-106007738D01*
X145638030Y-106007738D01*
X145444400Y-106059621D01*
X145444398Y-106059622D01*
X145439090Y-106061044D01*
X145434109Y-106063366D01*
X145434108Y-106063367D01*
X145252423Y-106148088D01*
X145252420Y-106148090D01*
X145247442Y-106150411D01*
X145074224Y-106271699D01*
X144924699Y-106421224D01*
X144803411Y-106594442D01*
X144714044Y-106786090D01*
X144659314Y-106990345D01*
X144640884Y-107201000D01*
X136067116Y-107201000D01*
X136048686Y-106990345D01*
X135993956Y-106786090D01*
X135904589Y-106594442D01*
X135783301Y-106421224D01*
X135633776Y-106271699D01*
X135460558Y-106150411D01*
X135455580Y-106148090D01*
X135455577Y-106148088D01*
X135273892Y-106063367D01*
X135273891Y-106063366D01*
X135268910Y-106061044D01*
X135263602Y-106059622D01*
X135263600Y-106059621D01*
X135069970Y-106007738D01*
X135069968Y-106007738D01*
X135064655Y-106006314D01*
X134854000Y-105987884D01*
X134643345Y-106006314D01*
X134638032Y-106007738D01*
X134638030Y-106007738D01*
X134444400Y-106059621D01*
X134444398Y-106059622D01*
X134439090Y-106061044D01*
X134434109Y-106063366D01*
X134434108Y-106063367D01*
X134252423Y-106148088D01*
X134252420Y-106148090D01*
X134247442Y-106150411D01*
X134074224Y-106271699D01*
X133924699Y-106421224D01*
X133803411Y-106594442D01*
X133714044Y-106786090D01*
X133659314Y-106990345D01*
X133640884Y-107201000D01*
X132335116Y-107201000D01*
X132316686Y-106990345D01*
X132261956Y-106786090D01*
X132172589Y-106594442D01*
X132051301Y-106421224D01*
X131901776Y-106271699D01*
X131728558Y-106150411D01*
X131723580Y-106148090D01*
X131723577Y-106148088D01*
X131541892Y-106063367D01*
X131541891Y-106063366D01*
X131536910Y-106061044D01*
X131531602Y-106059622D01*
X131531600Y-106059621D01*
X131337970Y-106007738D01*
X131337968Y-106007738D01*
X131332655Y-106006314D01*
X131122000Y-105987884D01*
X130911345Y-106006314D01*
X130906032Y-106007738D01*
X130906030Y-106007738D01*
X130712400Y-106059621D01*
X130712398Y-106059622D01*
X130707090Y-106061044D01*
X130702109Y-106063366D01*
X130702108Y-106063367D01*
X130520423Y-106148088D01*
X130520420Y-106148090D01*
X130515442Y-106150411D01*
X130342224Y-106271699D01*
X130192699Y-106421224D01*
X130071411Y-106594442D01*
X129982044Y-106786090D01*
X129927314Y-106990345D01*
X129908884Y-107201000D01*
X121335116Y-107201000D01*
X121316686Y-106990345D01*
X121261956Y-106786090D01*
X121172589Y-106594442D01*
X121051301Y-106421224D01*
X120901776Y-106271699D01*
X120728558Y-106150411D01*
X120723580Y-106148090D01*
X120723577Y-106148088D01*
X120541892Y-106063367D01*
X120541891Y-106063366D01*
X120536910Y-106061044D01*
X120531602Y-106059622D01*
X120531600Y-106059621D01*
X120337970Y-106007738D01*
X120337968Y-106007738D01*
X120332655Y-106006314D01*
X120122000Y-105987884D01*
X119911345Y-106006314D01*
X119906032Y-106007738D01*
X119906030Y-106007738D01*
X119712400Y-106059621D01*
X119712398Y-106059622D01*
X119707090Y-106061044D01*
X119702109Y-106063366D01*
X119702108Y-106063367D01*
X119520423Y-106148088D01*
X119520420Y-106148090D01*
X119515442Y-106150411D01*
X119342224Y-106271699D01*
X119192699Y-106421224D01*
X119071411Y-106594442D01*
X118982044Y-106786090D01*
X118927314Y-106990345D01*
X118908884Y-107201000D01*
X117603116Y-107201000D01*
X117584686Y-106990345D01*
X117529956Y-106786090D01*
X117440589Y-106594442D01*
X117319301Y-106421224D01*
X117169776Y-106271699D01*
X116996558Y-106150411D01*
X116991580Y-106148090D01*
X116991577Y-106148088D01*
X116809892Y-106063367D01*
X116809891Y-106063366D01*
X116804910Y-106061044D01*
X116799602Y-106059622D01*
X116799600Y-106059621D01*
X116605970Y-106007738D01*
X116605968Y-106007738D01*
X116600655Y-106006314D01*
X116390000Y-105987884D01*
X116179345Y-106006314D01*
X116174032Y-106007738D01*
X116174030Y-106007738D01*
X115980400Y-106059621D01*
X115980398Y-106059622D01*
X115975090Y-106061044D01*
X115970109Y-106063366D01*
X115970108Y-106063367D01*
X115788423Y-106148088D01*
X115788420Y-106148090D01*
X115783442Y-106150411D01*
X115610224Y-106271699D01*
X115460699Y-106421224D01*
X115339411Y-106594442D01*
X115250044Y-106786090D01*
X115195314Y-106990345D01*
X115176884Y-107201000D01*
X106603116Y-107201000D01*
X106584686Y-106990345D01*
X106529956Y-106786090D01*
X106440589Y-106594442D01*
X106319301Y-106421224D01*
X106169776Y-106271699D01*
X105996558Y-106150411D01*
X105991580Y-106148090D01*
X105991577Y-106148088D01*
X105809892Y-106063367D01*
X105809891Y-106063366D01*
X105804910Y-106061044D01*
X105799602Y-106059622D01*
X105799600Y-106059621D01*
X105605970Y-106007738D01*
X105605968Y-106007738D01*
X105600655Y-106006314D01*
X105390000Y-105987884D01*
X105179345Y-106006314D01*
X105174032Y-106007738D01*
X105174030Y-106007738D01*
X104980400Y-106059621D01*
X104980398Y-106059622D01*
X104975090Y-106061044D01*
X104970109Y-106063366D01*
X104970108Y-106063367D01*
X104788423Y-106148088D01*
X104788420Y-106148090D01*
X104783442Y-106150411D01*
X104610224Y-106271699D01*
X104460699Y-106421224D01*
X104339411Y-106594442D01*
X104250044Y-106786090D01*
X104195314Y-106990345D01*
X104176884Y-107201000D01*
X101313189Y-107201000D01*
X101225328Y-107057624D01*
X101060898Y-106865102D01*
X100868376Y-106700672D01*
X100652502Y-106568384D01*
X100647932Y-106566491D01*
X100647928Y-106566489D01*
X100423164Y-106473389D01*
X100423162Y-106473388D01*
X100418591Y-106471495D01*
X100333968Y-106451179D01*
X100177216Y-106413546D01*
X100177210Y-106413545D01*
X100172403Y-106412391D01*
X100072584Y-106404535D01*
X99985655Y-106397693D01*
X99985648Y-106397693D01*
X99983199Y-106397500D01*
X99856801Y-106397500D01*
X99854352Y-106397693D01*
X99854345Y-106397693D01*
X99767416Y-106404535D01*
X99667597Y-106412391D01*
X99662790Y-106413545D01*
X99662784Y-106413546D01*
X99506032Y-106451179D01*
X99421409Y-106471495D01*
X99416838Y-106473388D01*
X99416836Y-106473389D01*
X99192072Y-106566489D01*
X99192068Y-106566491D01*
X99187498Y-106568384D01*
X98971624Y-106700672D01*
X98779102Y-106865102D01*
X98614672Y-107057624D01*
X98482384Y-107273498D01*
X98480491Y-107278068D01*
X98480489Y-107278072D01*
X98422956Y-107416970D01*
X98385495Y-107507409D01*
X98326391Y-107753597D01*
X98306526Y-108006000D01*
X97428500Y-108006000D01*
X97428500Y-104536669D01*
X109298001Y-104536669D01*
X109298371Y-104543490D01*
X109303895Y-104594352D01*
X109307521Y-104609604D01*
X109352676Y-104730054D01*
X109361214Y-104745649D01*
X109437715Y-104847724D01*
X109450276Y-104860285D01*
X109552351Y-104936786D01*
X109567946Y-104945324D01*
X109688394Y-104990478D01*
X109703649Y-104994105D01*
X109754514Y-104999631D01*
X109761328Y-105000000D01*
X109983885Y-105000000D01*
X109999124Y-104995525D01*
X110000329Y-104994135D01*
X110002000Y-104986452D01*
X110002000Y-104981884D01*
X110510000Y-104981884D01*
X110514475Y-104997123D01*
X110515865Y-104998328D01*
X110523548Y-104999999D01*
X110750669Y-104999999D01*
X110757490Y-104999629D01*
X110808352Y-104994105D01*
X110823604Y-104990479D01*
X110944054Y-104945324D01*
X110959649Y-104936786D01*
X111061724Y-104860285D01*
X111074285Y-104847724D01*
X111150786Y-104745649D01*
X111159324Y-104730054D01*
X111204478Y-104609606D01*
X111208105Y-104594351D01*
X111213631Y-104543486D01*
X111214000Y-104536672D01*
X111214000Y-104164115D01*
X111209525Y-104148876D01*
X111208135Y-104147671D01*
X111200452Y-104146000D01*
X110528115Y-104146000D01*
X110512876Y-104150475D01*
X110511671Y-104151865D01*
X110510000Y-104159548D01*
X110510000Y-104981884D01*
X110002000Y-104981884D01*
X110002000Y-104164115D01*
X109997525Y-104148876D01*
X109996135Y-104147671D01*
X109988452Y-104146000D01*
X109316116Y-104146000D01*
X109300877Y-104150475D01*
X109299672Y-104151865D01*
X109298001Y-104159548D01*
X109298001Y-104536669D01*
X97428500Y-104536669D01*
X97428500Y-103619885D01*
X109298000Y-103619885D01*
X109302475Y-103635124D01*
X109303865Y-103636329D01*
X109311548Y-103638000D01*
X109983885Y-103638000D01*
X109999124Y-103633525D01*
X110000329Y-103632135D01*
X110002000Y-103624452D01*
X110002000Y-103619885D01*
X110510000Y-103619885D01*
X110514475Y-103635124D01*
X110515865Y-103636329D01*
X110523548Y-103638000D01*
X111195884Y-103638000D01*
X111211123Y-103633525D01*
X111212328Y-103632135D01*
X111213999Y-103624452D01*
X111213999Y-103247331D01*
X111213629Y-103240510D01*
X111208105Y-103189648D01*
X111204479Y-103174396D01*
X111159324Y-103053946D01*
X111150786Y-103038351D01*
X111074285Y-102936276D01*
X111061724Y-102923715D01*
X110959649Y-102847214D01*
X110944054Y-102838676D01*
X110823606Y-102793522D01*
X110808351Y-102789895D01*
X110757486Y-102784369D01*
X110750672Y-102784000D01*
X110528115Y-102784000D01*
X110512876Y-102788475D01*
X110511671Y-102789865D01*
X110510000Y-102797548D01*
X110510000Y-103619885D01*
X110002000Y-103619885D01*
X110002000Y-102802116D01*
X109997525Y-102786877D01*
X109996135Y-102785672D01*
X109988452Y-102784001D01*
X109761331Y-102784001D01*
X109754510Y-102784371D01*
X109703648Y-102789895D01*
X109688396Y-102793521D01*
X109567946Y-102838676D01*
X109552351Y-102847214D01*
X109450276Y-102923715D01*
X109437715Y-102936276D01*
X109361214Y-103038351D01*
X109352676Y-103053946D01*
X109307522Y-103174394D01*
X109303895Y-103189649D01*
X109298369Y-103240514D01*
X109298000Y-103247328D01*
X109298000Y-103619885D01*
X97428500Y-103619885D01*
X97428500Y-101635766D01*
X110760000Y-101635766D01*
X110760337Y-101642282D01*
X110770075Y-101736132D01*
X110772968Y-101749528D01*
X110823488Y-101900953D01*
X110829653Y-101914115D01*
X110913426Y-102049492D01*
X110922460Y-102060890D01*
X111035129Y-102173363D01*
X111046540Y-102182375D01*
X111182063Y-102265912D01*
X111195241Y-102272056D01*
X111346766Y-102322315D01*
X111360132Y-102325181D01*
X111452770Y-102334672D01*
X111459185Y-102335000D01*
X111533385Y-102335000D01*
X111548624Y-102330525D01*
X111549829Y-102329135D01*
X111551500Y-102321452D01*
X111551500Y-101624115D01*
X111547025Y-101608876D01*
X111545635Y-101607671D01*
X111537952Y-101606000D01*
X110778115Y-101606000D01*
X110762876Y-101610475D01*
X110761671Y-101611865D01*
X110760000Y-101619548D01*
X110760000Y-101635766D01*
X97428500Y-101635766D01*
X97428500Y-101079885D01*
X110760000Y-101079885D01*
X110764475Y-101095124D01*
X110765865Y-101096329D01*
X110773548Y-101098000D01*
X111533385Y-101098000D01*
X111548624Y-101093525D01*
X111549829Y-101092135D01*
X111551500Y-101084452D01*
X111551500Y-100387115D01*
X111547025Y-100371876D01*
X111545635Y-100370671D01*
X111537952Y-100369000D01*
X111459234Y-100369000D01*
X111452718Y-100369337D01*
X111358868Y-100379075D01*
X111345472Y-100381968D01*
X111194047Y-100432488D01*
X111180885Y-100438653D01*
X111045508Y-100522426D01*
X111034110Y-100531460D01*
X110921637Y-100644129D01*
X110912625Y-100655540D01*
X110829088Y-100791063D01*
X110822944Y-100804241D01*
X110772685Y-100955766D01*
X110769819Y-100969132D01*
X110760328Y-101061770D01*
X110760000Y-101068185D01*
X110760000Y-101079885D01*
X97428500Y-101079885D01*
X97428500Y-98995669D01*
X106132001Y-98995669D01*
X106132371Y-99002490D01*
X106137895Y-99053352D01*
X106141521Y-99068604D01*
X106186676Y-99189054D01*
X106195214Y-99204649D01*
X106271715Y-99306724D01*
X106284276Y-99319285D01*
X106386351Y-99395786D01*
X106401946Y-99404324D01*
X106522394Y-99449478D01*
X106537649Y-99453105D01*
X106588514Y-99458631D01*
X106595328Y-99459000D01*
X108117885Y-99459000D01*
X108133124Y-99454525D01*
X108134329Y-99453135D01*
X108136000Y-99445452D01*
X108136000Y-99440884D01*
X108644000Y-99440884D01*
X108648475Y-99456123D01*
X108649865Y-99457328D01*
X108657548Y-99458999D01*
X110184669Y-99458999D01*
X110191490Y-99458629D01*
X110242352Y-99453105D01*
X110257604Y-99449479D01*
X110378054Y-99404324D01*
X110393649Y-99395786D01*
X110495724Y-99319285D01*
X110508285Y-99306724D01*
X110584786Y-99204649D01*
X110593324Y-99189054D01*
X110638478Y-99068606D01*
X110642105Y-99053351D01*
X110647631Y-99002486D01*
X110648000Y-98995672D01*
X110648000Y-97473115D01*
X110643525Y-97457876D01*
X110642135Y-97456671D01*
X110634452Y-97455000D01*
X108662115Y-97455000D01*
X108646876Y-97459475D01*
X108645671Y-97460865D01*
X108644000Y-97468548D01*
X108644000Y-99440884D01*
X108136000Y-99440884D01*
X108136000Y-97473115D01*
X108131525Y-97457876D01*
X108130135Y-97456671D01*
X108122452Y-97455000D01*
X106150116Y-97455000D01*
X106134877Y-97459475D01*
X106133672Y-97460865D01*
X106132001Y-97468548D01*
X106132001Y-98995669D01*
X97428500Y-98995669D01*
X97428500Y-97201000D01*
X111126654Y-97201000D01*
X111126924Y-97205119D01*
X111144190Y-97468548D01*
X111146017Y-97496426D01*
X111203776Y-97786797D01*
X111298941Y-98067145D01*
X111429885Y-98332673D01*
X111594367Y-98578838D01*
X111597081Y-98581932D01*
X111597085Y-98581938D01*
X111786864Y-98798338D01*
X111789573Y-98801427D01*
X111792662Y-98804136D01*
X112009062Y-98993915D01*
X112009068Y-98993919D01*
X112012162Y-98996633D01*
X112015588Y-98998922D01*
X112015593Y-98998926D01*
X112185001Y-99112120D01*
X112258327Y-99161115D01*
X112311230Y-99187204D01*
X112363477Y-99235272D01*
X112381500Y-99300209D01*
X112381500Y-100252634D01*
X112361498Y-100320755D01*
X112307842Y-100367248D01*
X112242657Y-100377978D01*
X112158230Y-100369328D01*
X112151815Y-100369000D01*
X112077615Y-100369000D01*
X112062376Y-100373475D01*
X112061171Y-100374865D01*
X112059500Y-100382548D01*
X112059500Y-102316885D01*
X112063975Y-102332124D01*
X112065365Y-102333329D01*
X112073048Y-102335000D01*
X112151766Y-102335000D01*
X112158282Y-102334663D01*
X112252132Y-102324925D01*
X112265528Y-102322032D01*
X112381624Y-102283299D01*
X112452573Y-102280715D01*
X112513657Y-102316898D01*
X112545482Y-102380363D01*
X112547500Y-102402823D01*
X112547500Y-103941769D01*
X112547800Y-103944825D01*
X112547800Y-103944832D01*
X112548530Y-103952273D01*
X112561920Y-104088833D01*
X112563702Y-104094734D01*
X112563702Y-104094736D01*
X112592122Y-104188866D01*
X112597500Y-104225284D01*
X112597500Y-104540134D01*
X112604255Y-104602316D01*
X112655385Y-104738705D01*
X112742739Y-104855261D01*
X112859295Y-104942615D01*
X112995684Y-104993745D01*
X113057866Y-105000500D01*
X114054134Y-105000500D01*
X114116316Y-104993745D01*
X114252705Y-104942615D01*
X114369261Y-104855261D01*
X114456615Y-104738705D01*
X114507745Y-104602316D01*
X114514500Y-104540134D01*
X114514500Y-104225393D01*
X114520398Y-104187294D01*
X114545373Y-104108563D01*
X114547235Y-104102694D01*
X114564500Y-103948773D01*
X114564500Y-101758466D01*
X114566262Y-101741839D01*
X114565974Y-101741809D01*
X114576172Y-101642271D01*
X114576500Y-101639072D01*
X114576500Y-101635766D01*
X125492000Y-101635766D01*
X125492337Y-101642282D01*
X125502075Y-101736132D01*
X125504968Y-101749528D01*
X125555488Y-101900953D01*
X125561653Y-101914115D01*
X125645426Y-102049492D01*
X125654460Y-102060890D01*
X125767129Y-102173363D01*
X125778540Y-102182375D01*
X125914063Y-102265912D01*
X125927241Y-102272056D01*
X126078766Y-102322315D01*
X126092132Y-102325181D01*
X126184770Y-102334672D01*
X126191185Y-102335000D01*
X126265385Y-102335000D01*
X126280624Y-102330525D01*
X126281829Y-102329135D01*
X126283500Y-102321452D01*
X126283500Y-101624115D01*
X126279025Y-101608876D01*
X126277635Y-101607671D01*
X126269952Y-101606000D01*
X125510115Y-101606000D01*
X125494876Y-101610475D01*
X125493671Y-101611865D01*
X125492000Y-101619548D01*
X125492000Y-101635766D01*
X114576500Y-101635766D01*
X114576500Y-101079885D01*
X125492000Y-101079885D01*
X125496475Y-101095124D01*
X125497865Y-101096329D01*
X125505548Y-101098000D01*
X126265385Y-101098000D01*
X126280624Y-101093525D01*
X126281829Y-101092135D01*
X126283500Y-101084452D01*
X126283500Y-100387115D01*
X126279025Y-100371876D01*
X126277635Y-100370671D01*
X126269952Y-100369000D01*
X126191234Y-100369000D01*
X126184718Y-100369337D01*
X126090868Y-100379075D01*
X126077472Y-100381968D01*
X125926047Y-100432488D01*
X125912885Y-100438653D01*
X125777508Y-100522426D01*
X125766110Y-100531460D01*
X125653637Y-100644129D01*
X125644625Y-100655540D01*
X125561088Y-100791063D01*
X125554944Y-100804241D01*
X125504685Y-100955766D01*
X125501819Y-100969132D01*
X125492328Y-101061770D01*
X125492000Y-101068185D01*
X125492000Y-101079885D01*
X114576500Y-101079885D01*
X114576500Y-101064928D01*
X114565707Y-100960907D01*
X114566147Y-100960861D01*
X114564500Y-100945430D01*
X114564500Y-99199847D01*
X114584502Y-99131726D01*
X114620497Y-99095083D01*
X114767838Y-98996633D01*
X114768937Y-98995669D01*
X120864001Y-98995669D01*
X120864371Y-99002490D01*
X120869895Y-99053352D01*
X120873521Y-99068604D01*
X120918676Y-99189054D01*
X120927214Y-99204649D01*
X121003715Y-99306724D01*
X121016276Y-99319285D01*
X121118351Y-99395786D01*
X121133946Y-99404324D01*
X121254394Y-99449478D01*
X121269649Y-99453105D01*
X121320514Y-99458631D01*
X121327328Y-99459000D01*
X122849885Y-99459000D01*
X122865124Y-99454525D01*
X122866329Y-99453135D01*
X122868000Y-99445452D01*
X122868000Y-99440884D01*
X123376000Y-99440884D01*
X123380475Y-99456123D01*
X123381865Y-99457328D01*
X123389548Y-99458999D01*
X124916669Y-99458999D01*
X124923490Y-99458629D01*
X124974352Y-99453105D01*
X124989604Y-99449479D01*
X125110054Y-99404324D01*
X125125649Y-99395786D01*
X125227724Y-99319285D01*
X125240285Y-99306724D01*
X125316786Y-99204649D01*
X125325324Y-99189054D01*
X125370478Y-99068606D01*
X125374105Y-99053351D01*
X125379631Y-99002486D01*
X125380000Y-98995672D01*
X125380000Y-97473115D01*
X125375525Y-97457876D01*
X125374135Y-97456671D01*
X125366452Y-97455000D01*
X123394115Y-97455000D01*
X123378876Y-97459475D01*
X123377671Y-97460865D01*
X123376000Y-97468548D01*
X123376000Y-99440884D01*
X122868000Y-99440884D01*
X122868000Y-97473115D01*
X122863525Y-97457876D01*
X122862135Y-97456671D01*
X122854452Y-97455000D01*
X120882116Y-97455000D01*
X120866877Y-97459475D01*
X120865672Y-97460865D01*
X120864001Y-97468548D01*
X120864001Y-98995669D01*
X114768937Y-98995669D01*
X114770932Y-98993919D01*
X114770938Y-98993915D01*
X114987338Y-98804136D01*
X114990427Y-98801427D01*
X114993136Y-98798338D01*
X115182915Y-98581938D01*
X115182919Y-98581932D01*
X115185633Y-98578838D01*
X115350115Y-98332673D01*
X115481059Y-98067145D01*
X115576224Y-97786797D01*
X115633983Y-97496426D01*
X115635811Y-97468548D01*
X115653076Y-97205119D01*
X115653346Y-97201000D01*
X125858654Y-97201000D01*
X125858924Y-97205119D01*
X125876190Y-97468548D01*
X125878017Y-97496426D01*
X125935776Y-97786797D01*
X126030941Y-98067145D01*
X126161885Y-98332673D01*
X126326367Y-98578838D01*
X126329081Y-98581932D01*
X126329085Y-98581938D01*
X126518864Y-98798338D01*
X126521573Y-98801427D01*
X126524662Y-98804136D01*
X126741062Y-98993915D01*
X126741068Y-98993919D01*
X126744162Y-98996633D01*
X126747588Y-98998922D01*
X126747593Y-98998926D01*
X126917001Y-99112120D01*
X126990327Y-99161115D01*
X126994024Y-99162938D01*
X126994031Y-99162942D01*
X127183728Y-99256490D01*
X127235977Y-99304558D01*
X127254000Y-99369496D01*
X127254000Y-100292640D01*
X127233998Y-100360761D01*
X127180342Y-100407254D01*
X127110068Y-100417358D01*
X127088333Y-100412233D01*
X126996234Y-100381685D01*
X126982868Y-100378819D01*
X126890230Y-100369328D01*
X126883815Y-100369000D01*
X126809615Y-100369000D01*
X126794376Y-100373475D01*
X126793171Y-100374865D01*
X126791500Y-100382548D01*
X126791500Y-102316885D01*
X126795975Y-102332124D01*
X126797365Y-102333329D01*
X126805048Y-102335000D01*
X126883766Y-102335000D01*
X126890282Y-102334663D01*
X126984132Y-102324925D01*
X126997528Y-102322032D01*
X127148953Y-102271512D01*
X127162115Y-102265347D01*
X127297492Y-102181574D01*
X127308894Y-102172536D01*
X127310567Y-102170861D01*
X127311993Y-102170081D01*
X127314627Y-102167993D01*
X127314984Y-102168444D01*
X127372849Y-102136781D01*
X127443669Y-102141784D01*
X127488754Y-102170701D01*
X127491421Y-102173363D01*
X127496997Y-102178929D01*
X127645080Y-102270209D01*
X127810191Y-102324974D01*
X127817027Y-102325674D01*
X127817030Y-102325675D01*
X127864370Y-102330525D01*
X127912928Y-102335500D01*
X128010015Y-102335500D01*
X128047267Y-102341133D01*
X128058732Y-102344682D01*
X128117670Y-102350877D01*
X128249296Y-102364711D01*
X128249298Y-102364711D01*
X128255425Y-102365355D01*
X128337924Y-102357847D01*
X128446249Y-102347989D01*
X128446252Y-102347988D01*
X128452388Y-102347430D01*
X128458294Y-102345692D01*
X128458298Y-102345691D01*
X128475506Y-102340626D01*
X128511081Y-102335500D01*
X128612072Y-102335500D01*
X128615318Y-102335163D01*
X128615322Y-102335163D01*
X128709235Y-102325419D01*
X128709239Y-102325418D01*
X128716093Y-102324707D01*
X128722629Y-102322526D01*
X128722631Y-102322526D01*
X128855395Y-102278232D01*
X128881107Y-102269654D01*
X129029031Y-102178116D01*
X129070294Y-102136781D01*
X129146758Y-102060184D01*
X129146762Y-102060179D01*
X129151929Y-102055003D01*
X129243209Y-101906920D01*
X129297974Y-101741809D01*
X129308500Y-101639072D01*
X129308500Y-101635766D01*
X140224000Y-101635766D01*
X140224337Y-101642282D01*
X140234075Y-101736132D01*
X140236968Y-101749528D01*
X140287488Y-101900953D01*
X140293653Y-101914115D01*
X140377426Y-102049492D01*
X140386460Y-102060890D01*
X140499129Y-102173363D01*
X140510540Y-102182375D01*
X140646063Y-102265912D01*
X140659241Y-102272056D01*
X140810766Y-102322315D01*
X140824132Y-102325181D01*
X140916770Y-102334672D01*
X140923185Y-102335000D01*
X140997385Y-102335000D01*
X141012624Y-102330525D01*
X141013829Y-102329135D01*
X141015500Y-102321452D01*
X141015500Y-101624115D01*
X141011025Y-101608876D01*
X141009635Y-101607671D01*
X141001952Y-101606000D01*
X140242115Y-101606000D01*
X140226876Y-101610475D01*
X140225671Y-101611865D01*
X140224000Y-101619548D01*
X140224000Y-101635766D01*
X129308500Y-101635766D01*
X129308500Y-101079885D01*
X140224000Y-101079885D01*
X140228475Y-101095124D01*
X140229865Y-101096329D01*
X140237548Y-101098000D01*
X140997385Y-101098000D01*
X141012624Y-101093525D01*
X141013829Y-101092135D01*
X141015500Y-101084452D01*
X141015500Y-100387115D01*
X141011025Y-100371876D01*
X141009635Y-100370671D01*
X141001952Y-100369000D01*
X140923234Y-100369000D01*
X140916718Y-100369337D01*
X140822868Y-100379075D01*
X140809472Y-100381968D01*
X140658047Y-100432488D01*
X140644885Y-100438653D01*
X140509508Y-100522426D01*
X140498110Y-100531460D01*
X140385637Y-100644129D01*
X140376625Y-100655540D01*
X140293088Y-100791063D01*
X140286944Y-100804241D01*
X140236685Y-100955766D01*
X140233819Y-100969132D01*
X140224328Y-101061770D01*
X140224000Y-101068185D01*
X140224000Y-101079885D01*
X129308500Y-101079885D01*
X129308500Y-101064928D01*
X129308163Y-101061678D01*
X129298419Y-100967765D01*
X129298418Y-100967761D01*
X129297707Y-100960907D01*
X129292544Y-100945430D01*
X129277476Y-100900267D01*
X129271000Y-100860391D01*
X129271000Y-99216885D01*
X129291002Y-99148764D01*
X129326999Y-99112120D01*
X129496400Y-98998931D01*
X129496408Y-98998925D01*
X129499838Y-98996633D01*
X129500937Y-98995669D01*
X135596001Y-98995669D01*
X135596371Y-99002490D01*
X135601895Y-99053352D01*
X135605521Y-99068604D01*
X135650676Y-99189054D01*
X135659214Y-99204649D01*
X135735715Y-99306724D01*
X135748276Y-99319285D01*
X135850351Y-99395786D01*
X135865946Y-99404324D01*
X135986394Y-99449478D01*
X136001649Y-99453105D01*
X136052514Y-99458631D01*
X136059328Y-99459000D01*
X137581885Y-99459000D01*
X137597124Y-99454525D01*
X137598329Y-99453135D01*
X137600000Y-99445452D01*
X137600000Y-99440884D01*
X138108000Y-99440884D01*
X138112475Y-99456123D01*
X138113865Y-99457328D01*
X138121548Y-99458999D01*
X139648669Y-99458999D01*
X139655490Y-99458629D01*
X139706352Y-99453105D01*
X139721604Y-99449479D01*
X139842054Y-99404324D01*
X139857649Y-99395786D01*
X139959724Y-99319285D01*
X139972285Y-99306724D01*
X140048786Y-99204649D01*
X140057324Y-99189054D01*
X140102478Y-99068606D01*
X140106105Y-99053351D01*
X140111631Y-99002486D01*
X140112000Y-98995672D01*
X140112000Y-97473115D01*
X140107525Y-97457876D01*
X140106135Y-97456671D01*
X140098452Y-97455000D01*
X138126115Y-97455000D01*
X138110876Y-97459475D01*
X138109671Y-97460865D01*
X138108000Y-97468548D01*
X138108000Y-99440884D01*
X137600000Y-99440884D01*
X137600000Y-97473115D01*
X137595525Y-97457876D01*
X137594135Y-97456671D01*
X137586452Y-97455000D01*
X135614116Y-97455000D01*
X135598877Y-97459475D01*
X135597672Y-97460865D01*
X135596001Y-97468548D01*
X135596001Y-98995669D01*
X129500937Y-98995669D01*
X129502932Y-98993919D01*
X129502938Y-98993915D01*
X129719338Y-98804136D01*
X129722427Y-98801427D01*
X129725136Y-98798338D01*
X129914915Y-98581938D01*
X129914919Y-98581932D01*
X129917633Y-98578838D01*
X130082115Y-98332673D01*
X130213059Y-98067145D01*
X130308224Y-97786797D01*
X130365983Y-97496426D01*
X130367811Y-97468548D01*
X130385076Y-97205119D01*
X130385346Y-97201000D01*
X140590654Y-97201000D01*
X140590924Y-97205119D01*
X140608190Y-97468548D01*
X140610017Y-97496426D01*
X140667776Y-97786797D01*
X140762941Y-98067145D01*
X140893885Y-98332673D01*
X141058367Y-98578838D01*
X141061081Y-98581932D01*
X141061085Y-98581938D01*
X141250864Y-98798338D01*
X141253573Y-98801427D01*
X141256662Y-98804136D01*
X141473062Y-98993915D01*
X141473068Y-98993919D01*
X141476162Y-98996633D01*
X141479588Y-98998922D01*
X141479593Y-98998926D01*
X141649001Y-99112120D01*
X141722327Y-99161115D01*
X141726024Y-99162938D01*
X141726031Y-99162942D01*
X141915728Y-99256490D01*
X141967977Y-99304558D01*
X141986000Y-99369496D01*
X141986000Y-100292640D01*
X141965998Y-100360761D01*
X141912342Y-100407254D01*
X141842068Y-100417358D01*
X141820333Y-100412233D01*
X141728234Y-100381685D01*
X141714868Y-100378819D01*
X141622230Y-100369328D01*
X141615815Y-100369000D01*
X141541615Y-100369000D01*
X141526376Y-100373475D01*
X141525171Y-100374865D01*
X141523500Y-100382548D01*
X141523500Y-102316885D01*
X141527975Y-102332124D01*
X141529365Y-102333329D01*
X141537048Y-102335000D01*
X141615766Y-102335000D01*
X141622282Y-102334663D01*
X141716132Y-102324925D01*
X141729528Y-102322032D01*
X141880953Y-102271512D01*
X141894115Y-102265347D01*
X142029492Y-102181574D01*
X142040894Y-102172536D01*
X142042567Y-102170861D01*
X142043993Y-102170081D01*
X142046627Y-102167993D01*
X142046984Y-102168444D01*
X142104849Y-102136781D01*
X142175669Y-102141784D01*
X142220754Y-102170701D01*
X142223421Y-102173363D01*
X142228997Y-102178929D01*
X142377080Y-102270209D01*
X142542191Y-102324974D01*
X142549027Y-102325674D01*
X142549030Y-102325675D01*
X142596370Y-102330525D01*
X142644928Y-102335500D01*
X142742015Y-102335500D01*
X142779267Y-102341133D01*
X142790732Y-102344682D01*
X142849670Y-102350877D01*
X142981296Y-102364711D01*
X142981298Y-102364711D01*
X142987425Y-102365355D01*
X143069924Y-102357847D01*
X143178249Y-102347989D01*
X143178252Y-102347988D01*
X143184388Y-102347430D01*
X143190294Y-102345692D01*
X143190298Y-102345691D01*
X143207506Y-102340626D01*
X143243081Y-102335500D01*
X143344072Y-102335500D01*
X143347318Y-102335163D01*
X143347322Y-102335163D01*
X143441235Y-102325419D01*
X143441239Y-102325418D01*
X143448093Y-102324707D01*
X143454629Y-102322526D01*
X143454631Y-102322526D01*
X143587395Y-102278232D01*
X143613107Y-102269654D01*
X143761031Y-102178116D01*
X143802294Y-102136781D01*
X143878758Y-102060184D01*
X143878762Y-102060179D01*
X143883929Y-102055003D01*
X143975209Y-101906920D01*
X144029974Y-101741809D01*
X144040500Y-101639072D01*
X144040500Y-101635766D01*
X154956000Y-101635766D01*
X154956337Y-101642282D01*
X154966075Y-101736132D01*
X154968968Y-101749528D01*
X155019488Y-101900953D01*
X155025653Y-101914115D01*
X155109426Y-102049492D01*
X155118460Y-102060890D01*
X155231129Y-102173363D01*
X155242540Y-102182375D01*
X155378063Y-102265912D01*
X155391241Y-102272056D01*
X155542766Y-102322315D01*
X155556132Y-102325181D01*
X155648770Y-102334672D01*
X155655185Y-102335000D01*
X155729385Y-102335000D01*
X155744624Y-102330525D01*
X155745829Y-102329135D01*
X155747500Y-102321452D01*
X155747500Y-101624115D01*
X155743025Y-101608876D01*
X155741635Y-101607671D01*
X155733952Y-101606000D01*
X154974115Y-101606000D01*
X154958876Y-101610475D01*
X154957671Y-101611865D01*
X154956000Y-101619548D01*
X154956000Y-101635766D01*
X144040500Y-101635766D01*
X144040500Y-101079885D01*
X154956000Y-101079885D01*
X154960475Y-101095124D01*
X154961865Y-101096329D01*
X154969548Y-101098000D01*
X155729385Y-101098000D01*
X155744624Y-101093525D01*
X155745829Y-101092135D01*
X155747500Y-101084452D01*
X155747500Y-100387115D01*
X155743025Y-100371876D01*
X155741635Y-100370671D01*
X155733952Y-100369000D01*
X155655234Y-100369000D01*
X155648718Y-100369337D01*
X155554868Y-100379075D01*
X155541472Y-100381968D01*
X155390047Y-100432488D01*
X155376885Y-100438653D01*
X155241508Y-100522426D01*
X155230110Y-100531460D01*
X155117637Y-100644129D01*
X155108625Y-100655540D01*
X155025088Y-100791063D01*
X155018944Y-100804241D01*
X154968685Y-100955766D01*
X154965819Y-100969132D01*
X154956328Y-101061770D01*
X154956000Y-101068185D01*
X154956000Y-101079885D01*
X144040500Y-101079885D01*
X144040500Y-101064928D01*
X144040163Y-101061678D01*
X144030419Y-100967765D01*
X144030418Y-100967761D01*
X144029707Y-100960907D01*
X144024544Y-100945430D01*
X144009476Y-100900267D01*
X144003000Y-100860391D01*
X144003000Y-99216885D01*
X144023002Y-99148764D01*
X144058999Y-99112120D01*
X144228400Y-98998931D01*
X144228408Y-98998925D01*
X144231838Y-98996633D01*
X144232937Y-98995669D01*
X150328001Y-98995669D01*
X150328371Y-99002490D01*
X150333895Y-99053352D01*
X150337521Y-99068604D01*
X150382676Y-99189054D01*
X150391214Y-99204649D01*
X150467715Y-99306724D01*
X150480276Y-99319285D01*
X150582351Y-99395786D01*
X150597946Y-99404324D01*
X150718394Y-99449478D01*
X150733649Y-99453105D01*
X150784514Y-99458631D01*
X150791328Y-99459000D01*
X152313885Y-99459000D01*
X152329124Y-99454525D01*
X152330329Y-99453135D01*
X152332000Y-99445452D01*
X152332000Y-99440884D01*
X152840000Y-99440884D01*
X152844475Y-99456123D01*
X152845865Y-99457328D01*
X152853548Y-99458999D01*
X154380669Y-99458999D01*
X154387490Y-99458629D01*
X154438352Y-99453105D01*
X154453604Y-99449479D01*
X154574054Y-99404324D01*
X154589649Y-99395786D01*
X154691724Y-99319285D01*
X154704285Y-99306724D01*
X154780786Y-99204649D01*
X154789324Y-99189054D01*
X154834478Y-99068606D01*
X154838105Y-99053351D01*
X154843631Y-99002486D01*
X154844000Y-98995672D01*
X154844000Y-97473115D01*
X154839525Y-97457876D01*
X154838135Y-97456671D01*
X154830452Y-97455000D01*
X152858115Y-97455000D01*
X152842876Y-97459475D01*
X152841671Y-97460865D01*
X152840000Y-97468548D01*
X152840000Y-99440884D01*
X152332000Y-99440884D01*
X152332000Y-97473115D01*
X152327525Y-97457876D01*
X152326135Y-97456671D01*
X152318452Y-97455000D01*
X150346116Y-97455000D01*
X150330877Y-97459475D01*
X150329672Y-97460865D01*
X150328001Y-97468548D01*
X150328001Y-98995669D01*
X144232937Y-98995669D01*
X144234932Y-98993919D01*
X144234938Y-98993915D01*
X144451338Y-98804136D01*
X144454427Y-98801427D01*
X144457136Y-98798338D01*
X144646915Y-98581938D01*
X144646919Y-98581932D01*
X144649633Y-98578838D01*
X144814115Y-98332673D01*
X144945059Y-98067145D01*
X145040224Y-97786797D01*
X145097983Y-97496426D01*
X145099811Y-97468548D01*
X145117076Y-97205119D01*
X145117346Y-97201000D01*
X155322654Y-97201000D01*
X155322924Y-97205119D01*
X155340190Y-97468548D01*
X155342017Y-97496426D01*
X155399776Y-97786797D01*
X155494941Y-98067145D01*
X155625885Y-98332673D01*
X155790367Y-98578838D01*
X155793081Y-98581932D01*
X155793085Y-98581938D01*
X155982864Y-98798338D01*
X155985573Y-98801427D01*
X155988662Y-98804136D01*
X156205062Y-98993915D01*
X156205068Y-98993919D01*
X156208162Y-98996633D01*
X156211588Y-98998922D01*
X156211593Y-98998926D01*
X156381001Y-99112120D01*
X156454327Y-99161115D01*
X156458024Y-99162938D01*
X156458031Y-99162942D01*
X156647728Y-99256490D01*
X156699977Y-99304558D01*
X156718000Y-99369496D01*
X156718000Y-100292640D01*
X156697998Y-100360761D01*
X156644342Y-100407254D01*
X156574068Y-100417358D01*
X156552333Y-100412233D01*
X156460234Y-100381685D01*
X156446868Y-100378819D01*
X156354230Y-100369328D01*
X156347815Y-100369000D01*
X156273615Y-100369000D01*
X156258376Y-100373475D01*
X156257171Y-100374865D01*
X156255500Y-100382548D01*
X156255500Y-102316885D01*
X156259975Y-102332124D01*
X156261365Y-102333329D01*
X156269048Y-102335000D01*
X156347766Y-102335000D01*
X156354282Y-102334663D01*
X156448132Y-102324925D01*
X156461528Y-102322032D01*
X156612953Y-102271512D01*
X156626115Y-102265347D01*
X156761492Y-102181574D01*
X156772894Y-102172536D01*
X156774567Y-102170861D01*
X156775993Y-102170081D01*
X156778627Y-102167993D01*
X156778984Y-102168444D01*
X156836849Y-102136781D01*
X156907669Y-102141784D01*
X156952754Y-102170701D01*
X156955421Y-102173363D01*
X156960997Y-102178929D01*
X157109080Y-102270209D01*
X157274191Y-102324974D01*
X157281027Y-102325674D01*
X157281030Y-102325675D01*
X157328370Y-102330525D01*
X157376928Y-102335500D01*
X157474015Y-102335500D01*
X157511267Y-102341133D01*
X157522732Y-102344682D01*
X157581670Y-102350877D01*
X157713296Y-102364711D01*
X157713298Y-102364711D01*
X157719425Y-102365355D01*
X157801924Y-102357847D01*
X157910249Y-102347989D01*
X157910252Y-102347988D01*
X157916388Y-102347430D01*
X157922294Y-102345692D01*
X157922298Y-102345691D01*
X157939506Y-102340626D01*
X157975081Y-102335500D01*
X158076072Y-102335500D01*
X158079318Y-102335163D01*
X158079322Y-102335163D01*
X158173235Y-102325419D01*
X158173239Y-102325418D01*
X158180093Y-102324707D01*
X158186629Y-102322526D01*
X158186631Y-102322526D01*
X158319395Y-102278232D01*
X158345107Y-102269654D01*
X158493031Y-102178116D01*
X158534294Y-102136781D01*
X158610758Y-102060184D01*
X158610762Y-102060179D01*
X158615929Y-102055003D01*
X158707209Y-101906920D01*
X158761974Y-101741809D01*
X158772500Y-101639072D01*
X158772500Y-101064928D01*
X158772163Y-101061678D01*
X158762419Y-100967765D01*
X158762418Y-100967761D01*
X158761707Y-100960907D01*
X158756544Y-100945430D01*
X158741476Y-100900267D01*
X158735000Y-100860391D01*
X158735000Y-99216885D01*
X158755002Y-99148764D01*
X158790999Y-99112120D01*
X158960400Y-98998931D01*
X158960408Y-98998925D01*
X158963838Y-98996633D01*
X158966932Y-98993919D01*
X158966938Y-98993915D01*
X159183338Y-98804136D01*
X159186427Y-98801427D01*
X159189136Y-98798338D01*
X159378915Y-98581938D01*
X159378919Y-98581932D01*
X159381633Y-98578838D01*
X159546115Y-98332673D01*
X159677059Y-98067145D01*
X159772224Y-97786797D01*
X159829983Y-97496426D01*
X159831811Y-97468548D01*
X159849076Y-97205119D01*
X159849346Y-97201000D01*
X159847992Y-97180340D01*
X159830253Y-96909686D01*
X159830252Y-96909679D01*
X159829983Y-96905574D01*
X159772224Y-96615203D01*
X159677059Y-96334855D01*
X159546115Y-96069327D01*
X159381633Y-95823162D01*
X159378919Y-95820068D01*
X159378915Y-95820062D01*
X159189136Y-95603662D01*
X159186427Y-95600573D01*
X159183338Y-95597864D01*
X158966938Y-95408085D01*
X158966932Y-95408081D01*
X158963838Y-95405367D01*
X158960412Y-95403078D01*
X158960407Y-95403074D01*
X158721106Y-95243179D01*
X158717673Y-95240885D01*
X158713974Y-95239061D01*
X158713969Y-95239058D01*
X158577687Y-95171852D01*
X158452145Y-95109941D01*
X158448239Y-95108615D01*
X158175710Y-95016104D01*
X158175706Y-95016103D01*
X158171797Y-95014776D01*
X158167753Y-95013972D01*
X158167747Y-95013970D01*
X157885465Y-94957820D01*
X157885459Y-94957819D01*
X157881426Y-94957017D01*
X157877321Y-94956748D01*
X157877314Y-94956747D01*
X157590119Y-94937924D01*
X157586000Y-94937654D01*
X157581881Y-94937924D01*
X157294686Y-94956747D01*
X157294679Y-94956748D01*
X157290574Y-94957017D01*
X157286541Y-94957819D01*
X157286535Y-94957820D01*
X157004253Y-95013970D01*
X157004247Y-95013972D01*
X157000203Y-95014776D01*
X156996294Y-95016103D01*
X156996290Y-95016104D01*
X156723761Y-95108615D01*
X156719855Y-95109941D01*
X156594313Y-95171852D01*
X156458031Y-95239058D01*
X156458026Y-95239061D01*
X156454327Y-95240885D01*
X156450894Y-95243179D01*
X156211593Y-95403074D01*
X156211588Y-95403078D01*
X156208162Y-95405367D01*
X156205068Y-95408081D01*
X156205062Y-95408085D01*
X155988662Y-95597864D01*
X155985573Y-95600573D01*
X155982864Y-95603662D01*
X155793085Y-95820062D01*
X155793081Y-95820068D01*
X155790367Y-95823162D01*
X155625885Y-96069327D01*
X155494941Y-96334855D01*
X155399776Y-96615203D01*
X155342017Y-96905574D01*
X155341748Y-96909679D01*
X155341747Y-96909686D01*
X155324008Y-97180340D01*
X155322654Y-97201000D01*
X145117346Y-97201000D01*
X145115992Y-97180340D01*
X145099511Y-96928885D01*
X150328000Y-96928885D01*
X150332475Y-96944124D01*
X150333865Y-96945329D01*
X150341548Y-96947000D01*
X152313885Y-96947000D01*
X152329124Y-96942525D01*
X152330329Y-96941135D01*
X152332000Y-96933452D01*
X152332000Y-96928885D01*
X152840000Y-96928885D01*
X152844475Y-96944124D01*
X152845865Y-96945329D01*
X152853548Y-96947000D01*
X154825884Y-96947000D01*
X154841123Y-96942525D01*
X154842328Y-96941135D01*
X154843999Y-96933452D01*
X154843999Y-95406331D01*
X154843629Y-95399510D01*
X154838105Y-95348648D01*
X154834479Y-95333396D01*
X154789324Y-95212946D01*
X154780786Y-95197351D01*
X154704285Y-95095276D01*
X154691724Y-95082715D01*
X154589649Y-95006214D01*
X154574054Y-94997676D01*
X154453606Y-94952522D01*
X154438351Y-94948895D01*
X154387486Y-94943369D01*
X154380672Y-94943000D01*
X152858115Y-94943000D01*
X152842876Y-94947475D01*
X152841671Y-94948865D01*
X152840000Y-94956548D01*
X152840000Y-96928885D01*
X152332000Y-96928885D01*
X152332000Y-94961116D01*
X152327525Y-94945877D01*
X152326135Y-94944672D01*
X152318452Y-94943001D01*
X150791331Y-94943001D01*
X150784510Y-94943371D01*
X150733648Y-94948895D01*
X150718396Y-94952521D01*
X150597946Y-94997676D01*
X150582351Y-95006214D01*
X150480276Y-95082715D01*
X150467715Y-95095276D01*
X150391214Y-95197351D01*
X150382676Y-95212946D01*
X150337522Y-95333394D01*
X150333895Y-95348649D01*
X150328369Y-95399514D01*
X150328000Y-95406328D01*
X150328000Y-96928885D01*
X145099511Y-96928885D01*
X145098253Y-96909686D01*
X145098252Y-96909679D01*
X145097983Y-96905574D01*
X145040224Y-96615203D01*
X144945059Y-96334855D01*
X144814115Y-96069327D01*
X144649633Y-95823162D01*
X144646919Y-95820068D01*
X144646915Y-95820062D01*
X144457136Y-95603662D01*
X144454427Y-95600573D01*
X144451338Y-95597864D01*
X144234938Y-95408085D01*
X144234932Y-95408081D01*
X144231838Y-95405367D01*
X144228412Y-95403078D01*
X144228407Y-95403074D01*
X143989106Y-95243179D01*
X143985673Y-95240885D01*
X143981974Y-95239061D01*
X143981969Y-95239058D01*
X143845687Y-95171852D01*
X143720145Y-95109941D01*
X143716239Y-95108615D01*
X143443710Y-95016104D01*
X143443706Y-95016103D01*
X143439797Y-95014776D01*
X143435753Y-95013972D01*
X143435747Y-95013970D01*
X143153465Y-94957820D01*
X143153459Y-94957819D01*
X143149426Y-94957017D01*
X143145321Y-94956748D01*
X143145314Y-94956747D01*
X142858119Y-94937924D01*
X142854000Y-94937654D01*
X142849881Y-94937924D01*
X142562686Y-94956747D01*
X142562679Y-94956748D01*
X142558574Y-94957017D01*
X142554541Y-94957819D01*
X142554535Y-94957820D01*
X142272253Y-95013970D01*
X142272247Y-95013972D01*
X142268203Y-95014776D01*
X142264294Y-95016103D01*
X142264290Y-95016104D01*
X141991761Y-95108615D01*
X141987855Y-95109941D01*
X141862313Y-95171852D01*
X141726031Y-95239058D01*
X141726026Y-95239061D01*
X141722327Y-95240885D01*
X141718894Y-95243179D01*
X141479593Y-95403074D01*
X141479588Y-95403078D01*
X141476162Y-95405367D01*
X141473068Y-95408081D01*
X141473062Y-95408085D01*
X141256662Y-95597864D01*
X141253573Y-95600573D01*
X141250864Y-95603662D01*
X141061085Y-95820062D01*
X141061081Y-95820068D01*
X141058367Y-95823162D01*
X140893885Y-96069327D01*
X140762941Y-96334855D01*
X140667776Y-96615203D01*
X140610017Y-96905574D01*
X140609748Y-96909679D01*
X140609747Y-96909686D01*
X140592008Y-97180340D01*
X140590654Y-97201000D01*
X130385346Y-97201000D01*
X130383992Y-97180340D01*
X130367511Y-96928885D01*
X135596000Y-96928885D01*
X135600475Y-96944124D01*
X135601865Y-96945329D01*
X135609548Y-96947000D01*
X137581885Y-96947000D01*
X137597124Y-96942525D01*
X137598329Y-96941135D01*
X137600000Y-96933452D01*
X137600000Y-96928885D01*
X138108000Y-96928885D01*
X138112475Y-96944124D01*
X138113865Y-96945329D01*
X138121548Y-96947000D01*
X140093884Y-96947000D01*
X140109123Y-96942525D01*
X140110328Y-96941135D01*
X140111999Y-96933452D01*
X140111999Y-95406331D01*
X140111629Y-95399510D01*
X140106105Y-95348648D01*
X140102479Y-95333396D01*
X140057324Y-95212946D01*
X140048786Y-95197351D01*
X139972285Y-95095276D01*
X139959724Y-95082715D01*
X139857649Y-95006214D01*
X139842054Y-94997676D01*
X139721606Y-94952522D01*
X139706351Y-94948895D01*
X139655486Y-94943369D01*
X139648672Y-94943000D01*
X138126115Y-94943000D01*
X138110876Y-94947475D01*
X138109671Y-94948865D01*
X138108000Y-94956548D01*
X138108000Y-96928885D01*
X137600000Y-96928885D01*
X137600000Y-94961116D01*
X137595525Y-94945877D01*
X137594135Y-94944672D01*
X137586452Y-94943001D01*
X136059331Y-94943001D01*
X136052510Y-94943371D01*
X136001648Y-94948895D01*
X135986396Y-94952521D01*
X135865946Y-94997676D01*
X135850351Y-95006214D01*
X135748276Y-95082715D01*
X135735715Y-95095276D01*
X135659214Y-95197351D01*
X135650676Y-95212946D01*
X135605522Y-95333394D01*
X135601895Y-95348649D01*
X135596369Y-95399514D01*
X135596000Y-95406328D01*
X135596000Y-96928885D01*
X130367511Y-96928885D01*
X130366253Y-96909686D01*
X130366252Y-96909679D01*
X130365983Y-96905574D01*
X130308224Y-96615203D01*
X130213059Y-96334855D01*
X130082115Y-96069327D01*
X129917633Y-95823162D01*
X129914919Y-95820068D01*
X129914915Y-95820062D01*
X129725136Y-95603662D01*
X129722427Y-95600573D01*
X129719338Y-95597864D01*
X129502938Y-95408085D01*
X129502932Y-95408081D01*
X129499838Y-95405367D01*
X129496412Y-95403078D01*
X129496407Y-95403074D01*
X129257106Y-95243179D01*
X129253673Y-95240885D01*
X129249974Y-95239061D01*
X129249969Y-95239058D01*
X129113687Y-95171852D01*
X128988145Y-95109941D01*
X128984239Y-95108615D01*
X128711710Y-95016104D01*
X128711706Y-95016103D01*
X128707797Y-95014776D01*
X128703753Y-95013972D01*
X128703747Y-95013970D01*
X128421465Y-94957820D01*
X128421459Y-94957819D01*
X128417426Y-94957017D01*
X128413321Y-94956748D01*
X128413314Y-94956747D01*
X128126119Y-94937924D01*
X128122000Y-94937654D01*
X128117881Y-94937924D01*
X127830686Y-94956747D01*
X127830679Y-94956748D01*
X127826574Y-94957017D01*
X127822541Y-94957819D01*
X127822535Y-94957820D01*
X127540253Y-95013970D01*
X127540247Y-95013972D01*
X127536203Y-95014776D01*
X127532294Y-95016103D01*
X127532290Y-95016104D01*
X127259761Y-95108615D01*
X127255855Y-95109941D01*
X127130313Y-95171852D01*
X126994031Y-95239058D01*
X126994026Y-95239061D01*
X126990327Y-95240885D01*
X126986894Y-95243179D01*
X126747593Y-95403074D01*
X126747588Y-95403078D01*
X126744162Y-95405367D01*
X126741068Y-95408081D01*
X126741062Y-95408085D01*
X126524662Y-95597864D01*
X126521573Y-95600573D01*
X126518864Y-95603662D01*
X126329085Y-95820062D01*
X126329081Y-95820068D01*
X126326367Y-95823162D01*
X126161885Y-96069327D01*
X126030941Y-96334855D01*
X125935776Y-96615203D01*
X125878017Y-96905574D01*
X125877748Y-96909679D01*
X125877747Y-96909686D01*
X125860008Y-97180340D01*
X125858654Y-97201000D01*
X115653346Y-97201000D01*
X115651992Y-97180340D01*
X115635511Y-96928885D01*
X120864000Y-96928885D01*
X120868475Y-96944124D01*
X120869865Y-96945329D01*
X120877548Y-96947000D01*
X122849885Y-96947000D01*
X122865124Y-96942525D01*
X122866329Y-96941135D01*
X122868000Y-96933452D01*
X122868000Y-96928885D01*
X123376000Y-96928885D01*
X123380475Y-96944124D01*
X123381865Y-96945329D01*
X123389548Y-96947000D01*
X125361884Y-96947000D01*
X125377123Y-96942525D01*
X125378328Y-96941135D01*
X125379999Y-96933452D01*
X125379999Y-95406331D01*
X125379629Y-95399510D01*
X125374105Y-95348648D01*
X125370479Y-95333396D01*
X125325324Y-95212946D01*
X125316786Y-95197351D01*
X125240285Y-95095276D01*
X125227724Y-95082715D01*
X125125649Y-95006214D01*
X125110054Y-94997676D01*
X124989606Y-94952522D01*
X124974351Y-94948895D01*
X124923486Y-94943369D01*
X124916672Y-94943000D01*
X123394115Y-94943000D01*
X123378876Y-94947475D01*
X123377671Y-94948865D01*
X123376000Y-94956548D01*
X123376000Y-96928885D01*
X122868000Y-96928885D01*
X122868000Y-94961116D01*
X122863525Y-94945877D01*
X122862135Y-94944672D01*
X122854452Y-94943001D01*
X121327331Y-94943001D01*
X121320510Y-94943371D01*
X121269648Y-94948895D01*
X121254396Y-94952521D01*
X121133946Y-94997676D01*
X121118351Y-95006214D01*
X121016276Y-95082715D01*
X121003715Y-95095276D01*
X120927214Y-95197351D01*
X120918676Y-95212946D01*
X120873522Y-95333394D01*
X120869895Y-95348649D01*
X120864369Y-95399514D01*
X120864000Y-95406328D01*
X120864000Y-96928885D01*
X115635511Y-96928885D01*
X115634253Y-96909686D01*
X115634252Y-96909679D01*
X115633983Y-96905574D01*
X115576224Y-96615203D01*
X115481059Y-96334855D01*
X115350115Y-96069327D01*
X115185633Y-95823162D01*
X115182919Y-95820068D01*
X115182915Y-95820062D01*
X114993136Y-95603662D01*
X114990427Y-95600573D01*
X114987338Y-95597864D01*
X114770938Y-95408085D01*
X114770932Y-95408081D01*
X114767838Y-95405367D01*
X114764412Y-95403078D01*
X114764407Y-95403074D01*
X114525106Y-95243179D01*
X114521673Y-95240885D01*
X114517974Y-95239061D01*
X114517969Y-95239058D01*
X114381687Y-95171852D01*
X114256145Y-95109941D01*
X114252239Y-95108615D01*
X113979710Y-95016104D01*
X113979706Y-95016103D01*
X113975797Y-95014776D01*
X113971753Y-95013972D01*
X113971747Y-95013970D01*
X113689465Y-94957820D01*
X113689459Y-94957819D01*
X113685426Y-94957017D01*
X113681321Y-94956748D01*
X113681314Y-94956747D01*
X113394119Y-94937924D01*
X113390000Y-94937654D01*
X113385881Y-94937924D01*
X113098686Y-94956747D01*
X113098679Y-94956748D01*
X113094574Y-94957017D01*
X113090541Y-94957819D01*
X113090535Y-94957820D01*
X112808253Y-95013970D01*
X112808247Y-95013972D01*
X112804203Y-95014776D01*
X112800294Y-95016103D01*
X112800290Y-95016104D01*
X112527761Y-95108615D01*
X112523855Y-95109941D01*
X112398313Y-95171852D01*
X112262031Y-95239058D01*
X112262026Y-95239061D01*
X112258327Y-95240885D01*
X112254894Y-95243179D01*
X112015593Y-95403074D01*
X112015588Y-95403078D01*
X112012162Y-95405367D01*
X112009068Y-95408081D01*
X112009062Y-95408085D01*
X111792662Y-95597864D01*
X111789573Y-95600573D01*
X111786864Y-95603662D01*
X111597085Y-95820062D01*
X111597081Y-95820068D01*
X111594367Y-95823162D01*
X111429885Y-96069327D01*
X111298941Y-96334855D01*
X111203776Y-96615203D01*
X111146017Y-96905574D01*
X111145748Y-96909679D01*
X111145747Y-96909686D01*
X111128008Y-97180340D01*
X111126654Y-97201000D01*
X97428500Y-97201000D01*
X97428500Y-96928885D01*
X106132000Y-96928885D01*
X106136475Y-96944124D01*
X106137865Y-96945329D01*
X106145548Y-96947000D01*
X108117885Y-96947000D01*
X108133124Y-96942525D01*
X108134329Y-96941135D01*
X108136000Y-96933452D01*
X108136000Y-96928885D01*
X108644000Y-96928885D01*
X108648475Y-96944124D01*
X108649865Y-96945329D01*
X108657548Y-96947000D01*
X110629884Y-96947000D01*
X110645123Y-96942525D01*
X110646328Y-96941135D01*
X110647999Y-96933452D01*
X110647999Y-95406331D01*
X110647629Y-95399510D01*
X110642105Y-95348648D01*
X110638479Y-95333396D01*
X110593324Y-95212946D01*
X110584786Y-95197351D01*
X110508285Y-95095276D01*
X110495724Y-95082715D01*
X110393649Y-95006214D01*
X110378054Y-94997676D01*
X110257606Y-94952522D01*
X110242351Y-94948895D01*
X110191486Y-94943369D01*
X110184672Y-94943000D01*
X108662115Y-94943000D01*
X108646876Y-94947475D01*
X108645671Y-94948865D01*
X108644000Y-94956548D01*
X108644000Y-96928885D01*
X108136000Y-96928885D01*
X108136000Y-94961116D01*
X108131525Y-94945877D01*
X108130135Y-94944672D01*
X108122452Y-94943001D01*
X106595331Y-94943001D01*
X106588510Y-94943371D01*
X106537648Y-94948895D01*
X106522396Y-94952521D01*
X106401946Y-94997676D01*
X106386351Y-95006214D01*
X106284276Y-95082715D01*
X106271715Y-95095276D01*
X106195214Y-95197351D01*
X106186676Y-95212946D01*
X106141522Y-95333394D01*
X106137895Y-95348649D01*
X106132369Y-95399514D01*
X106132000Y-95406328D01*
X106132000Y-96928885D01*
X97428500Y-96928885D01*
X97428500Y-92598134D01*
X106721500Y-92598134D01*
X106728255Y-92660316D01*
X106779385Y-92796705D01*
X106866739Y-92913261D01*
X106983295Y-93000615D01*
X107119684Y-93051745D01*
X107181866Y-93058500D01*
X109278134Y-93058500D01*
X109340316Y-93051745D01*
X109476705Y-93000615D01*
X109593261Y-92913261D01*
X109680615Y-92796705D01*
X109731745Y-92660316D01*
X109738500Y-92598134D01*
X109738500Y-91949000D01*
X130397496Y-91949000D01*
X130398186Y-91955565D01*
X130415469Y-92120000D01*
X130417458Y-92138928D01*
X130476473Y-92320556D01*
X130571960Y-92485944D01*
X130576378Y-92490851D01*
X130576379Y-92490852D01*
X130672976Y-92598134D01*
X130699747Y-92627866D01*
X130754594Y-92667715D01*
X130828729Y-92721577D01*
X130854248Y-92740118D01*
X130860276Y-92742802D01*
X130860278Y-92742803D01*
X130962460Y-92788297D01*
X131028712Y-92817794D01*
X131122112Y-92837647D01*
X131209056Y-92856128D01*
X131209061Y-92856128D01*
X131215513Y-92857500D01*
X131406487Y-92857500D01*
X131412939Y-92856128D01*
X131412944Y-92856128D01*
X131499888Y-92837647D01*
X131593288Y-92817794D01*
X131659540Y-92788297D01*
X131761722Y-92742803D01*
X131761724Y-92742802D01*
X131767752Y-92740118D01*
X131793272Y-92721577D01*
X131867406Y-92667715D01*
X131922253Y-92627866D01*
X131949024Y-92598134D01*
X132045621Y-92490852D01*
X132045622Y-92490851D01*
X132050040Y-92485944D01*
X132145527Y-92320556D01*
X132204542Y-92138928D01*
X132206532Y-92120000D01*
X163785884Y-92120000D01*
X163804314Y-92330655D01*
X163805738Y-92335968D01*
X163805738Y-92335970D01*
X163845924Y-92485944D01*
X163859044Y-92534910D01*
X163861366Y-92539891D01*
X163861367Y-92539892D01*
X163913859Y-92652460D01*
X163948411Y-92726558D01*
X164069699Y-92899776D01*
X164219224Y-93049301D01*
X164392442Y-93170589D01*
X164397420Y-93172910D01*
X164397423Y-93172912D01*
X164579108Y-93257633D01*
X164584090Y-93259956D01*
X164589398Y-93261378D01*
X164589400Y-93261379D01*
X164783030Y-93313262D01*
X164783032Y-93313262D01*
X164788345Y-93314686D01*
X164999000Y-93333116D01*
X165209655Y-93314686D01*
X165214968Y-93313262D01*
X165214970Y-93313262D01*
X165408600Y-93261379D01*
X165408602Y-93261378D01*
X165413910Y-93259956D01*
X165418892Y-93257633D01*
X165600577Y-93172912D01*
X165600580Y-93172910D01*
X165605558Y-93170589D01*
X165778776Y-93049301D01*
X165928301Y-92899776D01*
X166049589Y-92726558D01*
X166084142Y-92652460D01*
X166136633Y-92539892D01*
X166136634Y-92539891D01*
X166138956Y-92534910D01*
X166152077Y-92485944D01*
X166192262Y-92335970D01*
X166192262Y-92335968D01*
X166193686Y-92330655D01*
X166212116Y-92120000D01*
X166193686Y-91909345D01*
X166155179Y-91765635D01*
X166140379Y-91710400D01*
X166140378Y-91710398D01*
X166138956Y-91705090D01*
X166089238Y-91598469D01*
X166051912Y-91518423D01*
X166051910Y-91518420D01*
X166049589Y-91513442D01*
X165928301Y-91340224D01*
X165778776Y-91190699D01*
X165605558Y-91069411D01*
X165600580Y-91067090D01*
X165600577Y-91067088D01*
X165418892Y-90982367D01*
X165418891Y-90982366D01*
X165413910Y-90980044D01*
X165408602Y-90978622D01*
X165408600Y-90978621D01*
X165214970Y-90926738D01*
X165214968Y-90926738D01*
X165209655Y-90925314D01*
X164999000Y-90906884D01*
X164788345Y-90925314D01*
X164783032Y-90926738D01*
X164783030Y-90926738D01*
X164589400Y-90978621D01*
X164589398Y-90978622D01*
X164584090Y-90980044D01*
X164579109Y-90982366D01*
X164579108Y-90982367D01*
X164397423Y-91067088D01*
X164397420Y-91067090D01*
X164392442Y-91069411D01*
X164219224Y-91190699D01*
X164069699Y-91340224D01*
X163948411Y-91513442D01*
X163946090Y-91518420D01*
X163946088Y-91518423D01*
X163908762Y-91598469D01*
X163859044Y-91705090D01*
X163857622Y-91710398D01*
X163857621Y-91710400D01*
X163842821Y-91765635D01*
X163804314Y-91909345D01*
X163785884Y-92120000D01*
X132206532Y-92120000D01*
X132221907Y-91973707D01*
X132248920Y-91908050D01*
X132258122Y-91897782D01*
X133241235Y-90914669D01*
X152741001Y-90914669D01*
X152741371Y-90921490D01*
X152746895Y-90972352D01*
X152750521Y-90987604D01*
X152795676Y-91108054D01*
X152804214Y-91123649D01*
X152880715Y-91225724D01*
X152893276Y-91238285D01*
X152995351Y-91314786D01*
X153010946Y-91323324D01*
X153131394Y-91368478D01*
X153146649Y-91372105D01*
X153197514Y-91377631D01*
X153204328Y-91378000D01*
X154726885Y-91378000D01*
X154742124Y-91373525D01*
X154743329Y-91372135D01*
X154745000Y-91364452D01*
X154745000Y-91359884D01*
X155253000Y-91359884D01*
X155257475Y-91375123D01*
X155258865Y-91376328D01*
X155266548Y-91377999D01*
X156793669Y-91377999D01*
X156800490Y-91377629D01*
X156851352Y-91372105D01*
X156866604Y-91368479D01*
X156987054Y-91323324D01*
X157002649Y-91314786D01*
X157104724Y-91238285D01*
X157117285Y-91225724D01*
X157193786Y-91123649D01*
X157202324Y-91108054D01*
X157247478Y-90987606D01*
X157251105Y-90972351D01*
X157256631Y-90921486D01*
X157257000Y-90914672D01*
X157257000Y-89392115D01*
X157252525Y-89376876D01*
X157251135Y-89375671D01*
X157243452Y-89374000D01*
X155271115Y-89374000D01*
X155255876Y-89378475D01*
X155254671Y-89379865D01*
X155253000Y-89387548D01*
X155253000Y-91359884D01*
X154745000Y-91359884D01*
X154745000Y-89392115D01*
X154740525Y-89376876D01*
X154739135Y-89375671D01*
X154731452Y-89374000D01*
X152759116Y-89374000D01*
X152743877Y-89378475D01*
X152742672Y-89379865D01*
X152741001Y-89387548D01*
X152741001Y-90914669D01*
X133241235Y-90914669D01*
X135308019Y-88847885D01*
X152741000Y-88847885D01*
X152745475Y-88863124D01*
X152746865Y-88864329D01*
X152754548Y-88866000D01*
X154726885Y-88866000D01*
X154742124Y-88861525D01*
X154743329Y-88860135D01*
X154745000Y-88852452D01*
X154745000Y-88847885D01*
X155253000Y-88847885D01*
X155257475Y-88863124D01*
X155258865Y-88864329D01*
X155266548Y-88866000D01*
X157238884Y-88866000D01*
X157254123Y-88861525D01*
X157255328Y-88860135D01*
X157256999Y-88852452D01*
X157256999Y-87325331D01*
X157256629Y-87318510D01*
X157251105Y-87267648D01*
X157247479Y-87252396D01*
X157202324Y-87131946D01*
X157193786Y-87116351D01*
X157117285Y-87014276D01*
X157104724Y-87001715D01*
X157002649Y-86925214D01*
X156987054Y-86916676D01*
X156866606Y-86871522D01*
X156851351Y-86867895D01*
X156800486Y-86862369D01*
X156793672Y-86862000D01*
X155271115Y-86862000D01*
X155255876Y-86866475D01*
X155254671Y-86867865D01*
X155253000Y-86875548D01*
X155253000Y-88847885D01*
X154745000Y-88847885D01*
X154745000Y-86880116D01*
X154740525Y-86864877D01*
X154739135Y-86863672D01*
X154731452Y-86862001D01*
X153204331Y-86862001D01*
X153197510Y-86862371D01*
X153146648Y-86867895D01*
X153131396Y-86871521D01*
X153010946Y-86916676D01*
X152995351Y-86925214D01*
X152893276Y-87001715D01*
X152880715Y-87014276D01*
X152804214Y-87116351D01*
X152795676Y-87131946D01*
X152750522Y-87252394D01*
X152746895Y-87267649D01*
X152741369Y-87318514D01*
X152741000Y-87325328D01*
X152741000Y-88847885D01*
X135308019Y-88847885D01*
X140035904Y-84120000D01*
X152735654Y-84120000D01*
X152735924Y-84124119D01*
X152754375Y-84405628D01*
X152755017Y-84415426D01*
X152755819Y-84419459D01*
X152755820Y-84419465D01*
X152811833Y-84701056D01*
X152812776Y-84705797D01*
X152814103Y-84709706D01*
X152814104Y-84709710D01*
X152906615Y-84982239D01*
X152907941Y-84986145D01*
X152960659Y-85093047D01*
X153035380Y-85244565D01*
X153038885Y-85251673D01*
X153041179Y-85255106D01*
X153171737Y-85450500D01*
X153203367Y-85497838D01*
X153206081Y-85500932D01*
X153206085Y-85500938D01*
X153301341Y-85609556D01*
X153398573Y-85720427D01*
X153401662Y-85723136D01*
X153618062Y-85912915D01*
X153618068Y-85912919D01*
X153621162Y-85915633D01*
X153624588Y-85917922D01*
X153624593Y-85917926D01*
X153795023Y-86031803D01*
X153867327Y-86080115D01*
X153871026Y-86081939D01*
X153871031Y-86081942D01*
X153999160Y-86145128D01*
X154132855Y-86211059D01*
X154136760Y-86212384D01*
X154136761Y-86212385D01*
X154409290Y-86304896D01*
X154409294Y-86304897D01*
X154413203Y-86306224D01*
X154417247Y-86307028D01*
X154417253Y-86307030D01*
X154699535Y-86363180D01*
X154699541Y-86363181D01*
X154703574Y-86363983D01*
X154707679Y-86364252D01*
X154707686Y-86364253D01*
X154994881Y-86383076D01*
X154999000Y-86383346D01*
X155003119Y-86383076D01*
X155290314Y-86364253D01*
X155290321Y-86364252D01*
X155294426Y-86363983D01*
X155298459Y-86363181D01*
X155298465Y-86363180D01*
X155580747Y-86307030D01*
X155580753Y-86307028D01*
X155584797Y-86306224D01*
X155588706Y-86304897D01*
X155588710Y-86304896D01*
X155861239Y-86212385D01*
X155861240Y-86212384D01*
X155865145Y-86211059D01*
X155998840Y-86145128D01*
X156126969Y-86081942D01*
X156126974Y-86081939D01*
X156130673Y-86080115D01*
X156174597Y-86050766D01*
X158167000Y-86050766D01*
X158167337Y-86057282D01*
X158177075Y-86151132D01*
X158179968Y-86164528D01*
X158230488Y-86315953D01*
X158236653Y-86329115D01*
X158320426Y-86464492D01*
X158329460Y-86475890D01*
X158442129Y-86588363D01*
X158453540Y-86597375D01*
X158589063Y-86680912D01*
X158602241Y-86687056D01*
X158753766Y-86737315D01*
X158767132Y-86740181D01*
X158859770Y-86749672D01*
X158866185Y-86750000D01*
X158877885Y-86750000D01*
X158893124Y-86745525D01*
X158894329Y-86744135D01*
X158896000Y-86736452D01*
X158896000Y-86731885D01*
X159404000Y-86731885D01*
X159408475Y-86747124D01*
X159409865Y-86748329D01*
X159417548Y-86750000D01*
X159433766Y-86750000D01*
X159440282Y-86749663D01*
X159534132Y-86739925D01*
X159547528Y-86737032D01*
X159698953Y-86686512D01*
X159712115Y-86680347D01*
X159847492Y-86596574D01*
X159858890Y-86587540D01*
X159971363Y-86474871D01*
X159980375Y-86463460D01*
X160063912Y-86327937D01*
X160070056Y-86314759D01*
X160120315Y-86163234D01*
X160123181Y-86149868D01*
X160132672Y-86057230D01*
X160133000Y-86050815D01*
X160133000Y-85976615D01*
X160128525Y-85961376D01*
X160127135Y-85960171D01*
X160119452Y-85958500D01*
X159422115Y-85958500D01*
X159406876Y-85962975D01*
X159405671Y-85964365D01*
X159404000Y-85972048D01*
X159404000Y-86731885D01*
X158896000Y-86731885D01*
X158896000Y-85976615D01*
X158891525Y-85961376D01*
X158890135Y-85960171D01*
X158882452Y-85958500D01*
X158185115Y-85958500D01*
X158169876Y-85962975D01*
X158168671Y-85964365D01*
X158167000Y-85972048D01*
X158167000Y-86050766D01*
X156174597Y-86050766D01*
X156202977Y-86031803D01*
X156373407Y-85917926D01*
X156373412Y-85917922D01*
X156376838Y-85915633D01*
X156379932Y-85912919D01*
X156379938Y-85912915D01*
X156596338Y-85723136D01*
X156599427Y-85720427D01*
X156696659Y-85609556D01*
X156791915Y-85500938D01*
X156791919Y-85500932D01*
X156794633Y-85497838D01*
X156826264Y-85450500D01*
X156956821Y-85255106D01*
X156959115Y-85251673D01*
X156962621Y-85244565D01*
X157054490Y-85058272D01*
X157102558Y-85006023D01*
X157167496Y-84988000D01*
X158090640Y-84988000D01*
X158158761Y-85008002D01*
X158205254Y-85061658D01*
X158215358Y-85131932D01*
X158210233Y-85153667D01*
X158179685Y-85245766D01*
X158176819Y-85259132D01*
X158167328Y-85351770D01*
X158167000Y-85358185D01*
X158167000Y-85432385D01*
X158171475Y-85447624D01*
X158172865Y-85448829D01*
X158180548Y-85450500D01*
X160114885Y-85450500D01*
X160130124Y-85446025D01*
X160131329Y-85444635D01*
X160133000Y-85436952D01*
X160133000Y-85358234D01*
X160132663Y-85351718D01*
X160122925Y-85257868D01*
X160120032Y-85244472D01*
X160069512Y-85093047D01*
X160063347Y-85079885D01*
X159979574Y-84944508D01*
X159970536Y-84933106D01*
X159968861Y-84931433D01*
X159968081Y-84930007D01*
X159965993Y-84927373D01*
X159966444Y-84927016D01*
X159934781Y-84869151D01*
X159939784Y-84798331D01*
X159968701Y-84753246D01*
X159971756Y-84750185D01*
X159976929Y-84745003D01*
X160001096Y-84705797D01*
X160064369Y-84603150D01*
X160064370Y-84603148D01*
X160068209Y-84596920D01*
X160122974Y-84431809D01*
X160124550Y-84416434D01*
X160128951Y-84373474D01*
X160133500Y-84329072D01*
X160133500Y-84231985D01*
X160139133Y-84194733D01*
X160142682Y-84183268D01*
X160157180Y-84045329D01*
X160162711Y-83992704D01*
X160162711Y-83992702D01*
X160163355Y-83986575D01*
X160145430Y-83789612D01*
X160143398Y-83782705D01*
X160138626Y-83766494D01*
X160133500Y-83730919D01*
X160133500Y-83629928D01*
X160133163Y-83626678D01*
X160123419Y-83532765D01*
X160123418Y-83532761D01*
X160122707Y-83525907D01*
X160120403Y-83518999D01*
X160069972Y-83367841D01*
X160067654Y-83360893D01*
X159976116Y-83212969D01*
X159956614Y-83193501D01*
X159858184Y-83095242D01*
X159858179Y-83095238D01*
X159853003Y-83090071D01*
X159704920Y-82998791D01*
X159539809Y-82944026D01*
X159532973Y-82943326D01*
X159532970Y-82943325D01*
X159481474Y-82938049D01*
X159437072Y-82933500D01*
X158862928Y-82933500D01*
X158859682Y-82933837D01*
X158859678Y-82933837D01*
X158765765Y-82943581D01*
X158765761Y-82943582D01*
X158758907Y-82944293D01*
X158752371Y-82946474D01*
X158752369Y-82946474D01*
X158698267Y-82964524D01*
X158658391Y-82971000D01*
X157014885Y-82971000D01*
X156946764Y-82950998D01*
X156910120Y-82915001D01*
X156796931Y-82745600D01*
X156796925Y-82745592D01*
X156794633Y-82742162D01*
X156791919Y-82739068D01*
X156791915Y-82739062D01*
X156602136Y-82522662D01*
X156599427Y-82519573D01*
X156579258Y-82501885D01*
X156379938Y-82327085D01*
X156379932Y-82327081D01*
X156376838Y-82324367D01*
X156373412Y-82322078D01*
X156373407Y-82322074D01*
X156134106Y-82162179D01*
X156130673Y-82159885D01*
X156126974Y-82158061D01*
X156126969Y-82158058D01*
X155982603Y-82086865D01*
X155865145Y-82028941D01*
X155846527Y-82022621D01*
X155588710Y-81935104D01*
X155588706Y-81935103D01*
X155584797Y-81933776D01*
X155580753Y-81932972D01*
X155580747Y-81932970D01*
X155298465Y-81876820D01*
X155298459Y-81876819D01*
X155294426Y-81876017D01*
X155290321Y-81875748D01*
X155290314Y-81875747D01*
X155019660Y-81858008D01*
X154999000Y-81856654D01*
X154978340Y-81858008D01*
X154707686Y-81875747D01*
X154707679Y-81875748D01*
X154703574Y-81876017D01*
X154699541Y-81876819D01*
X154699535Y-81876820D01*
X154417253Y-81932970D01*
X154417247Y-81932972D01*
X154413203Y-81933776D01*
X154409294Y-81935103D01*
X154409290Y-81935104D01*
X154151473Y-82022621D01*
X154132855Y-82028941D01*
X154015397Y-82086865D01*
X153871031Y-82158058D01*
X153871026Y-82158061D01*
X153867327Y-82159885D01*
X153863894Y-82162179D01*
X153624593Y-82322074D01*
X153624588Y-82322078D01*
X153621162Y-82324367D01*
X153618068Y-82327081D01*
X153618062Y-82327085D01*
X153418742Y-82501885D01*
X153398573Y-82519573D01*
X153395864Y-82522662D01*
X153206085Y-82739062D01*
X153206081Y-82739068D01*
X153203367Y-82742162D01*
X153201078Y-82745588D01*
X153201074Y-82745593D01*
X153099574Y-82897500D01*
X153038885Y-82988327D01*
X153037061Y-82992026D01*
X153037058Y-82992031D01*
X152988710Y-83090071D01*
X152907941Y-83253855D01*
X152906616Y-83257760D01*
X152906615Y-83257761D01*
X152821811Y-83507588D01*
X152812776Y-83534203D01*
X152811972Y-83538247D01*
X152811970Y-83538253D01*
X152763315Y-83782860D01*
X152755017Y-83824574D01*
X152754748Y-83828679D01*
X152754747Y-83828686D01*
X152741050Y-84037675D01*
X152735654Y-84120000D01*
X140035904Y-84120000D01*
X140071499Y-84084405D01*
X140133811Y-84050379D01*
X140160594Y-84047500D01*
X140503072Y-84047500D01*
X140506318Y-84047163D01*
X140506322Y-84047163D01*
X140600235Y-84037419D01*
X140600239Y-84037418D01*
X140607093Y-84036707D01*
X140613629Y-84034526D01*
X140613631Y-84034526D01*
X140757357Y-83986575D01*
X140772107Y-83981654D01*
X140920031Y-83890116D01*
X141027101Y-83782859D01*
X141089382Y-83748780D01*
X141160202Y-83753783D01*
X141205291Y-83782704D01*
X141308129Y-83885363D01*
X141319540Y-83894375D01*
X141455063Y-83977912D01*
X141468241Y-83984056D01*
X141619766Y-84034315D01*
X141633132Y-84037181D01*
X141725770Y-84046672D01*
X141732185Y-84047000D01*
X141756385Y-84047000D01*
X141771624Y-84042525D01*
X141772829Y-84041135D01*
X141774500Y-84033452D01*
X141774500Y-84028885D01*
X142282500Y-84028885D01*
X142286975Y-84044124D01*
X142288365Y-84045329D01*
X142296048Y-84047000D01*
X142324766Y-84047000D01*
X142331282Y-84046663D01*
X142425132Y-84036925D01*
X142438528Y-84034032D01*
X142589953Y-83983512D01*
X142603115Y-83977347D01*
X142738492Y-83893574D01*
X142749890Y-83884540D01*
X142862363Y-83771871D01*
X142871375Y-83760460D01*
X142954912Y-83624937D01*
X142961056Y-83611759D01*
X143011315Y-83460234D01*
X143014181Y-83446868D01*
X143023672Y-83354230D01*
X143024000Y-83347815D01*
X143024000Y-83347766D01*
X143780000Y-83347766D01*
X143780337Y-83354282D01*
X143790075Y-83448132D01*
X143792968Y-83461528D01*
X143843488Y-83612953D01*
X143849653Y-83626115D01*
X143933426Y-83761492D01*
X143942460Y-83772890D01*
X144055129Y-83885363D01*
X144066540Y-83894375D01*
X144202063Y-83977912D01*
X144215241Y-83984056D01*
X144366766Y-84034315D01*
X144380132Y-84037181D01*
X144472770Y-84046672D01*
X144479185Y-84047000D01*
X144503385Y-84047000D01*
X144518624Y-84042525D01*
X144519829Y-84041135D01*
X144521500Y-84033452D01*
X144521500Y-83336115D01*
X144517025Y-83320876D01*
X144515635Y-83319671D01*
X144507952Y-83318000D01*
X143798115Y-83318000D01*
X143782876Y-83322475D01*
X143781671Y-83323865D01*
X143780000Y-83331548D01*
X143780000Y-83347766D01*
X143024000Y-83347766D01*
X143024000Y-83336115D01*
X143019525Y-83320876D01*
X143018135Y-83319671D01*
X143010452Y-83318000D01*
X142300615Y-83318000D01*
X142285376Y-83322475D01*
X142284171Y-83323865D01*
X142282500Y-83331548D01*
X142282500Y-84028885D01*
X141774500Y-84028885D01*
X141774500Y-82791885D01*
X142282500Y-82791885D01*
X142286975Y-82807124D01*
X142288365Y-82808329D01*
X142296048Y-82810000D01*
X143005885Y-82810000D01*
X143021124Y-82805525D01*
X143022329Y-82804135D01*
X143024000Y-82796452D01*
X143024000Y-82780234D01*
X143023663Y-82773718D01*
X143013925Y-82679868D01*
X143011032Y-82666472D01*
X142960512Y-82515047D01*
X142954347Y-82501885D01*
X142870574Y-82366508D01*
X142861540Y-82355110D01*
X142748871Y-82242637D01*
X142737460Y-82233625D01*
X142601937Y-82150088D01*
X142588759Y-82143944D01*
X142437234Y-82093685D01*
X142423868Y-82090819D01*
X142331230Y-82081328D01*
X142324815Y-82081000D01*
X142300615Y-82081000D01*
X142285376Y-82085475D01*
X142284171Y-82086865D01*
X142282500Y-82094548D01*
X142282500Y-82791885D01*
X141774500Y-82791885D01*
X141774500Y-82099115D01*
X141770025Y-82083876D01*
X141768635Y-82082671D01*
X141760952Y-82081000D01*
X141732234Y-82081000D01*
X141725718Y-82081337D01*
X141634504Y-82090802D01*
X141564683Y-82077938D01*
X141512901Y-82029367D01*
X141495500Y-81965475D01*
X141495500Y-81804427D01*
X141515502Y-81736306D01*
X141556618Y-81696550D01*
X141559994Y-81694896D01*
X141741860Y-81565173D01*
X141900096Y-81407489D01*
X141959594Y-81324689D01*
X142030453Y-81226077D01*
X142031776Y-81227028D01*
X142078645Y-81183857D01*
X142148580Y-81171625D01*
X142214026Y-81199144D01*
X142241875Y-81230994D01*
X142301987Y-81329088D01*
X142448250Y-81497938D01*
X142620126Y-81640632D01*
X142813000Y-81753338D01*
X143021692Y-81833030D01*
X143026760Y-81834061D01*
X143026763Y-81834062D01*
X143134003Y-81855880D01*
X143240597Y-81877567D01*
X143245772Y-81877757D01*
X143245774Y-81877757D01*
X143458673Y-81885564D01*
X143458677Y-81885564D01*
X143463837Y-81885753D01*
X143468957Y-81885097D01*
X143468959Y-81885097D01*
X143571289Y-81871988D01*
X143685416Y-81857368D01*
X143821438Y-81816559D01*
X143892432Y-81816141D01*
X143946740Y-81848149D01*
X144118247Y-82019656D01*
X144152273Y-82081968D01*
X144147208Y-82152783D01*
X144104661Y-82209619D01*
X144095453Y-82215897D01*
X144065505Y-82234429D01*
X144054110Y-82243460D01*
X143941637Y-82356129D01*
X143932625Y-82367540D01*
X143849088Y-82503063D01*
X143842944Y-82516241D01*
X143792685Y-82667766D01*
X143789819Y-82681132D01*
X143780328Y-82773770D01*
X143780000Y-82780185D01*
X143780000Y-82791885D01*
X143784475Y-82807124D01*
X143785865Y-82808329D01*
X143793548Y-82810000D01*
X144856401Y-82810000D01*
X144924522Y-82830002D01*
X144945496Y-82846905D01*
X144992595Y-82894004D01*
X145026621Y-82956316D01*
X145029500Y-82983099D01*
X145029500Y-84028885D01*
X145033975Y-84044124D01*
X145035365Y-84045329D01*
X145043048Y-84047000D01*
X145071766Y-84047000D01*
X145078282Y-84046663D01*
X145172132Y-84036925D01*
X145185528Y-84034032D01*
X145336953Y-83983512D01*
X145350115Y-83977347D01*
X145485492Y-83893574D01*
X145496890Y-83884540D01*
X145598393Y-83782860D01*
X145660676Y-83748781D01*
X145731496Y-83753784D01*
X145776583Y-83782704D01*
X145884997Y-83890929D01*
X145891227Y-83894769D01*
X145891228Y-83894770D01*
X145919429Y-83912153D01*
X146033080Y-83982209D01*
X146198191Y-84036974D01*
X146205027Y-84037674D01*
X146205030Y-84037675D01*
X146252370Y-84042525D01*
X146300928Y-84047500D01*
X146900072Y-84047500D01*
X146903318Y-84047163D01*
X146903322Y-84047163D01*
X146997235Y-84037419D01*
X146997239Y-84037418D01*
X147004093Y-84036707D01*
X147010629Y-84034526D01*
X147010631Y-84034526D01*
X147154357Y-83986575D01*
X147169107Y-83981654D01*
X147317031Y-83890116D01*
X147382459Y-83824574D01*
X147434758Y-83772184D01*
X147434762Y-83772179D01*
X147439929Y-83767003D01*
X147465662Y-83725256D01*
X147527369Y-83625150D01*
X147527370Y-83625148D01*
X147531209Y-83618920D01*
X147585974Y-83453809D01*
X147596500Y-83351072D01*
X147596500Y-82776928D01*
X147596163Y-82773678D01*
X147586419Y-82679765D01*
X147586418Y-82679761D01*
X147585707Y-82672907D01*
X147530654Y-82507893D01*
X147439116Y-82359969D01*
X147411736Y-82332637D01*
X147321184Y-82242242D01*
X147321179Y-82242238D01*
X147316003Y-82237071D01*
X147271468Y-82209619D01*
X147174150Y-82149631D01*
X147174148Y-82149630D01*
X147167920Y-82145791D01*
X147002809Y-82091026D01*
X146995973Y-82090326D01*
X146995970Y-82090325D01*
X146944474Y-82085049D01*
X146900072Y-82080500D01*
X146340133Y-82080500D01*
X146272012Y-82060498D01*
X146225519Y-82006842D01*
X146215415Y-81936568D01*
X146244909Y-81871988D01*
X146303925Y-81833814D01*
X146434429Y-81794661D01*
X146434434Y-81794659D01*
X146439384Y-81793174D01*
X146639994Y-81694896D01*
X146821860Y-81565173D01*
X146980096Y-81407489D01*
X147039594Y-81324689D01*
X147110453Y-81226077D01*
X147111776Y-81227028D01*
X147158645Y-81183857D01*
X147228580Y-81171625D01*
X147294026Y-81199144D01*
X147321875Y-81230994D01*
X147381987Y-81329088D01*
X147528250Y-81497938D01*
X147700126Y-81640632D01*
X147893000Y-81753338D01*
X148101692Y-81833030D01*
X148106760Y-81834061D01*
X148106763Y-81834062D01*
X148214003Y-81855880D01*
X148320597Y-81877567D01*
X148325772Y-81877757D01*
X148325774Y-81877757D01*
X148538673Y-81885564D01*
X148538677Y-81885564D01*
X148543837Y-81885753D01*
X148548957Y-81885097D01*
X148548959Y-81885097D01*
X148760288Y-81858025D01*
X148760289Y-81858025D01*
X148765416Y-81857368D01*
X148770376Y-81855880D01*
X148974429Y-81794661D01*
X148974434Y-81794659D01*
X148979384Y-81793174D01*
X149179994Y-81694896D01*
X149361860Y-81565173D01*
X149520096Y-81407489D01*
X149579594Y-81324689D01*
X149647435Y-81230277D01*
X149650453Y-81226077D01*
X149671320Y-81183857D01*
X149702880Y-81120000D01*
X163785884Y-81120000D01*
X163804314Y-81330655D01*
X163805738Y-81335968D01*
X163805738Y-81335970D01*
X163824902Y-81407489D01*
X163859044Y-81534910D01*
X163861366Y-81539891D01*
X163861367Y-81539892D01*
X163934709Y-81697173D01*
X163948411Y-81726558D01*
X164069699Y-81899776D01*
X164219224Y-82049301D01*
X164392442Y-82170589D01*
X164397420Y-82172910D01*
X164397423Y-82172912D01*
X164526776Y-82233230D01*
X164584090Y-82259956D01*
X164589398Y-82261378D01*
X164589400Y-82261379D01*
X164783030Y-82313262D01*
X164783032Y-82313262D01*
X164788345Y-82314686D01*
X164999000Y-82333116D01*
X165209655Y-82314686D01*
X165214968Y-82313262D01*
X165214970Y-82313262D01*
X165408600Y-82261379D01*
X165408602Y-82261378D01*
X165413910Y-82259956D01*
X165471224Y-82233230D01*
X165600577Y-82172912D01*
X165600580Y-82172910D01*
X165605558Y-82170589D01*
X165778776Y-82049301D01*
X165928301Y-81899776D01*
X166049589Y-81726558D01*
X166063292Y-81697173D01*
X166136633Y-81539892D01*
X166136634Y-81539891D01*
X166138956Y-81534910D01*
X166173099Y-81407489D01*
X166192262Y-81335970D01*
X166192262Y-81335968D01*
X166193686Y-81330655D01*
X166212116Y-81120000D01*
X166193686Y-80909345D01*
X166187205Y-80885158D01*
X166140379Y-80710400D01*
X166140378Y-80710398D01*
X166138956Y-80705090D01*
X166084002Y-80587240D01*
X166051912Y-80518423D01*
X166051910Y-80518420D01*
X166049589Y-80513442D01*
X165928301Y-80340224D01*
X165778776Y-80190699D01*
X165605558Y-80069411D01*
X165600580Y-80067090D01*
X165600577Y-80067088D01*
X165418892Y-79982367D01*
X165418891Y-79982366D01*
X165413910Y-79980044D01*
X165408602Y-79978622D01*
X165408600Y-79978621D01*
X165214970Y-79926738D01*
X165214968Y-79926738D01*
X165209655Y-79925314D01*
X164999000Y-79906884D01*
X164788345Y-79925314D01*
X164783032Y-79926738D01*
X164783030Y-79926738D01*
X164589400Y-79978621D01*
X164589398Y-79978622D01*
X164584090Y-79980044D01*
X164579109Y-79982366D01*
X164579108Y-79982367D01*
X164397423Y-80067088D01*
X164397420Y-80067090D01*
X164392442Y-80069411D01*
X164219224Y-80190699D01*
X164069699Y-80340224D01*
X163948411Y-80513442D01*
X163946090Y-80518420D01*
X163946088Y-80518423D01*
X163913998Y-80587240D01*
X163859044Y-80705090D01*
X163857622Y-80710398D01*
X163857621Y-80710400D01*
X163810795Y-80885158D01*
X163804314Y-80909345D01*
X163785884Y-81120000D01*
X149702880Y-81120000D01*
X149747136Y-81030453D01*
X149747137Y-81030451D01*
X149749430Y-81025811D01*
X149814370Y-80812069D01*
X149843529Y-80590590D01*
X149845156Y-80524000D01*
X149826852Y-80301361D01*
X149772431Y-80084702D01*
X149683354Y-79879840D01*
X149613858Y-79772416D01*
X149564822Y-79696617D01*
X149564820Y-79696614D01*
X149562014Y-79692277D01*
X149411670Y-79527051D01*
X149407619Y-79523852D01*
X149407615Y-79523848D01*
X149240414Y-79391800D01*
X149240410Y-79391798D01*
X149236359Y-79388598D01*
X149040789Y-79280638D01*
X149035920Y-79278914D01*
X149035916Y-79278912D01*
X148835087Y-79207795D01*
X148835083Y-79207794D01*
X148830212Y-79206069D01*
X148825119Y-79205162D01*
X148825116Y-79205161D01*
X148615373Y-79167800D01*
X148615367Y-79167799D01*
X148610284Y-79166894D01*
X148536452Y-79165992D01*
X148392081Y-79164228D01*
X148392079Y-79164228D01*
X148386911Y-79164165D01*
X148166091Y-79197955D01*
X147953756Y-79267357D01*
X147755607Y-79370507D01*
X147751474Y-79373610D01*
X147751471Y-79373612D01*
X147582319Y-79500615D01*
X147576965Y-79504635D01*
X147422629Y-79666138D01*
X147315201Y-79823621D01*
X147260293Y-79868621D01*
X147189768Y-79876792D01*
X147126021Y-79845538D01*
X147105324Y-79821054D01*
X147024822Y-79696617D01*
X147024820Y-79696614D01*
X147022014Y-79692277D01*
X146871670Y-79527051D01*
X146867619Y-79523852D01*
X146867615Y-79523848D01*
X146700414Y-79391800D01*
X146700410Y-79391798D01*
X146696359Y-79388598D01*
X146500789Y-79280638D01*
X146495920Y-79278914D01*
X146495916Y-79278912D01*
X146295087Y-79207795D01*
X146295083Y-79207794D01*
X146290212Y-79206069D01*
X146285119Y-79205162D01*
X146285116Y-79205161D01*
X146075373Y-79167800D01*
X146075367Y-79167799D01*
X146070284Y-79166894D01*
X145996452Y-79165992D01*
X145852081Y-79164228D01*
X145852079Y-79164228D01*
X145846911Y-79164165D01*
X145626091Y-79197955D01*
X145413756Y-79267357D01*
X145215607Y-79370507D01*
X145211474Y-79373610D01*
X145211471Y-79373612D01*
X145042319Y-79500615D01*
X145036965Y-79504635D01*
X144882629Y-79666138D01*
X144775201Y-79823621D01*
X144720293Y-79868621D01*
X144649768Y-79876792D01*
X144586021Y-79845538D01*
X144565324Y-79821054D01*
X144484822Y-79696617D01*
X144484820Y-79696614D01*
X144482014Y-79692277D01*
X144331670Y-79527051D01*
X144327619Y-79523852D01*
X144327615Y-79523848D01*
X144160414Y-79391800D01*
X144160410Y-79391798D01*
X144156359Y-79388598D01*
X143960789Y-79280638D01*
X143955920Y-79278914D01*
X143955916Y-79278912D01*
X143755087Y-79207795D01*
X143755083Y-79207794D01*
X143750212Y-79206069D01*
X143745119Y-79205162D01*
X143745116Y-79205161D01*
X143668422Y-79191500D01*
X143530284Y-79166894D01*
X143513251Y-79166686D01*
X143445380Y-79145853D01*
X143425695Y-79129790D01*
X142903652Y-78607747D01*
X142896112Y-78599461D01*
X142892000Y-78592982D01*
X142842348Y-78546356D01*
X142839507Y-78543602D01*
X142819770Y-78523865D01*
X142816573Y-78521385D01*
X142807551Y-78513680D01*
X142794122Y-78501069D01*
X142775321Y-78483414D01*
X142768375Y-78479595D01*
X142768372Y-78479593D01*
X142757566Y-78473652D01*
X142741047Y-78462801D01*
X142740583Y-78462441D01*
X142725041Y-78450386D01*
X142717772Y-78447241D01*
X142717768Y-78447238D01*
X142684463Y-78432826D01*
X142673813Y-78427609D01*
X142635060Y-78406305D01*
X142615437Y-78401267D01*
X142596734Y-78394863D01*
X142585420Y-78389967D01*
X142585419Y-78389967D01*
X142578145Y-78386819D01*
X142570322Y-78385580D01*
X142570312Y-78385577D01*
X142534476Y-78379901D01*
X142522856Y-78377495D01*
X142487711Y-78368472D01*
X142487710Y-78368472D01*
X142480030Y-78366500D01*
X142459776Y-78366500D01*
X142440065Y-78364949D01*
X142427886Y-78363020D01*
X142420057Y-78361780D01*
X142390786Y-78364547D01*
X142376039Y-78365941D01*
X142364181Y-78366500D01*
X138078767Y-78366500D01*
X138067584Y-78365973D01*
X138060091Y-78364298D01*
X138052165Y-78364547D01*
X138052164Y-78364547D01*
X137992014Y-78366438D01*
X137988055Y-78366500D01*
X137960144Y-78366500D01*
X137956210Y-78366997D01*
X137956209Y-78366997D01*
X137956144Y-78367005D01*
X137944307Y-78367938D01*
X137912490Y-78368938D01*
X137908029Y-78369078D01*
X137900110Y-78369327D01*
X137882454Y-78374456D01*
X137880658Y-78374978D01*
X137861306Y-78378986D01*
X137854235Y-78379880D01*
X137841203Y-78381526D01*
X137833834Y-78384443D01*
X137833832Y-78384444D01*
X137800097Y-78397800D01*
X137788869Y-78401645D01*
X137746407Y-78413982D01*
X137739584Y-78418017D01*
X137739582Y-78418018D01*
X137728972Y-78424293D01*
X137711224Y-78432988D01*
X137692383Y-78440448D01*
X137685967Y-78445110D01*
X137685966Y-78445110D01*
X137656613Y-78466436D01*
X137646693Y-78472952D01*
X137615465Y-78491420D01*
X137615462Y-78491422D01*
X137608638Y-78495458D01*
X137594317Y-78509779D01*
X137579284Y-78522619D01*
X137562893Y-78534528D01*
X137554217Y-78545016D01*
X137534702Y-78568605D01*
X137526712Y-78577384D01*
X131833747Y-84270348D01*
X131825461Y-84277888D01*
X131818982Y-84282000D01*
X131813557Y-84287777D01*
X131772357Y-84331651D01*
X131769602Y-84334493D01*
X131749865Y-84354230D01*
X131747385Y-84357427D01*
X131739682Y-84366447D01*
X131709414Y-84398679D01*
X131705595Y-84405625D01*
X131705593Y-84405628D01*
X131699652Y-84416434D01*
X131688801Y-84432953D01*
X131676386Y-84448959D01*
X131673241Y-84456228D01*
X131673238Y-84456232D01*
X131658826Y-84489537D01*
X131653609Y-84500188D01*
X131636802Y-84530760D01*
X131636786Y-84530789D01*
X131614499Y-84558911D01*
X131614747Y-84559134D01*
X131486960Y-84701056D01*
X131483659Y-84706774D01*
X131402845Y-84846748D01*
X131391473Y-84866444D01*
X131332458Y-85048072D01*
X131312496Y-85238000D01*
X131313186Y-85244565D01*
X131324454Y-85351770D01*
X131332458Y-85427928D01*
X131391473Y-85609556D01*
X131486960Y-85774944D01*
X131614747Y-85916866D01*
X131769248Y-86029118D01*
X131775276Y-86031802D01*
X131775278Y-86031803D01*
X131887893Y-86081942D01*
X131943712Y-86106794D01*
X132037113Y-86126647D01*
X132124056Y-86145128D01*
X132124061Y-86145128D01*
X132130513Y-86146500D01*
X132321487Y-86146500D01*
X132327939Y-86145128D01*
X132327944Y-86145128D01*
X132414888Y-86126647D01*
X132508288Y-86106794D01*
X132564107Y-86081942D01*
X132676722Y-86031803D01*
X132676724Y-86031802D01*
X132682752Y-86029118D01*
X132837253Y-85916866D01*
X132965040Y-85774944D01*
X133060527Y-85609556D01*
X133119542Y-85427928D01*
X133127547Y-85351770D01*
X133138814Y-85244565D01*
X133139504Y-85238000D01*
X133119542Y-85048072D01*
X133076768Y-84916428D01*
X133074740Y-84845462D01*
X133107506Y-84788398D01*
X136870420Y-81025485D01*
X136932732Y-80991459D01*
X137003548Y-80996524D01*
X137060383Y-81039071D01*
X137076258Y-81067177D01*
X137103320Y-81133826D01*
X137103325Y-81133836D01*
X137105266Y-81138616D01*
X137156019Y-81221438D01*
X137219291Y-81324688D01*
X137221987Y-81329088D01*
X137368250Y-81497938D01*
X137540126Y-81640632D01*
X137733000Y-81753338D01*
X137941692Y-81833030D01*
X137946760Y-81834061D01*
X137946763Y-81834062D01*
X138054003Y-81855880D01*
X138160597Y-81877567D01*
X138165772Y-81877757D01*
X138165774Y-81877757D01*
X138378673Y-81885564D01*
X138378677Y-81885564D01*
X138383837Y-81885753D01*
X138388957Y-81885097D01*
X138388959Y-81885097D01*
X138600288Y-81858025D01*
X138600289Y-81858025D01*
X138605416Y-81857368D01*
X138610376Y-81855880D01*
X138814429Y-81794661D01*
X138814434Y-81794659D01*
X138819384Y-81793174D01*
X139019994Y-81694896D01*
X139201860Y-81565173D01*
X139360096Y-81407489D01*
X139419594Y-81324689D01*
X139490453Y-81226077D01*
X139491776Y-81227028D01*
X139538645Y-81183857D01*
X139608580Y-81171625D01*
X139674026Y-81199144D01*
X139701875Y-81230994D01*
X139743678Y-81299210D01*
X139762216Y-81367743D01*
X139755523Y-81405650D01*
X139474002Y-82232619D01*
X139443897Y-82281031D01*
X139410301Y-82314686D01*
X139364071Y-82360997D01*
X139360231Y-82367227D01*
X139277364Y-82501662D01*
X139272791Y-82509080D01*
X139218026Y-82674191D01*
X139207500Y-82776928D01*
X139207500Y-83104406D01*
X139187498Y-83172527D01*
X139170595Y-83193501D01*
X131360500Y-91003595D01*
X131298188Y-91037621D01*
X131271405Y-91040500D01*
X131215513Y-91040500D01*
X131209061Y-91041872D01*
X131209056Y-91041872D01*
X131122112Y-91060353D01*
X131028712Y-91080206D01*
X131022682Y-91082891D01*
X131022681Y-91082891D01*
X130860278Y-91155197D01*
X130860276Y-91155198D01*
X130854248Y-91157882D01*
X130699747Y-91270134D01*
X130695326Y-91275044D01*
X130695325Y-91275045D01*
X130604130Y-91376328D01*
X130571960Y-91412056D01*
X130476473Y-91577444D01*
X130417458Y-91759072D01*
X130397496Y-91949000D01*
X109738500Y-91949000D01*
X109738500Y-91601866D01*
X109731745Y-91539684D01*
X109680615Y-91403295D01*
X109593261Y-91286739D01*
X109476705Y-91199385D01*
X109340316Y-91148255D01*
X109278134Y-91141500D01*
X107181866Y-91141500D01*
X107119684Y-91148255D01*
X106983295Y-91199385D01*
X106866739Y-91286739D01*
X106779385Y-91403295D01*
X106728255Y-91539684D01*
X106721500Y-91601866D01*
X106721500Y-92598134D01*
X97428500Y-92598134D01*
X97428500Y-90042309D01*
X111672000Y-90042309D01*
X111672161Y-90046822D01*
X111682395Y-90189593D01*
X111683797Y-90199025D01*
X111736271Y-90429991D01*
X111739286Y-90439611D01*
X111827907Y-90658957D01*
X111832421Y-90667972D01*
X111954975Y-90870333D01*
X111960872Y-90878509D01*
X112114205Y-91058674D01*
X112121326Y-91065795D01*
X112301491Y-91219128D01*
X112309667Y-91225025D01*
X112512028Y-91347579D01*
X112521043Y-91352093D01*
X112740389Y-91440714D01*
X112750009Y-91443729D01*
X112980975Y-91496203D01*
X112990407Y-91497605D01*
X113133178Y-91507839D01*
X113137691Y-91508000D01*
X113957885Y-91508000D01*
X113973124Y-91503525D01*
X113974329Y-91502135D01*
X113976000Y-91494452D01*
X113976000Y-91489885D01*
X114484000Y-91489885D01*
X114488475Y-91505124D01*
X114489865Y-91506329D01*
X114497548Y-91508000D01*
X115322309Y-91508000D01*
X115326822Y-91507839D01*
X115469593Y-91497605D01*
X115479025Y-91496203D01*
X115709991Y-91443729D01*
X115719611Y-91440714D01*
X115938957Y-91352093D01*
X115947972Y-91347579D01*
X116150333Y-91225025D01*
X116158509Y-91219128D01*
X116338674Y-91065795D01*
X116345795Y-91058674D01*
X116499128Y-90878509D01*
X116505025Y-90870333D01*
X116627579Y-90667972D01*
X116632093Y-90658957D01*
X116720714Y-90439611D01*
X116723729Y-90429991D01*
X116776203Y-90199025D01*
X116777605Y-90189593D01*
X116787839Y-90046822D01*
X116788000Y-90042309D01*
X116788000Y-89222115D01*
X116783525Y-89206876D01*
X116782135Y-89205671D01*
X116774452Y-89204000D01*
X114502115Y-89204000D01*
X114486876Y-89208475D01*
X114485671Y-89209865D01*
X114484000Y-89217548D01*
X114484000Y-91489885D01*
X113976000Y-91489885D01*
X113976000Y-89222115D01*
X113971525Y-89206876D01*
X113970135Y-89205671D01*
X113962452Y-89204000D01*
X111690115Y-89204000D01*
X111674876Y-89208475D01*
X111673671Y-89209865D01*
X111672000Y-89217548D01*
X111672000Y-90042309D01*
X97428500Y-90042309D01*
X97428500Y-88677885D01*
X111672000Y-88677885D01*
X111676475Y-88693124D01*
X111677865Y-88694329D01*
X111685548Y-88696000D01*
X113957885Y-88696000D01*
X113973124Y-88691525D01*
X113974329Y-88690135D01*
X113976000Y-88682452D01*
X113976000Y-88677885D01*
X114484000Y-88677885D01*
X114488475Y-88693124D01*
X114489865Y-88694329D01*
X114497548Y-88696000D01*
X116769885Y-88696000D01*
X116785124Y-88691525D01*
X116786329Y-88690135D01*
X116788000Y-88682452D01*
X116788000Y-87857691D01*
X116787839Y-87853178D01*
X116777605Y-87710407D01*
X116776203Y-87700975D01*
X116723729Y-87470009D01*
X116720714Y-87460389D01*
X116632093Y-87241043D01*
X116627579Y-87232028D01*
X116505025Y-87029667D01*
X116499128Y-87021491D01*
X116345795Y-86841326D01*
X116338674Y-86834205D01*
X116158509Y-86680872D01*
X116150333Y-86674975D01*
X115947972Y-86552421D01*
X115938957Y-86547907D01*
X115719611Y-86459286D01*
X115709991Y-86456271D01*
X115479025Y-86403797D01*
X115469593Y-86402395D01*
X115326822Y-86392161D01*
X115322309Y-86392000D01*
X114502115Y-86392000D01*
X114486876Y-86396475D01*
X114485671Y-86397865D01*
X114484000Y-86405548D01*
X114484000Y-88677885D01*
X113976000Y-88677885D01*
X113976000Y-86410115D01*
X113971525Y-86394876D01*
X113970135Y-86393671D01*
X113962452Y-86392000D01*
X113137691Y-86392000D01*
X113133178Y-86392161D01*
X112990407Y-86402395D01*
X112980975Y-86403797D01*
X112750009Y-86456271D01*
X112740389Y-86459286D01*
X112521043Y-86547907D01*
X112512028Y-86552421D01*
X112309667Y-86674975D01*
X112301491Y-86680872D01*
X112121326Y-86834205D01*
X112114205Y-86841326D01*
X111960872Y-87021491D01*
X111954975Y-87029667D01*
X111832421Y-87232028D01*
X111827907Y-87241043D01*
X111739286Y-87460389D01*
X111736271Y-87470009D01*
X111683797Y-87700975D01*
X111682395Y-87710407D01*
X111672161Y-87853178D01*
X111672000Y-87857691D01*
X111672000Y-88677885D01*
X97428500Y-88677885D01*
X97428500Y-81750000D01*
X111666441Y-81750000D01*
X111686655Y-82071299D01*
X111746980Y-82387531D01*
X111846463Y-82693709D01*
X111848150Y-82697295D01*
X111848152Y-82697299D01*
X111981848Y-82981418D01*
X111981852Y-82981425D01*
X111983536Y-82985004D01*
X112156037Y-83256822D01*
X112361246Y-83504877D01*
X112595926Y-83725256D01*
X112599128Y-83727583D01*
X112599130Y-83727584D01*
X112674996Y-83782704D01*
X112856376Y-83914484D01*
X113138490Y-84069578D01*
X113437817Y-84188089D01*
X113441647Y-84189072D01*
X113441655Y-84189075D01*
X113608780Y-84231985D01*
X113749637Y-84268151D01*
X113753565Y-84268647D01*
X113753569Y-84268648D01*
X113859263Y-84282000D01*
X114069033Y-84308500D01*
X114390967Y-84308500D01*
X114600737Y-84282000D01*
X114706431Y-84268648D01*
X114706435Y-84268647D01*
X114710363Y-84268151D01*
X114851220Y-84231985D01*
X115018345Y-84189075D01*
X115018353Y-84189072D01*
X115022183Y-84188089D01*
X115321510Y-84069578D01*
X115603624Y-83914484D01*
X115785004Y-83782704D01*
X115860870Y-83727584D01*
X115860872Y-83727583D01*
X115864074Y-83725256D01*
X116098754Y-83504877D01*
X116303963Y-83256822D01*
X116476464Y-82985004D01*
X116478148Y-82981425D01*
X116478152Y-82981418D01*
X116611848Y-82697299D01*
X116611850Y-82697295D01*
X116613537Y-82693709D01*
X116713020Y-82387531D01*
X116773345Y-82071299D01*
X116793559Y-81750000D01*
X116773345Y-81428701D01*
X116713020Y-81112469D01*
X116613537Y-80806291D01*
X116611848Y-80802701D01*
X116478152Y-80518582D01*
X116478148Y-80518575D01*
X116476464Y-80514996D01*
X116303963Y-80243178D01*
X116098754Y-79995123D01*
X115864074Y-79774744D01*
X115603624Y-79585516D01*
X115321510Y-79430422D01*
X115022183Y-79311911D01*
X115018353Y-79310928D01*
X115018345Y-79310925D01*
X114821687Y-79260432D01*
X114710363Y-79231849D01*
X114706435Y-79231353D01*
X114706431Y-79231352D01*
X114579838Y-79215360D01*
X114390967Y-79191500D01*
X114069033Y-79191500D01*
X113880162Y-79215360D01*
X113753569Y-79231352D01*
X113753565Y-79231353D01*
X113749637Y-79231849D01*
X113638313Y-79260432D01*
X113441655Y-79310925D01*
X113441647Y-79310928D01*
X113437817Y-79311911D01*
X113138490Y-79430422D01*
X112856376Y-79585516D01*
X112595926Y-79774744D01*
X112361246Y-79995123D01*
X112156037Y-80243178D01*
X111983536Y-80514996D01*
X111981852Y-80518575D01*
X111981848Y-80518582D01*
X111848152Y-80802701D01*
X111846463Y-80806291D01*
X111746980Y-81112469D01*
X111686655Y-81428701D01*
X111666441Y-81750000D01*
X97428500Y-81750000D01*
X97428500Y-79098134D01*
X106721500Y-79098134D01*
X106728255Y-79160316D01*
X106779385Y-79296705D01*
X106866739Y-79413261D01*
X106983295Y-79500615D01*
X107119684Y-79551745D01*
X107181866Y-79558500D01*
X109278134Y-79558500D01*
X109340316Y-79551745D01*
X109476705Y-79500615D01*
X109593261Y-79413261D01*
X109680615Y-79296705D01*
X109731745Y-79160316D01*
X109738500Y-79098134D01*
X109738500Y-78101866D01*
X109731745Y-78039684D01*
X109680615Y-77903295D01*
X109593261Y-77786739D01*
X109476705Y-77699385D01*
X109340316Y-77648255D01*
X109278134Y-77641500D01*
X107181866Y-77641500D01*
X107119684Y-77648255D01*
X106983295Y-77699385D01*
X106866739Y-77786739D01*
X106779385Y-77903295D01*
X106728255Y-78039684D01*
X106721500Y-78101866D01*
X106721500Y-79098134D01*
X97428500Y-79098134D01*
X97428500Y-69072918D01*
X103218917Y-69072918D01*
X103234682Y-69346320D01*
X103235507Y-69350525D01*
X103235508Y-69350533D01*
X103240368Y-69375303D01*
X103287405Y-69615053D01*
X103288792Y-69619103D01*
X103288793Y-69619108D01*
X103373238Y-69865751D01*
X103376112Y-69874144D01*
X103499160Y-70118799D01*
X103501586Y-70122328D01*
X103501589Y-70122334D01*
X103604787Y-70272487D01*
X103654274Y-70344490D01*
X103657161Y-70347663D01*
X103657162Y-70347664D01*
X103695665Y-70389978D01*
X103838582Y-70547043D01*
X104048675Y-70722707D01*
X104052316Y-70724991D01*
X104277024Y-70865951D01*
X104277028Y-70865953D01*
X104280664Y-70868234D01*
X104348544Y-70898883D01*
X104526345Y-70979164D01*
X104526349Y-70979166D01*
X104530257Y-70980930D01*
X104534377Y-70982150D01*
X104534376Y-70982150D01*
X104788723Y-71057491D01*
X104788727Y-71057492D01*
X104792836Y-71058709D01*
X104797070Y-71059357D01*
X104797075Y-71059358D01*
X105059298Y-71099483D01*
X105059300Y-71099483D01*
X105063540Y-71100132D01*
X105202912Y-71102322D01*
X105333071Y-71104367D01*
X105333077Y-71104367D01*
X105337362Y-71104434D01*
X105609235Y-71071534D01*
X105874127Y-71002041D01*
X105878087Y-71000401D01*
X105878092Y-71000399D01*
X106000631Y-70949641D01*
X106127136Y-70897241D01*
X106245359Y-70828157D01*
X106359879Y-70761237D01*
X106359880Y-70761236D01*
X106363582Y-70759073D01*
X106579089Y-70590094D01*
X106620809Y-70547043D01*
X106766686Y-70396509D01*
X106769669Y-70393431D01*
X106772202Y-70389983D01*
X106772206Y-70389978D01*
X106929257Y-70176178D01*
X106931795Y-70172723D01*
X106959838Y-70121074D01*
X107060418Y-69935830D01*
X107060419Y-69935828D01*
X107062468Y-69932054D01*
X107159269Y-69675877D01*
X107184107Y-69567427D01*
X107219449Y-69413117D01*
X107219450Y-69413113D01*
X107220407Y-69408933D01*
X107223409Y-69375303D01*
X107244531Y-69138627D01*
X107244531Y-69138625D01*
X107244751Y-69136161D01*
X107245193Y-69094000D01*
X107243756Y-69072918D01*
X109918917Y-69072918D01*
X109934682Y-69346320D01*
X109935507Y-69350525D01*
X109935508Y-69350533D01*
X109940368Y-69375303D01*
X109987405Y-69615053D01*
X109988792Y-69619103D01*
X109988793Y-69619108D01*
X110073238Y-69865751D01*
X110076112Y-69874144D01*
X110199160Y-70118799D01*
X110201586Y-70122328D01*
X110201589Y-70122334D01*
X110304787Y-70272487D01*
X110354274Y-70344490D01*
X110357161Y-70347663D01*
X110357162Y-70347664D01*
X110395665Y-70389978D01*
X110538582Y-70547043D01*
X110748675Y-70722707D01*
X110752316Y-70724991D01*
X110977024Y-70865951D01*
X110977028Y-70865953D01*
X110980664Y-70868234D01*
X111048544Y-70898883D01*
X111226345Y-70979164D01*
X111226349Y-70979166D01*
X111230257Y-70980930D01*
X111234377Y-70982150D01*
X111234376Y-70982150D01*
X111488723Y-71057491D01*
X111488727Y-71057492D01*
X111492836Y-71058709D01*
X111497070Y-71059357D01*
X111497075Y-71059358D01*
X111759298Y-71099483D01*
X111759300Y-71099483D01*
X111763540Y-71100132D01*
X111902912Y-71102322D01*
X112033071Y-71104367D01*
X112033077Y-71104367D01*
X112037362Y-71104434D01*
X112309235Y-71071534D01*
X112574127Y-71002041D01*
X112578087Y-71000401D01*
X112578092Y-71000399D01*
X112700631Y-70949641D01*
X112827136Y-70897241D01*
X112945359Y-70828157D01*
X113059879Y-70761237D01*
X113059880Y-70761236D01*
X113063582Y-70759073D01*
X113279089Y-70590094D01*
X113320809Y-70547043D01*
X113466686Y-70396509D01*
X113469669Y-70393431D01*
X113472202Y-70389983D01*
X113472206Y-70389978D01*
X113629257Y-70176178D01*
X113631795Y-70172723D01*
X113659838Y-70121074D01*
X113760418Y-69935830D01*
X113760419Y-69935828D01*
X113762468Y-69932054D01*
X113859269Y-69675877D01*
X113884107Y-69567427D01*
X113919449Y-69413117D01*
X113919450Y-69413113D01*
X113920407Y-69408933D01*
X113923409Y-69375303D01*
X113944531Y-69138627D01*
X113944531Y-69138625D01*
X113944751Y-69136161D01*
X113945193Y-69094000D01*
X113943756Y-69072918D01*
X119518917Y-69072918D01*
X119534682Y-69346320D01*
X119535507Y-69350525D01*
X119535508Y-69350533D01*
X119540368Y-69375303D01*
X119587405Y-69615053D01*
X119588792Y-69619103D01*
X119588793Y-69619108D01*
X119673238Y-69865751D01*
X119676112Y-69874144D01*
X119799160Y-70118799D01*
X119801586Y-70122328D01*
X119801589Y-70122334D01*
X119904787Y-70272487D01*
X119954274Y-70344490D01*
X119957161Y-70347663D01*
X119957162Y-70347664D01*
X119995665Y-70389978D01*
X120138582Y-70547043D01*
X120348675Y-70722707D01*
X120352316Y-70724991D01*
X120577024Y-70865951D01*
X120577028Y-70865953D01*
X120580664Y-70868234D01*
X120648544Y-70898883D01*
X120826345Y-70979164D01*
X120826349Y-70979166D01*
X120830257Y-70980930D01*
X120834377Y-70982150D01*
X120834376Y-70982150D01*
X121088723Y-71057491D01*
X121088727Y-71057492D01*
X121092836Y-71058709D01*
X121097070Y-71059357D01*
X121097075Y-71059358D01*
X121359298Y-71099483D01*
X121359300Y-71099483D01*
X121363540Y-71100132D01*
X121502912Y-71102322D01*
X121633071Y-71104367D01*
X121633077Y-71104367D01*
X121637362Y-71104434D01*
X121909235Y-71071534D01*
X122174127Y-71002041D01*
X122178087Y-71000401D01*
X122178092Y-71000399D01*
X122300631Y-70949641D01*
X122427136Y-70897241D01*
X122545359Y-70828157D01*
X122659879Y-70761237D01*
X122659880Y-70761236D01*
X122663582Y-70759073D01*
X122879089Y-70590094D01*
X122920809Y-70547043D01*
X123066686Y-70396509D01*
X123069669Y-70393431D01*
X123072202Y-70389983D01*
X123072206Y-70389978D01*
X123229257Y-70176178D01*
X123231795Y-70172723D01*
X123259838Y-70121074D01*
X123360418Y-69935830D01*
X123360419Y-69935828D01*
X123362468Y-69932054D01*
X123459269Y-69675877D01*
X123484107Y-69567427D01*
X123519449Y-69413117D01*
X123519450Y-69413113D01*
X123520407Y-69408933D01*
X123523409Y-69375303D01*
X123544531Y-69138627D01*
X123544531Y-69138625D01*
X123544751Y-69136161D01*
X123545193Y-69094000D01*
X123543756Y-69072918D01*
X126218917Y-69072918D01*
X126234682Y-69346320D01*
X126235507Y-69350525D01*
X126235508Y-69350533D01*
X126240368Y-69375303D01*
X126287405Y-69615053D01*
X126288792Y-69619103D01*
X126288793Y-69619108D01*
X126373238Y-69865751D01*
X126376112Y-69874144D01*
X126499160Y-70118799D01*
X126501586Y-70122328D01*
X126501589Y-70122334D01*
X126604787Y-70272487D01*
X126654274Y-70344490D01*
X126657161Y-70347663D01*
X126657162Y-70347664D01*
X126695665Y-70389978D01*
X126838582Y-70547043D01*
X127048675Y-70722707D01*
X127052316Y-70724991D01*
X127277024Y-70865951D01*
X127277028Y-70865953D01*
X127280664Y-70868234D01*
X127348544Y-70898883D01*
X127526345Y-70979164D01*
X127526349Y-70979166D01*
X127530257Y-70980930D01*
X127534377Y-70982150D01*
X127534376Y-70982150D01*
X127788723Y-71057491D01*
X127788727Y-71057492D01*
X127792836Y-71058709D01*
X127797070Y-71059357D01*
X127797075Y-71059358D01*
X128059298Y-71099483D01*
X128059300Y-71099483D01*
X128063540Y-71100132D01*
X128202912Y-71102322D01*
X128333071Y-71104367D01*
X128333077Y-71104367D01*
X128337362Y-71104434D01*
X128609235Y-71071534D01*
X128874127Y-71002041D01*
X128878087Y-71000401D01*
X128878092Y-71000399D01*
X129000631Y-70949641D01*
X129127136Y-70897241D01*
X129245359Y-70828157D01*
X129359879Y-70761237D01*
X129359880Y-70761236D01*
X129363582Y-70759073D01*
X129579089Y-70590094D01*
X129620809Y-70547043D01*
X129766686Y-70396509D01*
X129769669Y-70393431D01*
X129772202Y-70389983D01*
X129772206Y-70389978D01*
X129929257Y-70176178D01*
X129931795Y-70172723D01*
X129959838Y-70121074D01*
X130060418Y-69935830D01*
X130060419Y-69935828D01*
X130062468Y-69932054D01*
X130159269Y-69675877D01*
X130184107Y-69567427D01*
X130219449Y-69413117D01*
X130219450Y-69413113D01*
X130220407Y-69408933D01*
X130223409Y-69375303D01*
X130244531Y-69138627D01*
X130244531Y-69138625D01*
X130244751Y-69136161D01*
X130245193Y-69094000D01*
X130235352Y-68949637D01*
X130226859Y-68825055D01*
X130226858Y-68825049D01*
X130226567Y-68820778D01*
X130171032Y-68552612D01*
X130079617Y-68294465D01*
X129986630Y-68114307D01*
X129955978Y-68054919D01*
X129955978Y-68054918D01*
X129954013Y-68051112D01*
X129946559Y-68040505D01*
X129799008Y-67830562D01*
X129796545Y-67827057D01*
X129610125Y-67626445D01*
X129606810Y-67623731D01*
X129606806Y-67623728D01*
X129401523Y-67455706D01*
X129398205Y-67452990D01*
X129164704Y-67309901D01*
X129160768Y-67308173D01*
X128917873Y-67201549D01*
X128917869Y-67201548D01*
X128913945Y-67199825D01*
X128650566Y-67124800D01*
X128646324Y-67124196D01*
X128646318Y-67124195D01*
X128445834Y-67095662D01*
X128379443Y-67086213D01*
X128235589Y-67085460D01*
X128109877Y-67084802D01*
X128109871Y-67084802D01*
X128105591Y-67084780D01*
X128101347Y-67085339D01*
X128101343Y-67085339D01*
X127982302Y-67101011D01*
X127834078Y-67120525D01*
X127829938Y-67121658D01*
X127829936Y-67121658D01*
X127757008Y-67141609D01*
X127569928Y-67192788D01*
X127565980Y-67194472D01*
X127321982Y-67298546D01*
X127321978Y-67298548D01*
X127318030Y-67300232D01*
X127298125Y-67312145D01*
X127086725Y-67438664D01*
X127086721Y-67438667D01*
X127083043Y-67440868D01*
X126869318Y-67612094D01*
X126680808Y-67810742D01*
X126521002Y-68033136D01*
X126392857Y-68275161D01*
X126391385Y-68279184D01*
X126391383Y-68279188D01*
X126384314Y-68298506D01*
X126298743Y-68532337D01*
X126240404Y-68799907D01*
X126218917Y-69072918D01*
X123543756Y-69072918D01*
X123535352Y-68949637D01*
X123526859Y-68825055D01*
X123526858Y-68825049D01*
X123526567Y-68820778D01*
X123471032Y-68552612D01*
X123379617Y-68294465D01*
X123286630Y-68114307D01*
X123255978Y-68054919D01*
X123255978Y-68054918D01*
X123254013Y-68051112D01*
X123246559Y-68040505D01*
X123099008Y-67830562D01*
X123096545Y-67827057D01*
X122910125Y-67626445D01*
X122906810Y-67623731D01*
X122906806Y-67623728D01*
X122701523Y-67455706D01*
X122698205Y-67452990D01*
X122464704Y-67309901D01*
X122460768Y-67308173D01*
X122217873Y-67201549D01*
X122217869Y-67201548D01*
X122213945Y-67199825D01*
X121950566Y-67124800D01*
X121946324Y-67124196D01*
X121946318Y-67124195D01*
X121745834Y-67095662D01*
X121679443Y-67086213D01*
X121535589Y-67085460D01*
X121409877Y-67084802D01*
X121409871Y-67084802D01*
X121405591Y-67084780D01*
X121401347Y-67085339D01*
X121401343Y-67085339D01*
X121282302Y-67101011D01*
X121134078Y-67120525D01*
X121129938Y-67121658D01*
X121129936Y-67121658D01*
X121057008Y-67141609D01*
X120869928Y-67192788D01*
X120865980Y-67194472D01*
X120621982Y-67298546D01*
X120621978Y-67298548D01*
X120618030Y-67300232D01*
X120598125Y-67312145D01*
X120386725Y-67438664D01*
X120386721Y-67438667D01*
X120383043Y-67440868D01*
X120169318Y-67612094D01*
X119980808Y-67810742D01*
X119821002Y-68033136D01*
X119692857Y-68275161D01*
X119691385Y-68279184D01*
X119691383Y-68279188D01*
X119684314Y-68298506D01*
X119598743Y-68532337D01*
X119540404Y-68799907D01*
X119518917Y-69072918D01*
X113943756Y-69072918D01*
X113935352Y-68949637D01*
X113926859Y-68825055D01*
X113926858Y-68825049D01*
X113926567Y-68820778D01*
X113871032Y-68552612D01*
X113779617Y-68294465D01*
X113686630Y-68114307D01*
X113655978Y-68054919D01*
X113655978Y-68054918D01*
X113654013Y-68051112D01*
X113646559Y-68040505D01*
X113499008Y-67830562D01*
X113496545Y-67827057D01*
X113310125Y-67626445D01*
X113306810Y-67623731D01*
X113306806Y-67623728D01*
X113101523Y-67455706D01*
X113098205Y-67452990D01*
X112864704Y-67309901D01*
X112860768Y-67308173D01*
X112617873Y-67201549D01*
X112617869Y-67201548D01*
X112613945Y-67199825D01*
X112350566Y-67124800D01*
X112346324Y-67124196D01*
X112346318Y-67124195D01*
X112145834Y-67095662D01*
X112079443Y-67086213D01*
X111935589Y-67085460D01*
X111809877Y-67084802D01*
X111809871Y-67084802D01*
X111805591Y-67084780D01*
X111801347Y-67085339D01*
X111801343Y-67085339D01*
X111682302Y-67101011D01*
X111534078Y-67120525D01*
X111529938Y-67121658D01*
X111529936Y-67121658D01*
X111457008Y-67141609D01*
X111269928Y-67192788D01*
X111265980Y-67194472D01*
X111021982Y-67298546D01*
X111021978Y-67298548D01*
X111018030Y-67300232D01*
X110998125Y-67312145D01*
X110786725Y-67438664D01*
X110786721Y-67438667D01*
X110783043Y-67440868D01*
X110569318Y-67612094D01*
X110380808Y-67810742D01*
X110221002Y-68033136D01*
X110092857Y-68275161D01*
X110091385Y-68279184D01*
X110091383Y-68279188D01*
X110084314Y-68298506D01*
X109998743Y-68532337D01*
X109940404Y-68799907D01*
X109918917Y-69072918D01*
X107243756Y-69072918D01*
X107235352Y-68949637D01*
X107226859Y-68825055D01*
X107226858Y-68825049D01*
X107226567Y-68820778D01*
X107171032Y-68552612D01*
X107079617Y-68294465D01*
X106986630Y-68114307D01*
X106955978Y-68054919D01*
X106955978Y-68054918D01*
X106954013Y-68051112D01*
X106946559Y-68040505D01*
X106799008Y-67830562D01*
X106796545Y-67827057D01*
X106610125Y-67626445D01*
X106606810Y-67623731D01*
X106606806Y-67623728D01*
X106401523Y-67455706D01*
X106398205Y-67452990D01*
X106164704Y-67309901D01*
X106160768Y-67308173D01*
X105917873Y-67201549D01*
X105917869Y-67201548D01*
X105913945Y-67199825D01*
X105650566Y-67124800D01*
X105646324Y-67124196D01*
X105646318Y-67124195D01*
X105445834Y-67095662D01*
X105379443Y-67086213D01*
X105235589Y-67085460D01*
X105109877Y-67084802D01*
X105109871Y-67084802D01*
X105105591Y-67084780D01*
X105101347Y-67085339D01*
X105101343Y-67085339D01*
X104982302Y-67101011D01*
X104834078Y-67120525D01*
X104829938Y-67121658D01*
X104829936Y-67121658D01*
X104757008Y-67141609D01*
X104569928Y-67192788D01*
X104565980Y-67194472D01*
X104321982Y-67298546D01*
X104321978Y-67298548D01*
X104318030Y-67300232D01*
X104298125Y-67312145D01*
X104086725Y-67438664D01*
X104086721Y-67438667D01*
X104083043Y-67440868D01*
X103869318Y-67612094D01*
X103680808Y-67810742D01*
X103521002Y-68033136D01*
X103392857Y-68275161D01*
X103391385Y-68279184D01*
X103391383Y-68279188D01*
X103384314Y-68298506D01*
X103298743Y-68532337D01*
X103240404Y-68799907D01*
X103218917Y-69072918D01*
X97428500Y-69072918D01*
X97428500Y-66506000D01*
X98306526Y-66506000D01*
X98326391Y-66758403D01*
X98385495Y-67004591D01*
X98387388Y-67009162D01*
X98387389Y-67009164D01*
X98467078Y-67201549D01*
X98482384Y-67238502D01*
X98614672Y-67454376D01*
X98779102Y-67646898D01*
X98971624Y-67811328D01*
X99187498Y-67943616D01*
X99192068Y-67945509D01*
X99192072Y-67945511D01*
X99412756Y-68036921D01*
X99421409Y-68040505D01*
X99465591Y-68051112D01*
X99662784Y-68098454D01*
X99662790Y-68098455D01*
X99667597Y-68099609D01*
X99767416Y-68107465D01*
X99854345Y-68114307D01*
X99854352Y-68114307D01*
X99856801Y-68114500D01*
X99983199Y-68114500D01*
X99985648Y-68114307D01*
X99985655Y-68114307D01*
X100072584Y-68107465D01*
X100172403Y-68099609D01*
X100177210Y-68098455D01*
X100177216Y-68098454D01*
X100374409Y-68051112D01*
X100418591Y-68040505D01*
X100427244Y-68036921D01*
X100647928Y-67945511D01*
X100647932Y-67945509D01*
X100652502Y-67943616D01*
X100868376Y-67811328D01*
X101060898Y-67646898D01*
X101225328Y-67454376D01*
X101357616Y-67238502D01*
X101372923Y-67201549D01*
X101452611Y-67009164D01*
X101452612Y-67009162D01*
X101454505Y-67004591D01*
X101513609Y-66758403D01*
X101533474Y-66506000D01*
X101513609Y-66253597D01*
X101454505Y-66007409D01*
X101357616Y-65773498D01*
X101225328Y-65557624D01*
X101060898Y-65365102D01*
X100868376Y-65200672D01*
X100652502Y-65068384D01*
X100647932Y-65066491D01*
X100647928Y-65066489D01*
X100423164Y-64973389D01*
X100423162Y-64973388D01*
X100418591Y-64971495D01*
X100333968Y-64951179D01*
X100177216Y-64913546D01*
X100177210Y-64913545D01*
X100172403Y-64912391D01*
X100072584Y-64904535D01*
X99985655Y-64897693D01*
X99985648Y-64897693D01*
X99983199Y-64897500D01*
X99856801Y-64897500D01*
X99854352Y-64897693D01*
X99854345Y-64897693D01*
X99767416Y-64904535D01*
X99667597Y-64912391D01*
X99662790Y-64913545D01*
X99662784Y-64913546D01*
X99506032Y-64951179D01*
X99421409Y-64971495D01*
X99416838Y-64973388D01*
X99416836Y-64973389D01*
X99192072Y-65066489D01*
X99192068Y-65066491D01*
X99187498Y-65068384D01*
X98971624Y-65200672D01*
X98779102Y-65365102D01*
X98614672Y-65557624D01*
X98482384Y-65773498D01*
X98385495Y-66007409D01*
X98326391Y-66253597D01*
X98306526Y-66506000D01*
X97428500Y-66506000D01*
X97428500Y-64140500D01*
X97448502Y-64072379D01*
X97502158Y-64025886D01*
X97554500Y-64014500D01*
X136821371Y-64014500D01*
X136889492Y-64034502D01*
G37*
%TD.AperFunction*%
%TD*%
M02*
