%TF.GenerationSoftware,KiCad,Pcbnew,(6.0.11)*%
%TF.CreationDate,2023-08-03T09:01:04+09:00*%
%TF.ProjectId,power,706f7765-722e-46b6-9963-61645f706362,rev?*%
%TF.SameCoordinates,Original*%
%TF.FileFunction,Paste,Bot*%
%TF.FilePolarity,Positive*%
%FSLAX46Y46*%
G04 Gerber Fmt 4.6, Leading zero omitted, Abs format (unit mm)*
G04 Created by KiCad (PCBNEW (6.0.11)) date 2023-08-03 09:01:04*
%MOMM*%
%LPD*%
G01*
G04 APERTURE LIST*
G04 Aperture macros list*
%AMRoundRect*
0 Rectangle with rounded corners*
0 $1 Rounding radius*
0 $2 $3 $4 $5 $6 $7 $8 $9 X,Y pos of 4 corners*
0 Add a 4 corners polygon primitive as box body*
4,1,4,$2,$3,$4,$5,$6,$7,$8,$9,$2,$3,0*
0 Add four circle primitives for the rounded corners*
1,1,$1+$1,$2,$3*
1,1,$1+$1,$4,$5*
1,1,$1+$1,$6,$7*
1,1,$1+$1,$8,$9*
0 Add four rect primitives between the rounded corners*
20,1,$1+$1,$2,$3,$4,$5,0*
20,1,$1+$1,$4,$5,$6,$7,0*
20,1,$1+$1,$6,$7,$8,$9,0*
20,1,$1+$1,$8,$9,$2,$3,0*%
G04 Aperture macros list end*
%ADD10RoundRect,0.237500X0.237500X-0.300000X0.237500X0.300000X-0.237500X0.300000X-0.237500X-0.300000X0*%
%ADD11RoundRect,0.237500X-0.250000X-0.237500X0.250000X-0.237500X0.250000X0.237500X-0.250000X0.237500X0*%
%ADD12RoundRect,0.237500X0.237500X-0.250000X0.237500X0.250000X-0.237500X0.250000X-0.237500X-0.250000X0*%
%ADD13RoundRect,0.237500X0.250000X0.237500X-0.250000X0.237500X-0.250000X-0.237500X0.250000X-0.237500X0*%
%ADD14R,0.900000X1.200000*%
%ADD15RoundRect,0.237500X-0.237500X0.250000X-0.237500X-0.250000X0.237500X-0.250000X0.237500X0.250000X0*%
%ADD16R,1.900000X0.800000*%
%ADD17RoundRect,0.250000X-0.337500X-0.475000X0.337500X-0.475000X0.337500X0.475000X-0.337500X0.475000X0*%
G04 APERTURE END LIST*
D10*
%TO.C,C12*%
X102370000Y-101930000D03*
X102370000Y-100205000D03*
%TD*%
D11*
%TO.C,R2*%
X144537500Y-133750000D03*
X146362500Y-133750000D03*
%TD*%
D10*
%TO.C,C4*%
X167200000Y-97112500D03*
X167200000Y-95387500D03*
%TD*%
D12*
%TO.C,R3*%
X158250000Y-63662500D03*
X158250000Y-61837500D03*
%TD*%
D13*
%TO.C,R12*%
X187112500Y-94750000D03*
X185287500Y-94750000D03*
%TD*%
D14*
%TO.C,D4*%
X180300000Y-113750000D03*
X183600000Y-113750000D03*
%TD*%
D12*
%TO.C,R27*%
X176450000Y-111912500D03*
X176450000Y-110087500D03*
%TD*%
D13*
%TO.C,R20*%
X187112500Y-134180000D03*
X185287500Y-134180000D03*
%TD*%
D12*
%TO.C,R25*%
X176450000Y-75912500D03*
X176450000Y-74087500D03*
%TD*%
D15*
%TO.C,R4*%
X166662500Y-61837500D03*
X166662500Y-63662500D03*
%TD*%
D13*
%TO.C,R18*%
X187025000Y-114500000D03*
X185200000Y-114500000D03*
%TD*%
D16*
%TO.C,Q2*%
X164450000Y-61800000D03*
X164450000Y-63700000D03*
X161450000Y-62750000D03*
%TD*%
D14*
%TO.C,D3*%
X180300000Y-95750000D03*
X183600000Y-95750000D03*
%TD*%
D15*
%TO.C,R14*%
X202950000Y-96587500D03*
X202950000Y-98412500D03*
%TD*%
D13*
%TO.C,R10*%
X187112500Y-98250000D03*
X185287500Y-98250000D03*
%TD*%
%TO.C,R21*%
X187112500Y-132500000D03*
X185287500Y-132500000D03*
%TD*%
D10*
%TO.C,C14*%
X102220000Y-120042500D03*
X102220000Y-118317500D03*
%TD*%
D13*
%TO.C,R7*%
X187000000Y-80250000D03*
X185175000Y-80250000D03*
%TD*%
D15*
%TO.C,R23*%
X202950000Y-114587500D03*
X202950000Y-116412500D03*
%TD*%
D10*
%TO.C,C6*%
X167200000Y-133112500D03*
X167200000Y-131387500D03*
%TD*%
%TO.C,C3*%
X167200000Y-79112500D03*
X167200000Y-77387500D03*
%TD*%
D17*
%TO.C,C1*%
X144412500Y-131750000D03*
X146487500Y-131750000D03*
%TD*%
D13*
%TO.C,R11*%
X187112500Y-96500000D03*
X185287500Y-96500000D03*
%TD*%
%TO.C,R1*%
X142862500Y-133750000D03*
X141037500Y-133750000D03*
%TD*%
D10*
%TO.C,C11*%
X102440000Y-92912500D03*
X102440000Y-91187500D03*
%TD*%
D14*
%TO.C,D5*%
X180300000Y-131750000D03*
X183600000Y-131750000D03*
%TD*%
D13*
%TO.C,R19*%
X187025000Y-112750000D03*
X185200000Y-112750000D03*
%TD*%
D15*
%TO.C,R13*%
X202950000Y-78587500D03*
X202950000Y-80412500D03*
%TD*%
D12*
%TO.C,R28*%
X176450000Y-129912500D03*
X176450000Y-128087500D03*
%TD*%
D13*
%TO.C,R17*%
X187025000Y-116250000D03*
X185200000Y-116250000D03*
%TD*%
%TO.C,R22*%
X187112500Y-130850000D03*
X185287500Y-130850000D03*
%TD*%
D11*
%TO.C,R15*%
X176537500Y-113750000D03*
X178362500Y-113750000D03*
%TD*%
D14*
%TO.C,D2*%
X180250000Y-78000000D03*
X183550000Y-78000000D03*
%TD*%
D10*
%TO.C,C9*%
X201450000Y-116362500D03*
X201450000Y-114637500D03*
%TD*%
D12*
%TO.C,R26*%
X176450000Y-93887500D03*
X176450000Y-92062500D03*
%TD*%
D10*
%TO.C,C10*%
X201450000Y-134362500D03*
X201450000Y-132637500D03*
%TD*%
D11*
%TO.C,R16*%
X176537500Y-131750000D03*
X178362500Y-131750000D03*
%TD*%
%TO.C,R5*%
X176537500Y-78000000D03*
X178362500Y-78000000D03*
%TD*%
D10*
%TO.C,C7*%
X201450000Y-80362500D03*
X201450000Y-78637500D03*
%TD*%
D13*
%TO.C,R8*%
X187000000Y-78530000D03*
X185175000Y-78530000D03*
%TD*%
D11*
%TO.C,R6*%
X176537500Y-95750000D03*
X178362500Y-95750000D03*
%TD*%
D13*
%TO.C,R9*%
X187000000Y-76750000D03*
X185175000Y-76750000D03*
%TD*%
D10*
%TO.C,C8*%
X201450000Y-98362500D03*
X201450000Y-96637500D03*
%TD*%
%TO.C,C5*%
X167350000Y-115112500D03*
X167350000Y-113387500D03*
%TD*%
D15*
%TO.C,R24*%
X202950000Y-132587500D03*
X202950000Y-134412500D03*
%TD*%
D10*
%TO.C,C13*%
X102390000Y-110985000D03*
X102390000Y-109260000D03*
%TD*%
M02*
