%TF.GenerationSoftware,KiCad,Pcbnew,(6.0.11)*%
%TF.CreationDate,2023-08-03T09:01:04+09:00*%
%TF.ProjectId,power,706f7765-722e-46b6-9963-61645f706362,rev?*%
%TF.SameCoordinates,Original*%
%TF.FileFunction,Legend,Top*%
%TF.FilePolarity,Positive*%
%FSLAX46Y46*%
G04 Gerber Fmt 4.6, Leading zero omitted, Abs format (unit mm)*
G04 Created by KiCad (PCBNEW (6.0.11)) date 2023-08-03 09:01:04*
%MOMM*%
%LPD*%
G01*
G04 APERTURE LIST*
G04 Aperture macros list*
%AMRoundRect*
0 Rectangle with rounded corners*
0 $1 Rounding radius*
0 $2 $3 $4 $5 $6 $7 $8 $9 X,Y pos of 4 corners*
0 Add a 4 corners polygon primitive as box body*
4,1,4,$2,$3,$4,$5,$6,$7,$8,$9,$2,$3,0*
0 Add four circle primitives for the rounded corners*
1,1,$1+$1,$2,$3*
1,1,$1+$1,$4,$5*
1,1,$1+$1,$6,$7*
1,1,$1+$1,$8,$9*
0 Add four rect primitives between the rounded corners*
20,1,$1+$1,$2,$3,$4,$5,0*
20,1,$1+$1,$4,$5,$6,$7,0*
20,1,$1+$1,$6,$7,$8,$9,0*
20,1,$1+$1,$8,$9,$2,$3,0*%
%AMFreePoly0*
4,1,53,0.885000,-2.035000,0.700000,-2.035000,0.700000,-3.665000,0.695106,-3.680063,0.695106,-3.695902,0.685796,-3.708716,0.680902,-3.723779,0.668089,-3.733089,0.658779,-3.745902,0.643716,-3.750796,0.630902,-3.760106,0.615063,-3.760106,0.600000,-3.765000,-0.600000,-3.765000,-0.615063,-3.760106,-0.630902,-3.760106,-0.643716,-3.750796,-0.658779,-3.745902,-0.668089,-3.733089,-0.680902,-3.723779,
-0.685796,-3.708716,-0.695106,-3.695902,-0.695106,-3.680063,-0.700000,-3.665000,-0.700000,-2.035000,-0.885000,-2.035000,-0.885000,0.450000,-2.515000,0.450000,-2.530063,0.454894,-2.545902,0.454894,-2.558716,0.464204,-2.573779,0.469098,-2.583089,0.481911,-2.595902,0.491221,-2.600796,0.506284,-2.610106,0.519098,-2.610106,0.534937,-2.615000,0.550000,-2.615000,1.750000,-2.610106,1.765063,
-2.610106,1.780902,-2.600796,1.793716,-2.595902,1.808779,-2.583089,1.818089,-2.573779,1.830902,-2.558716,1.835796,-2.545902,1.845106,-2.530063,1.845106,-2.515000,1.850000,-0.885000,1.850000,-0.885000,2.035000,0.885000,2.035000,0.885000,-2.035000,0.885000,-2.035000,$1*%
%AMFreePoly1*
4,1,53,-0.534937,2.610106,-0.519098,2.610106,-0.506284,2.600796,-0.491221,2.595902,-0.481911,2.583089,-0.469098,2.573779,-0.464204,2.558716,-0.454894,2.545902,-0.454894,2.530063,-0.450000,2.515000,-0.450000,0.885000,0.450000,0.885000,0.450000,2.515000,0.454894,2.530063,0.454894,2.545902,0.464204,2.558716,0.469098,2.573779,0.481911,2.583089,0.491221,2.595902,0.506284,2.600796,
0.519098,2.610106,0.534937,2.610106,0.550000,2.615000,1.750000,2.615000,1.765063,2.610106,1.780902,2.610106,1.793716,2.600796,1.808779,2.595902,1.818089,2.583089,1.830902,2.573779,1.835796,2.558716,1.845106,2.545902,1.845106,2.530063,1.850000,2.515000,1.850000,0.885000,2.035000,0.885000,2.035000,-0.885000,-2.035000,-0.885000,-2.035000,0.885000,-1.850000,0.885000,
-1.850000,2.515000,-1.845106,2.530063,-1.845106,2.545902,-1.835796,2.558716,-1.830902,2.573779,-1.818089,2.583089,-1.808779,2.595902,-1.793716,2.600796,-1.780902,2.610106,-1.765063,2.610106,-1.750000,2.615000,-0.550000,2.615000,-0.534937,2.610106,-0.534937,2.610106,$1*%
%AMFreePoly2*
4,1,29,0.885000,1.850000,2.515000,1.850000,2.530063,1.845106,2.545902,1.845106,2.558716,1.835796,2.573779,1.830902,2.583089,1.818089,2.595902,1.808779,2.600796,1.793716,2.610106,1.780902,2.610106,1.765063,2.615000,1.750000,2.615000,0.550000,2.610106,0.534937,2.610106,0.519098,2.600796,0.506284,2.595902,0.491221,2.583089,0.481911,2.573779,0.469098,2.558716,0.464204,
2.545902,0.454894,2.530063,0.454894,2.515000,0.450000,0.885000,0.450000,0.885000,-2.035000,-0.885000,-2.035000,-0.885000,2.035000,0.885000,2.035000,0.885000,1.850000,0.885000,1.850000,$1*%
G04 Aperture macros list end*
%ADD10C,0.150000*%
%ADD11C,0.120000*%
%ADD12C,0.314000*%
%ADD13C,0.250000*%
%ADD14C,1.060000*%
%ADD15C,1.400000*%
%ADD16R,3.500000X3.500000*%
%ADD17C,3.500000*%
%ADD18RoundRect,0.250000X-0.337500X-0.475000X0.337500X-0.475000X0.337500X0.475000X-0.337500X0.475000X0*%
%ADD19R,0.900000X1.200000*%
%ADD20RoundRect,0.250000X0.675000X-0.600000X0.675000X0.600000X-0.675000X0.600000X-0.675000X-0.600000X0*%
%ADD21O,1.850000X1.700000*%
%ADD22RoundRect,0.381000X-0.381000X-0.381000X0.381000X-0.381000X0.381000X0.381000X-0.381000X0.381000X0*%
%ADD23C,1.524000*%
%ADD24RoundRect,0.250000X0.412500X1.100000X-0.412500X1.100000X-0.412500X-1.100000X0.412500X-1.100000X0*%
%ADD25RoundRect,0.250001X1.999999X0.799999X-1.999999X0.799999X-1.999999X-0.799999X1.999999X-0.799999X0*%
%ADD26R,3.000000X1.200000*%
%ADD27FreePoly0,270.000000*%
%ADD28FreePoly1,0.000000*%
%ADD29FreePoly2,0.000000*%
%ADD30R,1.200000X3.000000*%
%ADD31R,1.500000X1.200000*%
%ADD32R,2.200000X1.200000*%
%ADD33R,6.400000X5.800000*%
%ADD34RoundRect,0.250000X-0.675000X0.600000X-0.675000X-0.600000X0.675000X-0.600000X0.675000X0.600000X0*%
%ADD35R,1.200000X2.200000*%
%ADD36R,5.800000X6.400000*%
%ADD37C,2.780000*%
%ADD38R,1.600000X1.600000*%
%ADD39O,1.600000X1.600000*%
%ADD40O,4.000000X1.524000*%
%ADD41R,2.000000X0.900000*%
%ADD42RoundRect,1.025000X1.025000X-1.025000X1.025000X1.025000X-1.025000X1.025000X-1.025000X-1.025000X0*%
%ADD43C,4.100000*%
%ADD44RoundRect,0.200000X-0.600000X0.200000X-0.600000X-0.200000X0.600000X-0.200000X0.600000X0.200000X0*%
%ADD45RoundRect,0.250001X-1.249999X0.799999X-1.249999X-0.799999X1.249999X-0.799999X1.249999X0.799999X0*%
G04 APERTURE END LIST*
D10*
%TO.C,J12*%
X158140476Y-154402380D02*
X158140476Y-155116666D01*
X158092857Y-155259523D01*
X157997619Y-155354761D01*
X157854761Y-155402380D01*
X157759523Y-155402380D01*
X159140476Y-155402380D02*
X158569047Y-155402380D01*
X158854761Y-155402380D02*
X158854761Y-154402380D01*
X158759523Y-154545238D01*
X158664285Y-154640476D01*
X158569047Y-154688095D01*
X159521428Y-154497619D02*
X159569047Y-154450000D01*
X159664285Y-154402380D01*
X159902380Y-154402380D01*
X159997619Y-154450000D01*
X160045238Y-154497619D01*
X160092857Y-154592857D01*
X160092857Y-154688095D01*
X160045238Y-154830952D01*
X159473809Y-155402380D01*
X160092857Y-155402380D01*
X163878571Y-146457142D02*
X165021428Y-146457142D01*
X164450000Y-147028571D02*
X164450000Y-145885714D01*
X152878571Y-146457142D02*
X154021428Y-146457142D01*
%TO.C,C17*%
X186807142Y-69107142D02*
X186759523Y-69154761D01*
X186616666Y-69202380D01*
X186521428Y-69202380D01*
X186378571Y-69154761D01*
X186283333Y-69059523D01*
X186235714Y-68964285D01*
X186188095Y-68773809D01*
X186188095Y-68630952D01*
X186235714Y-68440476D01*
X186283333Y-68345238D01*
X186378571Y-68250000D01*
X186521428Y-68202380D01*
X186616666Y-68202380D01*
X186759523Y-68250000D01*
X186807142Y-68297619D01*
X187759523Y-69202380D02*
X187188095Y-69202380D01*
X187473809Y-69202380D02*
X187473809Y-68202380D01*
X187378571Y-68345238D01*
X187283333Y-68440476D01*
X187188095Y-68488095D01*
X188092857Y-68202380D02*
X188759523Y-68202380D01*
X188330952Y-69202380D01*
%TO.C,D9*%
X182211904Y-121202380D02*
X182211904Y-120202380D01*
X182450000Y-120202380D01*
X182592857Y-120250000D01*
X182688095Y-120345238D01*
X182735714Y-120440476D01*
X182783333Y-120630952D01*
X182783333Y-120773809D01*
X182735714Y-120964285D01*
X182688095Y-121059523D01*
X182592857Y-121154761D01*
X182450000Y-121202380D01*
X182211904Y-121202380D01*
X183259523Y-121202380D02*
X183450000Y-121202380D01*
X183545238Y-121154761D01*
X183592857Y-121107142D01*
X183688095Y-120964285D01*
X183735714Y-120773809D01*
X183735714Y-120392857D01*
X183688095Y-120297619D01*
X183640476Y-120250000D01*
X183545238Y-120202380D01*
X183354761Y-120202380D01*
X183259523Y-120250000D01*
X183211904Y-120297619D01*
X183164285Y-120392857D01*
X183164285Y-120630952D01*
X183211904Y-120726190D01*
X183259523Y-120773809D01*
X183354761Y-120821428D01*
X183545238Y-120821428D01*
X183640476Y-120773809D01*
X183688095Y-120726190D01*
X183735714Y-120630952D01*
%TO.C,J3*%
X202116666Y-93302380D02*
X202116666Y-94016666D01*
X202069047Y-94159523D01*
X201973809Y-94254761D01*
X201830952Y-94302380D01*
X201735714Y-94302380D01*
X202497619Y-93302380D02*
X203116666Y-93302380D01*
X202783333Y-93683333D01*
X202926190Y-93683333D01*
X203021428Y-93730952D01*
X203069047Y-93778571D01*
X203116666Y-93873809D01*
X203116666Y-94111904D01*
X203069047Y-94207142D01*
X203021428Y-94254761D01*
X202926190Y-94302380D01*
X202640476Y-94302380D01*
X202545238Y-94254761D01*
X202497619Y-94207142D01*
%TO.C,U3*%
X171988095Y-111602380D02*
X171988095Y-112411904D01*
X172035714Y-112507142D01*
X172083333Y-112554761D01*
X172178571Y-112602380D01*
X172369047Y-112602380D01*
X172464285Y-112554761D01*
X172511904Y-112507142D01*
X172559523Y-112411904D01*
X172559523Y-111602380D01*
X172940476Y-111602380D02*
X173559523Y-111602380D01*
X173226190Y-111983333D01*
X173369047Y-111983333D01*
X173464285Y-112030952D01*
X173511904Y-112078571D01*
X173559523Y-112173809D01*
X173559523Y-112411904D01*
X173511904Y-112507142D01*
X173464285Y-112554761D01*
X173369047Y-112602380D01*
X173083333Y-112602380D01*
X172988095Y-112554761D01*
X172940476Y-112507142D01*
%TO.C,C22*%
X186807142Y-123007142D02*
X186759523Y-123054761D01*
X186616666Y-123102380D01*
X186521428Y-123102380D01*
X186378571Y-123054761D01*
X186283333Y-122959523D01*
X186235714Y-122864285D01*
X186188095Y-122673809D01*
X186188095Y-122530952D01*
X186235714Y-122340476D01*
X186283333Y-122245238D01*
X186378571Y-122150000D01*
X186521428Y-122102380D01*
X186616666Y-122102380D01*
X186759523Y-122150000D01*
X186807142Y-122197619D01*
X187188095Y-122197619D02*
X187235714Y-122150000D01*
X187330952Y-122102380D01*
X187569047Y-122102380D01*
X187664285Y-122150000D01*
X187711904Y-122197619D01*
X187759523Y-122292857D01*
X187759523Y-122388095D01*
X187711904Y-122530952D01*
X187140476Y-123102380D01*
X187759523Y-123102380D01*
X188140476Y-122197619D02*
X188188095Y-122150000D01*
X188283333Y-122102380D01*
X188521428Y-122102380D01*
X188616666Y-122150000D01*
X188664285Y-122197619D01*
X188711904Y-122292857D01*
X188711904Y-122388095D01*
X188664285Y-122530952D01*
X188092857Y-123102380D01*
X188711904Y-123102380D01*
%TO.C,C15*%
X177507142Y-69107142D02*
X177459523Y-69154761D01*
X177316666Y-69202380D01*
X177221428Y-69202380D01*
X177078571Y-69154761D01*
X176983333Y-69059523D01*
X176935714Y-68964285D01*
X176888095Y-68773809D01*
X176888095Y-68630952D01*
X176935714Y-68440476D01*
X176983333Y-68345238D01*
X177078571Y-68250000D01*
X177221428Y-68202380D01*
X177316666Y-68202380D01*
X177459523Y-68250000D01*
X177507142Y-68297619D01*
X178459523Y-69202380D02*
X177888095Y-69202380D01*
X178173809Y-69202380D02*
X178173809Y-68202380D01*
X178078571Y-68345238D01*
X177983333Y-68440476D01*
X177888095Y-68488095D01*
X179364285Y-68202380D02*
X178888095Y-68202380D01*
X178840476Y-68678571D01*
X178888095Y-68630952D01*
X178983333Y-68583333D01*
X179221428Y-68583333D01*
X179316666Y-68630952D01*
X179364285Y-68678571D01*
X179411904Y-68773809D01*
X179411904Y-69011904D01*
X179364285Y-69107142D01*
X179316666Y-69154761D01*
X179221428Y-69202380D01*
X178983333Y-69202380D01*
X178888095Y-69154761D01*
X178840476Y-69107142D01*
%TO.C,J7*%
X113616666Y-154402380D02*
X113616666Y-155116666D01*
X113569047Y-155259523D01*
X113473809Y-155354761D01*
X113330952Y-155402380D01*
X113235714Y-155402380D01*
X113997619Y-154402380D02*
X114664285Y-154402380D01*
X114235714Y-155402380D01*
X211278571Y-146557142D02*
X212421428Y-146557142D01*
X118878571Y-146457142D02*
X120021428Y-146457142D01*
X119450000Y-147028571D02*
X119450000Y-145885714D01*
%TO.C,U4*%
X171888095Y-129302380D02*
X171888095Y-130111904D01*
X171935714Y-130207142D01*
X171983333Y-130254761D01*
X172078571Y-130302380D01*
X172269047Y-130302380D01*
X172364285Y-130254761D01*
X172411904Y-130207142D01*
X172459523Y-130111904D01*
X172459523Y-129302380D01*
X173364285Y-129635714D02*
X173364285Y-130302380D01*
X173126190Y-129254761D02*
X172888095Y-129969047D01*
X173507142Y-129969047D01*
%TO.C,J4*%
X202216666Y-111302380D02*
X202216666Y-112016666D01*
X202169047Y-112159523D01*
X202073809Y-112254761D01*
X201930952Y-112302380D01*
X201835714Y-112302380D01*
X203121428Y-111635714D02*
X203121428Y-112302380D01*
X202883333Y-111254761D02*
X202645238Y-111969047D01*
X203264285Y-111969047D01*
%TO.C,C21*%
X186807142Y-105007142D02*
X186759523Y-105054761D01*
X186616666Y-105102380D01*
X186521428Y-105102380D01*
X186378571Y-105054761D01*
X186283333Y-104959523D01*
X186235714Y-104864285D01*
X186188095Y-104673809D01*
X186188095Y-104530952D01*
X186235714Y-104340476D01*
X186283333Y-104245238D01*
X186378571Y-104150000D01*
X186521428Y-104102380D01*
X186616666Y-104102380D01*
X186759523Y-104150000D01*
X186807142Y-104197619D01*
X187188095Y-104197619D02*
X187235714Y-104150000D01*
X187330952Y-104102380D01*
X187569047Y-104102380D01*
X187664285Y-104150000D01*
X187711904Y-104197619D01*
X187759523Y-104292857D01*
X187759523Y-104388095D01*
X187711904Y-104530952D01*
X187140476Y-105102380D01*
X187759523Y-105102380D01*
X188711904Y-105102380D02*
X188140476Y-105102380D01*
X188426190Y-105102380D02*
X188426190Y-104102380D01*
X188330952Y-104245238D01*
X188235714Y-104340476D01*
X188140476Y-104388095D01*
%TO.C,C19*%
X177407142Y-105207142D02*
X177359523Y-105254761D01*
X177216666Y-105302380D01*
X177121428Y-105302380D01*
X176978571Y-105254761D01*
X176883333Y-105159523D01*
X176835714Y-105064285D01*
X176788095Y-104873809D01*
X176788095Y-104730952D01*
X176835714Y-104540476D01*
X176883333Y-104445238D01*
X176978571Y-104350000D01*
X177121428Y-104302380D01*
X177216666Y-104302380D01*
X177359523Y-104350000D01*
X177407142Y-104397619D01*
X178359523Y-105302380D02*
X177788095Y-105302380D01*
X178073809Y-105302380D02*
X178073809Y-104302380D01*
X177978571Y-104445238D01*
X177883333Y-104540476D01*
X177788095Y-104588095D01*
X178835714Y-105302380D02*
X179026190Y-105302380D01*
X179121428Y-105254761D01*
X179169047Y-105207142D01*
X179264285Y-105064285D01*
X179311904Y-104873809D01*
X179311904Y-104492857D01*
X179264285Y-104397619D01*
X179216666Y-104350000D01*
X179121428Y-104302380D01*
X178930952Y-104302380D01*
X178835714Y-104350000D01*
X178788095Y-104397619D01*
X178740476Y-104492857D01*
X178740476Y-104730952D01*
X178788095Y-104826190D01*
X178835714Y-104873809D01*
X178930952Y-104921428D01*
X179121428Y-104921428D01*
X179216666Y-104873809D01*
X179264285Y-104826190D01*
X179311904Y-104730952D01*
%TO.C,D6*%
X182211904Y-67252380D02*
X182211904Y-66252380D01*
X182450000Y-66252380D01*
X182592857Y-66300000D01*
X182688095Y-66395238D01*
X182735714Y-66490476D01*
X182783333Y-66680952D01*
X182783333Y-66823809D01*
X182735714Y-67014285D01*
X182688095Y-67109523D01*
X182592857Y-67204761D01*
X182450000Y-67252380D01*
X182211904Y-67252380D01*
X183640476Y-66252380D02*
X183450000Y-66252380D01*
X183354761Y-66300000D01*
X183307142Y-66347619D01*
X183211904Y-66490476D01*
X183164285Y-66680952D01*
X183164285Y-67061904D01*
X183211904Y-67157142D01*
X183259523Y-67204761D01*
X183354761Y-67252380D01*
X183545238Y-67252380D01*
X183640476Y-67204761D01*
X183688095Y-67157142D01*
X183735714Y-67061904D01*
X183735714Y-66823809D01*
X183688095Y-66728571D01*
X183640476Y-66680952D01*
X183545238Y-66633333D01*
X183354761Y-66633333D01*
X183259523Y-66680952D01*
X183211904Y-66728571D01*
X183164285Y-66823809D01*
%TO.C,C2*%
X136283333Y-126107142D02*
X136235714Y-126154761D01*
X136092857Y-126202380D01*
X135997619Y-126202380D01*
X135854761Y-126154761D01*
X135759523Y-126059523D01*
X135711904Y-125964285D01*
X135664285Y-125773809D01*
X135664285Y-125630952D01*
X135711904Y-125440476D01*
X135759523Y-125345238D01*
X135854761Y-125250000D01*
X135997619Y-125202380D01*
X136092857Y-125202380D01*
X136235714Y-125250000D01*
X136283333Y-125297619D01*
X136664285Y-125297619D02*
X136711904Y-125250000D01*
X136807142Y-125202380D01*
X137045238Y-125202380D01*
X137140476Y-125250000D01*
X137188095Y-125297619D01*
X137235714Y-125392857D01*
X137235714Y-125488095D01*
X137188095Y-125630952D01*
X136616666Y-126202380D01*
X137235714Y-126202380D01*
%TO.C,J6*%
X102802380Y-78083333D02*
X103516666Y-78083333D01*
X103659523Y-78130952D01*
X103754761Y-78226190D01*
X103802380Y-78369047D01*
X103802380Y-78464285D01*
X102802380Y-77178571D02*
X102802380Y-77369047D01*
X102850000Y-77464285D01*
X102897619Y-77511904D01*
X103040476Y-77607142D01*
X103230952Y-77654761D01*
X103611904Y-77654761D01*
X103707142Y-77607142D01*
X103754761Y-77559523D01*
X103802380Y-77464285D01*
X103802380Y-77273809D01*
X103754761Y-77178571D01*
X103707142Y-77130952D01*
X103611904Y-77083333D01*
X103373809Y-77083333D01*
X103278571Y-77130952D01*
X103230952Y-77178571D01*
X103183333Y-77273809D01*
X103183333Y-77464285D01*
X103230952Y-77559523D01*
X103278571Y-77607142D01*
X103373809Y-77654761D01*
X111732142Y-83821428D02*
X111732142Y-82678571D01*
X112303571Y-83250000D02*
X111160714Y-83250000D01*
X111732142Y-72821428D02*
X111732142Y-71678571D01*
%TO.C,C20*%
X177407142Y-123107142D02*
X177359523Y-123154761D01*
X177216666Y-123202380D01*
X177121428Y-123202380D01*
X176978571Y-123154761D01*
X176883333Y-123059523D01*
X176835714Y-122964285D01*
X176788095Y-122773809D01*
X176788095Y-122630952D01*
X176835714Y-122440476D01*
X176883333Y-122345238D01*
X176978571Y-122250000D01*
X177121428Y-122202380D01*
X177216666Y-122202380D01*
X177359523Y-122250000D01*
X177407142Y-122297619D01*
X177788095Y-122297619D02*
X177835714Y-122250000D01*
X177930952Y-122202380D01*
X178169047Y-122202380D01*
X178264285Y-122250000D01*
X178311904Y-122297619D01*
X178359523Y-122392857D01*
X178359523Y-122488095D01*
X178311904Y-122630952D01*
X177740476Y-123202380D01*
X178359523Y-123202380D01*
X178978571Y-122202380D02*
X179073809Y-122202380D01*
X179169047Y-122250000D01*
X179216666Y-122297619D01*
X179264285Y-122392857D01*
X179311904Y-122583333D01*
X179311904Y-122821428D01*
X179264285Y-123011904D01*
X179216666Y-123107142D01*
X179169047Y-123154761D01*
X179073809Y-123202380D01*
X178978571Y-123202380D01*
X178883333Y-123154761D01*
X178835714Y-123107142D01*
X178788095Y-123011904D01*
X178740476Y-122821428D01*
X178740476Y-122583333D01*
X178788095Y-122392857D01*
X178835714Y-122297619D01*
X178883333Y-122250000D01*
X178978571Y-122202380D01*
%TO.C,MD3*%
X181118878Y-112506205D02*
X181118878Y-111718803D01*
X181381345Y-112281233D01*
X181643813Y-111718803D01*
X181643813Y-112506205D01*
X182018766Y-112506205D02*
X182018766Y-111718803D01*
X182206243Y-111718803D01*
X182318729Y-111756299D01*
X182393719Y-111831289D01*
X182431215Y-111906280D01*
X182468710Y-112056261D01*
X182468710Y-112168747D01*
X182431215Y-112318729D01*
X182393719Y-112393719D01*
X182318729Y-112468710D01*
X182206243Y-112506205D01*
X182018766Y-112506205D01*
X182731177Y-111718803D02*
X183218617Y-111718803D01*
X182956149Y-112018766D01*
X183068635Y-112018766D01*
X183143626Y-112056261D01*
X183181121Y-112093757D01*
X183218617Y-112168747D01*
X183218617Y-112356224D01*
X183181121Y-112431215D01*
X183143626Y-112468710D01*
X183068635Y-112506205D01*
X182843663Y-112506205D01*
X182768673Y-112468710D01*
X182731177Y-112431215D01*
%TO.C,D8*%
X182211904Y-103202380D02*
X182211904Y-102202380D01*
X182450000Y-102202380D01*
X182592857Y-102250000D01*
X182688095Y-102345238D01*
X182735714Y-102440476D01*
X182783333Y-102630952D01*
X182783333Y-102773809D01*
X182735714Y-102964285D01*
X182688095Y-103059523D01*
X182592857Y-103154761D01*
X182450000Y-103202380D01*
X182211904Y-103202380D01*
X183354761Y-102630952D02*
X183259523Y-102583333D01*
X183211904Y-102535714D01*
X183164285Y-102440476D01*
X183164285Y-102392857D01*
X183211904Y-102297619D01*
X183259523Y-102250000D01*
X183354761Y-102202380D01*
X183545238Y-102202380D01*
X183640476Y-102250000D01*
X183688095Y-102297619D01*
X183735714Y-102392857D01*
X183735714Y-102440476D01*
X183688095Y-102535714D01*
X183640476Y-102583333D01*
X183545238Y-102630952D01*
X183354761Y-102630952D01*
X183259523Y-102678571D01*
X183211904Y-102726190D01*
X183164285Y-102821428D01*
X183164285Y-103011904D01*
X183211904Y-103107142D01*
X183259523Y-103154761D01*
X183354761Y-103202380D01*
X183545238Y-103202380D01*
X183640476Y-103154761D01*
X183688095Y-103107142D01*
X183735714Y-103011904D01*
X183735714Y-102821428D01*
X183688095Y-102726190D01*
X183640476Y-102678571D01*
X183545238Y-102630952D01*
%TO.C,J5*%
X202116666Y-129302380D02*
X202116666Y-130016666D01*
X202069047Y-130159523D01*
X201973809Y-130254761D01*
X201830952Y-130302380D01*
X201735714Y-130302380D01*
X203069047Y-129302380D02*
X202592857Y-129302380D01*
X202545238Y-129778571D01*
X202592857Y-129730952D01*
X202688095Y-129683333D01*
X202926190Y-129683333D01*
X203021428Y-129730952D01*
X203069047Y-129778571D01*
X203116666Y-129873809D01*
X203116666Y-130111904D01*
X203069047Y-130207142D01*
X203021428Y-130254761D01*
X202926190Y-130302380D01*
X202688095Y-130302380D01*
X202592857Y-130254761D01*
X202545238Y-130207142D01*
%TO.C,MD1*%
X181018878Y-76306205D02*
X181018878Y-75518803D01*
X181281345Y-76081233D01*
X181543813Y-75518803D01*
X181543813Y-76306205D01*
X181918766Y-76306205D02*
X181918766Y-75518803D01*
X182106243Y-75518803D01*
X182218729Y-75556299D01*
X182293719Y-75631289D01*
X182331215Y-75706280D01*
X182368710Y-75856261D01*
X182368710Y-75968747D01*
X182331215Y-76118729D01*
X182293719Y-76193719D01*
X182218729Y-76268710D01*
X182106243Y-76306205D01*
X181918766Y-76306205D01*
X183118617Y-76306205D02*
X182668673Y-76306205D01*
X182893645Y-76306205D02*
X182893645Y-75518803D01*
X182818654Y-75631289D01*
X182743663Y-75706280D01*
X182668673Y-75743775D01*
%TO.C,D1*%
X135411904Y-132502380D02*
X135411904Y-131502380D01*
X135650000Y-131502380D01*
X135792857Y-131550000D01*
X135888095Y-131645238D01*
X135935714Y-131740476D01*
X135983333Y-131930952D01*
X135983333Y-132073809D01*
X135935714Y-132264285D01*
X135888095Y-132359523D01*
X135792857Y-132454761D01*
X135650000Y-132502380D01*
X135411904Y-132502380D01*
X136935714Y-132502380D02*
X136364285Y-132502380D01*
X136650000Y-132502380D02*
X136650000Y-131502380D01*
X136554761Y-131645238D01*
X136459523Y-131740476D01*
X136364285Y-131788095D01*
%TO.C,U2*%
X171888095Y-93202380D02*
X171888095Y-94011904D01*
X171935714Y-94107142D01*
X171983333Y-94154761D01*
X172078571Y-94202380D01*
X172269047Y-94202380D01*
X172364285Y-94154761D01*
X172411904Y-94107142D01*
X172459523Y-94011904D01*
X172459523Y-93202380D01*
X172888095Y-93297619D02*
X172935714Y-93250000D01*
X173030952Y-93202380D01*
X173269047Y-93202380D01*
X173364285Y-93250000D01*
X173411904Y-93297619D01*
X173459523Y-93392857D01*
X173459523Y-93488095D01*
X173411904Y-93630952D01*
X172840476Y-94202380D01*
X173459523Y-94202380D01*
%TO.C,Q1*%
X135697619Y-137645238D02*
X135650000Y-137740476D01*
X135554761Y-137835714D01*
X135411904Y-137978571D01*
X135364285Y-138073809D01*
X135364285Y-138169047D01*
X135602380Y-138121428D02*
X135554761Y-138216666D01*
X135459523Y-138311904D01*
X135269047Y-138359523D01*
X134935714Y-138359523D01*
X134745238Y-138311904D01*
X134650000Y-138216666D01*
X134602380Y-138121428D01*
X134602380Y-137930952D01*
X134650000Y-137835714D01*
X134745238Y-137740476D01*
X134935714Y-137692857D01*
X135269047Y-137692857D01*
X135459523Y-137740476D01*
X135554761Y-137835714D01*
X135602380Y-137930952D01*
X135602380Y-138121428D01*
X135602380Y-136740476D02*
X135602380Y-137311904D01*
X135602380Y-137026190D02*
X134602380Y-137026190D01*
X134745238Y-137121428D01*
X134840476Y-137216666D01*
X134888095Y-137311904D01*
%TO.C,J16*%
X101502380Y-119459523D02*
X102216666Y-119459523D01*
X102359523Y-119507142D01*
X102454761Y-119602380D01*
X102502380Y-119745238D01*
X102502380Y-119840476D01*
X102502380Y-118459523D02*
X102502380Y-119030952D01*
X102502380Y-118745238D02*
X101502380Y-118745238D01*
X101645238Y-118840476D01*
X101740476Y-118935714D01*
X101788095Y-119030952D01*
X101502380Y-117602380D02*
X101502380Y-117792857D01*
X101550000Y-117888095D01*
X101597619Y-117935714D01*
X101740476Y-118030952D01*
X101930952Y-118078571D01*
X102311904Y-118078571D01*
X102407142Y-118030952D01*
X102454761Y-117983333D01*
X102502380Y-117888095D01*
X102502380Y-117697619D01*
X102454761Y-117602380D01*
X102407142Y-117554761D01*
X102311904Y-117507142D01*
X102073809Y-117507142D01*
X101978571Y-117554761D01*
X101930952Y-117602380D01*
X101883333Y-117697619D01*
X101883333Y-117888095D01*
X101930952Y-117983333D01*
X101978571Y-118030952D01*
X102073809Y-118078571D01*
%TO.C,Q3*%
X143854761Y-134397619D02*
X143759523Y-134350000D01*
X143664285Y-134254761D01*
X143521428Y-134111904D01*
X143426190Y-134064285D01*
X143330952Y-134064285D01*
X143378571Y-134302380D02*
X143283333Y-134254761D01*
X143188095Y-134159523D01*
X143140476Y-133969047D01*
X143140476Y-133635714D01*
X143188095Y-133445238D01*
X143283333Y-133350000D01*
X143378571Y-133302380D01*
X143569047Y-133302380D01*
X143664285Y-133350000D01*
X143759523Y-133445238D01*
X143807142Y-133635714D01*
X143807142Y-133969047D01*
X143759523Y-134159523D01*
X143664285Y-134254761D01*
X143569047Y-134302380D01*
X143378571Y-134302380D01*
X144140476Y-133302380D02*
X144759523Y-133302380D01*
X144426190Y-133683333D01*
X144569047Y-133683333D01*
X144664285Y-133730952D01*
X144711904Y-133778571D01*
X144759523Y-133873809D01*
X144759523Y-134111904D01*
X144711904Y-134207142D01*
X144664285Y-134254761D01*
X144569047Y-134302380D01*
X144283333Y-134302380D01*
X144188095Y-134254761D01*
X144140476Y-134207142D01*
%TO.C,J10*%
X101502380Y-92459523D02*
X102216666Y-92459523D01*
X102359523Y-92507142D01*
X102454761Y-92602380D01*
X102502380Y-92745238D01*
X102502380Y-92840476D01*
X102502380Y-91459523D02*
X102502380Y-92030952D01*
X102502380Y-91745238D02*
X101502380Y-91745238D01*
X101645238Y-91840476D01*
X101740476Y-91935714D01*
X101788095Y-92030952D01*
X101502380Y-90840476D02*
X101502380Y-90745238D01*
X101550000Y-90650000D01*
X101597619Y-90602380D01*
X101692857Y-90554761D01*
X101883333Y-90507142D01*
X102121428Y-90507142D01*
X102311904Y-90554761D01*
X102407142Y-90602380D01*
X102454761Y-90650000D01*
X102502380Y-90745238D01*
X102502380Y-90840476D01*
X102454761Y-90935714D01*
X102407142Y-90983333D01*
X102311904Y-91030952D01*
X102121428Y-91078571D01*
X101883333Y-91078571D01*
X101692857Y-91030952D01*
X101597619Y-90983333D01*
X101550000Y-90935714D01*
X101502380Y-90840476D01*
%TO.C,J13*%
X173140476Y-154402380D02*
X173140476Y-155116666D01*
X173092857Y-155259523D01*
X172997619Y-155354761D01*
X172854761Y-155402380D01*
X172759523Y-155402380D01*
X174140476Y-155402380D02*
X173569047Y-155402380D01*
X173854761Y-155402380D02*
X173854761Y-154402380D01*
X173759523Y-154545238D01*
X173664285Y-154640476D01*
X173569047Y-154688095D01*
X174473809Y-154402380D02*
X175092857Y-154402380D01*
X174759523Y-154783333D01*
X174902380Y-154783333D01*
X174997619Y-154830952D01*
X175045238Y-154878571D01*
X175092857Y-154973809D01*
X175092857Y-155211904D01*
X175045238Y-155307142D01*
X174997619Y-155354761D01*
X174902380Y-155402380D01*
X174616666Y-155402380D01*
X174521428Y-155354761D01*
X174473809Y-155307142D01*
X178878571Y-146457142D02*
X180021428Y-146457142D01*
X179450000Y-147028571D02*
X179450000Y-145885714D01*
X167878571Y-146457142D02*
X169021428Y-146457142D01*
%TO.C,MD4*%
X181218878Y-130006205D02*
X181218878Y-129218803D01*
X181481345Y-129781233D01*
X181743813Y-129218803D01*
X181743813Y-130006205D01*
X182118766Y-130006205D02*
X182118766Y-129218803D01*
X182306243Y-129218803D01*
X182418729Y-129256299D01*
X182493719Y-129331289D01*
X182531215Y-129406280D01*
X182568710Y-129556261D01*
X182568710Y-129668747D01*
X182531215Y-129818729D01*
X182493719Y-129893719D01*
X182418729Y-129968710D01*
X182306243Y-130006205D01*
X182118766Y-130006205D01*
X183243626Y-129481271D02*
X183243626Y-130006205D01*
X183056149Y-129181308D02*
X182868673Y-129743738D01*
X183356112Y-129743738D01*
%TO.C,J14*%
X188140476Y-154402380D02*
X188140476Y-155116666D01*
X188092857Y-155259523D01*
X187997619Y-155354761D01*
X187854761Y-155402380D01*
X187759523Y-155402380D01*
X189140476Y-155402380D02*
X188569047Y-155402380D01*
X188854761Y-155402380D02*
X188854761Y-154402380D01*
X188759523Y-154545238D01*
X188664285Y-154640476D01*
X188569047Y-154688095D01*
X189997619Y-154735714D02*
X189997619Y-155402380D01*
X189759523Y-154354761D02*
X189521428Y-155069047D01*
X190140476Y-155069047D01*
X193878571Y-146457142D02*
X195021428Y-146457142D01*
X194450000Y-147028571D02*
X194450000Y-145885714D01*
X182878571Y-146457142D02*
X184021428Y-146457142D01*
%TO.C,U1*%
X171188095Y-75102380D02*
X171188095Y-75911904D01*
X171235714Y-76007142D01*
X171283333Y-76054761D01*
X171378571Y-76102380D01*
X171569047Y-76102380D01*
X171664285Y-76054761D01*
X171711904Y-76007142D01*
X171759523Y-75911904D01*
X171759523Y-75102380D01*
X172759523Y-76102380D02*
X172188095Y-76102380D01*
X172473809Y-76102380D02*
X172473809Y-75102380D01*
X172378571Y-75245238D01*
X172283333Y-75340476D01*
X172188095Y-75388095D01*
%TO.C,F1*%
X123078571Y-133183333D02*
X123078571Y-133516666D01*
X123602380Y-133516666D02*
X122602380Y-133516666D01*
X122602380Y-133040476D01*
X123602380Y-132135714D02*
X123602380Y-132707142D01*
X123602380Y-132421428D02*
X122602380Y-132421428D01*
X122745238Y-132516666D01*
X122840476Y-132611904D01*
X122888095Y-132707142D01*
%TO.C,D7*%
X182211904Y-85202380D02*
X182211904Y-84202380D01*
X182450000Y-84202380D01*
X182592857Y-84250000D01*
X182688095Y-84345238D01*
X182735714Y-84440476D01*
X182783333Y-84630952D01*
X182783333Y-84773809D01*
X182735714Y-84964285D01*
X182688095Y-85059523D01*
X182592857Y-85154761D01*
X182450000Y-85202380D01*
X182211904Y-85202380D01*
X183116666Y-84202380D02*
X183783333Y-84202380D01*
X183354761Y-85202380D01*
%TO.C,J15*%
X101502380Y-110459523D02*
X102216666Y-110459523D01*
X102359523Y-110507142D01*
X102454761Y-110602380D01*
X102502380Y-110745238D01*
X102502380Y-110840476D01*
X102502380Y-109459523D02*
X102502380Y-110030952D01*
X102502380Y-109745238D02*
X101502380Y-109745238D01*
X101645238Y-109840476D01*
X101740476Y-109935714D01*
X101788095Y-110030952D01*
X101502380Y-108554761D02*
X101502380Y-109030952D01*
X101978571Y-109078571D01*
X101930952Y-109030952D01*
X101883333Y-108935714D01*
X101883333Y-108697619D01*
X101930952Y-108602380D01*
X101978571Y-108554761D01*
X102073809Y-108507142D01*
X102311904Y-108507142D01*
X102407142Y-108554761D01*
X102454761Y-108602380D01*
X102502380Y-108697619D01*
X102502380Y-108935714D01*
X102454761Y-109030952D01*
X102407142Y-109078571D01*
%TO.C,MD2*%
X181118878Y-94506205D02*
X181118878Y-93718803D01*
X181381345Y-94281233D01*
X181643813Y-93718803D01*
X181643813Y-94506205D01*
X182018766Y-94506205D02*
X182018766Y-93718803D01*
X182206243Y-93718803D01*
X182318729Y-93756299D01*
X182393719Y-93831289D01*
X182431215Y-93906280D01*
X182468710Y-94056261D01*
X182468710Y-94168747D01*
X182431215Y-94318729D01*
X182393719Y-94393719D01*
X182318729Y-94468710D01*
X182206243Y-94506205D01*
X182018766Y-94506205D01*
X182768673Y-93793794D02*
X182806168Y-93756299D01*
X182881159Y-93718803D01*
X183068635Y-93718803D01*
X183143626Y-93756299D01*
X183181121Y-93793794D01*
X183218617Y-93868785D01*
X183218617Y-93943775D01*
X183181121Y-94056261D01*
X182731177Y-94506205D01*
X183218617Y-94506205D01*
%TO.C,J8*%
X128616666Y-154402380D02*
X128616666Y-155116666D01*
X128569047Y-155259523D01*
X128473809Y-155354761D01*
X128330952Y-155402380D01*
X128235714Y-155402380D01*
X129235714Y-154830952D02*
X129140476Y-154783333D01*
X129092857Y-154735714D01*
X129045238Y-154640476D01*
X129045238Y-154592857D01*
X129092857Y-154497619D01*
X129140476Y-154450000D01*
X129235714Y-154402380D01*
X129426190Y-154402380D01*
X129521428Y-154450000D01*
X129569047Y-154497619D01*
X129616666Y-154592857D01*
X129616666Y-154640476D01*
X129569047Y-154735714D01*
X129521428Y-154783333D01*
X129426190Y-154830952D01*
X129235714Y-154830952D01*
X129140476Y-154878571D01*
X129092857Y-154926190D01*
X129045238Y-155021428D01*
X129045238Y-155211904D01*
X129092857Y-155307142D01*
X129140476Y-155354761D01*
X129235714Y-155402380D01*
X129426190Y-155402380D01*
X129521428Y-155354761D01*
X129569047Y-155307142D01*
X129616666Y-155211904D01*
X129616666Y-155021428D01*
X129569047Y-154926190D01*
X129521428Y-154878571D01*
X129426190Y-154830952D01*
X133878571Y-146457142D02*
X135021428Y-146457142D01*
X134450000Y-147028571D02*
X134450000Y-145885714D01*
X122878571Y-146457142D02*
X124021428Y-146457142D01*
%TO.C,J2*%
X202316666Y-75102380D02*
X202316666Y-75816666D01*
X202269047Y-75959523D01*
X202173809Y-76054761D01*
X202030952Y-76102380D01*
X201935714Y-76102380D01*
X202745238Y-75197619D02*
X202792857Y-75150000D01*
X202888095Y-75102380D01*
X203126190Y-75102380D01*
X203221428Y-75150000D01*
X203269047Y-75197619D01*
X203316666Y-75292857D01*
X203316666Y-75388095D01*
X203269047Y-75530952D01*
X202697619Y-76102380D01*
X203316666Y-76102380D01*
%TO.C,MES1*%
X132211904Y-46202380D02*
X132211904Y-45202380D01*
X132545238Y-45916666D01*
X132878571Y-45202380D01*
X132878571Y-46202380D01*
X133354761Y-45678571D02*
X133688095Y-45678571D01*
X133830952Y-46202380D02*
X133354761Y-46202380D01*
X133354761Y-45202380D01*
X133830952Y-45202380D01*
X134211904Y-46154761D02*
X134354761Y-46202380D01*
X134592857Y-46202380D01*
X134688095Y-46154761D01*
X134735714Y-46107142D01*
X134783333Y-46011904D01*
X134783333Y-45916666D01*
X134735714Y-45821428D01*
X134688095Y-45773809D01*
X134592857Y-45726190D01*
X134402380Y-45678571D01*
X134307142Y-45630952D01*
X134259523Y-45583333D01*
X134211904Y-45488095D01*
X134211904Y-45392857D01*
X134259523Y-45297619D01*
X134307142Y-45250000D01*
X134402380Y-45202380D01*
X134640476Y-45202380D01*
X134783333Y-45250000D01*
X135735714Y-46202380D02*
X135164285Y-46202380D01*
X135450000Y-46202380D02*
X135450000Y-45202380D01*
X135354761Y-45345238D01*
X135259523Y-45440476D01*
X135164285Y-45488095D01*
%TO.C,SW2*%
X184616666Y-53854761D02*
X184759523Y-53902380D01*
X184997619Y-53902380D01*
X185092857Y-53854761D01*
X185140476Y-53807142D01*
X185188095Y-53711904D01*
X185188095Y-53616666D01*
X185140476Y-53521428D01*
X185092857Y-53473809D01*
X184997619Y-53426190D01*
X184807142Y-53378571D01*
X184711904Y-53330952D01*
X184664285Y-53283333D01*
X184616666Y-53188095D01*
X184616666Y-53092857D01*
X184664285Y-52997619D01*
X184711904Y-52950000D01*
X184807142Y-52902380D01*
X185045238Y-52902380D01*
X185188095Y-52950000D01*
X185521428Y-52902380D02*
X185759523Y-53902380D01*
X185950000Y-53188095D01*
X186140476Y-53902380D01*
X186378571Y-52902380D01*
X186711904Y-52997619D02*
X186759523Y-52950000D01*
X186854761Y-52902380D01*
X187092857Y-52902380D01*
X187188095Y-52950000D01*
X187235714Y-52997619D01*
X187283333Y-53092857D01*
X187283333Y-53188095D01*
X187235714Y-53330952D01*
X186664285Y-53902380D01*
X187283333Y-53902380D01*
%TO.C,C18*%
X187068394Y-87007142D02*
X187020775Y-87054761D01*
X186877918Y-87102380D01*
X186782680Y-87102380D01*
X186639823Y-87054761D01*
X186544585Y-86959523D01*
X186496966Y-86864285D01*
X186449347Y-86673809D01*
X186449347Y-86530952D01*
X186496966Y-86340476D01*
X186544585Y-86245238D01*
X186639823Y-86150000D01*
X186782680Y-86102380D01*
X186877918Y-86102380D01*
X187020775Y-86150000D01*
X187068394Y-86197619D01*
X188020775Y-87102380D02*
X187449347Y-87102380D01*
X187735061Y-87102380D02*
X187735061Y-86102380D01*
X187639823Y-86245238D01*
X187544585Y-86340476D01*
X187449347Y-86388095D01*
X188592204Y-86530952D02*
X188496966Y-86483333D01*
X188449347Y-86435714D01*
X188401728Y-86340476D01*
X188401728Y-86292857D01*
X188449347Y-86197619D01*
X188496966Y-86150000D01*
X188592204Y-86102380D01*
X188782680Y-86102380D01*
X188877918Y-86150000D01*
X188925537Y-86197619D01*
X188973156Y-86292857D01*
X188973156Y-86340476D01*
X188925537Y-86435714D01*
X188877918Y-86483333D01*
X188782680Y-86530952D01*
X188592204Y-86530952D01*
X188496966Y-86578571D01*
X188449347Y-86626190D01*
X188401728Y-86721428D01*
X188401728Y-86911904D01*
X188449347Y-87007142D01*
X188496966Y-87054761D01*
X188592204Y-87102380D01*
X188782680Y-87102380D01*
X188877918Y-87054761D01*
X188925537Y-87007142D01*
X188973156Y-86911904D01*
X188973156Y-86721428D01*
X188925537Y-86626190D01*
X188877918Y-86578571D01*
X188782680Y-86530952D01*
%TO.C,SW1*%
X161616666Y-49954761D02*
X161759523Y-50002380D01*
X161997619Y-50002380D01*
X162092857Y-49954761D01*
X162140476Y-49907142D01*
X162188095Y-49811904D01*
X162188095Y-49716666D01*
X162140476Y-49621428D01*
X162092857Y-49573809D01*
X161997619Y-49526190D01*
X161807142Y-49478571D01*
X161711904Y-49430952D01*
X161664285Y-49383333D01*
X161616666Y-49288095D01*
X161616666Y-49192857D01*
X161664285Y-49097619D01*
X161711904Y-49050000D01*
X161807142Y-49002380D01*
X162045238Y-49002380D01*
X162188095Y-49050000D01*
X162521428Y-49002380D02*
X162759523Y-50002380D01*
X162950000Y-49288095D01*
X163140476Y-50002380D01*
X163378571Y-49002380D01*
X164283333Y-50002380D02*
X163711904Y-50002380D01*
X163997619Y-50002380D02*
X163997619Y-49002380D01*
X163902380Y-49145238D01*
X163807142Y-49240476D01*
X163711904Y-49288095D01*
%TO.C,C16*%
X177407142Y-87257142D02*
X177359523Y-87304761D01*
X177216666Y-87352380D01*
X177121428Y-87352380D01*
X176978571Y-87304761D01*
X176883333Y-87209523D01*
X176835714Y-87114285D01*
X176788095Y-86923809D01*
X176788095Y-86780952D01*
X176835714Y-86590476D01*
X176883333Y-86495238D01*
X176978571Y-86400000D01*
X177121428Y-86352380D01*
X177216666Y-86352380D01*
X177359523Y-86400000D01*
X177407142Y-86447619D01*
X178359523Y-87352380D02*
X177788095Y-87352380D01*
X178073809Y-87352380D02*
X178073809Y-86352380D01*
X177978571Y-86495238D01*
X177883333Y-86590476D01*
X177788095Y-86638095D01*
X179216666Y-86352380D02*
X179026190Y-86352380D01*
X178930952Y-86400000D01*
X178883333Y-86447619D01*
X178788095Y-86590476D01*
X178740476Y-86780952D01*
X178740476Y-87161904D01*
X178788095Y-87257142D01*
X178835714Y-87304761D01*
X178930952Y-87352380D01*
X179121428Y-87352380D01*
X179216666Y-87304761D01*
X179264285Y-87257142D01*
X179311904Y-87161904D01*
X179311904Y-86923809D01*
X179264285Y-86828571D01*
X179216666Y-86780952D01*
X179121428Y-86733333D01*
X178930952Y-86733333D01*
X178835714Y-86780952D01*
X178788095Y-86828571D01*
X178740476Y-86923809D01*
%TO.C,J9*%
X143616666Y-154402380D02*
X143616666Y-155116666D01*
X143569047Y-155259523D01*
X143473809Y-155354761D01*
X143330952Y-155402380D01*
X143235714Y-155402380D01*
X144140476Y-155402380D02*
X144330952Y-155402380D01*
X144426190Y-155354761D01*
X144473809Y-155307142D01*
X144569047Y-155164285D01*
X144616666Y-154973809D01*
X144616666Y-154592857D01*
X144569047Y-154497619D01*
X144521428Y-154450000D01*
X144426190Y-154402380D01*
X144235714Y-154402380D01*
X144140476Y-154450000D01*
X144092857Y-154497619D01*
X144045238Y-154592857D01*
X144045238Y-154830952D01*
X144092857Y-154926190D01*
X144140476Y-154973809D01*
X144235714Y-155021428D01*
X144426190Y-155021428D01*
X144521428Y-154973809D01*
X144569047Y-154926190D01*
X144616666Y-154830952D01*
X137878571Y-146457142D02*
X139021428Y-146457142D01*
X148878571Y-146457142D02*
X150021428Y-146457142D01*
X149450000Y-147028571D02*
X149450000Y-145885714D01*
%TO.C,J11*%
X101002380Y-101559523D02*
X101716666Y-101559523D01*
X101859523Y-101607142D01*
X101954761Y-101702380D01*
X102002380Y-101845238D01*
X102002380Y-101940476D01*
X102002380Y-100559523D02*
X102002380Y-101130952D01*
X102002380Y-100845238D02*
X101002380Y-100845238D01*
X101145238Y-100940476D01*
X101240476Y-101035714D01*
X101288095Y-101130952D01*
X102002380Y-99607142D02*
X102002380Y-100178571D01*
X102002380Y-99892857D02*
X101002380Y-99892857D01*
X101145238Y-99988095D01*
X101240476Y-100083333D01*
X101288095Y-100178571D01*
%TO.C,J1*%
X108216666Y-132302380D02*
X108216666Y-133016666D01*
X108169047Y-133159523D01*
X108073809Y-133254761D01*
X107930952Y-133302380D01*
X107835714Y-133302380D01*
X109216666Y-133302380D02*
X108645238Y-133302380D01*
X108930952Y-133302380D02*
X108930952Y-132302380D01*
X108835714Y-132445238D01*
X108740476Y-132540476D01*
X108645238Y-132588095D01*
X117307142Y-127521428D02*
X117307142Y-126378571D01*
X117878571Y-126950000D02*
X116735714Y-126950000D01*
X117307142Y-139821428D02*
X117307142Y-138678571D01*
%TO.C,J17*%
X99802380Y-63759523D02*
X100516666Y-63759523D01*
X100659523Y-63807142D01*
X100754761Y-63902380D01*
X100802380Y-64045238D01*
X100802380Y-64140476D01*
X100802380Y-62759523D02*
X100802380Y-63330952D01*
X100802380Y-63045238D02*
X99802380Y-63045238D01*
X99945238Y-63140476D01*
X100040476Y-63235714D01*
X100088095Y-63330952D01*
X99802380Y-62426190D02*
X99802380Y-61759523D01*
X100802380Y-62188095D01*
D11*
%TO.C,J12*%
X153890000Y-157460000D02*
X153300000Y-157460000D01*
X164600000Y-155240000D02*
X164010000Y-155240000D01*
X164600000Y-157460000D02*
X164010000Y-157460000D01*
X164010000Y-159560000D02*
X153890000Y-159560000D01*
X153890000Y-155240000D02*
X153300000Y-155240000D01*
X164010000Y-155240000D02*
X164010000Y-150340000D01*
X153890000Y-159560000D02*
X153890000Y-157460000D01*
X164010000Y-159560000D02*
X164010000Y-157460000D01*
X164010000Y-150340000D02*
X153890000Y-150340000D01*
X153890000Y-155240000D02*
X153890000Y-150340000D01*
X164600000Y-157460000D02*
G75*
G03*
X164600000Y-155240000I0J1110000D01*
G01*
X153300000Y-155240000D02*
G75*
G03*
X153300000Y-157460000I0J-1110000D01*
G01*
%TO.C,C17*%
X187188748Y-67485000D02*
X187711252Y-67485000D01*
X187188748Y-66015000D02*
X187711252Y-66015000D01*
%TO.C,D9*%
X180700000Y-119750000D02*
X180700000Y-121750000D01*
X180700000Y-119750000D02*
X184600000Y-119750000D01*
X180700000Y-121750000D02*
X184600000Y-121750000D01*
%TO.C,J3*%
X200000000Y-101510000D02*
X197590000Y-101510000D01*
X197890000Y-101210000D02*
X206010000Y-101210000D01*
X206010000Y-101210000D02*
X206010000Y-86090000D01*
X197590000Y-101510000D02*
X197590000Y-99100000D01*
X197890000Y-86090000D02*
X197890000Y-101210000D01*
X206010000Y-86090000D02*
X197890000Y-86090000D01*
%TO.C,U3*%
X167700000Y-103650000D02*
X196200000Y-103650000D01*
X196200000Y-103650000D02*
X196200000Y-119650000D01*
X196200000Y-119650000D02*
X167700000Y-119650000D01*
X167700000Y-119650000D02*
X167700000Y-103650000D01*
D12*
X166867000Y-105300000D02*
G75*
G03*
X166867000Y-105300000I-157000J0D01*
G01*
D11*
%TO.C,C22*%
X187188748Y-120015000D02*
X187711252Y-120015000D01*
X187188748Y-121485000D02*
X187711252Y-121485000D01*
%TO.C,C15*%
X178761252Y-67960000D02*
X177338748Y-67960000D01*
X178761252Y-65240000D02*
X177338748Y-65240000D01*
%TO.C,J7*%
X119010000Y-155240000D02*
X119010000Y-150340000D01*
X108890000Y-157460000D02*
X108300000Y-157460000D01*
X108890000Y-159560000D02*
X108890000Y-157460000D01*
X119600000Y-157460000D02*
X119010000Y-157460000D01*
X108890000Y-155240000D02*
X108890000Y-150340000D01*
X119010000Y-159560000D02*
X119010000Y-157460000D01*
X119010000Y-150340000D02*
X108890000Y-150340000D01*
X119010000Y-159560000D02*
X108890000Y-159560000D01*
X108890000Y-155240000D02*
X108300000Y-155240000D01*
X119600000Y-155240000D02*
X119010000Y-155240000D01*
X108300000Y-155240000D02*
G75*
G03*
X108300000Y-157460000I0J-1110000D01*
G01*
X119600000Y-157460000D02*
G75*
G03*
X119600000Y-155240000I0J1110000D01*
G01*
%TO.C,U4*%
X167700000Y-121650000D02*
X196200000Y-121650000D01*
X196200000Y-121650000D02*
X196200000Y-137650000D01*
X196200000Y-137650000D02*
X167700000Y-137650000D01*
X167700000Y-137650000D02*
X167700000Y-121650000D01*
D12*
X166867000Y-123300000D02*
G75*
G03*
X166867000Y-123300000I-157000J0D01*
G01*
D11*
%TO.C,J4*%
X206010000Y-119210000D02*
X206010000Y-104090000D01*
X206010000Y-104090000D02*
X197890000Y-104090000D01*
X197890000Y-104090000D02*
X197890000Y-119210000D01*
X197890000Y-119210000D02*
X206010000Y-119210000D01*
X200000000Y-119510000D02*
X197590000Y-119510000D01*
X197590000Y-119510000D02*
X197590000Y-117100000D01*
%TO.C,C21*%
X187188748Y-103485000D02*
X187711252Y-103485000D01*
X187188748Y-102015000D02*
X187711252Y-102015000D01*
%TO.C,C19*%
X178761252Y-101240000D02*
X177338748Y-101240000D01*
X178761252Y-103960000D02*
X177338748Y-103960000D01*
%TO.C,D6*%
X180700000Y-65800000D02*
X180700000Y-67800000D01*
X180700000Y-67800000D02*
X184600000Y-67800000D01*
X180700000Y-65800000D02*
X184600000Y-65800000D01*
%TO.C,C2*%
X139645563Y-130010000D02*
X132190000Y-130010000D01*
X132190000Y-121490000D02*
X132190000Y-124440000D01*
X139645563Y-121490000D02*
X132190000Y-121490000D01*
X140710000Y-122554437D02*
X139645563Y-121490000D01*
X140710000Y-128945563D02*
X139645563Y-130010000D01*
X140710000Y-128945563D02*
X140710000Y-127060000D01*
X140710000Y-122554437D02*
X140710000Y-124440000D01*
X132190000Y-130010000D02*
X132190000Y-127060000D01*
%TO.C,J6*%
X98415000Y-82810000D02*
X98415000Y-72690000D01*
X102735000Y-83400000D02*
X102735000Y-82810000D01*
X100515000Y-83400000D02*
X100515000Y-82810000D01*
X98415000Y-82810000D02*
X100515000Y-82810000D01*
X98415000Y-72690000D02*
X100515000Y-72690000D01*
X102735000Y-72690000D02*
X102735000Y-72100000D01*
X102735000Y-72690000D02*
X107635000Y-72690000D01*
X102735000Y-82810000D02*
X107635000Y-82810000D01*
X100515000Y-72690000D02*
X100515000Y-72100000D01*
X107635000Y-82810000D02*
X107635000Y-72690000D01*
X102735000Y-72100000D02*
G75*
G03*
X100515000Y-72100000I-1110000J0D01*
G01*
X100515000Y-83400000D02*
G75*
G03*
X102735000Y-83400000I1110000J0D01*
G01*
%TO.C,C20*%
X178761252Y-121960000D02*
X177338748Y-121960000D01*
X178761252Y-119240000D02*
X177338748Y-119240000D01*
D10*
%TO.C,MD3*%
X188050000Y-117750000D02*
X188050000Y-105550000D01*
X175850000Y-117750000D02*
X188050000Y-117750000D01*
X175850000Y-117750000D02*
X175850000Y-105550000D01*
X175850000Y-105550000D02*
X188050000Y-105550000D01*
D13*
X174830000Y-111650000D02*
G75*
G03*
X174830000Y-111650000I-125000J0D01*
G01*
D11*
%TO.C,D8*%
X180700000Y-101750000D02*
X180700000Y-103750000D01*
X180700000Y-103750000D02*
X184600000Y-103750000D01*
X180700000Y-101750000D02*
X184600000Y-101750000D01*
%TO.C,J5*%
X197890000Y-137210000D02*
X206010000Y-137210000D01*
X206010000Y-122090000D02*
X197890000Y-122090000D01*
X206010000Y-137210000D02*
X206010000Y-122090000D01*
X197890000Y-122090000D02*
X197890000Y-137210000D01*
X197590000Y-137510000D02*
X197590000Y-135100000D01*
X200000000Y-137510000D02*
X197590000Y-137510000D01*
D10*
%TO.C,MD1*%
X175850000Y-69550000D02*
X188050000Y-69550000D01*
X175850000Y-81750000D02*
X175850000Y-69550000D01*
X188050000Y-81750000D02*
X188050000Y-69550000D01*
X175850000Y-81750000D02*
X188050000Y-81750000D01*
D13*
X174830000Y-75650000D02*
G75*
G03*
X174830000Y-75650000I-125000J0D01*
G01*
D11*
%TO.C,D1*%
X138400000Y-133050000D02*
X138400000Y-131050000D01*
X138400000Y-133050000D02*
X134500000Y-133050000D01*
X138400000Y-131050000D02*
X134500000Y-131050000D01*
%TO.C,U2*%
X167700000Y-85650000D02*
X196200000Y-85650000D01*
X196200000Y-85650000D02*
X196200000Y-101650000D01*
X196200000Y-101650000D02*
X167700000Y-101650000D01*
X167700000Y-101650000D02*
X167700000Y-85650000D01*
D12*
X166867000Y-87300000D02*
G75*
G03*
X166867000Y-87300000I-157000J0D01*
G01*
D11*
%TO.C,Q1*%
X135420000Y-134100000D02*
X135420000Y-134370000D01*
X133920000Y-134100000D02*
X135420000Y-134100000D01*
X135420000Y-141000000D02*
X135420000Y-140730000D01*
X135420000Y-134370000D02*
X136520000Y-134370000D01*
X133920000Y-141000000D02*
X135420000Y-141000000D01*
X135420000Y-140730000D02*
X138250000Y-140730000D01*
%TO.C,J16*%
X106010000Y-122560000D02*
X106010000Y-114940000D01*
X106310000Y-114640000D02*
X106310000Y-117050000D01*
X97890000Y-114940000D02*
X97890000Y-122560000D01*
X106010000Y-114940000D02*
X97890000Y-114940000D01*
X103900000Y-114640000D02*
X106310000Y-114640000D01*
X97890000Y-122560000D02*
X106010000Y-122560000D01*
%TO.C,Q3*%
X140500000Y-133505000D02*
X140770000Y-133505000D01*
X147400000Y-135005000D02*
X147400000Y-133505000D01*
X140500000Y-135005000D02*
X140500000Y-133505000D01*
X140770000Y-133505000D02*
X140770000Y-132405000D01*
X147130000Y-133505000D02*
X147130000Y-130675000D01*
X147400000Y-133505000D02*
X147130000Y-133505000D01*
%TO.C,J10*%
X106010000Y-95560000D02*
X106010000Y-87940000D01*
X97890000Y-87940000D02*
X97890000Y-95560000D01*
X103900000Y-87640000D02*
X106310000Y-87640000D01*
X106310000Y-87640000D02*
X106310000Y-90050000D01*
X97890000Y-95560000D02*
X106010000Y-95560000D01*
X106010000Y-87940000D02*
X97890000Y-87940000D01*
%TO.C,J13*%
X168890000Y-157460000D02*
X168300000Y-157460000D01*
X168890000Y-155240000D02*
X168300000Y-155240000D01*
X168890000Y-159560000D02*
X168890000Y-157460000D01*
X168890000Y-155240000D02*
X168890000Y-150340000D01*
X179010000Y-155240000D02*
X179010000Y-150340000D01*
X179600000Y-155240000D02*
X179010000Y-155240000D01*
X179010000Y-159560000D02*
X179010000Y-157460000D01*
X179010000Y-159560000D02*
X168890000Y-159560000D01*
X179010000Y-150340000D02*
X168890000Y-150340000D01*
X179600000Y-157460000D02*
X179010000Y-157460000D01*
X168300000Y-155240000D02*
G75*
G03*
X168300000Y-157460000I0J-1110000D01*
G01*
X179600000Y-157460000D02*
G75*
G03*
X179600000Y-155240000I0J1110000D01*
G01*
D10*
%TO.C,MD4*%
X175850000Y-135750000D02*
X175850000Y-123550000D01*
X175850000Y-123550000D02*
X188050000Y-123550000D01*
X188050000Y-135750000D02*
X188050000Y-123550000D01*
X175850000Y-135750000D02*
X188050000Y-135750000D01*
D13*
X174830000Y-129650000D02*
G75*
G03*
X174830000Y-129650000I-125000J0D01*
G01*
D11*
%TO.C,J14*%
X194010000Y-150340000D02*
X183890000Y-150340000D01*
X183890000Y-155240000D02*
X183300000Y-155240000D01*
X183890000Y-159560000D02*
X183890000Y-157460000D01*
X194010000Y-155240000D02*
X194010000Y-150340000D01*
X194600000Y-155240000D02*
X194010000Y-155240000D01*
X194010000Y-159560000D02*
X183890000Y-159560000D01*
X194010000Y-159560000D02*
X194010000Y-157460000D01*
X194600000Y-157460000D02*
X194010000Y-157460000D01*
X183890000Y-155240000D02*
X183890000Y-150340000D01*
X183890000Y-157460000D02*
X183300000Y-157460000D01*
X194600000Y-157460000D02*
G75*
G03*
X194600000Y-155240000I0J1110000D01*
G01*
X183300000Y-155240000D02*
G75*
G03*
X183300000Y-157460000I0J-1110000D01*
G01*
%TO.C,U1*%
X167700000Y-67650000D02*
X196200000Y-67650000D01*
X196200000Y-67650000D02*
X196200000Y-83650000D01*
X196200000Y-83650000D02*
X167700000Y-83650000D01*
X167700000Y-83650000D02*
X167700000Y-67650000D01*
D12*
X166867000Y-69300000D02*
G75*
G03*
X166867000Y-69300000I-157000J0D01*
G01*
D11*
%TO.C,F1*%
X118480000Y-124750000D02*
X118480000Y-140950000D01*
X121950000Y-132100000D02*
X121950000Y-133600000D01*
X118480000Y-140950000D02*
X125420000Y-140950000D01*
X119950000Y-134450000D02*
X119950000Y-131250000D01*
X125420000Y-140950000D02*
X125420000Y-124750000D01*
X123950000Y-131250000D02*
X123950000Y-134450000D01*
X125420000Y-124750000D02*
X118480000Y-124750000D01*
%TO.C,D7*%
X180700000Y-83750000D02*
X184600000Y-83750000D01*
X180700000Y-83750000D02*
X180700000Y-85750000D01*
X180700000Y-85750000D02*
X184600000Y-85750000D01*
%TO.C,J15*%
X106010000Y-105940000D02*
X97890000Y-105940000D01*
X97890000Y-105940000D02*
X97890000Y-113560000D01*
X97890000Y-113560000D02*
X106010000Y-113560000D01*
X103900000Y-105640000D02*
X106310000Y-105640000D01*
X106010000Y-113560000D02*
X106010000Y-105940000D01*
X106310000Y-105640000D02*
X106310000Y-108050000D01*
D10*
%TO.C,MD2*%
X175850000Y-99750000D02*
X175850000Y-87550000D01*
X175850000Y-87550000D02*
X188050000Y-87550000D01*
X175850000Y-99750000D02*
X188050000Y-99750000D01*
X188050000Y-99750000D02*
X188050000Y-87550000D01*
D13*
X174830000Y-93650000D02*
G75*
G03*
X174830000Y-93650000I-125000J0D01*
G01*
D11*
%TO.C,J8*%
X134010000Y-159560000D02*
X123890000Y-159560000D01*
X123890000Y-155240000D02*
X123300000Y-155240000D01*
X134010000Y-159560000D02*
X134010000Y-157460000D01*
X123890000Y-155240000D02*
X123890000Y-150340000D01*
X134600000Y-157460000D02*
X134010000Y-157460000D01*
X123890000Y-159560000D02*
X123890000Y-157460000D01*
X134010000Y-155240000D02*
X134010000Y-150340000D01*
X134600000Y-155240000D02*
X134010000Y-155240000D01*
X134010000Y-150340000D02*
X123890000Y-150340000D01*
X123890000Y-157460000D02*
X123300000Y-157460000D01*
X123300000Y-155240000D02*
G75*
G03*
X123300000Y-157460000I0J-1110000D01*
G01*
X134600000Y-157460000D02*
G75*
G03*
X134600000Y-155240000I0J1110000D01*
G01*
%TO.C,J2*%
X206010000Y-68090000D02*
X197890000Y-68090000D01*
X197890000Y-83210000D02*
X206010000Y-83210000D01*
X197890000Y-68090000D02*
X197890000Y-83210000D01*
X197590000Y-83510000D02*
X197590000Y-81100000D01*
X200000000Y-83510000D02*
X197590000Y-83510000D01*
X206010000Y-83210000D02*
X206010000Y-68090000D01*
%TO.C,MES1*%
X139950000Y-60750000D02*
X139950000Y-58750000D01*
X141950000Y-58750000D02*
X141950000Y-54750000D01*
X117950000Y-46750000D02*
X117950000Y-50750000D01*
X139950000Y-58750000D02*
X141950000Y-58750000D01*
X144950000Y-54750000D02*
X144950000Y-50750000D01*
X141950000Y-46750000D02*
X117950000Y-46750000D01*
X134950000Y-58750000D02*
X134950000Y-60750000D01*
X114950000Y-50750000D02*
X114950000Y-54750000D01*
X114950000Y-54750000D02*
X117950000Y-54750000D01*
X134950000Y-60750000D02*
X139950000Y-60750000D01*
X117950000Y-50750000D02*
X114950000Y-50750000D01*
X117950000Y-58750000D02*
X134950000Y-58750000D01*
X144950000Y-50750000D02*
X141950000Y-50750000D01*
X117950000Y-54750000D02*
X117950000Y-58750000D01*
X141950000Y-54750000D02*
X144950000Y-54750000D01*
X141950000Y-50750000D02*
X141950000Y-46750000D01*
%TO.C,SW2*%
X188610000Y-48620000D02*
X186960000Y-48620000D01*
X183310000Y-48620000D02*
X183310000Y-58900000D01*
X184960000Y-48620000D02*
X183310000Y-48620000D01*
X183310000Y-58900000D02*
X188610000Y-58900000D01*
X188610000Y-58900000D02*
X188610000Y-48620000D01*
X184960000Y-48620000D02*
G75*
G03*
X186960000Y-48620000I1000000J0D01*
G01*
%TO.C,C18*%
X187188748Y-84015000D02*
X187711252Y-84015000D01*
X187188748Y-85485000D02*
X187711252Y-85485000D01*
%TO.C,SW1*%
X155450000Y-42250000D02*
X170450000Y-42250000D01*
X170450000Y-42250000D02*
X170450000Y-63250000D01*
X170450000Y-63250000D02*
X155450000Y-63250000D01*
X155450000Y-63250000D02*
X155450000Y-42250000D01*
D14*
X163480000Y-46750000D02*
G75*
G03*
X163480000Y-46750000I-530000J0D01*
G01*
D11*
%TO.C,C16*%
X178761252Y-83240000D02*
X177338748Y-83240000D01*
X178761252Y-85960000D02*
X177338748Y-85960000D01*
%TO.C,J9*%
X149010000Y-159560000D02*
X138890000Y-159560000D01*
X149010000Y-159560000D02*
X149010000Y-157460000D01*
X149600000Y-155240000D02*
X149010000Y-155240000D01*
X149600000Y-157460000D02*
X149010000Y-157460000D01*
X138890000Y-157460000D02*
X138300000Y-157460000D01*
X138890000Y-155240000D02*
X138300000Y-155240000D01*
X138890000Y-159560000D02*
X138890000Y-157460000D01*
X138890000Y-155240000D02*
X138890000Y-150340000D01*
X149010000Y-155240000D02*
X149010000Y-150340000D01*
X149010000Y-150340000D02*
X138890000Y-150340000D01*
X149600000Y-157460000D02*
G75*
G03*
X149600000Y-155240000I0J1110000D01*
G01*
X138300000Y-155240000D02*
G75*
G03*
X138300000Y-157460000I0J-1110000D01*
G01*
%TO.C,J11*%
X103900000Y-96640000D02*
X106310000Y-96640000D01*
X106310000Y-96640000D02*
X106310000Y-99050000D01*
X97890000Y-104560000D02*
X106010000Y-104560000D01*
X106010000Y-104560000D02*
X106010000Y-96940000D01*
X106010000Y-96940000D02*
X97890000Y-96940000D01*
X97890000Y-96940000D02*
X97890000Y-104560000D01*
%TO.C,J1*%
X98240000Y-140710000D02*
X98240000Y-124990000D01*
X116660000Y-134140000D02*
X116660000Y-130400000D01*
X98240000Y-140710000D02*
X112550000Y-140710000D01*
X98240000Y-124990000D02*
X112550000Y-124990000D01*
X116480413Y-127898352D02*
G75*
G03*
X112550000Y-124990000I-3930413J-1201648D01*
G01*
X112550000Y-140710000D02*
G75*
G03*
X116072958Y-138716806I1J4109999D01*
G01*
%TO.C,J17*%
X102660000Y-59165000D02*
X104150000Y-59165000D01*
X102210000Y-58215000D02*
X102660000Y-58215000D01*
X98240000Y-58215000D02*
X98240000Y-67685000D01*
X102660000Y-67685000D02*
X102660000Y-66735000D01*
X102210000Y-67685000D02*
X102660000Y-67685000D01*
X102660000Y-58215000D02*
X102660000Y-59165000D01*
X98240000Y-67685000D02*
X98690000Y-67685000D01*
X98690000Y-58215000D02*
X98240000Y-58215000D01*
%TD*%
%LPC*%
D15*
%TO.C,J12*%
X164450000Y-156350000D03*
X153450000Y-156350000D03*
D16*
X156450000Y-146350000D03*
D17*
X161450000Y-146350000D03*
%TD*%
D18*
%TO.C,C17*%
X186412500Y-66750000D03*
X188487500Y-66750000D03*
%TD*%
D19*
%TO.C,D9*%
X181300000Y-120750000D03*
X184600000Y-120750000D03*
%TD*%
D20*
%TO.C,J3*%
X199300000Y-98650000D03*
D21*
X199300000Y-96150000D03*
X199300000Y-93650000D03*
X199300000Y-91150000D03*
X199300000Y-88650000D03*
%TD*%
D22*
%TO.C,U3*%
X169250000Y-105300000D03*
D23*
X169250000Y-107840000D03*
X169250000Y-110380000D03*
X169250000Y-112920000D03*
X169250000Y-115460000D03*
X169250000Y-118000000D03*
X194650000Y-118000000D03*
X194650000Y-115460000D03*
X194650000Y-112920000D03*
X194650000Y-110380000D03*
X194650000Y-107840000D03*
X194650000Y-105300000D03*
%TD*%
D18*
%TO.C,C22*%
X186412500Y-120750000D03*
X188487500Y-120750000D03*
%TD*%
D24*
%TO.C,C15*%
X179612500Y-66600000D03*
X176487500Y-66600000D03*
%TD*%
D15*
%TO.C,J7*%
X108450000Y-156350000D03*
X119450000Y-156350000D03*
D16*
X111450000Y-146350000D03*
D17*
X116450000Y-146350000D03*
%TD*%
D22*
%TO.C,U4*%
X169250000Y-123300000D03*
D23*
X169250000Y-125840000D03*
X169250000Y-128380000D03*
X169250000Y-130920000D03*
X169250000Y-133460000D03*
X169250000Y-136000000D03*
X194650000Y-136000000D03*
X194650000Y-133460000D03*
X194650000Y-130920000D03*
X194650000Y-128380000D03*
X194650000Y-125840000D03*
X194650000Y-123300000D03*
%TD*%
D20*
%TO.C,J4*%
X199300000Y-116650000D03*
D21*
X199300000Y-114150000D03*
X199300000Y-111650000D03*
X199300000Y-109150000D03*
X199300000Y-106650000D03*
%TD*%
D18*
%TO.C,C21*%
X186412500Y-102750000D03*
X188487500Y-102750000D03*
%TD*%
D24*
%TO.C,C19*%
X179612500Y-102600000D03*
X176487500Y-102600000D03*
%TD*%
D19*
%TO.C,D6*%
X181300000Y-66800000D03*
X184600000Y-66800000D03*
%TD*%
D25*
%TO.C,C2*%
X140050000Y-125750000D03*
X132850000Y-125750000D03*
%TD*%
D15*
%TO.C,J6*%
X101625000Y-72250000D03*
X101625000Y-83250000D03*
D16*
X111625000Y-75250000D03*
D17*
X111625000Y-80250000D03*
%TD*%
D24*
%TO.C,C20*%
X179612500Y-120600000D03*
X176487500Y-120600000D03*
%TD*%
D26*
%TO.C,MD3*%
X176350000Y-111650000D03*
D27*
X178515000Y-107065000D03*
D28*
X183095000Y-107065000D03*
D29*
X186535000Y-108215000D03*
D26*
X187550000Y-111650000D03*
X187550000Y-116230000D03*
D30*
X181950000Y-117250000D03*
X179660000Y-117250000D03*
D26*
X176350000Y-116230000D03*
X176350000Y-113940000D03*
D31*
X188300000Y-113940000D03*
D30*
X184240000Y-117250000D03*
%TD*%
D19*
%TO.C,D8*%
X181300000Y-102750000D03*
X184600000Y-102750000D03*
%TD*%
D20*
%TO.C,J5*%
X199300000Y-134650000D03*
D21*
X199300000Y-132150000D03*
X199300000Y-129650000D03*
X199300000Y-127150000D03*
X199300000Y-124650000D03*
%TD*%
D26*
%TO.C,MD1*%
X176350000Y-75650000D03*
D27*
X178515000Y-71065000D03*
D28*
X183095000Y-71065000D03*
D29*
X186535000Y-72215000D03*
D26*
X187550000Y-75650000D03*
X187550000Y-80230000D03*
D30*
X181950000Y-81250000D03*
X179660000Y-81250000D03*
D26*
X176350000Y-80230000D03*
X176350000Y-77940000D03*
D31*
X188300000Y-77940000D03*
D30*
X184240000Y-81250000D03*
%TD*%
D19*
%TO.C,D1*%
X137800000Y-132050000D03*
X134500000Y-132050000D03*
%TD*%
D22*
%TO.C,U2*%
X169250000Y-87300000D03*
D23*
X169250000Y-89840000D03*
X169250000Y-92380000D03*
X169250000Y-94920000D03*
X169250000Y-97460000D03*
X169250000Y-100000000D03*
X194650000Y-100000000D03*
X194650000Y-97460000D03*
X194650000Y-94920000D03*
X194650000Y-92380000D03*
X194650000Y-89840000D03*
X194650000Y-87300000D03*
%TD*%
D32*
%TO.C,Q1*%
X137150000Y-139830000D03*
X137150000Y-137550000D03*
D33*
X130850000Y-137550000D03*
D32*
X137150000Y-135270000D03*
%TD*%
D34*
%TO.C,J16*%
X104600000Y-117500000D03*
D21*
X104600000Y-120000000D03*
%TD*%
D35*
%TO.C,Q3*%
X146230000Y-131775000D03*
D36*
X143950000Y-138075000D03*
D35*
X143950000Y-131775000D03*
X141670000Y-131775000D03*
%TD*%
D34*
%TO.C,J10*%
X104600000Y-90500000D03*
D21*
X104600000Y-93000000D03*
%TD*%
D15*
%TO.C,J13*%
X168450000Y-156350000D03*
X179450000Y-156350000D03*
D16*
X171450000Y-146350000D03*
D17*
X176450000Y-146350000D03*
%TD*%
D26*
%TO.C,MD4*%
X176350000Y-129650000D03*
D27*
X178515000Y-125065000D03*
D28*
X183095000Y-125065000D03*
D29*
X186535000Y-126215000D03*
D26*
X187550000Y-129650000D03*
X187550000Y-134230000D03*
D30*
X181950000Y-135250000D03*
X179660000Y-135250000D03*
D26*
X176350000Y-134230000D03*
X176350000Y-131940000D03*
D31*
X188300000Y-131940000D03*
D30*
X184240000Y-135250000D03*
%TD*%
D15*
%TO.C,J14*%
X194450000Y-156350000D03*
X183450000Y-156350000D03*
D16*
X186450000Y-146350000D03*
D17*
X191450000Y-146350000D03*
%TD*%
D22*
%TO.C,U1*%
X169250000Y-69300000D03*
D23*
X169250000Y-71840000D03*
X169250000Y-74380000D03*
X169250000Y-76920000D03*
X169250000Y-79460000D03*
X169250000Y-82000000D03*
X194650000Y-82000000D03*
X194650000Y-79460000D03*
X194650000Y-76920000D03*
X194650000Y-74380000D03*
X194650000Y-71840000D03*
X194650000Y-69300000D03*
%TD*%
D37*
%TO.C,F1*%
X120250000Y-127890000D03*
X123650000Y-127890000D03*
X123650000Y-137810000D03*
X120250000Y-137810000D03*
%TD*%
D19*
%TO.C,D7*%
X181300000Y-84750000D03*
X184600000Y-84750000D03*
%TD*%
D34*
%TO.C,J15*%
X104600000Y-108500000D03*
D21*
X104600000Y-111000000D03*
%TD*%
D26*
%TO.C,MD2*%
X176350000Y-93650000D03*
D27*
X178515000Y-89065000D03*
D28*
X183095000Y-89065000D03*
D29*
X186535000Y-90215000D03*
D26*
X187550000Y-93650000D03*
X187550000Y-98230000D03*
D30*
X181950000Y-99250000D03*
X179660000Y-99250000D03*
D26*
X176350000Y-98230000D03*
X176350000Y-95940000D03*
D31*
X188300000Y-95940000D03*
D30*
X184240000Y-99250000D03*
%TD*%
D15*
%TO.C,J8*%
X134450000Y-156350000D03*
X123450000Y-156350000D03*
D16*
X126450000Y-146350000D03*
D17*
X131450000Y-146350000D03*
%TD*%
D20*
%TO.C,J2*%
X199300000Y-80650000D03*
D21*
X199300000Y-78150000D03*
X199300000Y-75650000D03*
X199300000Y-73150000D03*
X199300000Y-70650000D03*
%TD*%
D23*
%TO.C,MES1*%
X138950000Y-59750000D03*
X136950000Y-59735000D03*
%TD*%
D38*
%TO.C,SW2*%
X182150000Y-49950000D03*
D39*
X182150000Y-52490000D03*
X182150000Y-55030000D03*
X182150000Y-57570000D03*
X189770000Y-57570000D03*
X189770000Y-55030000D03*
X189770000Y-52490000D03*
X189770000Y-49950000D03*
%TD*%
D18*
%TO.C,C18*%
X186412500Y-84750000D03*
X188487500Y-84750000D03*
%TD*%
D40*
%TO.C,SW1*%
X162950000Y-58750000D03*
X162950000Y-52750000D03*
%TD*%
D24*
%TO.C,C16*%
X179612500Y-84600000D03*
X176487500Y-84600000D03*
%TD*%
D15*
%TO.C,J9*%
X149450000Y-156350000D03*
X138450000Y-156350000D03*
D16*
X141450000Y-146350000D03*
D17*
X146450000Y-146350000D03*
%TD*%
D34*
%TO.C,J11*%
X104600000Y-99500000D03*
D21*
X104600000Y-102000000D03*
%TD*%
D41*
%TO.C,J1*%
X108700000Y-139600000D03*
X108700000Y-126100000D03*
D42*
X114700000Y-136450000D03*
D43*
X114700000Y-129250000D03*
%TD*%
D44*
%TO.C,J17*%
X103350000Y-59825000D03*
X103350000Y-61075000D03*
X103350000Y-62325000D03*
X103350000Y-63575000D03*
X103350000Y-64825000D03*
X103350000Y-66075000D03*
D45*
X100450000Y-68625000D03*
X100450000Y-57275000D03*
%TD*%
M02*
