%TF.GenerationSoftware,KiCad,Pcbnew,(6.0.11)*%
%TF.CreationDate,2023-08-03T09:01:04+09:00*%
%TF.ProjectId,power,706f7765-722e-46b6-9963-61645f706362,rev?*%
%TF.SameCoordinates,Original*%
%TF.FileFunction,Legend,Bot*%
%TF.FilePolarity,Positive*%
%FSLAX46Y46*%
G04 Gerber Fmt 4.6, Leading zero omitted, Abs format (unit mm)*
G04 Created by KiCad (PCBNEW (6.0.11)) date 2023-08-03 09:01:04*
%MOMM*%
%LPD*%
G01*
G04 APERTURE LIST*
G04 Aperture macros list*
%AMRoundRect*
0 Rectangle with rounded corners*
0 $1 Rounding radius*
0 $2 $3 $4 $5 $6 $7 $8 $9 X,Y pos of 4 corners*
0 Add a 4 corners polygon primitive as box body*
4,1,4,$2,$3,$4,$5,$6,$7,$8,$9,$2,$3,0*
0 Add four circle primitives for the rounded corners*
1,1,$1+$1,$2,$3*
1,1,$1+$1,$4,$5*
1,1,$1+$1,$6,$7*
1,1,$1+$1,$8,$9*
0 Add four rect primitives between the rounded corners*
20,1,$1+$1,$2,$3,$4,$5,0*
20,1,$1+$1,$4,$5,$6,$7,0*
20,1,$1+$1,$6,$7,$8,$9,0*
20,1,$1+$1,$8,$9,$2,$3,0*%
G04 Aperture macros list end*
%ADD10C,0.150000*%
%ADD11C,0.120000*%
%ADD12C,1.400000*%
%ADD13R,3.500000X3.500000*%
%ADD14C,3.500000*%
%ADD15RoundRect,0.250000X0.675000X-0.600000X0.675000X0.600000X-0.675000X0.600000X-0.675000X-0.600000X0*%
%ADD16O,1.850000X1.700000*%
%ADD17RoundRect,0.381000X-0.381000X-0.381000X0.381000X-0.381000X0.381000X0.381000X-0.381000X0.381000X0*%
%ADD18C,1.524000*%
%ADD19RoundRect,0.250000X-0.675000X0.600000X-0.675000X-0.600000X0.675000X-0.600000X0.675000X0.600000X0*%
%ADD20C,2.780000*%
%ADD21R,1.600000X1.600000*%
%ADD22O,1.600000X1.600000*%
%ADD23O,4.000000X1.524000*%
%ADD24R,2.000000X0.900000*%
%ADD25RoundRect,1.025000X1.025000X-1.025000X1.025000X1.025000X-1.025000X1.025000X-1.025000X-1.025000X0*%
%ADD26C,4.100000*%
%ADD27RoundRect,0.237500X0.237500X-0.300000X0.237500X0.300000X-0.237500X0.300000X-0.237500X-0.300000X0*%
%ADD28RoundRect,0.237500X-0.250000X-0.237500X0.250000X-0.237500X0.250000X0.237500X-0.250000X0.237500X0*%
%ADD29RoundRect,0.237500X0.237500X-0.250000X0.237500X0.250000X-0.237500X0.250000X-0.237500X-0.250000X0*%
%ADD30RoundRect,0.237500X0.250000X0.237500X-0.250000X0.237500X-0.250000X-0.237500X0.250000X-0.237500X0*%
%ADD31R,0.900000X1.200000*%
%ADD32RoundRect,0.237500X-0.237500X0.250000X-0.237500X-0.250000X0.237500X-0.250000X0.237500X0.250000X0*%
%ADD33R,1.900000X0.800000*%
%ADD34RoundRect,0.250000X-0.337500X-0.475000X0.337500X-0.475000X0.337500X0.475000X-0.337500X0.475000X0*%
G04 APERTURE END LIST*
D10*
%TO.C,C12*%
X101207142Y-100424642D02*
X101254761Y-100377023D01*
X101302380Y-100234166D01*
X101302380Y-100138928D01*
X101254761Y-99996071D01*
X101159523Y-99900833D01*
X101064285Y-99853214D01*
X100873809Y-99805595D01*
X100730952Y-99805595D01*
X100540476Y-99853214D01*
X100445238Y-99900833D01*
X100350000Y-99996071D01*
X100302380Y-100138928D01*
X100302380Y-100234166D01*
X100350000Y-100377023D01*
X100397619Y-100424642D01*
X101302380Y-101377023D02*
X101302380Y-100805595D01*
X101302380Y-101091309D02*
X100302380Y-101091309D01*
X100445238Y-100996071D01*
X100540476Y-100900833D01*
X100588095Y-100805595D01*
X100397619Y-101757976D02*
X100350000Y-101805595D01*
X100302380Y-101900833D01*
X100302380Y-102138928D01*
X100350000Y-102234166D01*
X100397619Y-102281785D01*
X100492857Y-102329404D01*
X100588095Y-102329404D01*
X100730952Y-102281785D01*
X101302380Y-101710357D01*
X101302380Y-102329404D01*
%TO.C,R2*%
X148316666Y-134202380D02*
X148650000Y-133726190D01*
X148888095Y-134202380D02*
X148888095Y-133202380D01*
X148507142Y-133202380D01*
X148411904Y-133250000D01*
X148364285Y-133297619D01*
X148316666Y-133392857D01*
X148316666Y-133535714D01*
X148364285Y-133630952D01*
X148411904Y-133678571D01*
X148507142Y-133726190D01*
X148888095Y-133726190D01*
X147935714Y-133297619D02*
X147888095Y-133250000D01*
X147792857Y-133202380D01*
X147554761Y-133202380D01*
X147459523Y-133250000D01*
X147411904Y-133297619D01*
X147364285Y-133392857D01*
X147364285Y-133488095D01*
X147411904Y-133630952D01*
X147983333Y-134202380D01*
X147364285Y-134202380D01*
%TO.C,C4*%
X166107142Y-96083333D02*
X166154761Y-96035714D01*
X166202380Y-95892857D01*
X166202380Y-95797619D01*
X166154761Y-95654761D01*
X166059523Y-95559523D01*
X165964285Y-95511904D01*
X165773809Y-95464285D01*
X165630952Y-95464285D01*
X165440476Y-95511904D01*
X165345238Y-95559523D01*
X165250000Y-95654761D01*
X165202380Y-95797619D01*
X165202380Y-95892857D01*
X165250000Y-96035714D01*
X165297619Y-96083333D01*
X165535714Y-96940476D02*
X166202380Y-96940476D01*
X165154761Y-96702380D02*
X165869047Y-96464285D01*
X165869047Y-97083333D01*
%TO.C,R3*%
X158416666Y-65602380D02*
X158750000Y-65126190D01*
X158988095Y-65602380D02*
X158988095Y-64602380D01*
X158607142Y-64602380D01*
X158511904Y-64650000D01*
X158464285Y-64697619D01*
X158416666Y-64792857D01*
X158416666Y-64935714D01*
X158464285Y-65030952D01*
X158511904Y-65078571D01*
X158607142Y-65126190D01*
X158988095Y-65126190D01*
X158083333Y-64602380D02*
X157464285Y-64602380D01*
X157797619Y-64983333D01*
X157654761Y-64983333D01*
X157559523Y-65030952D01*
X157511904Y-65078571D01*
X157464285Y-65173809D01*
X157464285Y-65411904D01*
X157511904Y-65507142D01*
X157559523Y-65554761D01*
X157654761Y-65602380D01*
X157940476Y-65602380D01*
X158035714Y-65554761D01*
X158083333Y-65507142D01*
%TO.C,R12*%
X190192857Y-95202380D02*
X190526190Y-94726190D01*
X190764285Y-95202380D02*
X190764285Y-94202380D01*
X190383333Y-94202380D01*
X190288095Y-94250000D01*
X190240476Y-94297619D01*
X190192857Y-94392857D01*
X190192857Y-94535714D01*
X190240476Y-94630952D01*
X190288095Y-94678571D01*
X190383333Y-94726190D01*
X190764285Y-94726190D01*
X189240476Y-95202380D02*
X189811904Y-95202380D01*
X189526190Y-95202380D02*
X189526190Y-94202380D01*
X189621428Y-94345238D01*
X189716666Y-94440476D01*
X189811904Y-94488095D01*
X188859523Y-94297619D02*
X188811904Y-94250000D01*
X188716666Y-94202380D01*
X188478571Y-94202380D01*
X188383333Y-94250000D01*
X188335714Y-94297619D01*
X188288095Y-94392857D01*
X188288095Y-94488095D01*
X188335714Y-94630952D01*
X188907142Y-95202380D01*
X188288095Y-95202380D01*
%TO.C,D4*%
X182688095Y-114202380D02*
X182688095Y-113202380D01*
X182450000Y-113202380D01*
X182307142Y-113250000D01*
X182211904Y-113345238D01*
X182164285Y-113440476D01*
X182116666Y-113630952D01*
X182116666Y-113773809D01*
X182164285Y-113964285D01*
X182211904Y-114059523D01*
X182307142Y-114154761D01*
X182450000Y-114202380D01*
X182688095Y-114202380D01*
X181259523Y-113535714D02*
X181259523Y-114202380D01*
X181497619Y-113154761D02*
X181735714Y-113869047D01*
X181116666Y-113869047D01*
%TO.C,R27*%
X178332380Y-110357142D02*
X177856190Y-110023809D01*
X178332380Y-109785714D02*
X177332380Y-109785714D01*
X177332380Y-110166666D01*
X177380000Y-110261904D01*
X177427619Y-110309523D01*
X177522857Y-110357142D01*
X177665714Y-110357142D01*
X177760952Y-110309523D01*
X177808571Y-110261904D01*
X177856190Y-110166666D01*
X177856190Y-109785714D01*
X177427619Y-110738095D02*
X177380000Y-110785714D01*
X177332380Y-110880952D01*
X177332380Y-111119047D01*
X177380000Y-111214285D01*
X177427619Y-111261904D01*
X177522857Y-111309523D01*
X177618095Y-111309523D01*
X177760952Y-111261904D01*
X178332380Y-110690476D01*
X178332380Y-111309523D01*
X177332380Y-111642857D02*
X177332380Y-112309523D01*
X178332380Y-111880952D01*
%TO.C,R20*%
X190092857Y-134702380D02*
X190426190Y-134226190D01*
X190664285Y-134702380D02*
X190664285Y-133702380D01*
X190283333Y-133702380D01*
X190188095Y-133750000D01*
X190140476Y-133797619D01*
X190092857Y-133892857D01*
X190092857Y-134035714D01*
X190140476Y-134130952D01*
X190188095Y-134178571D01*
X190283333Y-134226190D01*
X190664285Y-134226190D01*
X189711904Y-133797619D02*
X189664285Y-133750000D01*
X189569047Y-133702380D01*
X189330952Y-133702380D01*
X189235714Y-133750000D01*
X189188095Y-133797619D01*
X189140476Y-133892857D01*
X189140476Y-133988095D01*
X189188095Y-134130952D01*
X189759523Y-134702380D01*
X189140476Y-134702380D01*
X188521428Y-133702380D02*
X188426190Y-133702380D01*
X188330952Y-133750000D01*
X188283333Y-133797619D01*
X188235714Y-133892857D01*
X188188095Y-134083333D01*
X188188095Y-134321428D01*
X188235714Y-134511904D01*
X188283333Y-134607142D01*
X188330952Y-134654761D01*
X188426190Y-134702380D01*
X188521428Y-134702380D01*
X188616666Y-134654761D01*
X188664285Y-134607142D01*
X188711904Y-134511904D01*
X188759523Y-134321428D01*
X188759523Y-134083333D01*
X188711904Y-133892857D01*
X188664285Y-133797619D01*
X188616666Y-133750000D01*
X188521428Y-133702380D01*
%TO.C,R25*%
X178332380Y-74357142D02*
X177856190Y-74023809D01*
X178332380Y-73785714D02*
X177332380Y-73785714D01*
X177332380Y-74166666D01*
X177380000Y-74261904D01*
X177427619Y-74309523D01*
X177522857Y-74357142D01*
X177665714Y-74357142D01*
X177760952Y-74309523D01*
X177808571Y-74261904D01*
X177856190Y-74166666D01*
X177856190Y-73785714D01*
X177427619Y-74738095D02*
X177380000Y-74785714D01*
X177332380Y-74880952D01*
X177332380Y-75119047D01*
X177380000Y-75214285D01*
X177427619Y-75261904D01*
X177522857Y-75309523D01*
X177618095Y-75309523D01*
X177760952Y-75261904D01*
X178332380Y-74690476D01*
X178332380Y-75309523D01*
X177332380Y-76214285D02*
X177332380Y-75738095D01*
X177808571Y-75690476D01*
X177760952Y-75738095D01*
X177713333Y-75833333D01*
X177713333Y-76071428D01*
X177760952Y-76166666D01*
X177808571Y-76214285D01*
X177903809Y-76261904D01*
X178141904Y-76261904D01*
X178237142Y-76214285D01*
X178284761Y-76166666D01*
X178332380Y-76071428D01*
X178332380Y-75833333D01*
X178284761Y-75738095D01*
X178237142Y-75690476D01*
%TO.C,R4*%
X166816666Y-65602380D02*
X167150000Y-65126190D01*
X167388095Y-65602380D02*
X167388095Y-64602380D01*
X167007142Y-64602380D01*
X166911904Y-64650000D01*
X166864285Y-64697619D01*
X166816666Y-64792857D01*
X166816666Y-64935714D01*
X166864285Y-65030952D01*
X166911904Y-65078571D01*
X167007142Y-65126190D01*
X167388095Y-65126190D01*
X165959523Y-64935714D02*
X165959523Y-65602380D01*
X166197619Y-64554761D02*
X166435714Y-65269047D01*
X165816666Y-65269047D01*
%TO.C,R18*%
X189892857Y-115002380D02*
X190226190Y-114526190D01*
X190464285Y-115002380D02*
X190464285Y-114002380D01*
X190083333Y-114002380D01*
X189988095Y-114050000D01*
X189940476Y-114097619D01*
X189892857Y-114192857D01*
X189892857Y-114335714D01*
X189940476Y-114430952D01*
X189988095Y-114478571D01*
X190083333Y-114526190D01*
X190464285Y-114526190D01*
X188940476Y-115002380D02*
X189511904Y-115002380D01*
X189226190Y-115002380D02*
X189226190Y-114002380D01*
X189321428Y-114145238D01*
X189416666Y-114240476D01*
X189511904Y-114288095D01*
X188369047Y-114430952D02*
X188464285Y-114383333D01*
X188511904Y-114335714D01*
X188559523Y-114240476D01*
X188559523Y-114192857D01*
X188511904Y-114097619D01*
X188464285Y-114050000D01*
X188369047Y-114002380D01*
X188178571Y-114002380D01*
X188083333Y-114050000D01*
X188035714Y-114097619D01*
X187988095Y-114192857D01*
X187988095Y-114240476D01*
X188035714Y-114335714D01*
X188083333Y-114383333D01*
X188178571Y-114430952D01*
X188369047Y-114430952D01*
X188464285Y-114478571D01*
X188511904Y-114526190D01*
X188559523Y-114621428D01*
X188559523Y-114811904D01*
X188511904Y-114907142D01*
X188464285Y-114954761D01*
X188369047Y-115002380D01*
X188178571Y-115002380D01*
X188083333Y-114954761D01*
X188035714Y-114907142D01*
X187988095Y-114811904D01*
X187988095Y-114621428D01*
X188035714Y-114526190D01*
X188083333Y-114478571D01*
X188178571Y-114430952D01*
D11*
%TO.C,Q2*%
X163388095Y-62673809D02*
X163350000Y-62597619D01*
X163273809Y-62521428D01*
X163159523Y-62407142D01*
X163121428Y-62330952D01*
X163121428Y-62254761D01*
X163311904Y-62292857D02*
X163273809Y-62216666D01*
X163197619Y-62140476D01*
X163045238Y-62102380D01*
X162778571Y-62102380D01*
X162626190Y-62140476D01*
X162550000Y-62216666D01*
X162511904Y-62292857D01*
X162511904Y-62445238D01*
X162550000Y-62521428D01*
X162626190Y-62597619D01*
X162778571Y-62635714D01*
X163045238Y-62635714D01*
X163197619Y-62597619D01*
X163273809Y-62521428D01*
X163311904Y-62445238D01*
X163311904Y-62292857D01*
X162588095Y-62940476D02*
X162550000Y-62978571D01*
X162511904Y-63054761D01*
X162511904Y-63245238D01*
X162550000Y-63321428D01*
X162588095Y-63359523D01*
X162664285Y-63397619D01*
X162740476Y-63397619D01*
X162854761Y-63359523D01*
X163311904Y-62902380D01*
X163311904Y-63397619D01*
D10*
%TO.C,D3*%
X182688095Y-96202380D02*
X182688095Y-95202380D01*
X182450000Y-95202380D01*
X182307142Y-95250000D01*
X182211904Y-95345238D01*
X182164285Y-95440476D01*
X182116666Y-95630952D01*
X182116666Y-95773809D01*
X182164285Y-95964285D01*
X182211904Y-96059523D01*
X182307142Y-96154761D01*
X182450000Y-96202380D01*
X182688095Y-96202380D01*
X181783333Y-95202380D02*
X181164285Y-95202380D01*
X181497619Y-95583333D01*
X181354761Y-95583333D01*
X181259523Y-95630952D01*
X181211904Y-95678571D01*
X181164285Y-95773809D01*
X181164285Y-96011904D01*
X181211904Y-96107142D01*
X181259523Y-96154761D01*
X181354761Y-96202380D01*
X181640476Y-96202380D01*
X181735714Y-96154761D01*
X181783333Y-96107142D01*
%TO.C,R14*%
X203402380Y-100107142D02*
X202926190Y-99773809D01*
X203402380Y-99535714D02*
X202402380Y-99535714D01*
X202402380Y-99916666D01*
X202450000Y-100011904D01*
X202497619Y-100059523D01*
X202592857Y-100107142D01*
X202735714Y-100107142D01*
X202830952Y-100059523D01*
X202878571Y-100011904D01*
X202926190Y-99916666D01*
X202926190Y-99535714D01*
X203402380Y-101059523D02*
X203402380Y-100488095D01*
X203402380Y-100773809D02*
X202402380Y-100773809D01*
X202545238Y-100678571D01*
X202640476Y-100583333D01*
X202688095Y-100488095D01*
X202735714Y-101916666D02*
X203402380Y-101916666D01*
X202354761Y-101678571D02*
X203069047Y-101440476D01*
X203069047Y-102059523D01*
%TO.C,R10*%
X190192857Y-98802380D02*
X190526190Y-98326190D01*
X190764285Y-98802380D02*
X190764285Y-97802380D01*
X190383333Y-97802380D01*
X190288095Y-97850000D01*
X190240476Y-97897619D01*
X190192857Y-97992857D01*
X190192857Y-98135714D01*
X190240476Y-98230952D01*
X190288095Y-98278571D01*
X190383333Y-98326190D01*
X190764285Y-98326190D01*
X189240476Y-98802380D02*
X189811904Y-98802380D01*
X189526190Y-98802380D02*
X189526190Y-97802380D01*
X189621428Y-97945238D01*
X189716666Y-98040476D01*
X189811904Y-98088095D01*
X188621428Y-97802380D02*
X188526190Y-97802380D01*
X188430952Y-97850000D01*
X188383333Y-97897619D01*
X188335714Y-97992857D01*
X188288095Y-98183333D01*
X188288095Y-98421428D01*
X188335714Y-98611904D01*
X188383333Y-98707142D01*
X188430952Y-98754761D01*
X188526190Y-98802380D01*
X188621428Y-98802380D01*
X188716666Y-98754761D01*
X188764285Y-98707142D01*
X188811904Y-98611904D01*
X188859523Y-98421428D01*
X188859523Y-98183333D01*
X188811904Y-97992857D01*
X188764285Y-97897619D01*
X188716666Y-97850000D01*
X188621428Y-97802380D01*
%TO.C,R21*%
X190092857Y-133002380D02*
X190426190Y-132526190D01*
X190664285Y-133002380D02*
X190664285Y-132002380D01*
X190283333Y-132002380D01*
X190188095Y-132050000D01*
X190140476Y-132097619D01*
X190092857Y-132192857D01*
X190092857Y-132335714D01*
X190140476Y-132430952D01*
X190188095Y-132478571D01*
X190283333Y-132526190D01*
X190664285Y-132526190D01*
X189711904Y-132097619D02*
X189664285Y-132050000D01*
X189569047Y-132002380D01*
X189330952Y-132002380D01*
X189235714Y-132050000D01*
X189188095Y-132097619D01*
X189140476Y-132192857D01*
X189140476Y-132288095D01*
X189188095Y-132430952D01*
X189759523Y-133002380D01*
X189140476Y-133002380D01*
X188188095Y-133002380D02*
X188759523Y-133002380D01*
X188473809Y-133002380D02*
X188473809Y-132002380D01*
X188569047Y-132145238D01*
X188664285Y-132240476D01*
X188759523Y-132288095D01*
%TO.C,C14*%
X101007142Y-118537142D02*
X101054761Y-118489523D01*
X101102380Y-118346666D01*
X101102380Y-118251428D01*
X101054761Y-118108571D01*
X100959523Y-118013333D01*
X100864285Y-117965714D01*
X100673809Y-117918095D01*
X100530952Y-117918095D01*
X100340476Y-117965714D01*
X100245238Y-118013333D01*
X100150000Y-118108571D01*
X100102380Y-118251428D01*
X100102380Y-118346666D01*
X100150000Y-118489523D01*
X100197619Y-118537142D01*
X101102380Y-119489523D02*
X101102380Y-118918095D01*
X101102380Y-119203809D02*
X100102380Y-119203809D01*
X100245238Y-119108571D01*
X100340476Y-119013333D01*
X100388095Y-118918095D01*
X100435714Y-120346666D02*
X101102380Y-120346666D01*
X100054761Y-120108571D02*
X100769047Y-119870476D01*
X100769047Y-120489523D01*
%TO.C,R7*%
X189216666Y-80702380D02*
X189550000Y-80226190D01*
X189788095Y-80702380D02*
X189788095Y-79702380D01*
X189407142Y-79702380D01*
X189311904Y-79750000D01*
X189264285Y-79797619D01*
X189216666Y-79892857D01*
X189216666Y-80035714D01*
X189264285Y-80130952D01*
X189311904Y-80178571D01*
X189407142Y-80226190D01*
X189788095Y-80226190D01*
X188883333Y-79702380D02*
X188216666Y-79702380D01*
X188645238Y-80702380D01*
%TO.C,R23*%
X203402380Y-118107142D02*
X202926190Y-117773809D01*
X203402380Y-117535714D02*
X202402380Y-117535714D01*
X202402380Y-117916666D01*
X202450000Y-118011904D01*
X202497619Y-118059523D01*
X202592857Y-118107142D01*
X202735714Y-118107142D01*
X202830952Y-118059523D01*
X202878571Y-118011904D01*
X202926190Y-117916666D01*
X202926190Y-117535714D01*
X202497619Y-118488095D02*
X202450000Y-118535714D01*
X202402380Y-118630952D01*
X202402380Y-118869047D01*
X202450000Y-118964285D01*
X202497619Y-119011904D01*
X202592857Y-119059523D01*
X202688095Y-119059523D01*
X202830952Y-119011904D01*
X203402380Y-118440476D01*
X203402380Y-119059523D01*
X202402380Y-119392857D02*
X202402380Y-120011904D01*
X202783333Y-119678571D01*
X202783333Y-119821428D01*
X202830952Y-119916666D01*
X202878571Y-119964285D01*
X202973809Y-120011904D01*
X203211904Y-120011904D01*
X203307142Y-119964285D01*
X203354761Y-119916666D01*
X203402380Y-119821428D01*
X203402380Y-119535714D01*
X203354761Y-119440476D01*
X203307142Y-119392857D01*
%TO.C,C6*%
X166107142Y-132083333D02*
X166154761Y-132035714D01*
X166202380Y-131892857D01*
X166202380Y-131797619D01*
X166154761Y-131654761D01*
X166059523Y-131559523D01*
X165964285Y-131511904D01*
X165773809Y-131464285D01*
X165630952Y-131464285D01*
X165440476Y-131511904D01*
X165345238Y-131559523D01*
X165250000Y-131654761D01*
X165202380Y-131797619D01*
X165202380Y-131892857D01*
X165250000Y-132035714D01*
X165297619Y-132083333D01*
X165202380Y-132940476D02*
X165202380Y-132750000D01*
X165250000Y-132654761D01*
X165297619Y-132607142D01*
X165440476Y-132511904D01*
X165630952Y-132464285D01*
X166011904Y-132464285D01*
X166107142Y-132511904D01*
X166154761Y-132559523D01*
X166202380Y-132654761D01*
X166202380Y-132845238D01*
X166154761Y-132940476D01*
X166107142Y-132988095D01*
X166011904Y-133035714D01*
X165773809Y-133035714D01*
X165678571Y-132988095D01*
X165630952Y-132940476D01*
X165583333Y-132845238D01*
X165583333Y-132654761D01*
X165630952Y-132559523D01*
X165678571Y-132511904D01*
X165773809Y-132464285D01*
%TO.C,C3*%
X166107142Y-78083333D02*
X166154761Y-78035714D01*
X166202380Y-77892857D01*
X166202380Y-77797619D01*
X166154761Y-77654761D01*
X166059523Y-77559523D01*
X165964285Y-77511904D01*
X165773809Y-77464285D01*
X165630952Y-77464285D01*
X165440476Y-77511904D01*
X165345238Y-77559523D01*
X165250000Y-77654761D01*
X165202380Y-77797619D01*
X165202380Y-77892857D01*
X165250000Y-78035714D01*
X165297619Y-78083333D01*
X165202380Y-78416666D02*
X165202380Y-79035714D01*
X165583333Y-78702380D01*
X165583333Y-78845238D01*
X165630952Y-78940476D01*
X165678571Y-78988095D01*
X165773809Y-79035714D01*
X166011904Y-79035714D01*
X166107142Y-78988095D01*
X166154761Y-78940476D01*
X166202380Y-78845238D01*
X166202380Y-78559523D01*
X166154761Y-78464285D01*
X166107142Y-78416666D01*
%TO.C,C1*%
X148516666Y-132107142D02*
X148564285Y-132154761D01*
X148707142Y-132202380D01*
X148802380Y-132202380D01*
X148945238Y-132154761D01*
X149040476Y-132059523D01*
X149088095Y-131964285D01*
X149135714Y-131773809D01*
X149135714Y-131630952D01*
X149088095Y-131440476D01*
X149040476Y-131345238D01*
X148945238Y-131250000D01*
X148802380Y-131202380D01*
X148707142Y-131202380D01*
X148564285Y-131250000D01*
X148516666Y-131297619D01*
X147564285Y-132202380D02*
X148135714Y-132202380D01*
X147850000Y-132202380D02*
X147850000Y-131202380D01*
X147945238Y-131345238D01*
X148040476Y-131440476D01*
X148135714Y-131488095D01*
%TO.C,R11*%
X190192857Y-96902380D02*
X190526190Y-96426190D01*
X190764285Y-96902380D02*
X190764285Y-95902380D01*
X190383333Y-95902380D01*
X190288095Y-95950000D01*
X190240476Y-95997619D01*
X190192857Y-96092857D01*
X190192857Y-96235714D01*
X190240476Y-96330952D01*
X190288095Y-96378571D01*
X190383333Y-96426190D01*
X190764285Y-96426190D01*
X189240476Y-96902380D02*
X189811904Y-96902380D01*
X189526190Y-96902380D02*
X189526190Y-95902380D01*
X189621428Y-96045238D01*
X189716666Y-96140476D01*
X189811904Y-96188095D01*
X188288095Y-96902380D02*
X188859523Y-96902380D01*
X188573809Y-96902380D02*
X188573809Y-95902380D01*
X188669047Y-96045238D01*
X188764285Y-96140476D01*
X188859523Y-96188095D01*
%TO.C,R1*%
X139416666Y-134202380D02*
X139750000Y-133726190D01*
X139988095Y-134202380D02*
X139988095Y-133202380D01*
X139607142Y-133202380D01*
X139511904Y-133250000D01*
X139464285Y-133297619D01*
X139416666Y-133392857D01*
X139416666Y-133535714D01*
X139464285Y-133630952D01*
X139511904Y-133678571D01*
X139607142Y-133726190D01*
X139988095Y-133726190D01*
X138464285Y-134202380D02*
X139035714Y-134202380D01*
X138750000Y-134202380D02*
X138750000Y-133202380D01*
X138845238Y-133345238D01*
X138940476Y-133440476D01*
X139035714Y-133488095D01*
%TO.C,C11*%
X101307142Y-91407142D02*
X101354761Y-91359523D01*
X101402380Y-91216666D01*
X101402380Y-91121428D01*
X101354761Y-90978571D01*
X101259523Y-90883333D01*
X101164285Y-90835714D01*
X100973809Y-90788095D01*
X100830952Y-90788095D01*
X100640476Y-90835714D01*
X100545238Y-90883333D01*
X100450000Y-90978571D01*
X100402380Y-91121428D01*
X100402380Y-91216666D01*
X100450000Y-91359523D01*
X100497619Y-91407142D01*
X101402380Y-92359523D02*
X101402380Y-91788095D01*
X101402380Y-92073809D02*
X100402380Y-92073809D01*
X100545238Y-91978571D01*
X100640476Y-91883333D01*
X100688095Y-91788095D01*
X101402380Y-93311904D02*
X101402380Y-92740476D01*
X101402380Y-93026190D02*
X100402380Y-93026190D01*
X100545238Y-92930952D01*
X100640476Y-92835714D01*
X100688095Y-92740476D01*
%TO.C,D5*%
X182688095Y-132302380D02*
X182688095Y-131302380D01*
X182450000Y-131302380D01*
X182307142Y-131350000D01*
X182211904Y-131445238D01*
X182164285Y-131540476D01*
X182116666Y-131730952D01*
X182116666Y-131873809D01*
X182164285Y-132064285D01*
X182211904Y-132159523D01*
X182307142Y-132254761D01*
X182450000Y-132302380D01*
X182688095Y-132302380D01*
X181211904Y-131302380D02*
X181688095Y-131302380D01*
X181735714Y-131778571D01*
X181688095Y-131730952D01*
X181592857Y-131683333D01*
X181354761Y-131683333D01*
X181259523Y-131730952D01*
X181211904Y-131778571D01*
X181164285Y-131873809D01*
X181164285Y-132111904D01*
X181211904Y-132207142D01*
X181259523Y-132254761D01*
X181354761Y-132302380D01*
X181592857Y-132302380D01*
X181688095Y-132254761D01*
X181735714Y-132207142D01*
%TO.C,R19*%
X189892857Y-113202380D02*
X190226190Y-112726190D01*
X190464285Y-113202380D02*
X190464285Y-112202380D01*
X190083333Y-112202380D01*
X189988095Y-112250000D01*
X189940476Y-112297619D01*
X189892857Y-112392857D01*
X189892857Y-112535714D01*
X189940476Y-112630952D01*
X189988095Y-112678571D01*
X190083333Y-112726190D01*
X190464285Y-112726190D01*
X188940476Y-113202380D02*
X189511904Y-113202380D01*
X189226190Y-113202380D02*
X189226190Y-112202380D01*
X189321428Y-112345238D01*
X189416666Y-112440476D01*
X189511904Y-112488095D01*
X188464285Y-113202380D02*
X188273809Y-113202380D01*
X188178571Y-113154761D01*
X188130952Y-113107142D01*
X188035714Y-112964285D01*
X187988095Y-112773809D01*
X187988095Y-112392857D01*
X188035714Y-112297619D01*
X188083333Y-112250000D01*
X188178571Y-112202380D01*
X188369047Y-112202380D01*
X188464285Y-112250000D01*
X188511904Y-112297619D01*
X188559523Y-112392857D01*
X188559523Y-112630952D01*
X188511904Y-112726190D01*
X188464285Y-112773809D01*
X188369047Y-112821428D01*
X188178571Y-112821428D01*
X188083333Y-112773809D01*
X188035714Y-112726190D01*
X187988095Y-112630952D01*
%TO.C,R13*%
X203402380Y-82207142D02*
X202926190Y-81873809D01*
X203402380Y-81635714D02*
X202402380Y-81635714D01*
X202402380Y-82016666D01*
X202450000Y-82111904D01*
X202497619Y-82159523D01*
X202592857Y-82207142D01*
X202735714Y-82207142D01*
X202830952Y-82159523D01*
X202878571Y-82111904D01*
X202926190Y-82016666D01*
X202926190Y-81635714D01*
X203402380Y-83159523D02*
X203402380Y-82588095D01*
X203402380Y-82873809D02*
X202402380Y-82873809D01*
X202545238Y-82778571D01*
X202640476Y-82683333D01*
X202688095Y-82588095D01*
X202402380Y-83492857D02*
X202402380Y-84111904D01*
X202783333Y-83778571D01*
X202783333Y-83921428D01*
X202830952Y-84016666D01*
X202878571Y-84064285D01*
X202973809Y-84111904D01*
X203211904Y-84111904D01*
X203307142Y-84064285D01*
X203354761Y-84016666D01*
X203402380Y-83921428D01*
X203402380Y-83635714D01*
X203354761Y-83540476D01*
X203307142Y-83492857D01*
%TO.C,R28*%
X178332380Y-128357142D02*
X177856190Y-128023809D01*
X178332380Y-127785714D02*
X177332380Y-127785714D01*
X177332380Y-128166666D01*
X177380000Y-128261904D01*
X177427619Y-128309523D01*
X177522857Y-128357142D01*
X177665714Y-128357142D01*
X177760952Y-128309523D01*
X177808571Y-128261904D01*
X177856190Y-128166666D01*
X177856190Y-127785714D01*
X177427619Y-128738095D02*
X177380000Y-128785714D01*
X177332380Y-128880952D01*
X177332380Y-129119047D01*
X177380000Y-129214285D01*
X177427619Y-129261904D01*
X177522857Y-129309523D01*
X177618095Y-129309523D01*
X177760952Y-129261904D01*
X178332380Y-128690476D01*
X178332380Y-129309523D01*
X177760952Y-129880952D02*
X177713333Y-129785714D01*
X177665714Y-129738095D01*
X177570476Y-129690476D01*
X177522857Y-129690476D01*
X177427619Y-129738095D01*
X177380000Y-129785714D01*
X177332380Y-129880952D01*
X177332380Y-130071428D01*
X177380000Y-130166666D01*
X177427619Y-130214285D01*
X177522857Y-130261904D01*
X177570476Y-130261904D01*
X177665714Y-130214285D01*
X177713333Y-130166666D01*
X177760952Y-130071428D01*
X177760952Y-129880952D01*
X177808571Y-129785714D01*
X177856190Y-129738095D01*
X177951428Y-129690476D01*
X178141904Y-129690476D01*
X178237142Y-129738095D01*
X178284761Y-129785714D01*
X178332380Y-129880952D01*
X178332380Y-130071428D01*
X178284761Y-130166666D01*
X178237142Y-130214285D01*
X178141904Y-130261904D01*
X177951428Y-130261904D01*
X177856190Y-130214285D01*
X177808571Y-130166666D01*
X177760952Y-130071428D01*
%TO.C,R17*%
X189892857Y-116702380D02*
X190226190Y-116226190D01*
X190464285Y-116702380D02*
X190464285Y-115702380D01*
X190083333Y-115702380D01*
X189988095Y-115750000D01*
X189940476Y-115797619D01*
X189892857Y-115892857D01*
X189892857Y-116035714D01*
X189940476Y-116130952D01*
X189988095Y-116178571D01*
X190083333Y-116226190D01*
X190464285Y-116226190D01*
X188940476Y-116702380D02*
X189511904Y-116702380D01*
X189226190Y-116702380D02*
X189226190Y-115702380D01*
X189321428Y-115845238D01*
X189416666Y-115940476D01*
X189511904Y-115988095D01*
X188607142Y-115702380D02*
X187940476Y-115702380D01*
X188369047Y-116702380D01*
%TO.C,R22*%
X190092857Y-131302380D02*
X190426190Y-130826190D01*
X190664285Y-131302380D02*
X190664285Y-130302380D01*
X190283333Y-130302380D01*
X190188095Y-130350000D01*
X190140476Y-130397619D01*
X190092857Y-130492857D01*
X190092857Y-130635714D01*
X190140476Y-130730952D01*
X190188095Y-130778571D01*
X190283333Y-130826190D01*
X190664285Y-130826190D01*
X189711904Y-130397619D02*
X189664285Y-130350000D01*
X189569047Y-130302380D01*
X189330952Y-130302380D01*
X189235714Y-130350000D01*
X189188095Y-130397619D01*
X189140476Y-130492857D01*
X189140476Y-130588095D01*
X189188095Y-130730952D01*
X189759523Y-131302380D01*
X189140476Y-131302380D01*
X188759523Y-130397619D02*
X188711904Y-130350000D01*
X188616666Y-130302380D01*
X188378571Y-130302380D01*
X188283333Y-130350000D01*
X188235714Y-130397619D01*
X188188095Y-130492857D01*
X188188095Y-130588095D01*
X188235714Y-130730952D01*
X188807142Y-131302380D01*
X188188095Y-131302380D01*
%TO.C,R15*%
X178092857Y-115632380D02*
X178426190Y-115156190D01*
X178664285Y-115632380D02*
X178664285Y-114632380D01*
X178283333Y-114632380D01*
X178188095Y-114680000D01*
X178140476Y-114727619D01*
X178092857Y-114822857D01*
X178092857Y-114965714D01*
X178140476Y-115060952D01*
X178188095Y-115108571D01*
X178283333Y-115156190D01*
X178664285Y-115156190D01*
X177140476Y-115632380D02*
X177711904Y-115632380D01*
X177426190Y-115632380D02*
X177426190Y-114632380D01*
X177521428Y-114775238D01*
X177616666Y-114870476D01*
X177711904Y-114918095D01*
X176235714Y-114632380D02*
X176711904Y-114632380D01*
X176759523Y-115108571D01*
X176711904Y-115060952D01*
X176616666Y-115013333D01*
X176378571Y-115013333D01*
X176283333Y-115060952D01*
X176235714Y-115108571D01*
X176188095Y-115203809D01*
X176188095Y-115441904D01*
X176235714Y-115537142D01*
X176283333Y-115584761D01*
X176378571Y-115632380D01*
X176616666Y-115632380D01*
X176711904Y-115584761D01*
X176759523Y-115537142D01*
%TO.C,D2*%
X182638095Y-78452380D02*
X182638095Y-77452380D01*
X182400000Y-77452380D01*
X182257142Y-77500000D01*
X182161904Y-77595238D01*
X182114285Y-77690476D01*
X182066666Y-77880952D01*
X182066666Y-78023809D01*
X182114285Y-78214285D01*
X182161904Y-78309523D01*
X182257142Y-78404761D01*
X182400000Y-78452380D01*
X182638095Y-78452380D01*
X181685714Y-77547619D02*
X181638095Y-77500000D01*
X181542857Y-77452380D01*
X181304761Y-77452380D01*
X181209523Y-77500000D01*
X181161904Y-77547619D01*
X181114285Y-77642857D01*
X181114285Y-77738095D01*
X181161904Y-77880952D01*
X181733333Y-78452380D01*
X181114285Y-78452380D01*
%TO.C,C9*%
X201807142Y-118083333D02*
X201854761Y-118035714D01*
X201902380Y-117892857D01*
X201902380Y-117797619D01*
X201854761Y-117654761D01*
X201759523Y-117559523D01*
X201664285Y-117511904D01*
X201473809Y-117464285D01*
X201330952Y-117464285D01*
X201140476Y-117511904D01*
X201045238Y-117559523D01*
X200950000Y-117654761D01*
X200902380Y-117797619D01*
X200902380Y-117892857D01*
X200950000Y-118035714D01*
X200997619Y-118083333D01*
X201902380Y-118559523D02*
X201902380Y-118750000D01*
X201854761Y-118845238D01*
X201807142Y-118892857D01*
X201664285Y-118988095D01*
X201473809Y-119035714D01*
X201092857Y-119035714D01*
X200997619Y-118988095D01*
X200950000Y-118940476D01*
X200902380Y-118845238D01*
X200902380Y-118654761D01*
X200950000Y-118559523D01*
X200997619Y-118511904D01*
X201092857Y-118464285D01*
X201330952Y-118464285D01*
X201426190Y-118511904D01*
X201473809Y-118559523D01*
X201521428Y-118654761D01*
X201521428Y-118845238D01*
X201473809Y-118940476D01*
X201426190Y-118988095D01*
X201330952Y-119035714D01*
%TO.C,R26*%
X178332380Y-92332142D02*
X177856190Y-91998809D01*
X178332380Y-91760714D02*
X177332380Y-91760714D01*
X177332380Y-92141666D01*
X177380000Y-92236904D01*
X177427619Y-92284523D01*
X177522857Y-92332142D01*
X177665714Y-92332142D01*
X177760952Y-92284523D01*
X177808571Y-92236904D01*
X177856190Y-92141666D01*
X177856190Y-91760714D01*
X177427619Y-92713095D02*
X177380000Y-92760714D01*
X177332380Y-92855952D01*
X177332380Y-93094047D01*
X177380000Y-93189285D01*
X177427619Y-93236904D01*
X177522857Y-93284523D01*
X177618095Y-93284523D01*
X177760952Y-93236904D01*
X178332380Y-92665476D01*
X178332380Y-93284523D01*
X177332380Y-94141666D02*
X177332380Y-93951190D01*
X177380000Y-93855952D01*
X177427619Y-93808333D01*
X177570476Y-93713095D01*
X177760952Y-93665476D01*
X178141904Y-93665476D01*
X178237142Y-93713095D01*
X178284761Y-93760714D01*
X178332380Y-93855952D01*
X178332380Y-94046428D01*
X178284761Y-94141666D01*
X178237142Y-94189285D01*
X178141904Y-94236904D01*
X177903809Y-94236904D01*
X177808571Y-94189285D01*
X177760952Y-94141666D01*
X177713333Y-94046428D01*
X177713333Y-93855952D01*
X177760952Y-93760714D01*
X177808571Y-93713095D01*
X177903809Y-93665476D01*
%TO.C,C10*%
X201907142Y-136007142D02*
X201954761Y-135959523D01*
X202002380Y-135816666D01*
X202002380Y-135721428D01*
X201954761Y-135578571D01*
X201859523Y-135483333D01*
X201764285Y-135435714D01*
X201573809Y-135388095D01*
X201430952Y-135388095D01*
X201240476Y-135435714D01*
X201145238Y-135483333D01*
X201050000Y-135578571D01*
X201002380Y-135721428D01*
X201002380Y-135816666D01*
X201050000Y-135959523D01*
X201097619Y-136007142D01*
X202002380Y-136959523D02*
X202002380Y-136388095D01*
X202002380Y-136673809D02*
X201002380Y-136673809D01*
X201145238Y-136578571D01*
X201240476Y-136483333D01*
X201288095Y-136388095D01*
X201002380Y-137578571D02*
X201002380Y-137673809D01*
X201050000Y-137769047D01*
X201097619Y-137816666D01*
X201192857Y-137864285D01*
X201383333Y-137911904D01*
X201621428Y-137911904D01*
X201811904Y-137864285D01*
X201907142Y-137816666D01*
X201954761Y-137769047D01*
X202002380Y-137673809D01*
X202002380Y-137578571D01*
X201954761Y-137483333D01*
X201907142Y-137435714D01*
X201811904Y-137388095D01*
X201621428Y-137340476D01*
X201383333Y-137340476D01*
X201192857Y-137388095D01*
X201097619Y-137435714D01*
X201050000Y-137483333D01*
X201002380Y-137578571D01*
%TO.C,R16*%
X178092857Y-133632380D02*
X178426190Y-133156190D01*
X178664285Y-133632380D02*
X178664285Y-132632380D01*
X178283333Y-132632380D01*
X178188095Y-132680000D01*
X178140476Y-132727619D01*
X178092857Y-132822857D01*
X178092857Y-132965714D01*
X178140476Y-133060952D01*
X178188095Y-133108571D01*
X178283333Y-133156190D01*
X178664285Y-133156190D01*
X177140476Y-133632380D02*
X177711904Y-133632380D01*
X177426190Y-133632380D02*
X177426190Y-132632380D01*
X177521428Y-132775238D01*
X177616666Y-132870476D01*
X177711904Y-132918095D01*
X176283333Y-132632380D02*
X176473809Y-132632380D01*
X176569047Y-132680000D01*
X176616666Y-132727619D01*
X176711904Y-132870476D01*
X176759523Y-133060952D01*
X176759523Y-133441904D01*
X176711904Y-133537142D01*
X176664285Y-133584761D01*
X176569047Y-133632380D01*
X176378571Y-133632380D01*
X176283333Y-133584761D01*
X176235714Y-133537142D01*
X176188095Y-133441904D01*
X176188095Y-133203809D01*
X176235714Y-133108571D01*
X176283333Y-133060952D01*
X176378571Y-133013333D01*
X176569047Y-133013333D01*
X176664285Y-133060952D01*
X176711904Y-133108571D01*
X176759523Y-133203809D01*
%TO.C,R5*%
X177616666Y-79882380D02*
X177950000Y-79406190D01*
X178188095Y-79882380D02*
X178188095Y-78882380D01*
X177807142Y-78882380D01*
X177711904Y-78930000D01*
X177664285Y-78977619D01*
X177616666Y-79072857D01*
X177616666Y-79215714D01*
X177664285Y-79310952D01*
X177711904Y-79358571D01*
X177807142Y-79406190D01*
X178188095Y-79406190D01*
X176711904Y-78882380D02*
X177188095Y-78882380D01*
X177235714Y-79358571D01*
X177188095Y-79310952D01*
X177092857Y-79263333D01*
X176854761Y-79263333D01*
X176759523Y-79310952D01*
X176711904Y-79358571D01*
X176664285Y-79453809D01*
X176664285Y-79691904D01*
X176711904Y-79787142D01*
X176759523Y-79834761D01*
X176854761Y-79882380D01*
X177092857Y-79882380D01*
X177188095Y-79834761D01*
X177235714Y-79787142D01*
%TO.C,C7*%
X201807142Y-82283333D02*
X201854761Y-82235714D01*
X201902380Y-82092857D01*
X201902380Y-81997619D01*
X201854761Y-81854761D01*
X201759523Y-81759523D01*
X201664285Y-81711904D01*
X201473809Y-81664285D01*
X201330952Y-81664285D01*
X201140476Y-81711904D01*
X201045238Y-81759523D01*
X200950000Y-81854761D01*
X200902380Y-81997619D01*
X200902380Y-82092857D01*
X200950000Y-82235714D01*
X200997619Y-82283333D01*
X200902380Y-82616666D02*
X200902380Y-83283333D01*
X201902380Y-82854761D01*
%TO.C,R8*%
X189216666Y-79002380D02*
X189550000Y-78526190D01*
X189788095Y-79002380D02*
X189788095Y-78002380D01*
X189407142Y-78002380D01*
X189311904Y-78050000D01*
X189264285Y-78097619D01*
X189216666Y-78192857D01*
X189216666Y-78335714D01*
X189264285Y-78430952D01*
X189311904Y-78478571D01*
X189407142Y-78526190D01*
X189788095Y-78526190D01*
X188645238Y-78430952D02*
X188740476Y-78383333D01*
X188788095Y-78335714D01*
X188835714Y-78240476D01*
X188835714Y-78192857D01*
X188788095Y-78097619D01*
X188740476Y-78050000D01*
X188645238Y-78002380D01*
X188454761Y-78002380D01*
X188359523Y-78050000D01*
X188311904Y-78097619D01*
X188264285Y-78192857D01*
X188264285Y-78240476D01*
X188311904Y-78335714D01*
X188359523Y-78383333D01*
X188454761Y-78430952D01*
X188645238Y-78430952D01*
X188740476Y-78478571D01*
X188788095Y-78526190D01*
X188835714Y-78621428D01*
X188835714Y-78811904D01*
X188788095Y-78907142D01*
X188740476Y-78954761D01*
X188645238Y-79002380D01*
X188454761Y-79002380D01*
X188359523Y-78954761D01*
X188311904Y-78907142D01*
X188264285Y-78811904D01*
X188264285Y-78621428D01*
X188311904Y-78526190D01*
X188359523Y-78478571D01*
X188454761Y-78430952D01*
%TO.C,R6*%
X177616666Y-97632380D02*
X177950000Y-97156190D01*
X178188095Y-97632380D02*
X178188095Y-96632380D01*
X177807142Y-96632380D01*
X177711904Y-96680000D01*
X177664285Y-96727619D01*
X177616666Y-96822857D01*
X177616666Y-96965714D01*
X177664285Y-97060952D01*
X177711904Y-97108571D01*
X177807142Y-97156190D01*
X178188095Y-97156190D01*
X176759523Y-96632380D02*
X176950000Y-96632380D01*
X177045238Y-96680000D01*
X177092857Y-96727619D01*
X177188095Y-96870476D01*
X177235714Y-97060952D01*
X177235714Y-97441904D01*
X177188095Y-97537142D01*
X177140476Y-97584761D01*
X177045238Y-97632380D01*
X176854761Y-97632380D01*
X176759523Y-97584761D01*
X176711904Y-97537142D01*
X176664285Y-97441904D01*
X176664285Y-97203809D01*
X176711904Y-97108571D01*
X176759523Y-97060952D01*
X176854761Y-97013333D01*
X177045238Y-97013333D01*
X177140476Y-97060952D01*
X177188095Y-97108571D01*
X177235714Y-97203809D01*
%TO.C,R9*%
X189216666Y-77202380D02*
X189550000Y-76726190D01*
X189788095Y-77202380D02*
X189788095Y-76202380D01*
X189407142Y-76202380D01*
X189311904Y-76250000D01*
X189264285Y-76297619D01*
X189216666Y-76392857D01*
X189216666Y-76535714D01*
X189264285Y-76630952D01*
X189311904Y-76678571D01*
X189407142Y-76726190D01*
X189788095Y-76726190D01*
X188740476Y-77202380D02*
X188550000Y-77202380D01*
X188454761Y-77154761D01*
X188407142Y-77107142D01*
X188311904Y-76964285D01*
X188264285Y-76773809D01*
X188264285Y-76392857D01*
X188311904Y-76297619D01*
X188359523Y-76250000D01*
X188454761Y-76202380D01*
X188645238Y-76202380D01*
X188740476Y-76250000D01*
X188788095Y-76297619D01*
X188835714Y-76392857D01*
X188835714Y-76630952D01*
X188788095Y-76726190D01*
X188740476Y-76773809D01*
X188645238Y-76821428D01*
X188454761Y-76821428D01*
X188359523Y-76773809D01*
X188311904Y-76726190D01*
X188264285Y-76630952D01*
%TO.C,C8*%
X201807142Y-100183333D02*
X201854761Y-100135714D01*
X201902380Y-99992857D01*
X201902380Y-99897619D01*
X201854761Y-99754761D01*
X201759523Y-99659523D01*
X201664285Y-99611904D01*
X201473809Y-99564285D01*
X201330952Y-99564285D01*
X201140476Y-99611904D01*
X201045238Y-99659523D01*
X200950000Y-99754761D01*
X200902380Y-99897619D01*
X200902380Y-99992857D01*
X200950000Y-100135714D01*
X200997619Y-100183333D01*
X201330952Y-100754761D02*
X201283333Y-100659523D01*
X201235714Y-100611904D01*
X201140476Y-100564285D01*
X201092857Y-100564285D01*
X200997619Y-100611904D01*
X200950000Y-100659523D01*
X200902380Y-100754761D01*
X200902380Y-100945238D01*
X200950000Y-101040476D01*
X200997619Y-101088095D01*
X201092857Y-101135714D01*
X201140476Y-101135714D01*
X201235714Y-101088095D01*
X201283333Y-101040476D01*
X201330952Y-100945238D01*
X201330952Y-100754761D01*
X201378571Y-100659523D01*
X201426190Y-100611904D01*
X201521428Y-100564285D01*
X201711904Y-100564285D01*
X201807142Y-100611904D01*
X201854761Y-100659523D01*
X201902380Y-100754761D01*
X201902380Y-100945238D01*
X201854761Y-101040476D01*
X201807142Y-101088095D01*
X201711904Y-101135714D01*
X201521428Y-101135714D01*
X201426190Y-101088095D01*
X201378571Y-101040476D01*
X201330952Y-100945238D01*
%TO.C,C5*%
X166207142Y-114083333D02*
X166254761Y-114035714D01*
X166302380Y-113892857D01*
X166302380Y-113797619D01*
X166254761Y-113654761D01*
X166159523Y-113559523D01*
X166064285Y-113511904D01*
X165873809Y-113464285D01*
X165730952Y-113464285D01*
X165540476Y-113511904D01*
X165445238Y-113559523D01*
X165350000Y-113654761D01*
X165302380Y-113797619D01*
X165302380Y-113892857D01*
X165350000Y-114035714D01*
X165397619Y-114083333D01*
X165302380Y-114988095D02*
X165302380Y-114511904D01*
X165778571Y-114464285D01*
X165730952Y-114511904D01*
X165683333Y-114607142D01*
X165683333Y-114845238D01*
X165730952Y-114940476D01*
X165778571Y-114988095D01*
X165873809Y-115035714D01*
X166111904Y-115035714D01*
X166207142Y-114988095D01*
X166254761Y-114940476D01*
X166302380Y-114845238D01*
X166302380Y-114607142D01*
X166254761Y-114511904D01*
X166207142Y-114464285D01*
%TO.C,R24*%
X203402380Y-136007142D02*
X202926190Y-135673809D01*
X203402380Y-135435714D02*
X202402380Y-135435714D01*
X202402380Y-135816666D01*
X202450000Y-135911904D01*
X202497619Y-135959523D01*
X202592857Y-136007142D01*
X202735714Y-136007142D01*
X202830952Y-135959523D01*
X202878571Y-135911904D01*
X202926190Y-135816666D01*
X202926190Y-135435714D01*
X202497619Y-136388095D02*
X202450000Y-136435714D01*
X202402380Y-136530952D01*
X202402380Y-136769047D01*
X202450000Y-136864285D01*
X202497619Y-136911904D01*
X202592857Y-136959523D01*
X202688095Y-136959523D01*
X202830952Y-136911904D01*
X203402380Y-136340476D01*
X203402380Y-136959523D01*
X202735714Y-137816666D02*
X203402380Y-137816666D01*
X202354761Y-137578571D02*
X203069047Y-137340476D01*
X203069047Y-137959523D01*
%TO.C,C13*%
X101107142Y-109479642D02*
X101154761Y-109432023D01*
X101202380Y-109289166D01*
X101202380Y-109193928D01*
X101154761Y-109051071D01*
X101059523Y-108955833D01*
X100964285Y-108908214D01*
X100773809Y-108860595D01*
X100630952Y-108860595D01*
X100440476Y-108908214D01*
X100345238Y-108955833D01*
X100250000Y-109051071D01*
X100202380Y-109193928D01*
X100202380Y-109289166D01*
X100250000Y-109432023D01*
X100297619Y-109479642D01*
X101202380Y-110432023D02*
X101202380Y-109860595D01*
X101202380Y-110146309D02*
X100202380Y-110146309D01*
X100345238Y-110051071D01*
X100440476Y-109955833D01*
X100488095Y-109860595D01*
X100202380Y-110765357D02*
X100202380Y-111384404D01*
X100583333Y-111051071D01*
X100583333Y-111193928D01*
X100630952Y-111289166D01*
X100678571Y-111336785D01*
X100773809Y-111384404D01*
X101011904Y-111384404D01*
X101107142Y-111336785D01*
X101154761Y-111289166D01*
X101202380Y-111193928D01*
X101202380Y-110908214D01*
X101154761Y-110812976D01*
X101107142Y-110765357D01*
D11*
%TO.C,C12*%
X101860000Y-101213767D02*
X101860000Y-100921233D01*
X102880000Y-101213767D02*
X102880000Y-100921233D01*
%TO.C,R2*%
X145195276Y-133227500D02*
X145704724Y-133227500D01*
X145195276Y-134272500D02*
X145704724Y-134272500D01*
%TO.C,C4*%
X167710000Y-96396267D02*
X167710000Y-96103733D01*
X166690000Y-96396267D02*
X166690000Y-96103733D01*
%TO.C,R3*%
X158772500Y-63004724D02*
X158772500Y-62495276D01*
X157727500Y-63004724D02*
X157727500Y-62495276D01*
%TO.C,R12*%
X186454724Y-94227500D02*
X185945276Y-94227500D01*
X186454724Y-95272500D02*
X185945276Y-95272500D01*
%TO.C,D4*%
X179700000Y-114750000D02*
X179700000Y-112750000D01*
X179700000Y-112750000D02*
X183600000Y-112750000D01*
X179700000Y-114750000D02*
X183600000Y-114750000D01*
%TO.C,R27*%
X175927500Y-111254724D02*
X175927500Y-110745276D01*
X176972500Y-111254724D02*
X176972500Y-110745276D01*
%TO.C,R20*%
X186454724Y-134702500D02*
X185945276Y-134702500D01*
X186454724Y-133657500D02*
X185945276Y-133657500D01*
%TO.C,R25*%
X176972500Y-75254724D02*
X176972500Y-74745276D01*
X175927500Y-75254724D02*
X175927500Y-74745276D01*
%TO.C,R4*%
X167185000Y-62495276D02*
X167185000Y-63004724D01*
X166140000Y-62495276D02*
X166140000Y-63004724D01*
%TO.C,R18*%
X186367224Y-115022500D02*
X185857776Y-115022500D01*
X186367224Y-113977500D02*
X185857776Y-113977500D01*
%TO.C,Q2*%
X162190000Y-64330000D02*
X162190000Y-63400000D01*
X162190000Y-61170000D02*
X165350000Y-61170000D01*
X162190000Y-64330000D02*
X163650000Y-64330000D01*
X162190000Y-61170000D02*
X162190000Y-62100000D01*
%TO.C,D3*%
X179700000Y-96750000D02*
X183600000Y-96750000D01*
X179700000Y-96750000D02*
X179700000Y-94750000D01*
X179700000Y-94750000D02*
X183600000Y-94750000D01*
%TO.C,R14*%
X203472500Y-97245276D02*
X203472500Y-97754724D01*
X202427500Y-97245276D02*
X202427500Y-97754724D01*
%TO.C,R10*%
X186454724Y-97727500D02*
X185945276Y-97727500D01*
X186454724Y-98772500D02*
X185945276Y-98772500D01*
%TO.C,R21*%
X186454724Y-131977500D02*
X185945276Y-131977500D01*
X186454724Y-133022500D02*
X185945276Y-133022500D01*
%TO.C,C14*%
X102730000Y-119326267D02*
X102730000Y-119033733D01*
X101710000Y-119326267D02*
X101710000Y-119033733D01*
%TO.C,R7*%
X186342224Y-79727500D02*
X185832776Y-79727500D01*
X186342224Y-80772500D02*
X185832776Y-80772500D01*
%TO.C,R23*%
X203472500Y-115245276D02*
X203472500Y-115754724D01*
X202427500Y-115245276D02*
X202427500Y-115754724D01*
%TO.C,C6*%
X167710000Y-132396267D02*
X167710000Y-132103733D01*
X166690000Y-132396267D02*
X166690000Y-132103733D01*
%TO.C,C3*%
X166690000Y-78396267D02*
X166690000Y-78103733D01*
X167710000Y-78396267D02*
X167710000Y-78103733D01*
%TO.C,C1*%
X145188748Y-132485000D02*
X145711252Y-132485000D01*
X145188748Y-131015000D02*
X145711252Y-131015000D01*
%TO.C,R11*%
X186454724Y-95977500D02*
X185945276Y-95977500D01*
X186454724Y-97022500D02*
X185945276Y-97022500D01*
%TO.C,R1*%
X142204724Y-133227500D02*
X141695276Y-133227500D01*
X142204724Y-134272500D02*
X141695276Y-134272500D01*
%TO.C,C11*%
X102950000Y-92196267D02*
X102950000Y-91903733D01*
X101930000Y-92196267D02*
X101930000Y-91903733D01*
%TO.C,D5*%
X179700000Y-132750000D02*
X179700000Y-130750000D01*
X179700000Y-130750000D02*
X183600000Y-130750000D01*
X179700000Y-132750000D02*
X183600000Y-132750000D01*
%TO.C,R19*%
X186367224Y-112227500D02*
X185857776Y-112227500D01*
X186367224Y-113272500D02*
X185857776Y-113272500D01*
%TO.C,R13*%
X202427500Y-79245276D02*
X202427500Y-79754724D01*
X203472500Y-79245276D02*
X203472500Y-79754724D01*
%TO.C,R28*%
X175927500Y-129254724D02*
X175927500Y-128745276D01*
X176972500Y-129254724D02*
X176972500Y-128745276D01*
%TO.C,R17*%
X186367224Y-116772500D02*
X185857776Y-116772500D01*
X186367224Y-115727500D02*
X185857776Y-115727500D01*
%TO.C,R22*%
X186454724Y-130327500D02*
X185945276Y-130327500D01*
X186454724Y-131372500D02*
X185945276Y-131372500D01*
%TO.C,R15*%
X177195276Y-114272500D02*
X177704724Y-114272500D01*
X177195276Y-113227500D02*
X177704724Y-113227500D01*
%TO.C,D2*%
X179650000Y-77000000D02*
X183550000Y-77000000D01*
X179650000Y-79000000D02*
X183550000Y-79000000D01*
X179650000Y-79000000D02*
X179650000Y-77000000D01*
%TO.C,C9*%
X201960000Y-115646267D02*
X201960000Y-115353733D01*
X200940000Y-115646267D02*
X200940000Y-115353733D01*
%TO.C,R26*%
X176972500Y-93229724D02*
X176972500Y-92720276D01*
X175927500Y-93229724D02*
X175927500Y-92720276D01*
%TO.C,C10*%
X201960000Y-133646267D02*
X201960000Y-133353733D01*
X200940000Y-133646267D02*
X200940000Y-133353733D01*
%TO.C,R16*%
X177195276Y-131227500D02*
X177704724Y-131227500D01*
X177195276Y-132272500D02*
X177704724Y-132272500D01*
%TO.C,R5*%
X177195276Y-78522500D02*
X177704724Y-78522500D01*
X177195276Y-77477500D02*
X177704724Y-77477500D01*
%TO.C,C7*%
X200940000Y-79646267D02*
X200940000Y-79353733D01*
X201960000Y-79646267D02*
X201960000Y-79353733D01*
%TO.C,R8*%
X186342224Y-78007500D02*
X185832776Y-78007500D01*
X186342224Y-79052500D02*
X185832776Y-79052500D01*
%TO.C,R6*%
X177195276Y-96272500D02*
X177704724Y-96272500D01*
X177195276Y-95227500D02*
X177704724Y-95227500D01*
%TO.C,R9*%
X186342224Y-76227500D02*
X185832776Y-76227500D01*
X186342224Y-77272500D02*
X185832776Y-77272500D01*
%TO.C,C8*%
X200940000Y-97646267D02*
X200940000Y-97353733D01*
X201960000Y-97646267D02*
X201960000Y-97353733D01*
%TO.C,C5*%
X167860000Y-114396267D02*
X167860000Y-114103733D01*
X166840000Y-114396267D02*
X166840000Y-114103733D01*
%TO.C,R24*%
X203472500Y-133245276D02*
X203472500Y-133754724D01*
X202427500Y-133245276D02*
X202427500Y-133754724D01*
%TO.C,C13*%
X102900000Y-110268767D02*
X102900000Y-109976233D01*
X101880000Y-110268767D02*
X101880000Y-109976233D01*
%TD*%
%LPC*%
D12*
%TO.C,J12*%
X164450000Y-156350000D03*
X153450000Y-156350000D03*
D13*
X156450000Y-146350000D03*
D14*
X161450000Y-146350000D03*
%TD*%
D15*
%TO.C,J3*%
X199300000Y-98650000D03*
D16*
X199300000Y-96150000D03*
X199300000Y-93650000D03*
X199300000Y-91150000D03*
X199300000Y-88650000D03*
%TD*%
D17*
%TO.C,U3*%
X169250000Y-105300000D03*
D18*
X169250000Y-107840000D03*
X169250000Y-110380000D03*
X169250000Y-112920000D03*
X169250000Y-115460000D03*
X169250000Y-118000000D03*
X194650000Y-118000000D03*
X194650000Y-115460000D03*
X194650000Y-112920000D03*
X194650000Y-110380000D03*
X194650000Y-107840000D03*
X194650000Y-105300000D03*
%TD*%
D12*
%TO.C,J7*%
X108450000Y-156350000D03*
X119450000Y-156350000D03*
D13*
X111450000Y-146350000D03*
D14*
X116450000Y-146350000D03*
%TD*%
D17*
%TO.C,U4*%
X169250000Y-123300000D03*
D18*
X169250000Y-125840000D03*
X169250000Y-128380000D03*
X169250000Y-130920000D03*
X169250000Y-133460000D03*
X169250000Y-136000000D03*
X194650000Y-136000000D03*
X194650000Y-133460000D03*
X194650000Y-130920000D03*
X194650000Y-128380000D03*
X194650000Y-125840000D03*
X194650000Y-123300000D03*
%TD*%
D15*
%TO.C,J4*%
X199300000Y-116650000D03*
D16*
X199300000Y-114150000D03*
X199300000Y-111650000D03*
X199300000Y-109150000D03*
X199300000Y-106650000D03*
%TD*%
D12*
%TO.C,J6*%
X101625000Y-72250000D03*
X101625000Y-83250000D03*
D13*
X111625000Y-75250000D03*
D14*
X111625000Y-80250000D03*
%TD*%
D15*
%TO.C,J5*%
X199300000Y-134650000D03*
D16*
X199300000Y-132150000D03*
X199300000Y-129650000D03*
X199300000Y-127150000D03*
X199300000Y-124650000D03*
%TD*%
D17*
%TO.C,U2*%
X169250000Y-87300000D03*
D18*
X169250000Y-89840000D03*
X169250000Y-92380000D03*
X169250000Y-94920000D03*
X169250000Y-97460000D03*
X169250000Y-100000000D03*
X194650000Y-100000000D03*
X194650000Y-97460000D03*
X194650000Y-94920000D03*
X194650000Y-92380000D03*
X194650000Y-89840000D03*
X194650000Y-87300000D03*
%TD*%
D19*
%TO.C,J16*%
X104600000Y-117500000D03*
D16*
X104600000Y-120000000D03*
%TD*%
D19*
%TO.C,J10*%
X104600000Y-90500000D03*
D16*
X104600000Y-93000000D03*
%TD*%
D12*
%TO.C,J13*%
X168450000Y-156350000D03*
X179450000Y-156350000D03*
D13*
X171450000Y-146350000D03*
D14*
X176450000Y-146350000D03*
%TD*%
D12*
%TO.C,J14*%
X194450000Y-156350000D03*
X183450000Y-156350000D03*
D13*
X186450000Y-146350000D03*
D14*
X191450000Y-146350000D03*
%TD*%
D17*
%TO.C,U1*%
X169250000Y-69300000D03*
D18*
X169250000Y-71840000D03*
X169250000Y-74380000D03*
X169250000Y-76920000D03*
X169250000Y-79460000D03*
X169250000Y-82000000D03*
X194650000Y-82000000D03*
X194650000Y-79460000D03*
X194650000Y-76920000D03*
X194650000Y-74380000D03*
X194650000Y-71840000D03*
X194650000Y-69300000D03*
%TD*%
D20*
%TO.C,F1*%
X120250000Y-127890000D03*
X123650000Y-127890000D03*
X123650000Y-137810000D03*
X120250000Y-137810000D03*
%TD*%
D19*
%TO.C,J15*%
X104600000Y-108500000D03*
D16*
X104600000Y-111000000D03*
%TD*%
D12*
%TO.C,J8*%
X134450000Y-156350000D03*
X123450000Y-156350000D03*
D13*
X126450000Y-146350000D03*
D14*
X131450000Y-146350000D03*
%TD*%
D15*
%TO.C,J2*%
X199300000Y-80650000D03*
D16*
X199300000Y-78150000D03*
X199300000Y-75650000D03*
X199300000Y-73150000D03*
X199300000Y-70650000D03*
%TD*%
D18*
%TO.C,MES1*%
X138950000Y-59750000D03*
X136950000Y-59735000D03*
%TD*%
D21*
%TO.C,SW2*%
X182150000Y-49950000D03*
D22*
X182150000Y-52490000D03*
X182150000Y-55030000D03*
X182150000Y-57570000D03*
X189770000Y-57570000D03*
X189770000Y-55030000D03*
X189770000Y-52490000D03*
X189770000Y-49950000D03*
%TD*%
D23*
%TO.C,SW1*%
X162950000Y-58750000D03*
X162950000Y-52750000D03*
%TD*%
D12*
%TO.C,J9*%
X149450000Y-156350000D03*
X138450000Y-156350000D03*
D13*
X141450000Y-146350000D03*
D14*
X146450000Y-146350000D03*
%TD*%
D19*
%TO.C,J11*%
X104600000Y-99500000D03*
D16*
X104600000Y-102000000D03*
%TD*%
D24*
%TO.C,J1*%
X108700000Y-139600000D03*
X108700000Y-126100000D03*
D25*
X114700000Y-136450000D03*
D26*
X114700000Y-129250000D03*
%TD*%
D27*
%TO.C,C12*%
X102370000Y-101930000D03*
X102370000Y-100205000D03*
%TD*%
D28*
%TO.C,R2*%
X144537500Y-133750000D03*
X146362500Y-133750000D03*
%TD*%
D27*
%TO.C,C4*%
X167200000Y-97112500D03*
X167200000Y-95387500D03*
%TD*%
D29*
%TO.C,R3*%
X158250000Y-63662500D03*
X158250000Y-61837500D03*
%TD*%
D30*
%TO.C,R12*%
X187112500Y-94750000D03*
X185287500Y-94750000D03*
%TD*%
D31*
%TO.C,D4*%
X180300000Y-113750000D03*
X183600000Y-113750000D03*
%TD*%
D29*
%TO.C,R27*%
X176450000Y-111912500D03*
X176450000Y-110087500D03*
%TD*%
D30*
%TO.C,R20*%
X187112500Y-134180000D03*
X185287500Y-134180000D03*
%TD*%
D29*
%TO.C,R25*%
X176450000Y-75912500D03*
X176450000Y-74087500D03*
%TD*%
D32*
%TO.C,R4*%
X166662500Y-61837500D03*
X166662500Y-63662500D03*
%TD*%
D30*
%TO.C,R18*%
X187025000Y-114500000D03*
X185200000Y-114500000D03*
%TD*%
D33*
%TO.C,Q2*%
X164450000Y-61800000D03*
X164450000Y-63700000D03*
X161450000Y-62750000D03*
%TD*%
D31*
%TO.C,D3*%
X180300000Y-95750000D03*
X183600000Y-95750000D03*
%TD*%
D32*
%TO.C,R14*%
X202950000Y-96587500D03*
X202950000Y-98412500D03*
%TD*%
D30*
%TO.C,R10*%
X187112500Y-98250000D03*
X185287500Y-98250000D03*
%TD*%
%TO.C,R21*%
X187112500Y-132500000D03*
X185287500Y-132500000D03*
%TD*%
D27*
%TO.C,C14*%
X102220000Y-120042500D03*
X102220000Y-118317500D03*
%TD*%
D30*
%TO.C,R7*%
X187000000Y-80250000D03*
X185175000Y-80250000D03*
%TD*%
D32*
%TO.C,R23*%
X202950000Y-114587500D03*
X202950000Y-116412500D03*
%TD*%
D27*
%TO.C,C6*%
X167200000Y-133112500D03*
X167200000Y-131387500D03*
%TD*%
%TO.C,C3*%
X167200000Y-79112500D03*
X167200000Y-77387500D03*
%TD*%
D34*
%TO.C,C1*%
X144412500Y-131750000D03*
X146487500Y-131750000D03*
%TD*%
D30*
%TO.C,R11*%
X187112500Y-96500000D03*
X185287500Y-96500000D03*
%TD*%
%TO.C,R1*%
X142862500Y-133750000D03*
X141037500Y-133750000D03*
%TD*%
D27*
%TO.C,C11*%
X102440000Y-92912500D03*
X102440000Y-91187500D03*
%TD*%
D31*
%TO.C,D5*%
X180300000Y-131750000D03*
X183600000Y-131750000D03*
%TD*%
D30*
%TO.C,R19*%
X187025000Y-112750000D03*
X185200000Y-112750000D03*
%TD*%
D32*
%TO.C,R13*%
X202950000Y-78587500D03*
X202950000Y-80412500D03*
%TD*%
D29*
%TO.C,R28*%
X176450000Y-129912500D03*
X176450000Y-128087500D03*
%TD*%
D30*
%TO.C,R17*%
X187025000Y-116250000D03*
X185200000Y-116250000D03*
%TD*%
%TO.C,R22*%
X187112500Y-130850000D03*
X185287500Y-130850000D03*
%TD*%
D28*
%TO.C,R15*%
X176537500Y-113750000D03*
X178362500Y-113750000D03*
%TD*%
D31*
%TO.C,D2*%
X180250000Y-78000000D03*
X183550000Y-78000000D03*
%TD*%
D27*
%TO.C,C9*%
X201450000Y-116362500D03*
X201450000Y-114637500D03*
%TD*%
D29*
%TO.C,R26*%
X176450000Y-93887500D03*
X176450000Y-92062500D03*
%TD*%
D27*
%TO.C,C10*%
X201450000Y-134362500D03*
X201450000Y-132637500D03*
%TD*%
D28*
%TO.C,R16*%
X176537500Y-131750000D03*
X178362500Y-131750000D03*
%TD*%
%TO.C,R5*%
X176537500Y-78000000D03*
X178362500Y-78000000D03*
%TD*%
D27*
%TO.C,C7*%
X201450000Y-80362500D03*
X201450000Y-78637500D03*
%TD*%
D30*
%TO.C,R8*%
X187000000Y-78530000D03*
X185175000Y-78530000D03*
%TD*%
D28*
%TO.C,R6*%
X176537500Y-95750000D03*
X178362500Y-95750000D03*
%TD*%
D30*
%TO.C,R9*%
X187000000Y-76750000D03*
X185175000Y-76750000D03*
%TD*%
D27*
%TO.C,C8*%
X201450000Y-98362500D03*
X201450000Y-96637500D03*
%TD*%
%TO.C,C5*%
X167350000Y-115112500D03*
X167350000Y-113387500D03*
%TD*%
D32*
%TO.C,R24*%
X202950000Y-132587500D03*
X202950000Y-134412500D03*
%TD*%
D27*
%TO.C,C13*%
X102390000Y-110985000D03*
X102390000Y-109260000D03*
%TD*%
M02*
