M48
; DRILL file {KiCad (6.0.11)} date Thu Aug  3 09:01:11 2023
; FORMAT={-:-/ absolute / metric / decimal}
; #@! TF.CreationDate,2023-08-03T09:01:11+09:00
; #@! TF.GenerationSoftware,Kicad,Pcbnew,(6.0.11)
; #@! TF.FileFunction,MixedPlating,1,2
FMAT,2
METRIC
; #@! TA.AperFunction,Plated,PTH,ViaDrill
T1C0.300
; #@! TA.AperFunction,Plated,PTH,ViaDrill
T2C0.400
; #@! TA.AperFunction,Plated,PTH,ComponentDrill
T3C0.600
; #@! TA.AperFunction,Plated,PTH,ComponentDrill
T4C0.762
; #@! TA.AperFunction,Plated,PTH,ComponentDrill
T5C0.800
; #@! TA.AperFunction,Plated,PTH,ComponentDrill
T6C0.850
; #@! TA.AperFunction,Plated,PTH,ComponentDrill
T7C1.000
; #@! TA.AperFunction,Plated,PTH,ComponentDrill
T8C1.780
; #@! TA.AperFunction,Plated,PTH,ComponentDrill
T9C1.900
; #@! TA.AperFunction,Plated,PTH,ComponentDrill
T10C2.700
%
G90
G05
T1
X136.38Y-139.55
X136.62Y-140.12
X136.99Y-139.55
X137.22Y-140.11
X137.6Y-139.56
X137.86Y-140.11
X140.32Y-98.32
X140.33Y-130.5
X140.33Y-131.12
X140.33Y-131.75
X140.33Y-132.47
X140.968Y-132.558
X141.0Y-131.75
X141.04Y-130.5
X141.04Y-131.14
X141.67Y-130.97
X141.67Y-131.775
X141.67Y-132.6
X143.12Y-96.49
X145.95Y-130.99
X145.96Y-131.61
X145.98Y-132.22
X146.52Y-131.23
X146.53Y-131.84
X146.53Y-132.46
X158.25Y-63.662
X180.75Y-83.05
X180.95Y-100.95
X183.125Y-78.425
X183.15Y-96.2
X183.15Y-114.2
X183.175Y-132.175
X183.55Y-78.0
X183.6Y-95.75
X183.6Y-113.75
X183.6Y-131.75
X183.95Y-97.15
X183.95Y-115.15
X185.45Y-135.35
X185.55Y-117.35
X185.65Y-99.45
X185.75Y-81.45
X186.75Y-135.35
X187.05Y-81.45
X187.15Y-99.55
X188.18Y-67.19
X188.19Y-66.31
X188.2Y-84.34
X188.2Y-102.35
X188.2Y-120.36
X188.2Y-121.13
X188.21Y-103.15
X188.23Y-85.12
X188.25Y-135.35
X188.35Y-99.55
X188.45Y-81.5
X188.55Y-133.05
X188.77Y-120.36
X188.77Y-121.16
X188.78Y-66.31
X188.78Y-84.35
X188.78Y-102.34
X188.79Y-67.19
X188.8Y-85.13
X188.8Y-103.13
T2
X97.95Y-41.75
X97.95Y-43.75
X97.95Y-45.75
X97.95Y-47.75
X97.95Y-49.75
X97.95Y-51.75
X97.95Y-53.75
X97.95Y-55.75
X97.95Y-57.75
X97.95Y-59.75
X97.95Y-61.75
X97.95Y-63.75
X97.95Y-65.75
X97.95Y-67.75
X97.95Y-69.75
X97.95Y-71.75
X97.95Y-73.75
X97.95Y-75.75
X97.95Y-77.75
X97.95Y-79.75
X97.95Y-81.75
X97.95Y-83.75
X97.95Y-85.75
X97.95Y-87.75
X97.95Y-89.75
X97.95Y-91.75
X97.95Y-93.75
X97.95Y-95.75
X97.95Y-97.75
X97.95Y-99.75
X97.95Y-101.75
X97.95Y-103.75
X97.95Y-105.75
X97.95Y-107.75
X97.95Y-109.75
X97.95Y-111.75
X97.95Y-113.75
X97.95Y-115.75
X97.95Y-117.75
X97.95Y-119.75
X97.95Y-121.75
X97.95Y-123.75
X97.95Y-125.75
X97.95Y-127.75
X97.95Y-129.75
X97.95Y-131.75
X97.95Y-133.75
X97.95Y-135.75
X97.95Y-137.75
X97.95Y-139.75
X97.95Y-141.75
X97.95Y-143.75
X97.95Y-145.75
X97.95Y-147.75
X97.95Y-149.75
X97.95Y-151.75
X97.95Y-153.75
X97.95Y-155.75
X97.95Y-157.75
X97.95Y-159.75
X99.95Y-41.75
X99.95Y-45.75
X99.95Y-47.75
X99.95Y-49.75
X99.95Y-51.75
X99.95Y-53.75
X99.95Y-55.25
X99.95Y-59.25
X99.95Y-61.25
X99.95Y-63.25
X99.95Y-65.25
X99.95Y-66.75
X99.95Y-70.75
X99.95Y-73.25
X99.95Y-75.25
X99.95Y-77.25
X99.95Y-79.25
X99.95Y-81.25
X99.95Y-83.75
X99.95Y-85.75
X99.95Y-121.75
X99.95Y-123.75
X99.95Y-125.75
X99.95Y-127.75
X99.95Y-129.75
X99.95Y-131.75
X99.95Y-133.75
X99.95Y-135.75
X99.95Y-137.75
X99.95Y-139.75
X99.95Y-141.75
X99.95Y-143.75
X99.95Y-145.75
X99.95Y-147.75
X99.95Y-149.75
X99.95Y-151.75
X99.95Y-153.75
X99.95Y-155.75
X99.95Y-159.75
X101.45Y-63.25
X101.45Y-65.25
X101.45Y-66.75
X101.45Y-70.75
X101.95Y-41.75
X101.95Y-43.75
X101.95Y-45.75
X101.95Y-47.75
X101.95Y-49.75
X101.95Y-51.75
X101.95Y-53.75
X101.95Y-55.25
X101.95Y-59.25
X101.95Y-61.25
X101.95Y-73.75
X101.95Y-75.25
X101.95Y-77.25
X101.95Y-79.25
X101.95Y-81.25
X101.95Y-123.75
X101.95Y-125.75
X101.95Y-127.75
X101.95Y-129.75
X101.95Y-131.75
X101.95Y-133.75
X101.95Y-135.75
X101.95Y-137.75
X101.95Y-139.75
X101.95Y-141.75
X101.95Y-143.75
X101.95Y-145.75
X101.95Y-147.75
X101.95Y-149.75
X101.95Y-151.75
X101.95Y-153.75
X101.95Y-155.75
X101.95Y-157.75
X101.95Y-159.75
X102.95Y-68.25
X102.95Y-70.25
X103.35Y-62.325
X103.35Y-64.825
X103.35Y-66.075
X103.37Y-63.58
X103.95Y-41.75
X103.95Y-43.75
X103.95Y-45.75
X103.95Y-47.75
X103.95Y-49.75
X103.95Y-51.75
X103.95Y-53.75
X103.95Y-55.75
X103.95Y-57.75
X103.95Y-59.25
X103.95Y-61.25
X103.95Y-67.25
X103.95Y-69.25
X103.95Y-71.25
X103.95Y-73.25
X103.95Y-75.25
X103.95Y-77.25
X103.95Y-79.25
X103.95Y-81.25
X103.95Y-123.75
X103.95Y-125.75
X103.95Y-127.75
X103.95Y-129.75
X103.95Y-131.75
X103.95Y-133.75
X103.95Y-135.75
X103.95Y-137.75
X103.95Y-139.75
X103.95Y-141.75
X103.95Y-143.75
X103.95Y-145.75
X103.95Y-147.75
X103.95Y-149.75
X103.95Y-151.75
X103.95Y-153.75
X103.95Y-155.75
X103.95Y-157.75
X103.95Y-159.75
X105.95Y-41.75
X105.95Y-43.75
X105.95Y-45.75
X105.95Y-47.75
X105.95Y-49.75
X105.95Y-51.75
X105.95Y-53.75
X105.95Y-55.75
X105.95Y-57.75
X105.95Y-59.25
X105.95Y-61.25
X105.95Y-67.25
X105.95Y-69.25
X105.95Y-71.25
X105.95Y-73.25
X105.95Y-75.25
X105.95Y-77.25
X105.95Y-79.25
X105.95Y-123.75
X105.95Y-125.75
X105.95Y-127.75
X105.95Y-129.75
X105.95Y-131.75
X105.95Y-133.75
X105.95Y-135.75
X105.95Y-137.75
X105.95Y-139.75
X105.95Y-141.75
X105.95Y-143.75
X105.95Y-145.75
X105.95Y-147.75
X105.95Y-149.75
X105.95Y-151.75
X105.95Y-153.75
X105.95Y-155.75
X105.95Y-157.75
X105.95Y-159.75
X107.45Y-127.75
X107.45Y-129.75
X107.95Y-41.75
X107.95Y-43.75
X107.95Y-45.75
X107.95Y-47.75
X107.95Y-49.75
X107.95Y-51.75
X107.95Y-53.75
X107.95Y-55.75
X107.95Y-57.75
X107.95Y-59.25
X107.95Y-61.25
X107.95Y-67.25
X107.95Y-69.25
X107.95Y-71.25
X107.95Y-73.25
X107.95Y-75.25
X107.95Y-77.25
X107.95Y-123.25
X107.95Y-131.75
X107.95Y-133.75
X107.95Y-135.75
X107.95Y-137.75
X107.95Y-141.75
X107.95Y-143.75
X107.95Y-145.75
X107.95Y-147.75
X107.95Y-149.75
X107.95Y-151.75
X107.95Y-153.75
X107.95Y-157.75
X107.95Y-159.75
X108.95Y-124.5
X108.95Y-127.75
X108.95Y-129.75
X109.2Y-121.75
X109.95Y-41.75
X109.95Y-43.75
X109.95Y-45.75
X109.95Y-47.75
X109.95Y-49.75
X109.95Y-51.75
X109.95Y-53.75
X109.95Y-55.75
X109.95Y-57.75
X109.95Y-59.25
X109.95Y-61.25
X109.95Y-67.25
X109.95Y-69.25
X109.95Y-71.25
X109.95Y-131.75
X109.95Y-133.75
X109.95Y-135.75
X109.95Y-137.75
X109.95Y-141.75
X109.95Y-143.75
X109.95Y-149.75
X109.95Y-151.75
X109.95Y-153.75
X109.95Y-155.75
X109.95Y-157.75
X109.95Y-159.75
X111.95Y-41.75
X111.95Y-43.75
X111.95Y-45.75
X111.95Y-47.75
X111.95Y-49.75
X111.95Y-51.75
X111.95Y-53.75
X111.95Y-55.75
X111.95Y-57.75
X111.95Y-59.25
X111.95Y-61.25
X111.95Y-67.25
X111.95Y-69.25
X111.95Y-71.25
X111.95Y-133.75
X111.95Y-135.75
X111.95Y-137.75
X111.95Y-139.75
X111.95Y-141.75
X111.95Y-143.75
X111.95Y-149.75
X111.95Y-151.75
X111.95Y-153.75
X111.95Y-155.75
X111.95Y-157.75
X111.95Y-159.75
X113.45Y-154.0
X113.95Y-41.75
X113.95Y-43.75
X113.95Y-45.75
X113.95Y-47.75
X113.95Y-49.75
X113.95Y-51.75
X113.95Y-53.75
X113.95Y-55.75
X113.95Y-57.75
X113.95Y-59.25
X113.95Y-61.25
X113.95Y-67.25
X113.95Y-69.25
X113.95Y-71.25
X113.95Y-72.75
X113.95Y-133.75
X113.95Y-139.75
X113.95Y-141.75
X113.95Y-143.75
X113.95Y-155.75
X113.95Y-157.75
X113.95Y-159.75
X114.45Y-75.25
X115.45Y-51.25
X115.45Y-54.25
X115.7Y-143.25
X115.95Y-41.75
X115.95Y-43.75
X115.95Y-45.75
X115.95Y-47.75
X115.95Y-49.75
X115.95Y-55.75
X115.95Y-57.75
X115.95Y-59.25
X115.95Y-61.25
X115.95Y-69.25
X115.95Y-71.25
X115.95Y-73.25
X115.95Y-133.75
X115.95Y-139.75
X115.95Y-141.75
X115.95Y-156.25
X115.95Y-157.75
X115.95Y-159.75
X116.2Y-66.0
X116.45Y-77.75
X117.45Y-47.75
X117.45Y-50.75
X117.45Y-54.75
X117.45Y-57.75
X117.45Y-66.25
X117.45Y-133.25
X117.45Y-143.0
X117.7Y-67.75
X117.7Y-156.5
X117.95Y-41.75
X117.95Y-43.75
X117.95Y-45.75
X117.95Y-59.25
X117.95Y-61.25
X117.95Y-71.25
X117.95Y-157.75
X117.95Y-159.75
X118.45Y-75.75
X118.45Y-77.75
X118.45Y-79.75
X119.45Y-66.25
X119.45Y-67.75
X119.7Y-69.75
X119.95Y-41.75
X119.95Y-43.75
X119.95Y-45.75
X119.95Y-59.25
X119.95Y-61.25
X119.95Y-157.75
X119.95Y-159.75
X120.45Y-73.75
X120.45Y-75.75
X120.45Y-77.75
X120.45Y-79.75
X120.45Y-81.75
X121.45Y-66.25
X121.45Y-67.75
X121.45Y-156.5
X121.95Y-41.75
X121.95Y-43.75
X121.95Y-45.75
X121.95Y-59.25
X121.95Y-61.25
X121.95Y-72.0
X121.95Y-157.75
X121.95Y-159.75
X122.45Y-75.75
X122.45Y-77.75
X122.45Y-79.75
X122.45Y-81.75
X122.45Y-83.75
X123.45Y-66.25
X123.45Y-70.75
X123.45Y-73.25
X123.95Y-41.75
X123.95Y-43.75
X123.95Y-45.75
X123.95Y-59.25
X123.95Y-61.25
X123.95Y-157.75
X123.95Y-159.75
X124.45Y-77.75
X124.45Y-79.75
X124.45Y-81.75
X124.45Y-83.75
X124.45Y-85.75
X124.95Y-70.75
X124.95Y-72.75
X124.95Y-74.75
X125.2Y-68.75
X125.2Y-156.5
X125.95Y-41.75
X125.95Y-43.75
X125.95Y-45.75
X125.95Y-59.25
X125.95Y-61.25
X125.95Y-131.25
X125.95Y-157.75
X125.95Y-159.75
X126.45Y-79.75
X126.45Y-81.75
X126.45Y-83.75
X126.45Y-85.75
X126.45Y-87.75
X126.45Y-119.25
X126.95Y-67.25
X126.95Y-68.75
X126.95Y-70.75
X126.95Y-72.75
X126.95Y-74.75
X126.95Y-76.75
X126.95Y-130.0
X126.95Y-156.5
X127.7Y-128.75
X127.95Y-41.75
X127.95Y-43.75
X127.95Y-45.75
X127.95Y-59.25
X127.95Y-61.25
X127.95Y-66.0
X127.95Y-121.25
X127.95Y-123.25
X127.95Y-125.25
X127.95Y-127.25
X127.95Y-131.25
X127.95Y-157.75
X127.95Y-159.75
X128.2Y-119.25
X128.45Y-81.75
X128.45Y-83.75
X128.45Y-85.75
X128.45Y-87.75
X128.45Y-89.75
X128.95Y-68.75
X128.95Y-70.75
X128.95Y-72.75
X128.95Y-74.75
X128.95Y-76.75
X128.95Y-78.75
X128.95Y-156.5
X129.7Y-67.25
X129.95Y-41.75
X129.95Y-43.75
X129.95Y-45.75
X129.95Y-59.25
X129.95Y-119.75
X129.95Y-121.25
X129.95Y-123.25
X129.95Y-125.25
X129.95Y-127.25
X129.95Y-129.25
X129.95Y-131.25
X129.95Y-157.75
X129.95Y-159.75
X130.45Y-83.75
X130.45Y-85.75
X130.45Y-87.75
X130.45Y-89.75
X130.45Y-91.75
X130.95Y-66.0
X130.95Y-68.75
X130.95Y-70.75
X130.95Y-72.75
X130.95Y-74.75
X130.95Y-76.75
X130.95Y-78.75
X130.95Y-80.75
X130.95Y-156.5
X131.7Y-121.75
X131.95Y-41.75
X131.95Y-43.75
X131.95Y-45.75
X131.95Y-123.25
X131.95Y-125.25
X131.95Y-127.25
X131.95Y-129.25
X131.95Y-131.25
X131.95Y-157.75
X131.95Y-159.75
X132.2Y-67.25
X132.45Y-85.75
X132.45Y-87.75
X132.45Y-89.75
X132.45Y-91.75
X132.45Y-93.75
X132.7Y-61.25
X132.7Y-156.5
X132.95Y-64.75
X132.95Y-68.75
X132.95Y-70.75
X132.95Y-72.75
X132.95Y-74.75
X132.95Y-76.75
X132.95Y-78.75
X132.95Y-80.75
X132.95Y-82.75
X133.45Y-123.5
X133.95Y-41.75
X133.95Y-43.75
X133.95Y-45.75
X133.95Y-125.25
X133.95Y-127.25
X133.95Y-129.25
X133.95Y-131.25
X133.95Y-157.75
X133.95Y-159.75
X134.2Y-132.75
X134.45Y-87.75
X134.45Y-89.75
X134.45Y-91.75
X134.45Y-93.75
X134.45Y-95.75
X134.95Y-64.75
X134.95Y-66.75
X134.95Y-70.75
X134.95Y-72.75
X134.95Y-74.75
X134.95Y-76.75
X134.95Y-78.75
X134.95Y-80.75
X134.95Y-82.75
X134.95Y-84.75
X135.45Y-125.5
X135.45Y-128.75
X135.95Y-41.75
X135.95Y-43.75
X135.95Y-45.75
X135.95Y-61.25
X135.95Y-127.25
X135.95Y-157.75
X135.95Y-159.75
X136.45Y-89.75
X136.45Y-91.75
X136.45Y-93.75
X136.45Y-95.75
X136.45Y-97.75
X136.45Y-156.5
X136.95Y-64.75
X136.95Y-66.75
X136.95Y-68.75
X136.95Y-72.75
X136.95Y-74.75
X136.95Y-76.75
X136.95Y-78.75
X136.95Y-80.75
X136.95Y-82.75
X136.95Y-84.75
X136.95Y-86.75
X137.35Y-128.45
X137.95Y-41.75
X137.95Y-43.75
X137.95Y-45.75
X137.95Y-157.75
X137.95Y-159.75
X138.45Y-73.75
X138.45Y-91.75
X138.45Y-93.75
X138.45Y-95.75
X138.45Y-97.75
X138.95Y-64.75
X138.95Y-66.75
X138.95Y-68.75
X138.95Y-70.75
X138.95Y-76.75
X138.95Y-78.75
X138.95Y-80.75
X138.95Y-82.75
X138.95Y-84.75
X138.95Y-86.75
X138.95Y-88.75
X139.45Y-74.75
X139.95Y-41.75
X139.95Y-43.75
X139.95Y-45.75
X139.95Y-157.75
X139.95Y-159.75
X140.2Y-156.5
X140.95Y-64.75
X140.95Y-66.75
X140.95Y-68.75
X140.95Y-70.75
X140.95Y-72.25
X141.45Y-76.25
X141.45Y-78.25
X141.45Y-80.25
X141.45Y-82.25
X141.45Y-84.25
X141.45Y-86.25
X141.45Y-88.25
X141.45Y-90.25
X141.45Y-94.75
X141.45Y-97.75
X141.45Y-156.5
X141.95Y-41.75
X141.95Y-43.75
X141.95Y-45.75
X141.95Y-59.75
X141.95Y-61.25
X141.95Y-91.75
X141.95Y-95.75
X141.95Y-157.75
X141.95Y-159.75
X142.45Y-47.75
X142.45Y-50.5
X142.45Y-55.0
X142.45Y-57.75
X142.45Y-77.75
X142.95Y-64.75
X142.95Y-66.75
X142.95Y-68.75
X142.95Y-70.75
X142.95Y-156.5
X143.45Y-74.25
X143.95Y-41.75
X143.95Y-43.75
X143.95Y-45.75
X143.95Y-47.75
X143.95Y-49.75
X143.95Y-55.75
X143.95Y-57.75
X143.95Y-59.25
X143.95Y-62.5
X143.95Y-157.75
X143.95Y-159.75
X144.45Y-51.0
X144.45Y-54.5
X144.45Y-75.75
X144.45Y-79.25
X144.45Y-81.25
X144.45Y-83.25
X144.45Y-85.25
X144.45Y-87.25
X144.45Y-89.25
X144.45Y-91.25
X144.45Y-93.25
X144.7Y-94.5
X144.95Y-64.75
X144.95Y-66.75
X144.95Y-68.75
X144.95Y-156.5
X145.45Y-72.25
X145.45Y-74.25
X145.95Y-41.75
X145.95Y-43.75
X145.95Y-45.75
X145.95Y-47.75
X145.95Y-49.75
X145.95Y-51.75
X145.95Y-53.75
X145.95Y-55.75
X145.95Y-57.25
X145.95Y-60.25
X145.95Y-62.25
X145.95Y-77.75
X145.95Y-157.75
X145.95Y-159.75
X146.45Y-81.25
X146.45Y-83.25
X146.45Y-85.25
X146.45Y-87.25
X146.45Y-89.25
X146.45Y-91.25
X146.45Y-93.25
X146.7Y-156.5
X146.95Y-64.75
X146.95Y-66.75
X147.45Y-70.25
X147.45Y-72.25
X147.45Y-76.75
X147.45Y-78.75
X147.7Y-58.75
X147.7Y-156.5
X147.95Y-41.75
X147.95Y-43.75
X147.95Y-45.75
X147.95Y-47.75
X147.95Y-49.75
X147.95Y-51.75
X147.95Y-53.75
X147.95Y-55.75
X147.95Y-60.25
X147.95Y-62.25
X147.95Y-157.75
X147.95Y-159.75
X148.45Y-65.75
X148.45Y-83.25
X148.45Y-85.25
X148.45Y-87.25
X148.45Y-89.25
X148.45Y-91.25
X149.45Y-68.75
X149.45Y-70.25
X149.45Y-74.75
X149.45Y-76.75
X149.45Y-78.75
X149.45Y-80.75
X149.95Y-41.75
X149.95Y-43.75
X149.95Y-45.75
X149.95Y-47.75
X149.95Y-49.75
X149.95Y-51.75
X149.95Y-53.75
X149.95Y-55.75
X149.95Y-58.75
X149.95Y-60.25
X149.95Y-62.25
X149.95Y-157.75
X149.95Y-159.75
X150.2Y-63.75
X150.45Y-67.25
X150.45Y-85.25
X150.45Y-87.25
X150.45Y-89.25
X151.45Y-68.75
X151.45Y-72.75
X151.45Y-74.75
X151.45Y-76.75
X151.45Y-78.75
X151.45Y-80.75
X151.45Y-82.75
X151.45Y-156.5
X151.95Y-41.75
X151.95Y-43.75
X151.95Y-45.75
X151.95Y-47.75
X151.95Y-49.75
X151.95Y-51.75
X151.95Y-53.75
X151.95Y-55.75
X151.95Y-58.75
X151.95Y-60.25
X151.95Y-62.25
X151.95Y-65.5
X151.95Y-157.75
X151.95Y-159.75
X152.45Y-87.25
X153.2Y-67.0
X153.45Y-64.0
X153.45Y-70.75
X153.45Y-72.75
X153.45Y-74.75
X153.45Y-76.75
X153.45Y-78.75
X153.45Y-80.75
X153.45Y-82.75
X153.45Y-84.75
X153.95Y-41.75
X153.95Y-43.75
X153.95Y-45.75
X153.95Y-47.75
X153.95Y-49.75
X153.95Y-51.75
X153.95Y-53.75
X153.95Y-55.75
X153.95Y-58.75
X153.95Y-60.25
X153.95Y-157.75
X153.95Y-159.75
X154.7Y-65.5
X154.95Y-62.5
X154.95Y-68.75
X155.2Y-156.5
X155.45Y-58.75
X155.45Y-72.75
X155.45Y-74.75
X155.45Y-76.75
X155.45Y-78.75
X155.45Y-80.75
X155.45Y-82.75
X155.95Y-41.75
X155.95Y-43.75
X155.95Y-45.75
X155.95Y-47.75
X155.95Y-49.75
X155.95Y-51.75
X155.95Y-53.75
X155.95Y-55.75
X155.95Y-157.75
X155.95Y-159.75
X156.2Y-64.0
X156.45Y-67.25
X156.45Y-70.25
X156.7Y-61.0
X156.95Y-62.75
X156.95Y-156.5
X157.45Y-74.75
X157.45Y-76.75
X157.45Y-78.75
X157.45Y-80.75
X157.95Y-41.75
X157.95Y-43.75
X157.95Y-45.75
X157.95Y-47.75
X157.95Y-49.75
X157.95Y-51.75
X157.95Y-53.75
X157.95Y-55.75
X157.95Y-59.75
X157.95Y-65.75
X157.95Y-68.75
X157.95Y-71.75
X157.95Y-157.75
X157.95Y-159.75
X158.95Y-156.5
X159.45Y-60.75
X159.45Y-63.0
X159.45Y-64.75
X159.45Y-67.25
X159.45Y-70.25
X159.45Y-73.25
X159.45Y-76.75
X159.45Y-78.75
X159.95Y-41.75
X159.95Y-43.75
X159.95Y-45.75
X159.95Y-47.75
X159.95Y-49.75
X159.95Y-51.75
X159.95Y-53.75
X159.95Y-58.75
X159.95Y-157.75
X159.95Y-159.75
X160.95Y-64.25
X160.95Y-65.75
X160.95Y-68.75
X160.95Y-71.75
X160.95Y-74.75
X160.95Y-78.25
X160.95Y-156.5
X161.7Y-60.5
X161.95Y-41.75
X161.95Y-43.75
X161.95Y-45.75
X161.95Y-47.75
X161.95Y-49.75
X161.95Y-51.0
X161.95Y-55.75
X161.95Y-157.75
X161.95Y-159.75
X162.45Y-61.25
X162.45Y-64.75
X162.45Y-67.25
X162.45Y-70.25
X162.45Y-73.25
X162.45Y-76.25
X162.7Y-156.5
X162.95Y-54.5
X163.95Y-41.75
X163.95Y-43.75
X163.95Y-45.75
X163.95Y-47.75
X163.95Y-49.75
X163.95Y-51.0
X163.95Y-55.75
X163.95Y-65.75
X163.95Y-68.75
X163.95Y-71.75
X163.95Y-74.75
X163.95Y-157.75
X163.95Y-159.75
X164.45Y-63.75
X164.7Y-60.5
X165.45Y-67.25
X165.45Y-70.25
X165.45Y-73.25
X165.95Y-41.75
X165.95Y-43.75
X165.95Y-45.75
X165.95Y-47.75
X165.95Y-49.75
X165.95Y-51.75
X165.95Y-53.75
X165.95Y-55.75
X165.95Y-58.75
X165.95Y-157.75
X165.95Y-159.75
X166.45Y-60.25
X166.45Y-63.75
X166.45Y-156.5
X166.95Y-65.75
X166.95Y-68.75
X166.95Y-71.75
X167.95Y-41.75
X167.95Y-43.75
X167.95Y-45.75
X167.95Y-47.75
X167.95Y-49.75
X167.95Y-51.75
X167.95Y-53.75
X167.95Y-55.75
X167.95Y-59.75
X167.95Y-62.75
X167.95Y-67.75
X167.95Y-70.75
X167.95Y-157.75
X167.95Y-159.75
X169.45Y-61.75
X169.45Y-63.75
X169.45Y-65.75
X169.95Y-41.75
X169.95Y-43.75
X169.95Y-45.75
X169.95Y-47.75
X169.95Y-49.75
X169.95Y-51.75
X169.95Y-53.75
X169.95Y-55.75
X169.95Y-157.75
X169.95Y-159.75
X170.2Y-156.5
X170.45Y-58.75
X170.45Y-60.25
X170.45Y-67.75
X170.45Y-70.75
X171.45Y-156.5
X171.95Y-41.75
X171.95Y-43.75
X171.95Y-45.75
X171.95Y-47.75
X171.95Y-49.75
X171.95Y-51.75
X171.95Y-53.75
X171.95Y-55.75
X171.95Y-61.75
X171.95Y-63.75
X171.95Y-65.75
X171.95Y-69.25
X171.95Y-157.75
X171.95Y-159.75
X172.95Y-156.5
X173.45Y-61.75
X173.95Y-41.75
X173.95Y-43.75
X173.95Y-45.75
X173.95Y-47.75
X173.95Y-49.75
X173.95Y-51.75
X173.95Y-53.75
X173.95Y-55.75
X173.95Y-57.75
X173.95Y-63.75
X173.95Y-65.75
X173.95Y-67.25
X173.95Y-157.75
X173.95Y-159.75
X174.45Y-156.5
X175.45Y-63.75
X175.45Y-135.45
X175.56Y-99.85
X175.56Y-102.3
X175.59Y-117.8
X175.63Y-81.96
X175.67Y-84.19
X175.71Y-120.48
X175.95Y-41.75
X175.95Y-43.75
X175.95Y-45.75
X175.95Y-47.75
X175.95Y-49.75
X175.95Y-51.75
X175.95Y-53.75
X175.95Y-55.75
X175.95Y-57.75
X175.95Y-59.75
X175.95Y-65.75
X175.95Y-136.25
X175.95Y-156.5
X175.95Y-157.75
X175.95Y-159.75
X176.3Y-93.8
X176.35Y-75.75
X176.387Y-129.912
X176.42Y-85.38
X176.45Y-67.25
X176.45Y-74.087
X176.45Y-92.062
X176.45Y-95.85
X176.45Y-110.087
X176.45Y-111.912
X176.45Y-113.85
X176.45Y-128.088
X176.45Y-131.8
X176.5Y-78.0
X176.62Y-121.26
X176.63Y-103.11
X176.64Y-119.03
X176.79Y-82.89
X176.81Y-100.99
X177.05Y-135.75
X177.45Y-62.0
X177.45Y-65.75
X177.59Y-120.16
X177.7Y-156.5
X177.75Y-83.84
X177.77Y-101.95
X177.95Y-41.75
X177.95Y-43.75
X177.95Y-45.75
X177.95Y-47.75
X177.95Y-49.75
X177.95Y-51.75
X177.95Y-53.75
X177.95Y-55.75
X177.95Y-57.75
X177.95Y-59.75
X177.95Y-157.75
X177.95Y-159.75
X177.99Y-99.78
X178.0Y-117.87
X178.05Y-81.88
X178.35Y-135.35
X178.35Y-136.25
X178.95Y-51.75
X178.95Y-53.75
X178.95Y-55.75
X178.95Y-57.75
X178.95Y-75.0
X178.95Y-92.75
X178.95Y-110.85
X179.05Y-128.85
X179.2Y-64.0
X179.7Y-62.0
X179.85Y-109.95
X179.85Y-128.05
X179.95Y-41.75
X179.95Y-43.75
X179.95Y-45.75
X179.95Y-47.75
X179.95Y-49.75
X179.95Y-59.75
X179.95Y-92.0
X179.95Y-157.75
X179.95Y-159.75
X180.2Y-74.0
X180.25Y-112.05
X180.25Y-130.15
X180.35Y-110.95
X180.35Y-129.15
X180.45Y-76.25
X180.45Y-93.0
X180.45Y-94.25
X180.75Y-127.05
X180.85Y-109.05
X180.95Y-91.0
X180.95Y-98.05
X180.95Y-118.95
X181.05Y-134.05
X181.15Y-115.95
X181.2Y-72.75
X181.2Y-75.25
X181.2Y-80.25
X181.25Y-128.05
X181.35Y-110.25
X181.35Y-112.35
X181.35Y-130.45
X181.45Y-69.5
X181.45Y-87.5
X181.45Y-89.75
X181.45Y-92.25
X181.45Y-107.85
X181.45Y-156.5
X181.55Y-94.15
X181.55Y-105.75
X181.55Y-123.65
X181.55Y-125.85
X181.7Y-64.0
X181.7Y-95.5
X181.85Y-113.55
X181.85Y-129.35
X181.85Y-131.55
X181.95Y-41.75
X181.95Y-43.75
X181.95Y-45.75
X181.95Y-47.75
X181.95Y-62.0
X181.95Y-70.75
X181.95Y-76.25
X181.95Y-77.75
X181.95Y-81.25
X181.95Y-86.5
X181.95Y-117.15
X181.95Y-135.05
X181.95Y-157.75
X181.95Y-159.75
X182.05Y-104.75
X182.05Y-111.45
X182.05Y-122.65
X182.15Y-109.05
X182.15Y-127.05
X182.2Y-91.0
X182.25Y-93.05
X182.25Y-99.35
X182.45Y-74.0
X182.45Y-119.35
X182.65Y-115.95
X182.65Y-130.35
X182.7Y-72.75
X182.7Y-80.25
X182.75Y-94.35
X182.75Y-98.05
X182.75Y-112.35
X182.75Y-128.15
X182.75Y-134.05
X182.85Y-110.25
X182.95Y-65.5
X182.95Y-67.75
X182.95Y-83.5
X182.95Y-85.75
X182.95Y-87.5
X182.95Y-89.75
X182.95Y-103.85
X182.95Y-105.75
X182.95Y-107.85
X182.95Y-121.85
X183.05Y-101.55
X183.05Y-123.75
X183.15Y-125.85
X183.2Y-75.25
X183.2Y-92.25
X183.45Y-71.5
X183.45Y-91.0
X183.45Y-127.05
X183.55Y-109.05
X183.55Y-129.25
X183.7Y-76.25
X183.7Y-93.5
X183.75Y-111.45
X183.95Y-41.75
X183.95Y-43.75
X183.95Y-45.75
X183.95Y-47.75
X183.95Y-49.75
X183.95Y-51.75
X183.95Y-53.75
X183.95Y-55.75
X183.95Y-57.75
X183.95Y-64.0
X183.95Y-86.5
X183.95Y-104.65
X183.95Y-133.05
X183.95Y-157.75
X183.95Y-159.75
X184.05Y-130.25
X184.15Y-122.65
X184.25Y-94.25
X184.35Y-105.75
X184.45Y-69.25
X184.45Y-72.75
X184.45Y-74.0
X184.45Y-87.5
X184.45Y-89.75
X184.45Y-91.0
X184.45Y-92.25
X184.45Y-107.85
X184.45Y-128.15
X184.55Y-110.25
X184.55Y-123.75
X184.55Y-125.85
X184.55Y-127.05
X184.65Y-109.05
X184.7Y-71.5
X184.7Y-75.5
X184.85Y-129.45
X184.95Y-76.75
X184.95Y-93.75
X185.15Y-112.55
X185.2Y-156.5
X185.25Y-130.55
X185.45Y-94.75
X185.7Y-64.25
X185.95Y-41.75
X185.95Y-43.75
X185.95Y-45.75
X185.95Y-47.75
X185.95Y-49.75
X185.95Y-51.75
X185.95Y-53.75
X185.95Y-55.75
X185.95Y-57.75
X185.95Y-59.75
X185.95Y-157.75
X185.95Y-159.75
X186.95Y-156.5
X187.1Y-80.3
X187.15Y-98.3
X187.15Y-116.25
X187.2Y-134.25
X187.95Y-41.75
X187.95Y-43.75
X187.95Y-45.75
X187.95Y-47.75
X187.95Y-49.75
X187.95Y-51.75
X187.95Y-53.75
X187.95Y-55.75
X187.95Y-57.75
X187.95Y-59.75
X187.95Y-64.25
X187.95Y-157.75
X187.95Y-159.75
X188.95Y-156.5
X189.065Y-136.085
X189.243Y-118.205
X189.418Y-82.381
X189.494Y-100.506
X189.95Y-41.75
X189.95Y-43.75
X189.95Y-45.75
X189.95Y-47.75
X189.95Y-59.75
X189.95Y-157.75
X189.95Y-159.75
X190.2Y-64.25
X190.95Y-156.5
X191.95Y-41.75
X191.95Y-43.75
X191.95Y-45.75
X191.95Y-47.75
X191.95Y-49.75
X191.95Y-51.75
X191.95Y-53.75
X191.95Y-55.75
X191.95Y-57.75
X191.95Y-59.75
X191.95Y-64.5
X191.95Y-157.75
X191.95Y-159.75
X192.2Y-138.75
X192.45Y-156.0
X193.7Y-64.5
X193.95Y-41.75
X193.95Y-43.75
X193.95Y-45.75
X193.95Y-47.75
X193.95Y-49.75
X193.95Y-51.75
X193.95Y-53.75
X193.95Y-55.75
X193.95Y-57.75
X193.95Y-59.75
X193.95Y-139.75
X193.95Y-154.25
X193.95Y-157.75
X193.95Y-159.75
X194.45Y-141.5
X194.45Y-143.75
X194.45Y-145.75
X194.45Y-147.75
X194.45Y-149.75
X194.45Y-151.75
X194.95Y-138.75
X195.45Y-64.5
X195.95Y-41.75
X195.95Y-43.75
X195.95Y-45.75
X195.95Y-47.75
X195.95Y-49.75
X195.95Y-51.75
X195.95Y-53.75
X195.95Y-55.75
X195.95Y-57.75
X195.95Y-59.75
X195.95Y-139.75
X195.95Y-141.75
X195.95Y-143.75
X195.95Y-145.75
X195.95Y-147.75
X195.95Y-149.75
X195.95Y-151.75
X195.95Y-153.75
X195.95Y-155.75
X195.95Y-157.75
X195.95Y-159.75
X196.7Y-64.0
X196.95Y-138.75
X197.7Y-65.0
X197.95Y-41.75
X197.95Y-43.75
X197.95Y-45.75
X197.95Y-47.75
X197.95Y-49.75
X197.95Y-51.75
X197.95Y-53.75
X197.95Y-55.75
X197.95Y-57.75
X197.95Y-59.75
X197.95Y-139.75
X197.95Y-141.75
X197.95Y-143.75
X197.95Y-145.75
X197.95Y-147.75
X197.95Y-149.75
X197.95Y-151.75
X197.95Y-153.75
X197.95Y-155.75
X197.95Y-157.75
X197.95Y-159.75
X198.95Y-138.75
X199.95Y-41.75
X199.95Y-43.75
X199.95Y-45.75
X199.95Y-47.75
X199.95Y-49.75
X199.95Y-51.75
X199.95Y-53.75
X199.95Y-55.75
X199.95Y-57.75
X199.95Y-59.75
X199.95Y-61.75
X199.95Y-139.75
X199.95Y-141.75
X199.95Y-143.75
X199.95Y-145.75
X199.95Y-147.75
X199.95Y-149.75
X199.95Y-151.75
X199.95Y-153.75
X199.95Y-155.75
X199.95Y-157.75
X199.95Y-159.75
X200.45Y-138.5
X201.95Y-41.75
X201.95Y-43.75
X201.95Y-45.75
X201.95Y-47.75
X201.95Y-49.75
X201.95Y-51.75
X201.95Y-53.75
X201.95Y-55.75
X201.95Y-57.75
X201.95Y-59.75
X201.95Y-61.75
X201.95Y-63.75
X201.95Y-137.75
X201.95Y-139.75
X201.95Y-141.75
X201.95Y-143.75
X201.95Y-145.75
X201.95Y-147.75
X201.95Y-149.75
X201.95Y-151.75
X201.95Y-153.75
X201.95Y-155.75
X201.95Y-157.75
X201.95Y-159.75
X202.45Y-136.5
X203.95Y-41.75
X203.95Y-45.75
X203.95Y-47.75
X203.95Y-49.75
X203.95Y-51.75
X203.95Y-53.75
X203.95Y-55.75
X203.95Y-57.75
X203.95Y-59.75
X203.95Y-61.75
X203.95Y-63.75
X203.95Y-65.75
X203.95Y-135.75
X203.95Y-137.75
X203.95Y-139.75
X203.95Y-141.75
X203.95Y-143.75
X203.95Y-145.75
X203.95Y-147.75
X203.95Y-149.75
X203.95Y-151.75
X203.95Y-153.75
X203.95Y-155.75
X203.95Y-159.75
X204.7Y-134.25
X205.95Y-41.75
X205.95Y-43.75
X205.95Y-45.75
X205.95Y-47.75
X205.95Y-49.75
X205.95Y-51.75
X205.95Y-53.75
X205.95Y-55.75
X205.95Y-57.75
X205.95Y-59.75
X205.95Y-61.75
X205.95Y-63.75
X205.95Y-65.75
X205.95Y-67.75
X205.95Y-69.75
X205.95Y-71.75
X205.95Y-73.75
X205.95Y-75.75
X205.95Y-77.75
X205.95Y-79.75
X205.95Y-81.75
X205.95Y-83.75
X205.95Y-85.75
X205.95Y-87.75
X205.95Y-89.75
X205.95Y-91.75
X205.95Y-93.75
X205.95Y-95.75
X205.95Y-97.75
X205.95Y-99.75
X205.95Y-101.75
X205.95Y-103.75
X205.95Y-105.75
X205.95Y-107.75
X205.95Y-109.75
X205.95Y-111.75
X205.95Y-113.75
X205.95Y-115.75
X205.95Y-117.75
X205.95Y-119.75
X205.95Y-121.75
X205.95Y-123.75
X205.95Y-125.75
X205.95Y-127.75
X205.95Y-129.75
X205.95Y-131.75
X205.95Y-133.75
X205.95Y-135.75
X205.95Y-137.75
X205.95Y-139.75
X205.95Y-141.75
X205.95Y-143.75
X205.95Y-145.75
X205.95Y-147.75
X205.95Y-149.75
X205.95Y-151.75
X205.95Y-153.75
X205.95Y-155.75
X205.95Y-157.75
X205.95Y-159.75
T4
X136.95Y-59.735
X138.95Y-59.75
X169.25Y-69.3
X169.25Y-71.84
X169.25Y-74.38
X169.25Y-76.92
X169.25Y-79.46
X169.25Y-82.0
X169.25Y-87.3
X169.25Y-89.84
X169.25Y-92.38
X169.25Y-94.92
X169.25Y-97.46
X169.25Y-100.0
X169.25Y-105.3
X169.25Y-107.84
X169.25Y-110.38
X169.25Y-112.92
X169.25Y-115.46
X169.25Y-118.0
X169.25Y-123.3
X169.25Y-125.84
X169.25Y-128.38
X169.25Y-130.92
X169.25Y-133.46
X169.25Y-136.0
X194.65Y-69.3
X194.65Y-71.84
X194.65Y-74.38
X194.65Y-76.92
X194.65Y-79.46
X194.65Y-82.0
X194.65Y-87.3
X194.65Y-89.84
X194.65Y-92.38
X194.65Y-94.92
X194.65Y-97.46
X194.65Y-100.0
X194.65Y-105.3
X194.65Y-107.84
X194.65Y-110.38
X194.65Y-112.92
X194.65Y-115.46
X194.65Y-118.0
X194.65Y-123.3
X194.65Y-125.84
X194.65Y-128.38
X194.65Y-130.92
X194.65Y-133.46
X194.65Y-136.0
T5
X182.15Y-49.95
X182.15Y-52.49
X182.15Y-55.03
X182.15Y-57.57
X189.77Y-49.95
X189.77Y-52.49
X189.77Y-55.03
X189.77Y-57.57
T6
X104.6Y-90.5
X104.6Y-93.0
X104.6Y-99.5
X104.6Y-102.0
X104.6Y-108.5
X104.6Y-111.0
X104.6Y-117.5
X104.6Y-120.0
X199.3Y-70.65
X199.3Y-73.15
X199.3Y-75.65
X199.3Y-78.15
X199.3Y-80.65
X199.3Y-88.65
X199.3Y-91.15
X199.3Y-93.65
X199.3Y-96.15
X199.3Y-98.65
X199.3Y-106.65
X199.3Y-109.15
X199.3Y-111.65
X199.3Y-114.15
X199.3Y-116.65
X199.3Y-124.65
X199.3Y-127.15
X199.3Y-129.65
X199.3Y-132.15
X199.3Y-134.65
T7
X101.625Y-72.25
X101.625Y-83.25
X108.45Y-156.35
X119.45Y-156.35
X123.45Y-156.35
X134.45Y-156.35
X138.45Y-156.35
X149.45Y-156.35
X153.45Y-156.35
X164.45Y-156.35
X168.45Y-156.35
X179.45Y-156.35
X183.45Y-156.35
X194.45Y-156.35
T8
X120.25Y-127.89
X120.25Y-137.81
X123.65Y-127.89
X123.65Y-137.81
T9
X111.45Y-146.35
X111.625Y-75.25
X111.625Y-80.25
X116.45Y-146.35
X126.45Y-146.35
X131.45Y-146.35
X141.45Y-146.35
X146.45Y-146.35
X156.45Y-146.35
X161.45Y-146.35
X171.45Y-146.35
X176.45Y-146.35
X186.45Y-146.35
X191.45Y-146.35
T10
X114.7Y-129.25
X114.7Y-136.45
T3
G00X108.15Y-126.1
M15
G01X109.25Y-126.1
M16
G05
G00X108.15Y-139.6
M15
G01X109.25Y-139.6
M16
G05
T4
G00X164.169Y-52.75
M15
G01X161.731Y-52.75
M16
G05
G00X161.731Y-58.75
M15
G01X164.169Y-58.75
M16
G05
T0
M30
