%TF.GenerationSoftware,KiCad,Pcbnew,(6.0.7)*%
%TF.CreationDate,2023-12-12T10:26:36+09:00*%
%TF.ProjectId,Odometry,4f646f6d-6574-4727-992e-6b696361645f,rev?*%
%TF.SameCoordinates,Original*%
%TF.FileFunction,Soldermask,Top*%
%TF.FilePolarity,Negative*%
%FSLAX46Y46*%
G04 Gerber Fmt 4.6, Leading zero omitted, Abs format (unit mm)*
G04 Created by KiCad (PCBNEW (6.0.7)) date 2023-12-12 10:26:36*
%MOMM*%
%LPD*%
G01*
G04 APERTURE LIST*
G04 Aperture macros list*
%AMRoundRect*
0 Rectangle with rounded corners*
0 $1 Rounding radius*
0 $2 $3 $4 $5 $6 $7 $8 $9 X,Y pos of 4 corners*
0 Add a 4 corners polygon primitive as box body*
4,1,4,$2,$3,$4,$5,$6,$7,$8,$9,$2,$3,0*
0 Add four circle primitives for the rounded corners*
1,1,$1+$1,$2,$3*
1,1,$1+$1,$4,$5*
1,1,$1+$1,$6,$7*
1,1,$1+$1,$8,$9*
0 Add four rect primitives between the rounded corners*
20,1,$1+$1,$2,$3,$4,$5,0*
20,1,$1+$1,$4,$5,$6,$7,0*
20,1,$1+$1,$6,$7,$8,$9,0*
20,1,$1+$1,$8,$9,$2,$3,0*%
G04 Aperture macros list end*
%ADD10C,2.700000*%
%ADD11R,1.400000X1.600000*%
%ADD12RoundRect,0.237500X-0.287500X-0.237500X0.287500X-0.237500X0.287500X0.237500X-0.287500X0.237500X0*%
%ADD13RoundRect,0.250001X0.799999X-1.999999X0.799999X1.999999X-0.799999X1.999999X-0.799999X-1.999999X0*%
%ADD14C,1.600000*%
%ADD15RoundRect,0.250000X-0.675000X0.600000X-0.675000X-0.600000X0.675000X-0.600000X0.675000X0.600000X0*%
%ADD16O,1.850000X1.700000*%
%ADD17R,1.700000X1.700000*%
%ADD18O,1.700000X1.700000*%
%ADD19RoundRect,0.381000X-0.381000X-0.381000X0.381000X-0.381000X0.381000X0.381000X-0.381000X0.381000X0*%
%ADD20C,1.524000*%
%ADD21R,1.600000X1.400000*%
%ADD22RoundRect,0.250000X0.675000X-0.600000X0.675000X0.600000X-0.675000X0.600000X-0.675000X-0.600000X0*%
%ADD23RoundRect,0.250001X-0.799999X1.999999X-0.799999X-1.999999X0.799999X-1.999999X0.799999X1.999999X0*%
%ADD24C,1.400000*%
%ADD25R,3.500000X3.500000*%
%ADD26C,3.500000*%
%ADD27C,1.700000*%
%ADD28RoundRect,0.425000X-0.425000X-0.425000X0.425000X-0.425000X0.425000X0.425000X-0.425000X0.425000X0*%
%ADD29RoundRect,0.250000X0.600000X0.675000X-0.600000X0.675000X-0.600000X-0.675000X0.600000X-0.675000X0*%
%ADD30O,1.700000X1.850000*%
%ADD31RoundRect,0.381000X0.381000X-0.381000X0.381000X0.381000X-0.381000X0.381000X-0.381000X-0.381000X0*%
%ADD32RoundRect,0.250000X0.600000X-0.600000X0.600000X0.600000X-0.600000X0.600000X-0.600000X-0.600000X0*%
%ADD33R,1.600000X1.600000*%
%ADD34O,1.600000X1.600000*%
G04 APERTURE END LIST*
D10*
%TO.C,REF\u002A\u002A*%
X17662500Y-58837500D03*
%TD*%
D11*
%TO.C,NRST*%
X30912500Y-51837500D03*
X30912500Y-59837500D03*
X26412500Y-59837500D03*
X26412500Y-51837500D03*
%TD*%
D12*
%TO.C,IND*%
X41287500Y-37337500D03*
X43037500Y-37337500D03*
%TD*%
%TO.C,PA8*%
X39787500Y-56837500D03*
X41537500Y-56837500D03*
%TD*%
D11*
%TO.C,BOOT0*%
X30912500Y-39837500D03*
X30912500Y-47837500D03*
X26412500Y-39837500D03*
X26412500Y-47837500D03*
%TD*%
D13*
%TO.C,C12*%
X35162500Y-33937500D03*
X35162500Y-26737500D03*
%TD*%
D10*
%TO.C,REF\u002A\u002A*%
X83662500Y-17837500D03*
%TD*%
%TO.C,REF\u002A\u002A*%
X17662500Y-17837500D03*
%TD*%
D14*
%TO.C,C13*%
X50717645Y-30635299D03*
X50717645Y-25635299D03*
%TD*%
D15*
%TO.C,J5*%
X22312500Y-40837500D03*
D16*
X22312500Y-43337500D03*
X22312500Y-45837500D03*
X22312500Y-48337500D03*
X22312500Y-50837500D03*
%TD*%
D17*
%TO.C,JP1*%
X22662500Y-55837500D03*
D18*
X22662500Y-58377500D03*
%TD*%
D10*
%TO.C,REF\u002A\u002A*%
X83662500Y-58837500D03*
%TD*%
D19*
%TO.C,U1*%
X69285500Y-37297500D03*
D20*
X69285500Y-39837500D03*
X69285500Y-42377500D03*
%TD*%
D12*
%TO.C,PB1*%
X39787500Y-59837500D03*
X41537500Y-59837500D03*
%TD*%
D21*
%TO.C,PA0*%
X74662500Y-55587500D03*
X66662500Y-55587500D03*
X74662500Y-60087500D03*
X66662500Y-60087500D03*
%TD*%
D12*
%TO.C,VSYS*%
X33287500Y-37337500D03*
X35037500Y-37337500D03*
%TD*%
D21*
%TO.C,PA5*%
X55662500Y-55587500D03*
X63662500Y-55587500D03*
X55662500Y-60087500D03*
X63662500Y-60087500D03*
%TD*%
D12*
%TO.C,VBUS*%
X33287500Y-39337500D03*
X35037500Y-39337500D03*
%TD*%
D22*
%TO.C,J6*%
X79012500Y-50837500D03*
D16*
X79012500Y-48337500D03*
X79012500Y-45837500D03*
X79012500Y-43337500D03*
X79012500Y-40837500D03*
%TD*%
D23*
%TO.C,C6*%
X44162500Y-26737500D03*
X44162500Y-33937500D03*
%TD*%
D24*
%TO.C,J1*%
X18337500Y-35337500D03*
X18337500Y-24337500D03*
D25*
X28337500Y-27337500D03*
D26*
X28337500Y-32337500D03*
%TD*%
D27*
%TO.C,SW5*%
X73662500Y-48917500D03*
X73662500Y-38757500D03*
D28*
X73662500Y-41297500D03*
D27*
X73662500Y-43837500D03*
X73662500Y-46377500D03*
%TD*%
D29*
%TO.C,J4*%
X45662500Y-22487500D03*
D30*
X43162500Y-22487500D03*
X40662500Y-22487500D03*
X38162500Y-22487500D03*
X35662500Y-22487500D03*
%TD*%
D31*
%TO.C,PA1*%
X68122500Y-51837500D03*
D20*
X70662500Y-51837500D03*
X73202500Y-51837500D03*
%TD*%
D12*
%TO.C,PA11*%
X39787500Y-53837500D03*
X41537500Y-53837500D03*
%TD*%
D31*
%TO.C,PA6*%
X57122500Y-51837500D03*
D20*
X59662500Y-51837500D03*
X62202500Y-51837500D03*
%TD*%
D12*
%TO.C,3V3*%
X41287500Y-39337500D03*
X43037500Y-39337500D03*
%TD*%
D32*
%TO.C,J3*%
X54582500Y-28837500D03*
D27*
X54582500Y-26297500D03*
X57122500Y-28837500D03*
X57122500Y-26297500D03*
X59662500Y-28837500D03*
X59662500Y-26297500D03*
X62202500Y-28837500D03*
X62202500Y-26297500D03*
X64742500Y-28837500D03*
X64742500Y-26297500D03*
%TD*%
D24*
%TO.C,J2*%
X82987500Y-35337500D03*
X82987500Y-24337500D03*
D25*
X72987500Y-32337500D03*
D26*
X72987500Y-27337500D03*
%TD*%
D33*
%TO.C,PA7 PB0*%
X44862500Y-56562500D03*
D34*
X44862500Y-59102500D03*
X52482500Y-59102500D03*
X52482500Y-56562500D03*
%TD*%
M02*
