M48
; DRILL file {KiCad (6.0.7)} date Tue Dec 12 10:26:36 2023
; FORMAT={-:-/ absolute / inch / decimal}
; #@! TF.CreationDate,2023-12-12T10:26:36+09:00
; #@! TF.GenerationSoftware,Kicad,Pcbnew,(6.0.7)
; #@! TF.FileFunction,Plated,1,2,PTH
FMAT,2
INCH
; #@! TA.AperFunction,Plated,PTH,ViaDrill
T1C0.0157
; #@! TA.AperFunction,Plated,PTH,ComponentDrill
T2C0.0256
; #@! TA.AperFunction,Plated,PTH,ComponentDrill
T3C0.0300
; #@! TA.AperFunction,Plated,PTH,ComponentDrill
T4C0.0315
; #@! TA.AperFunction,Plated,PTH,ComponentDrill
T5C0.0335
; #@! TA.AperFunction,Plated,PTH,ComponentDrill
T6C0.0394
; #@! TA.AperFunction,Plated,PTH,ComponentDrill
T7C0.0433
; #@! TA.AperFunction,Plated,PTH,ComponentDrill
T8C0.0748
%
G90
G05
T1
X0.6166Y-0.8204
X0.6166Y-0.9779
X0.6166Y-1.3322
X0.6166Y-2.0999
X0.6166Y-2.218
X0.6189Y-2.3915
X0.6192Y-0.628
X0.7544Y-2.1786
X0.7662Y-1.8214
X0.7923Y-1.3804
X0.8135Y-0.6235
X0.8135Y-0.781
X0.8135Y-2.3952
X0.8348Y-1.0239
X0.8922Y-1.2928
X0.9319Y-1.8525
X0.971Y-2.0015
X0.9906Y-2.2771
X1.0308Y-0.9534
X1.0399Y-1.8834
X1.0558Y-0.6227
X1.0855Y-1.667
X1.1093Y-1.4831
X1.128Y-2.3258
X1.1296Y-1.5664
X1.1582Y-1.8222
X1.1678Y-0.8007
X1.1678Y-1.9818
X1.217Y-1.8834
X1.2208Y-1.3453
X1.2262Y-0.999
X1.281Y-2.1028
X1.2832Y-2.3264
X1.3056Y-1.9621
X1.3102Y-1.4703
X1.3185Y-0.8036
X1.3194Y-1.3716
X1.3278Y-1.5659
X1.3839Y-1.8548
X1.3844Y-0.9582
X1.3844Y-1.1944
X1.4429Y-1.687
X1.4828Y-0.9582
X1.4927Y-1.3608
X1.5007Y-1.7524
X1.5226Y-2.3081
X1.5418Y-1.6777
X1.5418Y-1.8243
X1.5423Y-1.4114
X1.5541Y-0.9462
X1.5581Y-0.8181
X1.5615Y-1.3519
X1.5635Y-1.5704
X1.5647Y-1.4865
X1.5819Y-2.0123
X1.6316Y-1.3687
X1.6353Y-2.2377
X1.6376Y-2.1069
X1.6502Y-0.8333
X1.6545Y-1.9312
X1.6688Y-1.2541
X1.6702Y-0.999
X1.6796Y-2.3361
X1.6854Y-1.1659
X1.6942Y-2.0898
X1.7378Y-1.2779
X1.7781Y-1.4897
X1.8131Y-2.0074
X1.8189Y-1.0575
X1.8241Y-1.8616
X1.8268Y-1.3819
X1.8371Y-1.529
X1.8568Y-1.6471
X1.8588Y-1.5864
X1.8663Y-0.9422
X1.8968Y-1.8548
X1.9251Y-1.1067
X1.9275Y-2.3244
X1.9488Y-1.8701
X1.9541Y-0.9422
X2.0005Y-1.537
X2.0359Y-1.7475
X2.0536Y-1.8046
X2.0544Y-1.6816
X2.0781Y-1.1371
X2.0825Y-1.7477
X2.0939Y-2.0111
X2.1108Y-1.2085
X2.1261Y-2.2748
X2.1344Y-1.7475
X2.1757Y-1.6846
X2.1909Y-0.9496
X2.1931Y-2.1008
X2.2032Y-1.5269
X2.2111Y-1.1944
X2.2259Y-1.4068
X2.234Y-1.6395
X2.2899Y-1.1944
X2.2915Y-1.6664
X2.3042Y-1.8061
X2.3095Y-1.9818
X2.3211Y-0.7974
X2.3433Y-1.6878
X2.3498Y-1.5528
X2.3508Y-2.2358
X2.3706Y-1.7475
X2.3932Y-1.8575
X2.4152Y-1.9655
X2.4213Y-1.2114
X2.4963Y-0.8765
X2.5064Y-2.1885
X2.5097Y-1.388
X2.5122Y-1.2775
X2.5136Y-0.9699
X2.5249Y-1.8394
X2.5647Y-2.3074
X2.6048Y-0.8204
X2.6128Y-1.1711
X2.615Y-2.0856
X2.6172Y-1.9315
X2.6287Y-1.3846
X2.6591Y-1.8106
X2.6982Y-2.2358
X2.7225Y-0.6234
X2.7229Y-0.9385
X2.7229Y-1.1225
X2.7333Y-1.9912
X2.8017Y-0.8401
X2.8311Y-1.6758
X2.8484Y-1.979
X2.9395Y-2.1885
X2.9505Y-0.635
X2.9584Y-1.8784
X2.9788Y-0.8401
X2.9788Y-1.2928
X2.9945Y-2.3009
X3.0424Y-1.6476
X3.0564Y-2.4019
X3.0576Y-0.9385
X3.1024Y-1.5358
X3.1025Y-1.2982
X3.1199Y-1.1348
X3.127Y-2.1543
X3.1456Y-0.9149
X3.1737Y-2.4019
X3.1763Y-0.6234
X3.1873Y-1.6217
X3.2366Y-2.1891
X3.2396Y-1.9081
X3.2445Y-1.1475
X3.3661Y-0.6299
X3.3663Y-1.3814
X3.3687Y-2.3911
X3.3723Y-2.201
X3.3746Y-0.8173
T2
X2.2489Y-2.0408
X2.3489Y-2.0408
X2.4489Y-2.0408
X2.682Y-2.0408
X2.782Y-2.0408
X2.882Y-2.0408
T3
X2.7278Y-1.4684
X2.7278Y-1.5684
X2.7278Y-1.6684
T4
X1.7662Y-2.2269
X1.7662Y-2.3269
X1.9968Y-1.0093
X1.9968Y-1.2061
X2.0662Y-2.2269
X2.0662Y-2.3269
T5
X0.8784Y-1.6078
X0.8784Y-1.7062
X0.8784Y-1.8046
X0.8784Y-1.9031
X0.8784Y-2.0015
X1.404Y-0.8853
X1.5025Y-0.8853
X1.6009Y-0.8853
X1.6993Y-0.8853
X1.7977Y-0.8853
X3.1107Y-1.6078
X3.1107Y-1.7062
X3.1107Y-1.8046
X3.1107Y-1.9031
X3.1107Y-2.0015
T6
X0.7219Y-0.9582
X0.7219Y-1.3912
X0.8922Y-2.1983
X0.8922Y-2.2983
X2.1489Y-1.0353
X2.1489Y-1.1353
X2.2489Y-1.0353
X2.2489Y-1.1353
X2.3489Y-1.0353
X2.3489Y-1.1353
X2.4489Y-1.0353
X2.4489Y-1.1353
X2.5489Y-1.0353
X2.5489Y-1.1353
X3.2672Y-0.9582
X3.2672Y-1.3912
T7
X2.9001Y-1.5259
X2.9001Y-1.6259
X2.9001Y-1.7259
X2.9001Y-1.8259
X2.9001Y-1.9259
T8
X1.1156Y-1.0763
X1.1156Y-1.2731
X2.8735Y-1.0763
X2.8735Y-1.2731
T0
M30
