%TF.GenerationSoftware,KiCad,Pcbnew,(6.0.7)*%
%TF.CreationDate,2023-12-12T10:26:36+09:00*%
%TF.ProjectId,Odometry,4f646f6d-6574-4727-992e-6b696361645f,rev?*%
%TF.SameCoordinates,Original*%
%TF.FileFunction,Legend,Bot*%
%TF.FilePolarity,Positive*%
%FSLAX46Y46*%
G04 Gerber Fmt 4.6, Leading zero omitted, Abs format (unit mm)*
G04 Created by KiCad (PCBNEW (6.0.7)) date 2023-12-12 10:26:36*
%MOMM*%
%LPD*%
G01*
G04 APERTURE LIST*
G04 Aperture macros list*
%AMRoundRect*
0 Rectangle with rounded corners*
0 $1 Rounding radius*
0 $2 $3 $4 $5 $6 $7 $8 $9 X,Y pos of 4 corners*
0 Add a 4 corners polygon primitive as box body*
4,1,4,$2,$3,$4,$5,$6,$7,$8,$9,$2,$3,0*
0 Add four circle primitives for the rounded corners*
1,1,$1+$1,$2,$3*
1,1,$1+$1,$4,$5*
1,1,$1+$1,$6,$7*
1,1,$1+$1,$8,$9*
0 Add four rect primitives between the rounded corners*
20,1,$1+$1,$2,$3,$4,$5,0*
20,1,$1+$1,$4,$5,$6,$7,0*
20,1,$1+$1,$6,$7,$8,$9,0*
20,1,$1+$1,$8,$9,$2,$3,0*%
G04 Aperture macros list end*
%ADD10C,0.150000*%
%ADD11C,0.254000*%
%ADD12C,0.120000*%
%ADD13C,0.200000*%
%ADD14C,2.700000*%
%ADD15C,1.600000*%
%ADD16RoundRect,0.250000X-0.675000X0.600000X-0.675000X-0.600000X0.675000X-0.600000X0.675000X0.600000X0*%
%ADD17O,1.850000X1.700000*%
%ADD18R,1.700000X1.700000*%
%ADD19O,1.700000X1.700000*%
%ADD20RoundRect,0.381000X-0.381000X-0.381000X0.381000X-0.381000X0.381000X0.381000X-0.381000X0.381000X0*%
%ADD21C,1.524000*%
%ADD22RoundRect,0.250000X0.675000X-0.600000X0.675000X0.600000X-0.675000X0.600000X-0.675000X-0.600000X0*%
%ADD23C,1.400000*%
%ADD24R,3.500000X3.500000*%
%ADD25C,3.500000*%
%ADD26C,1.700000*%
%ADD27RoundRect,0.425000X-0.425000X-0.425000X0.425000X-0.425000X0.425000X0.425000X-0.425000X0.425000X0*%
%ADD28RoundRect,0.250000X0.600000X0.675000X-0.600000X0.675000X-0.600000X-0.675000X0.600000X-0.675000X0*%
%ADD29O,1.700000X1.850000*%
%ADD30RoundRect,0.381000X0.381000X-0.381000X0.381000X0.381000X-0.381000X0.381000X-0.381000X-0.381000X0*%
%ADD31RoundRect,0.250000X0.600000X-0.600000X0.600000X0.600000X-0.600000X0.600000X-0.600000X-0.600000X0*%
%ADD32R,1.600000X1.600000*%
%ADD33O,1.600000X1.600000*%
%ADD34RoundRect,0.150000X-0.587500X-0.150000X0.587500X-0.150000X0.587500X0.150000X-0.587500X0.150000X0*%
%ADD35RoundRect,0.140000X-0.140000X-0.170000X0.140000X-0.170000X0.140000X0.170000X-0.140000X0.170000X0*%
%ADD36RoundRect,0.135000X0.135000X0.185000X-0.135000X0.185000X-0.135000X-0.185000X0.135000X-0.185000X0*%
%ADD37RoundRect,0.150000X0.150000X-0.587500X0.150000X0.587500X-0.150000X0.587500X-0.150000X-0.587500X0*%
%ADD38RoundRect,0.135000X-0.135000X-0.185000X0.135000X-0.185000X0.135000X0.185000X-0.135000X0.185000X0*%
%ADD39RoundRect,0.140000X-0.170000X0.140000X-0.170000X-0.140000X0.170000X-0.140000X0.170000X0.140000X0*%
%ADD40R,0.900000X1.200000*%
%ADD41R,1.800000X0.800000*%
%ADD42RoundRect,0.135000X-0.185000X0.135000X-0.185000X-0.135000X0.185000X-0.135000X0.185000X0.135000X0*%
%ADD43RoundRect,0.150000X-0.150000X0.675000X-0.150000X-0.675000X0.150000X-0.675000X0.150000X0.675000X0*%
%ADD44RoundRect,0.140000X0.170000X-0.140000X0.170000X0.140000X-0.170000X0.140000X-0.170000X-0.140000X0*%
%ADD45RoundRect,0.135000X0.185000X-0.135000X0.185000X0.135000X-0.185000X0.135000X-0.185000X-0.135000X0*%
%ADD46R,1.200000X0.900000*%
%ADD47RoundRect,0.225000X-0.250000X0.225000X-0.250000X-0.225000X0.250000X-0.225000X0.250000X0.225000X0*%
%ADD48RoundRect,0.140000X0.140000X0.170000X-0.140000X0.170000X-0.140000X-0.170000X0.140000X-0.170000X0*%
%ADD49R,0.620000X0.575000*%
%ADD50RoundRect,0.125000X0.530330X-0.353553X-0.353553X0.530330X-0.530330X0.353553X0.353553X-0.530330X0*%
%ADD51RoundRect,0.125000X0.530330X0.353553X0.353553X0.530330X-0.530330X-0.353553X-0.353553X-0.530330X0*%
%ADD52RoundRect,0.200000X-0.200000X-0.275000X0.200000X-0.275000X0.200000X0.275000X-0.200000X0.275000X0*%
%ADD53RoundRect,0.250000X0.475000X-0.250000X0.475000X0.250000X-0.475000X0.250000X-0.475000X-0.250000X0*%
G04 APERTURE END LIST*
D10*
X45281547Y-42789880D02*
X45281547Y-43504166D01*
X45329166Y-43647023D01*
X45424404Y-43742261D01*
X45567261Y-43789880D01*
X45662500Y-43789880D01*
X44329166Y-43789880D02*
X44805357Y-43789880D01*
X44805357Y-42789880D01*
X43424404Y-43694642D02*
X43472023Y-43742261D01*
X43614880Y-43789880D01*
X43710119Y-43789880D01*
X43852976Y-43742261D01*
X43948214Y-43647023D01*
X43995833Y-43551785D01*
X44043452Y-43361309D01*
X44043452Y-43218452D01*
X43995833Y-43027976D01*
X43948214Y-42932738D01*
X43852976Y-42837500D01*
X43710119Y-42789880D01*
X43614880Y-42789880D01*
X43472023Y-42837500D01*
X43424404Y-42885119D01*
X42710119Y-42789880D02*
X42710119Y-43504166D01*
X42757738Y-43647023D01*
X42852976Y-43742261D01*
X42995833Y-43789880D01*
X43091071Y-43789880D01*
X41757738Y-43789880D02*
X42233928Y-43789880D01*
X42233928Y-42789880D01*
X40852976Y-43694642D02*
X40900595Y-43742261D01*
X41043452Y-43789880D01*
X41138690Y-43789880D01*
X41281547Y-43742261D01*
X41376785Y-43647023D01*
X41424404Y-43551785D01*
X41472023Y-43361309D01*
X41472023Y-43218452D01*
X41424404Y-43027976D01*
X41376785Y-42932738D01*
X41281547Y-42837500D01*
X41138690Y-42789880D01*
X41043452Y-42789880D01*
X40900595Y-42837500D01*
X40852976Y-42885119D01*
X40138690Y-42789880D02*
X40138690Y-43504166D01*
X40186309Y-43647023D01*
X40281547Y-43742261D01*
X40424404Y-43789880D01*
X40519642Y-43789880D01*
X39186309Y-43789880D02*
X39662500Y-43789880D01*
X39662500Y-42789880D01*
X38281547Y-43694642D02*
X38329166Y-43742261D01*
X38472023Y-43789880D01*
X38567261Y-43789880D01*
X38710119Y-43742261D01*
X38805357Y-43647023D01*
X38852976Y-43551785D01*
X38900595Y-43361309D01*
X38900595Y-43218452D01*
X38852976Y-43027976D01*
X38805357Y-42932738D01*
X38710119Y-42837500D01*
X38567261Y-42789880D01*
X38472023Y-42789880D01*
X38329166Y-42837500D01*
X38281547Y-42885119D01*
X37567261Y-42789880D02*
X37567261Y-43504166D01*
X37614880Y-43647023D01*
X37710119Y-43742261D01*
X37852976Y-43789880D01*
X37948214Y-43789880D01*
X36614880Y-43789880D02*
X37091071Y-43789880D01*
X37091071Y-42789880D01*
X35710119Y-43694642D02*
X35757738Y-43742261D01*
X35900595Y-43789880D01*
X35995833Y-43789880D01*
X36138690Y-43742261D01*
X36233928Y-43647023D01*
X36281547Y-43551785D01*
X36329166Y-43361309D01*
X36329166Y-43218452D01*
X36281547Y-43027976D01*
X36233928Y-42932738D01*
X36138690Y-42837500D01*
X35995833Y-42789880D01*
X35900595Y-42789880D01*
X35757738Y-42837500D01*
X35710119Y-42885119D01*
%TO.C,Q2*%
X76257738Y-27945849D02*
X76352976Y-27898230D01*
X76448214Y-27802991D01*
X76591071Y-27660134D01*
X76686309Y-27612515D01*
X76781547Y-27612515D01*
X76733928Y-27850610D02*
X76829166Y-27802991D01*
X76924404Y-27707753D01*
X76972023Y-27517277D01*
X76972023Y-27183944D01*
X76924404Y-26993468D01*
X76829166Y-26898230D01*
X76733928Y-26850610D01*
X76543452Y-26850610D01*
X76448214Y-26898230D01*
X76352976Y-26993468D01*
X76305357Y-27183944D01*
X76305357Y-27517277D01*
X76352976Y-27707753D01*
X76448214Y-27802991D01*
X76543452Y-27850610D01*
X76733928Y-27850610D01*
X75924404Y-26945849D02*
X75876785Y-26898230D01*
X75781547Y-26850610D01*
X75543452Y-26850610D01*
X75448214Y-26898230D01*
X75400595Y-26945849D01*
X75352976Y-27041087D01*
X75352976Y-27136325D01*
X75400595Y-27279182D01*
X75972023Y-27850610D01*
X75352976Y-27850610D01*
%TO.C,C19*%
X45305357Y-26354642D02*
X45352976Y-26402261D01*
X45495833Y-26449880D01*
X45591071Y-26449880D01*
X45733928Y-26402261D01*
X45829166Y-26307023D01*
X45876785Y-26211785D01*
X45924404Y-26021309D01*
X45924404Y-25878452D01*
X45876785Y-25687976D01*
X45829166Y-25592738D01*
X45733928Y-25497500D01*
X45591071Y-25449880D01*
X45495833Y-25449880D01*
X45352976Y-25497500D01*
X45305357Y-25545119D01*
X44352976Y-26449880D02*
X44924404Y-26449880D01*
X44638690Y-26449880D02*
X44638690Y-25449880D01*
X44733928Y-25592738D01*
X44829166Y-25687976D01*
X44924404Y-25735595D01*
X43876785Y-26449880D02*
X43686309Y-26449880D01*
X43591071Y-26402261D01*
X43543452Y-26354642D01*
X43448214Y-26211785D01*
X43400595Y-26021309D01*
X43400595Y-25640357D01*
X43448214Y-25545119D01*
X43495833Y-25497500D01*
X43591071Y-25449880D01*
X43781547Y-25449880D01*
X43876785Y-25497500D01*
X43924404Y-25545119D01*
X43972023Y-25640357D01*
X43972023Y-25878452D01*
X43924404Y-25973690D01*
X43876785Y-26021309D01*
X43781547Y-26068928D01*
X43591071Y-26068928D01*
X43495833Y-26021309D01*
X43448214Y-25973690D01*
X43400595Y-25878452D01*
%TO.C,R11*%
X41305357Y-51619880D02*
X41638690Y-51143690D01*
X41876785Y-51619880D02*
X41876785Y-50619880D01*
X41495833Y-50619880D01*
X41400595Y-50667500D01*
X41352976Y-50715119D01*
X41305357Y-50810357D01*
X41305357Y-50953214D01*
X41352976Y-51048452D01*
X41400595Y-51096071D01*
X41495833Y-51143690D01*
X41876785Y-51143690D01*
X40352976Y-51619880D02*
X40924404Y-51619880D01*
X40638690Y-51619880D02*
X40638690Y-50619880D01*
X40733928Y-50762738D01*
X40829166Y-50857976D01*
X40924404Y-50905595D01*
X39400595Y-51619880D02*
X39972023Y-51619880D01*
X39686309Y-51619880D02*
X39686309Y-50619880D01*
X39781547Y-50762738D01*
X39876785Y-50857976D01*
X39972023Y-50905595D01*
%TO.C,Q8*%
X51757738Y-19547619D02*
X51852976Y-19500000D01*
X51948214Y-19404761D01*
X52091071Y-19261904D01*
X52186309Y-19214285D01*
X52281547Y-19214285D01*
X52233928Y-19452380D02*
X52329166Y-19404761D01*
X52424404Y-19309523D01*
X52472023Y-19119047D01*
X52472023Y-18785714D01*
X52424404Y-18595238D01*
X52329166Y-18500000D01*
X52233928Y-18452380D01*
X52043452Y-18452380D01*
X51948214Y-18500000D01*
X51852976Y-18595238D01*
X51805357Y-18785714D01*
X51805357Y-19119047D01*
X51852976Y-19309523D01*
X51948214Y-19404761D01*
X52043452Y-19452380D01*
X52233928Y-19452380D01*
X51233928Y-18880952D02*
X51329166Y-18833333D01*
X51376785Y-18785714D01*
X51424404Y-18690476D01*
X51424404Y-18642857D01*
X51376785Y-18547619D01*
X51329166Y-18500000D01*
X51233928Y-18452380D01*
X51043452Y-18452380D01*
X50948214Y-18500000D01*
X50900595Y-18547619D01*
X50852976Y-18642857D01*
X50852976Y-18690476D01*
X50900595Y-18785714D01*
X50948214Y-18833333D01*
X51043452Y-18880952D01*
X51233928Y-18880952D01*
X51329166Y-18928571D01*
X51376785Y-18976190D01*
X51424404Y-19071428D01*
X51424404Y-19261904D01*
X51376785Y-19357142D01*
X51329166Y-19404761D01*
X51233928Y-19452380D01*
X51043452Y-19452380D01*
X50948214Y-19404761D01*
X50900595Y-19357142D01*
X50852976Y-19261904D01*
X50852976Y-19071428D01*
X50900595Y-18976190D01*
X50948214Y-18928571D01*
X51043452Y-18880952D01*
%TO.C,R19*%
X48867128Y-27213415D02*
X49200461Y-26737225D01*
X49438556Y-27213415D02*
X49438556Y-26213415D01*
X49057604Y-26213415D01*
X48962366Y-26261035D01*
X48914747Y-26308654D01*
X48867128Y-26403892D01*
X48867128Y-26546749D01*
X48914747Y-26641987D01*
X48962366Y-26689606D01*
X49057604Y-26737225D01*
X49438556Y-26737225D01*
X47914747Y-27213415D02*
X48486175Y-27213415D01*
X48200461Y-27213415D02*
X48200461Y-26213415D01*
X48295699Y-26356273D01*
X48390937Y-26451511D01*
X48486175Y-26499130D01*
X47438556Y-27213415D02*
X47248080Y-27213415D01*
X47152842Y-27165796D01*
X47105223Y-27118177D01*
X47009985Y-26975320D01*
X46962366Y-26784844D01*
X46962366Y-26403892D01*
X47009985Y-26308654D01*
X47057604Y-26261035D01*
X47152842Y-26213415D01*
X47343318Y-26213415D01*
X47438556Y-26261035D01*
X47486175Y-26308654D01*
X47533794Y-26403892D01*
X47533794Y-26641987D01*
X47486175Y-26737225D01*
X47438556Y-26784844D01*
X47343318Y-26832463D01*
X47152842Y-26832463D01*
X47057604Y-26784844D01*
X47009985Y-26737225D01*
X46962366Y-26641987D01*
%TO.C,C10*%
X72685731Y-38225064D02*
X72733350Y-38177445D01*
X72780969Y-38034588D01*
X72780969Y-37939350D01*
X72733350Y-37796493D01*
X72638112Y-37701255D01*
X72542874Y-37653636D01*
X72352398Y-37606017D01*
X72209541Y-37606017D01*
X72019065Y-37653636D01*
X71923827Y-37701255D01*
X71828589Y-37796493D01*
X71780969Y-37939350D01*
X71780969Y-38034588D01*
X71828589Y-38177445D01*
X71876208Y-38225064D01*
X72780969Y-39177445D02*
X72780969Y-38606017D01*
X72780969Y-38891731D02*
X71780969Y-38891731D01*
X71923827Y-38796493D01*
X72019065Y-38701255D01*
X72066684Y-38606017D01*
X71780969Y-39796493D02*
X71780969Y-39891731D01*
X71828589Y-39986969D01*
X71876208Y-40034588D01*
X71971446Y-40082207D01*
X72161922Y-40129826D01*
X72400017Y-40129826D01*
X72590493Y-40082207D01*
X72685731Y-40034588D01*
X72733350Y-39986969D01*
X72780969Y-39891731D01*
X72780969Y-39796493D01*
X72733350Y-39701255D01*
X72685731Y-39653636D01*
X72590493Y-39606017D01*
X72400017Y-39558398D01*
X72161922Y-39558398D01*
X71971446Y-39606017D01*
X71876208Y-39653636D01*
X71828589Y-39701255D01*
X71780969Y-39796493D01*
%TO.C,R9*%
X40829166Y-57619880D02*
X41162500Y-57143690D01*
X41400595Y-57619880D02*
X41400595Y-56619880D01*
X41019642Y-56619880D01*
X40924404Y-56667500D01*
X40876785Y-56715119D01*
X40829166Y-56810357D01*
X40829166Y-56953214D01*
X40876785Y-57048452D01*
X40924404Y-57096071D01*
X41019642Y-57143690D01*
X41400595Y-57143690D01*
X40352976Y-57619880D02*
X40162500Y-57619880D01*
X40067261Y-57572261D01*
X40019642Y-57524642D01*
X39924404Y-57381785D01*
X39876785Y-57191309D01*
X39876785Y-56810357D01*
X39924404Y-56715119D01*
X39972023Y-56667500D01*
X40067261Y-56619880D01*
X40257738Y-56619880D01*
X40352976Y-56667500D01*
X40400595Y-56715119D01*
X40448214Y-56810357D01*
X40448214Y-57048452D01*
X40400595Y-57143690D01*
X40352976Y-57191309D01*
X40257738Y-57238928D01*
X40067261Y-57238928D01*
X39972023Y-57191309D01*
X39924404Y-57143690D01*
X39876785Y-57048452D01*
%TO.C,D6*%
X77238095Y-36789880D02*
X77238095Y-35789880D01*
X77000000Y-35789880D01*
X76857142Y-35837500D01*
X76761904Y-35932738D01*
X76714285Y-36027976D01*
X76666666Y-36218452D01*
X76666666Y-36361309D01*
X76714285Y-36551785D01*
X76761904Y-36647023D01*
X76857142Y-36742261D01*
X77000000Y-36789880D01*
X77238095Y-36789880D01*
X75809523Y-35789880D02*
X76000000Y-35789880D01*
X76095238Y-35837500D01*
X76142857Y-35885119D01*
X76238095Y-36027976D01*
X76285714Y-36218452D01*
X76285714Y-36599404D01*
X76238095Y-36694642D01*
X76190476Y-36742261D01*
X76095238Y-36789880D01*
X75904761Y-36789880D01*
X75809523Y-36742261D01*
X75761904Y-36694642D01*
X75714285Y-36599404D01*
X75714285Y-36361309D01*
X75761904Y-36266071D01*
X75809523Y-36218452D01*
X75904761Y-36170833D01*
X76095238Y-36170833D01*
X76190476Y-36218452D01*
X76238095Y-36266071D01*
X76285714Y-36361309D01*
%TO.C,R5*%
X63829166Y-54289880D02*
X64162500Y-53813690D01*
X64400595Y-54289880D02*
X64400595Y-53289880D01*
X64019642Y-53289880D01*
X63924404Y-53337500D01*
X63876785Y-53385119D01*
X63829166Y-53480357D01*
X63829166Y-53623214D01*
X63876785Y-53718452D01*
X63924404Y-53766071D01*
X64019642Y-53813690D01*
X64400595Y-53813690D01*
X62924404Y-53289880D02*
X63400595Y-53289880D01*
X63448214Y-53766071D01*
X63400595Y-53718452D01*
X63305357Y-53670833D01*
X63067261Y-53670833D01*
X62972023Y-53718452D01*
X62924404Y-53766071D01*
X62876785Y-53861309D01*
X62876785Y-54099404D01*
X62924404Y-54194642D01*
X62972023Y-54242261D01*
X63067261Y-54289880D01*
X63305357Y-54289880D01*
X63400595Y-54242261D01*
X63448214Y-54194642D01*
%TO.C,Q7*%
X59595238Y-41885119D02*
X59690476Y-41837500D01*
X59785714Y-41742261D01*
X59928571Y-41599404D01*
X60023809Y-41551785D01*
X60119047Y-41551785D01*
X60071428Y-41789880D02*
X60166666Y-41742261D01*
X60261904Y-41647023D01*
X60309523Y-41456547D01*
X60309523Y-41123214D01*
X60261904Y-40932738D01*
X60166666Y-40837500D01*
X60071428Y-40789880D01*
X59880952Y-40789880D01*
X59785714Y-40837500D01*
X59690476Y-40932738D01*
X59642857Y-41123214D01*
X59642857Y-41456547D01*
X59690476Y-41647023D01*
X59785714Y-41742261D01*
X59880952Y-41789880D01*
X60071428Y-41789880D01*
X59309523Y-40789880D02*
X58642857Y-40789880D01*
X59071428Y-41789880D01*
%TO.C,Q5*%
X55757738Y-19547619D02*
X55852976Y-19500000D01*
X55948214Y-19404761D01*
X56091071Y-19261904D01*
X56186309Y-19214285D01*
X56281547Y-19214285D01*
X56233928Y-19452380D02*
X56329166Y-19404761D01*
X56424404Y-19309523D01*
X56472023Y-19119047D01*
X56472023Y-18785714D01*
X56424404Y-18595238D01*
X56329166Y-18500000D01*
X56233928Y-18452380D01*
X56043452Y-18452380D01*
X55948214Y-18500000D01*
X55852976Y-18595238D01*
X55805357Y-18785714D01*
X55805357Y-19119047D01*
X55852976Y-19309523D01*
X55948214Y-19404761D01*
X56043452Y-19452380D01*
X56233928Y-19452380D01*
X54900595Y-18452380D02*
X55376785Y-18452380D01*
X55424404Y-18928571D01*
X55376785Y-18880952D01*
X55281547Y-18833333D01*
X55043452Y-18833333D01*
X54948214Y-18880952D01*
X54900595Y-18928571D01*
X54852976Y-19023809D01*
X54852976Y-19261904D01*
X54900595Y-19357142D01*
X54948214Y-19404761D01*
X55043452Y-19452380D01*
X55281547Y-19452380D01*
X55376785Y-19404761D01*
X55424404Y-19357142D01*
%TO.C,R29*%
X48860502Y-29952380D02*
X49193835Y-29476190D01*
X49431930Y-29952380D02*
X49431930Y-28952380D01*
X49050978Y-28952380D01*
X48955740Y-29000000D01*
X48908121Y-29047619D01*
X48860502Y-29142857D01*
X48860502Y-29285714D01*
X48908121Y-29380952D01*
X48955740Y-29428571D01*
X49050978Y-29476190D01*
X49431930Y-29476190D01*
X48479549Y-29047619D02*
X48431930Y-29000000D01*
X48336692Y-28952380D01*
X48098597Y-28952380D01*
X48003359Y-29000000D01*
X47955740Y-29047619D01*
X47908121Y-29142857D01*
X47908121Y-29238095D01*
X47955740Y-29380952D01*
X48527168Y-29952380D01*
X47908121Y-29952380D01*
X47431930Y-29952380D02*
X47241454Y-29952380D01*
X47146216Y-29904761D01*
X47098597Y-29857142D01*
X47003359Y-29714285D01*
X46955740Y-29523809D01*
X46955740Y-29142857D01*
X47003359Y-29047619D01*
X47050978Y-29000000D01*
X47146216Y-28952380D01*
X47336692Y-28952380D01*
X47431930Y-29000000D01*
X47479549Y-29047619D01*
X47527168Y-29142857D01*
X47527168Y-29380952D01*
X47479549Y-29476190D01*
X47431930Y-29523809D01*
X47336692Y-29571428D01*
X47146216Y-29571428D01*
X47050978Y-29523809D01*
X47003359Y-29476190D01*
X46955740Y-29380952D01*
%TO.C,R35*%
X18114880Y-53184643D02*
X17638690Y-52851310D01*
X18114880Y-52613215D02*
X17114880Y-52613215D01*
X17114880Y-52994167D01*
X17162500Y-53089405D01*
X17210119Y-53137024D01*
X17305357Y-53184643D01*
X17448214Y-53184643D01*
X17543452Y-53137024D01*
X17591071Y-53089405D01*
X17638690Y-52994167D01*
X17638690Y-52613215D01*
X17114880Y-53517977D02*
X17114880Y-54137024D01*
X17495833Y-53803691D01*
X17495833Y-53946548D01*
X17543452Y-54041786D01*
X17591071Y-54089405D01*
X17686309Y-54137024D01*
X17924404Y-54137024D01*
X18019642Y-54089405D01*
X18067261Y-54041786D01*
X18114880Y-53946548D01*
X18114880Y-53660834D01*
X18067261Y-53565596D01*
X18019642Y-53517977D01*
X17114880Y-55041786D02*
X17114880Y-54565596D01*
X17591071Y-54517977D01*
X17543452Y-54565596D01*
X17495833Y-54660834D01*
X17495833Y-54898929D01*
X17543452Y-54994167D01*
X17591071Y-55041786D01*
X17686309Y-55089405D01*
X17924404Y-55089405D01*
X18019642Y-55041786D01*
X18067261Y-54994167D01*
X18114880Y-54898929D01*
X18114880Y-54660834D01*
X18067261Y-54565596D01*
X18019642Y-54517977D01*
%TO.C,Q6*%
X60095238Y-46047619D02*
X60190476Y-46000000D01*
X60285714Y-45904761D01*
X60428571Y-45761904D01*
X60523809Y-45714285D01*
X60619047Y-45714285D01*
X60571428Y-45952380D02*
X60666666Y-45904761D01*
X60761904Y-45809523D01*
X60809523Y-45619047D01*
X60809523Y-45285714D01*
X60761904Y-45095238D01*
X60666666Y-45000000D01*
X60571428Y-44952380D01*
X60380952Y-44952380D01*
X60285714Y-45000000D01*
X60190476Y-45095238D01*
X60142857Y-45285714D01*
X60142857Y-45619047D01*
X60190476Y-45809523D01*
X60285714Y-45904761D01*
X60380952Y-45952380D01*
X60571428Y-45952380D01*
X59285714Y-44952380D02*
X59476190Y-44952380D01*
X59571428Y-45000000D01*
X59619047Y-45047619D01*
X59714285Y-45190476D01*
X59761904Y-45380952D01*
X59761904Y-45761904D01*
X59714285Y-45857142D01*
X59666666Y-45904761D01*
X59571428Y-45952380D01*
X59380952Y-45952380D01*
X59285714Y-45904761D01*
X59238095Y-45857142D01*
X59190476Y-45761904D01*
X59190476Y-45523809D01*
X59238095Y-45428571D01*
X59285714Y-45380952D01*
X59380952Y-45333333D01*
X59571428Y-45333333D01*
X59666666Y-45380952D01*
X59714285Y-45428571D01*
X59761904Y-45523809D01*
%TO.C,R33*%
X25672305Y-36816391D02*
X26005638Y-36340201D01*
X26243733Y-36816391D02*
X26243733Y-35816391D01*
X25862781Y-35816391D01*
X25767543Y-35864011D01*
X25719924Y-35911630D01*
X25672305Y-36006868D01*
X25672305Y-36149725D01*
X25719924Y-36244963D01*
X25767543Y-36292582D01*
X25862781Y-36340201D01*
X26243733Y-36340201D01*
X25338971Y-35816391D02*
X24719924Y-35816391D01*
X25053257Y-36197344D01*
X24910400Y-36197344D01*
X24815162Y-36244963D01*
X24767543Y-36292582D01*
X24719924Y-36387820D01*
X24719924Y-36625915D01*
X24767543Y-36721153D01*
X24815162Y-36768772D01*
X24910400Y-36816391D01*
X25196114Y-36816391D01*
X25291352Y-36768772D01*
X25338971Y-36721153D01*
X24386590Y-35816391D02*
X23767543Y-35816391D01*
X24100876Y-36197344D01*
X23958019Y-36197344D01*
X23862781Y-36244963D01*
X23815162Y-36292582D01*
X23767543Y-36387820D01*
X23767543Y-36625915D01*
X23815162Y-36721153D01*
X23862781Y-36768772D01*
X23958019Y-36816391D01*
X24243733Y-36816391D01*
X24338971Y-36768772D01*
X24386590Y-36721153D01*
%TO.C,R34*%
X25114880Y-50694642D02*
X24638690Y-50361309D01*
X25114880Y-50123214D02*
X24114880Y-50123214D01*
X24114880Y-50504166D01*
X24162500Y-50599404D01*
X24210119Y-50647023D01*
X24305357Y-50694642D01*
X24448214Y-50694642D01*
X24543452Y-50647023D01*
X24591071Y-50599404D01*
X24638690Y-50504166D01*
X24638690Y-50123214D01*
X24114880Y-51027976D02*
X24114880Y-51647023D01*
X24495833Y-51313690D01*
X24495833Y-51456547D01*
X24543452Y-51551785D01*
X24591071Y-51599404D01*
X24686309Y-51647023D01*
X24924404Y-51647023D01*
X25019642Y-51599404D01*
X25067261Y-51551785D01*
X25114880Y-51456547D01*
X25114880Y-51170833D01*
X25067261Y-51075595D01*
X25019642Y-51027976D01*
X24448214Y-52504166D02*
X25114880Y-52504166D01*
X24067261Y-52266071D02*
X24781547Y-52027976D01*
X24781547Y-52647023D01*
%TO.C,C16*%
X32859642Y-42694642D02*
X32907261Y-42647023D01*
X32954880Y-42504166D01*
X32954880Y-42408928D01*
X32907261Y-42266071D01*
X32812023Y-42170833D01*
X32716785Y-42123214D01*
X32526309Y-42075595D01*
X32383452Y-42075595D01*
X32192976Y-42123214D01*
X32097738Y-42170833D01*
X32002500Y-42266071D01*
X31954880Y-42408928D01*
X31954880Y-42504166D01*
X32002500Y-42647023D01*
X32050119Y-42694642D01*
X32954880Y-43647023D02*
X32954880Y-43075595D01*
X32954880Y-43361309D02*
X31954880Y-43361309D01*
X32097738Y-43266071D01*
X32192976Y-43170833D01*
X32240595Y-43075595D01*
X31954880Y-44504166D02*
X31954880Y-44313690D01*
X32002500Y-44218452D01*
X32050119Y-44170833D01*
X32192976Y-44075595D01*
X32383452Y-44027976D01*
X32764404Y-44027976D01*
X32859642Y-44075595D01*
X32907261Y-44123214D01*
X32954880Y-44218452D01*
X32954880Y-44408928D01*
X32907261Y-44504166D01*
X32859642Y-44551785D01*
X32764404Y-44599404D01*
X32526309Y-44599404D01*
X32431071Y-44551785D01*
X32383452Y-44504166D01*
X32335833Y-44408928D01*
X32335833Y-44218452D01*
X32383452Y-44123214D01*
X32431071Y-44075595D01*
X32526309Y-44027976D01*
%TO.C,R1*%
X74829166Y-54289880D02*
X75162500Y-53813690D01*
X75400595Y-54289880D02*
X75400595Y-53289880D01*
X75019642Y-53289880D01*
X74924404Y-53337500D01*
X74876785Y-53385119D01*
X74829166Y-53480357D01*
X74829166Y-53623214D01*
X74876785Y-53718452D01*
X74924404Y-53766071D01*
X75019642Y-53813690D01*
X75400595Y-53813690D01*
X73876785Y-54289880D02*
X74448214Y-54289880D01*
X74162500Y-54289880D02*
X74162500Y-53289880D01*
X74257738Y-53432738D01*
X74352976Y-53527976D01*
X74448214Y-53575595D01*
%TO.C,R10*%
X41305357Y-54619880D02*
X41638690Y-54143690D01*
X41876785Y-54619880D02*
X41876785Y-53619880D01*
X41495833Y-53619880D01*
X41400595Y-53667500D01*
X41352976Y-53715119D01*
X41305357Y-53810357D01*
X41305357Y-53953214D01*
X41352976Y-54048452D01*
X41400595Y-54096071D01*
X41495833Y-54143690D01*
X41876785Y-54143690D01*
X40352976Y-54619880D02*
X40924404Y-54619880D01*
X40638690Y-54619880D02*
X40638690Y-53619880D01*
X40733928Y-53762738D01*
X40829166Y-53857976D01*
X40924404Y-53905595D01*
X39733928Y-53619880D02*
X39638690Y-53619880D01*
X39543452Y-53667500D01*
X39495833Y-53715119D01*
X39448214Y-53810357D01*
X39400595Y-54000833D01*
X39400595Y-54238928D01*
X39448214Y-54429404D01*
X39495833Y-54524642D01*
X39543452Y-54572261D01*
X39638690Y-54619880D01*
X39733928Y-54619880D01*
X39829166Y-54572261D01*
X39876785Y-54524642D01*
X39924404Y-54429404D01*
X39972023Y-54238928D01*
X39972023Y-54000833D01*
X39924404Y-53810357D01*
X39876785Y-53715119D01*
X39829166Y-53667500D01*
X39733928Y-53619880D01*
%TO.C,R28*%
X61805357Y-21789880D02*
X62138690Y-21313690D01*
X62376785Y-21789880D02*
X62376785Y-20789880D01*
X61995833Y-20789880D01*
X61900595Y-20837500D01*
X61852976Y-20885119D01*
X61805357Y-20980357D01*
X61805357Y-21123214D01*
X61852976Y-21218452D01*
X61900595Y-21266071D01*
X61995833Y-21313690D01*
X62376785Y-21313690D01*
X61424404Y-20885119D02*
X61376785Y-20837500D01*
X61281547Y-20789880D01*
X61043452Y-20789880D01*
X60948214Y-20837500D01*
X60900595Y-20885119D01*
X60852976Y-20980357D01*
X60852976Y-21075595D01*
X60900595Y-21218452D01*
X61472023Y-21789880D01*
X60852976Y-21789880D01*
X60281547Y-21218452D02*
X60376785Y-21170833D01*
X60424404Y-21123214D01*
X60472023Y-21027976D01*
X60472023Y-20980357D01*
X60424404Y-20885119D01*
X60376785Y-20837500D01*
X60281547Y-20789880D01*
X60091071Y-20789880D01*
X59995833Y-20837500D01*
X59948214Y-20885119D01*
X59900595Y-20980357D01*
X59900595Y-21027976D01*
X59948214Y-21123214D01*
X59995833Y-21170833D01*
X60091071Y-21218452D01*
X60281547Y-21218452D01*
X60376785Y-21266071D01*
X60424404Y-21313690D01*
X60472023Y-21408928D01*
X60472023Y-21599404D01*
X60424404Y-21694642D01*
X60376785Y-21742261D01*
X60281547Y-21789880D01*
X60091071Y-21789880D01*
X59995833Y-21742261D01*
X59948214Y-21694642D01*
X59900595Y-21599404D01*
X59900595Y-21408928D01*
X59948214Y-21313690D01*
X59995833Y-21266071D01*
X60091071Y-21218452D01*
%TO.C,U3*%
X20775982Y-49205513D02*
X20775982Y-50015037D01*
X20728363Y-50110275D01*
X20680744Y-50157894D01*
X20585506Y-50205513D01*
X20395030Y-50205513D01*
X20299792Y-50157894D01*
X20252173Y-50110275D01*
X20204554Y-50015037D01*
X20204554Y-49205513D01*
X19823601Y-49205513D02*
X19204554Y-49205513D01*
X19537887Y-49586466D01*
X19395030Y-49586466D01*
X19299792Y-49634085D01*
X19252173Y-49681704D01*
X19204554Y-49776942D01*
X19204554Y-50015037D01*
X19252173Y-50110275D01*
X19299792Y-50157894D01*
X19395030Y-50205513D01*
X19680744Y-50205513D01*
X19775982Y-50157894D01*
X19823601Y-50110275D01*
%TO.C,C17*%
X47019642Y-40194642D02*
X47067261Y-40147023D01*
X47114880Y-40004166D01*
X47114880Y-39908928D01*
X47067261Y-39766071D01*
X46972023Y-39670833D01*
X46876785Y-39623214D01*
X46686309Y-39575595D01*
X46543452Y-39575595D01*
X46352976Y-39623214D01*
X46257738Y-39670833D01*
X46162500Y-39766071D01*
X46114880Y-39908928D01*
X46114880Y-40004166D01*
X46162500Y-40147023D01*
X46210119Y-40194642D01*
X47114880Y-41147023D02*
X47114880Y-40575595D01*
X47114880Y-40861309D02*
X46114880Y-40861309D01*
X46257738Y-40766071D01*
X46352976Y-40670833D01*
X46400595Y-40575595D01*
X46114880Y-41480357D02*
X46114880Y-42147023D01*
X47114880Y-41718452D01*
%TO.C,R27*%
X27944880Y-47684643D02*
X27468690Y-47351310D01*
X27944880Y-47113215D02*
X26944880Y-47113215D01*
X26944880Y-47494167D01*
X26992500Y-47589405D01*
X27040119Y-47637024D01*
X27135357Y-47684643D01*
X27278214Y-47684643D01*
X27373452Y-47637024D01*
X27421071Y-47589405D01*
X27468690Y-47494167D01*
X27468690Y-47113215D01*
X27040119Y-48065596D02*
X26992500Y-48113215D01*
X26944880Y-48208453D01*
X26944880Y-48446548D01*
X26992500Y-48541786D01*
X27040119Y-48589405D01*
X27135357Y-48637024D01*
X27230595Y-48637024D01*
X27373452Y-48589405D01*
X27944880Y-48017977D01*
X27944880Y-48637024D01*
X26944880Y-48970358D02*
X26944880Y-49637024D01*
X27944880Y-49208453D01*
%TO.C,Q4*%
X59595238Y-37885119D02*
X59690476Y-37837500D01*
X59785714Y-37742261D01*
X59928571Y-37599404D01*
X60023809Y-37551785D01*
X60119047Y-37551785D01*
X60071428Y-37789880D02*
X60166666Y-37742261D01*
X60261904Y-37647023D01*
X60309523Y-37456547D01*
X60309523Y-37123214D01*
X60261904Y-36932738D01*
X60166666Y-36837500D01*
X60071428Y-36789880D01*
X59880952Y-36789880D01*
X59785714Y-36837500D01*
X59690476Y-36932738D01*
X59642857Y-37123214D01*
X59642857Y-37456547D01*
X59690476Y-37647023D01*
X59785714Y-37742261D01*
X59880952Y-37789880D01*
X60071428Y-37789880D01*
X58785714Y-37123214D02*
X58785714Y-37789880D01*
X59023809Y-36742261D02*
X59261904Y-37456547D01*
X58642857Y-37456547D01*
%TO.C,R30*%
X46642857Y-20289880D02*
X46976190Y-19813690D01*
X47214285Y-20289880D02*
X47214285Y-19289880D01*
X46833333Y-19289880D01*
X46738095Y-19337500D01*
X46690476Y-19385119D01*
X46642857Y-19480357D01*
X46642857Y-19623214D01*
X46690476Y-19718452D01*
X46738095Y-19766071D01*
X46833333Y-19813690D01*
X47214285Y-19813690D01*
X46309523Y-19289880D02*
X45690476Y-19289880D01*
X46023809Y-19670833D01*
X45880952Y-19670833D01*
X45785714Y-19718452D01*
X45738095Y-19766071D01*
X45690476Y-19861309D01*
X45690476Y-20099404D01*
X45738095Y-20194642D01*
X45785714Y-20242261D01*
X45880952Y-20289880D01*
X46166666Y-20289880D01*
X46261904Y-20242261D01*
X46309523Y-20194642D01*
X45071428Y-19289880D02*
X44976190Y-19289880D01*
X44880952Y-19337500D01*
X44833333Y-19385119D01*
X44785714Y-19480357D01*
X44738095Y-19670833D01*
X44738095Y-19908928D01*
X44785714Y-20099404D01*
X44833333Y-20194642D01*
X44880952Y-20242261D01*
X44976190Y-20289880D01*
X45071428Y-20289880D01*
X45166666Y-20242261D01*
X45214285Y-20194642D01*
X45261904Y-20099404D01*
X45309523Y-19908928D01*
X45309523Y-19670833D01*
X45261904Y-19480357D01*
X45214285Y-19385119D01*
X45166666Y-19337500D01*
X45071428Y-19289880D01*
%TO.C,R36*%
X19614880Y-53204641D02*
X19138690Y-52871308D01*
X19614880Y-52633213D02*
X18614880Y-52633213D01*
X18614880Y-53014165D01*
X18662500Y-53109403D01*
X18710119Y-53157022D01*
X18805357Y-53204641D01*
X18948214Y-53204641D01*
X19043452Y-53157022D01*
X19091071Y-53109403D01*
X19138690Y-53014165D01*
X19138690Y-52633213D01*
X18614880Y-53537975D02*
X18614880Y-54157022D01*
X18995833Y-53823689D01*
X18995833Y-53966546D01*
X19043452Y-54061784D01*
X19091071Y-54109403D01*
X19186309Y-54157022D01*
X19424404Y-54157022D01*
X19519642Y-54109403D01*
X19567261Y-54061784D01*
X19614880Y-53966546D01*
X19614880Y-53680832D01*
X19567261Y-53585594D01*
X19519642Y-53537975D01*
X18614880Y-55014165D02*
X18614880Y-54823689D01*
X18662500Y-54728451D01*
X18710119Y-54680832D01*
X18852976Y-54585594D01*
X19043452Y-54537975D01*
X19424404Y-54537975D01*
X19519642Y-54585594D01*
X19567261Y-54633213D01*
X19614880Y-54728451D01*
X19614880Y-54918927D01*
X19567261Y-55014165D01*
X19519642Y-55061784D01*
X19424404Y-55109403D01*
X19186309Y-55109403D01*
X19091071Y-55061784D01*
X19043452Y-55014165D01*
X18995833Y-54918927D01*
X18995833Y-54728451D01*
X19043452Y-54633213D01*
X19091071Y-54585594D01*
X19186309Y-54537975D01*
%TO.C,R20*%
X67614880Y-34194642D02*
X67138690Y-33861309D01*
X67614880Y-33623214D02*
X66614880Y-33623214D01*
X66614880Y-34004166D01*
X66662500Y-34099404D01*
X66710119Y-34147023D01*
X66805357Y-34194642D01*
X66948214Y-34194642D01*
X67043452Y-34147023D01*
X67091071Y-34099404D01*
X67138690Y-34004166D01*
X67138690Y-33623214D01*
X66710119Y-34575595D02*
X66662500Y-34623214D01*
X66614880Y-34718452D01*
X66614880Y-34956547D01*
X66662500Y-35051785D01*
X66710119Y-35099404D01*
X66805357Y-35147023D01*
X66900595Y-35147023D01*
X67043452Y-35099404D01*
X67614880Y-34527976D01*
X67614880Y-35147023D01*
X66614880Y-35766071D02*
X66614880Y-35861309D01*
X66662500Y-35956547D01*
X66710119Y-36004166D01*
X66805357Y-36051785D01*
X66995833Y-36099404D01*
X67233928Y-36099404D01*
X67424404Y-36051785D01*
X67519642Y-36004166D01*
X67567261Y-35956547D01*
X67614880Y-35861309D01*
X67614880Y-35766071D01*
X67567261Y-35670833D01*
X67519642Y-35623214D01*
X67424404Y-35575595D01*
X67233928Y-35527976D01*
X66995833Y-35527976D01*
X66805357Y-35575595D01*
X66710119Y-35623214D01*
X66662500Y-35670833D01*
X66614880Y-35766071D01*
%TO.C,D2*%
X83114880Y-21099404D02*
X82114880Y-21099404D01*
X82114880Y-21337500D01*
X82162500Y-21480357D01*
X82257738Y-21575595D01*
X82352976Y-21623214D01*
X82543452Y-21670833D01*
X82686309Y-21670833D01*
X82876785Y-21623214D01*
X82972023Y-21575595D01*
X83067261Y-21480357D01*
X83114880Y-21337500D01*
X83114880Y-21099404D01*
X82210119Y-22051785D02*
X82162500Y-22099404D01*
X82114880Y-22194642D01*
X82114880Y-22432738D01*
X82162500Y-22527976D01*
X82210119Y-22575595D01*
X82305357Y-22623214D01*
X82400595Y-22623214D01*
X82543452Y-22575595D01*
X83114880Y-22004166D01*
X83114880Y-22623214D01*
%TO.C,C2*%
X74967433Y-16134883D02*
X75015052Y-16087264D01*
X75062671Y-15944407D01*
X75062671Y-15849169D01*
X75015052Y-15706311D01*
X74919814Y-15611073D01*
X74824576Y-15563454D01*
X74634100Y-15515835D01*
X74491243Y-15515835D01*
X74300767Y-15563454D01*
X74205529Y-15611073D01*
X74110291Y-15706311D01*
X74062671Y-15849169D01*
X74062671Y-15944407D01*
X74110291Y-16087264D01*
X74157910Y-16134883D01*
X74157910Y-16515835D02*
X74110291Y-16563454D01*
X74062671Y-16658692D01*
X74062671Y-16896788D01*
X74110291Y-16992026D01*
X74157910Y-17039645D01*
X74253148Y-17087264D01*
X74348386Y-17087264D01*
X74491243Y-17039645D01*
X75062671Y-16468216D01*
X75062671Y-17087264D01*
%TO.C,R6*%
X76394131Y-21789880D02*
X76727465Y-21313690D01*
X76965560Y-21789880D02*
X76965560Y-20789880D01*
X76584607Y-20789880D01*
X76489369Y-20837500D01*
X76441750Y-20885119D01*
X76394131Y-20980357D01*
X76394131Y-21123214D01*
X76441750Y-21218452D01*
X76489369Y-21266071D01*
X76584607Y-21313690D01*
X76965560Y-21313690D01*
X75536988Y-20789880D02*
X75727465Y-20789880D01*
X75822703Y-20837500D01*
X75870322Y-20885119D01*
X75965560Y-21027976D01*
X76013179Y-21218452D01*
X76013179Y-21599404D01*
X75965560Y-21694642D01*
X75917941Y-21742261D01*
X75822703Y-21789880D01*
X75632226Y-21789880D01*
X75536988Y-21742261D01*
X75489369Y-21694642D01*
X75441750Y-21599404D01*
X75441750Y-21361309D01*
X75489369Y-21266071D01*
X75536988Y-21218452D01*
X75632226Y-21170833D01*
X75822703Y-21170833D01*
X75917941Y-21218452D01*
X75965560Y-21266071D01*
X76013179Y-21361309D01*
%TO.C,C14*%
X45805357Y-48854642D02*
X45852976Y-48902261D01*
X45995833Y-48949880D01*
X46091071Y-48949880D01*
X46233928Y-48902261D01*
X46329166Y-48807023D01*
X46376785Y-48711785D01*
X46424404Y-48521309D01*
X46424404Y-48378452D01*
X46376785Y-48187976D01*
X46329166Y-48092738D01*
X46233928Y-47997500D01*
X46091071Y-47949880D01*
X45995833Y-47949880D01*
X45852976Y-47997500D01*
X45805357Y-48045119D01*
X44852976Y-48949880D02*
X45424404Y-48949880D01*
X45138690Y-48949880D02*
X45138690Y-47949880D01*
X45233928Y-48092738D01*
X45329166Y-48187976D01*
X45424404Y-48235595D01*
X43995833Y-48283214D02*
X43995833Y-48949880D01*
X44233928Y-47902261D02*
X44472023Y-48616547D01*
X43852976Y-48616547D01*
%TO.C,R21*%
X59151716Y-24289880D02*
X59485049Y-23813690D01*
X59723144Y-24289880D02*
X59723144Y-23289880D01*
X59342192Y-23289880D01*
X59246954Y-23337500D01*
X59199335Y-23385119D01*
X59151716Y-23480357D01*
X59151716Y-23623214D01*
X59199335Y-23718452D01*
X59246954Y-23766071D01*
X59342192Y-23813690D01*
X59723144Y-23813690D01*
X58770763Y-23385119D02*
X58723144Y-23337500D01*
X58627906Y-23289880D01*
X58389811Y-23289880D01*
X58294573Y-23337500D01*
X58246954Y-23385119D01*
X58199335Y-23480357D01*
X58199335Y-23575595D01*
X58246954Y-23718452D01*
X58818382Y-24289880D01*
X58199335Y-24289880D01*
X57246954Y-24289880D02*
X57818382Y-24289880D01*
X57532668Y-24289880D02*
X57532668Y-23289880D01*
X57627906Y-23432738D01*
X57723144Y-23527976D01*
X57818382Y-23575595D01*
%TO.C,R17*%
X71614880Y-42694642D02*
X71138690Y-42361309D01*
X71614880Y-42123214D02*
X70614880Y-42123214D01*
X70614880Y-42504166D01*
X70662500Y-42599404D01*
X70710119Y-42647023D01*
X70805357Y-42694642D01*
X70948214Y-42694642D01*
X71043452Y-42647023D01*
X71091071Y-42599404D01*
X71138690Y-42504166D01*
X71138690Y-42123214D01*
X71614880Y-43647023D02*
X71614880Y-43075595D01*
X71614880Y-43361309D02*
X70614880Y-43361309D01*
X70757738Y-43266071D01*
X70852976Y-43170833D01*
X70900595Y-43075595D01*
X70614880Y-43980357D02*
X70614880Y-44647023D01*
X71614880Y-44218452D01*
%TO.C,R23*%
X67614880Y-43194642D02*
X67138690Y-42861309D01*
X67614880Y-42623214D02*
X66614880Y-42623214D01*
X66614880Y-43004166D01*
X66662500Y-43099404D01*
X66710119Y-43147023D01*
X66805357Y-43194642D01*
X66948214Y-43194642D01*
X67043452Y-43147023D01*
X67091071Y-43099404D01*
X67138690Y-43004166D01*
X67138690Y-42623214D01*
X66710119Y-43575595D02*
X66662500Y-43623214D01*
X66614880Y-43718452D01*
X66614880Y-43956547D01*
X66662500Y-44051785D01*
X66710119Y-44099404D01*
X66805357Y-44147023D01*
X66900595Y-44147023D01*
X67043452Y-44099404D01*
X67614880Y-43527976D01*
X67614880Y-44147023D01*
X66614880Y-44480357D02*
X66614880Y-45099404D01*
X66995833Y-44766071D01*
X66995833Y-44908928D01*
X67043452Y-45004166D01*
X67091071Y-45051785D01*
X67186309Y-45099404D01*
X67424404Y-45099404D01*
X67519642Y-45051785D01*
X67567261Y-45004166D01*
X67614880Y-44908928D01*
X67614880Y-44623214D01*
X67567261Y-44527976D01*
X67519642Y-44480357D01*
%TO.C,R15*%
X81642857Y-27452380D02*
X81976190Y-26976190D01*
X82214285Y-27452380D02*
X82214285Y-26452380D01*
X81833333Y-26452380D01*
X81738095Y-26500000D01*
X81690476Y-26547619D01*
X81642857Y-26642857D01*
X81642857Y-26785714D01*
X81690476Y-26880952D01*
X81738095Y-26928571D01*
X81833333Y-26976190D01*
X82214285Y-26976190D01*
X80690476Y-27452380D02*
X81261904Y-27452380D01*
X80976190Y-27452380D02*
X80976190Y-26452380D01*
X81071428Y-26595238D01*
X81166666Y-26690476D01*
X81261904Y-26738095D01*
X79785714Y-26452380D02*
X80261904Y-26452380D01*
X80309523Y-26928571D01*
X80261904Y-26880952D01*
X80166666Y-26833333D01*
X79928571Y-26833333D01*
X79833333Y-26880952D01*
X79785714Y-26928571D01*
X79738095Y-27023809D01*
X79738095Y-27261904D01*
X79785714Y-27357142D01*
X79833333Y-27404761D01*
X79928571Y-27452380D01*
X80166666Y-27452380D01*
X80261904Y-27404761D01*
X80309523Y-27357142D01*
%TO.C,R7*%
X78329166Y-21789880D02*
X78662500Y-21313690D01*
X78900595Y-21789880D02*
X78900595Y-20789880D01*
X78519642Y-20789880D01*
X78424404Y-20837500D01*
X78376785Y-20885119D01*
X78329166Y-20980357D01*
X78329166Y-21123214D01*
X78376785Y-21218452D01*
X78424404Y-21266071D01*
X78519642Y-21313690D01*
X78900595Y-21313690D01*
X77995833Y-20789880D02*
X77329166Y-20789880D01*
X77757738Y-21789880D01*
%TO.C,R24*%
X49182193Y-24256992D02*
X49515526Y-23780802D01*
X49753621Y-24256992D02*
X49753621Y-23256992D01*
X49372669Y-23256992D01*
X49277431Y-23304612D01*
X49229812Y-23352231D01*
X49182193Y-23447469D01*
X49182193Y-23590326D01*
X49229812Y-23685564D01*
X49277431Y-23733183D01*
X49372669Y-23780802D01*
X49753621Y-23780802D01*
X48801240Y-23352231D02*
X48753621Y-23304612D01*
X48658383Y-23256992D01*
X48420288Y-23256992D01*
X48325050Y-23304612D01*
X48277431Y-23352231D01*
X48229812Y-23447469D01*
X48229812Y-23542707D01*
X48277431Y-23685564D01*
X48848859Y-24256992D01*
X48229812Y-24256992D01*
X47372669Y-23590326D02*
X47372669Y-24256992D01*
X47610764Y-23209373D02*
X47848859Y-23923659D01*
X47229812Y-23923659D01*
%TO.C,R4*%
X59829166Y-54289880D02*
X60162500Y-53813690D01*
X60400595Y-54289880D02*
X60400595Y-53289880D01*
X60019642Y-53289880D01*
X59924404Y-53337500D01*
X59876785Y-53385119D01*
X59829166Y-53480357D01*
X59829166Y-53623214D01*
X59876785Y-53718452D01*
X59924404Y-53766071D01*
X60019642Y-53813690D01*
X60400595Y-53813690D01*
X58972023Y-53623214D02*
X58972023Y-54289880D01*
X59210119Y-53242261D02*
X59448214Y-53956547D01*
X58829166Y-53956547D01*
%TO.C,R31*%
X48614880Y-40194642D02*
X48138690Y-39861309D01*
X48614880Y-39623214D02*
X47614880Y-39623214D01*
X47614880Y-40004166D01*
X47662500Y-40099404D01*
X47710119Y-40147023D01*
X47805357Y-40194642D01*
X47948214Y-40194642D01*
X48043452Y-40147023D01*
X48091071Y-40099404D01*
X48138690Y-40004166D01*
X48138690Y-39623214D01*
X47614880Y-40527976D02*
X47614880Y-41147023D01*
X47995833Y-40813690D01*
X47995833Y-40956547D01*
X48043452Y-41051785D01*
X48091071Y-41099404D01*
X48186309Y-41147023D01*
X48424404Y-41147023D01*
X48519642Y-41099404D01*
X48567261Y-41051785D01*
X48614880Y-40956547D01*
X48614880Y-40670833D01*
X48567261Y-40575595D01*
X48519642Y-40527976D01*
X48614880Y-42099404D02*
X48614880Y-41527976D01*
X48614880Y-41813690D02*
X47614880Y-41813690D01*
X47757738Y-41718452D01*
X47852976Y-41623214D01*
X47900595Y-41527976D01*
%TO.C,C4*%
X48884311Y-28492441D02*
X48931930Y-28540060D01*
X49074787Y-28587679D01*
X49170025Y-28587679D01*
X49312883Y-28540060D01*
X49408121Y-28444822D01*
X49455740Y-28349584D01*
X49503359Y-28159108D01*
X49503359Y-28016251D01*
X49455740Y-27825775D01*
X49408121Y-27730537D01*
X49312883Y-27635299D01*
X49170025Y-27587679D01*
X49074787Y-27587679D01*
X48931930Y-27635299D01*
X48884311Y-27682918D01*
X48027168Y-27921013D02*
X48027168Y-28587679D01*
X48265264Y-27540060D02*
X48503359Y-28254346D01*
X47884311Y-28254346D01*
%TO.C,C18*%
X16519642Y-53194642D02*
X16567261Y-53147023D01*
X16614880Y-53004166D01*
X16614880Y-52908928D01*
X16567261Y-52766071D01*
X16472023Y-52670833D01*
X16376785Y-52623214D01*
X16186309Y-52575595D01*
X16043452Y-52575595D01*
X15852976Y-52623214D01*
X15757738Y-52670833D01*
X15662500Y-52766071D01*
X15614880Y-52908928D01*
X15614880Y-53004166D01*
X15662500Y-53147023D01*
X15710119Y-53194642D01*
X16614880Y-54147023D02*
X16614880Y-53575595D01*
X16614880Y-53861309D02*
X15614880Y-53861309D01*
X15757738Y-53766071D01*
X15852976Y-53670833D01*
X15900595Y-53575595D01*
X16043452Y-54718452D02*
X15995833Y-54623214D01*
X15948214Y-54575595D01*
X15852976Y-54527976D01*
X15805357Y-54527976D01*
X15710119Y-54575595D01*
X15662500Y-54623214D01*
X15614880Y-54718452D01*
X15614880Y-54908928D01*
X15662500Y-55004166D01*
X15710119Y-55051785D01*
X15805357Y-55099404D01*
X15852976Y-55099404D01*
X15948214Y-55051785D01*
X15995833Y-55004166D01*
X16043452Y-54908928D01*
X16043452Y-54718452D01*
X16091071Y-54623214D01*
X16138690Y-54575595D01*
X16233928Y-54527976D01*
X16424404Y-54527976D01*
X16519642Y-54575595D01*
X16567261Y-54623214D01*
X16614880Y-54718452D01*
X16614880Y-54908928D01*
X16567261Y-55004166D01*
X16519642Y-55051785D01*
X16424404Y-55099404D01*
X16233928Y-55099404D01*
X16138690Y-55051785D01*
X16091071Y-55004166D01*
X16043452Y-54908928D01*
D11*
%TO.C,Q1*%
X72283452Y-16695476D02*
X72404404Y-16635000D01*
X72525357Y-16514047D01*
X72706785Y-16332619D01*
X72827738Y-16272142D01*
X72948690Y-16272142D01*
X72888214Y-16574523D02*
X73009166Y-16514047D01*
X73130119Y-16393095D01*
X73190595Y-16151190D01*
X73190595Y-15727857D01*
X73130119Y-15485952D01*
X73009166Y-15365000D01*
X72888214Y-15304523D01*
X72646309Y-15304523D01*
X72525357Y-15365000D01*
X72404404Y-15485952D01*
X72343928Y-15727857D01*
X72343928Y-16151190D01*
X72404404Y-16393095D01*
X72525357Y-16514047D01*
X72646309Y-16574523D01*
X72888214Y-16574523D01*
X71134404Y-16574523D02*
X71860119Y-16574523D01*
X71497261Y-16574523D02*
X71497261Y-15304523D01*
X71618214Y-15485952D01*
X71739166Y-15606904D01*
X71860119Y-15667380D01*
D10*
%TO.C,U2*%
X43394314Y-39028189D02*
X43966734Y-38455769D01*
X44067749Y-38422097D01*
X44135093Y-38422097D01*
X44236108Y-38455769D01*
X44370795Y-38590456D01*
X44404467Y-38691471D01*
X44404467Y-38758815D01*
X44370795Y-38859830D01*
X43798375Y-39432250D01*
X44168765Y-39667952D02*
X44168765Y-39735295D01*
X44202436Y-39836311D01*
X44370795Y-40004669D01*
X44471810Y-40038341D01*
X44539154Y-40038341D01*
X44640169Y-40004669D01*
X44707513Y-39937326D01*
X44774856Y-39802639D01*
X44774856Y-38994517D01*
X45212589Y-39432250D01*
%TO.C,R8*%
X78829166Y-28959880D02*
X79162500Y-28483690D01*
X79400595Y-28959880D02*
X79400595Y-27959880D01*
X79019642Y-27959880D01*
X78924404Y-28007500D01*
X78876785Y-28055119D01*
X78829166Y-28150357D01*
X78829166Y-28293214D01*
X78876785Y-28388452D01*
X78924404Y-28436071D01*
X79019642Y-28483690D01*
X79400595Y-28483690D01*
X78257738Y-28388452D02*
X78352976Y-28340833D01*
X78400595Y-28293214D01*
X78448214Y-28197976D01*
X78448214Y-28150357D01*
X78400595Y-28055119D01*
X78352976Y-28007500D01*
X78257738Y-27959880D01*
X78067261Y-27959880D01*
X77972023Y-28007500D01*
X77924404Y-28055119D01*
X77876785Y-28150357D01*
X77876785Y-28197976D01*
X77924404Y-28293214D01*
X77972023Y-28340833D01*
X78067261Y-28388452D01*
X78257738Y-28388452D01*
X78352976Y-28436071D01*
X78400595Y-28483690D01*
X78448214Y-28578928D01*
X78448214Y-28769404D01*
X78400595Y-28864642D01*
X78352976Y-28912261D01*
X78257738Y-28959880D01*
X78067261Y-28959880D01*
X77972023Y-28912261D01*
X77924404Y-28864642D01*
X77876785Y-28769404D01*
X77876785Y-28578928D01*
X77924404Y-28483690D01*
X77972023Y-28436071D01*
X78067261Y-28388452D01*
D11*
%TO.C,Q3*%
X77283452Y-16695476D02*
X77404404Y-16635000D01*
X77525357Y-16514047D01*
X77706785Y-16332619D01*
X77827738Y-16272142D01*
X77948690Y-16272142D01*
X77888214Y-16574523D02*
X78009166Y-16514047D01*
X78130119Y-16393095D01*
X78190595Y-16151190D01*
X78190595Y-15727857D01*
X78130119Y-15485952D01*
X78009166Y-15365000D01*
X77888214Y-15304523D01*
X77646309Y-15304523D01*
X77525357Y-15365000D01*
X77404404Y-15485952D01*
X77343928Y-15727857D01*
X77343928Y-16151190D01*
X77404404Y-16393095D01*
X77525357Y-16514047D01*
X77646309Y-16574523D01*
X77888214Y-16574523D01*
X76920595Y-15304523D02*
X76134404Y-15304523D01*
X76557738Y-15788333D01*
X76376309Y-15788333D01*
X76255357Y-15848809D01*
X76194880Y-15909285D01*
X76134404Y-16030238D01*
X76134404Y-16332619D01*
X76194880Y-16453571D01*
X76255357Y-16514047D01*
X76376309Y-16574523D01*
X76739166Y-16574523D01*
X76860119Y-16514047D01*
X76920595Y-16453571D01*
D10*
%TO.C,R22*%
X62305357Y-24289880D02*
X62638690Y-23813690D01*
X62876785Y-24289880D02*
X62876785Y-23289880D01*
X62495833Y-23289880D01*
X62400595Y-23337500D01*
X62352976Y-23385119D01*
X62305357Y-23480357D01*
X62305357Y-23623214D01*
X62352976Y-23718452D01*
X62400595Y-23766071D01*
X62495833Y-23813690D01*
X62876785Y-23813690D01*
X61924404Y-23385119D02*
X61876785Y-23337500D01*
X61781547Y-23289880D01*
X61543452Y-23289880D01*
X61448214Y-23337500D01*
X61400595Y-23385119D01*
X61352976Y-23480357D01*
X61352976Y-23575595D01*
X61400595Y-23718452D01*
X61972023Y-24289880D01*
X61352976Y-24289880D01*
X60972023Y-23385119D02*
X60924404Y-23337500D01*
X60829166Y-23289880D01*
X60591071Y-23289880D01*
X60495833Y-23337500D01*
X60448214Y-23385119D01*
X60400595Y-23480357D01*
X60400595Y-23575595D01*
X60448214Y-23718452D01*
X61019642Y-24289880D01*
X60400595Y-24289880D01*
%TO.C,R32*%
X26370817Y-38801635D02*
X26704150Y-38325445D01*
X26942245Y-38801635D02*
X26942245Y-37801635D01*
X26561293Y-37801635D01*
X26466055Y-37849255D01*
X26418436Y-37896874D01*
X26370817Y-37992112D01*
X26370817Y-38134969D01*
X26418436Y-38230207D01*
X26466055Y-38277826D01*
X26561293Y-38325445D01*
X26942245Y-38325445D01*
X26037483Y-37801635D02*
X25418436Y-37801635D01*
X25751769Y-38182588D01*
X25608912Y-38182588D01*
X25513674Y-38230207D01*
X25466055Y-38277826D01*
X25418436Y-38373064D01*
X25418436Y-38611159D01*
X25466055Y-38706397D01*
X25513674Y-38754016D01*
X25608912Y-38801635D01*
X25894626Y-38801635D01*
X25989864Y-38754016D01*
X26037483Y-38706397D01*
X25037483Y-37896874D02*
X24989864Y-37849255D01*
X24894626Y-37801635D01*
X24656531Y-37801635D01*
X24561293Y-37849255D01*
X24513674Y-37896874D01*
X24466055Y-37992112D01*
X24466055Y-38087350D01*
X24513674Y-38230207D01*
X25085102Y-38801635D01*
X24466055Y-38801635D01*
%TO.C,Q9*%
X18257738Y-37385119D02*
X18352976Y-37337500D01*
X18448214Y-37242261D01*
X18591071Y-37099404D01*
X18686309Y-37051785D01*
X18781547Y-37051785D01*
X18733928Y-37289880D02*
X18829166Y-37242261D01*
X18924404Y-37147023D01*
X18972023Y-36956547D01*
X18972023Y-36623214D01*
X18924404Y-36432738D01*
X18829166Y-36337500D01*
X18733928Y-36289880D01*
X18543452Y-36289880D01*
X18448214Y-36337500D01*
X18352976Y-36432738D01*
X18305357Y-36623214D01*
X18305357Y-36956547D01*
X18352976Y-37147023D01*
X18448214Y-37242261D01*
X18543452Y-37289880D01*
X18733928Y-37289880D01*
X17829166Y-37289880D02*
X17638690Y-37289880D01*
X17543452Y-37242261D01*
X17495833Y-37194642D01*
X17400595Y-37051785D01*
X17352976Y-36861309D01*
X17352976Y-36480357D01*
X17400595Y-36385119D01*
X17448214Y-36337500D01*
X17543452Y-36289880D01*
X17733928Y-36289880D01*
X17829166Y-36337500D01*
X17876785Y-36385119D01*
X17924404Y-36480357D01*
X17924404Y-36718452D01*
X17876785Y-36813690D01*
X17829166Y-36861309D01*
X17733928Y-36908928D01*
X17543452Y-36908928D01*
X17448214Y-36861309D01*
X17400595Y-36813690D01*
X17352976Y-36718452D01*
%TO.C,C7*%
X69487467Y-31584396D02*
X69535086Y-31536777D01*
X69582705Y-31393920D01*
X69582705Y-31298682D01*
X69535086Y-31155824D01*
X69439848Y-31060586D01*
X69344610Y-31012967D01*
X69154134Y-30965348D01*
X69011277Y-30965348D01*
X68820801Y-31012967D01*
X68725563Y-31060586D01*
X68630325Y-31155824D01*
X68582705Y-31298682D01*
X68582705Y-31393920D01*
X68630325Y-31536777D01*
X68677944Y-31584396D01*
X68582705Y-31917729D02*
X68582705Y-32584396D01*
X69582705Y-32155824D01*
%TO.C,R2*%
X73329166Y-21952380D02*
X73662500Y-21476190D01*
X73900595Y-21952380D02*
X73900595Y-20952380D01*
X73519642Y-20952380D01*
X73424404Y-21000000D01*
X73376785Y-21047619D01*
X73329166Y-21142857D01*
X73329166Y-21285714D01*
X73376785Y-21380952D01*
X73424404Y-21428571D01*
X73519642Y-21476190D01*
X73900595Y-21476190D01*
X72948214Y-21047619D02*
X72900595Y-21000000D01*
X72805357Y-20952380D01*
X72567261Y-20952380D01*
X72472023Y-21000000D01*
X72424404Y-21047619D01*
X72376785Y-21142857D01*
X72376785Y-21238095D01*
X72424404Y-21380952D01*
X72995833Y-21952380D01*
X72376785Y-21952380D01*
%TO.C,R12*%
X47964493Y-56098381D02*
X48297826Y-55622191D01*
X48535921Y-56098381D02*
X48535921Y-55098381D01*
X48154969Y-55098381D01*
X48059731Y-55146001D01*
X48012112Y-55193620D01*
X47964493Y-55288858D01*
X47964493Y-55431715D01*
X48012112Y-55526953D01*
X48059731Y-55574572D01*
X48154969Y-55622191D01*
X48535921Y-55622191D01*
X47012112Y-56098381D02*
X47583540Y-56098381D01*
X47297826Y-56098381D02*
X47297826Y-55098381D01*
X47393064Y-55241239D01*
X47488302Y-55336477D01*
X47583540Y-55384096D01*
X46631159Y-55193620D02*
X46583540Y-55146001D01*
X46488302Y-55098381D01*
X46250207Y-55098381D01*
X46154969Y-55146001D01*
X46107350Y-55193620D01*
X46059731Y-55288858D01*
X46059731Y-55384096D01*
X46107350Y-55526953D01*
X46678778Y-56098381D01*
X46059731Y-56098381D01*
%TO.C,R3*%
X70829166Y-54289880D02*
X71162500Y-53813690D01*
X71400595Y-54289880D02*
X71400595Y-53289880D01*
X71019642Y-53289880D01*
X70924404Y-53337500D01*
X70876785Y-53385119D01*
X70829166Y-53480357D01*
X70829166Y-53623214D01*
X70876785Y-53718452D01*
X70924404Y-53766071D01*
X71019642Y-53813690D01*
X71400595Y-53813690D01*
X70495833Y-53289880D02*
X69876785Y-53289880D01*
X70210119Y-53670833D01*
X70067261Y-53670833D01*
X69972023Y-53718452D01*
X69924404Y-53766071D01*
X69876785Y-53861309D01*
X69876785Y-54099404D01*
X69924404Y-54194642D01*
X69972023Y-54242261D01*
X70067261Y-54289880D01*
X70352976Y-54289880D01*
X70448214Y-54242261D01*
X70495833Y-54194642D01*
%TO.C,R14*%
X47805357Y-58619880D02*
X48138690Y-58143690D01*
X48376785Y-58619880D02*
X48376785Y-57619880D01*
X47995833Y-57619880D01*
X47900595Y-57667500D01*
X47852976Y-57715119D01*
X47805357Y-57810357D01*
X47805357Y-57953214D01*
X47852976Y-58048452D01*
X47900595Y-58096071D01*
X47995833Y-58143690D01*
X48376785Y-58143690D01*
X46852976Y-58619880D02*
X47424404Y-58619880D01*
X47138690Y-58619880D02*
X47138690Y-57619880D01*
X47233928Y-57762738D01*
X47329166Y-57857976D01*
X47424404Y-57905595D01*
X45995833Y-57953214D02*
X45995833Y-58619880D01*
X46233928Y-57572261D02*
X46472023Y-58286547D01*
X45852976Y-58286547D01*
D12*
%TO.C,Q2*%
X77227465Y-23438230D02*
X77877465Y-23438230D01*
X77227465Y-26558230D02*
X75552465Y-26558230D01*
X77227465Y-23438230D02*
X76577465Y-23438230D01*
X77227465Y-26558230D02*
X77877465Y-26558230D01*
%TO.C,C19*%
X44554664Y-24477500D02*
X44770336Y-24477500D01*
X44554664Y-25197500D02*
X44770336Y-25197500D01*
%TO.C,R11*%
X40816141Y-51957500D02*
X40508859Y-51957500D01*
X40816141Y-52717500D02*
X40508859Y-52717500D01*
%TO.C,Q8*%
X50102500Y-21837500D02*
X50102500Y-22487500D01*
X50102500Y-21837500D02*
X50102500Y-21187500D01*
X53222500Y-21837500D02*
X53222500Y-23512500D01*
X53222500Y-21837500D02*
X53222500Y-21187500D01*
%TO.C,R19*%
X50564004Y-27515299D02*
X50871286Y-27515299D01*
X50564004Y-26755299D02*
X50871286Y-26755299D01*
%TO.C,C10*%
X71522500Y-38729664D02*
X71522500Y-38945336D01*
X70802500Y-38729664D02*
X70802500Y-38945336D01*
%TO.C,R9*%
X40816141Y-58717500D02*
X40508859Y-58717500D01*
X40816141Y-57957500D02*
X40508859Y-57957500D01*
%TO.C,D6*%
X70912500Y-37337500D02*
X74812500Y-37337500D01*
X70912500Y-35337500D02*
X74812500Y-35337500D01*
X70912500Y-37337500D02*
X70912500Y-35337500D01*
%TO.C,R5*%
X61508859Y-53457500D02*
X61816141Y-53457500D01*
X61508859Y-54217500D02*
X61816141Y-54217500D01*
%TO.C,Q7*%
X64612500Y-42987500D02*
X64612500Y-41937500D01*
X62212500Y-42987500D02*
X64612500Y-42987500D01*
X62812500Y-39687500D02*
X64612500Y-39687500D01*
X64612500Y-39687500D02*
X64612500Y-40737500D01*
%TO.C,Q5*%
X54102500Y-21837500D02*
X54102500Y-22487500D01*
X54102500Y-21837500D02*
X54102500Y-21187500D01*
X57222500Y-21837500D02*
X57222500Y-21187500D01*
X57222500Y-21837500D02*
X57222500Y-23512500D01*
%TO.C,R29*%
X50564004Y-29515299D02*
X50871286Y-29515299D01*
X50564004Y-28755299D02*
X50871286Y-28755299D01*
%TO.C,R35*%
X17282500Y-51183859D02*
X17282500Y-51491141D01*
X18042500Y-51183859D02*
X18042500Y-51491141D01*
%TO.C,Q6*%
X63162500Y-46897500D02*
X63812500Y-46897500D01*
X63162500Y-43777500D02*
X63812500Y-43777500D01*
X63162500Y-43777500D02*
X62512500Y-43777500D01*
X63162500Y-46897500D02*
X61487500Y-46897500D01*
%TO.C,R33*%
X22508859Y-36717500D02*
X22816141Y-36717500D01*
X22508859Y-35957500D02*
X22816141Y-35957500D01*
%TO.C,R34*%
X25042500Y-48683859D02*
X25042500Y-48991141D01*
X24282500Y-48683859D02*
X24282500Y-48991141D01*
%TO.C,C16*%
X33302500Y-43229664D02*
X33302500Y-43445336D01*
X34022500Y-43229664D02*
X34022500Y-43445336D01*
%TO.C,R1*%
X72508859Y-53457500D02*
X72816141Y-53457500D01*
X72508859Y-54217500D02*
X72816141Y-54217500D01*
%TO.C,R10*%
X40816141Y-54957500D02*
X40508859Y-54957500D01*
X40816141Y-55717500D02*
X40508859Y-55717500D01*
%TO.C,R28*%
X58508859Y-20957500D02*
X58816141Y-20957500D01*
X58508859Y-21717500D02*
X58816141Y-21717500D01*
%TO.C,U3*%
X20722500Y-45337500D02*
X20722500Y-43387500D01*
X20722500Y-45337500D02*
X20722500Y-47287500D01*
X15602500Y-45337500D02*
X15602500Y-41887500D01*
X15602500Y-45337500D02*
X15602500Y-47287500D01*
%TO.C,C17*%
X47022500Y-43445336D02*
X47022500Y-43229664D01*
X46302500Y-43445336D02*
X46302500Y-43229664D01*
%TO.C,R27*%
X28282500Y-48173860D02*
X28282500Y-48481142D01*
X29042500Y-48173860D02*
X29042500Y-48481142D01*
%TO.C,Q4*%
X65112500Y-35687500D02*
X62712500Y-35687500D01*
X64512500Y-38987500D02*
X62712500Y-38987500D01*
X62712500Y-38987500D02*
X62712500Y-37937500D01*
X62712500Y-35687500D02*
X62712500Y-36737500D01*
%TO.C,R30*%
X48346359Y-20217500D02*
X48653641Y-20217500D01*
X48346359Y-19457500D02*
X48653641Y-19457500D01*
%TO.C,R36*%
X18782500Y-51491141D02*
X18782500Y-51183859D01*
X19542500Y-51491141D02*
X19542500Y-51183859D01*
%TO.C,R20*%
X67542500Y-37491141D02*
X67542500Y-37183859D01*
X66782500Y-37491141D02*
X66782500Y-37183859D01*
%TO.C,D2*%
X81662500Y-25087500D02*
X79662500Y-25087500D01*
X79662500Y-25087500D02*
X79662500Y-21187500D01*
X81662500Y-25087500D02*
X81662500Y-21187500D01*
%TO.C,C2*%
X75172500Y-18471920D02*
X75172500Y-18753080D01*
X74152500Y-18471920D02*
X74152500Y-18753080D01*
%TO.C,R6*%
X76073824Y-22118230D02*
X76381106Y-22118230D01*
X76073824Y-22878230D02*
X76381106Y-22878230D01*
%TO.C,C14*%
X45054664Y-46977500D02*
X45270336Y-46977500D01*
X45054664Y-47697500D02*
X45270336Y-47697500D01*
%TO.C,R21*%
X58816141Y-22457500D02*
X58508859Y-22457500D01*
X58816141Y-23217500D02*
X58508859Y-23217500D01*
%TO.C,R17*%
X71542500Y-40683859D02*
X71542500Y-40991141D01*
X70782500Y-40683859D02*
X70782500Y-40991141D01*
%TO.C,R23*%
X67542500Y-41183859D02*
X67542500Y-41491141D01*
X66782500Y-41183859D02*
X66782500Y-41491141D01*
%TO.C,R15*%
X80508859Y-26217500D02*
X80816141Y-26217500D01*
X80508859Y-25457500D02*
X80816141Y-25457500D01*
%TO.C,R7*%
X78073824Y-22878230D02*
X78381106Y-22878230D01*
X78073824Y-22118230D02*
X78381106Y-22118230D01*
%TO.C,R24*%
X48385695Y-22254612D02*
X48692977Y-22254612D01*
X48385695Y-23014612D02*
X48692977Y-23014612D01*
%TO.C,R4*%
X57498860Y-53457500D02*
X57806142Y-53457500D01*
X57498860Y-54217500D02*
X57806142Y-54217500D01*
%TO.C,R31*%
X47782500Y-43183859D02*
X47782500Y-43491141D01*
X48542500Y-43183859D02*
X48542500Y-43491141D01*
%TO.C,C4*%
X50825481Y-28495299D02*
X50609809Y-28495299D01*
X50825481Y-27775299D02*
X50609809Y-27775299D01*
%TO.C,C18*%
X15802500Y-51229664D02*
X15802500Y-51445336D01*
X16522500Y-51229664D02*
X16522500Y-51445336D01*
D13*
%TO.C,Q1*%
X70712500Y-18087500D02*
X70712500Y-19587500D01*
X73612500Y-19587500D02*
X73612500Y-18087500D01*
X70712500Y-19587500D02*
X73612500Y-19587500D01*
X70652500Y-17162500D02*
X70652500Y-17737500D01*
X73612500Y-18087500D02*
X70712500Y-18087500D01*
D12*
%TO.C,U2*%
X40374632Y-38444321D02*
X40162500Y-38232189D01*
X45055679Y-43549632D02*
X45985524Y-44479477D01*
X40162500Y-38232189D02*
X39950368Y-38444321D01*
X45267811Y-43337500D02*
X45055679Y-43549632D01*
X39950368Y-48230679D02*
X40162500Y-48442811D01*
X35269321Y-43549632D02*
X35057189Y-43337500D01*
X40162500Y-48442811D02*
X40374632Y-48230679D01*
X45055679Y-43125368D02*
X45267811Y-43337500D01*
X35057189Y-43337500D02*
X35269321Y-43125368D01*
%TO.C,R8*%
X78508859Y-27717500D02*
X78816141Y-27717500D01*
X78508859Y-26957500D02*
X78816141Y-26957500D01*
D13*
%TO.C,Q3*%
X78612500Y-19587500D02*
X78612500Y-18087500D01*
X75712500Y-19587500D02*
X78612500Y-19587500D01*
X78672500Y-20512500D02*
X78672500Y-19937500D01*
X75712500Y-18087500D02*
X75712500Y-19587500D01*
X78612500Y-18087500D02*
X75712500Y-18087500D01*
D12*
%TO.C,R22*%
X61816141Y-22457500D02*
X61508859Y-22457500D01*
X61816141Y-23217500D02*
X61508859Y-23217500D01*
%TO.C,R32*%
X22425242Y-37815000D02*
X22899758Y-37815000D01*
X22425242Y-38860000D02*
X22899758Y-38860000D01*
%TO.C,Q9*%
X19612500Y-37687500D02*
X17212500Y-37687500D01*
X19012500Y-40987500D02*
X17212500Y-40987500D01*
X17212500Y-37687500D02*
X17212500Y-38737500D01*
X17212500Y-40987500D02*
X17212500Y-39937500D01*
%TO.C,C7*%
X68427500Y-34598752D02*
X68427500Y-34076248D01*
X69897500Y-34598752D02*
X69897500Y-34076248D01*
%TO.C,R2*%
X75042500Y-21491141D02*
X75042500Y-21183859D01*
X74282500Y-21491141D02*
X74282500Y-21183859D01*
%TO.C,R12*%
X47316141Y-56457500D02*
X47008859Y-56457500D01*
X47316141Y-57217500D02*
X47008859Y-57217500D01*
%TO.C,R3*%
X68508859Y-53457500D02*
X68816141Y-53457500D01*
X68508859Y-54217500D02*
X68816141Y-54217500D01*
%TO.C,R14*%
X47316141Y-58957500D02*
X47008859Y-58957500D01*
X47316141Y-59717500D02*
X47008859Y-59717500D01*
%TD*%
%LPC*%
D14*
%TO.C,REF\u002A\u002A*%
X17662500Y-58837500D03*
%TD*%
%TO.C,REF\u002A\u002A*%
X83662500Y-17837500D03*
%TD*%
%TO.C,REF\u002A\u002A*%
X17662500Y-17837500D03*
%TD*%
D15*
%TO.C,C13*%
X50717645Y-30635299D03*
X50717645Y-25635299D03*
%TD*%
D16*
%TO.C,J5*%
X22312500Y-40837500D03*
D17*
X22312500Y-43337500D03*
X22312500Y-45837500D03*
X22312500Y-48337500D03*
X22312500Y-50837500D03*
%TD*%
D18*
%TO.C,JP1*%
X22662500Y-55837500D03*
D19*
X22662500Y-58377500D03*
%TD*%
D14*
%TO.C,REF\u002A\u002A*%
X83662500Y-58837500D03*
%TD*%
D20*
%TO.C,U1*%
X69285500Y-37297500D03*
D21*
X69285500Y-39837500D03*
X69285500Y-42377500D03*
%TD*%
D22*
%TO.C,J6*%
X79012500Y-50837500D03*
D17*
X79012500Y-48337500D03*
X79012500Y-45837500D03*
X79012500Y-43337500D03*
X79012500Y-40837500D03*
%TD*%
D23*
%TO.C,J1*%
X18337500Y-35337500D03*
X18337500Y-24337500D03*
D24*
X28337500Y-27337500D03*
D25*
X28337500Y-32337500D03*
%TD*%
D26*
%TO.C,SW5*%
X73662500Y-48917500D03*
X73662500Y-38757500D03*
D27*
X73662500Y-41297500D03*
D26*
X73662500Y-43837500D03*
X73662500Y-46377500D03*
%TD*%
D28*
%TO.C,J4*%
X45662500Y-22487500D03*
D29*
X43162500Y-22487500D03*
X40662500Y-22487500D03*
X38162500Y-22487500D03*
X35662500Y-22487500D03*
%TD*%
D30*
%TO.C,PA1*%
X68122500Y-51837500D03*
D21*
X70662500Y-51837500D03*
X73202500Y-51837500D03*
%TD*%
D30*
%TO.C,PA6*%
X57122500Y-51837500D03*
D21*
X59662500Y-51837500D03*
X62202500Y-51837500D03*
%TD*%
D31*
%TO.C,J3*%
X54582500Y-28837500D03*
D26*
X54582500Y-26297500D03*
X57122500Y-28837500D03*
X57122500Y-26297500D03*
X59662500Y-28837500D03*
X59662500Y-26297500D03*
X62202500Y-28837500D03*
X62202500Y-26297500D03*
X64742500Y-28837500D03*
X64742500Y-26297500D03*
%TD*%
D23*
%TO.C,J2*%
X82987500Y-35337500D03*
X82987500Y-24337500D03*
D24*
X72987500Y-32337500D03*
D25*
X72987500Y-27337500D03*
%TD*%
D32*
%TO.C,PA7 PB0*%
X44862500Y-56562500D03*
D33*
X44862500Y-59102500D03*
X52482500Y-59102500D03*
X52482500Y-56562500D03*
%TD*%
D34*
%TO.C,Q2*%
X76289965Y-25948230D03*
X76289965Y-24048230D03*
X78164965Y-24998230D03*
%TD*%
D35*
%TO.C,C19*%
X44182500Y-24837500D03*
X45142500Y-24837500D03*
%TD*%
D36*
%TO.C,R11*%
X41172500Y-52337500D03*
X40152500Y-52337500D03*
%TD*%
D37*
%TO.C,Q8*%
X52612500Y-22775000D03*
X50712500Y-22775000D03*
X51662500Y-20900000D03*
%TD*%
D38*
%TO.C,R19*%
X50207645Y-27135299D03*
X51227645Y-27135299D03*
%TD*%
D39*
%TO.C,C10*%
X71162500Y-38357500D03*
X71162500Y-39317500D03*
%TD*%
D36*
%TO.C,R9*%
X41172500Y-58337500D03*
X40152500Y-58337500D03*
%TD*%
D40*
%TO.C,D6*%
X71512500Y-36337500D03*
X74812500Y-36337500D03*
%TD*%
D38*
%TO.C,R5*%
X61152500Y-53837500D03*
X62172500Y-53837500D03*
%TD*%
D41*
%TO.C,Q7*%
X62012500Y-42287500D03*
X62012500Y-40387500D03*
X65312500Y-41337500D03*
%TD*%
D37*
%TO.C,Q5*%
X56612500Y-22775000D03*
X54712500Y-22775000D03*
X55662500Y-20900000D03*
%TD*%
D38*
%TO.C,R29*%
X50207645Y-29135299D03*
X51227645Y-29135299D03*
%TD*%
D42*
%TO.C,R35*%
X17662500Y-50827500D03*
X17662500Y-51847500D03*
%TD*%
D34*
%TO.C,Q6*%
X62225000Y-46287500D03*
X62225000Y-44387500D03*
X64100000Y-45337500D03*
%TD*%
D38*
%TO.C,R33*%
X22152500Y-36337500D03*
X23172500Y-36337500D03*
%TD*%
D42*
%TO.C,R34*%
X24662500Y-48327500D03*
X24662500Y-49347500D03*
%TD*%
D39*
%TO.C,C16*%
X33662500Y-42857500D03*
X33662500Y-43817500D03*
%TD*%
D38*
%TO.C,R1*%
X72152500Y-53837500D03*
X73172500Y-53837500D03*
%TD*%
D36*
%TO.C,R10*%
X41172500Y-55337500D03*
X40152500Y-55337500D03*
%TD*%
D38*
%TO.C,R28*%
X58152500Y-21337500D03*
X59172500Y-21337500D03*
%TD*%
D43*
%TO.C,U3*%
X16257500Y-42712500D03*
X17527500Y-42712500D03*
X18797500Y-42712500D03*
X20067500Y-42712500D03*
X20067500Y-47962500D03*
X18797500Y-47962500D03*
X17527500Y-47962500D03*
X16257500Y-47962500D03*
%TD*%
D44*
%TO.C,C17*%
X46662500Y-43817500D03*
X46662500Y-42857500D03*
%TD*%
D42*
%TO.C,R27*%
X28662500Y-47817501D03*
X28662500Y-48837501D03*
%TD*%
D41*
%TO.C,Q4*%
X65312500Y-36387500D03*
X65312500Y-38287500D03*
X62012500Y-37337500D03*
%TD*%
D38*
%TO.C,R30*%
X47990000Y-19837500D03*
X49010000Y-19837500D03*
%TD*%
D45*
%TO.C,R36*%
X19162500Y-51847500D03*
X19162500Y-50827500D03*
%TD*%
%TO.C,R20*%
X67162500Y-37847500D03*
X67162500Y-36827500D03*
%TD*%
D46*
%TO.C,D2*%
X80662500Y-24487500D03*
X80662500Y-21187500D03*
%TD*%
D47*
%TO.C,C2*%
X74662500Y-17837500D03*
X74662500Y-19387500D03*
%TD*%
D38*
%TO.C,R6*%
X75717465Y-22498230D03*
X76737465Y-22498230D03*
%TD*%
D35*
%TO.C,C14*%
X44682500Y-47337500D03*
X45642500Y-47337500D03*
%TD*%
D36*
%TO.C,R21*%
X59172500Y-22837500D03*
X58152500Y-22837500D03*
%TD*%
D42*
%TO.C,R17*%
X71162500Y-40327500D03*
X71162500Y-41347500D03*
%TD*%
%TO.C,R23*%
X67162500Y-40827500D03*
X67162500Y-41847500D03*
%TD*%
D38*
%TO.C,R15*%
X80152500Y-25837500D03*
X81172500Y-25837500D03*
%TD*%
%TO.C,R7*%
X77717465Y-22498230D03*
X78737465Y-22498230D03*
%TD*%
%TO.C,R24*%
X48029336Y-22634612D03*
X49049336Y-22634612D03*
%TD*%
%TO.C,R4*%
X57142501Y-53837500D03*
X58162501Y-53837500D03*
%TD*%
D42*
%TO.C,R31*%
X48162500Y-42827500D03*
X48162500Y-43847500D03*
%TD*%
D48*
%TO.C,C4*%
X51197645Y-28135299D03*
X50237645Y-28135299D03*
%TD*%
D39*
%TO.C,C18*%
X16162500Y-50857500D03*
X16162500Y-51817500D03*
%TD*%
D49*
%TO.C,Q1*%
X71212500Y-17449500D03*
X72162500Y-17449500D03*
X73112500Y-17449500D03*
X73112500Y-20225500D03*
X72162500Y-20225500D03*
X71212500Y-20225500D03*
%TD*%
D50*
%TO.C,U2*%
X45094570Y-44309772D03*
X44528884Y-44875457D03*
X43963199Y-45441143D03*
X43397514Y-46006828D03*
X42831828Y-46572514D03*
X42266143Y-47138199D03*
X41700457Y-47703884D03*
X41134772Y-48269570D03*
D51*
X39190228Y-48269570D03*
X38624543Y-47703884D03*
X38058857Y-47138199D03*
X37493172Y-46572514D03*
X36927486Y-46006828D03*
X36361801Y-45441143D03*
X35796116Y-44875457D03*
X35230430Y-44309772D03*
D50*
X35230430Y-42365228D03*
X35796116Y-41799543D03*
X36361801Y-41233857D03*
X36927486Y-40668172D03*
X37493172Y-40102486D03*
X38058857Y-39536801D03*
X38624543Y-38971116D03*
X39190228Y-38405430D03*
D51*
X41134772Y-38405430D03*
X41700457Y-38971116D03*
X42266143Y-39536801D03*
X42831828Y-40102486D03*
X43397514Y-40668172D03*
X43963199Y-41233857D03*
X44528884Y-41799543D03*
X45094570Y-42365228D03*
%TD*%
D38*
%TO.C,R8*%
X78152500Y-27337500D03*
X79172500Y-27337500D03*
%TD*%
D49*
%TO.C,Q3*%
X78112500Y-20225500D03*
X77162500Y-20225500D03*
X76212500Y-20225500D03*
X76212500Y-17449500D03*
X77162500Y-17449500D03*
X78112500Y-17449500D03*
%TD*%
D36*
%TO.C,R22*%
X62172500Y-22837500D03*
X61152500Y-22837500D03*
%TD*%
D52*
%TO.C,R32*%
X21837500Y-38337500D03*
X23487500Y-38337500D03*
%TD*%
D41*
%TO.C,Q9*%
X19812500Y-38387500D03*
X19812500Y-40287500D03*
X16512500Y-39337500D03*
%TD*%
D53*
%TO.C,C7*%
X69162500Y-35287500D03*
X69162500Y-33387500D03*
%TD*%
D45*
%TO.C,R2*%
X74662500Y-21847500D03*
X74662500Y-20827500D03*
%TD*%
D36*
%TO.C,R12*%
X47672500Y-56837500D03*
X46652500Y-56837500D03*
%TD*%
D38*
%TO.C,R3*%
X68152500Y-53837500D03*
X69172500Y-53837500D03*
%TD*%
D36*
%TO.C,R14*%
X47672500Y-59337500D03*
X46652500Y-59337500D03*
%TD*%
M02*
