%TF.GenerationSoftware,KiCad,Pcbnew,(6.0.7)*%
%TF.CreationDate,2023-12-12T10:26:36+09:00*%
%TF.ProjectId,Odometry,4f646f6d-6574-4727-992e-6b696361645f,rev?*%
%TF.SameCoordinates,Original*%
%TF.FileFunction,Paste,Bot*%
%TF.FilePolarity,Positive*%
%FSLAX46Y46*%
G04 Gerber Fmt 4.6, Leading zero omitted, Abs format (unit mm)*
G04 Created by KiCad (PCBNEW (6.0.7)) date 2023-12-12 10:26:36*
%MOMM*%
%LPD*%
G01*
G04 APERTURE LIST*
G04 Aperture macros list*
%AMRoundRect*
0 Rectangle with rounded corners*
0 $1 Rounding radius*
0 $2 $3 $4 $5 $6 $7 $8 $9 X,Y pos of 4 corners*
0 Add a 4 corners polygon primitive as box body*
4,1,4,$2,$3,$4,$5,$6,$7,$8,$9,$2,$3,0*
0 Add four circle primitives for the rounded corners*
1,1,$1+$1,$2,$3*
1,1,$1+$1,$4,$5*
1,1,$1+$1,$6,$7*
1,1,$1+$1,$8,$9*
0 Add four rect primitives between the rounded corners*
20,1,$1+$1,$2,$3,$4,$5,0*
20,1,$1+$1,$4,$5,$6,$7,0*
20,1,$1+$1,$6,$7,$8,$9,0*
20,1,$1+$1,$8,$9,$2,$3,0*%
G04 Aperture macros list end*
%ADD10RoundRect,0.150000X-0.587500X-0.150000X0.587500X-0.150000X0.587500X0.150000X-0.587500X0.150000X0*%
%ADD11RoundRect,0.140000X-0.140000X-0.170000X0.140000X-0.170000X0.140000X0.170000X-0.140000X0.170000X0*%
%ADD12RoundRect,0.135000X0.135000X0.185000X-0.135000X0.185000X-0.135000X-0.185000X0.135000X-0.185000X0*%
%ADD13RoundRect,0.150000X0.150000X-0.587500X0.150000X0.587500X-0.150000X0.587500X-0.150000X-0.587500X0*%
%ADD14RoundRect,0.135000X-0.135000X-0.185000X0.135000X-0.185000X0.135000X0.185000X-0.135000X0.185000X0*%
%ADD15RoundRect,0.140000X-0.170000X0.140000X-0.170000X-0.140000X0.170000X-0.140000X0.170000X0.140000X0*%
%ADD16R,0.900000X1.200000*%
%ADD17R,1.800000X0.800000*%
%ADD18RoundRect,0.135000X-0.185000X0.135000X-0.185000X-0.135000X0.185000X-0.135000X0.185000X0.135000X0*%
%ADD19RoundRect,0.150000X-0.150000X0.675000X-0.150000X-0.675000X0.150000X-0.675000X0.150000X0.675000X0*%
%ADD20RoundRect,0.140000X0.170000X-0.140000X0.170000X0.140000X-0.170000X0.140000X-0.170000X-0.140000X0*%
%ADD21RoundRect,0.135000X0.185000X-0.135000X0.185000X0.135000X-0.185000X0.135000X-0.185000X-0.135000X0*%
%ADD22R,1.200000X0.900000*%
%ADD23RoundRect,0.225000X-0.250000X0.225000X-0.250000X-0.225000X0.250000X-0.225000X0.250000X0.225000X0*%
%ADD24RoundRect,0.140000X0.140000X0.170000X-0.140000X0.170000X-0.140000X-0.170000X0.140000X-0.170000X0*%
%ADD25R,0.620000X0.575000*%
%ADD26RoundRect,0.125000X0.530330X-0.353553X-0.353553X0.530330X-0.530330X0.353553X0.353553X-0.530330X0*%
%ADD27RoundRect,0.125000X0.530330X0.353553X0.353553X0.530330X-0.530330X-0.353553X-0.353553X-0.530330X0*%
%ADD28RoundRect,0.200000X-0.200000X-0.275000X0.200000X-0.275000X0.200000X0.275000X-0.200000X0.275000X0*%
%ADD29RoundRect,0.250000X0.475000X-0.250000X0.475000X0.250000X-0.475000X0.250000X-0.475000X-0.250000X0*%
G04 APERTURE END LIST*
D10*
%TO.C,Q2*%
X76289965Y-25948230D03*
X76289965Y-24048230D03*
X78164965Y-24998230D03*
%TD*%
D11*
%TO.C,C19*%
X44182500Y-24837500D03*
X45142500Y-24837500D03*
%TD*%
D12*
%TO.C,R11*%
X41172500Y-52337500D03*
X40152500Y-52337500D03*
%TD*%
D13*
%TO.C,Q8*%
X52612500Y-22775000D03*
X50712500Y-22775000D03*
X51662500Y-20900000D03*
%TD*%
D14*
%TO.C,R19*%
X50207645Y-27135299D03*
X51227645Y-27135299D03*
%TD*%
D15*
%TO.C,C10*%
X71162500Y-38357500D03*
X71162500Y-39317500D03*
%TD*%
D12*
%TO.C,R9*%
X41172500Y-58337500D03*
X40152500Y-58337500D03*
%TD*%
D16*
%TO.C,D6*%
X71512500Y-36337500D03*
X74812500Y-36337500D03*
%TD*%
D14*
%TO.C,R5*%
X61152500Y-53837500D03*
X62172500Y-53837500D03*
%TD*%
D17*
%TO.C,Q7*%
X62012500Y-42287500D03*
X62012500Y-40387500D03*
X65312500Y-41337500D03*
%TD*%
D13*
%TO.C,Q5*%
X56612500Y-22775000D03*
X54712500Y-22775000D03*
X55662500Y-20900000D03*
%TD*%
D14*
%TO.C,R29*%
X50207645Y-29135299D03*
X51227645Y-29135299D03*
%TD*%
D18*
%TO.C,R35*%
X17662500Y-50827500D03*
X17662500Y-51847500D03*
%TD*%
D10*
%TO.C,Q6*%
X62225000Y-46287500D03*
X62225000Y-44387500D03*
X64100000Y-45337500D03*
%TD*%
D14*
%TO.C,R33*%
X22152500Y-36337500D03*
X23172500Y-36337500D03*
%TD*%
D18*
%TO.C,R34*%
X24662500Y-48327500D03*
X24662500Y-49347500D03*
%TD*%
D15*
%TO.C,C16*%
X33662500Y-42857500D03*
X33662500Y-43817500D03*
%TD*%
D14*
%TO.C,R1*%
X72152500Y-53837500D03*
X73172500Y-53837500D03*
%TD*%
D12*
%TO.C,R10*%
X41172500Y-55337500D03*
X40152500Y-55337500D03*
%TD*%
D14*
%TO.C,R28*%
X58152500Y-21337500D03*
X59172500Y-21337500D03*
%TD*%
D19*
%TO.C,U3*%
X16257500Y-42712500D03*
X17527500Y-42712500D03*
X18797500Y-42712500D03*
X20067500Y-42712500D03*
X20067500Y-47962500D03*
X18797500Y-47962500D03*
X17527500Y-47962500D03*
X16257500Y-47962500D03*
%TD*%
D20*
%TO.C,C17*%
X46662500Y-43817500D03*
X46662500Y-42857500D03*
%TD*%
D18*
%TO.C,R27*%
X28662500Y-47817501D03*
X28662500Y-48837501D03*
%TD*%
D17*
%TO.C,Q4*%
X65312500Y-36387500D03*
X65312500Y-38287500D03*
X62012500Y-37337500D03*
%TD*%
D14*
%TO.C,R30*%
X47990000Y-19837500D03*
X49010000Y-19837500D03*
%TD*%
D21*
%TO.C,R36*%
X19162500Y-51847500D03*
X19162500Y-50827500D03*
%TD*%
%TO.C,R20*%
X67162500Y-37847500D03*
X67162500Y-36827500D03*
%TD*%
D22*
%TO.C,D2*%
X80662500Y-24487500D03*
X80662500Y-21187500D03*
%TD*%
D23*
%TO.C,C2*%
X74662500Y-17837500D03*
X74662500Y-19387500D03*
%TD*%
D14*
%TO.C,R6*%
X75717465Y-22498230D03*
X76737465Y-22498230D03*
%TD*%
D11*
%TO.C,C14*%
X44682500Y-47337500D03*
X45642500Y-47337500D03*
%TD*%
D12*
%TO.C,R21*%
X59172500Y-22837500D03*
X58152500Y-22837500D03*
%TD*%
D18*
%TO.C,R17*%
X71162500Y-40327500D03*
X71162500Y-41347500D03*
%TD*%
%TO.C,R23*%
X67162500Y-40827500D03*
X67162500Y-41847500D03*
%TD*%
D14*
%TO.C,R15*%
X80152500Y-25837500D03*
X81172500Y-25837500D03*
%TD*%
%TO.C,R7*%
X77717465Y-22498230D03*
X78737465Y-22498230D03*
%TD*%
%TO.C,R24*%
X48029336Y-22634612D03*
X49049336Y-22634612D03*
%TD*%
%TO.C,R4*%
X57142501Y-53837500D03*
X58162501Y-53837500D03*
%TD*%
D18*
%TO.C,R31*%
X48162500Y-42827500D03*
X48162500Y-43847500D03*
%TD*%
D24*
%TO.C,C4*%
X51197645Y-28135299D03*
X50237645Y-28135299D03*
%TD*%
D15*
%TO.C,C18*%
X16162500Y-50857500D03*
X16162500Y-51817500D03*
%TD*%
D25*
%TO.C,Q1*%
X71212500Y-17449500D03*
X72162500Y-17449500D03*
X73112500Y-17449500D03*
X73112500Y-20225500D03*
X72162500Y-20225500D03*
X71212500Y-20225500D03*
%TD*%
D26*
%TO.C,U2*%
X45094570Y-44309772D03*
X44528884Y-44875457D03*
X43963199Y-45441143D03*
X43397514Y-46006828D03*
X42831828Y-46572514D03*
X42266143Y-47138199D03*
X41700457Y-47703884D03*
X41134772Y-48269570D03*
D27*
X39190228Y-48269570D03*
X38624543Y-47703884D03*
X38058857Y-47138199D03*
X37493172Y-46572514D03*
X36927486Y-46006828D03*
X36361801Y-45441143D03*
X35796116Y-44875457D03*
X35230430Y-44309772D03*
D26*
X35230430Y-42365228D03*
X35796116Y-41799543D03*
X36361801Y-41233857D03*
X36927486Y-40668172D03*
X37493172Y-40102486D03*
X38058857Y-39536801D03*
X38624543Y-38971116D03*
X39190228Y-38405430D03*
D27*
X41134772Y-38405430D03*
X41700457Y-38971116D03*
X42266143Y-39536801D03*
X42831828Y-40102486D03*
X43397514Y-40668172D03*
X43963199Y-41233857D03*
X44528884Y-41799543D03*
X45094570Y-42365228D03*
%TD*%
D14*
%TO.C,R8*%
X78152500Y-27337500D03*
X79172500Y-27337500D03*
%TD*%
D25*
%TO.C,Q3*%
X78112500Y-20225500D03*
X77162500Y-20225500D03*
X76212500Y-20225500D03*
X76212500Y-17449500D03*
X77162500Y-17449500D03*
X78112500Y-17449500D03*
%TD*%
D12*
%TO.C,R22*%
X62172500Y-22837500D03*
X61152500Y-22837500D03*
%TD*%
D28*
%TO.C,R32*%
X21837500Y-38337500D03*
X23487500Y-38337500D03*
%TD*%
D17*
%TO.C,Q9*%
X19812500Y-38387500D03*
X19812500Y-40287500D03*
X16512500Y-39337500D03*
%TD*%
D29*
%TO.C,C7*%
X69162500Y-35287500D03*
X69162500Y-33387500D03*
%TD*%
D21*
%TO.C,R2*%
X74662500Y-21847500D03*
X74662500Y-20827500D03*
%TD*%
D12*
%TO.C,R12*%
X47672500Y-56837500D03*
X46652500Y-56837500D03*
%TD*%
D14*
%TO.C,R3*%
X68152500Y-53837500D03*
X69172500Y-53837500D03*
%TD*%
D12*
%TO.C,R14*%
X47672500Y-59337500D03*
X46652500Y-59337500D03*
%TD*%
M02*
