M48
; DRILL file {KiCad (6.0.11)} date Wed Sep 13 08:26:01 2023
; FORMAT={-:-/ absolute / inch / decimal}
; #@! TF.CreationDate,2023-09-13T08:26:01+09:00
; #@! TF.GenerationSoftware,Kicad,Pcbnew,(6.0.11)
; #@! TF.FileFunction,Plated,1,2,PTH
FMAT,2
INCH
; #@! TA.AperFunction,Plated,PTH,ViaDrill
T1C0.0118
; #@! TA.AperFunction,Plated,PTH,ViaDrill
T2C0.0157
; #@! TA.AperFunction,Plated,PTH,ViaDrill
T3C0.0236
; #@! TA.AperFunction,Plated,PTH,ComponentDrill
T4C0.0256
; #@! TA.AperFunction,Plated,PTH,ComponentDrill
T5C0.0300
; #@! TA.AperFunction,Plated,PTH,ComponentDrill
T6C0.0315
; #@! TA.AperFunction,Plated,PTH,ComponentDrill
T7C0.0335
; #@! TA.AperFunction,Plated,PTH,ComponentDrill
T8C0.0394
; #@! TA.AperFunction,Plated,PTH,ComponentDrill
T9C0.0433
; #@! TA.AperFunction,Plated,PTH,ComponentDrill
T10C0.0748
%
G90
G05
T1
X3.2291Y-3.837
X3.2291Y-4.1913
X3.2291Y-4.526
X3.2291Y-4.8606
X3.2291Y-5.215
X3.6228Y-3.837
X3.6228Y-4.1913
X3.6228Y-4.5063
X3.6228Y-4.8606
X3.6228Y-5.215
X4.0165Y-3.837
X4.0165Y-4.1913
X4.0165Y-4.8606
X4.0165Y-5.215
X4.0768Y-4.3433
X4.0953Y-3.0496
X4.0953Y-3.4433
X4.0953Y-3.7189
X4.1346Y-3.9748
X4.1783Y-4.7831
X4.1937Y-3.7386
X4.2189Y-5.1024
X4.2528Y-3.9157
X4.2528Y-4.0929
X4.2921Y-3.2858
X4.2921Y-3.4827
X4.311Y-3.7264
X4.3118Y-3.6051
X4.3512Y-3.9157
X4.3512Y-4.0929
X4.3602Y-4.3697
X4.3894Y-5.0894
X4.3988Y-4.7913
X4.4102Y-3.2858
X4.4102Y-4.2504
X4.4217Y-3.7449
X4.4299Y-3.1677
X4.4299Y-3.463
X4.4693Y-4.152
X4.489Y-3.0496
X4.4972Y-4.7913
X4.5272Y-3.6413
X4.548Y-4.3685
X4.5787Y-4.8283
X4.5874Y-4.2701
X4.6079Y-3.5528
X4.6213Y-3.7425
X4.6268Y-3.3055
X4.6268Y-3.463
X4.7055Y-3.1874
X4.7055Y-4.515
X4.7354Y-4.6236
X4.7378Y-4.8827
X4.7386Y-4.9189
X4.7386Y-4.9539
X4.7388Y-4.6749
X4.7388Y-4.7098
X4.7388Y-4.7449
X4.7388Y-4.7807
X4.7388Y-4.8157
X4.7388Y-4.8472
X4.7642Y-3.8075
X4.8063Y-3.652
X4.8453Y-4.526
X4.9024Y-3.0496
X4.922Y-3.4039
X4.935Y-3.7256
X4.9354Y-3.6303
X4.9571Y-4.522
X4.9768Y-3.676
X4.9882Y-4.3768
X4.9906Y-4.0209
X4.9933Y-4.1728
X4.9941Y-3.7748
X4.9957Y-3.9276
X5.0445Y-4.0272
X5.0476Y-3.7358
X5.0764Y-4.2031
X5.0776Y-4.439
X5.1063Y-4.0421
X5.1118Y-3.8961
X5.1224Y-4.3921
X5.1269Y-3.7581
X5.1362Y-4.263
X5.1535Y-4.0772
X5.1575Y-4.1197
X5.1579Y-3.6563
X5.178Y-3.0496
X5.178Y-3.3646
X5.1783Y-3.4661
X5.1843Y-3.7366
X5.187Y-3.9657
X5.2303Y-4.1634
X5.2764Y-3.1874
X5.2764Y-4.052
X5.2874Y-4.0004
X5.2902Y-4.2319
X5.2921Y-3.4685
X5.3028Y-3.3768
X5.3254Y-3.9401
X5.326Y-3.7406
X5.3332Y-4.0801
X5.3402Y-4.1299
X5.3406Y-3.8104
X5.3486Y-3.9189
X5.3625Y-4.1521
X5.3647Y-4.0801
X5.3819Y-3.4531
X5.3824Y-3.7315
X5.3893Y-3.6158
X5.3919Y-4.1634
X5.4087Y-3.2634
X5.4142Y-3.1902
X5.4185Y-3.865
X5.4209Y-3.7472
X5.4233Y-4.1634
X5.424Y-3.6205
X5.4339Y-3.0496
X5.452Y-3.9189
X5.4548Y-4.1634
X5.4594Y-3.4862
X5.474Y-3.3685
X5.4835Y-3.9189
X5.4863Y-4.1634
X5.515Y-3.9189
X5.5178Y-4.1634
X5.5224Y-3.5421
X5.5295Y-3.0776
X5.5343Y-3.4118
X5.5399Y-4.0801
X5.5461Y-3.9492
X5.5516Y-3.7882
X5.5516Y-4.1634
X5.5535Y-3.9039
X5.5604Y-3.7323
X5.5752Y-4.0801
X5.5807Y-4.0
X5.5831Y-4.1634
X5.6031Y-3.6803
X5.6051Y-4.4425
X5.6102Y-4.0801
X5.6106Y-3.3449
X5.6145Y-4.1634
X5.642Y-3.819
X5.6457Y-4.0697
X5.6555Y-4.2606
X5.6709Y-3.7728
X5.6807Y-4.1398
X5.6831Y-3.8559
X5.6996Y-4.3059
X5.7008Y-5.0618
X5.7346Y-3.0917
X5.7362Y-4.0457
X5.7457Y-3.7882
X5.748Y-4.2622
X5.7854Y-4.6874
X5.8106Y-3.8484
X5.8264Y-3.4854
X5.8343Y-3.2102
X5.8547Y-3.8102
X5.8953Y-4.1449
X5.9303Y-3.3713
X5.9524Y-3.6665
X5.9744Y-3.0941
X6.0051Y-3.2067
X6.1768Y-3.213
X6.1866Y-3.1323
X6.2445Y-3.0701
X6.2925Y-3.2197
X6.4319Y-3.1169
X6.4413Y-3.213
X6.485Y-4.1421
X6.5787Y-3.3094
X6.5917Y-3.1157
X6.5976Y-3.2205
X6.6953Y-4.1421
X6.7161Y-3.4531
X6.7339Y-3.1169
X6.7398Y-3.2142
X6.872Y-3.1732
X6.8748Y-3.0957
X6.8886Y-4.1421
X7.013Y-3.2205
X7.0831Y-3.0949
X7.1661Y-3.161
X7.2997Y-3.8114
X7.3016Y-3.2291
X7.3071Y-3.0969
X7.3403Y-3.8975
X7.3847Y-3.9398
X7.3877Y-5.0117
X7.3882Y-4.913
X7.4858Y-3.1744
X7.5236Y-4.961
X7.524Y-4.8657
X7.5315Y-3.0941
X7.6098Y-4.7697
X7.6425Y-3.2358
X7.7543Y-3.0941
X7.8114Y-3.1677
X7.952Y-3.2291
X8.0047Y-3.0969
X8.0634Y-3.1701
X8.1236Y-3.2339
X8.1728Y-3.0799
X8.2736Y-3.178
X8.4476Y-3.085
X8.4913Y-3.2307
X8.6122Y-3.2307
X8.6185Y-3.3335
T2
X3.9831Y-4.5441
X4.1957Y-4.9646
X4.224Y-4.6823
X4.2276Y-4.5823
X4.2283Y-4.4732
X4.3791Y-4.6803
X4.3803Y-4.4724
X4.3846Y-4.5807
X4.3945Y-5.215
X4.398Y-4.9295
X4.4276Y-4.9878
X4.4862Y-3.8244
X4.5043Y-4.0508
X4.539Y-4.9272
X4.6366Y-3.9185
X4.7142Y-5.0165
X4.7244Y-4.3433
X4.7756Y-4.1921
X4.7913Y-3.9531
X4.828Y-3.7622
X4.8689Y-4.1169
X4.8705Y-4.9882
X4.9169Y-3.861
X4.9214Y-4.5903
X4.9283Y-4.2157
X5.0085Y-3.8537
X5.0232Y-4.839
X5.0319Y-4.9972
X5.0693Y-3.6472
X5.1295Y-4.8906
X5.1307Y-4.7268
X5.1516Y-3.8512
X5.1555Y-5.0004
X5.18Y-3.5639
X5.2191Y-3.9165
X5.2339Y-3.3853
X5.252Y-5.048
X5.2748Y-3.5657
X5.3614Y-4.5165
X5.3803Y-4.7508
X5.411Y-5.0016
X5.4697Y-3.6051
X5.4866Y-5.1051
X5.5681Y-4.2909
X5.5732Y-4.8906
X5.5831Y-4.9976
X5.5894Y-3.4776
X5.6008Y-4.6217
X5.6705Y-3.965
X5.6945Y-4.5264
X5.6992Y-3.3724
X5.7138Y-3.6087
X5.7181Y-5.2122
X5.7197Y-4.7457
X5.7291Y-3.9343
X5.7449Y-4.8909
X5.8016Y-3.3732
X5.826Y-3.6555
X5.839Y-5.1913
X5.9165Y-3.8811
X5.9346Y-4.9622
X5.9654Y-4.0626
X5.9756Y-4.8433
X6.0094Y-3.4697
X6.013Y-3.8161
X6.0165Y-3.3693
X6.0535Y-3.9583
X6.0724Y-5.1882
X6.0949Y-3.5031
X6.1122Y-4.9921
X6.1374Y-3.7614
X6.1661Y-3.4831
X6.1724Y-3.3819
X6.189Y-3.9106
X6.2425Y-4.5154
X6.2543Y-5.0898
X6.2654Y-5.1902
X6.2815Y-4.7697
X6.2886Y-3.3217
X6.2894Y-3.5028
X6.3035Y-3.774
X6.3583Y-4.9894
X6.4031Y-4.6339
X6.4268Y-5.0949
X6.4327Y-5.2016
X6.4461Y-3.9461
X6.4634Y-3.5807
X6.4843Y-4.0508
X6.4969Y-4.8343
X6.5065Y-4.8766
X6.5311Y-4.8
X6.5352Y-4.8478
X6.55Y-4.9185
X6.5626Y-4.8205
X6.5677Y-4.7717
X6.5744Y-4.8571
X6.5781Y-4.8903
X6.5858Y-5.0969
X6.5969Y-4.8008
X6.6051Y-5.1965
X6.6061Y-4.8624
X6.6299Y-4.8385
X6.6374Y-4.8008
X6.6386Y-4.976
X6.674Y-4.7944
X6.7157Y-4.7332
X6.7264Y-5.0961
X6.7323Y-5.1874
X6.7457Y-3.3937
X6.7669Y-4.8976
X6.7717Y-3.3228
X6.8055Y-4.7854
X6.8331Y-5.1862
X6.8425Y-3.3756
X6.8965Y-4.2637
X6.8965Y-4.2996
X6.8976Y-5.0988
X6.9039Y-4.9874
X6.9177Y-4.3334
X6.9179Y-4.236
X6.9248Y-4.6579
X6.9252Y-3.3224
X6.9252Y-4.2827
X6.9256Y-3.4437
X6.9437Y-4.3748
X6.9437Y-4.4094
X6.9437Y-4.4441
X6.9437Y-4.4791
X6.9524Y-4.3406
X6.9531Y-4.3067
X6.9539Y-4.2335
X6.9547Y-4.2689
X6.9646Y-4.5035
X6.9654Y-5.2102
X6.9787Y-4.0217
X6.988Y-4.4443
X6.989Y-4.2705
X6.989Y-4.3764
X6.989Y-4.4091
X6.989Y-4.478
X6.9894Y-4.2339
X6.9894Y-4.3406
X6.9898Y-4.3051
X7.0004Y-3.3846
X7.0126Y-4.0067
X7.013Y-4.5677
X7.0205Y-4.3772
X7.0205Y-4.4106
X7.0205Y-4.4512
X7.0224Y-4.8453
X7.0228Y-3.6669
X7.0236Y-4.2339
X7.0236Y-4.3055
X7.0244Y-4.272
X7.0244Y-4.3421
X7.0299Y-4.7366
X7.0354Y-5.1488
X7.0453Y-4.9827
X7.0539Y-4.0067
X7.0594Y-3.9744
X7.0854Y-3.324
X7.0878Y-3.4402
X7.1252Y-4.7205
X7.15Y-3.3846
X7.1783Y-3.6764
X7.1783Y-5.0984
X7.1953Y-5.213
X7.2303Y-4.9894
X7.2433Y-3.4504
X7.2457Y-3.3311
X7.2476Y-3.5787
X7.2614Y-5.1563
X7.2728Y-4.8953
X7.3177Y-5.0953
X7.3343Y-3.3823
X7.3417Y-5.2118
X7.3421Y-3.5213
X7.3453Y-3.6079
X7.3835Y-3.6929
X7.4039Y-3.8268
X7.4106Y-5.1594
X7.4287Y-5.0669
X7.4295Y-3.324
X7.4299Y-3.5807
X7.4323Y-3.7992
X7.439Y-3.4425
X7.5016Y-5.2071
X7.5024Y-3.3783
X7.5063Y-3.6689
X7.5185Y-3.5299
X7.5205Y-5.1531
X7.5693Y-3.4425
X7.5714Y-5.0525
X7.5748Y-5.0169
X7.5783Y-3.3256
X7.5783Y-3.5878
X7.5843Y-3.6705
X7.6398Y-5.2059
X7.6429Y-3.3984
X7.652Y-3.5134
X7.6622Y-3.6299
X7.7043Y-5.0535
X7.7224Y-3.4437
X7.7244Y-3.3295
X7.7315Y-3.676
X7.7327Y-3.5764
X7.7327Y-5.1594
X7.7535Y-3.4717
X7.7563Y-5.2114
X7.7626Y-5.0543
X7.7744Y-3.7815
X7.7969Y-4.4787
X7.802Y-5.1279
X7.8071Y-3.7205
X7.8083Y-3.537
X7.8138Y-3.3843
X7.8185Y-5.0587
X7.8228Y-3.6331
X7.8264Y-3.7902
X7.8303Y-5.1421
X7.8307Y-4.4791
X7.8524Y-5.2059
X7.8555Y-5.0488
X7.8555Y-5.0878
X7.865Y-3.7909
X7.8661Y-5.0098
X7.8787Y-4.974
X7.8839Y-3.3272
X7.8854Y-3.4425
X7.8902Y-3.5717
X7.8937Y-5.0898
X7.8945Y-3.6929
X7.8957Y-5.0508
X7.8984Y-5.0122
X7.9024Y-3.7945
X7.913Y-4.9378
X7.9161Y-4.8594
X7.9161Y-4.9772
X7.9177Y-3.8362
X7.9181Y-4.8992
X7.9189Y-4.8244
X7.928Y-5.089
X7.9311Y-5.0142
X7.9386Y-5.0528
X7.9406Y-3.8008
X7.9406Y-3.8665
X7.9476Y-4.9441
X7.9512Y-4.8748
X7.9516Y-4.8382
X7.9516Y-4.9094
X7.952Y-4.9807
X7.9531Y-3.7406
X7.9602Y-3.8366
X7.9638Y-3.9028
X7.9689Y-5.0898
X7.9693Y-3.3843
X7.9697Y-5.0161
X7.9724Y-3.6264
X7.9736Y-3.5201
X7.9756Y-5.2067
X7.9772Y-5.0539
X7.9803Y-3.7988
X7.9803Y-3.8693
X7.985Y-4.8374
X7.9854Y-3.9358
X7.9862Y-4.876
X7.9878Y-4.9469
X7.9882Y-4.9122
X7.9902Y-4.9819
X7.9965Y-3.9728
X7.9976Y-3.8354
X8.0035Y-5.0169
X8.0059Y-3.9051
X8.0114Y-3.8693
X8.0126Y-5.052
X8.0161Y-3.7984
X8.0185Y-3.9398
X8.0193Y-4.8728
X8.0197Y-4.8386
X8.0205Y-4.9102
X8.0224Y-4.0016
X8.0224Y-4.9457
X8.0224Y-4.9827
X8.0299Y-3.8358
X8.0358Y-3.3217
X8.0374Y-3.5886
X8.0378Y-5.0154
X8.0386Y-3.7173
X8.0394Y-3.9677
X8.0421Y-3.9079
X8.0429Y-5.1827
X8.0441Y-3.4449
X8.0449Y-3.8665
X8.0539Y-3.8016
X8.0571Y-4.8717
X8.0575Y-4.9839
X8.0579Y-4.8366
X8.0591Y-4.9071
X8.0598Y-4.9425
X8.061Y-3.9386
X8.0614Y-4.0
X8.0673Y-3.8378
X8.0756Y-3.8732
X8.0791Y-3.9669
X8.0803Y-3.9087
X8.0894Y-3.8039
X8.0957Y-3.3827
X8.0976Y-4.0008
X8.1004Y-3.8394
X8.102Y-3.5
X8.1055Y-3.937
X8.1067Y-3.7398
X8.1071Y-3.8756
X8.1079Y-5.1291
X8.1102Y-3.6382
X8.111Y-4.8354
X8.111Y-4.8693
X8.1197Y-3.9701
X8.128Y-3.8047
X8.1295Y-3.9098
X8.1339Y-3.8406
X8.1382Y-4.0024
X8.1417Y-3.8764
X8.1457Y-3.9445
X8.1638Y-5.0587
X8.1638Y-5.2
X8.165Y-3.9791
X8.1654Y-4.9232
X8.1665Y-3.913
X8.1669Y-4.0508
X8.1673Y-3.8406
X8.1705Y-4.7839
X8.1713Y-3.6756
X8.174Y-3.8783
X8.1772Y-4.0126
X8.1803Y-3.5835
X8.185Y-3.9461
X8.1894Y-3.5063
X8.2047Y-3.9886
X8.2087Y-3.9185
X8.2098Y-3.8827
X8.222Y-3.9551
X8.2244Y-4.0185
X8.2327Y-4.9819
X8.2433Y-3.926
X8.2457Y-4.8492
X8.2461Y-3.9933
X8.2469Y-3.5283
X8.25Y-5.1307
X8.2539Y-3.4528
X8.2567Y-3.6476
X8.2587Y-3.9618
X8.2618Y-3.3681
X8.2705Y-4.0169
X8.3154Y-3.6831
X8.3197Y-3.5854
X8.3217Y-3.4492
X8.3232Y-3.7709
X8.3283Y-5.2055
X8.3323Y-3.5063
X8.3346Y-4.9138
X8.3346Y-5.0339
X8.3362Y-4.8012
X8.387Y-3.8472
X8.4Y-3.5083
X8.4083Y-3.6197
X8.4138Y-5.1071
X8.4378Y-3.3236
X8.4409Y-4.9713
X8.4417Y-4.8224
X8.4728Y-3.5886
X8.474Y-3.6815
X8.5067Y-4.7303
X8.5224Y-4.8685
X8.5224Y-5.0193
X8.526Y-5.1941
X8.5287Y-3.4039
X8.537Y-4.6039
X8.5398Y-5.0961
X8.5441Y-3.872
X8.5531Y-3.0504
X8.5559Y-3.7705
X8.5685Y-4.0291
X8.5705Y-3.6217
X8.5724Y-4.7827
X8.5768Y-3.9453
X8.5787Y-3.6906
X8.5862Y-4.9323
X8.6091Y-3.4854
X8.6189Y-4.6051
X8.6197Y-4.2657
X8.6217Y-4.3858
X8.622Y-4.1406
X8.6248Y-4.513
X8.6272Y-3.8858
X8.6331Y-4.7071
X8.6331Y-4.85
X8.6496Y-3.8252
X8.6496Y-3.9626
X8.652Y-4.9996
X8.6555Y-4.0807
X8.6555Y-5.0937
X8.6665Y-5.1925
X8.6831Y-3.1717
X8.6831Y-4.2
X8.6913Y-4.3209
X8.6972Y-4.7567
X8.7031Y-4.4504
X8.7031Y-4.6012
X8.713Y-4.9185
X8.7217Y-3.8681
X8.7437Y-3.0547
X8.7484Y-4.2646
X8.7488Y-4.1358
X8.7524Y-3.7673
X8.7531Y-4.3839
X8.7567Y-3.602
X8.7575Y-4.6677
X8.7594Y-3.2756
X8.7626Y-4.5193
X8.7685Y-4.8217
X8.7752Y-3.4634
X8.7898Y-3.1677
X8.7996Y-4.9091
X8.8075Y-4.602
X8.8091Y-5.2087
X8.8299Y-3.8465
X8.8374Y-4.1933
X8.8378Y-3.5268
X8.8398Y-3.3661
X8.8441Y-3.7744
X8.8472Y-3.2717
X8.8472Y-3.6953
X8.8492Y-4.4787
X8.8555Y-4.8465
X8.8626Y-4.3748
X8.8783Y-3.1303
X8.8878Y-4.6232
X8.9185Y-4.2646
X8.9189Y-4.7657
X8.9213Y-3.0693
X8.9213Y-3.8831
X8.9228Y-4.7063
X8.924Y-3.2657
X8.924Y-5.2039
X8.9252Y-4.398
X8.926Y-4.998
X8.9264Y-4.137
X8.9268Y-4.8768
X8.9283Y-3.4461
X8.9295Y-3.7689
X8.9299Y-3.6177
X8.9307Y-5.1161
X8.9319Y-4.5496
X8.937Y-3.9969
T3
X7.0362Y-3.7756
X7.0791Y-3.798
X7.424Y-3.9701
X7.4274Y-3.9124
X7.4545Y-4.8238
X7.4959Y-4.823
T4
X4.202Y-3.8075
X4.202Y-3.9886
X4.202Y-4.1618
X4.302Y-3.8075
X4.302Y-3.9886
X4.302Y-4.1618
X4.402Y-3.8075
X4.402Y-3.9886
X4.402Y-4.1618
T5
X5.8324Y-4.426
X5.8324Y-4.526
X5.8324Y-4.626
T6
X4.1543Y-4.3783
X4.1543Y-4.4783
X4.1543Y-4.5783
X4.1543Y-4.6783
X4.4543Y-4.3783
X4.4543Y-4.4783
X4.4543Y-4.5783
X4.4543Y-4.6783
X4.7945Y-5.0569
X4.7945Y-5.1569
X5.0945Y-5.0569
X5.0945Y-5.1569
X5.3303Y-5.0565
X5.3303Y-5.1565
X5.6303Y-5.0565
X5.6303Y-5.1565
X8.1913Y-3.7547
X8.5449Y-4.1083
T7
X5.7685Y-3.3014
X5.8669Y-3.3014
X5.9654Y-3.3014
X6.0638Y-3.3014
X6.1622Y-3.3014
X8.6799Y-3.2504
X8.6799Y-3.3488
X8.6799Y-3.4472
X8.6799Y-3.5457
X8.6799Y-3.6441
T8
X4.7024Y-3.4692
X4.7024Y-3.5692
X4.8024Y-3.4692
X4.8024Y-3.5692
X4.9024Y-3.4692
X4.9024Y-3.5692
X5.0024Y-3.4692
X5.0024Y-3.5692
X5.1024Y-3.4692
X5.1024Y-3.5692
X5.4831Y-3.1516
X5.4831Y-3.2516
X6.0441Y-4.6441
X6.6386Y-4.5654
X6.8004Y-3.173
X7.2335Y-3.173
X7.4193Y-4.4236
X8.1764Y-3.3819
X8.3807Y-3.3819
X8.8128Y-4.3094
X8.8128Y-4.7425
T9
X6.5165Y-3.1252
X6.5165Y-3.2252
X6.5165Y-3.3252
X6.5165Y-3.4252
X6.5165Y-3.5252
T10
X6.9185Y-3.5667
X7.1154Y-3.5667
X8.4191Y-4.4276
X8.4191Y-4.6244
T0
M30
