%TF.GenerationSoftware,KiCad,Pcbnew,(6.0.11)*%
%TF.CreationDate,2023-09-13T08:26:01+09:00*%
%TF.ProjectId,MD,4d442e6b-6963-4616-945f-706362585858,rev?*%
%TF.SameCoordinates,Original*%
%TF.FileFunction,Legend,Bot*%
%TF.FilePolarity,Positive*%
%FSLAX46Y46*%
G04 Gerber Fmt 4.6, Leading zero omitted, Abs format (unit mm)*
G04 Created by KiCad (PCBNEW (6.0.11)) date 2023-09-13 08:26:01*
%MOMM*%
%LPD*%
G01*
G04 APERTURE LIST*
G04 Aperture macros list*
%AMRoundRect*
0 Rectangle with rounded corners*
0 $1 Rounding radius*
0 $2 $3 $4 $5 $6 $7 $8 $9 X,Y pos of 4 corners*
0 Add a 4 corners polygon primitive as box body*
4,1,4,$2,$3,$4,$5,$6,$7,$8,$9,$2,$3,0*
0 Add four circle primitives for the rounded corners*
1,1,$1+$1,$2,$3*
1,1,$1+$1,$4,$5*
1,1,$1+$1,$6,$7*
1,1,$1+$1,$8,$9*
0 Add four rect primitives between the rounded corners*
20,1,$1+$1,$2,$3,$4,$5,0*
20,1,$1+$1,$4,$5,$6,$7,0*
20,1,$1+$1,$6,$7,$8,$9,0*
20,1,$1+$1,$8,$9,$2,$3,0*%
%AMHorizOval*
0 Thick line with rounded ends*
0 $1 width*
0 $2 $3 position (X,Y) of the first rounded end (center of the circle)*
0 $4 $5 position (X,Y) of the second rounded end (center of the circle)*
0 Add line between two ends*
20,1,$1,$2,$3,$4,$5,0*
0 Add two circle primitives to create the rounded ends*
1,1,$1,$2,$3*
1,1,$1,$4,$5*%
G04 Aperture macros list end*
%ADD10C,0.150000*%
%ADD11C,0.120000*%
%ADD12C,3.200000*%
%ADD13C,2.000000*%
%ADD14R,1.600000X1.600000*%
%ADD15O,1.600000X1.600000*%
%ADD16RoundRect,0.250000X0.600000X0.675000X-0.600000X0.675000X-0.600000X-0.675000X0.600000X-0.675000X0*%
%ADD17O,1.700000X1.850000*%
%ADD18RoundRect,0.250000X0.600000X-0.600000X0.600000X0.600000X-0.600000X0.600000X-0.600000X-0.600000X0*%
%ADD19C,1.700000*%
%ADD20C,1.400000*%
%ADD21R,3.500000X3.500000*%
%ADD22C,3.500000*%
%ADD23RoundRect,0.381000X-0.381000X0.381000X-0.381000X-0.381000X0.381000X-0.381000X0.381000X0.381000X0*%
%ADD24C,1.524000*%
%ADD25R,1.700000X1.700000*%
%ADD26O,1.700000X1.700000*%
%ADD27RoundRect,0.250000X0.675000X-0.600000X0.675000X0.600000X-0.675000X0.600000X-0.675000X-0.600000X0*%
%ADD28O,1.850000X1.700000*%
%ADD29RoundRect,0.425000X0.425000X0.425000X-0.425000X0.425000X-0.425000X-0.425000X0.425000X-0.425000X0*%
%ADD30RoundRect,0.381000X-0.381000X-0.381000X0.381000X-0.381000X0.381000X0.381000X-0.381000X0.381000X0*%
%ADD31C,1.600000*%
%ADD32HorizOval,1.600000X0.000000X0.000000X0.000000X0.000000X0*%
%ADD33RoundRect,0.237500X-0.237500X0.250000X-0.237500X-0.250000X0.237500X-0.250000X0.237500X0.250000X0*%
%ADD34R,1.200000X0.900000*%
%ADD35RoundRect,0.250000X-0.475000X0.337500X-0.475000X-0.337500X0.475000X-0.337500X0.475000X0.337500X0*%
G04 APERTURE END LIST*
D10*
%TO.C,R64*%
X167642380Y-119317142D02*
X167166190Y-118983809D01*
X167642380Y-118745714D02*
X166642380Y-118745714D01*
X166642380Y-119126666D01*
X166690000Y-119221904D01*
X166737619Y-119269523D01*
X166832857Y-119317142D01*
X166975714Y-119317142D01*
X167070952Y-119269523D01*
X167118571Y-119221904D01*
X167166190Y-119126666D01*
X167166190Y-118745714D01*
X166642380Y-120174285D02*
X166642380Y-119983809D01*
X166690000Y-119888571D01*
X166737619Y-119840952D01*
X166880476Y-119745714D01*
X167070952Y-119698095D01*
X167451904Y-119698095D01*
X167547142Y-119745714D01*
X167594761Y-119793333D01*
X167642380Y-119888571D01*
X167642380Y-120079047D01*
X167594761Y-120174285D01*
X167547142Y-120221904D01*
X167451904Y-120269523D01*
X167213809Y-120269523D01*
X167118571Y-120221904D01*
X167070952Y-120174285D01*
X167023333Y-120079047D01*
X167023333Y-119888571D01*
X167070952Y-119793333D01*
X167118571Y-119745714D01*
X167213809Y-119698095D01*
X166975714Y-121126666D02*
X167642380Y-121126666D01*
X166594761Y-120888571D02*
X167309047Y-120650476D01*
X167309047Y-121269523D01*
%TO.C,D5*%
X145472380Y-114221904D02*
X144472380Y-114221904D01*
X144472380Y-114460000D01*
X144520000Y-114602857D01*
X144615238Y-114698095D01*
X144710476Y-114745714D01*
X144900952Y-114793333D01*
X145043809Y-114793333D01*
X145234285Y-114745714D01*
X145329523Y-114698095D01*
X145424761Y-114602857D01*
X145472380Y-114460000D01*
X145472380Y-114221904D01*
X144472380Y-115698095D02*
X144472380Y-115221904D01*
X144948571Y-115174285D01*
X144900952Y-115221904D01*
X144853333Y-115317142D01*
X144853333Y-115555238D01*
X144900952Y-115650476D01*
X144948571Y-115698095D01*
X145043809Y-115745714D01*
X145281904Y-115745714D01*
X145377142Y-115698095D01*
X145424761Y-115650476D01*
X145472380Y-115555238D01*
X145472380Y-115317142D01*
X145424761Y-115221904D01*
X145377142Y-115174285D01*
%TO.C,R25*%
X142572380Y-110117142D02*
X142096190Y-109783809D01*
X142572380Y-109545714D02*
X141572380Y-109545714D01*
X141572380Y-109926666D01*
X141620000Y-110021904D01*
X141667619Y-110069523D01*
X141762857Y-110117142D01*
X141905714Y-110117142D01*
X142000952Y-110069523D01*
X142048571Y-110021904D01*
X142096190Y-109926666D01*
X142096190Y-109545714D01*
X141667619Y-110498095D02*
X141620000Y-110545714D01*
X141572380Y-110640952D01*
X141572380Y-110879047D01*
X141620000Y-110974285D01*
X141667619Y-111021904D01*
X141762857Y-111069523D01*
X141858095Y-111069523D01*
X142000952Y-111021904D01*
X142572380Y-110450476D01*
X142572380Y-111069523D01*
X141572380Y-111974285D02*
X141572380Y-111498095D01*
X142048571Y-111450476D01*
X142000952Y-111498095D01*
X141953333Y-111593333D01*
X141953333Y-111831428D01*
X142000952Y-111926666D01*
X142048571Y-111974285D01*
X142143809Y-112021904D01*
X142381904Y-112021904D01*
X142477142Y-111974285D01*
X142524761Y-111926666D01*
X142572380Y-111831428D01*
X142572380Y-111593333D01*
X142524761Y-111498095D01*
X142477142Y-111450476D01*
%TO.C,C6*%
X153377142Y-113293333D02*
X153424761Y-113245714D01*
X153472380Y-113102857D01*
X153472380Y-113007619D01*
X153424761Y-112864761D01*
X153329523Y-112769523D01*
X153234285Y-112721904D01*
X153043809Y-112674285D01*
X152900952Y-112674285D01*
X152710476Y-112721904D01*
X152615238Y-112769523D01*
X152520000Y-112864761D01*
X152472380Y-113007619D01*
X152472380Y-113102857D01*
X152520000Y-113245714D01*
X152567619Y-113293333D01*
X152472380Y-114150476D02*
X152472380Y-113960000D01*
X152520000Y-113864761D01*
X152567619Y-113817142D01*
X152710476Y-113721904D01*
X152900952Y-113674285D01*
X153281904Y-113674285D01*
X153377142Y-113721904D01*
X153424761Y-113769523D01*
X153472380Y-113864761D01*
X153472380Y-114055238D01*
X153424761Y-114150476D01*
X153377142Y-114198095D01*
X153281904Y-114245714D01*
X153043809Y-114245714D01*
X152948571Y-114198095D01*
X152900952Y-114150476D01*
X152853333Y-114055238D01*
X152853333Y-113864761D01*
X152900952Y-113769523D01*
X152948571Y-113721904D01*
X153043809Y-113674285D01*
D11*
%TO.C,R64*%
X169142500Y-119705276D02*
X169142500Y-120214724D01*
X168097500Y-119705276D02*
X168097500Y-120214724D01*
%TO.C,D5*%
X144020000Y-112710000D02*
X146020000Y-112710000D01*
X144020000Y-112710000D02*
X144020000Y-116610000D01*
X146020000Y-112710000D02*
X146020000Y-116610000D01*
%TO.C,R25*%
X144072500Y-110505276D02*
X144072500Y-111014724D01*
X143027500Y-110505276D02*
X143027500Y-111014724D01*
%TO.C,C6*%
X150285000Y-113198748D02*
X150285000Y-113721252D01*
X151755000Y-113198748D02*
X151755000Y-113721252D01*
%TD*%
%LPC*%
D12*
%TO.C,H8*%
X148520000Y-128460000D03*
%TD*%
D13*
%TO.C,TP2*%
X168620000Y-115960000D03*
%TD*%
D12*
%TO.C,H9*%
X223519999Y-128460000D03*
%TD*%
D14*
%TO.C,SW4*%
X105520000Y-111210000D03*
D15*
X105520000Y-113750000D03*
X105520000Y-116290000D03*
X105520000Y-118830000D03*
X113140000Y-118830000D03*
X113140000Y-116290000D03*
X113140000Y-113750000D03*
X113140000Y-111210000D03*
%TD*%
D16*
%TO.C,J3*%
X156520000Y-83855000D03*
D17*
X154020000Y-83855000D03*
X151520000Y-83855000D03*
X149020000Y-83855000D03*
X146520000Y-83855000D03*
%TD*%
D13*
%TO.C,TP5*%
X207680000Y-85900000D03*
%TD*%
D18*
%TO.C,J2*%
X119440000Y-90657500D03*
D19*
X119440000Y-88117500D03*
X121980000Y-90657500D03*
X121980000Y-88117500D03*
X124520000Y-90657500D03*
X124520000Y-88117500D03*
X127060000Y-90657500D03*
X127060000Y-88117500D03*
X129600000Y-90657500D03*
X129600000Y-88117500D03*
%TD*%
D13*
%TO.C,TP1*%
X188450000Y-112360000D03*
%TD*%
D20*
%TO.C,J4*%
X223845000Y-120460000D03*
X223845000Y-109460000D03*
D21*
X213845000Y-117460000D03*
D22*
X213845000Y-112460000D03*
%TD*%
D23*
%TO.C,SW6*%
X111810000Y-96710000D03*
D24*
X109270000Y-96710000D03*
X106730000Y-96710000D03*
%TD*%
D20*
%TO.C,J1*%
X183730000Y-80595000D03*
X172730000Y-80595000D03*
D21*
X180730000Y-90595000D03*
D22*
X175730000Y-90595000D03*
%TD*%
D12*
%TO.C,H7*%
X86019999Y-128460000D03*
%TD*%
%TO.C,H5*%
X148520000Y-101460000D03*
%TD*%
D25*
%TO.C,JP1*%
X139270000Y-80050000D03*
D26*
X139270000Y-82590000D03*
%TD*%
D27*
%TO.C,J5*%
X220470000Y-92560000D03*
D28*
X220470000Y-90060000D03*
X220470000Y-87560000D03*
X220470000Y-85060000D03*
X220470000Y-82560000D03*
%TD*%
D13*
%TO.C,TP3*%
X153520000Y-117960000D03*
%TD*%
D29*
%TO.C,SW5*%
X165520000Y-87000000D03*
D19*
X165520000Y-84460000D03*
X165520000Y-81920000D03*
X165520000Y-89540000D03*
X165520000Y-79380000D03*
%TD*%
D13*
%TO.C,TP4*%
X212870000Y-85900000D03*
%TD*%
D30*
%TO.C,U1*%
X148143000Y-112420000D03*
D24*
X148143000Y-114960000D03*
X148143000Y-117500000D03*
%TD*%
D14*
%TO.C,U4*%
X135390000Y-128435000D03*
D15*
X135390000Y-130975000D03*
X143010000Y-130975000D03*
X143010000Y-128435000D03*
%TD*%
D12*
%TO.C,H6*%
X223519999Y-101460000D03*
%TD*%
D23*
%TO.C,SW1*%
X111810000Y-101310000D03*
D24*
X109270000Y-101310000D03*
X106730000Y-101310000D03*
%TD*%
D14*
%TO.C,U5*%
X121780000Y-128445000D03*
D15*
X121780000Y-130985000D03*
X129400000Y-130985000D03*
X129400000Y-128445000D03*
%TD*%
D12*
%TO.C,H4*%
X86019999Y-101460000D03*
%TD*%
D31*
%TO.C,R61*%
X217040000Y-104350000D03*
D32*
X208059744Y-95369744D03*
%TD*%
D23*
%TO.C,SW2*%
X111810000Y-105710000D03*
D24*
X109270000Y-105710000D03*
X106730000Y-105710000D03*
%TD*%
D33*
%TO.C,R64*%
X168620000Y-119047500D03*
X168620000Y-120872500D03*
%TD*%
D34*
%TO.C,D5*%
X145020000Y-113310000D03*
X145020000Y-116610000D03*
%TD*%
D33*
%TO.C,R25*%
X143550000Y-109847500D03*
X143550000Y-111672500D03*
%TD*%
D35*
%TO.C,C6*%
X151020000Y-112422500D03*
X151020000Y-114497500D03*
%TD*%
M02*
