%TF.GenerationSoftware,KiCad,Pcbnew,(6.0.11)*%
%TF.CreationDate,2023-09-13T08:26:01+09:00*%
%TF.ProjectId,MD,4d442e6b-6963-4616-945f-706362585858,rev?*%
%TF.SameCoordinates,Original*%
%TF.FileFunction,Legend,Top*%
%TF.FilePolarity,Positive*%
%FSLAX46Y46*%
G04 Gerber Fmt 4.6, Leading zero omitted, Abs format (unit mm)*
G04 Created by KiCad (PCBNEW (6.0.11)) date 2023-09-13 08:26:01*
%MOMM*%
%LPD*%
G01*
G04 APERTURE LIST*
G04 Aperture macros list*
%AMRoundRect*
0 Rectangle with rounded corners*
0 $1 Rounding radius*
0 $2 $3 $4 $5 $6 $7 $8 $9 X,Y pos of 4 corners*
0 Add a 4 corners polygon primitive as box body*
4,1,4,$2,$3,$4,$5,$6,$7,$8,$9,$2,$3,0*
0 Add four circle primitives for the rounded corners*
1,1,$1+$1,$2,$3*
1,1,$1+$1,$4,$5*
1,1,$1+$1,$6,$7*
1,1,$1+$1,$8,$9*
0 Add four rect primitives between the rounded corners*
20,1,$1+$1,$2,$3,$4,$5,0*
20,1,$1+$1,$4,$5,$6,$7,0*
20,1,$1+$1,$6,$7,$8,$9,0*
20,1,$1+$1,$8,$9,$2,$3,0*%
%AMHorizOval*
0 Thick line with rounded ends*
0 $1 width*
0 $2 $3 position (X,Y) of the first rounded end (center of the circle)*
0 $4 $5 position (X,Y) of the second rounded end (center of the circle)*
0 Add line between two ends*
20,1,$1,$2,$3,$4,$5,0*
0 Add two circle primitives to create the rounded ends*
1,1,$1,$2,$3*
1,1,$1,$4,$5*%
G04 Aperture macros list end*
%ADD10C,0.150000*%
%ADD11C,0.200000*%
%ADD12C,0.370000*%
%ADD13C,0.180000*%
%ADD14C,0.120000*%
%ADD15C,0.254000*%
%ADD16C,0.100000*%
%ADD17C,0.314000*%
%ADD18C,3.200000*%
%ADD19RoundRect,0.125000X-0.625000X-0.125000X0.625000X-0.125000X0.625000X0.125000X-0.625000X0.125000X0*%
%ADD20RoundRect,0.125000X-0.125000X-0.625000X0.125000X-0.625000X0.125000X0.625000X-0.125000X0.625000X0*%
%ADD21RoundRect,0.250001X0.799999X-1.999999X0.799999X1.999999X-0.799999X1.999999X-0.799999X-1.999999X0*%
%ADD22R,0.900000X1.200000*%
%ADD23RoundRect,0.135000X-0.226274X-0.035355X-0.035355X-0.226274X0.226274X0.035355X0.035355X0.226274X0*%
%ADD24C,2.000000*%
%ADD25RoundRect,0.135000X-0.135000X-0.185000X0.135000X-0.185000X0.135000X0.185000X-0.135000X0.185000X0*%
%ADD26RoundRect,0.140000X-0.170000X0.140000X-0.170000X-0.140000X0.170000X-0.140000X0.170000X0.140000X0*%
%ADD27RoundRect,0.135000X0.185000X-0.135000X0.185000X0.135000X-0.185000X0.135000X-0.185000X-0.135000X0*%
%ADD28RoundRect,0.250001X1.999999X0.799999X-1.999999X0.799999X-1.999999X-0.799999X1.999999X-0.799999X0*%
%ADD29RoundRect,0.135000X0.135000X0.185000X-0.135000X0.185000X-0.135000X-0.185000X0.135000X-0.185000X0*%
%ADD30RoundRect,0.237500X-0.250000X-0.237500X0.250000X-0.237500X0.250000X0.237500X-0.250000X0.237500X0*%
%ADD31RoundRect,0.250000X1.100000X-0.412500X1.100000X0.412500X-1.100000X0.412500X-1.100000X-0.412500X0*%
%ADD32R,1.200000X0.900000*%
%ADD33R,1.600000X1.400000*%
%ADD34R,1.600000X1.600000*%
%ADD35O,1.600000X1.600000*%
%ADD36RoundRect,0.250000X0.600000X0.675000X-0.600000X0.675000X-0.600000X-0.675000X0.600000X-0.675000X0*%
%ADD37O,1.700000X1.850000*%
%ADD38RoundRect,0.237500X-0.287500X-0.237500X0.287500X-0.237500X0.287500X0.237500X-0.287500X0.237500X0*%
%ADD39RoundRect,0.250000X0.600000X-0.600000X0.600000X0.600000X-0.600000X0.600000X-0.600000X-0.600000X0*%
%ADD40C,1.700000*%
%ADD41RoundRect,0.140000X0.170000X-0.140000X0.170000X0.140000X-0.170000X0.140000X-0.170000X-0.140000X0*%
%ADD42R,2.200000X1.200000*%
%ADD43R,6.400000X5.800000*%
%ADD44RoundRect,0.237500X0.237500X-0.250000X0.237500X0.250000X-0.237500X0.250000X-0.237500X-0.250000X0*%
%ADD45RoundRect,0.140000X0.021213X-0.219203X0.219203X-0.021213X-0.021213X0.219203X-0.219203X0.021213X0*%
%ADD46RoundRect,0.250001X-0.799999X1.999999X-0.799999X-1.999999X0.799999X-1.999999X0.799999X1.999999X0*%
%ADD47RoundRect,0.250000X-0.475000X0.337500X-0.475000X-0.337500X0.475000X-0.337500X0.475000X0.337500X0*%
%ADD48RoundRect,0.237500X0.035355X0.371231X-0.371231X-0.035355X-0.035355X-0.371231X0.371231X0.035355X0*%
%ADD49R,1.400000X1.600000*%
%ADD50R,2.225000X0.850000*%
%ADD51R,3.750000X4.700000*%
%ADD52R,1.825000X0.850000*%
%ADD53C,1.400000*%
%ADD54R,3.500000X3.500000*%
%ADD55C,3.500000*%
%ADD56RoundRect,0.250000X-1.100000X0.412500X-1.100000X-0.412500X1.100000X-0.412500X1.100000X0.412500X0*%
%ADD57RoundRect,0.381000X-0.381000X0.381000X-0.381000X-0.381000X0.381000X-0.381000X0.381000X0.381000X0*%
%ADD58C,1.524000*%
%ADD59RoundRect,0.237500X-0.237500X0.250000X-0.237500X-0.250000X0.237500X-0.250000X0.237500X0.250000X0*%
%ADD60RoundRect,0.150000X-0.150000X0.675000X-0.150000X-0.675000X0.150000X-0.675000X0.150000X0.675000X0*%
%ADD61RoundRect,0.237500X0.250000X0.237500X-0.250000X0.237500X-0.250000X-0.237500X0.250000X-0.237500X0*%
%ADD62RoundRect,0.237500X-0.035355X-0.371231X0.371231X0.035355X0.035355X0.371231X-0.371231X-0.035355X0*%
%ADD63R,0.800000X1.900000*%
%ADD64RoundRect,0.150000X0.150000X-0.675000X0.150000X0.675000X-0.150000X0.675000X-0.150000X-0.675000X0*%
%ADD65R,0.850000X2.225000*%
%ADD66R,0.850000X1.825000*%
%ADD67R,4.700000X3.750000*%
%ADD68RoundRect,0.135000X-0.185000X0.135000X-0.185000X-0.135000X0.185000X-0.135000X0.185000X0.135000X0*%
%ADD69RoundRect,0.140000X0.140000X0.170000X-0.140000X0.170000X-0.140000X-0.170000X0.140000X-0.170000X0*%
%ADD70R,1.700000X1.700000*%
%ADD71O,1.700000X1.700000*%
%ADD72R,1.200000X2.200000*%
%ADD73R,5.800000X6.400000*%
%ADD74RoundRect,0.250000X0.675000X-0.600000X0.675000X0.600000X-0.675000X0.600000X-0.675000X-0.600000X0*%
%ADD75O,1.850000X1.700000*%
%ADD76RoundRect,0.140000X-0.021213X0.219203X-0.219203X0.021213X0.021213X-0.219203X0.219203X-0.021213X0*%
%ADD77RoundRect,0.140000X-0.219203X-0.021213X-0.021213X-0.219203X0.219203X0.021213X0.021213X0.219203X0*%
%ADD78RoundRect,0.237500X0.237500X-0.287500X0.237500X0.287500X-0.237500X0.287500X-0.237500X-0.287500X0*%
%ADD79RoundRect,0.150000X-0.675000X-0.150000X0.675000X-0.150000X0.675000X0.150000X-0.675000X0.150000X0*%
%ADD80RoundRect,0.250001X-1.999999X-0.799999X1.999999X-0.799999X1.999999X0.799999X-1.999999X0.799999X0*%
%ADD81R,2.600000X3.400000*%
%ADD82R,2.000000X1.500000*%
%ADD83RoundRect,0.425000X0.425000X0.425000X-0.425000X0.425000X-0.425000X-0.425000X0.425000X-0.425000X0*%
%ADD84RoundRect,0.140000X-0.140000X-0.170000X0.140000X-0.170000X0.140000X0.170000X-0.140000X0.170000X0*%
%ADD85RoundRect,0.381000X-0.381000X-0.381000X0.381000X-0.381000X0.381000X0.381000X-0.381000X0.381000X0*%
%ADD86RoundRect,0.250000X-0.337500X-0.475000X0.337500X-0.475000X0.337500X0.475000X-0.337500X0.475000X0*%
%ADD87R,0.800000X1.800000*%
%ADD88C,1.600000*%
%ADD89HorizOval,1.600000X0.000000X0.000000X0.000000X0.000000X0*%
G04 APERTURE END LIST*
D10*
X192366666Y-91087380D02*
X192366666Y-90087380D01*
X192604761Y-90087380D01*
X192747619Y-90135000D01*
X192842857Y-90230238D01*
X192890476Y-90325476D01*
X192938095Y-90515952D01*
X192938095Y-90658809D01*
X192890476Y-90849285D01*
X192842857Y-90944523D01*
X192747619Y-91039761D01*
X192604761Y-91087380D01*
X192366666Y-91087380D01*
X193747619Y-91039761D02*
X193652380Y-91087380D01*
X193461904Y-91087380D01*
X193366666Y-91039761D01*
X193319047Y-90944523D01*
X193319047Y-90563571D01*
X193366666Y-90468333D01*
X193461904Y-90420714D01*
X193652380Y-90420714D01*
X193747619Y-90468333D01*
X193795238Y-90563571D01*
X193795238Y-90658809D01*
X193319047Y-90754047D01*
X194176190Y-91039761D02*
X194271428Y-91087380D01*
X194461904Y-91087380D01*
X194557142Y-91039761D01*
X194604761Y-90944523D01*
X194604761Y-90896904D01*
X194557142Y-90801666D01*
X194461904Y-90754047D01*
X194319047Y-90754047D01*
X194223809Y-90706428D01*
X194176190Y-90611190D01*
X194176190Y-90563571D01*
X194223809Y-90468333D01*
X194319047Y-90420714D01*
X194461904Y-90420714D01*
X194557142Y-90468333D01*
X195033333Y-91087380D02*
X195033333Y-90420714D01*
X195033333Y-90087380D02*
X194985714Y-90135000D01*
X195033333Y-90182619D01*
X195080952Y-90135000D01*
X195033333Y-90087380D01*
X195033333Y-90182619D01*
X195938095Y-90420714D02*
X195938095Y-91230238D01*
X195890476Y-91325476D01*
X195842857Y-91373095D01*
X195747619Y-91420714D01*
X195604761Y-91420714D01*
X195509523Y-91373095D01*
X195938095Y-91039761D02*
X195842857Y-91087380D01*
X195652380Y-91087380D01*
X195557142Y-91039761D01*
X195509523Y-90992142D01*
X195461904Y-90896904D01*
X195461904Y-90611190D01*
X195509523Y-90515952D01*
X195557142Y-90468333D01*
X195652380Y-90420714D01*
X195842857Y-90420714D01*
X195938095Y-90468333D01*
X196414285Y-90420714D02*
X196414285Y-91087380D01*
X196414285Y-90515952D02*
X196461904Y-90468333D01*
X196557142Y-90420714D01*
X196700000Y-90420714D01*
X196795238Y-90468333D01*
X196842857Y-90563571D01*
X196842857Y-91087380D01*
X197700000Y-91039761D02*
X197604761Y-91087380D01*
X197414285Y-91087380D01*
X197319047Y-91039761D01*
X197271428Y-90944523D01*
X197271428Y-90563571D01*
X197319047Y-90468333D01*
X197414285Y-90420714D01*
X197604761Y-90420714D01*
X197700000Y-90468333D01*
X197747619Y-90563571D01*
X197747619Y-90658809D01*
X197271428Y-90754047D01*
X198604761Y-91087380D02*
X198604761Y-90087380D01*
X198604761Y-91039761D02*
X198509523Y-91087380D01*
X198319047Y-91087380D01*
X198223809Y-91039761D01*
X198176190Y-90992142D01*
X198128571Y-90896904D01*
X198128571Y-90611190D01*
X198176190Y-90515952D01*
X198223809Y-90468333D01*
X198319047Y-90420714D01*
X198509523Y-90420714D01*
X198604761Y-90468333D01*
X199842857Y-91087380D02*
X199842857Y-90087380D01*
X199842857Y-90468333D02*
X199938095Y-90420714D01*
X200128571Y-90420714D01*
X200223809Y-90468333D01*
X200271428Y-90515952D01*
X200319047Y-90611190D01*
X200319047Y-90896904D01*
X200271428Y-90992142D01*
X200223809Y-91039761D01*
X200128571Y-91087380D01*
X199938095Y-91087380D01*
X199842857Y-91039761D01*
X200652380Y-90420714D02*
X200890476Y-91087380D01*
X201128571Y-90420714D02*
X200890476Y-91087380D01*
X200795238Y-91325476D01*
X200747619Y-91373095D01*
X200652380Y-91420714D01*
X191009523Y-92221190D02*
X190961904Y-92173571D01*
X190866666Y-92125952D01*
X190771428Y-92125952D01*
X190676190Y-92173571D01*
X190628571Y-92221190D01*
X190580952Y-92316428D01*
X190580952Y-92411666D01*
X190628571Y-92506904D01*
X190676190Y-92554523D01*
X190771428Y-92602142D01*
X190866666Y-92602142D01*
X190961904Y-92554523D01*
X191009523Y-92506904D01*
X191009523Y-92125952D02*
X191009523Y-92506904D01*
X191057142Y-92554523D01*
X191104761Y-92554523D01*
X191200000Y-92506904D01*
X191247619Y-92411666D01*
X191247619Y-92173571D01*
X191152380Y-92030714D01*
X191009523Y-91935476D01*
X190819047Y-91887857D01*
X190628571Y-91935476D01*
X190485714Y-92030714D01*
X190390476Y-92173571D01*
X190342857Y-92364047D01*
X190390476Y-92554523D01*
X190485714Y-92697380D01*
X190628571Y-92792619D01*
X190819047Y-92840238D01*
X191009523Y-92792619D01*
X191152380Y-92697380D01*
X192104761Y-92649761D02*
X192009523Y-92697380D01*
X191819047Y-92697380D01*
X191723809Y-92649761D01*
X191676190Y-92602142D01*
X191628571Y-92506904D01*
X191628571Y-92221190D01*
X191676190Y-92125952D01*
X191723809Y-92078333D01*
X191819047Y-92030714D01*
X192009523Y-92030714D01*
X192104761Y-92078333D01*
X192961904Y-92697380D02*
X192961904Y-92173571D01*
X192914285Y-92078333D01*
X192819047Y-92030714D01*
X192628571Y-92030714D01*
X192533333Y-92078333D01*
X192961904Y-92649761D02*
X192866666Y-92697380D01*
X192628571Y-92697380D01*
X192533333Y-92649761D01*
X192485714Y-92554523D01*
X192485714Y-92459285D01*
X192533333Y-92364047D01*
X192628571Y-92316428D01*
X192866666Y-92316428D01*
X192961904Y-92268809D01*
X193295238Y-92030714D02*
X193676190Y-92030714D01*
X193438095Y-91697380D02*
X193438095Y-92554523D01*
X193485714Y-92649761D01*
X193580952Y-92697380D01*
X193676190Y-92697380D01*
X193771428Y-92792619D02*
X194533333Y-92792619D01*
X194771428Y-92030714D02*
X194771428Y-92697380D01*
X194771428Y-92125952D02*
X194819047Y-92078333D01*
X194914285Y-92030714D01*
X195057142Y-92030714D01*
X195152380Y-92078333D01*
X195200000Y-92173571D01*
X195200000Y-92697380D01*
X196057142Y-92649761D02*
X195961904Y-92697380D01*
X195771428Y-92697380D01*
X195676190Y-92649761D01*
X195628571Y-92554523D01*
X195628571Y-92173571D01*
X195676190Y-92078333D01*
X195771428Y-92030714D01*
X195961904Y-92030714D01*
X196057142Y-92078333D01*
X196104761Y-92173571D01*
X196104761Y-92268809D01*
X195628571Y-92364047D01*
X196533333Y-92697380D02*
X196533333Y-91697380D01*
X196628571Y-92316428D02*
X196914285Y-92697380D01*
X196914285Y-92030714D02*
X196533333Y-92411666D01*
X197485714Y-92697380D02*
X197390476Y-92649761D01*
X197342857Y-92602142D01*
X197295238Y-92506904D01*
X197295238Y-92221190D01*
X197342857Y-92125952D01*
X197390476Y-92078333D01*
X197485714Y-92030714D01*
X197628571Y-92030714D01*
X197723809Y-92078333D01*
X197771428Y-92125952D01*
X197819047Y-92221190D01*
X197819047Y-92506904D01*
X197771428Y-92602142D01*
X197723809Y-92649761D01*
X197628571Y-92697380D01*
X197485714Y-92697380D01*
X198247619Y-92030714D02*
X198247619Y-92697380D01*
X198247619Y-92125952D02*
X198295238Y-92078333D01*
X198390476Y-92030714D01*
X198533333Y-92030714D01*
X198628571Y-92078333D01*
X198676190Y-92173571D01*
X198676190Y-92697380D01*
X199533333Y-92649761D02*
X199438095Y-92697380D01*
X199247619Y-92697380D01*
X199152380Y-92649761D01*
X199104761Y-92554523D01*
X199104761Y-92173571D01*
X199152380Y-92078333D01*
X199247619Y-92030714D01*
X199438095Y-92030714D01*
X199533333Y-92078333D01*
X199580952Y-92173571D01*
X199580952Y-92268809D01*
X199104761Y-92364047D01*
X200009523Y-92697380D02*
X200009523Y-91697380D01*
X200104761Y-92316428D02*
X200390476Y-92697380D01*
X200390476Y-92030714D02*
X200009523Y-92411666D01*
X200961904Y-92697380D02*
X200866666Y-92649761D01*
X200819047Y-92602142D01*
X200771428Y-92506904D01*
X200771428Y-92221190D01*
X200819047Y-92125952D01*
X200866666Y-92078333D01*
X200961904Y-92030714D01*
X201104761Y-92030714D01*
X201200000Y-92078333D01*
X201247619Y-92125952D01*
X201295238Y-92221190D01*
X201295238Y-92506904D01*
X201247619Y-92602142D01*
X201200000Y-92649761D01*
X201104761Y-92697380D01*
X200961904Y-92697380D01*
X201723809Y-92030714D02*
X201723809Y-92697380D01*
X201723809Y-92125952D02*
X201771428Y-92078333D01*
X201866666Y-92030714D01*
X202009523Y-92030714D01*
X202104761Y-92078333D01*
X202152380Y-92173571D01*
X202152380Y-92697380D01*
X203009523Y-92649761D02*
X202914285Y-92697380D01*
X202723809Y-92697380D01*
X202628571Y-92649761D01*
X202580952Y-92554523D01*
X202580952Y-92173571D01*
X202628571Y-92078333D01*
X202723809Y-92030714D01*
X202914285Y-92030714D01*
X203009523Y-92078333D01*
X203057142Y-92173571D01*
X203057142Y-92268809D01*
X202580952Y-92364047D01*
D11*
X190227142Y-87049047D02*
X191198571Y-87049047D01*
X190712857Y-88749047D02*
X190712857Y-87049047D01*
X192008095Y-88749047D02*
X191846190Y-88668095D01*
X191765238Y-88587142D01*
X191684285Y-88425238D01*
X191684285Y-87939523D01*
X191765238Y-87777619D01*
X191846190Y-87696666D01*
X192008095Y-87615714D01*
X192250952Y-87615714D01*
X192412857Y-87696666D01*
X192493809Y-87777619D01*
X192574761Y-87939523D01*
X192574761Y-88425238D01*
X192493809Y-88587142D01*
X192412857Y-88668095D01*
X192250952Y-88749047D01*
X192008095Y-88749047D01*
X193303333Y-88749047D02*
X193303333Y-87615714D01*
X193303333Y-87777619D02*
X193384285Y-87696666D01*
X193546190Y-87615714D01*
X193789047Y-87615714D01*
X193950952Y-87696666D01*
X194031904Y-87858571D01*
X194031904Y-88749047D01*
X194031904Y-87858571D02*
X194112857Y-87696666D01*
X194274761Y-87615714D01*
X194517619Y-87615714D01*
X194679523Y-87696666D01*
X194760476Y-87858571D01*
X194760476Y-88749047D01*
X195812857Y-88749047D02*
X195650952Y-88668095D01*
X195570000Y-88587142D01*
X195489047Y-88425238D01*
X195489047Y-87939523D01*
X195570000Y-87777619D01*
X195650952Y-87696666D01*
X195812857Y-87615714D01*
X196055714Y-87615714D01*
X196217619Y-87696666D01*
X196298571Y-87777619D01*
X196379523Y-87939523D01*
X196379523Y-88425238D01*
X196298571Y-88587142D01*
X196217619Y-88668095D01*
X196055714Y-88749047D01*
X195812857Y-88749047D01*
X197027142Y-88668095D02*
X197189047Y-88749047D01*
X197512857Y-88749047D01*
X197674761Y-88668095D01*
X197755714Y-88506190D01*
X197755714Y-88425238D01*
X197674761Y-88263333D01*
X197512857Y-88182380D01*
X197270000Y-88182380D01*
X197108095Y-88101428D01*
X197027142Y-87939523D01*
X197027142Y-87858571D01*
X197108095Y-87696666D01*
X197270000Y-87615714D01*
X197512857Y-87615714D01*
X197674761Y-87696666D01*
X198484285Y-88749047D02*
X198484285Y-87049047D01*
X199212857Y-88749047D02*
X199212857Y-87858571D01*
X199131904Y-87696666D01*
X198970000Y-87615714D01*
X198727142Y-87615714D01*
X198565238Y-87696666D01*
X198484285Y-87777619D01*
X200022380Y-88749047D02*
X200022380Y-87615714D01*
X200022380Y-87049047D02*
X199941428Y-87130000D01*
X200022380Y-87210952D01*
X200103333Y-87130000D01*
X200022380Y-87049047D01*
X200022380Y-87210952D01*
X200831904Y-88749047D02*
X200831904Y-87049047D01*
X200831904Y-87696666D02*
X200993809Y-87615714D01*
X201317619Y-87615714D01*
X201479523Y-87696666D01*
X201560476Y-87777619D01*
X201641428Y-87939523D01*
X201641428Y-88425238D01*
X201560476Y-88587142D01*
X201479523Y-88668095D01*
X201317619Y-88749047D01*
X200993809Y-88749047D01*
X200831904Y-88668095D01*
X202370000Y-88749047D02*
X202370000Y-87615714D01*
X202370000Y-87049047D02*
X202289047Y-87130000D01*
X202370000Y-87210952D01*
X202450952Y-87130000D01*
X202370000Y-87049047D01*
X202370000Y-87210952D01*
D12*
X196209047Y-81197619D02*
X198304285Y-81197619D01*
X195947142Y-83554761D02*
X198828095Y-83554761D01*
X195161428Y-85388095D02*
X199351904Y-85388095D01*
X195947142Y-82245238D02*
X195947142Y-83554761D01*
X195947142Y-82245238D02*
X198828095Y-82245238D01*
X198828095Y-83554761D01*
X194113809Y-79364285D02*
X194113809Y-83292857D01*
X195161428Y-84340476D01*
X197780476Y-80150000D02*
X199351904Y-81721428D01*
X199351904Y-80150000D02*
X198304285Y-80673809D01*
X195685238Y-80150000D02*
X196209047Y-80673809D01*
X194899523Y-81983333D01*
X198566190Y-79364285D02*
X197780476Y-80150000D01*
X196470952Y-84078571D02*
X196470952Y-84864285D01*
X197518571Y-79102380D02*
X198042380Y-80673809D01*
X198304285Y-83816666D02*
X197780476Y-84864285D01*
X194899523Y-80411904D02*
X194375714Y-81459523D01*
X193851904Y-83292857D02*
X193066190Y-85388095D01*
X195423333Y-79626190D02*
X196994761Y-79364285D01*
X196209047Y-80935714D01*
X193328095Y-80673809D02*
X192804285Y-81983333D01*
X194113809Y-81983333D02*
X193590000Y-84602380D01*
D10*
X134460952Y-111492380D02*
X134460952Y-112206666D01*
X134413333Y-112349523D01*
X134318095Y-112444761D01*
X134175238Y-112492380D01*
X134080000Y-112492380D01*
X135413333Y-112492380D02*
X134937142Y-112492380D01*
X134937142Y-111492380D01*
X136318095Y-112397142D02*
X136270476Y-112444761D01*
X136127619Y-112492380D01*
X136032380Y-112492380D01*
X135889523Y-112444761D01*
X135794285Y-112349523D01*
X135746666Y-112254285D01*
X135699047Y-112063809D01*
X135699047Y-111920952D01*
X135746666Y-111730476D01*
X135794285Y-111635238D01*
X135889523Y-111540000D01*
X136032380Y-111492380D01*
X136127619Y-111492380D01*
X136270476Y-111540000D01*
X136318095Y-111587619D01*
X137032380Y-111492380D02*
X137032380Y-112206666D01*
X136984761Y-112349523D01*
X136889523Y-112444761D01*
X136746666Y-112492380D01*
X136651428Y-112492380D01*
X137984761Y-112492380D02*
X137508571Y-112492380D01*
X137508571Y-111492380D01*
X138889523Y-112397142D02*
X138841904Y-112444761D01*
X138699047Y-112492380D01*
X138603809Y-112492380D01*
X138460952Y-112444761D01*
X138365714Y-112349523D01*
X138318095Y-112254285D01*
X138270476Y-112063809D01*
X138270476Y-111920952D01*
X138318095Y-111730476D01*
X138365714Y-111635238D01*
X138460952Y-111540000D01*
X138603809Y-111492380D01*
X138699047Y-111492380D01*
X138841904Y-111540000D01*
X138889523Y-111587619D01*
X139603809Y-111492380D02*
X139603809Y-112206666D01*
X139556190Y-112349523D01*
X139460952Y-112444761D01*
X139318095Y-112492380D01*
X139222857Y-112492380D01*
X140556190Y-112492380D02*
X140080000Y-112492380D01*
X140080000Y-111492380D01*
X141460952Y-112397142D02*
X141413333Y-112444761D01*
X141270476Y-112492380D01*
X141175238Y-112492380D01*
X141032380Y-112444761D01*
X140937142Y-112349523D01*
X140889523Y-112254285D01*
X140841904Y-112063809D01*
X140841904Y-111920952D01*
X140889523Y-111730476D01*
X140937142Y-111635238D01*
X141032380Y-111540000D01*
X141175238Y-111492380D01*
X141270476Y-111492380D01*
X141413333Y-111540000D01*
X141460952Y-111587619D01*
X142175238Y-111492380D02*
X142175238Y-112206666D01*
X142127619Y-112349523D01*
X142032380Y-112444761D01*
X141889523Y-112492380D01*
X141794285Y-112492380D01*
X143127619Y-112492380D02*
X142651428Y-112492380D01*
X142651428Y-111492380D01*
X144032380Y-112397142D02*
X143984761Y-112444761D01*
X143841904Y-112492380D01*
X143746666Y-112492380D01*
X143603809Y-112444761D01*
X143508571Y-112349523D01*
X143460952Y-112254285D01*
X143413333Y-112063809D01*
X143413333Y-111920952D01*
X143460952Y-111730476D01*
X143508571Y-111635238D01*
X143603809Y-111540000D01*
X143746666Y-111492380D01*
X143841904Y-111492380D01*
X143984761Y-111540000D01*
X144032380Y-111587619D01*
D11*
X115520000Y-111767285D02*
X115520000Y-109967285D01*
X116205714Y-109967285D01*
X116377142Y-110053000D01*
X116462857Y-110138714D01*
X116548571Y-110310142D01*
X116548571Y-110567285D01*
X116462857Y-110738714D01*
X116377142Y-110824428D01*
X116205714Y-110910142D01*
X115520000Y-110910142D01*
X117234285Y-111253000D02*
X118091428Y-111253000D01*
X117062857Y-111767285D02*
X117662857Y-109967285D01*
X118262857Y-111767285D01*
X118691428Y-109967285D02*
X119891428Y-109967285D01*
X119120000Y-111767285D01*
X115391428Y-114665285D02*
X115391428Y-112865285D01*
X116077142Y-112865285D01*
X116248571Y-112951000D01*
X116334285Y-113036714D01*
X116420000Y-113208142D01*
X116420000Y-113465285D01*
X116334285Y-113636714D01*
X116248571Y-113722428D01*
X116077142Y-113808142D01*
X115391428Y-113808142D01*
X117791428Y-113722428D02*
X118048571Y-113808142D01*
X118134285Y-113893857D01*
X118220000Y-114065285D01*
X118220000Y-114322428D01*
X118134285Y-114493857D01*
X118048571Y-114579571D01*
X117877142Y-114665285D01*
X117191428Y-114665285D01*
X117191428Y-112865285D01*
X117791428Y-112865285D01*
X117962857Y-112951000D01*
X118048571Y-113036714D01*
X118134285Y-113208142D01*
X118134285Y-113379571D01*
X118048571Y-113551000D01*
X117962857Y-113636714D01*
X117791428Y-113722428D01*
X117191428Y-113722428D01*
X119334285Y-112865285D02*
X119505714Y-112865285D01*
X119677142Y-112951000D01*
X119762857Y-113036714D01*
X119848571Y-113208142D01*
X119934285Y-113551000D01*
X119934285Y-113979571D01*
X119848571Y-114322428D01*
X119762857Y-114493857D01*
X119677142Y-114579571D01*
X119505714Y-114665285D01*
X119334285Y-114665285D01*
X119162857Y-114579571D01*
X119077142Y-114493857D01*
X118991428Y-114322428D01*
X118905714Y-113979571D01*
X118905714Y-113551000D01*
X118991428Y-113208142D01*
X119077142Y-113036714D01*
X119162857Y-112951000D01*
X119334285Y-112865285D01*
X115391428Y-117563285D02*
X115391428Y-115763285D01*
X116077142Y-115763285D01*
X116248571Y-115849000D01*
X116334285Y-115934714D01*
X116420000Y-116106142D01*
X116420000Y-116363285D01*
X116334285Y-116534714D01*
X116248571Y-116620428D01*
X116077142Y-116706142D01*
X115391428Y-116706142D01*
X117791428Y-116620428D02*
X118048571Y-116706142D01*
X118134285Y-116791857D01*
X118220000Y-116963285D01*
X118220000Y-117220428D01*
X118134285Y-117391857D01*
X118048571Y-117477571D01*
X117877142Y-117563285D01*
X117191428Y-117563285D01*
X117191428Y-115763285D01*
X117791428Y-115763285D01*
X117962857Y-115849000D01*
X118048571Y-115934714D01*
X118134285Y-116106142D01*
X118134285Y-116277571D01*
X118048571Y-116449000D01*
X117962857Y-116534714D01*
X117791428Y-116620428D01*
X117191428Y-116620428D01*
X119934285Y-117563285D02*
X118905714Y-117563285D01*
X119420000Y-117563285D02*
X119420000Y-115763285D01*
X119248571Y-116020428D01*
X119077142Y-116191857D01*
X118905714Y-116277571D01*
X115391428Y-120461285D02*
X115391428Y-118661285D01*
X116077142Y-118661285D01*
X116248571Y-118747000D01*
X116334285Y-118832714D01*
X116420000Y-119004142D01*
X116420000Y-119261285D01*
X116334285Y-119432714D01*
X116248571Y-119518428D01*
X116077142Y-119604142D01*
X115391428Y-119604142D01*
X117791428Y-119518428D02*
X118048571Y-119604142D01*
X118134285Y-119689857D01*
X118220000Y-119861285D01*
X118220000Y-120118428D01*
X118134285Y-120289857D01*
X118048571Y-120375571D01*
X117877142Y-120461285D01*
X117191428Y-120461285D01*
X117191428Y-118661285D01*
X117791428Y-118661285D01*
X117962857Y-118747000D01*
X118048571Y-118832714D01*
X118134285Y-119004142D01*
X118134285Y-119175571D01*
X118048571Y-119347000D01*
X117962857Y-119432714D01*
X117791428Y-119518428D01*
X117191428Y-119518428D01*
X119848571Y-118661285D02*
X118991428Y-118661285D01*
X118905714Y-119518428D01*
X118991428Y-119432714D01*
X119162857Y-119347000D01*
X119591428Y-119347000D01*
X119762857Y-119432714D01*
X119848571Y-119518428D01*
X119934285Y-119689857D01*
X119934285Y-120118428D01*
X119848571Y-120289857D01*
X119762857Y-120375571D01*
X119591428Y-120461285D01*
X119162857Y-120461285D01*
X118991428Y-120375571D01*
X118905714Y-120289857D01*
X105792857Y-79914285D02*
X105792857Y-78114285D01*
X106821428Y-79914285D01*
X106821428Y-78114285D01*
X108707142Y-79914285D02*
X108107142Y-79057142D01*
X107678571Y-79914285D02*
X107678571Y-78114285D01*
X108364285Y-78114285D01*
X108535714Y-78200000D01*
X108621428Y-78285714D01*
X108707142Y-78457142D01*
X108707142Y-78714285D01*
X108621428Y-78885714D01*
X108535714Y-78971428D01*
X108364285Y-79057142D01*
X107678571Y-79057142D01*
X109392857Y-79828571D02*
X109650000Y-79914285D01*
X110078571Y-79914285D01*
X110250000Y-79828571D01*
X110335714Y-79742857D01*
X110421428Y-79571428D01*
X110421428Y-79400000D01*
X110335714Y-79228571D01*
X110250000Y-79142857D01*
X110078571Y-79057142D01*
X109735714Y-78971428D01*
X109564285Y-78885714D01*
X109478571Y-78800000D01*
X109392857Y-78628571D01*
X109392857Y-78457142D01*
X109478571Y-78285714D01*
X109564285Y-78200000D01*
X109735714Y-78114285D01*
X110164285Y-78114285D01*
X110421428Y-78200000D01*
X110935714Y-78114285D02*
X111964285Y-78114285D01*
X111450000Y-79914285D02*
X111450000Y-78114285D01*
D13*
X212120000Y-89047142D02*
X213262857Y-89047142D01*
X212691428Y-89618571D02*
X212691428Y-88475714D01*
X213834285Y-88118571D02*
X214762857Y-88118571D01*
X214262857Y-88690000D01*
X214477142Y-88690000D01*
X214620000Y-88761428D01*
X214691428Y-88832857D01*
X214762857Y-88975714D01*
X214762857Y-89332857D01*
X214691428Y-89475714D01*
X214620000Y-89547142D01*
X214477142Y-89618571D01*
X214048571Y-89618571D01*
X213905714Y-89547142D01*
X213834285Y-89475714D01*
X215405714Y-89475714D02*
X215477142Y-89547142D01*
X215405714Y-89618571D01*
X215334285Y-89547142D01*
X215405714Y-89475714D01*
X215405714Y-89618571D01*
X215977142Y-88118571D02*
X216905714Y-88118571D01*
X216405714Y-88690000D01*
X216620000Y-88690000D01*
X216762857Y-88761428D01*
X216834285Y-88832857D01*
X216905714Y-88975714D01*
X216905714Y-89332857D01*
X216834285Y-89475714D01*
X216762857Y-89547142D01*
X216620000Y-89618571D01*
X216191428Y-89618571D01*
X216048571Y-89547142D01*
X215977142Y-89475714D01*
X217334285Y-88118571D02*
X217834285Y-89618571D01*
X218334285Y-88118571D01*
D11*
X97600000Y-102094285D02*
X97600000Y-100294285D01*
X98285714Y-100294285D01*
X98457142Y-100380000D01*
X98542857Y-100465714D01*
X98628571Y-100637142D01*
X98628571Y-100894285D01*
X98542857Y-101065714D01*
X98457142Y-101151428D01*
X98285714Y-101237142D01*
X97600000Y-101237142D01*
X99314285Y-101580000D02*
X100171428Y-101580000D01*
X99142857Y-102094285D02*
X99742857Y-100294285D01*
X100342857Y-102094285D01*
X101800000Y-100294285D02*
X100942857Y-100294285D01*
X100857142Y-101151428D01*
X100942857Y-101065714D01*
X101114285Y-100980000D01*
X101542857Y-100980000D01*
X101714285Y-101065714D01*
X101800000Y-101151428D01*
X101885714Y-101322857D01*
X101885714Y-101751428D01*
X101800000Y-101922857D01*
X101714285Y-102008571D01*
X101542857Y-102094285D01*
X101114285Y-102094285D01*
X100942857Y-102008571D01*
X100857142Y-101922857D01*
X121440000Y-103034285D02*
X121440000Y-101234285D01*
X122125714Y-101234285D01*
X122297142Y-101320000D01*
X122382857Y-101405714D01*
X122468571Y-101577142D01*
X122468571Y-101834285D01*
X122382857Y-102005714D01*
X122297142Y-102091428D01*
X122125714Y-102177142D01*
X121440000Y-102177142D01*
X123154285Y-102520000D02*
X124011428Y-102520000D01*
X122982857Y-103034285D02*
X123582857Y-101234285D01*
X124182857Y-103034285D01*
X125725714Y-103034285D02*
X124697142Y-103034285D01*
X125211428Y-103034285D02*
X125211428Y-101234285D01*
X125040000Y-101491428D01*
X124868571Y-101662857D01*
X124697142Y-101748571D01*
X115331428Y-126914285D02*
X115331428Y-125114285D01*
X116017142Y-125114285D01*
X116188571Y-125200000D01*
X116274285Y-125285714D01*
X116360000Y-125457142D01*
X116360000Y-125714285D01*
X116274285Y-125885714D01*
X116188571Y-125971428D01*
X116017142Y-126057142D01*
X115331428Y-126057142D01*
X117731428Y-125971428D02*
X117988571Y-126057142D01*
X118074285Y-126142857D01*
X118160000Y-126314285D01*
X118160000Y-126571428D01*
X118074285Y-126742857D01*
X117988571Y-126828571D01*
X117817142Y-126914285D01*
X117131428Y-126914285D01*
X117131428Y-125114285D01*
X117731428Y-125114285D01*
X117902857Y-125200000D01*
X117988571Y-125285714D01*
X118074285Y-125457142D01*
X118074285Y-125628571D01*
X117988571Y-125800000D01*
X117902857Y-125885714D01*
X117731428Y-125971428D01*
X117131428Y-125971428D01*
X119702857Y-125714285D02*
X119702857Y-126914285D01*
X119274285Y-125028571D02*
X118845714Y-126314285D01*
X119960000Y-126314285D01*
D10*
X167326666Y-117812380D02*
X167660000Y-118812380D01*
X167993333Y-117812380D01*
X168898095Y-118717142D02*
X168850476Y-118764761D01*
X168707619Y-118812380D01*
X168612380Y-118812380D01*
X168469523Y-118764761D01*
X168374285Y-118669523D01*
X168326666Y-118574285D01*
X168279047Y-118383809D01*
X168279047Y-118240952D01*
X168326666Y-118050476D01*
X168374285Y-117955238D01*
X168469523Y-117860000D01*
X168612380Y-117812380D01*
X168707619Y-117812380D01*
X168850476Y-117860000D01*
X168898095Y-117907619D01*
X169898095Y-118717142D02*
X169850476Y-118764761D01*
X169707619Y-118812380D01*
X169612380Y-118812380D01*
X169469523Y-118764761D01*
X169374285Y-118669523D01*
X169326666Y-118574285D01*
X169279047Y-118383809D01*
X169279047Y-118240952D01*
X169326666Y-118050476D01*
X169374285Y-117955238D01*
X169469523Y-117860000D01*
X169612380Y-117812380D01*
X169707619Y-117812380D01*
X169850476Y-117860000D01*
X169898095Y-117907619D01*
D13*
X208237142Y-88380000D02*
X208094285Y-88308571D01*
X207880000Y-88308571D01*
X207665714Y-88380000D01*
X207522857Y-88522857D01*
X207451428Y-88665714D01*
X207380000Y-88951428D01*
X207380000Y-89165714D01*
X207451428Y-89451428D01*
X207522857Y-89594285D01*
X207665714Y-89737142D01*
X207880000Y-89808571D01*
X208022857Y-89808571D01*
X208237142Y-89737142D01*
X208308571Y-89665714D01*
X208308571Y-89165714D01*
X208022857Y-89165714D01*
X208951428Y-89808571D02*
X208951428Y-88308571D01*
X209808571Y-89808571D01*
X209808571Y-88308571D01*
X210522857Y-89808571D02*
X210522857Y-88308571D01*
X210880000Y-88308571D01*
X211094285Y-88380000D01*
X211237142Y-88522857D01*
X211308571Y-88665714D01*
X211380000Y-88951428D01*
X211380000Y-89165714D01*
X211308571Y-89451428D01*
X211237142Y-89594285D01*
X211094285Y-89737142D01*
X210880000Y-89808571D01*
X210522857Y-89808571D01*
X183390000Y-114228571D02*
X183890000Y-115728571D01*
X184390000Y-114228571D01*
X184890000Y-115728571D02*
X184890000Y-114228571D01*
X185247142Y-114228571D01*
X185461428Y-114300000D01*
X185604285Y-114442857D01*
X185675714Y-114585714D01*
X185747142Y-114871428D01*
X185747142Y-115085714D01*
X185675714Y-115371428D01*
X185604285Y-115514285D01*
X185461428Y-115657142D01*
X185247142Y-115728571D01*
X184890000Y-115728571D01*
X186390000Y-115728571D02*
X186390000Y-114228571D01*
X186747142Y-114228571D01*
X186961428Y-114300000D01*
X187104285Y-114442857D01*
X187175714Y-114585714D01*
X187247142Y-114871428D01*
X187247142Y-115085714D01*
X187175714Y-115371428D01*
X187104285Y-115514285D01*
X186961428Y-115657142D01*
X186747142Y-115728571D01*
X186390000Y-115728571D01*
D10*
X135569047Y-85192380D02*
X136140476Y-85192380D01*
X135854761Y-86192380D02*
X135854761Y-85192380D01*
X136854761Y-86144761D02*
X136759523Y-86192380D01*
X136569047Y-86192380D01*
X136473809Y-86144761D01*
X136426190Y-86049523D01*
X136426190Y-85668571D01*
X136473809Y-85573333D01*
X136569047Y-85525714D01*
X136759523Y-85525714D01*
X136854761Y-85573333D01*
X136902380Y-85668571D01*
X136902380Y-85763809D01*
X136426190Y-85859047D01*
X137330952Y-86192380D02*
X137330952Y-85525714D01*
X137330952Y-85716190D02*
X137378571Y-85620952D01*
X137426190Y-85573333D01*
X137521428Y-85525714D01*
X137616666Y-85525714D01*
X137950000Y-86192380D02*
X137950000Y-85525714D01*
X137950000Y-85620952D02*
X137997619Y-85573333D01*
X138092857Y-85525714D01*
X138235714Y-85525714D01*
X138330952Y-85573333D01*
X138378571Y-85668571D01*
X138378571Y-86192380D01*
X138378571Y-85668571D02*
X138426190Y-85573333D01*
X138521428Y-85525714D01*
X138664285Y-85525714D01*
X138759523Y-85573333D01*
X138807142Y-85668571D01*
X138807142Y-86192380D01*
X139283333Y-86192380D02*
X139283333Y-85525714D01*
X139283333Y-85192380D02*
X139235714Y-85240000D01*
X139283333Y-85287619D01*
X139330952Y-85240000D01*
X139283333Y-85192380D01*
X139283333Y-85287619D01*
X139759523Y-85525714D02*
X139759523Y-86192380D01*
X139759523Y-85620952D02*
X139807142Y-85573333D01*
X139902380Y-85525714D01*
X140045238Y-85525714D01*
X140140476Y-85573333D01*
X140188095Y-85668571D01*
X140188095Y-86192380D01*
X141092857Y-86192380D02*
X141092857Y-85668571D01*
X141045238Y-85573333D01*
X140950000Y-85525714D01*
X140759523Y-85525714D01*
X140664285Y-85573333D01*
X141092857Y-86144761D02*
X140997619Y-86192380D01*
X140759523Y-86192380D01*
X140664285Y-86144761D01*
X140616666Y-86049523D01*
X140616666Y-85954285D01*
X140664285Y-85859047D01*
X140759523Y-85811428D01*
X140997619Y-85811428D01*
X141092857Y-85763809D01*
X141426190Y-85525714D02*
X141807142Y-85525714D01*
X141569047Y-85192380D02*
X141569047Y-86049523D01*
X141616666Y-86144761D01*
X141711904Y-86192380D01*
X141807142Y-86192380D01*
X142283333Y-86192380D02*
X142188095Y-86144761D01*
X142140476Y-86097142D01*
X142092857Y-86001904D01*
X142092857Y-85716190D01*
X142140476Y-85620952D01*
X142188095Y-85573333D01*
X142283333Y-85525714D01*
X142426190Y-85525714D01*
X142521428Y-85573333D01*
X142569047Y-85620952D01*
X142616666Y-85716190D01*
X142616666Y-86001904D01*
X142569047Y-86097142D01*
X142521428Y-86144761D01*
X142426190Y-86192380D01*
X142283333Y-86192380D01*
X143045238Y-86192380D02*
X143045238Y-85525714D01*
X143045238Y-85716190D02*
X143092857Y-85620952D01*
X143140476Y-85573333D01*
X143235714Y-85525714D01*
X143330952Y-85525714D01*
D11*
X116640000Y-94481428D02*
X116897142Y-94567142D01*
X116982857Y-94652857D01*
X117068571Y-94824285D01*
X117068571Y-95081428D01*
X116982857Y-95252857D01*
X116897142Y-95338571D01*
X116725714Y-95424285D01*
X116040000Y-95424285D01*
X116040000Y-93624285D01*
X116640000Y-93624285D01*
X116811428Y-93710000D01*
X116897142Y-93795714D01*
X116982857Y-93967142D01*
X116982857Y-94138571D01*
X116897142Y-94310000D01*
X116811428Y-94395714D01*
X116640000Y-94481428D01*
X116040000Y-94481428D01*
X118182857Y-93624285D02*
X118525714Y-93624285D01*
X118697142Y-93710000D01*
X118868571Y-93881428D01*
X118954285Y-94224285D01*
X118954285Y-94824285D01*
X118868571Y-95167142D01*
X118697142Y-95338571D01*
X118525714Y-95424285D01*
X118182857Y-95424285D01*
X118011428Y-95338571D01*
X117840000Y-95167142D01*
X117754285Y-94824285D01*
X117754285Y-94224285D01*
X117840000Y-93881428D01*
X118011428Y-93710000D01*
X118182857Y-93624285D01*
X120068571Y-93624285D02*
X120411428Y-93624285D01*
X120582857Y-93710000D01*
X120754285Y-93881428D01*
X120840000Y-94224285D01*
X120840000Y-94824285D01*
X120754285Y-95167142D01*
X120582857Y-95338571D01*
X120411428Y-95424285D01*
X120068571Y-95424285D01*
X119897142Y-95338571D01*
X119725714Y-95167142D01*
X119640000Y-94824285D01*
X119640000Y-94224285D01*
X119725714Y-93881428D01*
X119897142Y-93710000D01*
X120068571Y-93624285D01*
X121354285Y-93624285D02*
X122382857Y-93624285D01*
X121868571Y-95424285D02*
X121868571Y-93624285D01*
X123325714Y-93624285D02*
X123497142Y-93624285D01*
X123668571Y-93710000D01*
X123754285Y-93795714D01*
X123840000Y-93967142D01*
X123925714Y-94310000D01*
X123925714Y-94738571D01*
X123840000Y-95081428D01*
X123754285Y-95252857D01*
X123668571Y-95338571D01*
X123497142Y-95424285D01*
X123325714Y-95424285D01*
X123154285Y-95338571D01*
X123068571Y-95252857D01*
X122982857Y-95081428D01*
X122897142Y-94738571D01*
X122897142Y-94310000D01*
X122982857Y-93967142D01*
X123068571Y-93795714D01*
X123154285Y-93710000D01*
X123325714Y-93624285D01*
D10*
X151211428Y-119415714D02*
X151211428Y-118653809D01*
X151592380Y-119034761D02*
X150830476Y-119034761D01*
X150592380Y-117701428D02*
X150592380Y-118177619D01*
X151068571Y-118225238D01*
X151020952Y-118177619D01*
X150973333Y-118082380D01*
X150973333Y-117844285D01*
X151020952Y-117749047D01*
X151068571Y-117701428D01*
X151163809Y-117653809D01*
X151401904Y-117653809D01*
X151497142Y-117701428D01*
X151544761Y-117749047D01*
X151592380Y-117844285D01*
X151592380Y-118082380D01*
X151544761Y-118177619D01*
X151497142Y-118225238D01*
X150592380Y-117368095D02*
X151592380Y-117034761D01*
X150592380Y-116701428D01*
D11*
X121430000Y-105794285D02*
X121430000Y-103994285D01*
X122115714Y-103994285D01*
X122287142Y-104080000D01*
X122372857Y-104165714D01*
X122458571Y-104337142D01*
X122458571Y-104594285D01*
X122372857Y-104765714D01*
X122287142Y-104851428D01*
X122115714Y-104937142D01*
X121430000Y-104937142D01*
X123144285Y-105280000D02*
X124001428Y-105280000D01*
X122972857Y-105794285D02*
X123572857Y-103994285D01*
X124172857Y-105794285D01*
X125115714Y-103994285D02*
X125287142Y-103994285D01*
X125458571Y-104080000D01*
X125544285Y-104165714D01*
X125630000Y-104337142D01*
X125715714Y-104680000D01*
X125715714Y-105108571D01*
X125630000Y-105451428D01*
X125544285Y-105622857D01*
X125458571Y-105708571D01*
X125287142Y-105794285D01*
X125115714Y-105794285D01*
X124944285Y-105708571D01*
X124858571Y-105622857D01*
X124772857Y-105451428D01*
X124687142Y-105108571D01*
X124687142Y-104680000D01*
X124772857Y-104337142D01*
X124858571Y-104165714D01*
X124944285Y-104080000D01*
X125115714Y-103994285D01*
X97530000Y-106524285D02*
X97530000Y-104724285D01*
X98215714Y-104724285D01*
X98387142Y-104810000D01*
X98472857Y-104895714D01*
X98558571Y-105067142D01*
X98558571Y-105324285D01*
X98472857Y-105495714D01*
X98387142Y-105581428D01*
X98215714Y-105667142D01*
X97530000Y-105667142D01*
X99244285Y-106010000D02*
X100101428Y-106010000D01*
X99072857Y-106524285D02*
X99672857Y-104724285D01*
X100272857Y-106524285D01*
X101644285Y-104724285D02*
X101301428Y-104724285D01*
X101130000Y-104810000D01*
X101044285Y-104895714D01*
X100872857Y-105152857D01*
X100787142Y-105495714D01*
X100787142Y-106181428D01*
X100872857Y-106352857D01*
X100958571Y-106438571D01*
X101130000Y-106524285D01*
X101472857Y-106524285D01*
X101644285Y-106438571D01*
X101730000Y-106352857D01*
X101815714Y-106181428D01*
X101815714Y-105752857D01*
X101730000Y-105581428D01*
X101644285Y-105495714D01*
X101472857Y-105410000D01*
X101130000Y-105410000D01*
X100958571Y-105495714D01*
X100872857Y-105581428D01*
X100787142Y-105752857D01*
D10*
%TO.C,U2*%
X137418095Y-96962380D02*
X137418095Y-97771904D01*
X137465714Y-97867142D01*
X137513333Y-97914761D01*
X137608571Y-97962380D01*
X137799047Y-97962380D01*
X137894285Y-97914761D01*
X137941904Y-97867142D01*
X137989523Y-97771904D01*
X137989523Y-96962380D01*
X138418095Y-97057619D02*
X138465714Y-97010000D01*
X138560952Y-96962380D01*
X138799047Y-96962380D01*
X138894285Y-97010000D01*
X138941904Y-97057619D01*
X138989523Y-97152857D01*
X138989523Y-97248095D01*
X138941904Y-97390952D01*
X138370476Y-97962380D01*
X138989523Y-97962380D01*
%TO.C,C32*%
X162197142Y-100217142D02*
X162149523Y-100264761D01*
X162006666Y-100312380D01*
X161911428Y-100312380D01*
X161768571Y-100264761D01*
X161673333Y-100169523D01*
X161625714Y-100074285D01*
X161578095Y-99883809D01*
X161578095Y-99740952D01*
X161625714Y-99550476D01*
X161673333Y-99455238D01*
X161768571Y-99360000D01*
X161911428Y-99312380D01*
X162006666Y-99312380D01*
X162149523Y-99360000D01*
X162197142Y-99407619D01*
X162530476Y-99312380D02*
X163149523Y-99312380D01*
X162816190Y-99693333D01*
X162959047Y-99693333D01*
X163054285Y-99740952D01*
X163101904Y-99788571D01*
X163149523Y-99883809D01*
X163149523Y-100121904D01*
X163101904Y-100217142D01*
X163054285Y-100264761D01*
X162959047Y-100312380D01*
X162673333Y-100312380D01*
X162578095Y-100264761D01*
X162530476Y-100217142D01*
X163530476Y-99407619D02*
X163578095Y-99360000D01*
X163673333Y-99312380D01*
X163911428Y-99312380D01*
X164006666Y-99360000D01*
X164054285Y-99407619D01*
X164101904Y-99502857D01*
X164101904Y-99598095D01*
X164054285Y-99740952D01*
X163482857Y-100312380D01*
X164101904Y-100312380D01*
D14*
%TO.C,D15*%
X197060000Y-121766666D02*
X197060000Y-121066666D01*
X197226666Y-121066666D01*
X197326666Y-121100000D01*
X197393333Y-121166666D01*
X197426666Y-121233333D01*
X197460000Y-121366666D01*
X197460000Y-121466666D01*
X197426666Y-121600000D01*
X197393333Y-121666666D01*
X197326666Y-121733333D01*
X197226666Y-121766666D01*
X197060000Y-121766666D01*
X198126666Y-121766666D02*
X197726666Y-121766666D01*
X197926666Y-121766666D02*
X197926666Y-121066666D01*
X197860000Y-121166666D01*
X197793333Y-121233333D01*
X197726666Y-121266666D01*
X198760000Y-121066666D02*
X198426666Y-121066666D01*
X198393333Y-121400000D01*
X198426666Y-121366666D01*
X198493333Y-121333333D01*
X198660000Y-121333333D01*
X198726666Y-121366666D01*
X198760000Y-121400000D01*
X198793333Y-121466666D01*
X198793333Y-121633333D01*
X198760000Y-121700000D01*
X198726666Y-121733333D01*
X198660000Y-121766666D01*
X198493333Y-121766666D01*
X198426666Y-121733333D01*
X198393333Y-121700000D01*
D10*
%TO.C,C13*%
X167937142Y-111787142D02*
X167889523Y-111834761D01*
X167746666Y-111882380D01*
X167651428Y-111882380D01*
X167508571Y-111834761D01*
X167413333Y-111739523D01*
X167365714Y-111644285D01*
X167318095Y-111453809D01*
X167318095Y-111310952D01*
X167365714Y-111120476D01*
X167413333Y-111025238D01*
X167508571Y-110930000D01*
X167651428Y-110882380D01*
X167746666Y-110882380D01*
X167889523Y-110930000D01*
X167937142Y-110977619D01*
X168889523Y-111882380D02*
X168318095Y-111882380D01*
X168603809Y-111882380D02*
X168603809Y-110882380D01*
X168508571Y-111025238D01*
X168413333Y-111120476D01*
X168318095Y-111168095D01*
X169222857Y-110882380D02*
X169841904Y-110882380D01*
X169508571Y-111263333D01*
X169651428Y-111263333D01*
X169746666Y-111310952D01*
X169794285Y-111358571D01*
X169841904Y-111453809D01*
X169841904Y-111691904D01*
X169794285Y-111787142D01*
X169746666Y-111834761D01*
X169651428Y-111882380D01*
X169365714Y-111882380D01*
X169270476Y-111834761D01*
X169222857Y-111787142D01*
%TO.C,R53*%
X201007142Y-99932380D02*
X200673809Y-99456190D01*
X200435714Y-99932380D02*
X200435714Y-98932380D01*
X200816666Y-98932380D01*
X200911904Y-98980000D01*
X200959523Y-99027619D01*
X201007142Y-99122857D01*
X201007142Y-99265714D01*
X200959523Y-99360952D01*
X200911904Y-99408571D01*
X200816666Y-99456190D01*
X200435714Y-99456190D01*
X201911904Y-98932380D02*
X201435714Y-98932380D01*
X201388095Y-99408571D01*
X201435714Y-99360952D01*
X201530952Y-99313333D01*
X201769047Y-99313333D01*
X201864285Y-99360952D01*
X201911904Y-99408571D01*
X201959523Y-99503809D01*
X201959523Y-99741904D01*
X201911904Y-99837142D01*
X201864285Y-99884761D01*
X201769047Y-99932380D01*
X201530952Y-99932380D01*
X201435714Y-99884761D01*
X201388095Y-99837142D01*
X202292857Y-98932380D02*
X202911904Y-98932380D01*
X202578571Y-99313333D01*
X202721428Y-99313333D01*
X202816666Y-99360952D01*
X202864285Y-99408571D01*
X202911904Y-99503809D01*
X202911904Y-99741904D01*
X202864285Y-99837142D01*
X202816666Y-99884761D01*
X202721428Y-99932380D01*
X202435714Y-99932380D01*
X202340476Y-99884761D01*
X202292857Y-99837142D01*
%TO.C,R1*%
X107113333Y-126312380D02*
X106780000Y-125836190D01*
X106541904Y-126312380D02*
X106541904Y-125312380D01*
X106922857Y-125312380D01*
X107018095Y-125360000D01*
X107065714Y-125407619D01*
X107113333Y-125502857D01*
X107113333Y-125645714D01*
X107065714Y-125740952D01*
X107018095Y-125788571D01*
X106922857Y-125836190D01*
X106541904Y-125836190D01*
X108065714Y-126312380D02*
X107494285Y-126312380D01*
X107780000Y-126312380D02*
X107780000Y-125312380D01*
X107684761Y-125455238D01*
X107589523Y-125550476D01*
X107494285Y-125598095D01*
%TO.C,R37*%
X129477142Y-118212380D02*
X129143809Y-117736190D01*
X128905714Y-118212380D02*
X128905714Y-117212380D01*
X129286666Y-117212380D01*
X129381904Y-117260000D01*
X129429523Y-117307619D01*
X129477142Y-117402857D01*
X129477142Y-117545714D01*
X129429523Y-117640952D01*
X129381904Y-117688571D01*
X129286666Y-117736190D01*
X128905714Y-117736190D01*
X129810476Y-117212380D02*
X130429523Y-117212380D01*
X130096190Y-117593333D01*
X130239047Y-117593333D01*
X130334285Y-117640952D01*
X130381904Y-117688571D01*
X130429523Y-117783809D01*
X130429523Y-118021904D01*
X130381904Y-118117142D01*
X130334285Y-118164761D01*
X130239047Y-118212380D01*
X129953333Y-118212380D01*
X129858095Y-118164761D01*
X129810476Y-118117142D01*
X130762857Y-117212380D02*
X131429523Y-117212380D01*
X131000952Y-118212380D01*
D14*
%TO.C,C24*%
X198140000Y-101650000D02*
X198106666Y-101683333D01*
X198006666Y-101716666D01*
X197940000Y-101716666D01*
X197840000Y-101683333D01*
X197773333Y-101616666D01*
X197740000Y-101550000D01*
X197706666Y-101416666D01*
X197706666Y-101316666D01*
X197740000Y-101183333D01*
X197773333Y-101116666D01*
X197840000Y-101050000D01*
X197940000Y-101016666D01*
X198006666Y-101016666D01*
X198106666Y-101050000D01*
X198140000Y-101083333D01*
X198406666Y-101083333D02*
X198440000Y-101050000D01*
X198506666Y-101016666D01*
X198673333Y-101016666D01*
X198740000Y-101050000D01*
X198773333Y-101083333D01*
X198806666Y-101150000D01*
X198806666Y-101216666D01*
X198773333Y-101316666D01*
X198373333Y-101716666D01*
X198806666Y-101716666D01*
X199406666Y-101250000D02*
X199406666Y-101716666D01*
X199240000Y-100983333D02*
X199073333Y-101483333D01*
X199506666Y-101483333D01*
D10*
%TO.C,R47*%
X198027142Y-96907380D02*
X197693809Y-96431190D01*
X197455714Y-96907380D02*
X197455714Y-95907380D01*
X197836666Y-95907380D01*
X197931904Y-95955000D01*
X197979523Y-96002619D01*
X198027142Y-96097857D01*
X198027142Y-96240714D01*
X197979523Y-96335952D01*
X197931904Y-96383571D01*
X197836666Y-96431190D01*
X197455714Y-96431190D01*
X198884285Y-96240714D02*
X198884285Y-96907380D01*
X198646190Y-95859761D02*
X198408095Y-96574047D01*
X199027142Y-96574047D01*
X199312857Y-95907380D02*
X199979523Y-95907380D01*
X199550952Y-96907380D01*
D14*
%TO.C,D18*%
X209466666Y-105780000D02*
X208766666Y-105780000D01*
X208766666Y-105613333D01*
X208800000Y-105513333D01*
X208866666Y-105446666D01*
X208933333Y-105413333D01*
X209066666Y-105380000D01*
X209166666Y-105380000D01*
X209300000Y-105413333D01*
X209366666Y-105446666D01*
X209433333Y-105513333D01*
X209466666Y-105613333D01*
X209466666Y-105780000D01*
X209466666Y-104713333D02*
X209466666Y-105113333D01*
X209466666Y-104913333D02*
X208766666Y-104913333D01*
X208866666Y-104980000D01*
X208933333Y-105046666D01*
X208966666Y-105113333D01*
X209066666Y-104313333D02*
X209033333Y-104380000D01*
X209000000Y-104413333D01*
X208933333Y-104446666D01*
X208900000Y-104446666D01*
X208833333Y-104413333D01*
X208800000Y-104380000D01*
X208766666Y-104313333D01*
X208766666Y-104180000D01*
X208800000Y-104113333D01*
X208833333Y-104080000D01*
X208900000Y-104046666D01*
X208933333Y-104046666D01*
X209000000Y-104080000D01*
X209033333Y-104113333D01*
X209066666Y-104180000D01*
X209066666Y-104313333D01*
X209100000Y-104380000D01*
X209133333Y-104413333D01*
X209200000Y-104446666D01*
X209333333Y-104446666D01*
X209400000Y-104413333D01*
X209433333Y-104380000D01*
X209466666Y-104313333D01*
X209466666Y-104180000D01*
X209433333Y-104113333D01*
X209400000Y-104080000D01*
X209333333Y-104046666D01*
X209200000Y-104046666D01*
X209133333Y-104080000D01*
X209100000Y-104113333D01*
X209066666Y-104180000D01*
D10*
%TO.C,SW3*%
X108126666Y-128454761D02*
X108269523Y-128502380D01*
X108507619Y-128502380D01*
X108602857Y-128454761D01*
X108650476Y-128407142D01*
X108698095Y-128311904D01*
X108698095Y-128216666D01*
X108650476Y-128121428D01*
X108602857Y-128073809D01*
X108507619Y-128026190D01*
X108317142Y-127978571D01*
X108221904Y-127930952D01*
X108174285Y-127883333D01*
X108126666Y-127788095D01*
X108126666Y-127692857D01*
X108174285Y-127597619D01*
X108221904Y-127550000D01*
X108317142Y-127502380D01*
X108555238Y-127502380D01*
X108698095Y-127550000D01*
X109031428Y-127502380D02*
X109269523Y-128502380D01*
X109460000Y-127788095D01*
X109650476Y-128502380D01*
X109888571Y-127502380D01*
X110174285Y-127502380D02*
X110793333Y-127502380D01*
X110460000Y-127883333D01*
X110602857Y-127883333D01*
X110698095Y-127930952D01*
X110745714Y-127978571D01*
X110793333Y-128073809D01*
X110793333Y-128311904D01*
X110745714Y-128407142D01*
X110698095Y-128454761D01*
X110602857Y-128502380D01*
X110317142Y-128502380D01*
X110221904Y-128454761D01*
X110174285Y-128407142D01*
%TO.C,SW4*%
X107856666Y-115104761D02*
X107999523Y-115152380D01*
X108237619Y-115152380D01*
X108332857Y-115104761D01*
X108380476Y-115057142D01*
X108428095Y-114961904D01*
X108428095Y-114866666D01*
X108380476Y-114771428D01*
X108332857Y-114723809D01*
X108237619Y-114676190D01*
X108047142Y-114628571D01*
X107951904Y-114580952D01*
X107904285Y-114533333D01*
X107856666Y-114438095D01*
X107856666Y-114342857D01*
X107904285Y-114247619D01*
X107951904Y-114200000D01*
X108047142Y-114152380D01*
X108285238Y-114152380D01*
X108428095Y-114200000D01*
X108761428Y-114152380D02*
X108999523Y-115152380D01*
X109190000Y-114438095D01*
X109380476Y-115152380D01*
X109618571Y-114152380D01*
X110428095Y-114485714D02*
X110428095Y-115152380D01*
X110190000Y-114104761D02*
X109951904Y-114819047D01*
X110570952Y-114819047D01*
%TO.C,J3*%
X150716666Y-79132380D02*
X150716666Y-79846666D01*
X150669047Y-79989523D01*
X150573809Y-80084761D01*
X150430952Y-80132380D01*
X150335714Y-80132380D01*
X151097619Y-79132380D02*
X151716666Y-79132380D01*
X151383333Y-79513333D01*
X151526190Y-79513333D01*
X151621428Y-79560952D01*
X151669047Y-79608571D01*
X151716666Y-79703809D01*
X151716666Y-79941904D01*
X151669047Y-80037142D01*
X151621428Y-80084761D01*
X151526190Y-80132380D01*
X151240476Y-80132380D01*
X151145238Y-80084761D01*
X151097619Y-80037142D01*
%TO.C,J2*%
X124156666Y-81482380D02*
X124156666Y-82196666D01*
X124109047Y-82339523D01*
X124013809Y-82434761D01*
X123870952Y-82482380D01*
X123775714Y-82482380D01*
X124585238Y-81577619D02*
X124632857Y-81530000D01*
X124728095Y-81482380D01*
X124966190Y-81482380D01*
X125061428Y-81530000D01*
X125109047Y-81577619D01*
X125156666Y-81672857D01*
X125156666Y-81768095D01*
X125109047Y-81910952D01*
X124537619Y-82482380D01*
X125156666Y-82482380D01*
%TO.C,R15*%
X107877142Y-87812380D02*
X107543809Y-87336190D01*
X107305714Y-87812380D02*
X107305714Y-86812380D01*
X107686666Y-86812380D01*
X107781904Y-86860000D01*
X107829523Y-86907619D01*
X107877142Y-87002857D01*
X107877142Y-87145714D01*
X107829523Y-87240952D01*
X107781904Y-87288571D01*
X107686666Y-87336190D01*
X107305714Y-87336190D01*
X108829523Y-87812380D02*
X108258095Y-87812380D01*
X108543809Y-87812380D02*
X108543809Y-86812380D01*
X108448571Y-86955238D01*
X108353333Y-87050476D01*
X108258095Y-87098095D01*
X109734285Y-86812380D02*
X109258095Y-86812380D01*
X109210476Y-87288571D01*
X109258095Y-87240952D01*
X109353333Y-87193333D01*
X109591428Y-87193333D01*
X109686666Y-87240952D01*
X109734285Y-87288571D01*
X109781904Y-87383809D01*
X109781904Y-87621904D01*
X109734285Y-87717142D01*
X109686666Y-87764761D01*
X109591428Y-87812380D01*
X109353333Y-87812380D01*
X109258095Y-87764761D01*
X109210476Y-87717142D01*
%TO.C,C1*%
X111313333Y-126327142D02*
X111265714Y-126374761D01*
X111122857Y-126422380D01*
X111027619Y-126422380D01*
X110884761Y-126374761D01*
X110789523Y-126279523D01*
X110741904Y-126184285D01*
X110694285Y-125993809D01*
X110694285Y-125850952D01*
X110741904Y-125660476D01*
X110789523Y-125565238D01*
X110884761Y-125470000D01*
X111027619Y-125422380D01*
X111122857Y-125422380D01*
X111265714Y-125470000D01*
X111313333Y-125517619D01*
X112265714Y-126422380D02*
X111694285Y-126422380D01*
X111980000Y-126422380D02*
X111980000Y-125422380D01*
X111884761Y-125565238D01*
X111789523Y-125660476D01*
X111694285Y-125708095D01*
%TO.C,Q1*%
X177187619Y-99405238D02*
X177140000Y-99500476D01*
X177044761Y-99595714D01*
X176901904Y-99738571D01*
X176854285Y-99833809D01*
X176854285Y-99929047D01*
X177092380Y-99881428D02*
X177044761Y-99976666D01*
X176949523Y-100071904D01*
X176759047Y-100119523D01*
X176425714Y-100119523D01*
X176235238Y-100071904D01*
X176140000Y-99976666D01*
X176092380Y-99881428D01*
X176092380Y-99690952D01*
X176140000Y-99595714D01*
X176235238Y-99500476D01*
X176425714Y-99452857D01*
X176759047Y-99452857D01*
X176949523Y-99500476D01*
X177044761Y-99595714D01*
X177092380Y-99690952D01*
X177092380Y-99881428D01*
X177092380Y-98500476D02*
X177092380Y-99071904D01*
X177092380Y-98786190D02*
X176092380Y-98786190D01*
X176235238Y-98881428D01*
X176330476Y-98976666D01*
X176378095Y-99071904D01*
%TO.C,R56*%
X150157142Y-93912380D02*
X149823809Y-93436190D01*
X149585714Y-93912380D02*
X149585714Y-92912380D01*
X149966666Y-92912380D01*
X150061904Y-92960000D01*
X150109523Y-93007619D01*
X150157142Y-93102857D01*
X150157142Y-93245714D01*
X150109523Y-93340952D01*
X150061904Y-93388571D01*
X149966666Y-93436190D01*
X149585714Y-93436190D01*
X151061904Y-92912380D02*
X150585714Y-92912380D01*
X150538095Y-93388571D01*
X150585714Y-93340952D01*
X150680952Y-93293333D01*
X150919047Y-93293333D01*
X151014285Y-93340952D01*
X151061904Y-93388571D01*
X151109523Y-93483809D01*
X151109523Y-93721904D01*
X151061904Y-93817142D01*
X151014285Y-93864761D01*
X150919047Y-93912380D01*
X150680952Y-93912380D01*
X150585714Y-93864761D01*
X150538095Y-93817142D01*
X151966666Y-92912380D02*
X151776190Y-92912380D01*
X151680952Y-92960000D01*
X151633333Y-93007619D01*
X151538095Y-93150476D01*
X151490476Y-93340952D01*
X151490476Y-93721904D01*
X151538095Y-93817142D01*
X151585714Y-93864761D01*
X151680952Y-93912380D01*
X151871428Y-93912380D01*
X151966666Y-93864761D01*
X152014285Y-93817142D01*
X152061904Y-93721904D01*
X152061904Y-93483809D01*
X152014285Y-93388571D01*
X151966666Y-93340952D01*
X151871428Y-93293333D01*
X151680952Y-93293333D01*
X151585714Y-93340952D01*
X151538095Y-93388571D01*
X151490476Y-93483809D01*
%TO.C,C16*%
X173877142Y-118357142D02*
X173829523Y-118404761D01*
X173686666Y-118452380D01*
X173591428Y-118452380D01*
X173448571Y-118404761D01*
X173353333Y-118309523D01*
X173305714Y-118214285D01*
X173258095Y-118023809D01*
X173258095Y-117880952D01*
X173305714Y-117690476D01*
X173353333Y-117595238D01*
X173448571Y-117500000D01*
X173591428Y-117452380D01*
X173686666Y-117452380D01*
X173829523Y-117500000D01*
X173877142Y-117547619D01*
X174829523Y-118452380D02*
X174258095Y-118452380D01*
X174543809Y-118452380D02*
X174543809Y-117452380D01*
X174448571Y-117595238D01*
X174353333Y-117690476D01*
X174258095Y-117738095D01*
X175686666Y-117452380D02*
X175496190Y-117452380D01*
X175400952Y-117500000D01*
X175353333Y-117547619D01*
X175258095Y-117690476D01*
X175210476Y-117880952D01*
X175210476Y-118261904D01*
X175258095Y-118357142D01*
X175305714Y-118404761D01*
X175400952Y-118452380D01*
X175591428Y-118452380D01*
X175686666Y-118404761D01*
X175734285Y-118357142D01*
X175781904Y-118261904D01*
X175781904Y-118023809D01*
X175734285Y-117928571D01*
X175686666Y-117880952D01*
X175591428Y-117833333D01*
X175400952Y-117833333D01*
X175305714Y-117880952D01*
X175258095Y-117928571D01*
X175210476Y-118023809D01*
%TO.C,C2*%
X171587142Y-84086666D02*
X171634761Y-84134285D01*
X171682380Y-84277142D01*
X171682380Y-84372380D01*
X171634761Y-84515238D01*
X171539523Y-84610476D01*
X171444285Y-84658095D01*
X171253809Y-84705714D01*
X171110952Y-84705714D01*
X170920476Y-84658095D01*
X170825238Y-84610476D01*
X170730000Y-84515238D01*
X170682380Y-84372380D01*
X170682380Y-84277142D01*
X170730000Y-84134285D01*
X170777619Y-84086666D01*
X170777619Y-83705714D02*
X170730000Y-83658095D01*
X170682380Y-83562857D01*
X170682380Y-83324761D01*
X170730000Y-83229523D01*
X170777619Y-83181904D01*
X170872857Y-83134285D01*
X170968095Y-83134285D01*
X171110952Y-83181904D01*
X171682380Y-83753333D01*
X171682380Y-83134285D01*
%TO.C,SW7*%
X107276666Y-85864761D02*
X107419523Y-85912380D01*
X107657619Y-85912380D01*
X107752857Y-85864761D01*
X107800476Y-85817142D01*
X107848095Y-85721904D01*
X107848095Y-85626666D01*
X107800476Y-85531428D01*
X107752857Y-85483809D01*
X107657619Y-85436190D01*
X107467142Y-85388571D01*
X107371904Y-85340952D01*
X107324285Y-85293333D01*
X107276666Y-85198095D01*
X107276666Y-85102857D01*
X107324285Y-85007619D01*
X107371904Y-84960000D01*
X107467142Y-84912380D01*
X107705238Y-84912380D01*
X107848095Y-84960000D01*
X108181428Y-84912380D02*
X108419523Y-85912380D01*
X108610000Y-85198095D01*
X108800476Y-85912380D01*
X109038571Y-84912380D01*
X109324285Y-84912380D02*
X109990952Y-84912380D01*
X109562380Y-85912380D01*
%TO.C,J4*%
X223286666Y-114432380D02*
X223286666Y-115146666D01*
X223239047Y-115289523D01*
X223143809Y-115384761D01*
X223000952Y-115432380D01*
X222905714Y-115432380D01*
X224191428Y-114765714D02*
X224191428Y-115432380D01*
X223953333Y-114384761D02*
X223715238Y-115099047D01*
X224334285Y-115099047D01*
X213952142Y-121031428D02*
X213952142Y-119888571D01*
X213952142Y-110031428D02*
X213952142Y-108888571D01*
X214523571Y-109460000D02*
X213380714Y-109460000D01*
D14*
%TO.C,C23*%
X197050000Y-125760000D02*
X197016666Y-125793333D01*
X196916666Y-125826666D01*
X196850000Y-125826666D01*
X196750000Y-125793333D01*
X196683333Y-125726666D01*
X196650000Y-125660000D01*
X196616666Y-125526666D01*
X196616666Y-125426666D01*
X196650000Y-125293333D01*
X196683333Y-125226666D01*
X196750000Y-125160000D01*
X196850000Y-125126666D01*
X196916666Y-125126666D01*
X197016666Y-125160000D01*
X197050000Y-125193333D01*
X197316666Y-125193333D02*
X197350000Y-125160000D01*
X197416666Y-125126666D01*
X197583333Y-125126666D01*
X197650000Y-125160000D01*
X197683333Y-125193333D01*
X197716666Y-125260000D01*
X197716666Y-125326666D01*
X197683333Y-125426666D01*
X197283333Y-125826666D01*
X197716666Y-125826666D01*
X197950000Y-125126666D02*
X198383333Y-125126666D01*
X198150000Y-125393333D01*
X198250000Y-125393333D01*
X198316666Y-125426666D01*
X198350000Y-125460000D01*
X198383333Y-125526666D01*
X198383333Y-125693333D01*
X198350000Y-125760000D01*
X198316666Y-125793333D01*
X198250000Y-125826666D01*
X198050000Y-125826666D01*
X197983333Y-125793333D01*
X197950000Y-125760000D01*
D10*
%TO.C,R31*%
X129177142Y-120012380D02*
X128843809Y-119536190D01*
X128605714Y-120012380D02*
X128605714Y-119012380D01*
X128986666Y-119012380D01*
X129081904Y-119060000D01*
X129129523Y-119107619D01*
X129177142Y-119202857D01*
X129177142Y-119345714D01*
X129129523Y-119440952D01*
X129081904Y-119488571D01*
X128986666Y-119536190D01*
X128605714Y-119536190D01*
X129510476Y-119012380D02*
X130129523Y-119012380D01*
X129796190Y-119393333D01*
X129939047Y-119393333D01*
X130034285Y-119440952D01*
X130081904Y-119488571D01*
X130129523Y-119583809D01*
X130129523Y-119821904D01*
X130081904Y-119917142D01*
X130034285Y-119964761D01*
X129939047Y-120012380D01*
X129653333Y-120012380D01*
X129558095Y-119964761D01*
X129510476Y-119917142D01*
X131081904Y-120012380D02*
X130510476Y-120012380D01*
X130796190Y-120012380D02*
X130796190Y-119012380D01*
X130700952Y-119155238D01*
X130605714Y-119250476D01*
X130510476Y-119298095D01*
%TO.C,U8*%
X190468095Y-97672380D02*
X190468095Y-98481904D01*
X190515714Y-98577142D01*
X190563333Y-98624761D01*
X190658571Y-98672380D01*
X190849047Y-98672380D01*
X190944285Y-98624761D01*
X190991904Y-98577142D01*
X191039523Y-98481904D01*
X191039523Y-97672380D01*
X191658571Y-98100952D02*
X191563333Y-98053333D01*
X191515714Y-98005714D01*
X191468095Y-97910476D01*
X191468095Y-97862857D01*
X191515714Y-97767619D01*
X191563333Y-97720000D01*
X191658571Y-97672380D01*
X191849047Y-97672380D01*
X191944285Y-97720000D01*
X191991904Y-97767619D01*
X192039523Y-97862857D01*
X192039523Y-97910476D01*
X191991904Y-98005714D01*
X191944285Y-98053333D01*
X191849047Y-98100952D01*
X191658571Y-98100952D01*
X191563333Y-98148571D01*
X191515714Y-98196190D01*
X191468095Y-98291428D01*
X191468095Y-98481904D01*
X191515714Y-98577142D01*
X191563333Y-98624761D01*
X191658571Y-98672380D01*
X191849047Y-98672380D01*
X191944285Y-98624761D01*
X191991904Y-98577142D01*
X192039523Y-98481904D01*
X192039523Y-98291428D01*
X191991904Y-98196190D01*
X191944285Y-98148571D01*
X191849047Y-98100952D01*
%TO.C,R63*%
X182507142Y-124612380D02*
X182173809Y-124136190D01*
X181935714Y-124612380D02*
X181935714Y-123612380D01*
X182316666Y-123612380D01*
X182411904Y-123660000D01*
X182459523Y-123707619D01*
X182507142Y-123802857D01*
X182507142Y-123945714D01*
X182459523Y-124040952D01*
X182411904Y-124088571D01*
X182316666Y-124136190D01*
X181935714Y-124136190D01*
X183364285Y-123612380D02*
X183173809Y-123612380D01*
X183078571Y-123660000D01*
X183030952Y-123707619D01*
X182935714Y-123850476D01*
X182888095Y-124040952D01*
X182888095Y-124421904D01*
X182935714Y-124517142D01*
X182983333Y-124564761D01*
X183078571Y-124612380D01*
X183269047Y-124612380D01*
X183364285Y-124564761D01*
X183411904Y-124517142D01*
X183459523Y-124421904D01*
X183459523Y-124183809D01*
X183411904Y-124088571D01*
X183364285Y-124040952D01*
X183269047Y-123993333D01*
X183078571Y-123993333D01*
X182983333Y-124040952D01*
X182935714Y-124088571D01*
X182888095Y-124183809D01*
X183792857Y-123612380D02*
X184411904Y-123612380D01*
X184078571Y-123993333D01*
X184221428Y-123993333D01*
X184316666Y-124040952D01*
X184364285Y-124088571D01*
X184411904Y-124183809D01*
X184411904Y-124421904D01*
X184364285Y-124517142D01*
X184316666Y-124564761D01*
X184221428Y-124612380D01*
X183935714Y-124612380D01*
X183840476Y-124564761D01*
X183792857Y-124517142D01*
D14*
%TO.C,Q2*%
X160893333Y-88953333D02*
X160826666Y-88920000D01*
X160760000Y-88853333D01*
X160660000Y-88753333D01*
X160593333Y-88720000D01*
X160526666Y-88720000D01*
X160560000Y-88886666D02*
X160493333Y-88853333D01*
X160426666Y-88786666D01*
X160393333Y-88653333D01*
X160393333Y-88420000D01*
X160426666Y-88286666D01*
X160493333Y-88220000D01*
X160560000Y-88186666D01*
X160693333Y-88186666D01*
X160760000Y-88220000D01*
X160826666Y-88286666D01*
X160860000Y-88420000D01*
X160860000Y-88653333D01*
X160826666Y-88786666D01*
X160760000Y-88853333D01*
X160693333Y-88886666D01*
X160560000Y-88886666D01*
X161126666Y-88253333D02*
X161160000Y-88220000D01*
X161226666Y-88186666D01*
X161393333Y-88186666D01*
X161460000Y-88220000D01*
X161493333Y-88253333D01*
X161526666Y-88320000D01*
X161526666Y-88386666D01*
X161493333Y-88486666D01*
X161093333Y-88886666D01*
X161526666Y-88886666D01*
D10*
%TO.C,R65*%
X159822380Y-119052857D02*
X159346190Y-119386190D01*
X159822380Y-119624285D02*
X158822380Y-119624285D01*
X158822380Y-119243333D01*
X158870000Y-119148095D01*
X158917619Y-119100476D01*
X159012857Y-119052857D01*
X159155714Y-119052857D01*
X159250952Y-119100476D01*
X159298571Y-119148095D01*
X159346190Y-119243333D01*
X159346190Y-119624285D01*
X158822380Y-118195714D02*
X158822380Y-118386190D01*
X158870000Y-118481428D01*
X158917619Y-118529047D01*
X159060476Y-118624285D01*
X159250952Y-118671904D01*
X159631904Y-118671904D01*
X159727142Y-118624285D01*
X159774761Y-118576666D01*
X159822380Y-118481428D01*
X159822380Y-118290952D01*
X159774761Y-118195714D01*
X159727142Y-118148095D01*
X159631904Y-118100476D01*
X159393809Y-118100476D01*
X159298571Y-118148095D01*
X159250952Y-118195714D01*
X159203333Y-118290952D01*
X159203333Y-118481428D01*
X159250952Y-118576666D01*
X159298571Y-118624285D01*
X159393809Y-118671904D01*
X158822380Y-117195714D02*
X158822380Y-117671904D01*
X159298571Y-117719523D01*
X159250952Y-117671904D01*
X159203333Y-117576666D01*
X159203333Y-117338571D01*
X159250952Y-117243333D01*
X159298571Y-117195714D01*
X159393809Y-117148095D01*
X159631904Y-117148095D01*
X159727142Y-117195714D01*
X159774761Y-117243333D01*
X159822380Y-117338571D01*
X159822380Y-117576666D01*
X159774761Y-117671904D01*
X159727142Y-117719523D01*
%TO.C,U10*%
X147822380Y-93918095D02*
X148631904Y-93918095D01*
X148727142Y-93870476D01*
X148774761Y-93822857D01*
X148822380Y-93727619D01*
X148822380Y-93537142D01*
X148774761Y-93441904D01*
X148727142Y-93394285D01*
X148631904Y-93346666D01*
X147822380Y-93346666D01*
X148822380Y-92346666D02*
X148822380Y-92918095D01*
X148822380Y-92632380D02*
X147822380Y-92632380D01*
X147965238Y-92727619D01*
X148060476Y-92822857D01*
X148108095Y-92918095D01*
X147822380Y-91727619D02*
X147822380Y-91632380D01*
X147870000Y-91537142D01*
X147917619Y-91489523D01*
X148012857Y-91441904D01*
X148203333Y-91394285D01*
X148441428Y-91394285D01*
X148631904Y-91441904D01*
X148727142Y-91489523D01*
X148774761Y-91537142D01*
X148822380Y-91632380D01*
X148822380Y-91727619D01*
X148774761Y-91822857D01*
X148727142Y-91870476D01*
X148631904Y-91918095D01*
X148441428Y-91965714D01*
X148203333Y-91965714D01*
X148012857Y-91918095D01*
X147917619Y-91870476D01*
X147870000Y-91822857D01*
X147822380Y-91727619D01*
%TO.C,J1*%
X177836666Y-80452380D02*
X177836666Y-81166666D01*
X177789047Y-81309523D01*
X177693809Y-81404761D01*
X177550952Y-81452380D01*
X177455714Y-81452380D01*
X178836666Y-81452380D02*
X178265238Y-81452380D01*
X178550952Y-81452380D02*
X178550952Y-80452380D01*
X178455714Y-80595238D01*
X178360476Y-80690476D01*
X178265238Y-80738095D01*
X172158571Y-90702142D02*
X173301428Y-90702142D01*
X172730000Y-91273571D02*
X172730000Y-90130714D01*
X183158571Y-90702142D02*
X184301428Y-90702142D01*
%TO.C,D1*%
X161742380Y-81978095D02*
X160742380Y-81978095D01*
X160742380Y-81740000D01*
X160790000Y-81597142D01*
X160885238Y-81501904D01*
X160980476Y-81454285D01*
X161170952Y-81406666D01*
X161313809Y-81406666D01*
X161504285Y-81454285D01*
X161599523Y-81501904D01*
X161694761Y-81597142D01*
X161742380Y-81740000D01*
X161742380Y-81978095D01*
X161742380Y-80454285D02*
X161742380Y-81025714D01*
X161742380Y-80740000D02*
X160742380Y-80740000D01*
X160885238Y-80835238D01*
X160980476Y-80930476D01*
X161028095Y-81025714D01*
%TO.C,R38*%
X129377142Y-108412380D02*
X129043809Y-107936190D01*
X128805714Y-108412380D02*
X128805714Y-107412380D01*
X129186666Y-107412380D01*
X129281904Y-107460000D01*
X129329523Y-107507619D01*
X129377142Y-107602857D01*
X129377142Y-107745714D01*
X129329523Y-107840952D01*
X129281904Y-107888571D01*
X129186666Y-107936190D01*
X128805714Y-107936190D01*
X129710476Y-107412380D02*
X130329523Y-107412380D01*
X129996190Y-107793333D01*
X130139047Y-107793333D01*
X130234285Y-107840952D01*
X130281904Y-107888571D01*
X130329523Y-107983809D01*
X130329523Y-108221904D01*
X130281904Y-108317142D01*
X130234285Y-108364761D01*
X130139047Y-108412380D01*
X129853333Y-108412380D01*
X129758095Y-108364761D01*
X129710476Y-108317142D01*
X130900952Y-107840952D02*
X130805714Y-107793333D01*
X130758095Y-107745714D01*
X130710476Y-107650476D01*
X130710476Y-107602857D01*
X130758095Y-107507619D01*
X130805714Y-107460000D01*
X130900952Y-107412380D01*
X131091428Y-107412380D01*
X131186666Y-107460000D01*
X131234285Y-107507619D01*
X131281904Y-107602857D01*
X131281904Y-107650476D01*
X131234285Y-107745714D01*
X131186666Y-107793333D01*
X131091428Y-107840952D01*
X130900952Y-107840952D01*
X130805714Y-107888571D01*
X130758095Y-107936190D01*
X130710476Y-108031428D01*
X130710476Y-108221904D01*
X130758095Y-108317142D01*
X130805714Y-108364761D01*
X130900952Y-108412380D01*
X131091428Y-108412380D01*
X131186666Y-108364761D01*
X131234285Y-108317142D01*
X131281904Y-108221904D01*
X131281904Y-108031428D01*
X131234285Y-107936190D01*
X131186666Y-107888571D01*
X131091428Y-107840952D01*
%TO.C,R32*%
X129477142Y-110612380D02*
X129143809Y-110136190D01*
X128905714Y-110612380D02*
X128905714Y-109612380D01*
X129286666Y-109612380D01*
X129381904Y-109660000D01*
X129429523Y-109707619D01*
X129477142Y-109802857D01*
X129477142Y-109945714D01*
X129429523Y-110040952D01*
X129381904Y-110088571D01*
X129286666Y-110136190D01*
X128905714Y-110136190D01*
X129810476Y-109612380D02*
X130429523Y-109612380D01*
X130096190Y-109993333D01*
X130239047Y-109993333D01*
X130334285Y-110040952D01*
X130381904Y-110088571D01*
X130429523Y-110183809D01*
X130429523Y-110421904D01*
X130381904Y-110517142D01*
X130334285Y-110564761D01*
X130239047Y-110612380D01*
X129953333Y-110612380D01*
X129858095Y-110564761D01*
X129810476Y-110517142D01*
X130810476Y-109707619D02*
X130858095Y-109660000D01*
X130953333Y-109612380D01*
X131191428Y-109612380D01*
X131286666Y-109660000D01*
X131334285Y-109707619D01*
X131381904Y-109802857D01*
X131381904Y-109898095D01*
X131334285Y-110040952D01*
X130762857Y-110612380D01*
X131381904Y-110612380D01*
%TO.C,R46*%
X194717142Y-102252380D02*
X194383809Y-101776190D01*
X194145714Y-102252380D02*
X194145714Y-101252380D01*
X194526666Y-101252380D01*
X194621904Y-101300000D01*
X194669523Y-101347619D01*
X194717142Y-101442857D01*
X194717142Y-101585714D01*
X194669523Y-101680952D01*
X194621904Y-101728571D01*
X194526666Y-101776190D01*
X194145714Y-101776190D01*
X195574285Y-101585714D02*
X195574285Y-102252380D01*
X195336190Y-101204761D02*
X195098095Y-101919047D01*
X195717142Y-101919047D01*
X196526666Y-101252380D02*
X196336190Y-101252380D01*
X196240952Y-101300000D01*
X196193333Y-101347619D01*
X196098095Y-101490476D01*
X196050476Y-101680952D01*
X196050476Y-102061904D01*
X196098095Y-102157142D01*
X196145714Y-102204761D01*
X196240952Y-102252380D01*
X196431428Y-102252380D01*
X196526666Y-102204761D01*
X196574285Y-102157142D01*
X196621904Y-102061904D01*
X196621904Y-101823809D01*
X196574285Y-101728571D01*
X196526666Y-101680952D01*
X196431428Y-101633333D01*
X196240952Y-101633333D01*
X196145714Y-101680952D01*
X196098095Y-101728571D01*
X196050476Y-101823809D01*
D14*
%TO.C,D13*%
X195916666Y-99550000D02*
X195216666Y-99550000D01*
X195216666Y-99383333D01*
X195250000Y-99283333D01*
X195316666Y-99216666D01*
X195383333Y-99183333D01*
X195516666Y-99150000D01*
X195616666Y-99150000D01*
X195750000Y-99183333D01*
X195816666Y-99216666D01*
X195883333Y-99283333D01*
X195916666Y-99383333D01*
X195916666Y-99550000D01*
X195916666Y-98483333D02*
X195916666Y-98883333D01*
X195916666Y-98683333D02*
X195216666Y-98683333D01*
X195316666Y-98750000D01*
X195383333Y-98816666D01*
X195416666Y-98883333D01*
X195216666Y-98250000D02*
X195216666Y-97816666D01*
X195483333Y-98050000D01*
X195483333Y-97950000D01*
X195516666Y-97883333D01*
X195550000Y-97850000D01*
X195616666Y-97816666D01*
X195783333Y-97816666D01*
X195850000Y-97850000D01*
X195883333Y-97883333D01*
X195916666Y-97950000D01*
X195916666Y-98150000D01*
X195883333Y-98216666D01*
X195850000Y-98250000D01*
D10*
%TO.C,U3*%
X153338095Y-111912380D02*
X153338095Y-112721904D01*
X153385714Y-112817142D01*
X153433333Y-112864761D01*
X153528571Y-112912380D01*
X153719047Y-112912380D01*
X153814285Y-112864761D01*
X153861904Y-112817142D01*
X153909523Y-112721904D01*
X153909523Y-111912380D01*
X154290476Y-111912380D02*
X154909523Y-111912380D01*
X154576190Y-112293333D01*
X154719047Y-112293333D01*
X154814285Y-112340952D01*
X154861904Y-112388571D01*
X154909523Y-112483809D01*
X154909523Y-112721904D01*
X154861904Y-112817142D01*
X154814285Y-112864761D01*
X154719047Y-112912380D01*
X154433333Y-112912380D01*
X154338095Y-112864761D01*
X154290476Y-112817142D01*
%TO.C,R58*%
X150097142Y-86482380D02*
X149763809Y-86006190D01*
X149525714Y-86482380D02*
X149525714Y-85482380D01*
X149906666Y-85482380D01*
X150001904Y-85530000D01*
X150049523Y-85577619D01*
X150097142Y-85672857D01*
X150097142Y-85815714D01*
X150049523Y-85910952D01*
X150001904Y-85958571D01*
X149906666Y-86006190D01*
X149525714Y-86006190D01*
X151001904Y-85482380D02*
X150525714Y-85482380D01*
X150478095Y-85958571D01*
X150525714Y-85910952D01*
X150620952Y-85863333D01*
X150859047Y-85863333D01*
X150954285Y-85910952D01*
X151001904Y-85958571D01*
X151049523Y-86053809D01*
X151049523Y-86291904D01*
X151001904Y-86387142D01*
X150954285Y-86434761D01*
X150859047Y-86482380D01*
X150620952Y-86482380D01*
X150525714Y-86434761D01*
X150478095Y-86387142D01*
X151620952Y-85910952D02*
X151525714Y-85863333D01*
X151478095Y-85815714D01*
X151430476Y-85720476D01*
X151430476Y-85672857D01*
X151478095Y-85577619D01*
X151525714Y-85530000D01*
X151620952Y-85482380D01*
X151811428Y-85482380D01*
X151906666Y-85530000D01*
X151954285Y-85577619D01*
X152001904Y-85672857D01*
X152001904Y-85720476D01*
X151954285Y-85815714D01*
X151906666Y-85863333D01*
X151811428Y-85910952D01*
X151620952Y-85910952D01*
X151525714Y-85958571D01*
X151478095Y-86006190D01*
X151430476Y-86101428D01*
X151430476Y-86291904D01*
X151478095Y-86387142D01*
X151525714Y-86434761D01*
X151620952Y-86482380D01*
X151811428Y-86482380D01*
X151906666Y-86434761D01*
X151954285Y-86387142D01*
X152001904Y-86291904D01*
X152001904Y-86101428D01*
X151954285Y-86006190D01*
X151906666Y-85958571D01*
X151811428Y-85910952D01*
%TO.C,C18*%
X191067142Y-124407142D02*
X191019523Y-124454761D01*
X190876666Y-124502380D01*
X190781428Y-124502380D01*
X190638571Y-124454761D01*
X190543333Y-124359523D01*
X190495714Y-124264285D01*
X190448095Y-124073809D01*
X190448095Y-123930952D01*
X190495714Y-123740476D01*
X190543333Y-123645238D01*
X190638571Y-123550000D01*
X190781428Y-123502380D01*
X190876666Y-123502380D01*
X191019523Y-123550000D01*
X191067142Y-123597619D01*
X192019523Y-124502380D02*
X191448095Y-124502380D01*
X191733809Y-124502380D02*
X191733809Y-123502380D01*
X191638571Y-123645238D01*
X191543333Y-123740476D01*
X191448095Y-123788095D01*
X192590952Y-123930952D02*
X192495714Y-123883333D01*
X192448095Y-123835714D01*
X192400476Y-123740476D01*
X192400476Y-123692857D01*
X192448095Y-123597619D01*
X192495714Y-123550000D01*
X192590952Y-123502380D01*
X192781428Y-123502380D01*
X192876666Y-123550000D01*
X192924285Y-123597619D01*
X192971904Y-123692857D01*
X192971904Y-123740476D01*
X192924285Y-123835714D01*
X192876666Y-123883333D01*
X192781428Y-123930952D01*
X192590952Y-123930952D01*
X192495714Y-123978571D01*
X192448095Y-124026190D01*
X192400476Y-124121428D01*
X192400476Y-124311904D01*
X192448095Y-124407142D01*
X192495714Y-124454761D01*
X192590952Y-124502380D01*
X192781428Y-124502380D01*
X192876666Y-124454761D01*
X192924285Y-124407142D01*
X192971904Y-124311904D01*
X192971904Y-124121428D01*
X192924285Y-124026190D01*
X192876666Y-123978571D01*
X192781428Y-123930952D01*
%TO.C,R60*%
X145342380Y-82912857D02*
X144866190Y-83246190D01*
X145342380Y-83484285D02*
X144342380Y-83484285D01*
X144342380Y-83103333D01*
X144390000Y-83008095D01*
X144437619Y-82960476D01*
X144532857Y-82912857D01*
X144675714Y-82912857D01*
X144770952Y-82960476D01*
X144818571Y-83008095D01*
X144866190Y-83103333D01*
X144866190Y-83484285D01*
X144342380Y-82055714D02*
X144342380Y-82246190D01*
X144390000Y-82341428D01*
X144437619Y-82389047D01*
X144580476Y-82484285D01*
X144770952Y-82531904D01*
X145151904Y-82531904D01*
X145247142Y-82484285D01*
X145294761Y-82436666D01*
X145342380Y-82341428D01*
X145342380Y-82150952D01*
X145294761Y-82055714D01*
X145247142Y-82008095D01*
X145151904Y-81960476D01*
X144913809Y-81960476D01*
X144818571Y-82008095D01*
X144770952Y-82055714D01*
X144723333Y-82150952D01*
X144723333Y-82341428D01*
X144770952Y-82436666D01*
X144818571Y-82484285D01*
X144913809Y-82531904D01*
X144342380Y-81341428D02*
X144342380Y-81246190D01*
X144390000Y-81150952D01*
X144437619Y-81103333D01*
X144532857Y-81055714D01*
X144723333Y-81008095D01*
X144961428Y-81008095D01*
X145151904Y-81055714D01*
X145247142Y-81103333D01*
X145294761Y-81150952D01*
X145342380Y-81246190D01*
X145342380Y-81341428D01*
X145294761Y-81436666D01*
X145247142Y-81484285D01*
X145151904Y-81531904D01*
X144961428Y-81579523D01*
X144723333Y-81579523D01*
X144532857Y-81531904D01*
X144437619Y-81484285D01*
X144390000Y-81436666D01*
X144342380Y-81341428D01*
%TO.C,J5*%
X224166666Y-87052380D02*
X224166666Y-87766666D01*
X224119047Y-87909523D01*
X224023809Y-88004761D01*
X223880952Y-88052380D01*
X223785714Y-88052380D01*
X225119047Y-87052380D02*
X224642857Y-87052380D01*
X224595238Y-87528571D01*
X224642857Y-87480952D01*
X224738095Y-87433333D01*
X224976190Y-87433333D01*
X225071428Y-87480952D01*
X225119047Y-87528571D01*
X225166666Y-87623809D01*
X225166666Y-87861904D01*
X225119047Y-87957142D01*
X225071428Y-88004761D01*
X224976190Y-88052380D01*
X224738095Y-88052380D01*
X224642857Y-88004761D01*
X224595238Y-87957142D01*
D14*
%TO.C,D16*%
X209576666Y-120370000D02*
X208876666Y-120370000D01*
X208876666Y-120203333D01*
X208910000Y-120103333D01*
X208976666Y-120036666D01*
X209043333Y-120003333D01*
X209176666Y-119970000D01*
X209276666Y-119970000D01*
X209410000Y-120003333D01*
X209476666Y-120036666D01*
X209543333Y-120103333D01*
X209576666Y-120203333D01*
X209576666Y-120370000D01*
X209576666Y-119303333D02*
X209576666Y-119703333D01*
X209576666Y-119503333D02*
X208876666Y-119503333D01*
X208976666Y-119570000D01*
X209043333Y-119636666D01*
X209076666Y-119703333D01*
X208876666Y-118703333D02*
X208876666Y-118836666D01*
X208910000Y-118903333D01*
X208943333Y-118936666D01*
X209043333Y-119003333D01*
X209176666Y-119036666D01*
X209443333Y-119036666D01*
X209510000Y-119003333D01*
X209543333Y-118970000D01*
X209576666Y-118903333D01*
X209576666Y-118770000D01*
X209543333Y-118703333D01*
X209510000Y-118670000D01*
X209443333Y-118636666D01*
X209276666Y-118636666D01*
X209210000Y-118670000D01*
X209176666Y-118703333D01*
X209143333Y-118770000D01*
X209143333Y-118903333D01*
X209176666Y-118970000D01*
X209210000Y-119003333D01*
X209276666Y-119036666D01*
D10*
%TO.C,R45*%
X194757142Y-131372380D02*
X194423809Y-130896190D01*
X194185714Y-131372380D02*
X194185714Y-130372380D01*
X194566666Y-130372380D01*
X194661904Y-130420000D01*
X194709523Y-130467619D01*
X194757142Y-130562857D01*
X194757142Y-130705714D01*
X194709523Y-130800952D01*
X194661904Y-130848571D01*
X194566666Y-130896190D01*
X194185714Y-130896190D01*
X195614285Y-130705714D02*
X195614285Y-131372380D01*
X195376190Y-130324761D02*
X195138095Y-131039047D01*
X195757142Y-131039047D01*
X196614285Y-130372380D02*
X196138095Y-130372380D01*
X196090476Y-130848571D01*
X196138095Y-130800952D01*
X196233333Y-130753333D01*
X196471428Y-130753333D01*
X196566666Y-130800952D01*
X196614285Y-130848571D01*
X196661904Y-130943809D01*
X196661904Y-131181904D01*
X196614285Y-131277142D01*
X196566666Y-131324761D01*
X196471428Y-131372380D01*
X196233333Y-131372380D01*
X196138095Y-131324761D01*
X196090476Y-131277142D01*
%TO.C,Q3*%
X183614761Y-99917619D02*
X183519523Y-99870000D01*
X183424285Y-99774761D01*
X183281428Y-99631904D01*
X183186190Y-99584285D01*
X183090952Y-99584285D01*
X183138571Y-99822380D02*
X183043333Y-99774761D01*
X182948095Y-99679523D01*
X182900476Y-99489047D01*
X182900476Y-99155714D01*
X182948095Y-98965238D01*
X183043333Y-98870000D01*
X183138571Y-98822380D01*
X183329047Y-98822380D01*
X183424285Y-98870000D01*
X183519523Y-98965238D01*
X183567142Y-99155714D01*
X183567142Y-99489047D01*
X183519523Y-99679523D01*
X183424285Y-99774761D01*
X183329047Y-99822380D01*
X183138571Y-99822380D01*
X183900476Y-98822380D02*
X184519523Y-98822380D01*
X184186190Y-99203333D01*
X184329047Y-99203333D01*
X184424285Y-99250952D01*
X184471904Y-99298571D01*
X184519523Y-99393809D01*
X184519523Y-99631904D01*
X184471904Y-99727142D01*
X184424285Y-99774761D01*
X184329047Y-99822380D01*
X184043333Y-99822380D01*
X183948095Y-99774761D01*
X183900476Y-99727142D01*
D14*
%TO.C,Q9*%
X125053333Y-121963333D02*
X124986666Y-121930000D01*
X124920000Y-121863333D01*
X124820000Y-121763333D01*
X124753333Y-121730000D01*
X124686666Y-121730000D01*
X124720000Y-121896666D02*
X124653333Y-121863333D01*
X124586666Y-121796666D01*
X124553333Y-121663333D01*
X124553333Y-121430000D01*
X124586666Y-121296666D01*
X124653333Y-121230000D01*
X124720000Y-121196666D01*
X124853333Y-121196666D01*
X124920000Y-121230000D01*
X124986666Y-121296666D01*
X125020000Y-121430000D01*
X125020000Y-121663333D01*
X124986666Y-121796666D01*
X124920000Y-121863333D01*
X124853333Y-121896666D01*
X124720000Y-121896666D01*
X125353333Y-121896666D02*
X125486666Y-121896666D01*
X125553333Y-121863333D01*
X125586666Y-121830000D01*
X125653333Y-121730000D01*
X125686666Y-121596666D01*
X125686666Y-121330000D01*
X125653333Y-121263333D01*
X125620000Y-121230000D01*
X125553333Y-121196666D01*
X125420000Y-121196666D01*
X125353333Y-121230000D01*
X125320000Y-121263333D01*
X125286666Y-121330000D01*
X125286666Y-121496666D01*
X125320000Y-121563333D01*
X125353333Y-121596666D01*
X125420000Y-121630000D01*
X125553333Y-121630000D01*
X125620000Y-121596666D01*
X125653333Y-121563333D01*
X125686666Y-121496666D01*
D10*
%TO.C,R6*%
X160833333Y-93862380D02*
X160500000Y-93386190D01*
X160261904Y-93862380D02*
X160261904Y-92862380D01*
X160642857Y-92862380D01*
X160738095Y-92910000D01*
X160785714Y-92957619D01*
X160833333Y-93052857D01*
X160833333Y-93195714D01*
X160785714Y-93290952D01*
X160738095Y-93338571D01*
X160642857Y-93386190D01*
X160261904Y-93386190D01*
X161690476Y-92862380D02*
X161500000Y-92862380D01*
X161404761Y-92910000D01*
X161357142Y-92957619D01*
X161261904Y-93100476D01*
X161214285Y-93290952D01*
X161214285Y-93671904D01*
X161261904Y-93767142D01*
X161309523Y-93814761D01*
X161404761Y-93862380D01*
X161595238Y-93862380D01*
X161690476Y-93814761D01*
X161738095Y-93767142D01*
X161785714Y-93671904D01*
X161785714Y-93433809D01*
X161738095Y-93338571D01*
X161690476Y-93290952D01*
X161595238Y-93243333D01*
X161404761Y-93243333D01*
X161309523Y-93290952D01*
X161261904Y-93338571D01*
X161214285Y-93433809D01*
D14*
%TO.C,D12*%
X192350000Y-121766666D02*
X192350000Y-121066666D01*
X192516666Y-121066666D01*
X192616666Y-121100000D01*
X192683333Y-121166666D01*
X192716666Y-121233333D01*
X192750000Y-121366666D01*
X192750000Y-121466666D01*
X192716666Y-121600000D01*
X192683333Y-121666666D01*
X192616666Y-121733333D01*
X192516666Y-121766666D01*
X192350000Y-121766666D01*
X193416666Y-121766666D02*
X193016666Y-121766666D01*
X193216666Y-121766666D02*
X193216666Y-121066666D01*
X193150000Y-121166666D01*
X193083333Y-121233333D01*
X193016666Y-121266666D01*
X193683333Y-121133333D02*
X193716666Y-121100000D01*
X193783333Y-121066666D01*
X193950000Y-121066666D01*
X194016666Y-121100000D01*
X194050000Y-121133333D01*
X194083333Y-121200000D01*
X194083333Y-121266666D01*
X194050000Y-121366666D01*
X193650000Y-121766666D01*
X194083333Y-121766666D01*
D10*
%TO.C,R66*%
X160002380Y-102602857D02*
X159526190Y-102936190D01*
X160002380Y-103174285D02*
X159002380Y-103174285D01*
X159002380Y-102793333D01*
X159050000Y-102698095D01*
X159097619Y-102650476D01*
X159192857Y-102602857D01*
X159335714Y-102602857D01*
X159430952Y-102650476D01*
X159478571Y-102698095D01*
X159526190Y-102793333D01*
X159526190Y-103174285D01*
X159002380Y-101745714D02*
X159002380Y-101936190D01*
X159050000Y-102031428D01*
X159097619Y-102079047D01*
X159240476Y-102174285D01*
X159430952Y-102221904D01*
X159811904Y-102221904D01*
X159907142Y-102174285D01*
X159954761Y-102126666D01*
X160002380Y-102031428D01*
X160002380Y-101840952D01*
X159954761Y-101745714D01*
X159907142Y-101698095D01*
X159811904Y-101650476D01*
X159573809Y-101650476D01*
X159478571Y-101698095D01*
X159430952Y-101745714D01*
X159383333Y-101840952D01*
X159383333Y-102031428D01*
X159430952Y-102126666D01*
X159478571Y-102174285D01*
X159573809Y-102221904D01*
X159002380Y-100793333D02*
X159002380Y-100983809D01*
X159050000Y-101079047D01*
X159097619Y-101126666D01*
X159240476Y-101221904D01*
X159430952Y-101269523D01*
X159811904Y-101269523D01*
X159907142Y-101221904D01*
X159954761Y-101174285D01*
X160002380Y-101079047D01*
X160002380Y-100888571D01*
X159954761Y-100793333D01*
X159907142Y-100745714D01*
X159811904Y-100698095D01*
X159573809Y-100698095D01*
X159478571Y-100745714D01*
X159430952Y-100793333D01*
X159383333Y-100888571D01*
X159383333Y-101079047D01*
X159430952Y-101174285D01*
X159478571Y-101221904D01*
X159573809Y-101269523D01*
%TO.C,C8*%
X108363333Y-84167142D02*
X108315714Y-84214761D01*
X108172857Y-84262380D01*
X108077619Y-84262380D01*
X107934761Y-84214761D01*
X107839523Y-84119523D01*
X107791904Y-84024285D01*
X107744285Y-83833809D01*
X107744285Y-83690952D01*
X107791904Y-83500476D01*
X107839523Y-83405238D01*
X107934761Y-83310000D01*
X108077619Y-83262380D01*
X108172857Y-83262380D01*
X108315714Y-83310000D01*
X108363333Y-83357619D01*
X108934761Y-83690952D02*
X108839523Y-83643333D01*
X108791904Y-83595714D01*
X108744285Y-83500476D01*
X108744285Y-83452857D01*
X108791904Y-83357619D01*
X108839523Y-83310000D01*
X108934761Y-83262380D01*
X109125238Y-83262380D01*
X109220476Y-83310000D01*
X109268095Y-83357619D01*
X109315714Y-83452857D01*
X109315714Y-83500476D01*
X109268095Y-83595714D01*
X109220476Y-83643333D01*
X109125238Y-83690952D01*
X108934761Y-83690952D01*
X108839523Y-83738571D01*
X108791904Y-83786190D01*
X108744285Y-83881428D01*
X108744285Y-84071904D01*
X108791904Y-84167142D01*
X108839523Y-84214761D01*
X108934761Y-84262380D01*
X109125238Y-84262380D01*
X109220476Y-84214761D01*
X109268095Y-84167142D01*
X109315714Y-84071904D01*
X109315714Y-83881428D01*
X109268095Y-83786190D01*
X109220476Y-83738571D01*
X109125238Y-83690952D01*
%TO.C,D11*%
X153692380Y-126194285D02*
X152692380Y-126194285D01*
X152692380Y-125956190D01*
X152740000Y-125813333D01*
X152835238Y-125718095D01*
X152930476Y-125670476D01*
X153120952Y-125622857D01*
X153263809Y-125622857D01*
X153454285Y-125670476D01*
X153549523Y-125718095D01*
X153644761Y-125813333D01*
X153692380Y-125956190D01*
X153692380Y-126194285D01*
X153692380Y-124670476D02*
X153692380Y-125241904D01*
X153692380Y-124956190D02*
X152692380Y-124956190D01*
X152835238Y-125051428D01*
X152930476Y-125146666D01*
X152978095Y-125241904D01*
X153692380Y-123718095D02*
X153692380Y-124289523D01*
X153692380Y-124003809D02*
X152692380Y-124003809D01*
X152835238Y-124099047D01*
X152930476Y-124194285D01*
X152978095Y-124289523D01*
%TO.C,R57*%
X150197142Y-92182380D02*
X149863809Y-91706190D01*
X149625714Y-92182380D02*
X149625714Y-91182380D01*
X150006666Y-91182380D01*
X150101904Y-91230000D01*
X150149523Y-91277619D01*
X150197142Y-91372857D01*
X150197142Y-91515714D01*
X150149523Y-91610952D01*
X150101904Y-91658571D01*
X150006666Y-91706190D01*
X149625714Y-91706190D01*
X151101904Y-91182380D02*
X150625714Y-91182380D01*
X150578095Y-91658571D01*
X150625714Y-91610952D01*
X150720952Y-91563333D01*
X150959047Y-91563333D01*
X151054285Y-91610952D01*
X151101904Y-91658571D01*
X151149523Y-91753809D01*
X151149523Y-91991904D01*
X151101904Y-92087142D01*
X151054285Y-92134761D01*
X150959047Y-92182380D01*
X150720952Y-92182380D01*
X150625714Y-92134761D01*
X150578095Y-92087142D01*
X151482857Y-91182380D02*
X152149523Y-91182380D01*
X151720952Y-92182380D01*
%TO.C,U7*%
X191088095Y-125402380D02*
X191088095Y-126211904D01*
X191135714Y-126307142D01*
X191183333Y-126354761D01*
X191278571Y-126402380D01*
X191469047Y-126402380D01*
X191564285Y-126354761D01*
X191611904Y-126307142D01*
X191659523Y-126211904D01*
X191659523Y-125402380D01*
X192040476Y-125402380D02*
X192707142Y-125402380D01*
X192278571Y-126402380D01*
%TO.C,R59*%
X146087142Y-86472380D02*
X145753809Y-85996190D01*
X145515714Y-86472380D02*
X145515714Y-85472380D01*
X145896666Y-85472380D01*
X145991904Y-85520000D01*
X146039523Y-85567619D01*
X146087142Y-85662857D01*
X146087142Y-85805714D01*
X146039523Y-85900952D01*
X145991904Y-85948571D01*
X145896666Y-85996190D01*
X145515714Y-85996190D01*
X146991904Y-85472380D02*
X146515714Y-85472380D01*
X146468095Y-85948571D01*
X146515714Y-85900952D01*
X146610952Y-85853333D01*
X146849047Y-85853333D01*
X146944285Y-85900952D01*
X146991904Y-85948571D01*
X147039523Y-86043809D01*
X147039523Y-86281904D01*
X146991904Y-86377142D01*
X146944285Y-86424761D01*
X146849047Y-86472380D01*
X146610952Y-86472380D01*
X146515714Y-86424761D01*
X146468095Y-86377142D01*
X147515714Y-86472380D02*
X147706190Y-86472380D01*
X147801428Y-86424761D01*
X147849047Y-86377142D01*
X147944285Y-86234285D01*
X147991904Y-86043809D01*
X147991904Y-85662857D01*
X147944285Y-85567619D01*
X147896666Y-85520000D01*
X147801428Y-85472380D01*
X147610952Y-85472380D01*
X147515714Y-85520000D01*
X147468095Y-85567619D01*
X147420476Y-85662857D01*
X147420476Y-85900952D01*
X147468095Y-85996190D01*
X147515714Y-86043809D01*
X147610952Y-86091428D01*
X147801428Y-86091428D01*
X147896666Y-86043809D01*
X147944285Y-85996190D01*
X147991904Y-85900952D01*
%TO.C,C5*%
X168213333Y-127137142D02*
X168165714Y-127184761D01*
X168022857Y-127232380D01*
X167927619Y-127232380D01*
X167784761Y-127184761D01*
X167689523Y-127089523D01*
X167641904Y-126994285D01*
X167594285Y-126803809D01*
X167594285Y-126660952D01*
X167641904Y-126470476D01*
X167689523Y-126375238D01*
X167784761Y-126280000D01*
X167927619Y-126232380D01*
X168022857Y-126232380D01*
X168165714Y-126280000D01*
X168213333Y-126327619D01*
X169118095Y-126232380D02*
X168641904Y-126232380D01*
X168594285Y-126708571D01*
X168641904Y-126660952D01*
X168737142Y-126613333D01*
X168975238Y-126613333D01*
X169070476Y-126660952D01*
X169118095Y-126708571D01*
X169165714Y-126803809D01*
X169165714Y-127041904D01*
X169118095Y-127137142D01*
X169070476Y-127184761D01*
X168975238Y-127232380D01*
X168737142Y-127232380D01*
X168641904Y-127184761D01*
X168594285Y-127137142D01*
%TO.C,C30*%
X162037142Y-118457142D02*
X161989523Y-118504761D01*
X161846666Y-118552380D01*
X161751428Y-118552380D01*
X161608571Y-118504761D01*
X161513333Y-118409523D01*
X161465714Y-118314285D01*
X161418095Y-118123809D01*
X161418095Y-117980952D01*
X161465714Y-117790476D01*
X161513333Y-117695238D01*
X161608571Y-117600000D01*
X161751428Y-117552380D01*
X161846666Y-117552380D01*
X161989523Y-117600000D01*
X162037142Y-117647619D01*
X162370476Y-117552380D02*
X162989523Y-117552380D01*
X162656190Y-117933333D01*
X162799047Y-117933333D01*
X162894285Y-117980952D01*
X162941904Y-118028571D01*
X162989523Y-118123809D01*
X162989523Y-118361904D01*
X162941904Y-118457142D01*
X162894285Y-118504761D01*
X162799047Y-118552380D01*
X162513333Y-118552380D01*
X162418095Y-118504761D01*
X162370476Y-118457142D01*
X163608571Y-117552380D02*
X163703809Y-117552380D01*
X163799047Y-117600000D01*
X163846666Y-117647619D01*
X163894285Y-117742857D01*
X163941904Y-117933333D01*
X163941904Y-118171428D01*
X163894285Y-118361904D01*
X163846666Y-118457142D01*
X163799047Y-118504761D01*
X163703809Y-118552380D01*
X163608571Y-118552380D01*
X163513333Y-118504761D01*
X163465714Y-118457142D01*
X163418095Y-118361904D01*
X163370476Y-118171428D01*
X163370476Y-117933333D01*
X163418095Y-117742857D01*
X163465714Y-117647619D01*
X163513333Y-117600000D01*
X163608571Y-117552380D01*
D15*
%TO.C,D2*%
X177722619Y-104404523D02*
X177722619Y-103134523D01*
X178025000Y-103134523D01*
X178206428Y-103195000D01*
X178327380Y-103315952D01*
X178387857Y-103436904D01*
X178448333Y-103678809D01*
X178448333Y-103860238D01*
X178387857Y-104102142D01*
X178327380Y-104223095D01*
X178206428Y-104344047D01*
X178025000Y-104404523D01*
X177722619Y-104404523D01*
X178932142Y-103255476D02*
X178992619Y-103195000D01*
X179113571Y-103134523D01*
X179415952Y-103134523D01*
X179536904Y-103195000D01*
X179597380Y-103255476D01*
X179657857Y-103376428D01*
X179657857Y-103497380D01*
X179597380Y-103678809D01*
X178871666Y-104404523D01*
X179657857Y-104404523D01*
D10*
%TO.C,C4*%
X180423333Y-127247142D02*
X180375714Y-127294761D01*
X180232857Y-127342380D01*
X180137619Y-127342380D01*
X179994761Y-127294761D01*
X179899523Y-127199523D01*
X179851904Y-127104285D01*
X179804285Y-126913809D01*
X179804285Y-126770952D01*
X179851904Y-126580476D01*
X179899523Y-126485238D01*
X179994761Y-126390000D01*
X180137619Y-126342380D01*
X180232857Y-126342380D01*
X180375714Y-126390000D01*
X180423333Y-126437619D01*
X181280476Y-126675714D02*
X181280476Y-127342380D01*
X181042380Y-126294761D02*
X180804285Y-127009047D01*
X181423333Y-127009047D01*
%TO.C,D7*%
X160152380Y-108748095D02*
X159152380Y-108748095D01*
X159152380Y-108510000D01*
X159200000Y-108367142D01*
X159295238Y-108271904D01*
X159390476Y-108224285D01*
X159580952Y-108176666D01*
X159723809Y-108176666D01*
X159914285Y-108224285D01*
X160009523Y-108271904D01*
X160104761Y-108367142D01*
X160152380Y-108510000D01*
X160152380Y-108748095D01*
X159152380Y-107843333D02*
X159152380Y-107176666D01*
X160152380Y-107605238D01*
D14*
%TO.C,Q10*%
X124900000Y-112153333D02*
X124833333Y-112120000D01*
X124766666Y-112053333D01*
X124666666Y-111953333D01*
X124600000Y-111920000D01*
X124533333Y-111920000D01*
X124566666Y-112086666D02*
X124500000Y-112053333D01*
X124433333Y-111986666D01*
X124400000Y-111853333D01*
X124400000Y-111620000D01*
X124433333Y-111486666D01*
X124500000Y-111420000D01*
X124566666Y-111386666D01*
X124700000Y-111386666D01*
X124766666Y-111420000D01*
X124833333Y-111486666D01*
X124866666Y-111620000D01*
X124866666Y-111853333D01*
X124833333Y-111986666D01*
X124766666Y-112053333D01*
X124700000Y-112086666D01*
X124566666Y-112086666D01*
X125533333Y-112086666D02*
X125133333Y-112086666D01*
X125333333Y-112086666D02*
X125333333Y-111386666D01*
X125266666Y-111486666D01*
X125200000Y-111553333D01*
X125133333Y-111586666D01*
X125966666Y-111386666D02*
X126033333Y-111386666D01*
X126100000Y-111420000D01*
X126133333Y-111453333D01*
X126166666Y-111520000D01*
X126200000Y-111653333D01*
X126200000Y-111820000D01*
X126166666Y-111953333D01*
X126133333Y-112020000D01*
X126100000Y-112053333D01*
X126033333Y-112086666D01*
X125966666Y-112086666D01*
X125900000Y-112053333D01*
X125866666Y-112020000D01*
X125833333Y-111953333D01*
X125800000Y-111820000D01*
X125800000Y-111653333D01*
X125833333Y-111520000D01*
X125866666Y-111453333D01*
X125900000Y-111420000D01*
X125966666Y-111386666D01*
D10*
%TO.C,R44*%
X189627142Y-131372380D02*
X189293809Y-130896190D01*
X189055714Y-131372380D02*
X189055714Y-130372380D01*
X189436666Y-130372380D01*
X189531904Y-130420000D01*
X189579523Y-130467619D01*
X189627142Y-130562857D01*
X189627142Y-130705714D01*
X189579523Y-130800952D01*
X189531904Y-130848571D01*
X189436666Y-130896190D01*
X189055714Y-130896190D01*
X190484285Y-130705714D02*
X190484285Y-131372380D01*
X190246190Y-130324761D02*
X190008095Y-131039047D01*
X190627142Y-131039047D01*
X191436666Y-130705714D02*
X191436666Y-131372380D01*
X191198571Y-130324761D02*
X190960476Y-131039047D01*
X191579523Y-131039047D01*
%TO.C,U1*%
X137638095Y-115932380D02*
X137638095Y-116741904D01*
X137685714Y-116837142D01*
X137733333Y-116884761D01*
X137828571Y-116932380D01*
X138019047Y-116932380D01*
X138114285Y-116884761D01*
X138161904Y-116837142D01*
X138209523Y-116741904D01*
X138209523Y-115932380D01*
X139209523Y-116932380D02*
X138638095Y-116932380D01*
X138923809Y-116932380D02*
X138923809Y-115932380D01*
X138828571Y-116075238D01*
X138733333Y-116170476D01*
X138638095Y-116218095D01*
%TO.C,U4*%
X138428095Y-129462380D02*
X138428095Y-130271904D01*
X138475714Y-130367142D01*
X138523333Y-130414761D01*
X138618571Y-130462380D01*
X138809047Y-130462380D01*
X138904285Y-130414761D01*
X138951904Y-130367142D01*
X138999523Y-130271904D01*
X138999523Y-129462380D01*
X139904285Y-129795714D02*
X139904285Y-130462380D01*
X139666190Y-129414761D02*
X139428095Y-130129047D01*
X140047142Y-130129047D01*
%TO.C,C17*%
X184307142Y-93377142D02*
X184259523Y-93424761D01*
X184116666Y-93472380D01*
X184021428Y-93472380D01*
X183878571Y-93424761D01*
X183783333Y-93329523D01*
X183735714Y-93234285D01*
X183688095Y-93043809D01*
X183688095Y-92900952D01*
X183735714Y-92710476D01*
X183783333Y-92615238D01*
X183878571Y-92520000D01*
X184021428Y-92472380D01*
X184116666Y-92472380D01*
X184259523Y-92520000D01*
X184307142Y-92567619D01*
X185259523Y-93472380D02*
X184688095Y-93472380D01*
X184973809Y-93472380D02*
X184973809Y-92472380D01*
X184878571Y-92615238D01*
X184783333Y-92710476D01*
X184688095Y-92758095D01*
X185592857Y-92472380D02*
X186259523Y-92472380D01*
X185830952Y-93472380D01*
%TO.C,C31*%
X156087142Y-127247142D02*
X156039523Y-127294761D01*
X155896666Y-127342380D01*
X155801428Y-127342380D01*
X155658571Y-127294761D01*
X155563333Y-127199523D01*
X155515714Y-127104285D01*
X155468095Y-126913809D01*
X155468095Y-126770952D01*
X155515714Y-126580476D01*
X155563333Y-126485238D01*
X155658571Y-126390000D01*
X155801428Y-126342380D01*
X155896666Y-126342380D01*
X156039523Y-126390000D01*
X156087142Y-126437619D01*
X156420476Y-126342380D02*
X157039523Y-126342380D01*
X156706190Y-126723333D01*
X156849047Y-126723333D01*
X156944285Y-126770952D01*
X156991904Y-126818571D01*
X157039523Y-126913809D01*
X157039523Y-127151904D01*
X156991904Y-127247142D01*
X156944285Y-127294761D01*
X156849047Y-127342380D01*
X156563333Y-127342380D01*
X156468095Y-127294761D01*
X156420476Y-127247142D01*
X157991904Y-127342380D02*
X157420476Y-127342380D01*
X157706190Y-127342380D02*
X157706190Y-126342380D01*
X157610952Y-126485238D01*
X157515714Y-126580476D01*
X157420476Y-126628095D01*
%TO.C,Q13*%
X156648571Y-92317619D02*
X156553333Y-92270000D01*
X156458095Y-92174761D01*
X156315238Y-92031904D01*
X156220000Y-91984285D01*
X156124761Y-91984285D01*
X156172380Y-92222380D02*
X156077142Y-92174761D01*
X155981904Y-92079523D01*
X155934285Y-91889047D01*
X155934285Y-91555714D01*
X155981904Y-91365238D01*
X156077142Y-91270000D01*
X156172380Y-91222380D01*
X156362857Y-91222380D01*
X156458095Y-91270000D01*
X156553333Y-91365238D01*
X156600952Y-91555714D01*
X156600952Y-91889047D01*
X156553333Y-92079523D01*
X156458095Y-92174761D01*
X156362857Y-92222380D01*
X156172380Y-92222380D01*
X157553333Y-92222380D02*
X156981904Y-92222380D01*
X157267619Y-92222380D02*
X157267619Y-91222380D01*
X157172380Y-91365238D01*
X157077142Y-91460476D01*
X156981904Y-91508095D01*
X157886666Y-91222380D02*
X158505714Y-91222380D01*
X158172380Y-91603333D01*
X158315238Y-91603333D01*
X158410476Y-91650952D01*
X158458095Y-91698571D01*
X158505714Y-91793809D01*
X158505714Y-92031904D01*
X158458095Y-92127142D01*
X158410476Y-92174761D01*
X158315238Y-92222380D01*
X158029523Y-92222380D01*
X157934285Y-92174761D01*
X157886666Y-92127142D01*
%TO.C,U5*%
X124968095Y-129592380D02*
X124968095Y-130401904D01*
X125015714Y-130497142D01*
X125063333Y-130544761D01*
X125158571Y-130592380D01*
X125349047Y-130592380D01*
X125444285Y-130544761D01*
X125491904Y-130497142D01*
X125539523Y-130401904D01*
X125539523Y-129592380D01*
X126491904Y-129592380D02*
X126015714Y-129592380D01*
X125968095Y-130068571D01*
X126015714Y-130020952D01*
X126110952Y-129973333D01*
X126349047Y-129973333D01*
X126444285Y-130020952D01*
X126491904Y-130068571D01*
X126539523Y-130163809D01*
X126539523Y-130401904D01*
X126491904Y-130497142D01*
X126444285Y-130544761D01*
X126349047Y-130592380D01*
X126110952Y-130592380D01*
X126015714Y-130544761D01*
X125968095Y-130497142D01*
%TO.C,R61*%
X212944450Y-99574687D02*
X212843435Y-100147106D01*
X213348511Y-99978748D02*
X212641404Y-100685854D01*
X212372030Y-100416480D01*
X212338358Y-100315465D01*
X212338358Y-100248122D01*
X212372030Y-100147106D01*
X212473045Y-100046091D01*
X212574061Y-100012419D01*
X212641404Y-100012419D01*
X212742419Y-100046091D01*
X213011793Y-100315465D01*
X211631251Y-99675702D02*
X211765938Y-99810389D01*
X211866954Y-99844061D01*
X211934297Y-99844061D01*
X212102656Y-99810389D01*
X212271015Y-99709374D01*
X212540389Y-99440000D01*
X212574061Y-99338984D01*
X212574061Y-99271641D01*
X212540389Y-99170625D01*
X212405702Y-99035938D01*
X212304687Y-99002267D01*
X212237343Y-99002267D01*
X212136328Y-99035938D01*
X211967969Y-99204297D01*
X211934297Y-99305312D01*
X211934297Y-99372656D01*
X211967969Y-99473671D01*
X212102656Y-99608358D01*
X212203671Y-99642030D01*
X212271015Y-99642030D01*
X212372030Y-99608358D01*
X211597580Y-98227816D02*
X212001641Y-98631877D01*
X211799610Y-98429847D02*
X211092503Y-99136954D01*
X211260862Y-99103282D01*
X211395549Y-99103282D01*
X211496564Y-99136954D01*
D14*
%TO.C,D17*%
X188860000Y-103526666D02*
X188860000Y-102826666D01*
X189026666Y-102826666D01*
X189126666Y-102860000D01*
X189193333Y-102926666D01*
X189226666Y-102993333D01*
X189260000Y-103126666D01*
X189260000Y-103226666D01*
X189226666Y-103360000D01*
X189193333Y-103426666D01*
X189126666Y-103493333D01*
X189026666Y-103526666D01*
X188860000Y-103526666D01*
X189926666Y-103526666D02*
X189526666Y-103526666D01*
X189726666Y-103526666D02*
X189726666Y-102826666D01*
X189660000Y-102926666D01*
X189593333Y-102993333D01*
X189526666Y-103026666D01*
X190160000Y-102826666D02*
X190626666Y-102826666D01*
X190326666Y-103526666D01*
%TO.C,U2*%
X134778400Y-93792675D02*
X134478400Y-93792675D01*
X134478400Y-94092675D02*
X133163400Y-94092675D01*
X134778400Y-101012675D02*
X134478400Y-101012675D01*
X134478400Y-101012675D02*
X134478400Y-100712675D01*
X141698400Y-93792675D02*
X141698400Y-94092675D01*
X134478400Y-93792675D02*
X134478400Y-94092675D01*
X141698400Y-101012675D02*
X141698400Y-100712675D01*
X141398400Y-93792675D02*
X141698400Y-93792675D01*
X141398400Y-101012675D02*
X141698400Y-101012675D01*
%TO.C,C32*%
X158260000Y-95700000D02*
X161210000Y-95700000D01*
X166780000Y-103155563D02*
X166780000Y-95700000D01*
X158260000Y-103155563D02*
X158260000Y-95700000D01*
X165715563Y-104220000D02*
X166780000Y-103155563D01*
X166780000Y-95700000D02*
X163830000Y-95700000D01*
X159324437Y-104220000D02*
X161210000Y-104220000D01*
X159324437Y-104220000D02*
X158260000Y-103155563D01*
X165715563Y-104220000D02*
X163830000Y-104220000D01*
%TO.C,D15*%
X195650000Y-122450000D02*
X199550000Y-122450000D01*
X195650000Y-120450000D02*
X199550000Y-120450000D01*
X195650000Y-120450000D02*
X195650000Y-122450000D01*
%TO.C,R62*%
X215562035Y-99489436D02*
X215779316Y-99706717D01*
X216099436Y-98952035D02*
X216316717Y-99169316D01*
%TO.C,TP2*%
X169820000Y-115960000D02*
G75*
G03*
X169820000Y-115960000I-1200000J0D01*
G01*
%TO.C,R7*%
X102866359Y-112090000D02*
X103173641Y-112090000D01*
X102866359Y-111330000D02*
X103173641Y-111330000D01*
%TO.C,C11*%
X132280000Y-98172164D02*
X132280000Y-98387836D01*
X131560000Y-98172164D02*
X131560000Y-98387836D01*
%TO.C,R10*%
X102866359Y-114590000D02*
X103173641Y-114590000D01*
X102866359Y-113830000D02*
X103173641Y-113830000D01*
%TO.C,R35*%
X121970000Y-113323641D02*
X121970000Y-113016359D01*
X122730000Y-113323641D02*
X122730000Y-113016359D01*
%TO.C,C13*%
X164360000Y-113242500D02*
X164360000Y-110292500D01*
X171815563Y-113242500D02*
X164360000Y-113242500D01*
X172880000Y-112178063D02*
X172880000Y-110292500D01*
X172880000Y-105786937D02*
X171815563Y-104722500D01*
X172880000Y-112178063D02*
X171815563Y-113242500D01*
X164360000Y-104722500D02*
X164360000Y-107672500D01*
X172880000Y-105786937D02*
X172880000Y-107672500D01*
X171815563Y-104722500D02*
X164360000Y-104722500D01*
%TO.C,C29*%
X216820000Y-90462164D02*
X216820000Y-90677836D01*
X217540000Y-90462164D02*
X217540000Y-90677836D01*
%TO.C,R53*%
X201773641Y-100260000D02*
X201466359Y-100260000D01*
X201773641Y-101020000D02*
X201466359Y-101020000D01*
%TO.C,R5*%
X169376359Y-87440000D02*
X169683641Y-87440000D01*
X169376359Y-86680000D02*
X169683641Y-86680000D01*
%TO.C,R1*%
X104640000Y-126113641D02*
X104640000Y-125806359D01*
X105400000Y-126113641D02*
X105400000Y-125806359D01*
%TO.C,R37*%
X124902776Y-118132500D02*
X125412224Y-118132500D01*
X124902776Y-117087500D02*
X125412224Y-117087500D01*
%TO.C,R2*%
X103640000Y-101363641D02*
X103640000Y-101056359D01*
X104400000Y-101363641D02*
X104400000Y-101056359D01*
%TO.C,C24*%
X200030000Y-101996252D02*
X200030000Y-100573748D01*
X197310000Y-101996252D02*
X197310000Y-100573748D01*
%TO.C,R47*%
X198415276Y-98407500D02*
X198924724Y-98407500D01*
X198415276Y-97362500D02*
X198924724Y-97362500D01*
%TO.C,C10*%
X151880000Y-120852164D02*
X151880000Y-121067836D01*
X151160000Y-120852164D02*
X151160000Y-121067836D01*
%TO.C,D18*%
X210220000Y-107135000D02*
X210220000Y-103235000D01*
X208220000Y-107135000D02*
X210220000Y-107135000D01*
X208220000Y-107135000D02*
X208220000Y-103235000D01*
%TO.C,R18*%
X153140000Y-121113641D02*
X153140000Y-120806359D01*
X153900000Y-121113641D02*
X153900000Y-120806359D01*
%TO.C,R12*%
X102866359Y-118830000D02*
X103173641Y-118830000D01*
X102866359Y-119590000D02*
X103173641Y-119590000D01*
%TO.C,R41*%
X129326359Y-126000000D02*
X129633641Y-126000000D01*
X129326359Y-125240000D02*
X129633641Y-125240000D01*
%TO.C,R29*%
X147680000Y-122816141D02*
X147680000Y-122508859D01*
X148440000Y-122816141D02*
X148440000Y-122508859D01*
%TO.C,R50*%
X193053641Y-131230000D02*
X192746359Y-131230000D01*
X193053641Y-130470000D02*
X192746359Y-130470000D01*
%TO.C,SW3*%
X112320000Y-129210000D02*
X106320000Y-129210000D01*
X106220000Y-124660000D02*
X106220000Y-127260000D01*
X104220000Y-122660000D02*
X105220000Y-122660000D01*
X112220000Y-122710000D02*
X106420000Y-122710000D01*
X104220000Y-123660000D02*
X104220000Y-122660000D01*
X112420000Y-124660000D02*
X112420000Y-127260000D01*
%TO.C,SW4*%
X106680000Y-109880000D02*
X106680000Y-120160000D01*
X111980000Y-120160000D02*
X111980000Y-109880000D01*
X106680000Y-120160000D02*
X111980000Y-120160000D01*
X111980000Y-109880000D02*
X110330000Y-109880000D01*
X108330000Y-109880000D02*
X106680000Y-109880000D01*
X108330000Y-109880000D02*
G75*
G03*
X110330000Y-109880000I1000000J0D01*
G01*
%TO.C,J3*%
X143960000Y-85265000D02*
X159080000Y-85265000D01*
X159380000Y-83155000D02*
X159380000Y-85565000D01*
X143960000Y-77145000D02*
X143960000Y-85265000D01*
X159080000Y-85265000D02*
X159080000Y-77145000D01*
X159080000Y-77145000D02*
X143960000Y-77145000D01*
X159380000Y-85565000D02*
X156970000Y-85565000D01*
%TO.C,D3*%
X117570000Y-101705000D02*
X115110000Y-101705000D01*
X115110000Y-101705000D02*
X115110000Y-103175000D01*
X115110000Y-103175000D02*
X117570000Y-103175000D01*
%TO.C,TP5*%
X208880000Y-85900000D02*
G75*
G03*
X208880000Y-85900000I-1200000J0D01*
G01*
%TO.C,C26*%
X145770000Y-89670820D02*
X145770000Y-89886492D01*
X145050000Y-89670820D02*
X145050000Y-89886492D01*
%TO.C,J2*%
X134810000Y-77267500D02*
X134810000Y-86387500D01*
X119940000Y-93007500D02*
X119440000Y-92007500D01*
X114230000Y-86387500D02*
X114230000Y-77267500D01*
X122470000Y-86387500D02*
X122470000Y-77267500D01*
X126570000Y-86387500D02*
X126570000Y-77267500D01*
X134810000Y-86387500D02*
X114230000Y-86387500D01*
X114230000Y-77267500D02*
X134810000Y-77267500D01*
X119440000Y-92007500D02*
X118940000Y-93007500D01*
X118940000Y-93007500D02*
X119940000Y-93007500D01*
%TO.C,R15*%
X108366359Y-89550000D02*
X108673641Y-89550000D01*
X108366359Y-90310000D02*
X108673641Y-90310000D01*
%TO.C,C1*%
X113880000Y-126067836D02*
X113880000Y-125852164D01*
X113160000Y-126067836D02*
X113160000Y-125852164D01*
%TO.C,R9*%
X119616359Y-104860000D02*
X119923641Y-104860000D01*
X119616359Y-104100000D02*
X119923641Y-104100000D01*
%TO.C,Q1*%
X176990000Y-96010000D02*
X176990000Y-96280000D01*
X176990000Y-96280000D02*
X178090000Y-96280000D01*
X176990000Y-102910000D02*
X176990000Y-102640000D01*
X175490000Y-96010000D02*
X176990000Y-96010000D01*
X176990000Y-102640000D02*
X179820000Y-102640000D01*
X175490000Y-102910000D02*
X176990000Y-102910000D01*
%TO.C,R56*%
X154292500Y-94964724D02*
X154292500Y-94455276D01*
X153247500Y-94964724D02*
X153247500Y-94455276D01*
%TO.C,C7*%
X133059190Y-92461693D02*
X133211693Y-92309190D01*
X133568307Y-92970810D02*
X133720810Y-92818307D01*
%TO.C,TP1*%
X189650000Y-112360000D02*
G75*
G03*
X189650000Y-112360000I-1200000J0D01*
G01*
%TO.C,C16*%
X171424437Y-113722500D02*
X170360000Y-114786937D01*
X170360000Y-114786937D02*
X170360000Y-122242500D01*
X178880000Y-122242500D02*
X175930000Y-122242500D01*
X170360000Y-122242500D02*
X173310000Y-122242500D01*
X177815563Y-113722500D02*
X175930000Y-113722500D01*
X171424437Y-113722500D02*
X173310000Y-113722500D01*
X178880000Y-114786937D02*
X178880000Y-122242500D01*
X177815563Y-113722500D02*
X178880000Y-114786937D01*
%TO.C,C2*%
X170285000Y-83658748D02*
X170285000Y-84181252D01*
X168815000Y-83658748D02*
X168815000Y-84181252D01*
%TO.C,D6*%
X115110000Y-95975000D02*
X115110000Y-97445000D01*
X117570000Y-95975000D02*
X115110000Y-95975000D01*
X115110000Y-97445000D02*
X117570000Y-97445000D01*
%TO.C,D22*%
X215745355Y-95195198D02*
X214005872Y-96934681D01*
X215045319Y-97974128D02*
X216784802Y-96234645D01*
X216784802Y-96234645D02*
X215745355Y-95195198D01*
%TO.C,SW7*%
X111770000Y-88680000D02*
X111770000Y-82880000D01*
X109820000Y-82680000D02*
X107220000Y-82680000D01*
X111820000Y-80680000D02*
X111820000Y-81680000D01*
X110820000Y-80680000D02*
X111820000Y-80680000D01*
X105270000Y-88780000D02*
X105270000Y-82780000D01*
X109820000Y-88880000D02*
X107220000Y-88880000D01*
%TO.C,Q14*%
X192900000Y-113950000D02*
X197900000Y-113950000D01*
D11*
X198650000Y-119800000D02*
X198650000Y-119800000D01*
X198550000Y-119800000D02*
X198550000Y-119800000D01*
D14*
X192900000Y-119350000D02*
X199600000Y-119350000D01*
D11*
X198650000Y-119800000D02*
X198650000Y-119800000D01*
X198550000Y-119800000D02*
G75*
G03*
X198650000Y-119800000I50000J0D01*
G01*
X198650000Y-119800000D02*
G75*
G03*
X198550000Y-119800000I-50000J0D01*
G01*
X198650000Y-119800000D02*
G75*
G03*
X198550000Y-119800000I-50000J0D01*
G01*
D14*
%TO.C,J4*%
X227055000Y-109900000D02*
X227055000Y-120020000D01*
X222735000Y-109900000D02*
X217835000Y-109900000D01*
X222735000Y-120020000D02*
X222735000Y-120610000D01*
X222735000Y-120020000D02*
X217835000Y-120020000D01*
X224955000Y-120020000D02*
X224955000Y-120610000D01*
X224955000Y-109310000D02*
X224955000Y-109900000D01*
X227055000Y-109900000D02*
X224955000Y-109900000D01*
X217835000Y-109900000D02*
X217835000Y-120020000D01*
X222735000Y-109310000D02*
X222735000Y-109900000D01*
X227055000Y-120020000D02*
X224955000Y-120020000D01*
X224955000Y-109310000D02*
G75*
G03*
X222735000Y-109310000I-1110000J0D01*
G01*
X222735000Y-120610000D02*
G75*
G03*
X224955000Y-120610000I1110000J0D01*
G01*
%TO.C,C23*%
X198860000Y-124738748D02*
X198860000Y-126161252D01*
X196140000Y-124738748D02*
X196140000Y-126161252D01*
%TO.C,SW6*%
X104952000Y-98488000D02*
X104952000Y-94932000D01*
X104952000Y-94932000D02*
X113588000Y-94932000D01*
X113588000Y-98488000D02*
X104952000Y-98488000D01*
X113588000Y-94932000D02*
X113588000Y-98488000D01*
%TO.C,R14*%
X169000000Y-120113641D02*
X169000000Y-119806359D01*
X168240000Y-120113641D02*
X168240000Y-119806359D01*
%TO.C,R51*%
X198353641Y-129070000D02*
X198046359Y-129070000D01*
X198353641Y-129830000D02*
X198046359Y-129830000D01*
%TO.C,R31*%
X122792500Y-119455276D02*
X122792500Y-119964724D01*
X121747500Y-119455276D02*
X121747500Y-119964724D01*
%TO.C,U8*%
X188960000Y-98085000D02*
X188960000Y-96135000D01*
X188960000Y-98085000D02*
X188960000Y-100035000D01*
X194080000Y-98085000D02*
X194080000Y-100035000D01*
X194080000Y-98085000D02*
X194080000Y-94635000D01*
%TO.C,R63*%
X184274724Y-120937500D02*
X183765276Y-120937500D01*
X184274724Y-121982500D02*
X183765276Y-121982500D01*
%TO.C,D21*%
X213724798Y-94316618D02*
X211985315Y-96056101D01*
X211985315Y-96056101D02*
X213024762Y-97095548D01*
X213024762Y-97095548D02*
X214764245Y-95356065D01*
%TO.C,Q2*%
X159400000Y-89300000D02*
X160330000Y-89300000D01*
X159400000Y-89300000D02*
X159400000Y-87840000D01*
X162560000Y-89300000D02*
X162560000Y-86140000D01*
X162560000Y-89300000D02*
X161630000Y-89300000D01*
%TO.C,R65*%
X157042500Y-118205276D02*
X157042500Y-118714724D01*
X155997500Y-118205276D02*
X155997500Y-118714724D01*
D11*
%TO.C,Q16*%
X198570000Y-111035000D02*
X198570000Y-111035000D01*
X198670000Y-111035000D02*
X198670000Y-111035000D01*
X198670000Y-111035000D02*
X198670000Y-111035000D01*
D14*
X192920000Y-110585000D02*
X199620000Y-110585000D01*
X192920000Y-105185000D02*
X197920000Y-105185000D01*
D11*
X198670000Y-111035000D02*
G75*
G03*
X198570000Y-111035000I-50000J0D01*
G01*
X198670000Y-111035000D02*
G75*
G03*
X198570000Y-111035000I-50000J0D01*
G01*
X198570000Y-111035000D02*
G75*
G03*
X198670000Y-111035000I50000J0D01*
G01*
D14*
%TO.C,U10*%
X152330000Y-92710000D02*
X152330000Y-90760000D01*
X147210000Y-92710000D02*
X147210000Y-90760000D01*
X147210000Y-92710000D02*
X147210000Y-96160000D01*
X152330000Y-92710000D02*
X152330000Y-94660000D01*
%TO.C,J1*%
X183290000Y-81705000D02*
X183880000Y-81705000D01*
X173170000Y-77385000D02*
X173170000Y-79485000D01*
X172580000Y-81705000D02*
X173170000Y-81705000D01*
X173170000Y-86605000D02*
X183290000Y-86605000D01*
X183290000Y-79485000D02*
X183880000Y-79485000D01*
X173170000Y-81705000D02*
X173170000Y-86605000D01*
X183290000Y-77385000D02*
X183290000Y-79485000D01*
X173170000Y-77385000D02*
X183290000Y-77385000D01*
X183290000Y-81705000D02*
X183290000Y-86605000D01*
X172580000Y-79485000D02*
X173170000Y-79485000D01*
X172580000Y-79485000D02*
G75*
G03*
X172580000Y-81705000I0J-1110000D01*
G01*
X183880000Y-81705000D02*
G75*
G03*
X183880000Y-79485000I0J1110000D01*
G01*
D11*
%TO.C,Q15*%
X200950000Y-121200000D02*
X200950000Y-121200000D01*
D14*
X206800000Y-115450000D02*
X206800000Y-120450000D01*
D11*
X200950000Y-121200000D02*
X200950000Y-121200000D01*
D14*
X201400000Y-115450000D02*
X201400000Y-122150000D01*
D11*
X200950000Y-121100000D02*
X200950000Y-121100000D01*
X200950000Y-121100000D02*
G75*
G03*
X200950000Y-121200000I0J-50000D01*
G01*
X200950000Y-121200000D02*
G75*
G03*
X200950000Y-121100000I0J50000D01*
G01*
X200950000Y-121200000D02*
G75*
G03*
X200950000Y-121100000I0J50000D01*
G01*
D14*
%TO.C,R52*%
X196600000Y-103131359D02*
X196600000Y-103438641D01*
X195840000Y-103131359D02*
X195840000Y-103438641D01*
%TO.C,D1*%
X162260000Y-83640000D02*
X162260000Y-79740000D01*
X160260000Y-83640000D02*
X160260000Y-79740000D01*
X160260000Y-83640000D02*
X162260000Y-83640000D01*
%TO.C,R38*%
X124995276Y-107447500D02*
X125504724Y-107447500D01*
X124995276Y-108492500D02*
X125504724Y-108492500D01*
%TO.C,C20*%
X189507836Y-121810000D02*
X189292164Y-121810000D01*
X189507836Y-121090000D02*
X189292164Y-121090000D01*
%TO.C,R32*%
X121827500Y-109915276D02*
X121827500Y-110424724D01*
X122872500Y-109915276D02*
X122872500Y-110424724D01*
%TO.C,R46*%
X193715276Y-102662500D02*
X194224724Y-102662500D01*
X193715276Y-103707500D02*
X194224724Y-103707500D01*
D11*
%TO.C,Q17*%
X207270000Y-103335000D02*
X207270000Y-103335000D01*
D14*
X206820000Y-109085000D02*
X206820000Y-102385000D01*
D11*
X207270000Y-103335000D02*
X207270000Y-103335000D01*
D14*
X201420000Y-109085000D02*
X201420000Y-104085000D01*
D11*
X207270000Y-103435000D02*
X207270000Y-103435000D01*
X207270000Y-103435000D02*
G75*
G03*
X207270000Y-103335000I0J50000D01*
G01*
X207270000Y-103335000D02*
G75*
G03*
X207270000Y-103435000I0J-50000D01*
G01*
X207270000Y-103335000D02*
G75*
G03*
X207270000Y-103435000I0J-50000D01*
G01*
D14*
%TO.C,R40*%
X143243641Y-125990000D02*
X142936359Y-125990000D01*
X143243641Y-125230000D02*
X142936359Y-125230000D01*
%TO.C,D13*%
X196670000Y-100935000D02*
X196670000Y-97035000D01*
X194670000Y-100935000D02*
X196670000Y-100935000D01*
X194670000Y-100935000D02*
X194670000Y-97035000D01*
%TO.C,JP1*%
X137940000Y-81320000D02*
X137940000Y-83920000D01*
X137940000Y-78720000D02*
X139270000Y-78720000D01*
X137940000Y-83920000D02*
X140600000Y-83920000D01*
X137940000Y-80050000D02*
X137940000Y-78720000D01*
X140600000Y-81320000D02*
X140600000Y-83920000D01*
X137940000Y-81320000D02*
X140600000Y-81320000D01*
%TO.C,U3*%
X157720000Y-111355000D02*
X157720000Y-112855000D01*
X157450000Y-112855000D02*
X157450000Y-113955000D01*
X150820000Y-111355000D02*
X150820000Y-112855000D01*
X150820000Y-112855000D02*
X151090000Y-112855000D01*
X151090000Y-112855000D02*
X151090000Y-115685000D01*
X157720000Y-112855000D02*
X157450000Y-112855000D01*
%TO.C,R17*%
X103660000Y-96873641D02*
X103660000Y-96566359D01*
X104420000Y-96873641D02*
X104420000Y-96566359D01*
%TO.C,C14*%
X159880000Y-111852164D02*
X159880000Y-112067836D01*
X159160000Y-111852164D02*
X159160000Y-112067836D01*
%TO.C,R58*%
X151024724Y-86687500D02*
X150515276Y-86687500D01*
X151024724Y-87732500D02*
X150515276Y-87732500D01*
%TO.C,C18*%
X185775000Y-124228748D02*
X185775000Y-124751252D01*
X187245000Y-124228748D02*
X187245000Y-124751252D01*
%TO.C,R8*%
X119616359Y-102060000D02*
X119923641Y-102060000D01*
X119616359Y-102820000D02*
X119923641Y-102820000D01*
%TO.C,R60*%
X142842500Y-82555276D02*
X142842500Y-83064724D01*
X141797500Y-82555276D02*
X141797500Y-83064724D01*
%TO.C,J5*%
X227180000Y-95120000D02*
X227180000Y-80000000D01*
X219060000Y-80000000D02*
X219060000Y-95120000D01*
X218760000Y-95420000D02*
X218760000Y-93010000D01*
X227180000Y-80000000D02*
X219060000Y-80000000D01*
X221170000Y-95420000D02*
X218760000Y-95420000D01*
X219060000Y-95120000D02*
X227180000Y-95120000D01*
%TO.C,C15*%
X154647836Y-103960000D02*
X154432164Y-103960000D01*
X154647836Y-103240000D02*
X154432164Y-103240000D01*
%TO.C,C9*%
X142520429Y-101653916D02*
X142367926Y-101806419D01*
X143029546Y-102163033D02*
X142877043Y-102315536D01*
%TO.C,D16*%
X210200000Y-117300000D02*
X210200000Y-121200000D01*
X210200000Y-117300000D02*
X208200000Y-117300000D01*
X208200000Y-117300000D02*
X208200000Y-121200000D01*
%TO.C,R45*%
X195145276Y-128927500D02*
X195654724Y-128927500D01*
X195145276Y-129972500D02*
X195654724Y-129972500D01*
%TO.C,Q3*%
X180345000Y-100490000D02*
X180345000Y-98990000D01*
X180345000Y-98990000D02*
X180615000Y-98990000D01*
X186975000Y-98990000D02*
X186975000Y-96160000D01*
X187245000Y-100490000D02*
X187245000Y-98990000D01*
X180615000Y-98990000D02*
X180615000Y-97890000D01*
X187245000Y-98990000D02*
X186975000Y-98990000D01*
%TO.C,R13*%
X161433641Y-85150000D02*
X161126359Y-85150000D01*
X161433641Y-84390000D02*
X161126359Y-84390000D01*
%TO.C,Q9*%
X126750000Y-120750000D02*
X125820000Y-120750000D01*
X126750000Y-120750000D02*
X126750000Y-122210000D01*
X123590000Y-120750000D02*
X123590000Y-123910000D01*
X123590000Y-120750000D02*
X124520000Y-120750000D01*
%TO.C,R6*%
X161153641Y-92620000D02*
X160846359Y-92620000D01*
X161153641Y-91860000D02*
X160846359Y-91860000D01*
%TO.C,C28*%
X212338307Y-103309190D02*
X212490810Y-103461693D01*
X211829190Y-103818307D02*
X211981693Y-103970810D01*
%TO.C,R30*%
X154366359Y-102840000D02*
X154673641Y-102840000D01*
X154366359Y-102080000D02*
X154673641Y-102080000D01*
%TO.C,D12*%
X195350000Y-122450000D02*
X191450000Y-122450000D01*
X195350000Y-122450000D02*
X195350000Y-120450000D01*
X195350000Y-120450000D02*
X191450000Y-120450000D01*
%TO.C,R66*%
X156497500Y-102714724D02*
X156497500Y-102205276D01*
X157542500Y-102714724D02*
X157542500Y-102205276D01*
%TO.C,D4*%
X115110000Y-105215000D02*
X117570000Y-105215000D01*
X117570000Y-103745000D02*
X115110000Y-103745000D01*
X115110000Y-103745000D02*
X115110000Y-105215000D01*
%TO.C,C8*%
X108627836Y-81960000D02*
X108412164Y-81960000D01*
X108627836Y-81240000D02*
X108412164Y-81240000D01*
%TO.C,R11*%
X102866359Y-116330000D02*
X103173641Y-116330000D01*
X102866359Y-117090000D02*
X103173641Y-117090000D01*
%TO.C,TP3*%
X154720000Y-117960000D02*
G75*
G03*
X154720000Y-117960000I-1200000J0D01*
G01*
%TO.C,R16*%
X119616359Y-96330000D02*
X119923641Y-96330000D01*
X119616359Y-97090000D02*
X119923641Y-97090000D01*
%TO.C,D11*%
X150675000Y-124320000D02*
X150675000Y-121860000D01*
X149205000Y-121860000D02*
X149205000Y-124320000D01*
X149205000Y-124320000D02*
X150675000Y-124320000D01*
%TO.C,R57*%
X153247500Y-90964724D02*
X153247500Y-90455276D01*
X154292500Y-90964724D02*
X154292500Y-90455276D01*
%TO.C,R3*%
X104400000Y-105863641D02*
X104400000Y-105556359D01*
X103640000Y-105863641D02*
X103640000Y-105556359D01*
%TO.C,U7*%
X191900000Y-123090000D02*
X188450000Y-123090000D01*
X191900000Y-128210000D02*
X193850000Y-128210000D01*
X191900000Y-128210000D02*
X189950000Y-128210000D01*
X191900000Y-123090000D02*
X193850000Y-123090000D01*
%TO.C,R4*%
X169150000Y-80593641D02*
X169150000Y-80286359D01*
X169910000Y-80593641D02*
X169910000Y-80286359D01*
%TO.C,R59*%
X147024724Y-87732500D02*
X146515276Y-87732500D01*
X147024724Y-86687500D02*
X146515276Y-86687500D01*
%TO.C,C5*%
X164360000Y-123786937D02*
X164360000Y-125672500D01*
X172880000Y-131242500D02*
X172880000Y-128292500D01*
X165424437Y-122722500D02*
X172880000Y-122722500D01*
X165424437Y-131242500D02*
X172880000Y-131242500D01*
X164360000Y-130178063D02*
X165424437Y-131242500D01*
X164360000Y-130178063D02*
X164360000Y-128292500D01*
X164360000Y-123786937D02*
X165424437Y-122722500D01*
X172880000Y-122722500D02*
X172880000Y-125672500D01*
%TO.C,C30*%
X159424437Y-113722500D02*
X161310000Y-113722500D01*
X166880000Y-122242500D02*
X163930000Y-122242500D01*
X165815563Y-113722500D02*
X166880000Y-114786937D01*
X158360000Y-114786937D02*
X158360000Y-122242500D01*
X158360000Y-122242500D02*
X161310000Y-122242500D01*
X166880000Y-114786937D02*
X166880000Y-122242500D01*
X159424437Y-113722500D02*
X158360000Y-114786937D01*
X165815563Y-113722500D02*
X163930000Y-113722500D01*
D16*
%TO.C,D2*%
X177520000Y-110860000D02*
X177520000Y-110860000D01*
D11*
X176020000Y-105335000D02*
X176320000Y-105335000D01*
X179020000Y-105335000D02*
X178720000Y-105335000D01*
X176020000Y-109585000D02*
X176020000Y-105335000D01*
D16*
X177520000Y-110760000D02*
X177520000Y-110760000D01*
D11*
X179020000Y-109585000D02*
X179020000Y-105335000D01*
D16*
X177520000Y-110860000D02*
G75*
G03*
X177520000Y-110760000I0J50000D01*
G01*
X177520000Y-110760000D02*
G75*
G03*
X177520000Y-110860000I0J-50000D01*
G01*
D14*
%TO.C,SW5*%
X162980000Y-79380000D02*
X168060000Y-79380000D01*
X162980000Y-89540000D02*
X162980000Y-79380000D01*
X168060000Y-89540000D02*
X162980000Y-89540000D01*
X168060000Y-79380000D02*
X168060000Y-89540000D01*
X162980000Y-89540000D02*
X162980000Y-79380000D01*
%TO.C,TP4*%
X214070000Y-85900000D02*
G75*
G03*
X214070000Y-85900000I-1200000J0D01*
G01*
%TO.C,C21*%
X195562164Y-95125000D02*
X195777836Y-95125000D01*
X195562164Y-95845000D02*
X195777836Y-95845000D01*
%TO.C,C4*%
X177324437Y-122722500D02*
X179210000Y-122722500D01*
X176260000Y-123786937D02*
X176260000Y-131242500D01*
X176260000Y-131242500D02*
X179210000Y-131242500D01*
X177324437Y-122722500D02*
X176260000Y-123786937D01*
X184780000Y-123786937D02*
X184780000Y-131242500D01*
X184780000Y-131242500D02*
X181830000Y-131242500D01*
X183715563Y-122722500D02*
X181830000Y-122722500D01*
X183715563Y-122722500D02*
X184780000Y-123786937D01*
%TO.C,D7*%
X158520000Y-110210000D02*
X158520000Y-106310000D01*
X158520000Y-110210000D02*
X160520000Y-110210000D01*
X160520000Y-110210000D02*
X160520000Y-106310000D01*
%TO.C,Q10*%
X123670000Y-111010000D02*
X124600000Y-111010000D01*
X123670000Y-111010000D02*
X123670000Y-114170000D01*
X126830000Y-111010000D02*
X126830000Y-112470000D01*
X126830000Y-111010000D02*
X125900000Y-111010000D01*
%TO.C,R44*%
X191145276Y-129972500D02*
X191654724Y-129972500D01*
X191145276Y-128927500D02*
X191654724Y-128927500D01*
%TO.C,U1*%
X128143000Y-104960000D02*
X150143000Y-104960000D01*
X150143000Y-104960000D02*
X150143000Y-124960000D01*
X150143000Y-124960000D02*
X128143000Y-124960000D01*
X128143000Y-124960000D02*
X128143000Y-104960000D01*
D17*
X150800000Y-112460000D02*
G75*
G03*
X150800000Y-112460000I-157000J0D01*
G01*
D14*
%TO.C,U4*%
X141850000Y-127105000D02*
X140200000Y-127105000D01*
X136550000Y-132305000D02*
X141850000Y-132305000D01*
X138200000Y-127105000D02*
X136550000Y-127105000D01*
X136550000Y-127105000D02*
X136550000Y-132305000D01*
X141850000Y-132305000D02*
X141850000Y-127105000D01*
X138200000Y-127105000D02*
G75*
G03*
X140200000Y-127105000I1000000J0D01*
G01*
%TO.C,R34*%
X122650000Y-122963641D02*
X122650000Y-122656359D01*
X121890000Y-122963641D02*
X121890000Y-122656359D01*
%TO.C,C17*%
X184688748Y-95435000D02*
X185211252Y-95435000D01*
X184688748Y-93965000D02*
X185211252Y-93965000D01*
%TO.C,C31*%
X152260000Y-123764437D02*
X152260000Y-131220000D01*
X160780000Y-131220000D02*
X157830000Y-131220000D01*
X160780000Y-123764437D02*
X160780000Y-131220000D01*
X153324437Y-122700000D02*
X155210000Y-122700000D01*
X153324437Y-122700000D02*
X152260000Y-123764437D01*
X159715563Y-122700000D02*
X160780000Y-123764437D01*
X152260000Y-131220000D02*
X155210000Y-131220000D01*
X159715563Y-122700000D02*
X157830000Y-122700000D01*
%TO.C,Q13*%
X158920000Y-90760000D02*
X157870000Y-90760000D01*
X158920000Y-92560000D02*
X158920000Y-90760000D01*
X155620000Y-90760000D02*
X156670000Y-90760000D01*
X155620000Y-93160000D02*
X155620000Y-90760000D01*
%TO.C,SW1*%
X104952000Y-99532000D02*
X113588000Y-99532000D01*
X104952000Y-103088000D02*
X104952000Y-99532000D01*
X113588000Y-103088000D02*
X104952000Y-103088000D01*
X113588000Y-99532000D02*
X113588000Y-103088000D01*
%TO.C,U5*%
X122940000Y-132315000D02*
X128240000Y-132315000D01*
X122940000Y-127115000D02*
X122940000Y-132315000D01*
X128240000Y-132315000D02*
X128240000Y-127115000D01*
X128240000Y-127115000D02*
X126590000Y-127115000D01*
X124590000Y-127115000D02*
X122940000Y-127115000D01*
X124590000Y-127115000D02*
G75*
G03*
X126590000Y-127115000I1000000J0D01*
G01*
%TO.C,R61*%
X210499262Y-95376815D02*
X208066815Y-97809262D01*
X208066815Y-97809262D02*
X214600482Y-104342929D01*
X217032929Y-101910482D02*
X210499262Y-95376815D01*
X208795135Y-96105135D02*
X209283039Y-96593039D01*
X216304609Y-103614609D02*
X215816705Y-103126705D01*
X214600482Y-104342929D02*
X217032929Y-101910482D01*
%TO.C,SW2*%
X113588000Y-103932000D02*
X113588000Y-107488000D01*
X113588000Y-107488000D02*
X104952000Y-107488000D01*
X104952000Y-107488000D02*
X104952000Y-103932000D01*
X104952000Y-103932000D02*
X113588000Y-103932000D01*
%TO.C,D17*%
X187570000Y-104085000D02*
X191470000Y-104085000D01*
X187570000Y-102085000D02*
X187570000Y-104085000D01*
X187570000Y-102085000D02*
X191470000Y-102085000D01*
%TD*%
%LPC*%
D18*
%TO.C,H8*%
X148520000Y-128460000D03*
%TD*%
D19*
%TO.C,U2*%
X133913400Y-94602675D03*
X133913400Y-95402675D03*
X133913400Y-96202675D03*
X133913400Y-97002675D03*
X133913400Y-97802675D03*
X133913400Y-98602675D03*
X133913400Y-99402675D03*
X133913400Y-100202675D03*
D20*
X135288400Y-101577675D03*
X136088400Y-101577675D03*
X136888400Y-101577675D03*
X137688400Y-101577675D03*
X138488400Y-101577675D03*
X139288400Y-101577675D03*
X140088400Y-101577675D03*
X140888400Y-101577675D03*
D19*
X142263400Y-100202675D03*
X142263400Y-99402675D03*
X142263400Y-98602675D03*
X142263400Y-97802675D03*
X142263400Y-97002675D03*
X142263400Y-96202675D03*
X142263400Y-95402675D03*
X142263400Y-94602675D03*
D20*
X140888400Y-93227675D03*
X140088400Y-93227675D03*
X139288400Y-93227675D03*
X138488400Y-93227675D03*
X137688400Y-93227675D03*
X136888400Y-93227675D03*
X136088400Y-93227675D03*
X135288400Y-93227675D03*
%TD*%
D21*
%TO.C,C32*%
X162520000Y-103560000D03*
X162520000Y-96360000D03*
%TD*%
D22*
%TO.C,D15*%
X196250000Y-121450000D03*
X199550000Y-121450000D03*
%TD*%
D23*
%TO.C,R62*%
X215578752Y-98968752D03*
X216300000Y-99690000D03*
%TD*%
D24*
%TO.C,TP2*%
X168620000Y-115960000D03*
%TD*%
D25*
%TO.C,R7*%
X102510000Y-111710000D03*
X103530000Y-111710000D03*
%TD*%
D26*
%TO.C,C11*%
X131920000Y-97800000D03*
X131920000Y-98760000D03*
%TD*%
D18*
%TO.C,H9*%
X223519999Y-128460000D03*
%TD*%
D25*
%TO.C,R10*%
X102510000Y-114210000D03*
X103530000Y-114210000D03*
%TD*%
D27*
%TO.C,R35*%
X122350000Y-113680000D03*
X122350000Y-112660000D03*
%TD*%
D28*
%TO.C,C13*%
X172220000Y-108982500D03*
X165020000Y-108982500D03*
%TD*%
D26*
%TO.C,C29*%
X217180000Y-90090000D03*
X217180000Y-91050000D03*
%TD*%
D29*
%TO.C,R53*%
X202130000Y-100640000D03*
X201110000Y-100640000D03*
%TD*%
D25*
%TO.C,R5*%
X169020000Y-87060000D03*
X170040000Y-87060000D03*
%TD*%
D27*
%TO.C,R1*%
X105020000Y-126470000D03*
X105020000Y-125450000D03*
%TD*%
D30*
%TO.C,R37*%
X124245000Y-117610000D03*
X126070000Y-117610000D03*
%TD*%
D27*
%TO.C,R2*%
X104020000Y-101720000D03*
X104020000Y-100700000D03*
%TD*%
D31*
%TO.C,C24*%
X198670000Y-102847500D03*
X198670000Y-99722500D03*
%TD*%
D30*
%TO.C,R47*%
X197757500Y-97885000D03*
X199582500Y-97885000D03*
%TD*%
D26*
%TO.C,C10*%
X151520000Y-120480000D03*
X151520000Y-121440000D03*
%TD*%
D32*
%TO.C,D18*%
X209220000Y-106535000D03*
X209220000Y-103235000D03*
%TD*%
D27*
%TO.C,R18*%
X153520000Y-121470000D03*
X153520000Y-120450000D03*
%TD*%
D25*
%TO.C,R12*%
X102510000Y-119210000D03*
X103530000Y-119210000D03*
%TD*%
%TO.C,R41*%
X128970000Y-125620000D03*
X129990000Y-125620000D03*
%TD*%
D27*
%TO.C,R29*%
X148060000Y-123172500D03*
X148060000Y-122152500D03*
%TD*%
D29*
%TO.C,R50*%
X193410000Y-130850000D03*
X192390000Y-130850000D03*
%TD*%
D33*
%TO.C,SW3*%
X105320000Y-123710000D03*
X113320000Y-123710000D03*
X113320000Y-128210000D03*
X105320000Y-128210000D03*
%TD*%
D34*
%TO.C,SW4*%
X105520000Y-111210000D03*
D35*
X105520000Y-113750000D03*
X105520000Y-116290000D03*
X105520000Y-118830000D03*
X113140000Y-118830000D03*
X113140000Y-116290000D03*
X113140000Y-113750000D03*
X113140000Y-111210000D03*
%TD*%
D36*
%TO.C,J3*%
X156520000Y-83855000D03*
D37*
X154020000Y-83855000D03*
X151520000Y-83855000D03*
X149020000Y-83855000D03*
X146520000Y-83855000D03*
%TD*%
D38*
%TO.C,D3*%
X115895000Y-102440000D03*
X117645000Y-102440000D03*
%TD*%
D24*
%TO.C,TP5*%
X207680000Y-85900000D03*
%TD*%
D26*
%TO.C,C26*%
X145410000Y-89298656D03*
X145410000Y-90258656D03*
%TD*%
D39*
%TO.C,J2*%
X119440000Y-90657500D03*
D40*
X119440000Y-88117500D03*
X121980000Y-90657500D03*
X121980000Y-88117500D03*
X124520000Y-90657500D03*
X124520000Y-88117500D03*
X127060000Y-90657500D03*
X127060000Y-88117500D03*
X129600000Y-90657500D03*
X129600000Y-88117500D03*
%TD*%
D25*
%TO.C,R15*%
X108010000Y-89930000D03*
X109030000Y-89930000D03*
%TD*%
D41*
%TO.C,C1*%
X113520000Y-126440000D03*
X113520000Y-125480000D03*
%TD*%
D25*
%TO.C,R9*%
X119260000Y-104480000D03*
X120280000Y-104480000D03*
%TD*%
D42*
%TO.C,Q1*%
X178720000Y-101740000D03*
X178720000Y-99460000D03*
D43*
X172420000Y-99460000D03*
D42*
X178720000Y-97180000D03*
%TD*%
D44*
%TO.C,R56*%
X153770000Y-95622500D03*
X153770000Y-93797500D03*
%TD*%
D45*
%TO.C,C7*%
X133050589Y-92979411D03*
X133729411Y-92300589D03*
%TD*%
D24*
%TO.C,TP1*%
X188450000Y-112360000D03*
%TD*%
D46*
%TO.C,C16*%
X174620000Y-114382500D03*
X174620000Y-121582500D03*
%TD*%
D47*
%TO.C,C2*%
X169550000Y-82882500D03*
X169550000Y-84957500D03*
%TD*%
D38*
%TO.C,D6*%
X115895000Y-96710000D03*
X117645000Y-96710000D03*
%TD*%
D48*
%TO.C,D22*%
X215709999Y-96270001D03*
X214472563Y-97507437D03*
%TD*%
D49*
%TO.C,SW7*%
X110770000Y-81780000D03*
X110770000Y-89780000D03*
X106270000Y-81780000D03*
X106270000Y-89780000D03*
%TD*%
D50*
%TO.C,Q14*%
X198537500Y-118555000D03*
X198537500Y-117285000D03*
X198537500Y-116015000D03*
X198537500Y-114745000D03*
D51*
X194850000Y-116650000D03*
D52*
X192062500Y-116015000D03*
X192062500Y-117285000D03*
X192062500Y-114745000D03*
X192062500Y-118555000D03*
%TD*%
D53*
%TO.C,J4*%
X223845000Y-120460000D03*
X223845000Y-109460000D03*
D54*
X213845000Y-117460000D03*
D55*
X213845000Y-112460000D03*
%TD*%
D56*
%TO.C,C23*%
X197500000Y-123887500D03*
X197500000Y-127012500D03*
%TD*%
D57*
%TO.C,SW6*%
X111810000Y-96710000D03*
D58*
X109270000Y-96710000D03*
X106730000Y-96710000D03*
%TD*%
D27*
%TO.C,R14*%
X168620000Y-120470000D03*
X168620000Y-119450000D03*
%TD*%
D29*
%TO.C,R51*%
X198710000Y-129450000D03*
X197690000Y-129450000D03*
%TD*%
D59*
%TO.C,R31*%
X122270000Y-118797500D03*
X122270000Y-120622500D03*
%TD*%
D60*
%TO.C,U8*%
X193425000Y-95460000D03*
X192155000Y-95460000D03*
X190885000Y-95460000D03*
X189615000Y-95460000D03*
X189615000Y-100710000D03*
X190885000Y-100710000D03*
X192155000Y-100710000D03*
X193425000Y-100710000D03*
%TD*%
D61*
%TO.C,R63*%
X184932500Y-121460000D03*
X183107500Y-121460000D03*
%TD*%
D62*
%TO.C,D21*%
X213060118Y-96020745D03*
X214297554Y-94783309D03*
%TD*%
D63*
%TO.C,Q2*%
X161930000Y-87040000D03*
X160030000Y-87040000D03*
X160980000Y-90040000D03*
%TD*%
D59*
%TO.C,R65*%
X156520000Y-117547500D03*
X156520000Y-119372500D03*
%TD*%
D50*
%TO.C,Q16*%
X198557500Y-109790000D03*
X198557500Y-108520000D03*
X198557500Y-107250000D03*
X198557500Y-105980000D03*
D52*
X192082500Y-108520000D03*
X192082500Y-107250000D03*
X192082500Y-109790000D03*
D51*
X194870000Y-107885000D03*
D52*
X192082500Y-105980000D03*
%TD*%
D64*
%TO.C,U10*%
X147865000Y-95335000D03*
X149135000Y-95335000D03*
X150405000Y-95335000D03*
X151675000Y-95335000D03*
X151675000Y-90085000D03*
X150405000Y-90085000D03*
X149135000Y-90085000D03*
X147865000Y-90085000D03*
%TD*%
D53*
%TO.C,J1*%
X183730000Y-80595000D03*
X172730000Y-80595000D03*
D54*
X180730000Y-90595000D03*
D55*
X175730000Y-90595000D03*
%TD*%
D65*
%TO.C,Q15*%
X202195000Y-121087500D03*
X203465000Y-121087500D03*
X204735000Y-121087500D03*
X206005000Y-121087500D03*
D66*
X203465000Y-114612500D03*
X202195000Y-114612500D03*
X204735000Y-114612500D03*
D67*
X204100000Y-117400000D03*
D66*
X206005000Y-114612500D03*
%TD*%
D18*
%TO.C,H7*%
X86019999Y-128460000D03*
%TD*%
D68*
%TO.C,R52*%
X196220000Y-102775000D03*
X196220000Y-103795000D03*
%TD*%
D32*
%TO.C,D1*%
X161260000Y-83040000D03*
X161260000Y-79740000D03*
%TD*%
D18*
%TO.C,H5*%
X148520000Y-101460000D03*
%TD*%
D30*
%TO.C,R38*%
X124337500Y-107970000D03*
X126162500Y-107970000D03*
%TD*%
D69*
%TO.C,C20*%
X189880000Y-121450000D03*
X188920000Y-121450000D03*
%TD*%
D59*
%TO.C,R32*%
X122350000Y-109257500D03*
X122350000Y-111082500D03*
%TD*%
D30*
%TO.C,R46*%
X193057500Y-103185000D03*
X194882500Y-103185000D03*
%TD*%
D65*
%TO.C,Q17*%
X206025000Y-103447500D03*
X204755000Y-103447500D03*
X203485000Y-103447500D03*
X202215000Y-103447500D03*
D66*
X204755000Y-109922500D03*
D67*
X204120000Y-107135000D03*
D66*
X203485000Y-109922500D03*
X202215000Y-109922500D03*
X206025000Y-109922500D03*
%TD*%
D29*
%TO.C,R40*%
X143600000Y-125610000D03*
X142580000Y-125610000D03*
%TD*%
D32*
%TO.C,D13*%
X195670000Y-100335000D03*
X195670000Y-97035000D03*
%TD*%
D70*
%TO.C,JP1*%
X139270000Y-80050000D03*
D71*
X139270000Y-82590000D03*
%TD*%
D72*
%TO.C,U3*%
X151990000Y-114585000D03*
D73*
X154270000Y-108285000D03*
D72*
X154270000Y-114585000D03*
X156550000Y-114585000D03*
%TD*%
D27*
%TO.C,R17*%
X104040000Y-97230000D03*
X104040000Y-96210000D03*
%TD*%
D26*
%TO.C,C14*%
X159520000Y-111480000D03*
X159520000Y-112440000D03*
%TD*%
D61*
%TO.C,R58*%
X151682500Y-87210000D03*
X149857500Y-87210000D03*
%TD*%
D47*
%TO.C,C18*%
X186510000Y-123452500D03*
X186510000Y-125527500D03*
%TD*%
D25*
%TO.C,R8*%
X119260000Y-102440000D03*
X120280000Y-102440000D03*
%TD*%
D59*
%TO.C,R60*%
X142320000Y-81897500D03*
X142320000Y-83722500D03*
%TD*%
D74*
%TO.C,J5*%
X220470000Y-92560000D03*
D75*
X220470000Y-90060000D03*
X220470000Y-87560000D03*
X220470000Y-85060000D03*
X220470000Y-82560000D03*
%TD*%
D69*
%TO.C,C15*%
X155020000Y-103600000D03*
X154060000Y-103600000D03*
%TD*%
D76*
%TO.C,C9*%
X143038147Y-101645315D03*
X142359325Y-102324137D03*
%TD*%
D32*
%TO.C,D16*%
X209200000Y-117900000D03*
X209200000Y-121200000D03*
%TD*%
D30*
%TO.C,R45*%
X194487500Y-129450000D03*
X196312500Y-129450000D03*
%TD*%
D72*
%TO.C,Q3*%
X186075000Y-97260000D03*
X183795000Y-97260000D03*
D73*
X183795000Y-103560000D03*
D72*
X181515000Y-97260000D03*
%TD*%
D29*
%TO.C,R13*%
X161790000Y-84770000D03*
X160770000Y-84770000D03*
%TD*%
D63*
%TO.C,Q9*%
X124220000Y-123010000D03*
X126120000Y-123010000D03*
X125170000Y-120010000D03*
%TD*%
D29*
%TO.C,R6*%
X161510000Y-92240000D03*
X160490000Y-92240000D03*
%TD*%
D77*
%TO.C,C28*%
X211820589Y-103300589D03*
X212499411Y-103979411D03*
%TD*%
D25*
%TO.C,R30*%
X154010000Y-102460000D03*
X155030000Y-102460000D03*
%TD*%
D22*
%TO.C,D12*%
X194750000Y-121450000D03*
X191450000Y-121450000D03*
%TD*%
D44*
%TO.C,R66*%
X157020000Y-103372500D03*
X157020000Y-101547500D03*
%TD*%
D38*
%TO.C,D4*%
X115895000Y-104480000D03*
X117645000Y-104480000D03*
%TD*%
D69*
%TO.C,C8*%
X109000000Y-81600000D03*
X108040000Y-81600000D03*
%TD*%
D25*
%TO.C,R11*%
X102510000Y-116710000D03*
X103530000Y-116710000D03*
%TD*%
D24*
%TO.C,TP3*%
X153520000Y-117960000D03*
%TD*%
D25*
%TO.C,R16*%
X119260000Y-96710000D03*
X120280000Y-96710000D03*
%TD*%
D78*
%TO.C,D11*%
X149940000Y-123535000D03*
X149940000Y-121785000D03*
%TD*%
D44*
%TO.C,R57*%
X153770000Y-91622500D03*
X153770000Y-89797500D03*
%TD*%
D27*
%TO.C,R3*%
X104020000Y-106220000D03*
X104020000Y-105200000D03*
%TD*%
D79*
%TO.C,U7*%
X189275000Y-123745000D03*
X189275000Y-125015000D03*
X189275000Y-126285000D03*
X189275000Y-127555000D03*
X194525000Y-127555000D03*
X194525000Y-126285000D03*
X194525000Y-125015000D03*
X194525000Y-123745000D03*
%TD*%
D27*
%TO.C,R4*%
X169530000Y-80950000D03*
X169530000Y-79930000D03*
%TD*%
D61*
%TO.C,R59*%
X147682500Y-87210000D03*
X145857500Y-87210000D03*
%TD*%
D80*
%TO.C,C5*%
X165020000Y-126982500D03*
X172220000Y-126982500D03*
%TD*%
D46*
%TO.C,C30*%
X162620000Y-114382500D03*
X162620000Y-121582500D03*
%TD*%
D81*
%TO.C,D2*%
X177520000Y-108670000D03*
D82*
X177520000Y-105450000D03*
%TD*%
D83*
%TO.C,SW5*%
X165520000Y-87000000D03*
D40*
X165520000Y-84460000D03*
X165520000Y-81920000D03*
X165520000Y-89540000D03*
X165520000Y-79380000D03*
%TD*%
D24*
%TO.C,TP4*%
X212870000Y-85900000D03*
%TD*%
D84*
%TO.C,C21*%
X195190000Y-95485000D03*
X196150000Y-95485000D03*
%TD*%
D46*
%TO.C,C4*%
X180520000Y-123382500D03*
X180520000Y-130582500D03*
%TD*%
D32*
%TO.C,D7*%
X159520000Y-109610000D03*
X159520000Y-106310000D03*
%TD*%
D63*
%TO.C,Q10*%
X124300000Y-113270000D03*
X126200000Y-113270000D03*
X125250000Y-110270000D03*
%TD*%
D30*
%TO.C,R44*%
X190487500Y-129450000D03*
X192312500Y-129450000D03*
%TD*%
D85*
%TO.C,U1*%
X148143000Y-112420000D03*
D58*
X148143000Y-114960000D03*
X148143000Y-117500000D03*
%TD*%
D34*
%TO.C,U4*%
X135390000Y-128435000D03*
D35*
X135390000Y-130975000D03*
X143010000Y-130975000D03*
X143010000Y-128435000D03*
%TD*%
D27*
%TO.C,R34*%
X122270000Y-123320000D03*
X122270000Y-122300000D03*
%TD*%
D86*
%TO.C,C17*%
X183912500Y-94700000D03*
X185987500Y-94700000D03*
%TD*%
D46*
%TO.C,C31*%
X156520000Y-123360000D03*
X156520000Y-130560000D03*
%TD*%
D87*
%TO.C,Q13*%
X156320000Y-93360000D03*
X158220000Y-93360000D03*
X157270000Y-90060000D03*
%TD*%
D18*
%TO.C,H6*%
X223519999Y-101460000D03*
%TD*%
D57*
%TO.C,SW1*%
X111810000Y-101310000D03*
D58*
X109270000Y-101310000D03*
X106730000Y-101310000D03*
%TD*%
D34*
%TO.C,U5*%
X121780000Y-128445000D03*
D35*
X121780000Y-130985000D03*
X129400000Y-130985000D03*
X129400000Y-128445000D03*
%TD*%
D18*
%TO.C,H4*%
X86019999Y-101460000D03*
%TD*%
D88*
%TO.C,R61*%
X217040000Y-104350000D03*
D89*
X208059744Y-95369744D03*
%TD*%
D57*
%TO.C,SW2*%
X111810000Y-105710000D03*
D58*
X109270000Y-105710000D03*
X106730000Y-105710000D03*
%TD*%
D22*
%TO.C,D17*%
X188170000Y-103085000D03*
X191470000Y-103085000D03*
%TD*%
M02*
