%TF.GenerationSoftware,KiCad,Pcbnew,(6.0.11)*%
%TF.CreationDate,2023-08-10T00:19:00+09:00*%
%TF.ProjectId,main,6d61696e-2e6b-4696-9361-645f70636258,rev?*%
%TF.SameCoordinates,Original*%
%TF.FileFunction,Paste,Top*%
%TF.FilePolarity,Positive*%
%FSLAX46Y46*%
G04 Gerber Fmt 4.6, Leading zero omitted, Abs format (unit mm)*
G04 Created by KiCad (PCBNEW (6.0.11)) date 2023-08-10 00:19:00*
%MOMM*%
%LPD*%
G01*
G04 APERTURE LIST*
G04 Aperture macros list*
%AMRoundRect*
0 Rectangle with rounded corners*
0 $1 Rounding radius*
0 $2 $3 $4 $5 $6 $7 $8 $9 X,Y pos of 4 corners*
0 Add a 4 corners polygon primitive as box body*
4,1,4,$2,$3,$4,$5,$6,$7,$8,$9,$2,$3,0*
0 Add four circle primitives for the rounded corners*
1,1,$1+$1,$2,$3*
1,1,$1+$1,$4,$5*
1,1,$1+$1,$6,$7*
1,1,$1+$1,$8,$9*
0 Add four rect primitives between the rounded corners*
20,1,$1+$1,$2,$3,$4,$5,0*
20,1,$1+$1,$4,$5,$6,$7,0*
20,1,$1+$1,$6,$7,$8,$9,0*
20,1,$1+$1,$8,$9,$2,$3,0*%
%AMHorizOval*
0 Thick line with rounded ends*
0 $1 width*
0 $2 $3 position (X,Y) of the first rounded end (center of the circle)*
0 $4 $5 position (X,Y) of the second rounded end (center of the circle)*
0 Add line between two ends*
20,1,$1,$2,$3,$4,$5,0*
0 Add two circle primitives to create the rounded ends*
1,1,$1,$2,$3*
1,1,$1,$4,$5*%
G04 Aperture macros list end*
%ADD10RoundRect,0.237500X0.300000X0.237500X-0.300000X0.237500X-0.300000X-0.237500X0.300000X-0.237500X0*%
%ADD11RoundRect,0.237500X0.380070X-0.044194X-0.044194X0.380070X-0.380070X0.044194X0.044194X-0.380070X0*%
%ADD12R,1.400000X1.600000*%
%ADD13RoundRect,0.237500X-0.237500X0.300000X-0.237500X-0.300000X0.237500X-0.300000X0.237500X0.300000X0*%
%ADD14RoundRect,0.237500X-0.250000X-0.237500X0.250000X-0.237500X0.250000X0.237500X-0.250000X0.237500X0*%
%ADD15RoundRect,0.237500X0.287500X0.237500X-0.287500X0.237500X-0.287500X-0.237500X0.287500X-0.237500X0*%
%ADD16R,0.620000X0.575000*%
%ADD17R,1.200000X0.900000*%
%ADD18R,1.900000X0.800000*%
%ADD19R,1.800000X0.800000*%
%ADD20RoundRect,0.237500X0.250000X0.237500X-0.250000X0.237500X-0.250000X-0.237500X0.250000X-0.237500X0*%
%ADD21RoundRect,0.200000X-0.600000X0.200000X-0.600000X-0.200000X0.600000X-0.200000X0.600000X0.200000X0*%
%ADD22RoundRect,0.250001X-1.249999X0.799999X-1.249999X-0.799999X1.249999X-0.799999X1.249999X0.799999X0*%
%ADD23RoundRect,0.237500X-0.237500X0.250000X-0.237500X-0.250000X0.237500X-0.250000X0.237500X0.250000X0*%
%ADD24RoundRect,0.237500X-0.287500X-0.237500X0.287500X-0.237500X0.287500X0.237500X-0.287500X0.237500X0*%
%ADD25R,0.575000X0.620000*%
%ADD26RoundRect,0.237500X0.237500X-0.300000X0.237500X0.300000X-0.237500X0.300000X-0.237500X-0.300000X0*%
%ADD27RoundRect,0.200000X0.200000X0.600000X-0.200000X0.600000X-0.200000X-0.600000X0.200000X-0.600000X0*%
%ADD28RoundRect,0.250001X0.799999X1.249999X-0.799999X1.249999X-0.799999X-1.249999X0.799999X-1.249999X0*%
%ADD29RoundRect,0.237500X-0.380070X0.044194X0.044194X-0.380070X0.380070X-0.044194X-0.044194X0.380070X0*%
%ADD30R,1.600000X1.400000*%
%ADD31RoundRect,0.237500X0.237500X-0.250000X0.237500X0.250000X-0.237500X0.250000X-0.237500X-0.250000X0*%
%ADD32RoundRect,0.250001X-1.999999X-0.799999X1.999999X-0.799999X1.999999X0.799999X-1.999999X0.799999X0*%
%ADD33RoundRect,0.250001X1.999999X0.799999X-1.999999X0.799999X-1.999999X-0.799999X1.999999X-0.799999X0*%
%ADD34R,2.750000X3.050000*%
%ADD35R,1.200000X2.200000*%
%ADD36HorizOval,0.900000X-0.176777X-0.176777X0.176777X0.176777X0*%
%ADD37HorizOval,0.900000X-0.176777X0.176777X0.176777X-0.176777X0*%
%ADD38HorizOval,0.900000X-0.106066X0.106066X0.106066X-0.106066X0*%
%ADD39R,0.800000X1.900000*%
%ADD40RoundRect,0.200000X-0.200000X-0.600000X0.200000X-0.600000X0.200000X0.600000X-0.200000X0.600000X0*%
%ADD41RoundRect,0.250001X-0.799999X-1.249999X0.799999X-1.249999X0.799999X1.249999X-0.799999X1.249999X0*%
%ADD42R,1.400000X0.300000*%
%ADD43RoundRect,0.075000X0.548008X-0.441942X-0.441942X0.548008X-0.548008X0.441942X0.441942X-0.548008X0*%
%ADD44RoundRect,0.075000X0.548008X0.441942X0.441942X0.548008X-0.548008X-0.441942X-0.441942X-0.548008X0*%
%ADD45RoundRect,0.237500X0.044194X0.380070X-0.380070X-0.044194X-0.044194X-0.380070X0.380070X0.044194X0*%
%ADD46RoundRect,0.237500X-0.300000X-0.237500X0.300000X-0.237500X0.300000X0.237500X-0.300000X0.237500X0*%
%ADD47R,0.800000X1.800000*%
%ADD48RoundRect,0.250000X0.574524X0.097227X0.097227X0.574524X-0.574524X-0.097227X-0.097227X-0.574524X0*%
%ADD49RoundRect,0.150000X0.675000X0.150000X-0.675000X0.150000X-0.675000X-0.150000X0.675000X-0.150000X0*%
G04 APERTURE END LIST*
D10*
%TO.C,C17*%
X96112500Y-79840000D03*
X94387500Y-79840000D03*
%TD*%
D11*
%TO.C,C21*%
X142959880Y-104049880D03*
X141740120Y-102830120D03*
%TD*%
D12*
%TO.C,SW7*%
X79500000Y-130840000D03*
X79500000Y-122840000D03*
X75000000Y-122840000D03*
X75000000Y-130840000D03*
%TD*%
D13*
%TO.C,C22*%
X105250000Y-79227500D03*
X105250000Y-80952500D03*
%TD*%
D14*
%TO.C,R67*%
X93587500Y-52840000D03*
X95412500Y-52840000D03*
%TD*%
%TO.C,R47*%
X96087500Y-115540000D03*
X97912500Y-115540000D03*
%TD*%
%TO.C,R69*%
X86087500Y-52840000D03*
X87912500Y-52840000D03*
%TD*%
%TO.C,R48*%
X96087500Y-117940000D03*
X97912500Y-117940000D03*
%TD*%
D10*
%TO.C,C18*%
X114612500Y-89840000D03*
X112887500Y-89840000D03*
%TD*%
D15*
%TO.C,D8*%
X114125000Y-74590000D03*
X112375000Y-74590000D03*
%TD*%
D14*
%TO.C,R68*%
X89837500Y-52840000D03*
X91662500Y-52840000D03*
%TD*%
D16*
%TO.C,Q9*%
X92300000Y-78478000D03*
X93250000Y-78478000D03*
X94200000Y-78478000D03*
X94200000Y-75702000D03*
X93250000Y-75702000D03*
X92300000Y-75702000D03*
%TD*%
D17*
%TO.C,D7*%
X106000000Y-74190000D03*
X106000000Y-77490000D03*
%TD*%
D18*
%TO.C,Q6*%
X137150000Y-124790000D03*
X137150000Y-126690000D03*
X140150000Y-125740000D03*
%TD*%
D19*
%TO.C,Q14*%
X85400000Y-103790000D03*
X85400000Y-101890000D03*
X82100000Y-102840000D03*
%TD*%
D20*
%TO.C,R39*%
X153862500Y-126440000D03*
X152037500Y-126440000D03*
%TD*%
D16*
%TO.C,Q8*%
X112150000Y-66140000D03*
X113100000Y-66140000D03*
X114050000Y-66140000D03*
X114050000Y-63364000D03*
X113100000Y-63364000D03*
X112150000Y-63364000D03*
%TD*%
D14*
%TO.C,R70*%
X93587500Y-140690000D03*
X95412500Y-140690000D03*
%TD*%
D21*
%TO.C,J10*%
X64150000Y-143340000D03*
X64150000Y-144590000D03*
X64150000Y-145840000D03*
X64150000Y-147090000D03*
X64150000Y-148340000D03*
D22*
X61250000Y-140790000D03*
X61250000Y-150890000D03*
%TD*%
D20*
%TO.C,R65*%
X87912500Y-60340000D03*
X86087500Y-60340000D03*
%TD*%
%TO.C,R62*%
X99162500Y-60340000D03*
X97337500Y-60340000D03*
%TD*%
D23*
%TO.C,R58*%
X72250000Y-103677500D03*
X72250000Y-105502500D03*
%TD*%
D14*
%TO.C,R52*%
X78087500Y-106590000D03*
X79912500Y-106590000D03*
%TD*%
D21*
%TO.C,J8*%
X64150000Y-115340000D03*
X64150000Y-116590000D03*
X64150000Y-117840000D03*
X64150000Y-119090000D03*
X64150000Y-120340000D03*
D22*
X61250000Y-122890000D03*
X61250000Y-112790000D03*
%TD*%
D15*
%TO.C,D13*%
X157325000Y-126440000D03*
X155575000Y-126440000D03*
%TD*%
D20*
%TO.C,R18*%
X145962500Y-145240000D03*
X144137500Y-145240000D03*
%TD*%
D21*
%TO.C,J7*%
X64150000Y-101340000D03*
X64150000Y-102590000D03*
X64150000Y-103840000D03*
X64150000Y-105090000D03*
X64150000Y-106340000D03*
D22*
X61250000Y-98790000D03*
X61250000Y-108890000D03*
%TD*%
D24*
%TO.C,D12*%
X92625000Y-110840000D03*
X94375000Y-110840000D03*
%TD*%
D20*
%TO.C,R63*%
X95412500Y-60340000D03*
X93587500Y-60340000D03*
%TD*%
D25*
%TO.C,Q25*%
X95888000Y-144190000D03*
X95888000Y-143240000D03*
X95888000Y-142290000D03*
X93112000Y-142290000D03*
X93112000Y-143240000D03*
X93112000Y-144190000D03*
%TD*%
D26*
%TO.C,C9*%
X112850000Y-57702500D03*
X112850000Y-55977500D03*
%TD*%
D13*
%TO.C,C25*%
X105250000Y-97477500D03*
X105250000Y-99202500D03*
%TD*%
D20*
%TO.C,R40*%
X153962500Y-132340000D03*
X152137500Y-132340000D03*
%TD*%
D27*
%TO.C,J2*%
X95875000Y-49740000D03*
X94625000Y-49740000D03*
X93375000Y-49740000D03*
X92125000Y-49740000D03*
X90875000Y-49740000D03*
X89625000Y-49740000D03*
D28*
X87075000Y-46840000D03*
X98425000Y-46840000D03*
%TD*%
D15*
%TO.C,D2*%
X155362500Y-116540000D03*
X153612500Y-116540000D03*
%TD*%
D29*
%TO.C,C19*%
X121240120Y-95030120D03*
X122459880Y-96249880D03*
%TD*%
D30*
%TO.C,SW3*%
X139300000Y-142990000D03*
X147300000Y-142990000D03*
X147300000Y-138490000D03*
X139300000Y-138490000D03*
%TD*%
D31*
%TO.C,R38*%
X106750000Y-81002500D03*
X106750000Y-79177500D03*
%TD*%
D14*
%TO.C,R54*%
X105425000Y-55340000D03*
X107250000Y-55340000D03*
%TD*%
D15*
%TO.C,D14*%
X157425000Y-132340000D03*
X155675000Y-132340000D03*
%TD*%
D20*
%TO.C,R26*%
X110500000Y-67590000D03*
X108675000Y-67590000D03*
%TD*%
D32*
%TO.C,C5*%
X82150000Y-66840000D03*
X89350000Y-66840000D03*
%TD*%
D10*
%TO.C,C14*%
X142412500Y-145240000D03*
X140687500Y-145240000D03*
%TD*%
D33*
%TO.C,C16*%
X102850000Y-66840000D03*
X95650000Y-66840000D03*
%TD*%
D24*
%TO.C,D3*%
X149575000Y-62540000D03*
X151325000Y-62540000D03*
%TD*%
D15*
%TO.C,D10*%
X114125000Y-78590000D03*
X112375000Y-78590000D03*
%TD*%
D14*
%TO.C,R1*%
X75787500Y-64540000D03*
X77612500Y-64540000D03*
%TD*%
D34*
%TO.C,U5*%
X99225000Y-79515000D03*
X102275000Y-79515000D03*
X102275000Y-82865000D03*
X99225000Y-82865000D03*
D35*
X103030000Y-74890000D03*
X100750000Y-74890000D03*
X98470000Y-74890000D03*
%TD*%
D20*
%TO.C,R64*%
X91662500Y-60340000D03*
X89837500Y-60340000D03*
%TD*%
D23*
%TO.C,R57*%
X72250000Y-100177500D03*
X72250000Y-102002500D03*
%TD*%
D36*
%TO.C,U6*%
X143955454Y-107720725D03*
X143057428Y-106822700D03*
X142159403Y-105924674D03*
X141261377Y-105026649D03*
X140363351Y-104128623D03*
X139465326Y-103230597D03*
X138567300Y-102332572D03*
X137669275Y-101434546D03*
D37*
X134430725Y-101434546D03*
X133532700Y-102332572D03*
X132634674Y-103230597D03*
X131736649Y-104128623D03*
X130838623Y-105026649D03*
X129940597Y-105924674D03*
X129042572Y-106822700D03*
X128144546Y-107720725D03*
D36*
X128144546Y-110959275D03*
X129042572Y-111857300D03*
X129940597Y-112755326D03*
X130838623Y-113653351D03*
X131736649Y-114551377D03*
X132634674Y-115449403D03*
X133532700Y-116347428D03*
X134430725Y-117245454D03*
D37*
X137669275Y-117245454D03*
X138567300Y-116347428D03*
X139465326Y-115449403D03*
X140363351Y-114551377D03*
X141261377Y-113653351D03*
X142159403Y-112755326D03*
D38*
X143128139Y-111928011D03*
X144026164Y-111029985D03*
%TD*%
D16*
%TO.C,Q11*%
X110550000Y-63364000D03*
X109600000Y-63364000D03*
X108650000Y-63364000D03*
X108650000Y-66140000D03*
X109600000Y-66140000D03*
X110550000Y-66140000D03*
%TD*%
D25*
%TO.C,Q3*%
X78138000Y-68040000D03*
X78138000Y-67090000D03*
X78138000Y-66140000D03*
X75362000Y-66140000D03*
X75362000Y-67090000D03*
X75362000Y-68040000D03*
%TD*%
D39*
%TO.C,Q23*%
X89800000Y-58090000D03*
X91700000Y-58090000D03*
X90750000Y-55090000D03*
%TD*%
D13*
%TO.C,C35*%
X91550000Y-144027500D03*
X91550000Y-145752500D03*
%TD*%
D40*
%TO.C,J13*%
X116750000Y-157440000D03*
X118000000Y-157440000D03*
X119250000Y-157440000D03*
D41*
X114200000Y-160340000D03*
X121800000Y-160340000D03*
%TD*%
D14*
%TO.C,R53*%
X101675000Y-55340000D03*
X103500000Y-55340000D03*
%TD*%
D39*
%TO.C,Q21*%
X97300000Y-58090000D03*
X99200000Y-58090000D03*
X98250000Y-55090000D03*
%TD*%
D12*
%TO.C,SW11*%
X97500000Y-130840000D03*
X97500000Y-122840000D03*
X93000000Y-130840000D03*
X93000000Y-122840000D03*
%TD*%
D42*
%TO.C,U2*%
X147150000Y-62940000D03*
X147150000Y-62440000D03*
X147150000Y-61940000D03*
X147150000Y-61440000D03*
X147150000Y-60940000D03*
X142750000Y-60940000D03*
X142750000Y-61440000D03*
X142750000Y-61940000D03*
X142750000Y-62440000D03*
X142750000Y-62940000D03*
%TD*%
D43*
%TO.C,U7*%
X115111181Y-105004481D03*
X115464734Y-104650928D03*
X115818287Y-104297375D03*
X116171841Y-103943821D03*
X116525394Y-103590268D03*
X116878948Y-103236714D03*
X117232501Y-102883161D03*
X117586054Y-102529608D03*
X117939608Y-102176054D03*
X118293161Y-101822501D03*
X118646714Y-101468948D03*
X119000268Y-101115394D03*
X119353821Y-100761841D03*
X119707375Y-100408287D03*
X120060928Y-100054734D03*
X120414481Y-99701181D03*
D44*
X120414481Y-96978819D03*
X120060928Y-96625266D03*
X119707375Y-96271713D03*
X119353821Y-95918159D03*
X119000268Y-95564606D03*
X118646714Y-95211052D03*
X118293161Y-94857499D03*
X117939608Y-94503946D03*
X117586054Y-94150392D03*
X117232501Y-93796839D03*
X116878948Y-93443286D03*
X116525394Y-93089732D03*
X116171841Y-92736179D03*
X115818287Y-92382625D03*
X115464734Y-92029072D03*
X115111181Y-91675519D03*
D43*
X112388819Y-91675519D03*
X112035266Y-92029072D03*
X111681713Y-92382625D03*
X111328159Y-92736179D03*
X110974606Y-93089732D03*
X110621052Y-93443286D03*
X110267499Y-93796839D03*
X109913946Y-94150392D03*
X109560392Y-94503946D03*
X109206839Y-94857499D03*
X108853286Y-95211052D03*
X108499732Y-95564606D03*
X108146179Y-95918159D03*
X107792625Y-96271713D03*
X107439072Y-96625266D03*
X107085519Y-96978819D03*
D44*
X107085519Y-99701181D03*
X107439072Y-100054734D03*
X107792625Y-100408287D03*
X108146179Y-100761841D03*
X108499732Y-101115394D03*
X108853286Y-101468948D03*
X109206839Y-101822501D03*
X109560392Y-102176054D03*
X109913946Y-102529608D03*
X110267499Y-102883161D03*
X110621052Y-103236714D03*
X110974606Y-103590268D03*
X111328159Y-103943821D03*
X111681713Y-104297375D03*
X112035266Y-104650928D03*
X112388819Y-105004481D03*
%TD*%
D29*
%TO.C,C20*%
X114630240Y-106420240D03*
X115850000Y-107640000D03*
%TD*%
D20*
%TO.C,R35*%
X110662500Y-80590000D03*
X108837500Y-80590000D03*
%TD*%
D45*
%TO.C,C27*%
X120359880Y-102330120D03*
X119140120Y-103549880D03*
%TD*%
D14*
%TO.C,R23*%
X105087500Y-64590000D03*
X106912500Y-64590000D03*
%TD*%
D20*
%TO.C,R24*%
X106912500Y-62840000D03*
X105087500Y-62840000D03*
%TD*%
D46*
%TO.C,C31*%
X74637500Y-106590000D03*
X76362500Y-106590000D03*
%TD*%
D12*
%TO.C,SW8*%
X84000000Y-122840000D03*
X84000000Y-130840000D03*
X88500000Y-130840000D03*
X88500000Y-122840000D03*
%TD*%
D15*
%TO.C,D11*%
X114125000Y-80590000D03*
X112375000Y-80590000D03*
%TD*%
D47*
%TO.C,Q7*%
X92450000Y-81940000D03*
X90550000Y-81940000D03*
X91500000Y-85240000D03*
%TD*%
D20*
%TO.C,R59*%
X78162500Y-99090000D03*
X76337500Y-99090000D03*
%TD*%
D39*
%TO.C,Q16*%
X107287500Y-57340000D03*
X105387500Y-57340000D03*
X106337500Y-60340000D03*
%TD*%
D16*
%TO.C,Q1*%
X71800000Y-68478000D03*
X72750000Y-68478000D03*
X73700000Y-68478000D03*
X73700000Y-65702000D03*
X72750000Y-65702000D03*
X71800000Y-65702000D03*
%TD*%
D47*
%TO.C,Q10*%
X94300000Y-85240000D03*
X96200000Y-85240000D03*
X95250000Y-81940000D03*
%TD*%
D39*
%TO.C,Q24*%
X86050000Y-58090000D03*
X87950000Y-58090000D03*
X87000000Y-55090000D03*
%TD*%
D14*
%TO.C,R21*%
X112250000Y-62090000D03*
X114075000Y-62090000D03*
%TD*%
D29*
%TO.C,C24*%
X112640120Y-106630120D03*
X113859880Y-107849880D03*
%TD*%
D14*
%TO.C,R36*%
X96087500Y-110840000D03*
X97912500Y-110840000D03*
%TD*%
D24*
%TO.C,D15*%
X92625000Y-115540000D03*
X94375000Y-115540000D03*
%TD*%
D20*
%TO.C,R12*%
X151362500Y-60940000D03*
X149537500Y-60940000D03*
%TD*%
%TO.C,R32*%
X110662500Y-74590000D03*
X108837500Y-74590000D03*
%TD*%
D15*
%TO.C,D9*%
X114125000Y-76590000D03*
X112375000Y-76590000D03*
%TD*%
D40*
%TO.C,J14*%
X128250000Y-157440000D03*
X129500000Y-157440000D03*
X130750000Y-157440000D03*
D41*
X133300000Y-160340000D03*
X125700000Y-160340000D03*
%TD*%
D20*
%TO.C,R34*%
X110662500Y-78590000D03*
X108837500Y-78590000D03*
%TD*%
D39*
%TO.C,Q22*%
X93550000Y-58090000D03*
X95450000Y-58090000D03*
X94500000Y-55090000D03*
%TD*%
D21*
%TO.C,J12*%
X64150000Y-59215000D03*
X64150000Y-60465000D03*
X64150000Y-61715000D03*
X64150000Y-62965000D03*
X64150000Y-64215000D03*
X64150000Y-65465000D03*
X64150000Y-66715000D03*
X64150000Y-67965000D03*
X64150000Y-69215000D03*
X64150000Y-70465000D03*
D22*
X61250000Y-73015000D03*
X61250000Y-56665000D03*
%TD*%
D14*
%TO.C,R66*%
X97337500Y-52840000D03*
X99162500Y-52840000D03*
%TD*%
D40*
%TO.C,J15*%
X139750000Y-157440000D03*
X141000000Y-157440000D03*
X142250000Y-157440000D03*
D41*
X137200000Y-160340000D03*
X144800000Y-160340000D03*
%TD*%
D20*
%TO.C,R6*%
X151962500Y-116540000D03*
X150137500Y-116540000D03*
%TD*%
D24*
%TO.C,D16*%
X92625000Y-117940000D03*
X94375000Y-117940000D03*
%TD*%
D21*
%TO.C,J9*%
X64150000Y-129340000D03*
X64150000Y-130590000D03*
X64150000Y-131840000D03*
X64150000Y-133090000D03*
X64150000Y-134340000D03*
D22*
X61250000Y-136890000D03*
X61250000Y-126790000D03*
%TD*%
D39*
%TO.C,Q15*%
X103537500Y-57340000D03*
X101637500Y-57340000D03*
X102587500Y-60340000D03*
%TD*%
D20*
%TO.C,R33*%
X110662500Y-76590000D03*
X108837500Y-76590000D03*
%TD*%
D48*
%TO.C,C26*%
X118967246Y-92290869D03*
X117500000Y-90823623D03*
%TD*%
D49*
%TO.C,U9*%
X79875000Y-104745000D03*
X79875000Y-103475000D03*
X79875000Y-102205000D03*
X79875000Y-100935000D03*
X74625000Y-100935000D03*
X74625000Y-102205000D03*
X74625000Y-103475000D03*
X74625000Y-104745000D03*
%TD*%
D10*
%TO.C,C7*%
X140812500Y-60940000D03*
X139087500Y-60940000D03*
%TD*%
D40*
%TO.C,J16*%
X151250000Y-157440000D03*
X152500000Y-157440000D03*
X153750000Y-157440000D03*
D41*
X156300000Y-160340000D03*
X148700000Y-160340000D03*
%TD*%
D20*
%TO.C,R51*%
X84662500Y-100090000D03*
X82837500Y-100090000D03*
%TD*%
D21*
%TO.C,J11*%
X64150000Y-79340000D03*
X64150000Y-80590000D03*
X64150000Y-81840000D03*
X64150000Y-83090000D03*
X64150000Y-84340000D03*
X64150000Y-85590000D03*
X64150000Y-86840000D03*
X64150000Y-88090000D03*
X64150000Y-89340000D03*
D22*
X61250000Y-91890000D03*
X61250000Y-76790000D03*
%TD*%
M02*
