M48
; DRILL file {KiCad (6.0.11)} date Thu Aug 10 00:19:58 2023
; FORMAT={-:-/ absolute / metric / decimal}
; #@! TF.CreationDate,2023-08-10T00:19:58+09:00
; #@! TF.GenerationSoftware,Kicad,Pcbnew,(6.0.11)
; #@! TF.FileFunction,MixedPlating,1,2
FMAT,2
METRIC
; #@! TA.AperFunction,Plated,PTH,ViaDrill
T1C0.300
; #@! TA.AperFunction,Plated,PTH,ViaDrill
T2C0.400
; #@! TA.AperFunction,Plated,PTH,ViaDrill
T3C0.600
; #@! TA.AperFunction,Plated,PTH,ComponentDrill
T4C0.650
; #@! TA.AperFunction,Plated,PTH,ComponentDrill
T5C0.762
; #@! TA.AperFunction,Plated,PTH,ComponentDrill
T6C0.800
; #@! TA.AperFunction,Plated,PTH,ComponentDrill
T7C0.900
; #@! TA.AperFunction,Plated,PTH,ComponentDrill
T8C1.000
; #@! TA.AperFunction,Plated,PTH,ComponentDrill
T9C1.100
; #@! TA.AperFunction,Plated,PTH,ComponentDrill
T10C1.200
; #@! TA.AperFunction,Plated,PTH,ViaDrill
T11C1.400
; #@! TA.AperFunction,Plated,PTH,ComponentDrill
T12C1.900
; #@! TA.AperFunction,NonPlated,NPTH,ComponentDrill
T13C3.100
%
G90
G05
T1
X61.26Y-115.74
X64.15Y-70.465
X64.15Y-72.04
X64.15Y-103.989
X64.15Y-117.84
X64.15Y-132.04
X64.15Y-145.84
X64.628Y-78.337
X64.68Y-90.56
X64.708Y-73.482
X65.418Y-78.46
X65.69Y-88.75
X65.7Y-104.2
X65.77Y-64.2
X66.157Y-78.766
X66.21Y-92.16
X66.72Y-65.19
X66.73Y-106.18
X66.959Y-78.717
X67.143Y-85.498
X67.2Y-104.2
X67.342Y-78.015
X67.38Y-90.53
X67.501Y-106.84
X67.501Y-121.04
X67.501Y-135.14
X67.74Y-66.17
X67.8Y-71.27
X67.8Y-72.4
X67.81Y-68.46
X67.83Y-73.88
X67.932Y-85.369
X68.13Y-94.01
X68.673Y-85.756
X69.35Y-92.3
X69.45Y-94.11
X69.642Y-83.248
X69.672Y-86.118
X69.683Y-82.407
X69.7Y-84.24
X71.82Y-128.77
X71.84Y-122.93
X71.84Y-124.7
X71.84Y-126.82
X71.85Y-130.76
X72.748Y-78.742
X72.75Y-75.34
X73.11Y-92.44
X73.25Y-94.08
X73.45Y-74.74
X73.508Y-79.502
X73.6Y-73.57
X73.61Y-71.79
X75.53Y-94.09
X75.54Y-92.48
X76.443Y-138.547
X77.26Y-134.75
X77.64Y-92.42
X77.75Y-94.11
X78.91Y-65.52
X79.46Y-134.78
X79.97Y-92.42
X80.07Y-94.05
X81.73Y-92.41
X82.15Y-94.11
X83.75Y-92.41
X85.54Y-92.44
X85.69Y-100.66
X86.05Y-58.09
X86.6Y-70.92
X86.911Y-107.601
X86.93Y-93.84
X87.86Y-132.24
X87.912Y-60.34
X87.95Y-97.44
X87.95Y-100.24
X88.43Y-95.25
X88.95Y-51.833
X89.02Y-134.95
X89.45Y-101.64
X89.55Y-99.04
X89.75Y-96.57
X89.8Y-58.09
X90.131Y-108.621
X90.65Y-103.04
X91.05Y-100.34
X91.4Y-134.86
X91.42Y-98.29
X91.5Y-85.24
X91.643Y-51.833
X91.7Y-60.302
X92.15Y-101.64
X93.29Y-105.89
X93.55Y-58.09
X93.57Y-100.13
X93.77Y-132.29
X93.85Y-134.9
X94.87Y-132.14
X95.05Y-104.04
X95.22Y-105.82
X95.25Y-86.24
X95.357Y-51.833
X95.45Y-60.302
X96.62Y-134.88
X96.85Y-103.94
X97.06Y-143.19
X97.23Y-101.99
X97.26Y-105.82
X97.3Y-58.09
X97.82Y-132.48
X98.15Y-51.833
X98.91Y-101.97
X99.05Y-100.18
X99.15Y-104.04
X99.2Y-60.302
X99.44Y-134.82
X99.84Y-105.84
X99.934Y-99.456
X100.675Y-89.09
X100.75Y-91.64
X100.75Y-92.64
X100.752Y-99.459
X100.91Y-102.0
X101.0Y-87.565
X101.35Y-92.04
X101.5Y-89.915
X101.75Y-104.04
X101.78Y-105.84
X101.8Y-99.04
X101.9Y-86.69
X102.16Y-134.87
X102.225Y-88.815
X102.25Y-99.84
X102.575Y-90.965
X103.175Y-87.915
X103.425Y-89.99
X103.45Y-104.04
X103.47Y-134.89
X103.75Y-86.74
X104.03Y-98.69
X104.05Y-100.04
X104.31Y-105.87
X104.35Y-89.165
X104.55Y-82.24
X104.96Y-134.86
X105.237Y-80.953
X105.25Y-88.215
X105.35Y-99.18
X105.45Y-92.816
X105.45Y-83.14
X105.455Y-105.395
X106.35Y-60.34
X106.355Y-104.605
X106.575Y-112.964
X106.575Y-113.763
X106.575Y-115.44
X106.575Y-122.84
X106.578Y-114.563
X106.65Y-82.34
X106.75Y-81.002
X106.799Y-92.316
X106.822Y-121.709
X106.89Y-134.87
X107.05Y-98.34
X107.58Y-102.97
X108.291Y-91.865
X108.368Y-99.302
X108.375Y-90.588
X108.456Y-105.226
X108.55Y-81.84
X108.55Y-82.84
X109.01Y-134.84
X109.338Y-103.636
X109.59Y-97.115
X110.075Y-72.36
X110.273Y-62.577
X110.55Y-101.363
X110.55Y-97.24
X110.825Y-95.415
X111.25Y-62.614
X111.441Y-106.029
X111.441Y-107.259
X111.65Y-100.84
X111.75Y-95.84
X111.75Y-97.34
X111.912Y-102.04
X112.55Y-99.64
X112.65Y-100.94
X112.75Y-94.84
X112.75Y-96.34
X113.58Y-96.83
X113.716Y-98.864
X113.75Y-75.84
X113.75Y-77.84
X113.75Y-79.84
X113.75Y-81.84
X113.75Y-83.24
X113.75Y-86.84
X113.75Y-88.84
X113.75Y-90.84
X113.75Y-93.84
X113.75Y-95.84
X114.515Y-98.864
X115.315Y-98.864
X116.114Y-98.659
X116.672Y-105.867
X116.775Y-98.115
X117.172Y-101.337
X117.22Y-156.0
X117.299Y-97.474
X117.4Y-161.86
X117.611Y-100.669
X117.675Y-96.44
X118.125Y-97.101
X118.75Y-97.866
X119.45Y-98.44
X119.47Y-155.97
X120.05Y-163.09
X120.255Y-103.445
X121.25Y-97.54
X121.29Y-111.58
X121.84Y-101.43
X122.09Y-111.08
X122.21Y-110.276
X122.45Y-59.44
X122.45Y-62.44
X122.45Y-96.34
X123.002Y-110.167
X123.06Y-101.46
X123.12Y-163.11
X123.167Y-109.364
X123.25Y-95.54
X123.953Y-109.217
X124.1Y-108.15
X124.33Y-101.44
X124.35Y-94.44
X124.45Y-93.14
X124.55Y-125.84
X125.15Y-59.54
X125.15Y-63.14
X125.15Y-65.74
X125.83Y-163.11
X128.83Y-163.1
X129.043Y-111.857
X130.86Y-123.76
X130.87Y-115.69
X130.89Y-118.71
X130.92Y-120.98
X131.03Y-155.96
X131.737Y-114.551
X131.84Y-163.05
X134.52Y-163.07
X135.208Y-116.366
X135.219Y-117.819
X137.15Y-124.79
X137.39Y-163.12
X139.94Y-163.15
X141.918Y-94.043
X142.19Y-96.8
X142.75Y-63.09
X142.855Y-102.935
X142.88Y-93.9
X142.88Y-163.05
X142.94Y-67.55
X143.057Y-106.823
X143.8Y-101.47
X143.85Y-60.94
X143.85Y-98.21
X144.63Y-102.27
X145.003Y-140.21
X145.044Y-139.246
X145.34Y-103.08
X145.4Y-99.76
X145.61Y-163.14
X146.047Y-61.84
X147.07Y-141.68
X147.25Y-86.54
X147.35Y-81.24
X147.35Y-82.94
X147.35Y-84.74
X147.35Y-88.94
X148.16Y-163.05
X148.262Y-91.98
X149.537Y-60.94
X150.137Y-116.54
X152.4Y-88.267
X154.2Y-80.789
T2
X58.63Y-93.37
X58.75Y-44.84
X58.75Y-46.84
X58.75Y-48.84
X58.75Y-50.84
X58.75Y-52.84
X58.75Y-54.84
X58.75Y-56.84
X58.75Y-94.84
X58.75Y-96.84
X58.75Y-98.84
X58.75Y-100.84
X58.75Y-102.84
X58.75Y-104.84
X58.75Y-106.84
X58.75Y-108.84
X58.75Y-110.84
X58.75Y-112.84
X58.75Y-114.84
X58.75Y-116.84
X58.75Y-118.84
X58.75Y-120.84
X58.75Y-122.84
X58.75Y-124.84
X58.75Y-126.84
X58.75Y-128.84
X58.75Y-130.84
X58.75Y-132.84
X58.75Y-134.84
X58.75Y-136.84
X58.75Y-138.84
X58.75Y-140.84
X58.75Y-142.84
X58.75Y-144.84
X58.75Y-146.84
X58.75Y-148.84
X58.75Y-150.84
X58.75Y-152.84
X58.75Y-154.84
X58.75Y-156.84
X58.75Y-158.84
X58.75Y-160.84
X58.75Y-162.84
X60.5Y-54.59
X60.54Y-95.26
X60.75Y-44.84
X60.75Y-48.84
X60.75Y-50.84
X60.75Y-52.84
X60.75Y-96.84
X60.75Y-152.84
X60.75Y-154.84
X60.75Y-156.84
X60.75Y-158.84
X60.75Y-162.84
X60.84Y-104.45
X60.88Y-106.01
X60.89Y-102.33
X61.03Y-110.84
X61.29Y-117.7
X61.33Y-119.41
X61.33Y-124.81
X61.51Y-65.16
X61.51Y-69.18
X61.51Y-74.93
X61.55Y-67.56
X61.57Y-62.74
X61.58Y-70.95
X61.67Y-106.97
X61.75Y-138.78
X61.86Y-89.63
X61.88Y-133.22
X61.9Y-134.79
X61.91Y-60.61
X61.95Y-81.01
X61.95Y-120.91
X61.96Y-78.85
X62.01Y-83.5
X62.01Y-85.68
X62.04Y-87.96
X62.04Y-96.68
X62.09Y-128.85
X62.26Y-114.87
X62.26Y-142.91
X62.32Y-100.77
X62.34Y-58.61
X62.34Y-132.07
X62.34Y-148.86
X62.4Y-104.64
X62.42Y-146.19
X62.43Y-118.27
X62.5Y-52.84
X62.75Y-44.84
X62.75Y-46.84
X62.75Y-48.84
X62.75Y-50.84
X62.75Y-154.84
X62.75Y-156.84
X62.75Y-158.84
X62.75Y-160.84
X62.75Y-162.84
X63.29Y-74.91
X63.39Y-79.52
X63.41Y-98.05
X63.49Y-77.97
X63.58Y-111.97
X63.61Y-125.84
X63.64Y-124.04
X63.64Y-138.02
X63.66Y-92.5
X63.68Y-110.1
X63.72Y-140.05
X64.09Y-57.09
X64.09Y-59.15
X64.13Y-111.02
X64.15Y-75.55
X64.19Y-139.01
X64.29Y-77.08
X64.3Y-124.95
X64.75Y-44.84
X64.75Y-46.84
X64.75Y-48.84
X64.75Y-50.84
X64.75Y-150.84
X64.75Y-156.84
X64.75Y-158.84
X64.75Y-160.84
X64.75Y-162.84
X65.2Y-94.2
X65.51Y-57.77
X65.58Y-55.44
X65.84Y-108.51
X66.17Y-136.8
X66.2Y-122.76
X66.75Y-44.84
X66.75Y-46.84
X66.75Y-48.84
X66.75Y-50.84
X66.75Y-150.84
X66.75Y-152.84
X66.75Y-158.84
X66.75Y-160.84
X66.75Y-162.84
X66.91Y-146.34
X66.92Y-109.73
X66.94Y-138.53
X67.01Y-124.85
X67.03Y-95.81
X67.03Y-108.05
X67.03Y-123.56
X67.08Y-122.24
X67.09Y-136.51
X67.19Y-55.44
X67.19Y-60.33
X67.26Y-57.62
X67.29Y-149.2
X68.75Y-44.84
X68.75Y-46.84
X68.75Y-48.84
X68.75Y-50.84
X68.75Y-148.84
X68.75Y-150.84
X68.75Y-152.84
X68.75Y-154.84
X68.75Y-160.84
X68.75Y-162.84
X68.93Y-142.78
X68.93Y-144.45
X68.98Y-55.37
X68.98Y-96.04
X69.13Y-57.74
X69.13Y-60.41
X69.25Y-62.4
X69.25Y-98.23
X69.48Y-147.18
X69.67Y-161.62
X70.19Y-163.0
X70.4Y-46.61
X70.74Y-140.3
X70.75Y-44.84
X70.75Y-48.84
X70.75Y-50.84
X70.75Y-146.84
X70.75Y-148.84
X70.75Y-150.84
X70.75Y-156.84
X70.83Y-133.28
X70.91Y-69.94
X71.02Y-136.32
X71.08Y-142.21
X71.09Y-138.18
X71.16Y-76.35
X71.23Y-145.26
X71.27Y-55.41
X71.29Y-134.08
X71.31Y-74.72
X71.47Y-72.15
X72.04Y-113.9
X72.04Y-115.78
X72.08Y-117.95
X72.08Y-120.4
X72.13Y-158.38
X72.33Y-70.4
X72.75Y-44.84
X72.75Y-48.84
X72.75Y-50.84
X72.75Y-144.84
X72.75Y-146.84
X72.75Y-148.84
X72.75Y-150.84
X72.75Y-156.84
X72.91Y-162.95
X72.95Y-140.07
X73.06Y-46.48
X73.06Y-138.02
X73.15Y-104.52
X73.18Y-106.68
X73.24Y-109.06
X73.32Y-96.81
X73.34Y-136.23
X73.4Y-143.23
X73.59Y-98.29
X73.69Y-69.19
X74.1Y-121.74
X74.11Y-126.76
X74.12Y-116.03
X74.15Y-129.03
X74.18Y-119.21
X74.18Y-124.58
X74.19Y-96.09
X74.23Y-107.99
X74.52Y-97.76
X74.55Y-158.36
X74.62Y-100.93
X74.75Y-44.84
X74.75Y-46.84
X74.75Y-48.84
X74.75Y-50.84
X74.75Y-142.84
X74.75Y-144.84
X74.75Y-146.84
X74.75Y-148.84
X74.75Y-150.84
X74.75Y-156.84
X74.94Y-131.96
X74.96Y-110.71
X75.0Y-114.05
X75.19Y-141.41
X75.26Y-162.91
X75.27Y-138.06
X75.48Y-109.16
X75.72Y-118.48
X75.737Y-65.752
X75.9Y-116.1
X75.99Y-121.31
X76.22Y-126.65
X76.22Y-128.87
X76.32Y-124.62
X76.37Y-106.61
X76.38Y-104.0
X76.61Y-63.01
X76.75Y-44.84
X76.75Y-46.84
X76.75Y-48.84
X76.75Y-50.84
X76.75Y-140.84
X76.75Y-142.84
X76.75Y-144.84
X76.75Y-146.84
X76.75Y-148.84
X76.75Y-150.84
X76.75Y-156.84
X76.8Y-131.95
X76.86Y-139.65
X76.95Y-105.06
X76.96Y-55.27
X76.96Y-158.49
X77.25Y-122.93
X77.71Y-102.94
X77.8Y-162.85
X77.81Y-101.02
X77.84Y-130.6
X77.844Y-65.846
X78.2Y-129.01
X78.23Y-60.33
X78.26Y-126.6
X78.28Y-124.39
X78.69Y-61.86
X78.7Y-121.04
X78.71Y-141.61
X78.75Y-44.84
X78.75Y-46.84
X78.75Y-48.84
X78.75Y-50.84
X78.75Y-142.84
X78.75Y-144.84
X78.75Y-146.84
X78.75Y-148.84
X78.75Y-150.84
X78.75Y-156.84
X78.75Y-158.84
X78.8Y-116.11
X78.81Y-110.9
X78.83Y-118.52
X78.89Y-113.62
X79.11Y-109.67
X79.3Y-63.49
X79.5Y-130.84
X79.63Y-97.69
X79.64Y-138.19
X79.79Y-159.91
X79.93Y-106.62
X80.29Y-98.58
X80.39Y-96.02
X80.63Y-60.38
X80.64Y-120.96
X80.68Y-126.77
X80.74Y-128.83
X80.75Y-44.84
X80.75Y-46.84
X80.75Y-48.84
X80.75Y-50.84
X80.75Y-142.84
X80.75Y-144.84
X80.75Y-146.84
X80.75Y-148.84
X80.75Y-150.84
X80.75Y-152.84
X80.75Y-156.84
X80.75Y-158.84
X80.75Y-162.84
X80.77Y-124.45
X80.78Y-139.23
X80.8Y-161.12
X80.88Y-110.8
X80.95Y-115.84
X80.99Y-113.47
X80.99Y-118.6
X81.25Y-63.32
X81.63Y-104.18
X81.64Y-97.08
X82.0Y-138.24
X82.15Y-105.49
X82.24Y-122.58
X82.35Y-107.49
X82.41Y-116.9
X82.41Y-130.5
X82.48Y-98.59
X82.48Y-109.61
X82.53Y-112.52
X82.56Y-55.45
X82.58Y-120.69
X82.6Y-125.3
X82.62Y-63.32
X82.63Y-49.08
X82.72Y-126.91
X82.75Y-44.84
X82.75Y-50.84
X82.75Y-95.91
X82.75Y-142.84
X82.75Y-144.84
X82.75Y-146.84
X82.75Y-148.84
X82.75Y-150.84
X82.75Y-152.84
X82.75Y-154.84
X82.75Y-156.84
X82.75Y-158.84
X82.75Y-160.84
X82.75Y-162.84
X82.76Y-61.38
X82.86Y-58.5
X83.0Y-64.66
X83.42Y-139.24
X83.62Y-103.75
X83.75Y-132.69
X83.95Y-142.09
X83.98Y-105.37
X84.0Y-130.84
X84.19Y-55.32
X84.22Y-112.95
X84.23Y-116.93
X84.28Y-96.62
X84.28Y-120.59
X84.54Y-60.24
X84.61Y-57.99
X84.75Y-44.84
X84.75Y-46.84
X84.75Y-48.84
X84.75Y-50.84
X84.75Y-142.84
X84.75Y-144.84
X84.75Y-146.84
X84.75Y-148.84
X84.75Y-150.84
X84.75Y-152.84
X84.75Y-154.84
X84.75Y-156.84
X84.75Y-158.84
X84.75Y-160.84
X84.75Y-162.84
X84.86Y-138.15
X85.15Y-63.36
X85.15Y-124.51
X85.21Y-65.36
X85.26Y-129.28
X85.34Y-61.66
X85.35Y-127.67
X85.44Y-56.09
X85.6Y-130.72
X85.69Y-98.25
X85.8Y-122.89
X86.3Y-139.3
X86.38Y-49.26
X86.46Y-131.97
X86.55Y-44.51
X86.68Y-127.56
X86.75Y-50.84
X86.75Y-142.84
X86.75Y-144.84
X86.75Y-146.84
X86.75Y-148.84
X86.75Y-150.84
X86.75Y-152.84
X86.75Y-154.84
X86.75Y-156.84
X86.75Y-158.84
X86.75Y-160.84
X86.75Y-162.84
X86.99Y-63.63
X87.1Y-73.815
X87.21Y-126.06
X87.24Y-129.14
X87.29Y-66.84
X87.72Y-61.78
X87.78Y-138.19
X87.87Y-103.17
X87.88Y-69.64
X87.9Y-145.47
X87.95Y-73.815
X87.98Y-147.75
X88.12Y-105.46
X88.14Y-150.28
X88.19Y-49.19
X88.19Y-142.09
X88.5Y-130.84
X88.55Y-122.84
X88.64Y-65.42
X88.75Y-44.84
X88.87Y-66.84
X88.91Y-139.25
X89.08Y-46.74
X89.14Y-104.56
X89.16Y-70.74
X89.64Y-127.22
X89.67Y-124.85
X89.79Y-129.28
X89.97Y-132.31
X90.05Y-64.21
X90.05Y-130.9
X90.4Y-73.79
X90.44Y-147.66
X90.49Y-111.14
X90.52Y-138.14
X90.55Y-122.84
X90.57Y-115.16
X90.58Y-117.69
X90.58Y-120.73
X90.65Y-66.82
X90.65Y-150.29
X90.66Y-69.4
X90.66Y-113.14
X90.7Y-70.79
X90.75Y-44.84
X90.75Y-46.84
X90.75Y-152.84
X90.75Y-160.84
X90.75Y-162.84
X90.86Y-126.06
X90.92Y-159.22
X90.94Y-128.18
X90.98Y-156.52
X91.01Y-142.08
X91.04Y-153.92
X91.16Y-61.64
X91.27Y-145.99
X91.4Y-132.27
X91.58Y-130.92
X91.63Y-119.22
X91.74Y-124.82
X91.81Y-107.75
X91.82Y-48.05
X91.85Y-129.17
X91.91Y-139.22
X91.93Y-127.31
X91.99Y-113.03
X92.1Y-147.96
X92.4Y-120.58
X92.62Y-115.71
X92.62Y-117.9
X92.65Y-146.6
X92.65Y-150.29
X92.75Y-44.84
X92.75Y-46.84
X92.75Y-152.84
X92.75Y-160.84
X92.75Y-162.84
X92.93Y-112.14
X92.95Y-122.84
X93.0Y-130.84
X93.07Y-138.16
X93.075Y-73.815
X93.21Y-70.74
X93.25Y-68.99
X93.27Y-64.03
X93.34Y-66.68
X93.45Y-139.06
X93.51Y-116.71
X93.67Y-119.36
X93.86Y-156.83
X93.88Y-154.01
X93.88Y-159.24
X93.89Y-79.82
X94.06Y-145.97
X94.2Y-126.88
X94.22Y-129.17
X94.28Y-124.76
X94.48Y-113.25
X94.58Y-130.74
X94.69Y-50.03
X94.75Y-44.84
X94.75Y-46.84
X94.75Y-48.84
X94.75Y-148.84
X94.75Y-150.84
X94.75Y-152.84
X94.75Y-160.84
X94.75Y-162.84
X94.84Y-120.55
X94.97Y-61.68
X95.09Y-107.7
X95.34Y-116.71
X95.47Y-128.21
X95.52Y-125.69
X95.76Y-138.29
X95.78Y-112.28
X95.86Y-50.03
X95.89Y-130.51
X95.94Y-119.36
X96.15Y-129.37
X96.21Y-64.15
X96.22Y-68.5
X96.26Y-66.84
X96.37Y-126.77
X96.43Y-124.68
X96.66Y-159.29
X96.75Y-44.84
X96.75Y-46.84
X96.75Y-48.84
X96.75Y-50.84
X96.75Y-146.84
X96.75Y-148.84
X96.75Y-150.84
X96.75Y-152.84
X96.75Y-160.84
X96.75Y-162.84
X96.98Y-141.06
X97.04Y-156.57
X97.19Y-108.9
X97.38Y-113.16
X97.5Y-130.84
X97.6Y-116.73
X97.65Y-153.92
X98.28Y-107.81
X98.42Y-49.31
X98.59Y-44.55
X98.7Y-126.57
X98.71Y-112.08
X98.75Y-50.84
X98.75Y-144.84
X98.75Y-146.84
X98.75Y-148.84
X98.75Y-150.84
X98.75Y-152.84
X98.75Y-160.84
X98.75Y-162.84
X98.77Y-61.7
X98.77Y-129.0
X98.78Y-138.41
X98.8Y-109.44
X98.84Y-141.06
X98.88Y-65.61
X98.99Y-124.2
X99.03Y-64.06
X99.04Y-132.1
X99.42Y-56.37
X99.54Y-159.27
X99.57Y-118.08
X99.65Y-156.52
X99.79Y-108.43
X99.85Y-143.44
X99.95Y-125.35
X100.01Y-127.72
X100.01Y-130.31
X100.06Y-55.25
X100.15Y-113.11
X100.42Y-57.01
X100.53Y-59.12
X100.63Y-60.11
X100.74Y-117.2
X100.75Y-44.84
X100.75Y-46.84
X100.75Y-48.84
X100.75Y-144.84
X100.75Y-146.84
X100.75Y-148.84
X100.75Y-150.84
X100.75Y-152.84
X100.75Y-160.84
X100.75Y-162.84
X101.21Y-51.41
X101.21Y-124.13
X101.29Y-111.97
X101.32Y-126.68
X101.35Y-129.0
X101.37Y-117.95
X101.39Y-132.49
X101.42Y-109.66
X101.44Y-107.75
X101.65Y-64.3
X101.7Y-138.39
X101.77Y-153.89
X102.14Y-156.62
X102.15Y-141.14
X102.23Y-159.29
X102.75Y-44.84
X102.75Y-144.84
X102.75Y-146.84
X102.75Y-148.84
X102.75Y-150.84
X102.75Y-152.84
X102.75Y-160.84
X102.75Y-162.84
X102.85Y-143.44
X103.15Y-74.84
X103.58Y-123.97
X103.64Y-109.48
X103.67Y-113.19
X103.68Y-107.67
X103.69Y-129.04
X103.7Y-117.1
X103.715Y-59.095
X103.75Y-76.44
X103.78Y-131.58
X103.83Y-61.01
X103.9Y-126.48
X104.35Y-74.64
X104.55Y-77.84
X104.74Y-127.67
X104.75Y-117.92
X104.75Y-144.84
X104.75Y-146.84
X104.75Y-148.84
X104.75Y-150.84
X104.75Y-152.84
X104.75Y-160.84
X104.75Y-162.84
X104.77Y-125.13
X104.77Y-130.47
X104.85Y-107.75
X104.87Y-112.59
X104.89Y-132.56
X104.93Y-111.14
X104.94Y-138.46
X104.95Y-141.14
X105.23Y-156.57
X105.37Y-159.25
X105.425Y-55.34
X105.55Y-143.44
X105.7Y-153.95
X105.75Y-75.84
X106.6Y-87.165
X106.97Y-62.86
X107.04Y-111.5
X107.1Y-124.13
X107.13Y-109.11
X107.21Y-126.44
X107.21Y-130.62
X107.21Y-132.4
X107.23Y-128.63
X107.55Y-141.14
X107.6Y-138.39
X107.66Y-60.66
X107.71Y-59.02
X108.35Y-87.19
X108.42Y-72.41
X108.55Y-58.13
X108.7Y-56.7
X108.71Y-123.18
X108.75Y-44.84
X108.75Y-146.84
X108.75Y-148.84
X108.75Y-150.84
X108.75Y-152.84
X108.75Y-160.84
X108.75Y-162.84
X108.89Y-154.01
X108.93Y-48.9
X108.93Y-50.84
X108.96Y-46.93
X108.99Y-156.66
X109.05Y-143.44
X109.09Y-130.46
X109.11Y-132.29
X109.14Y-126.38
X109.14Y-128.5
X109.38Y-109.19
X109.42Y-107.41
X109.43Y-124.42
X109.44Y-159.14
X109.63Y-99.89
X110.06Y-58.04
X110.08Y-145.34
X110.19Y-99.29
X110.2Y-56.79
X110.21Y-148.29
X110.23Y-118.15
X110.34Y-138.37
X110.35Y-141.04
X110.46Y-70.57
X110.49Y-67.69
X110.51Y-82.98
X110.57Y-86.95
X110.66Y-81.99
X110.675Y-60.515
X110.75Y-44.84
X110.75Y-46.84
X110.75Y-48.84
X110.75Y-50.84
X110.75Y-150.84
X110.75Y-152.84
X110.75Y-160.84
X110.75Y-162.84
X110.97Y-156.57
X111.01Y-134.39
X111.07Y-125.93
X111.13Y-128.48
X111.21Y-69.5
X111.26Y-130.28
X111.42Y-56.62
X111.55Y-59.64
X111.68Y-88.67
X111.73Y-153.94
X111.82Y-82.97
X111.83Y-82.01
X111.86Y-86.88
X111.9Y-159.23
X111.91Y-73.19
X112.25Y-62.09
X112.4Y-160.8
X112.53Y-124.37
X112.56Y-103.235
X112.61Y-112.98
X112.64Y-138.24
X112.65Y-140.94
X112.72Y-156.54
X112.75Y-44.84
X112.75Y-46.84
X112.75Y-48.84
X112.75Y-50.84
X112.75Y-142.84
X112.75Y-150.84
X112.75Y-152.84
X112.75Y-162.84
X113.21Y-145.62
X113.38Y-128.32
X113.4Y-148.45
X113.42Y-112.13
X113.51Y-126.06
X113.67Y-131.87
X114.2Y-72.78
X114.21Y-113.72
X114.25Y-71.34
X114.25Y-74.34
X114.39Y-124.16
X114.59Y-67.82
X114.75Y-44.84
X114.75Y-46.84
X114.75Y-48.84
X114.75Y-50.84
X114.75Y-142.84
X114.75Y-144.84
X114.75Y-146.84
X114.75Y-148.84
X114.75Y-150.84
X114.75Y-152.84
X114.75Y-162.84
X114.8Y-136.19
X114.85Y-141.04
X114.99Y-138.44
X115.08Y-156.59
X115.19Y-110.44
X115.31Y-120.93
X115.66Y-125.91
X115.75Y-72.84
X115.75Y-76.64
X115.75Y-78.64
X115.75Y-80.64
X115.75Y-82.84
X115.78Y-69.81
X115.79Y-154.03
X115.81Y-86.88
X115.87Y-137.34
X115.9Y-71.44
X115.97Y-134.82
X116.08Y-129.3
X116.15Y-160.82
X116.17Y-89.96
X116.74Y-158.03
X116.75Y-44.84
X116.75Y-46.84
X116.75Y-48.84
X116.75Y-65.34
X116.75Y-142.84
X116.75Y-144.84
X116.75Y-146.84
X116.75Y-148.84
X116.75Y-150.84
X116.75Y-152.84
X116.75Y-162.84
X116.85Y-140.94
X117.07Y-88.46
X117.075Y-107.815
X117.12Y-124.32
X117.28Y-110.22
X117.35Y-75.04
X117.35Y-76.64
X117.35Y-78.64
X117.35Y-80.64
X117.35Y-82.84
X117.55Y-63.84
X117.61Y-112.63
X117.64Y-120.93
X117.75Y-70.84
X117.8Y-86.99
X118.123Y-104.136
X118.55Y-138.44
X118.75Y-44.84
X118.75Y-46.84
X118.75Y-48.84
X118.75Y-53.34
X118.75Y-59.84
X118.75Y-61.84
X118.75Y-63.84
X118.75Y-67.09
X118.75Y-134.84
X118.75Y-136.84
X118.75Y-144.84
X118.75Y-146.84
X118.75Y-148.84
X118.75Y-150.84
X118.75Y-152.84
X118.85Y-141.74
X118.87Y-92.21
X118.9Y-112.76
X118.93Y-126.73
X118.98Y-109.77
X119.07Y-88.28
X119.11Y-119.32
X119.13Y-121.2
X119.15Y-73.24
X119.15Y-75.04
X119.15Y-76.64
X119.15Y-78.64
X119.15Y-80.64
X119.15Y-82.84
X119.16Y-159.36
X119.25Y-69.84
X119.27Y-90.13
X119.34Y-133.53
X119.62Y-161.0
X119.67Y-153.96
X120.336Y-94.326
X120.36Y-102.33
X120.75Y-44.84
X120.75Y-46.84
X120.75Y-48.84
X120.75Y-53.34
X120.75Y-132.84
X120.75Y-134.84
X120.75Y-136.84
X120.75Y-144.84
X120.75Y-146.84
X120.75Y-148.84
X120.75Y-150.84
X120.75Y-152.84
X120.79Y-157.78
X121.24Y-95.03
X121.25Y-138.04
X121.38Y-105.68
X121.38Y-124.07
X121.52Y-121.38
X121.57Y-131.19
X121.59Y-116.38
X121.59Y-118.69
X121.64Y-90.74
X121.65Y-92.88
X121.66Y-83.29
X121.73Y-67.38
X121.75Y-63.79
X121.75Y-148.04
X121.78Y-70.6
X121.8Y-65.42
X121.84Y-72.73
X121.87Y-75.04
X122.03Y-156.23
X122.05Y-141.14
X122.05Y-143.84
X122.08Y-99.58
X122.48Y-85.43
X122.48Y-107.1
X122.54Y-83.24
X122.6Y-91.72
X122.69Y-103.64
X122.75Y-44.84
X122.75Y-46.84
X122.75Y-48.84
X122.75Y-53.34
X122.75Y-130.84
X122.75Y-132.84
X122.75Y-134.84
X122.75Y-148.84
X122.75Y-150.84
X122.75Y-152.84
X122.92Y-157.25
X123.0Y-98.53
X123.52Y-135.95
X123.61Y-129.22
X123.67Y-153.96
X123.83Y-158.61
X123.83Y-161.04
X124.21Y-97.35
X124.21Y-105.21
X124.24Y-99.61
X124.32Y-103.53
X124.55Y-68.04
X124.55Y-69.84
X124.55Y-71.84
X124.55Y-73.44
X124.55Y-75.04
X124.61Y-156.25
X124.74Y-85.69
X124.75Y-44.84
X124.75Y-46.84
X124.75Y-48.84
X124.75Y-53.34
X124.75Y-128.84
X124.75Y-130.84
X124.75Y-132.84
X124.75Y-134.84
X124.75Y-140.94
X124.75Y-148.84
X124.75Y-150.84
X124.75Y-152.84
X124.79Y-87.89
X124.85Y-144.14
X124.88Y-83.37
X125.33Y-127.22
X125.52Y-79.79
X125.65Y-112.64
X125.65Y-116.14
X125.65Y-120.94
X125.65Y-125.04
X125.65Y-147.34
X125.82Y-137.94
X125.87Y-157.91
X125.98Y-89.03
X126.01Y-86.53
X126.08Y-84.43
X126.37Y-156.2
X126.55Y-111.54
X126.75Y-44.84
X126.75Y-46.84
X126.75Y-48.84
X126.75Y-53.34
X126.75Y-114.84
X126.75Y-118.84
X126.75Y-122.84
X126.75Y-126.84
X126.75Y-128.84
X126.75Y-130.84
X126.75Y-132.84
X126.75Y-134.84
X126.75Y-136.84
X126.75Y-138.84
X126.75Y-140.84
X126.75Y-142.84
X126.75Y-145.84
X126.75Y-148.84
X126.75Y-150.84
X126.75Y-152.84
X127.25Y-59.84
X127.25Y-61.84
X127.25Y-63.84
X127.25Y-65.84
X127.25Y-67.84
X127.25Y-69.84
X127.25Y-71.84
X127.25Y-73.34
X127.3Y-78.72
X127.57Y-144.37
X127.64Y-154.03
X127.65Y-112.94
X127.73Y-147.25
X127.73Y-159.93
X127.75Y-116.34
X127.75Y-120.84
X127.75Y-124.84
X128.03Y-156.16
X128.05Y-109.24
X128.07Y-105.47
X128.14Y-82.96
X128.16Y-95.29
X128.18Y-98.67
X128.21Y-158.35
X128.23Y-86.96
X128.23Y-91.34
X128.33Y-93.26
X128.75Y-44.84
X128.75Y-46.84
X128.75Y-48.84
X128.75Y-53.34
X128.75Y-55.84
X128.75Y-59.84
X128.75Y-61.84
X128.75Y-63.84
X128.75Y-65.84
X128.75Y-67.84
X128.75Y-69.84
X128.75Y-71.84
X128.75Y-126.84
X128.75Y-128.84
X128.75Y-130.84
X128.75Y-132.84
X128.75Y-134.84
X128.75Y-136.84
X128.75Y-138.84
X128.75Y-140.84
X128.75Y-142.84
X128.75Y-145.84
X128.75Y-148.84
X128.75Y-150.84
X128.75Y-152.84
X128.82Y-100.51
X128.95Y-75.13
X129.01Y-80.39
X129.05Y-77.1
X129.09Y-106.86
X129.12Y-109.38
X129.34Y-103.68
X129.45Y-88.26
X129.47Y-144.25
X129.55Y-57.13
X129.61Y-161.19
X129.63Y-84.9
X129.63Y-90.32
X129.66Y-93.47
X129.66Y-96.77
X129.74Y-82.07
X130.25Y-127.34
X130.61Y-159.22
X130.75Y-44.84
X130.75Y-46.84
X130.75Y-48.84
X130.75Y-53.34
X130.75Y-55.84
X130.75Y-57.84
X130.75Y-61.84
X130.75Y-63.84
X130.75Y-65.84
X130.75Y-67.84
X130.75Y-69.84
X130.75Y-113.84
X130.75Y-128.84
X130.75Y-130.84
X130.75Y-132.84
X130.75Y-134.84
X130.75Y-136.84
X130.75Y-138.84
X130.75Y-140.84
X130.75Y-142.84
X130.75Y-148.84
X130.75Y-150.84
X130.75Y-152.84
X130.8Y-73.55
X130.99Y-75.13
X131.15Y-78.57
X131.18Y-80.43
X131.18Y-160.88
X131.33Y-59.12
X131.47Y-109.31
X131.69Y-154.01
X131.7Y-112.45
X131.72Y-106.73
X131.73Y-96.47
X131.82Y-93.44
X131.88Y-89.94
X131.97Y-86.33
X131.99Y-98.74
X132.18Y-157.93
X132.21Y-144.31
X132.25Y-54.34
X132.29Y-82.9
X132.58Y-100.45
X132.65Y-115.44
X132.71Y-120.56
X132.75Y-44.84
X132.75Y-46.84
X132.75Y-48.84
X132.75Y-55.84
X132.75Y-57.84
X132.75Y-59.84
X132.75Y-63.84
X132.75Y-65.84
X132.75Y-67.84
X132.75Y-130.84
X132.75Y-132.84
X132.75Y-134.84
X132.75Y-138.84
X132.75Y-140.84
X132.75Y-142.84
X132.75Y-146.84
X132.75Y-148.84
X132.75Y-150.84
X132.75Y-152.84
X132.78Y-129.51
X132.79Y-110.92
X132.81Y-125.64
X132.82Y-117.91
X132.82Y-123.22
X132.89Y-107.9
X132.93Y-105.21
X132.93Y-156.22
X132.97Y-76.44
X133.0Y-73.29
X133.01Y-78.45
X133.04Y-71.38
X133.19Y-84.48
X133.2Y-94.95
X133.24Y-88.05
X133.29Y-97.9
X133.33Y-61.19
X133.33Y-91.34
X133.37Y-113.88
X133.56Y-116.4
X133.72Y-82.56
X133.97Y-81.04
X134.2Y-106.4
X134.2Y-109.88
X134.25Y-56.34
X134.32Y-125.1
X134.34Y-112.91
X134.36Y-115.17
X134.39Y-131.28
X134.56Y-123.36
X134.58Y-120.94
X134.58Y-157.1
X134.66Y-118.84
X134.69Y-74.8
X134.73Y-127.37
X134.75Y-44.84
X134.75Y-46.84
X134.75Y-48.84
X134.75Y-57.84
X134.75Y-59.84
X134.75Y-61.84
X134.75Y-65.84
X134.75Y-132.84
X134.75Y-134.84
X134.75Y-136.84
X134.75Y-140.84
X134.75Y-142.84
X134.75Y-144.84
X134.75Y-146.84
X134.75Y-148.84
X134.75Y-150.84
X134.75Y-152.84
X134.76Y-76.63
X135.07Y-69.31
X135.11Y-71.15
X135.12Y-160.88
X135.32Y-158.42
X135.34Y-86.12
X135.41Y-63.06
X135.45Y-98.95
X135.47Y-96.88
X135.5Y-88.16
X135.5Y-90.3
X135.53Y-95.21
X135.56Y-80.73
X135.58Y-153.98
X135.66Y-84.07
X135.66Y-125.55
X135.77Y-79.11
X135.87Y-100.75
X136.01Y-120.37
X136.08Y-123.42
X136.19Y-133.09
X136.25Y-57.84
X136.26Y-129.01
X136.29Y-73.24
X136.41Y-74.88
X136.48Y-67.82
X136.54Y-103.7
X136.75Y-44.84
X136.75Y-46.84
X136.75Y-48.84
X136.75Y-59.84
X136.75Y-61.84
X136.75Y-63.84
X136.75Y-134.84
X136.75Y-136.84
X136.75Y-138.84
X136.75Y-142.84
X136.75Y-144.84
X136.75Y-146.84
X136.75Y-148.84
X136.75Y-150.84
X136.75Y-152.84
X136.8Y-82.74
X136.89Y-107.33
X136.91Y-156.09
X137.15Y-97.48
X137.22Y-87.14
X137.23Y-99.55
X137.23Y-105.42
X137.25Y-89.15
X137.27Y-128.0
X137.28Y-84.84
X137.28Y-95.55
X137.4Y-68.62
X137.45Y-126.69
X137.46Y-157.74
X137.52Y-78.61
X137.73Y-130.4
X137.97Y-103.9
X138.0Y-71.58
X138.05Y-73.38
X138.16Y-114.73
X138.21Y-121.14
X138.26Y-123.32
X138.28Y-112.52
X138.33Y-135.08
X138.46Y-110.63
X138.66Y-51.61
X138.72Y-88.83
X138.72Y-98.56
X138.75Y-44.84
X138.75Y-86.12
X138.75Y-90.27
X138.75Y-136.84
X138.75Y-138.84
X138.75Y-140.84
X138.75Y-144.84
X138.75Y-146.84
X138.75Y-148.84
X138.75Y-150.84
X138.75Y-152.84
X138.77Y-66.26
X138.8Y-96.83
X138.81Y-83.09
X138.91Y-105.12
X138.93Y-95.23
X138.96Y-124.37
X139.17Y-159.81
X139.25Y-64.83
X139.32Y-128.54
X139.36Y-113.58
X139.5Y-70.05
X139.6Y-117.69
X139.62Y-130.77
X139.66Y-153.96
X139.68Y-100.85
X139.68Y-157.38
X139.69Y-122.89
X139.83Y-71.65
X139.91Y-111.9
X139.91Y-156.14
X140.15Y-125.74
X140.22Y-65.75
X140.386Y-114.574
X140.41Y-137.18
X140.59Y-79.08
X140.69Y-131.88
X140.75Y-44.84
X140.75Y-46.84
X140.75Y-48.84
X140.75Y-50.84
X140.75Y-52.84
X140.75Y-138.84
X140.75Y-140.84
X140.75Y-146.84
X140.75Y-148.84
X140.75Y-150.84
X140.75Y-152.84
X140.83Y-68.76
X140.86Y-100.09
X140.87Y-133.31
X140.87Y-161.13
X140.89Y-127.07
X140.95Y-54.84
X140.95Y-56.04
X140.96Y-116.36
X141.05Y-98.85
X141.14Y-74.03
X141.14Y-124.54
X141.19Y-70.29
X141.2Y-142.33
X141.26Y-119.26
X141.47Y-112.14
X141.59Y-85.13
X141.59Y-87.38
X141.64Y-83.02
X141.79Y-100.98
X141.85Y-78.47
X142.0Y-159.21
X142.1Y-118.14
X142.21Y-139.03
X142.26Y-59.07
X142.5Y-74.09
X142.6Y-114.84
X142.6Y-127.27
X142.66Y-161.04
X142.75Y-44.84
X142.75Y-46.84
X142.75Y-48.84
X142.75Y-50.84
X142.75Y-52.84
X142.75Y-54.84
X142.75Y-113.38
X142.75Y-140.84
X142.75Y-142.84
X142.75Y-146.84
X142.75Y-148.84
X142.75Y-150.84
X142.75Y-152.84
X142.88Y-60.12
X142.88Y-68.76
X142.95Y-72.19
X142.99Y-104.26
X143.01Y-133.44
X143.01Y-135.34
X143.04Y-120.89
X143.1Y-118.98
X143.14Y-156.06
X143.15Y-111.84
X143.22Y-116.54
X143.41Y-143.91
X143.61Y-79.11
X143.73Y-157.69
X143.92Y-153.98
X144.12Y-59.34
X144.13Y-85.9
X144.19Y-83.17
X144.26Y-88.94
X144.29Y-127.37
X144.31Y-74.34
X144.59Y-95.0
X144.74Y-135.4
X144.75Y-44.84
X144.75Y-46.84
X144.75Y-48.84
X144.75Y-50.84
X144.75Y-52.84
X144.75Y-54.84
X144.75Y-142.84
X144.75Y-146.84
X144.75Y-148.84
X144.75Y-150.84
X144.75Y-152.84
X144.83Y-133.29
X144.83Y-137.4
X144.86Y-141.36
X144.91Y-70.27
X144.92Y-63.61
X145.0Y-72.02
X145.15Y-92.94
X145.16Y-76.42
X145.22Y-81.41
X145.24Y-64.7
X145.28Y-87.66
X145.37Y-96.3
X145.38Y-84.49
X145.4Y-106.32
X145.44Y-156.03
X145.45Y-109.24
X145.52Y-123.15
X145.55Y-111.94
X145.56Y-115.9
X145.56Y-119.89
X145.97Y-77.63
X146.23Y-94.98
X146.25Y-63.95
X146.55Y-59.64
X146.72Y-158.28
X146.74Y-160.98
X146.75Y-44.84
X146.75Y-46.84
X146.75Y-48.84
X146.75Y-50.84
X146.75Y-52.84
X146.75Y-54.84
X146.75Y-104.84
X146.75Y-106.84
X146.75Y-108.84
X146.75Y-110.84
X146.75Y-112.84
X146.75Y-114.84
X146.75Y-116.84
X146.75Y-118.84
X146.75Y-120.84
X146.75Y-122.84
X146.75Y-124.84
X146.75Y-148.84
X146.75Y-150.84
X146.75Y-152.84
X146.85Y-92.74
X146.93Y-72.38
X146.95Y-66.44
X147.03Y-78.78
X147.09Y-76.53
X147.16Y-74.16
X147.27Y-144.62
X147.29Y-135.05
X147.3Y-138.46
X147.45Y-90.74
X147.48Y-132.33
X147.71Y-97.3
X147.75Y-56.44
X147.84Y-154.03
X147.87Y-156.0
X148.05Y-101.14
X148.25Y-103.34
X148.35Y-60.04
X148.55Y-67.44
X148.71Y-95.89
X148.75Y-44.84
X148.75Y-46.84
X148.75Y-48.84
X148.75Y-50.84
X148.75Y-52.84
X148.75Y-65.24
X148.75Y-106.84
X148.75Y-108.84
X148.75Y-110.84
X148.75Y-112.84
X148.75Y-114.84
X148.75Y-116.84
X148.75Y-118.84
X148.75Y-120.84
X148.75Y-122.84
X148.75Y-124.84
X148.75Y-133.8
X148.75Y-148.84
X148.75Y-150.84
X148.75Y-152.84
X148.79Y-132.12
X148.82Y-127.52
X148.82Y-136.67
X148.86Y-143.98
X148.99Y-140.36
X149.01Y-146.28
X149.66Y-157.95
X149.75Y-63.04
X149.75Y-151.84
X149.95Y-100.34
X150.05Y-104.24
X150.15Y-56.44
X150.32Y-69.89
X150.36Y-97.38
X150.44Y-128.33
X150.55Y-59.04
X150.55Y-67.44
X150.68Y-159.91
X150.75Y-44.84
X150.75Y-46.84
X150.75Y-48.84
X150.75Y-50.84
X150.75Y-52.84
X150.75Y-54.84
X150.75Y-65.24
X150.75Y-118.84
X150.75Y-120.84
X150.75Y-122.84
X150.75Y-124.84
X150.75Y-148.84
X150.75Y-150.84
X150.75Y-152.84
X150.75Y-162.84
X150.95Y-105.84
X151.01Y-156.13
X151.02Y-81.31
X151.02Y-82.28
X151.09Y-71.68
X151.15Y-114.94
X151.18Y-79.06
X151.22Y-74.04
X151.27Y-76.62
X151.28Y-85.19
X151.29Y-158.18
X151.31Y-86.51
X151.35Y-108.74
X151.35Y-111.84
X151.61Y-153.91
X151.79Y-95.85
X151.83Y-129.45
X151.94Y-77.85
X151.97Y-133.73
X152.04Y-135.94
X152.11Y-81.25
X152.15Y-100.64
X152.15Y-144.99
X152.25Y-103.54
X152.42Y-142.51
X152.55Y-67.44
X152.56Y-139.99
X152.6Y-97.32
X152.65Y-107.64
X152.75Y-44.84
X152.75Y-46.84
X152.75Y-48.84
X152.75Y-50.84
X152.75Y-52.84
X152.75Y-54.84
X152.75Y-58.84
X152.75Y-61.04
X152.75Y-62.84
X152.75Y-65.24
X152.75Y-110.84
X152.75Y-112.84
X152.75Y-114.84
X152.75Y-118.84
X152.75Y-120.84
X152.75Y-122.84
X152.75Y-124.84
X152.75Y-130.84
X152.75Y-148.84
X152.75Y-150.84
X152.75Y-152.84
X152.75Y-160.84
X152.75Y-162.84
X152.81Y-137.3
X152.83Y-70.01
X152.83Y-71.65
X152.84Y-76.73
X152.91Y-83.49
X152.95Y-85.8
X153.02Y-128.03
X153.05Y-154.65
X153.11Y-73.82
X153.12Y-78.94
X153.4Y-135.16
X153.5Y-159.19
X153.68Y-87.57
X154.26Y-160.58
X154.42Y-84.74
X154.55Y-67.44
X154.62Y-74.01
X154.72Y-71.74
X154.75Y-44.84
X154.75Y-52.84
X154.75Y-54.84
X154.75Y-60.84
X154.75Y-62.84
X154.75Y-65.24
X154.75Y-110.84
X154.75Y-112.84
X154.75Y-114.84
X154.75Y-118.84
X154.75Y-120.84
X154.75Y-122.84
X154.75Y-124.84
X154.75Y-128.84
X154.75Y-130.84
X154.75Y-136.84
X154.75Y-148.84
X154.75Y-150.84
X154.75Y-152.84
X154.75Y-154.84
X154.75Y-162.84
X154.9Y-70.04
X154.93Y-81.76
X154.95Y-59.04
X154.96Y-156.45
X155.08Y-157.9
X155.2Y-89.37
X155.225Y-116.735
X155.26Y-77.53
X155.35Y-105.14
X155.5Y-133.69
X155.54Y-85.9
X155.68Y-127.7
X155.75Y-137.84
X155.75Y-139.84
X155.75Y-141.84
X155.75Y-143.84
X155.75Y-145.84
X156.15Y-96.44
X156.35Y-108.64
X156.75Y-44.84
X156.75Y-46.84
X156.75Y-48.84
X156.75Y-50.84
X156.75Y-52.84
X156.75Y-54.84
X156.75Y-56.84
X156.75Y-58.84
X156.75Y-60.84
X156.75Y-62.84
X156.75Y-64.84
X156.75Y-66.84
X156.75Y-88.84
X156.75Y-90.84
X156.75Y-98.84
X156.75Y-100.84
X156.75Y-110.84
X156.75Y-112.84
X156.75Y-114.84
X156.75Y-116.84
X156.75Y-118.84
X156.75Y-120.84
X156.75Y-122.84
X156.75Y-124.84
X156.75Y-128.84
X156.75Y-130.84
X156.75Y-134.84
X156.75Y-148.84
X156.75Y-150.84
X156.75Y-152.84
X156.75Y-154.84
X156.75Y-156.84
X156.75Y-162.84
X157.2Y-139.84
X157.25Y-126.47
X157.25Y-132.39
X157.29Y-145.06
X157.37Y-142.45
X157.38Y-87.25
X157.6Y-157.96
X157.95Y-95.44
X157.97Y-77.68
X158.75Y-44.84
X158.75Y-46.84
X158.75Y-48.84
X158.75Y-50.84
X158.75Y-52.84
X158.75Y-54.84
X158.75Y-56.84
X158.75Y-58.84
X158.75Y-60.84
X158.75Y-62.84
X158.75Y-64.84
X158.75Y-66.84
X158.75Y-68.84
X158.75Y-70.84
X158.75Y-72.84
X158.75Y-74.84
X158.75Y-82.84
X158.75Y-84.84
X158.75Y-86.84
X158.75Y-88.84
X158.75Y-90.84
X158.75Y-92.84
X158.75Y-96.84
X158.75Y-98.84
X158.75Y-100.84
X158.75Y-102.84
X158.75Y-104.84
X158.75Y-106.84
X158.75Y-108.84
X158.75Y-110.84
X158.75Y-112.84
X158.75Y-114.84
X158.75Y-118.84
X158.75Y-120.84
X158.75Y-122.84
X158.75Y-124.84
X158.75Y-126.84
X158.75Y-128.84
X158.75Y-130.84
X158.75Y-132.84
X158.75Y-134.84
X158.75Y-136.84
X158.75Y-148.84
X158.75Y-150.84
X158.75Y-152.84
X158.75Y-154.84
X158.75Y-156.84
X158.75Y-158.84
X158.75Y-160.84
X158.75Y-162.84
X158.81Y-80.04
X159.32Y-76.68
X160.75Y-44.84
X160.75Y-46.84
X160.75Y-48.84
X160.75Y-50.84
X160.75Y-52.84
X160.75Y-54.84
X160.75Y-56.84
X160.75Y-58.84
X160.75Y-60.84
X160.75Y-62.84
X160.75Y-64.84
X160.75Y-66.84
X160.75Y-68.84
X160.75Y-70.84
X160.75Y-72.84
X160.75Y-74.84
X160.75Y-76.84
X160.75Y-80.84
X160.75Y-82.84
X160.75Y-84.84
X160.75Y-86.84
X160.75Y-88.84
X160.75Y-90.84
X160.75Y-98.84
X160.75Y-100.84
X160.75Y-102.84
X160.75Y-104.84
X160.75Y-106.84
X160.75Y-110.84
X160.75Y-112.84
X160.75Y-114.84
X160.75Y-118.84
X160.75Y-120.84
X160.75Y-122.84
X160.75Y-124.84
X160.75Y-126.84
X160.75Y-128.84
X160.75Y-130.84
X160.75Y-132.84
X160.75Y-134.84
X160.75Y-136.84
X160.75Y-138.84
X160.75Y-140.84
X160.75Y-142.84
X160.75Y-144.84
X160.75Y-146.84
X160.75Y-148.84
X160.75Y-150.84
X160.75Y-152.84
X160.75Y-154.84
X160.75Y-156.84
X160.75Y-158.84
X160.75Y-160.84
X160.75Y-162.84
X160.85Y-95.04
X161.85Y-101.84
X161.85Y-111.74
X161.95Y-99.54
X161.95Y-105.74
X161.95Y-113.74
X162.75Y-44.84
X162.75Y-46.84
X162.75Y-48.84
X162.75Y-50.84
X162.75Y-52.84
X162.75Y-54.84
X162.75Y-56.84
X162.75Y-58.84
X162.75Y-60.84
X162.75Y-62.84
X162.75Y-64.84
X162.75Y-66.84
X162.75Y-68.84
X162.75Y-70.84
X162.75Y-72.84
X162.75Y-74.84
X162.75Y-76.84
X162.75Y-78.84
X162.75Y-80.84
X162.75Y-82.84
X162.75Y-84.84
X162.75Y-86.84
X162.75Y-88.84
X162.75Y-90.84
X162.75Y-96.84
X162.75Y-118.84
X162.75Y-120.84
X162.75Y-122.84
X162.75Y-124.84
X162.75Y-126.84
X162.75Y-128.84
X162.75Y-130.84
X162.75Y-132.84
X162.75Y-134.84
X162.75Y-136.84
X162.75Y-138.84
X162.75Y-140.84
X162.75Y-142.84
X162.75Y-144.84
X162.75Y-146.84
X162.75Y-148.84
X162.75Y-150.84
X162.75Y-152.84
X162.75Y-154.84
X162.75Y-156.84
X162.75Y-158.84
X162.75Y-160.84
X162.75Y-162.84
X164.75Y-44.84
X164.75Y-48.84
X164.75Y-50.84
X164.75Y-52.84
X164.75Y-54.84
X164.75Y-56.84
X164.75Y-58.84
X164.75Y-60.84
X164.75Y-62.84
X164.75Y-64.84
X164.75Y-66.84
X164.75Y-68.84
X164.75Y-70.84
X164.75Y-72.84
X164.75Y-74.84
X164.75Y-76.84
X164.75Y-78.84
X164.75Y-80.84
X164.75Y-82.84
X164.75Y-84.84
X164.75Y-86.84
X164.75Y-88.84
X164.75Y-90.84
X164.75Y-96.84
X164.75Y-98.84
X164.75Y-100.84
X164.75Y-102.84
X164.75Y-104.84
X164.75Y-106.84
X164.75Y-110.84
X164.75Y-112.84
X164.75Y-114.84
X164.75Y-118.84
X164.75Y-120.84
X164.75Y-122.84
X164.75Y-124.84
X164.75Y-126.84
X164.75Y-128.84
X164.75Y-130.84
X164.75Y-132.84
X164.75Y-134.84
X164.75Y-136.84
X164.75Y-138.84
X164.75Y-140.84
X164.75Y-142.84
X164.75Y-144.84
X164.75Y-146.84
X164.75Y-148.84
X164.75Y-150.84
X164.75Y-152.84
X164.75Y-154.84
X164.75Y-156.84
X164.75Y-158.84
X164.75Y-162.84
X166.75Y-44.84
X166.75Y-46.84
X166.75Y-48.84
X166.75Y-50.84
X166.75Y-52.84
X166.75Y-54.84
X166.75Y-56.84
X166.75Y-58.84
X166.75Y-60.84
X166.75Y-62.84
X166.75Y-64.84
X166.75Y-66.84
X166.75Y-68.84
X166.75Y-70.84
X166.75Y-72.84
X166.75Y-74.84
X166.75Y-76.84
X166.75Y-78.84
X166.75Y-80.84
X166.75Y-82.84
X166.75Y-84.84
X166.75Y-86.84
X166.75Y-88.84
X166.75Y-90.84
X166.75Y-92.84
X166.75Y-94.84
X166.75Y-96.84
X166.75Y-98.84
X166.75Y-100.84
X166.75Y-102.84
X166.75Y-104.84
X166.75Y-106.84
X166.75Y-108.84
X166.75Y-110.84
X166.75Y-112.84
X166.75Y-114.84
X166.75Y-116.84
X166.75Y-118.84
X166.75Y-120.84
X166.75Y-122.84
X166.75Y-124.84
X166.75Y-126.84
X166.75Y-128.84
X166.75Y-130.84
X166.75Y-132.84
X166.75Y-134.84
X166.75Y-136.84
X166.75Y-140.84
X166.75Y-142.84
X166.75Y-144.84
X166.75Y-146.84
X166.75Y-148.84
X166.75Y-150.84
X166.75Y-152.84
X166.75Y-154.84
X166.75Y-156.84
X166.75Y-158.84
X166.75Y-160.84
X166.75Y-162.84
X166.763Y-138.713
T3
X62.25Y-116.502
X62.25Y-144.43
X62.33Y-130.44
X63.13Y-102.54
X63.4Y-144.62
X63.41Y-130.6
X63.45Y-116.64
X64.2Y-102.54
X64.45Y-130.59
X64.45Y-144.61
X64.49Y-116.64
X65.24Y-102.54
X73.017Y-99.807
X74.625Y-104.745
X75.312Y-80.578
X76.0Y-84.79
X76.25Y-81.94
X80.359Y-76.349
X80.869Y-77.271
X85.4Y-101.89
X86.639Y-72.451
X87.761Y-72.451
X92.3Y-140.69
X93.587Y-140.69
X101.3Y-62.866
X101.73Y-74.289
X103.876Y-64.74
X105.087Y-62.84
X105.25Y-97.477
X124.47Y-139.14
X140.363Y-104.129
X141.151Y-103.341
X145.963Y-145.24
T4
X83.71Y-110.84
X83.71Y-114.84
X83.71Y-118.84
X86.25Y-110.84
X86.25Y-114.84
X86.25Y-118.84
X88.79Y-110.84
X88.79Y-114.84
X88.79Y-118.84
X111.75Y-144.3
X111.75Y-146.84
X111.75Y-149.38
X140.86Y-129.49
X143.4Y-129.49
X145.94Y-129.49
X159.597Y-116.64
X162.137Y-116.64
X164.677Y-116.64
T5
X77.71Y-79.233
X77.71Y-85.118
X80.25Y-79.233
X80.25Y-85.118
X82.79Y-79.233
X82.79Y-85.118
X110.44Y-115.03
X110.44Y-122.65
X112.98Y-115.03
X112.98Y-122.65
X115.52Y-115.03
X115.52Y-122.65
X118.06Y-115.03
X118.06Y-122.65
X138.925Y-47.47
X138.925Y-50.01
X138.925Y-57.63
X141.465Y-57.63
X144.005Y-57.63
X146.545Y-57.63
X149.085Y-57.63
X151.625Y-57.63
X153.96Y-93.655
X153.96Y-96.195
X153.96Y-98.735
X153.96Y-101.275
X153.96Y-103.815
X153.96Y-106.355
X153.96Y-108.895
X154.165Y-47.47
X154.165Y-50.01
X154.165Y-57.63
X161.58Y-93.655
X161.58Y-108.895
X164.12Y-93.655
X164.12Y-108.895
T6
X71.45Y-154.02
X71.45Y-161.64
X73.99Y-154.02
X73.99Y-161.64
X76.53Y-154.02
X76.53Y-161.64
X79.07Y-154.02
X79.07Y-161.64
X89.233Y-143.95
X89.233Y-146.49
X89.233Y-149.03
X89.233Y-151.57
X89.233Y-154.11
X89.233Y-156.65
X89.233Y-159.19
X89.233Y-161.73
X107.267Y-143.95
X107.267Y-146.49
X107.267Y-149.03
X107.267Y-151.57
X107.267Y-154.11
X107.267Y-156.65
X107.267Y-159.19
X107.267Y-161.73
X112.5Y-68.34
X117.5Y-68.34
X151.0Y-138.64
X151.0Y-141.18
X151.0Y-143.72
X151.0Y-146.26
X158.62Y-138.64
X158.62Y-141.18
X158.62Y-143.72
X158.62Y-146.26
T7
X102.85Y-46.432
X102.85Y-48.932
X102.85Y-51.432
X106.15Y-46.432
X106.15Y-48.932
X106.15Y-51.432
T8
X71.75Y-47.515
X75.995Y-96.09
X78.535Y-96.09
X82.75Y-47.515
X116.67Y-55.497
X116.67Y-58.037
X119.21Y-55.497
X119.21Y-58.037
X121.75Y-55.497
X121.75Y-58.037
X122.195Y-76.84
X122.195Y-81.34
X123.47Y-146.14
X124.29Y-55.497
X124.29Y-58.037
X124.735Y-76.84
X124.735Y-81.34
X126.83Y-55.497
X126.83Y-58.037
X127.275Y-76.84
X127.275Y-81.34
X131.07Y-146.14
X138.195Y-76.84
X138.195Y-81.34
X140.735Y-76.84
X140.735Y-81.34
X143.275Y-76.84
X143.275Y-81.34
X156.65Y-68.75
X156.65Y-71.29
X156.65Y-73.83
X156.65Y-76.37
X156.65Y-78.91
X156.65Y-81.45
X156.65Y-83.99
T9
X77.25Y-109.76
X77.25Y-112.3
X77.25Y-114.84
X77.25Y-117.38
X77.25Y-119.92
T10
X106.15Y-70.14
X107.35Y-84.84
X137.25Y-92.84
T11
X98.2Y-120.09
X98.85Y-90.96
X98.85Y-93.006
X100.376Y-120.09
X116.674Y-84.94
X118.028Y-51.24
X118.85Y-84.94
X122.35Y-51.24
X127.65Y-51.24
X132.55Y-51.24
T12
X74.75Y-57.515
X79.75Y-57.515
T13
G00X142.024Y-109.481
M15
G01X140.824Y-109.481
M16
G05
T0
M30
