M48
; DRILL file {KiCad 7.0.11} date Wed Nov 13 01:21:52 2024
; FORMAT={-:-/ absolute / inch / decimal}
; #@! TF.CreationDate,2024-11-13T01:21:52+09:00
; #@! TF.GenerationSoftware,Kicad,Pcbnew,7.0.11
; #@! TF.FileFunction,Plated,1,4,PTH
FMAT,2
INCH
; #@! TA.AperFunction,Plated,PTH,ViaDrill
T1C0.0118
; #@! TA.AperFunction,Plated,PTH,ComponentDrill
T2C0.0256
; #@! TA.AperFunction,Plated,PTH,ComponentDrill
T3C0.0390
; #@! TA.AperFunction,Plated,PTH,ComponentDrill
T4C0.0512
%
G90
G05
T1
X0.0295Y-0.5685
X0.0314Y-0.9856
X0.0315Y-0.2402
X0.0327Y-0.7991
X0.0337Y-0.7171
X0.0349Y-1.0638
X0.0394Y-0.1654
X0.0411Y-1.2109
X0.0442Y-0.2835
X0.0506Y-0.4785
X0.0594Y-0.6049
X0.063Y-0.0551
X0.0652Y-1.3174
X0.0661Y-0.5189
X0.0661Y-0.3583
X0.0669Y-0.9409
X0.0787Y-0.9606
X0.0794Y-0.7184
X0.0802Y-0.8001
X0.0906Y-0.9409
X0.0906Y-1.1384
X0.0945Y-0.2362
X0.1015Y-1.0633
X0.1024Y-0.189
X0.1034Y-0.9866
X0.1259Y-0.3601
X0.1517Y-0.2072
X0.1518Y-0.4039
X0.1536Y-0.3239
X0.1575Y-0.0394
X0.1623Y-0.4727
X0.1623Y-0.5367
X0.1623Y-0.5915
X0.1623Y-0.7194
X0.1623Y-0.773
X0.1625Y-1.1934
X0.1688Y-1.1274
X0.173Y-1.3393
X0.1781Y-0.2416
X0.1828Y-0.1529
X0.1869Y-0.3688
X0.189Y-0.0787
X0.1893Y-0.321
X0.1932Y-0.9347
X0.2032Y-0.8779
X0.2042Y-1.2729
X0.2059Y-0.8182
X0.2074Y-0.2145
X0.2277Y-0.3531
X0.2278Y-0.199
X0.2283Y-0.0315
X0.2335Y-0.5916
X0.235Y-0.5364
X0.241Y-1.0164
X0.2506Y-1.3423
X0.2567Y-1.2165
X0.2584Y-0.5784
X0.259Y-0.303
X0.2598Y-0.6048
X0.2667Y-0.6485
X0.2671Y-0.0679
X0.273Y-0.4191
X0.2796Y-1.0985
X0.2922Y-0.436
X0.2927Y-0.3351
X0.2987Y-0.1511
X0.3055Y-0.069
X0.3071Y-1.0512
X0.3071Y-1.0748
X0.3082Y-1.0182
X0.315Y-0.0965
X0.3159Y-1.2465
X0.3211Y-1.3412
X0.3216Y-0.9
X0.3223Y-0.8485
X0.3268Y-1.063
X0.327Y-0.1341
X0.3289Y-0.9566
X0.3297Y-0.2454
X0.3313Y-0.7732
X0.332Y-0.7078
X0.3354Y-0.1095
X0.3369Y-0.4769
X0.3429Y-0.3752
X0.3444Y-0.2245
X0.3468Y-0.5805
X0.3478Y-0.0463
X0.3572Y-1.1743
X0.3595Y-0.7348
X0.3595Y-0.7594
X0.3675Y-0.8931
X0.3708Y-0.1856
X0.3716Y-0.1424
X0.3737Y-0.4787
X0.3737Y-1.1266
X0.3782Y-0.5503
X0.3841Y-0.7594
X0.3894Y-0.0333
X0.3911Y-0.3974
X0.3937Y-0.815
X0.3941Y-0.3526
X0.3946Y-0.2961
X0.3976Y-0.2673
X0.3983Y-0.2405
X0.404Y-0.2059
X0.4089Y-0.136
X0.4091Y-0.0874
X0.4128Y-0.1614
X0.4183Y-0.405
X0.4211Y-0.2271
X0.4219Y-1.0266
X0.4224Y-0.8227
X0.4229Y-0.9181
X0.4331Y-0.1457
X0.4366Y-0.0575
X0.44Y-0.2451
X0.4456Y-0.1212
X0.4533Y-0.2945
X0.4594Y-1.2616
X0.4611Y-1.3462
X0.4642Y-0.0298
X0.4725Y-0.917
X0.4752Y-0.9749
X0.4757Y-0.1505
X0.4841Y-0.2998
X0.4948Y-0.4275
X0.4953Y-0.1732
X0.4961Y-0.5272
X0.5011Y-1.2367
X0.5013Y-0.5709
X0.5044Y-0.3197
X0.5096Y-0.5939
X0.5157Y-1.215
X0.5158Y-1.1315
X0.5217Y-0.0291
X0.5234Y-0.9173
X0.5256Y-0.8057
X0.5258Y-0.7585
X0.526Y-0.3392
X0.5401Y-1.125
X0.5411Y-0.548
X0.5416Y-0.5978
X0.5459Y-0.6285
X0.5494Y-0.3592
X0.5537Y-1.0428
X0.5555Y-0.0366
X0.5605Y-0.5667
X0.5608Y-0.4684
X0.5621Y-1.2379
X0.5649Y-1.13
X0.5651Y-0.966
X0.5696Y-1.0225
X0.5716Y-1.0576
X0.5731Y-0.6493
X0.5738Y-0.3592
X0.5758Y-0.9976
X0.576Y-1.0869
X0.5774Y-0.5895
X0.5787Y-0.809
X0.5827Y-0.6144
X0.5843Y-0.2559
X0.5843Y-1.1123
X0.5893Y-0.469
X0.6071Y-1.3482
X0.6094Y-0.0906
X0.6106Y-0.5541
X0.6136Y-0.6246
X0.6136Y-0.4028
X0.6146Y-0.7169
X0.6148Y-0.6684
X0.6156Y-0.4677
X0.6257Y-0.8854
X0.6381Y-0.7608
X0.6447Y-0.2688
X0.6477Y-1.0951
X0.6502Y-1.1226
X0.6622Y-0.1441
X0.6636Y-0.4961
X0.6644Y-0.4673
X0.6647Y-0.4028
X0.6699Y-0.941
X0.6716Y-0.7173
X0.672Y-0.2413
X0.6767Y-0.6642
X0.689Y-0.5696
X0.6934Y-1.2349
X0.6944Y-0.4484
X0.6956Y-0.0962
X0.7047Y-0.2677
X0.7071Y-0.5272
X0.7087Y-0.0394
X0.7106Y-0.1917
X0.7152Y-0.6004
X0.7161Y-0.994
X0.7191Y-0.4712
X0.7212Y-0.8513
X0.7214Y-0.7165
X0.7228Y-0.4028
X0.7245Y-0.3592
X0.744Y-0.1667
X0.7441Y-0.937
X0.7441Y-0.9764
X0.7458Y-0.6666
X0.748Y-0.2362
X0.7501Y-1.3443
X0.7523Y-0.7392
X0.7538Y-0.8803
X0.7603Y-1.0379
X0.7638Y-0.9567
X0.7638Y-0.9961
X0.7717Y-0.1102
X0.7741Y-0.6948
X0.7835Y-0.937
X0.7835Y-0.9764
X0.7835Y-1.0157
X0.7865Y-0.8475
X0.791Y-0.7825
X0.7934Y-0.5951
X0.7937Y-0.3592
X0.7937Y-0.8187
X0.7938Y-0.7167
X0.8024Y-0.5476
X0.8031Y-0.9567
X0.8031Y-0.9961
X0.8031Y-1.0354
X0.809Y-0.4028
X0.8108Y-1.2339
X0.8228Y-0.937
X0.8228Y-0.9764
X0.8228Y-1.0157
X0.8228Y-1.0551
X0.8251Y-0.5272
X0.8281Y-0.663
X0.8299Y-0.8046
X0.8346Y-0.1575
X0.8415Y-0.5955
X0.8425Y-0.9567
X0.8425Y-0.9961
X0.8425Y-1.0354
X0.8468Y-0.8818
X0.8553Y-0.8136
X0.8554Y-1.1279
X0.8622Y-0.937
X0.8622Y-0.9764
X0.8622Y-1.0157
X0.8622Y-1.0551
X0.8661Y-0.0394
X0.8671Y-0.4205
X0.8691Y-0.3772
X0.8707Y-0.464
X0.8824Y-0.5242
X0.8947Y-0.3625
X0.8963Y-0.593
X0.9004Y-0.8136
X0.9016Y-1.0551
X0.9035Y-1.3436
X0.9052Y-0.7608
X0.9055Y-0.0866
X0.9055Y-0.1339
X0.9068Y-1.2365
X0.9078Y-0.872
X0.9137Y-0.8976
X0.9311Y-1.1884
X0.938Y-0.7608
X0.9528Y-0.1969
X0.9594Y-0.7165
X0.9669Y-1.0261
X0.9675Y-0.4432
X0.9685Y-0.3622
X0.9688Y-0.7608
X0.9692Y-1.2825
X0.9705Y-0.9469
X0.9705Y-0.9961
X0.9705Y-1.0551
X0.9843Y-1.189
X0.9885Y-0.7175
X0.9975Y-0.7608
X1.0063Y-1.0945
X1.0157Y-0.2362
X1.0179Y-0.7173
X1.0222Y-0.4402
X1.0236Y-0.5319
X1.0236Y-0.0394
X1.0236Y-0.4051
X1.0236Y-0.5918
X1.0236Y-0.3778
X1.0287Y-0.7608
X1.0295Y-1.0551
X1.0353Y-1.1264
X1.0389Y-0.4713
X1.0462Y-1.1565
X1.0488Y-0.3189
X1.0543Y-0.7608
X1.0547Y-1.2848
X1.0576Y-1.2295
X1.0591Y-0.6654
X1.0689Y-0.717
X1.0748Y-1.122
X1.0762Y-1.3442
X1.0788Y-0.8624
X1.081Y-0.9087
X1.0827Y-1.0591
X1.0945Y-0.8858
X1.104Y-0.3882
X1.1102Y-0.8624
X1.1118Y-0.9093
X1.122Y-1.0748
X1.122Y-1.122
X1.126Y-0.1339
X1.126Y-0.8858
X1.1283Y-1.2314
X1.1352Y-1.1787
X1.1425Y-0.9093
X1.1439Y-1.0335
X1.1491Y-0.382
X1.1535Y-0.9528
X1.1613Y-0.8278
X1.1645Y-0.2106
X1.1693Y-1.0748
X1.1693Y-1.122
X1.1707Y-0.5963
X1.1779Y-0.0912
X1.1804Y-1.343
X1.1811Y-0.0394
X1.1829Y-1.2598
X1.1928Y-0.5319
X1.1969Y-0.2047
X1.1973Y-0.6684
X1.2018Y-0.7165
X1.2051Y-0.7608
X1.2165Y-1.0315
X1.2165Y-1.0748
X1.2165Y-1.122
X1.2371Y-1.182
X1.246Y-0.937
X1.248Y-1.1102
X1.2503Y-0.994
X1.2598Y-1.0315
X1.2598Y-1.0748
X1.2867Y-1.0233
X1.2882Y-1.0787
X1.2886Y-0.9863
X1.3071Y-0.1969
X1.3091Y-1.3204
X1.31Y-0.9398
X1.3129Y-1.0495
X1.3151Y-0.556
X1.3228Y-0.063
X1.3399Y-1.2017
X1.3452Y-0.5101
X1.3453Y-0.4569
X1.3458Y-1.0989
X1.3465Y-0.2362
X1.3485Y-0.568
T2
X0.2413Y-0.6768
X0.2413Y-0.7268
X0.2413Y-0.7768
X0.2413Y-0.8268
X0.2413Y-0.8768
X0.2413Y-0.9268
X0.2413Y-0.9768
X0.2913Y-0.6768
X0.2913Y-0.7268
X0.2913Y-0.7768
X0.2913Y-0.8268
X0.2913Y-0.8768
X0.2913Y-0.9268
X0.2913Y-0.9768
X1.2352Y-0.2825
X1.2352Y-0.3325
X1.2352Y-0.3825
X1.2352Y-0.4325
X1.2352Y-0.4825
X1.2352Y-0.5325
X1.2352Y-0.5825
X1.2352Y-0.6325
X1.2352Y-0.6825
X1.2352Y-0.7325
X1.2352Y-0.7825
X1.2352Y-0.8325
X1.2352Y-0.8825
X1.2852Y-0.2825
X1.2852Y-0.3325
X1.2852Y-0.3825
X1.2852Y-0.4325
X1.2852Y-0.4825
X1.2852Y-0.5325
X1.2852Y-0.5825
X1.2852Y-0.6325
X1.2852Y-0.6825
X1.2852Y-0.7325
X1.2852Y-0.7825
X1.2852Y-0.8325
X1.2852Y-0.8825
T3
X0.8593Y-0.1107
X1.0364Y-0.1107
T4
X0.81Y-0.2088
X1.086Y-0.2088
M30
