%TF.GenerationSoftware,KiCad,Pcbnew,7.0.11*%
%TF.CreationDate,2024-11-13T01:21:52+09:00*%
%TF.ProjectId,Control,436f6e74-726f-46c2-9e6b-696361645f70,rev?*%
%TF.SameCoordinates,Original*%
%TF.FileFunction,Legend,Bot*%
%TF.FilePolarity,Positive*%
%FSLAX46Y46*%
G04 Gerber Fmt 4.6, Leading zero omitted, Abs format (unit mm)*
G04 Created by KiCad (PCBNEW 7.0.11) date 2024-11-13 01:21:52*
%MOMM*%
%LPD*%
G01*
G04 APERTURE LIST*
G04 Aperture macros list*
%AMRoundRect*
0 Rectangle with rounded corners*
0 $1 Rounding radius*
0 $2 $3 $4 $5 $6 $7 $8 $9 X,Y pos of 4 corners*
0 Add a 4 corners polygon primitive as box body*
4,1,4,$2,$3,$4,$5,$6,$7,$8,$9,$2,$3,0*
0 Add four circle primitives for the rounded corners*
1,1,$1+$1,$2,$3*
1,1,$1+$1,$4,$5*
1,1,$1+$1,$6,$7*
1,1,$1+$1,$8,$9*
0 Add four rect primitives between the rounded corners*
20,1,$1+$1,$2,$3,$4,$5,0*
20,1,$1+$1,$4,$5,$6,$7,0*
20,1,$1+$1,$6,$7,$8,$9,0*
20,1,$1+$1,$8,$9,$2,$3,0*%
%AMRotRect*
0 Rectangle, with rotation*
0 The origin of the aperture is its center*
0 $1 length*
0 $2 width*
0 $3 Rotation angle, in degrees counterclockwise*
0 Add horizontal line*
21,1,$1,$2,0,0,$3*%
%AMFreePoly0*
4,1,6,1.000000,0.000000,0.500000,-0.750000,-0.500000,-0.750000,-0.500000,0.750000,0.500000,0.750000,1.000000,0.000000,1.000000,0.000000,$1*%
%AMFreePoly1*
4,1,6,0.500000,-0.750000,-0.650000,-0.750000,-0.150000,0.000000,-0.650000,0.750000,0.500000,0.750000,0.500000,-0.750000,0.500000,-0.750000,$1*%
G04 Aperture macros list end*
%ADD10C,0.508000*%
%ADD11C,0.120000*%
%ADD12R,1.000000X1.000000*%
%ADD13C,1.000000*%
%ADD14C,1.750000*%
%ADD15C,2.100000*%
%ADD16O,1.000000X1.000000*%
%ADD17RoundRect,0.135000X-0.135000X-0.185000X0.135000X-0.185000X0.135000X0.185000X-0.135000X0.185000X0*%
%ADD18RoundRect,0.200000X0.200000X0.275000X-0.200000X0.275000X-0.200000X-0.275000X0.200000X-0.275000X0*%
%ADD19RoundRect,0.100000X-0.100000X0.637500X-0.100000X-0.637500X0.100000X-0.637500X0.100000X0.637500X0*%
%ADD20RoundRect,0.150000X-0.587500X-0.150000X0.587500X-0.150000X0.587500X0.150000X-0.587500X0.150000X0*%
%ADD21RoundRect,0.135000X-0.185000X0.135000X-0.185000X-0.135000X0.185000X-0.135000X0.185000X0.135000X0*%
%ADD22RoundRect,0.200000X-0.200000X-0.275000X0.200000X-0.275000X0.200000X0.275000X-0.200000X0.275000X0*%
%ADD23RoundRect,0.225000X0.017678X-0.335876X0.335876X-0.017678X-0.017678X0.335876X-0.335876X0.017678X0*%
%ADD24RoundRect,0.140000X-0.140000X-0.170000X0.140000X-0.170000X0.140000X0.170000X-0.140000X0.170000X0*%
%ADD25RoundRect,0.135000X0.185000X-0.135000X0.185000X0.135000X-0.185000X0.135000X-0.185000X-0.135000X0*%
%ADD26RoundRect,0.250000X-0.250000X-0.250000X0.250000X-0.250000X0.250000X0.250000X-0.250000X0.250000X0*%
%ADD27FreePoly0,90.000000*%
%ADD28FreePoly1,90.000000*%
%ADD29RoundRect,0.140000X-0.021213X0.219203X-0.219203X0.021213X0.021213X-0.219203X0.219203X-0.021213X0*%
%ADD30RoundRect,0.140000X-0.170000X0.140000X-0.170000X-0.140000X0.170000X-0.140000X0.170000X0.140000X0*%
%ADD31RoundRect,0.075000X0.415425X0.521491X-0.521491X-0.415425X-0.415425X-0.521491X0.521491X0.415425X0*%
%ADD32RoundRect,0.075000X-0.415425X0.521491X-0.521491X0.415425X0.415425X-0.521491X0.521491X-0.415425X0*%
%ADD33RoundRect,0.140000X0.170000X-0.140000X0.170000X0.140000X-0.170000X0.140000X-0.170000X-0.140000X0*%
%ADD34RoundRect,0.237500X-0.287500X-0.237500X0.287500X-0.237500X0.287500X0.237500X-0.287500X0.237500X0*%
%ADD35RoundRect,0.375000X0.625000X0.375000X-0.625000X0.375000X-0.625000X-0.375000X0.625000X-0.375000X0*%
%ADD36RoundRect,0.500000X0.500000X1.400000X-0.500000X1.400000X-0.500000X-1.400000X0.500000X-1.400000X0*%
%ADD37RoundRect,0.250000X-0.325000X-0.650000X0.325000X-0.650000X0.325000X0.650000X-0.325000X0.650000X0*%
%ADD38RoundRect,0.225000X0.225000X0.250000X-0.225000X0.250000X-0.225000X-0.250000X0.225000X-0.250000X0*%
%ADD39RoundRect,0.135000X0.135000X0.185000X-0.135000X0.185000X-0.135000X-0.185000X0.135000X-0.185000X0*%
%ADD40RoundRect,0.140000X0.140000X0.170000X-0.140000X0.170000X-0.140000X-0.170000X0.140000X-0.170000X0*%
%ADD41RoundRect,0.250000X-0.250000X-0.475000X0.250000X-0.475000X0.250000X0.475000X-0.250000X0.475000X0*%
%ADD42RoundRect,0.250000X0.475000X-0.250000X0.475000X0.250000X-0.475000X0.250000X-0.475000X-0.250000X0*%
%ADD43RoundRect,0.225000X-0.225000X-0.250000X0.225000X-0.250000X0.225000X0.250000X-0.225000X0.250000X0*%
%ADD44RoundRect,0.150000X-0.150000X0.587500X-0.150000X-0.587500X0.150000X-0.587500X0.150000X0.587500X0*%
%ADD45FreePoly0,0.000000*%
%ADD46FreePoly1,0.000000*%
%ADD47RoundRect,0.140000X-0.219203X-0.021213X-0.021213X-0.219203X0.219203X0.021213X0.021213X0.219203X0*%
%ADD48RoundRect,0.135000X0.226274X0.035355X0.035355X0.226274X-0.226274X-0.035355X-0.035355X-0.226274X0*%
%ADD49RoundRect,0.140000X0.219203X0.021213X0.021213X0.219203X-0.219203X-0.021213X-0.021213X-0.219203X0*%
%ADD50RoundRect,0.135000X-0.035355X0.226274X-0.226274X0.035355X0.035355X-0.226274X0.226274X-0.035355X0*%
%ADD51RotRect,1.400000X1.200000X315.000000*%
%ADD52RoundRect,0.150000X-0.150000X0.675000X-0.150000X-0.675000X0.150000X-0.675000X0.150000X0.675000X0*%
%ADD53RoundRect,0.140000X0.021213X-0.219203X0.219203X-0.021213X-0.021213X0.219203X-0.219203X0.021213X0*%
%ADD54RoundRect,0.225000X-0.250000X0.225000X-0.250000X-0.225000X0.250000X-0.225000X0.250000X0.225000X0*%
%ADD55RoundRect,0.237500X0.237500X-0.287500X0.237500X0.287500X-0.237500X0.287500X-0.237500X-0.287500X0*%
%ADD56RoundRect,0.225000X-0.017678X0.335876X-0.335876X0.017678X0.017678X-0.335876X0.335876X-0.017678X0*%
%ADD57RoundRect,0.200000X0.200000X0.600000X-0.200000X0.600000X-0.200000X-0.600000X0.200000X-0.600000X0*%
%ADD58RoundRect,0.250001X0.799999X1.249999X-0.799999X1.249999X-0.799999X-1.249999X0.799999X-1.249999X0*%
G04 APERTURE END LIST*
D10*
%TO.C,J1*%
X7600000Y-26374000D02*
G75*
G03*
X7200000Y-26374000I-200000J0D01*
G01*
X7200000Y-26374000D02*
G75*
G03*
X7600000Y-26374000I200000J0D01*
G01*
D11*
%TO.C,R11*%
X22694640Y-20915901D02*
X23001922Y-20915901D01*
X22694640Y-21675901D02*
X23001922Y-21675901D01*
%TO.C,R17*%
X25837258Y-7922500D02*
X25362742Y-7922500D01*
X25837258Y-6877500D02*
X25362742Y-6877500D01*
%TO.C,U5*%
X20110000Y-17500000D02*
X20110000Y-15300000D01*
X20110000Y-17500000D02*
X20110000Y-19700000D01*
X14890000Y-17500000D02*
X14890000Y-15300000D01*
X14890000Y-17500000D02*
X14890000Y-19700000D01*
X15090000Y-14600000D02*
X14760000Y-14840000D01*
X14760000Y-14360000D01*
X15090000Y-14600000D01*
G36*
X15090000Y-14600000D02*
G01*
X14760000Y-14840000D01*
X14760000Y-14360000D01*
X15090000Y-14600000D01*
G37*
%TO.C,R26*%
X4246359Y-23020000D02*
X4553641Y-23020000D01*
X4246359Y-23780000D02*
X4553641Y-23780000D01*
%TO.C,Q1*%
X22300000Y-16240000D02*
X21650000Y-16240000D01*
X22300000Y-16240000D02*
X22950000Y-16240000D01*
X22300000Y-19360000D02*
X21650000Y-19360000D01*
X22300000Y-19360000D02*
X22950000Y-19360000D01*
X21377500Y-19640000D02*
X20897500Y-19640000D01*
X21137500Y-19310000D01*
X21377500Y-19640000D01*
G36*
X21377500Y-19640000D02*
G01*
X20897500Y-19640000D01*
X21137500Y-19310000D01*
X21377500Y-19640000D01*
G37*
%TO.C,R7*%
X1773586Y-13250400D02*
X1773586Y-13557682D01*
X1013586Y-13250400D02*
X1013586Y-13557682D01*
%TO.C,R19*%
X23862742Y-3877500D02*
X24337258Y-3877500D01*
X23862742Y-4922500D02*
X24337258Y-4922500D01*
%TO.C,R32*%
X17167115Y-12716080D02*
X17474397Y-12716080D01*
X17167115Y-13476080D02*
X17474397Y-13476080D01*
%TO.C,C3*%
X11529970Y-1568781D02*
X11728781Y-1369970D01*
X12251219Y-2290030D02*
X12450030Y-2091219D01*
%TO.C,C24*%
X16446583Y-21549773D02*
X16662255Y-21549773D01*
X16446583Y-22269773D02*
X16662255Y-22269773D01*
%TO.C,R34*%
X26237258Y-15522500D02*
X25762742Y-15522500D01*
X26237258Y-14477500D02*
X25762742Y-14477500D01*
%TO.C,R27*%
X14920000Y-26453641D02*
X14920000Y-26146359D01*
X15680000Y-26453641D02*
X15680000Y-26146359D01*
%TO.C,D11*%
X20390000Y-8350000D02*
X23650000Y-8350000D01*
X20390000Y-10050000D02*
X20390000Y-8350000D01*
X20390000Y-10050000D02*
X23650000Y-10050000D01*
%TO.C,JP1*%
X3289354Y-28188346D02*
X5289354Y-28188346D01*
X5289354Y-28188346D02*
X5289354Y-25388346D01*
X3289354Y-25388346D02*
X3289354Y-28188346D01*
X5289354Y-25388346D02*
X3289354Y-25388346D01*
%TO.C,C2*%
X8118133Y-3224779D02*
X7965630Y-3377282D01*
X7609016Y-2715662D02*
X7456513Y-2868165D01*
%TO.C,C19*%
X9060000Y-27392164D02*
X9060000Y-27607836D01*
X8340000Y-27392164D02*
X8340000Y-27607836D01*
%TO.C,U1*%
X14855311Y-9100000D02*
X14537113Y-8781802D01*
X9750000Y-3994689D02*
X10068198Y-4312887D01*
X14537113Y-9418198D02*
X14855311Y-9100000D01*
X9431802Y-4312887D02*
X9750000Y-3994689D01*
X10068198Y-13887113D02*
X9750000Y-14205311D01*
X4962887Y-8781802D02*
X4644689Y-9100000D01*
X9750000Y-14205311D02*
X9431802Y-13887113D01*
X4644689Y-9100000D02*
X4962887Y-9418198D01*
X10485391Y-3895694D02*
X9912635Y-3803770D01*
X10393467Y-3322938D01*
X10485391Y-3895694D01*
G36*
X10485391Y-3895694D02*
G01*
X9912635Y-3803770D01*
X10393467Y-3322938D01*
X10485391Y-3895694D01*
G37*
%TO.C,C12*%
X29740000Y-26707836D02*
X29740000Y-26492164D01*
X30460000Y-26707836D02*
X30460000Y-26492164D01*
%TO.C,D2*%
X259160Y-7379527D02*
X2719160Y-7379527D01*
X259160Y-8849527D02*
X259160Y-7379527D01*
X2719160Y-8849527D02*
X259160Y-8849527D01*
%TO.C,U2*%
X26950000Y-28810000D02*
X23190000Y-28810000D01*
X26950000Y-21990000D02*
X23190000Y-21990000D01*
X23190000Y-28810000D02*
X23190000Y-27550000D01*
X23190000Y-21990000D02*
X23190000Y-23250000D01*
X28230000Y-22090000D02*
X27990000Y-21760000D01*
X28470000Y-21760000D01*
X28230000Y-22090000D01*
G36*
X28230000Y-22090000D02*
G01*
X27990000Y-21760000D01*
X28470000Y-21760000D01*
X28230000Y-22090000D01*
G37*
%TO.C,C15*%
X25871731Y-17717613D02*
X27294235Y-17717613D01*
X25871731Y-19537613D02*
X27294235Y-19537613D01*
%TO.C,R16*%
X17255403Y-23910878D02*
X17255403Y-23603596D01*
X18015403Y-23910878D02*
X18015403Y-23603596D01*
%TO.C,C23*%
X23040580Y-15510000D02*
X22759420Y-15510000D01*
X23040580Y-14490000D02*
X22759420Y-14490000D01*
%TO.C,R12*%
X22984029Y-20443608D02*
X22676747Y-20443608D01*
X22984029Y-19683608D02*
X22676747Y-19683608D01*
%TO.C,R30*%
X15953641Y-25080000D02*
X15646359Y-25080000D01*
X15953641Y-24320000D02*
X15646359Y-24320000D01*
%TO.C,C7*%
X9919395Y-15377962D02*
X9703723Y-15377962D01*
X9919395Y-14657962D02*
X9703723Y-14657962D01*
%TO.C,D10*%
X20390000Y-10350000D02*
X23650000Y-10350000D01*
X20390000Y-12050000D02*
X20390000Y-10350000D01*
X20390000Y-12050000D02*
X23650000Y-12050000D01*
%TO.C,R28*%
X15646359Y-23220000D02*
X15953641Y-23220000D01*
X15646359Y-23980000D02*
X15953641Y-23980000D01*
%TO.C,R5*%
X2141873Y-11162848D02*
X2449155Y-11162848D01*
X2141873Y-11922848D02*
X2449155Y-11922848D01*
%TO.C,C17*%
X32264544Y-26016141D02*
X32787048Y-26016141D01*
X32264544Y-27486141D02*
X32787048Y-27486141D01*
%TO.C,R24*%
X9059569Y-20852433D02*
X9059569Y-21159715D01*
X8299569Y-20852433D02*
X8299569Y-21159715D01*
%TO.C,R13*%
X32391248Y-24650930D02*
X32698530Y-24650930D01*
X32391248Y-25410930D02*
X32698530Y-25410930D01*
%TO.C,R36*%
X26237258Y-11022500D02*
X25762742Y-11022500D01*
X26237258Y-9977500D02*
X25762742Y-9977500D01*
%TO.C,D3*%
X250260Y-9350648D02*
X2710260Y-9350648D01*
X250260Y-10820648D02*
X250260Y-9350648D01*
X2710260Y-10820648D02*
X250260Y-10820648D01*
%TO.C,R18*%
X22837258Y-7922500D02*
X22362742Y-7922500D01*
X22837258Y-6877500D02*
X22362742Y-6877500D01*
%TO.C,TP1*%
X7485121Y-1774264D02*
X7485121Y-374264D01*
X7485121Y-374264D02*
X6085121Y-374264D01*
X6085121Y-1774264D02*
X7485121Y-1774264D01*
X6085121Y-374264D02*
X6085121Y-1774264D01*
%TO.C,R20*%
X27853641Y-30880000D02*
X27546359Y-30880000D01*
X27853641Y-30120000D02*
X27546359Y-30120000D01*
%TO.C,R6*%
X1402440Y-6268419D02*
X1402440Y-6575701D01*
X642440Y-6268419D02*
X642440Y-6575701D01*
%TO.C,R4*%
X2378136Y-6478781D02*
X2685418Y-6478781D01*
X2378136Y-7238781D02*
X2685418Y-7238781D01*
%TO.C,C18*%
X18765000Y-23761252D02*
X18765000Y-23238748D01*
X20235000Y-23761252D02*
X20235000Y-23238748D01*
%TO.C,C22*%
X25859420Y-11490000D02*
X26140580Y-11490000D01*
X25859420Y-12510000D02*
X26140580Y-12510000D01*
%TO.C,TP3*%
X20014310Y-10582150D02*
X20014310Y-9182150D01*
X20014310Y-9182150D02*
X18614310Y-9182150D01*
X18614310Y-10582150D02*
X20014310Y-10582150D01*
X18614310Y-9182150D02*
X18614310Y-10582150D01*
%TO.C,R10*%
X21227497Y-20616424D02*
X21227497Y-20923706D01*
X20467497Y-20616424D02*
X20467497Y-20923706D01*
%TO.C,Q3*%
X13016000Y-18980000D02*
X13016000Y-18330000D01*
X13016000Y-18980000D02*
X13016000Y-19630000D01*
X9896000Y-18980000D02*
X9896000Y-18330000D01*
X9896000Y-18980000D02*
X9896000Y-19630000D01*
X9946000Y-17817500D02*
X9616000Y-18057500D01*
X9616000Y-17577500D01*
X9946000Y-17817500D01*
G36*
X9946000Y-17817500D02*
G01*
X9616000Y-18057500D01*
X9616000Y-17577500D01*
X9946000Y-17817500D01*
G37*
%TO.C,R29*%
X4246359Y-24120000D02*
X4553641Y-24120000D01*
X4246359Y-24880000D02*
X4553641Y-24880000D01*
%TO.C,JP2*%
X16175000Y-25600000D02*
X16175000Y-27600000D01*
X16175000Y-27600000D02*
X18975000Y-27600000D01*
X18975000Y-25600000D02*
X16175000Y-25600000D01*
X18975000Y-27600000D02*
X18975000Y-25600000D01*
%TO.C,C5*%
X4378307Y-11269190D02*
X4530810Y-11421693D01*
X3869190Y-11778307D02*
X4021693Y-11930810D01*
%TO.C,C25*%
X34260000Y-16592164D02*
X34260000Y-16807836D01*
X33540000Y-16592164D02*
X33540000Y-16807836D01*
%TO.C,R1*%
X6280333Y-4102471D02*
X6063052Y-3885190D01*
X6817734Y-3565070D02*
X6600453Y-3347789D01*
%TO.C,R21*%
X25853642Y-30880000D02*
X25546360Y-30880000D01*
X25853642Y-30120000D02*
X25546360Y-30120000D01*
%TO.C,TP2*%
X20015915Y-12687012D02*
X20015915Y-11287012D01*
X20015915Y-11287012D02*
X18615915Y-11287012D01*
X18615915Y-12687012D02*
X20015915Y-12687012D01*
X18615915Y-11287012D02*
X18615915Y-12687012D01*
%TO.C,C21*%
X25859420Y-8490000D02*
X26140580Y-8490000D01*
X25859420Y-9510000D02*
X26140580Y-9510000D01*
%TO.C,C8*%
X23992164Y-2440000D02*
X24207836Y-2440000D01*
X23992164Y-3160000D02*
X24207836Y-3160000D01*
%TO.C,R2*%
X8318293Y-23147692D02*
X8318293Y-22840410D01*
X9078293Y-23147692D02*
X9078293Y-22840410D01*
%TO.C,C16*%
X23959420Y-5390000D02*
X24240580Y-5390000D01*
X23959420Y-6410000D02*
X24240580Y-6410000D01*
%TO.C,R3*%
X14897000Y-13211359D02*
X14897000Y-13518641D01*
X14137000Y-13211359D02*
X14137000Y-13518641D01*
%TO.C,C1*%
X9676718Y-3403245D02*
X9524215Y-3250742D01*
X10185835Y-2894128D02*
X10033332Y-2741625D01*
%TO.C,R9*%
X25827948Y-20637524D02*
X25827948Y-20944806D01*
X25067948Y-20637524D02*
X25067948Y-20944806D01*
%TO.C,R31*%
X4834911Y-6507938D02*
X4617630Y-6725219D01*
X4297510Y-5970537D02*
X4080229Y-6187818D01*
%TO.C,R23*%
X1797906Y-15247059D02*
X1490624Y-15247059D01*
X1797906Y-14487059D02*
X1490624Y-14487059D01*
%TO.C,Y1*%
X13932513Y-1129060D02*
X16760940Y-3957487D01*
X11599060Y-3462513D02*
X13932513Y-1129060D01*
%TO.C,R22*%
X11290831Y-15753559D02*
X11765347Y-15753559D01*
X11290831Y-16798559D02*
X11765347Y-16798559D01*
%TO.C,R15*%
X26379548Y-16541968D02*
X26686830Y-16541968D01*
X26379548Y-17301968D02*
X26686830Y-17301968D01*
%TO.C,R14*%
X32553641Y-28780000D02*
X32246359Y-28780000D01*
X32553641Y-28020000D02*
X32246359Y-28020000D01*
%TO.C,TP4*%
X9534022Y-1771221D02*
X9534022Y-371221D01*
X9534022Y-371221D02*
X8134022Y-371221D01*
X8134022Y-1771221D02*
X9534022Y-1771221D01*
X8134022Y-371221D02*
X8134022Y-1771221D01*
%TO.C,U3*%
X5330446Y-19085504D02*
X5330446Y-17135504D01*
X5330446Y-19085504D02*
X5330446Y-21035504D01*
X210446Y-19085504D02*
X210446Y-17135504D01*
X210446Y-19085504D02*
X210446Y-21035504D01*
X305446Y-16385504D02*
X-24554Y-16625504D01*
X-24554Y-16145504D01*
X305446Y-16385504D01*
G36*
X305446Y-16385504D02*
G01*
X-24554Y-16625504D01*
X-24554Y-16145504D01*
X305446Y-16385504D01*
G37*
%TO.C,C13*%
X29740000Y-24807836D02*
X29740000Y-24592164D01*
X30460000Y-24807836D02*
X30460000Y-24592164D01*
%TO.C,D9*%
X20390000Y-12350000D02*
X23650000Y-12350000D01*
X20390000Y-14050000D02*
X20390000Y-12350000D01*
X20390000Y-14050000D02*
X23650000Y-14050000D01*
%TO.C,C20*%
X1260000Y-23692164D02*
X1260000Y-23907836D01*
X540000Y-23692164D02*
X540000Y-23907836D01*
%TO.C,R8*%
X24280000Y-31546359D02*
X24280000Y-31853641D01*
X23520000Y-31546359D02*
X23520000Y-31853641D01*
%TO.C,R35*%
X26237258Y-14022500D02*
X25762742Y-14022500D01*
X26237258Y-12977500D02*
X25762742Y-12977500D01*
%TO.C,C6*%
X12740190Y-13609693D02*
X12892693Y-13457190D01*
X13249307Y-14118810D02*
X13401810Y-13966307D01*
%TO.C,C9*%
X14460000Y-15682420D02*
X14460000Y-15963580D01*
X13440000Y-15682420D02*
X13440000Y-15963580D01*
%TO.C,R25*%
X2246359Y-23020000D02*
X2553641Y-23020000D01*
X2246359Y-23780000D02*
X2553641Y-23780000D01*
%TO.C,R37*%
X33520000Y-14853641D02*
X33520000Y-14546359D01*
X34280000Y-14853641D02*
X34280000Y-14546359D01*
%TO.C,D7*%
X26965001Y-34360000D02*
X26965001Y-31900000D01*
X28435001Y-34360000D02*
X26965001Y-34360000D01*
X28435001Y-31900000D02*
X28435001Y-34360000D01*
%TO.C,R33*%
X2059112Y-13266723D02*
X2059112Y-12959441D01*
X2819112Y-13266723D02*
X2819112Y-12959441D01*
%TO.C,D8*%
X24965000Y-34360000D02*
X24965000Y-31900000D01*
X26435000Y-34360000D02*
X24965000Y-34360000D01*
X26435000Y-31900000D02*
X26435000Y-34360000D01*
%TO.C,C4*%
X16890030Y-5761219D02*
X16691219Y-5960030D01*
X16168781Y-5039970D02*
X15969970Y-5238781D01*
%TO.C,J3*%
X17835000Y-34910000D02*
X8365000Y-34910000D01*
X17835000Y-34460000D02*
X17835000Y-34910000D01*
X17835000Y-30940000D02*
X17835000Y-30490000D01*
X17835000Y-30490000D02*
X16885000Y-30490000D01*
X16885000Y-30490000D02*
X16885000Y-29000000D01*
X8365000Y-34910000D02*
X8365000Y-34460000D01*
X8365000Y-30940000D02*
X8365000Y-30490000D01*
X8365000Y-30490000D02*
X9315000Y-30490000D01*
%TO.C,U4*%
X14560000Y-24700000D02*
X14560000Y-22750000D01*
X14560000Y-24700000D02*
X14560000Y-26650000D01*
X9440000Y-24700000D02*
X9440000Y-22750000D01*
X9440000Y-24700000D02*
X9440000Y-26650000D01*
X9535000Y-22000000D02*
X9205000Y-22240000D01*
X9205000Y-21760000D01*
X9535000Y-22000000D01*
G36*
X9535000Y-22000000D02*
G01*
X9205000Y-22240000D01*
X9205000Y-21760000D01*
X9535000Y-22000000D01*
G37*
%TO.C,D4*%
X26034085Y-19970723D02*
X29294085Y-19970723D01*
X26034085Y-21670723D02*
X26034085Y-19970723D01*
X26034085Y-21670723D02*
X29294085Y-21670723D01*
%TD*%
%LPC*%
D12*
%TO.C,J1*%
X7400000Y-24810000D03*
D13*
X6130000Y-24810000D03*
X7400000Y-23540000D03*
X6130000Y-23540000D03*
X7400000Y-22270000D03*
X6130000Y-22270000D03*
X7400000Y-21000000D03*
X6130000Y-21000000D03*
X7400000Y-19730000D03*
X6130000Y-19730000D03*
X7400000Y-18460000D03*
X6130000Y-18460000D03*
X7400000Y-17190000D03*
X6130000Y-17190000D03*
%TD*%
D14*
%TO.C,SW1*%
X21825000Y-2812500D03*
X26325000Y-2812500D03*
D15*
X20575000Y-5302500D03*
X27585000Y-5302500D03*
%TD*%
D12*
%TO.C,J2*%
X31375000Y-7175000D03*
D16*
X32645000Y-7175000D03*
X31375000Y-8445000D03*
X32645000Y-8445000D03*
X31375000Y-9715000D03*
X32645000Y-9715000D03*
X31375000Y-10985000D03*
X32645000Y-10985000D03*
X31375000Y-12255000D03*
X32645000Y-12255000D03*
X31375000Y-13525000D03*
X32645000Y-13525000D03*
X31375000Y-14795000D03*
X32645000Y-14795000D03*
X31375000Y-16065000D03*
X32645000Y-16065000D03*
X31375000Y-17335000D03*
X32645000Y-17335000D03*
X31375000Y-18605000D03*
X32645000Y-18605000D03*
X31375000Y-19875000D03*
X32645000Y-19875000D03*
X31375000Y-21145000D03*
X32645000Y-21145000D03*
X31375000Y-22415000D03*
X32645000Y-22415000D03*
%TD*%
D17*
%TO.C,R11*%
X22338281Y-21295901D03*
X23358281Y-21295901D03*
%TD*%
D18*
%TO.C,R17*%
X26425000Y-7400000D03*
X24775000Y-7400000D03*
%TD*%
D19*
%TO.C,U5*%
X15550000Y-14637500D03*
X16200000Y-14637500D03*
X16850000Y-14637500D03*
X17500000Y-14637500D03*
X18150000Y-14637500D03*
X18800000Y-14637500D03*
X19450000Y-14637500D03*
X19450000Y-20362500D03*
X18800000Y-20362500D03*
X18150000Y-20362500D03*
X17500000Y-20362500D03*
X16850000Y-20362500D03*
X16200000Y-20362500D03*
X15550000Y-20362500D03*
%TD*%
D17*
%TO.C,R26*%
X3890000Y-23400000D03*
X4910000Y-23400000D03*
%TD*%
D20*
%TO.C,Q1*%
X21362500Y-18750000D03*
X21362500Y-16850000D03*
X23237500Y-17800000D03*
%TD*%
D21*
%TO.C,R7*%
X1393586Y-12894041D03*
X1393586Y-13914041D03*
%TD*%
D22*
%TO.C,R19*%
X23275000Y-4400000D03*
X24925000Y-4400000D03*
%TD*%
D17*
%TO.C,R32*%
X16810756Y-13096080D03*
X17830756Y-13096080D03*
%TD*%
D23*
%TO.C,C3*%
X11441992Y-2378008D03*
X12538008Y-1281992D03*
%TD*%
D24*
%TO.C,C24*%
X16074419Y-21909773D03*
X17034419Y-21909773D03*
%TD*%
D18*
%TO.C,R34*%
X26825000Y-15000000D03*
X25175000Y-15000000D03*
%TD*%
D25*
%TO.C,R27*%
X15300000Y-26810000D03*
X15300000Y-25790000D03*
%TD*%
D26*
%TO.C,D11*%
X21150000Y-9200000D03*
X23650000Y-9200000D03*
%TD*%
D27*
%TO.C,JP1*%
X4289354Y-27513346D03*
D28*
X4289354Y-26063346D03*
%TD*%
D29*
%TO.C,C2*%
X8126734Y-2707061D03*
X7447912Y-3385883D03*
%TD*%
D30*
%TO.C,C19*%
X8700000Y-27020000D03*
X8700000Y-27980000D03*
%TD*%
D31*
%TO.C,U1*%
X10748788Y-4212124D03*
X11102342Y-4565678D03*
X11455895Y-4919231D03*
X11809449Y-5272785D03*
X12163002Y-5626338D03*
X12516555Y-5979891D03*
X12870109Y-6333445D03*
X13223662Y-6686998D03*
X13577215Y-7040551D03*
X13930769Y-7394105D03*
X14284322Y-7747658D03*
X14637876Y-8101212D03*
D32*
X14637876Y-10098788D03*
X14284322Y-10452342D03*
X13930769Y-10805895D03*
X13577215Y-11159449D03*
X13223662Y-11513002D03*
X12870109Y-11866555D03*
X12516555Y-12220109D03*
X12163002Y-12573662D03*
X11809449Y-12927215D03*
X11455895Y-13280769D03*
X11102342Y-13634322D03*
X10748788Y-13987876D03*
D31*
X8751212Y-13987876D03*
X8397658Y-13634322D03*
X8044105Y-13280769D03*
X7690551Y-12927215D03*
X7336998Y-12573662D03*
X6983445Y-12220109D03*
X6629891Y-11866555D03*
X6276338Y-11513002D03*
X5922785Y-11159449D03*
X5569231Y-10805895D03*
X5215678Y-10452342D03*
X4862124Y-10098788D03*
D32*
X4862124Y-8101212D03*
X5215678Y-7747658D03*
X5569231Y-7394105D03*
X5922785Y-7040551D03*
X6276338Y-6686998D03*
X6629891Y-6333445D03*
X6983445Y-5979891D03*
X7336998Y-5626338D03*
X7690551Y-5272785D03*
X8044105Y-4919231D03*
X8397658Y-4565678D03*
X8751212Y-4212124D03*
%TD*%
D33*
%TO.C,C12*%
X30100000Y-27080000D03*
X30100000Y-26120000D03*
%TD*%
D34*
%TO.C,D2*%
X1044160Y-8114527D03*
X2794160Y-8114527D03*
%TD*%
D35*
%TO.C,U2*%
X28250000Y-23100000D03*
X28250000Y-25400000D03*
D36*
X21950000Y-25400000D03*
D35*
X28250000Y-27700000D03*
%TD*%
D37*
%TO.C,C15*%
X25107983Y-18627613D03*
X28057983Y-18627613D03*
%TD*%
D25*
%TO.C,R16*%
X17635403Y-24267237D03*
X17635403Y-23247237D03*
%TD*%
D38*
%TO.C,C23*%
X23675000Y-15000000D03*
X22125000Y-15000000D03*
%TD*%
D39*
%TO.C,R12*%
X23340388Y-20063608D03*
X22320388Y-20063608D03*
%TD*%
%TO.C,R30*%
X16310000Y-24700000D03*
X15290000Y-24700000D03*
%TD*%
D40*
%TO.C,C7*%
X10291559Y-15017962D03*
X9331559Y-15017962D03*
%TD*%
D26*
%TO.C,D10*%
X21150000Y-11200000D03*
X23650000Y-11200000D03*
%TD*%
D17*
%TO.C,R28*%
X15290000Y-23600000D03*
X16310000Y-23600000D03*
%TD*%
%TO.C,R5*%
X1785514Y-11542848D03*
X2805514Y-11542848D03*
%TD*%
D41*
%TO.C,C17*%
X31575796Y-26751141D03*
X33475796Y-26751141D03*
%TD*%
D21*
%TO.C,R24*%
X8679569Y-20496074D03*
X8679569Y-21516074D03*
%TD*%
D17*
%TO.C,R13*%
X32034889Y-25030930D03*
X33054889Y-25030930D03*
%TD*%
D18*
%TO.C,R36*%
X26825000Y-10500000D03*
X25175000Y-10500000D03*
%TD*%
D34*
%TO.C,D3*%
X1035260Y-10085648D03*
X2785260Y-10085648D03*
%TD*%
D18*
%TO.C,R18*%
X23425000Y-7400000D03*
X21775000Y-7400000D03*
%TD*%
D12*
%TO.C,TP1*%
X6785121Y-1074264D03*
%TD*%
D39*
%TO.C,R20*%
X28210000Y-30500000D03*
X27190000Y-30500000D03*
%TD*%
D21*
%TO.C,R6*%
X1022440Y-5912060D03*
X1022440Y-6932060D03*
%TD*%
D17*
%TO.C,R4*%
X2021777Y-6858781D03*
X3041777Y-6858781D03*
%TD*%
D42*
%TO.C,C18*%
X19500000Y-24450000D03*
X19500000Y-22550000D03*
%TD*%
D43*
%TO.C,C22*%
X25225000Y-12000000D03*
X26775000Y-12000000D03*
%TD*%
D12*
%TO.C,TP3*%
X19314310Y-9882150D03*
%TD*%
D21*
%TO.C,R10*%
X20847497Y-20260065D03*
X20847497Y-21280065D03*
%TD*%
D44*
%TO.C,Q3*%
X10506000Y-18042500D03*
X12406000Y-18042500D03*
X11456000Y-19917500D03*
%TD*%
D17*
%TO.C,R29*%
X3890000Y-24500000D03*
X4910000Y-24500000D03*
%TD*%
D45*
%TO.C,JP2*%
X16850000Y-26600000D03*
D46*
X18300000Y-26600000D03*
%TD*%
D47*
%TO.C,C5*%
X3860589Y-11260589D03*
X4539411Y-11939411D03*
%TD*%
D30*
%TO.C,C25*%
X33900000Y-16220000D03*
X33900000Y-17180000D03*
%TD*%
D48*
%TO.C,R1*%
X6801017Y-4085754D03*
X6079769Y-3364506D03*
%TD*%
D39*
%TO.C,R21*%
X26210001Y-30500000D03*
X25190001Y-30500000D03*
%TD*%
D12*
%TO.C,TP2*%
X19315915Y-11987012D03*
%TD*%
D43*
%TO.C,C21*%
X25225000Y-9000000D03*
X26775000Y-9000000D03*
%TD*%
D24*
%TO.C,C8*%
X23620000Y-2800000D03*
X24580000Y-2800000D03*
%TD*%
D25*
%TO.C,R2*%
X8698293Y-23504051D03*
X8698293Y-22484051D03*
%TD*%
D43*
%TO.C,C16*%
X23325000Y-5900000D03*
X24875000Y-5900000D03*
%TD*%
D21*
%TO.C,R3*%
X14517000Y-12855000D03*
X14517000Y-13875000D03*
%TD*%
D49*
%TO.C,C1*%
X10194436Y-3411846D03*
X9515614Y-2733024D03*
%TD*%
D21*
%TO.C,R9*%
X25447948Y-20281165D03*
X25447948Y-21301165D03*
%TD*%
D50*
%TO.C,R31*%
X4818194Y-5987254D03*
X4096946Y-6708502D03*
%TD*%
D39*
%TO.C,R23*%
X2154265Y-14867059D03*
X1134265Y-14867059D03*
%TD*%
D51*
%TO.C,Y1*%
X14003223Y-2331142D03*
X15558858Y-3886777D03*
X14356777Y-5088858D03*
X12801142Y-3533223D03*
%TD*%
D22*
%TO.C,R22*%
X10703089Y-16276059D03*
X12353089Y-16276059D03*
%TD*%
D17*
%TO.C,R15*%
X26023189Y-16921968D03*
X27043189Y-16921968D03*
%TD*%
D39*
%TO.C,R14*%
X32910000Y-28400000D03*
X31890000Y-28400000D03*
%TD*%
D12*
%TO.C,TP4*%
X8834022Y-1071221D03*
%TD*%
D52*
%TO.C,U3*%
X865446Y-16460504D03*
X2135446Y-16460504D03*
X3405446Y-16460504D03*
X4675446Y-16460504D03*
X4675446Y-21710504D03*
X3405446Y-21710504D03*
X2135446Y-21710504D03*
X865446Y-21710504D03*
%TD*%
D33*
%TO.C,C13*%
X30100000Y-25180000D03*
X30100000Y-24220000D03*
%TD*%
D26*
%TO.C,D9*%
X21150000Y-13200000D03*
X23650000Y-13200000D03*
%TD*%
D30*
%TO.C,C20*%
X900000Y-23320000D03*
X900000Y-24280000D03*
%TD*%
D21*
%TO.C,R8*%
X23900000Y-31190000D03*
X23900000Y-32210000D03*
%TD*%
D18*
%TO.C,R35*%
X26825000Y-13500000D03*
X25175000Y-13500000D03*
%TD*%
D53*
%TO.C,C6*%
X12731589Y-14127411D03*
X13410411Y-13448589D03*
%TD*%
D54*
%TO.C,C9*%
X13950000Y-15048000D03*
X13950000Y-16598000D03*
%TD*%
D17*
%TO.C,R25*%
X1890000Y-23400000D03*
X2910000Y-23400000D03*
%TD*%
D25*
%TO.C,R37*%
X33900000Y-15210000D03*
X33900000Y-14190000D03*
%TD*%
D55*
%TO.C,D7*%
X27700001Y-33575000D03*
X27700001Y-31825000D03*
%TD*%
D25*
%TO.C,R33*%
X2439112Y-13623082D03*
X2439112Y-12603082D03*
%TD*%
D55*
%TO.C,D8*%
X25700000Y-33575000D03*
X25700000Y-31825000D03*
%TD*%
D56*
%TO.C,C4*%
X16978008Y-4951992D03*
X15881992Y-6048008D03*
%TD*%
D57*
%TO.C,J3*%
X16225000Y-29800000D03*
X14975000Y-29800000D03*
X13725000Y-29800000D03*
X12475000Y-29800000D03*
X11225000Y-29800000D03*
X9975000Y-29800000D03*
D58*
X18775000Y-32700000D03*
X7425000Y-32700000D03*
%TD*%
D52*
%TO.C,U4*%
X10095000Y-22075000D03*
X11365000Y-22075000D03*
X12635000Y-22075000D03*
X13905000Y-22075000D03*
X13905000Y-27325000D03*
X12635000Y-27325000D03*
X11365000Y-27325000D03*
X10095000Y-27325000D03*
%TD*%
D26*
%TO.C,D4*%
X26794085Y-20820723D03*
X29294085Y-20820723D03*
%TD*%
%LPD*%
M02*
