%TF.GenerationSoftware,KiCad,Pcbnew,7.0.11*%
%TF.CreationDate,2024-11-13T01:21:52+09:00*%
%TF.ProjectId,Control,436f6e74-726f-46c2-9e6b-696361645f70,rev?*%
%TF.SameCoordinates,Original*%
%TF.FileFunction,Paste,Top*%
%TF.FilePolarity,Positive*%
%FSLAX46Y46*%
G04 Gerber Fmt 4.6, Leading zero omitted, Abs format (unit mm)*
G04 Created by KiCad (PCBNEW 7.0.11) date 2024-11-13 01:21:52*
%MOMM*%
%LPD*%
G01*
G04 APERTURE LIST*
G04 Aperture macros list*
%AMRoundRect*
0 Rectangle with rounded corners*
0 $1 Rounding radius*
0 $2 $3 $4 $5 $6 $7 $8 $9 X,Y pos of 4 corners*
0 Add a 4 corners polygon primitive as box body*
4,1,4,$2,$3,$4,$5,$6,$7,$8,$9,$2,$3,0*
0 Add four circle primitives for the rounded corners*
1,1,$1+$1,$2,$3*
1,1,$1+$1,$4,$5*
1,1,$1+$1,$6,$7*
1,1,$1+$1,$8,$9*
0 Add four rect primitives between the rounded corners*
20,1,$1+$1,$2,$3,$4,$5,0*
20,1,$1+$1,$4,$5,$6,$7,0*
20,1,$1+$1,$6,$7,$8,$9,0*
20,1,$1+$1,$8,$9,$2,$3,0*%
G04 Aperture macros list end*
%ADD10RoundRect,0.250000X-0.650000X0.325000X-0.650000X-0.325000X0.650000X-0.325000X0.650000X0.325000X0*%
%ADD11RoundRect,0.175000X-0.175000X0.325000X-0.175000X-0.325000X0.175000X-0.325000X0.175000X0.325000X0*%
%ADD12R,1.286000X0.250000*%
%ADD13R,1.586000X0.250000*%
%ADD14R,1.586000X1.950000*%
%ADD15R,1.186000X0.250000*%
%ADD16R,0.250000X1.202000*%
%ADD17R,0.250000X1.602000*%
%ADD18RoundRect,0.250000X-0.325000X-0.650000X0.325000X-0.650000X0.325000X0.650000X-0.325000X0.650000X0*%
%ADD19RoundRect,0.250000X0.475000X-0.250000X0.475000X0.250000X-0.475000X0.250000X-0.475000X-0.250000X0*%
%ADD20RoundRect,0.218750X-0.256250X0.218750X-0.256250X-0.218750X0.256250X-0.218750X0.256250X0.218750X0*%
%ADD21RoundRect,0.200000X-0.200000X-0.600000X0.200000X-0.600000X0.200000X0.600000X-0.200000X0.600000X0*%
%ADD22RoundRect,0.250001X-0.799999X-1.249999X0.799999X-1.249999X0.799999X1.249999X-0.799999X1.249999X0*%
%ADD23R,0.600000X0.970000*%
%ADD24R,1.150000X0.700000*%
%ADD25RoundRect,0.225000X0.375000X-0.225000X0.375000X0.225000X-0.375000X0.225000X-0.375000X-0.225000X0*%
%ADD26R,1.600000X0.760000*%
%ADD27RoundRect,0.250000X0.250000X0.250000X-0.250000X0.250000X-0.250000X-0.250000X0.250000X-0.250000X0*%
%ADD28RoundRect,0.250000X0.250000X-0.250000X0.250000X0.250000X-0.250000X0.250000X-0.250000X-0.250000X0*%
G04 APERTURE END LIST*
D10*
%TO.C,C27*%
X22500000Y-16425000D03*
X22500000Y-19375000D03*
%TD*%
D11*
%TO.C,Q2*%
X32850001Y-25000000D03*
X30950001Y-25000000D03*
X31900001Y-27400000D03*
%TD*%
D12*
%TO.C,IC1*%
X23057000Y-22150001D03*
D13*
X23207000Y-22800001D03*
X23207000Y-23450001D03*
D14*
X23207000Y-24950001D03*
X26193000Y-24950001D03*
D13*
X26193000Y-23450001D03*
X26193000Y-22800001D03*
D15*
X26393000Y-22150001D03*
D16*
X25950000Y-20999001D03*
X25450000Y-20999001D03*
D17*
X24950000Y-21199001D03*
X24450000Y-21199001D03*
D16*
X23950000Y-20999001D03*
X23450000Y-20999001D03*
%TD*%
D18*
%TO.C,C10*%
X24825000Y-19000000D03*
X27775000Y-19000000D03*
%TD*%
D19*
%TO.C,C11*%
X28200000Y-24399000D03*
X28200000Y-22499000D03*
%TD*%
D18*
%TO.C,C26*%
X24825000Y-16500000D03*
X27775000Y-16500000D03*
%TD*%
D20*
%TO.C,L1*%
X28400000Y-12912500D03*
X28400000Y-14487500D03*
%TD*%
D21*
%TO.C,J4*%
X9975000Y-29800000D03*
X11225000Y-29800000D03*
X12475000Y-29800000D03*
X13725000Y-29800000D03*
X14975000Y-29800000D03*
X16225000Y-29800000D03*
D22*
X7425000Y-32700000D03*
X18775000Y-32700000D03*
%TD*%
D23*
%TO.C,SW3*%
X23975000Y-30185000D03*
X24975000Y-30185000D03*
X25975000Y-30185000D03*
D24*
X21850000Y-31770000D03*
X28100000Y-31770000D03*
%TD*%
D25*
%TO.C,D5*%
X28400000Y-11350000D03*
X28400000Y-8050000D03*
%TD*%
D26*
%TO.C,SW4*%
X1090000Y-7495000D03*
X1090000Y-8765000D03*
X1090000Y-10035000D03*
X1090000Y-11305000D03*
X8710000Y-11305000D03*
X8710000Y-10035000D03*
X8710000Y-8765000D03*
X8710000Y-7495000D03*
%TD*%
D10*
%TO.C,C14*%
X25818415Y-8339498D03*
X25818415Y-11289498D03*
%TD*%
D27*
%TO.C,D6*%
X29095174Y-27606272D03*
X26595174Y-27606272D03*
%TD*%
D28*
%TO.C,D1*%
X9695031Y-23646856D03*
X9695031Y-21146856D03*
%TD*%
M02*
