%TF.GenerationSoftware,KiCad,Pcbnew,(6.0.11)*%
%TF.CreationDate,2023-09-13T23:25:57+09:00*%
%TF.ProjectId,Power,506f7765-722e-46b6-9963-61645f706362,rev?*%
%TF.SameCoordinates,Original*%
%TF.FileFunction,Copper,L2,Bot*%
%TF.FilePolarity,Positive*%
%FSLAX46Y46*%
G04 Gerber Fmt 4.6, Leading zero omitted, Abs format (unit mm)*
G04 Created by KiCad (PCBNEW (6.0.11)) date 2023-09-13 23:25:57*
%MOMM*%
%LPD*%
G01*
G04 APERTURE LIST*
G04 Aperture macros list*
%AMRoundRect*
0 Rectangle with rounded corners*
0 $1 Rounding radius*
0 $2 $3 $4 $5 $6 $7 $8 $9 X,Y pos of 4 corners*
0 Add a 4 corners polygon primitive as box body*
4,1,4,$2,$3,$4,$5,$6,$7,$8,$9,$2,$3,0*
0 Add four circle primitives for the rounded corners*
1,1,$1+$1,$2,$3*
1,1,$1+$1,$4,$5*
1,1,$1+$1,$6,$7*
1,1,$1+$1,$8,$9*
0 Add four rect primitives between the rounded corners*
20,1,$1+$1,$2,$3,$4,$5,0*
20,1,$1+$1,$4,$5,$6,$7,0*
20,1,$1+$1,$6,$7,$8,$9,0*
20,1,$1+$1,$8,$9,$2,$3,0*%
G04 Aperture macros list end*
%TA.AperFunction,ComponentPad*%
%ADD10O,9.000000X3.500000*%
%TD*%
%TA.AperFunction,ComponentPad*%
%ADD11O,3.500000X9.000000*%
%TD*%
%TA.AperFunction,ComponentPad*%
%ADD12C,1.400000*%
%TD*%
%TA.AperFunction,ComponentPad*%
%ADD13R,3.500000X3.500000*%
%TD*%
%TA.AperFunction,ComponentPad*%
%ADD14C,3.500000*%
%TD*%
%TA.AperFunction,ComponentPad*%
%ADD15C,1.524000*%
%TD*%
%TA.AperFunction,ComponentPad*%
%ADD16RoundRect,0.250000X-0.675000X0.600000X-0.675000X-0.600000X0.675000X-0.600000X0.675000X0.600000X0*%
%TD*%
%TA.AperFunction,ComponentPad*%
%ADD17O,1.850000X1.700000*%
%TD*%
%TA.AperFunction,ComponentPad*%
%ADD18R,0.900000X2.000000*%
%TD*%
%TA.AperFunction,ComponentPad*%
%ADD19RoundRect,1.025000X-1.025000X-1.025000X1.025000X-1.025000X1.025000X1.025000X-1.025000X1.025000X0*%
%TD*%
%TA.AperFunction,ComponentPad*%
%ADD20C,4.100000*%
%TD*%
%TA.AperFunction,ComponentPad*%
%ADD21C,2.780000*%
%TD*%
%TA.AperFunction,ComponentPad*%
%ADD22O,4.000000X1.524000*%
%TD*%
%TA.AperFunction,SMDPad,CuDef*%
%ADD23R,0.900000X1.200000*%
%TD*%
%TA.AperFunction,SMDPad,CuDef*%
%ADD24RoundRect,0.237500X-0.250000X-0.237500X0.250000X-0.237500X0.250000X0.237500X-0.250000X0.237500X0*%
%TD*%
%TA.AperFunction,ViaPad*%
%ADD25C,0.800000*%
%TD*%
%TA.AperFunction,Conductor*%
%ADD26C,0.250000*%
%TD*%
%TA.AperFunction,Conductor*%
%ADD27C,0.500000*%
%TD*%
G04 APERTURE END LIST*
D10*
%TO.P,K1,11A*%
%TO.N,30*%
X127060000Y-90470000D03*
D11*
%TO.P,K1,12*%
%TO.N,unconnected-(K1-Pad12)*%
X136960000Y-90470000D03*
%TO.P,K1,14*%
%TO.N,87*%
X144960000Y-90470000D03*
D10*
%TO.P,K1,A1*%
%TO.N,85*%
X136560000Y-98870000D03*
%TO.P,K1,A2*%
%TO.N,GND*%
X136560000Y-82070000D03*
%TD*%
D12*
%TO.P,J3,*%
%TO.N,*%
X198060000Y-85970000D03*
X198060000Y-96970000D03*
D13*
%TO.P,J3,1,Pin_1*%
%TO.N,GND*%
X188060000Y-93970000D03*
D14*
%TO.P,J3,2,Pin_2*%
%TO.N,VDD*%
X188060000Y-88970000D03*
%TD*%
D15*
%TO.P,MES1,1,-*%
%TO.N,GND*%
X149060000Y-60470000D03*
%TO.P,MES1,2,+*%
%TO.N,VDD*%
X147060000Y-60455000D03*
%TD*%
D12*
%TO.P,J4,*%
%TO.N,*%
X198060000Y-67970000D03*
X198060000Y-56970000D03*
D13*
%TO.P,J4,1,Pin_1*%
%TO.N,GND*%
X188060000Y-64970000D03*
D14*
%TO.P,J4,2,Pin_2*%
%TO.N,VDD*%
X188060000Y-59970000D03*
%TD*%
D16*
%TO.P,J2,1,Pin_1*%
%TO.N,30*%
X99710000Y-94220000D03*
D17*
%TO.P,J2,2,Pin_2*%
%TO.N,85*%
X99710000Y-96720000D03*
%TD*%
D12*
%TO.P,J8,*%
%TO.N,*%
X198060000Y-71470000D03*
X198060000Y-82470000D03*
D13*
%TO.P,J8,1,Pin_1*%
%TO.N,GND*%
X188060000Y-79470000D03*
D14*
%TO.P,J8,2,Pin_2*%
%TO.N,VDD*%
X188060000Y-74470000D03*
%TD*%
D12*
%TO.P,J10,*%
%TO.N,*%
X188810000Y-129470000D03*
X177810000Y-129470000D03*
D13*
%TO.P,J10,1,Pin_1*%
%TO.N,GND*%
X180810000Y-119470000D03*
D14*
%TO.P,J10,2,Pin_2*%
%TO.N,VDD*%
X185810000Y-119470000D03*
%TD*%
D18*
%TO.P,J1,*%
%TO.N,*%
X117410000Y-54510000D03*
X103910000Y-54510000D03*
D19*
%TO.P,J1,1,Pin_1*%
%TO.N,GND*%
X107060000Y-60510000D03*
D20*
%TO.P,J1,2,Pin_2*%
%TO.N,+12V*%
X114260000Y-60510000D03*
%TD*%
D12*
%TO.P,J9,*%
%TO.N,*%
X134310000Y-129470000D03*
X145310000Y-129470000D03*
D13*
%TO.P,J9,1,Pin_1*%
%TO.N,GND*%
X137310000Y-119470000D03*
D14*
%TO.P,J9,2,Pin_2*%
%TO.N,VDD*%
X142310000Y-119470000D03*
%TD*%
D21*
%TO.P,F1,1*%
%TO.N,+12V*%
X110760000Y-78510000D03*
X107360000Y-78510000D03*
%TO.P,F1,2*%
%TO.N,30*%
X110760000Y-88430000D03*
X107360000Y-88430000D03*
%TD*%
D12*
%TO.P,J5,*%
%TO.N,*%
X105310000Y-129470000D03*
X116310000Y-129470000D03*
D13*
%TO.P,J5,1,Pin_1*%
%TO.N,GND*%
X108310000Y-119470000D03*
D14*
%TO.P,J5,2,Pin_2*%
%TO.N,VDD*%
X113310000Y-119470000D03*
%TD*%
D12*
%TO.P,J6,*%
%TO.N,*%
X148810000Y-129470000D03*
X159810000Y-129470000D03*
D13*
%TO.P,J6,1,Pin_1*%
%TO.N,GND*%
X151810000Y-119470000D03*
D14*
%TO.P,J6,2,Pin_2*%
%TO.N,VDD*%
X156810000Y-119470000D03*
%TD*%
D12*
%TO.P,J12,*%
%TO.N,*%
X130810000Y-129470000D03*
X119810000Y-129470000D03*
D13*
%TO.P,J12,1,Pin_1*%
%TO.N,GND*%
X122810000Y-119470000D03*
D14*
%TO.P,J12,2,Pin_2*%
%TO.N,VDD*%
X127810000Y-119470000D03*
%TD*%
D12*
%TO.P,J7,*%
%TO.N,*%
X198060000Y-111470000D03*
X198060000Y-100470000D03*
D13*
%TO.P,J7,1,Pin_1*%
%TO.N,GND*%
X188060000Y-108470000D03*
D14*
%TO.P,J7,2,Pin_2*%
%TO.N,VDD*%
X188060000Y-103470000D03*
%TD*%
D12*
%TO.P,J11,*%
%TO.N,*%
X163310000Y-129470000D03*
X174310000Y-129470000D03*
D13*
%TO.P,J11,1,Pin_1*%
%TO.N,GND*%
X166310000Y-119470000D03*
D14*
%TO.P,J11,2,Pin_2*%
%TO.N,VDD*%
X171310000Y-119470000D03*
%TD*%
D22*
%TO.P,SW1,1,A*%
%TO.N,Net-(Q5-Pad1)*%
X169060000Y-62470000D03*
%TO.P,SW1,2,B*%
%TO.N,/S-S*%
X169060000Y-56470000D03*
%TD*%
D23*
%TO.P,D1,1,K*%
%TO.N,/S-S*%
X164630000Y-91620000D03*
%TO.P,D1,2,A*%
%TO.N,GND*%
X161330000Y-91620000D03*
%TD*%
D24*
%TO.P,R1,1*%
%TO.N,GND*%
X162747500Y-93780000D03*
%TO.P,R1,2*%
%TO.N,/S-S*%
X164572500Y-93780000D03*
%TD*%
D25*
%TO.N,GND*%
X165320000Y-99050000D03*
X164160000Y-99090000D03*
%TO.N,/S-S*%
X167679198Y-84854951D03*
X164525497Y-91305497D03*
X162965005Y-63194500D03*
X164705000Y-92115000D03*
X167989920Y-90619045D03*
X164400000Y-93860000D03*
%TO.N,GND*%
X145140000Y-59990000D03*
X159720000Y-60820000D03*
X152820000Y-57760000D03*
X152410000Y-55860000D03*
X102520000Y-112540000D03*
X93510000Y-132410000D03*
X200910000Y-52030000D03*
X132350000Y-132310000D03*
X169800000Y-58050000D03*
X158020000Y-129550000D03*
X154610000Y-73010000D03*
X191860000Y-52220000D03*
X152480000Y-51260000D03*
X154980000Y-76940000D03*
X201000000Y-67690000D03*
X128710000Y-68920000D03*
X200950000Y-77190000D03*
X139250000Y-95670000D03*
X102920000Y-65650000D03*
X98270000Y-107790000D03*
X154460000Y-132410000D03*
X198160000Y-80720000D03*
X140300000Y-44640000D03*
X126910000Y-50700000D03*
X198040000Y-118110000D03*
X161480000Y-129500000D03*
X191170000Y-44990000D03*
X114580000Y-56890000D03*
X198160000Y-66210000D03*
X186910000Y-48310000D03*
X200930000Y-132090000D03*
X164970000Y-129610000D03*
X93500000Y-92280000D03*
X105970000Y-107770000D03*
X138030000Y-75180000D03*
X160310000Y-90520000D03*
X158580000Y-51960000D03*
X198050000Y-95060000D03*
X94330000Y-65420000D03*
X94450000Y-79810000D03*
X198070000Y-84250000D03*
X156460000Y-62450000D03*
X200930000Y-117420000D03*
X101880000Y-119570000D03*
X118030000Y-129590000D03*
X127060000Y-55680000D03*
X161440000Y-77350000D03*
X139590000Y-85230000D03*
X150620000Y-129610000D03*
X174610000Y-57850000D03*
X157360000Y-46230000D03*
X166350000Y-44790000D03*
X131260000Y-100760000D03*
X141640000Y-80380000D03*
X193050000Y-57160000D03*
X198100000Y-102470000D03*
X93730000Y-45030000D03*
X93210000Y-116090000D03*
X101110000Y-52590000D03*
X150620000Y-64430000D03*
X201180000Y-91620000D03*
X109900000Y-123880000D03*
X125400000Y-132220000D03*
X97350000Y-96180000D03*
X146760000Y-67560000D03*
X129000000Y-129610000D03*
X140040000Y-132410000D03*
X98670000Y-101440000D03*
X163200000Y-60720000D03*
X98530000Y-72890000D03*
X152440000Y-44640000D03*
X105170000Y-47760000D03*
X96580000Y-121850000D03*
X104130000Y-104130000D03*
X93210000Y-126040000D03*
X179720000Y-44890000D03*
X138490000Y-67980000D03*
X197990000Y-73270000D03*
X198040000Y-122180000D03*
X187380000Y-53620000D03*
X134110000Y-95570000D03*
X100310000Y-131980000D03*
X201060000Y-106290000D03*
X172260000Y-129540000D03*
X200720000Y-44870000D03*
X148370000Y-76750000D03*
X198120000Y-69720000D03*
X166350000Y-57690000D03*
X130500000Y-81080000D03*
X111180000Y-51810000D03*
X147060000Y-129580000D03*
X109860000Y-116010000D03*
X102810000Y-79920000D03*
X110060000Y-111390000D03*
X159790000Y-57520000D03*
X100880000Y-45030000D03*
X134280000Y-68020000D03*
X186880000Y-129560000D03*
X121640000Y-129650000D03*
X198130000Y-98670000D03*
X96060000Y-85780000D03*
X133140000Y-78490000D03*
X134060000Y-85800000D03*
X112320000Y-104210000D03*
X118190000Y-46980000D03*
X164690000Y-48230000D03*
X136690000Y-60130000D03*
X193570000Y-132150000D03*
X198130000Y-87860000D03*
X168590000Y-132400000D03*
X126290000Y-79550000D03*
X93280000Y-105870000D03*
X189630000Y-127310000D03*
X147320000Y-46010000D03*
X143980000Y-72500000D03*
X171720000Y-60590000D03*
X200560000Y-57260000D03*
X105790000Y-126140000D03*
X136160000Y-129640000D03*
X127190000Y-59440000D03*
X110350000Y-128930000D03*
X179650000Y-129570000D03*
X198610000Y-62210000D03*
X123000000Y-50470000D03*
X154840000Y-68210000D03*
X194240000Y-126020000D03*
X156570000Y-64930000D03*
X150020000Y-71390000D03*
X173900000Y-48620000D03*
X98010000Y-57660000D03*
X167240000Y-60760000D03*
X198130000Y-109560000D03*
X128560000Y-100760000D03*
X140980000Y-63520000D03*
X184490000Y-56750000D03*
X98270000Y-115860000D03*
X171900000Y-54940000D03*
X178180000Y-54890000D03*
X94000000Y-52370000D03*
X132650000Y-63130000D03*
X165390000Y-52270000D03*
X200760000Y-126020000D03*
X180480000Y-52060000D03*
X183390000Y-132480000D03*
X176020000Y-129610000D03*
X100340000Y-126240000D03*
X143160000Y-129560000D03*
X111060000Y-132580000D03*
X132390000Y-73930000D03*
X111400000Y-44780000D03*
X114650000Y-128500000D03*
X123450000Y-45010000D03*
X160310000Y-91500000D03*
X132490000Y-45680000D03*
%TO.N,Net-(Q3-Pad1)*%
X168650500Y-85090698D03*
X172880000Y-94550995D03*
%TD*%
D26*
%TO.N,GND*%
X165880000Y-94880000D02*
X163000000Y-94880000D01*
X163000000Y-94880000D02*
X161330000Y-93210000D01*
X162747500Y-93752500D02*
X163700000Y-92800000D01*
X163740000Y-92840000D02*
X165480000Y-92840000D01*
X163700000Y-92800000D02*
X163740000Y-92840000D01*
X160310000Y-90600000D02*
X161330000Y-91620000D01*
X160310000Y-90520000D02*
X160310000Y-90600000D01*
%TO.N,/S-S*%
X169060000Y-57099505D02*
X169060000Y-56470000D01*
X162965005Y-63194500D02*
X169060000Y-57099505D01*
D27*
X164705000Y-91485000D02*
X164525497Y-91305497D01*
X164705000Y-92115000D02*
X164705000Y-91485000D01*
D26*
X167679198Y-84854951D02*
X167679198Y-90308323D01*
X167679198Y-90308323D02*
X167989920Y-90619045D01*
%TO.N,GND*%
X165880000Y-93200000D02*
X165880000Y-94880000D01*
X165500000Y-92820000D02*
X165880000Y-93200000D01*
X161330000Y-93210000D02*
X161330000Y-91620000D01*
X165480000Y-92840000D02*
X165500000Y-92820000D01*
X162747500Y-93780000D02*
X162747500Y-93752500D01*
%TO.N,Net-(Q3-Pad1)*%
X168650500Y-85090698D02*
X168650500Y-90321495D01*
X168650500Y-90321495D02*
X172880000Y-94550995D01*
%TD*%
%TA.AperFunction,Conductor*%
%TO.N,GND*%
G36*
X201493621Y-43998502D02*
G01*
X201540114Y-44052158D01*
X201551500Y-44104500D01*
X201551500Y-132835500D01*
X201531498Y-132903621D01*
X201477842Y-132950114D01*
X201425500Y-132961500D01*
X92694500Y-132961500D01*
X92626379Y-132941498D01*
X92579886Y-132887842D01*
X92568500Y-132835500D01*
X92568500Y-128602703D01*
X94950743Y-128602703D01*
X94951302Y-128606947D01*
X94951302Y-128606951D01*
X94962265Y-128690224D01*
X94988268Y-128887734D01*
X95064129Y-129165036D01*
X95176923Y-129429476D01*
X95324561Y-129676161D01*
X95504313Y-129900528D01*
X95712851Y-130098423D01*
X95946317Y-130266186D01*
X95950112Y-130268195D01*
X95950113Y-130268196D01*
X95971869Y-130279715D01*
X96200392Y-130400712D01*
X96470373Y-130499511D01*
X96751264Y-130560755D01*
X96779841Y-130563004D01*
X96974282Y-130578307D01*
X96974291Y-130578307D01*
X96976739Y-130578500D01*
X97132271Y-130578500D01*
X97134407Y-130578354D01*
X97134418Y-130578354D01*
X97342548Y-130564165D01*
X97342554Y-130564164D01*
X97346825Y-130563873D01*
X97351020Y-130563004D01*
X97351022Y-130563004D01*
X97544619Y-130522912D01*
X97628342Y-130505574D01*
X97899343Y-130409607D01*
X98154812Y-130277750D01*
X98158313Y-130275289D01*
X98158317Y-130275287D01*
X98272417Y-130195096D01*
X98390023Y-130112441D01*
X98600622Y-129916740D01*
X98782713Y-129694268D01*
X98920145Y-129470000D01*
X104096884Y-129470000D01*
X104115314Y-129680655D01*
X104116738Y-129685968D01*
X104116738Y-129685970D01*
X104119851Y-129697586D01*
X104170044Y-129884910D01*
X104172366Y-129889891D01*
X104172367Y-129889892D01*
X104186249Y-129919661D01*
X104259411Y-130076558D01*
X104380699Y-130249776D01*
X104530224Y-130399301D01*
X104703442Y-130520589D01*
X104708420Y-130522910D01*
X104708423Y-130522912D01*
X104827319Y-130578354D01*
X104895090Y-130609956D01*
X104900398Y-130611378D01*
X104900400Y-130611379D01*
X105094030Y-130663262D01*
X105094032Y-130663262D01*
X105099345Y-130664686D01*
X105310000Y-130683116D01*
X105520655Y-130664686D01*
X105525968Y-130663262D01*
X105525970Y-130663262D01*
X105719600Y-130611379D01*
X105719602Y-130611378D01*
X105724910Y-130609956D01*
X105792681Y-130578354D01*
X105911577Y-130522912D01*
X105911580Y-130522910D01*
X105916558Y-130520589D01*
X106089776Y-130399301D01*
X106239301Y-130249776D01*
X106360589Y-130076558D01*
X106433752Y-129919661D01*
X106447633Y-129889892D01*
X106447634Y-129889891D01*
X106449956Y-129884910D01*
X106500150Y-129697586D01*
X106503262Y-129685970D01*
X106503262Y-129685968D01*
X106504686Y-129680655D01*
X106523116Y-129470000D01*
X115096884Y-129470000D01*
X115115314Y-129680655D01*
X115116738Y-129685968D01*
X115116738Y-129685970D01*
X115119851Y-129697586D01*
X115170044Y-129884910D01*
X115172366Y-129889891D01*
X115172367Y-129889892D01*
X115186249Y-129919661D01*
X115259411Y-130076558D01*
X115380699Y-130249776D01*
X115530224Y-130399301D01*
X115703442Y-130520589D01*
X115708420Y-130522910D01*
X115708423Y-130522912D01*
X115827319Y-130578354D01*
X115895090Y-130609956D01*
X115900398Y-130611378D01*
X115900400Y-130611379D01*
X116094030Y-130663262D01*
X116094032Y-130663262D01*
X116099345Y-130664686D01*
X116310000Y-130683116D01*
X116520655Y-130664686D01*
X116525968Y-130663262D01*
X116525970Y-130663262D01*
X116719600Y-130611379D01*
X116719602Y-130611378D01*
X116724910Y-130609956D01*
X116792681Y-130578354D01*
X116911577Y-130522912D01*
X116911580Y-130522910D01*
X116916558Y-130520589D01*
X117089776Y-130399301D01*
X117239301Y-130249776D01*
X117360589Y-130076558D01*
X117433752Y-129919661D01*
X117447633Y-129889892D01*
X117447634Y-129889891D01*
X117449956Y-129884910D01*
X117500150Y-129697586D01*
X117503262Y-129685970D01*
X117503262Y-129685968D01*
X117504686Y-129680655D01*
X117523116Y-129470000D01*
X118596884Y-129470000D01*
X118615314Y-129680655D01*
X118616738Y-129685968D01*
X118616738Y-129685970D01*
X118619851Y-129697586D01*
X118670044Y-129884910D01*
X118672366Y-129889891D01*
X118672367Y-129889892D01*
X118686249Y-129919661D01*
X118759411Y-130076558D01*
X118880699Y-130249776D01*
X119030224Y-130399301D01*
X119203442Y-130520589D01*
X119208420Y-130522910D01*
X119208423Y-130522912D01*
X119327319Y-130578354D01*
X119395090Y-130609956D01*
X119400398Y-130611378D01*
X119400400Y-130611379D01*
X119594030Y-130663262D01*
X119594032Y-130663262D01*
X119599345Y-130664686D01*
X119810000Y-130683116D01*
X120020655Y-130664686D01*
X120025968Y-130663262D01*
X120025970Y-130663262D01*
X120219600Y-130611379D01*
X120219602Y-130611378D01*
X120224910Y-130609956D01*
X120292681Y-130578354D01*
X120411577Y-130522912D01*
X120411580Y-130522910D01*
X120416558Y-130520589D01*
X120589776Y-130399301D01*
X120739301Y-130249776D01*
X120860589Y-130076558D01*
X120933752Y-129919661D01*
X120947633Y-129889892D01*
X120947634Y-129889891D01*
X120949956Y-129884910D01*
X121000150Y-129697586D01*
X121003262Y-129685970D01*
X121003262Y-129685968D01*
X121004686Y-129680655D01*
X121023116Y-129470000D01*
X129596884Y-129470000D01*
X129615314Y-129680655D01*
X129616738Y-129685968D01*
X129616738Y-129685970D01*
X129619851Y-129697586D01*
X129670044Y-129884910D01*
X129672366Y-129889891D01*
X129672367Y-129889892D01*
X129686249Y-129919661D01*
X129759411Y-130076558D01*
X129880699Y-130249776D01*
X130030224Y-130399301D01*
X130203442Y-130520589D01*
X130208420Y-130522910D01*
X130208423Y-130522912D01*
X130327319Y-130578354D01*
X130395090Y-130609956D01*
X130400398Y-130611378D01*
X130400400Y-130611379D01*
X130594030Y-130663262D01*
X130594032Y-130663262D01*
X130599345Y-130664686D01*
X130810000Y-130683116D01*
X131020655Y-130664686D01*
X131025968Y-130663262D01*
X131025970Y-130663262D01*
X131219600Y-130611379D01*
X131219602Y-130611378D01*
X131224910Y-130609956D01*
X131292681Y-130578354D01*
X131411577Y-130522912D01*
X131411580Y-130522910D01*
X131416558Y-130520589D01*
X131589776Y-130399301D01*
X131739301Y-130249776D01*
X131860589Y-130076558D01*
X131933752Y-129919661D01*
X131947633Y-129889892D01*
X131947634Y-129889891D01*
X131949956Y-129884910D01*
X132000150Y-129697586D01*
X132003262Y-129685970D01*
X132003262Y-129685968D01*
X132004686Y-129680655D01*
X132023116Y-129470000D01*
X133096884Y-129470000D01*
X133115314Y-129680655D01*
X133116738Y-129685968D01*
X133116738Y-129685970D01*
X133119851Y-129697586D01*
X133170044Y-129884910D01*
X133172366Y-129889891D01*
X133172367Y-129889892D01*
X133186249Y-129919661D01*
X133259411Y-130076558D01*
X133380699Y-130249776D01*
X133530224Y-130399301D01*
X133703442Y-130520589D01*
X133708420Y-130522910D01*
X133708423Y-130522912D01*
X133827319Y-130578354D01*
X133895090Y-130609956D01*
X133900398Y-130611378D01*
X133900400Y-130611379D01*
X134094030Y-130663262D01*
X134094032Y-130663262D01*
X134099345Y-130664686D01*
X134310000Y-130683116D01*
X134520655Y-130664686D01*
X134525968Y-130663262D01*
X134525970Y-130663262D01*
X134719600Y-130611379D01*
X134719602Y-130611378D01*
X134724910Y-130609956D01*
X134792681Y-130578354D01*
X134911577Y-130522912D01*
X134911580Y-130522910D01*
X134916558Y-130520589D01*
X135089776Y-130399301D01*
X135239301Y-130249776D01*
X135360589Y-130076558D01*
X135433752Y-129919661D01*
X135447633Y-129889892D01*
X135447634Y-129889891D01*
X135449956Y-129884910D01*
X135500150Y-129697586D01*
X135503262Y-129685970D01*
X135503262Y-129685968D01*
X135504686Y-129680655D01*
X135523116Y-129470000D01*
X144096884Y-129470000D01*
X144115314Y-129680655D01*
X144116738Y-129685968D01*
X144116738Y-129685970D01*
X144119851Y-129697586D01*
X144170044Y-129884910D01*
X144172366Y-129889891D01*
X144172367Y-129889892D01*
X144186249Y-129919661D01*
X144259411Y-130076558D01*
X144380699Y-130249776D01*
X144530224Y-130399301D01*
X144703442Y-130520589D01*
X144708420Y-130522910D01*
X144708423Y-130522912D01*
X144827319Y-130578354D01*
X144895090Y-130609956D01*
X144900398Y-130611378D01*
X144900400Y-130611379D01*
X145094030Y-130663262D01*
X145094032Y-130663262D01*
X145099345Y-130664686D01*
X145310000Y-130683116D01*
X145520655Y-130664686D01*
X145525968Y-130663262D01*
X145525970Y-130663262D01*
X145719600Y-130611379D01*
X145719602Y-130611378D01*
X145724910Y-130609956D01*
X145792681Y-130578354D01*
X145911577Y-130522912D01*
X145911580Y-130522910D01*
X145916558Y-130520589D01*
X146089776Y-130399301D01*
X146239301Y-130249776D01*
X146360589Y-130076558D01*
X146433752Y-129919661D01*
X146447633Y-129889892D01*
X146447634Y-129889891D01*
X146449956Y-129884910D01*
X146500150Y-129697586D01*
X146503262Y-129685970D01*
X146503262Y-129685968D01*
X146504686Y-129680655D01*
X146523116Y-129470000D01*
X147596884Y-129470000D01*
X147615314Y-129680655D01*
X147616738Y-129685968D01*
X147616738Y-129685970D01*
X147619851Y-129697586D01*
X147670044Y-129884910D01*
X147672366Y-129889891D01*
X147672367Y-129889892D01*
X147686249Y-129919661D01*
X147759411Y-130076558D01*
X147880699Y-130249776D01*
X148030224Y-130399301D01*
X148203442Y-130520589D01*
X148208420Y-130522910D01*
X148208423Y-130522912D01*
X148327319Y-130578354D01*
X148395090Y-130609956D01*
X148400398Y-130611378D01*
X148400400Y-130611379D01*
X148594030Y-130663262D01*
X148594032Y-130663262D01*
X148599345Y-130664686D01*
X148810000Y-130683116D01*
X149020655Y-130664686D01*
X149025968Y-130663262D01*
X149025970Y-130663262D01*
X149219600Y-130611379D01*
X149219602Y-130611378D01*
X149224910Y-130609956D01*
X149292681Y-130578354D01*
X149411577Y-130522912D01*
X149411580Y-130522910D01*
X149416558Y-130520589D01*
X149589776Y-130399301D01*
X149739301Y-130249776D01*
X149860589Y-130076558D01*
X149933752Y-129919661D01*
X149947633Y-129889892D01*
X149947634Y-129889891D01*
X149949956Y-129884910D01*
X150000150Y-129697586D01*
X150003262Y-129685970D01*
X150003262Y-129685968D01*
X150004686Y-129680655D01*
X150023116Y-129470000D01*
X158596884Y-129470000D01*
X158615314Y-129680655D01*
X158616738Y-129685968D01*
X158616738Y-129685970D01*
X158619851Y-129697586D01*
X158670044Y-129884910D01*
X158672366Y-129889891D01*
X158672367Y-129889892D01*
X158686249Y-129919661D01*
X158759411Y-130076558D01*
X158880699Y-130249776D01*
X159030224Y-130399301D01*
X159203442Y-130520589D01*
X159208420Y-130522910D01*
X159208423Y-130522912D01*
X159327319Y-130578354D01*
X159395090Y-130609956D01*
X159400398Y-130611378D01*
X159400400Y-130611379D01*
X159594030Y-130663262D01*
X159594032Y-130663262D01*
X159599345Y-130664686D01*
X159810000Y-130683116D01*
X160020655Y-130664686D01*
X160025968Y-130663262D01*
X160025970Y-130663262D01*
X160219600Y-130611379D01*
X160219602Y-130611378D01*
X160224910Y-130609956D01*
X160292681Y-130578354D01*
X160411577Y-130522912D01*
X160411580Y-130522910D01*
X160416558Y-130520589D01*
X160589776Y-130399301D01*
X160739301Y-130249776D01*
X160860589Y-130076558D01*
X160933752Y-129919661D01*
X160947633Y-129889892D01*
X160947634Y-129889891D01*
X160949956Y-129884910D01*
X161000150Y-129697586D01*
X161003262Y-129685970D01*
X161003262Y-129685968D01*
X161004686Y-129680655D01*
X161023116Y-129470000D01*
X162096884Y-129470000D01*
X162115314Y-129680655D01*
X162116738Y-129685968D01*
X162116738Y-129685970D01*
X162119851Y-129697586D01*
X162170044Y-129884910D01*
X162172366Y-129889891D01*
X162172367Y-129889892D01*
X162186249Y-129919661D01*
X162259411Y-130076558D01*
X162380699Y-130249776D01*
X162530224Y-130399301D01*
X162703442Y-130520589D01*
X162708420Y-130522910D01*
X162708423Y-130522912D01*
X162827319Y-130578354D01*
X162895090Y-130609956D01*
X162900398Y-130611378D01*
X162900400Y-130611379D01*
X163094030Y-130663262D01*
X163094032Y-130663262D01*
X163099345Y-130664686D01*
X163310000Y-130683116D01*
X163520655Y-130664686D01*
X163525968Y-130663262D01*
X163525970Y-130663262D01*
X163719600Y-130611379D01*
X163719602Y-130611378D01*
X163724910Y-130609956D01*
X163792681Y-130578354D01*
X163911577Y-130522912D01*
X163911580Y-130522910D01*
X163916558Y-130520589D01*
X164089776Y-130399301D01*
X164239301Y-130249776D01*
X164360589Y-130076558D01*
X164433752Y-129919661D01*
X164447633Y-129889892D01*
X164447634Y-129889891D01*
X164449956Y-129884910D01*
X164500150Y-129697586D01*
X164503262Y-129685970D01*
X164503262Y-129685968D01*
X164504686Y-129680655D01*
X164523116Y-129470000D01*
X173096884Y-129470000D01*
X173115314Y-129680655D01*
X173116738Y-129685968D01*
X173116738Y-129685970D01*
X173119851Y-129697586D01*
X173170044Y-129884910D01*
X173172366Y-129889891D01*
X173172367Y-129889892D01*
X173186249Y-129919661D01*
X173259411Y-130076558D01*
X173380699Y-130249776D01*
X173530224Y-130399301D01*
X173703442Y-130520589D01*
X173708420Y-130522910D01*
X173708423Y-130522912D01*
X173827319Y-130578354D01*
X173895090Y-130609956D01*
X173900398Y-130611378D01*
X173900400Y-130611379D01*
X174094030Y-130663262D01*
X174094032Y-130663262D01*
X174099345Y-130664686D01*
X174310000Y-130683116D01*
X174520655Y-130664686D01*
X174525968Y-130663262D01*
X174525970Y-130663262D01*
X174719600Y-130611379D01*
X174719602Y-130611378D01*
X174724910Y-130609956D01*
X174792681Y-130578354D01*
X174911577Y-130522912D01*
X174911580Y-130522910D01*
X174916558Y-130520589D01*
X175089776Y-130399301D01*
X175239301Y-130249776D01*
X175360589Y-130076558D01*
X175433752Y-129919661D01*
X175447633Y-129889892D01*
X175447634Y-129889891D01*
X175449956Y-129884910D01*
X175500150Y-129697586D01*
X175503262Y-129685970D01*
X175503262Y-129685968D01*
X175504686Y-129680655D01*
X175523116Y-129470000D01*
X176596884Y-129470000D01*
X176615314Y-129680655D01*
X176616738Y-129685968D01*
X176616738Y-129685970D01*
X176619851Y-129697586D01*
X176670044Y-129884910D01*
X176672366Y-129889891D01*
X176672367Y-129889892D01*
X176686249Y-129919661D01*
X176759411Y-130076558D01*
X176880699Y-130249776D01*
X177030224Y-130399301D01*
X177203442Y-130520589D01*
X177208420Y-130522910D01*
X177208423Y-130522912D01*
X177327319Y-130578354D01*
X177395090Y-130609956D01*
X177400398Y-130611378D01*
X177400400Y-130611379D01*
X177594030Y-130663262D01*
X177594032Y-130663262D01*
X177599345Y-130664686D01*
X177810000Y-130683116D01*
X178020655Y-130664686D01*
X178025968Y-130663262D01*
X178025970Y-130663262D01*
X178219600Y-130611379D01*
X178219602Y-130611378D01*
X178224910Y-130609956D01*
X178292681Y-130578354D01*
X178411577Y-130522912D01*
X178411580Y-130522910D01*
X178416558Y-130520589D01*
X178589776Y-130399301D01*
X178739301Y-130249776D01*
X178860589Y-130076558D01*
X178933752Y-129919661D01*
X178947633Y-129889892D01*
X178947634Y-129889891D01*
X178949956Y-129884910D01*
X179000150Y-129697586D01*
X179003262Y-129685970D01*
X179003262Y-129685968D01*
X179004686Y-129680655D01*
X179023116Y-129470000D01*
X187596884Y-129470000D01*
X187615314Y-129680655D01*
X187616738Y-129685968D01*
X187616738Y-129685970D01*
X187619851Y-129697586D01*
X187670044Y-129884910D01*
X187672366Y-129889891D01*
X187672367Y-129889892D01*
X187686249Y-129919661D01*
X187759411Y-130076558D01*
X187880699Y-130249776D01*
X188030224Y-130399301D01*
X188203442Y-130520589D01*
X188208420Y-130522910D01*
X188208423Y-130522912D01*
X188327319Y-130578354D01*
X188395090Y-130609956D01*
X188400398Y-130611378D01*
X188400400Y-130611379D01*
X188594030Y-130663262D01*
X188594032Y-130663262D01*
X188599345Y-130664686D01*
X188810000Y-130683116D01*
X189020655Y-130664686D01*
X189025968Y-130663262D01*
X189025970Y-130663262D01*
X189219600Y-130611379D01*
X189219602Y-130611378D01*
X189224910Y-130609956D01*
X189292681Y-130578354D01*
X189411577Y-130522912D01*
X189411580Y-130522910D01*
X189416558Y-130520589D01*
X189589776Y-130399301D01*
X189739301Y-130249776D01*
X189860589Y-130076558D01*
X189933752Y-129919661D01*
X189947633Y-129889892D01*
X189947634Y-129889891D01*
X189949956Y-129884910D01*
X190000150Y-129697586D01*
X190003262Y-129685970D01*
X190003262Y-129685968D01*
X190004686Y-129680655D01*
X190023116Y-129470000D01*
X190004686Y-129259345D01*
X190003262Y-129254030D01*
X189951379Y-129060400D01*
X189951378Y-129060398D01*
X189949956Y-129055090D01*
X189947633Y-129050108D01*
X189862912Y-128868423D01*
X189862910Y-128868420D01*
X189860589Y-128863442D01*
X189739301Y-128690224D01*
X189651780Y-128602703D01*
X194950743Y-128602703D01*
X194951302Y-128606947D01*
X194951302Y-128606951D01*
X194962265Y-128690224D01*
X194988268Y-128887734D01*
X195064129Y-129165036D01*
X195176923Y-129429476D01*
X195324561Y-129676161D01*
X195504313Y-129900528D01*
X195712851Y-130098423D01*
X195946317Y-130266186D01*
X195950112Y-130268195D01*
X195950113Y-130268196D01*
X195971869Y-130279715D01*
X196200392Y-130400712D01*
X196470373Y-130499511D01*
X196751264Y-130560755D01*
X196779841Y-130563004D01*
X196974282Y-130578307D01*
X196974291Y-130578307D01*
X196976739Y-130578500D01*
X197132271Y-130578500D01*
X197134407Y-130578354D01*
X197134418Y-130578354D01*
X197342548Y-130564165D01*
X197342554Y-130564164D01*
X197346825Y-130563873D01*
X197351020Y-130563004D01*
X197351022Y-130563004D01*
X197544619Y-130522912D01*
X197628342Y-130505574D01*
X197899343Y-130409607D01*
X198154812Y-130277750D01*
X198158313Y-130275289D01*
X198158317Y-130275287D01*
X198272417Y-130195096D01*
X198390023Y-130112441D01*
X198600622Y-129916740D01*
X198782713Y-129694268D01*
X198932927Y-129449142D01*
X199013837Y-129264825D01*
X199046757Y-129189830D01*
X199048483Y-129185898D01*
X199127244Y-128909406D01*
X199167751Y-128624784D01*
X199167845Y-128606951D01*
X199169235Y-128341583D01*
X199169235Y-128341576D01*
X199169257Y-128337297D01*
X199158671Y-128256884D01*
X199132292Y-128056522D01*
X199131732Y-128052266D01*
X199055871Y-127774964D01*
X198943077Y-127510524D01*
X198795439Y-127263839D01*
X198615687Y-127039472D01*
X198407149Y-126841577D01*
X198173683Y-126673814D01*
X198151843Y-126662250D01*
X198128654Y-126649972D01*
X197919608Y-126539288D01*
X197649627Y-126440489D01*
X197368736Y-126379245D01*
X197337685Y-126376801D01*
X197145718Y-126361693D01*
X197145709Y-126361693D01*
X197143261Y-126361500D01*
X196987729Y-126361500D01*
X196985593Y-126361646D01*
X196985582Y-126361646D01*
X196777452Y-126375835D01*
X196777446Y-126375836D01*
X196773175Y-126376127D01*
X196768980Y-126376996D01*
X196768978Y-126376996D01*
X196632417Y-126405276D01*
X196491658Y-126434426D01*
X196220657Y-126530393D01*
X195965188Y-126662250D01*
X195961687Y-126664711D01*
X195961683Y-126664713D01*
X195951594Y-126671804D01*
X195729977Y-126827559D01*
X195519378Y-127023260D01*
X195337287Y-127245732D01*
X195187073Y-127490858D01*
X195071517Y-127754102D01*
X194992756Y-128030594D01*
X194952249Y-128315216D01*
X194952227Y-128319505D01*
X194952226Y-128319512D01*
X194951047Y-128544594D01*
X194950743Y-128602703D01*
X189651780Y-128602703D01*
X189589776Y-128540699D01*
X189416558Y-128419411D01*
X189411580Y-128417090D01*
X189411577Y-128417088D01*
X189229892Y-128332367D01*
X189229891Y-128332366D01*
X189224910Y-128330044D01*
X189219602Y-128328622D01*
X189219600Y-128328621D01*
X189025970Y-128276738D01*
X189025968Y-128276738D01*
X189020655Y-128275314D01*
X188810000Y-128256884D01*
X188599345Y-128275314D01*
X188594032Y-128276738D01*
X188594030Y-128276738D01*
X188400400Y-128328621D01*
X188400398Y-128328622D01*
X188395090Y-128330044D01*
X188390109Y-128332366D01*
X188390108Y-128332367D01*
X188208423Y-128417088D01*
X188208420Y-128417090D01*
X188203442Y-128419411D01*
X188030224Y-128540699D01*
X187880699Y-128690224D01*
X187759411Y-128863442D01*
X187757090Y-128868420D01*
X187757088Y-128868423D01*
X187672367Y-129050108D01*
X187670044Y-129055090D01*
X187668622Y-129060398D01*
X187668621Y-129060400D01*
X187616738Y-129254030D01*
X187615314Y-129259345D01*
X187596884Y-129470000D01*
X179023116Y-129470000D01*
X179004686Y-129259345D01*
X179003262Y-129254030D01*
X178951379Y-129060400D01*
X178951378Y-129060398D01*
X178949956Y-129055090D01*
X178947633Y-129050108D01*
X178862912Y-128868423D01*
X178862910Y-128868420D01*
X178860589Y-128863442D01*
X178739301Y-128690224D01*
X178589776Y-128540699D01*
X178416558Y-128419411D01*
X178411580Y-128417090D01*
X178411577Y-128417088D01*
X178229892Y-128332367D01*
X178229891Y-128332366D01*
X178224910Y-128330044D01*
X178219602Y-128328622D01*
X178219600Y-128328621D01*
X178025970Y-128276738D01*
X178025968Y-128276738D01*
X178020655Y-128275314D01*
X177810000Y-128256884D01*
X177599345Y-128275314D01*
X177594032Y-128276738D01*
X177594030Y-128276738D01*
X177400400Y-128328621D01*
X177400398Y-128328622D01*
X177395090Y-128330044D01*
X177390109Y-128332366D01*
X177390108Y-128332367D01*
X177208423Y-128417088D01*
X177208420Y-128417090D01*
X177203442Y-128419411D01*
X177030224Y-128540699D01*
X176880699Y-128690224D01*
X176759411Y-128863442D01*
X176757090Y-128868420D01*
X176757088Y-128868423D01*
X176672367Y-129050108D01*
X176670044Y-129055090D01*
X176668622Y-129060398D01*
X176668621Y-129060400D01*
X176616738Y-129254030D01*
X176615314Y-129259345D01*
X176596884Y-129470000D01*
X175523116Y-129470000D01*
X175504686Y-129259345D01*
X175503262Y-129254030D01*
X175451379Y-129060400D01*
X175451378Y-129060398D01*
X175449956Y-129055090D01*
X175447633Y-129050108D01*
X175362912Y-128868423D01*
X175362910Y-128868420D01*
X175360589Y-128863442D01*
X175239301Y-128690224D01*
X175089776Y-128540699D01*
X174916558Y-128419411D01*
X174911580Y-128417090D01*
X174911577Y-128417088D01*
X174729892Y-128332367D01*
X174729891Y-128332366D01*
X174724910Y-128330044D01*
X174719602Y-128328622D01*
X174719600Y-128328621D01*
X174525970Y-128276738D01*
X174525968Y-128276738D01*
X174520655Y-128275314D01*
X174310000Y-128256884D01*
X174099345Y-128275314D01*
X174094032Y-128276738D01*
X174094030Y-128276738D01*
X173900400Y-128328621D01*
X173900398Y-128328622D01*
X173895090Y-128330044D01*
X173890109Y-128332366D01*
X173890108Y-128332367D01*
X173708423Y-128417088D01*
X173708420Y-128417090D01*
X173703442Y-128419411D01*
X173530224Y-128540699D01*
X173380699Y-128690224D01*
X173259411Y-128863442D01*
X173257090Y-128868420D01*
X173257088Y-128868423D01*
X173172367Y-129050108D01*
X173170044Y-129055090D01*
X173168622Y-129060398D01*
X173168621Y-129060400D01*
X173116738Y-129254030D01*
X173115314Y-129259345D01*
X173096884Y-129470000D01*
X164523116Y-129470000D01*
X164504686Y-129259345D01*
X164503262Y-129254030D01*
X164451379Y-129060400D01*
X164451378Y-129060398D01*
X164449956Y-129055090D01*
X164447633Y-129050108D01*
X164362912Y-128868423D01*
X164362910Y-128868420D01*
X164360589Y-128863442D01*
X164239301Y-128690224D01*
X164089776Y-128540699D01*
X163916558Y-128419411D01*
X163911580Y-128417090D01*
X163911577Y-128417088D01*
X163729892Y-128332367D01*
X163729891Y-128332366D01*
X163724910Y-128330044D01*
X163719602Y-128328622D01*
X163719600Y-128328621D01*
X163525970Y-128276738D01*
X163525968Y-128276738D01*
X163520655Y-128275314D01*
X163310000Y-128256884D01*
X163099345Y-128275314D01*
X163094032Y-128276738D01*
X163094030Y-128276738D01*
X162900400Y-128328621D01*
X162900398Y-128328622D01*
X162895090Y-128330044D01*
X162890109Y-128332366D01*
X162890108Y-128332367D01*
X162708423Y-128417088D01*
X162708420Y-128417090D01*
X162703442Y-128419411D01*
X162530224Y-128540699D01*
X162380699Y-128690224D01*
X162259411Y-128863442D01*
X162257090Y-128868420D01*
X162257088Y-128868423D01*
X162172367Y-129050108D01*
X162170044Y-129055090D01*
X162168622Y-129060398D01*
X162168621Y-129060400D01*
X162116738Y-129254030D01*
X162115314Y-129259345D01*
X162096884Y-129470000D01*
X161023116Y-129470000D01*
X161004686Y-129259345D01*
X161003262Y-129254030D01*
X160951379Y-129060400D01*
X160951378Y-129060398D01*
X160949956Y-129055090D01*
X160947633Y-129050108D01*
X160862912Y-128868423D01*
X160862910Y-128868420D01*
X160860589Y-128863442D01*
X160739301Y-128690224D01*
X160589776Y-128540699D01*
X160416558Y-128419411D01*
X160411580Y-128417090D01*
X160411577Y-128417088D01*
X160229892Y-128332367D01*
X160229891Y-128332366D01*
X160224910Y-128330044D01*
X160219602Y-128328622D01*
X160219600Y-128328621D01*
X160025970Y-128276738D01*
X160025968Y-128276738D01*
X160020655Y-128275314D01*
X159810000Y-128256884D01*
X159599345Y-128275314D01*
X159594032Y-128276738D01*
X159594030Y-128276738D01*
X159400400Y-128328621D01*
X159400398Y-128328622D01*
X159395090Y-128330044D01*
X159390109Y-128332366D01*
X159390108Y-128332367D01*
X159208423Y-128417088D01*
X159208420Y-128417090D01*
X159203442Y-128419411D01*
X159030224Y-128540699D01*
X158880699Y-128690224D01*
X158759411Y-128863442D01*
X158757090Y-128868420D01*
X158757088Y-128868423D01*
X158672367Y-129050108D01*
X158670044Y-129055090D01*
X158668622Y-129060398D01*
X158668621Y-129060400D01*
X158616738Y-129254030D01*
X158615314Y-129259345D01*
X158596884Y-129470000D01*
X150023116Y-129470000D01*
X150004686Y-129259345D01*
X150003262Y-129254030D01*
X149951379Y-129060400D01*
X149951378Y-129060398D01*
X149949956Y-129055090D01*
X149947633Y-129050108D01*
X149862912Y-128868423D01*
X149862910Y-128868420D01*
X149860589Y-128863442D01*
X149739301Y-128690224D01*
X149589776Y-128540699D01*
X149416558Y-128419411D01*
X149411580Y-128417090D01*
X149411577Y-128417088D01*
X149229892Y-128332367D01*
X149229891Y-128332366D01*
X149224910Y-128330044D01*
X149219602Y-128328622D01*
X149219600Y-128328621D01*
X149025970Y-128276738D01*
X149025968Y-128276738D01*
X149020655Y-128275314D01*
X148810000Y-128256884D01*
X148599345Y-128275314D01*
X148594032Y-128276738D01*
X148594030Y-128276738D01*
X148400400Y-128328621D01*
X148400398Y-128328622D01*
X148395090Y-128330044D01*
X148390109Y-128332366D01*
X148390108Y-128332367D01*
X148208423Y-128417088D01*
X148208420Y-128417090D01*
X148203442Y-128419411D01*
X148030224Y-128540699D01*
X147880699Y-128690224D01*
X147759411Y-128863442D01*
X147757090Y-128868420D01*
X147757088Y-128868423D01*
X147672367Y-129050108D01*
X147670044Y-129055090D01*
X147668622Y-129060398D01*
X147668621Y-129060400D01*
X147616738Y-129254030D01*
X147615314Y-129259345D01*
X147596884Y-129470000D01*
X146523116Y-129470000D01*
X146504686Y-129259345D01*
X146503262Y-129254030D01*
X146451379Y-129060400D01*
X146451378Y-129060398D01*
X146449956Y-129055090D01*
X146447633Y-129050108D01*
X146362912Y-128868423D01*
X146362910Y-128868420D01*
X146360589Y-128863442D01*
X146239301Y-128690224D01*
X146089776Y-128540699D01*
X145916558Y-128419411D01*
X145911580Y-128417090D01*
X145911577Y-128417088D01*
X145729892Y-128332367D01*
X145729891Y-128332366D01*
X145724910Y-128330044D01*
X145719602Y-128328622D01*
X145719600Y-128328621D01*
X145525970Y-128276738D01*
X145525968Y-128276738D01*
X145520655Y-128275314D01*
X145310000Y-128256884D01*
X145099345Y-128275314D01*
X145094032Y-128276738D01*
X145094030Y-128276738D01*
X144900400Y-128328621D01*
X144900398Y-128328622D01*
X144895090Y-128330044D01*
X144890109Y-128332366D01*
X144890108Y-128332367D01*
X144708423Y-128417088D01*
X144708420Y-128417090D01*
X144703442Y-128419411D01*
X144530224Y-128540699D01*
X144380699Y-128690224D01*
X144259411Y-128863442D01*
X144257090Y-128868420D01*
X144257088Y-128868423D01*
X144172367Y-129050108D01*
X144170044Y-129055090D01*
X144168622Y-129060398D01*
X144168621Y-129060400D01*
X144116738Y-129254030D01*
X144115314Y-129259345D01*
X144096884Y-129470000D01*
X135523116Y-129470000D01*
X135504686Y-129259345D01*
X135503262Y-129254030D01*
X135451379Y-129060400D01*
X135451378Y-129060398D01*
X135449956Y-129055090D01*
X135447633Y-129050108D01*
X135362912Y-128868423D01*
X135362910Y-128868420D01*
X135360589Y-128863442D01*
X135239301Y-128690224D01*
X135089776Y-128540699D01*
X134916558Y-128419411D01*
X134911580Y-128417090D01*
X134911577Y-128417088D01*
X134729892Y-128332367D01*
X134729891Y-128332366D01*
X134724910Y-128330044D01*
X134719602Y-128328622D01*
X134719600Y-128328621D01*
X134525970Y-128276738D01*
X134525968Y-128276738D01*
X134520655Y-128275314D01*
X134310000Y-128256884D01*
X134099345Y-128275314D01*
X134094032Y-128276738D01*
X134094030Y-128276738D01*
X133900400Y-128328621D01*
X133900398Y-128328622D01*
X133895090Y-128330044D01*
X133890109Y-128332366D01*
X133890108Y-128332367D01*
X133708423Y-128417088D01*
X133708420Y-128417090D01*
X133703442Y-128419411D01*
X133530224Y-128540699D01*
X133380699Y-128690224D01*
X133259411Y-128863442D01*
X133257090Y-128868420D01*
X133257088Y-128868423D01*
X133172367Y-129050108D01*
X133170044Y-129055090D01*
X133168622Y-129060398D01*
X133168621Y-129060400D01*
X133116738Y-129254030D01*
X133115314Y-129259345D01*
X133096884Y-129470000D01*
X132023116Y-129470000D01*
X132004686Y-129259345D01*
X132003262Y-129254030D01*
X131951379Y-129060400D01*
X131951378Y-129060398D01*
X131949956Y-129055090D01*
X131947633Y-129050108D01*
X131862912Y-128868423D01*
X131862910Y-128868420D01*
X131860589Y-128863442D01*
X131739301Y-128690224D01*
X131589776Y-128540699D01*
X131416558Y-128419411D01*
X131411580Y-128417090D01*
X131411577Y-128417088D01*
X131229892Y-128332367D01*
X131229891Y-128332366D01*
X131224910Y-128330044D01*
X131219602Y-128328622D01*
X131219600Y-128328621D01*
X131025970Y-128276738D01*
X131025968Y-128276738D01*
X131020655Y-128275314D01*
X130810000Y-128256884D01*
X130599345Y-128275314D01*
X130594032Y-128276738D01*
X130594030Y-128276738D01*
X130400400Y-128328621D01*
X130400398Y-128328622D01*
X130395090Y-128330044D01*
X130390109Y-128332366D01*
X130390108Y-128332367D01*
X130208423Y-128417088D01*
X130208420Y-128417090D01*
X130203442Y-128419411D01*
X130030224Y-128540699D01*
X129880699Y-128690224D01*
X129759411Y-128863442D01*
X129757090Y-128868420D01*
X129757088Y-128868423D01*
X129672367Y-129050108D01*
X129670044Y-129055090D01*
X129668622Y-129060398D01*
X129668621Y-129060400D01*
X129616738Y-129254030D01*
X129615314Y-129259345D01*
X129596884Y-129470000D01*
X121023116Y-129470000D01*
X121004686Y-129259345D01*
X121003262Y-129254030D01*
X120951379Y-129060400D01*
X120951378Y-129060398D01*
X120949956Y-129055090D01*
X120947633Y-129050108D01*
X120862912Y-128868423D01*
X120862910Y-128868420D01*
X120860589Y-128863442D01*
X120739301Y-128690224D01*
X120589776Y-128540699D01*
X120416558Y-128419411D01*
X120411580Y-128417090D01*
X120411577Y-128417088D01*
X120229892Y-128332367D01*
X120229891Y-128332366D01*
X120224910Y-128330044D01*
X120219602Y-128328622D01*
X120219600Y-128328621D01*
X120025970Y-128276738D01*
X120025968Y-128276738D01*
X120020655Y-128275314D01*
X119810000Y-128256884D01*
X119599345Y-128275314D01*
X119594032Y-128276738D01*
X119594030Y-128276738D01*
X119400400Y-128328621D01*
X119400398Y-128328622D01*
X119395090Y-128330044D01*
X119390109Y-128332366D01*
X119390108Y-128332367D01*
X119208423Y-128417088D01*
X119208420Y-128417090D01*
X119203442Y-128419411D01*
X119030224Y-128540699D01*
X118880699Y-128690224D01*
X118759411Y-128863442D01*
X118757090Y-128868420D01*
X118757088Y-128868423D01*
X118672367Y-129050108D01*
X118670044Y-129055090D01*
X118668622Y-129060398D01*
X118668621Y-129060400D01*
X118616738Y-129254030D01*
X118615314Y-129259345D01*
X118596884Y-129470000D01*
X117523116Y-129470000D01*
X117504686Y-129259345D01*
X117503262Y-129254030D01*
X117451379Y-129060400D01*
X117451378Y-129060398D01*
X117449956Y-129055090D01*
X117447633Y-129050108D01*
X117362912Y-128868423D01*
X117362910Y-128868420D01*
X117360589Y-128863442D01*
X117239301Y-128690224D01*
X117089776Y-128540699D01*
X116916558Y-128419411D01*
X116911580Y-128417090D01*
X116911577Y-128417088D01*
X116729892Y-128332367D01*
X116729891Y-128332366D01*
X116724910Y-128330044D01*
X116719602Y-128328622D01*
X116719600Y-128328621D01*
X116525970Y-128276738D01*
X116525968Y-128276738D01*
X116520655Y-128275314D01*
X116310000Y-128256884D01*
X116099345Y-128275314D01*
X116094032Y-128276738D01*
X116094030Y-128276738D01*
X115900400Y-128328621D01*
X115900398Y-128328622D01*
X115895090Y-128330044D01*
X115890109Y-128332366D01*
X115890108Y-128332367D01*
X115708423Y-128417088D01*
X115708420Y-128417090D01*
X115703442Y-128419411D01*
X115530224Y-128540699D01*
X115380699Y-128690224D01*
X115259411Y-128863442D01*
X115257090Y-128868420D01*
X115257088Y-128868423D01*
X115172367Y-129050108D01*
X115170044Y-129055090D01*
X115168622Y-129060398D01*
X115168621Y-129060400D01*
X115116738Y-129254030D01*
X115115314Y-129259345D01*
X115096884Y-129470000D01*
X106523116Y-129470000D01*
X106504686Y-129259345D01*
X106503262Y-129254030D01*
X106451379Y-129060400D01*
X106451378Y-129060398D01*
X106449956Y-129055090D01*
X106447633Y-129050108D01*
X106362912Y-128868423D01*
X106362910Y-128868420D01*
X106360589Y-128863442D01*
X106239301Y-128690224D01*
X106089776Y-128540699D01*
X105916558Y-128419411D01*
X105911580Y-128417090D01*
X105911577Y-128417088D01*
X105729892Y-128332367D01*
X105729891Y-128332366D01*
X105724910Y-128330044D01*
X105719602Y-128328622D01*
X105719600Y-128328621D01*
X105525970Y-128276738D01*
X105525968Y-128276738D01*
X105520655Y-128275314D01*
X105310000Y-128256884D01*
X105099345Y-128275314D01*
X105094032Y-128276738D01*
X105094030Y-128276738D01*
X104900400Y-128328621D01*
X104900398Y-128328622D01*
X104895090Y-128330044D01*
X104890109Y-128332366D01*
X104890108Y-128332367D01*
X104708423Y-128417088D01*
X104708420Y-128417090D01*
X104703442Y-128419411D01*
X104530224Y-128540699D01*
X104380699Y-128690224D01*
X104259411Y-128863442D01*
X104257090Y-128868420D01*
X104257088Y-128868423D01*
X104172367Y-129050108D01*
X104170044Y-129055090D01*
X104168622Y-129060398D01*
X104168621Y-129060400D01*
X104116738Y-129254030D01*
X104115314Y-129259345D01*
X104096884Y-129470000D01*
X98920145Y-129470000D01*
X98932927Y-129449142D01*
X99013837Y-129264825D01*
X99046757Y-129189830D01*
X99048483Y-129185898D01*
X99127244Y-128909406D01*
X99167751Y-128624784D01*
X99167845Y-128606951D01*
X99169235Y-128341583D01*
X99169235Y-128341576D01*
X99169257Y-128337297D01*
X99158671Y-128256884D01*
X99132292Y-128056522D01*
X99131732Y-128052266D01*
X99055871Y-127774964D01*
X98943077Y-127510524D01*
X98795439Y-127263839D01*
X98615687Y-127039472D01*
X98407149Y-126841577D01*
X98173683Y-126673814D01*
X98151843Y-126662250D01*
X98128654Y-126649972D01*
X97919608Y-126539288D01*
X97649627Y-126440489D01*
X97368736Y-126379245D01*
X97337685Y-126376801D01*
X97145718Y-126361693D01*
X97145709Y-126361693D01*
X97143261Y-126361500D01*
X96987729Y-126361500D01*
X96985593Y-126361646D01*
X96985582Y-126361646D01*
X96777452Y-126375835D01*
X96777446Y-126375836D01*
X96773175Y-126376127D01*
X96768980Y-126376996D01*
X96768978Y-126376996D01*
X96632417Y-126405276D01*
X96491658Y-126434426D01*
X96220657Y-126530393D01*
X95965188Y-126662250D01*
X95961687Y-126664711D01*
X95961683Y-126664713D01*
X95951594Y-126671804D01*
X95729977Y-126827559D01*
X95519378Y-127023260D01*
X95337287Y-127245732D01*
X95187073Y-127490858D01*
X95071517Y-127754102D01*
X94992756Y-128030594D01*
X94952249Y-128315216D01*
X94952227Y-128319505D01*
X94952226Y-128319512D01*
X94951047Y-128544594D01*
X94950743Y-128602703D01*
X92568500Y-128602703D01*
X92568500Y-119470000D01*
X111046654Y-119470000D01*
X111066017Y-119765426D01*
X111123776Y-120055797D01*
X111218941Y-120336145D01*
X111349885Y-120601673D01*
X111514367Y-120847838D01*
X111517081Y-120850932D01*
X111517085Y-120850938D01*
X111706864Y-121067338D01*
X111709573Y-121070427D01*
X111712662Y-121073136D01*
X111929062Y-121262915D01*
X111929068Y-121262919D01*
X111932162Y-121265633D01*
X111935588Y-121267922D01*
X111935593Y-121267926D01*
X112119405Y-121390744D01*
X112178327Y-121430115D01*
X112182026Y-121431939D01*
X112182031Y-121431942D01*
X112318313Y-121499148D01*
X112443855Y-121561059D01*
X112447760Y-121562384D01*
X112447761Y-121562385D01*
X112720290Y-121654896D01*
X112720294Y-121654897D01*
X112724203Y-121656224D01*
X112728247Y-121657028D01*
X112728253Y-121657030D01*
X113010535Y-121713180D01*
X113010541Y-121713181D01*
X113014574Y-121713983D01*
X113018679Y-121714252D01*
X113018686Y-121714253D01*
X113305881Y-121733076D01*
X113310000Y-121733346D01*
X113314119Y-121733076D01*
X113601314Y-121714253D01*
X113601321Y-121714252D01*
X113605426Y-121713983D01*
X113609459Y-121713181D01*
X113609465Y-121713180D01*
X113891747Y-121657030D01*
X113891753Y-121657028D01*
X113895797Y-121656224D01*
X113899706Y-121654897D01*
X113899710Y-121654896D01*
X114172239Y-121562385D01*
X114172240Y-121562384D01*
X114176145Y-121561059D01*
X114301687Y-121499148D01*
X114437969Y-121431942D01*
X114437974Y-121431939D01*
X114441673Y-121430115D01*
X114500595Y-121390744D01*
X114684407Y-121267926D01*
X114684412Y-121267922D01*
X114687838Y-121265633D01*
X114690932Y-121262919D01*
X114690938Y-121262915D01*
X114907338Y-121073136D01*
X114910427Y-121070427D01*
X114913136Y-121067338D01*
X115102915Y-120850938D01*
X115102919Y-120850932D01*
X115105633Y-120847838D01*
X115270115Y-120601673D01*
X115401059Y-120336145D01*
X115496224Y-120055797D01*
X115553983Y-119765426D01*
X115573346Y-119470000D01*
X125546654Y-119470000D01*
X125566017Y-119765426D01*
X125623776Y-120055797D01*
X125718941Y-120336145D01*
X125849885Y-120601673D01*
X126014367Y-120847838D01*
X126017081Y-120850932D01*
X126017085Y-120850938D01*
X126206864Y-121067338D01*
X126209573Y-121070427D01*
X126212662Y-121073136D01*
X126429062Y-121262915D01*
X126429068Y-121262919D01*
X126432162Y-121265633D01*
X126435588Y-121267922D01*
X126435593Y-121267926D01*
X126619405Y-121390744D01*
X126678327Y-121430115D01*
X126682026Y-121431939D01*
X126682031Y-121431942D01*
X126818313Y-121499148D01*
X126943855Y-121561059D01*
X126947760Y-121562384D01*
X126947761Y-121562385D01*
X127220290Y-121654896D01*
X127220294Y-121654897D01*
X127224203Y-121656224D01*
X127228247Y-121657028D01*
X127228253Y-121657030D01*
X127510535Y-121713180D01*
X127510541Y-121713181D01*
X127514574Y-121713983D01*
X127518679Y-121714252D01*
X127518686Y-121714253D01*
X127805881Y-121733076D01*
X127810000Y-121733346D01*
X127814119Y-121733076D01*
X128101314Y-121714253D01*
X128101321Y-121714252D01*
X128105426Y-121713983D01*
X128109459Y-121713181D01*
X128109465Y-121713180D01*
X128391747Y-121657030D01*
X128391753Y-121657028D01*
X128395797Y-121656224D01*
X128399706Y-121654897D01*
X128399710Y-121654896D01*
X128672239Y-121562385D01*
X128672240Y-121562384D01*
X128676145Y-121561059D01*
X128801687Y-121499148D01*
X128937969Y-121431942D01*
X128937974Y-121431939D01*
X128941673Y-121430115D01*
X129000595Y-121390744D01*
X129184407Y-121267926D01*
X129184412Y-121267922D01*
X129187838Y-121265633D01*
X129190932Y-121262919D01*
X129190938Y-121262915D01*
X129407338Y-121073136D01*
X129410427Y-121070427D01*
X129413136Y-121067338D01*
X129602915Y-120850938D01*
X129602919Y-120850932D01*
X129605633Y-120847838D01*
X129770115Y-120601673D01*
X129901059Y-120336145D01*
X129996224Y-120055797D01*
X130053983Y-119765426D01*
X130073346Y-119470000D01*
X140046654Y-119470000D01*
X140066017Y-119765426D01*
X140123776Y-120055797D01*
X140218941Y-120336145D01*
X140349885Y-120601673D01*
X140514367Y-120847838D01*
X140517081Y-120850932D01*
X140517085Y-120850938D01*
X140706864Y-121067338D01*
X140709573Y-121070427D01*
X140712662Y-121073136D01*
X140929062Y-121262915D01*
X140929068Y-121262919D01*
X140932162Y-121265633D01*
X140935588Y-121267922D01*
X140935593Y-121267926D01*
X141119405Y-121390744D01*
X141178327Y-121430115D01*
X141182026Y-121431939D01*
X141182031Y-121431942D01*
X141318313Y-121499148D01*
X141443855Y-121561059D01*
X141447760Y-121562384D01*
X141447761Y-121562385D01*
X141720290Y-121654896D01*
X141720294Y-121654897D01*
X141724203Y-121656224D01*
X141728247Y-121657028D01*
X141728253Y-121657030D01*
X142010535Y-121713180D01*
X142010541Y-121713181D01*
X142014574Y-121713983D01*
X142018679Y-121714252D01*
X142018686Y-121714253D01*
X142305881Y-121733076D01*
X142310000Y-121733346D01*
X142314119Y-121733076D01*
X142601314Y-121714253D01*
X142601321Y-121714252D01*
X142605426Y-121713983D01*
X142609459Y-121713181D01*
X142609465Y-121713180D01*
X142891747Y-121657030D01*
X142891753Y-121657028D01*
X142895797Y-121656224D01*
X142899706Y-121654897D01*
X142899710Y-121654896D01*
X143172239Y-121562385D01*
X143172240Y-121562384D01*
X143176145Y-121561059D01*
X143301687Y-121499148D01*
X143437969Y-121431942D01*
X143437974Y-121431939D01*
X143441673Y-121430115D01*
X143500595Y-121390744D01*
X143684407Y-121267926D01*
X143684412Y-121267922D01*
X143687838Y-121265633D01*
X143690932Y-121262919D01*
X143690938Y-121262915D01*
X143907338Y-121073136D01*
X143910427Y-121070427D01*
X143913136Y-121067338D01*
X144102915Y-120850938D01*
X144102919Y-120850932D01*
X144105633Y-120847838D01*
X144270115Y-120601673D01*
X144401059Y-120336145D01*
X144496224Y-120055797D01*
X144553983Y-119765426D01*
X144573346Y-119470000D01*
X154546654Y-119470000D01*
X154566017Y-119765426D01*
X154623776Y-120055797D01*
X154718941Y-120336145D01*
X154849885Y-120601673D01*
X155014367Y-120847838D01*
X155017081Y-120850932D01*
X155017085Y-120850938D01*
X155206864Y-121067338D01*
X155209573Y-121070427D01*
X155212662Y-121073136D01*
X155429062Y-121262915D01*
X155429068Y-121262919D01*
X155432162Y-121265633D01*
X155435588Y-121267922D01*
X155435593Y-121267926D01*
X155619405Y-121390744D01*
X155678327Y-121430115D01*
X155682026Y-121431939D01*
X155682031Y-121431942D01*
X155818313Y-121499148D01*
X155943855Y-121561059D01*
X155947760Y-121562384D01*
X155947761Y-121562385D01*
X156220290Y-121654896D01*
X156220294Y-121654897D01*
X156224203Y-121656224D01*
X156228247Y-121657028D01*
X156228253Y-121657030D01*
X156510535Y-121713180D01*
X156510541Y-121713181D01*
X156514574Y-121713983D01*
X156518679Y-121714252D01*
X156518686Y-121714253D01*
X156805881Y-121733076D01*
X156810000Y-121733346D01*
X156814119Y-121733076D01*
X157101314Y-121714253D01*
X157101321Y-121714252D01*
X157105426Y-121713983D01*
X157109459Y-121713181D01*
X157109465Y-121713180D01*
X157391747Y-121657030D01*
X157391753Y-121657028D01*
X157395797Y-121656224D01*
X157399706Y-121654897D01*
X157399710Y-121654896D01*
X157672239Y-121562385D01*
X157672240Y-121562384D01*
X157676145Y-121561059D01*
X157801687Y-121499148D01*
X157937969Y-121431942D01*
X157937974Y-121431939D01*
X157941673Y-121430115D01*
X158000595Y-121390744D01*
X158184407Y-121267926D01*
X158184412Y-121267922D01*
X158187838Y-121265633D01*
X158190932Y-121262919D01*
X158190938Y-121262915D01*
X158407338Y-121073136D01*
X158410427Y-121070427D01*
X158413136Y-121067338D01*
X158602915Y-120850938D01*
X158602919Y-120850932D01*
X158605633Y-120847838D01*
X158770115Y-120601673D01*
X158901059Y-120336145D01*
X158996224Y-120055797D01*
X159053983Y-119765426D01*
X159073346Y-119470000D01*
X169046654Y-119470000D01*
X169066017Y-119765426D01*
X169123776Y-120055797D01*
X169218941Y-120336145D01*
X169349885Y-120601673D01*
X169514367Y-120847838D01*
X169517081Y-120850932D01*
X169517085Y-120850938D01*
X169706864Y-121067338D01*
X169709573Y-121070427D01*
X169712662Y-121073136D01*
X169929062Y-121262915D01*
X169929068Y-121262919D01*
X169932162Y-121265633D01*
X169935588Y-121267922D01*
X169935593Y-121267926D01*
X170119405Y-121390744D01*
X170178327Y-121430115D01*
X170182026Y-121431939D01*
X170182031Y-121431942D01*
X170318313Y-121499148D01*
X170443855Y-121561059D01*
X170447760Y-121562384D01*
X170447761Y-121562385D01*
X170720290Y-121654896D01*
X170720294Y-121654897D01*
X170724203Y-121656224D01*
X170728247Y-121657028D01*
X170728253Y-121657030D01*
X171010535Y-121713180D01*
X171010541Y-121713181D01*
X171014574Y-121713983D01*
X171018679Y-121714252D01*
X171018686Y-121714253D01*
X171305881Y-121733076D01*
X171310000Y-121733346D01*
X171314119Y-121733076D01*
X171601314Y-121714253D01*
X171601321Y-121714252D01*
X171605426Y-121713983D01*
X171609459Y-121713181D01*
X171609465Y-121713180D01*
X171891747Y-121657030D01*
X171891753Y-121657028D01*
X171895797Y-121656224D01*
X171899706Y-121654897D01*
X171899710Y-121654896D01*
X172172239Y-121562385D01*
X172172240Y-121562384D01*
X172176145Y-121561059D01*
X172301687Y-121499148D01*
X172437969Y-121431942D01*
X172437974Y-121431939D01*
X172441673Y-121430115D01*
X172500595Y-121390744D01*
X172684407Y-121267926D01*
X172684412Y-121267922D01*
X172687838Y-121265633D01*
X172690932Y-121262919D01*
X172690938Y-121262915D01*
X172907338Y-121073136D01*
X172910427Y-121070427D01*
X172913136Y-121067338D01*
X173102915Y-120850938D01*
X173102919Y-120850932D01*
X173105633Y-120847838D01*
X173270115Y-120601673D01*
X173401059Y-120336145D01*
X173496224Y-120055797D01*
X173553983Y-119765426D01*
X173573346Y-119470000D01*
X183546654Y-119470000D01*
X183566017Y-119765426D01*
X183623776Y-120055797D01*
X183718941Y-120336145D01*
X183849885Y-120601673D01*
X184014367Y-120847838D01*
X184017081Y-120850932D01*
X184017085Y-120850938D01*
X184206864Y-121067338D01*
X184209573Y-121070427D01*
X184212662Y-121073136D01*
X184429062Y-121262915D01*
X184429068Y-121262919D01*
X184432162Y-121265633D01*
X184435588Y-121267922D01*
X184435593Y-121267926D01*
X184619405Y-121390744D01*
X184678327Y-121430115D01*
X184682026Y-121431939D01*
X184682031Y-121431942D01*
X184818313Y-121499148D01*
X184943855Y-121561059D01*
X184947760Y-121562384D01*
X184947761Y-121562385D01*
X185220290Y-121654896D01*
X185220294Y-121654897D01*
X185224203Y-121656224D01*
X185228247Y-121657028D01*
X185228253Y-121657030D01*
X185510535Y-121713180D01*
X185510541Y-121713181D01*
X185514574Y-121713983D01*
X185518679Y-121714252D01*
X185518686Y-121714253D01*
X185805881Y-121733076D01*
X185810000Y-121733346D01*
X185814119Y-121733076D01*
X186101314Y-121714253D01*
X186101321Y-121714252D01*
X186105426Y-121713983D01*
X186109459Y-121713181D01*
X186109465Y-121713180D01*
X186391747Y-121657030D01*
X186391753Y-121657028D01*
X186395797Y-121656224D01*
X186399706Y-121654897D01*
X186399710Y-121654896D01*
X186672239Y-121562385D01*
X186672240Y-121562384D01*
X186676145Y-121561059D01*
X186801687Y-121499148D01*
X186937969Y-121431942D01*
X186937974Y-121431939D01*
X186941673Y-121430115D01*
X187000595Y-121390744D01*
X187184407Y-121267926D01*
X187184412Y-121267922D01*
X187187838Y-121265633D01*
X187190932Y-121262919D01*
X187190938Y-121262915D01*
X187407338Y-121073136D01*
X187410427Y-121070427D01*
X187413136Y-121067338D01*
X187602915Y-120850938D01*
X187602919Y-120850932D01*
X187605633Y-120847838D01*
X187770115Y-120601673D01*
X187901059Y-120336145D01*
X187996224Y-120055797D01*
X188053983Y-119765426D01*
X188073346Y-119470000D01*
X188053983Y-119174574D01*
X187996224Y-118884203D01*
X187901059Y-118603855D01*
X187770115Y-118338327D01*
X187605633Y-118092162D01*
X187602919Y-118089068D01*
X187602915Y-118089062D01*
X187413136Y-117872662D01*
X187410427Y-117869573D01*
X187407338Y-117866864D01*
X187190938Y-117677085D01*
X187190932Y-117677081D01*
X187187838Y-117674367D01*
X187184412Y-117672078D01*
X187184407Y-117672074D01*
X186945106Y-117512179D01*
X186941673Y-117509885D01*
X186937974Y-117508061D01*
X186937969Y-117508058D01*
X186801687Y-117440852D01*
X186676145Y-117378941D01*
X186672239Y-117377615D01*
X186399710Y-117285104D01*
X186399706Y-117285103D01*
X186395797Y-117283776D01*
X186391753Y-117282972D01*
X186391747Y-117282970D01*
X186109465Y-117226820D01*
X186109459Y-117226819D01*
X186105426Y-117226017D01*
X186101321Y-117225748D01*
X186101314Y-117225747D01*
X185814119Y-117206924D01*
X185810000Y-117206654D01*
X185805881Y-117206924D01*
X185518686Y-117225747D01*
X185518679Y-117225748D01*
X185514574Y-117226017D01*
X185510541Y-117226819D01*
X185510535Y-117226820D01*
X185228253Y-117282970D01*
X185228247Y-117282972D01*
X185224203Y-117283776D01*
X185220294Y-117285103D01*
X185220290Y-117285104D01*
X184947761Y-117377615D01*
X184943855Y-117378941D01*
X184818313Y-117440852D01*
X184682031Y-117508058D01*
X184682026Y-117508061D01*
X184678327Y-117509885D01*
X184674894Y-117512179D01*
X184435593Y-117672074D01*
X184435588Y-117672078D01*
X184432162Y-117674367D01*
X184429068Y-117677081D01*
X184429062Y-117677085D01*
X184212662Y-117866864D01*
X184209573Y-117869573D01*
X184206864Y-117872662D01*
X184017085Y-118089062D01*
X184017081Y-118089068D01*
X184014367Y-118092162D01*
X183849885Y-118338327D01*
X183718941Y-118603855D01*
X183623776Y-118884203D01*
X183566017Y-119174574D01*
X183546654Y-119470000D01*
X173573346Y-119470000D01*
X173553983Y-119174574D01*
X173496224Y-118884203D01*
X173401059Y-118603855D01*
X173270115Y-118338327D01*
X173105633Y-118092162D01*
X173102919Y-118089068D01*
X173102915Y-118089062D01*
X172913136Y-117872662D01*
X172910427Y-117869573D01*
X172907338Y-117866864D01*
X172690938Y-117677085D01*
X172690932Y-117677081D01*
X172687838Y-117674367D01*
X172684412Y-117672078D01*
X172684407Y-117672074D01*
X172445106Y-117512179D01*
X172441673Y-117509885D01*
X172437974Y-117508061D01*
X172437969Y-117508058D01*
X172301687Y-117440852D01*
X172176145Y-117378941D01*
X172172239Y-117377615D01*
X171899710Y-117285104D01*
X171899706Y-117285103D01*
X171895797Y-117283776D01*
X171891753Y-117282972D01*
X171891747Y-117282970D01*
X171609465Y-117226820D01*
X171609459Y-117226819D01*
X171605426Y-117226017D01*
X171601321Y-117225748D01*
X171601314Y-117225747D01*
X171314119Y-117206924D01*
X171310000Y-117206654D01*
X171305881Y-117206924D01*
X171018686Y-117225747D01*
X171018679Y-117225748D01*
X171014574Y-117226017D01*
X171010541Y-117226819D01*
X171010535Y-117226820D01*
X170728253Y-117282970D01*
X170728247Y-117282972D01*
X170724203Y-117283776D01*
X170720294Y-117285103D01*
X170720290Y-117285104D01*
X170447761Y-117377615D01*
X170443855Y-117378941D01*
X170318313Y-117440852D01*
X170182031Y-117508058D01*
X170182026Y-117508061D01*
X170178327Y-117509885D01*
X170174894Y-117512179D01*
X169935593Y-117672074D01*
X169935588Y-117672078D01*
X169932162Y-117674367D01*
X169929068Y-117677081D01*
X169929062Y-117677085D01*
X169712662Y-117866864D01*
X169709573Y-117869573D01*
X169706864Y-117872662D01*
X169517085Y-118089062D01*
X169517081Y-118089068D01*
X169514367Y-118092162D01*
X169349885Y-118338327D01*
X169218941Y-118603855D01*
X169123776Y-118884203D01*
X169066017Y-119174574D01*
X169046654Y-119470000D01*
X159073346Y-119470000D01*
X159053983Y-119174574D01*
X158996224Y-118884203D01*
X158901059Y-118603855D01*
X158770115Y-118338327D01*
X158605633Y-118092162D01*
X158602919Y-118089068D01*
X158602915Y-118089062D01*
X158413136Y-117872662D01*
X158410427Y-117869573D01*
X158407338Y-117866864D01*
X158190938Y-117677085D01*
X158190932Y-117677081D01*
X158187838Y-117674367D01*
X158184412Y-117672078D01*
X158184407Y-117672074D01*
X157945106Y-117512179D01*
X157941673Y-117509885D01*
X157937974Y-117508061D01*
X157937969Y-117508058D01*
X157801687Y-117440852D01*
X157676145Y-117378941D01*
X157672239Y-117377615D01*
X157399710Y-117285104D01*
X157399706Y-117285103D01*
X157395797Y-117283776D01*
X157391753Y-117282972D01*
X157391747Y-117282970D01*
X157109465Y-117226820D01*
X157109459Y-117226819D01*
X157105426Y-117226017D01*
X157101321Y-117225748D01*
X157101314Y-117225747D01*
X156814119Y-117206924D01*
X156810000Y-117206654D01*
X156805881Y-117206924D01*
X156518686Y-117225747D01*
X156518679Y-117225748D01*
X156514574Y-117226017D01*
X156510541Y-117226819D01*
X156510535Y-117226820D01*
X156228253Y-117282970D01*
X156228247Y-117282972D01*
X156224203Y-117283776D01*
X156220294Y-117285103D01*
X156220290Y-117285104D01*
X155947761Y-117377615D01*
X155943855Y-117378941D01*
X155818313Y-117440852D01*
X155682031Y-117508058D01*
X155682026Y-117508061D01*
X155678327Y-117509885D01*
X155674894Y-117512179D01*
X155435593Y-117672074D01*
X155435588Y-117672078D01*
X155432162Y-117674367D01*
X155429068Y-117677081D01*
X155429062Y-117677085D01*
X155212662Y-117866864D01*
X155209573Y-117869573D01*
X155206864Y-117872662D01*
X155017085Y-118089062D01*
X155017081Y-118089068D01*
X155014367Y-118092162D01*
X154849885Y-118338327D01*
X154718941Y-118603855D01*
X154623776Y-118884203D01*
X154566017Y-119174574D01*
X154546654Y-119470000D01*
X144573346Y-119470000D01*
X144553983Y-119174574D01*
X144496224Y-118884203D01*
X144401059Y-118603855D01*
X144270115Y-118338327D01*
X144105633Y-118092162D01*
X144102919Y-118089068D01*
X144102915Y-118089062D01*
X143913136Y-117872662D01*
X143910427Y-117869573D01*
X143907338Y-117866864D01*
X143690938Y-117677085D01*
X143690932Y-117677081D01*
X143687838Y-117674367D01*
X143684412Y-117672078D01*
X143684407Y-117672074D01*
X143445106Y-117512179D01*
X143441673Y-117509885D01*
X143437974Y-117508061D01*
X143437969Y-117508058D01*
X143301687Y-117440852D01*
X143176145Y-117378941D01*
X143172239Y-117377615D01*
X142899710Y-117285104D01*
X142899706Y-117285103D01*
X142895797Y-117283776D01*
X142891753Y-117282972D01*
X142891747Y-117282970D01*
X142609465Y-117226820D01*
X142609459Y-117226819D01*
X142605426Y-117226017D01*
X142601321Y-117225748D01*
X142601314Y-117225747D01*
X142314119Y-117206924D01*
X142310000Y-117206654D01*
X142305881Y-117206924D01*
X142018686Y-117225747D01*
X142018679Y-117225748D01*
X142014574Y-117226017D01*
X142010541Y-117226819D01*
X142010535Y-117226820D01*
X141728253Y-117282970D01*
X141728247Y-117282972D01*
X141724203Y-117283776D01*
X141720294Y-117285103D01*
X141720290Y-117285104D01*
X141447761Y-117377615D01*
X141443855Y-117378941D01*
X141318313Y-117440852D01*
X141182031Y-117508058D01*
X141182026Y-117508061D01*
X141178327Y-117509885D01*
X141174894Y-117512179D01*
X140935593Y-117672074D01*
X140935588Y-117672078D01*
X140932162Y-117674367D01*
X140929068Y-117677081D01*
X140929062Y-117677085D01*
X140712662Y-117866864D01*
X140709573Y-117869573D01*
X140706864Y-117872662D01*
X140517085Y-118089062D01*
X140517081Y-118089068D01*
X140514367Y-118092162D01*
X140349885Y-118338327D01*
X140218941Y-118603855D01*
X140123776Y-118884203D01*
X140066017Y-119174574D01*
X140046654Y-119470000D01*
X130073346Y-119470000D01*
X130053983Y-119174574D01*
X129996224Y-118884203D01*
X129901059Y-118603855D01*
X129770115Y-118338327D01*
X129605633Y-118092162D01*
X129602919Y-118089068D01*
X129602915Y-118089062D01*
X129413136Y-117872662D01*
X129410427Y-117869573D01*
X129407338Y-117866864D01*
X129190938Y-117677085D01*
X129190932Y-117677081D01*
X129187838Y-117674367D01*
X129184412Y-117672078D01*
X129184407Y-117672074D01*
X128945106Y-117512179D01*
X128941673Y-117509885D01*
X128937974Y-117508061D01*
X128937969Y-117508058D01*
X128801687Y-117440852D01*
X128676145Y-117378941D01*
X128672239Y-117377615D01*
X128399710Y-117285104D01*
X128399706Y-117285103D01*
X128395797Y-117283776D01*
X128391753Y-117282972D01*
X128391747Y-117282970D01*
X128109465Y-117226820D01*
X128109459Y-117226819D01*
X128105426Y-117226017D01*
X128101321Y-117225748D01*
X128101314Y-117225747D01*
X127814119Y-117206924D01*
X127810000Y-117206654D01*
X127805881Y-117206924D01*
X127518686Y-117225747D01*
X127518679Y-117225748D01*
X127514574Y-117226017D01*
X127510541Y-117226819D01*
X127510535Y-117226820D01*
X127228253Y-117282970D01*
X127228247Y-117282972D01*
X127224203Y-117283776D01*
X127220294Y-117285103D01*
X127220290Y-117285104D01*
X126947761Y-117377615D01*
X126943855Y-117378941D01*
X126818313Y-117440852D01*
X126682031Y-117508058D01*
X126682026Y-117508061D01*
X126678327Y-117509885D01*
X126674894Y-117512179D01*
X126435593Y-117672074D01*
X126435588Y-117672078D01*
X126432162Y-117674367D01*
X126429068Y-117677081D01*
X126429062Y-117677085D01*
X126212662Y-117866864D01*
X126209573Y-117869573D01*
X126206864Y-117872662D01*
X126017085Y-118089062D01*
X126017081Y-118089068D01*
X126014367Y-118092162D01*
X125849885Y-118338327D01*
X125718941Y-118603855D01*
X125623776Y-118884203D01*
X125566017Y-119174574D01*
X125546654Y-119470000D01*
X115573346Y-119470000D01*
X115553983Y-119174574D01*
X115496224Y-118884203D01*
X115401059Y-118603855D01*
X115270115Y-118338327D01*
X115105633Y-118092162D01*
X115102919Y-118089068D01*
X115102915Y-118089062D01*
X114913136Y-117872662D01*
X114910427Y-117869573D01*
X114907338Y-117866864D01*
X114690938Y-117677085D01*
X114690932Y-117677081D01*
X114687838Y-117674367D01*
X114684412Y-117672078D01*
X114684407Y-117672074D01*
X114445106Y-117512179D01*
X114441673Y-117509885D01*
X114437974Y-117508061D01*
X114437969Y-117508058D01*
X114301687Y-117440852D01*
X114176145Y-117378941D01*
X114172239Y-117377615D01*
X113899710Y-117285104D01*
X113899706Y-117285103D01*
X113895797Y-117283776D01*
X113891753Y-117282972D01*
X113891747Y-117282970D01*
X113609465Y-117226820D01*
X113609459Y-117226819D01*
X113605426Y-117226017D01*
X113601321Y-117225748D01*
X113601314Y-117225747D01*
X113314119Y-117206924D01*
X113310000Y-117206654D01*
X113305881Y-117206924D01*
X113018686Y-117225747D01*
X113018679Y-117225748D01*
X113014574Y-117226017D01*
X113010541Y-117226819D01*
X113010535Y-117226820D01*
X112728253Y-117282970D01*
X112728247Y-117282972D01*
X112724203Y-117283776D01*
X112720294Y-117285103D01*
X112720290Y-117285104D01*
X112447761Y-117377615D01*
X112443855Y-117378941D01*
X112318313Y-117440852D01*
X112182031Y-117508058D01*
X112182026Y-117508061D01*
X112178327Y-117509885D01*
X112174894Y-117512179D01*
X111935593Y-117672074D01*
X111935588Y-117672078D01*
X111932162Y-117674367D01*
X111929068Y-117677081D01*
X111929062Y-117677085D01*
X111712662Y-117866864D01*
X111709573Y-117869573D01*
X111706864Y-117872662D01*
X111517085Y-118089062D01*
X111517081Y-118089068D01*
X111514367Y-118092162D01*
X111349885Y-118338327D01*
X111218941Y-118603855D01*
X111123776Y-118884203D01*
X111066017Y-119174574D01*
X111046654Y-119470000D01*
X92568500Y-119470000D01*
X92568500Y-111470000D01*
X196846884Y-111470000D01*
X196865314Y-111680655D01*
X196920044Y-111884910D01*
X197009411Y-112076558D01*
X197130699Y-112249776D01*
X197280224Y-112399301D01*
X197453442Y-112520589D01*
X197458420Y-112522910D01*
X197458423Y-112522912D01*
X197640108Y-112607633D01*
X197645090Y-112609956D01*
X197650398Y-112611378D01*
X197650400Y-112611379D01*
X197844030Y-112663262D01*
X197844032Y-112663262D01*
X197849345Y-112664686D01*
X198060000Y-112683116D01*
X198270655Y-112664686D01*
X198275968Y-112663262D01*
X198275970Y-112663262D01*
X198469600Y-112611379D01*
X198469602Y-112611378D01*
X198474910Y-112609956D01*
X198479892Y-112607633D01*
X198661577Y-112522912D01*
X198661580Y-112522910D01*
X198666558Y-112520589D01*
X198839776Y-112399301D01*
X198989301Y-112249776D01*
X199110589Y-112076558D01*
X199199956Y-111884910D01*
X199254686Y-111680655D01*
X199273116Y-111470000D01*
X199254686Y-111259345D01*
X199199956Y-111055090D01*
X199110589Y-110863442D01*
X198989301Y-110690224D01*
X198839776Y-110540699D01*
X198666558Y-110419411D01*
X198661580Y-110417090D01*
X198661577Y-110417088D01*
X198479892Y-110332367D01*
X198479891Y-110332366D01*
X198474910Y-110330044D01*
X198469602Y-110328622D01*
X198469600Y-110328621D01*
X198275970Y-110276738D01*
X198275968Y-110276738D01*
X198270655Y-110275314D01*
X198060000Y-110256884D01*
X197849345Y-110275314D01*
X197844032Y-110276738D01*
X197844030Y-110276738D01*
X197650400Y-110328621D01*
X197650398Y-110328622D01*
X197645090Y-110330044D01*
X197640109Y-110332366D01*
X197640108Y-110332367D01*
X197458423Y-110417088D01*
X197458420Y-110417090D01*
X197453442Y-110419411D01*
X197280224Y-110540699D01*
X197130699Y-110690224D01*
X197009411Y-110863442D01*
X196920044Y-111055090D01*
X196865314Y-111259345D01*
X196846884Y-111470000D01*
X92568500Y-111470000D01*
X92568500Y-103470000D01*
X185796654Y-103470000D01*
X185816017Y-103765426D01*
X185873776Y-104055797D01*
X185968941Y-104336145D01*
X186099885Y-104601673D01*
X186264367Y-104847838D01*
X186267081Y-104850932D01*
X186267085Y-104850938D01*
X186456864Y-105067338D01*
X186459573Y-105070427D01*
X186462662Y-105073136D01*
X186679062Y-105262915D01*
X186679068Y-105262919D01*
X186682162Y-105265633D01*
X186685588Y-105267922D01*
X186685593Y-105267926D01*
X186869405Y-105390744D01*
X186928327Y-105430115D01*
X186932026Y-105431939D01*
X186932031Y-105431942D01*
X187068313Y-105499148D01*
X187193855Y-105561059D01*
X187197760Y-105562384D01*
X187197761Y-105562385D01*
X187470290Y-105654896D01*
X187470294Y-105654897D01*
X187474203Y-105656224D01*
X187478247Y-105657028D01*
X187478253Y-105657030D01*
X187760535Y-105713180D01*
X187760541Y-105713181D01*
X187764574Y-105713983D01*
X187768679Y-105714252D01*
X187768686Y-105714253D01*
X188055881Y-105733076D01*
X188060000Y-105733346D01*
X188064119Y-105733076D01*
X188351314Y-105714253D01*
X188351321Y-105714252D01*
X188355426Y-105713983D01*
X188359459Y-105713181D01*
X188359465Y-105713180D01*
X188641747Y-105657030D01*
X188641753Y-105657028D01*
X188645797Y-105656224D01*
X188649706Y-105654897D01*
X188649710Y-105654896D01*
X188922239Y-105562385D01*
X188922240Y-105562384D01*
X188926145Y-105561059D01*
X189051687Y-105499148D01*
X189187969Y-105431942D01*
X189187974Y-105431939D01*
X189191673Y-105430115D01*
X189250595Y-105390744D01*
X189434407Y-105267926D01*
X189434412Y-105267922D01*
X189437838Y-105265633D01*
X189440932Y-105262919D01*
X189440938Y-105262915D01*
X189657338Y-105073136D01*
X189660427Y-105070427D01*
X189663136Y-105067338D01*
X189852915Y-104850938D01*
X189852919Y-104850932D01*
X189855633Y-104847838D01*
X190020115Y-104601673D01*
X190151059Y-104336145D01*
X190246224Y-104055797D01*
X190303983Y-103765426D01*
X190323346Y-103470000D01*
X190303983Y-103174574D01*
X190246224Y-102884203D01*
X190151059Y-102603855D01*
X190020115Y-102338327D01*
X189855633Y-102092162D01*
X189852919Y-102089068D01*
X189852915Y-102089062D01*
X189663136Y-101872662D01*
X189660427Y-101869573D01*
X189657338Y-101866864D01*
X189440938Y-101677085D01*
X189440932Y-101677081D01*
X189437838Y-101674367D01*
X189434412Y-101672078D01*
X189434407Y-101672074D01*
X189195106Y-101512179D01*
X189191673Y-101509885D01*
X189187974Y-101508061D01*
X189187969Y-101508058D01*
X189051687Y-101440852D01*
X188926145Y-101378941D01*
X188922239Y-101377615D01*
X188649710Y-101285104D01*
X188649706Y-101285103D01*
X188645797Y-101283776D01*
X188641753Y-101282972D01*
X188641747Y-101282970D01*
X188359465Y-101226820D01*
X188359459Y-101226819D01*
X188355426Y-101226017D01*
X188351321Y-101225748D01*
X188351314Y-101225747D01*
X188064119Y-101206924D01*
X188060000Y-101206654D01*
X188055881Y-101206924D01*
X187768686Y-101225747D01*
X187768679Y-101225748D01*
X187764574Y-101226017D01*
X187760541Y-101226819D01*
X187760535Y-101226820D01*
X187478253Y-101282970D01*
X187478247Y-101282972D01*
X187474203Y-101283776D01*
X187470294Y-101285103D01*
X187470290Y-101285104D01*
X187197761Y-101377615D01*
X187193855Y-101378941D01*
X187068313Y-101440852D01*
X186932031Y-101508058D01*
X186932026Y-101508061D01*
X186928327Y-101509885D01*
X186924894Y-101512179D01*
X186685593Y-101672074D01*
X186685588Y-101672078D01*
X186682162Y-101674367D01*
X186679068Y-101677081D01*
X186679062Y-101677085D01*
X186462662Y-101866864D01*
X186459573Y-101869573D01*
X186456864Y-101872662D01*
X186267085Y-102089062D01*
X186267081Y-102089068D01*
X186264367Y-102092162D01*
X186099885Y-102338327D01*
X185968941Y-102603855D01*
X185873776Y-102884203D01*
X185816017Y-103174574D01*
X185796654Y-103470000D01*
X92568500Y-103470000D01*
X92568500Y-98917404D01*
X131546941Y-98917404D01*
X131573091Y-99216292D01*
X131574001Y-99220364D01*
X131574002Y-99220369D01*
X131637628Y-99505016D01*
X131638540Y-99509095D01*
X131742140Y-99790671D01*
X131744084Y-99794359D01*
X131744088Y-99794367D01*
X131840805Y-99977807D01*
X131882069Y-100056071D01*
X132055871Y-100300633D01*
X132260490Y-100520061D01*
X132492333Y-100710498D01*
X132747325Y-100868600D01*
X133020988Y-100991589D01*
X133195368Y-101043574D01*
X133304514Y-101076112D01*
X133304516Y-101076112D01*
X133308513Y-101077304D01*
X133312633Y-101077957D01*
X133312635Y-101077957D01*
X133332246Y-101081063D01*
X133604848Y-101124239D01*
X133647577Y-101126179D01*
X133697262Y-101128436D01*
X133697281Y-101128436D01*
X133698681Y-101128500D01*
X139386107Y-101128500D01*
X139609370Y-101113671D01*
X139613464Y-101112846D01*
X139613468Y-101112845D01*
X139754513Y-101084405D01*
X139903480Y-101054368D01*
X140187163Y-100956688D01*
X140190896Y-100954819D01*
X140190900Y-100954817D01*
X140451691Y-100824222D01*
X140451693Y-100824221D01*
X140455435Y-100822347D01*
X140703584Y-100653706D01*
X140909047Y-100470000D01*
X196846884Y-100470000D01*
X196865314Y-100680655D01*
X196866738Y-100685968D01*
X196866738Y-100685970D01*
X196872601Y-100707849D01*
X196920044Y-100884910D01*
X196922366Y-100889891D01*
X196922367Y-100889892D01*
X196999064Y-101054368D01*
X197009411Y-101076558D01*
X197130699Y-101249776D01*
X197280224Y-101399301D01*
X197453442Y-101520589D01*
X197458420Y-101522910D01*
X197458423Y-101522912D01*
X197640108Y-101607633D01*
X197645090Y-101609956D01*
X197650398Y-101611378D01*
X197650400Y-101611379D01*
X197844030Y-101663262D01*
X197844032Y-101663262D01*
X197849345Y-101664686D01*
X198060000Y-101683116D01*
X198270655Y-101664686D01*
X198275968Y-101663262D01*
X198275970Y-101663262D01*
X198469600Y-101611379D01*
X198469602Y-101611378D01*
X198474910Y-101609956D01*
X198479892Y-101607633D01*
X198661577Y-101522912D01*
X198661580Y-101522910D01*
X198666558Y-101520589D01*
X198839776Y-101399301D01*
X198989301Y-101249776D01*
X199110589Y-101076558D01*
X199120937Y-101054368D01*
X199197633Y-100889892D01*
X199197634Y-100889891D01*
X199199956Y-100884910D01*
X199247400Y-100707849D01*
X199253262Y-100685970D01*
X199253262Y-100685968D01*
X199254686Y-100680655D01*
X199273116Y-100470000D01*
X199254686Y-100259345D01*
X199199956Y-100055090D01*
X199197633Y-100050108D01*
X199112912Y-99868423D01*
X199112910Y-99868420D01*
X199110589Y-99863442D01*
X198989301Y-99690224D01*
X198839776Y-99540699D01*
X198666558Y-99419411D01*
X198661580Y-99417090D01*
X198661577Y-99417088D01*
X198479892Y-99332367D01*
X198479891Y-99332366D01*
X198474910Y-99330044D01*
X198469602Y-99328622D01*
X198469600Y-99328621D01*
X198275970Y-99276738D01*
X198275968Y-99276738D01*
X198270655Y-99275314D01*
X198060000Y-99256884D01*
X197849345Y-99275314D01*
X197844032Y-99276738D01*
X197844030Y-99276738D01*
X197650400Y-99328621D01*
X197650398Y-99328622D01*
X197645090Y-99330044D01*
X197640109Y-99332366D01*
X197640108Y-99332367D01*
X197458423Y-99417088D01*
X197458420Y-99417090D01*
X197453442Y-99419411D01*
X197280224Y-99540699D01*
X197130699Y-99690224D01*
X197009411Y-99863442D01*
X197007090Y-99868420D01*
X197007088Y-99868423D01*
X196922367Y-100050108D01*
X196920044Y-100055090D01*
X196865314Y-100259345D01*
X196846884Y-100470000D01*
X140909047Y-100470000D01*
X140927248Y-100453726D01*
X140929966Y-100450555D01*
X141119779Y-100229097D01*
X141119782Y-100229093D01*
X141122499Y-100225923D01*
X141124773Y-100222421D01*
X141124777Y-100222416D01*
X141283628Y-99977807D01*
X141283631Y-99977802D01*
X141285907Y-99974297D01*
X141414600Y-99703270D01*
X141467811Y-99537540D01*
X141505038Y-99421591D01*
X141505038Y-99421590D01*
X141506318Y-99417604D01*
X141522328Y-99328621D01*
X141558709Y-99126425D01*
X141558710Y-99126420D01*
X141559448Y-99122316D01*
X141573059Y-98822596D01*
X141546909Y-98523708D01*
X141502832Y-98326515D01*
X141482372Y-98234984D01*
X141482371Y-98234981D01*
X141481460Y-98230905D01*
X141377860Y-97949329D01*
X141375916Y-97945641D01*
X141375912Y-97945633D01*
X141239884Y-97687633D01*
X141239883Y-97687632D01*
X141237931Y-97683929D01*
X141064129Y-97439367D01*
X140859510Y-97219939D01*
X140627667Y-97029502D01*
X140531700Y-96970000D01*
X196846884Y-96970000D01*
X196865314Y-97180655D01*
X196866738Y-97185968D01*
X196866738Y-97185970D01*
X196893615Y-97286274D01*
X196920044Y-97384910D01*
X196922366Y-97389891D01*
X196922367Y-97389892D01*
X196986464Y-97527347D01*
X197009411Y-97576558D01*
X197130699Y-97749776D01*
X197280224Y-97899301D01*
X197453442Y-98020589D01*
X197458420Y-98022910D01*
X197458423Y-98022912D01*
X197577482Y-98078430D01*
X197645090Y-98109956D01*
X197650398Y-98111378D01*
X197650400Y-98111379D01*
X197844030Y-98163262D01*
X197844032Y-98163262D01*
X197849345Y-98164686D01*
X198060000Y-98183116D01*
X198270655Y-98164686D01*
X198275968Y-98163262D01*
X198275970Y-98163262D01*
X198469600Y-98111379D01*
X198469602Y-98111378D01*
X198474910Y-98109956D01*
X198542518Y-98078430D01*
X198661577Y-98022912D01*
X198661580Y-98022910D01*
X198666558Y-98020589D01*
X198839776Y-97899301D01*
X198989301Y-97749776D01*
X199110589Y-97576558D01*
X199133537Y-97527347D01*
X199197633Y-97389892D01*
X199197634Y-97389891D01*
X199199956Y-97384910D01*
X199226386Y-97286274D01*
X199253262Y-97185970D01*
X199253262Y-97185968D01*
X199254686Y-97180655D01*
X199273116Y-96970000D01*
X199254686Y-96759345D01*
X199234713Y-96684805D01*
X199201379Y-96560400D01*
X199201378Y-96560398D01*
X199199956Y-96555090D01*
X199197633Y-96550108D01*
X199112912Y-96368423D01*
X199112910Y-96368420D01*
X199110589Y-96363442D01*
X198989301Y-96190224D01*
X198839776Y-96040699D01*
X198666558Y-95919411D01*
X198661580Y-95917090D01*
X198661577Y-95917088D01*
X198479892Y-95832367D01*
X198479891Y-95832366D01*
X198474910Y-95830044D01*
X198469602Y-95828622D01*
X198469600Y-95828621D01*
X198275970Y-95776738D01*
X198275968Y-95776738D01*
X198270655Y-95775314D01*
X198060000Y-95756884D01*
X197849345Y-95775314D01*
X197844032Y-95776738D01*
X197844030Y-95776738D01*
X197650400Y-95828621D01*
X197650398Y-95828622D01*
X197645090Y-95830044D01*
X197640109Y-95832366D01*
X197640108Y-95832367D01*
X197458423Y-95917088D01*
X197458420Y-95917090D01*
X197453442Y-95919411D01*
X197280224Y-96040699D01*
X197130699Y-96190224D01*
X197009411Y-96363442D01*
X197007090Y-96368420D01*
X197007088Y-96368423D01*
X196922367Y-96550108D01*
X196920044Y-96555090D01*
X196918622Y-96560398D01*
X196918621Y-96560400D01*
X196885287Y-96684805D01*
X196865314Y-96759345D01*
X196846884Y-96970000D01*
X140531700Y-96970000D01*
X140372675Y-96871400D01*
X140099012Y-96748411D01*
X139885650Y-96684805D01*
X139815486Y-96663888D01*
X139815484Y-96663888D01*
X139811487Y-96662696D01*
X139807367Y-96662043D01*
X139807365Y-96662043D01*
X139688491Y-96643215D01*
X139515152Y-96615761D01*
X139472423Y-96613821D01*
X139422738Y-96611564D01*
X139422719Y-96611564D01*
X139421319Y-96611500D01*
X133733893Y-96611500D01*
X133510630Y-96626329D01*
X133506536Y-96627154D01*
X133506532Y-96627155D01*
X133390810Y-96650489D01*
X133216520Y-96685632D01*
X132932837Y-96783312D01*
X132929104Y-96785181D01*
X132929100Y-96785183D01*
X132668309Y-96915778D01*
X132664565Y-96917653D01*
X132416416Y-97086294D01*
X132192752Y-97286274D01*
X132190035Y-97289444D01*
X132190034Y-97289445D01*
X132064155Y-97436311D01*
X131997501Y-97514077D01*
X131995227Y-97517579D01*
X131995223Y-97517584D01*
X131836372Y-97762193D01*
X131834093Y-97765703D01*
X131705400Y-98036730D01*
X131704121Y-98040713D01*
X131704120Y-98040716D01*
X131664164Y-98165165D01*
X131613682Y-98322396D01*
X131560552Y-98617684D01*
X131546941Y-98917404D01*
X92568500Y-98917404D01*
X92568500Y-96655774D01*
X98273102Y-96655774D01*
X98273302Y-96661103D01*
X98273302Y-96661105D01*
X98274192Y-96684805D01*
X98281751Y-96886158D01*
X98329093Y-97111791D01*
X98331051Y-97116750D01*
X98331052Y-97116752D01*
X98354125Y-97175175D01*
X98413776Y-97326221D01*
X98416543Y-97330780D01*
X98416544Y-97330783D01*
X98478998Y-97433703D01*
X98533377Y-97523317D01*
X98536874Y-97527347D01*
X98675963Y-97687633D01*
X98684477Y-97697445D01*
X98688608Y-97700832D01*
X98858627Y-97840240D01*
X98858633Y-97840244D01*
X98862755Y-97843624D01*
X98867391Y-97846263D01*
X98867394Y-97846265D01*
X98966115Y-97902460D01*
X99063114Y-97957675D01*
X99279825Y-98036337D01*
X99285074Y-98037286D01*
X99285077Y-98037287D01*
X99502608Y-98076623D01*
X99502615Y-98076624D01*
X99506692Y-98077361D01*
X99524414Y-98078197D01*
X99529356Y-98078430D01*
X99529363Y-98078430D01*
X99530844Y-98078500D01*
X99842890Y-98078500D01*
X99909809Y-98072822D01*
X100009409Y-98064371D01*
X100009413Y-98064370D01*
X100014720Y-98063920D01*
X100019875Y-98062582D01*
X100019881Y-98062581D01*
X100232703Y-98007343D01*
X100232707Y-98007342D01*
X100237872Y-98006001D01*
X100242738Y-98003809D01*
X100242741Y-98003808D01*
X100443202Y-97913507D01*
X100448075Y-97911312D01*
X100639319Y-97782559D01*
X100669602Y-97753671D01*
X100738827Y-97687633D01*
X100806135Y-97623424D01*
X100943754Y-97438458D01*
X101048240Y-97232949D01*
X101053103Y-97217290D01*
X101115024Y-97017871D01*
X101116607Y-97012773D01*
X101129214Y-96917653D01*
X101146198Y-96789511D01*
X101146198Y-96789506D01*
X101146898Y-96784226D01*
X101145554Y-96748411D01*
X101140594Y-96616310D01*
X101138249Y-96553842D01*
X101090907Y-96328209D01*
X101006224Y-96113779D01*
X100964242Y-96044594D01*
X100889390Y-95921243D01*
X100886623Y-95916683D01*
X100799755Y-95816576D01*
X100739023Y-95746588D01*
X100739021Y-95746586D01*
X100735523Y-95742555D01*
X100699880Y-95713330D01*
X100659886Y-95654671D01*
X100657954Y-95583701D01*
X100694698Y-95522952D01*
X100713468Y-95508752D01*
X100853120Y-95422332D01*
X100859348Y-95418478D01*
X100984305Y-95293303D01*
X101021018Y-95233744D01*
X101073275Y-95148968D01*
X101073276Y-95148966D01*
X101077115Y-95142738D01*
X101112924Y-95034777D01*
X101130632Y-94981389D01*
X101130632Y-94981387D01*
X101132797Y-94974861D01*
X101143500Y-94870400D01*
X101143500Y-93569600D01*
X101143163Y-93566350D01*
X101133238Y-93470692D01*
X101133237Y-93470688D01*
X101132526Y-93463834D01*
X101076568Y-93296107D01*
X134701500Y-93296107D01*
X134716329Y-93519370D01*
X134717154Y-93523464D01*
X134717155Y-93523468D01*
X134733714Y-93605590D01*
X134775632Y-93813480D01*
X134873312Y-94097163D01*
X134875181Y-94100896D01*
X134875183Y-94100900D01*
X134911647Y-94173716D01*
X135007653Y-94365435D01*
X135032398Y-94401846D01*
X135150550Y-94575702D01*
X135176294Y-94613584D01*
X135376274Y-94837248D01*
X135379444Y-94839965D01*
X135379445Y-94839966D01*
X135600903Y-95029779D01*
X135600907Y-95029782D01*
X135604077Y-95032499D01*
X135607579Y-95034773D01*
X135607584Y-95034777D01*
X135852193Y-95193628D01*
X135852198Y-95193631D01*
X135855703Y-95195907D01*
X136126730Y-95324600D01*
X136130713Y-95325879D01*
X136130716Y-95325880D01*
X136408409Y-95415038D01*
X136412396Y-95416318D01*
X136439313Y-95421161D01*
X136703575Y-95468709D01*
X136703580Y-95468710D01*
X136707684Y-95469448D01*
X136711851Y-95469637D01*
X136711858Y-95469638D01*
X137003234Y-95482870D01*
X137003240Y-95482870D01*
X137007404Y-95483059D01*
X137011552Y-95482696D01*
X137011556Y-95482696D01*
X137202290Y-95466008D01*
X137306292Y-95456909D01*
X137310364Y-95455999D01*
X137310369Y-95455998D01*
X137595016Y-95392372D01*
X137595019Y-95392371D01*
X137599095Y-95391460D01*
X137880671Y-95287860D01*
X137884359Y-95285916D01*
X137884367Y-95285912D01*
X138142367Y-95149884D01*
X138142368Y-95149883D01*
X138146071Y-95147931D01*
X138390633Y-94974129D01*
X138610061Y-94769510D01*
X138800498Y-94537667D01*
X138958600Y-94282675D01*
X139081589Y-94009012D01*
X139141103Y-93809377D01*
X139166112Y-93725486D01*
X139166112Y-93725484D01*
X139167304Y-93721487D01*
X139214239Y-93425152D01*
X139218500Y-93331319D01*
X139218500Y-93296107D01*
X142701500Y-93296107D01*
X142716329Y-93519370D01*
X142717154Y-93523464D01*
X142717155Y-93523468D01*
X142733714Y-93605590D01*
X142775632Y-93813480D01*
X142873312Y-94097163D01*
X142875181Y-94100896D01*
X142875183Y-94100900D01*
X142911647Y-94173716D01*
X143007653Y-94365435D01*
X143032398Y-94401846D01*
X143150550Y-94575702D01*
X143176294Y-94613584D01*
X143376274Y-94837248D01*
X143379444Y-94839965D01*
X143379445Y-94839966D01*
X143600903Y-95029779D01*
X143600907Y-95029782D01*
X143604077Y-95032499D01*
X143607579Y-95034773D01*
X143607584Y-95034777D01*
X143852193Y-95193628D01*
X143852198Y-95193631D01*
X143855703Y-95195907D01*
X144126730Y-95324600D01*
X144130713Y-95325879D01*
X144130716Y-95325880D01*
X144408409Y-95415038D01*
X144412396Y-95416318D01*
X144439313Y-95421161D01*
X144703575Y-95468709D01*
X144703580Y-95468710D01*
X144707684Y-95469448D01*
X144711851Y-95469637D01*
X144711858Y-95469638D01*
X145003234Y-95482870D01*
X145003240Y-95482870D01*
X145007404Y-95483059D01*
X145011552Y-95482696D01*
X145011556Y-95482696D01*
X145202290Y-95466008D01*
X145306292Y-95456909D01*
X145310364Y-95455999D01*
X145310369Y-95455998D01*
X145595016Y-95392372D01*
X145595019Y-95392371D01*
X145599095Y-95391460D01*
X145880671Y-95287860D01*
X145884359Y-95285916D01*
X145884367Y-95285912D01*
X146142367Y-95149884D01*
X146142368Y-95149883D01*
X146146071Y-95147931D01*
X146390633Y-94974129D01*
X146610061Y-94769510D01*
X146800498Y-94537667D01*
X146958600Y-94282675D01*
X147081589Y-94009012D01*
X147126012Y-93860000D01*
X163486496Y-93860000D01*
X163487186Y-93866565D01*
X163502158Y-94009012D01*
X163506458Y-94049928D01*
X163565473Y-94231556D01*
X163660960Y-94396944D01*
X163714262Y-94456142D01*
X163727762Y-94474138D01*
X163733884Y-94484031D01*
X163785269Y-94535327D01*
X163788143Y-94538196D01*
X163787462Y-94538878D01*
X163788113Y-94539933D01*
X163788997Y-94539047D01*
X163856997Y-94606929D01*
X164005080Y-94698209D01*
X164170191Y-94752974D01*
X164177027Y-94753674D01*
X164177030Y-94753675D01*
X164269734Y-94763173D01*
X164269739Y-94763173D01*
X164272928Y-94763500D01*
X164273936Y-94763500D01*
X164292302Y-94765905D01*
X164295338Y-94766550D01*
X164298057Y-94767128D01*
X164298060Y-94767128D01*
X164304513Y-94768500D01*
X164495487Y-94768500D01*
X164501942Y-94767128D01*
X164501951Y-94767127D01*
X164506057Y-94766254D01*
X164532255Y-94763500D01*
X164872072Y-94763500D01*
X164875318Y-94763163D01*
X164875322Y-94763163D01*
X164969235Y-94753419D01*
X164969239Y-94753418D01*
X164976093Y-94752707D01*
X164982629Y-94750526D01*
X164982631Y-94750526D01*
X165115395Y-94706232D01*
X165141107Y-94697654D01*
X165289031Y-94606116D01*
X165332981Y-94562089D01*
X165406758Y-94488184D01*
X165406762Y-94488179D01*
X165411929Y-94483003D01*
X165464977Y-94396944D01*
X165499369Y-94341150D01*
X165499370Y-94341148D01*
X165503209Y-94334920D01*
X165557974Y-94169809D01*
X165568500Y-94067072D01*
X165568500Y-93492928D01*
X165568035Y-93488444D01*
X165558419Y-93395765D01*
X165558418Y-93395761D01*
X165557707Y-93388907D01*
X165538023Y-93329905D01*
X165504972Y-93230841D01*
X165502654Y-93223893D01*
X165411116Y-93075969D01*
X165405934Y-93070796D01*
X165405930Y-93070791D01*
X165311111Y-92976138D01*
X165277031Y-92913856D01*
X165282034Y-92843036D01*
X165314671Y-92795016D01*
X165316253Y-92793866D01*
X165375167Y-92728436D01*
X165439621Y-92656852D01*
X165439622Y-92656851D01*
X165444040Y-92651944D01*
X165539527Y-92486556D01*
X165598542Y-92304928D01*
X165603679Y-92256057D01*
X165617814Y-92121565D01*
X165618504Y-92115000D01*
X165598542Y-91925072D01*
X165594667Y-91913146D01*
X165588500Y-91874210D01*
X165588500Y-90971866D01*
X165581745Y-90909684D01*
X165530615Y-90773295D01*
X165443261Y-90656739D01*
X165326705Y-90569385D01*
X165190316Y-90518255D01*
X165128134Y-90511500D01*
X165002566Y-90511500D01*
X164951318Y-90500607D01*
X164813820Y-90439389D01*
X164813812Y-90439386D01*
X164807785Y-90436703D01*
X164709539Y-90415820D01*
X164627441Y-90398369D01*
X164627436Y-90398369D01*
X164620984Y-90396997D01*
X164430010Y-90396997D01*
X164423558Y-90398369D01*
X164423553Y-90398369D01*
X164341455Y-90415820D01*
X164243209Y-90436703D01*
X164237179Y-90439388D01*
X164237178Y-90439388D01*
X164097598Y-90501533D01*
X164068745Y-90514379D01*
X164063407Y-90518257D01*
X164060818Y-90519752D01*
X164042047Y-90528615D01*
X163933295Y-90569385D01*
X163816739Y-90656739D01*
X163729385Y-90773295D01*
X163678255Y-90909684D01*
X163671500Y-90971866D01*
X163671500Y-90975282D01*
X163671316Y-90978680D01*
X163670749Y-90978649D01*
X163665333Y-91012843D01*
X163631955Y-91115569D01*
X163631265Y-91122130D01*
X163631265Y-91122132D01*
X163627707Y-91155989D01*
X163611993Y-91305497D01*
X163612683Y-91312062D01*
X163631158Y-91487839D01*
X163631955Y-91495425D01*
X163633995Y-91501703D01*
X163665333Y-91598151D01*
X163671500Y-91637087D01*
X163671500Y-92268134D01*
X163678255Y-92330316D01*
X163729385Y-92466705D01*
X163816739Y-92583261D01*
X163933295Y-92670615D01*
X163941695Y-92673764D01*
X163946690Y-92676499D01*
X163996834Y-92726758D01*
X164011847Y-92796149D01*
X163986960Y-92862641D01*
X163952486Y-92894158D01*
X163855969Y-92953884D01*
X163850796Y-92959066D01*
X163738242Y-93071816D01*
X163738238Y-93071821D01*
X163733071Y-93076997D01*
X163729231Y-93083227D01*
X163729230Y-93083228D01*
X163646364Y-93217662D01*
X163641791Y-93225080D01*
X163587026Y-93390191D01*
X163586325Y-93397037D01*
X163582185Y-93437442D01*
X163569739Y-93475924D01*
X163571462Y-93476691D01*
X163568777Y-93482721D01*
X163565473Y-93488444D01*
X163506458Y-93670072D01*
X163486496Y-93860000D01*
X147126012Y-93860000D01*
X147141103Y-93809377D01*
X147166112Y-93725486D01*
X147166112Y-93725484D01*
X147167304Y-93721487D01*
X147214239Y-93425152D01*
X147218500Y-93331319D01*
X147218500Y-87643893D01*
X147203671Y-87420630D01*
X147202345Y-87414050D01*
X147155683Y-87182637D01*
X147144368Y-87126520D01*
X147046688Y-86842837D01*
X147030106Y-86809722D01*
X146914222Y-86578309D01*
X146914221Y-86578307D01*
X146912347Y-86574565D01*
X146841294Y-86470013D01*
X146746057Y-86329875D01*
X146746055Y-86329872D01*
X146743706Y-86326416D01*
X146543726Y-86102752D01*
X146387350Y-85968721D01*
X146319097Y-85910221D01*
X146319093Y-85910218D01*
X146315923Y-85907501D01*
X146312421Y-85905227D01*
X146312416Y-85905223D01*
X146067807Y-85746372D01*
X146067802Y-85746369D01*
X146064297Y-85744093D01*
X145793270Y-85615400D01*
X145789287Y-85614121D01*
X145789284Y-85614120D01*
X145511591Y-85524962D01*
X145511590Y-85524962D01*
X145507604Y-85523682D01*
X145426610Y-85509109D01*
X145216425Y-85471291D01*
X145216420Y-85471290D01*
X145212316Y-85470552D01*
X145208149Y-85470363D01*
X145208142Y-85470362D01*
X144916766Y-85457130D01*
X144916760Y-85457130D01*
X144912596Y-85456941D01*
X144908448Y-85457304D01*
X144908444Y-85457304D01*
X144748579Y-85471291D01*
X144613708Y-85483091D01*
X144609636Y-85484001D01*
X144609631Y-85484002D01*
X144324984Y-85547628D01*
X144324981Y-85547629D01*
X144320905Y-85548540D01*
X144316982Y-85549984D01*
X144316980Y-85549984D01*
X144234483Y-85580337D01*
X144039329Y-85652140D01*
X144035641Y-85654084D01*
X144035633Y-85654088D01*
X143825602Y-85764825D01*
X143773929Y-85792069D01*
X143529367Y-85965871D01*
X143309939Y-86170490D01*
X143119502Y-86402333D01*
X142961400Y-86657325D01*
X142838411Y-86930988D01*
X142814891Y-87009885D01*
X142760042Y-87193873D01*
X142752696Y-87218513D01*
X142705761Y-87514848D01*
X142705602Y-87518357D01*
X142702041Y-87596775D01*
X142701500Y-87608681D01*
X142701500Y-93296107D01*
X139218500Y-93296107D01*
X139218500Y-87643893D01*
X139203671Y-87420630D01*
X139202345Y-87414050D01*
X139155683Y-87182637D01*
X139144368Y-87126520D01*
X139046688Y-86842837D01*
X139030106Y-86809722D01*
X138914222Y-86578309D01*
X138914221Y-86578307D01*
X138912347Y-86574565D01*
X138841294Y-86470013D01*
X138746057Y-86329875D01*
X138746055Y-86329872D01*
X138743706Y-86326416D01*
X138543726Y-86102752D01*
X138387350Y-85968721D01*
X138319097Y-85910221D01*
X138319093Y-85910218D01*
X138315923Y-85907501D01*
X138312421Y-85905227D01*
X138312416Y-85905223D01*
X138067807Y-85746372D01*
X138067802Y-85746369D01*
X138064297Y-85744093D01*
X137793270Y-85615400D01*
X137789287Y-85614121D01*
X137789284Y-85614120D01*
X137511591Y-85524962D01*
X137511590Y-85524962D01*
X137507604Y-85523682D01*
X137426610Y-85509109D01*
X137216425Y-85471291D01*
X137216420Y-85471290D01*
X137212316Y-85470552D01*
X137208149Y-85470363D01*
X137208142Y-85470362D01*
X136916766Y-85457130D01*
X136916760Y-85457130D01*
X136912596Y-85456941D01*
X136908448Y-85457304D01*
X136908444Y-85457304D01*
X136748579Y-85471291D01*
X136613708Y-85483091D01*
X136609636Y-85484001D01*
X136609631Y-85484002D01*
X136324984Y-85547628D01*
X136324981Y-85547629D01*
X136320905Y-85548540D01*
X136316982Y-85549984D01*
X136316980Y-85549984D01*
X136234483Y-85580337D01*
X136039329Y-85652140D01*
X136035641Y-85654084D01*
X136035633Y-85654088D01*
X135825602Y-85764825D01*
X135773929Y-85792069D01*
X135529367Y-85965871D01*
X135309939Y-86170490D01*
X135119502Y-86402333D01*
X134961400Y-86657325D01*
X134838411Y-86930988D01*
X134814891Y-87009885D01*
X134760042Y-87193873D01*
X134752696Y-87218513D01*
X134705761Y-87514848D01*
X134705602Y-87518357D01*
X134702041Y-87596775D01*
X134701500Y-87608681D01*
X134701500Y-93296107D01*
X101076568Y-93296107D01*
X101076550Y-93296054D01*
X100983478Y-93145652D01*
X100858303Y-93020695D01*
X100852072Y-93016854D01*
X100713968Y-92931725D01*
X100713966Y-92931724D01*
X100707738Y-92927885D01*
X100547254Y-92874655D01*
X100546389Y-92874368D01*
X100546387Y-92874368D01*
X100539861Y-92872203D01*
X100533025Y-92871503D01*
X100533022Y-92871502D01*
X100489969Y-92867091D01*
X100435400Y-92861500D01*
X98984600Y-92861500D01*
X98981354Y-92861837D01*
X98981350Y-92861837D01*
X98885692Y-92871762D01*
X98885688Y-92871763D01*
X98878834Y-92872474D01*
X98872298Y-92874655D01*
X98872296Y-92874655D01*
X98813827Y-92894162D01*
X98711054Y-92928450D01*
X98560652Y-93021522D01*
X98435695Y-93146697D01*
X98431855Y-93152927D01*
X98431854Y-93152928D01*
X98383828Y-93230841D01*
X98342885Y-93297262D01*
X98340581Y-93304209D01*
X98296390Y-93437442D01*
X98287203Y-93465139D01*
X98276500Y-93569600D01*
X98276500Y-94870400D01*
X98287474Y-94976166D01*
X98289655Y-94982702D01*
X98289655Y-94982704D01*
X98326402Y-95092847D01*
X98343450Y-95143946D01*
X98436522Y-95294348D01*
X98561697Y-95419305D01*
X98707340Y-95509081D01*
X98754832Y-95561852D01*
X98766256Y-95631924D01*
X98737982Y-95697048D01*
X98728195Y-95707510D01*
X98613865Y-95816576D01*
X98476246Y-96001542D01*
X98473830Y-96006293D01*
X98473828Y-96006297D01*
X98454357Y-96044594D01*
X98371760Y-96207051D01*
X98370178Y-96212145D01*
X98370177Y-96212148D01*
X98324598Y-96358937D01*
X98303393Y-96427227D01*
X98302692Y-96432516D01*
X98277005Y-96626329D01*
X98273102Y-96655774D01*
X92568500Y-96655774D01*
X92568500Y-90517404D01*
X122046941Y-90517404D01*
X122047304Y-90521552D01*
X122047304Y-90521556D01*
X122059760Y-90663919D01*
X122073091Y-90816292D01*
X122074001Y-90820364D01*
X122074002Y-90820369D01*
X122128099Y-91062385D01*
X122138540Y-91109095D01*
X122139984Y-91113018D01*
X122139984Y-91113020D01*
X122155794Y-91155989D01*
X122242140Y-91390671D01*
X122244084Y-91394359D01*
X122244088Y-91394367D01*
X122340805Y-91577807D01*
X122382069Y-91656071D01*
X122555871Y-91900633D01*
X122760490Y-92120061D01*
X122992333Y-92310498D01*
X123247325Y-92468600D01*
X123520988Y-92591589D01*
X123695368Y-92643574D01*
X123804514Y-92676112D01*
X123804516Y-92676112D01*
X123808513Y-92677304D01*
X123812633Y-92677957D01*
X123812635Y-92677957D01*
X123931509Y-92696785D01*
X124104848Y-92724239D01*
X124147577Y-92726179D01*
X124197262Y-92728436D01*
X124197281Y-92728436D01*
X124198681Y-92728500D01*
X129886107Y-92728500D01*
X130109370Y-92713671D01*
X130113464Y-92712846D01*
X130113468Y-92712845D01*
X130254513Y-92684405D01*
X130403480Y-92654368D01*
X130687163Y-92556688D01*
X130690896Y-92554819D01*
X130690900Y-92554817D01*
X130951691Y-92424222D01*
X130951693Y-92424221D01*
X130955435Y-92422347D01*
X131137870Y-92298365D01*
X131200125Y-92256057D01*
X131200128Y-92256055D01*
X131203584Y-92253706D01*
X131427248Y-92053726D01*
X131547740Y-91913146D01*
X131619779Y-91829097D01*
X131619782Y-91829093D01*
X131622499Y-91825923D01*
X131624773Y-91822421D01*
X131624777Y-91822416D01*
X131783628Y-91577807D01*
X131783631Y-91577802D01*
X131785907Y-91574297D01*
X131808107Y-91527545D01*
X131862569Y-91412848D01*
X131914600Y-91303270D01*
X131917898Y-91293000D01*
X132005038Y-91021591D01*
X132005038Y-91021590D01*
X132006318Y-91017604D01*
X132051242Y-90767926D01*
X132058709Y-90726425D01*
X132058710Y-90726420D01*
X132059448Y-90722316D01*
X132062671Y-90651358D01*
X132072870Y-90426766D01*
X132072870Y-90426760D01*
X132073059Y-90422596D01*
X132070940Y-90398369D01*
X132047273Y-90127870D01*
X132046909Y-90123708D01*
X132040715Y-90095995D01*
X131982372Y-89834984D01*
X131982371Y-89834981D01*
X131981460Y-89830905D01*
X131877860Y-89549329D01*
X131875916Y-89545641D01*
X131875912Y-89545633D01*
X131739884Y-89287633D01*
X131739883Y-89287632D01*
X131737931Y-89283929D01*
X131564129Y-89039367D01*
X131359510Y-88819939D01*
X131127667Y-88629502D01*
X130872675Y-88471400D01*
X130599012Y-88348411D01*
X130385650Y-88284805D01*
X130315486Y-88263888D01*
X130315484Y-88263888D01*
X130311487Y-88262696D01*
X130307367Y-88262043D01*
X130307365Y-88262043D01*
X130188491Y-88243215D01*
X130015152Y-88215761D01*
X129972423Y-88213821D01*
X129922738Y-88211564D01*
X129922719Y-88211564D01*
X129921319Y-88211500D01*
X124233893Y-88211500D01*
X124010630Y-88226329D01*
X124006536Y-88227154D01*
X124006532Y-88227155D01*
X123865487Y-88255595D01*
X123716520Y-88285632D01*
X123432837Y-88383312D01*
X123429104Y-88385181D01*
X123429100Y-88385183D01*
X123168309Y-88515778D01*
X123164565Y-88517653D01*
X123060013Y-88588706D01*
X122933662Y-88674574D01*
X122916416Y-88686294D01*
X122692752Y-88886274D01*
X122690035Y-88889444D01*
X122690034Y-88889445D01*
X122527721Y-89078819D01*
X122497501Y-89114077D01*
X122495227Y-89117579D01*
X122495223Y-89117584D01*
X122336372Y-89362193D01*
X122334093Y-89365703D01*
X122332299Y-89369482D01*
X122332298Y-89369483D01*
X122316600Y-89402543D01*
X122205400Y-89636730D01*
X122204121Y-89640713D01*
X122204120Y-89640716D01*
X122144317Y-89826980D01*
X122113682Y-89922396D01*
X122112941Y-89926515D01*
X122063790Y-90199690D01*
X122060552Y-90217684D01*
X122060363Y-90221851D01*
X122060362Y-90221858D01*
X122047209Y-90511500D01*
X122046941Y-90517404D01*
X92568500Y-90517404D01*
X92568500Y-88370214D01*
X105457589Y-88370214D01*
X105457764Y-88374666D01*
X105461565Y-88471400D01*
X105468144Y-88638863D01*
X105516447Y-88903344D01*
X105601534Y-89158381D01*
X105603527Y-89162369D01*
X105682608Y-89320634D01*
X105721707Y-89398884D01*
X105874568Y-89620056D01*
X106057067Y-89817482D01*
X106060521Y-89820294D01*
X106262107Y-89984411D01*
X106262111Y-89984414D01*
X106265564Y-89987225D01*
X106495897Y-90125897D01*
X106591777Y-90166497D01*
X106739369Y-90228995D01*
X106739374Y-90228997D01*
X106743472Y-90230732D01*
X106747769Y-90231871D01*
X106747774Y-90231873D01*
X106873410Y-90265184D01*
X107003348Y-90299636D01*
X107270340Y-90331237D01*
X107539121Y-90324903D01*
X107690923Y-90299636D01*
X107799938Y-90281491D01*
X107799942Y-90281490D01*
X107804328Y-90280760D01*
X107808569Y-90279419D01*
X107808572Y-90279418D01*
X108056424Y-90201033D01*
X108056426Y-90201032D01*
X108060670Y-90199690D01*
X108064681Y-90197764D01*
X108064686Y-90197762D01*
X108299012Y-90085240D01*
X108299013Y-90085239D01*
X108303031Y-90083310D01*
X108339279Y-90059090D01*
X108522869Y-89936420D01*
X108522873Y-89936417D01*
X108526577Y-89933942D01*
X108529894Y-89930971D01*
X108529898Y-89930968D01*
X108723528Y-89757538D01*
X108723529Y-89757537D01*
X108726846Y-89754566D01*
X108899842Y-89548761D01*
X108952710Y-89463990D01*
X109005730Y-89416774D01*
X109075860Y-89405718D01*
X109140835Y-89434332D01*
X109163275Y-89459028D01*
X109274568Y-89620056D01*
X109457067Y-89817482D01*
X109460521Y-89820294D01*
X109662107Y-89984411D01*
X109662111Y-89984414D01*
X109665564Y-89987225D01*
X109895897Y-90125897D01*
X109991777Y-90166497D01*
X110139369Y-90228995D01*
X110139374Y-90228997D01*
X110143472Y-90230732D01*
X110147769Y-90231871D01*
X110147774Y-90231873D01*
X110273410Y-90265184D01*
X110403348Y-90299636D01*
X110670340Y-90331237D01*
X110939121Y-90324903D01*
X111090923Y-90299636D01*
X111199938Y-90281491D01*
X111199942Y-90281490D01*
X111204328Y-90280760D01*
X111208569Y-90279419D01*
X111208572Y-90279418D01*
X111456424Y-90201033D01*
X111456426Y-90201032D01*
X111460670Y-90199690D01*
X111464681Y-90197764D01*
X111464686Y-90197762D01*
X111699012Y-90085240D01*
X111699013Y-90085239D01*
X111703031Y-90083310D01*
X111739279Y-90059090D01*
X111922869Y-89936420D01*
X111922873Y-89936417D01*
X111926577Y-89933942D01*
X111929894Y-89930971D01*
X111929898Y-89930968D01*
X112123528Y-89757538D01*
X112123529Y-89757537D01*
X112126846Y-89754566D01*
X112299842Y-89548761D01*
X112442115Y-89320634D01*
X112550825Y-89074737D01*
X112560801Y-89039367D01*
X112622595Y-88820260D01*
X112623804Y-88815975D01*
X112647593Y-88638863D01*
X112659167Y-88552694D01*
X112659168Y-88552686D01*
X112659594Y-88549512D01*
X112663350Y-88430000D01*
X112660108Y-88384203D01*
X112644677Y-88166265D01*
X112644362Y-88161816D01*
X112587775Y-87898982D01*
X112565170Y-87837707D01*
X112496260Y-87650921D01*
X112494719Y-87646744D01*
X112367052Y-87410134D01*
X112207319Y-87193873D01*
X112179059Y-87165165D01*
X112039022Y-87022912D01*
X112018708Y-87002276D01*
X112015169Y-86999575D01*
X112015162Y-86999569D01*
X111808523Y-86841868D01*
X111804983Y-86839166D01*
X111744100Y-86805070D01*
X111574293Y-86709973D01*
X111574290Y-86709972D01*
X111570407Y-86707797D01*
X111566262Y-86706193D01*
X111566259Y-86706192D01*
X111323805Y-86612394D01*
X111319662Y-86610791D01*
X111315337Y-86609788D01*
X111315332Y-86609787D01*
X111148423Y-86571100D01*
X111057750Y-86550083D01*
X110789897Y-86526885D01*
X110785462Y-86527129D01*
X110785458Y-86527129D01*
X110667232Y-86533635D01*
X110521447Y-86541658D01*
X110356015Y-86574565D01*
X110262125Y-86593241D01*
X110262123Y-86593242D01*
X110257757Y-86594110D01*
X110004089Y-86683192D01*
X109765502Y-86807127D01*
X109761875Y-86809719D01*
X109761870Y-86809722D01*
X109550386Y-86960852D01*
X109546759Y-86963444D01*
X109352223Y-87149022D01*
X109349467Y-87152517D01*
X109349466Y-87152519D01*
X109300593Y-87214514D01*
X109185776Y-87360159D01*
X109183540Y-87364008D01*
X109183539Y-87364010D01*
X109169584Y-87388036D01*
X109118074Y-87436895D01*
X109048325Y-87450149D01*
X108982484Y-87423590D01*
X108959279Y-87399610D01*
X108809972Y-87197465D01*
X108807319Y-87193873D01*
X108779059Y-87165165D01*
X108639022Y-87022912D01*
X108618708Y-87002276D01*
X108615169Y-86999575D01*
X108615162Y-86999569D01*
X108408523Y-86841868D01*
X108404983Y-86839166D01*
X108344100Y-86805070D01*
X108174293Y-86709973D01*
X108174290Y-86709972D01*
X108170407Y-86707797D01*
X108166262Y-86706193D01*
X108166259Y-86706192D01*
X107923805Y-86612394D01*
X107919662Y-86610791D01*
X107915337Y-86609788D01*
X107915332Y-86609787D01*
X107748423Y-86571100D01*
X107657750Y-86550083D01*
X107389897Y-86526885D01*
X107385462Y-86527129D01*
X107385458Y-86527129D01*
X107267232Y-86533635D01*
X107121447Y-86541658D01*
X106956015Y-86574565D01*
X106862125Y-86593241D01*
X106862123Y-86593242D01*
X106857757Y-86594110D01*
X106604089Y-86683192D01*
X106365502Y-86807127D01*
X106361875Y-86809719D01*
X106361870Y-86809722D01*
X106150386Y-86960852D01*
X106146759Y-86963444D01*
X105952223Y-87149022D01*
X105949467Y-87152517D01*
X105949466Y-87152519D01*
X105914034Y-87197465D01*
X105785776Y-87360159D01*
X105748229Y-87424801D01*
X105652977Y-87588788D01*
X105652974Y-87588794D01*
X105650739Y-87592642D01*
X105649065Y-87596775D01*
X105552618Y-87834894D01*
X105549807Y-87841833D01*
X105548736Y-87846146D01*
X105548734Y-87846151D01*
X105535611Y-87898982D01*
X105484992Y-88102759D01*
X105484538Y-88107190D01*
X105479387Y-88157461D01*
X105457589Y-88370214D01*
X92568500Y-88370214D01*
X92568500Y-84854951D01*
X166765694Y-84854951D01*
X166766384Y-84861516D01*
X166784885Y-85037540D01*
X166785656Y-85044879D01*
X166844671Y-85226507D01*
X166847974Y-85232229D01*
X166847975Y-85232230D01*
X166875917Y-85280626D01*
X166940158Y-85391895D01*
X167013335Y-85473166D01*
X167044051Y-85537172D01*
X167045698Y-85557475D01*
X167045698Y-90229556D01*
X167045171Y-90240739D01*
X167043496Y-90248232D01*
X167043745Y-90256158D01*
X167043745Y-90256159D01*
X167045636Y-90316309D01*
X167045698Y-90320268D01*
X167045698Y-90348179D01*
X167046195Y-90352113D01*
X167046195Y-90352114D01*
X167046203Y-90352179D01*
X167047136Y-90364016D01*
X167048525Y-90408212D01*
X167054176Y-90427662D01*
X167058185Y-90447023D01*
X167060724Y-90467120D01*
X167063643Y-90474491D01*
X167063643Y-90474493D01*
X167074349Y-90501533D01*
X167082508Y-90561087D01*
X167076416Y-90619045D01*
X167096378Y-90808973D01*
X167155393Y-90990601D01*
X167250880Y-91155989D01*
X167378667Y-91297911D01*
X167533168Y-91410163D01*
X167539196Y-91412847D01*
X167539198Y-91412848D01*
X167701601Y-91485154D01*
X167707632Y-91487839D01*
X167772857Y-91501703D01*
X167887976Y-91526173D01*
X167887981Y-91526173D01*
X167894433Y-91527545D01*
X168085407Y-91527545D01*
X168091859Y-91526173D01*
X168091864Y-91526173D01*
X168206983Y-91501703D01*
X168272208Y-91487839D01*
X168278239Y-91485154D01*
X168440642Y-91412848D01*
X168440644Y-91412847D01*
X168446672Y-91410163D01*
X168589316Y-91306525D01*
X168656180Y-91282669D01*
X168725332Y-91298749D01*
X168752469Y-91319368D01*
X171932878Y-94499777D01*
X171966904Y-94562089D01*
X171969092Y-94575698D01*
X171986458Y-94740923D01*
X172045473Y-94922551D01*
X172140960Y-95087939D01*
X172145378Y-95092846D01*
X172145379Y-95092847D01*
X172194977Y-95147931D01*
X172268747Y-95229861D01*
X172348933Y-95288120D01*
X172399144Y-95324600D01*
X172423248Y-95342113D01*
X172429276Y-95344797D01*
X172429278Y-95344798D01*
X172587041Y-95415038D01*
X172597712Y-95419789D01*
X172691113Y-95439642D01*
X172778056Y-95458123D01*
X172778061Y-95458123D01*
X172784513Y-95459495D01*
X172975487Y-95459495D01*
X172981939Y-95458123D01*
X172981944Y-95458123D01*
X173068887Y-95439642D01*
X173162288Y-95419789D01*
X173172959Y-95415038D01*
X173330722Y-95344798D01*
X173330724Y-95344797D01*
X173336752Y-95342113D01*
X173360857Y-95324600D01*
X173411067Y-95288120D01*
X173491253Y-95229861D01*
X173565023Y-95147931D01*
X173614621Y-95092847D01*
X173614622Y-95092846D01*
X173619040Y-95087939D01*
X173714527Y-94922551D01*
X173773542Y-94740923D01*
X173778032Y-94698209D01*
X173792814Y-94557560D01*
X173793504Y-94550995D01*
X173773542Y-94361067D01*
X173714527Y-94179439D01*
X173619040Y-94014051D01*
X173491253Y-93872129D01*
X173336752Y-93759877D01*
X173330724Y-93757193D01*
X173330722Y-93757192D01*
X173168319Y-93684886D01*
X173168318Y-93684886D01*
X173162288Y-93682201D01*
X173068887Y-93662348D01*
X172981944Y-93643867D01*
X172981939Y-93643867D01*
X172975487Y-93642495D01*
X172919595Y-93642495D01*
X172851474Y-93622493D01*
X172830500Y-93605590D01*
X169320905Y-90095995D01*
X169286879Y-90033683D01*
X169284000Y-90006900D01*
X169284000Y-88970000D01*
X185796654Y-88970000D01*
X185816017Y-89265426D01*
X185816819Y-89269459D01*
X185816820Y-89269465D01*
X185854527Y-89459028D01*
X185873776Y-89555797D01*
X185875103Y-89559706D01*
X185875104Y-89559710D01*
X185961496Y-89814213D01*
X185968941Y-89836145D01*
X186099885Y-90101673D01*
X186102179Y-90105106D01*
X186253275Y-90331237D01*
X186264367Y-90347838D01*
X186267081Y-90350932D01*
X186267085Y-90350938D01*
X186368975Y-90467120D01*
X186459573Y-90570427D01*
X186462662Y-90573136D01*
X186679062Y-90762915D01*
X186679068Y-90762919D01*
X186682162Y-90765633D01*
X186685588Y-90767922D01*
X186685593Y-90767926D01*
X186764080Y-90820369D01*
X186928327Y-90930115D01*
X186932026Y-90931939D01*
X186932031Y-90931942D01*
X187026744Y-90978649D01*
X187193855Y-91061059D01*
X187197760Y-91062384D01*
X187197761Y-91062385D01*
X187470290Y-91154896D01*
X187470294Y-91154897D01*
X187474203Y-91156224D01*
X187478247Y-91157028D01*
X187478253Y-91157030D01*
X187760535Y-91213180D01*
X187760541Y-91213181D01*
X187764574Y-91213983D01*
X187768679Y-91214252D01*
X187768686Y-91214253D01*
X188055881Y-91233076D01*
X188060000Y-91233346D01*
X188064119Y-91233076D01*
X188351314Y-91214253D01*
X188351321Y-91214252D01*
X188355426Y-91213983D01*
X188359459Y-91213181D01*
X188359465Y-91213180D01*
X188641747Y-91157030D01*
X188641753Y-91157028D01*
X188645797Y-91156224D01*
X188649706Y-91154897D01*
X188649710Y-91154896D01*
X188922239Y-91062385D01*
X188922240Y-91062384D01*
X188926145Y-91061059D01*
X189093256Y-90978649D01*
X189187969Y-90931942D01*
X189187974Y-90931939D01*
X189191673Y-90930115D01*
X189355920Y-90820369D01*
X189434407Y-90767926D01*
X189434412Y-90767922D01*
X189437838Y-90765633D01*
X189440932Y-90762919D01*
X189440938Y-90762915D01*
X189657338Y-90573136D01*
X189660427Y-90570427D01*
X189751025Y-90467120D01*
X189852915Y-90350938D01*
X189852919Y-90350932D01*
X189855633Y-90347838D01*
X189866726Y-90331237D01*
X190017821Y-90105106D01*
X190020115Y-90101673D01*
X190151059Y-89836145D01*
X190158504Y-89814213D01*
X190244896Y-89559710D01*
X190244897Y-89559706D01*
X190246224Y-89555797D01*
X190265473Y-89459028D01*
X190303180Y-89269465D01*
X190303181Y-89269459D01*
X190303983Y-89265426D01*
X190323346Y-88970000D01*
X190304934Y-88689080D01*
X190304253Y-88678686D01*
X190304252Y-88678679D01*
X190303983Y-88674574D01*
X190295545Y-88632151D01*
X190247030Y-88388253D01*
X190247028Y-88388247D01*
X190246224Y-88384203D01*
X190241476Y-88370214D01*
X190152385Y-88107761D01*
X190152384Y-88107760D01*
X190151059Y-88103855D01*
X190047965Y-87894801D01*
X190021942Y-87842031D01*
X190021939Y-87842026D01*
X190020115Y-87838327D01*
X189980744Y-87779405D01*
X189857926Y-87595593D01*
X189857922Y-87595588D01*
X189855633Y-87592162D01*
X189852919Y-87589068D01*
X189852915Y-87589062D01*
X189663136Y-87372662D01*
X189660427Y-87369573D01*
X189483617Y-87214514D01*
X189440938Y-87177085D01*
X189440932Y-87177081D01*
X189437838Y-87174367D01*
X189434412Y-87172078D01*
X189434407Y-87172074D01*
X189195106Y-87012179D01*
X189191673Y-87009885D01*
X189187974Y-87008061D01*
X189187969Y-87008058D01*
X189023946Y-86927171D01*
X188926145Y-86878941D01*
X188819786Y-86842837D01*
X188649710Y-86785104D01*
X188649706Y-86785103D01*
X188645797Y-86783776D01*
X188641753Y-86782972D01*
X188641747Y-86782970D01*
X188359465Y-86726820D01*
X188359459Y-86726819D01*
X188355426Y-86726017D01*
X188351321Y-86725748D01*
X188351314Y-86725747D01*
X188064119Y-86706924D01*
X188060000Y-86706654D01*
X188055881Y-86706924D01*
X187768686Y-86725747D01*
X187768679Y-86725748D01*
X187764574Y-86726017D01*
X187760541Y-86726819D01*
X187760535Y-86726820D01*
X187478253Y-86782970D01*
X187478247Y-86782972D01*
X187474203Y-86783776D01*
X187470294Y-86785103D01*
X187470290Y-86785104D01*
X187300214Y-86842837D01*
X187193855Y-86878941D01*
X187096054Y-86927171D01*
X186932031Y-87008058D01*
X186932026Y-87008061D01*
X186928327Y-87009885D01*
X186924894Y-87012179D01*
X186685593Y-87172074D01*
X186685588Y-87172078D01*
X186682162Y-87174367D01*
X186679068Y-87177081D01*
X186679062Y-87177085D01*
X186636383Y-87214514D01*
X186459573Y-87369573D01*
X186456864Y-87372662D01*
X186267085Y-87589062D01*
X186267081Y-87589068D01*
X186264367Y-87592162D01*
X186262078Y-87595588D01*
X186262074Y-87595593D01*
X186139256Y-87779405D01*
X186099885Y-87838327D01*
X186098061Y-87842026D01*
X186098058Y-87842031D01*
X186072035Y-87894801D01*
X185968941Y-88103855D01*
X185967616Y-88107760D01*
X185967615Y-88107761D01*
X185878525Y-88370214D01*
X185873776Y-88384203D01*
X185872972Y-88388247D01*
X185872970Y-88388253D01*
X185824456Y-88632151D01*
X185816017Y-88674574D01*
X185815748Y-88678679D01*
X185815747Y-88678686D01*
X185815066Y-88689080D01*
X185796654Y-88970000D01*
X169284000Y-88970000D01*
X169284000Y-85970000D01*
X196846884Y-85970000D01*
X196865314Y-86180655D01*
X196866738Y-86185968D01*
X196866738Y-86185970D01*
X196904371Y-86326416D01*
X196920044Y-86384910D01*
X196922366Y-86389891D01*
X196922367Y-86389892D01*
X196997535Y-86551089D01*
X197009411Y-86576558D01*
X197130699Y-86749776D01*
X197280224Y-86899301D01*
X197453442Y-87020589D01*
X197458420Y-87022910D01*
X197458423Y-87022912D01*
X197640108Y-87107633D01*
X197645090Y-87109956D01*
X197650398Y-87111378D01*
X197650400Y-87111379D01*
X197844030Y-87163262D01*
X197844032Y-87163262D01*
X197849345Y-87164686D01*
X198060000Y-87183116D01*
X198270655Y-87164686D01*
X198275968Y-87163262D01*
X198275970Y-87163262D01*
X198469600Y-87111379D01*
X198469602Y-87111378D01*
X198474910Y-87109956D01*
X198479892Y-87107633D01*
X198661577Y-87022912D01*
X198661580Y-87022910D01*
X198666558Y-87020589D01*
X198839776Y-86899301D01*
X198989301Y-86749776D01*
X199110589Y-86576558D01*
X199122466Y-86551089D01*
X199197633Y-86389892D01*
X199197634Y-86389891D01*
X199199956Y-86384910D01*
X199215630Y-86326416D01*
X199253262Y-86185970D01*
X199253262Y-86185968D01*
X199254686Y-86180655D01*
X199273116Y-85970000D01*
X199254686Y-85759345D01*
X199241172Y-85708911D01*
X199201379Y-85560400D01*
X199201378Y-85560398D01*
X199199956Y-85555090D01*
X199196902Y-85548540D01*
X199112912Y-85368423D01*
X199112910Y-85368420D01*
X199110589Y-85363442D01*
X198989301Y-85190224D01*
X198839776Y-85040699D01*
X198666558Y-84919411D01*
X198661580Y-84917090D01*
X198661577Y-84917088D01*
X198479892Y-84832367D01*
X198479891Y-84832366D01*
X198474910Y-84830044D01*
X198469602Y-84828622D01*
X198469600Y-84828621D01*
X198275970Y-84776738D01*
X198275968Y-84776738D01*
X198270655Y-84775314D01*
X198060000Y-84756884D01*
X197849345Y-84775314D01*
X197844032Y-84776738D01*
X197844030Y-84776738D01*
X197650400Y-84828621D01*
X197650398Y-84828622D01*
X197645090Y-84830044D01*
X197640109Y-84832366D01*
X197640108Y-84832367D01*
X197458423Y-84917088D01*
X197458420Y-84917090D01*
X197453442Y-84919411D01*
X197280224Y-85040699D01*
X197130699Y-85190224D01*
X197009411Y-85363442D01*
X197007090Y-85368420D01*
X197007088Y-85368423D01*
X196923098Y-85548540D01*
X196920044Y-85555090D01*
X196918622Y-85560398D01*
X196918621Y-85560400D01*
X196878828Y-85708911D01*
X196865314Y-85759345D01*
X196846884Y-85970000D01*
X169284000Y-85970000D01*
X169284000Y-85793222D01*
X169304002Y-85725101D01*
X169316358Y-85708919D01*
X169389540Y-85627642D01*
X169478728Y-85473164D01*
X169481723Y-85467977D01*
X169481724Y-85467976D01*
X169485027Y-85462254D01*
X169544042Y-85280626D01*
X169564004Y-85090698D01*
X169558749Y-85040699D01*
X169544732Y-84907333D01*
X169544732Y-84907331D01*
X169544042Y-84900770D01*
X169485027Y-84719142D01*
X169457571Y-84671586D01*
X169392841Y-84559472D01*
X169389540Y-84553754D01*
X169261753Y-84411832D01*
X169140485Y-84323725D01*
X169112594Y-84303461D01*
X169112593Y-84303460D01*
X169107252Y-84299580D01*
X169101224Y-84296896D01*
X169101222Y-84296895D01*
X168938819Y-84224589D01*
X168938818Y-84224589D01*
X168932788Y-84221904D01*
X168839387Y-84202051D01*
X168752444Y-84183570D01*
X168752439Y-84183570D01*
X168745987Y-84182198D01*
X168555013Y-84182198D01*
X168548561Y-84183570D01*
X168548556Y-84183570D01*
X168408432Y-84213355D01*
X168337641Y-84207953D01*
X168297921Y-84183741D01*
X168294873Y-84180996D01*
X168290451Y-84176085D01*
X168135950Y-84063833D01*
X168129922Y-84061149D01*
X168129920Y-84061148D01*
X167967517Y-83988842D01*
X167967516Y-83988842D01*
X167961486Y-83986157D01*
X167868086Y-83966304D01*
X167781142Y-83947823D01*
X167781137Y-83947823D01*
X167774685Y-83946451D01*
X167583711Y-83946451D01*
X167577259Y-83947823D01*
X167577254Y-83947823D01*
X167490311Y-83966304D01*
X167396910Y-83986157D01*
X167390880Y-83988842D01*
X167390879Y-83988842D01*
X167228476Y-84061148D01*
X167228474Y-84061149D01*
X167222446Y-84063833D01*
X167067945Y-84176085D01*
X167063524Y-84180995D01*
X167063523Y-84180996D01*
X167061052Y-84183741D01*
X166940158Y-84318007D01*
X166844671Y-84483395D01*
X166785656Y-84665023D01*
X166765694Y-84854951D01*
X92568500Y-84854951D01*
X92568500Y-82470000D01*
X196846884Y-82470000D01*
X196865314Y-82680655D01*
X196920044Y-82884910D01*
X197009411Y-83076558D01*
X197130699Y-83249776D01*
X197280224Y-83399301D01*
X197453442Y-83520589D01*
X197458420Y-83522910D01*
X197458423Y-83522912D01*
X197640108Y-83607633D01*
X197645090Y-83609956D01*
X197650398Y-83611378D01*
X197650400Y-83611379D01*
X197844030Y-83663262D01*
X197844032Y-83663262D01*
X197849345Y-83664686D01*
X198060000Y-83683116D01*
X198270655Y-83664686D01*
X198275968Y-83663262D01*
X198275970Y-83663262D01*
X198469600Y-83611379D01*
X198469602Y-83611378D01*
X198474910Y-83609956D01*
X198479892Y-83607633D01*
X198661577Y-83522912D01*
X198661580Y-83522910D01*
X198666558Y-83520589D01*
X198839776Y-83399301D01*
X198989301Y-83249776D01*
X199110589Y-83076558D01*
X199199956Y-82884910D01*
X199254686Y-82680655D01*
X199273116Y-82470000D01*
X199254686Y-82259345D01*
X199199956Y-82055090D01*
X199110589Y-81863442D01*
X198989301Y-81690224D01*
X198839776Y-81540699D01*
X198666558Y-81419411D01*
X198661580Y-81417090D01*
X198661577Y-81417088D01*
X198479892Y-81332367D01*
X198479891Y-81332366D01*
X198474910Y-81330044D01*
X198469602Y-81328622D01*
X198469600Y-81328621D01*
X198275970Y-81276738D01*
X198275968Y-81276738D01*
X198270655Y-81275314D01*
X198060000Y-81256884D01*
X197849345Y-81275314D01*
X197844032Y-81276738D01*
X197844030Y-81276738D01*
X197650400Y-81328621D01*
X197650398Y-81328622D01*
X197645090Y-81330044D01*
X197640109Y-81332366D01*
X197640108Y-81332367D01*
X197458423Y-81417088D01*
X197458420Y-81417090D01*
X197453442Y-81419411D01*
X197280224Y-81540699D01*
X197130699Y-81690224D01*
X197009411Y-81863442D01*
X196920044Y-82055090D01*
X196865314Y-82259345D01*
X196846884Y-82470000D01*
X92568500Y-82470000D01*
X92568500Y-78450214D01*
X105457589Y-78450214D01*
X105468144Y-78718863D01*
X105516447Y-78983344D01*
X105601534Y-79238381D01*
X105603527Y-79242369D01*
X105682608Y-79400634D01*
X105721707Y-79478884D01*
X105874568Y-79700056D01*
X106057067Y-79897482D01*
X106060521Y-79900294D01*
X106262107Y-80064411D01*
X106262111Y-80064414D01*
X106265564Y-80067225D01*
X106495897Y-80205897D01*
X106591777Y-80246497D01*
X106739369Y-80308995D01*
X106739374Y-80308997D01*
X106743472Y-80310732D01*
X106747769Y-80311871D01*
X106747774Y-80311873D01*
X106873410Y-80345184D01*
X107003348Y-80379636D01*
X107270340Y-80411237D01*
X107539121Y-80404903D01*
X107690923Y-80379636D01*
X107799938Y-80361491D01*
X107799942Y-80361490D01*
X107804328Y-80360760D01*
X107808569Y-80359419D01*
X107808572Y-80359418D01*
X108056424Y-80281033D01*
X108056426Y-80281032D01*
X108060670Y-80279690D01*
X108064681Y-80277764D01*
X108064686Y-80277762D01*
X108299012Y-80165240D01*
X108299013Y-80165239D01*
X108303031Y-80163310D01*
X108306737Y-80160834D01*
X108522869Y-80016420D01*
X108522873Y-80016417D01*
X108526577Y-80013942D01*
X108529894Y-80010971D01*
X108529898Y-80010968D01*
X108723528Y-79837538D01*
X108723529Y-79837537D01*
X108726846Y-79834566D01*
X108899842Y-79628761D01*
X108952710Y-79543990D01*
X109005730Y-79496774D01*
X109075860Y-79485718D01*
X109140835Y-79514332D01*
X109163275Y-79539028D01*
X109274568Y-79700056D01*
X109457067Y-79897482D01*
X109460521Y-79900294D01*
X109662107Y-80064411D01*
X109662111Y-80064414D01*
X109665564Y-80067225D01*
X109895897Y-80205897D01*
X109991777Y-80246497D01*
X110139369Y-80308995D01*
X110139374Y-80308997D01*
X110143472Y-80310732D01*
X110147769Y-80311871D01*
X110147774Y-80311873D01*
X110273410Y-80345184D01*
X110403348Y-80379636D01*
X110670340Y-80411237D01*
X110939121Y-80404903D01*
X111090923Y-80379636D01*
X111199938Y-80361491D01*
X111199942Y-80361490D01*
X111204328Y-80360760D01*
X111208569Y-80359419D01*
X111208572Y-80359418D01*
X111456424Y-80281033D01*
X111456426Y-80281032D01*
X111460670Y-80279690D01*
X111464681Y-80277764D01*
X111464686Y-80277762D01*
X111699012Y-80165240D01*
X111699013Y-80165239D01*
X111703031Y-80163310D01*
X111706737Y-80160834D01*
X111922869Y-80016420D01*
X111922873Y-80016417D01*
X111926577Y-80013942D01*
X111929894Y-80010971D01*
X111929898Y-80010968D01*
X112123528Y-79837538D01*
X112123529Y-79837537D01*
X112126846Y-79834566D01*
X112299842Y-79628761D01*
X112442115Y-79400634D01*
X112550825Y-79154737D01*
X112623804Y-78895975D01*
X112647593Y-78718863D01*
X112659167Y-78632694D01*
X112659168Y-78632686D01*
X112659594Y-78629512D01*
X112663350Y-78510000D01*
X112644362Y-78241816D01*
X112587775Y-77978982D01*
X112565170Y-77917707D01*
X112496260Y-77730921D01*
X112494719Y-77726744D01*
X112367052Y-77490134D01*
X112207319Y-77273873D01*
X112166610Y-77232519D01*
X112021839Y-77085457D01*
X112018708Y-77082276D01*
X112015169Y-77079575D01*
X112015162Y-77079569D01*
X111808523Y-76921868D01*
X111804983Y-76919166D01*
X111570407Y-76787797D01*
X111566262Y-76786193D01*
X111566259Y-76786192D01*
X111427407Y-76732474D01*
X111319662Y-76690791D01*
X111315337Y-76689788D01*
X111315332Y-76689787D01*
X111170530Y-76656224D01*
X111057750Y-76630083D01*
X110789897Y-76606885D01*
X110785462Y-76607129D01*
X110785458Y-76607129D01*
X110667232Y-76613635D01*
X110521447Y-76621658D01*
X110354351Y-76654896D01*
X110262125Y-76673241D01*
X110262123Y-76673242D01*
X110257757Y-76674110D01*
X110004089Y-76763192D01*
X109765502Y-76887127D01*
X109761875Y-76889719D01*
X109761870Y-76889722D01*
X109550386Y-77040852D01*
X109546759Y-77043444D01*
X109352223Y-77229022D01*
X109349467Y-77232517D01*
X109349466Y-77232519D01*
X109188532Y-77436663D01*
X109185776Y-77440159D01*
X109183540Y-77444008D01*
X109183539Y-77444010D01*
X109169584Y-77468036D01*
X109118074Y-77516895D01*
X109048325Y-77530149D01*
X108982484Y-77503590D01*
X108959279Y-77479610D01*
X108809972Y-77277465D01*
X108807319Y-77273873D01*
X108766610Y-77232519D01*
X108621839Y-77085457D01*
X108618708Y-77082276D01*
X108615169Y-77079575D01*
X108615162Y-77079569D01*
X108408523Y-76921868D01*
X108404983Y-76919166D01*
X108170407Y-76787797D01*
X108166262Y-76786193D01*
X108166259Y-76786192D01*
X108027407Y-76732474D01*
X107919662Y-76690791D01*
X107915337Y-76689788D01*
X107915332Y-76689787D01*
X107770530Y-76656224D01*
X107657750Y-76630083D01*
X107389897Y-76606885D01*
X107385462Y-76607129D01*
X107385458Y-76607129D01*
X107267232Y-76613635D01*
X107121447Y-76621658D01*
X106954351Y-76654896D01*
X106862125Y-76673241D01*
X106862123Y-76673242D01*
X106857757Y-76674110D01*
X106604089Y-76763192D01*
X106365502Y-76887127D01*
X106361875Y-76889719D01*
X106361870Y-76889722D01*
X106150386Y-77040852D01*
X106146759Y-77043444D01*
X105952223Y-77229022D01*
X105949467Y-77232517D01*
X105949466Y-77232519D01*
X105914034Y-77277465D01*
X105785776Y-77440159D01*
X105741204Y-77516895D01*
X105652977Y-77668788D01*
X105652974Y-77668794D01*
X105650739Y-77672642D01*
X105549807Y-77921833D01*
X105548736Y-77926146D01*
X105548734Y-77926151D01*
X105535611Y-77978982D01*
X105484992Y-78182759D01*
X105457589Y-78450214D01*
X92568500Y-78450214D01*
X92568500Y-74470000D01*
X185796654Y-74470000D01*
X185816017Y-74765426D01*
X185873776Y-75055797D01*
X185968941Y-75336145D01*
X186099885Y-75601673D01*
X186264367Y-75847838D01*
X186267081Y-75850932D01*
X186267085Y-75850938D01*
X186456864Y-76067338D01*
X186459573Y-76070427D01*
X186462662Y-76073136D01*
X186679062Y-76262915D01*
X186679068Y-76262919D01*
X186682162Y-76265633D01*
X186685588Y-76267922D01*
X186685593Y-76267926D01*
X186869405Y-76390744D01*
X186928327Y-76430115D01*
X186932026Y-76431939D01*
X186932031Y-76431942D01*
X187068313Y-76499148D01*
X187193855Y-76561059D01*
X187197760Y-76562384D01*
X187197761Y-76562385D01*
X187470290Y-76654896D01*
X187470294Y-76654897D01*
X187474203Y-76656224D01*
X187478247Y-76657028D01*
X187478253Y-76657030D01*
X187760535Y-76713180D01*
X187760541Y-76713181D01*
X187764574Y-76713983D01*
X187768679Y-76714252D01*
X187768686Y-76714253D01*
X188055881Y-76733076D01*
X188060000Y-76733346D01*
X188064119Y-76733076D01*
X188351314Y-76714253D01*
X188351321Y-76714252D01*
X188355426Y-76713983D01*
X188359459Y-76713181D01*
X188359465Y-76713180D01*
X188641747Y-76657030D01*
X188641753Y-76657028D01*
X188645797Y-76656224D01*
X188649706Y-76654897D01*
X188649710Y-76654896D01*
X188922239Y-76562385D01*
X188922240Y-76562384D01*
X188926145Y-76561059D01*
X189051687Y-76499148D01*
X189187969Y-76431942D01*
X189187974Y-76431939D01*
X189191673Y-76430115D01*
X189250595Y-76390744D01*
X189434407Y-76267926D01*
X189434412Y-76267922D01*
X189437838Y-76265633D01*
X189440932Y-76262919D01*
X189440938Y-76262915D01*
X189657338Y-76073136D01*
X189660427Y-76070427D01*
X189663136Y-76067338D01*
X189852915Y-75850938D01*
X189852919Y-75850932D01*
X189855633Y-75847838D01*
X190020115Y-75601673D01*
X190151059Y-75336145D01*
X190246224Y-75055797D01*
X190303983Y-74765426D01*
X190323346Y-74470000D01*
X190303983Y-74174574D01*
X190246224Y-73884203D01*
X190151059Y-73603855D01*
X190020115Y-73338327D01*
X189855633Y-73092162D01*
X189852919Y-73089068D01*
X189852915Y-73089062D01*
X189663136Y-72872662D01*
X189660427Y-72869573D01*
X189657338Y-72866864D01*
X189440938Y-72677085D01*
X189440932Y-72677081D01*
X189437838Y-72674367D01*
X189434412Y-72672078D01*
X189434407Y-72672074D01*
X189195106Y-72512179D01*
X189191673Y-72509885D01*
X189187974Y-72508061D01*
X189187969Y-72508058D01*
X189051687Y-72440852D01*
X188926145Y-72378941D01*
X188922239Y-72377615D01*
X188649710Y-72285104D01*
X188649706Y-72285103D01*
X188645797Y-72283776D01*
X188641753Y-72282972D01*
X188641747Y-72282970D01*
X188359465Y-72226820D01*
X188359459Y-72226819D01*
X188355426Y-72226017D01*
X188351321Y-72225748D01*
X188351314Y-72225747D01*
X188064119Y-72206924D01*
X188060000Y-72206654D01*
X188055881Y-72206924D01*
X187768686Y-72225747D01*
X187768679Y-72225748D01*
X187764574Y-72226017D01*
X187760541Y-72226819D01*
X187760535Y-72226820D01*
X187478253Y-72282970D01*
X187478247Y-72282972D01*
X187474203Y-72283776D01*
X187470294Y-72285103D01*
X187470290Y-72285104D01*
X187197761Y-72377615D01*
X187193855Y-72378941D01*
X187068313Y-72440852D01*
X186932031Y-72508058D01*
X186932026Y-72508061D01*
X186928327Y-72509885D01*
X186924894Y-72512179D01*
X186685593Y-72672074D01*
X186685588Y-72672078D01*
X186682162Y-72674367D01*
X186679068Y-72677081D01*
X186679062Y-72677085D01*
X186462662Y-72866864D01*
X186459573Y-72869573D01*
X186456864Y-72872662D01*
X186267085Y-73089062D01*
X186267081Y-73089068D01*
X186264367Y-73092162D01*
X186099885Y-73338327D01*
X185968941Y-73603855D01*
X185873776Y-73884203D01*
X185816017Y-74174574D01*
X185796654Y-74470000D01*
X92568500Y-74470000D01*
X92568500Y-71470000D01*
X196846884Y-71470000D01*
X196865314Y-71680655D01*
X196920044Y-71884910D01*
X197009411Y-72076558D01*
X197130699Y-72249776D01*
X197280224Y-72399301D01*
X197453442Y-72520589D01*
X197458420Y-72522910D01*
X197458423Y-72522912D01*
X197640108Y-72607633D01*
X197645090Y-72609956D01*
X197650398Y-72611378D01*
X197650400Y-72611379D01*
X197844030Y-72663262D01*
X197844032Y-72663262D01*
X197849345Y-72664686D01*
X198060000Y-72683116D01*
X198270655Y-72664686D01*
X198275968Y-72663262D01*
X198275970Y-72663262D01*
X198469600Y-72611379D01*
X198469602Y-72611378D01*
X198474910Y-72609956D01*
X198479892Y-72607633D01*
X198661577Y-72522912D01*
X198661580Y-72522910D01*
X198666558Y-72520589D01*
X198839776Y-72399301D01*
X198989301Y-72249776D01*
X199110589Y-72076558D01*
X199199956Y-71884910D01*
X199254686Y-71680655D01*
X199273116Y-71470000D01*
X199254686Y-71259345D01*
X199199956Y-71055090D01*
X199110589Y-70863442D01*
X198989301Y-70690224D01*
X198839776Y-70540699D01*
X198666558Y-70419411D01*
X198661580Y-70417090D01*
X198661577Y-70417088D01*
X198479892Y-70332367D01*
X198479891Y-70332366D01*
X198474910Y-70330044D01*
X198469602Y-70328622D01*
X198469600Y-70328621D01*
X198275970Y-70276738D01*
X198275968Y-70276738D01*
X198270655Y-70275314D01*
X198060000Y-70256884D01*
X197849345Y-70275314D01*
X197844032Y-70276738D01*
X197844030Y-70276738D01*
X197650400Y-70328621D01*
X197650398Y-70328622D01*
X197645090Y-70330044D01*
X197640109Y-70332366D01*
X197640108Y-70332367D01*
X197458423Y-70417088D01*
X197458420Y-70417090D01*
X197453442Y-70419411D01*
X197280224Y-70540699D01*
X197130699Y-70690224D01*
X197009411Y-70863442D01*
X196920044Y-71055090D01*
X196865314Y-71259345D01*
X196846884Y-71470000D01*
X92568500Y-71470000D01*
X92568500Y-67970000D01*
X196846884Y-67970000D01*
X196865314Y-68180655D01*
X196920044Y-68384910D01*
X197009411Y-68576558D01*
X197130699Y-68749776D01*
X197280224Y-68899301D01*
X197453442Y-69020589D01*
X197458420Y-69022910D01*
X197458423Y-69022912D01*
X197640108Y-69107633D01*
X197645090Y-69109956D01*
X197650398Y-69111378D01*
X197650400Y-69111379D01*
X197844030Y-69163262D01*
X197844032Y-69163262D01*
X197849345Y-69164686D01*
X198060000Y-69183116D01*
X198270655Y-69164686D01*
X198275968Y-69163262D01*
X198275970Y-69163262D01*
X198469600Y-69111379D01*
X198469602Y-69111378D01*
X198474910Y-69109956D01*
X198479892Y-69107633D01*
X198661577Y-69022912D01*
X198661580Y-69022910D01*
X198666558Y-69020589D01*
X198839776Y-68899301D01*
X198989301Y-68749776D01*
X199110589Y-68576558D01*
X199199956Y-68384910D01*
X199254686Y-68180655D01*
X199273116Y-67970000D01*
X199254686Y-67759345D01*
X199199956Y-67555090D01*
X199110589Y-67363442D01*
X198989301Y-67190224D01*
X198839776Y-67040699D01*
X198666558Y-66919411D01*
X198661580Y-66917090D01*
X198661577Y-66917088D01*
X198479892Y-66832367D01*
X198479891Y-66832366D01*
X198474910Y-66830044D01*
X198469602Y-66828622D01*
X198469600Y-66828621D01*
X198275970Y-66776738D01*
X198275968Y-66776738D01*
X198270655Y-66775314D01*
X198060000Y-66756884D01*
X197849345Y-66775314D01*
X197844032Y-66776738D01*
X197844030Y-66776738D01*
X197650400Y-66828621D01*
X197650398Y-66828622D01*
X197645090Y-66830044D01*
X197640109Y-66832366D01*
X197640108Y-66832367D01*
X197458423Y-66917088D01*
X197458420Y-66917090D01*
X197453442Y-66919411D01*
X197280224Y-67040699D01*
X197130699Y-67190224D01*
X197009411Y-67363442D01*
X196920044Y-67555090D01*
X196865314Y-67759345D01*
X196846884Y-67970000D01*
X92568500Y-67970000D01*
X92568500Y-63194500D01*
X162051501Y-63194500D01*
X162052191Y-63201065D01*
X162065638Y-63329002D01*
X162071463Y-63384428D01*
X162130478Y-63566056D01*
X162133781Y-63571778D01*
X162133782Y-63571779D01*
X162167691Y-63630510D01*
X162225965Y-63731444D01*
X162230383Y-63736351D01*
X162230384Y-63736352D01*
X162234119Y-63740500D01*
X162353752Y-63873366D01*
X162508253Y-63985618D01*
X162514281Y-63988302D01*
X162514283Y-63988303D01*
X162676686Y-64060609D01*
X162682717Y-64063294D01*
X162776117Y-64083147D01*
X162863061Y-64101628D01*
X162863066Y-64101628D01*
X162869518Y-64103000D01*
X163060492Y-64103000D01*
X163066944Y-64101628D01*
X163066949Y-64101628D01*
X163153893Y-64083147D01*
X163247293Y-64063294D01*
X163253324Y-64060609D01*
X163415727Y-63988303D01*
X163415729Y-63988302D01*
X163421757Y-63985618D01*
X163576258Y-63873366D01*
X163695891Y-63740500D01*
X163699626Y-63736352D01*
X163699627Y-63736351D01*
X163704045Y-63731444D01*
X163762319Y-63630510D01*
X163796228Y-63571779D01*
X163796229Y-63571778D01*
X163799532Y-63566056D01*
X163858547Y-63384428D01*
X163864373Y-63329002D01*
X163875912Y-63219207D01*
X163902925Y-63153550D01*
X163912127Y-63143282D01*
X164545340Y-62510069D01*
X166546994Y-62510069D01*
X166574241Y-62735219D01*
X166640927Y-62951987D01*
X166744946Y-63153519D01*
X166883009Y-63333447D01*
X166931824Y-63377865D01*
X167046605Y-63482308D01*
X167046608Y-63482310D01*
X167050752Y-63486081D01*
X167055503Y-63489062D01*
X167055504Y-63489062D01*
X167238118Y-63603616D01*
X167238122Y-63603618D01*
X167242874Y-63606599D01*
X167453301Y-63691190D01*
X167675382Y-63737181D01*
X167679993Y-63737447D01*
X167679994Y-63737447D01*
X167731121Y-63740395D01*
X167731125Y-63740395D01*
X167732944Y-63740500D01*
X170355535Y-63740500D01*
X170358322Y-63740251D01*
X170358328Y-63740251D01*
X170428506Y-63733987D01*
X170523895Y-63725474D01*
X170742651Y-63665630D01*
X170747709Y-63663218D01*
X170747713Y-63663216D01*
X170942284Y-63570410D01*
X170942285Y-63570409D01*
X170947351Y-63567993D01*
X170958793Y-63559771D01*
X171126966Y-63438926D01*
X171126968Y-63438924D01*
X171131526Y-63435649D01*
X171289355Y-63272783D01*
X171346370Y-63187935D01*
X171412721Y-63089195D01*
X171412724Y-63089190D01*
X171415847Y-63084542D01*
X171423108Y-63068003D01*
X171474161Y-62951701D01*
X171507007Y-62876876D01*
X171539728Y-62740583D01*
X171558640Y-62661808D01*
X171558641Y-62661802D01*
X171559950Y-62656349D01*
X171573006Y-62429931D01*
X171545759Y-62204781D01*
X171530413Y-62154896D01*
X171501545Y-62061059D01*
X171479073Y-61988013D01*
X171375054Y-61786481D01*
X171236991Y-61606553D01*
X171121071Y-61501074D01*
X171073395Y-61457692D01*
X171073392Y-61457690D01*
X171069248Y-61453919D01*
X171062899Y-61449936D01*
X170881882Y-61336384D01*
X170881878Y-61336382D01*
X170877126Y-61333401D01*
X170666699Y-61248810D01*
X170444618Y-61202819D01*
X170440007Y-61202553D01*
X170440006Y-61202553D01*
X170388879Y-61199605D01*
X170388875Y-61199605D01*
X170387056Y-61199500D01*
X167764465Y-61199500D01*
X167761678Y-61199749D01*
X167761672Y-61199749D01*
X167691494Y-61206013D01*
X167596105Y-61214526D01*
X167377349Y-61274370D01*
X167372291Y-61276782D01*
X167372287Y-61276784D01*
X167223320Y-61347838D01*
X167172649Y-61372007D01*
X167168088Y-61375284D01*
X167168087Y-61375285D01*
X167062806Y-61450938D01*
X166988474Y-61504351D01*
X166830645Y-61667217D01*
X166827518Y-61671871D01*
X166707279Y-61850805D01*
X166707276Y-61850810D01*
X166704153Y-61855458D01*
X166701900Y-61860590D01*
X166701898Y-61860594D01*
X166648152Y-61983030D01*
X166612993Y-62063124D01*
X166611683Y-62068581D01*
X166561360Y-62278192D01*
X166561359Y-62278198D01*
X166560050Y-62283651D01*
X166559727Y-62289257D01*
X166548291Y-62487584D01*
X166546994Y-62510069D01*
X164545340Y-62510069D01*
X167085409Y-59970000D01*
X185796654Y-59970000D01*
X185796924Y-59974119D01*
X185813927Y-60233537D01*
X185816017Y-60265426D01*
X185816819Y-60269459D01*
X185816820Y-60269465D01*
X185872970Y-60551747D01*
X185873776Y-60555797D01*
X185875103Y-60559706D01*
X185875104Y-60559710D01*
X185914736Y-60676463D01*
X185968941Y-60836145D01*
X185970765Y-60839843D01*
X186097672Y-61097185D01*
X186099885Y-61101673D01*
X186102179Y-61105106D01*
X186256714Y-61336384D01*
X186264367Y-61347838D01*
X186267081Y-61350932D01*
X186267085Y-61350938D01*
X186398752Y-61501074D01*
X186459573Y-61570427D01*
X186462662Y-61573136D01*
X186679062Y-61762915D01*
X186679068Y-61762919D01*
X186682162Y-61765633D01*
X186685588Y-61767922D01*
X186685593Y-61767926D01*
X186809631Y-61850805D01*
X186928327Y-61930115D01*
X186932026Y-61931939D01*
X186932031Y-61931942D01*
X187035628Y-61983030D01*
X187193855Y-62061059D01*
X187197760Y-62062384D01*
X187197761Y-62062385D01*
X187470290Y-62154896D01*
X187470294Y-62154897D01*
X187474203Y-62156224D01*
X187478247Y-62157028D01*
X187478253Y-62157030D01*
X187760535Y-62213180D01*
X187760541Y-62213181D01*
X187764574Y-62213983D01*
X187768679Y-62214252D01*
X187768686Y-62214253D01*
X188055881Y-62233076D01*
X188060000Y-62233346D01*
X188064119Y-62233076D01*
X188351314Y-62214253D01*
X188351321Y-62214252D01*
X188355426Y-62213983D01*
X188359459Y-62213181D01*
X188359465Y-62213180D01*
X188641747Y-62157030D01*
X188641753Y-62157028D01*
X188645797Y-62156224D01*
X188649706Y-62154897D01*
X188649710Y-62154896D01*
X188922239Y-62062385D01*
X188922240Y-62062384D01*
X188926145Y-62061059D01*
X189084372Y-61983030D01*
X189187969Y-61931942D01*
X189187974Y-61931939D01*
X189191673Y-61930115D01*
X189310369Y-61850805D01*
X189434407Y-61767926D01*
X189434412Y-61767922D01*
X189437838Y-61765633D01*
X189440932Y-61762919D01*
X189440938Y-61762915D01*
X189657338Y-61573136D01*
X189660427Y-61570427D01*
X189721248Y-61501074D01*
X189852915Y-61350938D01*
X189852919Y-61350932D01*
X189855633Y-61347838D01*
X189863287Y-61336384D01*
X190017821Y-61105106D01*
X190020115Y-61101673D01*
X190022329Y-61097185D01*
X190149235Y-60839843D01*
X190151059Y-60836145D01*
X190205264Y-60676463D01*
X190244896Y-60559710D01*
X190244897Y-60559706D01*
X190246224Y-60555797D01*
X190247030Y-60551747D01*
X190303180Y-60269465D01*
X190303181Y-60269459D01*
X190303983Y-60265426D01*
X190306074Y-60233537D01*
X190323076Y-59974119D01*
X190323346Y-59970000D01*
X190313339Y-59817324D01*
X190304253Y-59678686D01*
X190304252Y-59678679D01*
X190303983Y-59674574D01*
X190293612Y-59622432D01*
X190247030Y-59388253D01*
X190247028Y-59388247D01*
X190246224Y-59384203D01*
X190240049Y-59366010D01*
X190152385Y-59107761D01*
X190152384Y-59107760D01*
X190151059Y-59103855D01*
X190080797Y-58961377D01*
X190021942Y-58842031D01*
X190021939Y-58842026D01*
X190020115Y-58838327D01*
X189855633Y-58592162D01*
X189852919Y-58589068D01*
X189852915Y-58589062D01*
X189663136Y-58372662D01*
X189660427Y-58369573D01*
X189458321Y-58192330D01*
X189440938Y-58177085D01*
X189440932Y-58177081D01*
X189437838Y-58174367D01*
X189434412Y-58172078D01*
X189434407Y-58172074D01*
X189195106Y-58012179D01*
X189191673Y-58009885D01*
X189187974Y-58008061D01*
X189187969Y-58008058D01*
X189051687Y-57940852D01*
X188926145Y-57878941D01*
X188922239Y-57877615D01*
X188649710Y-57785104D01*
X188649706Y-57785103D01*
X188645797Y-57783776D01*
X188641753Y-57782972D01*
X188641747Y-57782970D01*
X188359465Y-57726820D01*
X188359459Y-57726819D01*
X188355426Y-57726017D01*
X188351321Y-57725748D01*
X188351314Y-57725747D01*
X188064119Y-57706924D01*
X188060000Y-57706654D01*
X188055881Y-57706924D01*
X187768686Y-57725747D01*
X187768679Y-57725748D01*
X187764574Y-57726017D01*
X187760541Y-57726819D01*
X187760535Y-57726820D01*
X187478253Y-57782970D01*
X187478247Y-57782972D01*
X187474203Y-57783776D01*
X187470294Y-57785103D01*
X187470290Y-57785104D01*
X187197761Y-57877615D01*
X187193855Y-57878941D01*
X187068313Y-57940852D01*
X186932031Y-58008058D01*
X186932026Y-58008061D01*
X186928327Y-58009885D01*
X186924894Y-58012179D01*
X186685593Y-58172074D01*
X186685588Y-58172078D01*
X186682162Y-58174367D01*
X186679068Y-58177081D01*
X186679062Y-58177085D01*
X186661679Y-58192330D01*
X186459573Y-58369573D01*
X186456864Y-58372662D01*
X186267085Y-58589062D01*
X186267081Y-58589068D01*
X186264367Y-58592162D01*
X186099885Y-58838327D01*
X186098061Y-58842026D01*
X186098058Y-58842031D01*
X186039203Y-58961377D01*
X185968941Y-59103855D01*
X185967616Y-59107760D01*
X185967615Y-59107761D01*
X185879952Y-59366010D01*
X185873776Y-59384203D01*
X185872972Y-59388247D01*
X185872970Y-59388253D01*
X185826389Y-59622432D01*
X185816017Y-59674574D01*
X185815748Y-59678679D01*
X185815747Y-59678686D01*
X185806661Y-59817324D01*
X185796654Y-59970000D01*
X167085409Y-59970000D01*
X169278004Y-57777405D01*
X169340316Y-57743379D01*
X169367099Y-57740500D01*
X170355535Y-57740500D01*
X170358322Y-57740251D01*
X170358328Y-57740251D01*
X170428506Y-57733987D01*
X170523895Y-57725474D01*
X170742651Y-57665630D01*
X170747709Y-57663218D01*
X170747713Y-57663216D01*
X170942284Y-57570410D01*
X170942285Y-57570409D01*
X170947351Y-57567993D01*
X170951913Y-57564715D01*
X171126966Y-57438926D01*
X171126968Y-57438924D01*
X171131526Y-57435649D01*
X171289355Y-57272783D01*
X171351262Y-57180655D01*
X171412721Y-57089195D01*
X171412724Y-57089190D01*
X171415847Y-57084542D01*
X171466128Y-56970000D01*
X196846884Y-56970000D01*
X196865314Y-57180655D01*
X196866738Y-57185968D01*
X196866738Y-57185970D01*
X196906255Y-57333447D01*
X196920044Y-57384910D01*
X196922366Y-57389891D01*
X196922367Y-57389892D01*
X197003889Y-57564715D01*
X197009411Y-57576558D01*
X197130699Y-57749776D01*
X197280224Y-57899301D01*
X197453442Y-58020589D01*
X197458420Y-58022910D01*
X197458423Y-58022912D01*
X197563502Y-58071911D01*
X197645090Y-58109956D01*
X197650398Y-58111378D01*
X197650400Y-58111379D01*
X197844030Y-58163262D01*
X197844032Y-58163262D01*
X197849345Y-58164686D01*
X198060000Y-58183116D01*
X198270655Y-58164686D01*
X198275968Y-58163262D01*
X198275970Y-58163262D01*
X198469600Y-58111379D01*
X198469602Y-58111378D01*
X198474910Y-58109956D01*
X198556498Y-58071911D01*
X198661577Y-58022912D01*
X198661580Y-58022910D01*
X198666558Y-58020589D01*
X198839776Y-57899301D01*
X198989301Y-57749776D01*
X199110589Y-57576558D01*
X199116112Y-57564715D01*
X199197633Y-57389892D01*
X199197634Y-57389891D01*
X199199956Y-57384910D01*
X199213746Y-57333447D01*
X199253262Y-57185970D01*
X199253262Y-57185968D01*
X199254686Y-57180655D01*
X199273116Y-56970000D01*
X199254686Y-56759345D01*
X199249659Y-56740583D01*
X199201379Y-56560400D01*
X199201378Y-56560398D01*
X199199956Y-56555090D01*
X199181563Y-56515646D01*
X199112912Y-56368423D01*
X199112910Y-56368420D01*
X199110589Y-56363442D01*
X198989301Y-56190224D01*
X198839776Y-56040699D01*
X198666558Y-55919411D01*
X198661580Y-55917090D01*
X198661577Y-55917088D01*
X198479892Y-55832367D01*
X198479891Y-55832366D01*
X198474910Y-55830044D01*
X198469602Y-55828622D01*
X198469600Y-55828621D01*
X198275970Y-55776738D01*
X198275968Y-55776738D01*
X198270655Y-55775314D01*
X198060000Y-55756884D01*
X197849345Y-55775314D01*
X197844032Y-55776738D01*
X197844030Y-55776738D01*
X197650400Y-55828621D01*
X197650398Y-55828622D01*
X197645090Y-55830044D01*
X197640109Y-55832366D01*
X197640108Y-55832367D01*
X197458423Y-55917088D01*
X197458420Y-55917090D01*
X197453442Y-55919411D01*
X197280224Y-56040699D01*
X197130699Y-56190224D01*
X197009411Y-56363442D01*
X197007090Y-56368420D01*
X197007088Y-56368423D01*
X196938437Y-56515646D01*
X196920044Y-56555090D01*
X196918622Y-56560398D01*
X196918621Y-56560400D01*
X196870341Y-56740583D01*
X196865314Y-56759345D01*
X196846884Y-56970000D01*
X171466128Y-56970000D01*
X171507007Y-56876876D01*
X171533908Y-56764825D01*
X171558640Y-56661808D01*
X171558641Y-56661802D01*
X171559950Y-56656349D01*
X171573006Y-56429931D01*
X171545759Y-56204781D01*
X171540083Y-56186329D01*
X171480722Y-55993374D01*
X171479073Y-55988013D01*
X171375054Y-55786481D01*
X171236991Y-55606553D01*
X171121071Y-55501074D01*
X171073395Y-55457692D01*
X171073392Y-55457690D01*
X171069248Y-55453919D01*
X170943895Y-55375285D01*
X170881882Y-55336384D01*
X170881878Y-55336382D01*
X170877126Y-55333401D01*
X170666699Y-55248810D01*
X170444618Y-55202819D01*
X170440007Y-55202553D01*
X170440006Y-55202553D01*
X170388879Y-55199605D01*
X170388875Y-55199605D01*
X170387056Y-55199500D01*
X167764465Y-55199500D01*
X167761678Y-55199749D01*
X167761672Y-55199749D01*
X167691494Y-55206013D01*
X167596105Y-55214526D01*
X167377349Y-55274370D01*
X167372291Y-55276782D01*
X167372287Y-55276784D01*
X167247334Y-55336384D01*
X167172649Y-55372007D01*
X167168088Y-55375284D01*
X167168087Y-55375285D01*
X167062806Y-55450938D01*
X166988474Y-55504351D01*
X166915446Y-55579710D01*
X166883709Y-55612460D01*
X166830645Y-55667217D01*
X166827518Y-55671871D01*
X166707279Y-55850805D01*
X166707276Y-55850810D01*
X166704153Y-55855458D01*
X166701900Y-55860590D01*
X166701898Y-55860594D01*
X166677099Y-55917088D01*
X166612993Y-56063124D01*
X166611683Y-56068581D01*
X166561360Y-56278192D01*
X166561359Y-56278198D01*
X166560050Y-56283651D01*
X166546994Y-56510069D01*
X166574241Y-56735219D01*
X166640927Y-56951987D01*
X166744946Y-57153519D01*
X166883009Y-57333447D01*
X166973850Y-57416106D01*
X167046605Y-57482308D01*
X167046608Y-57482310D01*
X167050752Y-57486081D01*
X167055503Y-57489062D01*
X167055504Y-57489062D01*
X167238118Y-57603616D01*
X167238122Y-57603618D01*
X167242874Y-57606599D01*
X167361297Y-57654205D01*
X167417041Y-57698170D01*
X167440166Y-57765295D01*
X167423329Y-57834266D01*
X167403395Y-57860206D01*
X165078797Y-60184803D01*
X163014505Y-62249095D01*
X162952193Y-62283121D01*
X162925410Y-62286000D01*
X162869518Y-62286000D01*
X162863066Y-62287372D01*
X162863061Y-62287372D01*
X162776117Y-62305853D01*
X162682717Y-62325706D01*
X162676687Y-62328391D01*
X162676686Y-62328391D01*
X162514283Y-62400697D01*
X162514281Y-62400698D01*
X162508253Y-62403382D01*
X162502912Y-62407262D01*
X162502911Y-62407263D01*
X162463996Y-62435537D01*
X162353752Y-62515634D01*
X162225965Y-62657556D01*
X162130478Y-62822944D01*
X162071463Y-63004572D01*
X162070773Y-63011133D01*
X162070773Y-63011135D01*
X162064796Y-63068003D01*
X162051501Y-63194500D01*
X92568500Y-63194500D01*
X92568500Y-60510000D01*
X111696441Y-60510000D01*
X111716655Y-60831299D01*
X111776980Y-61147531D01*
X111876463Y-61453709D01*
X111878150Y-61457295D01*
X111878152Y-61457299D01*
X112011848Y-61741418D01*
X112011852Y-61741425D01*
X112013536Y-61745004D01*
X112186037Y-62016822D01*
X112391246Y-62264877D01*
X112625926Y-62485256D01*
X112886376Y-62674484D01*
X113168490Y-62829578D01*
X113467817Y-62948089D01*
X113471647Y-62949072D01*
X113471655Y-62949075D01*
X113663352Y-62998294D01*
X113779637Y-63028151D01*
X113783565Y-63028647D01*
X113783569Y-63028648D01*
X113910162Y-63044640D01*
X114099033Y-63068500D01*
X114420967Y-63068500D01*
X114609838Y-63044640D01*
X114736431Y-63028648D01*
X114736435Y-63028647D01*
X114740363Y-63028151D01*
X114856648Y-62998294D01*
X115048345Y-62949075D01*
X115048353Y-62949072D01*
X115052183Y-62948089D01*
X115351510Y-62829578D01*
X115633624Y-62674484D01*
X115894074Y-62485256D01*
X116128754Y-62264877D01*
X116333963Y-62016822D01*
X116506464Y-61745004D01*
X116508148Y-61741425D01*
X116508152Y-61741418D01*
X116641848Y-61457299D01*
X116641850Y-61457295D01*
X116643537Y-61453709D01*
X116743020Y-61147531D01*
X116803345Y-60831299D01*
X116823559Y-60510000D01*
X116803345Y-60188701D01*
X116743020Y-59872469D01*
X116643537Y-59566291D01*
X116602450Y-59478976D01*
X116508152Y-59278582D01*
X116508148Y-59278575D01*
X116506464Y-59274996D01*
X116333963Y-59003178D01*
X116313650Y-58978623D01*
X116252094Y-58904215D01*
X116128754Y-58755123D01*
X115894074Y-58534744D01*
X115633624Y-58345516D01*
X115351510Y-58190422D01*
X115052183Y-58071911D01*
X115048353Y-58070928D01*
X115048345Y-58070925D01*
X114810608Y-58009885D01*
X114740363Y-57991849D01*
X114736435Y-57991353D01*
X114736431Y-57991352D01*
X114609838Y-57975360D01*
X114420967Y-57951500D01*
X114099033Y-57951500D01*
X113910162Y-57975360D01*
X113783569Y-57991352D01*
X113783565Y-57991353D01*
X113779637Y-57991849D01*
X113709392Y-58009885D01*
X113471655Y-58070925D01*
X113471647Y-58070928D01*
X113467817Y-58071911D01*
X113168490Y-58190422D01*
X112886376Y-58345516D01*
X112625926Y-58534744D01*
X112391246Y-58755123D01*
X112267906Y-58904215D01*
X112206351Y-58978623D01*
X112186037Y-59003178D01*
X112013536Y-59274996D01*
X112011852Y-59278575D01*
X112011848Y-59278582D01*
X111917550Y-59478976D01*
X111876463Y-59566291D01*
X111776980Y-59872469D01*
X111716655Y-60188701D01*
X111696441Y-60510000D01*
X92568500Y-60510000D01*
X92568500Y-55558134D01*
X102951500Y-55558134D01*
X102958255Y-55620316D01*
X103009385Y-55756705D01*
X103096739Y-55873261D01*
X103213295Y-55960615D01*
X103349684Y-56011745D01*
X103411866Y-56018500D01*
X104408134Y-56018500D01*
X104470316Y-56011745D01*
X104606705Y-55960615D01*
X104723261Y-55873261D01*
X104810615Y-55756705D01*
X104861745Y-55620316D01*
X104868500Y-55558134D01*
X116451500Y-55558134D01*
X116458255Y-55620316D01*
X116509385Y-55756705D01*
X116596739Y-55873261D01*
X116713295Y-55960615D01*
X116849684Y-56011745D01*
X116911866Y-56018500D01*
X117908134Y-56018500D01*
X117970316Y-56011745D01*
X118106705Y-55960615D01*
X118223261Y-55873261D01*
X118310615Y-55756705D01*
X118361745Y-55620316D01*
X118368500Y-55558134D01*
X118368500Y-53470000D01*
X125396372Y-53470000D01*
X125416854Y-53730249D01*
X125418008Y-53735056D01*
X125418009Y-53735062D01*
X125424293Y-53761235D01*
X125477796Y-53984089D01*
X125479689Y-53988660D01*
X125479690Y-53988662D01*
X125486176Y-54004319D01*
X125577697Y-54225271D01*
X125714097Y-54447856D01*
X125883637Y-54646363D01*
X126082144Y-54815903D01*
X126304729Y-54952303D01*
X126309299Y-54954196D01*
X126309303Y-54954198D01*
X126498416Y-55032531D01*
X126545911Y-55052204D01*
X126634931Y-55073576D01*
X126794938Y-55111991D01*
X126794944Y-55111992D01*
X126799751Y-55113146D01*
X127060000Y-55133628D01*
X127320249Y-55113146D01*
X127325056Y-55111992D01*
X127325062Y-55111991D01*
X127485069Y-55073576D01*
X127574089Y-55052204D01*
X127621584Y-55032531D01*
X127810697Y-54954198D01*
X127810701Y-54954196D01*
X127815271Y-54952303D01*
X127819491Y-54949717D01*
X127819501Y-54949712D01*
X127859665Y-54925099D01*
X127928198Y-54906560D01*
X127995875Y-54928016D01*
X128041208Y-54982655D01*
X128051500Y-55032531D01*
X128051500Y-58961377D01*
X128051498Y-58962147D01*
X128051024Y-59039721D01*
X128053491Y-59048352D01*
X128059150Y-59068153D01*
X128062728Y-59084915D01*
X128066920Y-59114187D01*
X128070634Y-59122355D01*
X128070634Y-59122356D01*
X128077548Y-59137562D01*
X128083996Y-59155086D01*
X128091051Y-59179771D01*
X128095843Y-59187365D01*
X128095844Y-59187368D01*
X128106830Y-59204780D01*
X128114969Y-59219863D01*
X128127208Y-59246782D01*
X128133069Y-59253584D01*
X128143970Y-59266235D01*
X128155073Y-59281239D01*
X128168776Y-59302958D01*
X128175501Y-59308897D01*
X128175504Y-59308901D01*
X128190938Y-59322532D01*
X128202982Y-59334724D01*
X128216427Y-59350327D01*
X128216430Y-59350329D01*
X128222287Y-59357127D01*
X128229816Y-59362007D01*
X128229817Y-59362008D01*
X128243835Y-59371094D01*
X128258709Y-59382385D01*
X128265354Y-59388253D01*
X128277951Y-59399378D01*
X128304711Y-59411942D01*
X128319691Y-59420263D01*
X128336983Y-59431471D01*
X128336988Y-59431473D01*
X128344515Y-59436352D01*
X128353108Y-59438922D01*
X128353113Y-59438924D01*
X128369120Y-59443711D01*
X128386564Y-59450372D01*
X128401676Y-59457467D01*
X128401678Y-59457468D01*
X128409800Y-59461281D01*
X128418667Y-59462662D01*
X128418668Y-59462662D01*
X128421353Y-59463080D01*
X128439017Y-59465830D01*
X128455732Y-59469613D01*
X128475466Y-59475515D01*
X128475472Y-59475516D01*
X128484066Y-59478086D01*
X128493037Y-59478141D01*
X128493038Y-59478141D01*
X128503097Y-59478202D01*
X128518506Y-59478296D01*
X128519289Y-59478329D01*
X128520386Y-59478500D01*
X128551377Y-59478500D01*
X128552147Y-59478502D01*
X128625785Y-59478952D01*
X128625786Y-59478952D01*
X128629721Y-59478976D01*
X128631065Y-59478592D01*
X128632410Y-59478500D01*
X145950715Y-59478500D01*
X146018836Y-59498502D01*
X146065329Y-59552158D01*
X146075433Y-59622432D01*
X146053928Y-59676770D01*
X145958672Y-59812810D01*
X145958669Y-59812816D01*
X145955512Y-59817324D01*
X145953189Y-59822306D01*
X145953186Y-59822311D01*
X145931558Y-59868693D01*
X145861560Y-60018804D01*
X145804022Y-60233537D01*
X145784647Y-60455000D01*
X145804022Y-60676463D01*
X145805446Y-60681776D01*
X145845511Y-60831299D01*
X145861560Y-60891196D01*
X145863882Y-60896177D01*
X145863883Y-60896178D01*
X145953186Y-61087689D01*
X145953189Y-61087694D01*
X145955512Y-61092676D01*
X145958668Y-61097183D01*
X145958669Y-61097185D01*
X146066306Y-61250906D01*
X146083023Y-61274781D01*
X146240219Y-61431977D01*
X146244727Y-61435134D01*
X146244730Y-61435136D01*
X146320495Y-61488187D01*
X146422323Y-61559488D01*
X146427305Y-61561811D01*
X146427310Y-61561814D01*
X146618822Y-61651117D01*
X146623804Y-61653440D01*
X146629112Y-61654862D01*
X146629114Y-61654863D01*
X146660187Y-61663189D01*
X146838537Y-61710978D01*
X147060000Y-61730353D01*
X147281463Y-61710978D01*
X147459813Y-61663189D01*
X147490886Y-61654863D01*
X147490888Y-61654862D01*
X147496196Y-61653440D01*
X147501178Y-61651117D01*
X147692690Y-61561814D01*
X147692695Y-61561811D01*
X147697677Y-61559488D01*
X147799505Y-61488187D01*
X147875270Y-61435136D01*
X147875273Y-61435134D01*
X147879781Y-61431977D01*
X148036977Y-61274781D01*
X148053695Y-61250906D01*
X148161331Y-61097185D01*
X148161332Y-61097183D01*
X148164488Y-61092676D01*
X148166811Y-61087694D01*
X148166814Y-61087689D01*
X148256117Y-60896178D01*
X148256118Y-60896177D01*
X148258440Y-60891196D01*
X148274490Y-60831299D01*
X148314554Y-60681776D01*
X148315978Y-60676463D01*
X148335353Y-60455000D01*
X148315978Y-60233537D01*
X148258440Y-60018804D01*
X148188442Y-59868693D01*
X148166814Y-59822311D01*
X148166811Y-59822306D01*
X148164488Y-59817324D01*
X148161331Y-59812816D01*
X148161328Y-59812810D01*
X148066072Y-59676770D01*
X148043384Y-59609497D01*
X148060669Y-59540636D01*
X148112439Y-59492052D01*
X148169285Y-59478500D01*
X151551377Y-59478500D01*
X151552148Y-59478502D01*
X151629721Y-59478976D01*
X151658152Y-59470850D01*
X151674915Y-59467272D01*
X151675753Y-59467152D01*
X151704187Y-59463080D01*
X151727564Y-59452451D01*
X151745087Y-59446004D01*
X151769771Y-59438949D01*
X151777365Y-59434157D01*
X151777368Y-59434156D01*
X151794780Y-59423170D01*
X151809865Y-59415030D01*
X151836782Y-59402792D01*
X151856235Y-59386030D01*
X151871239Y-59374927D01*
X151892958Y-59361224D01*
X151898897Y-59354499D01*
X151898901Y-59354496D01*
X151912532Y-59339062D01*
X151924724Y-59327018D01*
X151940327Y-59313573D01*
X151940329Y-59313570D01*
X151947127Y-59307713D01*
X151961094Y-59286165D01*
X151972385Y-59271291D01*
X151983431Y-59258783D01*
X151983432Y-59258782D01*
X151989378Y-59252049D01*
X152001943Y-59225287D01*
X152010263Y-59210309D01*
X152021471Y-59193017D01*
X152021473Y-59193012D01*
X152026352Y-59185485D01*
X152028922Y-59176892D01*
X152028924Y-59176887D01*
X152033711Y-59160880D01*
X152040372Y-59143436D01*
X152047467Y-59128324D01*
X152047468Y-59128322D01*
X152051281Y-59120200D01*
X152055830Y-59090983D01*
X152059613Y-59074268D01*
X152065515Y-59054534D01*
X152065516Y-59054528D01*
X152068086Y-59045934D01*
X152068296Y-59011494D01*
X152068329Y-59010711D01*
X152068500Y-59009614D01*
X152068500Y-58978623D01*
X152068502Y-58977853D01*
X152068952Y-58904215D01*
X152068952Y-58904214D01*
X152068976Y-58900279D01*
X152068592Y-58898935D01*
X152068500Y-58897590D01*
X152068500Y-55032531D01*
X152088502Y-54964410D01*
X152142158Y-54917917D01*
X152212432Y-54907813D01*
X152260335Y-54925099D01*
X152300499Y-54949712D01*
X152300509Y-54949717D01*
X152304729Y-54952303D01*
X152309299Y-54954196D01*
X152309303Y-54954198D01*
X152498416Y-55032531D01*
X152545911Y-55052204D01*
X152634931Y-55073576D01*
X152794938Y-55111991D01*
X152794944Y-55111992D01*
X152799751Y-55113146D01*
X153060000Y-55133628D01*
X153320249Y-55113146D01*
X153325056Y-55111992D01*
X153325062Y-55111991D01*
X153485069Y-55073576D01*
X153574089Y-55052204D01*
X153621584Y-55032531D01*
X153810697Y-54954198D01*
X153810701Y-54954196D01*
X153815271Y-54952303D01*
X154037856Y-54815903D01*
X154236363Y-54646363D01*
X154405903Y-54447856D01*
X154542303Y-54225271D01*
X154633825Y-54004319D01*
X154640310Y-53988662D01*
X154640311Y-53988660D01*
X154642204Y-53984089D01*
X154695707Y-53761235D01*
X154701991Y-53735062D01*
X154701992Y-53735056D01*
X154703146Y-53730249D01*
X154723628Y-53470000D01*
X154703146Y-53209751D01*
X154701992Y-53204944D01*
X154701991Y-53204938D01*
X154654566Y-53007402D01*
X154642204Y-52955911D01*
X154635377Y-52939428D01*
X154544198Y-52719303D01*
X154544196Y-52719299D01*
X154542303Y-52714729D01*
X154405903Y-52492144D01*
X154236363Y-52293637D01*
X154037856Y-52124097D01*
X153815271Y-51987697D01*
X153810701Y-51985804D01*
X153810697Y-51985802D01*
X153578662Y-51889690D01*
X153578660Y-51889689D01*
X153574089Y-51887796D01*
X153485069Y-51866424D01*
X153325062Y-51828009D01*
X153325056Y-51828008D01*
X153320249Y-51826854D01*
X153060000Y-51806372D01*
X152799751Y-51826854D01*
X152794944Y-51828008D01*
X152794938Y-51828009D01*
X152634931Y-51866424D01*
X152545911Y-51887796D01*
X152541340Y-51889689D01*
X152541338Y-51889690D01*
X152309303Y-51985802D01*
X152309299Y-51985804D01*
X152304729Y-51987697D01*
X152300510Y-51990282D01*
X152300499Y-51990288D01*
X152260335Y-52014901D01*
X152191802Y-52033440D01*
X152124125Y-52011984D01*
X152078792Y-51957345D01*
X152068500Y-51907469D01*
X152068500Y-48602703D01*
X194950743Y-48602703D01*
X194988268Y-48887734D01*
X195064129Y-49165036D01*
X195176923Y-49429476D01*
X195324561Y-49676161D01*
X195504313Y-49900528D01*
X195712851Y-50098423D01*
X195946317Y-50266186D01*
X195950112Y-50268195D01*
X195950113Y-50268196D01*
X195971869Y-50279715D01*
X196200392Y-50400712D01*
X196470373Y-50499511D01*
X196751264Y-50560755D01*
X196779841Y-50563004D01*
X196974282Y-50578307D01*
X196974291Y-50578307D01*
X196976739Y-50578500D01*
X197132271Y-50578500D01*
X197134407Y-50578354D01*
X197134418Y-50578354D01*
X197342548Y-50564165D01*
X197342554Y-50564164D01*
X197346825Y-50563873D01*
X197351020Y-50563004D01*
X197351022Y-50563004D01*
X197487583Y-50534724D01*
X197628342Y-50505574D01*
X197899343Y-50409607D01*
X198154812Y-50277750D01*
X198158313Y-50275289D01*
X198158317Y-50275287D01*
X198272418Y-50195095D01*
X198390023Y-50112441D01*
X198600622Y-49916740D01*
X198782713Y-49694268D01*
X198932927Y-49449142D01*
X199048483Y-49185898D01*
X199127244Y-48909406D01*
X199167751Y-48624784D01*
X199167845Y-48606951D01*
X199169235Y-48341583D01*
X199169235Y-48341576D01*
X199169257Y-48337297D01*
X199131732Y-48052266D01*
X199055871Y-47774964D01*
X198988693Y-47617468D01*
X198944763Y-47514476D01*
X198944761Y-47514472D01*
X198943077Y-47510524D01*
X198795439Y-47263839D01*
X198615687Y-47039472D01*
X198407149Y-46841577D01*
X198173683Y-46673814D01*
X198151843Y-46662250D01*
X198128654Y-46649972D01*
X197919608Y-46539288D01*
X197649627Y-46440489D01*
X197368736Y-46379245D01*
X197337685Y-46376801D01*
X197145718Y-46361693D01*
X197145709Y-46361693D01*
X197143261Y-46361500D01*
X196987729Y-46361500D01*
X196985593Y-46361646D01*
X196985582Y-46361646D01*
X196777452Y-46375835D01*
X196777446Y-46375836D01*
X196773175Y-46376127D01*
X196768980Y-46376996D01*
X196768978Y-46376996D01*
X196632416Y-46405277D01*
X196491658Y-46434426D01*
X196220657Y-46530393D01*
X195965188Y-46662250D01*
X195961687Y-46664711D01*
X195961683Y-46664713D01*
X195951594Y-46671804D01*
X195729977Y-46827559D01*
X195519378Y-47023260D01*
X195337287Y-47245732D01*
X195187073Y-47490858D01*
X195185347Y-47494791D01*
X195185346Y-47494792D01*
X195088808Y-47714711D01*
X195071517Y-47754102D01*
X195070342Y-47758229D01*
X195070341Y-47758230D01*
X195050276Y-47828668D01*
X194992756Y-48030594D01*
X194952249Y-48315216D01*
X194952227Y-48319505D01*
X194952226Y-48319512D01*
X194950765Y-48598417D01*
X194950743Y-48602703D01*
X152068500Y-48602703D01*
X152068500Y-47978623D01*
X152068502Y-47977853D01*
X152068800Y-47929102D01*
X152068976Y-47900279D01*
X152060850Y-47871847D01*
X152057272Y-47855085D01*
X152054352Y-47834698D01*
X152053080Y-47825813D01*
X152042451Y-47802436D01*
X152036004Y-47784913D01*
X152031416Y-47768862D01*
X152028949Y-47760229D01*
X152024156Y-47752632D01*
X152013170Y-47735220D01*
X152005030Y-47720135D01*
X152002564Y-47714711D01*
X151992792Y-47693218D01*
X151976030Y-47673765D01*
X151964927Y-47658761D01*
X151951224Y-47637042D01*
X151944499Y-47631103D01*
X151944496Y-47631099D01*
X151929062Y-47617468D01*
X151917018Y-47605276D01*
X151903573Y-47589673D01*
X151903570Y-47589671D01*
X151897713Y-47582873D01*
X151884009Y-47573990D01*
X151876165Y-47568906D01*
X151861291Y-47557615D01*
X151848783Y-47546569D01*
X151848782Y-47546568D01*
X151842049Y-47540622D01*
X151815287Y-47528057D01*
X151800309Y-47519737D01*
X151783017Y-47508529D01*
X151783012Y-47508527D01*
X151775485Y-47503648D01*
X151766892Y-47501078D01*
X151766887Y-47501076D01*
X151750880Y-47496289D01*
X151733436Y-47489628D01*
X151718324Y-47482533D01*
X151718322Y-47482532D01*
X151710200Y-47478719D01*
X151701333Y-47477338D01*
X151701332Y-47477338D01*
X151690478Y-47475648D01*
X151680983Y-47474170D01*
X151664268Y-47470387D01*
X151644534Y-47464485D01*
X151644528Y-47464484D01*
X151635934Y-47461914D01*
X151626963Y-47461859D01*
X151626962Y-47461859D01*
X151616903Y-47461798D01*
X151601494Y-47461704D01*
X151600711Y-47461671D01*
X151599614Y-47461500D01*
X151568623Y-47461500D01*
X151567853Y-47461498D01*
X151494215Y-47461048D01*
X151494214Y-47461048D01*
X151490279Y-47461024D01*
X151488935Y-47461408D01*
X151487590Y-47461500D01*
X128568623Y-47461500D01*
X128567853Y-47461498D01*
X128567037Y-47461493D01*
X128490279Y-47461024D01*
X128467918Y-47467415D01*
X128461847Y-47469150D01*
X128445085Y-47472728D01*
X128415813Y-47476920D01*
X128407645Y-47480634D01*
X128407644Y-47480634D01*
X128392438Y-47487548D01*
X128374914Y-47493996D01*
X128350229Y-47501051D01*
X128342635Y-47505843D01*
X128342632Y-47505844D01*
X128325220Y-47516830D01*
X128310137Y-47524969D01*
X128283218Y-47537208D01*
X128276416Y-47543069D01*
X128263765Y-47553970D01*
X128248761Y-47565073D01*
X128227042Y-47578776D01*
X128221103Y-47585501D01*
X128221099Y-47585504D01*
X128207468Y-47600938D01*
X128195276Y-47612982D01*
X128179673Y-47626427D01*
X128179671Y-47626430D01*
X128172873Y-47632287D01*
X128167993Y-47639816D01*
X128167992Y-47639817D01*
X128158906Y-47653835D01*
X128147615Y-47668709D01*
X128136569Y-47681217D01*
X128130622Y-47687951D01*
X128124312Y-47701391D01*
X128118058Y-47714711D01*
X128109737Y-47729691D01*
X128098529Y-47746983D01*
X128098527Y-47746988D01*
X128093648Y-47754515D01*
X128091078Y-47763108D01*
X128091076Y-47763113D01*
X128086289Y-47779120D01*
X128079628Y-47796564D01*
X128072533Y-47811676D01*
X128068719Y-47819800D01*
X128067338Y-47828667D01*
X128067338Y-47828668D01*
X128064170Y-47849015D01*
X128060387Y-47865732D01*
X128054485Y-47885466D01*
X128054484Y-47885472D01*
X128051914Y-47894066D01*
X128051859Y-47903037D01*
X128051859Y-47903038D01*
X128051704Y-47928497D01*
X128051671Y-47929289D01*
X128051500Y-47930386D01*
X128051500Y-47961377D01*
X128051498Y-47962147D01*
X128051024Y-48039721D01*
X128051408Y-48041065D01*
X128051500Y-48042410D01*
X128051500Y-51907469D01*
X128031498Y-51975590D01*
X127977842Y-52022083D01*
X127907568Y-52032187D01*
X127859665Y-52014901D01*
X127819501Y-51990288D01*
X127819490Y-51990282D01*
X127815271Y-51987697D01*
X127810701Y-51985804D01*
X127810697Y-51985802D01*
X127578662Y-51889690D01*
X127578660Y-51889689D01*
X127574089Y-51887796D01*
X127485069Y-51866424D01*
X127325062Y-51828009D01*
X127325056Y-51828008D01*
X127320249Y-51826854D01*
X127060000Y-51806372D01*
X126799751Y-51826854D01*
X126794944Y-51828008D01*
X126794938Y-51828009D01*
X126634931Y-51866424D01*
X126545911Y-51887796D01*
X126541340Y-51889689D01*
X126541338Y-51889690D01*
X126309303Y-51985802D01*
X126309299Y-51985804D01*
X126304729Y-51987697D01*
X126082144Y-52124097D01*
X125883637Y-52293637D01*
X125714097Y-52492144D01*
X125577697Y-52714729D01*
X125575804Y-52719299D01*
X125575802Y-52719303D01*
X125484623Y-52939428D01*
X125477796Y-52955911D01*
X125465434Y-53007402D01*
X125418009Y-53204938D01*
X125418008Y-53204944D01*
X125416854Y-53209751D01*
X125401906Y-53399684D01*
X125396901Y-53463282D01*
X125396899Y-53463282D01*
X125396900Y-53463290D01*
X125396372Y-53470000D01*
X118368500Y-53470000D01*
X118368500Y-53461866D01*
X118361745Y-53399684D01*
X118310615Y-53263295D01*
X118223261Y-53146739D01*
X118106705Y-53059385D01*
X117970316Y-53008255D01*
X117908134Y-53001500D01*
X116911866Y-53001500D01*
X116849684Y-53008255D01*
X116713295Y-53059385D01*
X116596739Y-53146739D01*
X116509385Y-53263295D01*
X116458255Y-53399684D01*
X116451500Y-53461866D01*
X116451500Y-55558134D01*
X104868500Y-55558134D01*
X104868500Y-53461866D01*
X104861745Y-53399684D01*
X104810615Y-53263295D01*
X104723261Y-53146739D01*
X104606705Y-53059385D01*
X104470316Y-53008255D01*
X104408134Y-53001500D01*
X103411866Y-53001500D01*
X103349684Y-53008255D01*
X103213295Y-53059385D01*
X103096739Y-53146739D01*
X103009385Y-53263295D01*
X102958255Y-53399684D01*
X102951500Y-53461866D01*
X102951500Y-55558134D01*
X92568500Y-55558134D01*
X92568500Y-48602703D01*
X94950743Y-48602703D01*
X94988268Y-48887734D01*
X95064129Y-49165036D01*
X95176923Y-49429476D01*
X95324561Y-49676161D01*
X95504313Y-49900528D01*
X95712851Y-50098423D01*
X95946317Y-50266186D01*
X95950112Y-50268195D01*
X95950113Y-50268196D01*
X95971869Y-50279715D01*
X96200392Y-50400712D01*
X96470373Y-50499511D01*
X96751264Y-50560755D01*
X96779841Y-50563004D01*
X96974282Y-50578307D01*
X96974291Y-50578307D01*
X96976739Y-50578500D01*
X97132271Y-50578500D01*
X97134407Y-50578354D01*
X97134418Y-50578354D01*
X97342548Y-50564165D01*
X97342554Y-50564164D01*
X97346825Y-50563873D01*
X97351020Y-50563004D01*
X97351022Y-50563004D01*
X97487583Y-50534724D01*
X97628342Y-50505574D01*
X97899343Y-50409607D01*
X98154812Y-50277750D01*
X98158313Y-50275289D01*
X98158317Y-50275287D01*
X98272418Y-50195095D01*
X98390023Y-50112441D01*
X98600622Y-49916740D01*
X98782713Y-49694268D01*
X98932927Y-49449142D01*
X99048483Y-49185898D01*
X99127244Y-48909406D01*
X99167751Y-48624784D01*
X99167845Y-48606951D01*
X99169235Y-48341583D01*
X99169235Y-48341576D01*
X99169257Y-48337297D01*
X99131732Y-48052266D01*
X99055871Y-47774964D01*
X98988693Y-47617468D01*
X98944763Y-47514476D01*
X98944761Y-47514472D01*
X98943077Y-47510524D01*
X98795439Y-47263839D01*
X98615687Y-47039472D01*
X98407149Y-46841577D01*
X98173683Y-46673814D01*
X98151843Y-46662250D01*
X98128654Y-46649972D01*
X97919608Y-46539288D01*
X97649627Y-46440489D01*
X97368736Y-46379245D01*
X97337685Y-46376801D01*
X97145718Y-46361693D01*
X97145709Y-46361693D01*
X97143261Y-46361500D01*
X96987729Y-46361500D01*
X96985593Y-46361646D01*
X96985582Y-46361646D01*
X96777452Y-46375835D01*
X96777446Y-46375836D01*
X96773175Y-46376127D01*
X96768980Y-46376996D01*
X96768978Y-46376996D01*
X96632416Y-46405277D01*
X96491658Y-46434426D01*
X96220657Y-46530393D01*
X95965188Y-46662250D01*
X95961687Y-46664711D01*
X95961683Y-46664713D01*
X95951594Y-46671804D01*
X95729977Y-46827559D01*
X95519378Y-47023260D01*
X95337287Y-47245732D01*
X95187073Y-47490858D01*
X95185347Y-47494791D01*
X95185346Y-47494792D01*
X95088808Y-47714711D01*
X95071517Y-47754102D01*
X95070342Y-47758229D01*
X95070341Y-47758230D01*
X95050276Y-47828668D01*
X94992756Y-48030594D01*
X94952249Y-48315216D01*
X94952227Y-48319505D01*
X94952226Y-48319512D01*
X94950765Y-48598417D01*
X94950743Y-48602703D01*
X92568500Y-48602703D01*
X92568500Y-44104500D01*
X92588502Y-44036379D01*
X92642158Y-43989886D01*
X92694500Y-43978500D01*
X201425500Y-43978500D01*
X201493621Y-43998502D01*
G37*
%TD.AperFunction*%
%TD*%
M02*
