%TF.GenerationSoftware,KiCad,Pcbnew,(6.0.11)*%
%TF.CreationDate,2023-08-03T06:57:00+09:00*%
%TF.ProjectId,motordriver,6d6f746f-7264-4726-9976-65722e6b6963,rev?*%
%TF.SameCoordinates,Original*%
%TF.FileFunction,Legend,Bot*%
%TF.FilePolarity,Positive*%
%FSLAX46Y46*%
G04 Gerber Fmt 4.6, Leading zero omitted, Abs format (unit mm)*
G04 Created by KiCad (PCBNEW (6.0.11)) date 2023-08-03 06:57:00*
%MOMM*%
%LPD*%
G01*
G04 APERTURE LIST*
G04 Aperture macros list*
%AMRoundRect*
0 Rectangle with rounded corners*
0 $1 Rounding radius*
0 $2 $3 $4 $5 $6 $7 $8 $9 X,Y pos of 4 corners*
0 Add a 4 corners polygon primitive as box body*
4,1,4,$2,$3,$4,$5,$6,$7,$8,$9,$2,$3,0*
0 Add four circle primitives for the rounded corners*
1,1,$1+$1,$2,$3*
1,1,$1+$1,$4,$5*
1,1,$1+$1,$6,$7*
1,1,$1+$1,$8,$9*
0 Add four rect primitives between the rounded corners*
20,1,$1+$1,$2,$3,$4,$5,0*
20,1,$1+$1,$4,$5,$6,$7,0*
20,1,$1+$1,$6,$7,$8,$9,0*
20,1,$1+$1,$8,$9,$2,$3,0*%
G04 Aperture macros list end*
%ADD10C,0.150000*%
%ADD11C,0.120000*%
%ADD12RoundRect,0.250000X0.600000X-0.600000X0.600000X0.600000X-0.600000X0.600000X-0.600000X-0.600000X0*%
%ADD13C,1.700000*%
%ADD14R,1.700000X1.700000*%
%ADD15O,1.700000X1.700000*%
%ADD16RoundRect,0.425000X0.425000X0.425000X-0.425000X0.425000X-0.425000X-0.425000X0.425000X-0.425000X0*%
%ADD17R,1.600000X1.600000*%
%ADD18O,1.600000X1.600000*%
%ADD19RoundRect,0.381000X-0.381000X0.381000X-0.381000X-0.381000X0.381000X-0.381000X0.381000X0.381000X0*%
%ADD20C,1.524000*%
%ADD21C,1.400000*%
%ADD22R,3.500000X3.500000*%
%ADD23C,3.500000*%
%ADD24C,1.600000*%
%ADD25RoundRect,0.381000X-0.381000X-0.381000X0.381000X-0.381000X0.381000X0.381000X-0.381000X0.381000X0*%
%ADD26RoundRect,0.237500X-0.237500X0.250000X-0.237500X-0.250000X0.237500X-0.250000X0.237500X0.250000X0*%
%ADD27RoundRect,0.237500X-0.237500X0.300000X-0.237500X-0.300000X0.237500X-0.300000X0.237500X0.300000X0*%
%ADD28RoundRect,0.237500X-0.250000X-0.237500X0.250000X-0.237500X0.250000X0.237500X-0.250000X0.237500X0*%
%ADD29RoundRect,0.237500X-0.300000X-0.237500X0.300000X-0.237500X0.300000X0.237500X-0.300000X0.237500X0*%
%ADD30RoundRect,0.237500X0.237500X-0.250000X0.237500X0.250000X-0.237500X0.250000X-0.237500X-0.250000X0*%
%ADD31RoundRect,0.237500X0.250000X0.237500X-0.250000X0.237500X-0.250000X-0.237500X0.250000X-0.237500X0*%
%ADD32RoundRect,0.237500X0.008839X0.344715X-0.344715X-0.008839X-0.008839X-0.344715X0.344715X0.008839X0*%
%ADD33R,1.900000X0.800000*%
%ADD34R,0.900000X1.200000*%
%ADD35RoundRect,0.250000X-0.337500X-0.475000X0.337500X-0.475000X0.337500X0.475000X-0.337500X0.475000X0*%
%ADD36R,0.800000X1.900000*%
%ADD37RoundRect,0.250000X0.337500X0.475000X-0.337500X0.475000X-0.337500X-0.475000X0.337500X-0.475000X0*%
%ADD38RoundRect,0.237500X0.300000X0.237500X-0.300000X0.237500X-0.300000X-0.237500X0.300000X-0.237500X0*%
%ADD39RoundRect,0.237500X-0.008839X-0.344715X0.344715X0.008839X0.008839X0.344715X-0.344715X-0.008839X0*%
G04 APERTURE END LIST*
D10*
%TO.C,R37*%
X175952380Y-105257142D02*
X175476190Y-104923809D01*
X175952380Y-104685714D02*
X174952380Y-104685714D01*
X174952380Y-105066666D01*
X175000000Y-105161904D01*
X175047619Y-105209523D01*
X175142857Y-105257142D01*
X175285714Y-105257142D01*
X175380952Y-105209523D01*
X175428571Y-105161904D01*
X175476190Y-105066666D01*
X175476190Y-104685714D01*
X174952380Y-105590476D02*
X174952380Y-106209523D01*
X175333333Y-105876190D01*
X175333333Y-106019047D01*
X175380952Y-106114285D01*
X175428571Y-106161904D01*
X175523809Y-106209523D01*
X175761904Y-106209523D01*
X175857142Y-106161904D01*
X175904761Y-106114285D01*
X175952380Y-106019047D01*
X175952380Y-105733333D01*
X175904761Y-105638095D01*
X175857142Y-105590476D01*
X174952380Y-106542857D02*
X174952380Y-107209523D01*
X175952380Y-106780952D01*
%TO.C,C24*%
X208417142Y-110387142D02*
X208464761Y-110339523D01*
X208512380Y-110196666D01*
X208512380Y-110101428D01*
X208464761Y-109958571D01*
X208369523Y-109863333D01*
X208274285Y-109815714D01*
X208083809Y-109768095D01*
X207940952Y-109768095D01*
X207750476Y-109815714D01*
X207655238Y-109863333D01*
X207560000Y-109958571D01*
X207512380Y-110101428D01*
X207512380Y-110196666D01*
X207560000Y-110339523D01*
X207607619Y-110387142D01*
X207607619Y-110768095D02*
X207560000Y-110815714D01*
X207512380Y-110910952D01*
X207512380Y-111149047D01*
X207560000Y-111244285D01*
X207607619Y-111291904D01*
X207702857Y-111339523D01*
X207798095Y-111339523D01*
X207940952Y-111291904D01*
X208512380Y-110720476D01*
X208512380Y-111339523D01*
X207845714Y-112196666D02*
X208512380Y-112196666D01*
X207464761Y-111958571D02*
X208179047Y-111720476D01*
X208179047Y-112339523D01*
%TO.C,R34*%
X163132857Y-103732380D02*
X163466190Y-103256190D01*
X163704285Y-103732380D02*
X163704285Y-102732380D01*
X163323333Y-102732380D01*
X163228095Y-102780000D01*
X163180476Y-102827619D01*
X163132857Y-102922857D01*
X163132857Y-103065714D01*
X163180476Y-103160952D01*
X163228095Y-103208571D01*
X163323333Y-103256190D01*
X163704285Y-103256190D01*
X162799523Y-102732380D02*
X162180476Y-102732380D01*
X162513809Y-103113333D01*
X162370952Y-103113333D01*
X162275714Y-103160952D01*
X162228095Y-103208571D01*
X162180476Y-103303809D01*
X162180476Y-103541904D01*
X162228095Y-103637142D01*
X162275714Y-103684761D01*
X162370952Y-103732380D01*
X162656666Y-103732380D01*
X162751904Y-103684761D01*
X162799523Y-103637142D01*
X161323333Y-103065714D02*
X161323333Y-103732380D01*
X161561428Y-102684761D02*
X161799523Y-103399047D01*
X161180476Y-103399047D01*
%TO.C,R36*%
X163122857Y-102252380D02*
X163456190Y-101776190D01*
X163694285Y-102252380D02*
X163694285Y-101252380D01*
X163313333Y-101252380D01*
X163218095Y-101300000D01*
X163170476Y-101347619D01*
X163122857Y-101442857D01*
X163122857Y-101585714D01*
X163170476Y-101680952D01*
X163218095Y-101728571D01*
X163313333Y-101776190D01*
X163694285Y-101776190D01*
X162789523Y-101252380D02*
X162170476Y-101252380D01*
X162503809Y-101633333D01*
X162360952Y-101633333D01*
X162265714Y-101680952D01*
X162218095Y-101728571D01*
X162170476Y-101823809D01*
X162170476Y-102061904D01*
X162218095Y-102157142D01*
X162265714Y-102204761D01*
X162360952Y-102252380D01*
X162646666Y-102252380D01*
X162741904Y-102204761D01*
X162789523Y-102157142D01*
X161313333Y-101252380D02*
X161503809Y-101252380D01*
X161599047Y-101300000D01*
X161646666Y-101347619D01*
X161741904Y-101490476D01*
X161789523Y-101680952D01*
X161789523Y-102061904D01*
X161741904Y-102157142D01*
X161694285Y-102204761D01*
X161599047Y-102252380D01*
X161408571Y-102252380D01*
X161313333Y-102204761D01*
X161265714Y-102157142D01*
X161218095Y-102061904D01*
X161218095Y-101823809D01*
X161265714Y-101728571D01*
X161313333Y-101680952D01*
X161408571Y-101633333D01*
X161599047Y-101633333D01*
X161694285Y-101680952D01*
X161741904Y-101728571D01*
X161789523Y-101823809D01*
%TO.C,R30*%
X103792857Y-76352380D02*
X104126190Y-75876190D01*
X104364285Y-76352380D02*
X104364285Y-75352380D01*
X103983333Y-75352380D01*
X103888095Y-75400000D01*
X103840476Y-75447619D01*
X103792857Y-75542857D01*
X103792857Y-75685714D01*
X103840476Y-75780952D01*
X103888095Y-75828571D01*
X103983333Y-75876190D01*
X104364285Y-75876190D01*
X103459523Y-75352380D02*
X102840476Y-75352380D01*
X103173809Y-75733333D01*
X103030952Y-75733333D01*
X102935714Y-75780952D01*
X102888095Y-75828571D01*
X102840476Y-75923809D01*
X102840476Y-76161904D01*
X102888095Y-76257142D01*
X102935714Y-76304761D01*
X103030952Y-76352380D01*
X103316666Y-76352380D01*
X103411904Y-76304761D01*
X103459523Y-76257142D01*
X102221428Y-75352380D02*
X102126190Y-75352380D01*
X102030952Y-75400000D01*
X101983333Y-75447619D01*
X101935714Y-75542857D01*
X101888095Y-75733333D01*
X101888095Y-75971428D01*
X101935714Y-76161904D01*
X101983333Y-76257142D01*
X102030952Y-76304761D01*
X102126190Y-76352380D01*
X102221428Y-76352380D01*
X102316666Y-76304761D01*
X102364285Y-76257142D01*
X102411904Y-76161904D01*
X102459523Y-75971428D01*
X102459523Y-75733333D01*
X102411904Y-75542857D01*
X102364285Y-75447619D01*
X102316666Y-75400000D01*
X102221428Y-75352380D01*
%TO.C,C8*%
X149186666Y-96907142D02*
X149234285Y-96954761D01*
X149377142Y-97002380D01*
X149472380Y-97002380D01*
X149615238Y-96954761D01*
X149710476Y-96859523D01*
X149758095Y-96764285D01*
X149805714Y-96573809D01*
X149805714Y-96430952D01*
X149758095Y-96240476D01*
X149710476Y-96145238D01*
X149615238Y-96050000D01*
X149472380Y-96002380D01*
X149377142Y-96002380D01*
X149234285Y-96050000D01*
X149186666Y-96097619D01*
X148615238Y-96430952D02*
X148710476Y-96383333D01*
X148758095Y-96335714D01*
X148805714Y-96240476D01*
X148805714Y-96192857D01*
X148758095Y-96097619D01*
X148710476Y-96050000D01*
X148615238Y-96002380D01*
X148424761Y-96002380D01*
X148329523Y-96050000D01*
X148281904Y-96097619D01*
X148234285Y-96192857D01*
X148234285Y-96240476D01*
X148281904Y-96335714D01*
X148329523Y-96383333D01*
X148424761Y-96430952D01*
X148615238Y-96430952D01*
X148710476Y-96478571D01*
X148758095Y-96526190D01*
X148805714Y-96621428D01*
X148805714Y-96811904D01*
X148758095Y-96907142D01*
X148710476Y-96954761D01*
X148615238Y-97002380D01*
X148424761Y-97002380D01*
X148329523Y-96954761D01*
X148281904Y-96907142D01*
X148234285Y-96811904D01*
X148234285Y-96621428D01*
X148281904Y-96526190D01*
X148329523Y-96478571D01*
X148424761Y-96430952D01*
%TO.C,R38*%
X175769881Y-101857142D02*
X175293691Y-101523809D01*
X175769881Y-101285714D02*
X174769881Y-101285714D01*
X174769881Y-101666666D01*
X174817501Y-101761904D01*
X174865120Y-101809523D01*
X174960358Y-101857142D01*
X175103215Y-101857142D01*
X175198453Y-101809523D01*
X175246072Y-101761904D01*
X175293691Y-101666666D01*
X175293691Y-101285714D01*
X174769881Y-102190476D02*
X174769881Y-102809523D01*
X175150834Y-102476190D01*
X175150834Y-102619047D01*
X175198453Y-102714285D01*
X175246072Y-102761904D01*
X175341310Y-102809523D01*
X175579405Y-102809523D01*
X175674643Y-102761904D01*
X175722262Y-102714285D01*
X175769881Y-102619047D01*
X175769881Y-102333333D01*
X175722262Y-102238095D01*
X175674643Y-102190476D01*
X175198453Y-103380952D02*
X175150834Y-103285714D01*
X175103215Y-103238095D01*
X175007977Y-103190476D01*
X174960358Y-103190476D01*
X174865120Y-103238095D01*
X174817501Y-103285714D01*
X174769881Y-103380952D01*
X174769881Y-103571428D01*
X174817501Y-103666666D01*
X174865120Y-103714285D01*
X174960358Y-103761904D01*
X175007977Y-103761904D01*
X175103215Y-103714285D01*
X175150834Y-103666666D01*
X175198453Y-103571428D01*
X175198453Y-103380952D01*
X175246072Y-103285714D01*
X175293691Y-103238095D01*
X175388929Y-103190476D01*
X175579405Y-103190476D01*
X175674643Y-103238095D01*
X175722262Y-103285714D01*
X175769881Y-103380952D01*
X175769881Y-103571428D01*
X175722262Y-103666666D01*
X175674643Y-103714285D01*
X175579405Y-103761904D01*
X175388929Y-103761904D01*
X175293691Y-103714285D01*
X175246072Y-103666666D01*
X175198453Y-103571428D01*
%TO.C,R12*%
X106802857Y-106152380D02*
X107136190Y-105676190D01*
X107374285Y-106152380D02*
X107374285Y-105152380D01*
X106993333Y-105152380D01*
X106898095Y-105200000D01*
X106850476Y-105247619D01*
X106802857Y-105342857D01*
X106802857Y-105485714D01*
X106850476Y-105580952D01*
X106898095Y-105628571D01*
X106993333Y-105676190D01*
X107374285Y-105676190D01*
X105850476Y-106152380D02*
X106421904Y-106152380D01*
X106136190Y-106152380D02*
X106136190Y-105152380D01*
X106231428Y-105295238D01*
X106326666Y-105390476D01*
X106421904Y-105438095D01*
X105469523Y-105247619D02*
X105421904Y-105200000D01*
X105326666Y-105152380D01*
X105088571Y-105152380D01*
X104993333Y-105200000D01*
X104945714Y-105247619D01*
X104898095Y-105342857D01*
X104898095Y-105438095D01*
X104945714Y-105580952D01*
X105517142Y-106152380D01*
X104898095Y-106152380D01*
%TO.C,R28*%
X103772857Y-71932382D02*
X104106190Y-71456192D01*
X104344285Y-71932382D02*
X104344285Y-70932382D01*
X103963333Y-70932382D01*
X103868095Y-70980002D01*
X103820476Y-71027621D01*
X103772857Y-71122859D01*
X103772857Y-71265716D01*
X103820476Y-71360954D01*
X103868095Y-71408573D01*
X103963333Y-71456192D01*
X104344285Y-71456192D01*
X103391904Y-71027621D02*
X103344285Y-70980002D01*
X103249047Y-70932382D01*
X103010952Y-70932382D01*
X102915714Y-70980002D01*
X102868095Y-71027621D01*
X102820476Y-71122859D01*
X102820476Y-71218097D01*
X102868095Y-71360954D01*
X103439523Y-71932382D01*
X102820476Y-71932382D01*
X102249047Y-71360954D02*
X102344285Y-71313335D01*
X102391904Y-71265716D01*
X102439523Y-71170478D01*
X102439523Y-71122859D01*
X102391904Y-71027621D01*
X102344285Y-70980002D01*
X102249047Y-70932382D01*
X102058571Y-70932382D01*
X101963333Y-70980002D01*
X101915714Y-71027621D01*
X101868095Y-71122859D01*
X101868095Y-71170478D01*
X101915714Y-71265716D01*
X101963333Y-71313335D01*
X102058571Y-71360954D01*
X102249047Y-71360954D01*
X102344285Y-71408573D01*
X102391904Y-71456192D01*
X102439523Y-71551430D01*
X102439523Y-71741906D01*
X102391904Y-71837144D01*
X102344285Y-71884763D01*
X102249047Y-71932382D01*
X102058571Y-71932382D01*
X101963333Y-71884763D01*
X101915714Y-71837144D01*
X101868095Y-71741906D01*
X101868095Y-71551430D01*
X101915714Y-71456192D01*
X101963333Y-71408573D01*
X102058571Y-71360954D01*
%TO.C,R20*%
X116122857Y-113192380D02*
X116456190Y-112716190D01*
X116694285Y-113192380D02*
X116694285Y-112192380D01*
X116313333Y-112192380D01*
X116218095Y-112240000D01*
X116170476Y-112287619D01*
X116122857Y-112382857D01*
X116122857Y-112525714D01*
X116170476Y-112620952D01*
X116218095Y-112668571D01*
X116313333Y-112716190D01*
X116694285Y-112716190D01*
X115741904Y-112287619D02*
X115694285Y-112240000D01*
X115599047Y-112192380D01*
X115360952Y-112192380D01*
X115265714Y-112240000D01*
X115218095Y-112287619D01*
X115170476Y-112382857D01*
X115170476Y-112478095D01*
X115218095Y-112620952D01*
X115789523Y-113192380D01*
X115170476Y-113192380D01*
X114551428Y-112192380D02*
X114456190Y-112192380D01*
X114360952Y-112240000D01*
X114313333Y-112287619D01*
X114265714Y-112382857D01*
X114218095Y-112573333D01*
X114218095Y-112811428D01*
X114265714Y-113001904D01*
X114313333Y-113097142D01*
X114360952Y-113144761D01*
X114456190Y-113192380D01*
X114551428Y-113192380D01*
X114646666Y-113144761D01*
X114694285Y-113097142D01*
X114741904Y-113001904D01*
X114789523Y-112811428D01*
X114789523Y-112573333D01*
X114741904Y-112382857D01*
X114694285Y-112287619D01*
X114646666Y-112240000D01*
X114551428Y-112192380D01*
%TO.C,R45*%
X193347380Y-96827142D02*
X192871190Y-96493809D01*
X193347380Y-96255714D02*
X192347380Y-96255714D01*
X192347380Y-96636666D01*
X192395000Y-96731904D01*
X192442619Y-96779523D01*
X192537857Y-96827142D01*
X192680714Y-96827142D01*
X192775952Y-96779523D01*
X192823571Y-96731904D01*
X192871190Y-96636666D01*
X192871190Y-96255714D01*
X192680714Y-97684285D02*
X193347380Y-97684285D01*
X192299761Y-97446190D02*
X193014047Y-97208095D01*
X193014047Y-97827142D01*
X192347380Y-98684285D02*
X192347380Y-98208095D01*
X192823571Y-98160476D01*
X192775952Y-98208095D01*
X192728333Y-98303333D01*
X192728333Y-98541428D01*
X192775952Y-98636666D01*
X192823571Y-98684285D01*
X192918809Y-98731904D01*
X193156904Y-98731904D01*
X193252142Y-98684285D01*
X193299761Y-98636666D01*
X193347380Y-98541428D01*
X193347380Y-98303333D01*
X193299761Y-98208095D01*
X193252142Y-98160476D01*
%TO.C,R13*%
X102522380Y-105567142D02*
X102046190Y-105233809D01*
X102522380Y-104995714D02*
X101522380Y-104995714D01*
X101522380Y-105376666D01*
X101570000Y-105471904D01*
X101617619Y-105519523D01*
X101712857Y-105567142D01*
X101855714Y-105567142D01*
X101950952Y-105519523D01*
X101998571Y-105471904D01*
X102046190Y-105376666D01*
X102046190Y-104995714D01*
X102522380Y-106519523D02*
X102522380Y-105948095D01*
X102522380Y-106233809D02*
X101522380Y-106233809D01*
X101665238Y-106138571D01*
X101760476Y-106043333D01*
X101808095Y-105948095D01*
X101522380Y-106852857D02*
X101522380Y-107471904D01*
X101903333Y-107138571D01*
X101903333Y-107281428D01*
X101950952Y-107376666D01*
X101998571Y-107424285D01*
X102093809Y-107471904D01*
X102331904Y-107471904D01*
X102427142Y-107424285D01*
X102474761Y-107376666D01*
X102522380Y-107281428D01*
X102522380Y-106995714D01*
X102474761Y-106900476D01*
X102427142Y-106852857D01*
%TO.C,R47*%
X189228287Y-83074149D02*
X189127272Y-82501730D01*
X189632348Y-82670088D02*
X188925241Y-81962982D01*
X188655867Y-82232356D01*
X188622195Y-82333371D01*
X188622195Y-82400714D01*
X188655867Y-82501730D01*
X188756882Y-82602745D01*
X188857898Y-82636417D01*
X188925241Y-82636417D01*
X189026256Y-82602745D01*
X189295630Y-82333371D01*
X188150791Y-83208837D02*
X188622195Y-83680241D01*
X188049775Y-82771104D02*
X188723211Y-83107821D01*
X188285478Y-83545554D01*
X187612043Y-83276180D02*
X187140638Y-83747585D01*
X188150791Y-84151646D01*
%TO.C,R2*%
X115286666Y-117982380D02*
X115620000Y-117506190D01*
X115858095Y-117982380D02*
X115858095Y-116982380D01*
X115477142Y-116982380D01*
X115381904Y-117030000D01*
X115334285Y-117077619D01*
X115286666Y-117172857D01*
X115286666Y-117315714D01*
X115334285Y-117410952D01*
X115381904Y-117458571D01*
X115477142Y-117506190D01*
X115858095Y-117506190D01*
X114905714Y-117077619D02*
X114858095Y-117030000D01*
X114762857Y-116982380D01*
X114524761Y-116982380D01*
X114429523Y-117030000D01*
X114381904Y-117077619D01*
X114334285Y-117172857D01*
X114334285Y-117268095D01*
X114381904Y-117410952D01*
X114953333Y-117982380D01*
X114334285Y-117982380D01*
D11*
%TO.C,Q9*%
X170588095Y-102463809D02*
X170550000Y-102387619D01*
X170473809Y-102311428D01*
X170359523Y-102197142D01*
X170321428Y-102120952D01*
X170321428Y-102044761D01*
X170511904Y-102082857D02*
X170473809Y-102006666D01*
X170397619Y-101930476D01*
X170245238Y-101892380D01*
X169978571Y-101892380D01*
X169826190Y-101930476D01*
X169750000Y-102006666D01*
X169711904Y-102082857D01*
X169711904Y-102235238D01*
X169750000Y-102311428D01*
X169826190Y-102387619D01*
X169978571Y-102425714D01*
X170245238Y-102425714D01*
X170397619Y-102387619D01*
X170473809Y-102311428D01*
X170511904Y-102235238D01*
X170511904Y-102082857D01*
X170511904Y-102806666D02*
X170511904Y-102959047D01*
X170473809Y-103035238D01*
X170435714Y-103073333D01*
X170321428Y-103149523D01*
X170169047Y-103187619D01*
X169864285Y-103187619D01*
X169788095Y-103149523D01*
X169750000Y-103111428D01*
X169711904Y-103035238D01*
X169711904Y-102882857D01*
X169750000Y-102806666D01*
X169788095Y-102768571D01*
X169864285Y-102730476D01*
X170054761Y-102730476D01*
X170130952Y-102768571D01*
X170169047Y-102806666D01*
X170207142Y-102882857D01*
X170207142Y-103035238D01*
X170169047Y-103111428D01*
X170130952Y-103149523D01*
X170054761Y-103187619D01*
D10*
%TO.C,D1*%
X180958095Y-86832380D02*
X180958095Y-85832380D01*
X180720000Y-85832380D01*
X180577142Y-85880000D01*
X180481904Y-85975238D01*
X180434285Y-86070476D01*
X180386666Y-86260952D01*
X180386666Y-86403809D01*
X180434285Y-86594285D01*
X180481904Y-86689523D01*
X180577142Y-86784761D01*
X180720000Y-86832380D01*
X180958095Y-86832380D01*
X179434285Y-86832380D02*
X180005714Y-86832380D01*
X179720000Y-86832380D02*
X179720000Y-85832380D01*
X179815238Y-85975238D01*
X179910476Y-86070476D01*
X180005714Y-86118095D01*
%TO.C,C3*%
X182906666Y-84537142D02*
X182954285Y-84584761D01*
X183097142Y-84632380D01*
X183192380Y-84632380D01*
X183335238Y-84584761D01*
X183430476Y-84489523D01*
X183478095Y-84394285D01*
X183525714Y-84203809D01*
X183525714Y-84060952D01*
X183478095Y-83870476D01*
X183430476Y-83775238D01*
X183335238Y-83680000D01*
X183192380Y-83632380D01*
X183097142Y-83632380D01*
X182954285Y-83680000D01*
X182906666Y-83727619D01*
X182573333Y-83632380D02*
X181954285Y-83632380D01*
X182287619Y-84013333D01*
X182144761Y-84013333D01*
X182049523Y-84060952D01*
X182001904Y-84108571D01*
X181954285Y-84203809D01*
X181954285Y-84441904D01*
X182001904Y-84537142D01*
X182049523Y-84584761D01*
X182144761Y-84632380D01*
X182430476Y-84632380D01*
X182525714Y-84584761D01*
X182573333Y-84537142D01*
%TO.C,D4*%
X154538095Y-91932380D02*
X154538095Y-90932380D01*
X154300000Y-90932380D01*
X154157142Y-90980000D01*
X154061904Y-91075238D01*
X154014285Y-91170476D01*
X153966666Y-91360952D01*
X153966666Y-91503809D01*
X154014285Y-91694285D01*
X154061904Y-91789523D01*
X154157142Y-91884761D01*
X154300000Y-91932380D01*
X154538095Y-91932380D01*
X153109523Y-91265714D02*
X153109523Y-91932380D01*
X153347619Y-90884761D02*
X153585714Y-91599047D01*
X152966666Y-91599047D01*
D11*
%TO.C,Q2*%
X152616190Y-67718095D02*
X152692380Y-67680000D01*
X152768571Y-67603809D01*
X152882857Y-67489523D01*
X152959047Y-67451428D01*
X153035238Y-67451428D01*
X152997142Y-67641904D02*
X153073333Y-67603809D01*
X153149523Y-67527619D01*
X153187619Y-67375238D01*
X153187619Y-67108571D01*
X153149523Y-66956190D01*
X153073333Y-66880000D01*
X152997142Y-66841904D01*
X152844761Y-66841904D01*
X152768571Y-66880000D01*
X152692380Y-66956190D01*
X152654285Y-67108571D01*
X152654285Y-67375238D01*
X152692380Y-67527619D01*
X152768571Y-67603809D01*
X152844761Y-67641904D01*
X152997142Y-67641904D01*
X152349523Y-66918095D02*
X152311428Y-66880000D01*
X152235238Y-66841904D01*
X152044761Y-66841904D01*
X151968571Y-66880000D01*
X151930476Y-66918095D01*
X151892380Y-66994285D01*
X151892380Y-67070476D01*
X151930476Y-67184761D01*
X152387619Y-67641904D01*
X151892380Y-67641904D01*
D10*
%TO.C,R1*%
X102706666Y-120372380D02*
X103040000Y-119896190D01*
X103278095Y-120372380D02*
X103278095Y-119372380D01*
X102897142Y-119372380D01*
X102801904Y-119420000D01*
X102754285Y-119467619D01*
X102706666Y-119562857D01*
X102706666Y-119705714D01*
X102754285Y-119800952D01*
X102801904Y-119848571D01*
X102897142Y-119896190D01*
X103278095Y-119896190D01*
X101754285Y-120372380D02*
X102325714Y-120372380D01*
X102040000Y-120372380D02*
X102040000Y-119372380D01*
X102135238Y-119515238D01*
X102230476Y-119610476D01*
X102325714Y-119658095D01*
%TO.C,R33*%
X163152857Y-107222380D02*
X163486190Y-106746190D01*
X163724285Y-107222380D02*
X163724285Y-106222380D01*
X163343333Y-106222380D01*
X163248095Y-106270000D01*
X163200476Y-106317619D01*
X163152857Y-106412857D01*
X163152857Y-106555714D01*
X163200476Y-106650952D01*
X163248095Y-106698571D01*
X163343333Y-106746190D01*
X163724285Y-106746190D01*
X162819523Y-106222380D02*
X162200476Y-106222380D01*
X162533809Y-106603333D01*
X162390952Y-106603333D01*
X162295714Y-106650952D01*
X162248095Y-106698571D01*
X162200476Y-106793809D01*
X162200476Y-107031904D01*
X162248095Y-107127142D01*
X162295714Y-107174761D01*
X162390952Y-107222380D01*
X162676666Y-107222380D01*
X162771904Y-107174761D01*
X162819523Y-107127142D01*
X161867142Y-106222380D02*
X161248095Y-106222380D01*
X161581428Y-106603333D01*
X161438571Y-106603333D01*
X161343333Y-106650952D01*
X161295714Y-106698571D01*
X161248095Y-106793809D01*
X161248095Y-107031904D01*
X161295714Y-107127142D01*
X161343333Y-107174761D01*
X161438571Y-107222380D01*
X161724285Y-107222380D01*
X161819523Y-107174761D01*
X161867142Y-107127142D01*
%TO.C,C6*%
X158906666Y-97027142D02*
X158954285Y-97074761D01*
X159097142Y-97122380D01*
X159192380Y-97122380D01*
X159335238Y-97074761D01*
X159430476Y-96979523D01*
X159478095Y-96884285D01*
X159525714Y-96693809D01*
X159525714Y-96550952D01*
X159478095Y-96360476D01*
X159430476Y-96265238D01*
X159335238Y-96170000D01*
X159192380Y-96122380D01*
X159097142Y-96122380D01*
X158954285Y-96170000D01*
X158906666Y-96217619D01*
X158049523Y-96122380D02*
X158240000Y-96122380D01*
X158335238Y-96170000D01*
X158382857Y-96217619D01*
X158478095Y-96360476D01*
X158525714Y-96550952D01*
X158525714Y-96931904D01*
X158478095Y-97027142D01*
X158430476Y-97074761D01*
X158335238Y-97122380D01*
X158144761Y-97122380D01*
X158049523Y-97074761D01*
X158001904Y-97027142D01*
X157954285Y-96931904D01*
X157954285Y-96693809D01*
X158001904Y-96598571D01*
X158049523Y-96550952D01*
X158144761Y-96503333D01*
X158335238Y-96503333D01*
X158430476Y-96550952D01*
X158478095Y-96598571D01*
X158525714Y-96693809D01*
%TO.C,R11*%
X106912857Y-104472380D02*
X107246190Y-103996190D01*
X107484285Y-104472380D02*
X107484285Y-103472380D01*
X107103333Y-103472380D01*
X107008095Y-103520000D01*
X106960476Y-103567619D01*
X106912857Y-103662857D01*
X106912857Y-103805714D01*
X106960476Y-103900952D01*
X107008095Y-103948571D01*
X107103333Y-103996190D01*
X107484285Y-103996190D01*
X105960476Y-104472380D02*
X106531904Y-104472380D01*
X106246190Y-104472380D02*
X106246190Y-103472380D01*
X106341428Y-103615238D01*
X106436666Y-103710476D01*
X106531904Y-103758095D01*
X105008095Y-104472380D02*
X105579523Y-104472380D01*
X105293809Y-104472380D02*
X105293809Y-103472380D01*
X105389047Y-103615238D01*
X105484285Y-103710476D01*
X105579523Y-103758095D01*
%TO.C,R15*%
X102462380Y-108407142D02*
X101986190Y-108073809D01*
X102462380Y-107835714D02*
X101462380Y-107835714D01*
X101462380Y-108216666D01*
X101510000Y-108311904D01*
X101557619Y-108359523D01*
X101652857Y-108407142D01*
X101795714Y-108407142D01*
X101890952Y-108359523D01*
X101938571Y-108311904D01*
X101986190Y-108216666D01*
X101986190Y-107835714D01*
X102462380Y-109359523D02*
X102462380Y-108788095D01*
X102462380Y-109073809D02*
X101462380Y-109073809D01*
X101605238Y-108978571D01*
X101700476Y-108883333D01*
X101748095Y-108788095D01*
X101462380Y-110264285D02*
X101462380Y-109788095D01*
X101938571Y-109740476D01*
X101890952Y-109788095D01*
X101843333Y-109883333D01*
X101843333Y-110121428D01*
X101890952Y-110216666D01*
X101938571Y-110264285D01*
X102033809Y-110311904D01*
X102271904Y-110311904D01*
X102367142Y-110264285D01*
X102414761Y-110216666D01*
X102462380Y-110121428D01*
X102462380Y-109883333D01*
X102414761Y-109788095D01*
X102367142Y-109740476D01*
%TO.C,R29*%
X103792857Y-74142380D02*
X104126190Y-73666190D01*
X104364285Y-74142380D02*
X104364285Y-73142380D01*
X103983333Y-73142380D01*
X103888095Y-73190000D01*
X103840476Y-73237619D01*
X103792857Y-73332857D01*
X103792857Y-73475714D01*
X103840476Y-73570952D01*
X103888095Y-73618571D01*
X103983333Y-73666190D01*
X104364285Y-73666190D01*
X103411904Y-73237619D02*
X103364285Y-73190000D01*
X103269047Y-73142380D01*
X103030952Y-73142380D01*
X102935714Y-73190000D01*
X102888095Y-73237619D01*
X102840476Y-73332857D01*
X102840476Y-73428095D01*
X102888095Y-73570952D01*
X103459523Y-74142380D01*
X102840476Y-74142380D01*
X102364285Y-74142380D02*
X102173809Y-74142380D01*
X102078571Y-74094761D01*
X102030952Y-74047142D01*
X101935714Y-73904285D01*
X101888095Y-73713809D01*
X101888095Y-73332857D01*
X101935714Y-73237619D01*
X101983333Y-73190000D01*
X102078571Y-73142380D01*
X102269047Y-73142380D01*
X102364285Y-73190000D01*
X102411904Y-73237619D01*
X102459523Y-73332857D01*
X102459523Y-73570952D01*
X102411904Y-73666190D01*
X102364285Y-73713809D01*
X102269047Y-73761428D01*
X102078571Y-73761428D01*
X101983333Y-73713809D01*
X101935714Y-73666190D01*
X101888095Y-73570952D01*
%TO.C,R6*%
X182696666Y-82742380D02*
X183030000Y-82266190D01*
X183268095Y-82742380D02*
X183268095Y-81742380D01*
X182887142Y-81742380D01*
X182791904Y-81790000D01*
X182744285Y-81837619D01*
X182696666Y-81932857D01*
X182696666Y-82075714D01*
X182744285Y-82170952D01*
X182791904Y-82218571D01*
X182887142Y-82266190D01*
X183268095Y-82266190D01*
X181839523Y-81742380D02*
X182030000Y-81742380D01*
X182125238Y-81790000D01*
X182172857Y-81837619D01*
X182268095Y-81980476D01*
X182315714Y-82170952D01*
X182315714Y-82551904D01*
X182268095Y-82647142D01*
X182220476Y-82694761D01*
X182125238Y-82742380D01*
X181934761Y-82742380D01*
X181839523Y-82694761D01*
X181791904Y-82647142D01*
X181744285Y-82551904D01*
X181744285Y-82313809D01*
X181791904Y-82218571D01*
X181839523Y-82170952D01*
X181934761Y-82123333D01*
X182125238Y-82123333D01*
X182220476Y-82170952D01*
X182268095Y-82218571D01*
X182315714Y-82313809D01*
D11*
%TO.C,Q10*%
X170598095Y-105472857D02*
X170560000Y-105396666D01*
X170483809Y-105320476D01*
X170369523Y-105206190D01*
X170331428Y-105130000D01*
X170331428Y-105053809D01*
X170521904Y-105091904D02*
X170483809Y-105015714D01*
X170407619Y-104939523D01*
X170255238Y-104901428D01*
X169988571Y-104901428D01*
X169836190Y-104939523D01*
X169760000Y-105015714D01*
X169721904Y-105091904D01*
X169721904Y-105244285D01*
X169760000Y-105320476D01*
X169836190Y-105396666D01*
X169988571Y-105434761D01*
X170255238Y-105434761D01*
X170407619Y-105396666D01*
X170483809Y-105320476D01*
X170521904Y-105244285D01*
X170521904Y-105091904D01*
X170521904Y-106196666D02*
X170521904Y-105739523D01*
X170521904Y-105968095D02*
X169721904Y-105968095D01*
X169836190Y-105891904D01*
X169912380Y-105815714D01*
X169950476Y-105739523D01*
X169721904Y-106691904D02*
X169721904Y-106768095D01*
X169760000Y-106844285D01*
X169798095Y-106882380D01*
X169874285Y-106920476D01*
X170026666Y-106958571D01*
X170217142Y-106958571D01*
X170369523Y-106920476D01*
X170445714Y-106882380D01*
X170483809Y-106844285D01*
X170521904Y-106768095D01*
X170521904Y-106691904D01*
X170483809Y-106615714D01*
X170445714Y-106577619D01*
X170369523Y-106539523D01*
X170217142Y-106501428D01*
X170026666Y-106501428D01*
X169874285Y-106539523D01*
X169798095Y-106577619D01*
X169760000Y-106615714D01*
X169721904Y-106691904D01*
D10*
%TO.C,C17*%
X189772857Y-93477142D02*
X189820476Y-93524761D01*
X189963333Y-93572380D01*
X190058571Y-93572380D01*
X190201428Y-93524761D01*
X190296666Y-93429523D01*
X190344285Y-93334285D01*
X190391904Y-93143809D01*
X190391904Y-93000952D01*
X190344285Y-92810476D01*
X190296666Y-92715238D01*
X190201428Y-92620000D01*
X190058571Y-92572380D01*
X189963333Y-92572380D01*
X189820476Y-92620000D01*
X189772857Y-92667619D01*
X188820476Y-93572380D02*
X189391904Y-93572380D01*
X189106190Y-93572380D02*
X189106190Y-92572380D01*
X189201428Y-92715238D01*
X189296666Y-92810476D01*
X189391904Y-92858095D01*
X188487142Y-92572380D02*
X187820476Y-92572380D01*
X188249047Y-93572380D01*
%TO.C,R21*%
X149402857Y-98982380D02*
X149736190Y-98506190D01*
X149974285Y-98982380D02*
X149974285Y-97982380D01*
X149593333Y-97982380D01*
X149498095Y-98030000D01*
X149450476Y-98077619D01*
X149402857Y-98172857D01*
X149402857Y-98315714D01*
X149450476Y-98410952D01*
X149498095Y-98458571D01*
X149593333Y-98506190D01*
X149974285Y-98506190D01*
X149021904Y-98077619D02*
X148974285Y-98030000D01*
X148879047Y-97982380D01*
X148640952Y-97982380D01*
X148545714Y-98030000D01*
X148498095Y-98077619D01*
X148450476Y-98172857D01*
X148450476Y-98268095D01*
X148498095Y-98410952D01*
X149069523Y-98982380D01*
X148450476Y-98982380D01*
X147498095Y-98982380D02*
X148069523Y-98982380D01*
X147783809Y-98982380D02*
X147783809Y-97982380D01*
X147879047Y-98125238D01*
X147974285Y-98220476D01*
X148069523Y-98268095D01*
%TO.C,R31*%
X103822857Y-78672380D02*
X104156190Y-78196190D01*
X104394285Y-78672380D02*
X104394285Y-77672380D01*
X104013333Y-77672380D01*
X103918095Y-77720000D01*
X103870476Y-77767619D01*
X103822857Y-77862857D01*
X103822857Y-78005714D01*
X103870476Y-78100952D01*
X103918095Y-78148571D01*
X104013333Y-78196190D01*
X104394285Y-78196190D01*
X103489523Y-77672380D02*
X102870476Y-77672380D01*
X103203809Y-78053333D01*
X103060952Y-78053333D01*
X102965714Y-78100952D01*
X102918095Y-78148571D01*
X102870476Y-78243809D01*
X102870476Y-78481904D01*
X102918095Y-78577142D01*
X102965714Y-78624761D01*
X103060952Y-78672380D01*
X103346666Y-78672380D01*
X103441904Y-78624761D01*
X103489523Y-78577142D01*
X101918095Y-78672380D02*
X102489523Y-78672380D01*
X102203809Y-78672380D02*
X102203809Y-77672380D01*
X102299047Y-77815238D01*
X102394285Y-77910476D01*
X102489523Y-77958095D01*
%TO.C,R18*%
X97272380Y-63607142D02*
X96796190Y-63273809D01*
X97272380Y-63035714D02*
X96272380Y-63035714D01*
X96272380Y-63416666D01*
X96320000Y-63511904D01*
X96367619Y-63559523D01*
X96462857Y-63607142D01*
X96605714Y-63607142D01*
X96700952Y-63559523D01*
X96748571Y-63511904D01*
X96796190Y-63416666D01*
X96796190Y-63035714D01*
X97272380Y-64559523D02*
X97272380Y-63988095D01*
X97272380Y-64273809D02*
X96272380Y-64273809D01*
X96415238Y-64178571D01*
X96510476Y-64083333D01*
X96558095Y-63988095D01*
X96700952Y-65130952D02*
X96653333Y-65035714D01*
X96605714Y-64988095D01*
X96510476Y-64940476D01*
X96462857Y-64940476D01*
X96367619Y-64988095D01*
X96320000Y-65035714D01*
X96272380Y-65130952D01*
X96272380Y-65321428D01*
X96320000Y-65416666D01*
X96367619Y-65464285D01*
X96462857Y-65511904D01*
X96510476Y-65511904D01*
X96605714Y-65464285D01*
X96653333Y-65416666D01*
X96700952Y-65321428D01*
X96700952Y-65130952D01*
X96748571Y-65035714D01*
X96796190Y-64988095D01*
X96891428Y-64940476D01*
X97081904Y-64940476D01*
X97177142Y-64988095D01*
X97224761Y-65035714D01*
X97272380Y-65130952D01*
X97272380Y-65321428D01*
X97224761Y-65416666D01*
X97177142Y-65464285D01*
X97081904Y-65511904D01*
X96891428Y-65511904D01*
X96796190Y-65464285D01*
X96748571Y-65416666D01*
X96700952Y-65321428D01*
%TO.C,R3*%
X115386666Y-122752380D02*
X115720000Y-122276190D01*
X115958095Y-122752380D02*
X115958095Y-121752380D01*
X115577142Y-121752380D01*
X115481904Y-121800000D01*
X115434285Y-121847619D01*
X115386666Y-121942857D01*
X115386666Y-122085714D01*
X115434285Y-122180952D01*
X115481904Y-122228571D01*
X115577142Y-122276190D01*
X115958095Y-122276190D01*
X115053333Y-121752380D02*
X114434285Y-121752380D01*
X114767619Y-122133333D01*
X114624761Y-122133333D01*
X114529523Y-122180952D01*
X114481904Y-122228571D01*
X114434285Y-122323809D01*
X114434285Y-122561904D01*
X114481904Y-122657142D01*
X114529523Y-122704761D01*
X114624761Y-122752380D01*
X114910476Y-122752380D01*
X115005714Y-122704761D01*
X115053333Y-122657142D01*
%TO.C,R35*%
X163132857Y-105772380D02*
X163466190Y-105296190D01*
X163704285Y-105772380D02*
X163704285Y-104772380D01*
X163323333Y-104772380D01*
X163228095Y-104820000D01*
X163180476Y-104867619D01*
X163132857Y-104962857D01*
X163132857Y-105105714D01*
X163180476Y-105200952D01*
X163228095Y-105248571D01*
X163323333Y-105296190D01*
X163704285Y-105296190D01*
X162799523Y-104772380D02*
X162180476Y-104772380D01*
X162513809Y-105153333D01*
X162370952Y-105153333D01*
X162275714Y-105200952D01*
X162228095Y-105248571D01*
X162180476Y-105343809D01*
X162180476Y-105581904D01*
X162228095Y-105677142D01*
X162275714Y-105724761D01*
X162370952Y-105772380D01*
X162656666Y-105772380D01*
X162751904Y-105724761D01*
X162799523Y-105677142D01*
X161275714Y-104772380D02*
X161751904Y-104772380D01*
X161799523Y-105248571D01*
X161751904Y-105200952D01*
X161656666Y-105153333D01*
X161418571Y-105153333D01*
X161323333Y-105200952D01*
X161275714Y-105248571D01*
X161228095Y-105343809D01*
X161228095Y-105581904D01*
X161275714Y-105677142D01*
X161323333Y-105724761D01*
X161418571Y-105772380D01*
X161656666Y-105772380D01*
X161751904Y-105724761D01*
X161799523Y-105677142D01*
%TO.C,R14*%
X155702380Y-69467142D02*
X155226190Y-69133809D01*
X155702380Y-68895714D02*
X154702380Y-68895714D01*
X154702380Y-69276666D01*
X154750000Y-69371904D01*
X154797619Y-69419523D01*
X154892857Y-69467142D01*
X155035714Y-69467142D01*
X155130952Y-69419523D01*
X155178571Y-69371904D01*
X155226190Y-69276666D01*
X155226190Y-68895714D01*
X155702380Y-70419523D02*
X155702380Y-69848095D01*
X155702380Y-70133809D02*
X154702380Y-70133809D01*
X154845238Y-70038571D01*
X154940476Y-69943333D01*
X154988095Y-69848095D01*
X155035714Y-71276666D02*
X155702380Y-71276666D01*
X154654761Y-71038571D02*
X155369047Y-70800476D01*
X155369047Y-71419523D01*
%TO.C,R16*%
X102402380Y-111407142D02*
X101926190Y-111073809D01*
X102402380Y-110835714D02*
X101402380Y-110835714D01*
X101402380Y-111216666D01*
X101450000Y-111311904D01*
X101497619Y-111359523D01*
X101592857Y-111407142D01*
X101735714Y-111407142D01*
X101830952Y-111359523D01*
X101878571Y-111311904D01*
X101926190Y-111216666D01*
X101926190Y-110835714D01*
X102402380Y-112359523D02*
X102402380Y-111788095D01*
X102402380Y-112073809D02*
X101402380Y-112073809D01*
X101545238Y-111978571D01*
X101640476Y-111883333D01*
X101688095Y-111788095D01*
X101402380Y-113216666D02*
X101402380Y-113026190D01*
X101450000Y-112930952D01*
X101497619Y-112883333D01*
X101640476Y-112788095D01*
X101830952Y-112740476D01*
X102211904Y-112740476D01*
X102307142Y-112788095D01*
X102354761Y-112835714D01*
X102402380Y-112930952D01*
X102402380Y-113121428D01*
X102354761Y-113216666D01*
X102307142Y-113264285D01*
X102211904Y-113311904D01*
X101973809Y-113311904D01*
X101878571Y-113264285D01*
X101830952Y-113216666D01*
X101783333Y-113121428D01*
X101783333Y-112930952D01*
X101830952Y-112835714D01*
X101878571Y-112788095D01*
X101973809Y-112740476D01*
%TO.C,R39*%
X159192857Y-92722380D02*
X159526190Y-92246190D01*
X159764285Y-92722380D02*
X159764285Y-91722380D01*
X159383333Y-91722380D01*
X159288095Y-91770000D01*
X159240476Y-91817619D01*
X159192857Y-91912857D01*
X159192857Y-92055714D01*
X159240476Y-92150952D01*
X159288095Y-92198571D01*
X159383333Y-92246190D01*
X159764285Y-92246190D01*
X158859523Y-91722380D02*
X158240476Y-91722380D01*
X158573809Y-92103333D01*
X158430952Y-92103333D01*
X158335714Y-92150952D01*
X158288095Y-92198571D01*
X158240476Y-92293809D01*
X158240476Y-92531904D01*
X158288095Y-92627142D01*
X158335714Y-92674761D01*
X158430952Y-92722380D01*
X158716666Y-92722380D01*
X158811904Y-92674761D01*
X158859523Y-92627142D01*
X157764285Y-92722380D02*
X157573809Y-92722380D01*
X157478571Y-92674761D01*
X157430952Y-92627142D01*
X157335714Y-92484285D01*
X157288095Y-92293809D01*
X157288095Y-91912857D01*
X157335714Y-91817619D01*
X157383333Y-91770000D01*
X157478571Y-91722380D01*
X157669047Y-91722380D01*
X157764285Y-91770000D01*
X157811904Y-91817619D01*
X157859523Y-91912857D01*
X157859523Y-92150952D01*
X157811904Y-92246190D01*
X157764285Y-92293809D01*
X157669047Y-92341428D01*
X157478571Y-92341428D01*
X157383333Y-92293809D01*
X157335714Y-92246190D01*
X157288095Y-92150952D01*
%TO.C,R8*%
X102492380Y-103583333D02*
X102016190Y-103250000D01*
X102492380Y-103011904D02*
X101492380Y-103011904D01*
X101492380Y-103392857D01*
X101540000Y-103488095D01*
X101587619Y-103535714D01*
X101682857Y-103583333D01*
X101825714Y-103583333D01*
X101920952Y-103535714D01*
X101968571Y-103488095D01*
X102016190Y-103392857D01*
X102016190Y-103011904D01*
X101920952Y-104154761D02*
X101873333Y-104059523D01*
X101825714Y-104011904D01*
X101730476Y-103964285D01*
X101682857Y-103964285D01*
X101587619Y-104011904D01*
X101540000Y-104059523D01*
X101492380Y-104154761D01*
X101492380Y-104345238D01*
X101540000Y-104440476D01*
X101587619Y-104488095D01*
X101682857Y-104535714D01*
X101730476Y-104535714D01*
X101825714Y-104488095D01*
X101873333Y-104440476D01*
X101920952Y-104345238D01*
X101920952Y-104154761D01*
X101968571Y-104059523D01*
X102016190Y-104011904D01*
X102111428Y-103964285D01*
X102301904Y-103964285D01*
X102397142Y-104011904D01*
X102444761Y-104059523D01*
X102492380Y-104154761D01*
X102492380Y-104345238D01*
X102444761Y-104440476D01*
X102397142Y-104488095D01*
X102301904Y-104535714D01*
X102111428Y-104535714D01*
X102016190Y-104488095D01*
X101968571Y-104440476D01*
X101920952Y-104345238D01*
%TO.C,C1*%
X102676666Y-118707142D02*
X102724285Y-118754761D01*
X102867142Y-118802380D01*
X102962380Y-118802380D01*
X103105238Y-118754761D01*
X103200476Y-118659523D01*
X103248095Y-118564285D01*
X103295714Y-118373809D01*
X103295714Y-118230952D01*
X103248095Y-118040476D01*
X103200476Y-117945238D01*
X103105238Y-117850000D01*
X102962380Y-117802380D01*
X102867142Y-117802380D01*
X102724285Y-117850000D01*
X102676666Y-117897619D01*
X101724285Y-118802380D02*
X102295714Y-118802380D01*
X102010000Y-118802380D02*
X102010000Y-117802380D01*
X102105238Y-117945238D01*
X102200476Y-118040476D01*
X102295714Y-118088095D01*
%TO.C,R55*%
X150035613Y-118426475D02*
X149934598Y-117854056D01*
X150439674Y-118022414D02*
X149732567Y-117315308D01*
X149463193Y-117584682D01*
X149429521Y-117685697D01*
X149429521Y-117753040D01*
X149463193Y-117854056D01*
X149564208Y-117955071D01*
X149665224Y-117988743D01*
X149732567Y-117988743D01*
X149833582Y-117955071D01*
X150102956Y-117685697D01*
X148688743Y-118359132D02*
X149025460Y-118022414D01*
X149395850Y-118325460D01*
X149328506Y-118325460D01*
X149227491Y-118359132D01*
X149059132Y-118527491D01*
X149025460Y-118628506D01*
X149025460Y-118695850D01*
X149059132Y-118796865D01*
X149227491Y-118965224D01*
X149328506Y-118998895D01*
X149395850Y-118998895D01*
X149496865Y-118965224D01*
X149665224Y-118796865D01*
X149698895Y-118695850D01*
X149698895Y-118628506D01*
X148015308Y-119032567D02*
X148352025Y-118695850D01*
X148722414Y-118998895D01*
X148655071Y-118998895D01*
X148554056Y-119032567D01*
X148385697Y-119200926D01*
X148352025Y-119301941D01*
X148352025Y-119369285D01*
X148385697Y-119470300D01*
X148554056Y-119638659D01*
X148655071Y-119672330D01*
X148722414Y-119672330D01*
X148823430Y-119638659D01*
X148991788Y-119470300D01*
X149025460Y-119369285D01*
X149025460Y-119301941D01*
%TO.C,R5*%
X176022380Y-84673333D02*
X175546190Y-84340000D01*
X176022380Y-84101904D02*
X175022380Y-84101904D01*
X175022380Y-84482857D01*
X175070000Y-84578095D01*
X175117619Y-84625714D01*
X175212857Y-84673333D01*
X175355714Y-84673333D01*
X175450952Y-84625714D01*
X175498571Y-84578095D01*
X175546190Y-84482857D01*
X175546190Y-84101904D01*
X175022380Y-85578095D02*
X175022380Y-85101904D01*
X175498571Y-85054285D01*
X175450952Y-85101904D01*
X175403333Y-85197142D01*
X175403333Y-85435238D01*
X175450952Y-85530476D01*
X175498571Y-85578095D01*
X175593809Y-85625714D01*
X175831904Y-85625714D01*
X175927142Y-85578095D01*
X175974761Y-85530476D01*
X176022380Y-85435238D01*
X176022380Y-85197142D01*
X175974761Y-85101904D01*
X175927142Y-85054285D01*
%TO.C,R19*%
X106802857Y-107912380D02*
X107136190Y-107436190D01*
X107374285Y-107912380D02*
X107374285Y-106912380D01*
X106993333Y-106912380D01*
X106898095Y-106960000D01*
X106850476Y-107007619D01*
X106802857Y-107102857D01*
X106802857Y-107245714D01*
X106850476Y-107340952D01*
X106898095Y-107388571D01*
X106993333Y-107436190D01*
X107374285Y-107436190D01*
X105850476Y-107912380D02*
X106421904Y-107912380D01*
X106136190Y-107912380D02*
X106136190Y-106912380D01*
X106231428Y-107055238D01*
X106326666Y-107150476D01*
X106421904Y-107198095D01*
X105374285Y-107912380D02*
X105183809Y-107912380D01*
X105088571Y-107864761D01*
X105040952Y-107817142D01*
X104945714Y-107674285D01*
X104898095Y-107483809D01*
X104898095Y-107102857D01*
X104945714Y-107007619D01*
X104993333Y-106960000D01*
X105088571Y-106912380D01*
X105279047Y-106912380D01*
X105374285Y-106960000D01*
X105421904Y-107007619D01*
X105469523Y-107102857D01*
X105469523Y-107340952D01*
X105421904Y-107436190D01*
X105374285Y-107483809D01*
X105279047Y-107531428D01*
X105088571Y-107531428D01*
X104993333Y-107483809D01*
X104945714Y-107436190D01*
X104898095Y-107340952D01*
%TO.C,C16*%
X189732857Y-89317142D02*
X189780476Y-89364761D01*
X189923333Y-89412380D01*
X190018571Y-89412380D01*
X190161428Y-89364761D01*
X190256666Y-89269523D01*
X190304285Y-89174285D01*
X190351904Y-88983809D01*
X190351904Y-88840952D01*
X190304285Y-88650476D01*
X190256666Y-88555238D01*
X190161428Y-88460000D01*
X190018571Y-88412380D01*
X189923333Y-88412380D01*
X189780476Y-88460000D01*
X189732857Y-88507619D01*
X188780476Y-89412380D02*
X189351904Y-89412380D01*
X189066190Y-89412380D02*
X189066190Y-88412380D01*
X189161428Y-88555238D01*
X189256666Y-88650476D01*
X189351904Y-88698095D01*
X187923333Y-88412380D02*
X188113809Y-88412380D01*
X188209047Y-88460000D01*
X188256666Y-88507619D01*
X188351904Y-88650476D01*
X188399523Y-88840952D01*
X188399523Y-89221904D01*
X188351904Y-89317142D01*
X188304285Y-89364761D01*
X188209047Y-89412380D01*
X188018571Y-89412380D01*
X187923333Y-89364761D01*
X187875714Y-89317142D01*
X187828095Y-89221904D01*
X187828095Y-88983809D01*
X187875714Y-88888571D01*
X187923333Y-88840952D01*
X188018571Y-88793333D01*
X188209047Y-88793333D01*
X188304285Y-88840952D01*
X188351904Y-88888571D01*
X188399523Y-88983809D01*
%TO.C,R17*%
X159622857Y-99052380D02*
X159956190Y-98576190D01*
X160194285Y-99052380D02*
X160194285Y-98052380D01*
X159813333Y-98052380D01*
X159718095Y-98100000D01*
X159670476Y-98147619D01*
X159622857Y-98242857D01*
X159622857Y-98385714D01*
X159670476Y-98480952D01*
X159718095Y-98528571D01*
X159813333Y-98576190D01*
X160194285Y-98576190D01*
X158670476Y-99052380D02*
X159241904Y-99052380D01*
X158956190Y-99052380D02*
X158956190Y-98052380D01*
X159051428Y-98195238D01*
X159146666Y-98290476D01*
X159241904Y-98338095D01*
X158337142Y-98052380D02*
X157670476Y-98052380D01*
X158099047Y-99052380D01*
%TO.C,R40*%
X159172857Y-91272380D02*
X159506190Y-90796190D01*
X159744285Y-91272380D02*
X159744285Y-90272380D01*
X159363333Y-90272380D01*
X159268095Y-90320000D01*
X159220476Y-90367619D01*
X159172857Y-90462857D01*
X159172857Y-90605714D01*
X159220476Y-90700952D01*
X159268095Y-90748571D01*
X159363333Y-90796190D01*
X159744285Y-90796190D01*
X158315714Y-90605714D02*
X158315714Y-91272380D01*
X158553809Y-90224761D02*
X158791904Y-90939047D01*
X158172857Y-90939047D01*
X157601428Y-90272380D02*
X157506190Y-90272380D01*
X157410952Y-90320000D01*
X157363333Y-90367619D01*
X157315714Y-90462857D01*
X157268095Y-90653333D01*
X157268095Y-90891428D01*
X157315714Y-91081904D01*
X157363333Y-91177142D01*
X157410952Y-91224761D01*
X157506190Y-91272380D01*
X157601428Y-91272380D01*
X157696666Y-91224761D01*
X157744285Y-91177142D01*
X157791904Y-91081904D01*
X157839523Y-90891428D01*
X157839523Y-90653333D01*
X157791904Y-90462857D01*
X157744285Y-90367619D01*
X157696666Y-90320000D01*
X157601428Y-90272380D01*
%TO.C,R7*%
X152686666Y-73232380D02*
X153020000Y-72756190D01*
X153258095Y-73232380D02*
X153258095Y-72232380D01*
X152877142Y-72232380D01*
X152781904Y-72280000D01*
X152734285Y-72327619D01*
X152686666Y-72422857D01*
X152686666Y-72565714D01*
X152734285Y-72660952D01*
X152781904Y-72708571D01*
X152877142Y-72756190D01*
X153258095Y-72756190D01*
X152353333Y-72232380D02*
X151686666Y-72232380D01*
X152115238Y-73232380D01*
D11*
%TO.C,R37*%
X174410001Y-105778829D02*
X174410001Y-106288277D01*
X173365001Y-105778829D02*
X173365001Y-106288277D01*
%TO.C,C24*%
X208560000Y-114103733D02*
X208560000Y-114396267D01*
X207540000Y-114103733D02*
X207540000Y-114396267D01*
%TO.C,R34*%
X165382776Y-103772499D02*
X165892224Y-103772499D01*
X165382776Y-102727499D02*
X165892224Y-102727499D01*
%TO.C,R36*%
X165382776Y-102272500D02*
X165892224Y-102272500D01*
X165382776Y-101227500D02*
X165892224Y-101227500D01*
%TO.C,R30*%
X99832775Y-76522500D02*
X100342223Y-76522500D01*
X99832775Y-75477500D02*
X100342223Y-75477500D01*
%TO.C,C8*%
X151853733Y-95990000D02*
X152146267Y-95990000D01*
X151853733Y-97010000D02*
X152146267Y-97010000D01*
%TO.C,R38*%
X174410001Y-102754724D02*
X174410001Y-102245276D01*
X173365001Y-102754724D02*
X173365001Y-102245276D01*
%TO.C,R12*%
X109504724Y-106222500D02*
X108995276Y-106222500D01*
X109504724Y-105177500D02*
X108995276Y-105177500D01*
%TO.C,R28*%
X99832776Y-72022501D02*
X100342224Y-72022501D01*
X99832776Y-70977501D02*
X100342224Y-70977501D01*
%TO.C,R20*%
X112504724Y-112227500D02*
X111995276Y-112227500D01*
X112504724Y-113272500D02*
X111995276Y-113272500D01*
%TO.C,R45*%
X190942500Y-97724724D02*
X190942500Y-97215276D01*
X191987500Y-97724724D02*
X191987500Y-97215276D01*
%TO.C,R13*%
X99804724Y-106127500D02*
X99295276Y-106127500D01*
X99804724Y-107172500D02*
X99295276Y-107172500D01*
%TO.C,R47*%
X189275654Y-83670420D02*
X188915420Y-84030654D01*
X190014580Y-84409346D02*
X189654346Y-84769580D01*
%TO.C,R2*%
X112504724Y-116977500D02*
X111995276Y-116977500D01*
X112504724Y-118022500D02*
X111995276Y-118022500D01*
%TO.C,Q9*%
X170897500Y-104453554D02*
X169437500Y-104453554D01*
X170897500Y-104453554D02*
X170897500Y-105383554D01*
X170897500Y-107613554D02*
X167737500Y-107613554D01*
X170897500Y-107613554D02*
X170897500Y-106683554D01*
%TO.C,D1*%
X177950000Y-87340000D02*
X177950000Y-85340000D01*
X177950000Y-85340000D02*
X181850000Y-85340000D01*
X177950000Y-87340000D02*
X181850000Y-87340000D01*
%TO.C,C3*%
X179488748Y-83355000D02*
X180011252Y-83355000D01*
X179488748Y-84825000D02*
X180011252Y-84825000D01*
%TO.C,D4*%
X156000000Y-92500000D02*
X152100000Y-92500000D01*
X156000000Y-90500000D02*
X156000000Y-92500000D01*
X156000000Y-90500000D02*
X152100000Y-90500000D01*
%TO.C,Q2*%
X154080000Y-68010000D02*
X153150000Y-68010000D01*
X150920000Y-68010000D02*
X150920000Y-64850000D01*
X150920000Y-68010000D02*
X151850000Y-68010000D01*
X154080000Y-68010000D02*
X154080000Y-66550000D01*
%TO.C,R1*%
X100054724Y-120422500D02*
X99545276Y-120422500D01*
X100054724Y-119377500D02*
X99545276Y-119377500D01*
%TO.C,R33*%
X165382776Y-106261054D02*
X165892224Y-106261054D01*
X165382776Y-107306054D02*
X165892224Y-107306054D01*
%TO.C,C6*%
X156011252Y-95765000D02*
X155488748Y-95765000D01*
X156011252Y-97235000D02*
X155488748Y-97235000D01*
%TO.C,R11*%
X109504724Y-104472500D02*
X108995276Y-104472500D01*
X109504724Y-103427500D02*
X108995276Y-103427500D01*
%TO.C,R15*%
X99804724Y-109672500D02*
X99295276Y-109672500D01*
X99804724Y-108627500D02*
X99295276Y-108627500D01*
%TO.C,R29*%
X99832775Y-74272500D02*
X100342223Y-74272500D01*
X99832775Y-73227500D02*
X100342223Y-73227500D01*
%TO.C,R6*%
X179495276Y-82787500D02*
X180004724Y-82787500D01*
X179495276Y-81742500D02*
X180004724Y-81742500D01*
%TO.C,Q10*%
X170897500Y-104080000D02*
X170897500Y-103150000D01*
X170897500Y-100920000D02*
X169437500Y-100920000D01*
X170897500Y-104080000D02*
X167737500Y-104080000D01*
X170897500Y-100920000D02*
X170897500Y-101850000D01*
%TO.C,C17*%
X189391252Y-94065000D02*
X188868748Y-94065000D01*
X189391252Y-95535000D02*
X188868748Y-95535000D01*
%TO.C,R21*%
X152254724Y-99022500D02*
X151745276Y-99022500D01*
X152254724Y-97977500D02*
X151745276Y-97977500D01*
%TO.C,R31*%
X99832775Y-77727500D02*
X100342223Y-77727500D01*
X99832775Y-78772500D02*
X100342223Y-78772500D01*
%TO.C,R18*%
X98772500Y-63995276D02*
X98772500Y-64504724D01*
X97727500Y-63995276D02*
X97727500Y-64504724D01*
%TO.C,R3*%
X112754724Y-122772500D02*
X112245276Y-122772500D01*
X112754724Y-121727500D02*
X112245276Y-121727500D01*
%TO.C,R35*%
X165382776Y-104761054D02*
X165892224Y-104761054D01*
X165382776Y-105806054D02*
X165892224Y-105806054D01*
%TO.C,R14*%
X155772500Y-67254724D02*
X155772500Y-66745276D01*
X154727500Y-67254724D02*
X154727500Y-66745276D01*
%TO.C,R16*%
X99804724Y-111127500D02*
X99295276Y-111127500D01*
X99804724Y-112172500D02*
X99295276Y-112172500D01*
%TO.C,R39*%
X162004724Y-91727500D02*
X161495276Y-91727500D01*
X162004724Y-92772500D02*
X161495276Y-92772500D01*
%TO.C,R8*%
X99804724Y-104672500D02*
X99295276Y-104672500D01*
X99804724Y-103627500D02*
X99295276Y-103627500D01*
%TO.C,C1*%
X99946267Y-117890000D02*
X99653733Y-117890000D01*
X99946267Y-118910000D02*
X99653733Y-118910000D01*
%TO.C,R55*%
X147700420Y-117360654D02*
X148060654Y-117000420D01*
X148439346Y-118099580D02*
X148799580Y-117739346D01*
%TO.C,R5*%
X177522500Y-84585276D02*
X177522500Y-85094724D01*
X176477500Y-84585276D02*
X176477500Y-85094724D01*
%TO.C,R19*%
X109504724Y-108022500D02*
X108995276Y-108022500D01*
X109504724Y-106977500D02*
X108995276Y-106977500D01*
%TO.C,C16*%
X189311252Y-87785000D02*
X188788748Y-87785000D01*
X189311252Y-86315000D02*
X188788748Y-86315000D01*
%TO.C,R17*%
X155495276Y-97977500D02*
X156004724Y-97977500D01*
X155495276Y-99022500D02*
X156004724Y-99022500D01*
%TO.C,R40*%
X162004724Y-90227500D02*
X161495276Y-90227500D01*
X162004724Y-91272500D02*
X161495276Y-91272500D01*
%TO.C,R7*%
X152754724Y-70477500D02*
X152245276Y-70477500D01*
X152754724Y-71522500D02*
X152245276Y-71522500D01*
%TD*%
%LPC*%
D12*
%TO.C,J2*%
X109320000Y-72090000D03*
D13*
X109320000Y-69550000D03*
X111860000Y-72090000D03*
X111860000Y-69550000D03*
X114400000Y-72090000D03*
X114400000Y-69550000D03*
X116940000Y-72090000D03*
X116940000Y-69550000D03*
X119480000Y-72090000D03*
X119480000Y-69550000D03*
%TD*%
D14*
%TO.C,JP1*%
X128750000Y-61250000D03*
D15*
X128750000Y-63790000D03*
%TD*%
D16*
%TO.C,SW6*%
X157500000Y-68290000D03*
D13*
X157500000Y-65750000D03*
X157500000Y-63210000D03*
X157500000Y-70830000D03*
X157500000Y-60670000D03*
%TD*%
D17*
%TO.C,SW5*%
X96050000Y-104150000D03*
D18*
X96050000Y-106690000D03*
X96050000Y-109230000D03*
X96050000Y-111770000D03*
X103670000Y-111770000D03*
X103670000Y-109230000D03*
X103670000Y-106690000D03*
X103670000Y-104150000D03*
%TD*%
D19*
%TO.C,U1*%
X156290000Y-94028000D03*
D20*
X153750000Y-94028000D03*
X151210000Y-94028000D03*
%TD*%
D21*
%TO.C,J1*%
X166750000Y-61175000D03*
X177750000Y-61175000D03*
D22*
X174750000Y-71175000D03*
D23*
X169750000Y-71175000D03*
%TD*%
D19*
%TO.C,SW3*%
X113540000Y-120312500D03*
D20*
X111000000Y-120312500D03*
X108460000Y-120312500D03*
%TD*%
D17*
%TO.C,U5*%
X164975000Y-98390000D03*
D18*
X167515000Y-98390000D03*
X167515000Y-90770000D03*
X164975000Y-90770000D03*
%TD*%
D21*
%TO.C,J4*%
X208350000Y-83815000D03*
X208350000Y-94815000D03*
D22*
X198350000Y-91815000D03*
D23*
X198350000Y-86815000D03*
%TD*%
D17*
%TO.C,U4*%
X173775000Y-90790000D03*
D18*
X171235000Y-90790000D03*
X171235000Y-98410000D03*
X173775000Y-98410000D03*
%TD*%
D24*
%TO.C,C12*%
X111450000Y-79692500D03*
X116450000Y-79692500D03*
%TD*%
D25*
%TO.C,SW9*%
X133750000Y-60240000D03*
D20*
X133750000Y-62780000D03*
X133750000Y-65320000D03*
%TD*%
D19*
%TO.C,SW2*%
X113530000Y-115650000D03*
D20*
X110990000Y-115650000D03*
X108450000Y-115650000D03*
%TD*%
D19*
%TO.C,SW7*%
X113540000Y-110900000D03*
D20*
X111000000Y-110900000D03*
X108460000Y-110900000D03*
%TD*%
D26*
%TO.C,R37*%
X173887501Y-105121053D03*
X173887501Y-106946053D03*
%TD*%
D27*
%TO.C,C24*%
X208050000Y-113387500D03*
X208050000Y-115112500D03*
%TD*%
D28*
%TO.C,R34*%
X164725000Y-103249999D03*
X166550000Y-103249999D03*
%TD*%
%TO.C,R36*%
X164725000Y-101750000D03*
X166550000Y-101750000D03*
%TD*%
%TO.C,R30*%
X99174999Y-76000000D03*
X100999999Y-76000000D03*
%TD*%
D29*
%TO.C,C8*%
X151137500Y-96500000D03*
X152862500Y-96500000D03*
%TD*%
D30*
%TO.C,R38*%
X173887501Y-103412500D03*
X173887501Y-101587500D03*
%TD*%
D31*
%TO.C,R12*%
X110162500Y-105700000D03*
X108337500Y-105700000D03*
%TD*%
D28*
%TO.C,R28*%
X99175000Y-71500001D03*
X101000000Y-71500001D03*
%TD*%
D31*
%TO.C,R20*%
X113162500Y-112750000D03*
X111337500Y-112750000D03*
%TD*%
D30*
%TO.C,R45*%
X191465000Y-98382500D03*
X191465000Y-96557500D03*
%TD*%
D31*
%TO.C,R13*%
X100462500Y-106650000D03*
X98637500Y-106650000D03*
%TD*%
D32*
%TO.C,R47*%
X190110235Y-83574765D03*
X188819765Y-84865235D03*
%TD*%
D31*
%TO.C,R2*%
X113162500Y-117500000D03*
X111337500Y-117500000D03*
%TD*%
D33*
%TO.C,Q9*%
X168637500Y-106983554D03*
X168637500Y-105083554D03*
X171637500Y-106033554D03*
%TD*%
D34*
%TO.C,D1*%
X178550000Y-86340000D03*
X181850000Y-86340000D03*
%TD*%
D35*
%TO.C,C3*%
X178712500Y-84090000D03*
X180787500Y-84090000D03*
%TD*%
D34*
%TO.C,D4*%
X155400000Y-91500000D03*
X152100000Y-91500000D03*
%TD*%
D36*
%TO.C,Q2*%
X151550000Y-65750000D03*
X153450000Y-65750000D03*
X152500000Y-68750000D03*
%TD*%
D31*
%TO.C,R1*%
X100712500Y-119900000D03*
X98887500Y-119900000D03*
%TD*%
D28*
%TO.C,R33*%
X164725000Y-106783554D03*
X166550000Y-106783554D03*
%TD*%
D37*
%TO.C,C6*%
X156787500Y-96500000D03*
X154712500Y-96500000D03*
%TD*%
D31*
%TO.C,R11*%
X110162500Y-103950000D03*
X108337500Y-103950000D03*
%TD*%
%TO.C,R15*%
X100462500Y-109150000D03*
X98637500Y-109150000D03*
%TD*%
D28*
%TO.C,R29*%
X99174999Y-73750000D03*
X100999999Y-73750000D03*
%TD*%
%TO.C,R6*%
X178837500Y-82265000D03*
X180662500Y-82265000D03*
%TD*%
D33*
%TO.C,Q10*%
X168637500Y-103450000D03*
X168637500Y-101550000D03*
X171637500Y-102500000D03*
%TD*%
D37*
%TO.C,C17*%
X190167500Y-94800000D03*
X188092500Y-94800000D03*
%TD*%
D31*
%TO.C,R21*%
X152912500Y-98500000D03*
X151087500Y-98500000D03*
%TD*%
D28*
%TO.C,R31*%
X99174999Y-78250000D03*
X100999999Y-78250000D03*
%TD*%
D26*
%TO.C,R18*%
X98250000Y-63337500D03*
X98250000Y-65162500D03*
%TD*%
D31*
%TO.C,R3*%
X113412500Y-122250000D03*
X111587500Y-122250000D03*
%TD*%
D28*
%TO.C,R35*%
X164725000Y-105283554D03*
X166550000Y-105283554D03*
%TD*%
D30*
%TO.C,R14*%
X155250000Y-67912500D03*
X155250000Y-66087500D03*
%TD*%
D31*
%TO.C,R16*%
X100462500Y-111650000D03*
X98637500Y-111650000D03*
%TD*%
%TO.C,R39*%
X162662500Y-92250000D03*
X160837500Y-92250000D03*
%TD*%
%TO.C,R8*%
X100462500Y-104150000D03*
X98637500Y-104150000D03*
%TD*%
D38*
%TO.C,C1*%
X100662500Y-118400000D03*
X98937500Y-118400000D03*
%TD*%
D39*
%TO.C,R55*%
X147604765Y-118195235D03*
X148895235Y-116904765D03*
%TD*%
D26*
%TO.C,R5*%
X177000000Y-83927500D03*
X177000000Y-85752500D03*
%TD*%
D31*
%TO.C,R19*%
X110162500Y-107500000D03*
X108337500Y-107500000D03*
%TD*%
D37*
%TO.C,C16*%
X190087500Y-87050000D03*
X188012500Y-87050000D03*
%TD*%
D28*
%TO.C,R17*%
X154837500Y-98500000D03*
X156662500Y-98500000D03*
%TD*%
D31*
%TO.C,R40*%
X162662500Y-90750000D03*
X160837500Y-90750000D03*
%TD*%
%TO.C,R7*%
X153412500Y-71000000D03*
X151587500Y-71000000D03*
%TD*%
M02*
