%TF.GenerationSoftware,KiCad,Pcbnew,(6.0.11)*%
%TF.CreationDate,2023-08-03T06:57:00+09:00*%
%TF.ProjectId,motordriver,6d6f746f-7264-4726-9976-65722e6b6963,rev?*%
%TF.SameCoordinates,Original*%
%TF.FileFunction,Legend,Top*%
%TF.FilePolarity,Positive*%
%FSLAX46Y46*%
G04 Gerber Fmt 4.6, Leading zero omitted, Abs format (unit mm)*
G04 Created by KiCad (PCBNEW (6.0.11)) date 2023-08-03 06:57:00*
%MOMM*%
%LPD*%
G01*
G04 APERTURE LIST*
G04 Aperture macros list*
%AMRoundRect*
0 Rectangle with rounded corners*
0 $1 Rounding radius*
0 $2 $3 $4 $5 $6 $7 $8 $9 X,Y pos of 4 corners*
0 Add a 4 corners polygon primitive as box body*
4,1,4,$2,$3,$4,$5,$6,$7,$8,$9,$2,$3,0*
0 Add four circle primitives for the rounded corners*
1,1,$1+$1,$2,$3*
1,1,$1+$1,$4,$5*
1,1,$1+$1,$6,$7*
1,1,$1+$1,$8,$9*
0 Add four rect primitives between the rounded corners*
20,1,$1+$1,$2,$3,$4,$5,0*
20,1,$1+$1,$4,$5,$6,$7,0*
20,1,$1+$1,$6,$7,$8,$9,0*
20,1,$1+$1,$8,$9,$2,$3,0*%
G04 Aperture macros list end*
%ADD10C,0.254000*%
%ADD11C,0.120000*%
%ADD12C,0.150000*%
%ADD13C,0.110000*%
%ADD14C,0.200000*%
%ADD15C,0.100000*%
%ADD16C,0.314000*%
%ADD17R,2.200000X1.200000*%
%ADD18R,6.400000X5.800000*%
%ADD19RoundRect,0.250000X0.600000X-0.600000X0.600000X0.600000X-0.600000X0.600000X-0.600000X-0.600000X0*%
%ADD20C,1.700000*%
%ADD21R,0.620000X0.575000*%
%ADD22R,0.575000X0.620000*%
%ADD23RoundRect,0.237500X0.237500X-0.250000X0.237500X0.250000X-0.237500X0.250000X-0.237500X-0.250000X0*%
%ADD24RoundRect,0.237500X0.287500X0.237500X-0.287500X0.237500X-0.287500X-0.237500X0.287500X-0.237500X0*%
%ADD25RoundRect,0.237500X-0.287500X-0.237500X0.287500X-0.237500X0.287500X0.237500X-0.287500X0.237500X0*%
%ADD26R,0.400000X0.400000*%
%ADD27R,2.650000X2.200000*%
%ADD28R,0.400000X0.300000*%
%ADD29RoundRect,0.237500X-0.237500X0.250000X-0.237500X-0.250000X0.237500X-0.250000X0.237500X0.250000X0*%
%ADD30RoundRect,0.237500X-0.250000X-0.237500X0.250000X-0.237500X0.250000X0.237500X-0.250000X0.237500X0*%
%ADD31RoundRect,0.150000X0.150000X-0.675000X0.150000X0.675000X-0.150000X0.675000X-0.150000X-0.675000X0*%
%ADD32RoundRect,0.237500X0.250000X0.237500X-0.250000X0.237500X-0.250000X-0.237500X0.250000X-0.237500X0*%
%ADD33RoundRect,0.237500X-0.044194X-0.380070X0.380070X0.044194X0.044194X0.380070X-0.380070X-0.044194X0*%
%ADD34R,0.900000X1.200000*%
%ADD35R,1.700000X1.700000*%
%ADD36O,1.700000X1.700000*%
%ADD37RoundRect,0.425000X0.425000X0.425000X-0.425000X0.425000X-0.425000X-0.425000X0.425000X-0.425000X0*%
%ADD38R,0.800000X1.800000*%
%ADD39RoundRect,0.125000X0.530330X-0.353553X-0.353553X0.530330X-0.530330X0.353553X0.353553X-0.530330X0*%
%ADD40RoundRect,0.125000X0.530330X0.353553X0.353553X0.530330X-0.530330X-0.353553X-0.353553X-0.530330X0*%
%ADD41R,1.200000X0.900000*%
%ADD42RoundRect,0.237500X-0.237500X0.300000X-0.237500X-0.300000X0.237500X-0.300000X0.237500X0.300000X0*%
%ADD43RoundRect,0.150000X-0.675000X-0.150000X0.675000X-0.150000X0.675000X0.150000X-0.675000X0.150000X0*%
%ADD44R,1.600000X1.600000*%
%ADD45O,1.600000X1.600000*%
%ADD46RoundRect,0.381000X-0.381000X0.381000X-0.381000X-0.381000X0.381000X-0.381000X0.381000X0.381000X0*%
%ADD47C,1.524000*%
%ADD48C,1.400000*%
%ADD49R,3.500000X3.500000*%
%ADD50C,3.500000*%
%ADD51RoundRect,0.200000X0.600000X-0.200000X0.600000X0.200000X-0.600000X0.200000X-0.600000X-0.200000X0*%
%ADD52RoundRect,0.250001X1.249999X-0.799999X1.249999X0.799999X-1.249999X0.799999X-1.249999X-0.799999X0*%
%ADD53RoundRect,0.237500X0.300000X0.237500X-0.300000X0.237500X-0.300000X-0.237500X0.300000X-0.237500X0*%
%ADD54RoundRect,0.200000X0.200000X0.600000X-0.200000X0.600000X-0.200000X-0.600000X0.200000X-0.600000X0*%
%ADD55RoundRect,0.250001X0.799999X1.249999X-0.799999X1.249999X-0.799999X-1.249999X0.799999X-1.249999X0*%
%ADD56RoundRect,0.250001X-1.999999X-0.799999X1.999999X-0.799999X1.999999X0.799999X-1.999999X0.799999X0*%
%ADD57RoundRect,0.237500X-0.300000X-0.237500X0.300000X-0.237500X0.300000X0.237500X-0.300000X0.237500X0*%
%ADD58RoundRect,0.250001X-0.799999X1.999999X-0.799999X-1.999999X0.799999X-1.999999X0.799999X1.999999X0*%
%ADD59RoundRect,0.250000X1.100000X-0.412500X1.100000X0.412500X-1.100000X0.412500X-1.100000X-0.412500X0*%
%ADD60R,1.600000X1.400000*%
%ADD61RoundRect,0.250000X-1.100000X0.412500X-1.100000X-0.412500X1.100000X-0.412500X1.100000X0.412500X0*%
%ADD62R,1.400000X1.600000*%
%ADD63C,1.600000*%
%ADD64RoundRect,0.381000X-0.381000X-0.381000X0.381000X-0.381000X0.381000X0.381000X-0.381000X0.381000X0*%
%ADD65RoundRect,0.237500X0.044194X0.380070X-0.380070X-0.044194X-0.044194X-0.380070X0.380070X0.044194X0*%
%ADD66R,1.200000X2.200000*%
%ADD67R,5.800000X6.400000*%
%ADD68RoundRect,0.150000X-0.150000X0.675000X-0.150000X-0.675000X0.150000X-0.675000X0.150000X0.675000X0*%
%ADD69R,1.800000X0.800000*%
G04 APERTURE END LIST*
D10*
X116083571Y-106314523D02*
X116083571Y-105044523D01*
X116567380Y-105044523D01*
X116688333Y-105105000D01*
X116748809Y-105165476D01*
X116809285Y-105286428D01*
X116809285Y-105467857D01*
X116748809Y-105588809D01*
X116688333Y-105649285D01*
X116567380Y-105709761D01*
X116083571Y-105709761D01*
X117293095Y-105951666D02*
X117897857Y-105951666D01*
X117172142Y-106314523D02*
X117595476Y-105044523D01*
X118018809Y-106314523D01*
X119107380Y-106314523D02*
X118381666Y-106314523D01*
X118744523Y-106314523D02*
X118744523Y-105044523D01*
X118623571Y-105225952D01*
X118502619Y-105346904D01*
X118381666Y-105407380D01*
X119591190Y-105165476D02*
X119651666Y-105105000D01*
X119772619Y-105044523D01*
X120075000Y-105044523D01*
X120195952Y-105105000D01*
X120256428Y-105165476D01*
X120316904Y-105286428D01*
X120316904Y-105407380D01*
X120256428Y-105588809D01*
X119530714Y-106314523D01*
X120316904Y-106314523D01*
X116137619Y-104524523D02*
X116137619Y-103254523D01*
X116621428Y-103254523D01*
X116742380Y-103315000D01*
X116802857Y-103375476D01*
X116863333Y-103496428D01*
X116863333Y-103677857D01*
X116802857Y-103798809D01*
X116742380Y-103859285D01*
X116621428Y-103919761D01*
X116137619Y-103919761D01*
X117830952Y-103859285D02*
X118012380Y-103919761D01*
X118072857Y-103980238D01*
X118133333Y-104101190D01*
X118133333Y-104282619D01*
X118072857Y-104403571D01*
X118012380Y-104464047D01*
X117891428Y-104524523D01*
X117407619Y-104524523D01*
X117407619Y-103254523D01*
X117830952Y-103254523D01*
X117951904Y-103315000D01*
X118012380Y-103375476D01*
X118072857Y-103496428D01*
X118072857Y-103617380D01*
X118012380Y-103738333D01*
X117951904Y-103798809D01*
X117830952Y-103859285D01*
X117407619Y-103859285D01*
X119342857Y-104524523D02*
X118617142Y-104524523D01*
X118980000Y-104524523D02*
X118980000Y-103254523D01*
X118859047Y-103435952D01*
X118738095Y-103556904D01*
X118617142Y-103617380D01*
X116657619Y-120804523D02*
X116657619Y-119534523D01*
X117141428Y-119534523D01*
X117262380Y-119595000D01*
X117322857Y-119655476D01*
X117383333Y-119776428D01*
X117383333Y-119957857D01*
X117322857Y-120078809D01*
X117262380Y-120139285D01*
X117141428Y-120199761D01*
X116657619Y-120199761D01*
X118350952Y-120139285D02*
X118532380Y-120199761D01*
X118592857Y-120260238D01*
X118653333Y-120381190D01*
X118653333Y-120562619D01*
X118592857Y-120683571D01*
X118532380Y-120744047D01*
X118411428Y-120804523D01*
X117927619Y-120804523D01*
X117927619Y-119534523D01*
X118350952Y-119534523D01*
X118471904Y-119595000D01*
X118532380Y-119655476D01*
X118592857Y-119776428D01*
X118592857Y-119897380D01*
X118532380Y-120018333D01*
X118471904Y-120078809D01*
X118350952Y-120139285D01*
X117927619Y-120139285D01*
X119741904Y-119957857D02*
X119741904Y-120804523D01*
X119439523Y-119474047D02*
X119137142Y-120381190D01*
X119923333Y-120381190D01*
X154980238Y-74284523D02*
X154980238Y-73014523D01*
X155464047Y-73014523D01*
X155585000Y-73075000D01*
X155645476Y-73135476D01*
X155705952Y-73256428D01*
X155705952Y-73437857D01*
X155645476Y-73558809D01*
X155585000Y-73619285D01*
X155464047Y-73679761D01*
X154980238Y-73679761D01*
X156431666Y-74284523D02*
X156310714Y-74224047D01*
X156250238Y-74163571D01*
X156189761Y-74042619D01*
X156189761Y-73679761D01*
X156250238Y-73558809D01*
X156310714Y-73498333D01*
X156431666Y-73437857D01*
X156613095Y-73437857D01*
X156734047Y-73498333D01*
X156794523Y-73558809D01*
X156855000Y-73679761D01*
X156855000Y-74042619D01*
X156794523Y-74163571D01*
X156734047Y-74224047D01*
X156613095Y-74284523D01*
X156431666Y-74284523D01*
X157278333Y-73437857D02*
X157520238Y-74284523D01*
X157762142Y-73679761D01*
X158004047Y-74284523D01*
X158245952Y-73437857D01*
X159213571Y-74224047D02*
X159092619Y-74284523D01*
X158850714Y-74284523D01*
X158729761Y-74224047D01*
X158669285Y-74103095D01*
X158669285Y-73619285D01*
X158729761Y-73498333D01*
X158850714Y-73437857D01*
X159092619Y-73437857D01*
X159213571Y-73498333D01*
X159274047Y-73619285D01*
X159274047Y-73740238D01*
X158669285Y-73861190D01*
X159818333Y-74284523D02*
X159818333Y-73437857D01*
X159818333Y-73679761D02*
X159878809Y-73558809D01*
X159939285Y-73498333D01*
X160060238Y-73437857D01*
X160181190Y-73437857D01*
X94224523Y-66236428D02*
X92954523Y-66236428D01*
X94224523Y-65510714D01*
X92954523Y-65510714D01*
X94224523Y-64180238D02*
X93619761Y-64603571D01*
X94224523Y-64905952D02*
X92954523Y-64905952D01*
X92954523Y-64422142D01*
X93015000Y-64301190D01*
X93075476Y-64240714D01*
X93196428Y-64180238D01*
X93377857Y-64180238D01*
X93498809Y-64240714D01*
X93559285Y-64301190D01*
X93619761Y-64422142D01*
X93619761Y-64905952D01*
X94164047Y-63696428D02*
X94224523Y-63515000D01*
X94224523Y-63212619D01*
X94164047Y-63091666D01*
X94103571Y-63031190D01*
X93982619Y-62970714D01*
X93861666Y-62970714D01*
X93740714Y-63031190D01*
X93680238Y-63091666D01*
X93619761Y-63212619D01*
X93559285Y-63454523D01*
X93498809Y-63575476D01*
X93438333Y-63635952D01*
X93317380Y-63696428D01*
X93196428Y-63696428D01*
X93075476Y-63635952D01*
X93015000Y-63575476D01*
X92954523Y-63454523D01*
X92954523Y-63152142D01*
X93015000Y-62970714D01*
X92954523Y-62607857D02*
X92954523Y-61882142D01*
X94224523Y-62245000D02*
X92954523Y-62245000D01*
X116677619Y-116294523D02*
X116677619Y-115024523D01*
X117161428Y-115024523D01*
X117282380Y-115085000D01*
X117342857Y-115145476D01*
X117403333Y-115266428D01*
X117403333Y-115447857D01*
X117342857Y-115568809D01*
X117282380Y-115629285D01*
X117161428Y-115689761D01*
X116677619Y-115689761D01*
X118370952Y-115629285D02*
X118552380Y-115689761D01*
X118612857Y-115750238D01*
X118673333Y-115871190D01*
X118673333Y-116052619D01*
X118612857Y-116173571D01*
X118552380Y-116234047D01*
X118431428Y-116294523D01*
X117947619Y-116294523D01*
X117947619Y-115024523D01*
X118370952Y-115024523D01*
X118491904Y-115085000D01*
X118552380Y-115145476D01*
X118612857Y-115266428D01*
X118612857Y-115387380D01*
X118552380Y-115508333D01*
X118491904Y-115568809D01*
X118370952Y-115629285D01*
X117947619Y-115629285D01*
X119096666Y-115024523D02*
X119882857Y-115024523D01*
X119459523Y-115508333D01*
X119640952Y-115508333D01*
X119761904Y-115568809D01*
X119822380Y-115629285D01*
X119882857Y-115750238D01*
X119882857Y-116052619D01*
X119822380Y-116173571D01*
X119761904Y-116234047D01*
X119640952Y-116294523D01*
X119278095Y-116294523D01*
X119157142Y-116234047D01*
X119096666Y-116173571D01*
X116481666Y-107449285D02*
X116663095Y-107509761D01*
X116723571Y-107570238D01*
X116784047Y-107691190D01*
X116784047Y-107872619D01*
X116723571Y-107993571D01*
X116663095Y-108054047D01*
X116542142Y-108114523D01*
X116058333Y-108114523D01*
X116058333Y-106844523D01*
X116481666Y-106844523D01*
X116602619Y-106905000D01*
X116663095Y-106965476D01*
X116723571Y-107086428D01*
X116723571Y-107207380D01*
X116663095Y-107328333D01*
X116602619Y-107388809D01*
X116481666Y-107449285D01*
X116058333Y-107449285D01*
X117570238Y-106844523D02*
X117812142Y-106844523D01*
X117933095Y-106905000D01*
X118054047Y-107025952D01*
X118114523Y-107267857D01*
X118114523Y-107691190D01*
X118054047Y-107933095D01*
X117933095Y-108054047D01*
X117812142Y-108114523D01*
X117570238Y-108114523D01*
X117449285Y-108054047D01*
X117328333Y-107933095D01*
X117267857Y-107691190D01*
X117267857Y-107267857D01*
X117328333Y-107025952D01*
X117449285Y-106905000D01*
X117570238Y-106844523D01*
X118900714Y-106844523D02*
X119142619Y-106844523D01*
X119263571Y-106905000D01*
X119384523Y-107025952D01*
X119445000Y-107267857D01*
X119445000Y-107691190D01*
X119384523Y-107933095D01*
X119263571Y-108054047D01*
X119142619Y-108114523D01*
X118900714Y-108114523D01*
X118779761Y-108054047D01*
X118658809Y-107933095D01*
X118598333Y-107691190D01*
X118598333Y-107267857D01*
X118658809Y-107025952D01*
X118779761Y-106905000D01*
X118900714Y-106844523D01*
X119807857Y-106844523D02*
X120533571Y-106844523D01*
X120170714Y-108114523D02*
X120170714Y-106844523D01*
X121198809Y-106844523D02*
X121319761Y-106844523D01*
X121440714Y-106905000D01*
X121501190Y-106965476D01*
X121561666Y-107086428D01*
X121622142Y-107328333D01*
X121622142Y-107630714D01*
X121561666Y-107872619D01*
X121501190Y-107993571D01*
X121440714Y-108054047D01*
X121319761Y-108114523D01*
X121198809Y-108114523D01*
X121077857Y-108054047D01*
X121017380Y-107993571D01*
X120956904Y-107872619D01*
X120896428Y-107630714D01*
X120896428Y-107328333D01*
X120956904Y-107086428D01*
X121017380Y-106965476D01*
X121077857Y-106905000D01*
X121198809Y-106844523D01*
D11*
X129326666Y-108426666D02*
X129326666Y-108926666D01*
X129293333Y-109026666D01*
X129226666Y-109093333D01*
X129126666Y-109126666D01*
X129060000Y-109126666D01*
X129993333Y-109126666D02*
X129660000Y-109126666D01*
X129660000Y-108426666D01*
X130626666Y-109060000D02*
X130593333Y-109093333D01*
X130493333Y-109126666D01*
X130426666Y-109126666D01*
X130326666Y-109093333D01*
X130260000Y-109026666D01*
X130226666Y-108960000D01*
X130193333Y-108826666D01*
X130193333Y-108726666D01*
X130226666Y-108593333D01*
X130260000Y-108526666D01*
X130326666Y-108460000D01*
X130426666Y-108426666D01*
X130493333Y-108426666D01*
X130593333Y-108460000D01*
X130626666Y-108493333D01*
X131126666Y-108426666D02*
X131126666Y-108926666D01*
X131093333Y-109026666D01*
X131026666Y-109093333D01*
X130926666Y-109126666D01*
X130860000Y-109126666D01*
X131793333Y-109126666D02*
X131460000Y-109126666D01*
X131460000Y-108426666D01*
X132426666Y-109060000D02*
X132393333Y-109093333D01*
X132293333Y-109126666D01*
X132226666Y-109126666D01*
X132126666Y-109093333D01*
X132060000Y-109026666D01*
X132026666Y-108960000D01*
X131993333Y-108826666D01*
X131993333Y-108726666D01*
X132026666Y-108593333D01*
X132060000Y-108526666D01*
X132126666Y-108460000D01*
X132226666Y-108426666D01*
X132293333Y-108426666D01*
X132393333Y-108460000D01*
X132426666Y-108493333D01*
X132926666Y-108426666D02*
X132926666Y-108926666D01*
X132893333Y-109026666D01*
X132826666Y-109093333D01*
X132726666Y-109126666D01*
X132660000Y-109126666D01*
X133593333Y-109126666D02*
X133260000Y-109126666D01*
X133260000Y-108426666D01*
X134226666Y-109060000D02*
X134193333Y-109093333D01*
X134093333Y-109126666D01*
X134026666Y-109126666D01*
X133926666Y-109093333D01*
X133860000Y-109026666D01*
X133826666Y-108960000D01*
X133793333Y-108826666D01*
X133793333Y-108726666D01*
X133826666Y-108593333D01*
X133860000Y-108526666D01*
X133926666Y-108460000D01*
X134026666Y-108426666D01*
X134093333Y-108426666D01*
X134193333Y-108460000D01*
X134226666Y-108493333D01*
X134726666Y-108426666D02*
X134726666Y-108926666D01*
X134693333Y-109026666D01*
X134626666Y-109093333D01*
X134526666Y-109126666D01*
X134460000Y-109126666D01*
X135393333Y-109126666D02*
X135060000Y-109126666D01*
X135060000Y-108426666D01*
X136026666Y-109060000D02*
X135993333Y-109093333D01*
X135893333Y-109126666D01*
X135826666Y-109126666D01*
X135726666Y-109093333D01*
X135660000Y-109026666D01*
X135626666Y-108960000D01*
X135593333Y-108826666D01*
X135593333Y-108726666D01*
X135626666Y-108593333D01*
X135660000Y-108526666D01*
X135726666Y-108460000D01*
X135826666Y-108426666D01*
X135893333Y-108426666D01*
X135993333Y-108460000D01*
X136026666Y-108493333D01*
D10*
X105517619Y-102484523D02*
X105517619Y-101214523D01*
X106001428Y-101214523D01*
X106122380Y-101275000D01*
X106182857Y-101335476D01*
X106243333Y-101456428D01*
X106243333Y-101637857D01*
X106182857Y-101758809D01*
X106122380Y-101819285D01*
X106001428Y-101879761D01*
X105517619Y-101879761D01*
X107210952Y-101819285D02*
X107392380Y-101879761D01*
X107452857Y-101940238D01*
X107513333Y-102061190D01*
X107513333Y-102242619D01*
X107452857Y-102363571D01*
X107392380Y-102424047D01*
X107271428Y-102484523D01*
X106787619Y-102484523D01*
X106787619Y-101214523D01*
X107210952Y-101214523D01*
X107331904Y-101275000D01*
X107392380Y-101335476D01*
X107452857Y-101456428D01*
X107452857Y-101577380D01*
X107392380Y-101698333D01*
X107331904Y-101758809D01*
X107210952Y-101819285D01*
X106787619Y-101819285D01*
X108299523Y-101214523D02*
X108420476Y-101214523D01*
X108541428Y-101275000D01*
X108601904Y-101335476D01*
X108662380Y-101456428D01*
X108722857Y-101698333D01*
X108722857Y-102000714D01*
X108662380Y-102242619D01*
X108601904Y-102363571D01*
X108541428Y-102424047D01*
X108420476Y-102484523D01*
X108299523Y-102484523D01*
X108178571Y-102424047D01*
X108118095Y-102363571D01*
X108057619Y-102242619D01*
X107997142Y-102000714D01*
X107997142Y-101698333D01*
X108057619Y-101456428D01*
X108118095Y-101335476D01*
X108178571Y-101275000D01*
X108299523Y-101214523D01*
X105518333Y-108504523D02*
X105518333Y-107234523D01*
X106002142Y-107234523D01*
X106123095Y-107295000D01*
X106183571Y-107355476D01*
X106244047Y-107476428D01*
X106244047Y-107657857D01*
X106183571Y-107778809D01*
X106123095Y-107839285D01*
X106002142Y-107899761D01*
X105518333Y-107899761D01*
X106727857Y-108141666D02*
X107332619Y-108141666D01*
X106606904Y-108504523D02*
X107030238Y-107234523D01*
X107453571Y-108504523D01*
X108481666Y-107234523D02*
X107876904Y-107234523D01*
X107816428Y-107839285D01*
X107876904Y-107778809D01*
X107997857Y-107718333D01*
X108300238Y-107718333D01*
X108421190Y-107778809D01*
X108481666Y-107839285D01*
X108542142Y-107960238D01*
X108542142Y-108262619D01*
X108481666Y-108383571D01*
X108421190Y-108444047D01*
X108300238Y-108504523D01*
X107997857Y-108504523D01*
X107876904Y-108444047D01*
X107816428Y-108383571D01*
X99949285Y-76624523D02*
X99949285Y-75354523D01*
X100554047Y-75777857D02*
X100554047Y-76624523D01*
X100554047Y-75898809D02*
X100614523Y-75838333D01*
X100735476Y-75777857D01*
X100916904Y-75777857D01*
X101037857Y-75838333D01*
X101098333Y-75959285D01*
X101098333Y-76624523D01*
X102247380Y-76624523D02*
X102247380Y-75354523D01*
X102247380Y-76564047D02*
X102126428Y-76624523D01*
X101884523Y-76624523D01*
X101763571Y-76564047D01*
X101703095Y-76503571D01*
X101642619Y-76382619D01*
X101642619Y-76019761D01*
X101703095Y-75898809D01*
X101763571Y-75838333D01*
X101884523Y-75777857D01*
X102126428Y-75777857D01*
X102247380Y-75838333D01*
X102852142Y-76624523D02*
X102852142Y-75777857D01*
X102852142Y-75354523D02*
X102791666Y-75415000D01*
X102852142Y-75475476D01*
X102912619Y-75415000D01*
X102852142Y-75354523D01*
X102852142Y-75475476D01*
X104001190Y-76564047D02*
X103880238Y-76624523D01*
X103638333Y-76624523D01*
X103517380Y-76564047D01*
X103456904Y-76503571D01*
X103396428Y-76382619D01*
X103396428Y-76019761D01*
X103456904Y-75898809D01*
X103517380Y-75838333D01*
X103638333Y-75777857D01*
X103880238Y-75777857D01*
X104001190Y-75838333D01*
X105089761Y-76624523D02*
X105089761Y-75959285D01*
X105029285Y-75838333D01*
X104908333Y-75777857D01*
X104666428Y-75777857D01*
X104545476Y-75838333D01*
X105089761Y-76564047D02*
X104968809Y-76624523D01*
X104666428Y-76624523D01*
X104545476Y-76564047D01*
X104485000Y-76443095D01*
X104485000Y-76322142D01*
X104545476Y-76201190D01*
X104666428Y-76140714D01*
X104968809Y-76140714D01*
X105089761Y-76080238D01*
X105513095Y-75777857D02*
X105996904Y-75777857D01*
X105694523Y-75354523D02*
X105694523Y-76443095D01*
X105755000Y-76564047D01*
X105875952Y-76624523D01*
X105996904Y-76624523D01*
X106601666Y-76624523D02*
X106480714Y-76564047D01*
X106420238Y-76503571D01*
X106359761Y-76382619D01*
X106359761Y-76019761D01*
X106420238Y-75898809D01*
X106480714Y-75838333D01*
X106601666Y-75777857D01*
X106783095Y-75777857D01*
X106904047Y-75838333D01*
X106964523Y-75898809D01*
X107025000Y-76019761D01*
X107025000Y-76382619D01*
X106964523Y-76503571D01*
X106904047Y-76564047D01*
X106783095Y-76624523D01*
X106601666Y-76624523D01*
X107569285Y-76624523D02*
X107569285Y-75777857D01*
X107569285Y-76019761D02*
X107629761Y-75898809D01*
X107690238Y-75838333D01*
X107811190Y-75777857D01*
X107932142Y-75777857D01*
X117061666Y-110779285D02*
X117243095Y-110839761D01*
X117303571Y-110900238D01*
X117364047Y-111021190D01*
X117364047Y-111202619D01*
X117303571Y-111323571D01*
X117243095Y-111384047D01*
X117122142Y-111444523D01*
X116638333Y-111444523D01*
X116638333Y-110174523D01*
X117061666Y-110174523D01*
X117182619Y-110235000D01*
X117243095Y-110295476D01*
X117303571Y-110416428D01*
X117303571Y-110537380D01*
X117243095Y-110658333D01*
X117182619Y-110718809D01*
X117061666Y-110779285D01*
X116638333Y-110779285D01*
X118150238Y-110174523D02*
X118392142Y-110174523D01*
X118513095Y-110235000D01*
X118634047Y-110355952D01*
X118694523Y-110597857D01*
X118694523Y-111021190D01*
X118634047Y-111263095D01*
X118513095Y-111384047D01*
X118392142Y-111444523D01*
X118150238Y-111444523D01*
X118029285Y-111384047D01*
X117908333Y-111263095D01*
X117847857Y-111021190D01*
X117847857Y-110597857D01*
X117908333Y-110355952D01*
X118029285Y-110235000D01*
X118150238Y-110174523D01*
X119480714Y-110174523D02*
X119722619Y-110174523D01*
X119843571Y-110235000D01*
X119964523Y-110355952D01*
X120025000Y-110597857D01*
X120025000Y-111021190D01*
X119964523Y-111263095D01*
X119843571Y-111384047D01*
X119722619Y-111444523D01*
X119480714Y-111444523D01*
X119359761Y-111384047D01*
X119238809Y-111263095D01*
X119178333Y-111021190D01*
X119178333Y-110597857D01*
X119238809Y-110355952D01*
X119359761Y-110235000D01*
X119480714Y-110174523D01*
X120387857Y-110174523D02*
X121113571Y-110174523D01*
X120750714Y-111444523D02*
X120750714Y-110174523D01*
X121778809Y-110174523D02*
X121899761Y-110174523D01*
X122020714Y-110235000D01*
X122081190Y-110295476D01*
X122141666Y-110416428D01*
X122202142Y-110658333D01*
X122202142Y-110960714D01*
X122141666Y-111202619D01*
X122081190Y-111323571D01*
X122020714Y-111384047D01*
X121899761Y-111444523D01*
X121778809Y-111444523D01*
X121657857Y-111384047D01*
X121597380Y-111323571D01*
X121536904Y-111202619D01*
X121476428Y-110960714D01*
X121476428Y-110658333D01*
X121536904Y-110416428D01*
X121597380Y-110295476D01*
X121657857Y-110235000D01*
X121778809Y-110174523D01*
X105578333Y-106414523D02*
X105578333Y-105144523D01*
X106062142Y-105144523D01*
X106183095Y-105205000D01*
X106243571Y-105265476D01*
X106304047Y-105386428D01*
X106304047Y-105567857D01*
X106243571Y-105688809D01*
X106183095Y-105749285D01*
X106062142Y-105809761D01*
X105578333Y-105809761D01*
X106787857Y-106051666D02*
X107392619Y-106051666D01*
X106666904Y-106414523D02*
X107090238Y-105144523D01*
X107513571Y-106414523D01*
X108481190Y-105144523D02*
X108239285Y-105144523D01*
X108118333Y-105205000D01*
X108057857Y-105265476D01*
X107936904Y-105446904D01*
X107876428Y-105688809D01*
X107876428Y-106172619D01*
X107936904Y-106293571D01*
X107997380Y-106354047D01*
X108118333Y-106414523D01*
X108360238Y-106414523D01*
X108481190Y-106354047D01*
X108541666Y-106293571D01*
X108602142Y-106172619D01*
X108602142Y-105870238D01*
X108541666Y-105749285D01*
X108481190Y-105688809D01*
X108360238Y-105628333D01*
X108118333Y-105628333D01*
X107997380Y-105688809D01*
X107936904Y-105749285D01*
X107876428Y-105870238D01*
X99772857Y-70854523D02*
X100196190Y-72124523D01*
X100619523Y-70854523D01*
X100982380Y-72064047D02*
X101163809Y-72124523D01*
X101466190Y-72124523D01*
X101587142Y-72064047D01*
X101647619Y-72003571D01*
X101708095Y-71882619D01*
X101708095Y-71761666D01*
X101647619Y-71640714D01*
X101587142Y-71580238D01*
X101466190Y-71519761D01*
X101224285Y-71459285D01*
X101103333Y-71398809D01*
X101042857Y-71338333D01*
X100982380Y-71217380D01*
X100982380Y-71096428D01*
X101042857Y-70975476D01*
X101103333Y-70915000D01*
X101224285Y-70854523D01*
X101526666Y-70854523D01*
X101708095Y-70915000D01*
X102494285Y-71519761D02*
X102494285Y-72124523D01*
X102070952Y-70854523D02*
X102494285Y-71519761D01*
X102917619Y-70854523D01*
X103280476Y-72064047D02*
X103461904Y-72124523D01*
X103764285Y-72124523D01*
X103885238Y-72064047D01*
X103945714Y-72003571D01*
X104006190Y-71882619D01*
X104006190Y-71761666D01*
X103945714Y-71640714D01*
X103885238Y-71580238D01*
X103764285Y-71519761D01*
X103522380Y-71459285D01*
X103401428Y-71398809D01*
X103340952Y-71338333D01*
X103280476Y-71217380D01*
X103280476Y-71096428D01*
X103340952Y-70975476D01*
X103401428Y-70915000D01*
X103522380Y-70854523D01*
X103824761Y-70854523D01*
X104006190Y-70915000D01*
X98197619Y-125154523D02*
X98197619Y-123884523D01*
X98681428Y-123884523D01*
X98802380Y-123945000D01*
X98862857Y-124005476D01*
X98923333Y-124126428D01*
X98923333Y-124307857D01*
X98862857Y-124428809D01*
X98802380Y-124489285D01*
X98681428Y-124549761D01*
X98197619Y-124549761D01*
X99890952Y-124489285D02*
X100072380Y-124549761D01*
X100132857Y-124610238D01*
X100193333Y-124731190D01*
X100193333Y-124912619D01*
X100132857Y-125033571D01*
X100072380Y-125094047D01*
X99951428Y-125154523D01*
X99467619Y-125154523D01*
X99467619Y-123884523D01*
X99890952Y-123884523D01*
X100011904Y-123945000D01*
X100072380Y-124005476D01*
X100132857Y-124126428D01*
X100132857Y-124247380D01*
X100072380Y-124368333D01*
X100011904Y-124428809D01*
X99890952Y-124489285D01*
X99467619Y-124489285D01*
X101342380Y-123884523D02*
X100737619Y-123884523D01*
X100677142Y-124489285D01*
X100737619Y-124428809D01*
X100858571Y-124368333D01*
X101160952Y-124368333D01*
X101281904Y-124428809D01*
X101342380Y-124489285D01*
X101402857Y-124610238D01*
X101402857Y-124912619D01*
X101342380Y-125033571D01*
X101281904Y-125094047D01*
X101160952Y-125154523D01*
X100858571Y-125154523D01*
X100737619Y-125094047D01*
X100677142Y-125033571D01*
X99821666Y-73154523D02*
X100245000Y-74424523D01*
X100668333Y-73154523D01*
X101515000Y-73759285D02*
X101696428Y-73819761D01*
X101756904Y-73880238D01*
X101817380Y-74001190D01*
X101817380Y-74182619D01*
X101756904Y-74303571D01*
X101696428Y-74364047D01*
X101575476Y-74424523D01*
X101091666Y-74424523D01*
X101091666Y-73154523D01*
X101515000Y-73154523D01*
X101635952Y-73215000D01*
X101696428Y-73275476D01*
X101756904Y-73396428D01*
X101756904Y-73517380D01*
X101696428Y-73638333D01*
X101635952Y-73698809D01*
X101515000Y-73759285D01*
X101091666Y-73759285D01*
X102361666Y-73154523D02*
X102361666Y-74182619D01*
X102422142Y-74303571D01*
X102482619Y-74364047D01*
X102603571Y-74424523D01*
X102845476Y-74424523D01*
X102966428Y-74364047D01*
X103026904Y-74303571D01*
X103087380Y-74182619D01*
X103087380Y-73154523D01*
X103631666Y-74364047D02*
X103813095Y-74424523D01*
X104115476Y-74424523D01*
X104236428Y-74364047D01*
X104296904Y-74303571D01*
X104357380Y-74182619D01*
X104357380Y-74061666D01*
X104296904Y-73940714D01*
X104236428Y-73880238D01*
X104115476Y-73819761D01*
X103873571Y-73759285D01*
X103752619Y-73698809D01*
X103692142Y-73638333D01*
X103631666Y-73517380D01*
X103631666Y-73396428D01*
X103692142Y-73275476D01*
X103752619Y-73215000D01*
X103873571Y-73154523D01*
X104175952Y-73154523D01*
X104357380Y-73215000D01*
X101108095Y-77554523D02*
X100503333Y-77554523D01*
X100442857Y-78159285D01*
X100503333Y-78098809D01*
X100624285Y-78038333D01*
X100926666Y-78038333D01*
X101047619Y-78098809D01*
X101108095Y-78159285D01*
X101168571Y-78280238D01*
X101168571Y-78582619D01*
X101108095Y-78703571D01*
X101047619Y-78764047D01*
X100926666Y-78824523D01*
X100624285Y-78824523D01*
X100503333Y-78764047D01*
X100442857Y-78703571D01*
X101531428Y-77554523D02*
X101954761Y-78824523D01*
X102378095Y-77554523D01*
X105578333Y-104454523D02*
X105578333Y-103184523D01*
X106062142Y-103184523D01*
X106183095Y-103245000D01*
X106243571Y-103305476D01*
X106304047Y-103426428D01*
X106304047Y-103607857D01*
X106243571Y-103728809D01*
X106183095Y-103789285D01*
X106062142Y-103849761D01*
X105578333Y-103849761D01*
X106787857Y-104091666D02*
X107392619Y-104091666D01*
X106666904Y-104454523D02*
X107090238Y-103184523D01*
X107513571Y-104454523D01*
X107815952Y-103184523D02*
X108662619Y-103184523D01*
X108118333Y-104454523D01*
D12*
%TO.C,Q1*%
X171824761Y-86627619D02*
X171729523Y-86580000D01*
X171634285Y-86484761D01*
X171491428Y-86341904D01*
X171396190Y-86294285D01*
X171300952Y-86294285D01*
X171348571Y-86532380D02*
X171253333Y-86484761D01*
X171158095Y-86389523D01*
X171110476Y-86199047D01*
X171110476Y-85865714D01*
X171158095Y-85675238D01*
X171253333Y-85580000D01*
X171348571Y-85532380D01*
X171539047Y-85532380D01*
X171634285Y-85580000D01*
X171729523Y-85675238D01*
X171777142Y-85865714D01*
X171777142Y-86199047D01*
X171729523Y-86389523D01*
X171634285Y-86484761D01*
X171539047Y-86532380D01*
X171348571Y-86532380D01*
X172729523Y-86532380D02*
X172158095Y-86532380D01*
X172443809Y-86532380D02*
X172443809Y-85532380D01*
X172348571Y-85675238D01*
X172253333Y-85770476D01*
X172158095Y-85818095D01*
%TO.C,J2*%
X114366666Y-62882380D02*
X114366666Y-63596666D01*
X114319047Y-63739523D01*
X114223809Y-63834761D01*
X114080952Y-63882380D01*
X113985714Y-63882380D01*
X114795238Y-62977619D02*
X114842857Y-62930000D01*
X114938095Y-62882380D01*
X115176190Y-62882380D01*
X115271428Y-62930000D01*
X115319047Y-62977619D01*
X115366666Y-63072857D01*
X115366666Y-63168095D01*
X115319047Y-63310952D01*
X114747619Y-63882380D01*
X115366666Y-63882380D01*
%TO.C,Q8*%
X115834761Y-76482857D02*
X115739523Y-76440000D01*
X115644285Y-76354285D01*
X115501428Y-76225714D01*
X115406190Y-76182857D01*
X115310952Y-76182857D01*
X115358571Y-76397142D02*
X115263333Y-76354285D01*
X115168095Y-76268571D01*
X115120476Y-76097142D01*
X115120476Y-75797142D01*
X115168095Y-75625714D01*
X115263333Y-75540000D01*
X115358571Y-75497142D01*
X115549047Y-75497142D01*
X115644285Y-75540000D01*
X115739523Y-75625714D01*
X115787142Y-75797142D01*
X115787142Y-76097142D01*
X115739523Y-76268571D01*
X115644285Y-76354285D01*
X115549047Y-76397142D01*
X115358571Y-76397142D01*
X116358571Y-75882857D02*
X116263333Y-75840000D01*
X116215714Y-75797142D01*
X116168095Y-75711428D01*
X116168095Y-75668571D01*
X116215714Y-75582857D01*
X116263333Y-75540000D01*
X116358571Y-75497142D01*
X116549047Y-75497142D01*
X116644285Y-75540000D01*
X116691904Y-75582857D01*
X116739523Y-75668571D01*
X116739523Y-75711428D01*
X116691904Y-75797142D01*
X116644285Y-75840000D01*
X116549047Y-75882857D01*
X116358571Y-75882857D01*
X116263333Y-75925714D01*
X116215714Y-75968571D01*
X116168095Y-76054285D01*
X116168095Y-76225714D01*
X116215714Y-76311428D01*
X116263333Y-76354285D01*
X116358571Y-76397142D01*
X116549047Y-76397142D01*
X116644285Y-76354285D01*
X116691904Y-76311428D01*
X116739523Y-76225714D01*
X116739523Y-76054285D01*
X116691904Y-75968571D01*
X116644285Y-75925714D01*
X116549047Y-75882857D01*
%TO.C,Q6*%
X147807619Y-90215238D02*
X147760000Y-90310476D01*
X147664761Y-90405714D01*
X147521904Y-90548571D01*
X147474285Y-90643809D01*
X147474285Y-90739047D01*
X147712380Y-90691428D02*
X147664761Y-90786666D01*
X147569523Y-90881904D01*
X147379047Y-90929523D01*
X147045714Y-90929523D01*
X146855238Y-90881904D01*
X146760000Y-90786666D01*
X146712380Y-90691428D01*
X146712380Y-90500952D01*
X146760000Y-90405714D01*
X146855238Y-90310476D01*
X147045714Y-90262857D01*
X147379047Y-90262857D01*
X147569523Y-90310476D01*
X147664761Y-90405714D01*
X147712380Y-90500952D01*
X147712380Y-90691428D01*
X146712380Y-89405714D02*
X146712380Y-89596190D01*
X146760000Y-89691428D01*
X146807619Y-89739047D01*
X146950476Y-89834285D01*
X147140952Y-89881904D01*
X147521904Y-89881904D01*
X147617142Y-89834285D01*
X147664761Y-89786666D01*
X147712380Y-89691428D01*
X147712380Y-89500952D01*
X147664761Y-89405714D01*
X147617142Y-89358095D01*
X147521904Y-89310476D01*
X147283809Y-89310476D01*
X147188571Y-89358095D01*
X147140952Y-89405714D01*
X147093333Y-89500952D01*
X147093333Y-89691428D01*
X147140952Y-89786666D01*
X147188571Y-89834285D01*
X147283809Y-89881904D01*
%TO.C,R23*%
X106002380Y-70492857D02*
X105526190Y-70826190D01*
X106002380Y-71064285D02*
X105002380Y-71064285D01*
X105002380Y-70683333D01*
X105050000Y-70588095D01*
X105097619Y-70540476D01*
X105192857Y-70492857D01*
X105335714Y-70492857D01*
X105430952Y-70540476D01*
X105478571Y-70588095D01*
X105526190Y-70683333D01*
X105526190Y-71064285D01*
X105097619Y-70111904D02*
X105050000Y-70064285D01*
X105002380Y-69969047D01*
X105002380Y-69730952D01*
X105050000Y-69635714D01*
X105097619Y-69588095D01*
X105192857Y-69540476D01*
X105288095Y-69540476D01*
X105430952Y-69588095D01*
X106002380Y-70159523D01*
X106002380Y-69540476D01*
X105002380Y-69207142D02*
X105002380Y-68588095D01*
X105383333Y-68921428D01*
X105383333Y-68778571D01*
X105430952Y-68683333D01*
X105478571Y-68635714D01*
X105573809Y-68588095D01*
X105811904Y-68588095D01*
X105907142Y-68635714D01*
X105954761Y-68683333D01*
X106002380Y-68778571D01*
X106002380Y-69064285D01*
X105954761Y-69159523D01*
X105907142Y-69207142D01*
D13*
%TO.C,D2*%
X114677142Y-103821428D02*
X114677142Y-103221428D01*
X114820000Y-103221428D01*
X114905714Y-103250000D01*
X114962857Y-103307142D01*
X114991428Y-103364285D01*
X115020000Y-103478571D01*
X115020000Y-103564285D01*
X114991428Y-103678571D01*
X114962857Y-103735714D01*
X114905714Y-103792857D01*
X114820000Y-103821428D01*
X114677142Y-103821428D01*
X115248571Y-103278571D02*
X115277142Y-103250000D01*
X115334285Y-103221428D01*
X115477142Y-103221428D01*
X115534285Y-103250000D01*
X115562857Y-103278571D01*
X115591428Y-103335714D01*
X115591428Y-103392857D01*
X115562857Y-103478571D01*
X115220000Y-103821428D01*
X115591428Y-103821428D01*
%TO.C,D9*%
X98347142Y-75871428D02*
X98347142Y-75271428D01*
X98490000Y-75271428D01*
X98575714Y-75300000D01*
X98632857Y-75357142D01*
X98661428Y-75414285D01*
X98690000Y-75528571D01*
X98690000Y-75614285D01*
X98661428Y-75728571D01*
X98632857Y-75785714D01*
X98575714Y-75842857D01*
X98490000Y-75871428D01*
X98347142Y-75871428D01*
X98975714Y-75871428D02*
X99090000Y-75871428D01*
X99147142Y-75842857D01*
X99175714Y-75814285D01*
X99232857Y-75728571D01*
X99261428Y-75614285D01*
X99261428Y-75385714D01*
X99232857Y-75328571D01*
X99204285Y-75300000D01*
X99147142Y-75271428D01*
X99032857Y-75271428D01*
X98975714Y-75300000D01*
X98947142Y-75328571D01*
X98918571Y-75385714D01*
X98918571Y-75528571D01*
X98947142Y-75585714D01*
X98975714Y-75614285D01*
X99032857Y-75642857D01*
X99147142Y-75642857D01*
X99204285Y-75614285D01*
X99232857Y-75585714D01*
X99261428Y-75528571D01*
D10*
%TO.C,Q11*%
X189454285Y-99755476D02*
X189333333Y-99695000D01*
X189212380Y-99574047D01*
X189030952Y-99392619D01*
X188910000Y-99332142D01*
X188789047Y-99332142D01*
X188849523Y-99634523D02*
X188728571Y-99574047D01*
X188607619Y-99453095D01*
X188547142Y-99211190D01*
X188547142Y-98787857D01*
X188607619Y-98545952D01*
X188728571Y-98425000D01*
X188849523Y-98364523D01*
X189091428Y-98364523D01*
X189212380Y-98425000D01*
X189333333Y-98545952D01*
X189393809Y-98787857D01*
X189393809Y-99211190D01*
X189333333Y-99453095D01*
X189212380Y-99574047D01*
X189091428Y-99634523D01*
X188849523Y-99634523D01*
X190603333Y-99634523D02*
X189877619Y-99634523D01*
X190240476Y-99634523D02*
X190240476Y-98364523D01*
X190119523Y-98545952D01*
X189998571Y-98666904D01*
X189877619Y-98727380D01*
X191812857Y-99634523D02*
X191087142Y-99634523D01*
X191450000Y-99634523D02*
X191450000Y-98364523D01*
X191329047Y-98545952D01*
X191208095Y-98666904D01*
X191087142Y-98727380D01*
D12*
%TO.C,R26*%
X147237142Y-87982380D02*
X146903809Y-87506190D01*
X146665714Y-87982380D02*
X146665714Y-86982380D01*
X147046666Y-86982380D01*
X147141904Y-87030000D01*
X147189523Y-87077619D01*
X147237142Y-87172857D01*
X147237142Y-87315714D01*
X147189523Y-87410952D01*
X147141904Y-87458571D01*
X147046666Y-87506190D01*
X146665714Y-87506190D01*
X147618095Y-87077619D02*
X147665714Y-87030000D01*
X147760952Y-86982380D01*
X147999047Y-86982380D01*
X148094285Y-87030000D01*
X148141904Y-87077619D01*
X148189523Y-87172857D01*
X148189523Y-87268095D01*
X148141904Y-87410952D01*
X147570476Y-87982380D01*
X148189523Y-87982380D01*
X149046666Y-86982380D02*
X148856190Y-86982380D01*
X148760952Y-87030000D01*
X148713333Y-87077619D01*
X148618095Y-87220476D01*
X148570476Y-87410952D01*
X148570476Y-87791904D01*
X148618095Y-87887142D01*
X148665714Y-87934761D01*
X148760952Y-87982380D01*
X148951428Y-87982380D01*
X149046666Y-87934761D01*
X149094285Y-87887142D01*
X149141904Y-87791904D01*
X149141904Y-87553809D01*
X149094285Y-87458571D01*
X149046666Y-87410952D01*
X148951428Y-87363333D01*
X148760952Y-87363333D01*
X148665714Y-87410952D01*
X148618095Y-87458571D01*
X148570476Y-87553809D01*
%TO.C,R48*%
X185132142Y-72992380D02*
X184798809Y-72516190D01*
X184560714Y-72992380D02*
X184560714Y-71992380D01*
X184941666Y-71992380D01*
X185036904Y-72040000D01*
X185084523Y-72087619D01*
X185132142Y-72182857D01*
X185132142Y-72325714D01*
X185084523Y-72420952D01*
X185036904Y-72468571D01*
X184941666Y-72516190D01*
X184560714Y-72516190D01*
X185989285Y-72325714D02*
X185989285Y-72992380D01*
X185751190Y-71944761D02*
X185513095Y-72659047D01*
X186132142Y-72659047D01*
X186655952Y-72420952D02*
X186560714Y-72373333D01*
X186513095Y-72325714D01*
X186465476Y-72230476D01*
X186465476Y-72182857D01*
X186513095Y-72087619D01*
X186560714Y-72040000D01*
X186655952Y-71992380D01*
X186846428Y-71992380D01*
X186941666Y-72040000D01*
X186989285Y-72087619D01*
X187036904Y-72182857D01*
X187036904Y-72230476D01*
X186989285Y-72325714D01*
X186941666Y-72373333D01*
X186846428Y-72420952D01*
X186655952Y-72420952D01*
X186560714Y-72468571D01*
X186513095Y-72516190D01*
X186465476Y-72611428D01*
X186465476Y-72801904D01*
X186513095Y-72897142D01*
X186560714Y-72944761D01*
X186655952Y-72992380D01*
X186846428Y-72992380D01*
X186941666Y-72944761D01*
X186989285Y-72897142D01*
X187036904Y-72801904D01*
X187036904Y-72611428D01*
X186989285Y-72516190D01*
X186941666Y-72468571D01*
X186846428Y-72420952D01*
%TO.C,U8*%
X141468095Y-70312380D02*
X141468095Y-71121904D01*
X141515714Y-71217142D01*
X141563333Y-71264761D01*
X141658571Y-71312380D01*
X141849047Y-71312380D01*
X141944285Y-71264761D01*
X141991904Y-71217142D01*
X142039523Y-71121904D01*
X142039523Y-70312380D01*
X142658571Y-70740952D02*
X142563333Y-70693333D01*
X142515714Y-70645714D01*
X142468095Y-70550476D01*
X142468095Y-70502857D01*
X142515714Y-70407619D01*
X142563333Y-70360000D01*
X142658571Y-70312380D01*
X142849047Y-70312380D01*
X142944285Y-70360000D01*
X142991904Y-70407619D01*
X143039523Y-70502857D01*
X143039523Y-70550476D01*
X142991904Y-70645714D01*
X142944285Y-70693333D01*
X142849047Y-70740952D01*
X142658571Y-70740952D01*
X142563333Y-70788571D01*
X142515714Y-70836190D01*
X142468095Y-70931428D01*
X142468095Y-71121904D01*
X142515714Y-71217142D01*
X142563333Y-71264761D01*
X142658571Y-71312380D01*
X142849047Y-71312380D01*
X142944285Y-71264761D01*
X142991904Y-71217142D01*
X143039523Y-71121904D01*
X143039523Y-70931428D01*
X142991904Y-70836190D01*
X142944285Y-70788571D01*
X142849047Y-70740952D01*
%TO.C,R32*%
X137747142Y-98082380D02*
X137413809Y-97606190D01*
X137175714Y-98082380D02*
X137175714Y-97082380D01*
X137556666Y-97082380D01*
X137651904Y-97130000D01*
X137699523Y-97177619D01*
X137747142Y-97272857D01*
X137747142Y-97415714D01*
X137699523Y-97510952D01*
X137651904Y-97558571D01*
X137556666Y-97606190D01*
X137175714Y-97606190D01*
X138080476Y-97082380D02*
X138699523Y-97082380D01*
X138366190Y-97463333D01*
X138509047Y-97463333D01*
X138604285Y-97510952D01*
X138651904Y-97558571D01*
X138699523Y-97653809D01*
X138699523Y-97891904D01*
X138651904Y-97987142D01*
X138604285Y-98034761D01*
X138509047Y-98082380D01*
X138223333Y-98082380D01*
X138128095Y-98034761D01*
X138080476Y-97987142D01*
X139080476Y-97177619D02*
X139128095Y-97130000D01*
X139223333Y-97082380D01*
X139461428Y-97082380D01*
X139556666Y-97130000D01*
X139604285Y-97177619D01*
X139651904Y-97272857D01*
X139651904Y-97368095D01*
X139604285Y-97510952D01*
X139032857Y-98082380D01*
X139651904Y-98082380D01*
%TO.C,C11*%
X138967970Y-113497106D02*
X138967970Y-113564450D01*
X138900626Y-113699137D01*
X138833283Y-113766480D01*
X138698596Y-113833824D01*
X138563909Y-113833824D01*
X138462894Y-113800152D01*
X138294535Y-113699137D01*
X138193520Y-113598122D01*
X138092504Y-113429763D01*
X138058833Y-113328748D01*
X138058833Y-113194061D01*
X138126176Y-113059374D01*
X138193520Y-112992030D01*
X138328207Y-112924687D01*
X138395550Y-112924687D01*
X139708749Y-112891015D02*
X139304688Y-113295076D01*
X139506718Y-113093045D02*
X138799611Y-112385938D01*
X138833283Y-112554297D01*
X138833283Y-112688984D01*
X138799611Y-112790000D01*
X140382184Y-112217580D02*
X139978123Y-112621641D01*
X140180153Y-112419610D02*
X139473046Y-111712503D01*
X139506718Y-111880862D01*
X139506718Y-112015549D01*
X139473046Y-112116564D01*
%TO.C,D6*%
X136291904Y-87212380D02*
X136291904Y-86212380D01*
X136530000Y-86212380D01*
X136672857Y-86260000D01*
X136768095Y-86355238D01*
X136815714Y-86450476D01*
X136863333Y-86640952D01*
X136863333Y-86783809D01*
X136815714Y-86974285D01*
X136768095Y-87069523D01*
X136672857Y-87164761D01*
X136530000Y-87212380D01*
X136291904Y-87212380D01*
X137720476Y-86212380D02*
X137530000Y-86212380D01*
X137434761Y-86260000D01*
X137387142Y-86307619D01*
X137291904Y-86450476D01*
X137244285Y-86640952D01*
X137244285Y-87021904D01*
X137291904Y-87117142D01*
X137339523Y-87164761D01*
X137434761Y-87212380D01*
X137625238Y-87212380D01*
X137720476Y-87164761D01*
X137768095Y-87117142D01*
X137815714Y-87021904D01*
X137815714Y-86783809D01*
X137768095Y-86688571D01*
X137720476Y-86640952D01*
X137625238Y-86593333D01*
X137434761Y-86593333D01*
X137339523Y-86640952D01*
X137291904Y-86688571D01*
X137244285Y-86783809D01*
%TO.C,JP1*%
X127876666Y-65902380D02*
X127876666Y-66616666D01*
X127829047Y-66759523D01*
X127733809Y-66854761D01*
X127590952Y-66902380D01*
X127495714Y-66902380D01*
X128352857Y-66902380D02*
X128352857Y-65902380D01*
X128733809Y-65902380D01*
X128829047Y-65950000D01*
X128876666Y-65997619D01*
X128924285Y-66092857D01*
X128924285Y-66235714D01*
X128876666Y-66330952D01*
X128829047Y-66378571D01*
X128733809Y-66426190D01*
X128352857Y-66426190D01*
X129876666Y-66902380D02*
X129305238Y-66902380D01*
X129590952Y-66902380D02*
X129590952Y-65902380D01*
X129495714Y-66045238D01*
X129400476Y-66140476D01*
X129305238Y-66188095D01*
%TO.C,SW6*%
X159664761Y-67143333D02*
X159712380Y-67000476D01*
X159712380Y-66762380D01*
X159664761Y-66667142D01*
X159617142Y-66619523D01*
X159521904Y-66571904D01*
X159426666Y-66571904D01*
X159331428Y-66619523D01*
X159283809Y-66667142D01*
X159236190Y-66762380D01*
X159188571Y-66952857D01*
X159140952Y-67048095D01*
X159093333Y-67095714D01*
X158998095Y-67143333D01*
X158902857Y-67143333D01*
X158807619Y-67095714D01*
X158760000Y-67048095D01*
X158712380Y-66952857D01*
X158712380Y-66714761D01*
X158760000Y-66571904D01*
X158712380Y-66238571D02*
X159712380Y-66000476D01*
X158998095Y-65810000D01*
X159712380Y-65619523D01*
X158712380Y-65381428D01*
X158712380Y-64571904D02*
X158712380Y-64762380D01*
X158760000Y-64857619D01*
X158807619Y-64905238D01*
X158950476Y-65000476D01*
X159140952Y-65048095D01*
X159521904Y-65048095D01*
X159617142Y-65000476D01*
X159664761Y-64952857D01*
X159712380Y-64857619D01*
X159712380Y-64667142D01*
X159664761Y-64571904D01*
X159617142Y-64524285D01*
X159521904Y-64476666D01*
X159283809Y-64476666D01*
X159188571Y-64524285D01*
X159140952Y-64571904D01*
X159093333Y-64667142D01*
X159093333Y-64857619D01*
X159140952Y-64952857D01*
X159188571Y-65000476D01*
X159283809Y-65048095D01*
%TO.C,Q7*%
X152664761Y-85817619D02*
X152569523Y-85770000D01*
X152474285Y-85674761D01*
X152331428Y-85531904D01*
X152236190Y-85484285D01*
X152140952Y-85484285D01*
X152188571Y-85722380D02*
X152093333Y-85674761D01*
X151998095Y-85579523D01*
X151950476Y-85389047D01*
X151950476Y-85055714D01*
X151998095Y-84865238D01*
X152093333Y-84770000D01*
X152188571Y-84722380D01*
X152379047Y-84722380D01*
X152474285Y-84770000D01*
X152569523Y-84865238D01*
X152617142Y-85055714D01*
X152617142Y-85389047D01*
X152569523Y-85579523D01*
X152474285Y-85674761D01*
X152379047Y-85722380D01*
X152188571Y-85722380D01*
X152950476Y-84722380D02*
X153617142Y-84722380D01*
X153188571Y-85722380D01*
%TO.C,U3*%
X140552380Y-92171904D02*
X141361904Y-92171904D01*
X141457142Y-92124285D01*
X141504761Y-92076666D01*
X141552380Y-91981428D01*
X141552380Y-91790952D01*
X141504761Y-91695714D01*
X141457142Y-91648095D01*
X141361904Y-91600476D01*
X140552380Y-91600476D01*
X140552380Y-91219523D02*
X140552380Y-90600476D01*
X140933333Y-90933809D01*
X140933333Y-90790952D01*
X140980952Y-90695714D01*
X141028571Y-90648095D01*
X141123809Y-90600476D01*
X141361904Y-90600476D01*
X141457142Y-90648095D01*
X141504761Y-90695714D01*
X141552380Y-90790952D01*
X141552380Y-91076666D01*
X141504761Y-91171904D01*
X141457142Y-91219523D01*
%TO.C,U2*%
X131768095Y-105732380D02*
X131768095Y-106541904D01*
X131815714Y-106637142D01*
X131863333Y-106684761D01*
X131958571Y-106732380D01*
X132149047Y-106732380D01*
X132244285Y-106684761D01*
X132291904Y-106637142D01*
X132339523Y-106541904D01*
X132339523Y-105732380D01*
X132768095Y-105827619D02*
X132815714Y-105780000D01*
X132910952Y-105732380D01*
X133149047Y-105732380D01*
X133244285Y-105780000D01*
X133291904Y-105827619D01*
X133339523Y-105922857D01*
X133339523Y-106018095D01*
X133291904Y-106160952D01*
X132720476Y-106732380D01*
X133339523Y-106732380D01*
%TO.C,R24*%
X115057142Y-84352380D02*
X114723809Y-83876190D01*
X114485714Y-84352380D02*
X114485714Y-83352380D01*
X114866666Y-83352380D01*
X114961904Y-83400000D01*
X115009523Y-83447619D01*
X115057142Y-83542857D01*
X115057142Y-83685714D01*
X115009523Y-83780952D01*
X114961904Y-83828571D01*
X114866666Y-83876190D01*
X114485714Y-83876190D01*
X115438095Y-83447619D02*
X115485714Y-83400000D01*
X115580952Y-83352380D01*
X115819047Y-83352380D01*
X115914285Y-83400000D01*
X115961904Y-83447619D01*
X116009523Y-83542857D01*
X116009523Y-83638095D01*
X115961904Y-83780952D01*
X115390476Y-84352380D01*
X116009523Y-84352380D01*
X116866666Y-83685714D02*
X116866666Y-84352380D01*
X116628571Y-83304761D02*
X116390476Y-84019047D01*
X117009523Y-84019047D01*
%TO.C,D12*%
X185332380Y-84801428D02*
X184332380Y-84801428D01*
X184332380Y-84610952D01*
X184380000Y-84496666D01*
X184475238Y-84420476D01*
X184570476Y-84382380D01*
X184760952Y-84344285D01*
X184903809Y-84344285D01*
X185094285Y-84382380D01*
X185189523Y-84420476D01*
X185284761Y-84496666D01*
X185332380Y-84610952D01*
X185332380Y-84801428D01*
X185332380Y-83582380D02*
X185332380Y-84039523D01*
X185332380Y-83810952D02*
X184332380Y-83810952D01*
X184475238Y-83887142D01*
X184570476Y-83963333D01*
X184618095Y-84039523D01*
X184427619Y-83277619D02*
X184380000Y-83239523D01*
X184332380Y-83163333D01*
X184332380Y-82972857D01*
X184380000Y-82896666D01*
X184427619Y-82858571D01*
X184522857Y-82820476D01*
X184618095Y-82820476D01*
X184760952Y-82858571D01*
X185332380Y-83315714D01*
X185332380Y-82820476D01*
%TO.C,R41*%
X187302380Y-95812857D02*
X186826190Y-96146190D01*
X187302380Y-96384285D02*
X186302380Y-96384285D01*
X186302380Y-96003333D01*
X186350000Y-95908095D01*
X186397619Y-95860476D01*
X186492857Y-95812857D01*
X186635714Y-95812857D01*
X186730952Y-95860476D01*
X186778571Y-95908095D01*
X186826190Y-96003333D01*
X186826190Y-96384285D01*
X186635714Y-94955714D02*
X187302380Y-94955714D01*
X186254761Y-95193809D02*
X186969047Y-95431904D01*
X186969047Y-94812857D01*
X187302380Y-93908095D02*
X187302380Y-94479523D01*
X187302380Y-94193809D02*
X186302380Y-94193809D01*
X186445238Y-94289047D01*
X186540476Y-94384285D01*
X186588095Y-94479523D01*
%TO.C,C22*%
X139087142Y-71932857D02*
X139134761Y-71980476D01*
X139182380Y-72123333D01*
X139182380Y-72218571D01*
X139134761Y-72361428D01*
X139039523Y-72456666D01*
X138944285Y-72504285D01*
X138753809Y-72551904D01*
X138610952Y-72551904D01*
X138420476Y-72504285D01*
X138325238Y-72456666D01*
X138230000Y-72361428D01*
X138182380Y-72218571D01*
X138182380Y-72123333D01*
X138230000Y-71980476D01*
X138277619Y-71932857D01*
X138277619Y-71551904D02*
X138230000Y-71504285D01*
X138182380Y-71409047D01*
X138182380Y-71170952D01*
X138230000Y-71075714D01*
X138277619Y-71028095D01*
X138372857Y-70980476D01*
X138468095Y-70980476D01*
X138610952Y-71028095D01*
X139182380Y-71599523D01*
X139182380Y-70980476D01*
X138277619Y-70599523D02*
X138230000Y-70551904D01*
X138182380Y-70456666D01*
X138182380Y-70218571D01*
X138230000Y-70123333D01*
X138277619Y-70075714D01*
X138372857Y-70028095D01*
X138468095Y-70028095D01*
X138610952Y-70075714D01*
X139182380Y-70647142D01*
X139182380Y-70028095D01*
%TO.C,Q16*%
X147988571Y-71867619D02*
X147893333Y-71820000D01*
X147798095Y-71724761D01*
X147655238Y-71581904D01*
X147560000Y-71534285D01*
X147464761Y-71534285D01*
X147512380Y-71772380D02*
X147417142Y-71724761D01*
X147321904Y-71629523D01*
X147274285Y-71439047D01*
X147274285Y-71105714D01*
X147321904Y-70915238D01*
X147417142Y-70820000D01*
X147512380Y-70772380D01*
X147702857Y-70772380D01*
X147798095Y-70820000D01*
X147893333Y-70915238D01*
X147940952Y-71105714D01*
X147940952Y-71439047D01*
X147893333Y-71629523D01*
X147798095Y-71724761D01*
X147702857Y-71772380D01*
X147512380Y-71772380D01*
X148893333Y-71772380D02*
X148321904Y-71772380D01*
X148607619Y-71772380D02*
X148607619Y-70772380D01*
X148512380Y-70915238D01*
X148417142Y-71010476D01*
X148321904Y-71058095D01*
X149750476Y-70772380D02*
X149560000Y-70772380D01*
X149464761Y-70820000D01*
X149417142Y-70867619D01*
X149321904Y-71010476D01*
X149274285Y-71200952D01*
X149274285Y-71581904D01*
X149321904Y-71677142D01*
X149369523Y-71724761D01*
X149464761Y-71772380D01*
X149655238Y-71772380D01*
X149750476Y-71724761D01*
X149798095Y-71677142D01*
X149845714Y-71581904D01*
X149845714Y-71343809D01*
X149798095Y-71248571D01*
X149750476Y-71200952D01*
X149655238Y-71153333D01*
X149464761Y-71153333D01*
X149369523Y-71200952D01*
X149321904Y-71248571D01*
X149274285Y-71343809D01*
%TO.C,U6*%
X178938095Y-100682380D02*
X178938095Y-101491904D01*
X178985714Y-101587142D01*
X179033333Y-101634761D01*
X179128571Y-101682380D01*
X179319047Y-101682380D01*
X179414285Y-101634761D01*
X179461904Y-101587142D01*
X179509523Y-101491904D01*
X179509523Y-100682380D01*
X180414285Y-100682380D02*
X180223809Y-100682380D01*
X180128571Y-100730000D01*
X180080952Y-100777619D01*
X179985714Y-100920476D01*
X179938095Y-101110952D01*
X179938095Y-101491904D01*
X179985714Y-101587142D01*
X180033333Y-101634761D01*
X180128571Y-101682380D01*
X180319047Y-101682380D01*
X180414285Y-101634761D01*
X180461904Y-101587142D01*
X180509523Y-101491904D01*
X180509523Y-101253809D01*
X180461904Y-101158571D01*
X180414285Y-101110952D01*
X180319047Y-101063333D01*
X180128571Y-101063333D01*
X180033333Y-101110952D01*
X179985714Y-101158571D01*
X179938095Y-101253809D01*
%TO.C,SW5*%
X98456666Y-108514761D02*
X98599523Y-108562380D01*
X98837619Y-108562380D01*
X98932857Y-108514761D01*
X98980476Y-108467142D01*
X99028095Y-108371904D01*
X99028095Y-108276666D01*
X98980476Y-108181428D01*
X98932857Y-108133809D01*
X98837619Y-108086190D01*
X98647142Y-108038571D01*
X98551904Y-107990952D01*
X98504285Y-107943333D01*
X98456666Y-107848095D01*
X98456666Y-107752857D01*
X98504285Y-107657619D01*
X98551904Y-107610000D01*
X98647142Y-107562380D01*
X98885238Y-107562380D01*
X99028095Y-107610000D01*
X99361428Y-107562380D02*
X99599523Y-108562380D01*
X99790000Y-107848095D01*
X99980476Y-108562380D01*
X100218571Y-107562380D01*
X101075714Y-107562380D02*
X100599523Y-107562380D01*
X100551904Y-108038571D01*
X100599523Y-107990952D01*
X100694761Y-107943333D01*
X100932857Y-107943333D01*
X101028095Y-107990952D01*
X101075714Y-108038571D01*
X101123333Y-108133809D01*
X101123333Y-108371904D01*
X101075714Y-108467142D01*
X101028095Y-108514761D01*
X100932857Y-108562380D01*
X100694761Y-108562380D01*
X100599523Y-108514761D01*
X100551904Y-108467142D01*
%TO.C,U1*%
X153038095Y-96132380D02*
X153038095Y-96941904D01*
X153085714Y-97037142D01*
X153133333Y-97084761D01*
X153228571Y-97132380D01*
X153419047Y-97132380D01*
X153514285Y-97084761D01*
X153561904Y-97037142D01*
X153609523Y-96941904D01*
X153609523Y-96132380D01*
X154609523Y-97132380D02*
X154038095Y-97132380D01*
X154323809Y-97132380D02*
X154323809Y-96132380D01*
X154228571Y-96275238D01*
X154133333Y-96370476D01*
X154038095Y-96418095D01*
D13*
%TO.C,D5*%
X114707142Y-107371428D02*
X114707142Y-106771428D01*
X114850000Y-106771428D01*
X114935714Y-106800000D01*
X114992857Y-106857142D01*
X115021428Y-106914285D01*
X115050000Y-107028571D01*
X115050000Y-107114285D01*
X115021428Y-107228571D01*
X114992857Y-107285714D01*
X114935714Y-107342857D01*
X114850000Y-107371428D01*
X114707142Y-107371428D01*
X115592857Y-106771428D02*
X115307142Y-106771428D01*
X115278571Y-107057142D01*
X115307142Y-107028571D01*
X115364285Y-107000000D01*
X115507142Y-107000000D01*
X115564285Y-107028571D01*
X115592857Y-107057142D01*
X115621428Y-107114285D01*
X115621428Y-107257142D01*
X115592857Y-107314285D01*
X115564285Y-107342857D01*
X115507142Y-107371428D01*
X115364285Y-107371428D01*
X115307142Y-107342857D01*
X115278571Y-107314285D01*
D12*
%TO.C,J1*%
X172256666Y-61692380D02*
X172256666Y-62406666D01*
X172209047Y-62549523D01*
X172113809Y-62644761D01*
X171970952Y-62692380D01*
X171875714Y-62692380D01*
X173256666Y-62692380D02*
X172685238Y-62692380D01*
X172970952Y-62692380D02*
X172970952Y-61692380D01*
X172875714Y-61835238D01*
X172780476Y-61930476D01*
X172685238Y-61978095D01*
X166178571Y-71282142D02*
X167321428Y-71282142D01*
X166750000Y-71853571D02*
X166750000Y-70710714D01*
X177178571Y-71282142D02*
X178321428Y-71282142D01*
%TO.C,J5*%
X208536666Y-111222380D02*
X208536666Y-111936666D01*
X208489047Y-112079523D01*
X208393809Y-112174761D01*
X208250952Y-112222380D01*
X208155714Y-112222380D01*
X209489047Y-111222380D02*
X209012857Y-111222380D01*
X208965238Y-111698571D01*
X209012857Y-111650952D01*
X209108095Y-111603333D01*
X209346190Y-111603333D01*
X209441428Y-111650952D01*
X209489047Y-111698571D01*
X209536666Y-111793809D01*
X209536666Y-112031904D01*
X209489047Y-112127142D01*
X209441428Y-112174761D01*
X209346190Y-112222380D01*
X209108095Y-112222380D01*
X209012857Y-112174761D01*
X208965238Y-112127142D01*
D13*
%TO.C,D7*%
X98367142Y-71371428D02*
X98367142Y-70771428D01*
X98510000Y-70771428D01*
X98595714Y-70800000D01*
X98652857Y-70857142D01*
X98681428Y-70914285D01*
X98710000Y-71028571D01*
X98710000Y-71114285D01*
X98681428Y-71228571D01*
X98652857Y-71285714D01*
X98595714Y-71342857D01*
X98510000Y-71371428D01*
X98367142Y-71371428D01*
X98910000Y-70771428D02*
X99310000Y-70771428D01*
X99052857Y-71371428D01*
%TO.C,SW3*%
X111250000Y-121892857D02*
X111335714Y-121921428D01*
X111478571Y-121921428D01*
X111535714Y-121892857D01*
X111564285Y-121864285D01*
X111592857Y-121807142D01*
X111592857Y-121750000D01*
X111564285Y-121692857D01*
X111535714Y-121664285D01*
X111478571Y-121635714D01*
X111364285Y-121607142D01*
X111307142Y-121578571D01*
X111278571Y-121550000D01*
X111250000Y-121492857D01*
X111250000Y-121435714D01*
X111278571Y-121378571D01*
X111307142Y-121350000D01*
X111364285Y-121321428D01*
X111507142Y-121321428D01*
X111592857Y-121350000D01*
X111792857Y-121321428D02*
X111935714Y-121921428D01*
X112050000Y-121492857D01*
X112164285Y-121921428D01*
X112307142Y-121321428D01*
X112478571Y-121321428D02*
X112850000Y-121321428D01*
X112650000Y-121550000D01*
X112735714Y-121550000D01*
X112792857Y-121578571D01*
X112821428Y-121607142D01*
X112850000Y-121664285D01*
X112850000Y-121807142D01*
X112821428Y-121864285D01*
X112792857Y-121892857D01*
X112735714Y-121921428D01*
X112564285Y-121921428D01*
X112507142Y-121892857D01*
X112478571Y-121864285D01*
D12*
%TO.C,D11*%
X185322380Y-98501428D02*
X184322380Y-98501428D01*
X184322380Y-98310952D01*
X184370000Y-98196666D01*
X184465238Y-98120476D01*
X184560476Y-98082380D01*
X184750952Y-98044285D01*
X184893809Y-98044285D01*
X185084285Y-98082380D01*
X185179523Y-98120476D01*
X185274761Y-98196666D01*
X185322380Y-98310952D01*
X185322380Y-98501428D01*
X185322380Y-97282380D02*
X185322380Y-97739523D01*
X185322380Y-97510952D02*
X184322380Y-97510952D01*
X184465238Y-97587142D01*
X184560476Y-97663333D01*
X184608095Y-97739523D01*
X185322380Y-96520476D02*
X185322380Y-96977619D01*
X185322380Y-96749047D02*
X184322380Y-96749047D01*
X184465238Y-96825238D01*
X184560476Y-96901428D01*
X184608095Y-96977619D01*
%TO.C,Q15*%
X147715714Y-67052857D02*
X147630000Y-67010000D01*
X147544285Y-66924285D01*
X147415714Y-66795714D01*
X147330000Y-66752857D01*
X147244285Y-66752857D01*
X147287142Y-66967142D02*
X147201428Y-66924285D01*
X147115714Y-66838571D01*
X147072857Y-66667142D01*
X147072857Y-66367142D01*
X147115714Y-66195714D01*
X147201428Y-66110000D01*
X147287142Y-66067142D01*
X147458571Y-66067142D01*
X147544285Y-66110000D01*
X147630000Y-66195714D01*
X147672857Y-66367142D01*
X147672857Y-66667142D01*
X147630000Y-66838571D01*
X147544285Y-66924285D01*
X147458571Y-66967142D01*
X147287142Y-66967142D01*
X148530000Y-66967142D02*
X148015714Y-66967142D01*
X148272857Y-66967142D02*
X148272857Y-66067142D01*
X148187142Y-66195714D01*
X148101428Y-66281428D01*
X148015714Y-66324285D01*
X149344285Y-66067142D02*
X148915714Y-66067142D01*
X148872857Y-66495714D01*
X148915714Y-66452857D01*
X149001428Y-66410000D01*
X149215714Y-66410000D01*
X149301428Y-66452857D01*
X149344285Y-66495714D01*
X149387142Y-66581428D01*
X149387142Y-66795714D01*
X149344285Y-66881428D01*
X149301428Y-66924285D01*
X149215714Y-66967142D01*
X149001428Y-66967142D01*
X148915714Y-66924285D01*
X148872857Y-66881428D01*
%TO.C,R53*%
X138507142Y-64132380D02*
X138173809Y-63656190D01*
X137935714Y-64132380D02*
X137935714Y-63132380D01*
X138316666Y-63132380D01*
X138411904Y-63180000D01*
X138459523Y-63227619D01*
X138507142Y-63322857D01*
X138507142Y-63465714D01*
X138459523Y-63560952D01*
X138411904Y-63608571D01*
X138316666Y-63656190D01*
X137935714Y-63656190D01*
X139411904Y-63132380D02*
X138935714Y-63132380D01*
X138888095Y-63608571D01*
X138935714Y-63560952D01*
X139030952Y-63513333D01*
X139269047Y-63513333D01*
X139364285Y-63560952D01*
X139411904Y-63608571D01*
X139459523Y-63703809D01*
X139459523Y-63941904D01*
X139411904Y-64037142D01*
X139364285Y-64084761D01*
X139269047Y-64132380D01*
X139030952Y-64132380D01*
X138935714Y-64084761D01*
X138888095Y-64037142D01*
X139792857Y-63132380D02*
X140411904Y-63132380D01*
X140078571Y-63513333D01*
X140221428Y-63513333D01*
X140316666Y-63560952D01*
X140364285Y-63608571D01*
X140411904Y-63703809D01*
X140411904Y-63941904D01*
X140364285Y-64037142D01*
X140316666Y-64084761D01*
X140221428Y-64132380D01*
X139935714Y-64132380D01*
X139840476Y-64084761D01*
X139792857Y-64037142D01*
%TO.C,R44*%
X188412380Y-76212857D02*
X187936190Y-76546190D01*
X188412380Y-76784285D02*
X187412380Y-76784285D01*
X187412380Y-76403333D01*
X187460000Y-76308095D01*
X187507619Y-76260476D01*
X187602857Y-76212857D01*
X187745714Y-76212857D01*
X187840952Y-76260476D01*
X187888571Y-76308095D01*
X187936190Y-76403333D01*
X187936190Y-76784285D01*
X187745714Y-75355714D02*
X188412380Y-75355714D01*
X187364761Y-75593809D02*
X188079047Y-75831904D01*
X188079047Y-75212857D01*
X187745714Y-74403333D02*
X188412380Y-74403333D01*
X187364761Y-74641428D02*
X188079047Y-74879523D01*
X188079047Y-74260476D01*
D13*
%TO.C,D10*%
X98421428Y-78121428D02*
X98421428Y-77521428D01*
X98564285Y-77521428D01*
X98650000Y-77550000D01*
X98707142Y-77607142D01*
X98735714Y-77664285D01*
X98764285Y-77778571D01*
X98764285Y-77864285D01*
X98735714Y-77978571D01*
X98707142Y-78035714D01*
X98650000Y-78092857D01*
X98564285Y-78121428D01*
X98421428Y-78121428D01*
X99335714Y-78121428D02*
X98992857Y-78121428D01*
X99164285Y-78121428D02*
X99164285Y-77521428D01*
X99107142Y-77607142D01*
X99050000Y-77664285D01*
X98992857Y-77692857D01*
X99707142Y-77521428D02*
X99764285Y-77521428D01*
X99821428Y-77550000D01*
X99850000Y-77578571D01*
X99878571Y-77635714D01*
X99907142Y-77750000D01*
X99907142Y-77892857D01*
X99878571Y-78007142D01*
X99850000Y-78064285D01*
X99821428Y-78092857D01*
X99764285Y-78121428D01*
X99707142Y-78121428D01*
X99650000Y-78092857D01*
X99621428Y-78064285D01*
X99592857Y-78007142D01*
X99564285Y-77892857D01*
X99564285Y-77750000D01*
X99592857Y-77635714D01*
X99621428Y-77578571D01*
X99650000Y-77550000D01*
X99707142Y-77521428D01*
D12*
%TO.C,C19*%
X181477142Y-72847142D02*
X181429523Y-72894761D01*
X181286666Y-72942380D01*
X181191428Y-72942380D01*
X181048571Y-72894761D01*
X180953333Y-72799523D01*
X180905714Y-72704285D01*
X180858095Y-72513809D01*
X180858095Y-72370952D01*
X180905714Y-72180476D01*
X180953333Y-72085238D01*
X181048571Y-71990000D01*
X181191428Y-71942380D01*
X181286666Y-71942380D01*
X181429523Y-71990000D01*
X181477142Y-72037619D01*
X182429523Y-72942380D02*
X181858095Y-72942380D01*
X182143809Y-72942380D02*
X182143809Y-71942380D01*
X182048571Y-72085238D01*
X181953333Y-72180476D01*
X181858095Y-72228095D01*
X182905714Y-72942380D02*
X183096190Y-72942380D01*
X183191428Y-72894761D01*
X183239047Y-72847142D01*
X183334285Y-72704285D01*
X183381904Y-72513809D01*
X183381904Y-72132857D01*
X183334285Y-72037619D01*
X183286666Y-71990000D01*
X183191428Y-71942380D01*
X183000952Y-71942380D01*
X182905714Y-71990000D01*
X182858095Y-72037619D01*
X182810476Y-72132857D01*
X182810476Y-72370952D01*
X182858095Y-72466190D01*
X182905714Y-72513809D01*
X183000952Y-72561428D01*
X183191428Y-72561428D01*
X183286666Y-72513809D01*
X183334285Y-72466190D01*
X183381904Y-72370952D01*
%TO.C,D13*%
X194542380Y-94181428D02*
X193542380Y-94181428D01*
X193542380Y-93990952D01*
X193590000Y-93876666D01*
X193685238Y-93800476D01*
X193780476Y-93762380D01*
X193970952Y-93724285D01*
X194113809Y-93724285D01*
X194304285Y-93762380D01*
X194399523Y-93800476D01*
X194494761Y-93876666D01*
X194542380Y-93990952D01*
X194542380Y-94181428D01*
X194542380Y-92962380D02*
X194542380Y-93419523D01*
X194542380Y-93190952D02*
X193542380Y-93190952D01*
X193685238Y-93267142D01*
X193780476Y-93343333D01*
X193828095Y-93419523D01*
X193542380Y-92695714D02*
X193542380Y-92200476D01*
X193923333Y-92467142D01*
X193923333Y-92352857D01*
X193970952Y-92276666D01*
X194018571Y-92238571D01*
X194113809Y-92200476D01*
X194351904Y-92200476D01*
X194447142Y-92238571D01*
X194494761Y-92276666D01*
X194542380Y-92352857D01*
X194542380Y-92581428D01*
X194494761Y-92657619D01*
X194447142Y-92695714D01*
%TO.C,U5*%
X165968095Y-94152380D02*
X165968095Y-94961904D01*
X166015714Y-95057142D01*
X166063333Y-95104761D01*
X166158571Y-95152380D01*
X166349047Y-95152380D01*
X166444285Y-95104761D01*
X166491904Y-95057142D01*
X166539523Y-94961904D01*
X166539523Y-94152380D01*
X167491904Y-94152380D02*
X167015714Y-94152380D01*
X166968095Y-94628571D01*
X167015714Y-94580952D01*
X167110952Y-94533333D01*
X167349047Y-94533333D01*
X167444285Y-94580952D01*
X167491904Y-94628571D01*
X167539523Y-94723809D01*
X167539523Y-94961904D01*
X167491904Y-95057142D01*
X167444285Y-95104761D01*
X167349047Y-95152380D01*
X167110952Y-95152380D01*
X167015714Y-95104761D01*
X166968095Y-95057142D01*
%TO.C,C18*%
X180207142Y-97697142D02*
X180159523Y-97744761D01*
X180016666Y-97792380D01*
X179921428Y-97792380D01*
X179778571Y-97744761D01*
X179683333Y-97649523D01*
X179635714Y-97554285D01*
X179588095Y-97363809D01*
X179588095Y-97220952D01*
X179635714Y-97030476D01*
X179683333Y-96935238D01*
X179778571Y-96840000D01*
X179921428Y-96792380D01*
X180016666Y-96792380D01*
X180159523Y-96840000D01*
X180207142Y-96887619D01*
X181159523Y-97792380D02*
X180588095Y-97792380D01*
X180873809Y-97792380D02*
X180873809Y-96792380D01*
X180778571Y-96935238D01*
X180683333Y-97030476D01*
X180588095Y-97078095D01*
X181730952Y-97220952D02*
X181635714Y-97173333D01*
X181588095Y-97125714D01*
X181540476Y-97030476D01*
X181540476Y-96982857D01*
X181588095Y-96887619D01*
X181635714Y-96840000D01*
X181730952Y-96792380D01*
X181921428Y-96792380D01*
X182016666Y-96840000D01*
X182064285Y-96887619D01*
X182111904Y-96982857D01*
X182111904Y-97030476D01*
X182064285Y-97125714D01*
X182016666Y-97173333D01*
X181921428Y-97220952D01*
X181730952Y-97220952D01*
X181635714Y-97268571D01*
X181588095Y-97316190D01*
X181540476Y-97411428D01*
X181540476Y-97601904D01*
X181588095Y-97697142D01*
X181635714Y-97744761D01*
X181730952Y-97792380D01*
X181921428Y-97792380D01*
X182016666Y-97744761D01*
X182064285Y-97697142D01*
X182111904Y-97601904D01*
X182111904Y-97411428D01*
X182064285Y-97316190D01*
X182016666Y-97268571D01*
X181921428Y-97220952D01*
D13*
%TO.C,D3*%
X114657142Y-105581428D02*
X114657142Y-104981428D01*
X114800000Y-104981428D01*
X114885714Y-105010000D01*
X114942857Y-105067142D01*
X114971428Y-105124285D01*
X115000000Y-105238571D01*
X115000000Y-105324285D01*
X114971428Y-105438571D01*
X114942857Y-105495714D01*
X114885714Y-105552857D01*
X114800000Y-105581428D01*
X114657142Y-105581428D01*
X115200000Y-104981428D02*
X115571428Y-104981428D01*
X115371428Y-105210000D01*
X115457142Y-105210000D01*
X115514285Y-105238571D01*
X115542857Y-105267142D01*
X115571428Y-105324285D01*
X115571428Y-105467142D01*
X115542857Y-105524285D01*
X115514285Y-105552857D01*
X115457142Y-105581428D01*
X115285714Y-105581428D01*
X115228571Y-105552857D01*
X115200000Y-105524285D01*
D12*
%TO.C,J3*%
X143196666Y-59682380D02*
X143196666Y-60396666D01*
X143149047Y-60539523D01*
X143053809Y-60634761D01*
X142910952Y-60682380D01*
X142815714Y-60682380D01*
X143577619Y-59682380D02*
X144196666Y-59682380D01*
X143863333Y-60063333D01*
X144006190Y-60063333D01*
X144101428Y-60110952D01*
X144149047Y-60158571D01*
X144196666Y-60253809D01*
X144196666Y-60491904D01*
X144149047Y-60587142D01*
X144101428Y-60634761D01*
X144006190Y-60682380D01*
X143720476Y-60682380D01*
X143625238Y-60634761D01*
X143577619Y-60587142D01*
%TO.C,R52*%
X141367142Y-69282380D02*
X141033809Y-68806190D01*
X140795714Y-69282380D02*
X140795714Y-68282380D01*
X141176666Y-68282380D01*
X141271904Y-68330000D01*
X141319523Y-68377619D01*
X141367142Y-68472857D01*
X141367142Y-68615714D01*
X141319523Y-68710952D01*
X141271904Y-68758571D01*
X141176666Y-68806190D01*
X140795714Y-68806190D01*
X142271904Y-68282380D02*
X141795714Y-68282380D01*
X141748095Y-68758571D01*
X141795714Y-68710952D01*
X141890952Y-68663333D01*
X142129047Y-68663333D01*
X142224285Y-68710952D01*
X142271904Y-68758571D01*
X142319523Y-68853809D01*
X142319523Y-69091904D01*
X142271904Y-69187142D01*
X142224285Y-69234761D01*
X142129047Y-69282380D01*
X141890952Y-69282380D01*
X141795714Y-69234761D01*
X141748095Y-69187142D01*
X142700476Y-68377619D02*
X142748095Y-68330000D01*
X142843333Y-68282380D01*
X143081428Y-68282380D01*
X143176666Y-68330000D01*
X143224285Y-68377619D01*
X143271904Y-68472857D01*
X143271904Y-68568095D01*
X143224285Y-68710952D01*
X142652857Y-69282380D01*
X143271904Y-69282380D01*
%TO.C,R25*%
X111517142Y-84422380D02*
X111183809Y-83946190D01*
X110945714Y-84422380D02*
X110945714Y-83422380D01*
X111326666Y-83422380D01*
X111421904Y-83470000D01*
X111469523Y-83517619D01*
X111517142Y-83612857D01*
X111517142Y-83755714D01*
X111469523Y-83850952D01*
X111421904Y-83898571D01*
X111326666Y-83946190D01*
X110945714Y-83946190D01*
X111898095Y-83517619D02*
X111945714Y-83470000D01*
X112040952Y-83422380D01*
X112279047Y-83422380D01*
X112374285Y-83470000D01*
X112421904Y-83517619D01*
X112469523Y-83612857D01*
X112469523Y-83708095D01*
X112421904Y-83850952D01*
X111850476Y-84422380D01*
X112469523Y-84422380D01*
X113374285Y-83422380D02*
X112898095Y-83422380D01*
X112850476Y-83898571D01*
X112898095Y-83850952D01*
X112993333Y-83803333D01*
X113231428Y-83803333D01*
X113326666Y-83850952D01*
X113374285Y-83898571D01*
X113421904Y-83993809D01*
X113421904Y-84231904D01*
X113374285Y-84327142D01*
X113326666Y-84374761D01*
X113231428Y-84422380D01*
X112993333Y-84422380D01*
X112898095Y-84374761D01*
X112850476Y-84327142D01*
%TO.C,J4*%
X207226666Y-88782380D02*
X207226666Y-89496666D01*
X207179047Y-89639523D01*
X207083809Y-89734761D01*
X206940952Y-89782380D01*
X206845714Y-89782380D01*
X208131428Y-89115714D02*
X208131428Y-89782380D01*
X207893333Y-88734761D02*
X207655238Y-89449047D01*
X208274285Y-89449047D01*
%TO.C,R43*%
X187272380Y-87402857D02*
X186796190Y-87736190D01*
X187272380Y-87974285D02*
X186272380Y-87974285D01*
X186272380Y-87593333D01*
X186320000Y-87498095D01*
X186367619Y-87450476D01*
X186462857Y-87402857D01*
X186605714Y-87402857D01*
X186700952Y-87450476D01*
X186748571Y-87498095D01*
X186796190Y-87593333D01*
X186796190Y-87974285D01*
X186605714Y-86545714D02*
X187272380Y-86545714D01*
X186224761Y-86783809D02*
X186939047Y-87021904D01*
X186939047Y-86402857D01*
X186272380Y-86117142D02*
X186272380Y-85498095D01*
X186653333Y-85831428D01*
X186653333Y-85688571D01*
X186700952Y-85593333D01*
X186748571Y-85545714D01*
X186843809Y-85498095D01*
X187081904Y-85498095D01*
X187177142Y-85545714D01*
X187224761Y-85593333D01*
X187272380Y-85688571D01*
X187272380Y-85974285D01*
X187224761Y-86069523D01*
X187177142Y-86117142D01*
%TO.C,R51*%
X144622380Y-70322857D02*
X144146190Y-70656190D01*
X144622380Y-70894285D02*
X143622380Y-70894285D01*
X143622380Y-70513333D01*
X143670000Y-70418095D01*
X143717619Y-70370476D01*
X143812857Y-70322857D01*
X143955714Y-70322857D01*
X144050952Y-70370476D01*
X144098571Y-70418095D01*
X144146190Y-70513333D01*
X144146190Y-70894285D01*
X143622380Y-69418095D02*
X143622380Y-69894285D01*
X144098571Y-69941904D01*
X144050952Y-69894285D01*
X144003333Y-69799047D01*
X144003333Y-69560952D01*
X144050952Y-69465714D01*
X144098571Y-69418095D01*
X144193809Y-69370476D01*
X144431904Y-69370476D01*
X144527142Y-69418095D01*
X144574761Y-69465714D01*
X144622380Y-69560952D01*
X144622380Y-69799047D01*
X144574761Y-69894285D01*
X144527142Y-69941904D01*
X144622380Y-68418095D02*
X144622380Y-68989523D01*
X144622380Y-68703809D02*
X143622380Y-68703809D01*
X143765238Y-68799047D01*
X143860476Y-68894285D01*
X143908095Y-68989523D01*
%TO.C,C13*%
X143337142Y-80517142D02*
X143289523Y-80564761D01*
X143146666Y-80612380D01*
X143051428Y-80612380D01*
X142908571Y-80564761D01*
X142813333Y-80469523D01*
X142765714Y-80374285D01*
X142718095Y-80183809D01*
X142718095Y-80040952D01*
X142765714Y-79850476D01*
X142813333Y-79755238D01*
X142908571Y-79660000D01*
X143051428Y-79612380D01*
X143146666Y-79612380D01*
X143289523Y-79660000D01*
X143337142Y-79707619D01*
X144289523Y-80612380D02*
X143718095Y-80612380D01*
X144003809Y-80612380D02*
X144003809Y-79612380D01*
X143908571Y-79755238D01*
X143813333Y-79850476D01*
X143718095Y-79898095D01*
X144622857Y-79612380D02*
X145241904Y-79612380D01*
X144908571Y-79993333D01*
X145051428Y-79993333D01*
X145146666Y-80040952D01*
X145194285Y-80088571D01*
X145241904Y-80183809D01*
X145241904Y-80421904D01*
X145194285Y-80517142D01*
X145146666Y-80564761D01*
X145051428Y-80612380D01*
X144765714Y-80612380D01*
X144670476Y-80564761D01*
X144622857Y-80517142D01*
%TO.C,D15*%
X194552380Y-89321428D02*
X193552380Y-89321428D01*
X193552380Y-89130952D01*
X193600000Y-89016666D01*
X193695238Y-88940476D01*
X193790476Y-88902380D01*
X193980952Y-88864285D01*
X194123809Y-88864285D01*
X194314285Y-88902380D01*
X194409523Y-88940476D01*
X194504761Y-89016666D01*
X194552380Y-89130952D01*
X194552380Y-89321428D01*
X194552380Y-88102380D02*
X194552380Y-88559523D01*
X194552380Y-88330952D02*
X193552380Y-88330952D01*
X193695238Y-88407142D01*
X193790476Y-88483333D01*
X193838095Y-88559523D01*
X193552380Y-87378571D02*
X193552380Y-87759523D01*
X194028571Y-87797619D01*
X193980952Y-87759523D01*
X193933333Y-87683333D01*
X193933333Y-87492857D01*
X193980952Y-87416666D01*
X194028571Y-87378571D01*
X194123809Y-87340476D01*
X194361904Y-87340476D01*
X194457142Y-87378571D01*
X194504761Y-87416666D01*
X194552380Y-87492857D01*
X194552380Y-87683333D01*
X194504761Y-87759523D01*
X194457142Y-87797619D01*
%TO.C,Q5*%
X111894761Y-76472857D02*
X111799523Y-76430000D01*
X111704285Y-76344285D01*
X111561428Y-76215714D01*
X111466190Y-76172857D01*
X111370952Y-76172857D01*
X111418571Y-76387142D02*
X111323333Y-76344285D01*
X111228095Y-76258571D01*
X111180476Y-76087142D01*
X111180476Y-75787142D01*
X111228095Y-75615714D01*
X111323333Y-75530000D01*
X111418571Y-75487142D01*
X111609047Y-75487142D01*
X111704285Y-75530000D01*
X111799523Y-75615714D01*
X111847142Y-75787142D01*
X111847142Y-76087142D01*
X111799523Y-76258571D01*
X111704285Y-76344285D01*
X111609047Y-76387142D01*
X111418571Y-76387142D01*
X112751904Y-75487142D02*
X112275714Y-75487142D01*
X112228095Y-75915714D01*
X112275714Y-75872857D01*
X112370952Y-75830000D01*
X112609047Y-75830000D01*
X112704285Y-75872857D01*
X112751904Y-75915714D01*
X112799523Y-76001428D01*
X112799523Y-76215714D01*
X112751904Y-76301428D01*
X112704285Y-76344285D01*
X112609047Y-76387142D01*
X112370952Y-76387142D01*
X112275714Y-76344285D01*
X112228095Y-76301428D01*
%TO.C,C10*%
X131857142Y-117537142D02*
X131809523Y-117584761D01*
X131666666Y-117632380D01*
X131571428Y-117632380D01*
X131428571Y-117584761D01*
X131333333Y-117489523D01*
X131285714Y-117394285D01*
X131238095Y-117203809D01*
X131238095Y-117060952D01*
X131285714Y-116870476D01*
X131333333Y-116775238D01*
X131428571Y-116680000D01*
X131571428Y-116632380D01*
X131666666Y-116632380D01*
X131809523Y-116680000D01*
X131857142Y-116727619D01*
X132809523Y-117632380D02*
X132238095Y-117632380D01*
X132523809Y-117632380D02*
X132523809Y-116632380D01*
X132428571Y-116775238D01*
X132333333Y-116870476D01*
X132238095Y-116918095D01*
X133428571Y-116632380D02*
X133523809Y-116632380D01*
X133619047Y-116680000D01*
X133666666Y-116727619D01*
X133714285Y-116822857D01*
X133761904Y-117013333D01*
X133761904Y-117251428D01*
X133714285Y-117441904D01*
X133666666Y-117537142D01*
X133619047Y-117584761D01*
X133523809Y-117632380D01*
X133428571Y-117632380D01*
X133333333Y-117584761D01*
X133285714Y-117537142D01*
X133238095Y-117441904D01*
X133190476Y-117251428D01*
X133190476Y-117013333D01*
X133238095Y-116822857D01*
X133285714Y-116727619D01*
X133333333Y-116680000D01*
X133428571Y-116632380D01*
%TO.C,D14*%
X194512380Y-106151428D02*
X193512380Y-106151428D01*
X193512380Y-105960952D01*
X193560000Y-105846666D01*
X193655238Y-105770476D01*
X193750476Y-105732380D01*
X193940952Y-105694285D01*
X194083809Y-105694285D01*
X194274285Y-105732380D01*
X194369523Y-105770476D01*
X194464761Y-105846666D01*
X194512380Y-105960952D01*
X194512380Y-106151428D01*
X194512380Y-104932380D02*
X194512380Y-105389523D01*
X194512380Y-105160952D02*
X193512380Y-105160952D01*
X193655238Y-105237142D01*
X193750476Y-105313333D01*
X193798095Y-105389523D01*
X193845714Y-104246666D02*
X194512380Y-104246666D01*
X193464761Y-104437142D02*
X194179047Y-104627619D01*
X194179047Y-104132380D01*
%TO.C,R54*%
X137712380Y-70282857D02*
X137236190Y-70616190D01*
X137712380Y-70854285D02*
X136712380Y-70854285D01*
X136712380Y-70473333D01*
X136760000Y-70378095D01*
X136807619Y-70330476D01*
X136902857Y-70282857D01*
X137045714Y-70282857D01*
X137140952Y-70330476D01*
X137188571Y-70378095D01*
X137236190Y-70473333D01*
X137236190Y-70854285D01*
X136712380Y-69378095D02*
X136712380Y-69854285D01*
X137188571Y-69901904D01*
X137140952Y-69854285D01*
X137093333Y-69759047D01*
X137093333Y-69520952D01*
X137140952Y-69425714D01*
X137188571Y-69378095D01*
X137283809Y-69330476D01*
X137521904Y-69330476D01*
X137617142Y-69378095D01*
X137664761Y-69425714D01*
X137712380Y-69520952D01*
X137712380Y-69759047D01*
X137664761Y-69854285D01*
X137617142Y-69901904D01*
X137045714Y-68473333D02*
X137712380Y-68473333D01*
X136664761Y-68711428D02*
X137379047Y-68949523D01*
X137379047Y-68330476D01*
%TO.C,C15*%
X137677142Y-96387142D02*
X137629523Y-96434761D01*
X137486666Y-96482380D01*
X137391428Y-96482380D01*
X137248571Y-96434761D01*
X137153333Y-96339523D01*
X137105714Y-96244285D01*
X137058095Y-96053809D01*
X137058095Y-95910952D01*
X137105714Y-95720476D01*
X137153333Y-95625238D01*
X137248571Y-95530000D01*
X137391428Y-95482380D01*
X137486666Y-95482380D01*
X137629523Y-95530000D01*
X137677142Y-95577619D01*
X138629523Y-96482380D02*
X138058095Y-96482380D01*
X138343809Y-96482380D02*
X138343809Y-95482380D01*
X138248571Y-95625238D01*
X138153333Y-95720476D01*
X138058095Y-95768095D01*
X139534285Y-95482380D02*
X139058095Y-95482380D01*
X139010476Y-95958571D01*
X139058095Y-95910952D01*
X139153333Y-95863333D01*
X139391428Y-95863333D01*
X139486666Y-95910952D01*
X139534285Y-95958571D01*
X139581904Y-96053809D01*
X139581904Y-96291904D01*
X139534285Y-96387142D01*
X139486666Y-96434761D01*
X139391428Y-96482380D01*
X139153333Y-96482380D01*
X139058095Y-96434761D01*
X139010476Y-96387142D01*
%TO.C,R10*%
X153752380Y-106882857D02*
X153276190Y-107216190D01*
X153752380Y-107454285D02*
X152752380Y-107454285D01*
X152752380Y-107073333D01*
X152800000Y-106978095D01*
X152847619Y-106930476D01*
X152942857Y-106882857D01*
X153085714Y-106882857D01*
X153180952Y-106930476D01*
X153228571Y-106978095D01*
X153276190Y-107073333D01*
X153276190Y-107454285D01*
X153752380Y-105930476D02*
X153752380Y-106501904D01*
X153752380Y-106216190D02*
X152752380Y-106216190D01*
X152895238Y-106311428D01*
X152990476Y-106406666D01*
X153038095Y-106501904D01*
X152752380Y-105311428D02*
X152752380Y-105216190D01*
X152800000Y-105120952D01*
X152847619Y-105073333D01*
X152942857Y-105025714D01*
X153133333Y-104978095D01*
X153371428Y-104978095D01*
X153561904Y-105025714D01*
X153657142Y-105073333D01*
X153704761Y-105120952D01*
X153752380Y-105216190D01*
X153752380Y-105311428D01*
X153704761Y-105406666D01*
X153657142Y-105454285D01*
X153561904Y-105501904D01*
X153371428Y-105549523D01*
X153133333Y-105549523D01*
X152942857Y-105501904D01*
X152847619Y-105454285D01*
X152800000Y-105406666D01*
X152752380Y-105311428D01*
D10*
%TO.C,Q12*%
X189454285Y-109105476D02*
X189333333Y-109045000D01*
X189212380Y-108924047D01*
X189030952Y-108742619D01*
X188910000Y-108682142D01*
X188789047Y-108682142D01*
X188849523Y-108984523D02*
X188728571Y-108924047D01*
X188607619Y-108803095D01*
X188547142Y-108561190D01*
X188547142Y-108137857D01*
X188607619Y-107895952D01*
X188728571Y-107775000D01*
X188849523Y-107714523D01*
X189091428Y-107714523D01*
X189212380Y-107775000D01*
X189333333Y-107895952D01*
X189393809Y-108137857D01*
X189393809Y-108561190D01*
X189333333Y-108803095D01*
X189212380Y-108924047D01*
X189091428Y-108984523D01*
X188849523Y-108984523D01*
X190603333Y-108984523D02*
X189877619Y-108984523D01*
X190240476Y-108984523D02*
X190240476Y-107714523D01*
X190119523Y-107895952D01*
X189998571Y-108016904D01*
X189877619Y-108077380D01*
X191087142Y-107835476D02*
X191147619Y-107775000D01*
X191268571Y-107714523D01*
X191570952Y-107714523D01*
X191691904Y-107775000D01*
X191752380Y-107835476D01*
X191812857Y-107956428D01*
X191812857Y-108077380D01*
X191752380Y-108258809D01*
X191026666Y-108984523D01*
X191812857Y-108984523D01*
D13*
%TO.C,D8*%
X98337142Y-73651428D02*
X98337142Y-73051428D01*
X98480000Y-73051428D01*
X98565714Y-73080000D01*
X98622857Y-73137142D01*
X98651428Y-73194285D01*
X98680000Y-73308571D01*
X98680000Y-73394285D01*
X98651428Y-73508571D01*
X98622857Y-73565714D01*
X98565714Y-73622857D01*
X98480000Y-73651428D01*
X98337142Y-73651428D01*
X99022857Y-73308571D02*
X98965714Y-73280000D01*
X98937142Y-73251428D01*
X98908571Y-73194285D01*
X98908571Y-73165714D01*
X98937142Y-73108571D01*
X98965714Y-73080000D01*
X99022857Y-73051428D01*
X99137142Y-73051428D01*
X99194285Y-73080000D01*
X99222857Y-73108571D01*
X99251428Y-73165714D01*
X99251428Y-73194285D01*
X99222857Y-73251428D01*
X99194285Y-73280000D01*
X99137142Y-73308571D01*
X99022857Y-73308571D01*
X98965714Y-73337142D01*
X98937142Y-73365714D01*
X98908571Y-73422857D01*
X98908571Y-73537142D01*
X98937142Y-73594285D01*
X98965714Y-73622857D01*
X99022857Y-73651428D01*
X99137142Y-73651428D01*
X99194285Y-73622857D01*
X99222857Y-73594285D01*
X99251428Y-73537142D01*
X99251428Y-73422857D01*
X99222857Y-73365714D01*
X99194285Y-73337142D01*
X99137142Y-73308571D01*
D12*
%TO.C,C4*%
X107407142Y-70516666D02*
X107454761Y-70564285D01*
X107502380Y-70707142D01*
X107502380Y-70802380D01*
X107454761Y-70945238D01*
X107359523Y-71040476D01*
X107264285Y-71088095D01*
X107073809Y-71135714D01*
X106930952Y-71135714D01*
X106740476Y-71088095D01*
X106645238Y-71040476D01*
X106550000Y-70945238D01*
X106502380Y-70802380D01*
X106502380Y-70707142D01*
X106550000Y-70564285D01*
X106597619Y-70516666D01*
X106835714Y-69659523D02*
X107502380Y-69659523D01*
X106454761Y-69897619D02*
X107169047Y-70135714D01*
X107169047Y-69516666D01*
%TO.C,C5*%
X160813333Y-105377142D02*
X160765714Y-105424761D01*
X160622857Y-105472380D01*
X160527619Y-105472380D01*
X160384761Y-105424761D01*
X160289523Y-105329523D01*
X160241904Y-105234285D01*
X160194285Y-105043809D01*
X160194285Y-104900952D01*
X160241904Y-104710476D01*
X160289523Y-104615238D01*
X160384761Y-104520000D01*
X160527619Y-104472380D01*
X160622857Y-104472380D01*
X160765714Y-104520000D01*
X160813333Y-104567619D01*
X161718095Y-104472380D02*
X161241904Y-104472380D01*
X161194285Y-104948571D01*
X161241904Y-104900952D01*
X161337142Y-104853333D01*
X161575238Y-104853333D01*
X161670476Y-104900952D01*
X161718095Y-104948571D01*
X161765714Y-105043809D01*
X161765714Y-105281904D01*
X161718095Y-105377142D01*
X161670476Y-105424761D01*
X161575238Y-105472380D01*
X161337142Y-105472380D01*
X161241904Y-105424761D01*
X161194285Y-105377142D01*
%TO.C,C21*%
X185231428Y-79187142D02*
X185188571Y-79234761D01*
X185060000Y-79282380D01*
X184974285Y-79282380D01*
X184845714Y-79234761D01*
X184760000Y-79139523D01*
X184717142Y-79044285D01*
X184674285Y-78853809D01*
X184674285Y-78710952D01*
X184717142Y-78520476D01*
X184760000Y-78425238D01*
X184845714Y-78330000D01*
X184974285Y-78282380D01*
X185060000Y-78282380D01*
X185188571Y-78330000D01*
X185231428Y-78377619D01*
X185574285Y-78377619D02*
X185617142Y-78330000D01*
X185702857Y-78282380D01*
X185917142Y-78282380D01*
X186002857Y-78330000D01*
X186045714Y-78377619D01*
X186088571Y-78472857D01*
X186088571Y-78568095D01*
X186045714Y-78710952D01*
X185531428Y-79282380D01*
X186088571Y-79282380D01*
X186945714Y-79282380D02*
X186431428Y-79282380D01*
X186688571Y-79282380D02*
X186688571Y-78282380D01*
X186602857Y-78425238D01*
X186517142Y-78520476D01*
X186431428Y-78568095D01*
%TO.C,SW1*%
X98566666Y-119624761D02*
X98709523Y-119672380D01*
X98947619Y-119672380D01*
X99042857Y-119624761D01*
X99090476Y-119577142D01*
X99138095Y-119481904D01*
X99138095Y-119386666D01*
X99090476Y-119291428D01*
X99042857Y-119243809D01*
X98947619Y-119196190D01*
X98757142Y-119148571D01*
X98661904Y-119100952D01*
X98614285Y-119053333D01*
X98566666Y-118958095D01*
X98566666Y-118862857D01*
X98614285Y-118767619D01*
X98661904Y-118720000D01*
X98757142Y-118672380D01*
X98995238Y-118672380D01*
X99138095Y-118720000D01*
X99471428Y-118672380D02*
X99709523Y-119672380D01*
X99900000Y-118958095D01*
X100090476Y-119672380D01*
X100328571Y-118672380D01*
X101233333Y-119672380D02*
X100661904Y-119672380D01*
X100947619Y-119672380D02*
X100947619Y-118672380D01*
X100852380Y-118815238D01*
X100757142Y-118910476D01*
X100661904Y-118958095D01*
%TO.C,R49*%
X152632380Y-67142857D02*
X152156190Y-67476190D01*
X152632380Y-67714285D02*
X151632380Y-67714285D01*
X151632380Y-67333333D01*
X151680000Y-67238095D01*
X151727619Y-67190476D01*
X151822857Y-67142857D01*
X151965714Y-67142857D01*
X152060952Y-67190476D01*
X152108571Y-67238095D01*
X152156190Y-67333333D01*
X152156190Y-67714285D01*
X151965714Y-66285714D02*
X152632380Y-66285714D01*
X151584761Y-66523809D02*
X152299047Y-66761904D01*
X152299047Y-66142857D01*
X152632380Y-65714285D02*
X152632380Y-65523809D01*
X152584761Y-65428571D01*
X152537142Y-65380952D01*
X152394285Y-65285714D01*
X152203809Y-65238095D01*
X151822857Y-65238095D01*
X151727619Y-65285714D01*
X151680000Y-65333333D01*
X151632380Y-65428571D01*
X151632380Y-65619047D01*
X151680000Y-65714285D01*
X151727619Y-65761904D01*
X151822857Y-65809523D01*
X152060952Y-65809523D01*
X152156190Y-65761904D01*
X152203809Y-65714285D01*
X152251428Y-65619047D01*
X152251428Y-65428571D01*
X152203809Y-65333333D01*
X152156190Y-65285714D01*
X152060952Y-65238095D01*
D10*
%TO.C,Q14*%
X189494285Y-80595476D02*
X189373333Y-80535000D01*
X189252380Y-80414047D01*
X189070952Y-80232619D01*
X188950000Y-80172142D01*
X188829047Y-80172142D01*
X188889523Y-80474523D02*
X188768571Y-80414047D01*
X188647619Y-80293095D01*
X188587142Y-80051190D01*
X188587142Y-79627857D01*
X188647619Y-79385952D01*
X188768571Y-79265000D01*
X188889523Y-79204523D01*
X189131428Y-79204523D01*
X189252380Y-79265000D01*
X189373333Y-79385952D01*
X189433809Y-79627857D01*
X189433809Y-80051190D01*
X189373333Y-80293095D01*
X189252380Y-80414047D01*
X189131428Y-80474523D01*
X188889523Y-80474523D01*
X190643333Y-80474523D02*
X189917619Y-80474523D01*
X190280476Y-80474523D02*
X190280476Y-79204523D01*
X190159523Y-79385952D01*
X190038571Y-79506904D01*
X189917619Y-79567380D01*
X191731904Y-79627857D02*
X191731904Y-80474523D01*
X191429523Y-79144047D02*
X191127142Y-80051190D01*
X191913333Y-80051190D01*
D12*
%TO.C,C20*%
X185255714Y-103167142D02*
X185217619Y-103214761D01*
X185103333Y-103262380D01*
X185027142Y-103262380D01*
X184912857Y-103214761D01*
X184836666Y-103119523D01*
X184798571Y-103024285D01*
X184760476Y-102833809D01*
X184760476Y-102690952D01*
X184798571Y-102500476D01*
X184836666Y-102405238D01*
X184912857Y-102310000D01*
X185027142Y-102262380D01*
X185103333Y-102262380D01*
X185217619Y-102310000D01*
X185255714Y-102357619D01*
X185560476Y-102357619D02*
X185598571Y-102310000D01*
X185674761Y-102262380D01*
X185865238Y-102262380D01*
X185941428Y-102310000D01*
X185979523Y-102357619D01*
X186017619Y-102452857D01*
X186017619Y-102548095D01*
X185979523Y-102690952D01*
X185522380Y-103262380D01*
X186017619Y-103262380D01*
X186512857Y-102262380D02*
X186589047Y-102262380D01*
X186665238Y-102310000D01*
X186703333Y-102357619D01*
X186741428Y-102452857D01*
X186779523Y-102643333D01*
X186779523Y-102881428D01*
X186741428Y-103071904D01*
X186703333Y-103167142D01*
X186665238Y-103214761D01*
X186589047Y-103262380D01*
X186512857Y-103262380D01*
X186436666Y-103214761D01*
X186398571Y-103167142D01*
X186360476Y-103071904D01*
X186322380Y-102881428D01*
X186322380Y-102643333D01*
X186360476Y-102452857D01*
X186398571Y-102357619D01*
X186436666Y-102310000D01*
X186512857Y-102262380D01*
%TO.C,C23*%
X147487142Y-64267142D02*
X147439523Y-64314761D01*
X147296666Y-64362380D01*
X147201428Y-64362380D01*
X147058571Y-64314761D01*
X146963333Y-64219523D01*
X146915714Y-64124285D01*
X146868095Y-63933809D01*
X146868095Y-63790952D01*
X146915714Y-63600476D01*
X146963333Y-63505238D01*
X147058571Y-63410000D01*
X147201428Y-63362380D01*
X147296666Y-63362380D01*
X147439523Y-63410000D01*
X147487142Y-63457619D01*
X147868095Y-63457619D02*
X147915714Y-63410000D01*
X148010952Y-63362380D01*
X148249047Y-63362380D01*
X148344285Y-63410000D01*
X148391904Y-63457619D01*
X148439523Y-63552857D01*
X148439523Y-63648095D01*
X148391904Y-63790952D01*
X147820476Y-64362380D01*
X148439523Y-64362380D01*
X148772857Y-63362380D02*
X149391904Y-63362380D01*
X149058571Y-63743333D01*
X149201428Y-63743333D01*
X149296666Y-63790952D01*
X149344285Y-63838571D01*
X149391904Y-63933809D01*
X149391904Y-64171904D01*
X149344285Y-64267142D01*
X149296666Y-64314761D01*
X149201428Y-64362380D01*
X148915714Y-64362380D01*
X148820476Y-64314761D01*
X148772857Y-64267142D01*
%TO.C,R27*%
X120592380Y-76602857D02*
X120116190Y-76936190D01*
X120592380Y-77174285D02*
X119592380Y-77174285D01*
X119592380Y-76793333D01*
X119640000Y-76698095D01*
X119687619Y-76650476D01*
X119782857Y-76602857D01*
X119925714Y-76602857D01*
X120020952Y-76650476D01*
X120068571Y-76698095D01*
X120116190Y-76793333D01*
X120116190Y-77174285D01*
X119687619Y-76221904D02*
X119640000Y-76174285D01*
X119592380Y-76079047D01*
X119592380Y-75840952D01*
X119640000Y-75745714D01*
X119687619Y-75698095D01*
X119782857Y-75650476D01*
X119878095Y-75650476D01*
X120020952Y-75698095D01*
X120592380Y-76269523D01*
X120592380Y-75650476D01*
X119592380Y-75317142D02*
X119592380Y-74650476D01*
X120592380Y-75079047D01*
%TO.C,C7*%
X132333333Y-100677142D02*
X132285714Y-100724761D01*
X132142857Y-100772380D01*
X132047619Y-100772380D01*
X131904761Y-100724761D01*
X131809523Y-100629523D01*
X131761904Y-100534285D01*
X131714285Y-100343809D01*
X131714285Y-100200952D01*
X131761904Y-100010476D01*
X131809523Y-99915238D01*
X131904761Y-99820000D01*
X132047619Y-99772380D01*
X132142857Y-99772380D01*
X132285714Y-99820000D01*
X132333333Y-99867619D01*
X132666666Y-99772380D02*
X133333333Y-99772380D01*
X132904761Y-100772380D01*
%TO.C,U4*%
X171798095Y-94002380D02*
X171798095Y-94811904D01*
X171845714Y-94907142D01*
X171893333Y-94954761D01*
X171988571Y-95002380D01*
X172179047Y-95002380D01*
X172274285Y-94954761D01*
X172321904Y-94907142D01*
X172369523Y-94811904D01*
X172369523Y-94002380D01*
X173274285Y-94335714D02*
X173274285Y-95002380D01*
X173036190Y-93954761D02*
X172798095Y-94669047D01*
X173417142Y-94669047D01*
%TO.C,SW8*%
X96776666Y-64654761D02*
X96919523Y-64702380D01*
X97157619Y-64702380D01*
X97252857Y-64654761D01*
X97300476Y-64607142D01*
X97348095Y-64511904D01*
X97348095Y-64416666D01*
X97300476Y-64321428D01*
X97252857Y-64273809D01*
X97157619Y-64226190D01*
X96967142Y-64178571D01*
X96871904Y-64130952D01*
X96824285Y-64083333D01*
X96776666Y-63988095D01*
X96776666Y-63892857D01*
X96824285Y-63797619D01*
X96871904Y-63750000D01*
X96967142Y-63702380D01*
X97205238Y-63702380D01*
X97348095Y-63750000D01*
X97681428Y-63702380D02*
X97919523Y-64702380D01*
X98110000Y-63988095D01*
X98300476Y-64702380D01*
X98538571Y-63702380D01*
X99062380Y-64130952D02*
X98967142Y-64083333D01*
X98919523Y-64035714D01*
X98871904Y-63940476D01*
X98871904Y-63892857D01*
X98919523Y-63797619D01*
X98967142Y-63750000D01*
X99062380Y-63702380D01*
X99252857Y-63702380D01*
X99348095Y-63750000D01*
X99395714Y-63797619D01*
X99443333Y-63892857D01*
X99443333Y-63940476D01*
X99395714Y-64035714D01*
X99348095Y-64083333D01*
X99252857Y-64130952D01*
X99062380Y-64130952D01*
X98967142Y-64178571D01*
X98919523Y-64226190D01*
X98871904Y-64321428D01*
X98871904Y-64511904D01*
X98919523Y-64607142D01*
X98967142Y-64654761D01*
X99062380Y-64702380D01*
X99252857Y-64702380D01*
X99348095Y-64654761D01*
X99395714Y-64607142D01*
X99443333Y-64511904D01*
X99443333Y-64321428D01*
X99395714Y-64226190D01*
X99348095Y-64178571D01*
X99252857Y-64130952D01*
%TO.C,C12*%
X113337142Y-80027142D02*
X113289523Y-80074761D01*
X113146666Y-80122380D01*
X113051428Y-80122380D01*
X112908571Y-80074761D01*
X112813333Y-79979523D01*
X112765714Y-79884285D01*
X112718095Y-79693809D01*
X112718095Y-79550952D01*
X112765714Y-79360476D01*
X112813333Y-79265238D01*
X112908571Y-79170000D01*
X113051428Y-79122380D01*
X113146666Y-79122380D01*
X113289523Y-79170000D01*
X113337142Y-79217619D01*
X114289523Y-80122380D02*
X113718095Y-80122380D01*
X114003809Y-80122380D02*
X114003809Y-79122380D01*
X113908571Y-79265238D01*
X113813333Y-79360476D01*
X113718095Y-79408095D01*
X114670476Y-79217619D02*
X114718095Y-79170000D01*
X114813333Y-79122380D01*
X115051428Y-79122380D01*
X115146666Y-79170000D01*
X115194285Y-79217619D01*
X115241904Y-79312857D01*
X115241904Y-79408095D01*
X115194285Y-79550952D01*
X114622857Y-80122380D01*
X115241904Y-80122380D01*
%TO.C,D16*%
X194512380Y-77481428D02*
X193512380Y-77481428D01*
X193512380Y-77290952D01*
X193560000Y-77176666D01*
X193655238Y-77100476D01*
X193750476Y-77062380D01*
X193940952Y-77024285D01*
X194083809Y-77024285D01*
X194274285Y-77062380D01*
X194369523Y-77100476D01*
X194464761Y-77176666D01*
X194512380Y-77290952D01*
X194512380Y-77481428D01*
X194512380Y-76262380D02*
X194512380Y-76719523D01*
X194512380Y-76490952D02*
X193512380Y-76490952D01*
X193655238Y-76567142D01*
X193750476Y-76643333D01*
X193798095Y-76719523D01*
X193512380Y-75576666D02*
X193512380Y-75729047D01*
X193560000Y-75805238D01*
X193607619Y-75843333D01*
X193750476Y-75919523D01*
X193940952Y-75957619D01*
X194321904Y-75957619D01*
X194417142Y-75919523D01*
X194464761Y-75881428D01*
X194512380Y-75805238D01*
X194512380Y-75652857D01*
X194464761Y-75576666D01*
X194417142Y-75538571D01*
X194321904Y-75500476D01*
X194083809Y-75500476D01*
X193988571Y-75538571D01*
X193940952Y-75576666D01*
X193893333Y-75652857D01*
X193893333Y-75805238D01*
X193940952Y-75881428D01*
X193988571Y-75919523D01*
X194083809Y-75957619D01*
D11*
%TO.C,SW9*%
X135353333Y-64993333D02*
X135386666Y-64893333D01*
X135386666Y-64726666D01*
X135353333Y-64660000D01*
X135320000Y-64626666D01*
X135253333Y-64593333D01*
X135186666Y-64593333D01*
X135120000Y-64626666D01*
X135086666Y-64660000D01*
X135053333Y-64726666D01*
X135020000Y-64860000D01*
X134986666Y-64926666D01*
X134953333Y-64960000D01*
X134886666Y-64993333D01*
X134820000Y-64993333D01*
X134753333Y-64960000D01*
X134720000Y-64926666D01*
X134686666Y-64860000D01*
X134686666Y-64693333D01*
X134720000Y-64593333D01*
X134686666Y-64360000D02*
X135386666Y-64193333D01*
X134886666Y-64060000D01*
X135386666Y-63926666D01*
X134686666Y-63760000D01*
X135386666Y-63460000D02*
X135386666Y-63326666D01*
X135353333Y-63260000D01*
X135320000Y-63226666D01*
X135220000Y-63160000D01*
X135086666Y-63126666D01*
X134820000Y-63126666D01*
X134753333Y-63160000D01*
X134720000Y-63193333D01*
X134686666Y-63260000D01*
X134686666Y-63393333D01*
X134720000Y-63460000D01*
X134753333Y-63493333D01*
X134820000Y-63526666D01*
X134986666Y-63526666D01*
X135053333Y-63493333D01*
X135086666Y-63460000D01*
X135120000Y-63393333D01*
X135120000Y-63260000D01*
X135086666Y-63193333D01*
X135053333Y-63160000D01*
X134986666Y-63126666D01*
D10*
%TO.C,Q13*%
X189514285Y-90055476D02*
X189393333Y-89995000D01*
X189272380Y-89874047D01*
X189090952Y-89692619D01*
X188970000Y-89632142D01*
X188849047Y-89632142D01*
X188909523Y-89934523D02*
X188788571Y-89874047D01*
X188667619Y-89753095D01*
X188607142Y-89511190D01*
X188607142Y-89087857D01*
X188667619Y-88845952D01*
X188788571Y-88725000D01*
X188909523Y-88664523D01*
X189151428Y-88664523D01*
X189272380Y-88725000D01*
X189393333Y-88845952D01*
X189453809Y-89087857D01*
X189453809Y-89511190D01*
X189393333Y-89753095D01*
X189272380Y-89874047D01*
X189151428Y-89934523D01*
X188909523Y-89934523D01*
X190663333Y-89934523D02*
X189937619Y-89934523D01*
X190300476Y-89934523D02*
X190300476Y-88664523D01*
X190179523Y-88845952D01*
X190058571Y-88966904D01*
X189937619Y-89027380D01*
X191086666Y-88664523D02*
X191872857Y-88664523D01*
X191449523Y-89148333D01*
X191630952Y-89148333D01*
X191751904Y-89208809D01*
X191812380Y-89269285D01*
X191872857Y-89390238D01*
X191872857Y-89692619D01*
X191812380Y-89813571D01*
X191751904Y-89874047D01*
X191630952Y-89934523D01*
X191268095Y-89934523D01*
X191147142Y-89874047D01*
X191086666Y-89813571D01*
D12*
%TO.C,C9*%
X136795850Y-115531552D02*
X136795850Y-115598895D01*
X136728506Y-115733582D01*
X136661163Y-115800926D01*
X136526475Y-115868269D01*
X136391788Y-115868269D01*
X136290773Y-115834598D01*
X136122414Y-115733582D01*
X136021399Y-115632567D01*
X135920384Y-115464208D01*
X135886712Y-115363193D01*
X135886712Y-115228506D01*
X135954056Y-115093819D01*
X136021399Y-115026475D01*
X136156086Y-114959132D01*
X136223430Y-114959132D01*
X137199911Y-115262178D02*
X137334598Y-115127491D01*
X137368269Y-115026475D01*
X137368269Y-114959132D01*
X137334598Y-114790773D01*
X137233582Y-114622414D01*
X136964208Y-114353040D01*
X136863193Y-114319369D01*
X136795850Y-114319369D01*
X136694834Y-114353040D01*
X136560147Y-114487727D01*
X136526475Y-114588743D01*
X136526475Y-114656086D01*
X136560147Y-114757101D01*
X136728506Y-114925460D01*
X136829521Y-114959132D01*
X136896865Y-114959132D01*
X136997880Y-114925460D01*
X137132567Y-114790773D01*
X137166239Y-114689758D01*
X137166239Y-114622414D01*
X137132567Y-114521399D01*
D13*
%TO.C,SW2*%
X111260000Y-117212857D02*
X111345714Y-117241428D01*
X111488571Y-117241428D01*
X111545714Y-117212857D01*
X111574285Y-117184285D01*
X111602857Y-117127142D01*
X111602857Y-117070000D01*
X111574285Y-117012857D01*
X111545714Y-116984285D01*
X111488571Y-116955714D01*
X111374285Y-116927142D01*
X111317142Y-116898571D01*
X111288571Y-116870000D01*
X111260000Y-116812857D01*
X111260000Y-116755714D01*
X111288571Y-116698571D01*
X111317142Y-116670000D01*
X111374285Y-116641428D01*
X111517142Y-116641428D01*
X111602857Y-116670000D01*
X111802857Y-116641428D02*
X111945714Y-117241428D01*
X112060000Y-116812857D01*
X112174285Y-117241428D01*
X112317142Y-116641428D01*
X112517142Y-116698571D02*
X112545714Y-116670000D01*
X112602857Y-116641428D01*
X112745714Y-116641428D01*
X112802857Y-116670000D01*
X112831428Y-116698571D01*
X112860000Y-116755714D01*
X112860000Y-116812857D01*
X112831428Y-116898571D01*
X112488571Y-117241428D01*
X112860000Y-117241428D01*
D12*
%TO.C,C14*%
X140767142Y-85087142D02*
X140719523Y-85134761D01*
X140576666Y-85182380D01*
X140481428Y-85182380D01*
X140338571Y-85134761D01*
X140243333Y-85039523D01*
X140195714Y-84944285D01*
X140148095Y-84753809D01*
X140148095Y-84610952D01*
X140195714Y-84420476D01*
X140243333Y-84325238D01*
X140338571Y-84230000D01*
X140481428Y-84182380D01*
X140576666Y-84182380D01*
X140719523Y-84230000D01*
X140767142Y-84277619D01*
X141719523Y-85182380D02*
X141148095Y-85182380D01*
X141433809Y-85182380D02*
X141433809Y-84182380D01*
X141338571Y-84325238D01*
X141243333Y-84420476D01*
X141148095Y-84468095D01*
X142576666Y-84515714D02*
X142576666Y-85182380D01*
X142338571Y-84134761D02*
X142100476Y-84849047D01*
X142719523Y-84849047D01*
D13*
%TO.C,SW7*%
X111220000Y-112492857D02*
X111305714Y-112521428D01*
X111448571Y-112521428D01*
X111505714Y-112492857D01*
X111534285Y-112464285D01*
X111562857Y-112407142D01*
X111562857Y-112350000D01*
X111534285Y-112292857D01*
X111505714Y-112264285D01*
X111448571Y-112235714D01*
X111334285Y-112207142D01*
X111277142Y-112178571D01*
X111248571Y-112150000D01*
X111220000Y-112092857D01*
X111220000Y-112035714D01*
X111248571Y-111978571D01*
X111277142Y-111950000D01*
X111334285Y-111921428D01*
X111477142Y-111921428D01*
X111562857Y-111950000D01*
X111762857Y-111921428D02*
X111905714Y-112521428D01*
X112020000Y-112092857D01*
X112134285Y-112521428D01*
X112277142Y-111921428D01*
X112448571Y-111921428D02*
X112848571Y-111921428D01*
X112591428Y-112521428D01*
D12*
%TO.C,R46*%
X181827142Y-108732380D02*
X181493809Y-108256190D01*
X181255714Y-108732380D02*
X181255714Y-107732380D01*
X181636666Y-107732380D01*
X181731904Y-107780000D01*
X181779523Y-107827619D01*
X181827142Y-107922857D01*
X181827142Y-108065714D01*
X181779523Y-108160952D01*
X181731904Y-108208571D01*
X181636666Y-108256190D01*
X181255714Y-108256190D01*
X182684285Y-108065714D02*
X182684285Y-108732380D01*
X182446190Y-107684761D02*
X182208095Y-108399047D01*
X182827142Y-108399047D01*
X183636666Y-107732380D02*
X183446190Y-107732380D01*
X183350952Y-107780000D01*
X183303333Y-107827619D01*
X183208095Y-107970476D01*
X183160476Y-108160952D01*
X183160476Y-108541904D01*
X183208095Y-108637142D01*
X183255714Y-108684761D01*
X183350952Y-108732380D01*
X183541428Y-108732380D01*
X183636666Y-108684761D01*
X183684285Y-108637142D01*
X183731904Y-108541904D01*
X183731904Y-108303809D01*
X183684285Y-108208571D01*
X183636666Y-108160952D01*
X183541428Y-108113333D01*
X183350952Y-108113333D01*
X183255714Y-108160952D01*
X183208095Y-108208571D01*
X183160476Y-108303809D01*
%TO.C,R22*%
X158052380Y-90602857D02*
X157576190Y-90936190D01*
X158052380Y-91174285D02*
X157052380Y-91174285D01*
X157052380Y-90793333D01*
X157100000Y-90698095D01*
X157147619Y-90650476D01*
X157242857Y-90602857D01*
X157385714Y-90602857D01*
X157480952Y-90650476D01*
X157528571Y-90698095D01*
X157576190Y-90793333D01*
X157576190Y-91174285D01*
X157147619Y-90221904D02*
X157100000Y-90174285D01*
X157052380Y-90079047D01*
X157052380Y-89840952D01*
X157100000Y-89745714D01*
X157147619Y-89698095D01*
X157242857Y-89650476D01*
X157338095Y-89650476D01*
X157480952Y-89698095D01*
X158052380Y-90269523D01*
X158052380Y-89650476D01*
X157147619Y-89269523D02*
X157100000Y-89221904D01*
X157052380Y-89126666D01*
X157052380Y-88888571D01*
X157100000Y-88793333D01*
X157147619Y-88745714D01*
X157242857Y-88698095D01*
X157338095Y-88698095D01*
X157480952Y-88745714D01*
X158052380Y-89317142D01*
X158052380Y-88698095D01*
%TO.C,Q3*%
X178844761Y-86507619D02*
X178749523Y-86460000D01*
X178654285Y-86364761D01*
X178511428Y-86221904D01*
X178416190Y-86174285D01*
X178320952Y-86174285D01*
X178368571Y-86412380D02*
X178273333Y-86364761D01*
X178178095Y-86269523D01*
X178130476Y-86079047D01*
X178130476Y-85745714D01*
X178178095Y-85555238D01*
X178273333Y-85460000D01*
X178368571Y-85412380D01*
X178559047Y-85412380D01*
X178654285Y-85460000D01*
X178749523Y-85555238D01*
X178797142Y-85745714D01*
X178797142Y-86079047D01*
X178749523Y-86269523D01*
X178654285Y-86364761D01*
X178559047Y-86412380D01*
X178368571Y-86412380D01*
X179130476Y-85412380D02*
X179749523Y-85412380D01*
X179416190Y-85793333D01*
X179559047Y-85793333D01*
X179654285Y-85840952D01*
X179701904Y-85888571D01*
X179749523Y-85983809D01*
X179749523Y-86221904D01*
X179701904Y-86317142D01*
X179654285Y-86364761D01*
X179559047Y-86412380D01*
X179273333Y-86412380D01*
X179178095Y-86364761D01*
X179130476Y-86317142D01*
%TO.C,R9*%
X153722380Y-103006666D02*
X153246190Y-103340000D01*
X153722380Y-103578095D02*
X152722380Y-103578095D01*
X152722380Y-103197142D01*
X152770000Y-103101904D01*
X152817619Y-103054285D01*
X152912857Y-103006666D01*
X153055714Y-103006666D01*
X153150952Y-103054285D01*
X153198571Y-103101904D01*
X153246190Y-103197142D01*
X153246190Y-103578095D01*
X153722380Y-102530476D02*
X153722380Y-102340000D01*
X153674761Y-102244761D01*
X153627142Y-102197142D01*
X153484285Y-102101904D01*
X153293809Y-102054285D01*
X152912857Y-102054285D01*
X152817619Y-102101904D01*
X152770000Y-102149523D01*
X152722380Y-102244761D01*
X152722380Y-102435238D01*
X152770000Y-102530476D01*
X152817619Y-102578095D01*
X152912857Y-102625714D01*
X153150952Y-102625714D01*
X153246190Y-102578095D01*
X153293809Y-102530476D01*
X153341428Y-102435238D01*
X153341428Y-102244761D01*
X153293809Y-102149523D01*
X153246190Y-102101904D01*
X153150952Y-102054285D01*
%TO.C,R50*%
X145087142Y-76182380D02*
X144753809Y-75706190D01*
X144515714Y-76182380D02*
X144515714Y-75182380D01*
X144896666Y-75182380D01*
X144991904Y-75230000D01*
X145039523Y-75277619D01*
X145087142Y-75372857D01*
X145087142Y-75515714D01*
X145039523Y-75610952D01*
X144991904Y-75658571D01*
X144896666Y-75706190D01*
X144515714Y-75706190D01*
X145991904Y-75182380D02*
X145515714Y-75182380D01*
X145468095Y-75658571D01*
X145515714Y-75610952D01*
X145610952Y-75563333D01*
X145849047Y-75563333D01*
X145944285Y-75610952D01*
X145991904Y-75658571D01*
X146039523Y-75753809D01*
X146039523Y-75991904D01*
X145991904Y-76087142D01*
X145944285Y-76134761D01*
X145849047Y-76182380D01*
X145610952Y-76182380D01*
X145515714Y-76134761D01*
X145468095Y-76087142D01*
X146658571Y-75182380D02*
X146753809Y-75182380D01*
X146849047Y-75230000D01*
X146896666Y-75277619D01*
X146944285Y-75372857D01*
X146991904Y-75563333D01*
X146991904Y-75801428D01*
X146944285Y-75991904D01*
X146896666Y-76087142D01*
X146849047Y-76134761D01*
X146753809Y-76182380D01*
X146658571Y-76182380D01*
X146563333Y-76134761D01*
X146515714Y-76087142D01*
X146468095Y-75991904D01*
X146420476Y-75801428D01*
X146420476Y-75563333D01*
X146468095Y-75372857D01*
X146515714Y-75277619D01*
X146563333Y-75230000D01*
X146658571Y-75182380D01*
%TO.C,R42*%
X181867142Y-107042380D02*
X181533809Y-106566190D01*
X181295714Y-107042380D02*
X181295714Y-106042380D01*
X181676666Y-106042380D01*
X181771904Y-106090000D01*
X181819523Y-106137619D01*
X181867142Y-106232857D01*
X181867142Y-106375714D01*
X181819523Y-106470952D01*
X181771904Y-106518571D01*
X181676666Y-106566190D01*
X181295714Y-106566190D01*
X182724285Y-106375714D02*
X182724285Y-107042380D01*
X182486190Y-105994761D02*
X182248095Y-106709047D01*
X182867142Y-106709047D01*
X183200476Y-106137619D02*
X183248095Y-106090000D01*
X183343333Y-106042380D01*
X183581428Y-106042380D01*
X183676666Y-106090000D01*
X183724285Y-106137619D01*
X183771904Y-106232857D01*
X183771904Y-106328095D01*
X183724285Y-106470952D01*
X183152857Y-107042380D01*
X183771904Y-107042380D01*
%TO.C,U7*%
X179918095Y-77942380D02*
X179918095Y-78751904D01*
X179965714Y-78847142D01*
X180013333Y-78894761D01*
X180108571Y-78942380D01*
X180299047Y-78942380D01*
X180394285Y-78894761D01*
X180441904Y-78847142D01*
X180489523Y-78751904D01*
X180489523Y-77942380D01*
X180870476Y-77942380D02*
X181537142Y-77942380D01*
X181108571Y-78942380D01*
%TO.C,Q4*%
X152567619Y-90135238D02*
X152520000Y-90230476D01*
X152424761Y-90325714D01*
X152281904Y-90468571D01*
X152234285Y-90563809D01*
X152234285Y-90659047D01*
X152472380Y-90611428D02*
X152424761Y-90706666D01*
X152329523Y-90801904D01*
X152139047Y-90849523D01*
X151805714Y-90849523D01*
X151615238Y-90801904D01*
X151520000Y-90706666D01*
X151472380Y-90611428D01*
X151472380Y-90420952D01*
X151520000Y-90325714D01*
X151615238Y-90230476D01*
X151805714Y-90182857D01*
X152139047Y-90182857D01*
X152329523Y-90230476D01*
X152424761Y-90325714D01*
X152472380Y-90420952D01*
X152472380Y-90611428D01*
X151805714Y-89325714D02*
X152472380Y-89325714D01*
X151424761Y-89563809D02*
X152139047Y-89801904D01*
X152139047Y-89182857D01*
D11*
%TO.C,Q1*%
X172240000Y-89515000D02*
X172240000Y-89245000D01*
X172240000Y-89245000D02*
X175070000Y-89245000D01*
X172240000Y-82885000D02*
X173340000Y-82885000D01*
X170740000Y-82615000D02*
X172240000Y-82615000D01*
X170740000Y-89515000D02*
X172240000Y-89515000D01*
X172240000Y-82615000D02*
X172240000Y-82885000D01*
%TO.C,J2*%
X109820000Y-74440000D02*
X109320000Y-73440000D01*
X104110000Y-67820000D02*
X104110000Y-58700000D01*
X109320000Y-73440000D02*
X108820000Y-74440000D01*
X112350000Y-67820000D02*
X112350000Y-58700000D01*
X108820000Y-74440000D02*
X109820000Y-74440000D01*
X124690000Y-58700000D02*
X124690000Y-67820000D01*
X116450000Y-67820000D02*
X116450000Y-58700000D01*
X124690000Y-67820000D02*
X104110000Y-67820000D01*
X104110000Y-58700000D02*
X124690000Y-58700000D01*
D14*
%TO.C,Q8*%
X114500000Y-75192499D02*
X117400000Y-75192499D01*
X114500000Y-76692499D02*
X114500000Y-75192499D01*
X117400000Y-75192499D02*
X117400000Y-76692499D01*
X117400000Y-76692499D02*
X114500000Y-76692499D01*
X114440000Y-77617499D02*
X114440000Y-77042499D01*
%TO.C,Q6*%
X146500000Y-88550000D02*
X148000000Y-88550000D01*
X146500000Y-91450000D02*
X146500000Y-88550000D01*
X148925000Y-91510000D02*
X148350000Y-91510000D01*
X148000000Y-91450000D02*
X146500000Y-91450000D01*
X148000000Y-88550000D02*
X148000000Y-91450000D01*
D11*
%TO.C,R23*%
X106022500Y-73254724D02*
X106022500Y-72745276D01*
X104977500Y-73254724D02*
X104977500Y-72745276D01*
%TO.C,D2*%
X114410000Y-103215000D02*
X111950000Y-103215000D01*
X111950000Y-104685000D02*
X114410000Y-104685000D01*
X114410000Y-104685000D02*
X114410000Y-103215000D01*
%TO.C,D9*%
X94840000Y-76735000D02*
X97300000Y-76735000D01*
X97300000Y-75265000D02*
X94840000Y-75265000D01*
X94840000Y-75265000D02*
X94840000Y-76735000D01*
D14*
%TO.C,Q11*%
X189225000Y-97602000D02*
X189225000Y-97602000D01*
X189225000Y-97802000D02*
X189225000Y-97802000D01*
X189225000Y-97602000D02*
X189225000Y-97602000D01*
D15*
X191750000Y-93558000D02*
X191750000Y-96752000D01*
X188650000Y-93558000D02*
X188650000Y-96752000D01*
D14*
X189225000Y-97602000D02*
G75*
G03*
X189225000Y-97802000I0J-100000D01*
G01*
X189225000Y-97602000D02*
G75*
G03*
X189225000Y-97802000I0J-100000D01*
G01*
X189225000Y-97802000D02*
G75*
G03*
X189225000Y-97602000I0J100000D01*
G01*
D11*
%TO.C,R26*%
X149477500Y-86245276D02*
X149477500Y-86754724D01*
X150522500Y-86245276D02*
X150522500Y-86754724D01*
%TO.C,R48*%
X185520276Y-73447500D02*
X186029724Y-73447500D01*
X185520276Y-74492500D02*
X186029724Y-74492500D01*
%TO.C,U8*%
X144810000Y-70000000D02*
X144810000Y-68050000D01*
X144810000Y-70000000D02*
X144810000Y-71950000D01*
X139690000Y-70000000D02*
X139690000Y-73450000D01*
X139690000Y-70000000D02*
X139690000Y-68050000D01*
%TO.C,R32*%
X141892224Y-98272500D02*
X141382776Y-98272500D01*
X141892224Y-97227500D02*
X141382776Y-97227500D01*
%TO.C,C11*%
X138307198Y-112214051D02*
X138514051Y-112007198D01*
X137585949Y-111492802D02*
X137792802Y-111285949D01*
%TO.C,D6*%
X139250000Y-87750000D02*
X139250000Y-85750000D01*
X139250000Y-85750000D02*
X135350000Y-85750000D01*
X139250000Y-87750000D02*
X135350000Y-87750000D01*
%TO.C,JP1*%
X130080000Y-62520000D02*
X130080000Y-65120000D01*
X127420000Y-61250000D02*
X127420000Y-59920000D01*
X127420000Y-59920000D02*
X128750000Y-59920000D01*
X127420000Y-65120000D02*
X130080000Y-65120000D01*
X127420000Y-62520000D02*
X127420000Y-65120000D01*
X127420000Y-62520000D02*
X130080000Y-62520000D01*
%TO.C,SW6*%
X160040000Y-70830000D02*
X154960000Y-70830000D01*
X154960000Y-70830000D02*
X154960000Y-60670000D01*
X154960000Y-70830000D02*
X154960000Y-60670000D01*
X154960000Y-60670000D02*
X160040000Y-60670000D01*
X160040000Y-60670000D02*
X160040000Y-70830000D01*
%TO.C,Q7*%
X151100000Y-86200000D02*
X152150000Y-86200000D01*
X154400000Y-86200000D02*
X153350000Y-86200000D01*
X151100000Y-84400000D02*
X151100000Y-86200000D01*
X154400000Y-83800000D02*
X154400000Y-86200000D01*
%TO.C,U3*%
X141470000Y-94680000D02*
X144300000Y-94680000D01*
X141470000Y-88050000D02*
X141470000Y-88320000D01*
X141470000Y-94950000D02*
X141470000Y-94680000D01*
X139970000Y-94950000D02*
X141470000Y-94950000D01*
X141470000Y-88320000D02*
X142570000Y-88320000D01*
X139970000Y-88050000D02*
X141470000Y-88050000D01*
%TO.C,U2*%
X132712132Y-113643179D02*
X133641977Y-114573024D01*
X132500000Y-113855311D02*
X132712132Y-113643179D01*
X137393179Y-108537868D02*
X137605311Y-108750000D01*
X127394689Y-108750000D02*
X127606821Y-108537868D01*
X132712132Y-103856821D02*
X132500000Y-103644689D01*
X132287868Y-113643179D02*
X132500000Y-113855311D01*
X127606821Y-108962132D02*
X127394689Y-108750000D01*
X137605311Y-108750000D02*
X137393179Y-108962132D01*
X132500000Y-103644689D02*
X132287868Y-103856821D01*
%TO.C,R24*%
X115445276Y-81920000D02*
X115954724Y-81920000D01*
X115445276Y-82965000D02*
X115954724Y-82965000D01*
%TO.C,D12*%
X185825000Y-81565000D02*
X183825000Y-81565000D01*
X183825000Y-81565000D02*
X183825000Y-85465000D01*
X185825000Y-81565000D02*
X185825000Y-85465000D01*
%TO.C,R41*%
X187297500Y-98035276D02*
X187297500Y-98544724D01*
X186252500Y-98035276D02*
X186252500Y-98544724D01*
%TO.C,C22*%
X139260000Y-67853733D02*
X139260000Y-68146267D01*
X138240000Y-67853733D02*
X138240000Y-68146267D01*
%TO.C,Q16*%
X150150000Y-70300000D02*
X149100000Y-70300000D01*
X146850000Y-70300000D02*
X147900000Y-70300000D01*
X150150000Y-72100000D02*
X150150000Y-70300000D01*
X146850000Y-72700000D02*
X146850000Y-70300000D01*
%TO.C,U6*%
X179775000Y-98505000D02*
X176325000Y-98505000D01*
X179775000Y-103625000D02*
X177825000Y-103625000D01*
X179775000Y-103625000D02*
X181725000Y-103625000D01*
X179775000Y-98505000D02*
X181725000Y-98505000D01*
%TO.C,SW5*%
X102510000Y-102820000D02*
X100860000Y-102820000D01*
X97210000Y-113100000D02*
X102510000Y-113100000D01*
X102510000Y-113100000D02*
X102510000Y-102820000D01*
X98860000Y-102820000D02*
X97210000Y-102820000D01*
X97210000Y-102820000D02*
X97210000Y-113100000D01*
X98860000Y-102820000D02*
G75*
G03*
X100860000Y-102820000I1000000J0D01*
G01*
%TO.C,U1*%
X162259000Y-92250000D02*
X145241000Y-92250000D01*
X145241000Y-92250000D02*
X145241000Y-99616000D01*
X145241000Y-99616000D02*
X162259000Y-99616000D01*
X162259000Y-99616000D02*
X162259000Y-92250000D01*
D16*
X156447000Y-90980000D02*
G75*
G03*
X156447000Y-90980000I-157000J0D01*
G01*
D11*
%TO.C,D5*%
X114410000Y-106765000D02*
X111950000Y-106765000D01*
X111950000Y-108235000D02*
X114410000Y-108235000D01*
X114410000Y-108235000D02*
X114410000Y-106765000D01*
%TO.C,J1*%
X177310000Y-62285000D02*
X177310000Y-67185000D01*
X166600000Y-60065000D02*
X167190000Y-60065000D01*
X177310000Y-60065000D02*
X177900000Y-60065000D01*
X167190000Y-67185000D02*
X177310000Y-67185000D01*
X177310000Y-57965000D02*
X177310000Y-60065000D01*
X177310000Y-62285000D02*
X177900000Y-62285000D01*
X166600000Y-62285000D02*
X167190000Y-62285000D01*
X167190000Y-62285000D02*
X167190000Y-67185000D01*
X167190000Y-57965000D02*
X177310000Y-57965000D01*
X167190000Y-57965000D02*
X167190000Y-60065000D01*
X166600000Y-60065000D02*
G75*
G03*
X166600000Y-62285000I0J-1110000D01*
G01*
X177900000Y-62285000D02*
G75*
G03*
X177900000Y-60065000I0J1110000D01*
G01*
%TO.C,J5*%
X206840000Y-115010000D02*
X205350000Y-115010000D01*
X210810000Y-115960000D02*
X211260000Y-115960000D01*
X211260000Y-107740000D02*
X210810000Y-107740000D01*
X207290000Y-115960000D02*
X206840000Y-115960000D01*
X207290000Y-107740000D02*
X206840000Y-107740000D01*
X211260000Y-115960000D02*
X211260000Y-107740000D01*
X206840000Y-115960000D02*
X206840000Y-115010000D01*
X206840000Y-107740000D02*
X206840000Y-108690000D01*
%TO.C,D7*%
X97300000Y-70765000D02*
X94840000Y-70765000D01*
X94840000Y-72235000D02*
X97300000Y-72235000D01*
X94840000Y-70765000D02*
X94840000Y-72235000D01*
%TO.C,SW3*%
X106682000Y-118534500D02*
X115318000Y-118534500D01*
X115318000Y-122090500D02*
X106682000Y-122090500D01*
X115318000Y-118534500D02*
X115318000Y-122090500D01*
X106682000Y-122090500D02*
X106682000Y-118534500D01*
%TO.C,D11*%
X183775000Y-99815000D02*
X183775000Y-95915000D01*
X183775000Y-99815000D02*
X185775000Y-99815000D01*
X185775000Y-99815000D02*
X185775000Y-95915000D01*
D14*
%TO.C,Q15*%
X149700000Y-67250000D02*
X146800000Y-67250000D01*
X146740000Y-68175000D02*
X146740000Y-67600000D01*
X146800000Y-65750000D02*
X149700000Y-65750000D01*
X146800000Y-67250000D02*
X146800000Y-65750000D01*
X149700000Y-65750000D02*
X149700000Y-67250000D01*
D11*
%TO.C,R53*%
X140004724Y-64977500D02*
X139495276Y-64977500D01*
X140004724Y-66022500D02*
X139495276Y-66022500D01*
%TO.C,R44*%
X185520276Y-76087500D02*
X186029724Y-76087500D01*
X185520276Y-75042500D02*
X186029724Y-75042500D01*
%TO.C,D10*%
X94840000Y-78985000D02*
X97300000Y-78985000D01*
X94840000Y-77515000D02*
X94840000Y-78985000D01*
X97300000Y-77515000D02*
X94840000Y-77515000D01*
%TO.C,C19*%
X182396267Y-74480000D02*
X182103733Y-74480000D01*
X182396267Y-73460000D02*
X182103733Y-73460000D01*
%TO.C,D13*%
X193025000Y-90965000D02*
X193025000Y-94865000D01*
X195025000Y-90965000D02*
X195025000Y-94865000D01*
X195025000Y-90965000D02*
X193025000Y-90965000D01*
%TO.C,U5*%
X163645000Y-91930000D02*
X163645000Y-93580000D01*
X163645000Y-95580000D02*
X163645000Y-97230000D01*
X168845000Y-91930000D02*
X163645000Y-91930000D01*
X168845000Y-97230000D02*
X168845000Y-91930000D01*
X163645000Y-97230000D02*
X168845000Y-97230000D01*
X163645000Y-95580000D02*
G75*
G03*
X163645000Y-93580000I0J1000000D01*
G01*
%TO.C,C18*%
X177896267Y-97850000D02*
X177603733Y-97850000D01*
X177896267Y-96830000D02*
X177603733Y-96830000D01*
%TO.C,D3*%
X114410000Y-104965000D02*
X111950000Y-104965000D01*
X111950000Y-106435000D02*
X114410000Y-106435000D01*
X114410000Y-106435000D02*
X114410000Y-104965000D01*
%TO.C,J3*%
X139390000Y-62460000D02*
X140340000Y-62460000D01*
X147610000Y-58040000D02*
X139390000Y-58040000D01*
X147610000Y-58490000D02*
X147610000Y-58040000D01*
X139390000Y-62010000D02*
X139390000Y-62460000D01*
X139390000Y-58040000D02*
X139390000Y-58490000D01*
X147610000Y-62460000D02*
X146660000Y-62460000D01*
X147610000Y-62010000D02*
X147610000Y-62460000D01*
X146660000Y-62460000D02*
X146660000Y-63950000D01*
%TO.C,R52*%
X143504724Y-64977500D02*
X142995276Y-64977500D01*
X143504724Y-66022500D02*
X142995276Y-66022500D01*
%TO.C,R25*%
X111945276Y-82965000D02*
X112454724Y-82965000D01*
X111945276Y-81920000D02*
X112454724Y-81920000D01*
%TO.C,J4*%
X211560000Y-94375000D02*
X209460000Y-94375000D01*
X211560000Y-84255000D02*
X211560000Y-94375000D01*
X207240000Y-84255000D02*
X202340000Y-84255000D01*
X209460000Y-94375000D02*
X209460000Y-94965000D01*
X202340000Y-84255000D02*
X202340000Y-94375000D01*
X211560000Y-84255000D02*
X209460000Y-84255000D01*
X209460000Y-83665000D02*
X209460000Y-84255000D01*
X207240000Y-83665000D02*
X207240000Y-84255000D01*
X207240000Y-94375000D02*
X207240000Y-94965000D01*
X207240000Y-94375000D02*
X202340000Y-94375000D01*
X207240000Y-94965000D02*
G75*
G03*
X209460000Y-94965000I1110000J0D01*
G01*
X209460000Y-83665000D02*
G75*
G03*
X207240000Y-83665000I-1110000J0D01*
G01*
%TO.C,R43*%
X186252500Y-83310276D02*
X186252500Y-83819724D01*
X187297500Y-83310276D02*
X187297500Y-83819724D01*
%TO.C,R51*%
X145227500Y-69495276D02*
X145227500Y-70004724D01*
X146272500Y-69495276D02*
X146272500Y-70004724D01*
%TO.C,C13*%
X139740000Y-85695563D02*
X139740000Y-83810000D01*
X148260000Y-78240000D02*
X148260000Y-81190000D01*
X140804437Y-86760000D02*
X148260000Y-86760000D01*
X139740000Y-79304437D02*
X139740000Y-81190000D01*
X140804437Y-78240000D02*
X148260000Y-78240000D01*
X139740000Y-79304437D02*
X140804437Y-78240000D01*
X148260000Y-86760000D02*
X148260000Y-83810000D01*
X139740000Y-85695563D02*
X140804437Y-86760000D01*
%TO.C,D15*%
X193025000Y-90565000D02*
X193025000Y-86665000D01*
X193025000Y-90565000D02*
X195025000Y-90565000D01*
X195025000Y-90565000D02*
X195025000Y-86665000D01*
D14*
%TO.C,Q5*%
X110500000Y-76692500D02*
X110500000Y-75192500D01*
X110500000Y-75192500D02*
X113400000Y-75192500D01*
X113400000Y-76692500D02*
X110500000Y-76692500D01*
X113400000Y-75192500D02*
X113400000Y-76692500D01*
X113460000Y-74267500D02*
X113460000Y-74842500D01*
D11*
%TO.C,C10*%
X132646267Y-116260000D02*
X132353733Y-116260000D01*
X132646267Y-115240000D02*
X132353733Y-115240000D01*
%TO.C,D14*%
X193015000Y-102920000D02*
X193015000Y-106820000D01*
X195015000Y-102920000D02*
X193015000Y-102920000D01*
X195015000Y-102920000D02*
X195015000Y-106820000D01*
%TO.C,R54*%
X136727500Y-66754724D02*
X136727500Y-66245276D01*
X137772500Y-66754724D02*
X137772500Y-66245276D01*
%TO.C,C15*%
X141491233Y-95490000D02*
X141783767Y-95490000D01*
X141491233Y-96510000D02*
X141783767Y-96510000D01*
%TO.C,R10*%
X154227500Y-106095276D02*
X154227500Y-106604724D01*
X155272500Y-106095276D02*
X155272500Y-106604724D01*
D14*
%TO.C,Q12*%
X189225000Y-107102000D02*
X189225000Y-107102000D01*
X189225000Y-107102000D02*
X189225000Y-107102000D01*
D15*
X191750000Y-103058000D02*
X191750000Y-106252000D01*
D14*
X189225000Y-107302000D02*
X189225000Y-107302000D01*
D15*
X188650000Y-103058000D02*
X188650000Y-106252000D01*
D14*
X189225000Y-107102000D02*
G75*
G03*
X189225000Y-107302000I0J-100000D01*
G01*
X189225000Y-107102000D02*
G75*
G03*
X189225000Y-107302000I0J-100000D01*
G01*
X189225000Y-107302000D02*
G75*
G03*
X189225000Y-107102000I0J100000D01*
G01*
D11*
%TO.C,D8*%
X94840000Y-74485000D02*
X97300000Y-74485000D01*
X97300000Y-73015000D02*
X94840000Y-73015000D01*
X94840000Y-73015000D02*
X94840000Y-74485000D01*
%TO.C,C4*%
X107510000Y-72853733D02*
X107510000Y-73146267D01*
X106490000Y-72853733D02*
X106490000Y-73146267D01*
%TO.C,C5*%
X165210000Y-109310000D02*
X162260000Y-109310000D01*
X157754437Y-100790000D02*
X156690000Y-101854437D01*
X156690000Y-101854437D02*
X156690000Y-109310000D01*
X165210000Y-101854437D02*
X165210000Y-109310000D01*
X164145563Y-100790000D02*
X165210000Y-101854437D01*
X164145563Y-100790000D02*
X162260000Y-100790000D01*
X157754437Y-100790000D02*
X159640000Y-100790000D01*
X156690000Y-109310000D02*
X159640000Y-109310000D01*
%TO.C,C21*%
X187135000Y-79526252D02*
X187135000Y-78103748D01*
X184415000Y-79526252D02*
X184415000Y-78103748D01*
%TO.C,SW1*%
X94700000Y-117000000D02*
X94700000Y-116000000D01*
X102800000Y-122550000D02*
X96800000Y-122550000D01*
X102700000Y-116050000D02*
X96900000Y-116050000D01*
X94700000Y-116000000D02*
X95700000Y-116000000D01*
X96700000Y-118000000D02*
X96700000Y-120600000D01*
X102900000Y-118000000D02*
X102900000Y-120600000D01*
%TO.C,R49*%
X150227500Y-66245276D02*
X150227500Y-66754724D01*
X151272500Y-66245276D02*
X151272500Y-66754724D01*
D14*
%TO.C,Q14*%
X191175000Y-74528000D02*
X191175000Y-74528000D01*
X191175000Y-74328000D02*
X191175000Y-74328000D01*
D15*
X188650000Y-78572000D02*
X188650000Y-75378000D01*
D14*
X191175000Y-74528000D02*
X191175000Y-74528000D01*
D15*
X191750000Y-78572000D02*
X191750000Y-75378000D01*
D14*
X191175000Y-74328000D02*
G75*
G03*
X191175000Y-74528000I0J-100000D01*
G01*
X191175000Y-74528000D02*
G75*
G03*
X191175000Y-74328000I0J100000D01*
G01*
X191175000Y-74528000D02*
G75*
G03*
X191175000Y-74328000I0J100000D01*
G01*
D11*
%TO.C,C20*%
X184415000Y-102103748D02*
X184415000Y-103526252D01*
X187135000Y-102103748D02*
X187135000Y-103526252D01*
%TO.C,C23*%
X145240000Y-66191233D02*
X145240000Y-66483767D01*
X146260000Y-66191233D02*
X146260000Y-66483767D01*
%TO.C,R27*%
X118177500Y-76197224D02*
X118177500Y-75687776D01*
X119222500Y-76197224D02*
X119222500Y-75687776D01*
%TO.C,C7*%
X132353733Y-101240000D02*
X132646267Y-101240000D01*
X132353733Y-102260000D02*
X132646267Y-102260000D01*
%TO.C,U4*%
X175105000Y-97250000D02*
X175105000Y-95600000D01*
X175105000Y-93600000D02*
X175105000Y-91950000D01*
X169905000Y-91950000D02*
X169905000Y-97250000D01*
X169905000Y-97250000D02*
X175105000Y-97250000D01*
X175105000Y-91950000D02*
X169905000Y-91950000D01*
X175105000Y-93600000D02*
G75*
G03*
X175105000Y-95600000I0J-1000000D01*
G01*
%TO.C,SW8*%
X100550000Y-59150000D02*
X101550000Y-59150000D01*
X99550000Y-61150000D02*
X96950000Y-61150000D01*
X101550000Y-59150000D02*
X101550000Y-60150000D01*
X99550000Y-67350000D02*
X96950000Y-67350000D01*
X101500000Y-67150000D02*
X101500000Y-61350000D01*
X95000000Y-67250000D02*
X95000000Y-61250000D01*
%TO.C,C12*%
X116570000Y-78322500D02*
X116570000Y-78637500D01*
X111330000Y-78322500D02*
X116570000Y-78322500D01*
X111330000Y-80747500D02*
X111330000Y-81062500D01*
X116570000Y-80747500D02*
X116570000Y-81062500D01*
X111330000Y-78322500D02*
X111330000Y-78637500D01*
X111330000Y-81062500D02*
X116570000Y-81062500D01*
%TO.C,D16*%
X195015000Y-78770000D02*
X195015000Y-74870000D01*
X193015000Y-78770000D02*
X195015000Y-78770000D01*
X193015000Y-78770000D02*
X193015000Y-74870000D01*
%TO.C,SW9*%
X135528000Y-58462000D02*
X135528000Y-67098000D01*
X131972000Y-58462000D02*
X135528000Y-58462000D01*
X131972000Y-67098000D02*
X131972000Y-58462000D01*
X135528000Y-67098000D02*
X131972000Y-67098000D01*
D14*
%TO.C,Q13*%
X191175000Y-83841000D02*
X191175000Y-83841000D01*
X191175000Y-84041000D02*
X191175000Y-84041000D01*
D15*
X188650000Y-88085000D02*
X188650000Y-84891000D01*
X191750000Y-88085000D02*
X191750000Y-84891000D01*
D14*
X191175000Y-84041000D02*
X191175000Y-84041000D01*
X191175000Y-84041000D02*
G75*
G03*
X191175000Y-83841000I0J100000D01*
G01*
X191175000Y-83841000D02*
G75*
G03*
X191175000Y-84041000I0J-100000D01*
G01*
X191175000Y-84041000D02*
G75*
G03*
X191175000Y-83841000I0J100000D01*
G01*
D11*
%TO.C,C9*%
X136114051Y-114407198D02*
X135907198Y-114614051D01*
X135392802Y-113685949D02*
X135185949Y-113892802D01*
%TO.C,SW2*%
X106672000Y-113872000D02*
X115308000Y-113872000D01*
X115308000Y-113872000D02*
X115308000Y-117428000D01*
X106672000Y-117428000D02*
X106672000Y-113872000D01*
X115308000Y-117428000D02*
X106672000Y-117428000D01*
%TO.C,C14*%
X137896267Y-85260000D02*
X137603733Y-85260000D01*
X137896267Y-84240000D02*
X137603733Y-84240000D01*
%TO.C,SW7*%
X106682000Y-112678000D02*
X106682000Y-109122000D01*
X106682000Y-109122000D02*
X115318000Y-109122000D01*
X115318000Y-109122000D02*
X115318000Y-112678000D01*
X115318000Y-112678000D02*
X106682000Y-112678000D01*
%TO.C,R46*%
X185520276Y-108742500D02*
X186029724Y-108742500D01*
X185520276Y-107697500D02*
X186029724Y-107697500D01*
%TO.C,R22*%
X155227500Y-90254724D02*
X155227500Y-89745276D01*
X156272500Y-90254724D02*
X156272500Y-89745276D01*
%TO.C,Q3*%
X182445000Y-85620000D02*
X182175000Y-85620000D01*
X175815000Y-85620000D02*
X175815000Y-84520000D01*
X175545000Y-87120000D02*
X175545000Y-85620000D01*
X182175000Y-85620000D02*
X182175000Y-82790000D01*
X175545000Y-85620000D02*
X175815000Y-85620000D01*
X182445000Y-87120000D02*
X182445000Y-85620000D01*
%TO.C,R9*%
X154227500Y-102595276D02*
X154227500Y-103104724D01*
X155272500Y-102595276D02*
X155272500Y-103104724D01*
%TO.C,R50*%
X146272500Y-72995276D02*
X146272500Y-73504724D01*
X145227500Y-72995276D02*
X145227500Y-73504724D01*
%TO.C,R42*%
X185520276Y-107087500D02*
X186029724Y-107087500D01*
X185520276Y-106042500D02*
X186029724Y-106042500D01*
%TO.C,U7*%
X178215000Y-78565000D02*
X178215000Y-76615000D01*
X183335000Y-78565000D02*
X183335000Y-80515000D01*
X178215000Y-78565000D02*
X178215000Y-80515000D01*
X183335000Y-78565000D02*
X183335000Y-75115000D01*
%TO.C,Q4*%
X152950000Y-88350000D02*
X152950000Y-89400000D01*
X150550000Y-88350000D02*
X152950000Y-88350000D01*
X151150000Y-91650000D02*
X152950000Y-91650000D01*
X152950000Y-91650000D02*
X152950000Y-90600000D01*
%TD*%
%LPC*%
D17*
%TO.C,Q1*%
X173970000Y-88345000D03*
X173970000Y-86065000D03*
D18*
X167670000Y-86065000D03*
D17*
X173970000Y-83785000D03*
%TD*%
D19*
%TO.C,J2*%
X109320000Y-72090000D03*
D20*
X109320000Y-69550000D03*
X111860000Y-72090000D03*
X111860000Y-69550000D03*
X114400000Y-72090000D03*
X114400000Y-69550000D03*
X116940000Y-72090000D03*
X116940000Y-69550000D03*
X119480000Y-72090000D03*
X119480000Y-69550000D03*
%TD*%
D21*
%TO.C,Q8*%
X115000000Y-77330499D03*
X115950000Y-77330499D03*
X116900000Y-77330499D03*
X116900000Y-74554499D03*
X115950000Y-74554499D03*
X115000000Y-74554499D03*
%TD*%
D22*
%TO.C,Q6*%
X148638000Y-90950000D03*
X148638000Y-90000000D03*
X148638000Y-89050000D03*
X145862000Y-89050000D03*
X145862000Y-90000000D03*
X145862000Y-90950000D03*
%TD*%
D23*
%TO.C,R23*%
X105500000Y-73912500D03*
X105500000Y-72087500D03*
%TD*%
D24*
%TO.C,D2*%
X113625000Y-103950000D03*
X111875000Y-103950000D03*
%TD*%
D25*
%TO.C,D9*%
X95625000Y-76000000D03*
X97375000Y-76000000D03*
%TD*%
D26*
%TO.C,Q11*%
X189225000Y-96728000D03*
X189875000Y-96728000D03*
X190525000Y-96728000D03*
X191175000Y-96728000D03*
D27*
X190200000Y-94828000D03*
D28*
X190525000Y-93578000D03*
X191175000Y-93578000D03*
X189875000Y-93578000D03*
X189225000Y-93578000D03*
%TD*%
D29*
%TO.C,R26*%
X150000000Y-85587500D03*
X150000000Y-87412500D03*
%TD*%
D30*
%TO.C,R48*%
X184862500Y-73970000D03*
X186687500Y-73970000D03*
%TD*%
D31*
%TO.C,U8*%
X140345000Y-72625000D03*
X141615000Y-72625000D03*
X142885000Y-72625000D03*
X144155000Y-72625000D03*
X144155000Y-67375000D03*
X142885000Y-67375000D03*
X141615000Y-67375000D03*
X140345000Y-67375000D03*
%TD*%
D32*
%TO.C,R32*%
X142550000Y-97750000D03*
X140725000Y-97750000D03*
%TD*%
D33*
%TO.C,C11*%
X137440120Y-112359880D03*
X138659880Y-111140120D03*
%TD*%
D34*
%TO.C,D6*%
X138650000Y-86750000D03*
X135350000Y-86750000D03*
%TD*%
D35*
%TO.C,JP1*%
X128750000Y-61250000D03*
D36*
X128750000Y-63790000D03*
%TD*%
D37*
%TO.C,SW6*%
X157500000Y-68290000D03*
D20*
X157500000Y-65750000D03*
X157500000Y-63210000D03*
X157500000Y-70830000D03*
X157500000Y-60670000D03*
%TD*%
D38*
%TO.C,Q7*%
X153700000Y-83600000D03*
X151800000Y-83600000D03*
X152750000Y-86900000D03*
%TD*%
D17*
%TO.C,U3*%
X143200000Y-93780000D03*
X143200000Y-91500000D03*
D18*
X136900000Y-91500000D03*
D17*
X143200000Y-89220000D03*
%TD*%
D39*
%TO.C,U2*%
X133472272Y-113682070D03*
X134037957Y-113116384D03*
X134603643Y-112550699D03*
X135169328Y-111985014D03*
X135735014Y-111419328D03*
X136300699Y-110853643D03*
X136866384Y-110287957D03*
X137432070Y-109722272D03*
D40*
X137432070Y-107777728D03*
X136866384Y-107212043D03*
X136300699Y-106646357D03*
X135735014Y-106080672D03*
X135169328Y-105514986D03*
X134603643Y-104949301D03*
X134037957Y-104383616D03*
X133472272Y-103817930D03*
D39*
X131527728Y-103817930D03*
X130962043Y-104383616D03*
X130396357Y-104949301D03*
X129830672Y-105514986D03*
X129264986Y-106080672D03*
X128699301Y-106646357D03*
X128133616Y-107212043D03*
X127567930Y-107777728D03*
D40*
X127567930Y-109722272D03*
X128133616Y-110287957D03*
X128699301Y-110853643D03*
X129264986Y-111419328D03*
X129830672Y-111985014D03*
X130396357Y-112550699D03*
X130962043Y-113116384D03*
X131527728Y-113682070D03*
%TD*%
D30*
%TO.C,R24*%
X114787500Y-82442500D03*
X116612500Y-82442500D03*
%TD*%
D41*
%TO.C,D12*%
X184825000Y-82165000D03*
X184825000Y-85465000D03*
%TD*%
D29*
%TO.C,R41*%
X186775000Y-97377500D03*
X186775000Y-99202500D03*
%TD*%
D42*
%TO.C,C22*%
X138750000Y-67137500D03*
X138750000Y-68862500D03*
%TD*%
D38*
%TO.C,Q16*%
X147550000Y-72900000D03*
X149450000Y-72900000D03*
X148500000Y-69600000D03*
%TD*%
D43*
%TO.C,U6*%
X177150000Y-99160000D03*
X177150000Y-100430000D03*
X177150000Y-101700000D03*
X177150000Y-102970000D03*
X182400000Y-102970000D03*
X182400000Y-101700000D03*
X182400000Y-100430000D03*
X182400000Y-99160000D03*
%TD*%
D44*
%TO.C,SW5*%
X96050000Y-104150000D03*
D45*
X96050000Y-106690000D03*
X96050000Y-109230000D03*
X96050000Y-111770000D03*
X103670000Y-111770000D03*
X103670000Y-109230000D03*
X103670000Y-106690000D03*
X103670000Y-104150000D03*
%TD*%
D46*
%TO.C,U1*%
X156290000Y-94028000D03*
D47*
X153750000Y-94028000D03*
X151210000Y-94028000D03*
%TD*%
D24*
%TO.C,D5*%
X113625000Y-107500000D03*
X111875000Y-107500000D03*
%TD*%
D48*
%TO.C,J1*%
X166750000Y-61175000D03*
X177750000Y-61175000D03*
D49*
X174750000Y-71175000D03*
D50*
X169750000Y-71175000D03*
%TD*%
D51*
%TO.C,J5*%
X206150000Y-114350000D03*
X206150000Y-113100000D03*
X206150000Y-111850000D03*
X206150000Y-110600000D03*
X206150000Y-109350000D03*
D52*
X209050000Y-116900000D03*
X209050000Y-106800000D03*
%TD*%
D25*
%TO.C,D7*%
X95625000Y-71500000D03*
X97375000Y-71500000D03*
%TD*%
D46*
%TO.C,SW3*%
X113540000Y-120312500D03*
D47*
X111000000Y-120312500D03*
X108460000Y-120312500D03*
%TD*%
D41*
%TO.C,D11*%
X184775000Y-99215000D03*
X184775000Y-95915000D03*
%TD*%
D21*
%TO.C,Q15*%
X147300000Y-67888000D03*
X148250000Y-67888000D03*
X149200000Y-67888000D03*
X149200000Y-65112000D03*
X148250000Y-65112000D03*
X147300000Y-65112000D03*
%TD*%
D32*
%TO.C,R53*%
X140662500Y-65500000D03*
X138837500Y-65500000D03*
%TD*%
D30*
%TO.C,R44*%
X184862500Y-75565000D03*
X186687500Y-75565000D03*
%TD*%
D25*
%TO.C,D10*%
X95625000Y-78250000D03*
X97375000Y-78250000D03*
%TD*%
D53*
%TO.C,C19*%
X183112500Y-73970000D03*
X181387500Y-73970000D03*
%TD*%
D41*
%TO.C,D13*%
X194025000Y-91565000D03*
X194025000Y-94865000D03*
%TD*%
D44*
%TO.C,U5*%
X164975000Y-98390000D03*
D45*
X167515000Y-98390000D03*
X167515000Y-90770000D03*
X164975000Y-90770000D03*
%TD*%
D53*
%TO.C,C18*%
X178612500Y-97340000D03*
X176887500Y-97340000D03*
%TD*%
D24*
%TO.C,D3*%
X113625000Y-105700000D03*
X111875000Y-105700000D03*
%TD*%
D54*
%TO.C,J3*%
X146000000Y-63150000D03*
X144750000Y-63150000D03*
X143500000Y-63150000D03*
X142250000Y-63150000D03*
X141000000Y-63150000D03*
D55*
X148550000Y-60250000D03*
X138450000Y-60250000D03*
%TD*%
D32*
%TO.C,R52*%
X144162500Y-65500000D03*
X142337500Y-65500000D03*
%TD*%
D30*
%TO.C,R25*%
X111287500Y-82442500D03*
X113112500Y-82442500D03*
%TD*%
D48*
%TO.C,J4*%
X208350000Y-83815000D03*
X208350000Y-94815000D03*
D49*
X198350000Y-91815000D03*
D50*
X198350000Y-86815000D03*
%TD*%
D29*
%TO.C,R43*%
X186775000Y-82652500D03*
X186775000Y-84477500D03*
%TD*%
%TO.C,R51*%
X145750000Y-68837500D03*
X145750000Y-70662500D03*
%TD*%
D56*
%TO.C,C13*%
X140400000Y-82500000D03*
X147600000Y-82500000D03*
%TD*%
D41*
%TO.C,D15*%
X194025000Y-89965000D03*
X194025000Y-86665000D03*
%TD*%
D21*
%TO.C,Q5*%
X112900000Y-74554500D03*
X111950000Y-74554500D03*
X111000000Y-74554500D03*
X111000000Y-77330500D03*
X111950000Y-77330500D03*
X112900000Y-77330500D03*
%TD*%
D53*
%TO.C,C10*%
X133362500Y-115750000D03*
X131637500Y-115750000D03*
%TD*%
D41*
%TO.C,D14*%
X194015000Y-103520000D03*
X194015000Y-106820000D03*
%TD*%
D23*
%TO.C,R54*%
X137250000Y-67412500D03*
X137250000Y-65587500D03*
%TD*%
D57*
%TO.C,C15*%
X140775000Y-96000000D03*
X142500000Y-96000000D03*
%TD*%
D29*
%TO.C,R10*%
X154750000Y-105437500D03*
X154750000Y-107262500D03*
%TD*%
D26*
%TO.C,Q12*%
X189225000Y-106228000D03*
X189875000Y-106228000D03*
X190525000Y-106228000D03*
X191175000Y-106228000D03*
D28*
X190525000Y-103078000D03*
X189875000Y-103078000D03*
X191175000Y-103078000D03*
X189225000Y-103078000D03*
D27*
X190200000Y-104328000D03*
%TD*%
D25*
%TO.C,D8*%
X95625000Y-73750000D03*
X97375000Y-73750000D03*
%TD*%
D42*
%TO.C,C4*%
X107000000Y-72137500D03*
X107000000Y-73862500D03*
%TD*%
D58*
%TO.C,C5*%
X160950000Y-101450000D03*
X160950000Y-108650000D03*
%TD*%
D59*
%TO.C,C21*%
X185775000Y-80377500D03*
X185775000Y-77252500D03*
%TD*%
D60*
%TO.C,SW1*%
X95800000Y-117050000D03*
X103800000Y-117050000D03*
X103800000Y-121550000D03*
X95800000Y-121550000D03*
%TD*%
D29*
%TO.C,R49*%
X150750000Y-65587500D03*
X150750000Y-67412500D03*
%TD*%
D26*
%TO.C,Q14*%
X191175000Y-75402000D03*
X190525000Y-75402000D03*
X189875000Y-75402000D03*
X189225000Y-75402000D03*
D28*
X189875000Y-78552000D03*
X191175000Y-78552000D03*
X189225000Y-78552000D03*
D27*
X190200000Y-77302000D03*
D28*
X190525000Y-78552000D03*
%TD*%
D61*
%TO.C,C20*%
X185775000Y-101252500D03*
X185775000Y-104377500D03*
%TD*%
D42*
%TO.C,C23*%
X145750000Y-65475000D03*
X145750000Y-67200000D03*
%TD*%
D23*
%TO.C,R27*%
X118700000Y-76855000D03*
X118700000Y-75030000D03*
%TD*%
D57*
%TO.C,C7*%
X131637500Y-101750000D03*
X133362500Y-101750000D03*
%TD*%
D44*
%TO.C,U4*%
X173775000Y-90790000D03*
D45*
X171235000Y-90790000D03*
X171235000Y-98410000D03*
X173775000Y-98410000D03*
%TD*%
D62*
%TO.C,SW8*%
X100500000Y-60250000D03*
X100500000Y-68250000D03*
X96000000Y-60250000D03*
X96000000Y-68250000D03*
%TD*%
D63*
%TO.C,C12*%
X111450000Y-79692500D03*
X116450000Y-79692500D03*
%TD*%
D41*
%TO.C,D16*%
X194015000Y-78170000D03*
X194015000Y-74870000D03*
%TD*%
D64*
%TO.C,SW9*%
X133750000Y-60240000D03*
D47*
X133750000Y-62780000D03*
X133750000Y-65320000D03*
%TD*%
D26*
%TO.C,Q13*%
X191175000Y-84915000D03*
X190525000Y-84915000D03*
X189875000Y-84915000D03*
X189225000Y-84915000D03*
D28*
X189875000Y-88065000D03*
X189225000Y-88065000D03*
D27*
X190200000Y-86815000D03*
D28*
X190525000Y-88065000D03*
X191175000Y-88065000D03*
%TD*%
D65*
%TO.C,C9*%
X136259880Y-113540120D03*
X135040120Y-114759880D03*
%TD*%
D46*
%TO.C,SW2*%
X113530000Y-115650000D03*
D47*
X110990000Y-115650000D03*
X108450000Y-115650000D03*
%TD*%
D53*
%TO.C,C14*%
X138612500Y-84750000D03*
X136887500Y-84750000D03*
%TD*%
D46*
%TO.C,SW7*%
X113540000Y-110900000D03*
D47*
X111000000Y-110900000D03*
X108460000Y-110900000D03*
%TD*%
D30*
%TO.C,R46*%
X184862500Y-108220000D03*
X186687500Y-108220000D03*
%TD*%
D23*
%TO.C,R22*%
X155750000Y-90912500D03*
X155750000Y-89087500D03*
%TD*%
D66*
%TO.C,Q3*%
X181275000Y-83890000D03*
D67*
X178995000Y-90190000D03*
D66*
X178995000Y-83890000D03*
X176715000Y-83890000D03*
%TD*%
D29*
%TO.C,R9*%
X154750000Y-101937500D03*
X154750000Y-103762500D03*
%TD*%
%TO.C,R50*%
X145750000Y-72337500D03*
X145750000Y-74162500D03*
%TD*%
D30*
%TO.C,R42*%
X184862500Y-106565000D03*
X186687500Y-106565000D03*
%TD*%
D68*
%TO.C,U7*%
X182680000Y-75940000D03*
X181410000Y-75940000D03*
X180140000Y-75940000D03*
X178870000Y-75940000D03*
X178870000Y-81190000D03*
X180140000Y-81190000D03*
X181410000Y-81190000D03*
X182680000Y-81190000D03*
%TD*%
D69*
%TO.C,Q4*%
X150350000Y-89050000D03*
X150350000Y-90950000D03*
X153650000Y-90000000D03*
%TD*%
M02*
