M48
; DRILL file {KiCad (6.0.11)} date Thu Aug  3 06:57:10 2023
; FORMAT={-:-/ absolute / metric / decimal}
; #@! TF.CreationDate,2023-08-03T06:57:10+09:00
; #@! TF.GenerationSoftware,Kicad,Pcbnew,(6.0.11)
; #@! TF.FileFunction,MixedPlating,1,2
FMAT,2
METRIC
; #@! TA.AperFunction,Plated,PTH,ViaDrill
T1C0.300
; #@! TA.AperFunction,Plated,PTH,ViaDrill
T2C0.400
; #@! TA.AperFunction,Plated,PTH,ViaDrill
T3C0.600
; #@! TA.AperFunction,Plated,PTH,ComponentDrill
T4C0.600
; #@! TA.AperFunction,Plated,PTH,ComponentDrill
T5C0.762
; #@! TA.AperFunction,Plated,PTH,ComponentDrill
T6C0.800
; #@! TA.AperFunction,Plated,PTH,ComponentDrill
T7C1.000
; #@! TA.AperFunction,Plated,PTH,ComponentDrill
T8C1.100
; #@! TA.AperFunction,Plated,PTH,ComponentDrill
T9C1.900
%
G90
G05
T1
X104.65Y-105.35
X105.35Y-122.55
X106.299Y-93.95
X106.299Y-95.05
X106.299Y-96.15
X106.299Y-97.05
X107.05Y-122.55
X107.373Y-92.574
X107.951Y-93.126
X108.519Y-93.72
X108.95Y-122.55
X109.084Y-94.285
X109.65Y-94.85
X110.05Y-123.35
X112.15Y-113.85
X112.15Y-114.55
X113.225Y-73.275
X113.35Y-114.15
X113.63Y-78.3
X114.55Y-112.45
X114.85Y-119.95
X115.024Y-92.05
X115.024Y-92.85
X115.398Y-93.589
X116.09Y-94.226
X116.655Y-94.85
X116.75Y-118.05
X117.55Y-108.15
X117.65Y-110.05
X118.75Y-116.05
X119.35Y-108.25
X119.45Y-110.05
X120.105Y-92.237
X120.25Y-114.55
X120.435Y-92.965
X120.85Y-108.25
X120.95Y-110.05
X121.15Y-93.601
X121.75Y-94.226
X122.321Y-94.85
X122.55Y-73.531
X122.55Y-110.05
X122.65Y-112.15
X123.65Y-108.25
X124.35Y-112.65
X124.55Y-64.45
X124.55Y-108.25
X125.35Y-109.95
X125.95Y-63.25
X126.05Y-112.65
X126.131Y-109.169
X126.45Y-91.45
X126.55Y-101.15
X127.05Y-62.05
X127.15Y-64.35
X127.75Y-102.35
X127.75Y-112.65
X128.65Y-106.65
X128.95Y-108.85
X129.15Y-103.75
X130.15Y-107.55
X130.25Y-62.75
X130.35Y-63.55
X130.65Y-110.35
X130.65Y-113.45
X130.75Y-108.85
X130.95Y-62.45
X131.28Y-105.84
X131.45Y-63.05
X131.45Y-107.55
X131.65Y-113.85
X132.15Y-62.35
X132.2Y-63.5
X132.25Y-110.35
X132.25Y-114.45
X132.45Y-112.35
X132.55Y-108.85
X132.65Y-107.55
X133.45Y-105.55
X133.65Y-110.35
X133.85Y-108.75
X134.005Y-106.495
X134.55Y-102.625
X134.95Y-107.35
X134.95Y-109.85
X135.05Y-65.65
X135.25Y-62.55
X135.35Y-102.625
X136.149Y-102.625
X136.15Y-108.55
X136.35Y-64.95
X136.45Y-62.55
X136.5Y-69.0
X136.893Y-111.406
X136.949Y-102.625
X137.432Y-107.778
X137.5Y-69.0
X137.55Y-110.95
X137.748Y-102.625
X138.25Y-63.25
X138.25Y-108.75
X138.548Y-102.625
X138.55Y-65.05
X138.65Y-65.65
X138.85Y-111.05
X139.05Y-63.25
X139.15Y-65.25
X139.45Y-104.15
X139.45Y-105.45
X139.45Y-107.35
X139.45Y-110.15
X139.55Y-102.15
X139.85Y-63.25
X141.75Y-111.95
X149.25Y-65.0
X149.675Y-65.587
X150.0Y-65.0
X161.75Y-89.75
X163.75Y-89.75
X176.0Y-109.7
X178.05Y-80.05
X178.75Y-78.5
X179.85Y-98.35
X179.95Y-77.35
X180.0Y-79.75
X180.745Y-97.745
X181.25Y-78.5
X182.15Y-96.34
X183.3Y-103.84
X183.642Y-96.598
X183.875Y-104.815
X184.6Y-105.54
X185.3Y-102.64
X185.85Y-83.85
X186.25Y-96.34
X187.0Y-102.64
X187.85Y-105.99
X187.85Y-106.64
X187.905Y-96.595
X188.05Y-99.45
X188.05Y-100.29
X188.05Y-101.49
X188.1Y-107.24
X188.45Y-106.04
X188.45Y-106.64
X188.7Y-107.44
X189.05Y-106.89
X189.1Y-106.19
X189.4Y-107.44
X189.43Y-87.05
X189.475Y-87.675
X189.494Y-86.456
X189.53Y-94.15
X189.54Y-95.44
X189.542Y-94.828
X189.65Y-106.74
X189.8Y-106.14
X190.0Y-107.24
X190.087Y-87.05
X190.12Y-86.43
X190.12Y-87.7
X190.162Y-94.828
X190.2Y-94.14
X190.2Y-95.44
X190.4Y-106.19
X190.4Y-106.79
X190.71Y-87.05
X190.729Y-86.409
X190.74Y-87.78
X190.785Y-94.805
X190.785Y-95.415
X190.849Y-94.179
X204.35Y-112.95
X204.95Y-112.95
X205.55Y-112.95
X206.15Y-112.95
X206.75Y-112.95
T2
X88.15Y-58.35
X88.25Y-61.25
X88.25Y-63.25
X88.25Y-66.25
X88.25Y-69.25
X88.25Y-72.25
X88.25Y-75.25
X88.25Y-78.25
X88.25Y-81.25
X88.25Y-84.25
X88.25Y-87.25
X88.25Y-90.25
X88.25Y-93.25
X88.25Y-96.25
X88.25Y-99.25
X88.25Y-102.25
X88.25Y-105.25
X88.25Y-108.25
X88.25Y-111.25
X88.25Y-114.25
X88.25Y-117.25
X88.25Y-120.25
X88.25Y-123.25
X88.25Y-126.25
X90.75Y-58.25
X90.75Y-63.25
X90.75Y-66.25
X90.75Y-69.25
X90.75Y-72.25
X90.75Y-75.25
X90.75Y-78.25
X90.75Y-81.25
X90.75Y-84.25
X90.75Y-87.25
X90.75Y-90.25
X90.75Y-93.25
X90.75Y-96.25
X90.75Y-99.25
X90.75Y-102.25
X90.75Y-105.25
X90.75Y-108.25
X90.75Y-111.25
X90.75Y-114.25
X90.75Y-117.25
X90.75Y-120.25
X90.75Y-126.25
X91.75Y-122.75
X92.25Y-61.25
X92.75Y-102.25
X92.75Y-105.25
X92.75Y-108.25
X93.75Y-58.25
X93.75Y-60.25
X93.75Y-63.25
X93.75Y-66.25
X93.75Y-69.25
X93.75Y-72.25
X93.75Y-75.25
X93.75Y-78.25
X93.75Y-81.25
X93.75Y-84.25
X93.75Y-87.25
X93.75Y-90.25
X93.75Y-93.25
X93.75Y-96.25
X93.75Y-99.25
X93.75Y-111.25
X93.75Y-114.25
X93.75Y-117.25
X93.75Y-120.25
X93.75Y-123.25
X93.75Y-126.25
X96.75Y-58.25
X96.75Y-60.25
X96.75Y-63.25
X96.75Y-66.25
X96.75Y-69.25
X96.75Y-81.25
X96.75Y-84.25
X96.75Y-87.25
X96.75Y-90.25
X96.75Y-93.25
X96.75Y-96.25
X96.75Y-99.25
X96.75Y-114.25
X96.75Y-123.25
X96.75Y-126.25
X97.25Y-115.75
X97.25Y-118.25
X97.25Y-120.25
X97.35Y-107.95
X97.45Y-110.45
X97.45Y-112.85
X97.65Y-105.45
X98.25Y-65.162
X98.25Y-69.25
X98.75Y-60.25
X98.938Y-118.4
X99.175Y-73.75
X99.175Y-76.0
X99.175Y-78.25
X99.175Y-71.5
X99.25Y-64.25
X99.25Y-66.75
X99.25Y-70.25
X99.25Y-79.75
X99.25Y-82.75
X99.55Y-98.95
X99.75Y-58.25
X99.75Y-62.25
X99.75Y-87.25
X99.75Y-90.25
X99.75Y-93.25
X99.75Y-96.25
X99.75Y-114.25
X99.75Y-115.75
X99.75Y-123.25
X99.75Y-126.25
X99.95Y-72.65
X100.15Y-74.85
X100.15Y-77.05
X100.736Y-118.464
X100.75Y-70.25
X100.75Y-120.25
X101.0Y-78.25
X101.0Y-71.5
X101.25Y-115.75
X101.75Y-65.75
X101.75Y-79.75
X101.75Y-82.75
X101.75Y-85.75
X101.75Y-103.25
X102.15Y-71.25
X102.15Y-77.05
X102.25Y-68.25
X102.25Y-105.45
X102.25Y-107.95
X102.25Y-114.25
X102.35Y-110.45
X102.65Y-95.95
X102.75Y-58.25
X102.75Y-61.25
X102.75Y-63.25
X102.75Y-90.25
X102.75Y-93.25
X102.75Y-118.75
X102.75Y-124.25
X102.75Y-126.25
X102.95Y-73.25
X103.25Y-67.25
X103.35Y-77.25
X103.75Y-74.75
X104.05Y-119.85
X104.25Y-68.25
X104.25Y-69.75
X104.25Y-72.0
X104.25Y-73.25
X104.25Y-79.75
X104.25Y-82.75
X104.25Y-85.75
X104.25Y-88.75
X104.25Y-94.25
X104.25Y-100.75
X104.35Y-91.95
X104.5Y-75.75
X104.95Y-115.35
X105.05Y-110.55
X105.05Y-112.95
X105.15Y-107.65
X105.55Y-68.2
X105.55Y-89.65
X105.55Y-117.85
X105.75Y-58.25
X105.75Y-61.25
X105.75Y-64.25
X105.75Y-66.25
X105.75Y-124.25
X105.75Y-126.25
X106.55Y-120.25
X106.75Y-81.25
X106.75Y-84.25
X106.75Y-87.25
X106.85Y-91.25
X106.85Y-100.15
X106.85Y-103.05
X106.88Y-75.88
X106.94Y-73.78
X106.95Y-106.05
X107.05Y-109.55
X107.05Y-114.35
X107.25Y-112.35
X107.55Y-97.65
X107.85Y-117.95
X108.19Y-77.54
X108.337Y-103.95
X108.337Y-105.7
X108.337Y-107.5
X108.75Y-58.25
X108.75Y-61.25
X108.75Y-64.25
X108.75Y-83.25
X108.75Y-87.25
X108.75Y-124.25
X108.75Y-126.25
X108.89Y-79.67
X108.95Y-90.85
X109.25Y-97.05
X109.45Y-99.75
X109.45Y-102.55
X109.75Y-112.25
X109.75Y-114.25
X109.75Y-116.85
X109.75Y-118.85
X110.05Y-109.25
X110.325Y-86.325
X111.0Y-74.554
X111.15Y-102.05
X111.35Y-98.85
X111.45Y-95.95
X111.455Y-82.275
X111.55Y-85.85
X111.55Y-87.25
X111.55Y-122.25
X111.65Y-90.65
X111.75Y-58.25
X111.75Y-61.25
X111.75Y-64.25
X111.75Y-124.25
X111.75Y-126.25
X111.875Y-103.95
X111.875Y-105.7
X111.875Y-107.5
X112.75Y-108.75
X112.95Y-97.35
X113.05Y-80.91
X113.15Y-85.9
X113.15Y-90.75
X113.25Y-87.35
X113.25Y-100.85
X113.5Y-79.5
X113.55Y-104.05
X113.65Y-105.65
X113.65Y-107.55
X113.85Y-96.35
X114.4Y-86.55
X114.45Y-98.85
X114.65Y-117.45
X114.75Y-58.25
X114.75Y-61.25
X114.75Y-64.25
X114.75Y-108.65
X114.75Y-123.25
X114.75Y-126.25
X115.15Y-102.65
X115.35Y-78.45
X115.35Y-96.05
X115.38Y-81.11
X115.55Y-106.15
X115.55Y-114.85
X115.65Y-110.75
X115.75Y-85.85
X115.95Y-98.55
X116.05Y-88.05
X116.25Y-90.95
X116.25Y-100.25
X116.25Y-115.75
X116.45Y-97.15
X117.05Y-104.55
X117.75Y-58.25
X117.75Y-61.25
X117.75Y-64.25
X117.75Y-120.25
X117.75Y-123.25
X117.75Y-126.25
X118.05Y-114.55
X118.22Y-72.97
X118.285Y-70.805
X118.35Y-102.55
X118.49Y-80.85
X118.53Y-78.91
X118.55Y-82.75
X118.55Y-85.85
X118.55Y-88.05
X118.55Y-90.95
X118.55Y-111.95
X118.58Y-76.94
X118.65Y-96.05
X118.75Y-99.25
X118.75Y-106.25
X120.15Y-100.75
X120.35Y-97.75
X120.35Y-104.35
X120.55Y-91.15
X120.55Y-111.95
X120.75Y-58.25
X120.75Y-61.25
X120.75Y-64.25
X120.75Y-88.95
X120.75Y-117.25
X120.75Y-120.25
X120.75Y-123.25
X120.75Y-126.25
X120.85Y-95.95
X120.89Y-80.73
X120.91Y-78.91
X121.0Y-76.99
X121.02Y-73.09
X121.05Y-85.85
X121.06Y-70.77
X121.15Y-82.75
X121.39Y-69.3
X121.75Y-87.25
X121.95Y-102.55
X121.95Y-106.05
X122.45Y-91.25
X122.65Y-97.75
X122.65Y-99.85
X122.75Y-89.25
X122.75Y-114.75
X123.5Y-84.0
X123.55Y-95.65
X123.65Y-85.85
X123.75Y-58.25
X123.75Y-61.25
X123.75Y-69.25
X123.75Y-72.25
X123.75Y-117.25
X123.75Y-120.25
X123.75Y-123.25
X123.75Y-126.25
X123.85Y-104.55
X123.9Y-77.07
X123.92Y-80.0
X123.98Y-82.54
X124.35Y-89.95
X124.35Y-90.95
X124.45Y-99.55
X124.55Y-86.75
X124.55Y-95.65
X124.55Y-96.65
X124.55Y-102.05
X125.25Y-114.75
X125.25Y-117.25
X125.65Y-106.25
X125.823Y-108.075
X126.25Y-103.75
X126.41Y-84.67
X126.75Y-58.25
X126.75Y-69.25
X126.75Y-72.25
X126.75Y-96.15
X126.75Y-98.75
X126.75Y-120.25
X126.75Y-123.25
X126.75Y-126.25
X126.85Y-89.25
X126.89Y-77.04
X126.94Y-79.97
X127.75Y-105.15
X127.75Y-115.75
X128.12Y-82.75
X128.15Y-86.55
X128.25Y-117.75
X128.75Y-91.15
X128.75Y-114.75
X128.85Y-98.35
X128.85Y-100.95
X129.75Y-69.25
X129.75Y-72.25
X129.75Y-123.25
X129.75Y-126.25
X129.8Y-84.67
X129.95Y-88.55
X130.25Y-117.75
X130.27Y-77.04
X130.32Y-80.55
X130.75Y-82.25
X130.95Y-93.25
X130.95Y-100.55
X131.45Y-90.05
X131.75Y-115.75
X131.75Y-120.75
X131.86Y-86.3
X132.17Y-82.61
X132.5Y-104.754
X132.62Y-78.35
X132.75Y-69.25
X132.75Y-72.25
X132.75Y-87.25
X132.75Y-95.05
X132.75Y-102.75
X132.75Y-119.75
X132.75Y-124.75
X132.75Y-126.25
X132.85Y-88.65
X132.85Y-91.35
X133.59Y-122.05
X134.04Y-84.4
X134.25Y-117.75
X134.533Y-111.338
X134.54Y-80.21
X135.25Y-114.75
X135.75Y-72.25
X135.75Y-75.25
X135.75Y-124.75
X135.75Y-126.25
X136.5Y-81.86
X136.75Y-99.25
X136.75Y-114.75
X136.75Y-117.75
X136.75Y-119.75
X136.8Y-122.33
X137.25Y-73.75
X137.43Y-77.05
X137.502Y-109.674
X137.75Y-100.25
X138.75Y-69.0
X138.75Y-71.0
X138.75Y-99.25
X138.75Y-100.25
X138.75Y-101.25
X138.75Y-124.75
X138.75Y-126.25
X139.09Y-78.77
X139.16Y-75.97
X139.25Y-71.75
X139.75Y-116.75
X139.75Y-119.99
X139.8Y-122.33
X140.25Y-72.75
X140.75Y-58.25
X140.75Y-70.5
X141.25Y-80.5
X141.29Y-76.85
X141.5Y-69.25
X141.75Y-114.75
X141.75Y-124.75
X141.75Y-126.25
X142.25Y-71.0
X142.25Y-100.25
X142.25Y-102.25
X142.25Y-104.75
X142.25Y-107.75
X142.25Y-109.75
X142.75Y-95.75
X142.75Y-97.75
X142.75Y-119.99
X142.8Y-122.33
X143.0Y-78.75
X143.0Y-80.75
X143.178Y-64.54
X143.75Y-58.25
X143.75Y-61.25
X143.75Y-114.75
X143.85Y-111.35
X144.0Y-69.25
X144.25Y-107.75
X144.25Y-117.25
X144.5Y-78.5
X144.5Y-82.75
X144.65Y-92.8
X144.75Y-76.75
X144.75Y-80.5
X144.75Y-124.75
X144.75Y-126.25
X145.25Y-100.25
X145.25Y-102.25
X145.25Y-104.75
X145.75Y-70.5
X145.75Y-74.162
X145.75Y-95.75
X145.75Y-97.75
X145.75Y-119.99
X145.8Y-122.33
X146.25Y-63.25
X146.25Y-76.75
X146.25Y-78.5
X146.25Y-83.0
X146.25Y-117.25
X146.5Y-80.5
X146.75Y-58.25
X146.75Y-61.25
X147.0Y-71.0
X147.25Y-104.75
X147.25Y-109.25
X147.25Y-111.25
X147.25Y-114.75
X147.75Y-124.75
X147.75Y-126.25
X147.85Y-63.35
X148.25Y-95.75
X148.25Y-97.75
X148.25Y-100.25
X148.25Y-102.25
X148.5Y-71.25
X148.75Y-119.99
X148.8Y-122.33
X149.12Y-104.09
X149.12Y-105.73
X149.25Y-76.25
X149.25Y-78.25
X149.25Y-80.25
X149.25Y-82.75
X149.25Y-115.25
X149.75Y-63.25
X149.75Y-95.75
X149.75Y-97.75
X149.75Y-107.75
X149.75Y-109.25
X149.75Y-111.25
X149.94Y-117.82
X150.0Y-69.0
X150.0Y-71.0
X150.0Y-85.5
X150.75Y-58.25
X150.75Y-61.25
X150.75Y-67.412
X150.75Y-72.25
X150.75Y-124.75
X150.75Y-126.25
X151.0Y-74.25
X151.25Y-69.5
X151.25Y-85.5
X151.25Y-100.25
X151.25Y-102.25
X151.28Y-104.03
X151.28Y-105.7
X151.75Y-90.0
X151.75Y-115.25
X151.75Y-119.99
X151.8Y-122.33
X152.0Y-76.0
X152.0Y-80.5
X152.25Y-63.75
X152.25Y-78.25
X152.25Y-107.75
X152.25Y-109.25
X152.25Y-111.25
X152.75Y-85.25
X152.75Y-96.25
X152.75Y-98.25
X153.25Y-72.5
X153.25Y-74.25
X153.25Y-102.25
X153.27Y-105.72
X153.51Y-117.86
X153.54Y-104.04
X153.75Y-58.25
X153.75Y-61.25
X153.75Y-63.25
X153.75Y-65.75
X153.75Y-69.0
X153.75Y-91.25
X153.75Y-92.25
X153.75Y-124.75
X153.75Y-126.25
X154.75Y-96.75
X154.75Y-98.75
X154.75Y-100.25
X154.75Y-107.75
X154.75Y-109.25
X154.75Y-111.25
X154.75Y-115.25
X154.75Y-119.99
X154.8Y-122.33
X155.0Y-71.0
X155.0Y-76.25
X155.0Y-78.5
X155.25Y-66.25
X155.25Y-74.5
X155.25Y-80.5
X155.75Y-64.75
X155.75Y-84.75
X155.75Y-86.0
X155.75Y-87.75
X156.05Y-102.35
X156.25Y-104.75
X156.68Y-117.82
X156.75Y-58.25
X156.75Y-90.25
X156.75Y-92.25
X156.75Y-124.75
X156.75Y-126.25
X157.75Y-79.25
X157.75Y-100.25
X157.75Y-107.75
X157.75Y-109.25
X157.75Y-111.25
X157.75Y-115.25
X157.75Y-119.99
X157.8Y-122.33
X158.0Y-83.25
X158.15Y-102.25
X158.25Y-77.75
X158.25Y-104.75
X158.612Y-88.112
X158.75Y-92.25
X159.25Y-66.75
X159.25Y-69.25
X159.75Y-58.25
X159.75Y-61.25
X159.75Y-63.25
X159.75Y-89.25
X159.75Y-124.75
X159.75Y-126.25
X159.97Y-117.83
X160.75Y-105.0
X160.75Y-107.75
X160.75Y-109.25
X160.75Y-111.25
X160.75Y-115.25
X160.75Y-119.99
X160.8Y-122.33
X160.838Y-90.75
X160.838Y-92.25
X162.75Y-58.25
X162.75Y-61.25
X162.75Y-63.25
X162.75Y-66.25
X162.75Y-68.25
X162.75Y-104.5
X162.75Y-124.75
X162.75Y-126.25
X163.07Y-117.85
X163.25Y-109.5
X163.25Y-111.25
X163.5Y-107.75
X163.75Y-115.25
X163.75Y-119.99
X163.8Y-122.33
X164.75Y-101.75
X164.75Y-105.25
X165.5Y-109.5
X165.5Y-111.25
X165.75Y-58.25
X165.75Y-63.25
X165.75Y-66.25
X165.75Y-68.25
X165.75Y-108.25
X165.75Y-124.75
X165.75Y-126.25
X166.4Y-117.85
X166.75Y-115.25
X166.75Y-119.99
X166.8Y-122.33
X167.75Y-105.0
X167.75Y-108.75
X168.0Y-101.5
X168.75Y-58.25
X168.75Y-61.25
X168.75Y-63.25
X168.75Y-66.25
X168.75Y-68.25
X168.75Y-124.75
X168.75Y-126.25
X169.0Y-102.0
X169.25Y-91.75
X169.5Y-105.5
X169.75Y-111.25
X169.75Y-115.25
X169.75Y-119.99
X169.78Y-117.83
X169.8Y-122.33
X170.0Y-101.5
X170.5Y-104.0
X171.25Y-109.75
X171.75Y-58.25
X171.75Y-61.25
X171.75Y-63.25
X171.75Y-66.25
X171.75Y-68.75
X171.75Y-124.75
X171.75Y-126.25
X172.0Y-111.5
X172.25Y-104.5
X172.74Y-117.77
X172.75Y-92.25
X172.75Y-108.25
X172.75Y-119.99
X172.8Y-122.33
X173.25Y-79.34
X173.5Y-73.5
X173.5Y-75.25
X173.5Y-100.25
X173.5Y-110.0
X173.75Y-78.34
X173.75Y-88.75
X174.0Y-77.0
X174.25Y-111.5
X174.75Y-58.25
X174.75Y-61.25
X174.75Y-63.25
X174.75Y-66.25
X174.75Y-68.75
X174.75Y-87.75
X174.75Y-108.25
X174.75Y-124.75
X174.75Y-126.25
X175.25Y-78.59
X175.25Y-90.25
X175.523Y-77.613
X175.74Y-117.77
X175.75Y-114.75
X175.75Y-119.99
X175.8Y-122.33
X176.0Y-73.5
X176.0Y-75.25
X176.75Y-78.25
X176.75Y-83.855
X176.85Y-97.4
X177.0Y-103.0
X177.0Y-105.25
X177.0Y-108.5
X177.0Y-111.5
X177.447Y-83.302
X177.75Y-58.25
X177.75Y-63.25
X177.75Y-66.25
X177.75Y-69.25
X177.75Y-72.25
X177.75Y-77.25
X177.75Y-124.75
X177.75Y-126.25
X178.74Y-117.77
X178.75Y-76.25
X178.75Y-99.75
X178.75Y-102.25
X178.75Y-105.25
X178.75Y-108.25
X178.75Y-111.25
X178.75Y-114.75
X178.75Y-119.99
X178.8Y-122.33
X179.5Y-73.5
X180.5Y-100.75
X180.5Y-102.25
X180.75Y-58.25
X180.75Y-61.25
X180.75Y-63.25
X180.75Y-66.25
X180.75Y-69.25
X180.75Y-72.25
X180.75Y-124.75
X180.75Y-126.25
X181.25Y-74.0
X181.25Y-105.25
X181.429Y-83.256
X181.5Y-84.5
X181.74Y-117.77
X181.75Y-108.25
X181.75Y-111.25
X181.75Y-114.75
X181.75Y-119.99
X181.8Y-122.33
X183.05Y-84.25
X183.75Y-58.25
X183.75Y-61.25
X183.75Y-63.25
X183.75Y-66.25
X183.75Y-69.25
X183.75Y-72.25
X183.75Y-124.75
X183.75Y-126.25
X184.74Y-117.77
X184.75Y-108.25
X184.75Y-111.25
X184.75Y-114.75
X184.75Y-119.99
X184.8Y-122.33
X184.83Y-110.35
X184.91Y-109.22
X185.0Y-74.0
X185.72Y-111.41
X185.84Y-110.5
X185.89Y-109.58
X185.965Y-98.47
X186.525Y-106.565
X186.57Y-111.46
X186.72Y-110.5
X186.75Y-58.25
X186.75Y-61.25
X186.75Y-63.25
X186.75Y-66.25
X186.75Y-69.25
X186.75Y-72.25
X186.75Y-124.75
X186.75Y-126.25
X186.775Y-99.203
X186.79Y-109.61
X186.965Y-107.22
X187.42Y-111.41
X187.5Y-72.75
X187.77Y-110.48
X187.8Y-109.44
X188.0Y-80.0
X188.0Y-81.5
X188.0Y-83.25
X188.24Y-117.77
X188.25Y-72.45
X188.25Y-111.25
X188.25Y-114.75
X188.25Y-119.99
X188.3Y-122.33
X188.68Y-109.44
X188.76Y-110.45
X188.787Y-84.477
X188.8Y-73.25
X189.07Y-111.44
X189.1Y-72.35
X189.5Y-74.0
X189.57Y-109.44
X189.65Y-73.15
X189.71Y-110.38
X189.75Y-58.25
X189.75Y-61.25
X189.75Y-63.25
X189.75Y-66.25
X189.75Y-69.25
X189.75Y-124.75
X189.75Y-126.25
X189.9Y-111.42
X190.0Y-72.35
X190.1Y-74.6
X190.174Y-83.51
X190.25Y-75.4
X190.3Y-73.8
X190.5Y-73.0
X190.5Y-109.45
X190.74Y-111.51
X190.88Y-110.38
X190.9Y-74.6
X190.95Y-72.25
X191.05Y-75.45
X191.15Y-73.8
X191.21Y-108.99
X191.275Y-107.065
X191.325Y-96.565
X191.37Y-98.315
X191.5Y-73.0
X191.62Y-109.98
X191.74Y-117.77
X191.75Y-74.6
X191.75Y-108.25
X191.75Y-111.25
X191.75Y-114.75
X191.75Y-119.99
X191.8Y-122.33
X191.9Y-75.45
X192.0Y-73.8
X192.0Y-106.228
X192.051Y-96.216
X192.2Y-109.29
X192.54Y-110.48
X192.6Y-74.6
X192.61Y-111.49
X192.65Y-107.57
X192.7Y-75.4
X192.75Y-58.25
X192.75Y-61.25
X192.75Y-63.25
X192.75Y-66.25
X192.75Y-69.25
X192.75Y-72.25
X192.75Y-124.75
X192.75Y-126.25
X192.84Y-108.57
X193.07Y-109.65
X193.27Y-110.99
X193.35Y-117.65
X193.41Y-106.41
X193.57Y-107.37
X193.59Y-108.27
X193.6Y-75.35
X194.05Y-109.18
X194.14Y-110.25
X194.45Y-107.18
X194.65Y-119.95
X194.75Y-88.75
X194.75Y-106.25
X194.75Y-108.25
X194.75Y-111.25
X194.75Y-114.75
X195.3Y-122.33
X195.5Y-90.75
X195.75Y-58.25
X195.75Y-61.25
X195.75Y-63.25
X195.75Y-66.25
X195.75Y-69.25
X195.75Y-72.25
X195.75Y-75.25
X195.75Y-124.75
X195.75Y-126.25
X196.5Y-89.0
X196.55Y-114.55
X196.75Y-117.75
X197.72Y-122.26
X197.75Y-106.25
X197.75Y-108.25
X197.75Y-111.25
X197.85Y-120.25
X198.75Y-58.25
X198.75Y-61.25
X198.75Y-63.25
X198.75Y-66.25
X198.75Y-69.25
X198.75Y-72.25
X198.75Y-75.25
X198.75Y-124.75
X198.75Y-126.25
X199.45Y-111.35
X199.75Y-89.0
X200.25Y-114.55
X200.35Y-117.65
X200.75Y-105.25
X200.75Y-108.25
X201.05Y-120.15
X201.75Y-58.25
X201.75Y-61.25
X201.75Y-63.25
X201.75Y-66.25
X201.75Y-69.25
X201.75Y-72.25
X201.75Y-75.25
X201.75Y-78.25
X201.75Y-81.25
X201.75Y-84.25
X201.75Y-87.25
X201.75Y-90.25
X201.75Y-93.25
X201.75Y-96.25
X201.75Y-99.25
X201.75Y-102.25
X201.75Y-124.75
X201.75Y-126.25
X202.35Y-122.35
X202.85Y-111.55
X203.55Y-114.35
X203.55Y-117.55
X203.75Y-105.25
X203.75Y-108.25
X204.15Y-110.55
X204.75Y-58.25
X204.75Y-61.25
X204.75Y-63.25
X204.75Y-66.25
X204.75Y-69.25
X204.75Y-72.25
X204.75Y-75.25
X204.75Y-78.25
X204.75Y-81.25
X204.75Y-84.25
X204.75Y-87.25
X204.75Y-90.25
X204.75Y-93.25
X204.75Y-96.25
X204.75Y-99.25
X204.75Y-102.25
X204.75Y-126.25
X204.95Y-122.45
X206.15Y-109.35
X206.35Y-114.35
X206.55Y-107.85
X206.65Y-118.35
X206.75Y-105.25
X207.35Y-61.25
X207.75Y-58.25
X207.75Y-63.25
X207.75Y-66.25
X207.75Y-69.25
X207.75Y-72.25
X207.75Y-75.25
X207.75Y-78.25
X207.75Y-81.25
X207.75Y-87.25
X207.75Y-90.25
X207.75Y-93.25
X207.75Y-96.25
X207.75Y-99.25
X207.75Y-102.25
X207.75Y-122.45
X207.75Y-126.25
X207.95Y-108.85
X207.95Y-111.45
X208.25Y-118.75
X208.55Y-114.95
X210.75Y-58.25
X210.75Y-63.25
X210.75Y-66.25
X210.75Y-69.25
X210.75Y-72.25
X210.75Y-75.25
X210.75Y-78.25
X210.75Y-81.25
X210.75Y-84.25
X210.75Y-87.25
X210.75Y-90.25
X210.75Y-93.25
X210.75Y-96.25
X210.75Y-99.25
X210.75Y-102.25
X210.75Y-113.25
X210.75Y-119.25
X210.75Y-126.25
X210.95Y-122.55
X211.05Y-105.05
X211.05Y-108.75
X211.15Y-61.35
T3
X103.8Y-121.55
X130.75Y-65.5
X131.75Y-65.5
X133.69Y-116.077
X142.0Y-91.5
X143.2Y-91.5
X147.825Y-75.325
X148.575Y-74.575
X173.888Y-103.412
X173.888Y-105.121
X182.525Y-75.065
X182.525Y-76.065
X184.825Y-85.465
X185.68Y-86.32
X200.975Y-113.025
X202.25Y-112.95
T4
X108.45Y-115.65
X108.46Y-110.9
X108.46Y-120.312
X110.99Y-115.65
X111.0Y-110.9
X111.0Y-120.312
X113.53Y-115.65
X113.54Y-110.9
X113.54Y-120.312
X133.75Y-60.24
X133.75Y-62.78
X133.75Y-65.32
T5
X151.21Y-94.028
X153.75Y-94.028
X156.29Y-94.028
T6
X96.05Y-104.15
X96.05Y-106.69
X96.05Y-109.23
X96.05Y-111.77
X103.67Y-104.15
X103.67Y-106.69
X103.67Y-109.23
X103.67Y-111.77
X111.45Y-79.692
X116.45Y-79.692
X164.975Y-90.77
X164.975Y-98.39
X167.515Y-90.77
X167.515Y-98.39
X171.235Y-90.79
X171.235Y-98.41
X173.775Y-90.79
X173.775Y-98.41
T7
X109.32Y-69.55
X109.32Y-72.09
X111.86Y-69.55
X111.86Y-72.09
X114.4Y-69.55
X114.4Y-72.09
X116.94Y-69.55
X116.94Y-72.09
X119.48Y-69.55
X119.48Y-72.09
X128.75Y-61.25
X128.75Y-63.79
X166.75Y-61.175
X177.75Y-61.175
X208.35Y-83.815
X208.35Y-94.815
T8
X157.5Y-60.67
X157.5Y-63.21
X157.5Y-65.75
X157.5Y-68.29
X157.5Y-70.83
T9
X169.75Y-71.175
X174.75Y-71.175
X198.35Y-86.815
X198.35Y-91.815
T0
M30
