%TF.GenerationSoftware,KiCad,Pcbnew,(6.0.11)*%
%TF.CreationDate,2023-12-12T02:53:40+09:00*%
%TF.ProjectId,Common_Control,436f6d6d-6f6e-45f4-936f-6e74726f6c2e,rev?*%
%TF.SameCoordinates,Original*%
%TF.FileFunction,Legend,Top*%
%TF.FilePolarity,Positive*%
%FSLAX46Y46*%
G04 Gerber Fmt 4.6, Leading zero omitted, Abs format (unit mm)*
G04 Created by KiCad (PCBNEW (6.0.11)) date 2023-12-12 02:53:40*
%MOMM*%
%LPD*%
G01*
G04 APERTURE LIST*
G04 Aperture macros list*
%AMRoundRect*
0 Rectangle with rounded corners*
0 $1 Rounding radius*
0 $2 $3 $4 $5 $6 $7 $8 $9 X,Y pos of 4 corners*
0 Add a 4 corners polygon primitive as box body*
4,1,4,$2,$3,$4,$5,$6,$7,$8,$9,$2,$3,0*
0 Add four circle primitives for the rounded corners*
1,1,$1+$1,$2,$3*
1,1,$1+$1,$4,$5*
1,1,$1+$1,$6,$7*
1,1,$1+$1,$8,$9*
0 Add four rect primitives between the rounded corners*
20,1,$1+$1,$2,$3,$4,$5,0*
20,1,$1+$1,$4,$5,$6,$7,0*
20,1,$1+$1,$6,$7,$8,$9,0*
20,1,$1+$1,$8,$9,$2,$3,0*%
%AMHorizOval*
0 Thick line with rounded ends*
0 $1 width*
0 $2 $3 position (X,Y) of the first rounded end (center of the circle)*
0 $4 $5 position (X,Y) of the second rounded end (center of the circle)*
0 Add line between two ends*
20,1,$1,$2,$3,$4,$5,0*
0 Add two circle primitives to create the rounded ends*
1,1,$1,$2,$3*
1,1,$1,$4,$5*%
%AMFreePoly0*
4,1,53,0.885000,-2.035000,0.700000,-2.035000,0.700000,-3.665000,0.695106,-3.680063,0.695106,-3.695902,0.685796,-3.708716,0.680902,-3.723779,0.668089,-3.733089,0.658779,-3.745902,0.643716,-3.750796,0.630902,-3.760106,0.615063,-3.760106,0.600000,-3.765000,-0.600000,-3.765000,-0.615063,-3.760106,-0.630902,-3.760106,-0.643716,-3.750796,-0.658779,-3.745902,-0.668089,-3.733089,-0.680902,-3.723779,
-0.685796,-3.708716,-0.695106,-3.695902,-0.695106,-3.680063,-0.700000,-3.665000,-0.700000,-2.035000,-0.885000,-2.035000,-0.885000,0.450000,-2.515000,0.450000,-2.530063,0.454894,-2.545902,0.454894,-2.558716,0.464204,-2.573779,0.469098,-2.583089,0.481911,-2.595902,0.491221,-2.600796,0.506284,-2.610106,0.519098,-2.610106,0.534937,-2.615000,0.550000,-2.615000,1.750000,-2.610106,1.765063,
-2.610106,1.780902,-2.600796,1.793716,-2.595902,1.808779,-2.583089,1.818089,-2.573779,1.830902,-2.558716,1.835796,-2.545902,1.845106,-2.530063,1.845106,-2.515000,1.850000,-0.885000,1.850000,-0.885000,2.035000,0.885000,2.035000,0.885000,-2.035000,0.885000,-2.035000,$1*%
%AMFreePoly1*
4,1,53,-0.534937,2.610106,-0.519098,2.610106,-0.506284,2.600796,-0.491221,2.595902,-0.481911,2.583089,-0.469098,2.573779,-0.464204,2.558716,-0.454894,2.545902,-0.454894,2.530063,-0.450000,2.515000,-0.450000,0.885000,0.450000,0.885000,0.450000,2.515000,0.454894,2.530063,0.454894,2.545902,0.464204,2.558716,0.469098,2.573779,0.481911,2.583089,0.491221,2.595902,0.506284,2.600796,
0.519098,2.610106,0.534937,2.610106,0.550000,2.615000,1.750000,2.615000,1.765063,2.610106,1.780902,2.610106,1.793716,2.600796,1.808779,2.595902,1.818089,2.583089,1.830902,2.573779,1.835796,2.558716,1.845106,2.545902,1.845106,2.530063,1.850000,2.515000,1.850000,0.885000,2.035000,0.885000,2.035000,-0.885000,-2.035000,-0.885000,-2.035000,0.885000,-1.850000,0.885000,
-1.850000,2.515000,-1.845106,2.530063,-1.845106,2.545902,-1.835796,2.558716,-1.830902,2.573779,-1.818089,2.583089,-1.808779,2.595902,-1.793716,2.600796,-1.780902,2.610106,-1.765063,2.610106,-1.750000,2.615000,-0.550000,2.615000,-0.534937,2.610106,-0.534937,2.610106,$1*%
%AMFreePoly2*
4,1,29,0.885000,1.850000,2.515000,1.850000,2.530063,1.845106,2.545902,1.845106,2.558716,1.835796,2.573779,1.830902,2.583089,1.818089,2.595902,1.808779,2.600796,1.793716,2.610106,1.780902,2.610106,1.765063,2.615000,1.750000,2.615000,0.550000,2.610106,0.534937,2.610106,0.519098,2.600796,0.506284,2.595902,0.491221,2.583089,0.481911,2.573779,0.469098,2.558716,0.464204,
2.545902,0.454894,2.530063,0.454894,2.515000,0.450000,0.885000,0.450000,0.885000,-2.035000,-0.885000,-2.035000,-0.885000,2.035000,0.885000,2.035000,0.885000,1.850000,0.885000,1.850000,$1*%
G04 Aperture macros list end*
%ADD10C,0.150000*%
%ADD11C,0.130000*%
%ADD12C,0.200000*%
%ADD13C,0.420000*%
%ADD14C,0.210000*%
%ADD15C,0.120000*%
%ADD16C,0.250000*%
%ADD17C,0.100000*%
%ADD18RoundRect,0.140000X0.140000X0.170000X-0.140000X0.170000X-0.140000X-0.170000X0.140000X-0.170000X0*%
%ADD19RoundRect,0.140000X-0.140000X-0.170000X0.140000X-0.170000X0.140000X0.170000X-0.140000X0.170000X0*%
%ADD20RoundRect,0.135000X-0.185000X0.135000X-0.185000X-0.135000X0.185000X-0.135000X0.185000X0.135000X0*%
%ADD21RoundRect,0.150000X-0.675000X-0.150000X0.675000X-0.150000X0.675000X0.150000X-0.675000X0.150000X0*%
%ADD22R,1.800000X0.800000*%
%ADD23R,1.500000X1.500000*%
%ADD24RoundRect,0.135000X0.135000X0.185000X-0.135000X0.185000X-0.135000X-0.185000X0.135000X-0.185000X0*%
%ADD25C,2.000000*%
%ADD26RoundRect,0.135000X-0.135000X-0.185000X0.135000X-0.185000X0.135000X0.185000X-0.135000X0.185000X0*%
%ADD27RoundRect,0.135000X0.185000X-0.135000X0.185000X0.135000X-0.185000X0.135000X-0.185000X-0.135000X0*%
%ADD28RoundRect,0.150000X0.150000X-0.587500X0.150000X0.587500X-0.150000X0.587500X-0.150000X-0.587500X0*%
%ADD29RoundRect,0.140000X-0.170000X0.140000X-0.170000X-0.140000X0.170000X-0.140000X0.170000X0.140000X0*%
%ADD30R,1.400000X1.600000*%
%ADD31RoundRect,0.150000X-0.150000X0.587500X-0.150000X-0.587500X0.150000X-0.587500X0.150000X0.587500X0*%
%ADD32R,0.650000X2.000000*%
%ADD33RoundRect,0.200000X-0.200000X-0.275000X0.200000X-0.275000X0.200000X0.275000X-0.200000X0.275000X0*%
%ADD34RoundRect,0.250000X-0.675000X0.600000X-0.675000X-0.600000X0.675000X-0.600000X0.675000X0.600000X0*%
%ADD35O,1.850000X1.700000*%
%ADD36RoundRect,0.425000X-0.425000X-0.425000X0.425000X-0.425000X0.425000X0.425000X-0.425000X0.425000X0*%
%ADD37C,1.700000*%
%ADD38C,1.400000*%
%ADD39R,3.500000X3.500000*%
%ADD40C,3.500000*%
%ADD41C,3.200000*%
%ADD42RoundRect,0.250000X0.675000X-0.600000X0.675000X0.600000X-0.675000X0.600000X-0.675000X-0.600000X0*%
%ADD43RoundRect,0.150000X0.587500X0.150000X-0.587500X0.150000X-0.587500X-0.150000X0.587500X-0.150000X0*%
%ADD44R,0.620000X0.575000*%
%ADD45RoundRect,0.381000X-0.381000X-0.381000X0.381000X-0.381000X0.381000X0.381000X-0.381000X0.381000X0*%
%ADD46C,1.524000*%
%ADD47RoundRect,0.250001X0.799999X-1.999999X0.799999X1.999999X-0.799999X1.999999X-0.799999X-1.999999X0*%
%ADD48RoundRect,0.150000X-0.587500X-0.150000X0.587500X-0.150000X0.587500X0.150000X-0.587500X0.150000X0*%
%ADD49R,1.000000X1.000000*%
%ADD50RoundRect,0.250000X-0.600000X-0.675000X0.600000X-0.675000X0.600000X0.675000X-0.600000X0.675000X0*%
%ADD51O,1.700000X1.850000*%
%ADD52RoundRect,0.140000X0.170000X-0.140000X0.170000X0.140000X-0.170000X0.140000X-0.170000X-0.140000X0*%
%ADD53RoundRect,0.250001X-1.999999X-0.799999X1.999999X-0.799999X1.999999X0.799999X-1.999999X0.799999X0*%
%ADD54C,1.600000*%
%ADD55RoundRect,0.237500X-0.287500X-0.237500X0.287500X-0.237500X0.287500X0.237500X-0.287500X0.237500X0*%
%ADD56RoundRect,0.225000X0.250000X-0.225000X0.250000X0.225000X-0.250000X0.225000X-0.250000X-0.225000X0*%
%ADD57R,1.700000X1.700000*%
%ADD58O,1.700000X1.700000*%
%ADD59RoundRect,0.237500X0.287500X0.237500X-0.287500X0.237500X-0.287500X-0.237500X0.287500X-0.237500X0*%
%ADD60R,0.300000X1.400000*%
%ADD61RoundRect,0.200000X0.200000X0.275000X-0.200000X0.275000X-0.200000X-0.275000X0.200000X-0.275000X0*%
%ADD62RoundRect,0.425000X0.425000X0.425000X-0.425000X0.425000X-0.425000X-0.425000X0.425000X-0.425000X0*%
%ADD63RoundRect,0.250000X-0.250000X-0.475000X0.250000X-0.475000X0.250000X0.475000X-0.250000X0.475000X0*%
%ADD64R,3.000000X1.200000*%
%ADD65FreePoly0,270.000000*%
%ADD66FreePoly1,0.000000*%
%ADD67FreePoly2,0.000000*%
%ADD68R,1.200000X3.000000*%
%ADD69R,1.500000X1.200000*%
%ADD70R,1.400000X1.400000*%
%ADD71R,1.200000X2.200000*%
%ADD72R,5.800000X6.400000*%
%ADD73RoundRect,0.237500X0.237500X-0.287500X0.237500X0.287500X-0.237500X0.287500X-0.237500X-0.287500X0*%
%ADD74RoundRect,0.250000X0.600000X0.600000X-0.600000X0.600000X-0.600000X-0.600000X0.600000X-0.600000X0*%
%ADD75RoundRect,0.225000X-0.225000X-0.250000X0.225000X-0.250000X0.225000X0.250000X-0.225000X0.250000X0*%
%ADD76O,3.100000X4.300000*%
%ADD77HorizOval,0.900000X-0.176777X0.176777X0.176777X-0.176777X0*%
%ADD78HorizOval,0.900000X0.176777X0.176777X-0.176777X-0.176777X0*%
%ADD79HorizOval,0.900000X0.106066X0.106066X-0.106066X-0.106066X0*%
%ADD80R,1.600000X1.600000*%
%ADD81O,1.600000X1.600000*%
%ADD82R,2.200000X1.200000*%
%ADD83R,6.400000X5.800000*%
%ADD84RoundRect,0.150000X0.675000X0.150000X-0.675000X0.150000X-0.675000X-0.150000X0.675000X-0.150000X0*%
%ADD85RoundRect,0.250000X0.250000X0.475000X-0.250000X0.475000X-0.250000X-0.475000X0.250000X-0.475000X0*%
%ADD86RoundRect,0.250001X1.999999X0.799999X-1.999999X0.799999X-1.999999X-0.799999X1.999999X-0.799999X0*%
%ADD87R,1.200000X4.000000*%
%ADD88RoundRect,0.075000X0.700000X0.075000X-0.700000X0.075000X-0.700000X-0.075000X0.700000X-0.075000X0*%
%ADD89RoundRect,0.075000X0.075000X0.700000X-0.075000X0.700000X-0.075000X-0.700000X0.075000X-0.700000X0*%
%ADD90R,1.524000X1.524000*%
%ADD91C,1.440000*%
%ADD92RoundRect,0.135000X-0.226274X-0.035355X-0.035355X-0.226274X0.226274X0.035355X0.035355X0.226274X0*%
%ADD93R,3.400000X2.600000*%
%ADD94R,1.500000X2.000000*%
%ADD95RoundRect,0.140000X-0.021213X0.219203X-0.219203X0.021213X0.021213X-0.219203X0.219203X-0.021213X0*%
G04 APERTURE END LIST*
D10*
G36*
X118940000Y-133940000D02*
G01*
X116840000Y-133940000D01*
X116840000Y-133540000D01*
X118940000Y-133540000D01*
X118940000Y-133940000D01*
G37*
X118940000Y-133940000D02*
X116840000Y-133940000D01*
X116840000Y-133540000D01*
X118940000Y-133540000D01*
X118940000Y-133940000D01*
G36*
X118950000Y-131400000D02*
G01*
X116850000Y-131400000D01*
X116850000Y-131000000D01*
X118950000Y-131000000D01*
X118950000Y-131400000D01*
G37*
X118950000Y-131400000D02*
X116850000Y-131400000D01*
X116850000Y-131000000D01*
X118950000Y-131000000D01*
X118950000Y-131400000D01*
G36*
X118940000Y-128860000D02*
G01*
X116840000Y-128860000D01*
X116840000Y-128460000D01*
X118940000Y-128460000D01*
X118940000Y-128860000D01*
G37*
X118940000Y-128860000D02*
X116840000Y-128860000D01*
X116840000Y-128460000D01*
X118940000Y-128460000D01*
X118940000Y-128860000D01*
G36*
X120740000Y-138060000D02*
G01*
X114240000Y-138060000D01*
X114240000Y-136060000D01*
X118990000Y-136060000D01*
X118990000Y-126310000D01*
X114240000Y-126310000D01*
X114240000Y-124560000D01*
X120740000Y-124560000D01*
X120740000Y-138060000D01*
G37*
X120740000Y-138060000D02*
X114240000Y-138060000D01*
X114240000Y-136060000D01*
X118990000Y-136060000D01*
X118990000Y-126310000D01*
X114240000Y-126310000D01*
X114240000Y-124560000D01*
X120740000Y-124560000D01*
X120740000Y-138060000D01*
X115620000Y-80105000D02*
X127550000Y-80105000D01*
X127550000Y-80105000D02*
X127550000Y-91275000D01*
X127550000Y-91275000D02*
X115620000Y-91275000D01*
X115620000Y-91275000D02*
X115620000Y-80105000D01*
G36*
X116740000Y-136060000D02*
G01*
X114240000Y-136060000D01*
X114240000Y-126310000D01*
X116740000Y-126310000D01*
X116740000Y-136060000D01*
G37*
X116740000Y-136060000D02*
X114240000Y-136060000D01*
X114240000Y-126310000D01*
X116740000Y-126310000D01*
X116740000Y-136060000D01*
X151494416Y-143775347D02*
X150787309Y-143068240D01*
X151056683Y-142798866D01*
X151157698Y-142765194D01*
X151225042Y-142765194D01*
X151326057Y-142798866D01*
X151427072Y-142899881D01*
X151460744Y-143000896D01*
X151460744Y-143068240D01*
X151427072Y-143169255D01*
X151157698Y-143438629D01*
X152538240Y-142596835D02*
X152538240Y-142664179D01*
X152470896Y-142798866D01*
X152403553Y-142866209D01*
X152268866Y-142933553D01*
X152134179Y-142933553D01*
X152033164Y-142899881D01*
X151864805Y-142798866D01*
X151763790Y-142697851D01*
X151662774Y-142529492D01*
X151629103Y-142428477D01*
X151629103Y-142293790D01*
X151696446Y-142159103D01*
X151763790Y-142091759D01*
X151898477Y-142024416D01*
X151965820Y-142024416D01*
X152336209Y-141519339D02*
X152403553Y-141451996D01*
X152504568Y-141418324D01*
X152571912Y-141418324D01*
X152672927Y-141451996D01*
X152841286Y-141553011D01*
X153009644Y-141721370D01*
X153110660Y-141889729D01*
X153144331Y-141990744D01*
X153144331Y-142058087D01*
X153110660Y-142159103D01*
X153043316Y-142226446D01*
X152942301Y-142260118D01*
X152874957Y-142260118D01*
X152773942Y-142226446D01*
X152605583Y-142125431D01*
X152437225Y-141957072D01*
X152336209Y-141788713D01*
X152302538Y-141687698D01*
X152302538Y-141620355D01*
X152336209Y-141519339D01*
X190052380Y-125858095D02*
X189052380Y-125858095D01*
X189052380Y-125477142D01*
X189100000Y-125381904D01*
X189147619Y-125334285D01*
X189242857Y-125286666D01*
X189385714Y-125286666D01*
X189480952Y-125334285D01*
X189528571Y-125381904D01*
X189576190Y-125477142D01*
X189576190Y-125858095D01*
X189957142Y-124286666D02*
X190004761Y-124334285D01*
X190052380Y-124477142D01*
X190052380Y-124572380D01*
X190004761Y-124715238D01*
X189909523Y-124810476D01*
X189814285Y-124858095D01*
X189623809Y-124905714D01*
X189480952Y-124905714D01*
X189290476Y-124858095D01*
X189195238Y-124810476D01*
X189100000Y-124715238D01*
X189052380Y-124572380D01*
X189052380Y-124477142D01*
X189100000Y-124334285D01*
X189147619Y-124286666D01*
X189052380Y-123953333D02*
X189052380Y-123334285D01*
X189433333Y-123667619D01*
X189433333Y-123524761D01*
X189480952Y-123429523D01*
X189528571Y-123381904D01*
X189623809Y-123334285D01*
X189861904Y-123334285D01*
X189957142Y-123381904D01*
X190004761Y-123429523D01*
X190052380Y-123524761D01*
X190052380Y-123810476D01*
X190004761Y-123905714D01*
X189957142Y-123953333D01*
X168863809Y-116812380D02*
X168863809Y-115812380D01*
X169101904Y-115812380D01*
X169244761Y-115860000D01*
X169340000Y-115955238D01*
X169387619Y-116050476D01*
X169435238Y-116240952D01*
X169435238Y-116383809D01*
X169387619Y-116574285D01*
X169340000Y-116669523D01*
X169244761Y-116764761D01*
X169101904Y-116812380D01*
X168863809Y-116812380D01*
X169863809Y-116812380D02*
X169863809Y-115812380D01*
X170530476Y-115812380D02*
X170720952Y-115812380D01*
X170816190Y-115860000D01*
X170911428Y-115955238D01*
X170959047Y-116145714D01*
X170959047Y-116479047D01*
X170911428Y-116669523D01*
X170816190Y-116764761D01*
X170720952Y-116812380D01*
X170530476Y-116812380D01*
X170435238Y-116764761D01*
X170340000Y-116669523D01*
X170292380Y-116479047D01*
X170292380Y-116145714D01*
X170340000Y-115955238D01*
X170435238Y-115860000D01*
X170530476Y-115812380D01*
X171911428Y-116812380D02*
X171340000Y-116812380D01*
X171625714Y-116812380D02*
X171625714Y-115812380D01*
X171530476Y-115955238D01*
X171435238Y-116050476D01*
X171340000Y-116098095D01*
X172244761Y-115812380D02*
X172863809Y-115812380D01*
X172530476Y-116193333D01*
X172673333Y-116193333D01*
X172768571Y-116240952D01*
X172816190Y-116288571D01*
X172863809Y-116383809D01*
X172863809Y-116621904D01*
X172816190Y-116717142D01*
X172768571Y-116764761D01*
X172673333Y-116812380D01*
X172387619Y-116812380D01*
X172292380Y-116764761D01*
X172244761Y-116717142D01*
X190022380Y-66396666D02*
X189022380Y-66396666D01*
X189022380Y-66015714D01*
X189070000Y-65920476D01*
X189117619Y-65872857D01*
X189212857Y-65825238D01*
X189355714Y-65825238D01*
X189450952Y-65872857D01*
X189498571Y-65920476D01*
X189546190Y-66015714D01*
X189546190Y-66396666D01*
X189736666Y-65444285D02*
X189736666Y-64968095D01*
X190022380Y-65539523D02*
X189022380Y-65206190D01*
X190022380Y-64872857D01*
X189022380Y-64063333D02*
X189022380Y-64539523D01*
X189498571Y-64587142D01*
X189450952Y-64539523D01*
X189403333Y-64444285D01*
X189403333Y-64206190D01*
X189450952Y-64110952D01*
X189498571Y-64063333D01*
X189593809Y-64015714D01*
X189831904Y-64015714D01*
X189927142Y-64063333D01*
X189974761Y-64110952D01*
X190022380Y-64206190D01*
X190022380Y-64444285D01*
X189974761Y-64539523D01*
X189927142Y-64587142D01*
D11*
X123027142Y-69611904D02*
X123027142Y-68811904D01*
X123408095Y-69611904D02*
X123408095Y-68811904D01*
X123865238Y-69611904D01*
X123865238Y-68811904D01*
X124246190Y-69611904D02*
X124246190Y-68811904D01*
X124436666Y-68811904D01*
X124550952Y-68850000D01*
X124627142Y-68926190D01*
X124665238Y-69002380D01*
X124703333Y-69154761D01*
X124703333Y-69269047D01*
X124665238Y-69421428D01*
X124627142Y-69497619D01*
X124550952Y-69573809D01*
X124436666Y-69611904D01*
X124246190Y-69611904D01*
X125427142Y-68811904D02*
X125046190Y-68811904D01*
X125008095Y-69192857D01*
X125046190Y-69154761D01*
X125122380Y-69116666D01*
X125312857Y-69116666D01*
X125389047Y-69154761D01*
X125427142Y-69192857D01*
X125465238Y-69269047D01*
X125465238Y-69459523D01*
X125427142Y-69535714D01*
X125389047Y-69573809D01*
X125312857Y-69611904D01*
X125122380Y-69611904D01*
X125046190Y-69573809D01*
X125008095Y-69535714D01*
X125693809Y-68811904D02*
X125960476Y-69611904D01*
X126227142Y-68811904D01*
D10*
X191814285Y-96401428D02*
X192576190Y-96401428D01*
X192195238Y-96782380D02*
X192195238Y-96020476D01*
X193528571Y-95782380D02*
X193052380Y-95782380D01*
X193004761Y-96258571D01*
X193052380Y-96210952D01*
X193147619Y-96163333D01*
X193385714Y-96163333D01*
X193480952Y-96210952D01*
X193528571Y-96258571D01*
X193576190Y-96353809D01*
X193576190Y-96591904D01*
X193528571Y-96687142D01*
X193480952Y-96734761D01*
X193385714Y-96782380D01*
X193147619Y-96782380D01*
X193052380Y-96734761D01*
X193004761Y-96687142D01*
X193861904Y-95782380D02*
X194195238Y-96782380D01*
X194528571Y-95782380D01*
X116425714Y-116622380D02*
X116425714Y-115622380D01*
X116806666Y-115622380D01*
X116901904Y-115670000D01*
X116949523Y-115717619D01*
X116997142Y-115812857D01*
X116997142Y-115955714D01*
X116949523Y-116050952D01*
X116901904Y-116098571D01*
X116806666Y-116146190D01*
X116425714Y-116146190D01*
X117759047Y-116098571D02*
X117901904Y-116146190D01*
X117949523Y-116193809D01*
X117997142Y-116289047D01*
X117997142Y-116431904D01*
X117949523Y-116527142D01*
X117901904Y-116574761D01*
X117806666Y-116622380D01*
X117425714Y-116622380D01*
X117425714Y-115622380D01*
X117759047Y-115622380D01*
X117854285Y-115670000D01*
X117901904Y-115717619D01*
X117949523Y-115812857D01*
X117949523Y-115908095D01*
X117901904Y-116003333D01*
X117854285Y-116050952D01*
X117759047Y-116098571D01*
X117425714Y-116098571D01*
X118949523Y-116622380D02*
X118378095Y-116622380D01*
X118663809Y-116622380D02*
X118663809Y-115622380D01*
X118568571Y-115765238D01*
X118473333Y-115860476D01*
X118378095Y-115908095D01*
X119282857Y-115622380D02*
X119901904Y-115622380D01*
X119568571Y-116003333D01*
X119711428Y-116003333D01*
X119806666Y-116050952D01*
X119854285Y-116098571D01*
X119901904Y-116193809D01*
X119901904Y-116431904D01*
X119854285Y-116527142D01*
X119806666Y-116574761D01*
X119711428Y-116622380D01*
X119425714Y-116622380D01*
X119330476Y-116574761D01*
X119282857Y-116527142D01*
D12*
X108775714Y-113568571D02*
X108775714Y-112068571D01*
X109632857Y-113568571D01*
X109632857Y-112068571D01*
X111204285Y-113568571D02*
X110704285Y-112854285D01*
X110347142Y-113568571D02*
X110347142Y-112068571D01*
X110918571Y-112068571D01*
X111061428Y-112140000D01*
X111132857Y-112211428D01*
X111204285Y-112354285D01*
X111204285Y-112568571D01*
X111132857Y-112711428D01*
X111061428Y-112782857D01*
X110918571Y-112854285D01*
X110347142Y-112854285D01*
X111775714Y-113497142D02*
X111990000Y-113568571D01*
X112347142Y-113568571D01*
X112490000Y-113497142D01*
X112561428Y-113425714D01*
X112632857Y-113282857D01*
X112632857Y-113140000D01*
X112561428Y-112997142D01*
X112490000Y-112925714D01*
X112347142Y-112854285D01*
X112061428Y-112782857D01*
X111918571Y-112711428D01*
X111847142Y-112640000D01*
X111775714Y-112497142D01*
X111775714Y-112354285D01*
X111847142Y-112211428D01*
X111918571Y-112140000D01*
X112061428Y-112068571D01*
X112418571Y-112068571D01*
X112632857Y-112140000D01*
X113061428Y-112068571D02*
X113918571Y-112068571D01*
X113490000Y-113568571D02*
X113490000Y-112068571D01*
X169798571Y-140408571D02*
X169298571Y-139694285D01*
X168941428Y-140408571D02*
X168941428Y-138908571D01*
X169512857Y-138908571D01*
X169655714Y-138980000D01*
X169727142Y-139051428D01*
X169798571Y-139194285D01*
X169798571Y-139408571D01*
X169727142Y-139551428D01*
X169655714Y-139622857D01*
X169512857Y-139694285D01*
X168941428Y-139694285D01*
X170370000Y-140337142D02*
X170584285Y-140408571D01*
X170941428Y-140408571D01*
X171084285Y-140337142D01*
X171155714Y-140265714D01*
X171227142Y-140122857D01*
X171227142Y-139980000D01*
X171155714Y-139837142D01*
X171084285Y-139765714D01*
X170941428Y-139694285D01*
X170655714Y-139622857D01*
X170512857Y-139551428D01*
X170441428Y-139480000D01*
X170370000Y-139337142D01*
X170370000Y-139194285D01*
X170441428Y-139051428D01*
X170512857Y-138980000D01*
X170655714Y-138908571D01*
X171012857Y-138908571D01*
X171227142Y-138980000D01*
X171655714Y-138908571D02*
X172512857Y-138908571D01*
X172084285Y-140408571D02*
X172084285Y-138908571D01*
D10*
X108615714Y-118582380D02*
X108615714Y-117582380D01*
X108996666Y-117582380D01*
X109091904Y-117630000D01*
X109139523Y-117677619D01*
X109187142Y-117772857D01*
X109187142Y-117915714D01*
X109139523Y-118010952D01*
X109091904Y-118058571D01*
X108996666Y-118106190D01*
X108615714Y-118106190D01*
X109949047Y-118058571D02*
X110091904Y-118106190D01*
X110139523Y-118153809D01*
X110187142Y-118249047D01*
X110187142Y-118391904D01*
X110139523Y-118487142D01*
X110091904Y-118534761D01*
X109996666Y-118582380D01*
X109615714Y-118582380D01*
X109615714Y-117582380D01*
X109949047Y-117582380D01*
X110044285Y-117630000D01*
X110091904Y-117677619D01*
X110139523Y-117772857D01*
X110139523Y-117868095D01*
X110091904Y-117963333D01*
X110044285Y-118010952D01*
X109949047Y-118058571D01*
X109615714Y-118058571D01*
X111139523Y-118582380D02*
X110568095Y-118582380D01*
X110853809Y-118582380D02*
X110853809Y-117582380D01*
X110758571Y-117725238D01*
X110663333Y-117820476D01*
X110568095Y-117868095D01*
X111996666Y-117915714D02*
X111996666Y-118582380D01*
X111758571Y-117534761D02*
X111520476Y-118249047D01*
X112139523Y-118249047D01*
D11*
X105606564Y-136055245D02*
X105040879Y-135489560D01*
X105256378Y-135274061D01*
X105337190Y-135247123D01*
X105391065Y-135247123D01*
X105471877Y-135274061D01*
X105552690Y-135354873D01*
X105579627Y-135435685D01*
X105579627Y-135489560D01*
X105552690Y-135570372D01*
X105337190Y-135785871D01*
X105983688Y-135354873D02*
X106253062Y-135085499D01*
X106091438Y-135570372D02*
X105714314Y-134816125D01*
X106468561Y-135193248D01*
X106953435Y-134708375D02*
X106630186Y-135031624D01*
X106791810Y-134870000D02*
X106226125Y-134304314D01*
X106253062Y-134439001D01*
X106253062Y-134546751D01*
X106226125Y-134627563D01*
X106899560Y-133630879D02*
X106630186Y-133900253D01*
X106872622Y-134196564D01*
X106872622Y-134142690D01*
X106899560Y-134061877D01*
X107034247Y-133927190D01*
X107115059Y-133900253D01*
X107168934Y-133900253D01*
X107249746Y-133927190D01*
X107384433Y-134061877D01*
X107411370Y-134142690D01*
X107411370Y-134196564D01*
X107384433Y-134277377D01*
X107249746Y-134412064D01*
X107168934Y-134439001D01*
X107115059Y-134439001D01*
D12*
X139125714Y-149478571D02*
X140054285Y-149478571D01*
X139554285Y-150050000D01*
X139768571Y-150050000D01*
X139911428Y-150121428D01*
X139982857Y-150192857D01*
X140054285Y-150335714D01*
X140054285Y-150692857D01*
X139982857Y-150835714D01*
X139911428Y-150907142D01*
X139768571Y-150978571D01*
X139340000Y-150978571D01*
X139197142Y-150907142D01*
X139125714Y-150835714D01*
X140697142Y-150835714D02*
X140768571Y-150907142D01*
X140697142Y-150978571D01*
X140625714Y-150907142D01*
X140697142Y-150835714D01*
X140697142Y-150978571D01*
X141268571Y-149478571D02*
X142197142Y-149478571D01*
X141697142Y-150050000D01*
X141911428Y-150050000D01*
X142054285Y-150121428D01*
X142125714Y-150192857D01*
X142197142Y-150335714D01*
X142197142Y-150692857D01*
X142125714Y-150835714D01*
X142054285Y-150907142D01*
X141911428Y-150978571D01*
X141482857Y-150978571D01*
X141340000Y-150907142D01*
X141268571Y-150835714D01*
X142625714Y-149478571D02*
X143125714Y-150978571D01*
X143625714Y-149478571D01*
D10*
X168863809Y-118502380D02*
X168863809Y-117502380D01*
X169101904Y-117502380D01*
X169244761Y-117550000D01*
X169340000Y-117645238D01*
X169387619Y-117740476D01*
X169435238Y-117930952D01*
X169435238Y-118073809D01*
X169387619Y-118264285D01*
X169340000Y-118359523D01*
X169244761Y-118454761D01*
X169101904Y-118502380D01*
X168863809Y-118502380D01*
X169863809Y-118502380D02*
X169863809Y-117502380D01*
X170530476Y-117502380D02*
X170720952Y-117502380D01*
X170816190Y-117550000D01*
X170911428Y-117645238D01*
X170959047Y-117835714D01*
X170959047Y-118169047D01*
X170911428Y-118359523D01*
X170816190Y-118454761D01*
X170720952Y-118502380D01*
X170530476Y-118502380D01*
X170435238Y-118454761D01*
X170340000Y-118359523D01*
X170292380Y-118169047D01*
X170292380Y-117835714D01*
X170340000Y-117645238D01*
X170435238Y-117550000D01*
X170530476Y-117502380D01*
X171911428Y-118502380D02*
X171340000Y-118502380D01*
X171625714Y-118502380D02*
X171625714Y-117502380D01*
X171530476Y-117645238D01*
X171435238Y-117740476D01*
X171340000Y-117788095D01*
X172768571Y-117502380D02*
X172578095Y-117502380D01*
X172482857Y-117550000D01*
X172435238Y-117597619D01*
X172340000Y-117740476D01*
X172292380Y-117930952D01*
X172292380Y-118311904D01*
X172340000Y-118407142D01*
X172387619Y-118454761D01*
X172482857Y-118502380D01*
X172673333Y-118502380D01*
X172768571Y-118454761D01*
X172816190Y-118407142D01*
X172863809Y-118311904D01*
X172863809Y-118073809D01*
X172816190Y-117978571D01*
X172768571Y-117930952D01*
X172673333Y-117883333D01*
X172482857Y-117883333D01*
X172387619Y-117930952D01*
X172340000Y-117978571D01*
X172292380Y-118073809D01*
D12*
X164714285Y-143918571D02*
X164000000Y-143918571D01*
X163928571Y-144632857D01*
X164000000Y-144561428D01*
X164142857Y-144490000D01*
X164500000Y-144490000D01*
X164642857Y-144561428D01*
X164714285Y-144632857D01*
X164785714Y-144775714D01*
X164785714Y-145132857D01*
X164714285Y-145275714D01*
X164642857Y-145347142D01*
X164500000Y-145418571D01*
X164142857Y-145418571D01*
X164000000Y-145347142D01*
X163928571Y-145275714D01*
X165214285Y-143918571D02*
X165714285Y-145418571D01*
X166214285Y-143918571D01*
X121060000Y-112472857D02*
X121274285Y-112544285D01*
X121345714Y-112615714D01*
X121417142Y-112758571D01*
X121417142Y-112972857D01*
X121345714Y-113115714D01*
X121274285Y-113187142D01*
X121131428Y-113258571D01*
X120560000Y-113258571D01*
X120560000Y-111758571D01*
X121060000Y-111758571D01*
X121202857Y-111830000D01*
X121274285Y-111901428D01*
X121345714Y-112044285D01*
X121345714Y-112187142D01*
X121274285Y-112330000D01*
X121202857Y-112401428D01*
X121060000Y-112472857D01*
X120560000Y-112472857D01*
X122345714Y-111758571D02*
X122631428Y-111758571D01*
X122774285Y-111830000D01*
X122917142Y-111972857D01*
X122988571Y-112258571D01*
X122988571Y-112758571D01*
X122917142Y-113044285D01*
X122774285Y-113187142D01*
X122631428Y-113258571D01*
X122345714Y-113258571D01*
X122202857Y-113187142D01*
X122060000Y-113044285D01*
X121988571Y-112758571D01*
X121988571Y-112258571D01*
X122060000Y-111972857D01*
X122202857Y-111830000D01*
X122345714Y-111758571D01*
X123917142Y-111758571D02*
X124202857Y-111758571D01*
X124345714Y-111830000D01*
X124488571Y-111972857D01*
X124560000Y-112258571D01*
X124560000Y-112758571D01*
X124488571Y-113044285D01*
X124345714Y-113187142D01*
X124202857Y-113258571D01*
X123917142Y-113258571D01*
X123774285Y-113187142D01*
X123631428Y-113044285D01*
X123560000Y-112758571D01*
X123560000Y-112258571D01*
X123631428Y-111972857D01*
X123774285Y-111830000D01*
X123917142Y-111758571D01*
X124988571Y-111758571D02*
X125845714Y-111758571D01*
X125417142Y-113258571D02*
X125417142Y-111758571D01*
X126631428Y-111758571D02*
X126774285Y-111758571D01*
X126917142Y-111830000D01*
X126988571Y-111901428D01*
X127060000Y-112044285D01*
X127131428Y-112330000D01*
X127131428Y-112687142D01*
X127060000Y-112972857D01*
X126988571Y-113115714D01*
X126917142Y-113187142D01*
X126774285Y-113258571D01*
X126631428Y-113258571D01*
X126488571Y-113187142D01*
X126417142Y-113115714D01*
X126345714Y-112972857D01*
X126274285Y-112687142D01*
X126274285Y-112330000D01*
X126345714Y-112044285D01*
X126417142Y-111901428D01*
X126488571Y-111830000D01*
X126631428Y-111758571D01*
D11*
X105845938Y-128225871D02*
X105280253Y-127660186D01*
X105495752Y-127444687D01*
X105576564Y-127417749D01*
X105630439Y-127417749D01*
X105711251Y-127444687D01*
X105792064Y-127525499D01*
X105819001Y-127606311D01*
X105819001Y-127660186D01*
X105792064Y-127740998D01*
X105576564Y-127956497D01*
X106223062Y-127525499D02*
X106492436Y-127256125D01*
X106330812Y-127740998D02*
X105953688Y-126986751D01*
X106707935Y-127363874D01*
X106654061Y-126771251D02*
X106573248Y-126798189D01*
X106519374Y-126798189D01*
X106438561Y-126771251D01*
X106411624Y-126744314D01*
X106384687Y-126663502D01*
X106384687Y-126609627D01*
X106411624Y-126528815D01*
X106519374Y-126421065D01*
X106600186Y-126394128D01*
X106654061Y-126394128D01*
X106734873Y-126421065D01*
X106761810Y-126448003D01*
X106788748Y-126528815D01*
X106788748Y-126582690D01*
X106761810Y-126663502D01*
X106654061Y-126771251D01*
X106627123Y-126852064D01*
X106627123Y-126905938D01*
X106654061Y-126986751D01*
X106761810Y-127094500D01*
X106842622Y-127121438D01*
X106896497Y-127121438D01*
X106977309Y-127094500D01*
X107085059Y-126986751D01*
X107111996Y-126905938D01*
X107111996Y-126852064D01*
X107085059Y-126771251D01*
X106977309Y-126663502D01*
X106896497Y-126636564D01*
X106842622Y-126636564D01*
X106761810Y-126663502D01*
D10*
X134341904Y-140162380D02*
X134341904Y-139162380D01*
X134722857Y-139162380D01*
X134818095Y-139210000D01*
X134865714Y-139257619D01*
X134913333Y-139352857D01*
X134913333Y-139495714D01*
X134865714Y-139590952D01*
X134818095Y-139638571D01*
X134722857Y-139686190D01*
X134341904Y-139686190D01*
X135675238Y-139638571D02*
X135818095Y-139686190D01*
X135865714Y-139733809D01*
X135913333Y-139829047D01*
X135913333Y-139971904D01*
X135865714Y-140067142D01*
X135818095Y-140114761D01*
X135722857Y-140162380D01*
X135341904Y-140162380D01*
X135341904Y-139162380D01*
X135675238Y-139162380D01*
X135770476Y-139210000D01*
X135818095Y-139257619D01*
X135865714Y-139352857D01*
X135865714Y-139448095D01*
X135818095Y-139543333D01*
X135770476Y-139590952D01*
X135675238Y-139638571D01*
X135341904Y-139638571D01*
X136818095Y-139162380D02*
X136341904Y-139162380D01*
X136294285Y-139638571D01*
X136341904Y-139590952D01*
X136437142Y-139543333D01*
X136675238Y-139543333D01*
X136770476Y-139590952D01*
X136818095Y-139638571D01*
X136865714Y-139733809D01*
X136865714Y-139971904D01*
X136818095Y-140067142D01*
X136770476Y-140114761D01*
X136675238Y-140162380D01*
X136437142Y-140162380D01*
X136341904Y-140114761D01*
X136294285Y-140067142D01*
X143531904Y-139982380D02*
X143531904Y-138982380D01*
X143912857Y-138982380D01*
X144008095Y-139030000D01*
X144055714Y-139077619D01*
X144103333Y-139172857D01*
X144103333Y-139315714D01*
X144055714Y-139410952D01*
X144008095Y-139458571D01*
X143912857Y-139506190D01*
X143531904Y-139506190D01*
X144865238Y-139458571D02*
X145008095Y-139506190D01*
X145055714Y-139553809D01*
X145103333Y-139649047D01*
X145103333Y-139791904D01*
X145055714Y-139887142D01*
X145008095Y-139934761D01*
X144912857Y-139982380D01*
X144531904Y-139982380D01*
X144531904Y-138982380D01*
X144865238Y-138982380D01*
X144960476Y-139030000D01*
X145008095Y-139077619D01*
X145055714Y-139172857D01*
X145055714Y-139268095D01*
X145008095Y-139363333D01*
X144960476Y-139410952D01*
X144865238Y-139458571D01*
X144531904Y-139458571D01*
X145960476Y-138982380D02*
X145770000Y-138982380D01*
X145674761Y-139030000D01*
X145627142Y-139077619D01*
X145531904Y-139220476D01*
X145484285Y-139410952D01*
X145484285Y-139791904D01*
X145531904Y-139887142D01*
X145579523Y-139934761D01*
X145674761Y-139982380D01*
X145865238Y-139982380D01*
X145960476Y-139934761D01*
X146008095Y-139887142D01*
X146055714Y-139791904D01*
X146055714Y-139553809D01*
X146008095Y-139458571D01*
X145960476Y-139410952D01*
X145865238Y-139363333D01*
X145674761Y-139363333D01*
X145579523Y-139410952D01*
X145531904Y-139458571D01*
X145484285Y-139553809D01*
X124295714Y-140172380D02*
X124295714Y-139172380D01*
X124676666Y-139172380D01*
X124771904Y-139220000D01*
X124819523Y-139267619D01*
X124867142Y-139362857D01*
X124867142Y-139505714D01*
X124819523Y-139600952D01*
X124771904Y-139648571D01*
X124676666Y-139696190D01*
X124295714Y-139696190D01*
X125867142Y-140077142D02*
X125819523Y-140124761D01*
X125676666Y-140172380D01*
X125581428Y-140172380D01*
X125438571Y-140124761D01*
X125343333Y-140029523D01*
X125295714Y-139934285D01*
X125248095Y-139743809D01*
X125248095Y-139600952D01*
X125295714Y-139410476D01*
X125343333Y-139315238D01*
X125438571Y-139220000D01*
X125581428Y-139172380D01*
X125676666Y-139172380D01*
X125819523Y-139220000D01*
X125867142Y-139267619D01*
X126819523Y-140172380D02*
X126248095Y-140172380D01*
X126533809Y-140172380D02*
X126533809Y-139172380D01*
X126438571Y-139315238D01*
X126343333Y-139410476D01*
X126248095Y-139458095D01*
X127771904Y-140172380D02*
X127200476Y-140172380D01*
X127486190Y-140172380D02*
X127486190Y-139172380D01*
X127390952Y-139315238D01*
X127295714Y-139410476D01*
X127200476Y-139458095D01*
D11*
X130580000Y-74247142D02*
X131189523Y-74247142D01*
X130884761Y-74551904D02*
X130884761Y-73942380D01*
X131494285Y-73751904D02*
X131989523Y-73751904D01*
X131722857Y-74056666D01*
X131837142Y-74056666D01*
X131913333Y-74094761D01*
X131951428Y-74132857D01*
X131989523Y-74209047D01*
X131989523Y-74399523D01*
X131951428Y-74475714D01*
X131913333Y-74513809D01*
X131837142Y-74551904D01*
X131608571Y-74551904D01*
X131532380Y-74513809D01*
X131494285Y-74475714D01*
X132332380Y-74475714D02*
X132370476Y-74513809D01*
X132332380Y-74551904D01*
X132294285Y-74513809D01*
X132332380Y-74475714D01*
X132332380Y-74551904D01*
X132637142Y-73751904D02*
X133132380Y-73751904D01*
X132865714Y-74056666D01*
X132980000Y-74056666D01*
X133056190Y-74094761D01*
X133094285Y-74132857D01*
X133132380Y-74209047D01*
X133132380Y-74399523D01*
X133094285Y-74475714D01*
X133056190Y-74513809D01*
X132980000Y-74551904D01*
X132751428Y-74551904D01*
X132675238Y-74513809D01*
X132637142Y-74475714D01*
X133360952Y-73751904D02*
X133627619Y-74551904D01*
X133894285Y-73751904D01*
D10*
X108510000Y-70291428D02*
X109271904Y-70291428D01*
X108890952Y-70672380D02*
X108890952Y-69910476D01*
X109652857Y-69672380D02*
X110319523Y-69672380D01*
X109890952Y-70672380D01*
X110700476Y-70577142D02*
X110748095Y-70624761D01*
X110700476Y-70672380D01*
X110652857Y-70624761D01*
X110700476Y-70577142D01*
X110700476Y-70672380D01*
X111652857Y-69672380D02*
X111176666Y-69672380D01*
X111129047Y-70148571D01*
X111176666Y-70100952D01*
X111271904Y-70053333D01*
X111510000Y-70053333D01*
X111605238Y-70100952D01*
X111652857Y-70148571D01*
X111700476Y-70243809D01*
X111700476Y-70481904D01*
X111652857Y-70577142D01*
X111605238Y-70624761D01*
X111510000Y-70672380D01*
X111271904Y-70672380D01*
X111176666Y-70624761D01*
X111129047Y-70577142D01*
X111986190Y-69672380D02*
X112319523Y-70672380D01*
X112652857Y-69672380D01*
D11*
X105576564Y-133415245D02*
X105010879Y-132849560D01*
X105226378Y-132634061D01*
X105307190Y-132607123D01*
X105361065Y-132607123D01*
X105441877Y-132634061D01*
X105522690Y-132714873D01*
X105549627Y-132795685D01*
X105549627Y-132849560D01*
X105522690Y-132930372D01*
X105307190Y-133145871D01*
X105953688Y-132714873D02*
X106223062Y-132445499D01*
X106061438Y-132930372D02*
X105684314Y-132176125D01*
X106438561Y-132553248D01*
X106923435Y-132068375D02*
X106600186Y-132391624D01*
X106761810Y-132230000D02*
X106196125Y-131664314D01*
X106223062Y-131799001D01*
X106223062Y-131906751D01*
X106196125Y-131987563D01*
X106627123Y-131341065D02*
X106627123Y-131287190D01*
X106654061Y-131206378D01*
X106788748Y-131071691D01*
X106869560Y-131044754D01*
X106923435Y-131044754D01*
X107004247Y-131071691D01*
X107058122Y-131125566D01*
X107111996Y-131233316D01*
X107111996Y-131879813D01*
X107462183Y-131529627D01*
D12*
X173607142Y-140408571D02*
X173607142Y-138908571D01*
X174178571Y-138908571D01*
X174321428Y-138980000D01*
X174392857Y-139051428D01*
X174464285Y-139194285D01*
X174464285Y-139408571D01*
X174392857Y-139551428D01*
X174321428Y-139622857D01*
X174178571Y-139694285D01*
X173607142Y-139694285D01*
X175964285Y-140408571D02*
X175464285Y-139694285D01*
X175107142Y-140408571D02*
X175107142Y-138908571D01*
X175678571Y-138908571D01*
X175821428Y-138980000D01*
X175892857Y-139051428D01*
X175964285Y-139194285D01*
X175964285Y-139408571D01*
X175892857Y-139551428D01*
X175821428Y-139622857D01*
X175678571Y-139694285D01*
X175107142Y-139694285D01*
X177392857Y-138980000D02*
X177250000Y-138908571D01*
X177035714Y-138908571D01*
X176821428Y-138980000D01*
X176678571Y-139122857D01*
X176607142Y-139265714D01*
X176535714Y-139551428D01*
X176535714Y-139765714D01*
X176607142Y-140051428D01*
X176678571Y-140194285D01*
X176821428Y-140337142D01*
X177035714Y-140408571D01*
X177178571Y-140408571D01*
X177392857Y-140337142D01*
X177464285Y-140265714D01*
X177464285Y-139765714D01*
X177178571Y-139765714D01*
D10*
X189982380Y-79788095D02*
X188982380Y-79788095D01*
X188982380Y-79407142D01*
X189030000Y-79311904D01*
X189077619Y-79264285D01*
X189172857Y-79216666D01*
X189315714Y-79216666D01*
X189410952Y-79264285D01*
X189458571Y-79311904D01*
X189506190Y-79407142D01*
X189506190Y-79788095D01*
X189887142Y-78216666D02*
X189934761Y-78264285D01*
X189982380Y-78407142D01*
X189982380Y-78502380D01*
X189934761Y-78645238D01*
X189839523Y-78740476D01*
X189744285Y-78788095D01*
X189553809Y-78835714D01*
X189410952Y-78835714D01*
X189220476Y-78788095D01*
X189125238Y-78740476D01*
X189030000Y-78645238D01*
X188982380Y-78502380D01*
X188982380Y-78407142D01*
X189030000Y-78264285D01*
X189077619Y-78216666D01*
X189410952Y-77645238D02*
X189363333Y-77740476D01*
X189315714Y-77788095D01*
X189220476Y-77835714D01*
X189172857Y-77835714D01*
X189077619Y-77788095D01*
X189030000Y-77740476D01*
X188982380Y-77645238D01*
X188982380Y-77454761D01*
X189030000Y-77359523D01*
X189077619Y-77311904D01*
X189172857Y-77264285D01*
X189220476Y-77264285D01*
X189315714Y-77311904D01*
X189363333Y-77359523D01*
X189410952Y-77454761D01*
X189410952Y-77645238D01*
X189458571Y-77740476D01*
X189506190Y-77788095D01*
X189601428Y-77835714D01*
X189791904Y-77835714D01*
X189887142Y-77788095D01*
X189934761Y-77740476D01*
X189982380Y-77645238D01*
X189982380Y-77454761D01*
X189934761Y-77359523D01*
X189887142Y-77311904D01*
X189791904Y-77264285D01*
X189601428Y-77264285D01*
X189506190Y-77311904D01*
X189458571Y-77359523D01*
X189410952Y-77454761D01*
X190022380Y-53666666D02*
X189022380Y-53666666D01*
X189022380Y-53285714D01*
X189070000Y-53190476D01*
X189117619Y-53142857D01*
X189212857Y-53095238D01*
X189355714Y-53095238D01*
X189450952Y-53142857D01*
X189498571Y-53190476D01*
X189546190Y-53285714D01*
X189546190Y-53666666D01*
X189736666Y-52714285D02*
X189736666Y-52238095D01*
X190022380Y-52809523D02*
X189022380Y-52476190D01*
X190022380Y-52142857D01*
X189022380Y-51380952D02*
X189022380Y-51571428D01*
X189070000Y-51666666D01*
X189117619Y-51714285D01*
X189260476Y-51809523D01*
X189450952Y-51857142D01*
X189831904Y-51857142D01*
X189927142Y-51809523D01*
X189974761Y-51761904D01*
X190022380Y-51666666D01*
X190022380Y-51476190D01*
X189974761Y-51380952D01*
X189927142Y-51333333D01*
X189831904Y-51285714D01*
X189593809Y-51285714D01*
X189498571Y-51333333D01*
X189450952Y-51380952D01*
X189403333Y-51476190D01*
X189403333Y-51666666D01*
X189450952Y-51761904D01*
X189498571Y-51809523D01*
X189593809Y-51857142D01*
D11*
X130205714Y-67491904D02*
X130205714Y-66691904D01*
X130586666Y-67491904D02*
X130586666Y-66691904D01*
X131043809Y-67491904D01*
X131043809Y-66691904D01*
X131424761Y-67491904D02*
X131424761Y-66691904D01*
X131615238Y-66691904D01*
X131729523Y-66730000D01*
X131805714Y-66806190D01*
X131843809Y-66882380D01*
X131881904Y-67034761D01*
X131881904Y-67149047D01*
X131843809Y-67301428D01*
X131805714Y-67377619D01*
X131729523Y-67453809D01*
X131615238Y-67491904D01*
X131424761Y-67491904D01*
X132148571Y-66691904D02*
X132643809Y-66691904D01*
X132377142Y-66996666D01*
X132491428Y-66996666D01*
X132567619Y-67034761D01*
X132605714Y-67072857D01*
X132643809Y-67149047D01*
X132643809Y-67339523D01*
X132605714Y-67415714D01*
X132567619Y-67453809D01*
X132491428Y-67491904D01*
X132262857Y-67491904D01*
X132186666Y-67453809D01*
X132148571Y-67415714D01*
X132986666Y-67415714D02*
X133024761Y-67453809D01*
X132986666Y-67491904D01*
X132948571Y-67453809D01*
X132986666Y-67415714D01*
X132986666Y-67491904D01*
X133291428Y-66691904D02*
X133786666Y-66691904D01*
X133520000Y-66996666D01*
X133634285Y-66996666D01*
X133710476Y-67034761D01*
X133748571Y-67072857D01*
X133786666Y-67149047D01*
X133786666Y-67339523D01*
X133748571Y-67415714D01*
X133710476Y-67453809D01*
X133634285Y-67491904D01*
X133405714Y-67491904D01*
X133329523Y-67453809D01*
X133291428Y-67415714D01*
X134015238Y-66691904D02*
X134281904Y-67491904D01*
X134548571Y-66691904D01*
D10*
X190012380Y-92778095D02*
X189012380Y-92778095D01*
X189012380Y-92397142D01*
X189060000Y-92301904D01*
X189107619Y-92254285D01*
X189202857Y-92206666D01*
X189345714Y-92206666D01*
X189440952Y-92254285D01*
X189488571Y-92301904D01*
X189536190Y-92397142D01*
X189536190Y-92778095D01*
X189917142Y-91206666D02*
X189964761Y-91254285D01*
X190012380Y-91397142D01*
X190012380Y-91492380D01*
X189964761Y-91635238D01*
X189869523Y-91730476D01*
X189774285Y-91778095D01*
X189583809Y-91825714D01*
X189440952Y-91825714D01*
X189250476Y-91778095D01*
X189155238Y-91730476D01*
X189060000Y-91635238D01*
X189012380Y-91492380D01*
X189012380Y-91397142D01*
X189060000Y-91254285D01*
X189107619Y-91206666D01*
X190012380Y-90730476D02*
X190012380Y-90540000D01*
X189964761Y-90444761D01*
X189917142Y-90397142D01*
X189774285Y-90301904D01*
X189583809Y-90254285D01*
X189202857Y-90254285D01*
X189107619Y-90301904D01*
X189060000Y-90349523D01*
X189012380Y-90444761D01*
X189012380Y-90635238D01*
X189060000Y-90730476D01*
X189107619Y-90778095D01*
X189202857Y-90825714D01*
X189440952Y-90825714D01*
X189536190Y-90778095D01*
X189583809Y-90730476D01*
X189631428Y-90635238D01*
X189631428Y-90444761D01*
X189583809Y-90349523D01*
X189536190Y-90301904D01*
X189440952Y-90254285D01*
X116395714Y-120652380D02*
X116395714Y-119652380D01*
X116776666Y-119652380D01*
X116871904Y-119700000D01*
X116919523Y-119747619D01*
X116967142Y-119842857D01*
X116967142Y-119985714D01*
X116919523Y-120080952D01*
X116871904Y-120128571D01*
X116776666Y-120176190D01*
X116395714Y-120176190D01*
X117729047Y-120128571D02*
X117871904Y-120176190D01*
X117919523Y-120223809D01*
X117967142Y-120319047D01*
X117967142Y-120461904D01*
X117919523Y-120557142D01*
X117871904Y-120604761D01*
X117776666Y-120652380D01*
X117395714Y-120652380D01*
X117395714Y-119652380D01*
X117729047Y-119652380D01*
X117824285Y-119700000D01*
X117871904Y-119747619D01*
X117919523Y-119842857D01*
X117919523Y-119938095D01*
X117871904Y-120033333D01*
X117824285Y-120080952D01*
X117729047Y-120128571D01*
X117395714Y-120128571D01*
X118919523Y-120652380D02*
X118348095Y-120652380D01*
X118633809Y-120652380D02*
X118633809Y-119652380D01*
X118538571Y-119795238D01*
X118443333Y-119890476D01*
X118348095Y-119938095D01*
X119824285Y-119652380D02*
X119348095Y-119652380D01*
X119300476Y-120128571D01*
X119348095Y-120080952D01*
X119443333Y-120033333D01*
X119681428Y-120033333D01*
X119776666Y-120080952D01*
X119824285Y-120128571D01*
X119871904Y-120223809D01*
X119871904Y-120461904D01*
X119824285Y-120557142D01*
X119776666Y-120604761D01*
X119681428Y-120652380D01*
X119443333Y-120652380D01*
X119348095Y-120604761D01*
X119300476Y-120557142D01*
X190112380Y-138658095D02*
X189112380Y-138658095D01*
X189112380Y-138277142D01*
X189160000Y-138181904D01*
X189207619Y-138134285D01*
X189302857Y-138086666D01*
X189445714Y-138086666D01*
X189540952Y-138134285D01*
X189588571Y-138181904D01*
X189636190Y-138277142D01*
X189636190Y-138658095D01*
X190017142Y-137086666D02*
X190064761Y-137134285D01*
X190112380Y-137277142D01*
X190112380Y-137372380D01*
X190064761Y-137515238D01*
X189969523Y-137610476D01*
X189874285Y-137658095D01*
X189683809Y-137705714D01*
X189540952Y-137705714D01*
X189350476Y-137658095D01*
X189255238Y-137610476D01*
X189160000Y-137515238D01*
X189112380Y-137372380D01*
X189112380Y-137277142D01*
X189160000Y-137134285D01*
X189207619Y-137086666D01*
X189207619Y-136705714D02*
X189160000Y-136658095D01*
X189112380Y-136562857D01*
X189112380Y-136324761D01*
X189160000Y-136229523D01*
X189207619Y-136181904D01*
X189302857Y-136134285D01*
X189398095Y-136134285D01*
X189540952Y-136181904D01*
X190112380Y-136753333D01*
X190112380Y-136134285D01*
X187888095Y-41030000D02*
X187792857Y-40982380D01*
X187650000Y-40982380D01*
X187507142Y-41030000D01*
X187411904Y-41125238D01*
X187364285Y-41220476D01*
X187316666Y-41410952D01*
X187316666Y-41553809D01*
X187364285Y-41744285D01*
X187411904Y-41839523D01*
X187507142Y-41934761D01*
X187650000Y-41982380D01*
X187745238Y-41982380D01*
X187888095Y-41934761D01*
X187935714Y-41887142D01*
X187935714Y-41553809D01*
X187745238Y-41553809D01*
X188364285Y-41982380D02*
X188364285Y-40982380D01*
X188935714Y-41982380D01*
X188935714Y-40982380D01*
X189411904Y-41982380D02*
X189411904Y-40982380D01*
X189650000Y-40982380D01*
X189792857Y-41030000D01*
X189888095Y-41125238D01*
X189935714Y-41220476D01*
X189983333Y-41410952D01*
X189983333Y-41553809D01*
X189935714Y-41744285D01*
X189888095Y-41839523D01*
X189792857Y-41934761D01*
X189650000Y-41982380D01*
X189411904Y-41982380D01*
X150621904Y-140062380D02*
X150621904Y-139062380D01*
X151002857Y-139062380D01*
X151098095Y-139110000D01*
X151145714Y-139157619D01*
X151193333Y-139252857D01*
X151193333Y-139395714D01*
X151145714Y-139490952D01*
X151098095Y-139538571D01*
X151002857Y-139586190D01*
X150621904Y-139586190D01*
X151955238Y-139538571D02*
X152098095Y-139586190D01*
X152145714Y-139633809D01*
X152193333Y-139729047D01*
X152193333Y-139871904D01*
X152145714Y-139967142D01*
X152098095Y-140014761D01*
X152002857Y-140062380D01*
X151621904Y-140062380D01*
X151621904Y-139062380D01*
X151955238Y-139062380D01*
X152050476Y-139110000D01*
X152098095Y-139157619D01*
X152145714Y-139252857D01*
X152145714Y-139348095D01*
X152098095Y-139443333D01*
X152050476Y-139490952D01*
X151955238Y-139538571D01*
X151621904Y-139538571D01*
X152526666Y-139062380D02*
X153193333Y-139062380D01*
X152764761Y-140062380D01*
D13*
X152077142Y-82562857D02*
X154362857Y-82562857D01*
X151791428Y-85134285D02*
X154934285Y-85134285D01*
X150934285Y-87134285D02*
X155505714Y-87134285D01*
X151791428Y-83705714D02*
X151791428Y-85134285D01*
X151791428Y-83705714D02*
X154934285Y-83705714D01*
X154934285Y-85134285D01*
X149791428Y-80562857D02*
X149791428Y-84848571D01*
X150934285Y-85991428D01*
X153791428Y-81420000D02*
X155505714Y-83134285D01*
X155505714Y-81420000D02*
X154362857Y-81991428D01*
X151505714Y-81420000D02*
X152077142Y-81991428D01*
X150648571Y-83420000D01*
X154648571Y-80562857D02*
X153791428Y-81420000D01*
X152362857Y-85705714D02*
X152362857Y-86562857D01*
X153505714Y-80277142D02*
X154077142Y-81991428D01*
X154362857Y-85420000D02*
X153791428Y-86562857D01*
X150648571Y-81705714D02*
X150077142Y-82848571D01*
X149505714Y-84848571D02*
X148648571Y-87134285D01*
X151220000Y-80848571D02*
X152934285Y-80562857D01*
X152077142Y-82277142D01*
X148934285Y-81991428D02*
X148362857Y-83420000D01*
X149791428Y-83420000D02*
X149220000Y-86277142D01*
D10*
X175774416Y-143715347D02*
X175067309Y-143008240D01*
X175336683Y-142738866D01*
X175437698Y-142705194D01*
X175505042Y-142705194D01*
X175606057Y-142738866D01*
X175707072Y-142839881D01*
X175740744Y-142940896D01*
X175740744Y-143008240D01*
X175707072Y-143109255D01*
X175437698Y-143378629D01*
X176818240Y-142536835D02*
X176818240Y-142604179D01*
X176750896Y-142738866D01*
X176683553Y-142806209D01*
X176548866Y-142873553D01*
X176414179Y-142873553D01*
X176313164Y-142839881D01*
X176144805Y-142738866D01*
X176043790Y-142637851D01*
X175942774Y-142469492D01*
X175909103Y-142368477D01*
X175909103Y-142233790D01*
X175976446Y-142099103D01*
X176043790Y-142031759D01*
X176178477Y-141964416D01*
X176245820Y-141964416D01*
X177559018Y-141930744D02*
X177154957Y-142334805D01*
X177356988Y-142132774D02*
X176649881Y-141425668D01*
X176683553Y-141594026D01*
X176683553Y-141728713D01*
X176649881Y-141829729D01*
X171440000Y-79261428D02*
X172201904Y-79261428D01*
X171820952Y-79642380D02*
X171820952Y-78880476D01*
X172582857Y-78642380D02*
X173201904Y-78642380D01*
X172868571Y-79023333D01*
X173011428Y-79023333D01*
X173106666Y-79070952D01*
X173154285Y-79118571D01*
X173201904Y-79213809D01*
X173201904Y-79451904D01*
X173154285Y-79547142D01*
X173106666Y-79594761D01*
X173011428Y-79642380D01*
X172725714Y-79642380D01*
X172630476Y-79594761D01*
X172582857Y-79547142D01*
X173630476Y-79547142D02*
X173678095Y-79594761D01*
X173630476Y-79642380D01*
X173582857Y-79594761D01*
X173630476Y-79547142D01*
X173630476Y-79642380D01*
X174011428Y-78642380D02*
X174630476Y-78642380D01*
X174297142Y-79023333D01*
X174440000Y-79023333D01*
X174535238Y-79070952D01*
X174582857Y-79118571D01*
X174630476Y-79213809D01*
X174630476Y-79451904D01*
X174582857Y-79547142D01*
X174535238Y-79594761D01*
X174440000Y-79642380D01*
X174154285Y-79642380D01*
X174059047Y-79594761D01*
X174011428Y-79547142D01*
X174916190Y-78642380D02*
X175249523Y-79642380D01*
X175582857Y-78642380D01*
D11*
X105556564Y-130985245D02*
X104990879Y-130419560D01*
X105206378Y-130204061D01*
X105287190Y-130177123D01*
X105341065Y-130177123D01*
X105421877Y-130204061D01*
X105502690Y-130284873D01*
X105529627Y-130365685D01*
X105529627Y-130419560D01*
X105502690Y-130500372D01*
X105287190Y-130715871D01*
X105933688Y-130284873D02*
X106203062Y-130015499D01*
X106041438Y-130500372D02*
X105664314Y-129746125D01*
X106418561Y-130123248D01*
X106903435Y-129638375D02*
X106580186Y-129961624D01*
X106741810Y-129800000D02*
X106176125Y-129234314D01*
X106203062Y-129369001D01*
X106203062Y-129476751D01*
X106176125Y-129557563D01*
X107442183Y-129099627D02*
X107118934Y-129422876D01*
X107280558Y-129261251D02*
X106714873Y-128695566D01*
X106741810Y-128830253D01*
X106741810Y-128938003D01*
X106714873Y-129018815D01*
X162850000Y-87352642D02*
X162850000Y-86452642D01*
X163064285Y-86452642D01*
X163192857Y-86495500D01*
X163278571Y-86581214D01*
X163321428Y-86666928D01*
X163364285Y-86838357D01*
X163364285Y-86966928D01*
X163321428Y-87138357D01*
X163278571Y-87224071D01*
X163192857Y-87309785D01*
X163064285Y-87352642D01*
X162850000Y-87352642D01*
X164092857Y-87309785D02*
X164007142Y-87352642D01*
X163835714Y-87352642D01*
X163750000Y-87309785D01*
X163707142Y-87224071D01*
X163707142Y-86881214D01*
X163750000Y-86795500D01*
X163835714Y-86752642D01*
X164007142Y-86752642D01*
X164092857Y-86795500D01*
X164135714Y-86881214D01*
X164135714Y-86966928D01*
X163707142Y-87052642D01*
X164478571Y-87309785D02*
X164564285Y-87352642D01*
X164735714Y-87352642D01*
X164821428Y-87309785D01*
X164864285Y-87224071D01*
X164864285Y-87181214D01*
X164821428Y-87095500D01*
X164735714Y-87052642D01*
X164607142Y-87052642D01*
X164521428Y-87009785D01*
X164478571Y-86924071D01*
X164478571Y-86881214D01*
X164521428Y-86795500D01*
X164607142Y-86752642D01*
X164735714Y-86752642D01*
X164821428Y-86795500D01*
X165250000Y-87352642D02*
X165250000Y-86752642D01*
X165250000Y-86452642D02*
X165207142Y-86495500D01*
X165250000Y-86538357D01*
X165292857Y-86495500D01*
X165250000Y-86452642D01*
X165250000Y-86538357D01*
X166064285Y-86752642D02*
X166064285Y-87481214D01*
X166021428Y-87566928D01*
X165978571Y-87609785D01*
X165892857Y-87652642D01*
X165764285Y-87652642D01*
X165678571Y-87609785D01*
X166064285Y-87309785D02*
X165978571Y-87352642D01*
X165807142Y-87352642D01*
X165721428Y-87309785D01*
X165678571Y-87266928D01*
X165635714Y-87181214D01*
X165635714Y-86924071D01*
X165678571Y-86838357D01*
X165721428Y-86795500D01*
X165807142Y-86752642D01*
X165978571Y-86752642D01*
X166064285Y-86795500D01*
X166492857Y-86752642D02*
X166492857Y-87352642D01*
X166492857Y-86838357D02*
X166535714Y-86795500D01*
X166621428Y-86752642D01*
X166750000Y-86752642D01*
X166835714Y-86795500D01*
X166878571Y-86881214D01*
X166878571Y-87352642D01*
X167650000Y-87309785D02*
X167564285Y-87352642D01*
X167392857Y-87352642D01*
X167307142Y-87309785D01*
X167264285Y-87224071D01*
X167264285Y-86881214D01*
X167307142Y-86795500D01*
X167392857Y-86752642D01*
X167564285Y-86752642D01*
X167650000Y-86795500D01*
X167692857Y-86881214D01*
X167692857Y-86966928D01*
X167264285Y-87052642D01*
X168464285Y-87352642D02*
X168464285Y-86452642D01*
X168464285Y-87309785D02*
X168378571Y-87352642D01*
X168207142Y-87352642D01*
X168121428Y-87309785D01*
X168078571Y-87266928D01*
X168035714Y-87181214D01*
X168035714Y-86924071D01*
X168078571Y-86838357D01*
X168121428Y-86795500D01*
X168207142Y-86752642D01*
X168378571Y-86752642D01*
X168464285Y-86795500D01*
X169578571Y-87352642D02*
X169578571Y-86452642D01*
X169578571Y-86795500D02*
X169664285Y-86752642D01*
X169835714Y-86752642D01*
X169921428Y-86795500D01*
X169964285Y-86838357D01*
X170007142Y-86924071D01*
X170007142Y-87181214D01*
X169964285Y-87266928D01*
X169921428Y-87309785D01*
X169835714Y-87352642D01*
X169664285Y-87352642D01*
X169578571Y-87309785D01*
X170307142Y-86752642D02*
X170521428Y-87352642D01*
X170735714Y-86752642D02*
X170521428Y-87352642D01*
X170435714Y-87566928D01*
X170392857Y-87609785D01*
X170307142Y-87652642D01*
X161628571Y-88373071D02*
X161585714Y-88330214D01*
X161500000Y-88287357D01*
X161414285Y-88287357D01*
X161328571Y-88330214D01*
X161285714Y-88373071D01*
X161242857Y-88458785D01*
X161242857Y-88544500D01*
X161285714Y-88630214D01*
X161328571Y-88673071D01*
X161414285Y-88715928D01*
X161500000Y-88715928D01*
X161585714Y-88673071D01*
X161628571Y-88630214D01*
X161628571Y-88287357D02*
X161628571Y-88630214D01*
X161671428Y-88673071D01*
X161714285Y-88673071D01*
X161800000Y-88630214D01*
X161842857Y-88544500D01*
X161842857Y-88330214D01*
X161757142Y-88201642D01*
X161628571Y-88115928D01*
X161457142Y-88073071D01*
X161285714Y-88115928D01*
X161157142Y-88201642D01*
X161071428Y-88330214D01*
X161028571Y-88501642D01*
X161071428Y-88673071D01*
X161157142Y-88801642D01*
X161285714Y-88887357D01*
X161457142Y-88930214D01*
X161628571Y-88887357D01*
X161757142Y-88801642D01*
X162614285Y-88758785D02*
X162528571Y-88801642D01*
X162357142Y-88801642D01*
X162271428Y-88758785D01*
X162228571Y-88715928D01*
X162185714Y-88630214D01*
X162185714Y-88373071D01*
X162228571Y-88287357D01*
X162271428Y-88244500D01*
X162357142Y-88201642D01*
X162528571Y-88201642D01*
X162614285Y-88244500D01*
X163385714Y-88801642D02*
X163385714Y-88330214D01*
X163342857Y-88244500D01*
X163257142Y-88201642D01*
X163085714Y-88201642D01*
X163000000Y-88244500D01*
X163385714Y-88758785D02*
X163300000Y-88801642D01*
X163085714Y-88801642D01*
X163000000Y-88758785D01*
X162957142Y-88673071D01*
X162957142Y-88587357D01*
X163000000Y-88501642D01*
X163085714Y-88458785D01*
X163300000Y-88458785D01*
X163385714Y-88415928D01*
X163685714Y-88201642D02*
X164028571Y-88201642D01*
X163814285Y-87901642D02*
X163814285Y-88673071D01*
X163857142Y-88758785D01*
X163942857Y-88801642D01*
X164028571Y-88801642D01*
X164114285Y-88887357D02*
X164800000Y-88887357D01*
X165014285Y-88201642D02*
X165014285Y-88801642D01*
X165014285Y-88287357D02*
X165057142Y-88244500D01*
X165142857Y-88201642D01*
X165271428Y-88201642D01*
X165357142Y-88244500D01*
X165400000Y-88330214D01*
X165400000Y-88801642D01*
X166171428Y-88758785D02*
X166085714Y-88801642D01*
X165914285Y-88801642D01*
X165828571Y-88758785D01*
X165785714Y-88673071D01*
X165785714Y-88330214D01*
X165828571Y-88244500D01*
X165914285Y-88201642D01*
X166085714Y-88201642D01*
X166171428Y-88244500D01*
X166214285Y-88330214D01*
X166214285Y-88415928D01*
X165785714Y-88501642D01*
X166600000Y-88801642D02*
X166600000Y-87901642D01*
X166685714Y-88458785D02*
X166942857Y-88801642D01*
X166942857Y-88201642D02*
X166600000Y-88544500D01*
X167457142Y-88801642D02*
X167371428Y-88758785D01*
X167328571Y-88715928D01*
X167285714Y-88630214D01*
X167285714Y-88373071D01*
X167328571Y-88287357D01*
X167371428Y-88244500D01*
X167457142Y-88201642D01*
X167585714Y-88201642D01*
X167671428Y-88244500D01*
X167714285Y-88287357D01*
X167757142Y-88373071D01*
X167757142Y-88630214D01*
X167714285Y-88715928D01*
X167671428Y-88758785D01*
X167585714Y-88801642D01*
X167457142Y-88801642D01*
X168142857Y-88201642D02*
X168142857Y-88801642D01*
X168142857Y-88287357D02*
X168185714Y-88244500D01*
X168271428Y-88201642D01*
X168400000Y-88201642D01*
X168485714Y-88244500D01*
X168528571Y-88330214D01*
X168528571Y-88801642D01*
X169300000Y-88758785D02*
X169214285Y-88801642D01*
X169042857Y-88801642D01*
X168957142Y-88758785D01*
X168914285Y-88673071D01*
X168914285Y-88330214D01*
X168957142Y-88244500D01*
X169042857Y-88201642D01*
X169214285Y-88201642D01*
X169300000Y-88244500D01*
X169342857Y-88330214D01*
X169342857Y-88415928D01*
X168914285Y-88501642D01*
X169728571Y-88801642D02*
X169728571Y-87901642D01*
X169814285Y-88458785D02*
X170071428Y-88801642D01*
X170071428Y-88201642D02*
X169728571Y-88544500D01*
X170585714Y-88801642D02*
X170500000Y-88758785D01*
X170457142Y-88715928D01*
X170414285Y-88630214D01*
X170414285Y-88373071D01*
X170457142Y-88287357D01*
X170500000Y-88244500D01*
X170585714Y-88201642D01*
X170714285Y-88201642D01*
X170800000Y-88244500D01*
X170842857Y-88287357D01*
X170885714Y-88373071D01*
X170885714Y-88630214D01*
X170842857Y-88715928D01*
X170800000Y-88758785D01*
X170714285Y-88801642D01*
X170585714Y-88801642D01*
X171271428Y-88201642D02*
X171271428Y-88801642D01*
X171271428Y-88287357D02*
X171314285Y-88244500D01*
X171400000Y-88201642D01*
X171528571Y-88201642D01*
X171614285Y-88244500D01*
X171657142Y-88330214D01*
X171657142Y-88801642D01*
X172428571Y-88758785D02*
X172342857Y-88801642D01*
X172171428Y-88801642D01*
X172085714Y-88758785D01*
X172042857Y-88673071D01*
X172042857Y-88330214D01*
X172085714Y-88244500D01*
X172171428Y-88201642D01*
X172342857Y-88201642D01*
X172428571Y-88244500D01*
X172471428Y-88330214D01*
X172471428Y-88415928D01*
X172042857Y-88501642D01*
D14*
X145782857Y-88514285D02*
X146811428Y-88514285D01*
X146297142Y-90314285D02*
X146297142Y-88514285D01*
X147668571Y-90314285D02*
X147497142Y-90228571D01*
X147411428Y-90142857D01*
X147325714Y-89971428D01*
X147325714Y-89457142D01*
X147411428Y-89285714D01*
X147497142Y-89200000D01*
X147668571Y-89114285D01*
X147925714Y-89114285D01*
X148097142Y-89200000D01*
X148182857Y-89285714D01*
X148268571Y-89457142D01*
X148268571Y-89971428D01*
X148182857Y-90142857D01*
X148097142Y-90228571D01*
X147925714Y-90314285D01*
X147668571Y-90314285D01*
X149040000Y-90314285D02*
X149040000Y-89114285D01*
X149040000Y-89285714D02*
X149125714Y-89200000D01*
X149297142Y-89114285D01*
X149554285Y-89114285D01*
X149725714Y-89200000D01*
X149811428Y-89371428D01*
X149811428Y-90314285D01*
X149811428Y-89371428D02*
X149897142Y-89200000D01*
X150068571Y-89114285D01*
X150325714Y-89114285D01*
X150497142Y-89200000D01*
X150582857Y-89371428D01*
X150582857Y-90314285D01*
X151697142Y-90314285D02*
X151525714Y-90228571D01*
X151440000Y-90142857D01*
X151354285Y-89971428D01*
X151354285Y-89457142D01*
X151440000Y-89285714D01*
X151525714Y-89200000D01*
X151697142Y-89114285D01*
X151954285Y-89114285D01*
X152125714Y-89200000D01*
X152211428Y-89285714D01*
X152297142Y-89457142D01*
X152297142Y-89971428D01*
X152211428Y-90142857D01*
X152125714Y-90228571D01*
X151954285Y-90314285D01*
X151697142Y-90314285D01*
X152982857Y-90228571D02*
X153154285Y-90314285D01*
X153497142Y-90314285D01*
X153668571Y-90228571D01*
X153754285Y-90057142D01*
X153754285Y-89971428D01*
X153668571Y-89800000D01*
X153497142Y-89714285D01*
X153240000Y-89714285D01*
X153068571Y-89628571D01*
X152982857Y-89457142D01*
X152982857Y-89371428D01*
X153068571Y-89200000D01*
X153240000Y-89114285D01*
X153497142Y-89114285D01*
X153668571Y-89200000D01*
X154525714Y-90314285D02*
X154525714Y-88514285D01*
X155297142Y-90314285D02*
X155297142Y-89371428D01*
X155211428Y-89200000D01*
X155040000Y-89114285D01*
X154782857Y-89114285D01*
X154611428Y-89200000D01*
X154525714Y-89285714D01*
X156154285Y-90314285D02*
X156154285Y-89114285D01*
X156154285Y-88514285D02*
X156068571Y-88600000D01*
X156154285Y-88685714D01*
X156240000Y-88600000D01*
X156154285Y-88514285D01*
X156154285Y-88685714D01*
X157011428Y-90314285D02*
X157011428Y-88514285D01*
X157011428Y-89200000D02*
X157182857Y-89114285D01*
X157525714Y-89114285D01*
X157697142Y-89200000D01*
X157782857Y-89285714D01*
X157868571Y-89457142D01*
X157868571Y-89971428D01*
X157782857Y-90142857D01*
X157697142Y-90228571D01*
X157525714Y-90314285D01*
X157182857Y-90314285D01*
X157011428Y-90228571D01*
X158640000Y-90314285D02*
X158640000Y-89114285D01*
X158640000Y-88514285D02*
X158554285Y-88600000D01*
X158640000Y-88685714D01*
X158725714Y-88600000D01*
X158640000Y-88514285D01*
X158640000Y-88685714D01*
D11*
X123701428Y-70977142D02*
X124310952Y-70977142D01*
X124006190Y-71281904D02*
X124006190Y-70672380D01*
X125072857Y-70481904D02*
X124691904Y-70481904D01*
X124653809Y-70862857D01*
X124691904Y-70824761D01*
X124768095Y-70786666D01*
X124958571Y-70786666D01*
X125034761Y-70824761D01*
X125072857Y-70862857D01*
X125110952Y-70939047D01*
X125110952Y-71129523D01*
X125072857Y-71205714D01*
X125034761Y-71243809D01*
X124958571Y-71281904D01*
X124768095Y-71281904D01*
X124691904Y-71243809D01*
X124653809Y-71205714D01*
X125339523Y-70481904D02*
X125606190Y-71281904D01*
X125872857Y-70481904D01*
D10*
X177420000Y-116792380D02*
X177420000Y-115792380D01*
X177658095Y-115792380D01*
X177800952Y-115840000D01*
X177896190Y-115935238D01*
X177943809Y-116030476D01*
X177991428Y-116220952D01*
X177991428Y-116363809D01*
X177943809Y-116554285D01*
X177896190Y-116649523D01*
X177800952Y-116744761D01*
X177658095Y-116792380D01*
X177420000Y-116792380D01*
X178420000Y-116792380D02*
X178420000Y-115792380D01*
X179086666Y-115792380D02*
X179277142Y-115792380D01*
X179372380Y-115840000D01*
X179467619Y-115935238D01*
X179515238Y-116125714D01*
X179515238Y-116459047D01*
X179467619Y-116649523D01*
X179372380Y-116744761D01*
X179277142Y-116792380D01*
X179086666Y-116792380D01*
X178991428Y-116744761D01*
X178896190Y-116649523D01*
X178848571Y-116459047D01*
X178848571Y-116125714D01*
X178896190Y-115935238D01*
X178991428Y-115840000D01*
X179086666Y-115792380D01*
X179991428Y-116792380D02*
X180181904Y-116792380D01*
X180277142Y-116744761D01*
X180324761Y-116697142D01*
X180420000Y-116554285D01*
X180467619Y-116363809D01*
X180467619Y-115982857D01*
X180420000Y-115887619D01*
X180372380Y-115840000D01*
X180277142Y-115792380D01*
X180086666Y-115792380D01*
X179991428Y-115840000D01*
X179943809Y-115887619D01*
X179896190Y-115982857D01*
X179896190Y-116220952D01*
X179943809Y-116316190D01*
X179991428Y-116363809D01*
X180086666Y-116411428D01*
X180277142Y-116411428D01*
X180372380Y-116363809D01*
X180420000Y-116316190D01*
X180467619Y-116220952D01*
X124495714Y-126342380D02*
X124495714Y-125342380D01*
X124876666Y-125342380D01*
X124971904Y-125390000D01*
X125019523Y-125437619D01*
X125067142Y-125532857D01*
X125067142Y-125675714D01*
X125019523Y-125770952D01*
X124971904Y-125818571D01*
X124876666Y-125866190D01*
X124495714Y-125866190D01*
X126067142Y-126247142D02*
X126019523Y-126294761D01*
X125876666Y-126342380D01*
X125781428Y-126342380D01*
X125638571Y-126294761D01*
X125543333Y-126199523D01*
X125495714Y-126104285D01*
X125448095Y-125913809D01*
X125448095Y-125770952D01*
X125495714Y-125580476D01*
X125543333Y-125485238D01*
X125638571Y-125390000D01*
X125781428Y-125342380D01*
X125876666Y-125342380D01*
X126019523Y-125390000D01*
X126067142Y-125437619D01*
X127019523Y-126342380D02*
X126448095Y-126342380D01*
X126733809Y-126342380D02*
X126733809Y-125342380D01*
X126638571Y-125485238D01*
X126543333Y-125580476D01*
X126448095Y-125628095D01*
X127638571Y-125342380D02*
X127733809Y-125342380D01*
X127829047Y-125390000D01*
X127876666Y-125437619D01*
X127924285Y-125532857D01*
X127971904Y-125723333D01*
X127971904Y-125961428D01*
X127924285Y-126151904D01*
X127876666Y-126247142D01*
X127829047Y-126294761D01*
X127733809Y-126342380D01*
X127638571Y-126342380D01*
X127543333Y-126294761D01*
X127495714Y-126247142D01*
X127448095Y-126151904D01*
X127400476Y-125961428D01*
X127400476Y-125723333D01*
X127448095Y-125532857D01*
X127495714Y-125437619D01*
X127543333Y-125390000D01*
X127638571Y-125342380D01*
X177450000Y-118492380D02*
X177450000Y-117492380D01*
X177688095Y-117492380D01*
X177830952Y-117540000D01*
X177926190Y-117635238D01*
X177973809Y-117730476D01*
X178021428Y-117920952D01*
X178021428Y-118063809D01*
X177973809Y-118254285D01*
X177926190Y-118349523D01*
X177830952Y-118444761D01*
X177688095Y-118492380D01*
X177450000Y-118492380D01*
X178450000Y-118492380D02*
X178450000Y-117492380D01*
X179116666Y-117492380D02*
X179307142Y-117492380D01*
X179402380Y-117540000D01*
X179497619Y-117635238D01*
X179545238Y-117825714D01*
X179545238Y-118159047D01*
X179497619Y-118349523D01*
X179402380Y-118444761D01*
X179307142Y-118492380D01*
X179116666Y-118492380D01*
X179021428Y-118444761D01*
X178926190Y-118349523D01*
X178878571Y-118159047D01*
X178878571Y-117825714D01*
X178926190Y-117635238D01*
X179021428Y-117540000D01*
X179116666Y-117492380D01*
X180116666Y-117920952D02*
X180021428Y-117873333D01*
X179973809Y-117825714D01*
X179926190Y-117730476D01*
X179926190Y-117682857D01*
X179973809Y-117587619D01*
X180021428Y-117540000D01*
X180116666Y-117492380D01*
X180307142Y-117492380D01*
X180402380Y-117540000D01*
X180450000Y-117587619D01*
X180497619Y-117682857D01*
X180497619Y-117730476D01*
X180450000Y-117825714D01*
X180402380Y-117873333D01*
X180307142Y-117920952D01*
X180116666Y-117920952D01*
X180021428Y-117968571D01*
X179973809Y-118016190D01*
X179926190Y-118111428D01*
X179926190Y-118301904D01*
X179973809Y-118397142D01*
X180021428Y-118444761D01*
X180116666Y-118492380D01*
X180307142Y-118492380D01*
X180402380Y-118444761D01*
X180450000Y-118397142D01*
X180497619Y-118301904D01*
X180497619Y-118111428D01*
X180450000Y-118016190D01*
X180402380Y-117968571D01*
X180307142Y-117920952D01*
D12*
X140404285Y-143928571D02*
X139690000Y-143928571D01*
X139618571Y-144642857D01*
X139690000Y-144571428D01*
X139832857Y-144500000D01*
X140190000Y-144500000D01*
X140332857Y-144571428D01*
X140404285Y-144642857D01*
X140475714Y-144785714D01*
X140475714Y-145142857D01*
X140404285Y-145285714D01*
X140332857Y-145357142D01*
X140190000Y-145428571D01*
X139832857Y-145428571D01*
X139690000Y-145357142D01*
X139618571Y-145285714D01*
X140904285Y-143928571D02*
X141404285Y-145428571D01*
X141904285Y-143928571D01*
X163595714Y-149428571D02*
X164524285Y-149428571D01*
X164024285Y-150000000D01*
X164238571Y-150000000D01*
X164381428Y-150071428D01*
X164452857Y-150142857D01*
X164524285Y-150285714D01*
X164524285Y-150642857D01*
X164452857Y-150785714D01*
X164381428Y-150857142D01*
X164238571Y-150928571D01*
X163810000Y-150928571D01*
X163667142Y-150857142D01*
X163595714Y-150785714D01*
X165167142Y-150785714D02*
X165238571Y-150857142D01*
X165167142Y-150928571D01*
X165095714Y-150857142D01*
X165167142Y-150785714D01*
X165167142Y-150928571D01*
X165738571Y-149428571D02*
X166667142Y-149428571D01*
X166167142Y-150000000D01*
X166381428Y-150000000D01*
X166524285Y-150071428D01*
X166595714Y-150142857D01*
X166667142Y-150285714D01*
X166667142Y-150642857D01*
X166595714Y-150785714D01*
X166524285Y-150857142D01*
X166381428Y-150928571D01*
X165952857Y-150928571D01*
X165810000Y-150857142D01*
X165738571Y-150785714D01*
X167095714Y-149428571D02*
X167595714Y-150928571D01*
X168095714Y-149428571D01*
D10*
%TO.C,Q5*%
X105897619Y-131725238D02*
X105850000Y-131820476D01*
X105754761Y-131915714D01*
X105611904Y-132058571D01*
X105564285Y-132153809D01*
X105564285Y-132249047D01*
X105802380Y-132201428D02*
X105754761Y-132296666D01*
X105659523Y-132391904D01*
X105469047Y-132439523D01*
X105135714Y-132439523D01*
X104945238Y-132391904D01*
X104850000Y-132296666D01*
X104802380Y-132201428D01*
X104802380Y-132010952D01*
X104850000Y-131915714D01*
X104945238Y-131820476D01*
X105135714Y-131772857D01*
X105469047Y-131772857D01*
X105659523Y-131820476D01*
X105754761Y-131915714D01*
X105802380Y-132010952D01*
X105802380Y-132201428D01*
X104802380Y-130868095D02*
X104802380Y-131344285D01*
X105278571Y-131391904D01*
X105230952Y-131344285D01*
X105183333Y-131249047D01*
X105183333Y-131010952D01*
X105230952Y-130915714D01*
X105278571Y-130868095D01*
X105373809Y-130820476D01*
X105611904Y-130820476D01*
X105707142Y-130868095D01*
X105754761Y-130915714D01*
X105802380Y-131010952D01*
X105802380Y-131249047D01*
X105754761Y-131344285D01*
X105707142Y-131391904D01*
%TO.C,U7*%
X141379805Y-102572698D02*
X141346133Y-102471683D01*
X141245118Y-102370668D01*
X141110431Y-102303324D01*
X140975744Y-102303324D01*
X140874729Y-102336996D01*
X140706370Y-102438011D01*
X140605355Y-102539026D01*
X140504339Y-102707385D01*
X140470668Y-102808400D01*
X140470668Y-102943087D01*
X140538011Y-103077774D01*
X140605355Y-103145118D01*
X140740042Y-103212461D01*
X140807385Y-103212461D01*
X141043087Y-102976759D01*
X140908400Y-102842072D01*
X141043087Y-103582851D02*
X141750194Y-102875744D01*
X141447148Y-103986912D01*
X142154255Y-103279805D01*
X141783866Y-104323629D02*
X142490973Y-103616522D01*
X142659331Y-103784881D01*
X142726675Y-103919568D01*
X142726675Y-104054255D01*
X142693003Y-104155270D01*
X142591988Y-104323629D01*
X142490973Y-104424644D01*
X142322614Y-104525660D01*
X142221599Y-104559331D01*
X142086912Y-104559331D01*
X141952225Y-104491988D01*
X141783866Y-104323629D01*
X145516996Y-102909416D02*
X145584339Y-103044103D01*
X145752698Y-103212461D01*
X145853713Y-103246133D01*
X145921057Y-103246133D01*
X146022072Y-103212461D01*
X146089416Y-103145118D01*
X146123087Y-103044103D01*
X146123087Y-102976759D01*
X146089416Y-102875744D01*
X145988400Y-102707385D01*
X145954729Y-102606370D01*
X145954729Y-102539026D01*
X145988400Y-102438011D01*
X146055744Y-102370668D01*
X146156759Y-102336996D01*
X146224103Y-102336996D01*
X146325118Y-102370668D01*
X146493477Y-102539026D01*
X146560820Y-102673713D01*
X146661835Y-103986912D02*
X146594492Y-103986912D01*
X146459805Y-103919568D01*
X146392461Y-103852225D01*
X146325118Y-103717538D01*
X146325118Y-103582851D01*
X146358790Y-103481835D01*
X146459805Y-103313477D01*
X146560820Y-103212461D01*
X146729179Y-103111446D01*
X146830194Y-103077774D01*
X146964881Y-103077774D01*
X147099568Y-103145118D01*
X147166912Y-103212461D01*
X147234255Y-103347148D01*
X147234255Y-103414492D01*
X147234255Y-104694018D02*
X146897538Y-104357301D01*
X147604644Y-103650194D01*
X148040160Y-102892580D02*
X148107503Y-103027267D01*
X148275862Y-103195625D01*
X148376877Y-103229297D01*
X148444221Y-103229297D01*
X148545236Y-103195625D01*
X148612580Y-103128282D01*
X148646251Y-103027267D01*
X148646251Y-102959923D01*
X148612580Y-102858908D01*
X148511564Y-102690549D01*
X148477893Y-102589534D01*
X148477893Y-102522190D01*
X148511564Y-102421175D01*
X148578908Y-102353832D01*
X148679923Y-102320160D01*
X148747267Y-102320160D01*
X148848282Y-102353832D01*
X149016641Y-102522190D01*
X149083984Y-102656877D01*
X148713595Y-103633358D02*
X149420702Y-102926251D01*
X149589061Y-103094610D01*
X149656404Y-103229297D01*
X149656404Y-103363984D01*
X149622732Y-103464999D01*
X149521717Y-103633358D01*
X149420702Y-103734374D01*
X149252343Y-103835389D01*
X149151328Y-103869061D01*
X149016641Y-103869061D01*
X148881954Y-103801717D01*
X148713595Y-103633358D01*
X149589061Y-104104763D02*
X149925778Y-104441480D01*
X149319687Y-104239450D02*
X150262496Y-103768045D01*
X149791091Y-104710854D01*
X143549416Y-102134965D02*
X143078011Y-103077774D01*
X144020820Y-102606370D01*
X144020820Y-103885896D02*
X143953477Y-103885896D01*
X143818790Y-103818553D01*
X143751446Y-103751209D01*
X143684103Y-103616522D01*
X143684103Y-103481835D01*
X143717774Y-103380820D01*
X143818790Y-103212461D01*
X143919805Y-103111446D01*
X144088164Y-103010431D01*
X144189179Y-102976759D01*
X144323866Y-102976759D01*
X144458553Y-103044103D01*
X144525896Y-103111446D01*
X144593240Y-103246133D01*
X144593240Y-103313477D01*
X144727927Y-104593003D02*
X144660583Y-104593003D01*
X144525896Y-104525660D01*
X144458553Y-104458316D01*
X144391209Y-104323629D01*
X144391209Y-104188942D01*
X144424881Y-104087927D01*
X144525896Y-103919568D01*
X144626912Y-103818553D01*
X144795270Y-103717538D01*
X144896286Y-103683866D01*
X145030973Y-103683866D01*
X145165660Y-103751209D01*
X145233003Y-103818553D01*
X145300347Y-103953240D01*
X145300347Y-104020583D01*
%TO.C,J5*%
X183368571Y-46842142D02*
X184511428Y-46842142D01*
X172368571Y-46842142D02*
X173511428Y-46842142D01*
X172940000Y-47413571D02*
X172940000Y-46270714D01*
%TO.C,J2*%
X105248571Y-46842142D02*
X106391428Y-46842142D01*
X105820000Y-47413571D02*
X105820000Y-46270714D01*
X116248571Y-46842142D02*
X117391428Y-46842142D01*
%TO.C,C2*%
X99313333Y-108077142D02*
X99265714Y-108124761D01*
X99122857Y-108172380D01*
X99027619Y-108172380D01*
X98884761Y-108124761D01*
X98789523Y-108029523D01*
X98741904Y-107934285D01*
X98694285Y-107743809D01*
X98694285Y-107600952D01*
X98741904Y-107410476D01*
X98789523Y-107315238D01*
X98884761Y-107220000D01*
X99027619Y-107172380D01*
X99122857Y-107172380D01*
X99265714Y-107220000D01*
X99313333Y-107267619D01*
X99694285Y-107267619D02*
X99741904Y-107220000D01*
X99837142Y-107172380D01*
X100075238Y-107172380D01*
X100170476Y-107220000D01*
X100218095Y-107267619D01*
X100265714Y-107362857D01*
X100265714Y-107458095D01*
X100218095Y-107600952D01*
X99646666Y-108172380D01*
X100265714Y-108172380D01*
%TO.C,J4*%
X156418571Y-46842142D02*
X157561428Y-46842142D01*
X156990000Y-47413571D02*
X156990000Y-46270714D01*
X167418571Y-46842142D02*
X168561428Y-46842142D01*
%TO.C,J3*%
X135038571Y-46842142D02*
X136181428Y-46842142D01*
X124038571Y-46842142D02*
X125181428Y-46842142D01*
X124610000Y-47413571D02*
X124610000Y-46270714D01*
%TO.C,Q3*%
X93327619Y-122795238D02*
X93280000Y-122890476D01*
X93184761Y-122985714D01*
X93041904Y-123128571D01*
X92994285Y-123223809D01*
X92994285Y-123319047D01*
X93232380Y-123271428D02*
X93184761Y-123366666D01*
X93089523Y-123461904D01*
X92899047Y-123509523D01*
X92565714Y-123509523D01*
X92375238Y-123461904D01*
X92280000Y-123366666D01*
X92232380Y-123271428D01*
X92232380Y-123080952D01*
X92280000Y-122985714D01*
X92375238Y-122890476D01*
X92565714Y-122842857D01*
X92899047Y-122842857D01*
X93089523Y-122890476D01*
X93184761Y-122985714D01*
X93232380Y-123080952D01*
X93232380Y-123271428D01*
X92232380Y-122509523D02*
X92232380Y-121890476D01*
X92613333Y-122223809D01*
X92613333Y-122080952D01*
X92660952Y-121985714D01*
X92708571Y-121938095D01*
X92803809Y-121890476D01*
X93041904Y-121890476D01*
X93137142Y-121938095D01*
X93184761Y-121985714D01*
X93232380Y-122080952D01*
X93232380Y-122366666D01*
X93184761Y-122461904D01*
X93137142Y-122509523D01*
%TO.C,J6*%
X101528333Y-109852619D02*
X101195000Y-108852619D01*
X100861666Y-109852619D01*
X100195000Y-109376428D02*
X100052142Y-109328809D01*
X100004523Y-109281190D01*
X99956904Y-109185952D01*
X99956904Y-109043095D01*
X100004523Y-108947857D01*
X100052142Y-108900238D01*
X100147380Y-108852619D01*
X100528333Y-108852619D01*
X100528333Y-109852619D01*
X100195000Y-109852619D01*
X100099761Y-109805000D01*
X100052142Y-109757380D01*
X100004523Y-109662142D01*
X100004523Y-109566904D01*
X100052142Y-109471666D01*
X100099761Y-109424047D01*
X100195000Y-109376428D01*
X100528333Y-109376428D01*
X99528333Y-109852619D02*
X99528333Y-109043095D01*
X99480714Y-108947857D01*
X99433095Y-108900238D01*
X99337857Y-108852619D01*
X99147380Y-108852619D01*
X99052142Y-108900238D01*
X99004523Y-108947857D01*
X98956904Y-109043095D01*
X98956904Y-109852619D01*
X98528333Y-108900238D02*
X98385476Y-108852619D01*
X98147380Y-108852619D01*
X98052142Y-108900238D01*
X98004523Y-108947857D01*
X97956904Y-109043095D01*
X97956904Y-109138333D01*
X98004523Y-109233571D01*
X98052142Y-109281190D01*
X98147380Y-109328809D01*
X98337857Y-109376428D01*
X98433095Y-109424047D01*
X98480714Y-109471666D01*
X98528333Y-109566904D01*
X98528333Y-109662142D01*
X98480714Y-109757380D01*
X98433095Y-109805000D01*
X98337857Y-109852619D01*
X98099761Y-109852619D01*
X97956904Y-109805000D01*
X101056904Y-94405000D02*
X101152142Y-94452619D01*
X101295000Y-94452619D01*
X101437857Y-94405000D01*
X101533095Y-94309761D01*
X101580714Y-94214523D01*
X101628333Y-94024047D01*
X101628333Y-93881190D01*
X101580714Y-93690714D01*
X101533095Y-93595476D01*
X101437857Y-93500238D01*
X101295000Y-93452619D01*
X101199761Y-93452619D01*
X101056904Y-93500238D01*
X101009285Y-93547857D01*
X101009285Y-93881190D01*
X101199761Y-93881190D01*
X100580714Y-93452619D02*
X100580714Y-94452619D01*
X100009285Y-93452619D01*
X100009285Y-94452619D01*
X99533095Y-93452619D02*
X99533095Y-94452619D01*
X99295000Y-94452619D01*
X99152142Y-94405000D01*
X99056904Y-94309761D01*
X99009285Y-94214523D01*
X98961666Y-94024047D01*
X98961666Y-93881190D01*
X99009285Y-93690714D01*
X99056904Y-93595476D01*
X99152142Y-93500238D01*
X99295000Y-93452619D01*
X99533095Y-93452619D01*
X100961666Y-98747857D02*
X101009285Y-98700238D01*
X101152142Y-98652619D01*
X101247380Y-98652619D01*
X101390238Y-98700238D01*
X101485476Y-98795476D01*
X101533095Y-98890714D01*
X101580714Y-99081190D01*
X101580714Y-99224047D01*
X101533095Y-99414523D01*
X101485476Y-99509761D01*
X101390238Y-99605000D01*
X101247380Y-99652619D01*
X101152142Y-99652619D01*
X101009285Y-99605000D01*
X100961666Y-99557380D01*
X99961666Y-98747857D02*
X100009285Y-98700238D01*
X100152142Y-98652619D01*
X100247380Y-98652619D01*
X100390238Y-98700238D01*
X100485476Y-98795476D01*
X100533095Y-98890714D01*
X100580714Y-99081190D01*
X100580714Y-99224047D01*
X100533095Y-99414523D01*
X100485476Y-99509761D01*
X100390238Y-99605000D01*
X100247380Y-99652619D01*
X100152142Y-99652619D01*
X100009285Y-99605000D01*
X99961666Y-99557380D01*
X99009285Y-98652619D02*
X99580714Y-98652619D01*
X99295000Y-98652619D02*
X99295000Y-99652619D01*
X99390238Y-99509761D01*
X99485476Y-99414523D01*
X99580714Y-99366904D01*
X100961666Y-96147857D02*
X101009285Y-96100238D01*
X101152142Y-96052619D01*
X101247380Y-96052619D01*
X101390238Y-96100238D01*
X101485476Y-96195476D01*
X101533095Y-96290714D01*
X101580714Y-96481190D01*
X101580714Y-96624047D01*
X101533095Y-96814523D01*
X101485476Y-96909761D01*
X101390238Y-97005000D01*
X101247380Y-97052619D01*
X101152142Y-97052619D01*
X101009285Y-97005000D01*
X100961666Y-96957380D01*
X99961666Y-96147857D02*
X100009285Y-96100238D01*
X100152142Y-96052619D01*
X100247380Y-96052619D01*
X100390238Y-96100238D01*
X100485476Y-96195476D01*
X100533095Y-96290714D01*
X100580714Y-96481190D01*
X100580714Y-96624047D01*
X100533095Y-96814523D01*
X100485476Y-96909761D01*
X100390238Y-97005000D01*
X100247380Y-97052619D01*
X100152142Y-97052619D01*
X100009285Y-97005000D01*
X99961666Y-96957380D01*
X99580714Y-96957380D02*
X99533095Y-97005000D01*
X99437857Y-97052619D01*
X99199761Y-97052619D01*
X99104523Y-97005000D01*
X99056904Y-96957380D01*
X99009285Y-96862142D01*
X99009285Y-96766904D01*
X99056904Y-96624047D01*
X99628333Y-96052619D01*
X99009285Y-96052619D01*
X101056904Y-102205000D02*
X101152142Y-102252619D01*
X101295000Y-102252619D01*
X101437857Y-102205000D01*
X101533095Y-102109761D01*
X101580714Y-102014523D01*
X101628333Y-101824047D01*
X101628333Y-101681190D01*
X101580714Y-101490714D01*
X101533095Y-101395476D01*
X101437857Y-101300238D01*
X101295000Y-101252619D01*
X101199761Y-101252619D01*
X101056904Y-101300238D01*
X101009285Y-101347857D01*
X101009285Y-101681190D01*
X101199761Y-101681190D01*
X100580714Y-101252619D02*
X100580714Y-102252619D01*
X100009285Y-101252619D01*
X100009285Y-102252619D01*
X99533095Y-101252619D02*
X99533095Y-102252619D01*
X99295000Y-102252619D01*
X99152142Y-102205000D01*
X99056904Y-102109761D01*
X99009285Y-102014523D01*
X98961666Y-101824047D01*
X98961666Y-101681190D01*
X99009285Y-101490714D01*
X99056904Y-101395476D01*
X99152142Y-101300238D01*
X99295000Y-101252619D01*
X99533095Y-101252619D01*
X101575952Y-106252619D02*
X101575952Y-107252619D01*
X101337857Y-107252619D01*
X101195000Y-107205000D01*
X101099761Y-107109761D01*
X101052142Y-107014523D01*
X101004523Y-106824047D01*
X101004523Y-106681190D01*
X101052142Y-106490714D01*
X101099761Y-106395476D01*
X101195000Y-106300238D01*
X101337857Y-106252619D01*
X101575952Y-106252619D01*
X100575952Y-106633571D02*
X99814047Y-106633571D01*
X101575952Y-103652619D02*
X101575952Y-104652619D01*
X101337857Y-104652619D01*
X101195000Y-104605000D01*
X101099761Y-104509761D01*
X101052142Y-104414523D01*
X101004523Y-104224047D01*
X101004523Y-104081190D01*
X101052142Y-103890714D01*
X101099761Y-103795476D01*
X101195000Y-103700238D01*
X101337857Y-103652619D01*
X101575952Y-103652619D01*
X100575952Y-104033571D02*
X99814047Y-104033571D01*
X100195000Y-103652619D02*
X100195000Y-104414523D01*
D15*
%TO.C,C19*%
X113467836Y-110952500D02*
X113252164Y-110952500D01*
X113467836Y-110232500D02*
X113252164Y-110232500D01*
%TO.C,C32*%
X157932164Y-91230000D02*
X158147836Y-91230000D01*
X157932164Y-91950000D02*
X158147836Y-91950000D01*
%TO.C,R35*%
X128782500Y-121535359D02*
X128782500Y-121842641D01*
X129542500Y-121535359D02*
X129542500Y-121842641D01*
%TO.C,U8*%
X155350000Y-97840000D02*
X157300000Y-97840000D01*
X155350000Y-97840000D02*
X153400000Y-97840000D01*
X155350000Y-92720000D02*
X151900000Y-92720000D01*
X155350000Y-92720000D02*
X157300000Y-92720000D01*
%TO.C,Q28*%
X146790000Y-92700000D02*
X149190000Y-92700000D01*
X147390000Y-96000000D02*
X149190000Y-96000000D01*
X149190000Y-96000000D02*
X149190000Y-94950000D01*
X149190000Y-92700000D02*
X149190000Y-93750000D01*
%TO.C,H5*%
X114660000Y-113870000D02*
X114660000Y-111970000D01*
X116560000Y-113870000D02*
X114660000Y-113870000D01*
X114660000Y-111970000D02*
X116560000Y-111970000D01*
X116560000Y-111970000D02*
X116560000Y-113870000D01*
%TO.C,H9*%
X149130000Y-35660000D02*
X151030000Y-35660000D01*
X151030000Y-37560000D02*
X149130000Y-37560000D01*
X151030000Y-35660000D02*
X151030000Y-37560000D01*
X149130000Y-37560000D02*
X149130000Y-35660000D01*
%TO.C,R74*%
X183703641Y-139510000D02*
X183396359Y-139510000D01*
X183703641Y-138750000D02*
X183396359Y-138750000D01*
%TO.C,R58*%
X132453641Y-73230000D02*
X132146359Y-73230000D01*
X132453641Y-72470000D02*
X132146359Y-72470000D01*
%TO.C,C33*%
X116332164Y-78180001D02*
X116547836Y-78180001D01*
X116332164Y-78900001D02*
X116547836Y-78900001D01*
%TO.C,R24*%
X132080000Y-63576359D02*
X132080000Y-63883641D01*
X131320000Y-63576359D02*
X131320000Y-63883641D01*
%TO.C,TP3*%
X198000000Y-96260000D02*
G75*
G03*
X198000000Y-96260000I-1200000J0D01*
G01*
%TO.C,R64*%
X188556359Y-43990000D02*
X188863641Y-43990000D01*
X188556359Y-44750000D02*
X188863641Y-44750000D01*
%TO.C,R22*%
X156130000Y-62973641D02*
X156130000Y-62666359D01*
X156890000Y-62973641D02*
X156890000Y-62666359D01*
%TO.C,C5*%
X102627836Y-87660000D02*
X102412164Y-87660000D01*
X102627836Y-86940000D02*
X102412164Y-86940000D01*
%TO.C,R42*%
X108420000Y-128063641D02*
X108420000Y-127756359D01*
X107660000Y-128063641D02*
X107660000Y-127756359D01*
%TO.C,Q17*%
X155470000Y-74700000D02*
X155470000Y-75350000D01*
X155470000Y-74700000D02*
X155470000Y-74050000D01*
X152350000Y-74700000D02*
X152350000Y-74050000D01*
X152350000Y-74700000D02*
X152350000Y-76375000D01*
%TO.C,C16*%
X141790000Y-92962164D02*
X141790000Y-93177836D01*
X141070000Y-92962164D02*
X141070000Y-93177836D01*
%TO.C,SW2*%
X165860000Y-129462500D02*
X165860000Y-135262500D01*
X172360000Y-129362500D02*
X172360000Y-135362500D01*
X167810000Y-129262500D02*
X170410000Y-129262500D01*
X166810000Y-137462500D02*
X165810000Y-137462500D01*
X165810000Y-137462500D02*
X165810000Y-136462500D01*
X167810000Y-135462500D02*
X170410000Y-135462500D01*
%TO.C,Q15*%
X119450000Y-98320000D02*
X119450000Y-96645000D01*
X119450000Y-98320000D02*
X119450000Y-98970000D01*
X116330000Y-98320000D02*
X116330000Y-97670000D01*
X116330000Y-98320000D02*
X116330000Y-98970000D01*
%TO.C,R70*%
X189333859Y-75850000D02*
X189641141Y-75850000D01*
X189333859Y-76610000D02*
X189641141Y-76610000D01*
%TO.C,R84*%
X161150000Y-95126359D02*
X161150000Y-95433641D01*
X161910000Y-95126359D02*
X161910000Y-95433641D01*
%TO.C,H8*%
X158920000Y-54480000D02*
X158920000Y-56380000D01*
X158920000Y-56380000D02*
X157020000Y-56380000D01*
X157020000Y-56380000D02*
X157020000Y-54480000D01*
X157020000Y-54480000D02*
X158920000Y-54480000D01*
%TO.C,R57*%
X132453641Y-70470000D02*
X132146359Y-70470000D01*
X132453641Y-69710000D02*
X132146359Y-69710000D01*
%TO.C,R18*%
X152910000Y-52333641D02*
X152910000Y-52026359D01*
X153670000Y-52333641D02*
X153670000Y-52026359D01*
%TO.C,Q11*%
X148650000Y-56610000D02*
X148650000Y-55960000D01*
X151770000Y-56610000D02*
X151770000Y-55960000D01*
X148650000Y-56610000D02*
X148650000Y-58285000D01*
X151770000Y-56610000D02*
X151770000Y-57260000D01*
%TO.C,R78*%
X155496359Y-91970000D02*
X155803641Y-91970000D01*
X155496359Y-91210000D02*
X155803641Y-91210000D01*
%TO.C,U3*%
X152410000Y-42040000D02*
X152410000Y-40280000D01*
X149340000Y-40280000D02*
X149340000Y-42710000D01*
%TO.C,R38*%
X153556359Y-138140000D02*
X153863641Y-138140000D01*
X153556359Y-137380000D02*
X153863641Y-137380000D01*
%TO.C,C11*%
X135532164Y-129090000D02*
X135747836Y-129090000D01*
X135532164Y-128370000D02*
X135747836Y-128370000D01*
%TO.C,R76*%
X149222742Y-96827500D02*
X149697258Y-96827500D01*
X149222742Y-97872500D02*
X149697258Y-97872500D01*
%TO.C,J20*%
X98510000Y-54280000D02*
X98510000Y-44160000D01*
X98510000Y-44160000D02*
X90390000Y-44160000D01*
X90390000Y-44160000D02*
X90390000Y-54280000D01*
X96400000Y-43860000D02*
X98810000Y-43860000D01*
X98810000Y-43860000D02*
X98810000Y-46270000D01*
X90390000Y-54280000D02*
X98510000Y-54280000D01*
%TO.C,Q5*%
X104510000Y-131630000D02*
X104510000Y-132280000D01*
X101390000Y-131630000D02*
X101390000Y-132280000D01*
X104510000Y-131630000D02*
X104510000Y-129955000D01*
X101390000Y-131630000D02*
X101390000Y-130980000D01*
%TO.C,R41*%
X124063641Y-110145000D02*
X123756359Y-110145000D01*
X124063641Y-110905000D02*
X123756359Y-110905000D01*
%TO.C,R36*%
X129362500Y-135205359D02*
X129362500Y-135512641D01*
X128602500Y-135205359D02*
X128602500Y-135512641D01*
%TO.C,R67*%
X185330000Y-86473641D02*
X185330000Y-86166359D01*
X186090000Y-86473641D02*
X186090000Y-86166359D01*
%TO.C,R82*%
X112339999Y-75993642D02*
X112339999Y-75686360D01*
X113099999Y-75993642D02*
X113099999Y-75686360D01*
%TO.C,R59*%
X171650000Y-72913641D02*
X171650000Y-72606359D01*
X170890000Y-72913641D02*
X170890000Y-72606359D01*
%TO.C,U7*%
X132040000Y-99655000D02*
X157440000Y-99655000D01*
X157440000Y-99655000D02*
X157440000Y-125655000D01*
X157440000Y-125655000D02*
X132040000Y-125655000D01*
X132040000Y-125655000D02*
X132040000Y-99655000D01*
%TO.C,R3*%
X95016359Y-125940000D02*
X95323641Y-125940000D01*
X95016359Y-126700000D02*
X95323641Y-126700000D01*
%TO.C,J5*%
X172790000Y-35625000D02*
X173380000Y-35625000D01*
X173380000Y-42745000D02*
X183500000Y-42745000D01*
X183500000Y-37845000D02*
X184090000Y-37845000D01*
X173380000Y-33525000D02*
X183500000Y-33525000D01*
X173380000Y-37845000D02*
X173380000Y-42745000D01*
X183500000Y-35625000D02*
X184090000Y-35625000D01*
X172790000Y-37845000D02*
X173380000Y-37845000D01*
X183500000Y-37845000D02*
X183500000Y-42745000D01*
X173380000Y-33525000D02*
X173380000Y-35625000D01*
X183500000Y-33525000D02*
X183500000Y-35625000D01*
X172790000Y-35625000D02*
G75*
G03*
X172790000Y-37845000I0J-1110000D01*
G01*
X184090000Y-37845000D02*
G75*
G03*
X184090000Y-35625000I0J1110000D01*
G01*
%TO.C,R34*%
X143916359Y-37190000D02*
X144223641Y-37190000D01*
X143916359Y-37950000D02*
X144223641Y-37950000D01*
%TO.C,R60*%
X171650000Y-75443641D02*
X171650000Y-75136359D01*
X170890000Y-75443641D02*
X170890000Y-75136359D01*
%TO.C,H1*%
X165780000Y-138760000D02*
X167680000Y-138760000D01*
X167680000Y-138760000D02*
X167680000Y-140660000D01*
X167680000Y-140660000D02*
X165780000Y-140660000D01*
X165780000Y-140660000D02*
X165780000Y-138760000D01*
%TO.C,J19*%
X190880000Y-129920000D02*
X190880000Y-127510000D01*
X191180000Y-129620000D02*
X199300000Y-129620000D01*
X193290000Y-129920000D02*
X190880000Y-129920000D01*
X191180000Y-119500000D02*
X191180000Y-129620000D01*
X199300000Y-129620000D02*
X199300000Y-119500000D01*
X199300000Y-119500000D02*
X191180000Y-119500000D01*
%TO.C,Q18*%
X121940000Y-99870000D02*
X123615000Y-99870000D01*
X121940000Y-96750000D02*
X121290000Y-96750000D01*
X121940000Y-96750000D02*
X122590000Y-96750000D01*
X121940000Y-99870000D02*
X121290000Y-99870000D01*
%TO.C,R65*%
X186190000Y-60233641D02*
X186190000Y-59926359D01*
X185430000Y-60233641D02*
X185430000Y-59926359D01*
%TO.C,C35*%
X97737836Y-56160000D02*
X97522164Y-56160000D01*
X97737836Y-55440000D02*
X97522164Y-55440000D01*
%TO.C,R15*%
X98923640Y-132040000D02*
X98616358Y-132040000D01*
X98923640Y-132800000D02*
X98616358Y-132800000D01*
D12*
%TO.C,Q6*%
X154350000Y-53855000D02*
X154350000Y-53280000D01*
X157310000Y-52930000D02*
X154410000Y-52930000D01*
X157310000Y-51430000D02*
X157310000Y-52930000D01*
X154410000Y-52930000D02*
X154410000Y-51430000D01*
X154410000Y-51430000D02*
X157310000Y-51430000D01*
D15*
%TO.C,R43*%
X114836359Y-115780000D02*
X115143641Y-115780000D01*
X114836359Y-116540000D02*
X115143641Y-116540000D01*
%TO.C,SW16*%
X168662000Y-143632000D02*
X172218000Y-143632000D01*
X172218000Y-143632000D02*
X172218000Y-152268000D01*
X168662000Y-152268000D02*
X168662000Y-143632000D01*
X172218000Y-152268000D02*
X168662000Y-152268000D01*
G36*
X173996000Y-147950000D02*
G01*
X171710000Y-147950000D01*
X171710000Y-144140000D01*
X169170000Y-144140000D01*
X169170000Y-147950000D01*
X166884000Y-147950000D01*
X166884000Y-141854000D01*
X173996000Y-141854000D01*
X173996000Y-147950000D01*
G37*
X173996000Y-147950000D02*
X171710000Y-147950000D01*
X171710000Y-144140000D01*
X169170000Y-144140000D01*
X169170000Y-147950000D01*
X166884000Y-147950000D01*
X166884000Y-141854000D01*
X173996000Y-141854000D01*
X173996000Y-147950000D01*
%TO.C,SW11*%
X125210000Y-102965000D02*
X122610000Y-102965000D01*
X125210000Y-109165000D02*
X122610000Y-109165000D01*
X127160000Y-108965000D02*
X127160000Y-103165000D01*
X126210000Y-100965000D02*
X127210000Y-100965000D01*
X127210000Y-100965000D02*
X127210000Y-101965000D01*
X120660000Y-109065000D02*
X120660000Y-103065000D01*
%TO.C,R5*%
X101110000Y-96006359D02*
X101110000Y-96313641D01*
X100350000Y-96006359D02*
X100350000Y-96313641D01*
%TO.C,C13*%
X170050000Y-56412164D02*
X170050000Y-56627836D01*
X169330000Y-56412164D02*
X169330000Y-56627836D01*
%TO.C,C26*%
X121400000Y-51770000D02*
X118450000Y-51770000D01*
X120335563Y-60290000D02*
X121400000Y-59225563D01*
X113944437Y-60290000D02*
X115830000Y-60290000D01*
X113944437Y-60290000D02*
X112880000Y-59225563D01*
X112880000Y-51770000D02*
X115830000Y-51770000D01*
X121400000Y-59225563D02*
X121400000Y-51770000D01*
X120335563Y-60290000D02*
X118450000Y-60290000D01*
X112880000Y-59225563D02*
X112880000Y-51770000D01*
%TO.C,R73*%
X155443641Y-138820000D02*
X155136359Y-138820000D01*
X155443641Y-139580000D02*
X155136359Y-139580000D01*
%TO.C,Q8*%
X154390000Y-58062499D02*
X153740000Y-58062499D01*
X154390000Y-54942499D02*
X155040000Y-54942499D01*
X154390000Y-58062499D02*
X155040000Y-58062499D01*
X154390000Y-54942499D02*
X152715000Y-54942499D01*
%TO.C,R46*%
X107660000Y-130593641D02*
X107660000Y-130286359D01*
X108420000Y-130593641D02*
X108420000Y-130286359D01*
%TO.C,D11*%
X159210000Y-61290000D02*
X157510000Y-61290000D01*
X157510000Y-61290000D02*
X157510000Y-64440000D01*
X159210000Y-61290000D02*
X159210000Y-64440000D01*
%TO.C,J17*%
X186610000Y-144500000D02*
X176490000Y-144500000D01*
X176190000Y-144200000D02*
X178600000Y-144200000D01*
X176490000Y-152620000D02*
X186610000Y-152620000D01*
X176190000Y-146610000D02*
X176190000Y-144200000D01*
X176490000Y-144500000D02*
X176490000Y-152620000D01*
X186610000Y-152620000D02*
X186610000Y-144500000D01*
%TO.C,R6*%
X100340000Y-99823641D02*
X100340000Y-99516359D01*
X101100000Y-99823641D02*
X101100000Y-99516359D01*
%TO.C,C30*%
X159520000Y-68477836D02*
X159520000Y-68262164D01*
X158800000Y-68477836D02*
X158800000Y-68262164D01*
%TO.C,C21*%
X139542164Y-78540000D02*
X139757836Y-78540000D01*
X139542164Y-79260000D02*
X139757836Y-79260000D01*
%TO.C,SW3*%
X181410000Y-127262500D02*
X181410000Y-128262500D01*
X180410000Y-127262500D02*
X181410000Y-127262500D01*
X174860000Y-135362500D02*
X174860000Y-129362500D01*
X179410000Y-129262500D02*
X176810000Y-129262500D01*
X181360000Y-135262500D02*
X181360000Y-129462500D01*
X179410000Y-135462500D02*
X176810000Y-135462500D01*
%TO.C,C28*%
X160684437Y-55040000D02*
X168140000Y-55040000D01*
X168140000Y-55040000D02*
X168140000Y-57990000D01*
X159620000Y-56104437D02*
X159620000Y-57990000D01*
X159620000Y-56104437D02*
X160684437Y-55040000D01*
X159620000Y-62495563D02*
X159620000Y-60610000D01*
X159620000Y-62495563D02*
X160684437Y-63560000D01*
X168140000Y-63560000D02*
X168140000Y-60610000D01*
X160684437Y-63560000D02*
X168140000Y-63560000D01*
%TO.C,R55*%
X128066359Y-70490000D02*
X128373641Y-70490000D01*
X128066359Y-69730000D02*
X128373641Y-69730000D01*
D12*
%TO.C,Q2*%
X158420000Y-52920000D02*
X158420000Y-51420000D01*
X158420000Y-51420000D02*
X161320000Y-51420000D01*
X161320000Y-51420000D02*
X161320000Y-52920000D01*
X161380000Y-50495000D02*
X161380000Y-51070000D01*
X161320000Y-52920000D02*
X158420000Y-52920000D01*
D15*
%TO.C,J2*%
X106260000Y-42745000D02*
X116380000Y-42745000D01*
X116380000Y-37845000D02*
X116380000Y-42745000D01*
X106260000Y-33525000D02*
X116380000Y-33525000D01*
X106260000Y-37845000D02*
X106260000Y-42745000D01*
X116380000Y-35625000D02*
X116970000Y-35625000D01*
X105670000Y-37845000D02*
X106260000Y-37845000D01*
X116380000Y-37845000D02*
X116970000Y-37845000D01*
X105670000Y-35625000D02*
X106260000Y-35625000D01*
X106260000Y-33525000D02*
X106260000Y-35625000D01*
X116380000Y-33525000D02*
X116380000Y-35625000D01*
X105670000Y-35625000D02*
G75*
G03*
X105670000Y-37845000I0J-1110000D01*
G01*
X116970000Y-37845000D02*
G75*
G03*
X116970000Y-35625000I0J1110000D01*
G01*
%TO.C,SW7*%
X124442000Y-115832000D02*
X127998000Y-115832000D01*
X127998000Y-124468000D02*
X124442000Y-124468000D01*
X124442000Y-124468000D02*
X124442000Y-115832000D01*
X127998000Y-115832000D02*
X127998000Y-124468000D01*
G36*
X129776000Y-120150000D02*
G01*
X127490000Y-120150000D01*
X127490000Y-116340000D01*
X124950000Y-116340000D01*
X124950000Y-120150000D01*
X122664000Y-120150000D01*
X122664000Y-114054000D01*
X129776000Y-114054000D01*
X129776000Y-120150000D01*
G37*
X129776000Y-120150000D02*
X127490000Y-120150000D01*
X127490000Y-116340000D01*
X124950000Y-116340000D01*
X124950000Y-120150000D01*
X122664000Y-120150000D01*
X122664000Y-114054000D01*
X129776000Y-114054000D01*
X129776000Y-120150000D01*
%TO.C,C15*%
X153602164Y-129090000D02*
X153817836Y-129090000D01*
X153602164Y-128370000D02*
X153817836Y-128370000D01*
%TO.C,R52*%
X149806359Y-75550000D02*
X150113641Y-75550000D01*
X149806359Y-74790000D02*
X150113641Y-74790000D01*
%TO.C,C14*%
X145570000Y-38660000D02*
X145885000Y-38660000D01*
X148310000Y-43900000D02*
X148310000Y-38660000D01*
X145570000Y-43900000D02*
X145570000Y-38660000D01*
X147995000Y-38660000D02*
X148310000Y-38660000D01*
X145570000Y-43900000D02*
X145885000Y-43900000D01*
X147995000Y-43900000D02*
X148310000Y-43900000D01*
%TO.C,SW10*%
X157010000Y-128110000D02*
X157010000Y-129110000D01*
X150460000Y-136210000D02*
X150460000Y-130210000D01*
X155010000Y-136310000D02*
X152410000Y-136310000D01*
X155010000Y-130110000D02*
X152410000Y-130110000D01*
X156960000Y-136110000D02*
X156960000Y-130310000D01*
X156010000Y-128110000D02*
X157010000Y-128110000D01*
%TO.C,C18*%
X144300000Y-84732164D02*
X144300000Y-84947836D01*
X143580000Y-84732164D02*
X143580000Y-84947836D01*
%TO.C,R37*%
X141786359Y-37970000D02*
X142093641Y-37970000D01*
X141786359Y-37210000D02*
X142093641Y-37210000D01*
%TO.C,C34*%
X99480000Y-47987836D02*
X99480000Y-47772164D01*
X100200000Y-47987836D02*
X100200000Y-47772164D01*
%TO.C,R63*%
X171650000Y-70363641D02*
X171650000Y-70056359D01*
X170890000Y-70363641D02*
X170890000Y-70056359D01*
%TO.C,R2*%
X177966359Y-127562500D02*
X178273641Y-127562500D01*
X177966359Y-128322500D02*
X178273641Y-128322500D01*
%TO.C,SW12*%
X114670000Y-109202500D02*
X112070000Y-109202500D01*
X114670000Y-103002500D02*
X112070000Y-103002500D01*
X110120000Y-109102500D02*
X110120000Y-103102500D01*
X116620000Y-109002500D02*
X116620000Y-103202500D01*
X115670000Y-101002500D02*
X116670000Y-101002500D01*
X116670000Y-101002500D02*
X116670000Y-102002500D01*
%TO.C,R12*%
X164390000Y-121433641D02*
X164390000Y-121126359D01*
X165150000Y-121433641D02*
X165150000Y-121126359D01*
%TO.C,R45*%
X114826359Y-120540000D02*
X115133641Y-120540000D01*
X114826359Y-119780000D02*
X115133641Y-119780000D01*
%TO.C,Q27*%
X178050000Y-141730000D02*
X178050000Y-141080000D01*
X181170000Y-141730000D02*
X181170000Y-140055000D01*
X178050000Y-141730000D02*
X178050000Y-142380000D01*
X181170000Y-141730000D02*
X181170000Y-142380000D01*
%TO.C,D19*%
X133112500Y-70725000D02*
X130652500Y-70725000D01*
X130652500Y-70725000D02*
X130652500Y-72195000D01*
X130652500Y-72195000D02*
X133112500Y-72195000D01*
%TO.C,R10*%
X96060000Y-117463641D02*
X96060000Y-117156359D01*
X96820000Y-117463641D02*
X96820000Y-117156359D01*
%TO.C,C6*%
X94380000Y-117070580D02*
X94380000Y-116789420D01*
X95400000Y-117070580D02*
X95400000Y-116789420D01*
%TO.C,JP1*%
X165530000Y-92695000D02*
X162870000Y-92695000D01*
X165530000Y-95295000D02*
X165530000Y-92695000D01*
X165530000Y-95295000D02*
X162870000Y-95295000D01*
X165530000Y-97895000D02*
X164200000Y-97895000D01*
X165530000Y-96565000D02*
X165530000Y-97895000D01*
X162870000Y-95295000D02*
X162870000Y-92695000D01*
%TO.C,D13*%
X115955000Y-118835000D02*
X118415000Y-118835000D01*
X118415000Y-117365000D02*
X115955000Y-117365000D01*
X118415000Y-118835000D02*
X118415000Y-117365000D01*
%TO.C,C20*%
X129762164Y-91000000D02*
X129977836Y-91000000D01*
X129762164Y-91720000D02*
X129977836Y-91720000D01*
%TO.C,H3*%
X108680000Y-104520000D02*
X108680000Y-106420000D01*
X106780000Y-104520000D02*
X108680000Y-104520000D01*
X106780000Y-106420000D02*
X106780000Y-104520000D01*
X108680000Y-106420000D02*
X106780000Y-106420000D01*
%TO.C,SW6*%
X138910000Y-128110000D02*
X138910000Y-129110000D01*
X132360000Y-136210000D02*
X132360000Y-130210000D01*
X136910000Y-130110000D02*
X134310000Y-130110000D01*
X138860000Y-136110000D02*
X138860000Y-130310000D01*
X136910000Y-136310000D02*
X134310000Y-136310000D01*
X137910000Y-128110000D02*
X138910000Y-128110000D01*
%TO.C,R68*%
X188526359Y-49470000D02*
X188833641Y-49470000D01*
X188526359Y-50230000D02*
X188833641Y-50230000D01*
D10*
%TO.C,U1*%
X110745000Y-98315000D02*
X110745000Y-94965000D01*
X110745000Y-94965000D02*
X110445000Y-94965000D01*
X107395000Y-94965000D02*
X107695000Y-94965000D01*
X107620000Y-98315000D02*
X107620000Y-99540000D01*
X107395000Y-98315000D02*
X107395000Y-94965000D01*
X110745000Y-98315000D02*
X110445000Y-98315000D01*
X107395000Y-98315000D02*
X107620000Y-98315000D01*
D15*
%TO.C,R77*%
X123877258Y-72167501D02*
X123402742Y-72167501D01*
X123877258Y-73212501D02*
X123402742Y-73212501D01*
%TO.C,C27*%
X130135563Y-60340000D02*
X128250000Y-60340000D01*
X122680000Y-59275563D02*
X122680000Y-51820000D01*
X123744437Y-60340000D02*
X125630000Y-60340000D01*
X122680000Y-51820000D02*
X125630000Y-51820000D01*
X131200000Y-59275563D02*
X131200000Y-51820000D01*
X123744437Y-60340000D02*
X122680000Y-59275563D01*
X130135563Y-60340000D02*
X131200000Y-59275563D01*
X131200000Y-51820000D02*
X128250000Y-51820000D01*
%TO.C,Q20*%
X187070000Y-47130000D02*
X187070000Y-47780000D01*
X190190000Y-47130000D02*
X190190000Y-47780000D01*
X187070000Y-47130000D02*
X187070000Y-46480000D01*
X190190000Y-47130000D02*
X190190000Y-45455000D01*
%TO.C,TP1*%
X115960000Y-70100000D02*
G75*
G03*
X115960000Y-70100000I-1200000J0D01*
G01*
%TO.C,J9*%
X191180000Y-67730000D02*
X199300000Y-67730000D01*
X199300000Y-57610000D02*
X191180000Y-57610000D01*
X191180000Y-57610000D02*
X191180000Y-67730000D01*
X199300000Y-67730000D02*
X199300000Y-57610000D01*
X190880000Y-68030000D02*
X190880000Y-65620000D01*
X193290000Y-68030000D02*
X190880000Y-68030000D01*
%TO.C,J22*%
X102680000Y-144500000D02*
X102680000Y-152620000D01*
X102380000Y-146610000D02*
X102380000Y-144200000D01*
X102380000Y-144200000D02*
X104790000Y-144200000D01*
X117800000Y-152620000D02*
X117800000Y-144500000D01*
X117800000Y-144500000D02*
X102680000Y-144500000D01*
X102680000Y-152620000D02*
X117800000Y-152620000D01*
%TO.C,R69*%
X189286359Y-62320000D02*
X189593641Y-62320000D01*
X189286359Y-63080000D02*
X189593641Y-63080000D01*
%TO.C,Q21*%
X188497500Y-58550000D02*
X186822500Y-58550000D01*
X188497500Y-61670000D02*
X187847500Y-61670000D01*
X188497500Y-61670000D02*
X189147500Y-61670000D01*
X188497500Y-58550000D02*
X189147500Y-58550000D01*
%TO.C,SW1*%
X99630000Y-125410000D02*
X99630000Y-115250000D01*
X104710000Y-115250000D02*
X104710000Y-125410000D01*
X99630000Y-125410000D02*
X99630000Y-115250000D01*
X104710000Y-125410000D02*
X99630000Y-125410000D01*
X99630000Y-115250000D02*
X104710000Y-115250000D01*
%TO.C,J10*%
X190880000Y-81210000D02*
X190880000Y-78800000D01*
X199300000Y-80910000D02*
X199300000Y-70790000D01*
X191180000Y-70790000D02*
X191180000Y-80910000D01*
X193290000Y-81210000D02*
X190880000Y-81210000D01*
X191180000Y-80910000D02*
X199300000Y-80910000D01*
X199300000Y-70790000D02*
X191180000Y-70790000D01*
%TO.C,C2*%
X99218748Y-110135000D02*
X99741252Y-110135000D01*
X99218748Y-108665000D02*
X99741252Y-108665000D01*
%TO.C,R79*%
X119013641Y-78900001D02*
X118706359Y-78900001D01*
X119013641Y-78140001D02*
X118706359Y-78140001D01*
D10*
%TO.C,MD1*%
X146445000Y-65450000D02*
X146445000Y-53250000D01*
X134245000Y-65450000D02*
X134245000Y-53250000D01*
X134245000Y-53250000D02*
X146445000Y-53250000D01*
X134245000Y-65450000D02*
X146445000Y-65450000D01*
D16*
X132470000Y-59350000D02*
G75*
G03*
X132470000Y-59350000I-125000J0D01*
G01*
D15*
%TO.C,Q24*%
X157590000Y-141750000D02*
X157590000Y-142400000D01*
X160710000Y-141750000D02*
X160710000Y-142400000D01*
X157590000Y-141750000D02*
X157590000Y-141100000D01*
X160710000Y-141750000D02*
X160710000Y-140075000D01*
%TO.C,SW5*%
X112930000Y-77572500D02*
X111730000Y-77572500D01*
X112630000Y-77872500D02*
X108430000Y-77872500D01*
X108430000Y-87072500D02*
X108430000Y-85872500D01*
X112630000Y-85872500D02*
X112630000Y-87072500D01*
X112630000Y-87072500D02*
X108430000Y-87072500D01*
X108430000Y-77872500D02*
X108430000Y-79072500D01*
X112930000Y-78772500D02*
X112930000Y-77572500D01*
X112630000Y-79072500D02*
X112630000Y-77872500D01*
%TO.C,Q1*%
X103210000Y-56130000D02*
X103210000Y-57630000D01*
X103480000Y-57630000D02*
X103480000Y-60460000D01*
X110110000Y-56130000D02*
X110110000Y-57630000D01*
X109840000Y-57630000D02*
X109840000Y-58730000D01*
X103210000Y-57630000D02*
X103480000Y-57630000D01*
X110110000Y-57630000D02*
X109840000Y-57630000D01*
%TO.C,D5*%
X179717428Y-119812700D02*
X177257428Y-119812700D01*
X177257428Y-119812700D02*
X177257428Y-121282700D01*
X177257428Y-121282700D02*
X179717428Y-121282700D01*
%TO.C,D1*%
X113025000Y-95947500D02*
X113025000Y-98407500D01*
X113025000Y-98407500D02*
X114495000Y-98407500D01*
X114495000Y-98407500D02*
X114495000Y-95947500D01*
%TO.C,J18*%
X191180000Y-132500000D02*
X191180000Y-142620000D01*
X199300000Y-142620000D02*
X199300000Y-132500000D01*
X193290000Y-142920000D02*
X190880000Y-142920000D01*
X190880000Y-142920000D02*
X190880000Y-140510000D01*
X191180000Y-142620000D02*
X199300000Y-142620000D01*
X199300000Y-132500000D02*
X191180000Y-132500000D01*
%TO.C,J7*%
X90547500Y-90060000D02*
X90547500Y-69480000D01*
X105287500Y-84850000D02*
X106287500Y-85350000D01*
X106287500Y-85350000D02*
X106287500Y-84350000D01*
X99667500Y-90060000D02*
X90547500Y-90060000D01*
X90547500Y-69480000D02*
X99667500Y-69480000D01*
X106287500Y-84350000D02*
X105287500Y-84850000D01*
X99667500Y-69480000D02*
X99667500Y-90060000D01*
X99667500Y-81820000D02*
X90547500Y-81820000D01*
X99667500Y-77720000D02*
X90547500Y-77720000D01*
%TO.C,C7*%
X99139419Y-131450000D02*
X99420579Y-131450000D01*
X99139419Y-130430000D02*
X99420579Y-130430000D01*
%TO.C,Q23*%
X188450000Y-87870000D02*
X187800000Y-87870000D01*
X188450000Y-84750000D02*
X189100000Y-84750000D01*
X188450000Y-84750000D02*
X186775000Y-84750000D01*
X188450000Y-87870000D02*
X189100000Y-87870000D01*
%TO.C,C4*%
X105940000Y-96602164D02*
X105940000Y-96817836D01*
X106660000Y-96602164D02*
X106660000Y-96817836D01*
%TO.C,U2*%
X172887428Y-94221784D02*
X171543925Y-95565287D01*
X172887428Y-114303616D02*
X174230931Y-112960113D01*
X182928344Y-104262700D02*
X181584841Y-102919197D01*
X162846512Y-104262700D02*
X164190015Y-102919197D01*
X181584841Y-105606203D02*
X182928344Y-104262700D01*
X171543925Y-112960113D02*
X172887428Y-114303616D01*
X174230931Y-112960113D02*
X174584484Y-113313667D01*
X164190015Y-105606203D02*
X162846512Y-104262700D01*
X174230931Y-95565287D02*
X172887428Y-94221784D01*
%TO.C,J1*%
X198930000Y-98640000D02*
X190300000Y-98640000D01*
X198930000Y-116420000D02*
X190300000Y-116420000D01*
X198930000Y-115239050D02*
X190300000Y-115239050D01*
X190300000Y-116540000D02*
X190300000Y-98640000D01*
X198930000Y-116540000D02*
X190300000Y-116540000D01*
X190300000Y-99610000D02*
X189890000Y-99610000D01*
X187730000Y-116540000D02*
X187730000Y-115210000D01*
X198930000Y-116065715D02*
X190300000Y-116065715D01*
X198930000Y-116301905D02*
X190300000Y-116301905D01*
X190300000Y-107230000D02*
X189890000Y-107230000D01*
X198930000Y-114058100D02*
X190300000Y-114058100D01*
X190300000Y-113030000D02*
X189890000Y-113030000D01*
X198930000Y-101240000D02*
X190300000Y-101240000D01*
X198930000Y-111400000D02*
X190300000Y-111400000D01*
X198930000Y-114176195D02*
X190300000Y-114176195D01*
X190300000Y-102150000D02*
X189890000Y-102150000D01*
X188840000Y-116540000D02*
X187730000Y-116540000D01*
X190300000Y-109770000D02*
X189890000Y-109770000D01*
X198930000Y-116183810D02*
X190300000Y-116183810D01*
X190300000Y-110490000D02*
X189890000Y-110490000D01*
X198930000Y-114648575D02*
X190300000Y-114648575D01*
X198930000Y-114766670D02*
X190300000Y-114766670D01*
X198930000Y-115593335D02*
X190300000Y-115593335D01*
X198930000Y-103780000D02*
X190300000Y-103780000D01*
X198930000Y-114294290D02*
X190300000Y-114294290D01*
X198930000Y-114530480D02*
X190300000Y-114530480D01*
X198930000Y-115357145D02*
X190300000Y-115357145D01*
X198930000Y-108860000D02*
X190300000Y-108860000D01*
X198930000Y-115475240D02*
X190300000Y-115475240D01*
X190300000Y-107950000D02*
X189890000Y-107950000D01*
X198930000Y-115711430D02*
X190300000Y-115711430D01*
X190300000Y-102870000D02*
X189890000Y-102870000D01*
X198930000Y-106320000D02*
X190300000Y-106320000D01*
X190300000Y-112310000D02*
X189890000Y-112310000D01*
X198930000Y-113940000D02*
X190300000Y-113940000D01*
X198930000Y-115829525D02*
X190300000Y-115829525D01*
X190300000Y-100330000D02*
X189890000Y-100330000D01*
X198930000Y-114884765D02*
X190300000Y-114884765D01*
X190300000Y-114850000D02*
X189950000Y-114850000D01*
X198930000Y-116540000D02*
X198930000Y-98640000D01*
X198930000Y-115120955D02*
X190300000Y-115120955D01*
X198930000Y-114412385D02*
X190300000Y-114412385D01*
X190300000Y-105410000D02*
X189890000Y-105410000D01*
X190300000Y-115570000D02*
X189950000Y-115570000D01*
X190300000Y-104690000D02*
X189890000Y-104690000D01*
X198930000Y-115947620D02*
X190300000Y-115947620D01*
X198930000Y-115002860D02*
X190300000Y-115002860D01*
%TO.C,U6*%
X162510000Y-76120000D02*
X167810000Y-76120000D01*
X167810000Y-65840000D02*
X166160000Y-65840000D01*
X164160000Y-65840000D02*
X162510000Y-65840000D01*
X167810000Y-76120000D02*
X167810000Y-65840000D01*
X162510000Y-65840000D02*
X162510000Y-76120000D01*
X164160000Y-65840000D02*
G75*
G03*
X166160000Y-65840000I1000000J0D01*
G01*
%TO.C,C3*%
X111490000Y-98382164D02*
X111490000Y-98597836D01*
X112210000Y-98382164D02*
X112210000Y-98597836D01*
%TO.C,SW15*%
X147948000Y-152268000D02*
X144392000Y-152268000D01*
X144392000Y-143632000D02*
X147948000Y-143632000D01*
X144392000Y-152268000D02*
X144392000Y-143632000D01*
X147948000Y-143632000D02*
X147948000Y-152268000D01*
G36*
X149726000Y-147950000D02*
G01*
X147440000Y-147950000D01*
X147440000Y-144140000D01*
X144900000Y-144140000D01*
X144900000Y-147950000D01*
X142614000Y-147950000D01*
X142614000Y-141854000D01*
X149726000Y-141854000D01*
X149726000Y-147950000D01*
G37*
X149726000Y-147950000D02*
X147440000Y-147950000D01*
X147440000Y-144140000D01*
X144900000Y-144140000D01*
X144900000Y-147950000D01*
X142614000Y-147950000D01*
X142614000Y-141854000D01*
X149726000Y-141854000D01*
X149726000Y-147950000D01*
%TO.C,C24*%
X132869420Y-79110000D02*
X133150580Y-79110000D01*
X132869420Y-78090000D02*
X133150580Y-78090000D01*
%TO.C,Q26*%
X185100000Y-141730000D02*
X185100000Y-140055000D01*
X181980000Y-141730000D02*
X181980000Y-141080000D01*
X181980000Y-141730000D02*
X181980000Y-142380000D01*
X185100000Y-141730000D02*
X185100000Y-142380000D01*
%TO.C,R75*%
X179753641Y-139500000D02*
X179446359Y-139500000D01*
X179753641Y-138740000D02*
X179446359Y-138740000D01*
%TO.C,Q4*%
X108380000Y-61610000D02*
X109880000Y-61610000D01*
X109880000Y-68240000D02*
X112710000Y-68240000D01*
X108380000Y-68510000D02*
X109880000Y-68510000D01*
X109880000Y-61880000D02*
X110980000Y-61880000D01*
X109880000Y-61610000D02*
X109880000Y-61880000D01*
X109880000Y-68510000D02*
X109880000Y-68240000D01*
%TO.C,R21*%
X181427428Y-123186341D02*
X181427428Y-122879059D01*
X182187428Y-123186341D02*
X182187428Y-122879059D01*
%TO.C,J11*%
X199300000Y-83800000D02*
X191180000Y-83800000D01*
X193290000Y-94220000D02*
X190880000Y-94220000D01*
X191180000Y-83800000D02*
X191180000Y-93920000D01*
X199300000Y-93920000D02*
X199300000Y-83800000D01*
X190880000Y-94220000D02*
X190880000Y-91810000D01*
X191180000Y-93920000D02*
X199300000Y-93920000D01*
%TO.C,U9*%
X117760000Y-77300001D02*
X121210000Y-77300001D01*
X117760000Y-72180001D02*
X115810000Y-72180001D01*
X117760000Y-72180001D02*
X119710000Y-72180001D01*
X117760000Y-77300001D02*
X115810000Y-77300001D01*
%TO.C,R72*%
X159303641Y-139590000D02*
X158996359Y-139590000D01*
X159303641Y-138830000D02*
X158996359Y-138830000D01*
%TO.C,R8*%
X95063641Y-119560000D02*
X94756359Y-119560000D01*
X95063641Y-118800000D02*
X94756359Y-118800000D01*
%TO.C,Q25*%
X156830000Y-141750000D02*
X156830000Y-142400000D01*
X153710000Y-141750000D02*
X153710000Y-141100000D01*
X156830000Y-141750000D02*
X156830000Y-140075000D01*
X153710000Y-141750000D02*
X153710000Y-142400000D01*
%TO.C,C12*%
X144612164Y-128380000D02*
X144827836Y-128380000D01*
X144612164Y-129100000D02*
X144827836Y-129100000D01*
%TO.C,J16*%
X162300000Y-144500000D02*
X152180000Y-144500000D01*
X151880000Y-146610000D02*
X151880000Y-144200000D01*
X152180000Y-152620000D02*
X162300000Y-152620000D01*
X151880000Y-144200000D02*
X154290000Y-144200000D01*
X162300000Y-152620000D02*
X162300000Y-144500000D01*
X152180000Y-144500000D02*
X152180000Y-152620000D01*
%TO.C,D6*%
X177257428Y-124282700D02*
X179717428Y-124282700D01*
X177257428Y-122812700D02*
X177257428Y-124282700D01*
X179717428Y-122812700D02*
X177257428Y-122812700D01*
%TO.C,R53*%
X151160000Y-75853641D02*
X151160000Y-75546359D01*
X151920000Y-75853641D02*
X151920000Y-75546359D01*
%TO.C,C10*%
X143911252Y-50685000D02*
X143388748Y-50685000D01*
X143911252Y-49215000D02*
X143388748Y-49215000D01*
%TO.C,R19*%
X126096360Y-67440000D02*
X126403642Y-67440000D01*
X126096360Y-66680000D02*
X126403642Y-66680000D01*
%TO.C,SW4*%
X168277428Y-119442700D02*
X168277428Y-124642700D01*
X168277428Y-124642700D02*
X173577428Y-124642700D01*
X173577428Y-119442700D02*
X171927428Y-119442700D01*
X169927428Y-119442700D02*
X168277428Y-119442700D01*
X173577428Y-124642700D02*
X173577428Y-119442700D01*
X169927428Y-119442700D02*
G75*
G03*
X171927428Y-119442700I1000000J0D01*
G01*
%TO.C,C29*%
X143805563Y-77290000D02*
X136350000Y-77290000D01*
X136350000Y-68770000D02*
X136350000Y-71720000D01*
X143805563Y-68770000D02*
X136350000Y-68770000D01*
X144870000Y-69834437D02*
X144870000Y-71720000D01*
X144870000Y-76225563D02*
X143805563Y-77290000D01*
X144870000Y-69834437D02*
X143805563Y-68770000D01*
X144870000Y-76225563D02*
X144870000Y-74340000D01*
X136350000Y-77290000D02*
X136350000Y-74340000D01*
%TO.C,R80*%
X160530000Y-96723641D02*
X160530000Y-96416359D01*
X159770000Y-96723641D02*
X159770000Y-96416359D01*
%TO.C,TP5*%
X189900000Y-38780000D02*
G75*
G03*
X189900000Y-38780000I-1200000J0D01*
G01*
%TO.C,SW14*%
X167770000Y-78005000D02*
X166120000Y-78005000D01*
X162470000Y-78005000D02*
X162470000Y-83205000D01*
X162470000Y-83205000D02*
X167770000Y-83205000D01*
X167770000Y-83205000D02*
X167770000Y-78005000D01*
X164120000Y-78005000D02*
X162470000Y-78005000D01*
X164120000Y-78005000D02*
G75*
G03*
X166120000Y-78005000I1000000J0D01*
G01*
%TO.C,R7*%
X112250000Y-95293641D02*
X112250000Y-94986359D01*
X111490000Y-95293641D02*
X111490000Y-94986359D01*
%TO.C,J4*%
X156840000Y-37845000D02*
X157430000Y-37845000D01*
X167550000Y-35625000D02*
X168140000Y-35625000D01*
X167550000Y-37845000D02*
X168140000Y-37845000D01*
X157430000Y-42745000D02*
X167550000Y-42745000D01*
X157430000Y-37845000D02*
X157430000Y-42745000D01*
X167550000Y-37845000D02*
X167550000Y-42745000D01*
X157430000Y-33525000D02*
X157430000Y-35625000D01*
X156840000Y-35625000D02*
X157430000Y-35625000D01*
X157430000Y-33525000D02*
X167550000Y-33525000D01*
X167550000Y-33525000D02*
X167550000Y-35625000D01*
X156840000Y-35625000D02*
G75*
G03*
X156840000Y-37845000I0J-1110000D01*
G01*
X168140000Y-37845000D02*
G75*
G03*
X168140000Y-35625000I0J1110000D01*
G01*
%TO.C,LS1*%
X171440000Y-56290000D02*
X171440000Y-52430000D01*
X171440000Y-64670000D02*
X171440000Y-60810000D01*
X183680000Y-60810000D02*
X183980000Y-60810000D01*
X183680000Y-64670000D02*
X171440000Y-64670000D01*
X183680000Y-60810000D02*
X183680000Y-64670000D01*
X171440000Y-52430000D02*
X183680000Y-52430000D01*
X183680000Y-52430000D02*
X183680000Y-56290000D01*
%TO.C,R40*%
X149796359Y-73590000D02*
X150103641Y-73590000D01*
X149796359Y-74350000D02*
X150103641Y-74350000D01*
%TO.C,R50*%
X158320000Y-73556359D02*
X158320000Y-73863641D01*
X157560000Y-73556359D02*
X157560000Y-73863641D01*
%TO.C,R71*%
X189256359Y-89220000D02*
X189563641Y-89220000D01*
X189256359Y-88460000D02*
X189563641Y-88460000D01*
%TO.C,U5*%
X132230000Y-81350000D02*
X131280000Y-81350000D01*
X131280000Y-91570000D02*
X131280000Y-90620000D01*
X140550000Y-81350000D02*
X141500000Y-81350000D01*
X131280000Y-81350000D02*
X131280000Y-82300000D01*
X141500000Y-81350000D02*
X141500000Y-82300000D01*
X140550000Y-91570000D02*
X141500000Y-91570000D01*
X141500000Y-91570000D02*
X141500000Y-90620000D01*
X141500000Y-90620000D02*
X142840000Y-90620000D01*
X132230000Y-91570000D02*
X131280000Y-91570000D01*
%TO.C,J3*%
X124460000Y-37845000D02*
X125050000Y-37845000D01*
X125050000Y-42745000D02*
X135170000Y-42745000D01*
X135170000Y-37845000D02*
X135760000Y-37845000D01*
X125050000Y-37845000D02*
X125050000Y-42745000D01*
X135170000Y-35625000D02*
X135760000Y-35625000D01*
X135170000Y-37845000D02*
X135170000Y-42745000D01*
X125050000Y-33525000D02*
X135170000Y-33525000D01*
X125050000Y-33525000D02*
X125050000Y-35625000D01*
X124460000Y-35625000D02*
X125050000Y-35625000D01*
X135170000Y-33525000D02*
X135170000Y-35625000D01*
X135760000Y-37845000D02*
G75*
G03*
X135760000Y-35625000I0J1110000D01*
G01*
X124460000Y-35625000D02*
G75*
G03*
X124460000Y-37845000I0J-1110000D01*
G01*
%TO.C,J21*%
X98480000Y-57230000D02*
X90360000Y-57230000D01*
X98480000Y-67350000D02*
X98480000Y-57230000D01*
X90360000Y-57230000D02*
X90360000Y-67350000D01*
X90360000Y-67350000D02*
X98480000Y-67350000D01*
X98780000Y-56930000D02*
X98780000Y-59340000D01*
X96370000Y-56930000D02*
X98780000Y-56930000D01*
%TO.C,R26*%
X146516359Y-69070000D02*
X146823641Y-69070000D01*
X146516359Y-68310000D02*
X146823641Y-68310000D01*
%TO.C,D15*%
X155310000Y-78810000D02*
X155310000Y-77110000D01*
X155310000Y-77110000D02*
X152160000Y-77110000D01*
X155310000Y-78810000D02*
X152160000Y-78810000D01*
%TO.C,R81*%
X160520000Y-94153641D02*
X160520000Y-93846359D01*
X159760000Y-94153641D02*
X159760000Y-93846359D01*
%TO.C,D12*%
X110162500Y-116905000D02*
X112622500Y-116905000D01*
X110162500Y-115435000D02*
X110162500Y-116905000D01*
X112622500Y-115435000D02*
X110162500Y-115435000D01*
%TO.C,R29*%
X151630000Y-52016359D02*
X151630000Y-52323641D01*
X152390000Y-52016359D02*
X152390000Y-52323641D01*
%TO.C,U4*%
X148680000Y-65640000D02*
X148680000Y-64140000D01*
X155580000Y-65640000D02*
X155580000Y-64140000D01*
X148680000Y-64140000D02*
X148950000Y-64140000D01*
X155310000Y-64140000D02*
X155310000Y-61310000D01*
X148950000Y-64140000D02*
X148950000Y-63040000D01*
X155580000Y-64140000D02*
X155310000Y-64140000D01*
%TO.C,R31*%
X135456359Y-138110000D02*
X135763641Y-138110000D01*
X135456359Y-137350000D02*
X135763641Y-137350000D01*
%TO.C,J8*%
X199300000Y-54830000D02*
X199300000Y-44710000D01*
X191180000Y-54830000D02*
X199300000Y-54830000D01*
X199300000Y-44710000D02*
X191180000Y-44710000D01*
X190880000Y-55130000D02*
X190880000Y-52720000D01*
X193290000Y-55130000D02*
X190880000Y-55130000D01*
X191180000Y-44710000D02*
X191180000Y-54830000D01*
%TO.C,R51*%
X124150000Y-94286359D02*
X124150000Y-94593641D01*
X124910000Y-94286359D02*
X124910000Y-94593641D01*
%TO.C,C25*%
X142842164Y-91740000D02*
X143057836Y-91740000D01*
X142842164Y-91020000D02*
X143057836Y-91020000D01*
%TO.C,R14*%
X165160000Y-123983641D02*
X165160000Y-123676359D01*
X164400000Y-123983641D02*
X164400000Y-123676359D01*
%TO.C,R32*%
X99326359Y-111850000D02*
X99633641Y-111850000D01*
X99326359Y-111090000D02*
X99633641Y-111090000D01*
%TO.C,SW9*%
X146010000Y-136310000D02*
X143410000Y-136310000D01*
X148010000Y-128110000D02*
X148010000Y-129110000D01*
X141460000Y-136210000D02*
X141460000Y-130210000D01*
X147010000Y-128110000D02*
X148010000Y-128110000D01*
X147960000Y-136110000D02*
X147960000Y-130310000D01*
X146010000Y-130110000D02*
X143410000Y-130110000D01*
%TO.C,R28*%
X143476359Y-48430000D02*
X143783641Y-48430000D01*
X143476359Y-47670000D02*
X143783641Y-47670000D01*
%TO.C,R83*%
X113120000Y-73783641D02*
X113120000Y-73476359D01*
X112360000Y-73783641D02*
X112360000Y-73476359D01*
%TO.C,Q3*%
X96740000Y-122700000D02*
X96740000Y-122050000D01*
X93620000Y-122700000D02*
X93620000Y-122050000D01*
X96740000Y-122700000D02*
X96740000Y-123350000D01*
X93620000Y-122700000D02*
X93620000Y-124375000D01*
%TO.C,R44*%
X113723641Y-117720000D02*
X113416359Y-117720000D01*
X113723641Y-118480000D02*
X113416359Y-118480000D01*
%TO.C,Q22*%
X188517500Y-72150000D02*
X189167500Y-72150000D01*
X188517500Y-75270000D02*
X187867500Y-75270000D01*
X188517500Y-72150000D02*
X186842500Y-72150000D01*
X188517500Y-75270000D02*
X189167500Y-75270000D01*
%TO.C,C17*%
X156240000Y-66407836D02*
X156240000Y-66192164D01*
X156960000Y-66407836D02*
X156960000Y-66192164D01*
%TO.C,H7*%
X148520000Y-53330000D02*
X148520000Y-51430000D01*
X150420000Y-51430000D02*
X150420000Y-53330000D01*
X148520000Y-51430000D02*
X150420000Y-51430000D01*
X150420000Y-53330000D02*
X148520000Y-53330000D01*
%TO.C,R25*%
X146516359Y-67720000D02*
X146823641Y-67720000D01*
X146516359Y-66960000D02*
X146823641Y-66960000D01*
%TO.C,SW13*%
X111490000Y-126060000D02*
X111490000Y-136340000D01*
X116790000Y-136340000D02*
X116790000Y-126060000D01*
X111490000Y-136340000D02*
X116790000Y-136340000D01*
X113140000Y-126060000D02*
X111490000Y-126060000D01*
X116790000Y-126060000D02*
X115140000Y-126060000D01*
X113140000Y-126060000D02*
G75*
G03*
X115140000Y-126060000I1000000J0D01*
G01*
%TO.C,R48*%
X107670000Y-133133641D02*
X107670000Y-132826359D01*
X108430000Y-133133641D02*
X108430000Y-132826359D01*
%TO.C,J6*%
X91873000Y-108149000D02*
X96699000Y-108149000D01*
X104295000Y-92905000D02*
X104295000Y-110505000D01*
X96699000Y-95195000D02*
X96699000Y-92909000D01*
X91873000Y-110435000D02*
X91873000Y-108149000D01*
X96699000Y-92909000D02*
X91873000Y-92909000D01*
X104295000Y-92905000D02*
X102095000Y-92905000D01*
X102095000Y-92905000D02*
X104295000Y-92905000D01*
X96699000Y-110435000D02*
X91873000Y-110435000D01*
X91873000Y-95195000D02*
X96699000Y-95195000D01*
X96699000Y-108149000D02*
X96699000Y-110435000D01*
X102095000Y-110505000D02*
X104295000Y-110505000D01*
X105095000Y-91705000D02*
X105095000Y-111705000D01*
X91873000Y-92909000D02*
X91873000Y-95195000D01*
X105095000Y-111705000D02*
X90095000Y-111705000D01*
X90095000Y-91705000D02*
X105095000Y-91705000D01*
X102095000Y-110505000D02*
X102095000Y-92905000D01*
X90095000Y-111705000D02*
X90095000Y-91705000D01*
%TO.C,R27*%
X146496359Y-69630000D02*
X146803641Y-69630000D01*
X146496359Y-70390000D02*
X146803641Y-70390000D01*
%TO.C,RV1*%
X182885000Y-76905000D02*
X182885000Y-67135000D01*
X173115000Y-76905000D02*
X173115000Y-67135000D01*
X173115000Y-76905000D02*
X182885000Y-76905000D01*
X173115000Y-67135000D02*
X182885000Y-67135000D01*
%TO.C,R4*%
X103103641Y-127640000D02*
X102796359Y-127640000D01*
X103103641Y-128400000D02*
X102796359Y-128400000D01*
%TO.C,Q14*%
X140680000Y-44190000D02*
X140680000Y-45865000D01*
X143800000Y-44190000D02*
X143800000Y-43540000D01*
X143800000Y-44190000D02*
X143800000Y-44840000D01*
X140680000Y-44190000D02*
X140680000Y-43540000D01*
%TO.C,R47*%
X102366359Y-88320000D02*
X102673641Y-88320000D01*
X102366359Y-89080000D02*
X102673641Y-89080000D01*
%TO.C,R33*%
X144596359Y-137350000D02*
X144903641Y-137350000D01*
X144596359Y-138110000D02*
X144903641Y-138110000D01*
%TO.C,R30*%
X150570060Y-49282659D02*
X150787341Y-49499940D01*
X150032659Y-49820060D02*
X150249940Y-50037341D01*
%TO.C,R20*%
X181447428Y-120206341D02*
X181447428Y-119899059D01*
X182207428Y-120206341D02*
X182207428Y-119899059D01*
%TO.C,R13*%
X93740000Y-117156359D02*
X93740000Y-117463641D01*
X92980000Y-117156359D02*
X92980000Y-117463641D01*
%TO.C,R9*%
X97420000Y-130846359D02*
X97420000Y-131153641D01*
X96660000Y-130846359D02*
X96660000Y-131153641D01*
%TO.C,D17*%
X129892438Y-70715000D02*
X127432438Y-70715000D01*
X129892438Y-72185000D02*
X129892438Y-70715000D01*
X127432438Y-72185000D02*
X129892438Y-72185000D01*
%TO.C,R23*%
X152506359Y-53570000D02*
X152813641Y-53570000D01*
X152506359Y-54330000D02*
X152813641Y-54330000D01*
%TO.C,R11*%
X98646358Y-129830000D02*
X98953640Y-129830000D01*
X98646358Y-129070000D02*
X98953640Y-129070000D01*
%TO.C,Q29*%
X123970000Y-77350001D02*
X123970000Y-76300001D01*
X126370000Y-77350001D02*
X123970000Y-77350001D01*
X123970000Y-74050001D02*
X123970000Y-75100001D01*
X125770000Y-74050001D02*
X123970000Y-74050001D01*
%TO.C,J23*%
X121180000Y-152620000D02*
X136300000Y-152620000D01*
X136300000Y-144500000D02*
X121180000Y-144500000D01*
X120880000Y-144200000D02*
X123290000Y-144200000D01*
X120880000Y-146610000D02*
X120880000Y-144200000D01*
X136300000Y-152620000D02*
X136300000Y-144500000D01*
X121180000Y-144500000D02*
X121180000Y-152620000D01*
%TO.C,R1*%
X169253641Y-127572500D02*
X168946359Y-127572500D01*
X169253641Y-128332500D02*
X168946359Y-128332500D01*
%TO.C,SW8*%
X124292000Y-129510000D02*
X127848000Y-129510000D01*
X127848000Y-138146000D02*
X124292000Y-138146000D01*
X124292000Y-138146000D02*
X124292000Y-129510000D01*
X127848000Y-129510000D02*
X127848000Y-138146000D01*
G36*
X129626000Y-133828000D02*
G01*
X127340000Y-133828000D01*
X127340000Y-130018000D01*
X124800000Y-130018000D01*
X124800000Y-133828000D01*
X122514000Y-133828000D01*
X122514000Y-127732000D01*
X129626000Y-127732000D01*
X129626000Y-133828000D01*
G37*
X129626000Y-133828000D02*
X127340000Y-133828000D01*
X127340000Y-130018000D01*
X124800000Y-130018000D01*
X124800000Y-133828000D01*
X122514000Y-133828000D01*
X122514000Y-127732000D01*
X129626000Y-127732000D01*
X129626000Y-133828000D01*
D12*
%TO.C,D4*%
X121645000Y-64360000D02*
X117395000Y-64360000D01*
D17*
X122920000Y-65860000D02*
X122920000Y-65860000D01*
D12*
X117395000Y-64360000D02*
X117395000Y-64660000D01*
D17*
X122820000Y-65860000D02*
X122820000Y-65860000D01*
D12*
X117395000Y-67360000D02*
X117395000Y-67060000D01*
X121645000Y-67360000D02*
X117395000Y-67360000D01*
D17*
X122920000Y-65860000D02*
G75*
G03*
X122820000Y-65860000I-50000J0D01*
G01*
X122820000Y-65860000D02*
G75*
G03*
X122920000Y-65860000I50000J0D01*
G01*
D15*
%TO.C,TP4*%
X174020000Y-81900000D02*
G75*
G03*
X174020000Y-81900000I-1200000J0D01*
G01*
%TO.C,D16*%
X127395000Y-69485000D02*
X129855000Y-69485000D01*
X129855000Y-68015000D02*
X127395000Y-68015000D01*
X129855000Y-69485000D02*
X129855000Y-68015000D01*
%TO.C,R54*%
X157630000Y-69683641D02*
X157630000Y-69376359D01*
X158390000Y-69683641D02*
X158390000Y-69376359D01*
%TO.C,C9*%
X126038748Y-65975000D02*
X126561252Y-65975000D01*
X126038748Y-64505000D02*
X126561252Y-64505000D01*
%TO.C,C22*%
X131007836Y-79960000D02*
X130792164Y-79960000D01*
X131007836Y-80680000D02*
X130792164Y-80680000D01*
%TO.C,C1*%
X168992164Y-137162500D02*
X169207836Y-137162500D01*
X168992164Y-136442500D02*
X169207836Y-136442500D01*
%TO.C,H2*%
X106790000Y-107660000D02*
X108690000Y-107660000D01*
X108690000Y-109560000D02*
X106790000Y-109560000D01*
X108690000Y-107660000D02*
X108690000Y-109560000D01*
X106790000Y-109560000D02*
X106790000Y-107660000D01*
%TO.C,C31*%
X142487836Y-102350000D02*
X142272164Y-102350000D01*
X142487836Y-103070000D02*
X142272164Y-103070000D01*
%TO.C,C23*%
X117370000Y-93060000D02*
X122610000Y-93060000D01*
X122610000Y-95485000D02*
X122610000Y-95800000D01*
X117370000Y-93060000D02*
X117370000Y-93375000D01*
X117370000Y-95800000D02*
X122610000Y-95800000D01*
X122610000Y-93060000D02*
X122610000Y-93375000D01*
X117370000Y-95485000D02*
X117370000Y-95800000D01*
%TO.C,R56*%
X128076359Y-73230000D02*
X128383641Y-73230000D01*
X128076359Y-72470000D02*
X128383641Y-72470000D01*
%TO.C,R66*%
X185530000Y-73823641D02*
X185530000Y-73516359D01*
X186290000Y-73823641D02*
X186290000Y-73516359D01*
%TO.C,R39*%
X193476359Y-68940000D02*
X193783641Y-68940000D01*
X193476359Y-69700000D02*
X193783641Y-69700000D01*
%TO.C,D14*%
X110162500Y-119435000D02*
X110162500Y-120905000D01*
X112622500Y-119435000D02*
X110162500Y-119435000D01*
X110162500Y-120905000D02*
X112622500Y-120905000D01*
%TO.C,R49*%
X107670000Y-135663641D02*
X107670000Y-135356359D01*
X108430000Y-135663641D02*
X108430000Y-135356359D01*
%TO.C,C8*%
X180058238Y-109771007D02*
X179905735Y-109923510D01*
X179549121Y-109261890D02*
X179396618Y-109414393D01*
%TO.C,H4*%
X184810000Y-134370000D02*
X184810000Y-136270000D01*
X182910000Y-136270000D02*
X182910000Y-134370000D01*
X184810000Y-136270000D02*
X182910000Y-136270000D01*
X182910000Y-134370000D02*
X184810000Y-134370000D01*
%TO.C,D18*%
X130650000Y-68015000D02*
X130650000Y-69485000D01*
X133110000Y-68015000D02*
X130650000Y-68015000D01*
X130650000Y-69485000D02*
X133110000Y-69485000D01*
%TO.C,Q13*%
X140680000Y-40210000D02*
X140680000Y-39560000D01*
X143800000Y-40210000D02*
X143800000Y-38535000D01*
X140680000Y-40210000D02*
X140680000Y-40860000D01*
X143800000Y-40210000D02*
X143800000Y-40860000D01*
%TD*%
%LPC*%
D18*
%TO.C,C19*%
X113840000Y-110592500D03*
X112880000Y-110592500D03*
%TD*%
D19*
%TO.C,C32*%
X157560000Y-91590000D03*
X158520000Y-91590000D03*
%TD*%
D20*
%TO.C,R35*%
X129162500Y-121179000D03*
X129162500Y-122199000D03*
%TD*%
D21*
%TO.C,U8*%
X152725000Y-93375000D03*
X152725000Y-94645000D03*
X152725000Y-95915000D03*
X152725000Y-97185000D03*
X157975000Y-97185000D03*
X157975000Y-95915000D03*
X157975000Y-94645000D03*
X157975000Y-93375000D03*
%TD*%
D22*
%TO.C,Q28*%
X146590000Y-93400000D03*
X146590000Y-95300000D03*
X149890000Y-94350000D03*
%TD*%
D23*
%TO.C,H5*%
X115610000Y-112920000D03*
%TD*%
%TO.C,H9*%
X150080000Y-36610000D03*
%TD*%
D24*
%TO.C,R74*%
X184060000Y-139130000D03*
X183040000Y-139130000D03*
%TD*%
%TO.C,R58*%
X132810000Y-72850000D03*
X131790000Y-72850000D03*
%TD*%
D19*
%TO.C,C33*%
X115960000Y-78540001D03*
X116920000Y-78540001D03*
%TD*%
D20*
%TO.C,R24*%
X131700000Y-63220000D03*
X131700000Y-64240000D03*
%TD*%
D25*
%TO.C,TP3*%
X196800000Y-96260000D03*
%TD*%
D26*
%TO.C,R64*%
X188200000Y-44370000D03*
X189220000Y-44370000D03*
%TD*%
D27*
%TO.C,R22*%
X156510000Y-63330000D03*
X156510000Y-62310000D03*
%TD*%
D18*
%TO.C,C5*%
X103000000Y-87300000D03*
X102040000Y-87300000D03*
%TD*%
D27*
%TO.C,R42*%
X108040000Y-128420000D03*
X108040000Y-127400000D03*
%TD*%
D28*
%TO.C,Q17*%
X152960000Y-75637500D03*
X154860000Y-75637500D03*
X153910000Y-73762500D03*
%TD*%
D29*
%TO.C,C16*%
X141430000Y-92590000D03*
X141430000Y-93550000D03*
%TD*%
D30*
%TO.C,SW2*%
X166860000Y-128362500D03*
X166860000Y-136362500D03*
X171360000Y-128362500D03*
X171360000Y-136362500D03*
%TD*%
D31*
%TO.C,Q15*%
X118840000Y-97382500D03*
X116940000Y-97382500D03*
X117890000Y-99257500D03*
%TD*%
D26*
%TO.C,R70*%
X188977500Y-76230000D03*
X189997500Y-76230000D03*
%TD*%
D20*
%TO.C,R84*%
X161530000Y-94770000D03*
X161530000Y-95790000D03*
%TD*%
D23*
%TO.C,H8*%
X157970000Y-55430000D03*
%TD*%
D24*
%TO.C,R57*%
X132810000Y-70090000D03*
X131790000Y-70090000D03*
%TD*%
D27*
%TO.C,R18*%
X153290000Y-52690000D03*
X153290000Y-51670000D03*
%TD*%
D28*
%TO.C,Q11*%
X149260000Y-57547500D03*
X151160000Y-57547500D03*
X150210000Y-55672500D03*
%TD*%
D26*
%TO.C,R78*%
X155140000Y-91590000D03*
X156160000Y-91590000D03*
%TD*%
D32*
%TO.C,U3*%
X149900000Y-42870000D03*
X150850000Y-42870000D03*
X151800000Y-42870000D03*
X151800000Y-39450000D03*
X149900000Y-39450000D03*
%TD*%
D26*
%TO.C,R38*%
X153200000Y-137760000D03*
X154220000Y-137760000D03*
%TD*%
D19*
%TO.C,C11*%
X135160000Y-128730000D03*
X136120000Y-128730000D03*
%TD*%
D33*
%TO.C,R76*%
X148635000Y-97350000D03*
X150285000Y-97350000D03*
%TD*%
D34*
%TO.C,J20*%
X97100000Y-46720000D03*
D35*
X97100000Y-49220000D03*
X97100000Y-51720000D03*
%TD*%
D31*
%TO.C,Q5*%
X103900000Y-130692500D03*
X102000000Y-130692500D03*
X102950000Y-132567500D03*
%TD*%
D24*
%TO.C,R41*%
X124420000Y-110525000D03*
X123400000Y-110525000D03*
%TD*%
D20*
%TO.C,R36*%
X128982500Y-134849000D03*
X128982500Y-135869000D03*
%TD*%
D27*
%TO.C,R67*%
X185710000Y-86830000D03*
X185710000Y-85810000D03*
%TD*%
%TO.C,R82*%
X112719999Y-76350001D03*
X112719999Y-75330001D03*
%TD*%
%TO.C,R59*%
X171270000Y-73270000D03*
X171270000Y-72250000D03*
%TD*%
D36*
%TO.C,U7*%
X140930000Y-100925000D03*
D37*
X143470000Y-100925000D03*
X146010000Y-100925000D03*
X148550000Y-100925000D03*
%TD*%
D26*
%TO.C,R3*%
X94660000Y-126320000D03*
X95680000Y-126320000D03*
%TD*%
D38*
%TO.C,J5*%
X172940000Y-36735000D03*
X183940000Y-36735000D03*
D39*
X180940000Y-46735000D03*
D40*
X175940000Y-46735000D03*
%TD*%
D41*
%TO.C,H16*%
X94740000Y-38060000D03*
%TD*%
D26*
%TO.C,R34*%
X143560000Y-37570000D03*
X144580000Y-37570000D03*
%TD*%
D27*
%TO.C,R60*%
X171270000Y-75800000D03*
X171270000Y-74780000D03*
%TD*%
D23*
%TO.C,H1*%
X166730000Y-139710000D03*
%TD*%
D42*
%TO.C,J19*%
X192590000Y-127060000D03*
D35*
X192590000Y-124560000D03*
X192590000Y-122060000D03*
%TD*%
D43*
%TO.C,Q18*%
X122877500Y-99260000D03*
X122877500Y-97360000D03*
X121002500Y-98310000D03*
%TD*%
D27*
%TO.C,R65*%
X185810000Y-60590000D03*
X185810000Y-59570000D03*
%TD*%
D18*
%TO.C,C35*%
X98110000Y-55800000D03*
X97150000Y-55800000D03*
%TD*%
D24*
%TO.C,R15*%
X99279999Y-132420000D03*
X98259999Y-132420000D03*
%TD*%
D44*
%TO.C,Q6*%
X154910000Y-53568000D03*
X155860000Y-53568000D03*
X156810000Y-53568000D03*
X156810000Y-50792000D03*
X155860000Y-50792000D03*
X154910000Y-50792000D03*
%TD*%
D26*
%TO.C,R43*%
X114480000Y-116160000D03*
X115500000Y-116160000D03*
%TD*%
D45*
%TO.C,SW16*%
X170440000Y-145410000D03*
D46*
X170440000Y-147950000D03*
X170440000Y-150490000D03*
%TD*%
D30*
%TO.C,SW11*%
X126160000Y-102065000D03*
X126160000Y-110065000D03*
X121660000Y-102065000D03*
X121660000Y-110065000D03*
%TD*%
D20*
%TO.C,R5*%
X100730000Y-95650000D03*
X100730000Y-96670000D03*
%TD*%
D29*
%TO.C,C13*%
X169690000Y-56040000D03*
X169690000Y-57000000D03*
%TD*%
D47*
%TO.C,C26*%
X117140000Y-59630000D03*
X117140000Y-52430000D03*
%TD*%
D24*
%TO.C,R73*%
X155800000Y-139200000D03*
X154780000Y-139200000D03*
%TD*%
D48*
%TO.C,Q8*%
X153452500Y-55552499D03*
X153452500Y-57452499D03*
X155327500Y-56502499D03*
%TD*%
D27*
%TO.C,R46*%
X108040000Y-130950000D03*
X108040000Y-129930000D03*
%TD*%
D49*
%TO.C,D11*%
X158360000Y-61940000D03*
X158360000Y-64440000D03*
%TD*%
D50*
%TO.C,J17*%
X179050000Y-145910000D03*
D51*
X181550000Y-145910000D03*
X184050000Y-145910000D03*
%TD*%
D27*
%TO.C,R6*%
X100720000Y-100180000D03*
X100720000Y-99160000D03*
%TD*%
D52*
%TO.C,C30*%
X159160000Y-68850000D03*
X159160000Y-67890000D03*
%TD*%
D19*
%TO.C,C21*%
X139170000Y-78900000D03*
X140130000Y-78900000D03*
%TD*%
D30*
%TO.C,SW3*%
X180360000Y-136362500D03*
X180360000Y-128362500D03*
X175860000Y-128362500D03*
X175860000Y-136362500D03*
%TD*%
D53*
%TO.C,C28*%
X160280000Y-59300000D03*
X167480000Y-59300000D03*
%TD*%
D26*
%TO.C,R55*%
X127710000Y-70110000D03*
X128730000Y-70110000D03*
%TD*%
D44*
%TO.C,Q2*%
X160820000Y-50782000D03*
X159870000Y-50782000D03*
X158920000Y-50782000D03*
X158920000Y-53558000D03*
X159870000Y-53558000D03*
X160820000Y-53558000D03*
%TD*%
D38*
%TO.C,J2*%
X116820000Y-36735000D03*
X105820000Y-36735000D03*
D39*
X113820000Y-46735000D03*
D40*
X108820000Y-46735000D03*
%TD*%
D45*
%TO.C,SW7*%
X126220000Y-117610000D03*
D46*
X126220000Y-120150000D03*
X126220000Y-122690000D03*
%TD*%
D19*
%TO.C,C15*%
X153230000Y-128730000D03*
X154190000Y-128730000D03*
%TD*%
D26*
%TO.C,R52*%
X149450000Y-75170000D03*
X150470000Y-75170000D03*
%TD*%
D54*
%TO.C,C14*%
X146940000Y-43780000D03*
X146940000Y-38780000D03*
%TD*%
D30*
%TO.C,SW10*%
X155960000Y-137210000D03*
X155960000Y-129210000D03*
X151460000Y-129210000D03*
X151460000Y-137210000D03*
%TD*%
D29*
%TO.C,C18*%
X143940000Y-84360000D03*
X143940000Y-85320000D03*
%TD*%
D26*
%TO.C,R37*%
X141430000Y-37590000D03*
X142450000Y-37590000D03*
%TD*%
D52*
%TO.C,C34*%
X99840000Y-48360000D03*
X99840000Y-47400000D03*
%TD*%
D27*
%TO.C,R63*%
X171270000Y-70720000D03*
X171270000Y-69700000D03*
%TD*%
D26*
%TO.C,R2*%
X177610000Y-127942500D03*
X178630000Y-127942500D03*
%TD*%
D30*
%TO.C,SW12*%
X115620000Y-110102500D03*
X115620000Y-102102500D03*
X111120000Y-110102500D03*
X111120000Y-102102500D03*
%TD*%
D27*
%TO.C,R12*%
X164770000Y-121790000D03*
X164770000Y-120770000D03*
%TD*%
D26*
%TO.C,R45*%
X114470000Y-120160000D03*
X115490000Y-120160000D03*
%TD*%
D31*
%TO.C,Q27*%
X180560000Y-140792500D03*
X178660000Y-140792500D03*
X179610000Y-142667500D03*
%TD*%
D55*
%TO.C,D19*%
X131437500Y-71460000D03*
X133187500Y-71460000D03*
%TD*%
D27*
%TO.C,R10*%
X96440000Y-117820000D03*
X96440000Y-116800000D03*
%TD*%
D56*
%TO.C,C6*%
X94890000Y-117705000D03*
X94890000Y-116155000D03*
%TD*%
D57*
%TO.C,JP1*%
X164200000Y-96565000D03*
D58*
X164200000Y-94025000D03*
%TD*%
D59*
%TO.C,D13*%
X117630000Y-118100000D03*
X115880000Y-118100000D03*
%TD*%
D19*
%TO.C,C20*%
X129390000Y-91360000D03*
X130350000Y-91360000D03*
%TD*%
D23*
%TO.C,H3*%
X107730000Y-105470000D03*
%TD*%
D30*
%TO.C,SW6*%
X137860000Y-137210000D03*
X137860000Y-129210000D03*
X133360000Y-129210000D03*
X133360000Y-137210000D03*
%TD*%
D26*
%TO.C,R68*%
X188170000Y-49850000D03*
X189190000Y-49850000D03*
%TD*%
D60*
%TO.C,U1*%
X108070000Y-98840000D03*
X108570000Y-98840000D03*
X109070000Y-98840000D03*
X109570000Y-98840000D03*
X110070000Y-98840000D03*
X110070000Y-94440000D03*
X109570000Y-94440000D03*
X109070000Y-94440000D03*
X108570000Y-94440000D03*
X108070000Y-94440000D03*
%TD*%
D61*
%TO.C,R77*%
X124465000Y-72690001D03*
X122815000Y-72690001D03*
%TD*%
D47*
%TO.C,C27*%
X126940000Y-59680000D03*
X126940000Y-52480000D03*
%TD*%
D31*
%TO.C,Q20*%
X189580000Y-46192500D03*
X187680000Y-46192500D03*
X188630000Y-48067500D03*
%TD*%
D25*
%TO.C,TP1*%
X114760000Y-70100000D03*
%TD*%
D42*
%TO.C,J9*%
X192590000Y-65170000D03*
D35*
X192590000Y-62670000D03*
X192590000Y-60170000D03*
%TD*%
D50*
%TO.C,J22*%
X105240000Y-145910000D03*
D51*
X107740000Y-145910000D03*
X110240000Y-145910000D03*
X112740000Y-145910000D03*
X115240000Y-145910000D03*
%TD*%
D26*
%TO.C,R69*%
X188930000Y-62700000D03*
X189950000Y-62700000D03*
%TD*%
D48*
%TO.C,Q21*%
X187560000Y-59160000D03*
X187560000Y-61060000D03*
X189435000Y-60110000D03*
%TD*%
D37*
%TO.C,SW1*%
X102170000Y-125410000D03*
X102170000Y-115250000D03*
D62*
X99630000Y-122870000D03*
D37*
X99630000Y-120330000D03*
X99630000Y-117790000D03*
X104710000Y-122870000D03*
X104710000Y-120330000D03*
X104710000Y-117790000D03*
%TD*%
D42*
%TO.C,J10*%
X192590000Y-78350000D03*
D35*
X192590000Y-75850000D03*
X192590000Y-73350000D03*
%TD*%
D63*
%TO.C,C2*%
X98530000Y-109400000D03*
X100430000Y-109400000D03*
%TD*%
D24*
%TO.C,R79*%
X119370000Y-78520001D03*
X118350000Y-78520001D03*
%TD*%
D64*
%TO.C,MD1*%
X134745000Y-59350000D03*
D65*
X136910000Y-54765000D03*
D66*
X141490000Y-54765000D03*
D67*
X144930000Y-55915000D03*
D64*
X145945000Y-59350000D03*
X145945000Y-63930000D03*
D68*
X140345000Y-64950000D03*
X138055000Y-64950000D03*
D64*
X134745000Y-63930000D03*
X134745000Y-61640000D03*
D69*
X146695000Y-61640000D03*
D68*
X142635000Y-64950000D03*
%TD*%
D31*
%TO.C,Q24*%
X160100000Y-140812500D03*
X158200000Y-140812500D03*
X159150000Y-142687500D03*
%TD*%
D70*
%TO.C,SW5*%
X112180000Y-79972500D03*
D38*
X112180000Y-82472500D03*
X112180000Y-84972500D03*
X108880000Y-79972500D03*
X108880000Y-82472500D03*
X108880000Y-84972500D03*
%TD*%
D71*
%TO.C,Q1*%
X104380000Y-59360000D03*
D72*
X106660000Y-53060000D03*
D71*
X106660000Y-59360000D03*
X108940000Y-59360000D03*
%TD*%
D55*
%TO.C,D5*%
X178042428Y-120547700D03*
X179792428Y-120547700D03*
%TD*%
D73*
%TO.C,D1*%
X113760000Y-97622500D03*
X113760000Y-95872500D03*
%TD*%
D42*
%TO.C,J18*%
X192590000Y-140060000D03*
D35*
X192590000Y-137560000D03*
X192590000Y-135060000D03*
%TD*%
D74*
%TO.C,J7*%
X103937500Y-84850000D03*
D37*
X101397500Y-84850000D03*
X103937500Y-82310000D03*
X101397500Y-82310000D03*
X103937500Y-79770000D03*
X101397500Y-79770000D03*
X103937500Y-77230000D03*
X101397500Y-77230000D03*
X103937500Y-74690000D03*
X101397500Y-74690000D03*
%TD*%
D75*
%TO.C,C7*%
X98504999Y-130940000D03*
X100054999Y-130940000D03*
%TD*%
D48*
%TO.C,Q23*%
X187512500Y-85360000D03*
X187512500Y-87260000D03*
X189387500Y-86310000D03*
%TD*%
D29*
%TO.C,C4*%
X106300000Y-96230000D03*
X106300000Y-97190000D03*
%TD*%
D76*
%TO.C,U2*%
X172746007Y-109636712D03*
D77*
X174506703Y-112168154D03*
X175404728Y-111270128D03*
X176302754Y-110372103D03*
X177200779Y-109474077D03*
X178098805Y-108576051D03*
X178996831Y-107678026D03*
X179894856Y-106780000D03*
X180792882Y-105881975D03*
D78*
X180792882Y-102643425D03*
X179894856Y-101745400D03*
X178996831Y-100847374D03*
X178098805Y-99949349D03*
X177200779Y-99051323D03*
X176302754Y-98153297D03*
X175404728Y-97255272D03*
X174506703Y-96357246D03*
D77*
X171268153Y-96357246D03*
X170370128Y-97255272D03*
X169472102Y-98153297D03*
X168574077Y-99051323D03*
X167676051Y-99949349D03*
X166778025Y-100847374D03*
X165880000Y-101745400D03*
X164981974Y-102643425D03*
D78*
X164981974Y-105881975D03*
X165880000Y-106780000D03*
X166778025Y-107678026D03*
X167676051Y-108576051D03*
X168574077Y-109474077D03*
X169472102Y-110372103D03*
D79*
X170299417Y-111340839D03*
X171197443Y-112238864D03*
%TD*%
D57*
%TO.C,J1*%
X188840000Y-115210000D03*
D58*
X188840000Y-112670000D03*
X188840000Y-110130000D03*
X188840000Y-107590000D03*
X188840000Y-105050000D03*
X188840000Y-102510000D03*
X188840000Y-99970000D03*
%TD*%
D80*
%TO.C,U6*%
X161350000Y-67170000D03*
D81*
X161350000Y-69710000D03*
X161350000Y-72250000D03*
X161350000Y-74790000D03*
X168970000Y-74790000D03*
X168970000Y-72250000D03*
X168970000Y-69710000D03*
X168970000Y-67170000D03*
%TD*%
D29*
%TO.C,C3*%
X111850000Y-98010000D03*
X111850000Y-98970000D03*
%TD*%
D45*
%TO.C,SW15*%
X146170000Y-145410000D03*
D46*
X146170000Y-147950000D03*
X146170000Y-150490000D03*
%TD*%
D75*
%TO.C,C24*%
X132235000Y-78600000D03*
X133785000Y-78600000D03*
%TD*%
D31*
%TO.C,Q26*%
X184490000Y-140792500D03*
X182590000Y-140792500D03*
X183540000Y-142667500D03*
%TD*%
D24*
%TO.C,R75*%
X180110000Y-139120000D03*
X179090000Y-139120000D03*
%TD*%
D82*
%TO.C,Q4*%
X111610000Y-67340000D03*
X111610000Y-65060000D03*
D83*
X105310000Y-65060000D03*
D82*
X111610000Y-62780000D03*
%TD*%
D27*
%TO.C,R21*%
X181807428Y-123542700D03*
X181807428Y-122522700D03*
%TD*%
D42*
%TO.C,J11*%
X192590000Y-91360000D03*
D35*
X192590000Y-88860000D03*
X192590000Y-86360000D03*
%TD*%
D84*
%TO.C,U9*%
X120385000Y-76645001D03*
X120385000Y-75375001D03*
X120385000Y-74105001D03*
X120385000Y-72835001D03*
X115135000Y-72835001D03*
X115135000Y-74105001D03*
X115135000Y-75375001D03*
X115135000Y-76645001D03*
%TD*%
D24*
%TO.C,R72*%
X159660000Y-139210000D03*
X158640000Y-139210000D03*
%TD*%
%TO.C,R8*%
X95420000Y-119180000D03*
X94400000Y-119180000D03*
%TD*%
D31*
%TO.C,Q25*%
X156220000Y-140812500D03*
X154320000Y-140812500D03*
X155270000Y-142687500D03*
%TD*%
D19*
%TO.C,C12*%
X144240000Y-128740000D03*
X145200000Y-128740000D03*
%TD*%
D50*
%TO.C,J16*%
X154740000Y-145910000D03*
D51*
X157240000Y-145910000D03*
X159740000Y-145910000D03*
%TD*%
D55*
%TO.C,D6*%
X178042428Y-123547700D03*
X179792428Y-123547700D03*
%TD*%
D27*
%TO.C,R53*%
X151540000Y-76210000D03*
X151540000Y-75190000D03*
%TD*%
D85*
%TO.C,C10*%
X144600000Y-49950000D03*
X142700000Y-49950000D03*
%TD*%
D26*
%TO.C,R19*%
X125740001Y-67060000D03*
X126760001Y-67060000D03*
%TD*%
D80*
%TO.C,SW4*%
X167117428Y-120772700D03*
D81*
X167117428Y-123312700D03*
X174737428Y-123312700D03*
X174737428Y-120772700D03*
%TD*%
D86*
%TO.C,C29*%
X144210000Y-73030000D03*
X137010000Y-73030000D03*
%TD*%
D27*
%TO.C,R80*%
X160150000Y-97080000D03*
X160150000Y-96060000D03*
%TD*%
D25*
%TO.C,TP5*%
X188700000Y-38780000D03*
%TD*%
D80*
%TO.C,SW14*%
X161310000Y-79335000D03*
D81*
X161310000Y-81875000D03*
X168930000Y-81875000D03*
X168930000Y-79335000D03*
%TD*%
D27*
%TO.C,R7*%
X111870000Y-95650000D03*
X111870000Y-94630000D03*
%TD*%
D38*
%TO.C,J4*%
X167990000Y-36735000D03*
X156990000Y-36735000D03*
D39*
X164990000Y-46735000D03*
D40*
X159990000Y-46735000D03*
%TD*%
D87*
%TO.C,LS1*%
X183160000Y-58550000D03*
X171960000Y-58550000D03*
%TD*%
D26*
%TO.C,R40*%
X149440000Y-73970000D03*
X150460000Y-73970000D03*
%TD*%
D20*
%TO.C,R50*%
X157940000Y-73200000D03*
X157940000Y-74220000D03*
%TD*%
D26*
%TO.C,R71*%
X188900000Y-88840000D03*
X189920000Y-88840000D03*
%TD*%
D88*
%TO.C,U5*%
X142065000Y-90210000D03*
X142065000Y-89710000D03*
X142065000Y-89210000D03*
X142065000Y-88710000D03*
X142065000Y-88210000D03*
X142065000Y-87710000D03*
X142065000Y-87210000D03*
X142065000Y-86710000D03*
X142065000Y-86210000D03*
X142065000Y-85710000D03*
X142065000Y-85210000D03*
X142065000Y-84710000D03*
X142065000Y-84210000D03*
X142065000Y-83710000D03*
X142065000Y-83210000D03*
X142065000Y-82710000D03*
D89*
X140140000Y-80785000D03*
X139640000Y-80785000D03*
X139140000Y-80785000D03*
X138640000Y-80785000D03*
X138140000Y-80785000D03*
X137640000Y-80785000D03*
X137140000Y-80785000D03*
X136640000Y-80785000D03*
X136140000Y-80785000D03*
X135640000Y-80785000D03*
X135140000Y-80785000D03*
X134640000Y-80785000D03*
X134140000Y-80785000D03*
X133640000Y-80785000D03*
X133140000Y-80785000D03*
X132640000Y-80785000D03*
D88*
X130715000Y-82710000D03*
X130715000Y-83210000D03*
X130715000Y-83710000D03*
X130715000Y-84210000D03*
X130715000Y-84710000D03*
X130715000Y-85210000D03*
X130715000Y-85710000D03*
X130715000Y-86210000D03*
X130715000Y-86710000D03*
X130715000Y-87210000D03*
X130715000Y-87710000D03*
X130715000Y-88210000D03*
X130715000Y-88710000D03*
X130715000Y-89210000D03*
X130715000Y-89710000D03*
X130715000Y-90210000D03*
D89*
X132640000Y-92135000D03*
X133140000Y-92135000D03*
X133640000Y-92135000D03*
X134140000Y-92135000D03*
X134640000Y-92135000D03*
X135140000Y-92135000D03*
X135640000Y-92135000D03*
X136140000Y-92135000D03*
X136640000Y-92135000D03*
X137140000Y-92135000D03*
X137640000Y-92135000D03*
X138140000Y-92135000D03*
X138640000Y-92135000D03*
X139140000Y-92135000D03*
X139640000Y-92135000D03*
X140140000Y-92135000D03*
%TD*%
D38*
%TO.C,J3*%
X124610000Y-36735000D03*
X135610000Y-36735000D03*
D39*
X132610000Y-46735000D03*
D40*
X127610000Y-46735000D03*
%TD*%
D34*
%TO.C,J21*%
X97070000Y-59790000D03*
D35*
X97070000Y-62290000D03*
X97070000Y-64790000D03*
%TD*%
D26*
%TO.C,R26*%
X146160000Y-68690000D03*
X147180000Y-68690000D03*
%TD*%
D49*
%TO.C,D15*%
X154660000Y-77960000D03*
X152160000Y-77960000D03*
%TD*%
D27*
%TO.C,R81*%
X160140000Y-94510000D03*
X160140000Y-93490000D03*
%TD*%
D55*
%TO.C,D12*%
X110947500Y-116170000D03*
X112697500Y-116170000D03*
%TD*%
D20*
%TO.C,R29*%
X152010000Y-51660000D03*
X152010000Y-52680000D03*
%TD*%
D71*
%TO.C,U4*%
X154410000Y-62410000D03*
X152130000Y-62410000D03*
D72*
X152130000Y-68710000D03*
D71*
X149850000Y-62410000D03*
%TD*%
D26*
%TO.C,R31*%
X135100000Y-137730000D03*
X136120000Y-137730000D03*
%TD*%
D42*
%TO.C,J8*%
X192590000Y-52270000D03*
D35*
X192590000Y-49770000D03*
X192590000Y-47270000D03*
%TD*%
D20*
%TO.C,R51*%
X124530000Y-93930000D03*
X124530000Y-94950000D03*
%TD*%
D19*
%TO.C,C25*%
X142470000Y-91380000D03*
X143430000Y-91380000D03*
%TD*%
D27*
%TO.C,R14*%
X164780000Y-124340000D03*
X164780000Y-123320000D03*
%TD*%
D26*
%TO.C,R32*%
X98970000Y-111470000D03*
X99990000Y-111470000D03*
%TD*%
D30*
%TO.C,SW9*%
X146960000Y-129210000D03*
X146960000Y-137210000D03*
X142460000Y-137210000D03*
X142460000Y-129210000D03*
%TD*%
D26*
%TO.C,R28*%
X143120000Y-48050000D03*
X144140000Y-48050000D03*
%TD*%
D27*
%TO.C,R83*%
X112740000Y-74140000D03*
X112740000Y-73120000D03*
%TD*%
D28*
%TO.C,Q3*%
X94230000Y-123637500D03*
X96130000Y-123637500D03*
X95180000Y-121762500D03*
%TD*%
D24*
%TO.C,R44*%
X114080000Y-118100000D03*
X113060000Y-118100000D03*
%TD*%
D48*
%TO.C,Q22*%
X187580000Y-72760000D03*
X187580000Y-74660000D03*
X189455000Y-73710000D03*
%TD*%
D52*
%TO.C,C17*%
X156600000Y-66780000D03*
X156600000Y-65820000D03*
%TD*%
D23*
%TO.C,H7*%
X149470000Y-52380000D03*
%TD*%
D26*
%TO.C,R25*%
X146160000Y-67340000D03*
X147180000Y-67340000D03*
%TD*%
D80*
%TO.C,SW13*%
X110330000Y-127390000D03*
D81*
X110330000Y-129930000D03*
X110330000Y-132470000D03*
X110330000Y-135010000D03*
X117950000Y-135010000D03*
X117950000Y-132470000D03*
X117950000Y-129930000D03*
X117950000Y-127390000D03*
%TD*%
D27*
%TO.C,R48*%
X108050000Y-133490000D03*
X108050000Y-132470000D03*
%TD*%
D46*
%TO.C,J6*%
X103190000Y-101705000D03*
X103190000Y-94085000D03*
D90*
X103190000Y-109325000D03*
D46*
X103190000Y-99165000D03*
X103190000Y-104245000D03*
X103190000Y-106785000D03*
X103190000Y-96625000D03*
X93030000Y-109325000D03*
X93030000Y-94085000D03*
X95570000Y-109325000D03*
X95570000Y-94085000D03*
%TD*%
D26*
%TO.C,R27*%
X146140000Y-70010000D03*
X147160000Y-70010000D03*
%TD*%
D91*
%TO.C,RV1*%
X176203950Y-72005000D03*
X178000000Y-70208950D03*
X179796050Y-72005000D03*
%TD*%
D24*
%TO.C,R4*%
X103460000Y-128020000D03*
X102440000Y-128020000D03*
%TD*%
D41*
%TO.C,H17*%
X194740000Y-148060000D03*
%TD*%
D28*
%TO.C,Q14*%
X141290000Y-45127500D03*
X143190000Y-45127500D03*
X142240000Y-43252500D03*
%TD*%
D26*
%TO.C,R47*%
X102010000Y-88700000D03*
X103030000Y-88700000D03*
%TD*%
%TO.C,R33*%
X144240000Y-137730000D03*
X145260000Y-137730000D03*
%TD*%
D92*
%TO.C,R30*%
X150049376Y-49299376D03*
X150770624Y-50020624D03*
%TD*%
D41*
%TO.C,H15*%
X94740000Y-148060000D03*
%TD*%
D27*
%TO.C,R20*%
X181827428Y-120562700D03*
X181827428Y-119542700D03*
%TD*%
D20*
%TO.C,R13*%
X93360000Y-116800000D03*
X93360000Y-117820000D03*
%TD*%
%TO.C,R9*%
X97040000Y-130490000D03*
X97040000Y-131510000D03*
%TD*%
D59*
%TO.C,D17*%
X129107438Y-71450000D03*
X127357438Y-71450000D03*
%TD*%
D26*
%TO.C,R23*%
X152150000Y-53950000D03*
X153170000Y-53950000D03*
%TD*%
%TO.C,R11*%
X98289999Y-129450000D03*
X99309999Y-129450000D03*
%TD*%
D22*
%TO.C,Q29*%
X126570000Y-76650001D03*
X126570000Y-74750001D03*
X123270000Y-75700001D03*
%TD*%
D50*
%TO.C,J23*%
X123740000Y-145910000D03*
D51*
X126240000Y-145910000D03*
X128740000Y-145910000D03*
X131240000Y-145910000D03*
X133740000Y-145910000D03*
%TD*%
D24*
%TO.C,R1*%
X169610000Y-127952500D03*
X168590000Y-127952500D03*
%TD*%
D45*
%TO.C,SW8*%
X126070000Y-131288000D03*
D46*
X126070000Y-133828000D03*
X126070000Y-136368000D03*
%TD*%
D93*
%TO.C,D4*%
X120730000Y-65860000D03*
D94*
X117510000Y-65860000D03*
%TD*%
D25*
%TO.C,TP4*%
X172820000Y-81900000D03*
%TD*%
D59*
%TO.C,D16*%
X129070000Y-68750000D03*
X127320000Y-68750000D03*
%TD*%
D41*
%TO.C,H14*%
X194740000Y-38060000D03*
%TD*%
D27*
%TO.C,R54*%
X158010000Y-70040000D03*
X158010000Y-69020000D03*
%TD*%
D63*
%TO.C,C9*%
X125350000Y-65240000D03*
X127250000Y-65240000D03*
%TD*%
D18*
%TO.C,C22*%
X131380000Y-80320000D03*
X130420000Y-80320000D03*
%TD*%
D19*
%TO.C,C1*%
X168620000Y-136802500D03*
X169580000Y-136802500D03*
%TD*%
D23*
%TO.C,H2*%
X107740000Y-108610000D03*
%TD*%
D18*
%TO.C,C31*%
X142860000Y-102710000D03*
X141900000Y-102710000D03*
%TD*%
D54*
%TO.C,C23*%
X117490000Y-94430000D03*
X122490000Y-94430000D03*
%TD*%
D26*
%TO.C,R56*%
X127720000Y-72850000D03*
X128740000Y-72850000D03*
%TD*%
D27*
%TO.C,R66*%
X185910000Y-74180000D03*
X185910000Y-73160000D03*
%TD*%
D26*
%TO.C,R39*%
X193120000Y-69320000D03*
X194140000Y-69320000D03*
%TD*%
D55*
%TO.C,D14*%
X110947500Y-120170000D03*
X112697500Y-120170000D03*
%TD*%
D27*
%TO.C,R49*%
X108050000Y-136020000D03*
X108050000Y-135000000D03*
%TD*%
D95*
%TO.C,C8*%
X180066839Y-109253289D03*
X179388017Y-109932111D03*
%TD*%
D23*
%TO.C,H4*%
X183860000Y-135320000D03*
%TD*%
D55*
%TO.C,D18*%
X131435000Y-68750000D03*
X133185000Y-68750000D03*
%TD*%
D31*
%TO.C,Q13*%
X143190000Y-39272500D03*
X141290000Y-39272500D03*
X142240000Y-41147500D03*
%TD*%
M02*
