%TF.GenerationSoftware,KiCad,Pcbnew,(6.0.11)*%
%TF.CreationDate,2023-12-12T02:53:41+09:00*%
%TF.ProjectId,Common_Control,436f6d6d-6f6e-45f4-936f-6e74726f6c2e,rev?*%
%TF.SameCoordinates,Original*%
%TF.FileFunction,Soldermask,Bot*%
%TF.FilePolarity,Negative*%
%FSLAX46Y46*%
G04 Gerber Fmt 4.6, Leading zero omitted, Abs format (unit mm)*
G04 Created by KiCad (PCBNEW (6.0.11)) date 2023-12-12 02:53:41*
%MOMM*%
%LPD*%
G01*
G04 APERTURE LIST*
G04 Aperture macros list*
%AMRoundRect*
0 Rectangle with rounded corners*
0 $1 Rounding radius*
0 $2 $3 $4 $5 $6 $7 $8 $9 X,Y pos of 4 corners*
0 Add a 4 corners polygon primitive as box body*
4,1,4,$2,$3,$4,$5,$6,$7,$8,$9,$2,$3,0*
0 Add four circle primitives for the rounded corners*
1,1,$1+$1,$2,$3*
1,1,$1+$1,$4,$5*
1,1,$1+$1,$6,$7*
1,1,$1+$1,$8,$9*
0 Add four rect primitives between the rounded corners*
20,1,$1+$1,$2,$3,$4,$5,0*
20,1,$1+$1,$4,$5,$6,$7,0*
20,1,$1+$1,$6,$7,$8,$9,0*
20,1,$1+$1,$8,$9,$2,$3,0*%
G04 Aperture macros list end*
%ADD10C,2.000000*%
%ADD11RoundRect,0.250000X-0.675000X0.600000X-0.675000X-0.600000X0.675000X-0.600000X0.675000X0.600000X0*%
%ADD12O,1.850000X1.700000*%
%ADD13RoundRect,0.425000X-0.425000X-0.425000X0.425000X-0.425000X0.425000X0.425000X-0.425000X0.425000X0*%
%ADD14C,1.700000*%
%ADD15C,1.400000*%
%ADD16R,3.500000X3.500000*%
%ADD17C,3.500000*%
%ADD18C,3.200000*%
%ADD19RoundRect,0.250000X0.675000X-0.600000X0.675000X0.600000X-0.675000X0.600000X-0.675000X-0.600000X0*%
%ADD20RoundRect,0.381000X-0.381000X-0.381000X0.381000X-0.381000X0.381000X0.381000X-0.381000X0.381000X0*%
%ADD21C,1.524000*%
%ADD22RoundRect,0.250000X-0.600000X-0.675000X0.600000X-0.675000X0.600000X0.675000X-0.600000X0.675000X0*%
%ADD23O,1.700000X1.850000*%
%ADD24C,1.600000*%
%ADD25R,1.700000X1.700000*%
%ADD26O,1.700000X1.700000*%
%ADD27RoundRect,0.425000X0.425000X0.425000X-0.425000X0.425000X-0.425000X-0.425000X0.425000X-0.425000X0*%
%ADD28R,1.400000X1.400000*%
%ADD29RoundRect,0.250000X0.600000X0.600000X-0.600000X0.600000X-0.600000X-0.600000X0.600000X-0.600000X0*%
%ADD30O,3.100000X4.300000*%
%ADD31R,1.600000X1.600000*%
%ADD32O,1.600000X1.600000*%
%ADD33R,1.524000X1.524000*%
%ADD34C,1.440000*%
%ADD35RoundRect,0.237500X-0.250000X-0.237500X0.250000X-0.237500X0.250000X0.237500X-0.250000X0.237500X0*%
%ADD36R,0.900000X1.200000*%
%ADD37R,1.500000X1.500000*%
%ADD38R,0.800000X1.800000*%
%ADD39R,1.800000X0.800000*%
%ADD40RoundRect,0.237500X-0.344715X0.008839X0.008839X-0.344715X0.344715X-0.008839X-0.008839X0.344715X0*%
%ADD41R,1.200000X0.900000*%
G04 APERTURE END LIST*
D10*
%TO.C,TP3*%
X196800000Y-96260000D03*
%TD*%
D11*
%TO.C,J20*%
X97100000Y-46720000D03*
D12*
X97100000Y-49220000D03*
X97100000Y-51720000D03*
%TD*%
D13*
%TO.C,U7*%
X140930000Y-100925000D03*
D14*
X143470000Y-100925000D03*
X146010000Y-100925000D03*
X148550000Y-100925000D03*
%TD*%
D15*
%TO.C,J5*%
X172940000Y-36735000D03*
X183940000Y-36735000D03*
D16*
X180940000Y-46735000D03*
D17*
X175940000Y-46735000D03*
%TD*%
D18*
%TO.C,H16*%
X94740000Y-38060000D03*
%TD*%
D19*
%TO.C,J19*%
X192590000Y-127060000D03*
D12*
X192590000Y-124560000D03*
X192590000Y-122060000D03*
%TD*%
D20*
%TO.C,SW16*%
X170440000Y-145410000D03*
D21*
X170440000Y-147950000D03*
X170440000Y-150490000D03*
%TD*%
D22*
%TO.C,J17*%
X179050000Y-145910000D03*
D23*
X181550000Y-145910000D03*
X184050000Y-145910000D03*
%TD*%
D15*
%TO.C,J2*%
X116820000Y-36735000D03*
X105820000Y-36735000D03*
D16*
X113820000Y-46735000D03*
D17*
X108820000Y-46735000D03*
%TD*%
D20*
%TO.C,SW7*%
X126220000Y-117610000D03*
D21*
X126220000Y-120150000D03*
X126220000Y-122690000D03*
%TD*%
D24*
%TO.C,C14*%
X146940000Y-43780000D03*
X146940000Y-38780000D03*
%TD*%
D25*
%TO.C,JP1*%
X164200000Y-96565000D03*
D26*
X164200000Y-94025000D03*
%TD*%
D10*
%TO.C,TP1*%
X114760000Y-70100000D03*
%TD*%
D19*
%TO.C,J9*%
X192590000Y-65170000D03*
D12*
X192590000Y-62670000D03*
X192590000Y-60170000D03*
%TD*%
D22*
%TO.C,J22*%
X105240000Y-145910000D03*
D23*
X107740000Y-145910000D03*
X110240000Y-145910000D03*
X112740000Y-145910000D03*
X115240000Y-145910000D03*
%TD*%
D14*
%TO.C,SW1*%
X102170000Y-125410000D03*
X102170000Y-115250000D03*
D27*
X99630000Y-122870000D03*
D14*
X99630000Y-120330000D03*
X99630000Y-117790000D03*
X104710000Y-122870000D03*
X104710000Y-120330000D03*
X104710000Y-117790000D03*
%TD*%
D19*
%TO.C,J10*%
X192590000Y-78350000D03*
D12*
X192590000Y-75850000D03*
X192590000Y-73350000D03*
%TD*%
D28*
%TO.C,SW5*%
X112180000Y-79972500D03*
D15*
X112180000Y-82472500D03*
X112180000Y-84972500D03*
X108880000Y-79972500D03*
X108880000Y-82472500D03*
X108880000Y-84972500D03*
%TD*%
D19*
%TO.C,J18*%
X192590000Y-140060000D03*
D12*
X192590000Y-137560000D03*
X192590000Y-135060000D03*
%TD*%
D29*
%TO.C,J7*%
X103937500Y-84850000D03*
D14*
X101397500Y-84850000D03*
X103937500Y-82310000D03*
X101397500Y-82310000D03*
X103937500Y-79770000D03*
X101397500Y-79770000D03*
X103937500Y-77230000D03*
X101397500Y-77230000D03*
X103937500Y-74690000D03*
X101397500Y-74690000D03*
%TD*%
D30*
%TO.C,U2*%
X172746007Y-109636712D03*
%TD*%
D25*
%TO.C,J1*%
X188840000Y-115210000D03*
D26*
X188840000Y-112670000D03*
X188840000Y-110130000D03*
X188840000Y-107590000D03*
X188840000Y-105050000D03*
X188840000Y-102510000D03*
X188840000Y-99970000D03*
%TD*%
D31*
%TO.C,U6*%
X161350000Y-67170000D03*
D32*
X161350000Y-69710000D03*
X161350000Y-72250000D03*
X161350000Y-74790000D03*
X168970000Y-74790000D03*
X168970000Y-72250000D03*
X168970000Y-69710000D03*
X168970000Y-67170000D03*
%TD*%
D20*
%TO.C,SW15*%
X146170000Y-145410000D03*
D21*
X146170000Y-147950000D03*
X146170000Y-150490000D03*
%TD*%
D19*
%TO.C,J11*%
X192590000Y-91360000D03*
D12*
X192590000Y-88860000D03*
X192590000Y-86360000D03*
%TD*%
D22*
%TO.C,J16*%
X154740000Y-145910000D03*
D23*
X157240000Y-145910000D03*
X159740000Y-145910000D03*
%TD*%
D31*
%TO.C,SW4*%
X167117428Y-120772700D03*
D32*
X167117428Y-123312700D03*
X174737428Y-123312700D03*
X174737428Y-120772700D03*
%TD*%
D10*
%TO.C,TP5*%
X188700000Y-38780000D03*
%TD*%
D31*
%TO.C,SW14*%
X161310000Y-79335000D03*
D32*
X161310000Y-81875000D03*
X168930000Y-81875000D03*
X168930000Y-79335000D03*
%TD*%
D15*
%TO.C,J4*%
X167990000Y-36735000D03*
X156990000Y-36735000D03*
D16*
X164990000Y-46735000D03*
D17*
X159990000Y-46735000D03*
%TD*%
D15*
%TO.C,J3*%
X124610000Y-36735000D03*
X135610000Y-36735000D03*
D16*
X132610000Y-46735000D03*
D17*
X127610000Y-46735000D03*
%TD*%
D11*
%TO.C,J21*%
X97070000Y-59790000D03*
D12*
X97070000Y-62290000D03*
X97070000Y-64790000D03*
%TD*%
D19*
%TO.C,J8*%
X192590000Y-52270000D03*
D12*
X192590000Y-49770000D03*
X192590000Y-47270000D03*
%TD*%
D31*
%TO.C,SW13*%
X110330000Y-127390000D03*
D32*
X110330000Y-129930000D03*
X110330000Y-132470000D03*
X110330000Y-135010000D03*
X117950000Y-135010000D03*
X117950000Y-132470000D03*
X117950000Y-129930000D03*
X117950000Y-127390000D03*
%TD*%
D21*
%TO.C,J6*%
X103190000Y-101705000D03*
X103190000Y-94085000D03*
D33*
X103190000Y-109325000D03*
D21*
X103190000Y-99165000D03*
X103190000Y-104245000D03*
X103190000Y-106785000D03*
X103190000Y-96625000D03*
X93030000Y-109325000D03*
X93030000Y-94085000D03*
X95570000Y-109325000D03*
X95570000Y-94085000D03*
%TD*%
D34*
%TO.C,RV1*%
X176203950Y-72005000D03*
X178000000Y-70208950D03*
X179796050Y-72005000D03*
%TD*%
D18*
%TO.C,H17*%
X194740000Y-148060000D03*
%TD*%
%TO.C,H15*%
X94740000Y-148060000D03*
%TD*%
D22*
%TO.C,J23*%
X123740000Y-145910000D03*
D23*
X126240000Y-145910000D03*
X128740000Y-145910000D03*
X131240000Y-145910000D03*
X133740000Y-145910000D03*
%TD*%
D20*
%TO.C,SW8*%
X126070000Y-131288000D03*
D21*
X126070000Y-133828000D03*
X126070000Y-136368000D03*
%TD*%
D10*
%TO.C,TP4*%
X172820000Y-81900000D03*
%TD*%
D18*
%TO.C,H14*%
X194740000Y-38060000D03*
%TD*%
D24*
%TO.C,C23*%
X117490000Y-94430000D03*
X122490000Y-94430000D03*
%TD*%
D35*
%TO.C,R62*%
X146647500Y-103940000D03*
X148472500Y-103940000D03*
%TD*%
D36*
%TO.C,D7*%
X139720000Y-54520000D03*
X143020000Y-54520000D03*
%TD*%
D37*
%TO.C,H10*%
X159750000Y-149030000D03*
%TD*%
D38*
%TO.C,Q10*%
X144540000Y-57640000D03*
X146440000Y-57640000D03*
X145490000Y-60940000D03*
%TD*%
D39*
%TO.C,Q19*%
X156040000Y-74520000D03*
X156040000Y-76420000D03*
X152740000Y-75470000D03*
%TD*%
D40*
%TO.C,R17*%
X130294765Y-73504765D03*
X131585235Y-74795235D03*
%TD*%
D37*
%TO.C,H13*%
X195600000Y-122020000D03*
%TD*%
D38*
%TO.C,Q12*%
X150210000Y-60940000D03*
X148310000Y-60940000D03*
X149260000Y-57640000D03*
%TD*%
%TO.C,Q7*%
X156180000Y-54910000D03*
X158080000Y-54910000D03*
X157130000Y-58210000D03*
%TD*%
D41*
%TO.C,D9*%
X152120000Y-43040000D03*
X152120000Y-39740000D03*
%TD*%
%TO.C,D8*%
X149620000Y-43040000D03*
X149620000Y-39740000D03*
%TD*%
D37*
%TO.C,H12*%
X195760000Y-135070000D03*
%TD*%
D38*
%TO.C,Q9*%
X154200000Y-58230000D03*
X152300000Y-58230000D03*
X153250000Y-54930000D03*
%TD*%
D40*
%TO.C,R16*%
X127654765Y-70844765D03*
X128945235Y-72135235D03*
%TD*%
D41*
%TO.C,D10*%
X152480000Y-60280000D03*
X152480000Y-63580000D03*
%TD*%
%TO.C,D3*%
X154990000Y-52130000D03*
X154990000Y-48830000D03*
%TD*%
%TO.C,D2*%
X100590000Y-62620000D03*
X100590000Y-59320000D03*
%TD*%
D37*
%TO.C,H6*%
X125200000Y-105850000D03*
%TD*%
%TO.C,H11*%
X184050000Y-149080000D03*
%TD*%
D35*
%TO.C,R61*%
X142647500Y-103940000D03*
X144472500Y-103940000D03*
%TD*%
D39*
%TO.C,Q16*%
X152730000Y-72580000D03*
X152730000Y-70680000D03*
X156030000Y-71630000D03*
%TD*%
M02*
