M48
; DRILL file {KiCad (6.0.11)} date Tue Dec 12 02:53:41 2023
; FORMAT={-:-/ absolute / inch / decimal}
; #@! TF.CreationDate,2023-12-12T02:53:41+09:00
; #@! TF.GenerationSoftware,Kicad,Pcbnew,(6.0.11)
; #@! TF.FileFunction,Plated,1,2,PTH
FMAT,2
INCH
; #@! TA.AperFunction,Plated,PTH,ViaDrill
T1C0.0118
; #@! TA.AperFunction,Plated,PTH,ViaDrill
T2C0.0157
; #@! TA.AperFunction,Plated,PTH,ViaDrill
T3C0.0236
; #@! TA.AperFunction,Plated,PTH,ComponentDrill
T4C0.0256
; #@! TA.AperFunction,Plated,PTH,ComponentDrill
T5C0.0300
; #@! TA.AperFunction,Plated,PTH,ComponentDrill
T6C0.0315
; #@! TA.AperFunction,Plated,PTH,ComponentDrill
T7C0.0335
; #@! TA.AperFunction,Plated,PTH,ComponentDrill
T8C0.0354
; #@! TA.AperFunction,Plated,PTH,ComponentDrill
T9C0.0394
; #@! TA.AperFunction,Plated,PTH,ComponentDrill
T10C0.0433
; #@! TA.AperFunction,Plated,PTH,ComponentDrill
T11C0.0748
%
G90
G05
T1
X3.748Y-4.8461
X3.83Y-4.5681
X3.8697Y-5.0575
X3.8713Y-4.9484
X3.9063Y-5.0571
X3.9713Y-2.8449
X4.0467Y-5.1604
X4.0756Y-2.8449
X4.0965Y-5.2067
X4.1142Y-2.8449
X4.1677Y-3.2657
X4.363Y-3.8941
X4.3909Y-2.6571
X4.3941Y-2.4717
X4.4209Y-4.6496
X4.4705Y-3.2201
X4.5768Y-4.7315
X4.5791Y-4.5732
X4.5965Y-3.2181
X4.6339Y-4.9339
X4.6878Y-4.8787
X4.7406Y-4.824
X4.8378Y-4.7248
X4.9036Y-3.5417
X4.9036Y-3.6455
X4.9083Y-4.6634
X4.9567Y-3.8134
X4.9614Y-1.4295
X4.9614Y-3.1201
X4.9669Y-4.1654
X4.9823Y-3.6299
X4.9961Y-3.2736
X4.9964Y-1.4297
X5.0024Y-2.9807
X5.0067Y-3.784
X5.0071Y-3.9717
X5.0225Y-3.1234
X5.0324Y-3.7583
X5.0337Y-3.9953
X5.0394Y-4.6063
X5.0577Y-3.7323
X5.0583Y-3.9744
X5.0614Y-2.9134
X5.0614Y-2.9724
X5.072Y-3.3996
X5.0819Y-4.7437
X5.0822Y-3.7084
X5.0829Y-3.9953
X5.0962Y-3.4871
X5.0983Y-3.2825
X5.1Y-2.7768
X5.1069Y-3.6838
X5.1075Y-3.9729
X5.1153Y-2.4373
X5.1161Y-2.0654
X5.1185Y-4.5236
X5.1304Y-3.6545
X5.1321Y-3.995
X5.1358Y-3.215
X5.1578Y-3.9755
X5.165Y-4.4787
X5.1789Y-3.9511
X5.189Y-3.4925
X5.1931Y-3.4187
X5.1955Y-3.3455
X5.1964Y-3.2579
X5.1996Y-3.2892
X5.2006Y-3.9275
X5.2092Y-2.8403
X5.2252Y-3.9028
X5.2358Y-3.1244
X5.237Y-3.3209
X5.2499Y-3.8832
X5.2622Y-3.2323
X5.2787Y-3.8374
X5.2992Y-3.4339
X5.3043Y-3.2579
X5.3063Y-3.6757
X5.3174Y-3.5818
X5.3296Y-3.1317
X5.342Y-3.4381
X5.3465Y-3.772
X5.3507Y-3.3411
X5.351Y-3.3059
X5.3777Y-3.2311
X5.4Y-3.7118
X5.4178Y-3.5835
X5.4276Y-5.087
X5.4481Y-3.23
X5.4488Y-3.0821
X5.4982Y-4.1604
X5.4987Y-4.0194
X5.5128Y-1.6215
X5.5154Y-3.328
X5.5351Y-1.6461
X5.5405Y-3.353
X5.5516Y-3.5976
X5.6528Y-3.5658
X5.6646Y-3.837
X5.6864Y-3.4735
X5.6866Y-3.3902
X5.7104Y-3.5007
X5.711Y-3.7528
X5.7445Y-3.5
X5.7516Y-3.4575
X5.7543Y-3.5374
X5.7679Y-2.2699
X5.7858Y-5.087
X5.8198Y-3.8714
X5.8244Y-3.9118
X5.8284Y-4.1901
X5.8323Y-1.9665
X5.8376Y-3.3648
X5.8608Y-3.3415
X5.878Y-2.2642
X5.8847Y-3.3176
X5.8882Y-1.6953
X5.8919Y-3.5
X5.9031Y-2.9933
X5.9177Y-3.5358
X5.9457Y-1.6398
X5.9466Y-1.9961
X5.9508Y-3.2443
X5.9756Y-2.1941
X5.9764Y-1.5531
X5.9894Y-2.7858
X5.9937Y-2.3228
X5.9998Y-3.3695
X6.0077Y-2.0946
X6.0138Y-3.6291
X6.022Y-3.4035
X6.0232Y-2.976
X6.024Y-3.3453
X6.0303Y-2.1583
X6.0354Y-3.0732
X6.0553Y-3.3297
X6.0787Y-3.9701
X6.0803Y-3.8539
X6.0878Y-3.3035
X6.1193Y-4.0287
X6.1264Y-3.989
X6.1315Y-3.4035
X6.1402Y-5.087
X6.1508Y-3.0067
X6.1622Y-2.4256
X6.1732Y-2.1083
X6.1736Y-1.9997
X6.1827Y-3.3012
X6.2236Y-2.1618
X6.2284Y-2.9484
X6.2394Y-4.1445
X6.2437Y-3.4039
X6.2717Y-3.8016
X6.2799Y-3.3008
X6.376Y-3.4035
X6.387Y-3.3035
X6.4091Y-2.5669
X6.4213Y-3.1157
X6.4319Y-4.7173
X6.4709Y-3.1472
X6.4981Y-3.3267
X6.5083Y-3.1118
X6.5255Y-3.3432
X6.5416Y-3.3702
X6.5528Y-3.109
X6.5843Y-2.9516
X6.5862Y-3.3437
X6.6363Y-3.0255
X6.6673Y-4.4461
X6.6673Y-4.4815
X6.6764Y-4.0138
X6.6772Y-4.1331
X6.6783Y-4.261
X6.6949Y-2.6917
X6.7164Y-3.8683
X6.7598Y-3.3437
X6.7701Y-2.3886
X6.8894Y-3.876
X6.9256Y-3.9248
X6.9339Y-3.3433
X6.9677Y-2.2382
X7.0038Y-2.6623
X7.0331Y-4.0205
X7.0577Y-4.0453
X7.0874Y-4.2776
X7.0917Y-3.9323
X7.1291Y-4.3709
X7.1291Y-4.5583
X7.1437Y-2.0603
X7.1587Y-4.3
X7.1646Y-4.2161
X7.1693Y-4.0067
X7.1901Y-4.3
X7.1913Y-3.9319
X7.2327Y-4.2835
X7.252Y-4.0079
X7.2862Y-3.9311
X7.3071Y-4.063
X7.3677Y-3.9366
X7.3681Y-4.1205
X7.4155Y-2.9698
X7.4268Y-1.8437
X7.4268Y-2.2846
X7.4268Y-2.8268
X7.6185Y-3.9894
X7.6961Y-5.1453
X7.6984Y-5.2547
X7.7906Y-4.7169
X7.7917Y-4.5386
X7.7921Y-5.0583
X7.7925Y-4.385
X7.7937Y-4.8886
X7.7949Y-4.2209
T2
X3.5724Y-1.3409
X3.5724Y-1.5772
X3.5724Y-1.8134
X3.5724Y-2.0496
X3.5724Y-2.2858
X3.5724Y-2.522
X3.5724Y-2.7583
X3.5724Y-2.9551
X3.5724Y-3.1913
X3.5724Y-3.4276
X3.5724Y-3.7031
X3.5724Y-3.9787
X3.5724Y-4.2543
X3.5724Y-4.5693
X3.5724Y-4.8843
X3.5724Y-5.1598
X3.5724Y-5.4354
X3.5724Y-5.6717
X3.5724Y-5.9866
X3.6528Y-4.9083
X3.6591Y-2.8071
X3.6598Y-4.3724
X3.6618Y-3.7823
X3.6622Y-2.9756
X3.6626Y-4.5417
X3.663Y-3.172
X3.6634Y-4.2339
X3.6638Y-3.6197
X3.6661Y-4.7744
X3.6665Y-3.3984
X3.6689Y-4.0059
X3.6783Y-5.0106
X3.7299Y-1.8921
X3.7465Y-2.8283
X3.7496Y-3.0118
X3.7563Y-4.5146
X3.7575Y-4.374
X3.7591Y-3.7795
X3.7591Y-3.9988
X3.7634Y-4.2323
X3.7669Y-5.4244
X3.7681Y-5.1787
X3.7862Y-3.1406
X3.7894Y-3.3008
X3.7894Y-3.4543
X3.7894Y-3.5791
X3.7917Y-5.0409
X3.8075Y-4.6921
X3.8087Y-1.3409
X3.8087Y-1.5772
X3.8173Y-2.9173
X3.8197Y-3.3744
X3.8197Y-3.5169
X3.8213Y-3.2079
X3.8213Y-5.0846
X3.826Y-3.0831
X3.8311Y-3.6209
X3.8406Y-4.8571
X3.8555Y-4.6087
X3.8591Y-4.7795
X3.8646Y-4.2354
X3.8705Y-4.4386
X3.8874Y-1.7346
X3.8874Y-5.6717
X3.8874Y-5.9866
X3.9244Y-5.0
X3.9559Y-4.9634
X3.9567Y-5.0925
X3.961Y-5.2055
X3.976Y-4.5882
X3.9772Y-3.4114
X3.9819Y-5.4587
X3.9878Y-3.7146
X3.989Y-4.0343
X3.9902Y-3.5433
X3.9902Y-4.678
X3.9913Y-4.8079
X3.9949Y-5.2843
X4.0106Y-4.4677
X4.0114Y-4.1524
X4.0449Y-1.3409
X4.0449Y-1.6559
X4.0449Y-1.8921
X4.0492Y-4.8689
X4.0665Y-4.987
X4.0693Y-4.5882
X4.0715Y-4.6939
X4.085Y-3.5787
X4.1098Y-2.3358
X4.1165Y-3.852
X4.1177Y-4.0488
X4.122Y-5.0441
X4.1236Y-1.4984
X4.1299Y-4.2846
X4.1303Y-3.7728
X4.1394Y-4.3677
X4.1642Y-2.9287
X4.1669Y-4.4634
X4.1697Y-4.1591
X4.1724Y-4.8921
X4.1728Y-3.3972
X4.177Y-3.1376
X4.1799Y-4.7874
X4.185Y-4.5886
X4.1941Y-3.6984
X4.1976Y-5.8335
X4.1998Y-5.3281
X4.2016Y-5.6291
X4.2024Y-5.9866
X4.2075Y-2.9906
X4.2094Y-3.9587
X4.2102Y-5.1665
X4.2114Y-3.8728
X4.2185Y-5.461
X4.2213Y-3.4736
X4.2276Y-2.8921
X4.2417Y-1.4591
X4.2429Y-4.6752
X4.2433Y-4.2098
X4.2681Y-3.7835
X4.2748Y-4.9606
X4.2819Y-4.0378
X4.2941Y-2.9492
X4.2941Y-4.3744
X4.313Y-4.7835
X4.3197Y-4.528
X4.3228Y-3.561
X4.3252Y-3.4
X4.3524Y-3.3362
X4.3528Y-3.2417
X4.3606Y-4.8642
X4.365Y-4.6508
X4.376Y-4.1555
X4.3783Y-4.0906
X4.3803Y-3.4634
X4.3831Y-2.8862
X4.3866Y-2.9976
X4.4016Y-3.6437
X4.402Y-5.8315
X4.4047Y-4.4543
X4.4075Y-3.0791
X4.4094Y-5.3122
X4.4134Y-4.9539
X4.4287Y-5.4689
X4.4287Y-5.6102
X4.4362Y-2.1587
X4.4402Y-1.9417
X4.4531Y-4.2882
X4.4591Y-3.7039
X4.465Y-3.4031
X4.4673Y-3.537
X4.4772Y-4.7839
X4.4776Y-4.526
X4.4787Y-3.2831
X4.4827Y-3.9126
X4.4835Y-3.974
X4.4878Y-4.0673
X4.4894Y-3.1425
X4.4902Y-4.1961
X4.4913Y-4.3965
X4.5043Y-4.8756
X4.5173Y-5.9866
X4.5256Y-1.4449
X4.5382Y-3.476
X4.5409Y-3.7421
X4.5413Y-3.6213
X4.552Y-4.0198
X4.5661Y-5.8429
X4.5673Y-2.8189
X4.5701Y-5.1709
X4.5701Y-5.3579
X4.5791Y-3.2937
X4.5811Y-3.9142
X4.5941Y-2.0268
X4.5984Y-2.9047
X4.6Y-4.776
X4.6008Y-3.539
X4.615Y-4.3917
X4.6193Y-3.3744
X4.6205Y-4.0862
X4.6217Y-4.2268
X4.6236Y-5.6138
X4.6248Y-3.9709
X4.6291Y-5.4709
X4.6299Y-3.1323
X4.6327Y-3.0
X4.6488Y-3.2398
X4.6598Y-2.8059
X4.665Y-4.6906
X4.6661Y-2.7197
X4.6705Y-2.9555
X4.6728Y-3.4618
X4.6846Y-5.7417
X4.6882Y-5.3886
X4.689Y-3.587
X4.7138Y-2.424
X4.7201Y-3.2421
X4.7236Y-4.0728
X4.7236Y-4.2185
X4.7236Y-4.4031
X4.7287Y-4.6098
X4.7319Y-3.974
X4.7323Y-4.5272
X4.7343Y-5.1776
X4.7362Y-3.1374
X4.737Y-5.0535
X4.7441Y-1.9614
X4.7504Y-5.8402
X4.7559Y-3.4661
X4.7642Y-3.6236
X4.7748Y-3.3165
X4.7929Y-5.9866
X4.8012Y-5.5106
X4.8079Y-3.0894
X4.8236Y-3.5606
X4.8461Y-4.4701
X4.8496Y-4.2772
X4.8524Y-3.398
X4.8535Y-4.4
X4.8551Y-4.1382
X4.8555Y-5.0134
X4.8677Y-5.6291
X4.8709Y-3.0866
X4.8752Y-3.2736
X4.8874Y-5.1906
X4.8957Y-3.1752
X4.898Y-4.0043
X4.9008Y-4.2937
X4.9008Y-4.8681
X4.913Y-4.4008
X4.9181Y-4.098
X4.9185Y-4.2402
X4.9441Y-2.1823
X4.9445Y-5.9039
X4.9555Y-2.8008
X4.9638Y-3.9409
X4.9657Y-5.0921
X4.9776Y-5.5295
X4.9831Y-3.0886
X5.0197Y-5.8087
X5.0224Y-5.3189
X5.0307Y-4.9346
X5.0323Y-4.8079
X5.0339Y-5.3681
X5.0421Y-5.1831
X5.0433Y-2.6528
X5.0484Y-5.6276
X5.0583Y-3.2193
X5.0673Y-2.5673
X5.0685Y-5.9866
X5.0764Y-2.4909
X5.098Y-3.1803
X5.111Y-1.9626
X5.1386Y-1.6728
X5.1516Y-2.6205
X5.1535Y-4.7043
X5.1547Y-4.9047
X5.1614Y-5.3606
X5.1626Y-5.5295
X5.165Y-2.4394
X5.1669Y-5.826
X5.1689Y-5.1933
X5.1744Y-5.0461
X5.1988Y-5.6291
X5.2024Y-2.0437
X5.2047Y-3.5531
X5.213Y-2.9142
X5.2161Y-2.5602
X5.2299Y-3.4531
X5.235Y-2.352
X5.2453Y-2.6465
X5.252Y-4.8929
X5.2618Y-3.4976
X5.2677Y-2.889
X5.2697Y-5.8925
X5.2748Y-4.5843
X5.2772Y-1.9634
X5.2795Y-4.774
X5.2815Y-2.7618
X5.2831Y-3.0181
X5.2929Y-4.3146
X5.3Y-4.1311
X5.3043Y-5.6724
X5.3106Y-3.9461
X5.3197Y-1.6909
X5.3315Y-1.8567
X5.3425Y-5.1228
X5.3441Y-5.9866
X5.3461Y-5.2291
X5.3535Y-4.5118
X5.3543Y-5.3626
X5.3579Y-5.8114
X5.3665Y-4.674
X5.3681Y-5.5555
X5.3705Y-2.0323
X5.3705Y-5.011
X5.3709Y-3.0346
X5.3709Y-3.1016
X5.3713Y-2.5996
X5.3728Y-4.8512
X5.3862Y-3.8685
X5.3882Y-2.3232
X5.3886Y-3.3835
X5.3898Y-1.937
X5.3902Y-2.1561
X5.3969Y-3.5126
X5.3996Y-2.7417
X5.4051Y-2.878
X5.4087Y-2.4154
X5.4114Y-3.2543
X5.4154Y-3.3465
X5.4303Y-4.1894
X5.4319Y-4.0657
X5.4346Y-5.6972
X5.437Y-3.0063
X5.4461Y-3.7894
X5.4461Y-3.9303
X5.4622Y-1.3409
X5.4646Y-4.3972
X5.4669Y-3.4969
X5.478Y-4.648
X5.4823Y-3.3835
X5.4839Y-5.8142
X5.4843Y-4.9772
X5.4921Y-2.0252
X5.4957Y-4.7953
X5.5024Y-1.6949
X5.5039Y-2.2161
X5.5043Y-5.3909
X5.5075Y-5.2425
X5.5094Y-5.063
X5.5134Y-1.8134
X5.5189Y-2.3154
X5.5252Y-2.5268
X5.5295Y-3.4969
X5.5354Y-3.2362
X5.5409Y-4.0421
X5.5446Y-3.433
X5.5465Y-3.8299
X5.5492Y-2.887
X5.55Y-2.7311
X5.5547Y-5.5583
X5.5559Y-2.4154
X5.5606Y-5.8937
X5.563Y-3.1768
X5.5646Y-2.1433
X5.5661Y-4.2972
X5.5661Y-5.7189
X5.589Y-3.7614
X5.589Y-3.8933
X5.5972Y-4.8953
X5.5992Y-1.8512
X5.6043Y-3.6909
X5.622Y-4.5299
X5.6236Y-2.0307
X5.6252Y-4.7823
X5.6287Y-3.1146
X5.6307Y-2.3437
X5.6311Y-1.4276
X5.6315Y-2.2161
X5.6429Y-4.2366
X5.6591Y-5.9866
X5.6618Y-5.8244
X5.6626Y-3.2236
X5.663Y-3.5154
X5.6638Y-3.7268
X5.6752Y-3.6098
X5.676Y-5.6594
X5.6772Y-2.785
X5.6906Y-2.5839
X5.6996Y-5.363
X5.7039Y-4.4252
X5.7059Y-2.1429
X5.7094Y-5.128
X5.711Y-5.2524
X5.7169Y-5.015
X5.7224Y-5.5583
X5.7236Y-4.6791
X5.737Y-4.3138
X5.7374Y-3.1717
X5.7378Y-1.8803
X5.7496Y-4.9217
X5.7539Y-3.6142
X5.7878Y-2.5902
X5.7878Y-2.9417
X5.7894Y-2.8075
X5.7941Y-3.1165
X5.7965Y-4.0307
X5.8079Y-5.6362
X5.8114Y-4.1394
X5.8165Y-1.3409
X5.828Y-2.4732
X5.8335Y-1.4087
X5.8358Y-5.737
X5.8382Y-2.6244
X5.8384Y-2.3888
X5.8406Y-2.7508
X5.8413Y-2.8791
X5.8425Y-5.8453
X5.8433Y-5.9181
X5.848Y-1.8827
X5.8504Y-2.9508
X5.8539Y-5.3933
X5.8559Y-5.2445
X5.8642Y-5.1244
X5.8661Y-4.9953
X5.8693Y-4.5957
X5.8705Y-4.2157
X5.8744Y-4.4516
X5.8791Y-4.8051
X5.8799Y-2.5358
X5.8843Y-5.5583
X5.8921Y-3.2161
X5.937Y-3.6583
X5.9531Y-4.2323
X5.9539Y-4.0165
X5.9543Y-5.7327
X5.9591Y-4.1449
X5.9654Y-5.6189
X5.9807Y-1.4685
X5.9886Y-3.8795
X5.989Y-3.1819
X5.9913Y-5.924
X5.9957Y-2.3665
X6.0031Y-3.5173
X6.0051Y-2.5047
X6.013Y-5.5713
X6.0236Y-5.8417
X6.0248Y-4.0913
X6.0488Y-4.4476
X6.0488Y-4.6339
X6.0567Y-5.0059
X6.0598Y-4.3252
X6.061Y-4.8
X6.0618Y-5.124
X6.0638Y-5.3685
X6.0661Y-5.2512
X6.0713Y-5.665
X6.0748Y-2.4394
X6.0803Y-3.7244
X6.0807Y-1.8374
X6.0949Y-1.9142
X6.0988Y-2.0539
X6.102Y-3.5528
X6.1051Y-4.1732
X6.1315Y-1.3409
X6.1315Y-1.6362
X6.1378Y-2.5528
X6.148Y-3.6614
X6.152Y-4.4126
X6.152Y-5.9118
X6.1689Y-5.8398
X6.1748Y-3.9354
X6.1846Y-1.8028
X6.1846Y-1.9476
X6.1874Y-3.4795
X6.1972Y-3.2154
X6.2012Y-2.4878
X6.2031Y-4.7787
X6.2071Y-5.0
X6.211Y-5.1303
X6.211Y-5.2811
X6.213Y-4.6173
X6.2181Y-4.285
X6.2256Y-4.4823
X6.2264Y-5.4067
X6.2461Y-5.8098
X6.2496Y-5.9866
X6.2551Y-3.8614
X6.2689Y-3.1291
X6.2748Y-3.5291
X6.2768Y-3.6236
X6.3Y-2.4547
X6.3106Y-5.935
X6.3169Y-4.0933
X6.3213Y-4.4043
X6.3228Y-4.5913
X6.324Y-4.728
X6.3287Y-4.9283
X6.3287Y-5.0701
X6.3311Y-4.2106
X6.3346Y-5.2252
X6.3346Y-5.3791
X6.3441Y-1.4724
X6.3583Y-2.5551
X6.3602Y-3.4728
X6.3642Y-5.8811
X6.3878Y-3.8551
X6.4094Y-3.5909
X6.4134Y-2.4276
X6.4236Y-2.9476
X6.4244Y-2.8366
X6.4303Y-2.6177
X6.4303Y-4.0185
X6.4331Y-3.2335
X6.435Y-2.526
X6.4374Y-4.6181
X6.4394Y-4.1378
X6.4394Y-5.7142
X6.4406Y-4.2161
X6.4406Y-4.8972
X6.4413Y-5.8059
X6.4508Y-4.3327
X6.4528Y-5.565
X6.4539Y-4.5252
X6.4583Y-2.7539
X6.4602Y-3.4276
X6.4673Y-5.4319
X6.4728Y-5.9252
X6.476Y-5.0622
X6.4811Y-5.2358
X6.4846Y-3.274
X6.5067Y-2.8902
X6.5177Y-4.9142
X6.5205Y-4.8063
X6.5252Y-1.3409
X6.5252Y-1.6362
X6.5354Y-3.6591
X6.5366Y-4.1008
X6.5386Y-3.9031
X6.5402Y-5.7988
X6.5413Y-3.7516
X6.5622Y-4.3071
X6.5642Y-2.7
X6.5669Y-4.9701
X6.5693Y-3.1665
X6.5693Y-3.2339
X6.5709Y-3.5291
X6.5776Y-4.4508
X6.5795Y-2.2602
X6.5819Y-5.5756
X6.5843Y-2.8205
X6.5906Y-2.6122
X6.5906Y-4.024
X6.5906Y-4.1724
X6.5984Y-2.3768
X6.6094Y-3.4102
X6.6098Y-2.5157
X6.6189Y-5.7177
X6.6264Y-5.2102
X6.6272Y-5.8878
X6.6362Y-5.3252
X6.6378Y-4.552
X6.6378Y-3.9705
X6.6382Y-5.0969
X6.6398Y-5.4445
X6.6433Y-5.9866
X6.6618Y-3.7787
X6.6713Y-3.9244
X6.6827Y-4.9283
X6.6839Y-4.7433
X6.6874Y-2.5752
X6.6961Y-5.0965
X6.698Y-4.5374
X6.6996Y-3.6508
X6.7024Y-2.2768
X6.7071Y-1.876
X6.7079Y-4.8406
X6.7161Y-2.4165
X6.7173Y-5.5717
X6.7217Y-2.6283
X6.7244Y-5.2614
X6.7252Y-3.0665
X6.7287Y-2.5358
X6.735Y-3.528
X6.7441Y-1.522
X6.7496Y-4.2031
X6.7504Y-3.1559
X6.752Y-4.0252
X6.7567Y-3.913
X6.7583Y-5.0268
X6.7638Y-3.4126
X6.7685Y-4.8287
X6.778Y-2.9803
X6.7795Y-5.4425
X6.7823Y-5.9791
X6.7846Y-5.8445
X6.7874Y-5.7335
X6.7894Y-1.7992
X6.7992Y-2.7303
X6.8Y-4.0988
X6.802Y-5.2094
X6.8024Y-3.8252
X6.8067Y-2.4638
X6.8106Y-3.7488
X6.8146Y-5.3579
X6.8181Y-4.5492
X6.8244Y-2.637
X6.8346Y-3.6382
X6.8354Y-2.8661
X6.8354Y-5.1035
X6.8409Y-3.9189
X6.8457Y-4.0228
X6.8457Y-4.2008
X6.8551Y-4.9236
X6.8602Y-5.5752
X6.8764Y-4.6555
X6.8791Y-3.5248
X6.8815Y-2.5413
X6.8862Y-3.0673
X6.889Y-3.2382
X6.8925Y-4.4831
X6.8992Y-5.3134
X6.9051Y-2.9272
X6.911Y-3.4134
X6.9122Y-5.8437
X6.9126Y-5.4402
X6.9157Y-2.0429
X6.9165Y-5.7402
X6.9179Y-3.9697
X6.9181Y-2.3803
X6.926Y-5.9252
X6.9299Y-5.198
X6.9319Y-2.7516
X6.9319Y-5.0028
X6.9378Y-4.2547
X6.948Y-4.1012
X6.9492Y-4.4169
X6.952Y-4.7996
X6.9528Y-2.637
X6.9575Y-3.7591
X6.9583Y-1.3409
X6.9583Y-1.6362
X6.9583Y-2.487
X6.9736Y-3.1579
X6.9791Y-5.5787
X6.9795Y-4.0146
X6.9807Y-2.9839
X6.9819Y-2.2921
X6.9846Y-4.2031
X7.0079Y-2.8315
X7.0106Y-3.8386
X7.0122Y-3.3197
X7.0197Y-4.6976
X7.0209Y-4.4043
X7.037Y-5.9866
X7.0382Y-4.8043
X7.0409Y-2.5984
X7.0449Y-5.8465
X7.0512Y-4.9941
X7.0563Y-2.711
X7.0567Y-2.3906
X7.0567Y-3.0717
X7.0626Y-3.6976
X7.0646Y-3.5736
X7.074Y-3.2382
X7.0768Y-2.9012
X7.1008Y-5.0536
X7.1031Y-4.1075
X7.1039Y-4.6843
X7.1055Y-4.8055
X7.1165Y-2.0091
X7.1209Y-2.5071
X7.1319Y-2.3138
X7.1386Y-3.4445
X7.139Y-2.7819
X7.1394Y-2.2504
X7.1492Y-1.4878
X7.1492Y-2.6181
X7.15Y-4.9941
X7.1567Y-5.1177
X7.1567Y-5.2795
X7.1591Y-2.4276
X7.1602Y-3.3264
X7.1669Y-5.8386
X7.1787Y-3.2311
X7.1854Y-5.928
X7.1913Y-2.9768
X7.1921Y-3.8472
X7.213Y-4.8823
X7.2173Y-2.4244
X7.2189Y-3.0705
X7.2205Y-4.0941
X7.226Y-3.7295
X7.2287Y-4.6941
X7.2339Y-4.3835
X7.2362Y-3.1709
X7.2362Y-4.5252
X7.2374Y-2.0382
X7.2398Y-5.1972
X7.2551Y-2.7657
X7.2575Y-3.5524
X7.2598Y-3.4398
X7.2654Y-2.5118
X7.2654Y-2.9055
X7.2677Y-5.9858
X7.2697Y-2.2594
X7.2732Y-1.3409
X7.2732Y-1.6362
X7.2768Y-2.6512
X7.278Y-5.3846
X7.2819Y-3.3126
X7.2846Y-4.1776
X7.3035Y-5.002
X7.3047Y-5.7929
X7.3157Y-5.5858
X7.3169Y-4.3874
X7.3236Y-1.8075
X7.3264Y-2.2835
X7.3323Y-2.9902
X7.3413Y-4.6134
X7.3425Y-3.1256
X7.3528Y-3.6543
X7.3531Y-3.8524
X7.3642Y-3.9827
X7.3665Y-4.272
X7.3669Y-4.4606
X7.3724Y-1.8917
X7.3744Y-4.8189
X7.3752Y-5.0886
X7.376Y-2.2429
X7.3772Y-2.4642
X7.3772Y-3.3
X7.3799Y-2.8051
X7.3815Y-2.6484
X7.3819Y-2.0362
X7.3839Y-5.726
X7.3858Y-5.2764
X7.3862Y-5.4902
X7.3862Y-5.8587
X7.389Y-3.4925
X7.4008Y-3.0539
X7.4071Y-3.5921
X7.4276Y-3.1953
X7.428Y-5.5917
X7.4512Y-4.6539
X7.452Y-3.7496
X7.4602Y-3.3319
X7.4685Y-2.5177
X7.4701Y-5.711
X7.4701Y-5.9866
X7.4709Y-4.9961
X7.4728Y-3.1102
X7.4736Y-2.3142
X7.4736Y-5.4929
X7.4744Y-2.6862
X7.4752Y-5.2031
X7.4756Y-2.024
X7.4776Y-2.2626
X7.4776Y-2.8453
X7.4882Y-3.985
X7.4965Y-4.0913
X7.4965Y-4.3862
X7.4988Y-4.1866
X7.5004Y-4.8618
X7.5154Y-3.5591
X7.5157Y-5.3661
X7.5189Y-3.2177
X7.5209Y-5.585
X7.528Y-2.2961
X7.5315Y-4.0287
X7.5335Y-4.5402
X7.5335Y-4.7224
X7.5358Y-4.2748
X7.5469Y-5.865
X7.5488Y-1.3409
X7.5654Y-3.865
X7.5724Y-3.7276
X7.5752Y-5.2465
X7.5791Y-2.6543
X7.5807Y-3.3035
X7.587Y-5.1004
X7.5878Y-2.8118
X7.5882Y-1.6165
X7.6067Y-5.7157
X7.6154Y-4.5413
X7.6189Y-4.0559
X7.6276Y-4.2516
X7.6299Y-4.7417
X7.6516Y-4.8669
X7.6768Y-5.952
X7.6783Y-5.4165
X7.6799Y-3.7315
X7.6819Y-3.852
X7.6819Y-3.9835
X7.6839Y-3.6031
X7.6839Y-4.1331
X7.6874Y-4.3874
X7.6874Y-4.6209
X7.6902Y-4.9224
X7.6921Y-4.7307
X7.724Y-5.6004
X7.7654Y-1.8921
X7.7768Y-5.8248
X7.815Y-5.3169
X7.8244Y-1.3409
X7.8244Y-1.6559
X7.8244Y-2.0496
X7.8244Y-2.4039
X7.8244Y-2.7189
X7.8244Y-3.0732
X7.8244Y-3.5063
X7.8244Y-3.8213
X7.8244Y-4.1362
X7.8244Y-5.1598
X7.8244Y-5.5142
X7.8244Y-5.711
X7.8244Y-5.9866
T3
X4.531Y-3.834
X4.5704Y-3.834
X4.6106Y-3.835
X4.9425Y-3.5862
X4.9429Y-3.5455
X5.0114Y-3.1894
X5.0448Y-3.1568
X5.8193Y-3.7748
X5.8329Y-3.453
X6.0244Y-5.4984
X6.0829Y-3.1337
X6.1062Y-3.0976
X6.1337Y-3.1522
X6.1363Y-3.0674
X6.1648Y-3.1211
X6.1957Y-3.0902
X6.2028Y-3.572
X6.2638Y-5.5425
X7.0106Y-5.437
X7.0803Y-4.3669
X7.0803Y-4.411
X7.1531Y-5.6177
X7.2957Y-5.6563
X7.3362Y-5.6563
T4
X4.9634Y-5.1688
X4.9634Y-5.2688
X4.9634Y-5.3688
X4.9693Y-4.6303
X4.9693Y-4.7303
X4.9693Y-4.8303
X5.7547Y-5.7248
X5.7547Y-5.8248
X5.7547Y-5.9248
X6.7102Y-5.7248
X6.7102Y-5.8248
X6.7102Y-5.9248
T5
X3.6626Y-3.7041
X3.6626Y-4.3041
X3.7626Y-3.7041
X3.7626Y-4.3041
X4.0626Y-3.7041
X4.0626Y-3.8041
X4.0626Y-3.9041
X4.0626Y-4.0041
X4.0626Y-4.1041
X4.0626Y-4.2041
X4.0626Y-4.3041
T6
X4.3437Y-5.0154
X4.3437Y-5.1154
X4.3437Y-5.2154
X4.3437Y-5.3154
X4.6256Y-3.7177
X4.6437Y-5.0154
X4.6437Y-5.1154
X4.6437Y-5.2154
X4.6437Y-5.3154
X4.8224Y-3.7177
X5.785Y-1.5268
X5.785Y-1.7236
X6.3508Y-3.1234
X6.3508Y-3.2234
X6.3524Y-2.6445
X6.3524Y-2.7445
X6.3524Y-2.8445
X6.3524Y-2.9445
X6.5794Y-4.7548
X6.5794Y-4.8548
X6.6508Y-3.1234
X6.6508Y-3.2234
X6.6524Y-2.6445
X6.6524Y-2.7445
X6.6524Y-2.8445
X6.6524Y-2.9445
X6.8794Y-4.7548
X6.8794Y-4.8548
X6.9372Y-2.8348
X7.0079Y-2.7641
X7.0786Y-2.8348
T7
X3.8217Y-2.3539
X3.8217Y-2.4524
X3.8217Y-2.5508
X3.8228Y-1.8394
X3.8228Y-1.9378
X3.8228Y-2.0362
X4.1433Y-5.7445
X4.2417Y-5.7445
X4.3402Y-5.7445
X4.4386Y-5.7445
X4.537Y-5.7445
X4.8717Y-5.7445
X4.9701Y-5.7445
X5.0685Y-5.7445
X5.1669Y-5.7445
X5.2654Y-5.7445
X6.0921Y-5.7445
X6.1906Y-5.7445
X6.289Y-5.7445
X7.0492Y-5.7445
X7.1476Y-5.7445
X7.2461Y-5.7445
X7.5823Y-1.861
X7.5823Y-1.9594
X7.5823Y-2.0579
X7.5823Y-2.3689
X7.5823Y-2.4673
X7.5823Y-2.5657
X7.5823Y-2.8878
X7.5823Y-2.9862
X7.5823Y-3.0846
X7.5823Y-3.4
X7.5823Y-3.4984
X7.5823Y-3.5969
X7.5823Y-4.8055
X7.5823Y-4.9039
X7.5823Y-5.0024
X7.5823Y-5.3173
X7.5823Y-5.4157
X7.5823Y-5.5142
T8
X4.2866Y-3.1485
X4.2866Y-3.2469
X4.2866Y-3.3454
X4.4165Y-3.1485
X4.4165Y-3.2469
X4.4165Y-3.3454
T9
X3.992Y-2.9406
X3.992Y-3.0406
X3.992Y-3.1406
X3.992Y-3.2406
X3.992Y-3.3406
X4.092Y-2.9406
X4.092Y-3.0406
X4.092Y-3.1406
X4.092Y-3.2406
X4.092Y-3.3406
X4.1661Y-1.4463
X4.5181Y-2.7598
X4.5992Y-1.4463
X4.9059Y-1.4463
X5.339Y-1.4463
X5.5484Y-3.9734
X5.6484Y-3.9734
X5.7484Y-3.9734
X5.8484Y-3.9734
X6.1807Y-1.4463
X6.4646Y-3.7018
X6.4646Y-3.8018
X6.6138Y-1.4463
X6.8039Y-3.2244
X6.8087Y-1.4463
X7.2417Y-1.4463
X7.4291Y-1.5268
X7.4346Y-3.9358
X7.4346Y-4.0358
X7.4346Y-4.1358
X7.4346Y-4.2358
X7.4346Y-4.3358
X7.4346Y-4.4358
X7.4346Y-4.5358
X7.748Y-3.7898
T10
X3.9224Y-4.6374
X3.9224Y-4.7374
X3.9224Y-4.8374
X4.0224Y-4.5374
X4.0224Y-4.9374
X4.1224Y-4.6374
X4.1224Y-4.7374
X4.1224Y-4.8374
T11
X4.2843Y-1.84
X4.4811Y-1.84
X5.024Y-1.84
X5.2209Y-1.84
X6.2988Y-1.84
X6.4957Y-1.84
X6.9268Y-1.84
X7.1236Y-1.84
T0
M30
