%TF.GenerationSoftware,KiCad,Pcbnew,(6.0.7)*%
%TF.CreationDate,2023-06-24T17:20:50+09:00*%
%TF.ProjectId,motordriver,6d6f746f-7264-4726-9976-65722e6b6963,rev?*%
%TF.SameCoordinates,Original*%
%TF.FileFunction,Legend,Top*%
%TF.FilePolarity,Positive*%
%FSLAX46Y46*%
G04 Gerber Fmt 4.6, Leading zero omitted, Abs format (unit mm)*
G04 Created by KiCad (PCBNEW (6.0.7)) date 2023-06-24 17:20:50*
%MOMM*%
%LPD*%
G01*
G04 APERTURE LIST*
%ADD10C,0.150000*%
%ADD11C,0.098425*%
%ADD12C,0.254000*%
%ADD13C,0.120000*%
%ADD14C,0.127000*%
%ADD15C,0.200000*%
%ADD16C,0.250000*%
G04 APERTURE END LIST*
D10*
%TO.C,C21*%
X67032142Y-100337857D02*
X67079761Y-100385476D01*
X67127380Y-100528333D01*
X67127380Y-100623571D01*
X67079761Y-100766428D01*
X66984523Y-100861666D01*
X66889285Y-100909285D01*
X66698809Y-100956904D01*
X66555952Y-100956904D01*
X66365476Y-100909285D01*
X66270238Y-100861666D01*
X66175000Y-100766428D01*
X66127380Y-100623571D01*
X66127380Y-100528333D01*
X66175000Y-100385476D01*
X66222619Y-100337857D01*
X66222619Y-99956904D02*
X66175000Y-99909285D01*
X66127380Y-99814047D01*
X66127380Y-99575952D01*
X66175000Y-99480714D01*
X66222619Y-99433095D01*
X66317857Y-99385476D01*
X66413095Y-99385476D01*
X66555952Y-99433095D01*
X67127380Y-100004523D01*
X67127380Y-99385476D01*
X67127380Y-98433095D02*
X67127380Y-99004523D01*
X67127380Y-98718809D02*
X66127380Y-98718809D01*
X66270238Y-98814047D01*
X66365476Y-98909285D01*
X66413095Y-99004523D01*
%TO.C,R42*%
X66032142Y-96972380D02*
X65698809Y-96496190D01*
X65460714Y-96972380D02*
X65460714Y-95972380D01*
X65841666Y-95972380D01*
X65936904Y-96020000D01*
X65984523Y-96067619D01*
X66032142Y-96162857D01*
X66032142Y-96305714D01*
X65984523Y-96400952D01*
X65936904Y-96448571D01*
X65841666Y-96496190D01*
X65460714Y-96496190D01*
X66889285Y-96305714D02*
X66889285Y-96972380D01*
X66651190Y-95924761D02*
X66413095Y-96639047D01*
X67032142Y-96639047D01*
X67365476Y-96067619D02*
X67413095Y-96020000D01*
X67508333Y-95972380D01*
X67746428Y-95972380D01*
X67841666Y-96020000D01*
X67889285Y-96067619D01*
X67936904Y-96162857D01*
X67936904Y-96258095D01*
X67889285Y-96400952D01*
X67317857Y-96972380D01*
X67936904Y-96972380D01*
%TO.C,C8*%
X43648333Y-89257142D02*
X43600714Y-89304761D01*
X43457857Y-89352380D01*
X43362619Y-89352380D01*
X43219761Y-89304761D01*
X43124523Y-89209523D01*
X43076904Y-89114285D01*
X43029285Y-88923809D01*
X43029285Y-88780952D01*
X43076904Y-88590476D01*
X43124523Y-88495238D01*
X43219761Y-88400000D01*
X43362619Y-88352380D01*
X43457857Y-88352380D01*
X43600714Y-88400000D01*
X43648333Y-88447619D01*
X44219761Y-88780952D02*
X44124523Y-88733333D01*
X44076904Y-88685714D01*
X44029285Y-88590476D01*
X44029285Y-88542857D01*
X44076904Y-88447619D01*
X44124523Y-88400000D01*
X44219761Y-88352380D01*
X44410238Y-88352380D01*
X44505476Y-88400000D01*
X44553095Y-88447619D01*
X44600714Y-88542857D01*
X44600714Y-88590476D01*
X44553095Y-88685714D01*
X44505476Y-88733333D01*
X44410238Y-88780952D01*
X44219761Y-88780952D01*
X44124523Y-88828571D01*
X44076904Y-88876190D01*
X44029285Y-88971428D01*
X44029285Y-89161904D01*
X44076904Y-89257142D01*
X44124523Y-89304761D01*
X44219761Y-89352380D01*
X44410238Y-89352380D01*
X44505476Y-89304761D01*
X44553095Y-89257142D01*
X44600714Y-89161904D01*
X44600714Y-88971428D01*
X44553095Y-88876190D01*
X44505476Y-88828571D01*
X44410238Y-88780952D01*
%TO.C,D2*%
X106957904Y-69286380D02*
X106957904Y-68286380D01*
X107196000Y-68286380D01*
X107338857Y-68334000D01*
X107434095Y-68429238D01*
X107481714Y-68524476D01*
X107529333Y-68714952D01*
X107529333Y-68857809D01*
X107481714Y-69048285D01*
X107434095Y-69143523D01*
X107338857Y-69238761D01*
X107196000Y-69286380D01*
X106957904Y-69286380D01*
X107910285Y-68381619D02*
X107957904Y-68334000D01*
X108053142Y-68286380D01*
X108291238Y-68286380D01*
X108386476Y-68334000D01*
X108434095Y-68381619D01*
X108481714Y-68476857D01*
X108481714Y-68572095D01*
X108434095Y-68714952D01*
X107862666Y-69286380D01*
X108481714Y-69286380D01*
X108331238Y-67016380D02*
X108902666Y-67016380D01*
X108616952Y-68016380D02*
X108616952Y-67016380D01*
X109236000Y-68016380D02*
X109236000Y-67016380D01*
X109807428Y-68016380D01*
X109807428Y-67016380D01*
X110474095Y-67016380D02*
X110664571Y-67016380D01*
X110759809Y-67064000D01*
X110855047Y-67159238D01*
X110902666Y-67349714D01*
X110902666Y-67683047D01*
X110855047Y-67873523D01*
X110759809Y-67968761D01*
X110664571Y-68016380D01*
X110474095Y-68016380D01*
X110378857Y-67968761D01*
X110283619Y-67873523D01*
X110236000Y-67683047D01*
X110236000Y-67349714D01*
X110283619Y-67159238D01*
X110378857Y-67064000D01*
X110474095Y-67016380D01*
X111236000Y-67016380D02*
X111474095Y-68016380D01*
X111664571Y-67302095D01*
X111855047Y-68016380D01*
X112093142Y-67016380D01*
%TO.C,R27*%
X49522142Y-107132380D02*
X49188809Y-106656190D01*
X48950714Y-107132380D02*
X48950714Y-106132380D01*
X49331666Y-106132380D01*
X49426904Y-106180000D01*
X49474523Y-106227619D01*
X49522142Y-106322857D01*
X49522142Y-106465714D01*
X49474523Y-106560952D01*
X49426904Y-106608571D01*
X49331666Y-106656190D01*
X48950714Y-106656190D01*
X49903095Y-106227619D02*
X49950714Y-106180000D01*
X50045952Y-106132380D01*
X50284047Y-106132380D01*
X50379285Y-106180000D01*
X50426904Y-106227619D01*
X50474523Y-106322857D01*
X50474523Y-106418095D01*
X50426904Y-106560952D01*
X49855476Y-107132380D01*
X50474523Y-107132380D01*
X50807857Y-106132380D02*
X51474523Y-106132380D01*
X51045952Y-107132380D01*
%TO.C,SW3*%
X88836666Y-50846761D02*
X88979523Y-50894380D01*
X89217619Y-50894380D01*
X89312857Y-50846761D01*
X89360476Y-50799142D01*
X89408095Y-50703904D01*
X89408095Y-50608666D01*
X89360476Y-50513428D01*
X89312857Y-50465809D01*
X89217619Y-50418190D01*
X89027142Y-50370571D01*
X88931904Y-50322952D01*
X88884285Y-50275333D01*
X88836666Y-50180095D01*
X88836666Y-50084857D01*
X88884285Y-49989619D01*
X88931904Y-49942000D01*
X89027142Y-49894380D01*
X89265238Y-49894380D01*
X89408095Y-49942000D01*
X89741428Y-49894380D02*
X89979523Y-50894380D01*
X90170000Y-50180095D01*
X90360476Y-50894380D01*
X90598571Y-49894380D01*
X90884285Y-49894380D02*
X91503333Y-49894380D01*
X91170000Y-50275333D01*
X91312857Y-50275333D01*
X91408095Y-50322952D01*
X91455714Y-50370571D01*
X91503333Y-50465809D01*
X91503333Y-50703904D01*
X91455714Y-50799142D01*
X91408095Y-50846761D01*
X91312857Y-50894380D01*
X91027142Y-50894380D01*
X90931904Y-50846761D01*
X90884285Y-50799142D01*
D11*
%TO.C,C6*%
X44479993Y-76729844D02*
X44461245Y-76748592D01*
X44405002Y-76767339D01*
X44367507Y-76767339D01*
X44311264Y-76748592D01*
X44273768Y-76711096D01*
X44255021Y-76673601D01*
X44236273Y-76598610D01*
X44236273Y-76542367D01*
X44255021Y-76467377D01*
X44273768Y-76429881D01*
X44311264Y-76392386D01*
X44367507Y-76373638D01*
X44405002Y-76373638D01*
X44461245Y-76392386D01*
X44479993Y-76411134D01*
X44817451Y-76373638D02*
X44742460Y-76373638D01*
X44704965Y-76392386D01*
X44686217Y-76411134D01*
X44648722Y-76467377D01*
X44629974Y-76542367D01*
X44629974Y-76692349D01*
X44648722Y-76729844D01*
X44667469Y-76748592D01*
X44704965Y-76767339D01*
X44779955Y-76767339D01*
X44817451Y-76748592D01*
X44836198Y-76729844D01*
X44854946Y-76692349D01*
X44854946Y-76598610D01*
X44836198Y-76561115D01*
X44817451Y-76542367D01*
X44779955Y-76523620D01*
X44704965Y-76523620D01*
X44667469Y-76542367D01*
X44648722Y-76561115D01*
X44629974Y-76598610D01*
D12*
%TO.C,U5*%
X92014523Y-75897619D02*
X93042619Y-75897619D01*
X93163571Y-75837142D01*
X93224047Y-75776666D01*
X93284523Y-75655714D01*
X93284523Y-75413809D01*
X93224047Y-75292857D01*
X93163571Y-75232380D01*
X93042619Y-75171904D01*
X92014523Y-75171904D01*
X92014523Y-73962380D02*
X92014523Y-74567142D01*
X92619285Y-74627619D01*
X92558809Y-74567142D01*
X92498333Y-74446190D01*
X92498333Y-74143809D01*
X92558809Y-74022857D01*
X92619285Y-73962380D01*
X92740238Y-73901904D01*
X93042619Y-73901904D01*
X93163571Y-73962380D01*
X93224047Y-74022857D01*
X93284523Y-74143809D01*
X93284523Y-74446190D01*
X93224047Y-74567142D01*
X93163571Y-74627619D01*
D10*
%TO.C,REF\u002A\u002A*%
X123966666Y-120162380D02*
X123633333Y-119686190D01*
X123395238Y-120162380D02*
X123395238Y-119162380D01*
X123776190Y-119162380D01*
X123871428Y-119210000D01*
X123919047Y-119257619D01*
X123966666Y-119352857D01*
X123966666Y-119495714D01*
X123919047Y-119590952D01*
X123871428Y-119638571D01*
X123776190Y-119686190D01*
X123395238Y-119686190D01*
X124395238Y-119638571D02*
X124728571Y-119638571D01*
X124871428Y-120162380D02*
X124395238Y-120162380D01*
X124395238Y-119162380D01*
X124871428Y-119162380D01*
X125633333Y-119638571D02*
X125300000Y-119638571D01*
X125300000Y-120162380D02*
X125300000Y-119162380D01*
X125776190Y-119162380D01*
X126300000Y-119162380D02*
X126300000Y-119400476D01*
X126061904Y-119305238D02*
X126300000Y-119400476D01*
X126538095Y-119305238D01*
X126157142Y-119590952D02*
X126300000Y-119400476D01*
X126442857Y-119590952D01*
X127061904Y-119162380D02*
X127061904Y-119400476D01*
X126823809Y-119305238D02*
X127061904Y-119400476D01*
X127300000Y-119305238D01*
X126919047Y-119590952D02*
X127061904Y-119400476D01*
X127204761Y-119590952D01*
%TO.C,D9*%
X47442380Y-101068095D02*
X46442380Y-101068095D01*
X46442380Y-100830000D01*
X46490000Y-100687142D01*
X46585238Y-100591904D01*
X46680476Y-100544285D01*
X46870952Y-100496666D01*
X47013809Y-100496666D01*
X47204285Y-100544285D01*
X47299523Y-100591904D01*
X47394761Y-100687142D01*
X47442380Y-100830000D01*
X47442380Y-101068095D01*
X47442380Y-100020476D02*
X47442380Y-99830000D01*
X47394761Y-99734761D01*
X47347142Y-99687142D01*
X47204285Y-99591904D01*
X47013809Y-99544285D01*
X46632857Y-99544285D01*
X46537619Y-99591904D01*
X46490000Y-99639523D01*
X46442380Y-99734761D01*
X46442380Y-99925238D01*
X46490000Y-100020476D01*
X46537619Y-100068095D01*
X46632857Y-100115714D01*
X46870952Y-100115714D01*
X46966190Y-100068095D01*
X47013809Y-100020476D01*
X47061428Y-99925238D01*
X47061428Y-99734761D01*
X47013809Y-99639523D01*
X46966190Y-99591904D01*
X46870952Y-99544285D01*
%TO.C,C23*%
X71758292Y-85525317D02*
X71710673Y-85572936D01*
X71567816Y-85620555D01*
X71472578Y-85620555D01*
X71329721Y-85572936D01*
X71234483Y-85477698D01*
X71186864Y-85382460D01*
X71139245Y-85191984D01*
X71139245Y-85049127D01*
X71186864Y-84858651D01*
X71234483Y-84763413D01*
X71329721Y-84668175D01*
X71472578Y-84620555D01*
X71567816Y-84620555D01*
X71710673Y-84668175D01*
X71758292Y-84715794D01*
X72139245Y-84715794D02*
X72186864Y-84668175D01*
X72282102Y-84620555D01*
X72520197Y-84620555D01*
X72615435Y-84668175D01*
X72663054Y-84715794D01*
X72710673Y-84811032D01*
X72710673Y-84906270D01*
X72663054Y-85049127D01*
X72091626Y-85620555D01*
X72710673Y-85620555D01*
X73044007Y-84620555D02*
X73663054Y-84620555D01*
X73329721Y-85001508D01*
X73472578Y-85001508D01*
X73567816Y-85049127D01*
X73615435Y-85096746D01*
X73663054Y-85191984D01*
X73663054Y-85430079D01*
X73615435Y-85525317D01*
X73567816Y-85572936D01*
X73472578Y-85620555D01*
X73186864Y-85620555D01*
X73091626Y-85572936D01*
X73044007Y-85525317D01*
%TO.C,D3*%
X46251904Y-72842380D02*
X46251904Y-71842380D01*
X46490000Y-71842380D01*
X46632857Y-71890000D01*
X46728095Y-71985238D01*
X46775714Y-72080476D01*
X46823333Y-72270952D01*
X46823333Y-72413809D01*
X46775714Y-72604285D01*
X46728095Y-72699523D01*
X46632857Y-72794761D01*
X46490000Y-72842380D01*
X46251904Y-72842380D01*
X47156666Y-71842380D02*
X47775714Y-71842380D01*
X47442380Y-72223333D01*
X47585238Y-72223333D01*
X47680476Y-72270952D01*
X47728095Y-72318571D01*
X47775714Y-72413809D01*
X47775714Y-72651904D01*
X47728095Y-72747142D01*
X47680476Y-72794761D01*
X47585238Y-72842380D01*
X47299523Y-72842380D01*
X47204285Y-72794761D01*
X47156666Y-72747142D01*
%TO.C,C25*%
X99869132Y-82490269D02*
X99869132Y-82557613D01*
X99801788Y-82692300D01*
X99734445Y-82759643D01*
X99599758Y-82826987D01*
X99465071Y-82826987D01*
X99364056Y-82793315D01*
X99195697Y-82692300D01*
X99094682Y-82591285D01*
X98993666Y-82422926D01*
X98959995Y-82321911D01*
X98959995Y-82187224D01*
X99027338Y-82052537D01*
X99094682Y-81985193D01*
X99229369Y-81917850D01*
X99296712Y-81917850D01*
X99566086Y-81648475D02*
X99566086Y-81581132D01*
X99599758Y-81480117D01*
X99768117Y-81311758D01*
X99869132Y-81278086D01*
X99936475Y-81278086D01*
X100037491Y-81311758D01*
X100104834Y-81379101D01*
X100172178Y-81513788D01*
X100172178Y-82321911D01*
X100609911Y-81884178D01*
X100542567Y-80537308D02*
X100205850Y-80874025D01*
X100508895Y-81244414D01*
X100508895Y-81177071D01*
X100542567Y-81076056D01*
X100710926Y-80907697D01*
X100811941Y-80874025D01*
X100879285Y-80874025D01*
X100980300Y-80907697D01*
X101148659Y-81076056D01*
X101182330Y-81177071D01*
X101182330Y-81244414D01*
X101148659Y-81345430D01*
X100980300Y-81513788D01*
X100879285Y-81547460D01*
X100811941Y-81547460D01*
%TO.C,R22*%
X85439642Y-67762380D02*
X85106309Y-67286190D01*
X84868214Y-67762380D02*
X84868214Y-66762380D01*
X85249166Y-66762380D01*
X85344404Y-66810000D01*
X85392023Y-66857619D01*
X85439642Y-66952857D01*
X85439642Y-67095714D01*
X85392023Y-67190952D01*
X85344404Y-67238571D01*
X85249166Y-67286190D01*
X84868214Y-67286190D01*
X85820595Y-66857619D02*
X85868214Y-66810000D01*
X85963452Y-66762380D01*
X86201547Y-66762380D01*
X86296785Y-66810000D01*
X86344404Y-66857619D01*
X86392023Y-66952857D01*
X86392023Y-67048095D01*
X86344404Y-67190952D01*
X85772976Y-67762380D01*
X86392023Y-67762380D01*
X86772976Y-66857619D02*
X86820595Y-66810000D01*
X86915833Y-66762380D01*
X87153928Y-66762380D01*
X87249166Y-66810000D01*
X87296785Y-66857619D01*
X87344404Y-66952857D01*
X87344404Y-67048095D01*
X87296785Y-67190952D01*
X86725357Y-67762380D01*
X87344404Y-67762380D01*
D12*
%TO.C,U8*%
X51102380Y-93369523D02*
X51102380Y-94397619D01*
X51162857Y-94518571D01*
X51223333Y-94579047D01*
X51344285Y-94639523D01*
X51586190Y-94639523D01*
X51707142Y-94579047D01*
X51767619Y-94518571D01*
X51828095Y-94397619D01*
X51828095Y-93369523D01*
X52614285Y-93913809D02*
X52493333Y-93853333D01*
X52432857Y-93792857D01*
X52372380Y-93671904D01*
X52372380Y-93611428D01*
X52432857Y-93490476D01*
X52493333Y-93430000D01*
X52614285Y-93369523D01*
X52856190Y-93369523D01*
X52977142Y-93430000D01*
X53037619Y-93490476D01*
X53098095Y-93611428D01*
X53098095Y-93671904D01*
X53037619Y-93792857D01*
X52977142Y-93853333D01*
X52856190Y-93913809D01*
X52614285Y-93913809D01*
X52493333Y-93974285D01*
X52432857Y-94034761D01*
X52372380Y-94155714D01*
X52372380Y-94397619D01*
X52432857Y-94518571D01*
X52493333Y-94579047D01*
X52614285Y-94639523D01*
X52856190Y-94639523D01*
X52977142Y-94579047D01*
X53037619Y-94518571D01*
X53098095Y-94397619D01*
X53098095Y-94155714D01*
X53037619Y-94034761D01*
X52977142Y-93974285D01*
X52856190Y-93913809D01*
D10*
%TO.C,Y1*%
X93880446Y-82869881D02*
X94217164Y-83206599D01*
X93274355Y-82735194D02*
X93880446Y-82869881D01*
X93745759Y-82263790D01*
X95058957Y-82364805D02*
X94654896Y-82768866D01*
X94856927Y-82566835D02*
X94149820Y-81859729D01*
X94183492Y-82028087D01*
X94183492Y-82162774D01*
X94149820Y-82263790D01*
%TO.C,U3*%
X38598095Y-83272380D02*
X38598095Y-84081904D01*
X38645714Y-84177142D01*
X38693333Y-84224761D01*
X38788571Y-84272380D01*
X38979047Y-84272380D01*
X39074285Y-84224761D01*
X39121904Y-84177142D01*
X39169523Y-84081904D01*
X39169523Y-83272380D01*
X39550476Y-83272380D02*
X40169523Y-83272380D01*
X39836190Y-83653333D01*
X39979047Y-83653333D01*
X40074285Y-83700952D01*
X40121904Y-83748571D01*
X40169523Y-83843809D01*
X40169523Y-84081904D01*
X40121904Y-84177142D01*
X40074285Y-84224761D01*
X39979047Y-84272380D01*
X39693333Y-84272380D01*
X39598095Y-84224761D01*
X39550476Y-84177142D01*
%TO.C,R53*%
X110863142Y-113990380D02*
X110529809Y-113514190D01*
X110291714Y-113990380D02*
X110291714Y-112990380D01*
X110672666Y-112990380D01*
X110767904Y-113038000D01*
X110815523Y-113085619D01*
X110863142Y-113180857D01*
X110863142Y-113323714D01*
X110815523Y-113418952D01*
X110767904Y-113466571D01*
X110672666Y-113514190D01*
X110291714Y-113514190D01*
X111767904Y-112990380D02*
X111291714Y-112990380D01*
X111244095Y-113466571D01*
X111291714Y-113418952D01*
X111386952Y-113371333D01*
X111625047Y-113371333D01*
X111720285Y-113418952D01*
X111767904Y-113466571D01*
X111815523Y-113561809D01*
X111815523Y-113799904D01*
X111767904Y-113895142D01*
X111720285Y-113942761D01*
X111625047Y-113990380D01*
X111386952Y-113990380D01*
X111291714Y-113942761D01*
X111244095Y-113895142D01*
X112148857Y-112990380D02*
X112767904Y-112990380D01*
X112434571Y-113371333D01*
X112577428Y-113371333D01*
X112672666Y-113418952D01*
X112720285Y-113466571D01*
X112767904Y-113561809D01*
X112767904Y-113799904D01*
X112720285Y-113895142D01*
X112672666Y-113942761D01*
X112577428Y-113990380D01*
X112291714Y-113990380D01*
X112196476Y-113942761D01*
X112148857Y-113895142D01*
%TO.C,C10*%
X41267141Y-95607142D02*
X41219522Y-95654761D01*
X41076665Y-95702380D01*
X40981427Y-95702380D01*
X40838570Y-95654761D01*
X40743332Y-95559523D01*
X40695713Y-95464285D01*
X40648094Y-95273809D01*
X40648094Y-95130952D01*
X40695713Y-94940476D01*
X40743332Y-94845238D01*
X40838570Y-94750000D01*
X40981427Y-94702380D01*
X41076665Y-94702380D01*
X41219522Y-94750000D01*
X41267141Y-94797619D01*
X42219522Y-95702380D02*
X41648094Y-95702380D01*
X41933808Y-95702380D02*
X41933808Y-94702380D01*
X41838570Y-94845238D01*
X41743332Y-94940476D01*
X41648094Y-94988095D01*
X42838570Y-94702380D02*
X42933808Y-94702380D01*
X43029046Y-94750000D01*
X43076665Y-94797619D01*
X43124284Y-94892857D01*
X43171903Y-95083333D01*
X43171903Y-95321428D01*
X43124284Y-95511904D01*
X43076665Y-95607142D01*
X43029046Y-95654761D01*
X42933808Y-95702380D01*
X42838570Y-95702380D01*
X42743332Y-95654761D01*
X42695713Y-95607142D01*
X42648094Y-95511904D01*
X42600475Y-95321428D01*
X42600475Y-95083333D01*
X42648094Y-94892857D01*
X42695713Y-94797619D01*
X42743332Y-94750000D01*
X42838570Y-94702380D01*
%TO.C,SW4*%
X100266666Y-111910761D02*
X100409523Y-111958380D01*
X100647619Y-111958380D01*
X100742857Y-111910761D01*
X100790476Y-111863142D01*
X100838095Y-111767904D01*
X100838095Y-111672666D01*
X100790476Y-111577428D01*
X100742857Y-111529809D01*
X100647619Y-111482190D01*
X100457142Y-111434571D01*
X100361904Y-111386952D01*
X100314285Y-111339333D01*
X100266666Y-111244095D01*
X100266666Y-111148857D01*
X100314285Y-111053619D01*
X100361904Y-111006000D01*
X100457142Y-110958380D01*
X100695238Y-110958380D01*
X100838095Y-111006000D01*
X101171428Y-110958380D02*
X101409523Y-111958380D01*
X101600000Y-111244095D01*
X101790476Y-111958380D01*
X102028571Y-110958380D01*
X102838095Y-111291714D02*
X102838095Y-111958380D01*
X102600000Y-110910761D02*
X102361904Y-111625047D01*
X102980952Y-111625047D01*
%TO.C,SW6*%
X114776666Y-115212761D02*
X114919523Y-115260380D01*
X115157619Y-115260380D01*
X115252857Y-115212761D01*
X115300476Y-115165142D01*
X115348095Y-115069904D01*
X115348095Y-114974666D01*
X115300476Y-114879428D01*
X115252857Y-114831809D01*
X115157619Y-114784190D01*
X114967142Y-114736571D01*
X114871904Y-114688952D01*
X114824285Y-114641333D01*
X114776666Y-114546095D01*
X114776666Y-114450857D01*
X114824285Y-114355619D01*
X114871904Y-114308000D01*
X114967142Y-114260380D01*
X115205238Y-114260380D01*
X115348095Y-114308000D01*
X115681428Y-114260380D02*
X115919523Y-115260380D01*
X116110000Y-114546095D01*
X116300476Y-115260380D01*
X116538571Y-114260380D01*
X117348095Y-114260380D02*
X117157619Y-114260380D01*
X117062380Y-114308000D01*
X117014761Y-114355619D01*
X116919523Y-114498476D01*
X116871904Y-114688952D01*
X116871904Y-115069904D01*
X116919523Y-115165142D01*
X116967142Y-115212761D01*
X117062380Y-115260380D01*
X117252857Y-115260380D01*
X117348095Y-115212761D01*
X117395714Y-115165142D01*
X117443333Y-115069904D01*
X117443333Y-114831809D01*
X117395714Y-114736571D01*
X117348095Y-114688952D01*
X117252857Y-114641333D01*
X117062380Y-114641333D01*
X116967142Y-114688952D01*
X116919523Y-114736571D01*
X116871904Y-114831809D01*
%TO.C,J3*%
X93392666Y-63206380D02*
X93392666Y-63920666D01*
X93345047Y-64063523D01*
X93249809Y-64158761D01*
X93106952Y-64206380D01*
X93011714Y-64206380D01*
X93773619Y-63206380D02*
X94392666Y-63206380D01*
X94059333Y-63587333D01*
X94202190Y-63587333D01*
X94297428Y-63634952D01*
X94345047Y-63682571D01*
X94392666Y-63777809D01*
X94392666Y-64015904D01*
X94345047Y-64111142D01*
X94297428Y-64158761D01*
X94202190Y-64206380D01*
X93916476Y-64206380D01*
X93821238Y-64158761D01*
X93773619Y-64111142D01*
D12*
%TO.C,U9*%
X86934523Y-75897619D02*
X87962619Y-75897619D01*
X88083571Y-75837142D01*
X88144047Y-75776666D01*
X88204523Y-75655714D01*
X88204523Y-75413809D01*
X88144047Y-75292857D01*
X88083571Y-75232380D01*
X87962619Y-75171904D01*
X86934523Y-75171904D01*
X88204523Y-74506666D02*
X88204523Y-74264761D01*
X88144047Y-74143809D01*
X88083571Y-74083333D01*
X87902142Y-73962380D01*
X87660238Y-73901904D01*
X87176428Y-73901904D01*
X87055476Y-73962380D01*
X86995000Y-74022857D01*
X86934523Y-74143809D01*
X86934523Y-74385714D01*
X86995000Y-74506666D01*
X87055476Y-74567142D01*
X87176428Y-74627619D01*
X87478809Y-74627619D01*
X87599761Y-74567142D01*
X87660238Y-74506666D01*
X87720714Y-74385714D01*
X87720714Y-74143809D01*
X87660238Y-74022857D01*
X87599761Y-73962380D01*
X87478809Y-73901904D01*
D10*
%TO.C,R25*%
X85082142Y-107607380D02*
X84748809Y-107131190D01*
X84510714Y-107607380D02*
X84510714Y-106607380D01*
X84891666Y-106607380D01*
X84986904Y-106655000D01*
X85034523Y-106702619D01*
X85082142Y-106797857D01*
X85082142Y-106940714D01*
X85034523Y-107035952D01*
X84986904Y-107083571D01*
X84891666Y-107131190D01*
X84510714Y-107131190D01*
X85463095Y-106702619D02*
X85510714Y-106655000D01*
X85605952Y-106607380D01*
X85844047Y-106607380D01*
X85939285Y-106655000D01*
X85986904Y-106702619D01*
X86034523Y-106797857D01*
X86034523Y-106893095D01*
X85986904Y-107035952D01*
X85415476Y-107607380D01*
X86034523Y-107607380D01*
X86939285Y-106607380D02*
X86463095Y-106607380D01*
X86415476Y-107083571D01*
X86463095Y-107035952D01*
X86558333Y-106988333D01*
X86796428Y-106988333D01*
X86891666Y-107035952D01*
X86939285Y-107083571D01*
X86986904Y-107178809D01*
X86986904Y-107416904D01*
X86939285Y-107512142D01*
X86891666Y-107559761D01*
X86796428Y-107607380D01*
X86558333Y-107607380D01*
X86463095Y-107559761D01*
X86415476Y-107512142D01*
%TO.C,C9*%
X58130791Y-54326095D02*
X58083172Y-54373714D01*
X57940315Y-54421333D01*
X57845077Y-54421333D01*
X57702219Y-54373714D01*
X57606981Y-54278476D01*
X57559362Y-54183238D01*
X57511743Y-53992762D01*
X57511743Y-53849905D01*
X57559362Y-53659429D01*
X57606981Y-53564191D01*
X57702219Y-53468953D01*
X57845077Y-53421333D01*
X57940315Y-53421333D01*
X58083172Y-53468953D01*
X58130791Y-53516572D01*
X58606981Y-54421333D02*
X58797458Y-54421333D01*
X58892696Y-54373714D01*
X58940315Y-54326095D01*
X59035553Y-54183238D01*
X59083172Y-53992762D01*
X59083172Y-53611810D01*
X59035553Y-53516572D01*
X58987934Y-53468953D01*
X58892696Y-53421333D01*
X58702219Y-53421333D01*
X58606981Y-53468953D01*
X58559362Y-53516572D01*
X58511743Y-53611810D01*
X58511743Y-53849905D01*
X58559362Y-53945143D01*
X58606981Y-53992762D01*
X58702219Y-54040381D01*
X58892696Y-54040381D01*
X58987934Y-53992762D01*
X59035553Y-53945143D01*
X59083172Y-53849905D01*
D12*
%TO.C,U11*%
X60657619Y-82574523D02*
X60657619Y-83602619D01*
X60718095Y-83723571D01*
X60778571Y-83784047D01*
X60899523Y-83844523D01*
X61141428Y-83844523D01*
X61262380Y-83784047D01*
X61322857Y-83723571D01*
X61383333Y-83602619D01*
X61383333Y-82574523D01*
X62653333Y-83844523D02*
X61927619Y-83844523D01*
X62290476Y-83844523D02*
X62290476Y-82574523D01*
X62169523Y-82755952D01*
X62048571Y-82876904D01*
X61927619Y-82937380D01*
X63862857Y-83844523D02*
X63137142Y-83844523D01*
X63500000Y-83844523D02*
X63500000Y-82574523D01*
X63379047Y-82755952D01*
X63258095Y-82876904D01*
X63137142Y-82937380D01*
D10*
%TO.C,R15*%
X41902142Y-80462380D02*
X41568809Y-79986190D01*
X41330714Y-80462380D02*
X41330714Y-79462380D01*
X41711666Y-79462380D01*
X41806904Y-79510000D01*
X41854523Y-79557619D01*
X41902142Y-79652857D01*
X41902142Y-79795714D01*
X41854523Y-79890952D01*
X41806904Y-79938571D01*
X41711666Y-79986190D01*
X41330714Y-79986190D01*
X42854523Y-80462380D02*
X42283095Y-80462380D01*
X42568809Y-80462380D02*
X42568809Y-79462380D01*
X42473571Y-79605238D01*
X42378333Y-79700476D01*
X42283095Y-79748095D01*
X43759285Y-79462380D02*
X43283095Y-79462380D01*
X43235476Y-79938571D01*
X43283095Y-79890952D01*
X43378333Y-79843333D01*
X43616428Y-79843333D01*
X43711666Y-79890952D01*
X43759285Y-79938571D01*
X43806904Y-80033809D01*
X43806904Y-80271904D01*
X43759285Y-80367142D01*
X43711666Y-80414761D01*
X43616428Y-80462380D01*
X43378333Y-80462380D01*
X43283095Y-80414761D01*
X43235476Y-80367142D01*
%TO.C,J7*%
X58086666Y-114012380D02*
X58086666Y-114726666D01*
X58039047Y-114869523D01*
X57943809Y-114964761D01*
X57800952Y-115012380D01*
X57705714Y-115012380D01*
X58467619Y-114012380D02*
X59134285Y-114012380D01*
X58705714Y-115012380D01*
%TO.C,C22*%
X71793110Y-83795134D02*
X71745491Y-83842753D01*
X71602634Y-83890372D01*
X71507396Y-83890372D01*
X71364539Y-83842753D01*
X71269301Y-83747515D01*
X71221682Y-83652277D01*
X71174063Y-83461801D01*
X71174063Y-83318944D01*
X71221682Y-83128468D01*
X71269301Y-83033230D01*
X71364539Y-82937992D01*
X71507396Y-82890372D01*
X71602634Y-82890372D01*
X71745491Y-82937992D01*
X71793110Y-82985611D01*
X72174063Y-82985611D02*
X72221682Y-82937992D01*
X72316920Y-82890372D01*
X72555015Y-82890372D01*
X72650253Y-82937992D01*
X72697872Y-82985611D01*
X72745491Y-83080849D01*
X72745491Y-83176087D01*
X72697872Y-83318944D01*
X72126444Y-83890372D01*
X72745491Y-83890372D01*
X73126444Y-82985611D02*
X73174063Y-82937992D01*
X73269301Y-82890372D01*
X73507396Y-82890372D01*
X73602634Y-82937992D01*
X73650253Y-82985611D01*
X73697872Y-83080849D01*
X73697872Y-83176087D01*
X73650253Y-83318944D01*
X73078825Y-83890372D01*
X73697872Y-83890372D01*
%TO.C,R50*%
X95414211Y-86623953D02*
X95313196Y-87196372D01*
X95818272Y-87028014D02*
X95111165Y-87735120D01*
X94841791Y-87465746D01*
X94808119Y-87364731D01*
X94808119Y-87297388D01*
X94841791Y-87196372D01*
X94942806Y-87095357D01*
X95043822Y-87061685D01*
X95111165Y-87061685D01*
X95212180Y-87095357D01*
X95481554Y-87364731D01*
X94067341Y-86691296D02*
X94404058Y-87028014D01*
X94774448Y-86724968D01*
X94707104Y-86724968D01*
X94606089Y-86691296D01*
X94437730Y-86522937D01*
X94404058Y-86421922D01*
X94404058Y-86354578D01*
X94437730Y-86253563D01*
X94606089Y-86085204D01*
X94707104Y-86051533D01*
X94774448Y-86051533D01*
X94875463Y-86085204D01*
X95043822Y-86253563D01*
X95077493Y-86354578D01*
X95077493Y-86421922D01*
X93595936Y-86219891D02*
X93528593Y-86152548D01*
X93494921Y-86051533D01*
X93494921Y-85984189D01*
X93528593Y-85883174D01*
X93629608Y-85714815D01*
X93797967Y-85546456D01*
X93966325Y-85445441D01*
X94067341Y-85411769D01*
X94134684Y-85411769D01*
X94235699Y-85445441D01*
X94303043Y-85512785D01*
X94336715Y-85613800D01*
X94336715Y-85681143D01*
X94303043Y-85782159D01*
X94202028Y-85950517D01*
X94033669Y-86118876D01*
X93865310Y-86219891D01*
X93764295Y-86253563D01*
X93696951Y-86253563D01*
X93595936Y-86219891D01*
%TO.C,R30*%
X49522142Y-105227380D02*
X49188809Y-104751190D01*
X48950714Y-105227380D02*
X48950714Y-104227380D01*
X49331666Y-104227380D01*
X49426904Y-104275000D01*
X49474523Y-104322619D01*
X49522142Y-104417857D01*
X49522142Y-104560714D01*
X49474523Y-104655952D01*
X49426904Y-104703571D01*
X49331666Y-104751190D01*
X48950714Y-104751190D01*
X49855476Y-104227380D02*
X50474523Y-104227380D01*
X50141190Y-104608333D01*
X50284047Y-104608333D01*
X50379285Y-104655952D01*
X50426904Y-104703571D01*
X50474523Y-104798809D01*
X50474523Y-105036904D01*
X50426904Y-105132142D01*
X50379285Y-105179761D01*
X50284047Y-105227380D01*
X49998333Y-105227380D01*
X49903095Y-105179761D01*
X49855476Y-105132142D01*
X51093571Y-104227380D02*
X51188809Y-104227380D01*
X51284047Y-104275000D01*
X51331666Y-104322619D01*
X51379285Y-104417857D01*
X51426904Y-104608333D01*
X51426904Y-104846428D01*
X51379285Y-105036904D01*
X51331666Y-105132142D01*
X51284047Y-105179761D01*
X51188809Y-105227380D01*
X51093571Y-105227380D01*
X50998333Y-105179761D01*
X50950714Y-105132142D01*
X50903095Y-105036904D01*
X50855476Y-104846428D01*
X50855476Y-104608333D01*
X50903095Y-104417857D01*
X50950714Y-104322619D01*
X50998333Y-104275000D01*
X51093571Y-104227380D01*
%TO.C,C19*%
X79755135Y-75512546D02*
X79802754Y-75560165D01*
X79850373Y-75703022D01*
X79850373Y-75798260D01*
X79802754Y-75941117D01*
X79707516Y-76036355D01*
X79612278Y-76083974D01*
X79421802Y-76131593D01*
X79278945Y-76131593D01*
X79088469Y-76083974D01*
X78993231Y-76036355D01*
X78897993Y-75941117D01*
X78850373Y-75798260D01*
X78850373Y-75703022D01*
X78897993Y-75560165D01*
X78945612Y-75512546D01*
X79850373Y-74560165D02*
X79850373Y-75131593D01*
X79850373Y-74845879D02*
X78850373Y-74845879D01*
X78993231Y-74941117D01*
X79088469Y-75036355D01*
X79136088Y-75131593D01*
X79850373Y-74083974D02*
X79850373Y-73893498D01*
X79802754Y-73798260D01*
X79755135Y-73750641D01*
X79612278Y-73655403D01*
X79421802Y-73607784D01*
X79040850Y-73607784D01*
X78945612Y-73655403D01*
X78897993Y-73703022D01*
X78850373Y-73798260D01*
X78850373Y-73988736D01*
X78897993Y-74083974D01*
X78945612Y-74131593D01*
X79040850Y-74179212D01*
X79278945Y-74179212D01*
X79374183Y-74131593D01*
X79421802Y-74083974D01*
X79469421Y-73988736D01*
X79469421Y-73798260D01*
X79421802Y-73703022D01*
X79374183Y-73655403D01*
X79278945Y-73607784D01*
%TO.C,C29*%
X103497142Y-84939142D02*
X103449523Y-84986761D01*
X103306666Y-85034380D01*
X103211428Y-85034380D01*
X103068571Y-84986761D01*
X102973333Y-84891523D01*
X102925714Y-84796285D01*
X102878095Y-84605809D01*
X102878095Y-84462952D01*
X102925714Y-84272476D01*
X102973333Y-84177238D01*
X103068571Y-84082000D01*
X103211428Y-84034380D01*
X103306666Y-84034380D01*
X103449523Y-84082000D01*
X103497142Y-84129619D01*
X103878095Y-84129619D02*
X103925714Y-84082000D01*
X104020952Y-84034380D01*
X104259047Y-84034380D01*
X104354285Y-84082000D01*
X104401904Y-84129619D01*
X104449523Y-84224857D01*
X104449523Y-84320095D01*
X104401904Y-84462952D01*
X103830476Y-85034380D01*
X104449523Y-85034380D01*
X104925714Y-85034380D02*
X105116190Y-85034380D01*
X105211428Y-84986761D01*
X105259047Y-84939142D01*
X105354285Y-84796285D01*
X105401904Y-84605809D01*
X105401904Y-84224857D01*
X105354285Y-84129619D01*
X105306666Y-84082000D01*
X105211428Y-84034380D01*
X105020952Y-84034380D01*
X104925714Y-84082000D01*
X104878095Y-84129619D01*
X104830476Y-84224857D01*
X104830476Y-84462952D01*
X104878095Y-84558190D01*
X104925714Y-84605809D01*
X105020952Y-84653428D01*
X105211428Y-84653428D01*
X105306666Y-84605809D01*
X105354285Y-84558190D01*
X105401904Y-84462952D01*
%TO.C,R21*%
X83120189Y-72505951D02*
X82643999Y-72839284D01*
X83120189Y-73077379D02*
X82120189Y-73077379D01*
X82120189Y-72696427D01*
X82167809Y-72601189D01*
X82215428Y-72553570D01*
X82310666Y-72505951D01*
X82453523Y-72505951D01*
X82548761Y-72553570D01*
X82596380Y-72601189D01*
X82643999Y-72696427D01*
X82643999Y-73077379D01*
X82215428Y-72124998D02*
X82167809Y-72077379D01*
X82120189Y-71982141D01*
X82120189Y-71744046D01*
X82167809Y-71648808D01*
X82215428Y-71601189D01*
X82310666Y-71553570D01*
X82405904Y-71553570D01*
X82548761Y-71601189D01*
X83120189Y-72172617D01*
X83120189Y-71553570D01*
X83120189Y-70601189D02*
X83120189Y-71172617D01*
X83120189Y-70886903D02*
X82120189Y-70886903D01*
X82263047Y-70982141D01*
X82358285Y-71077379D01*
X82405904Y-71172617D01*
%TO.C,D4*%
X54078851Y-60152452D02*
X54078851Y-59152452D01*
X54316947Y-59152452D01*
X54459804Y-59200072D01*
X54555042Y-59295310D01*
X54602661Y-59390548D01*
X54650280Y-59581024D01*
X54650280Y-59723881D01*
X54602661Y-59914357D01*
X54555042Y-60009595D01*
X54459804Y-60104833D01*
X54316947Y-60152452D01*
X54078851Y-60152452D01*
X55507423Y-59485786D02*
X55507423Y-60152452D01*
X55269327Y-59104833D02*
X55031232Y-59819119D01*
X55650280Y-59819119D01*
%TO.C,D16*%
X123748220Y-106673348D02*
X123748220Y-105673348D01*
X123986315Y-105673348D01*
X124129172Y-105720968D01*
X124224410Y-105816206D01*
X124272029Y-105911444D01*
X124319648Y-106101920D01*
X124319648Y-106244777D01*
X124272029Y-106435253D01*
X124224410Y-106530491D01*
X124129172Y-106625729D01*
X123986315Y-106673348D01*
X123748220Y-106673348D01*
X125272029Y-106673348D02*
X124700601Y-106673348D01*
X124986315Y-106673348D02*
X124986315Y-105673348D01*
X124891077Y-105816206D01*
X124795839Y-105911444D01*
X124700601Y-105959063D01*
X126129172Y-105673348D02*
X125938696Y-105673348D01*
X125843458Y-105720968D01*
X125795839Y-105768587D01*
X125700601Y-105911444D01*
X125652982Y-106101920D01*
X125652982Y-106482872D01*
X125700601Y-106578110D01*
X125748220Y-106625729D01*
X125843458Y-106673348D01*
X126033934Y-106673348D01*
X126129172Y-106625729D01*
X126176791Y-106578110D01*
X126224410Y-106482872D01*
X126224410Y-106244777D01*
X126176791Y-106149539D01*
X126129172Y-106101920D01*
X126033934Y-106054301D01*
X125843458Y-106054301D01*
X125748220Y-106101920D01*
X125700601Y-106149539D01*
X125652982Y-106244777D01*
X126200601Y-104338587D02*
X126200601Y-105338587D01*
X125819648Y-105338587D01*
X125724410Y-105290968D01*
X125676791Y-105243348D01*
X125629172Y-105148110D01*
X125629172Y-105005253D01*
X125676791Y-104910015D01*
X125724410Y-104862396D01*
X125819648Y-104814777D01*
X126200601Y-104814777D01*
X124867267Y-104862396D02*
X124724410Y-104814777D01*
X124676791Y-104767158D01*
X124629172Y-104671920D01*
X124629172Y-104529063D01*
X124676791Y-104433825D01*
X124724410Y-104386206D01*
X124819648Y-104338587D01*
X125200601Y-104338587D01*
X125200601Y-105338587D01*
X124867267Y-105338587D01*
X124772029Y-105290968D01*
X124724410Y-105243348D01*
X124676791Y-105148110D01*
X124676791Y-105052872D01*
X124724410Y-104957634D01*
X124772029Y-104910015D01*
X124867267Y-104862396D01*
X125200601Y-104862396D01*
X123676791Y-104338587D02*
X124248220Y-104338587D01*
X123962506Y-104338587D02*
X123962506Y-105338587D01*
X124057744Y-105195729D01*
X124152982Y-105100491D01*
X124248220Y-105052872D01*
%TO.C,Q5*%
X88772619Y-112490238D02*
X88725000Y-112585476D01*
X88629761Y-112680714D01*
X88486904Y-112823571D01*
X88439285Y-112918809D01*
X88439285Y-113014047D01*
X88677380Y-112966428D02*
X88629761Y-113061666D01*
X88534523Y-113156904D01*
X88344047Y-113204523D01*
X88010714Y-113204523D01*
X87820238Y-113156904D01*
X87725000Y-113061666D01*
X87677380Y-112966428D01*
X87677380Y-112775952D01*
X87725000Y-112680714D01*
X87820238Y-112585476D01*
X88010714Y-112537857D01*
X88344047Y-112537857D01*
X88534523Y-112585476D01*
X88629761Y-112680714D01*
X88677380Y-112775952D01*
X88677380Y-112966428D01*
X87677380Y-111633095D02*
X87677380Y-112109285D01*
X88153571Y-112156904D01*
X88105952Y-112109285D01*
X88058333Y-112014047D01*
X88058333Y-111775952D01*
X88105952Y-111680714D01*
X88153571Y-111633095D01*
X88248809Y-111585476D01*
X88486904Y-111585476D01*
X88582142Y-111633095D01*
X88629761Y-111680714D01*
X88677380Y-111775952D01*
X88677380Y-112014047D01*
X88629761Y-112109285D01*
X88582142Y-112156904D01*
%TO.C,R29*%
X56836686Y-97769560D02*
X56360496Y-98102893D01*
X56836686Y-98340988D02*
X55836686Y-98340988D01*
X55836686Y-97960036D01*
X55884306Y-97864798D01*
X55931925Y-97817179D01*
X56027163Y-97769560D01*
X56170020Y-97769560D01*
X56265258Y-97817179D01*
X56312877Y-97864798D01*
X56360496Y-97960036D01*
X56360496Y-98340988D01*
X55931925Y-97388607D02*
X55884306Y-97340988D01*
X55836686Y-97245750D01*
X55836686Y-97007655D01*
X55884306Y-96912417D01*
X55931925Y-96864798D01*
X56027163Y-96817179D01*
X56122401Y-96817179D01*
X56265258Y-96864798D01*
X56836686Y-97436226D01*
X56836686Y-96817179D01*
X56836686Y-96340988D02*
X56836686Y-96150512D01*
X56789067Y-96055274D01*
X56741448Y-96007655D01*
X56598591Y-95912417D01*
X56408115Y-95864798D01*
X56027163Y-95864798D01*
X55931925Y-95912417D01*
X55884306Y-95960036D01*
X55836686Y-96055274D01*
X55836686Y-96245750D01*
X55884306Y-96340988D01*
X55931925Y-96388607D01*
X56027163Y-96436226D01*
X56265258Y-96436226D01*
X56360496Y-96388607D01*
X56408115Y-96340988D01*
X56455734Y-96245750D01*
X56455734Y-96055274D01*
X56408115Y-95960036D01*
X56360496Y-95912417D01*
X56265258Y-95864798D01*
%TO.C,R45*%
X67149165Y-98895673D02*
X66815832Y-98419483D01*
X66577737Y-98895673D02*
X66577737Y-97895673D01*
X66958689Y-97895673D01*
X67053927Y-97943293D01*
X67101546Y-97990912D01*
X67149165Y-98086150D01*
X67149165Y-98229007D01*
X67101546Y-98324245D01*
X67053927Y-98371864D01*
X66958689Y-98419483D01*
X66577737Y-98419483D01*
X68006308Y-98229007D02*
X68006308Y-98895673D01*
X67768213Y-97848054D02*
X67530118Y-98562340D01*
X68149165Y-98562340D01*
X69006308Y-97895673D02*
X68530118Y-97895673D01*
X68482499Y-98371864D01*
X68530118Y-98324245D01*
X68625356Y-98276626D01*
X68863451Y-98276626D01*
X68958689Y-98324245D01*
X69006308Y-98371864D01*
X69053927Y-98467102D01*
X69053927Y-98705197D01*
X69006308Y-98800435D01*
X68958689Y-98848054D01*
X68863451Y-98895673D01*
X68625356Y-98895673D01*
X68530118Y-98848054D01*
X68482499Y-98800435D01*
%TO.C,C20*%
X74531575Y-73901247D02*
X74483956Y-73948866D01*
X74341099Y-73996485D01*
X74245861Y-73996485D01*
X74103004Y-73948866D01*
X74007766Y-73853628D01*
X73960147Y-73758390D01*
X73912528Y-73567914D01*
X73912528Y-73425057D01*
X73960147Y-73234581D01*
X74007766Y-73139343D01*
X74103004Y-73044105D01*
X74245861Y-72996485D01*
X74341099Y-72996485D01*
X74483956Y-73044105D01*
X74531575Y-73091724D01*
X74912528Y-73091724D02*
X74960147Y-73044105D01*
X75055385Y-72996485D01*
X75293480Y-72996485D01*
X75388718Y-73044105D01*
X75436337Y-73091724D01*
X75483956Y-73186962D01*
X75483956Y-73282200D01*
X75436337Y-73425057D01*
X74864909Y-73996485D01*
X75483956Y-73996485D01*
X76103004Y-72996485D02*
X76198242Y-72996485D01*
X76293480Y-73044105D01*
X76341099Y-73091724D01*
X76388718Y-73186962D01*
X76436337Y-73377438D01*
X76436337Y-73615533D01*
X76388718Y-73806009D01*
X76341099Y-73901247D01*
X76293480Y-73948866D01*
X76198242Y-73996485D01*
X76103004Y-73996485D01*
X76007766Y-73948866D01*
X75960147Y-73901247D01*
X75912528Y-73806009D01*
X75864909Y-73615533D01*
X75864909Y-73377438D01*
X75912528Y-73186962D01*
X75960147Y-73091724D01*
X76007766Y-73044105D01*
X76103004Y-72996485D01*
%TO.C,C28*%
X90983969Y-91639106D02*
X90983969Y-91706450D01*
X90916625Y-91841137D01*
X90849282Y-91908480D01*
X90714595Y-91975824D01*
X90579908Y-91975824D01*
X90478893Y-91942152D01*
X90310534Y-91841137D01*
X90209519Y-91740122D01*
X90108503Y-91571763D01*
X90074832Y-91470748D01*
X90074832Y-91336061D01*
X90142175Y-91201374D01*
X90209519Y-91134030D01*
X90344206Y-91066687D01*
X90411549Y-91066687D01*
X90680923Y-90797312D02*
X90680923Y-90729969D01*
X90714595Y-90628954D01*
X90882954Y-90460595D01*
X90983969Y-90426923D01*
X91051312Y-90426923D01*
X91152328Y-90460595D01*
X91219671Y-90527938D01*
X91287015Y-90662625D01*
X91287015Y-91470748D01*
X91724748Y-91033015D01*
X91724748Y-90224893D02*
X91623732Y-90258564D01*
X91556389Y-90258564D01*
X91455374Y-90224893D01*
X91421702Y-90191221D01*
X91388030Y-90090206D01*
X91388030Y-90022862D01*
X91421702Y-89921847D01*
X91556389Y-89787160D01*
X91657404Y-89753488D01*
X91724748Y-89753488D01*
X91825763Y-89787160D01*
X91859435Y-89820832D01*
X91893106Y-89921847D01*
X91893106Y-89989190D01*
X91859435Y-90090206D01*
X91724748Y-90224893D01*
X91691076Y-90325908D01*
X91691076Y-90393251D01*
X91724748Y-90494267D01*
X91859435Y-90628954D01*
X91960450Y-90662625D01*
X92027793Y-90662625D01*
X92128809Y-90628954D01*
X92263496Y-90494267D01*
X92297167Y-90393251D01*
X92297167Y-90325908D01*
X92263496Y-90224893D01*
X92128809Y-90090206D01*
X92027793Y-90056534D01*
X91960450Y-90056534D01*
X91859435Y-90090206D01*
%TO.C,R47*%
X67024642Y-90622380D02*
X66691309Y-90146190D01*
X66453214Y-90622380D02*
X66453214Y-89622380D01*
X66834166Y-89622380D01*
X66929404Y-89670000D01*
X66977023Y-89717619D01*
X67024642Y-89812857D01*
X67024642Y-89955714D01*
X66977023Y-90050952D01*
X66929404Y-90098571D01*
X66834166Y-90146190D01*
X66453214Y-90146190D01*
X67881785Y-89955714D02*
X67881785Y-90622380D01*
X67643690Y-89574761D02*
X67405595Y-90289047D01*
X68024642Y-90289047D01*
X68310357Y-89622380D02*
X68977023Y-89622380D01*
X68548452Y-90622380D01*
%TO.C,R18*%
X79367142Y-61412380D02*
X79033809Y-60936190D01*
X78795714Y-61412380D02*
X78795714Y-60412380D01*
X79176666Y-60412380D01*
X79271904Y-60460000D01*
X79319523Y-60507619D01*
X79367142Y-60602857D01*
X79367142Y-60745714D01*
X79319523Y-60840952D01*
X79271904Y-60888571D01*
X79176666Y-60936190D01*
X78795714Y-60936190D01*
X80319523Y-61412380D02*
X79748095Y-61412380D01*
X80033809Y-61412380D02*
X80033809Y-60412380D01*
X79938571Y-60555238D01*
X79843333Y-60650476D01*
X79748095Y-60698095D01*
X80890952Y-60840952D02*
X80795714Y-60793333D01*
X80748095Y-60745714D01*
X80700476Y-60650476D01*
X80700476Y-60602857D01*
X80748095Y-60507619D01*
X80795714Y-60460000D01*
X80890952Y-60412380D01*
X81081428Y-60412380D01*
X81176666Y-60460000D01*
X81224285Y-60507619D01*
X81271904Y-60602857D01*
X81271904Y-60650476D01*
X81224285Y-60745714D01*
X81176666Y-60793333D01*
X81081428Y-60840952D01*
X80890952Y-60840952D01*
X80795714Y-60888571D01*
X80748095Y-60936190D01*
X80700476Y-61031428D01*
X80700476Y-61221904D01*
X80748095Y-61317142D01*
X80795714Y-61364761D01*
X80890952Y-61412380D01*
X81081428Y-61412380D01*
X81176666Y-61364761D01*
X81224285Y-61317142D01*
X81271904Y-61221904D01*
X81271904Y-61031428D01*
X81224285Y-60936190D01*
X81176666Y-60888571D01*
X81081428Y-60840952D01*
%TO.C,R35*%
X76827142Y-113482380D02*
X76493809Y-113006190D01*
X76255714Y-113482380D02*
X76255714Y-112482380D01*
X76636666Y-112482380D01*
X76731904Y-112530000D01*
X76779523Y-112577619D01*
X76827142Y-112672857D01*
X76827142Y-112815714D01*
X76779523Y-112910952D01*
X76731904Y-112958571D01*
X76636666Y-113006190D01*
X76255714Y-113006190D01*
X77160476Y-112482380D02*
X77779523Y-112482380D01*
X77446190Y-112863333D01*
X77589047Y-112863333D01*
X77684285Y-112910952D01*
X77731904Y-112958571D01*
X77779523Y-113053809D01*
X77779523Y-113291904D01*
X77731904Y-113387142D01*
X77684285Y-113434761D01*
X77589047Y-113482380D01*
X77303333Y-113482380D01*
X77208095Y-113434761D01*
X77160476Y-113387142D01*
X78684285Y-112482380D02*
X78208095Y-112482380D01*
X78160476Y-112958571D01*
X78208095Y-112910952D01*
X78303333Y-112863333D01*
X78541428Y-112863333D01*
X78636666Y-112910952D01*
X78684285Y-112958571D01*
X78731904Y-113053809D01*
X78731904Y-113291904D01*
X78684285Y-113387142D01*
X78636666Y-113434761D01*
X78541428Y-113482380D01*
X78303333Y-113482380D01*
X78208095Y-113434761D01*
X78160476Y-113387142D01*
D12*
%TO.C,U12*%
X60657619Y-93369523D02*
X60657619Y-94397619D01*
X60718095Y-94518571D01*
X60778571Y-94579047D01*
X60899523Y-94639523D01*
X61141428Y-94639523D01*
X61262380Y-94579047D01*
X61322857Y-94518571D01*
X61383333Y-94397619D01*
X61383333Y-93369523D01*
X62653333Y-94639523D02*
X61927619Y-94639523D01*
X62290476Y-94639523D02*
X62290476Y-93369523D01*
X62169523Y-93550952D01*
X62048571Y-93671904D01*
X61927619Y-93732380D01*
X63137142Y-93490476D02*
X63197619Y-93430000D01*
X63318571Y-93369523D01*
X63620952Y-93369523D01*
X63741904Y-93430000D01*
X63802380Y-93490476D01*
X63862857Y-93611428D01*
X63862857Y-93732380D01*
X63802380Y-93913809D01*
X63076666Y-94639523D01*
X63862857Y-94639523D01*
D10*
%TO.C,D11*%
X57602380Y-90749285D02*
X56602380Y-90749285D01*
X56602380Y-90511190D01*
X56650000Y-90368333D01*
X56745238Y-90273095D01*
X56840476Y-90225476D01*
X57030952Y-90177857D01*
X57173809Y-90177857D01*
X57364285Y-90225476D01*
X57459523Y-90273095D01*
X57554761Y-90368333D01*
X57602380Y-90511190D01*
X57602380Y-90749285D01*
X57602380Y-89225476D02*
X57602380Y-89796904D01*
X57602380Y-89511190D02*
X56602380Y-89511190D01*
X56745238Y-89606428D01*
X56840476Y-89701666D01*
X56888095Y-89796904D01*
X57602380Y-88273095D02*
X57602380Y-88844523D01*
X57602380Y-88558809D02*
X56602380Y-88558809D01*
X56745238Y-88654047D01*
X56840476Y-88749285D01*
X56888095Y-88844523D01*
%TO.C,SW7*%
X111910761Y-58991333D02*
X111958380Y-58848476D01*
X111958380Y-58610380D01*
X111910761Y-58515142D01*
X111863142Y-58467523D01*
X111767904Y-58419904D01*
X111672666Y-58419904D01*
X111577428Y-58467523D01*
X111529809Y-58515142D01*
X111482190Y-58610380D01*
X111434571Y-58800857D01*
X111386952Y-58896095D01*
X111339333Y-58943714D01*
X111244095Y-58991333D01*
X111148857Y-58991333D01*
X111053619Y-58943714D01*
X111006000Y-58896095D01*
X110958380Y-58800857D01*
X110958380Y-58562761D01*
X111006000Y-58419904D01*
X110958380Y-58086571D02*
X111958380Y-57848476D01*
X111244095Y-57658000D01*
X111958380Y-57467523D01*
X110958380Y-57229428D01*
X110958380Y-56943714D02*
X110958380Y-56277047D01*
X111958380Y-56705619D01*
%TO.C,SW2*%
X92138333Y-114530238D02*
X91995476Y-114482619D01*
X91757380Y-114482619D01*
X91662142Y-114530238D01*
X91614523Y-114577857D01*
X91566904Y-114673095D01*
X91566904Y-114768333D01*
X91614523Y-114863571D01*
X91662142Y-114911190D01*
X91757380Y-114958809D01*
X91947857Y-115006428D01*
X92043095Y-115054047D01*
X92090714Y-115101666D01*
X92138333Y-115196904D01*
X92138333Y-115292142D01*
X92090714Y-115387380D01*
X92043095Y-115435000D01*
X91947857Y-115482619D01*
X91709761Y-115482619D01*
X91566904Y-115435000D01*
X91233571Y-115482619D02*
X90995476Y-114482619D01*
X90805000Y-115196904D01*
X90614523Y-114482619D01*
X90376428Y-115482619D01*
X90043095Y-115387380D02*
X89995476Y-115435000D01*
X89900238Y-115482619D01*
X89662142Y-115482619D01*
X89566904Y-115435000D01*
X89519285Y-115387380D01*
X89471666Y-115292142D01*
X89471666Y-115196904D01*
X89519285Y-115054047D01*
X90090714Y-114482619D01*
X89471666Y-114482619D01*
%TO.C,D13*%
X71434461Y-81923742D02*
X71434461Y-80923742D01*
X71672556Y-80923742D01*
X71815413Y-80971362D01*
X71910651Y-81066600D01*
X71958270Y-81161838D01*
X72005889Y-81352314D01*
X72005889Y-81495171D01*
X71958270Y-81685647D01*
X71910651Y-81780885D01*
X71815413Y-81876123D01*
X71672556Y-81923742D01*
X71434461Y-81923742D01*
X72958270Y-81923742D02*
X72386842Y-81923742D01*
X72672556Y-81923742D02*
X72672556Y-80923742D01*
X72577318Y-81066600D01*
X72482080Y-81161838D01*
X72386842Y-81209457D01*
X73291604Y-80923742D02*
X73910651Y-80923742D01*
X73577318Y-81304695D01*
X73720175Y-81304695D01*
X73815413Y-81352314D01*
X73863032Y-81399933D01*
X73910651Y-81495171D01*
X73910651Y-81733266D01*
X73863032Y-81828504D01*
X73815413Y-81876123D01*
X73720175Y-81923742D01*
X73434461Y-81923742D01*
X73339223Y-81876123D01*
X73291604Y-81828504D01*
%TO.C,R5*%
X107783333Y-71064380D02*
X107450000Y-70588190D01*
X107211904Y-71064380D02*
X107211904Y-70064380D01*
X107592857Y-70064380D01*
X107688095Y-70112000D01*
X107735714Y-70159619D01*
X107783333Y-70254857D01*
X107783333Y-70397714D01*
X107735714Y-70492952D01*
X107688095Y-70540571D01*
X107592857Y-70588190D01*
X107211904Y-70588190D01*
X108688095Y-70064380D02*
X108211904Y-70064380D01*
X108164285Y-70540571D01*
X108211904Y-70492952D01*
X108307142Y-70445333D01*
X108545238Y-70445333D01*
X108640476Y-70492952D01*
X108688095Y-70540571D01*
X108735714Y-70635809D01*
X108735714Y-70873904D01*
X108688095Y-70969142D01*
X108640476Y-71016761D01*
X108545238Y-71064380D01*
X108307142Y-71064380D01*
X108211904Y-71016761D01*
X108164285Y-70969142D01*
%TO.C,R48*%
X113911142Y-125072380D02*
X113577809Y-124596190D01*
X113339714Y-125072380D02*
X113339714Y-124072380D01*
X113720666Y-124072380D01*
X113815904Y-124120000D01*
X113863523Y-124167619D01*
X113911142Y-124262857D01*
X113911142Y-124405714D01*
X113863523Y-124500952D01*
X113815904Y-124548571D01*
X113720666Y-124596190D01*
X113339714Y-124596190D01*
X114768285Y-124405714D02*
X114768285Y-125072380D01*
X114530190Y-124024761D02*
X114292095Y-124739047D01*
X114911142Y-124739047D01*
X115434952Y-124500952D02*
X115339714Y-124453333D01*
X115292095Y-124405714D01*
X115244476Y-124310476D01*
X115244476Y-124262857D01*
X115292095Y-124167619D01*
X115339714Y-124120000D01*
X115434952Y-124072380D01*
X115625428Y-124072380D01*
X115720666Y-124120000D01*
X115768285Y-124167619D01*
X115815904Y-124262857D01*
X115815904Y-124310476D01*
X115768285Y-124405714D01*
X115720666Y-124453333D01*
X115625428Y-124500952D01*
X115434952Y-124500952D01*
X115339714Y-124548571D01*
X115292095Y-124596190D01*
X115244476Y-124691428D01*
X115244476Y-124881904D01*
X115292095Y-124977142D01*
X115339714Y-125024761D01*
X115434952Y-125072380D01*
X115625428Y-125072380D01*
X115720666Y-125024761D01*
X115768285Y-124977142D01*
X115815904Y-124881904D01*
X115815904Y-124691428D01*
X115768285Y-124596190D01*
X115720666Y-124548571D01*
X115625428Y-124500952D01*
%TO.C,J1*%
X127039619Y-60626666D02*
X126325333Y-60626666D01*
X126182476Y-60579047D01*
X126087238Y-60483809D01*
X126039619Y-60340952D01*
X126039619Y-60245714D01*
X126039619Y-61626666D02*
X126039619Y-61055238D01*
X126039619Y-61340952D02*
X127039619Y-61340952D01*
X126896761Y-61245714D01*
X126801523Y-61150476D01*
X126753904Y-61055238D01*
X116468333Y-72902142D02*
X116420714Y-72949761D01*
X116277857Y-72997380D01*
X116182619Y-72997380D01*
X116039761Y-72949761D01*
X115944523Y-72854523D01*
X115896904Y-72759285D01*
X115849285Y-72568809D01*
X115849285Y-72425952D01*
X115896904Y-72235476D01*
X115944523Y-72140238D01*
X116039761Y-72045000D01*
X116182619Y-71997380D01*
X116277857Y-71997380D01*
X116420714Y-72045000D01*
X116468333Y-72092619D01*
X117468333Y-72902142D02*
X117420714Y-72949761D01*
X117277857Y-72997380D01*
X117182619Y-72997380D01*
X117039761Y-72949761D01*
X116944523Y-72854523D01*
X116896904Y-72759285D01*
X116849285Y-72568809D01*
X116849285Y-72425952D01*
X116896904Y-72235476D01*
X116944523Y-72140238D01*
X117039761Y-72045000D01*
X117182619Y-71997380D01*
X117277857Y-71997380D01*
X117420714Y-72045000D01*
X117468333Y-72092619D01*
X118420714Y-72997380D02*
X117849285Y-72997380D01*
X118135000Y-72997380D02*
X118135000Y-71997380D01*
X118039761Y-72140238D01*
X117944523Y-72235476D01*
X117849285Y-72283095D01*
X116373095Y-69445000D02*
X116277857Y-69397380D01*
X116135000Y-69397380D01*
X115992142Y-69445000D01*
X115896904Y-69540238D01*
X115849285Y-69635476D01*
X115801666Y-69825952D01*
X115801666Y-69968809D01*
X115849285Y-70159285D01*
X115896904Y-70254523D01*
X115992142Y-70349761D01*
X116135000Y-70397380D01*
X116230238Y-70397380D01*
X116373095Y-70349761D01*
X116420714Y-70302142D01*
X116420714Y-69968809D01*
X116230238Y-69968809D01*
X116849285Y-70397380D02*
X116849285Y-69397380D01*
X117420714Y-70397380D01*
X117420714Y-69397380D01*
X117896904Y-70397380D02*
X117896904Y-69397380D01*
X118135000Y-69397380D01*
X118277857Y-69445000D01*
X118373095Y-69540238D01*
X118420714Y-69635476D01*
X118468333Y-69825952D01*
X118468333Y-69968809D01*
X118420714Y-70159285D01*
X118373095Y-70254523D01*
X118277857Y-70349761D01*
X118135000Y-70397380D01*
X117896904Y-70397380D01*
X116468333Y-75502142D02*
X116420714Y-75549761D01*
X116277857Y-75597380D01*
X116182619Y-75597380D01*
X116039761Y-75549761D01*
X115944523Y-75454523D01*
X115896904Y-75359285D01*
X115849285Y-75168809D01*
X115849285Y-75025952D01*
X115896904Y-74835476D01*
X115944523Y-74740238D01*
X116039761Y-74645000D01*
X116182619Y-74597380D01*
X116277857Y-74597380D01*
X116420714Y-74645000D01*
X116468333Y-74692619D01*
X117468333Y-75502142D02*
X117420714Y-75549761D01*
X117277857Y-75597380D01*
X117182619Y-75597380D01*
X117039761Y-75549761D01*
X116944523Y-75454523D01*
X116896904Y-75359285D01*
X116849285Y-75168809D01*
X116849285Y-75025952D01*
X116896904Y-74835476D01*
X116944523Y-74740238D01*
X117039761Y-74645000D01*
X117182619Y-74597380D01*
X117277857Y-74597380D01*
X117420714Y-74645000D01*
X117468333Y-74692619D01*
X117849285Y-74692619D02*
X117896904Y-74645000D01*
X117992142Y-74597380D01*
X118230238Y-74597380D01*
X118325476Y-74645000D01*
X118373095Y-74692619D01*
X118420714Y-74787857D01*
X118420714Y-74883095D01*
X118373095Y-75025952D01*
X117801666Y-75597380D01*
X118420714Y-75597380D01*
X115854047Y-65397380D02*
X115854047Y-64397380D01*
X116092142Y-64397380D01*
X116235000Y-64445000D01*
X116330238Y-64540238D01*
X116377857Y-64635476D01*
X116425476Y-64825952D01*
X116425476Y-64968809D01*
X116377857Y-65159285D01*
X116330238Y-65254523D01*
X116235000Y-65349761D01*
X116092142Y-65397380D01*
X115854047Y-65397380D01*
X116854047Y-65016428D02*
X117615952Y-65016428D01*
X115901666Y-61797380D02*
X116235000Y-62797380D01*
X116568333Y-61797380D01*
X117235000Y-62273571D02*
X117377857Y-62321190D01*
X117425476Y-62368809D01*
X117473095Y-62464047D01*
X117473095Y-62606904D01*
X117425476Y-62702142D01*
X117377857Y-62749761D01*
X117282619Y-62797380D01*
X116901666Y-62797380D01*
X116901666Y-61797380D01*
X117235000Y-61797380D01*
X117330238Y-61845000D01*
X117377857Y-61892619D01*
X117425476Y-61987857D01*
X117425476Y-62083095D01*
X117377857Y-62178333D01*
X117330238Y-62225952D01*
X117235000Y-62273571D01*
X116901666Y-62273571D01*
X117901666Y-61797380D02*
X117901666Y-62606904D01*
X117949285Y-62702142D01*
X117996904Y-62749761D01*
X118092142Y-62797380D01*
X118282619Y-62797380D01*
X118377857Y-62749761D01*
X118425476Y-62702142D01*
X118473095Y-62606904D01*
X118473095Y-61797380D01*
X118901666Y-62749761D02*
X119044523Y-62797380D01*
X119282619Y-62797380D01*
X119377857Y-62749761D01*
X119425476Y-62702142D01*
X119473095Y-62606904D01*
X119473095Y-62511666D01*
X119425476Y-62416428D01*
X119377857Y-62368809D01*
X119282619Y-62321190D01*
X119092142Y-62273571D01*
X118996904Y-62225952D01*
X118949285Y-62178333D01*
X118901666Y-62083095D01*
X118901666Y-61987857D01*
X118949285Y-61892619D01*
X118996904Y-61845000D01*
X119092142Y-61797380D01*
X119330238Y-61797380D01*
X119473095Y-61845000D01*
X116373095Y-77245000D02*
X116277857Y-77197380D01*
X116135000Y-77197380D01*
X115992142Y-77245000D01*
X115896904Y-77340238D01*
X115849285Y-77435476D01*
X115801666Y-77625952D01*
X115801666Y-77768809D01*
X115849285Y-77959285D01*
X115896904Y-78054523D01*
X115992142Y-78149761D01*
X116135000Y-78197380D01*
X116230238Y-78197380D01*
X116373095Y-78149761D01*
X116420714Y-78102142D01*
X116420714Y-77768809D01*
X116230238Y-77768809D01*
X116849285Y-78197380D02*
X116849285Y-77197380D01*
X117420714Y-78197380D01*
X117420714Y-77197380D01*
X117896904Y-78197380D02*
X117896904Y-77197380D01*
X118135000Y-77197380D01*
X118277857Y-77245000D01*
X118373095Y-77340238D01*
X118420714Y-77435476D01*
X118468333Y-77625952D01*
X118468333Y-77768809D01*
X118420714Y-77959285D01*
X118373095Y-78054523D01*
X118277857Y-78149761D01*
X118135000Y-78197380D01*
X117896904Y-78197380D01*
X115854047Y-67997380D02*
X115854047Y-66997380D01*
X116092142Y-66997380D01*
X116235000Y-67045000D01*
X116330238Y-67140238D01*
X116377857Y-67235476D01*
X116425476Y-67425952D01*
X116425476Y-67568809D01*
X116377857Y-67759285D01*
X116330238Y-67854523D01*
X116235000Y-67949761D01*
X116092142Y-67997380D01*
X115854047Y-67997380D01*
X116854047Y-67616428D02*
X117615952Y-67616428D01*
X117235000Y-67997380D02*
X117235000Y-67235476D01*
%TO.C,R39*%
X82620214Y-61499916D02*
X82286881Y-61023726D01*
X82048786Y-61499916D02*
X82048786Y-60499916D01*
X82429738Y-60499916D01*
X82524976Y-60547536D01*
X82572595Y-60595155D01*
X82620214Y-60690393D01*
X82620214Y-60833250D01*
X82572595Y-60928488D01*
X82524976Y-60976107D01*
X82429738Y-61023726D01*
X82048786Y-61023726D01*
X82953548Y-60499916D02*
X83572595Y-60499916D01*
X83239262Y-60880869D01*
X83382119Y-60880869D01*
X83477357Y-60928488D01*
X83524976Y-60976107D01*
X83572595Y-61071345D01*
X83572595Y-61309440D01*
X83524976Y-61404678D01*
X83477357Y-61452297D01*
X83382119Y-61499916D01*
X83096405Y-61499916D01*
X83001167Y-61452297D01*
X82953548Y-61404678D01*
X84048786Y-61499916D02*
X84239262Y-61499916D01*
X84334500Y-61452297D01*
X84382119Y-61404678D01*
X84477357Y-61261821D01*
X84524976Y-61071345D01*
X84524976Y-60690393D01*
X84477357Y-60595155D01*
X84429738Y-60547536D01*
X84334500Y-60499916D01*
X84144024Y-60499916D01*
X84048786Y-60547536D01*
X84001167Y-60595155D01*
X83953548Y-60690393D01*
X83953548Y-60928488D01*
X84001167Y-61023726D01*
X84048786Y-61071345D01*
X84144024Y-61118964D01*
X84334500Y-61118964D01*
X84429738Y-61071345D01*
X84477357Y-61023726D01*
X84524976Y-60928488D01*
%TO.C,REF\u002A\u002A*%
X34966666Y-120162380D02*
X34633333Y-119686190D01*
X34395238Y-120162380D02*
X34395238Y-119162380D01*
X34776190Y-119162380D01*
X34871428Y-119210000D01*
X34919047Y-119257619D01*
X34966666Y-119352857D01*
X34966666Y-119495714D01*
X34919047Y-119590952D01*
X34871428Y-119638571D01*
X34776190Y-119686190D01*
X34395238Y-119686190D01*
X35395238Y-119638571D02*
X35728571Y-119638571D01*
X35871428Y-120162380D02*
X35395238Y-120162380D01*
X35395238Y-119162380D01*
X35871428Y-119162380D01*
X36633333Y-119638571D02*
X36300000Y-119638571D01*
X36300000Y-120162380D02*
X36300000Y-119162380D01*
X36776190Y-119162380D01*
X37300000Y-119162380D02*
X37300000Y-119400476D01*
X37061904Y-119305238D02*
X37300000Y-119400476D01*
X37538095Y-119305238D01*
X37157142Y-119590952D02*
X37300000Y-119400476D01*
X37442857Y-119590952D01*
X38061904Y-119162380D02*
X38061904Y-119400476D01*
X37823809Y-119305238D02*
X38061904Y-119400476D01*
X38300000Y-119305238D01*
X37919047Y-119590952D02*
X38061904Y-119400476D01*
X38204761Y-119590952D01*
%TO.C,C26*%
X89967969Y-90623106D02*
X89967969Y-90690450D01*
X89900625Y-90825137D01*
X89833282Y-90892480D01*
X89698595Y-90959824D01*
X89563908Y-90959824D01*
X89462893Y-90926152D01*
X89294534Y-90825137D01*
X89193519Y-90724122D01*
X89092503Y-90555763D01*
X89058832Y-90454748D01*
X89058832Y-90320061D01*
X89126175Y-90185374D01*
X89193519Y-90118030D01*
X89328206Y-90050687D01*
X89395549Y-90050687D01*
X89664923Y-89781312D02*
X89664923Y-89713969D01*
X89698595Y-89612954D01*
X89866954Y-89444595D01*
X89967969Y-89410923D01*
X90035312Y-89410923D01*
X90136328Y-89444595D01*
X90203671Y-89511938D01*
X90271015Y-89646625D01*
X90271015Y-90454748D01*
X90708748Y-90017015D01*
X90607732Y-88703816D02*
X90473045Y-88838503D01*
X90439374Y-88939519D01*
X90439374Y-89006862D01*
X90473045Y-89175221D01*
X90574061Y-89343580D01*
X90843435Y-89612954D01*
X90944450Y-89646625D01*
X91011793Y-89646625D01*
X91112809Y-89612954D01*
X91247496Y-89478267D01*
X91281167Y-89377251D01*
X91281167Y-89309908D01*
X91247496Y-89208893D01*
X91079137Y-89040534D01*
X90978122Y-89006862D01*
X90910778Y-89006862D01*
X90809763Y-89040534D01*
X90675076Y-89175221D01*
X90641404Y-89276236D01*
X90641404Y-89343580D01*
X90675076Y-89444595D01*
%TO.C,U16*%
X75447380Y-95863095D02*
X76256904Y-95863095D01*
X76352142Y-95815476D01*
X76399761Y-95767857D01*
X76447380Y-95672619D01*
X76447380Y-95482142D01*
X76399761Y-95386904D01*
X76352142Y-95339285D01*
X76256904Y-95291666D01*
X75447380Y-95291666D01*
X76447380Y-94291666D02*
X76447380Y-94863095D01*
X76447380Y-94577380D02*
X75447380Y-94577380D01*
X75590238Y-94672619D01*
X75685476Y-94767857D01*
X75733095Y-94863095D01*
X75447380Y-93434523D02*
X75447380Y-93625000D01*
X75495000Y-93720238D01*
X75542619Y-93767857D01*
X75685476Y-93863095D01*
X75875952Y-93910714D01*
X76256904Y-93910714D01*
X76352142Y-93863095D01*
X76399761Y-93815476D01*
X76447380Y-93720238D01*
X76447380Y-93529761D01*
X76399761Y-93434523D01*
X76352142Y-93386904D01*
X76256904Y-93339285D01*
X76018809Y-93339285D01*
X75923571Y-93386904D01*
X75875952Y-93434523D01*
X75828333Y-93529761D01*
X75828333Y-93720238D01*
X75875952Y-93815476D01*
X75923571Y-93863095D01*
X76018809Y-93910714D01*
%TO.C,C14*%
X104132142Y-65922142D02*
X104084523Y-65969761D01*
X103941666Y-66017380D01*
X103846428Y-66017380D01*
X103703571Y-65969761D01*
X103608333Y-65874523D01*
X103560714Y-65779285D01*
X103513095Y-65588809D01*
X103513095Y-65445952D01*
X103560714Y-65255476D01*
X103608333Y-65160238D01*
X103703571Y-65065000D01*
X103846428Y-65017380D01*
X103941666Y-65017380D01*
X104084523Y-65065000D01*
X104132142Y-65112619D01*
X105084523Y-66017380D02*
X104513095Y-66017380D01*
X104798809Y-66017380D02*
X104798809Y-65017380D01*
X104703571Y-65160238D01*
X104608333Y-65255476D01*
X104513095Y-65303095D01*
X105941666Y-65350714D02*
X105941666Y-66017380D01*
X105703571Y-64969761D02*
X105465476Y-65684047D01*
X106084523Y-65684047D01*
%TO.C,C11*%
X48677142Y-74257969D02*
X48724761Y-74305588D01*
X48772380Y-74448445D01*
X48772380Y-74543683D01*
X48724761Y-74686540D01*
X48629523Y-74781778D01*
X48534285Y-74829397D01*
X48343809Y-74877016D01*
X48200952Y-74877016D01*
X48010476Y-74829397D01*
X47915238Y-74781778D01*
X47820000Y-74686540D01*
X47772380Y-74543683D01*
X47772380Y-74448445D01*
X47820000Y-74305588D01*
X47867619Y-74257969D01*
X48772380Y-73305588D02*
X48772380Y-73877016D01*
X48772380Y-73591302D02*
X47772380Y-73591302D01*
X47915238Y-73686540D01*
X48010476Y-73781778D01*
X48058095Y-73877016D01*
X48772380Y-72353207D02*
X48772380Y-72924635D01*
X48772380Y-72638921D02*
X47772380Y-72638921D01*
X47915238Y-72734159D01*
X48010476Y-72829397D01*
X48058095Y-72924635D01*
%TO.C,J2*%
X47926666Y-52527380D02*
X47926666Y-53241666D01*
X47879047Y-53384523D01*
X47783809Y-53479761D01*
X47640952Y-53527380D01*
X47545714Y-53527380D01*
X48355238Y-52622619D02*
X48402857Y-52575000D01*
X48498095Y-52527380D01*
X48736190Y-52527380D01*
X48831428Y-52575000D01*
X48879047Y-52622619D01*
X48926666Y-52717857D01*
X48926666Y-52813095D01*
X48879047Y-52955952D01*
X48307619Y-53527380D01*
X48926666Y-53527380D01*
X53188571Y-67682142D02*
X54331428Y-67682142D01*
X42188571Y-67682142D02*
X43331428Y-67682142D01*
X42760000Y-68253571D02*
X42760000Y-67110714D01*
%TO.C,R12*%
X70754642Y-87287380D02*
X70421309Y-86811190D01*
X70183214Y-87287380D02*
X70183214Y-86287380D01*
X70564166Y-86287380D01*
X70659404Y-86335000D01*
X70707023Y-86382619D01*
X70754642Y-86477857D01*
X70754642Y-86620714D01*
X70707023Y-86715952D01*
X70659404Y-86763571D01*
X70564166Y-86811190D01*
X70183214Y-86811190D01*
X71707023Y-87287380D02*
X71135595Y-87287380D01*
X71421309Y-87287380D02*
X71421309Y-86287380D01*
X71326071Y-86430238D01*
X71230833Y-86525476D01*
X71135595Y-86573095D01*
X72087976Y-86382619D02*
X72135595Y-86335000D01*
X72230833Y-86287380D01*
X72468928Y-86287380D01*
X72564166Y-86335000D01*
X72611785Y-86382619D01*
X72659404Y-86477857D01*
X72659404Y-86573095D01*
X72611785Y-86715952D01*
X72040357Y-87287380D01*
X72659404Y-87287380D01*
%TO.C,J6*%
X80946666Y-114022380D02*
X80946666Y-114736666D01*
X80899047Y-114879523D01*
X80803809Y-114974761D01*
X80660952Y-115022380D01*
X80565714Y-115022380D01*
X81851428Y-114022380D02*
X81660952Y-114022380D01*
X81565714Y-114070000D01*
X81518095Y-114117619D01*
X81422857Y-114260476D01*
X81375238Y-114450952D01*
X81375238Y-114831904D01*
X81422857Y-114927142D01*
X81470476Y-114974761D01*
X81565714Y-115022380D01*
X81756190Y-115022380D01*
X81851428Y-114974761D01*
X81899047Y-114927142D01*
X81946666Y-114831904D01*
X81946666Y-114593809D01*
X81899047Y-114498571D01*
X81851428Y-114450952D01*
X81756190Y-114403333D01*
X81565714Y-114403333D01*
X81470476Y-114450952D01*
X81422857Y-114498571D01*
X81375238Y-114593809D01*
%TO.C,R24*%
X69032380Y-112402857D02*
X68556190Y-112736190D01*
X69032380Y-112974285D02*
X68032380Y-112974285D01*
X68032380Y-112593333D01*
X68080000Y-112498095D01*
X68127619Y-112450476D01*
X68222857Y-112402857D01*
X68365714Y-112402857D01*
X68460952Y-112450476D01*
X68508571Y-112498095D01*
X68556190Y-112593333D01*
X68556190Y-112974285D01*
X68127619Y-112021904D02*
X68080000Y-111974285D01*
X68032380Y-111879047D01*
X68032380Y-111640952D01*
X68080000Y-111545714D01*
X68127619Y-111498095D01*
X68222857Y-111450476D01*
X68318095Y-111450476D01*
X68460952Y-111498095D01*
X69032380Y-112069523D01*
X69032380Y-111450476D01*
X68365714Y-110593333D02*
X69032380Y-110593333D01*
X67984761Y-110831428D02*
X68699047Y-111069523D01*
X68699047Y-110450476D01*
%TO.C,SW5*%
X105346666Y-113146761D02*
X105489523Y-113194380D01*
X105727619Y-113194380D01*
X105822857Y-113146761D01*
X105870476Y-113099142D01*
X105918095Y-113003904D01*
X105918095Y-112908666D01*
X105870476Y-112813428D01*
X105822857Y-112765809D01*
X105727619Y-112718190D01*
X105537142Y-112670571D01*
X105441904Y-112622952D01*
X105394285Y-112575333D01*
X105346666Y-112480095D01*
X105346666Y-112384857D01*
X105394285Y-112289619D01*
X105441904Y-112242000D01*
X105537142Y-112194380D01*
X105775238Y-112194380D01*
X105918095Y-112242000D01*
X106251428Y-112194380D02*
X106489523Y-113194380D01*
X106680000Y-112480095D01*
X106870476Y-113194380D01*
X107108571Y-112194380D01*
X107965714Y-112194380D02*
X107489523Y-112194380D01*
X107441904Y-112670571D01*
X107489523Y-112622952D01*
X107584761Y-112575333D01*
X107822857Y-112575333D01*
X107918095Y-112622952D01*
X107965714Y-112670571D01*
X108013333Y-112765809D01*
X108013333Y-113003904D01*
X107965714Y-113099142D01*
X107918095Y-113146761D01*
X107822857Y-113194380D01*
X107584761Y-113194380D01*
X107489523Y-113146761D01*
X107441904Y-113099142D01*
%TO.C,R13*%
X65397142Y-70777380D02*
X65063809Y-70301190D01*
X64825714Y-70777380D02*
X64825714Y-69777380D01*
X65206666Y-69777380D01*
X65301904Y-69825000D01*
X65349523Y-69872619D01*
X65397142Y-69967857D01*
X65397142Y-70110714D01*
X65349523Y-70205952D01*
X65301904Y-70253571D01*
X65206666Y-70301190D01*
X64825714Y-70301190D01*
X66349523Y-70777380D02*
X65778095Y-70777380D01*
X66063809Y-70777380D02*
X66063809Y-69777380D01*
X65968571Y-69920238D01*
X65873333Y-70015476D01*
X65778095Y-70063095D01*
X66682857Y-69777380D02*
X67301904Y-69777380D01*
X66968571Y-70158333D01*
X67111428Y-70158333D01*
X67206666Y-70205952D01*
X67254285Y-70253571D01*
X67301904Y-70348809D01*
X67301904Y-70586904D01*
X67254285Y-70682142D01*
X67206666Y-70729761D01*
X67111428Y-70777380D01*
X66825714Y-70777380D01*
X66730476Y-70729761D01*
X66682857Y-70682142D01*
%TO.C,R46*%
X77922380Y-98432857D02*
X77446190Y-98766190D01*
X77922380Y-99004285D02*
X76922380Y-99004285D01*
X76922380Y-98623333D01*
X76970000Y-98528095D01*
X77017619Y-98480476D01*
X77112857Y-98432857D01*
X77255714Y-98432857D01*
X77350952Y-98480476D01*
X77398571Y-98528095D01*
X77446190Y-98623333D01*
X77446190Y-99004285D01*
X77255714Y-97575714D02*
X77922380Y-97575714D01*
X76874761Y-97813809D02*
X77589047Y-98051904D01*
X77589047Y-97432857D01*
X76922380Y-96623333D02*
X76922380Y-96813809D01*
X76970000Y-96909047D01*
X77017619Y-96956666D01*
X77160476Y-97051904D01*
X77350952Y-97099523D01*
X77731904Y-97099523D01*
X77827142Y-97051904D01*
X77874761Y-97004285D01*
X77922380Y-96909047D01*
X77922380Y-96718571D01*
X77874761Y-96623333D01*
X77827142Y-96575714D01*
X77731904Y-96528095D01*
X77493809Y-96528095D01*
X77398571Y-96575714D01*
X77350952Y-96623333D01*
X77303333Y-96718571D01*
X77303333Y-96909047D01*
X77350952Y-97004285D01*
X77398571Y-97051904D01*
X77493809Y-97099523D01*
%TO.C,R23*%
X56967380Y-112402857D02*
X56491190Y-112736190D01*
X56967380Y-112974285D02*
X55967380Y-112974285D01*
X55967380Y-112593333D01*
X56015000Y-112498095D01*
X56062619Y-112450476D01*
X56157857Y-112402857D01*
X56300714Y-112402857D01*
X56395952Y-112450476D01*
X56443571Y-112498095D01*
X56491190Y-112593333D01*
X56491190Y-112974285D01*
X56062619Y-112021904D02*
X56015000Y-111974285D01*
X55967380Y-111879047D01*
X55967380Y-111640952D01*
X56015000Y-111545714D01*
X56062619Y-111498095D01*
X56157857Y-111450476D01*
X56253095Y-111450476D01*
X56395952Y-111498095D01*
X56967380Y-112069523D01*
X56967380Y-111450476D01*
X55967380Y-111117142D02*
X55967380Y-110498095D01*
X56348333Y-110831428D01*
X56348333Y-110688571D01*
X56395952Y-110593333D01*
X56443571Y-110545714D01*
X56538809Y-110498095D01*
X56776904Y-110498095D01*
X56872142Y-110545714D01*
X56919761Y-110593333D01*
X56967380Y-110688571D01*
X56967380Y-110974285D01*
X56919761Y-111069523D01*
X56872142Y-111117142D01*
%TO.C,MD1*%
X61486205Y-68381121D02*
X60698803Y-68381121D01*
X61261233Y-68118654D01*
X60698803Y-67856187D01*
X61486205Y-67856187D01*
X61486205Y-67481233D02*
X60698803Y-67481233D01*
X60698803Y-67293757D01*
X60736299Y-67181271D01*
X60811289Y-67106280D01*
X60886280Y-67068785D01*
X61036261Y-67031289D01*
X61148747Y-67031289D01*
X61298729Y-67068785D01*
X61373719Y-67106280D01*
X61448710Y-67181271D01*
X61486205Y-67293757D01*
X61486205Y-67481233D01*
X61486205Y-66281383D02*
X61486205Y-66731327D01*
X61486205Y-66506355D02*
X60698803Y-66506355D01*
X60811289Y-66581345D01*
X60886280Y-66656336D01*
X60923775Y-66731327D01*
%TO.C,R49*%
X98818450Y-83446687D02*
X98717435Y-84019106D01*
X99222511Y-83850748D02*
X98515404Y-84557854D01*
X98246030Y-84288480D01*
X98212358Y-84187465D01*
X98212358Y-84120122D01*
X98246030Y-84019106D01*
X98347045Y-83918091D01*
X98448061Y-83884419D01*
X98515404Y-83884419D01*
X98616419Y-83918091D01*
X98885793Y-84187465D01*
X97740954Y-83312000D02*
X98212358Y-82840595D01*
X97639938Y-83749732D02*
X98313374Y-83413015D01*
X97875641Y-82975282D01*
X97808297Y-82436534D02*
X97673610Y-82301847D01*
X97572595Y-82268175D01*
X97505251Y-82268175D01*
X97336893Y-82301847D01*
X97168534Y-82402862D01*
X96899160Y-82672236D01*
X96865488Y-82773251D01*
X96865488Y-82840595D01*
X96899160Y-82941610D01*
X97033847Y-83076297D01*
X97134862Y-83109969D01*
X97202206Y-83109969D01*
X97303221Y-83076297D01*
X97471580Y-82907938D01*
X97505251Y-82806923D01*
X97505251Y-82739580D01*
X97471580Y-82638564D01*
X97336893Y-82503877D01*
X97235877Y-82470206D01*
X97168534Y-82470206D01*
X97067519Y-82503877D01*
%TO.C,Q4*%
X75757619Y-112720238D02*
X75710000Y-112815476D01*
X75614761Y-112910714D01*
X75471904Y-113053571D01*
X75424285Y-113148809D01*
X75424285Y-113244047D01*
X75662380Y-113196428D02*
X75614761Y-113291666D01*
X75519523Y-113386904D01*
X75329047Y-113434523D01*
X74995714Y-113434523D01*
X74805238Y-113386904D01*
X74710000Y-113291666D01*
X74662380Y-113196428D01*
X74662380Y-113005952D01*
X74710000Y-112910714D01*
X74805238Y-112815476D01*
X74995714Y-112767857D01*
X75329047Y-112767857D01*
X75519523Y-112815476D01*
X75614761Y-112910714D01*
X75662380Y-113005952D01*
X75662380Y-113196428D01*
X74995714Y-111910714D02*
X75662380Y-111910714D01*
X74614761Y-112148809D02*
X75329047Y-112386904D01*
X75329047Y-111767857D01*
%TO.C,D15*%
X128087380Y-104084285D02*
X127087380Y-104084285D01*
X127087380Y-103846190D01*
X127135000Y-103703333D01*
X127230238Y-103608095D01*
X127325476Y-103560476D01*
X127515952Y-103512857D01*
X127658809Y-103512857D01*
X127849285Y-103560476D01*
X127944523Y-103608095D01*
X128039761Y-103703333D01*
X128087380Y-103846190D01*
X128087380Y-104084285D01*
X128087380Y-102560476D02*
X128087380Y-103131904D01*
X128087380Y-102846190D02*
X127087380Y-102846190D01*
X127230238Y-102941428D01*
X127325476Y-103036666D01*
X127373095Y-103131904D01*
X127087380Y-101655714D02*
X127087380Y-102131904D01*
X127563571Y-102179523D01*
X127515952Y-102131904D01*
X127468333Y-102036666D01*
X127468333Y-101798571D01*
X127515952Y-101703333D01*
X127563571Y-101655714D01*
X127658809Y-101608095D01*
X127896904Y-101608095D01*
X127992142Y-101655714D01*
X128039761Y-101703333D01*
X128087380Y-101798571D01*
X128087380Y-102036666D01*
X128039761Y-102131904D01*
X127992142Y-102179523D01*
X126237023Y-102752318D02*
X126237023Y-103752318D01*
X125856070Y-103752318D01*
X125760832Y-103704699D01*
X125713213Y-103657079D01*
X125665594Y-103561841D01*
X125665594Y-103418984D01*
X125713213Y-103323746D01*
X125760832Y-103276127D01*
X125856070Y-103228508D01*
X126237023Y-103228508D01*
X124903689Y-103276127D02*
X124760832Y-103228508D01*
X124713213Y-103180889D01*
X124665594Y-103085651D01*
X124665594Y-102942794D01*
X124713213Y-102847556D01*
X124760832Y-102799937D01*
X124856070Y-102752318D01*
X125237023Y-102752318D01*
X125237023Y-103752318D01*
X124903689Y-103752318D01*
X124808451Y-103704699D01*
X124760832Y-103657079D01*
X124713213Y-103561841D01*
X124713213Y-103466603D01*
X124760832Y-103371365D01*
X124808451Y-103323746D01*
X124903689Y-103276127D01*
X125237023Y-103276127D01*
X124332261Y-103752318D02*
X123713213Y-103752318D01*
X124046547Y-103371365D01*
X123903689Y-103371365D01*
X123808451Y-103323746D01*
X123760832Y-103276127D01*
X123713213Y-103180889D01*
X123713213Y-102942794D01*
X123760832Y-102847556D01*
X123808451Y-102799937D01*
X123903689Y-102752318D01*
X124189404Y-102752318D01*
X124284642Y-102799937D01*
X124332261Y-102847556D01*
%TO.C,D10*%
X85145714Y-62522380D02*
X85145714Y-61522380D01*
X85383809Y-61522380D01*
X85526666Y-61570000D01*
X85621904Y-61665238D01*
X85669523Y-61760476D01*
X85717142Y-61950952D01*
X85717142Y-62093809D01*
X85669523Y-62284285D01*
X85621904Y-62379523D01*
X85526666Y-62474761D01*
X85383809Y-62522380D01*
X85145714Y-62522380D01*
X86669523Y-62522380D02*
X86098095Y-62522380D01*
X86383809Y-62522380D02*
X86383809Y-61522380D01*
X86288571Y-61665238D01*
X86193333Y-61760476D01*
X86098095Y-61808095D01*
X87288571Y-61522380D02*
X87383809Y-61522380D01*
X87479047Y-61570000D01*
X87526666Y-61617619D01*
X87574285Y-61712857D01*
X87621904Y-61903333D01*
X87621904Y-62141428D01*
X87574285Y-62331904D01*
X87526666Y-62427142D01*
X87479047Y-62474761D01*
X87383809Y-62522380D01*
X87288571Y-62522380D01*
X87193333Y-62474761D01*
X87145714Y-62427142D01*
X87098095Y-62331904D01*
X87050476Y-62141428D01*
X87050476Y-61903333D01*
X87098095Y-61712857D01*
X87145714Y-61617619D01*
X87193333Y-61570000D01*
X87288571Y-61522380D01*
X86169523Y-62952380D02*
X85693333Y-62952380D01*
X85645714Y-63428571D01*
X85693333Y-63380952D01*
X85788571Y-63333333D01*
X86026666Y-63333333D01*
X86121904Y-63380952D01*
X86169523Y-63428571D01*
X86217142Y-63523809D01*
X86217142Y-63761904D01*
X86169523Y-63857142D01*
X86121904Y-63904761D01*
X86026666Y-63952380D01*
X85788571Y-63952380D01*
X85693333Y-63904761D01*
X85645714Y-63857142D01*
X86502857Y-62952380D02*
X86836190Y-63952380D01*
X87169523Y-62952380D01*
%TO.C,D5*%
X42362380Y-91543094D02*
X41362380Y-91543094D01*
X41362380Y-91304999D01*
X41410000Y-91162141D01*
X41505238Y-91066903D01*
X41600476Y-91019284D01*
X41790952Y-90971665D01*
X41933809Y-90971665D01*
X42124285Y-91019284D01*
X42219523Y-91066903D01*
X42314761Y-91162141D01*
X42362380Y-91304999D01*
X42362380Y-91543094D01*
X41362380Y-90066903D02*
X41362380Y-90543094D01*
X41838571Y-90590713D01*
X41790952Y-90543094D01*
X41743333Y-90447856D01*
X41743333Y-90209760D01*
X41790952Y-90114522D01*
X41838571Y-90066903D01*
X41933809Y-90019284D01*
X42171904Y-90019284D01*
X42267142Y-90066903D01*
X42314761Y-90114522D01*
X42362380Y-90209760D01*
X42362380Y-90447856D01*
X42314761Y-90543094D01*
X42267142Y-90590713D01*
%TO.C,U15*%
X69881904Y-101687380D02*
X69881904Y-102496904D01*
X69929523Y-102592142D01*
X69977142Y-102639761D01*
X70072380Y-102687380D01*
X70262857Y-102687380D01*
X70358095Y-102639761D01*
X70405714Y-102592142D01*
X70453333Y-102496904D01*
X70453333Y-101687380D01*
X71453333Y-102687380D02*
X70881904Y-102687380D01*
X71167619Y-102687380D02*
X71167619Y-101687380D01*
X71072380Y-101830238D01*
X70977142Y-101925476D01*
X70881904Y-101973095D01*
X72358095Y-101687380D02*
X71881904Y-101687380D01*
X71834285Y-102163571D01*
X71881904Y-102115952D01*
X71977142Y-102068333D01*
X72215238Y-102068333D01*
X72310476Y-102115952D01*
X72358095Y-102163571D01*
X72405714Y-102258809D01*
X72405714Y-102496904D01*
X72358095Y-102592142D01*
X72310476Y-102639761D01*
X72215238Y-102687380D01*
X71977142Y-102687380D01*
X71881904Y-102639761D01*
X71834285Y-102592142D01*
%TO.C,U4*%
X37552380Y-91566904D02*
X38361904Y-91566904D01*
X38457142Y-91519285D01*
X38504761Y-91471666D01*
X38552380Y-91376428D01*
X38552380Y-91185952D01*
X38504761Y-91090714D01*
X38457142Y-91043095D01*
X38361904Y-90995476D01*
X37552380Y-90995476D01*
X37885714Y-90090714D02*
X38552380Y-90090714D01*
X37504761Y-90328809D02*
X38219047Y-90566904D01*
X38219047Y-89947857D01*
%TO.C,C32*%
X103098182Y-100214130D02*
X103050563Y-100261749D01*
X102907706Y-100309368D01*
X102812468Y-100309368D01*
X102669611Y-100261749D01*
X102574373Y-100166511D01*
X102526754Y-100071273D01*
X102479135Y-99880797D01*
X102479135Y-99737940D01*
X102526754Y-99547464D01*
X102574373Y-99452226D01*
X102669611Y-99356988D01*
X102812468Y-99309368D01*
X102907706Y-99309368D01*
X103050563Y-99356988D01*
X103098182Y-99404607D01*
X103431516Y-99309368D02*
X104050563Y-99309368D01*
X103717230Y-99690321D01*
X103860087Y-99690321D01*
X103955325Y-99737940D01*
X104002944Y-99785559D01*
X104050563Y-99880797D01*
X104050563Y-100118892D01*
X104002944Y-100214130D01*
X103955325Y-100261749D01*
X103860087Y-100309368D01*
X103574373Y-100309368D01*
X103479135Y-100261749D01*
X103431516Y-100214130D01*
X104431516Y-99404607D02*
X104479135Y-99356988D01*
X104574373Y-99309368D01*
X104812468Y-99309368D01*
X104907706Y-99356988D01*
X104955325Y-99404607D01*
X105002944Y-99499845D01*
X105002944Y-99595083D01*
X104955325Y-99737940D01*
X104383897Y-100309368D01*
X105002944Y-100309368D01*
%TO.C,C34*%
X120160642Y-113895142D02*
X120113023Y-113942761D01*
X119970166Y-113990380D01*
X119874928Y-113990380D01*
X119732071Y-113942761D01*
X119636833Y-113847523D01*
X119589214Y-113752285D01*
X119541595Y-113561809D01*
X119541595Y-113418952D01*
X119589214Y-113228476D01*
X119636833Y-113133238D01*
X119732071Y-113038000D01*
X119874928Y-112990380D01*
X119970166Y-112990380D01*
X120113023Y-113038000D01*
X120160642Y-113085619D01*
X120493976Y-112990380D02*
X121113023Y-112990380D01*
X120779690Y-113371333D01*
X120922547Y-113371333D01*
X121017785Y-113418952D01*
X121065404Y-113466571D01*
X121113023Y-113561809D01*
X121113023Y-113799904D01*
X121065404Y-113895142D01*
X121017785Y-113942761D01*
X120922547Y-113990380D01*
X120636833Y-113990380D01*
X120541595Y-113942761D01*
X120493976Y-113895142D01*
X121970166Y-113323714D02*
X121970166Y-113990380D01*
X121732071Y-112942761D02*
X121493976Y-113657047D01*
X122113023Y-113657047D01*
D12*
%TO.C,U13*%
X94947619Y-62804523D02*
X94947619Y-63832619D01*
X95008095Y-63953571D01*
X95068571Y-64014047D01*
X95189523Y-64074523D01*
X95431428Y-64074523D01*
X95552380Y-64014047D01*
X95612857Y-63953571D01*
X95673333Y-63832619D01*
X95673333Y-62804523D01*
X96943333Y-64074523D02*
X96217619Y-64074523D01*
X96580476Y-64074523D02*
X96580476Y-62804523D01*
X96459523Y-62985952D01*
X96338571Y-63106904D01*
X96217619Y-63167380D01*
X97366666Y-62804523D02*
X98152857Y-62804523D01*
X97729523Y-63288333D01*
X97910952Y-63288333D01*
X98031904Y-63348809D01*
X98092380Y-63409285D01*
X98152857Y-63530238D01*
X98152857Y-63832619D01*
X98092380Y-63953571D01*
X98031904Y-64014047D01*
X97910952Y-64074523D01*
X97548095Y-64074523D01*
X97427142Y-64014047D01*
X97366666Y-63953571D01*
D10*
%TO.C,R16*%
X79367142Y-56332380D02*
X79033809Y-55856190D01*
X78795714Y-56332380D02*
X78795714Y-55332380D01*
X79176666Y-55332380D01*
X79271904Y-55380000D01*
X79319523Y-55427619D01*
X79367142Y-55522857D01*
X79367142Y-55665714D01*
X79319523Y-55760952D01*
X79271904Y-55808571D01*
X79176666Y-55856190D01*
X78795714Y-55856190D01*
X80319523Y-56332380D02*
X79748095Y-56332380D01*
X80033809Y-56332380D02*
X80033809Y-55332380D01*
X79938571Y-55475238D01*
X79843333Y-55570476D01*
X79748095Y-55618095D01*
X81176666Y-55332380D02*
X80986190Y-55332380D01*
X80890952Y-55380000D01*
X80843333Y-55427619D01*
X80748095Y-55570476D01*
X80700476Y-55760952D01*
X80700476Y-56141904D01*
X80748095Y-56237142D01*
X80795714Y-56284761D01*
X80890952Y-56332380D01*
X81081428Y-56332380D01*
X81176666Y-56284761D01*
X81224285Y-56237142D01*
X81271904Y-56141904D01*
X81271904Y-55903809D01*
X81224285Y-55808571D01*
X81176666Y-55760952D01*
X81081428Y-55713333D01*
X80890952Y-55713333D01*
X80795714Y-55760952D01*
X80748095Y-55808571D01*
X80700476Y-55903809D01*
%TO.C,R43*%
X59682142Y-105227380D02*
X59348809Y-104751190D01*
X59110714Y-105227380D02*
X59110714Y-104227380D01*
X59491666Y-104227380D01*
X59586904Y-104275000D01*
X59634523Y-104322619D01*
X59682142Y-104417857D01*
X59682142Y-104560714D01*
X59634523Y-104655952D01*
X59586904Y-104703571D01*
X59491666Y-104751190D01*
X59110714Y-104751190D01*
X60539285Y-104560714D02*
X60539285Y-105227380D01*
X60301190Y-104179761D02*
X60063095Y-104894047D01*
X60682142Y-104894047D01*
X60967857Y-104227380D02*
X61586904Y-104227380D01*
X61253571Y-104608333D01*
X61396428Y-104608333D01*
X61491666Y-104655952D01*
X61539285Y-104703571D01*
X61586904Y-104798809D01*
X61586904Y-105036904D01*
X61539285Y-105132142D01*
X61491666Y-105179761D01*
X61396428Y-105227380D01*
X61110714Y-105227380D01*
X61015476Y-105179761D01*
X60967857Y-105132142D01*
%TO.C,D12*%
X57602380Y-101244285D02*
X56602380Y-101244285D01*
X56602380Y-101006190D01*
X56650000Y-100863333D01*
X56745238Y-100768095D01*
X56840476Y-100720476D01*
X57030952Y-100672857D01*
X57173809Y-100672857D01*
X57364285Y-100720476D01*
X57459523Y-100768095D01*
X57554761Y-100863333D01*
X57602380Y-101006190D01*
X57602380Y-101244285D01*
X57602380Y-99720476D02*
X57602380Y-100291904D01*
X57602380Y-100006190D02*
X56602380Y-100006190D01*
X56745238Y-100101428D01*
X56840476Y-100196666D01*
X56888095Y-100291904D01*
X56697619Y-99339523D02*
X56650000Y-99291904D01*
X56602380Y-99196666D01*
X56602380Y-98958571D01*
X56650000Y-98863333D01*
X56697619Y-98815714D01*
X56792857Y-98768095D01*
X56888095Y-98768095D01*
X57030952Y-98815714D01*
X57602380Y-99387142D01*
X57602380Y-98768095D01*
%TO.C,R52*%
X105702380Y-110728357D02*
X105226190Y-111061690D01*
X105702380Y-111299785D02*
X104702380Y-111299785D01*
X104702380Y-110918833D01*
X104750000Y-110823595D01*
X104797619Y-110775976D01*
X104892857Y-110728357D01*
X105035714Y-110728357D01*
X105130952Y-110775976D01*
X105178571Y-110823595D01*
X105226190Y-110918833D01*
X105226190Y-111299785D01*
X104702380Y-109823595D02*
X104702380Y-110299785D01*
X105178571Y-110347404D01*
X105130952Y-110299785D01*
X105083333Y-110204547D01*
X105083333Y-109966452D01*
X105130952Y-109871214D01*
X105178571Y-109823595D01*
X105273809Y-109775976D01*
X105511904Y-109775976D01*
X105607142Y-109823595D01*
X105654761Y-109871214D01*
X105702380Y-109966452D01*
X105702380Y-110204547D01*
X105654761Y-110299785D01*
X105607142Y-110347404D01*
X104797619Y-109395023D02*
X104750000Y-109347404D01*
X104702380Y-109252166D01*
X104702380Y-109014071D01*
X104750000Y-108918833D01*
X104797619Y-108871214D01*
X104892857Y-108823595D01*
X104988095Y-108823595D01*
X105130952Y-108871214D01*
X105702380Y-109442642D01*
X105702380Y-108823595D01*
%TO.C,U17*%
X105484028Y-88544902D02*
X106056448Y-87972482D01*
X106090119Y-87871467D01*
X106090119Y-87804124D01*
X106056448Y-87703108D01*
X105921761Y-87568421D01*
X105820745Y-87534750D01*
X105753402Y-87534750D01*
X105652387Y-87568421D01*
X105079967Y-88140841D01*
X105079967Y-86726628D02*
X105484028Y-87130689D01*
X105281997Y-86928658D02*
X104574891Y-87635765D01*
X104743249Y-87602093D01*
X104877936Y-87602093D01*
X104978952Y-87635765D01*
X104137158Y-87198032D02*
X103665753Y-86726628D01*
X104675906Y-86322567D01*
%TO.C,R17*%
X79367142Y-58872380D02*
X79033809Y-58396190D01*
X78795714Y-58872380D02*
X78795714Y-57872380D01*
X79176666Y-57872380D01*
X79271904Y-57920000D01*
X79319523Y-57967619D01*
X79367142Y-58062857D01*
X79367142Y-58205714D01*
X79319523Y-58300952D01*
X79271904Y-58348571D01*
X79176666Y-58396190D01*
X78795714Y-58396190D01*
X80319523Y-58872380D02*
X79748095Y-58872380D01*
X80033809Y-58872380D02*
X80033809Y-57872380D01*
X79938571Y-58015238D01*
X79843333Y-58110476D01*
X79748095Y-58158095D01*
X80652857Y-57872380D02*
X81319523Y-57872380D01*
X80890952Y-58872380D01*
%TO.C,C33*%
X64762142Y-73222142D02*
X64714523Y-73269761D01*
X64571666Y-73317380D01*
X64476428Y-73317380D01*
X64333571Y-73269761D01*
X64238333Y-73174523D01*
X64190714Y-73079285D01*
X64143095Y-72888809D01*
X64143095Y-72745952D01*
X64190714Y-72555476D01*
X64238333Y-72460238D01*
X64333571Y-72365000D01*
X64476428Y-72317380D01*
X64571666Y-72317380D01*
X64714523Y-72365000D01*
X64762142Y-72412619D01*
X65095476Y-72317380D02*
X65714523Y-72317380D01*
X65381190Y-72698333D01*
X65524047Y-72698333D01*
X65619285Y-72745952D01*
X65666904Y-72793571D01*
X65714523Y-72888809D01*
X65714523Y-73126904D01*
X65666904Y-73222142D01*
X65619285Y-73269761D01*
X65524047Y-73317380D01*
X65238333Y-73317380D01*
X65143095Y-73269761D01*
X65095476Y-73222142D01*
X66047857Y-72317380D02*
X66666904Y-72317380D01*
X66333571Y-72698333D01*
X66476428Y-72698333D01*
X66571666Y-72745952D01*
X66619285Y-72793571D01*
X66666904Y-72888809D01*
X66666904Y-73126904D01*
X66619285Y-73222142D01*
X66571666Y-73269761D01*
X66476428Y-73317380D01*
X66190714Y-73317380D01*
X66095476Y-73269761D01*
X66047857Y-73222142D01*
%TO.C,U14*%
X66968048Y-80131431D02*
X66968048Y-80940955D01*
X67015667Y-81036193D01*
X67063286Y-81083812D01*
X67158524Y-81131431D01*
X67349001Y-81131431D01*
X67444239Y-81083812D01*
X67491858Y-81036193D01*
X67539477Y-80940955D01*
X67539477Y-80131431D01*
X68539477Y-81131431D02*
X67968048Y-81131431D01*
X68253763Y-81131431D02*
X68253763Y-80131431D01*
X68158524Y-80274289D01*
X68063286Y-80369527D01*
X67968048Y-80417146D01*
X69396620Y-80464765D02*
X69396620Y-81131431D01*
X69158524Y-80083812D02*
X68920429Y-80798098D01*
X69539477Y-80798098D01*
%TO.C,D7*%
X83081904Y-58872380D02*
X83081904Y-57872380D01*
X83320000Y-57872380D01*
X83462857Y-57920000D01*
X83558095Y-58015238D01*
X83605714Y-58110476D01*
X83653333Y-58300952D01*
X83653333Y-58443809D01*
X83605714Y-58634285D01*
X83558095Y-58729523D01*
X83462857Y-58824761D01*
X83320000Y-58872380D01*
X83081904Y-58872380D01*
X83986666Y-57872380D02*
X84653333Y-57872380D01*
X84224761Y-58872380D01*
%TO.C,R36*%
X86987142Y-114752380D02*
X86653809Y-114276190D01*
X86415714Y-114752380D02*
X86415714Y-113752380D01*
X86796666Y-113752380D01*
X86891904Y-113800000D01*
X86939523Y-113847619D01*
X86987142Y-113942857D01*
X86987142Y-114085714D01*
X86939523Y-114180952D01*
X86891904Y-114228571D01*
X86796666Y-114276190D01*
X86415714Y-114276190D01*
X87320476Y-113752380D02*
X87939523Y-113752380D01*
X87606190Y-114133333D01*
X87749047Y-114133333D01*
X87844285Y-114180952D01*
X87891904Y-114228571D01*
X87939523Y-114323809D01*
X87939523Y-114561904D01*
X87891904Y-114657142D01*
X87844285Y-114704761D01*
X87749047Y-114752380D01*
X87463333Y-114752380D01*
X87368095Y-114704761D01*
X87320476Y-114657142D01*
X88796666Y-113752380D02*
X88606190Y-113752380D01*
X88510952Y-113800000D01*
X88463333Y-113847619D01*
X88368095Y-113990476D01*
X88320476Y-114180952D01*
X88320476Y-114561904D01*
X88368095Y-114657142D01*
X88415714Y-114704761D01*
X88510952Y-114752380D01*
X88701428Y-114752380D01*
X88796666Y-114704761D01*
X88844285Y-114657142D01*
X88891904Y-114561904D01*
X88891904Y-114323809D01*
X88844285Y-114228571D01*
X88796666Y-114180952D01*
X88701428Y-114133333D01*
X88510952Y-114133333D01*
X88415714Y-114180952D01*
X88368095Y-114228571D01*
X88320476Y-114323809D01*
%TO.C,R41*%
X95519642Y-67602380D02*
X95186309Y-67126190D01*
X94948214Y-67602380D02*
X94948214Y-66602380D01*
X95329166Y-66602380D01*
X95424404Y-66650000D01*
X95472023Y-66697619D01*
X95519642Y-66792857D01*
X95519642Y-66935714D01*
X95472023Y-67030952D01*
X95424404Y-67078571D01*
X95329166Y-67126190D01*
X94948214Y-67126190D01*
X96376785Y-66935714D02*
X96376785Y-67602380D01*
X96138690Y-66554761D02*
X95900595Y-67269047D01*
X96519642Y-67269047D01*
X97424404Y-67602380D02*
X96852976Y-67602380D01*
X97138690Y-67602380D02*
X97138690Y-66602380D01*
X97043452Y-66745238D01*
X96948214Y-66840476D01*
X96852976Y-66888095D01*
%TO.C,R32*%
X64127142Y-113322380D02*
X63793809Y-112846190D01*
X63555714Y-113322380D02*
X63555714Y-112322380D01*
X63936666Y-112322380D01*
X64031904Y-112370000D01*
X64079523Y-112417619D01*
X64127142Y-112512857D01*
X64127142Y-112655714D01*
X64079523Y-112750952D01*
X64031904Y-112798571D01*
X63936666Y-112846190D01*
X63555714Y-112846190D01*
X64460476Y-112322380D02*
X65079523Y-112322380D01*
X64746190Y-112703333D01*
X64889047Y-112703333D01*
X64984285Y-112750952D01*
X65031904Y-112798571D01*
X65079523Y-112893809D01*
X65079523Y-113131904D01*
X65031904Y-113227142D01*
X64984285Y-113274761D01*
X64889047Y-113322380D01*
X64603333Y-113322380D01*
X64508095Y-113274761D01*
X64460476Y-113227142D01*
X65460476Y-112417619D02*
X65508095Y-112370000D01*
X65603333Y-112322380D01*
X65841428Y-112322380D01*
X65936666Y-112370000D01*
X65984285Y-112417619D01*
X66031904Y-112512857D01*
X66031904Y-112608095D01*
X65984285Y-112750952D01*
X65412857Y-113322380D01*
X66031904Y-113322380D01*
%TO.C,D14*%
X67127380Y-107259285D02*
X66127380Y-107259285D01*
X66127380Y-107021190D01*
X66175000Y-106878333D01*
X66270238Y-106783095D01*
X66365476Y-106735476D01*
X66555952Y-106687857D01*
X66698809Y-106687857D01*
X66889285Y-106735476D01*
X66984523Y-106783095D01*
X67079761Y-106878333D01*
X67127380Y-107021190D01*
X67127380Y-107259285D01*
X67127380Y-105735476D02*
X67127380Y-106306904D01*
X67127380Y-106021190D02*
X66127380Y-106021190D01*
X66270238Y-106116428D01*
X66365476Y-106211666D01*
X66413095Y-106306904D01*
X66460714Y-104878333D02*
X67127380Y-104878333D01*
X66079761Y-105116428D02*
X66794047Y-105354523D01*
X66794047Y-104735476D01*
%TO.C,Q3*%
X64007619Y-111220238D02*
X63960000Y-111315476D01*
X63864761Y-111410714D01*
X63721904Y-111553571D01*
X63674285Y-111648809D01*
X63674285Y-111744047D01*
X63912380Y-111696428D02*
X63864761Y-111791666D01*
X63769523Y-111886904D01*
X63579047Y-111934523D01*
X63245714Y-111934523D01*
X63055238Y-111886904D01*
X62960000Y-111791666D01*
X62912380Y-111696428D01*
X62912380Y-111505952D01*
X62960000Y-111410714D01*
X63055238Y-111315476D01*
X63245714Y-111267857D01*
X63579047Y-111267857D01*
X63769523Y-111315476D01*
X63864761Y-111410714D01*
X63912380Y-111505952D01*
X63912380Y-111696428D01*
X62912380Y-110934523D02*
X62912380Y-110315476D01*
X63293333Y-110648809D01*
X63293333Y-110505952D01*
X63340952Y-110410714D01*
X63388571Y-110363095D01*
X63483809Y-110315476D01*
X63721904Y-110315476D01*
X63817142Y-110363095D01*
X63864761Y-110410714D01*
X63912380Y-110505952D01*
X63912380Y-110791666D01*
X63864761Y-110886904D01*
X63817142Y-110934523D01*
%TO.C,J8*%
X69516666Y-114052380D02*
X69516666Y-114766666D01*
X69469047Y-114909523D01*
X69373809Y-115004761D01*
X69230952Y-115052380D01*
X69135714Y-115052380D01*
X70135714Y-114480952D02*
X70040476Y-114433333D01*
X69992857Y-114385714D01*
X69945238Y-114290476D01*
X69945238Y-114242857D01*
X69992857Y-114147619D01*
X70040476Y-114100000D01*
X70135714Y-114052380D01*
X70326190Y-114052380D01*
X70421428Y-114100000D01*
X70469047Y-114147619D01*
X70516666Y-114242857D01*
X70516666Y-114290476D01*
X70469047Y-114385714D01*
X70421428Y-114433333D01*
X70326190Y-114480952D01*
X70135714Y-114480952D01*
X70040476Y-114528571D01*
X69992857Y-114576190D01*
X69945238Y-114671428D01*
X69945238Y-114861904D01*
X69992857Y-114957142D01*
X70040476Y-115004761D01*
X70135714Y-115052380D01*
X70326190Y-115052380D01*
X70421428Y-115004761D01*
X70469047Y-114957142D01*
X70516666Y-114861904D01*
X70516666Y-114671428D01*
X70469047Y-114576190D01*
X70421428Y-114528571D01*
X70326190Y-114480952D01*
D12*
%TO.C,U7*%
X51102380Y-82574523D02*
X51102380Y-83602619D01*
X51162857Y-83723571D01*
X51223333Y-83784047D01*
X51344285Y-83844523D01*
X51586190Y-83844523D01*
X51707142Y-83784047D01*
X51767619Y-83723571D01*
X51828095Y-83602619D01*
X51828095Y-82574523D01*
X52311904Y-82574523D02*
X53158571Y-82574523D01*
X52614285Y-83844523D01*
D10*
%TO.C,SW8*%
X111696666Y-105324761D02*
X111839523Y-105372380D01*
X112077619Y-105372380D01*
X112172857Y-105324761D01*
X112220476Y-105277142D01*
X112268095Y-105181904D01*
X112268095Y-105086666D01*
X112220476Y-104991428D01*
X112172857Y-104943809D01*
X112077619Y-104896190D01*
X111887142Y-104848571D01*
X111791904Y-104800952D01*
X111744285Y-104753333D01*
X111696666Y-104658095D01*
X111696666Y-104562857D01*
X111744285Y-104467619D01*
X111791904Y-104420000D01*
X111887142Y-104372380D01*
X112125238Y-104372380D01*
X112268095Y-104420000D01*
X112601428Y-104372380D02*
X112839523Y-105372380D01*
X113030000Y-104658095D01*
X113220476Y-105372380D01*
X113458571Y-104372380D01*
X113982380Y-104800952D02*
X113887142Y-104753333D01*
X113839523Y-104705714D01*
X113791904Y-104610476D01*
X113791904Y-104562857D01*
X113839523Y-104467619D01*
X113887142Y-104420000D01*
X113982380Y-104372380D01*
X114172857Y-104372380D01*
X114268095Y-104420000D01*
X114315714Y-104467619D01*
X114363333Y-104562857D01*
X114363333Y-104610476D01*
X114315714Y-104705714D01*
X114268095Y-104753333D01*
X114172857Y-104800952D01*
X113982380Y-104800952D01*
X113887142Y-104848571D01*
X113839523Y-104896190D01*
X113791904Y-104991428D01*
X113791904Y-105181904D01*
X113839523Y-105277142D01*
X113887142Y-105324761D01*
X113982380Y-105372380D01*
X114172857Y-105372380D01*
X114268095Y-105324761D01*
X114315714Y-105277142D01*
X114363333Y-105181904D01*
X114363333Y-104991428D01*
X114315714Y-104896190D01*
X114268095Y-104848571D01*
X114172857Y-104800952D01*
%TO.C,R31*%
X83177142Y-56332380D02*
X82843809Y-55856190D01*
X82605714Y-56332380D02*
X82605714Y-55332380D01*
X82986666Y-55332380D01*
X83081904Y-55380000D01*
X83129523Y-55427619D01*
X83177142Y-55522857D01*
X83177142Y-55665714D01*
X83129523Y-55760952D01*
X83081904Y-55808571D01*
X82986666Y-55856190D01*
X82605714Y-55856190D01*
X83510476Y-55332380D02*
X84129523Y-55332380D01*
X83796190Y-55713333D01*
X83939047Y-55713333D01*
X84034285Y-55760952D01*
X84081904Y-55808571D01*
X84129523Y-55903809D01*
X84129523Y-56141904D01*
X84081904Y-56237142D01*
X84034285Y-56284761D01*
X83939047Y-56332380D01*
X83653333Y-56332380D01*
X83558095Y-56284761D01*
X83510476Y-56237142D01*
X85081904Y-56332380D02*
X84510476Y-56332380D01*
X84796190Y-56332380D02*
X84796190Y-55332380D01*
X84700952Y-55475238D01*
X84605714Y-55570476D01*
X84510476Y-55618095D01*
%TO.C,R11*%
X67302142Y-87287380D02*
X66968809Y-86811190D01*
X66730714Y-87287380D02*
X66730714Y-86287380D01*
X67111666Y-86287380D01*
X67206904Y-86335000D01*
X67254523Y-86382619D01*
X67302142Y-86477857D01*
X67302142Y-86620714D01*
X67254523Y-86715952D01*
X67206904Y-86763571D01*
X67111666Y-86811190D01*
X66730714Y-86811190D01*
X68254523Y-87287380D02*
X67683095Y-87287380D01*
X67968809Y-87287380D02*
X67968809Y-86287380D01*
X67873571Y-86430238D01*
X67778333Y-86525476D01*
X67683095Y-86573095D01*
X69206904Y-87287380D02*
X68635476Y-87287380D01*
X68921190Y-87287380D02*
X68921190Y-86287380D01*
X68825952Y-86430238D01*
X68730714Y-86525476D01*
X68635476Y-86573095D01*
%TO.C,C24*%
X73017142Y-107639411D02*
X72969523Y-107687030D01*
X72826666Y-107734649D01*
X72731428Y-107734649D01*
X72588571Y-107687030D01*
X72493333Y-107591792D01*
X72445714Y-107496554D01*
X72398095Y-107306078D01*
X72398095Y-107163221D01*
X72445714Y-106972745D01*
X72493333Y-106877507D01*
X72588571Y-106782269D01*
X72731428Y-106734649D01*
X72826666Y-106734649D01*
X72969523Y-106782269D01*
X73017142Y-106829888D01*
X73398095Y-106829888D02*
X73445714Y-106782269D01*
X73540952Y-106734649D01*
X73779047Y-106734649D01*
X73874285Y-106782269D01*
X73921904Y-106829888D01*
X73969523Y-106925126D01*
X73969523Y-107020364D01*
X73921904Y-107163221D01*
X73350476Y-107734649D01*
X73969523Y-107734649D01*
X74826666Y-107067983D02*
X74826666Y-107734649D01*
X74588571Y-106687030D02*
X74350476Y-107401316D01*
X74969523Y-107401316D01*
%TO.C,Q2*%
X41037619Y-66135237D02*
X40990000Y-66230475D01*
X40894761Y-66325713D01*
X40751904Y-66468570D01*
X40704285Y-66563808D01*
X40704285Y-66659046D01*
X40942380Y-66611427D02*
X40894761Y-66706665D01*
X40799523Y-66801903D01*
X40609047Y-66849522D01*
X40275714Y-66849522D01*
X40085238Y-66801903D01*
X39990000Y-66706665D01*
X39942380Y-66611427D01*
X39942380Y-66420951D01*
X39990000Y-66325713D01*
X40085238Y-66230475D01*
X40275714Y-66182856D01*
X40609047Y-66182856D01*
X40799523Y-66230475D01*
X40894761Y-66325713D01*
X40942380Y-66420951D01*
X40942380Y-66611427D01*
X40037619Y-65801903D02*
X39990000Y-65754284D01*
X39942380Y-65659046D01*
X39942380Y-65420951D01*
X39990000Y-65325713D01*
X40037619Y-65278094D01*
X40132857Y-65230475D01*
X40228095Y-65230475D01*
X40370952Y-65278094D01*
X40942380Y-65849522D01*
X40942380Y-65230475D01*
%TO.C,R20*%
X55093736Y-58086783D02*
X54760403Y-57610593D01*
X54522308Y-58086783D02*
X54522308Y-57086783D01*
X54903260Y-57086783D01*
X54998498Y-57134403D01*
X55046117Y-57182022D01*
X55093736Y-57277260D01*
X55093736Y-57420117D01*
X55046117Y-57515355D01*
X54998498Y-57562974D01*
X54903260Y-57610593D01*
X54522308Y-57610593D01*
X55474689Y-57182022D02*
X55522308Y-57134403D01*
X55617546Y-57086783D01*
X55855641Y-57086783D01*
X55950879Y-57134403D01*
X55998498Y-57182022D01*
X56046117Y-57277260D01*
X56046117Y-57372498D01*
X55998498Y-57515355D01*
X55427070Y-58086783D01*
X56046117Y-58086783D01*
X56665165Y-57086783D02*
X56760403Y-57086783D01*
X56855641Y-57134403D01*
X56903260Y-57182022D01*
X56950879Y-57277260D01*
X56998498Y-57467736D01*
X56998498Y-57705831D01*
X56950879Y-57896307D01*
X56903260Y-57991545D01*
X56855641Y-58039164D01*
X56760403Y-58086783D01*
X56665165Y-58086783D01*
X56569927Y-58039164D01*
X56522308Y-57991545D01*
X56474689Y-57896307D01*
X56427070Y-57705831D01*
X56427070Y-57467736D01*
X56474689Y-57277260D01*
X56522308Y-57182022D01*
X56569927Y-57134403D01*
X56665165Y-57086783D01*
%TO.C,C30*%
X103497142Y-98782142D02*
X103449523Y-98829761D01*
X103306666Y-98877380D01*
X103211428Y-98877380D01*
X103068571Y-98829761D01*
X102973333Y-98734523D01*
X102925714Y-98639285D01*
X102878095Y-98448809D01*
X102878095Y-98305952D01*
X102925714Y-98115476D01*
X102973333Y-98020238D01*
X103068571Y-97925000D01*
X103211428Y-97877380D01*
X103306666Y-97877380D01*
X103449523Y-97925000D01*
X103497142Y-97972619D01*
X103830476Y-97877380D02*
X104449523Y-97877380D01*
X104116190Y-98258333D01*
X104259047Y-98258333D01*
X104354285Y-98305952D01*
X104401904Y-98353571D01*
X104449523Y-98448809D01*
X104449523Y-98686904D01*
X104401904Y-98782142D01*
X104354285Y-98829761D01*
X104259047Y-98877380D01*
X103973333Y-98877380D01*
X103878095Y-98829761D01*
X103830476Y-98782142D01*
X105068571Y-97877380D02*
X105163809Y-97877380D01*
X105259047Y-97925000D01*
X105306666Y-97972619D01*
X105354285Y-98067857D01*
X105401904Y-98258333D01*
X105401904Y-98496428D01*
X105354285Y-98686904D01*
X105306666Y-98782142D01*
X105259047Y-98829761D01*
X105163809Y-98877380D01*
X105068571Y-98877380D01*
X104973333Y-98829761D01*
X104925714Y-98782142D01*
X104878095Y-98686904D01*
X104830476Y-98496428D01*
X104830476Y-98258333D01*
X104878095Y-98067857D01*
X104925714Y-97972619D01*
X104973333Y-97925000D01*
X105068571Y-97877380D01*
%TO.C,D6*%
X88796904Y-67287380D02*
X88796904Y-66287380D01*
X89035000Y-66287380D01*
X89177857Y-66335000D01*
X89273095Y-66430238D01*
X89320714Y-66525476D01*
X89368333Y-66715952D01*
X89368333Y-66858809D01*
X89320714Y-67049285D01*
X89273095Y-67144523D01*
X89177857Y-67239761D01*
X89035000Y-67287380D01*
X88796904Y-67287380D01*
X90225476Y-66287380D02*
X90035000Y-66287380D01*
X89939761Y-66335000D01*
X89892142Y-66382619D01*
X89796904Y-66525476D01*
X89749285Y-66715952D01*
X89749285Y-67096904D01*
X89796904Y-67192142D01*
X89844523Y-67239761D01*
X89939761Y-67287380D01*
X90130238Y-67287380D01*
X90225476Y-67239761D01*
X90273095Y-67192142D01*
X90320714Y-67096904D01*
X90320714Y-66858809D01*
X90273095Y-66763571D01*
X90225476Y-66715952D01*
X90130238Y-66668333D01*
X89939761Y-66668333D01*
X89844523Y-66715952D01*
X89796904Y-66763571D01*
X89749285Y-66858809D01*
%TO.C,R3*%
X107783333Y-66238380D02*
X107450000Y-65762190D01*
X107211904Y-66238380D02*
X107211904Y-65238380D01*
X107592857Y-65238380D01*
X107688095Y-65286000D01*
X107735714Y-65333619D01*
X107783333Y-65428857D01*
X107783333Y-65571714D01*
X107735714Y-65666952D01*
X107688095Y-65714571D01*
X107592857Y-65762190D01*
X107211904Y-65762190D01*
X108116666Y-65238380D02*
X108735714Y-65238380D01*
X108402380Y-65619333D01*
X108545238Y-65619333D01*
X108640476Y-65666952D01*
X108688095Y-65714571D01*
X108735714Y-65809809D01*
X108735714Y-66047904D01*
X108688095Y-66143142D01*
X108640476Y-66190761D01*
X108545238Y-66238380D01*
X108259523Y-66238380D01*
X108164285Y-66190761D01*
X108116666Y-66143142D01*
%TO.C,R44*%
X70302380Y-94622857D02*
X69826190Y-94956190D01*
X70302380Y-95194285D02*
X69302380Y-95194285D01*
X69302380Y-94813333D01*
X69350000Y-94718095D01*
X69397619Y-94670476D01*
X69492857Y-94622857D01*
X69635714Y-94622857D01*
X69730952Y-94670476D01*
X69778571Y-94718095D01*
X69826190Y-94813333D01*
X69826190Y-95194285D01*
X69635714Y-93765714D02*
X70302380Y-93765714D01*
X69254761Y-94003809D02*
X69969047Y-94241904D01*
X69969047Y-93622857D01*
X69635714Y-92813333D02*
X70302380Y-92813333D01*
X69254761Y-93051428D02*
X69969047Y-93289523D01*
X69969047Y-92670476D01*
%TO.C,J4*%
X119644166Y-79947380D02*
X119644166Y-80661666D01*
X119596547Y-80804523D01*
X119501309Y-80899761D01*
X119358452Y-80947380D01*
X119263214Y-80947380D01*
X120548928Y-80280714D02*
X120548928Y-80947380D01*
X120310833Y-79899761D02*
X120072738Y-80614047D01*
X120691785Y-80614047D01*
%TO.C,R26*%
X58350567Y-97769560D02*
X57874377Y-98102893D01*
X58350567Y-98340988D02*
X57350567Y-98340988D01*
X57350567Y-97960036D01*
X57398187Y-97864798D01*
X57445806Y-97817179D01*
X57541044Y-97769560D01*
X57683901Y-97769560D01*
X57779139Y-97817179D01*
X57826758Y-97864798D01*
X57874377Y-97960036D01*
X57874377Y-98340988D01*
X57445806Y-97388607D02*
X57398187Y-97340988D01*
X57350567Y-97245750D01*
X57350567Y-97007655D01*
X57398187Y-96912417D01*
X57445806Y-96864798D01*
X57541044Y-96817179D01*
X57636282Y-96817179D01*
X57779139Y-96864798D01*
X58350567Y-97436226D01*
X58350567Y-96817179D01*
X57350567Y-95960036D02*
X57350567Y-96150512D01*
X57398187Y-96245750D01*
X57445806Y-96293369D01*
X57588663Y-96388607D01*
X57779139Y-96436226D01*
X58160091Y-96436226D01*
X58255329Y-96388607D01*
X58302948Y-96340988D01*
X58350567Y-96245750D01*
X58350567Y-96055274D01*
X58302948Y-95960036D01*
X58255329Y-95912417D01*
X58160091Y-95864798D01*
X57921996Y-95864798D01*
X57826758Y-95912417D01*
X57779139Y-95960036D01*
X57731520Y-96055274D01*
X57731520Y-96245750D01*
X57779139Y-96340988D01*
X57826758Y-96388607D01*
X57921996Y-96436226D01*
%TO.C,D1*%
X107211904Y-64460380D02*
X107211904Y-63460380D01*
X107450000Y-63460380D01*
X107592857Y-63508000D01*
X107688095Y-63603238D01*
X107735714Y-63698476D01*
X107783333Y-63888952D01*
X107783333Y-64031809D01*
X107735714Y-64222285D01*
X107688095Y-64317523D01*
X107592857Y-64412761D01*
X107450000Y-64460380D01*
X107211904Y-64460380D01*
X108735714Y-64460380D02*
X108164285Y-64460380D01*
X108450000Y-64460380D02*
X108450000Y-63460380D01*
X108354761Y-63603238D01*
X108259523Y-63698476D01*
X108164285Y-63746095D01*
X108656666Y-62190380D02*
X108990000Y-63190380D01*
X109323333Y-62190380D01*
X109990000Y-62666571D02*
X110132857Y-62714190D01*
X110180476Y-62761809D01*
X110228095Y-62857047D01*
X110228095Y-62999904D01*
X110180476Y-63095142D01*
X110132857Y-63142761D01*
X110037619Y-63190380D01*
X109656666Y-63190380D01*
X109656666Y-62190380D01*
X109990000Y-62190380D01*
X110085238Y-62238000D01*
X110132857Y-62285619D01*
X110180476Y-62380857D01*
X110180476Y-62476095D01*
X110132857Y-62571333D01*
X110085238Y-62618952D01*
X109990000Y-62666571D01*
X109656666Y-62666571D01*
X110656666Y-62190380D02*
X110656666Y-62999904D01*
X110704285Y-63095142D01*
X110751904Y-63142761D01*
X110847142Y-63190380D01*
X111037619Y-63190380D01*
X111132857Y-63142761D01*
X111180476Y-63095142D01*
X111228095Y-62999904D01*
X111228095Y-62190380D01*
X111656666Y-63142761D02*
X111799523Y-63190380D01*
X112037619Y-63190380D01*
X112132857Y-63142761D01*
X112180476Y-63095142D01*
X112228095Y-62999904D01*
X112228095Y-62904666D01*
X112180476Y-62809428D01*
X112132857Y-62761809D01*
X112037619Y-62714190D01*
X111847142Y-62666571D01*
X111751904Y-62618952D01*
X111704285Y-62571333D01*
X111656666Y-62476095D01*
X111656666Y-62380857D01*
X111704285Y-62285619D01*
X111751904Y-62238000D01*
X111847142Y-62190380D01*
X112085238Y-62190380D01*
X112228095Y-62238000D01*
%TO.C,REF\u002A\u002A*%
X123966666Y-54162380D02*
X123633333Y-53686190D01*
X123395238Y-54162380D02*
X123395238Y-53162380D01*
X123776190Y-53162380D01*
X123871428Y-53210000D01*
X123919047Y-53257619D01*
X123966666Y-53352857D01*
X123966666Y-53495714D01*
X123919047Y-53590952D01*
X123871428Y-53638571D01*
X123776190Y-53686190D01*
X123395238Y-53686190D01*
X124395238Y-53638571D02*
X124728571Y-53638571D01*
X124871428Y-54162380D02*
X124395238Y-54162380D01*
X124395238Y-53162380D01*
X124871428Y-53162380D01*
X125633333Y-53638571D02*
X125300000Y-53638571D01*
X125300000Y-54162380D02*
X125300000Y-53162380D01*
X125776190Y-53162380D01*
X126300000Y-53162380D02*
X126300000Y-53400476D01*
X126061904Y-53305238D02*
X126300000Y-53400476D01*
X126538095Y-53305238D01*
X126157142Y-53590952D02*
X126300000Y-53400476D01*
X126442857Y-53590952D01*
X127061904Y-53162380D02*
X127061904Y-53400476D01*
X126823809Y-53305238D02*
X127061904Y-53400476D01*
X127300000Y-53305238D01*
X126919047Y-53590952D02*
X127061904Y-53400476D01*
X127204761Y-53590952D01*
%TO.C,SW1*%
X77406666Y-63904761D02*
X77549523Y-63952380D01*
X77787619Y-63952380D01*
X77882857Y-63904761D01*
X77930476Y-63857142D01*
X77978095Y-63761904D01*
X77978095Y-63666666D01*
X77930476Y-63571428D01*
X77882857Y-63523809D01*
X77787619Y-63476190D01*
X77597142Y-63428571D01*
X77501904Y-63380952D01*
X77454285Y-63333333D01*
X77406666Y-63238095D01*
X77406666Y-63142857D01*
X77454285Y-63047619D01*
X77501904Y-63000000D01*
X77597142Y-62952380D01*
X77835238Y-62952380D01*
X77978095Y-63000000D01*
X78311428Y-62952380D02*
X78549523Y-63952380D01*
X78740000Y-63238095D01*
X78930476Y-63952380D01*
X79168571Y-62952380D01*
X80073333Y-63952380D02*
X79501904Y-63952380D01*
X79787619Y-63952380D02*
X79787619Y-62952380D01*
X79692380Y-63095238D01*
X79597142Y-63190476D01*
X79501904Y-63238095D01*
%TO.C,R7*%
X34582380Y-66206666D02*
X34106190Y-66540000D01*
X34582380Y-66778095D02*
X33582380Y-66778095D01*
X33582380Y-66397142D01*
X33630000Y-66301904D01*
X33677619Y-66254285D01*
X33772857Y-66206666D01*
X33915714Y-66206666D01*
X34010952Y-66254285D01*
X34058571Y-66301904D01*
X34106190Y-66397142D01*
X34106190Y-66778095D01*
X33582380Y-65873333D02*
X33582380Y-65206666D01*
X34582380Y-65635238D01*
%TO.C,R51*%
X101973142Y-108242380D02*
X101639809Y-107766190D01*
X101401714Y-108242380D02*
X101401714Y-107242380D01*
X101782666Y-107242380D01*
X101877904Y-107290000D01*
X101925523Y-107337619D01*
X101973142Y-107432857D01*
X101973142Y-107575714D01*
X101925523Y-107670952D01*
X101877904Y-107718571D01*
X101782666Y-107766190D01*
X101401714Y-107766190D01*
X102877904Y-107242380D02*
X102401714Y-107242380D01*
X102354095Y-107718571D01*
X102401714Y-107670952D01*
X102496952Y-107623333D01*
X102735047Y-107623333D01*
X102830285Y-107670952D01*
X102877904Y-107718571D01*
X102925523Y-107813809D01*
X102925523Y-108051904D01*
X102877904Y-108147142D01*
X102830285Y-108194761D01*
X102735047Y-108242380D01*
X102496952Y-108242380D01*
X102401714Y-108194761D01*
X102354095Y-108147142D01*
X103877904Y-108242380D02*
X103306476Y-108242380D01*
X103592190Y-108242380D02*
X103592190Y-107242380D01*
X103496952Y-107385238D01*
X103401714Y-107480476D01*
X103306476Y-107528095D01*
%TO.C,C17*%
X84570970Y-78086898D02*
X84523351Y-78134517D01*
X84380494Y-78182136D01*
X84285256Y-78182136D01*
X84142399Y-78134517D01*
X84047161Y-78039279D01*
X83999542Y-77944041D01*
X83951923Y-77753565D01*
X83951923Y-77610708D01*
X83999542Y-77420232D01*
X84047161Y-77324994D01*
X84142399Y-77229756D01*
X84285256Y-77182136D01*
X84380494Y-77182136D01*
X84523351Y-77229756D01*
X84570970Y-77277375D01*
X85523351Y-78182136D02*
X84951923Y-78182136D01*
X85237637Y-78182136D02*
X85237637Y-77182136D01*
X85142399Y-77324994D01*
X85047161Y-77420232D01*
X84951923Y-77467851D01*
X85856685Y-77182136D02*
X86523351Y-77182136D01*
X86094780Y-78182136D01*
%TO.C,REF\u002A\u002A*%
X34966666Y-54162380D02*
X34633333Y-53686190D01*
X34395238Y-54162380D02*
X34395238Y-53162380D01*
X34776190Y-53162380D01*
X34871428Y-53210000D01*
X34919047Y-53257619D01*
X34966666Y-53352857D01*
X34966666Y-53495714D01*
X34919047Y-53590952D01*
X34871428Y-53638571D01*
X34776190Y-53686190D01*
X34395238Y-53686190D01*
X35395238Y-53638571D02*
X35728571Y-53638571D01*
X35871428Y-54162380D02*
X35395238Y-54162380D01*
X35395238Y-53162380D01*
X35871428Y-53162380D01*
X36633333Y-53638571D02*
X36300000Y-53638571D01*
X36300000Y-54162380D02*
X36300000Y-53162380D01*
X36776190Y-53162380D01*
X37300000Y-53162380D02*
X37300000Y-53400476D01*
X37061904Y-53305238D02*
X37300000Y-53400476D01*
X37538095Y-53305238D01*
X37157142Y-53590952D02*
X37300000Y-53400476D01*
X37442857Y-53590952D01*
X38061904Y-53162380D02*
X38061904Y-53400476D01*
X37823809Y-53305238D02*
X38061904Y-53400476D01*
X38300000Y-53305238D01*
X37919047Y-53590952D02*
X38061904Y-53400476D01*
X38204761Y-53590952D01*
%TO.C,D8*%
X47442380Y-90273095D02*
X46442380Y-90273095D01*
X46442380Y-90035000D01*
X46490000Y-89892142D01*
X46585238Y-89796904D01*
X46680476Y-89749285D01*
X46870952Y-89701666D01*
X47013809Y-89701666D01*
X47204285Y-89749285D01*
X47299523Y-89796904D01*
X47394761Y-89892142D01*
X47442380Y-90035000D01*
X47442380Y-90273095D01*
X46870952Y-89130238D02*
X46823333Y-89225476D01*
X46775714Y-89273095D01*
X46680476Y-89320714D01*
X46632857Y-89320714D01*
X46537619Y-89273095D01*
X46490000Y-89225476D01*
X46442380Y-89130238D01*
X46442380Y-88939761D01*
X46490000Y-88844523D01*
X46537619Y-88796904D01*
X46632857Y-88749285D01*
X46680476Y-88749285D01*
X46775714Y-88796904D01*
X46823333Y-88844523D01*
X46870952Y-88939761D01*
X46870952Y-89130238D01*
X46918571Y-89225476D01*
X46966190Y-89273095D01*
X47061428Y-89320714D01*
X47251904Y-89320714D01*
X47347142Y-89273095D01*
X47394761Y-89225476D01*
X47442380Y-89130238D01*
X47442380Y-88939761D01*
X47394761Y-88844523D01*
X47347142Y-88796904D01*
X47251904Y-88749285D01*
X47061428Y-88749285D01*
X46966190Y-88796904D01*
X46918571Y-88844523D01*
X46870952Y-88939761D01*
%TO.C,R55*%
X117848832Y-105146624D02*
X117515499Y-104670434D01*
X117277404Y-105146624D02*
X117277404Y-104146624D01*
X117658356Y-104146624D01*
X117753594Y-104194244D01*
X117801213Y-104241863D01*
X117848832Y-104337101D01*
X117848832Y-104479958D01*
X117801213Y-104575196D01*
X117753594Y-104622815D01*
X117658356Y-104670434D01*
X117277404Y-104670434D01*
X118753594Y-104146624D02*
X118277404Y-104146624D01*
X118229785Y-104622815D01*
X118277404Y-104575196D01*
X118372642Y-104527577D01*
X118610737Y-104527577D01*
X118705975Y-104575196D01*
X118753594Y-104622815D01*
X118801213Y-104718053D01*
X118801213Y-104956148D01*
X118753594Y-105051386D01*
X118705975Y-105099005D01*
X118610737Y-105146624D01*
X118372642Y-105146624D01*
X118277404Y-105099005D01*
X118229785Y-105051386D01*
X119705975Y-104146624D02*
X119229785Y-104146624D01*
X119182166Y-104622815D01*
X119229785Y-104575196D01*
X119325023Y-104527577D01*
X119563118Y-104527577D01*
X119658356Y-104575196D01*
X119705975Y-104622815D01*
X119753594Y-104718053D01*
X119753594Y-104956148D01*
X119705975Y-105051386D01*
X119658356Y-105099005D01*
X119563118Y-105146624D01*
X119325023Y-105146624D01*
X119229785Y-105099005D01*
X119182166Y-105051386D01*
%TO.C,C5*%
X40471775Y-76455160D02*
X40519394Y-76502779D01*
X40567013Y-76645636D01*
X40567013Y-76740874D01*
X40519394Y-76883732D01*
X40424156Y-76978970D01*
X40328918Y-77026589D01*
X40138442Y-77074208D01*
X39995585Y-77074208D01*
X39805109Y-77026589D01*
X39709871Y-76978970D01*
X39614633Y-76883732D01*
X39567013Y-76740874D01*
X39567013Y-76645636D01*
X39614633Y-76502779D01*
X39662252Y-76455160D01*
X39567013Y-75550398D02*
X39567013Y-76026589D01*
X40043204Y-76074208D01*
X39995585Y-76026589D01*
X39947966Y-75931351D01*
X39947966Y-75693255D01*
X39995585Y-75598017D01*
X40043204Y-75550398D01*
X40138442Y-75502779D01*
X40376537Y-75502779D01*
X40471775Y-75550398D01*
X40519394Y-75598017D01*
X40567013Y-75693255D01*
X40567013Y-75931351D01*
X40519394Y-76026589D01*
X40471775Y-76074208D01*
%TO.C,J5*%
X42702380Y-107013333D02*
X43416666Y-107013333D01*
X43559523Y-107060952D01*
X43654761Y-107156190D01*
X43702380Y-107299047D01*
X43702380Y-107394285D01*
X42702380Y-106060952D02*
X42702380Y-106537142D01*
X43178571Y-106584761D01*
X43130952Y-106537142D01*
X43083333Y-106441904D01*
X43083333Y-106203809D01*
X43130952Y-106108571D01*
X43178571Y-106060952D01*
X43273809Y-106013333D01*
X43511904Y-106013333D01*
X43607142Y-106060952D01*
X43654761Y-106108571D01*
X43702380Y-106203809D01*
X43702380Y-106441904D01*
X43654761Y-106537142D01*
X43607142Y-106584761D01*
%TO.C,C27*%
X117213142Y-125071142D02*
X117165523Y-125118761D01*
X117022666Y-125166380D01*
X116927428Y-125166380D01*
X116784571Y-125118761D01*
X116689333Y-125023523D01*
X116641714Y-124928285D01*
X116594095Y-124737809D01*
X116594095Y-124594952D01*
X116641714Y-124404476D01*
X116689333Y-124309238D01*
X116784571Y-124214000D01*
X116927428Y-124166380D01*
X117022666Y-124166380D01*
X117165523Y-124214000D01*
X117213142Y-124261619D01*
X117594095Y-124261619D02*
X117641714Y-124214000D01*
X117736952Y-124166380D01*
X117975047Y-124166380D01*
X118070285Y-124214000D01*
X118117904Y-124261619D01*
X118165523Y-124356857D01*
X118165523Y-124452095D01*
X118117904Y-124594952D01*
X117546476Y-125166380D01*
X118165523Y-125166380D01*
X118498857Y-124166380D02*
X119165523Y-124166380D01*
X118736952Y-125166380D01*
%TO.C,R54*%
X117866260Y-103613553D02*
X117532927Y-103137363D01*
X117294832Y-103613553D02*
X117294832Y-102613553D01*
X117675784Y-102613553D01*
X117771022Y-102661173D01*
X117818641Y-102708792D01*
X117866260Y-102804030D01*
X117866260Y-102946887D01*
X117818641Y-103042125D01*
X117771022Y-103089744D01*
X117675784Y-103137363D01*
X117294832Y-103137363D01*
X118771022Y-102613553D02*
X118294832Y-102613553D01*
X118247213Y-103089744D01*
X118294832Y-103042125D01*
X118390070Y-102994506D01*
X118628165Y-102994506D01*
X118723403Y-103042125D01*
X118771022Y-103089744D01*
X118818641Y-103184982D01*
X118818641Y-103423077D01*
X118771022Y-103518315D01*
X118723403Y-103565934D01*
X118628165Y-103613553D01*
X118390070Y-103613553D01*
X118294832Y-103565934D01*
X118247213Y-103518315D01*
X119675784Y-102946887D02*
X119675784Y-103613553D01*
X119437689Y-102565934D02*
X119199594Y-103280220D01*
X119818641Y-103280220D01*
D13*
%TO.C,C21*%
X67185000Y-102723733D02*
X67185000Y-103016267D01*
X66165000Y-102723733D02*
X66165000Y-103016267D01*
%TO.C,R42*%
X67197500Y-94234724D02*
X67197500Y-93725276D01*
X66152500Y-94234724D02*
X66152500Y-93725276D01*
%TO.C,C8*%
X42626233Y-87120000D02*
X42918767Y-87120000D01*
X42626233Y-88140000D02*
X42918767Y-88140000D01*
%TO.C,D2*%
X108830000Y-68099000D02*
X108830000Y-69569000D01*
X108830000Y-69569000D02*
X111290000Y-69569000D01*
X111290000Y-68099000D02*
X108830000Y-68099000D01*
%TO.C,R27*%
X53085276Y-107202500D02*
X53594724Y-107202500D01*
X53085276Y-106157500D02*
X53594724Y-106157500D01*
%TO.C,SW3*%
X91948000Y-54252000D02*
X91948000Y-62888000D01*
X88392000Y-62888000D02*
X88392000Y-54252000D01*
X91948000Y-62888000D02*
X88392000Y-62888000D01*
X88392000Y-54252000D02*
X91948000Y-54252000D01*
D14*
%TO.C,C6*%
X43695610Y-75989237D02*
X43175610Y-75989237D01*
X43695610Y-73289237D02*
X43175610Y-73289237D01*
D15*
%TO.C,U5*%
X88720000Y-75680000D02*
X88720000Y-74180000D01*
X91620000Y-74180000D02*
X91620000Y-75680000D01*
X88720000Y-74180000D02*
X91620000Y-74180000D01*
X91620000Y-75680000D02*
X88720000Y-75680000D01*
X91680000Y-73255000D02*
X91680000Y-73830000D01*
D13*
%TO.C,D9*%
X47990000Y-98080000D02*
X47990000Y-101980000D01*
X45990000Y-98080000D02*
X45990000Y-101980000D01*
X47990000Y-98080000D02*
X45990000Y-98080000D01*
%TO.C,C23*%
X75353386Y-84594507D02*
X75645920Y-84594507D01*
X75353386Y-85614507D02*
X75645920Y-85614507D01*
%TO.C,D3*%
X41226346Y-72658896D02*
X45126346Y-72658896D01*
X41226346Y-70658896D02*
X45126346Y-70658896D01*
X41226346Y-70658896D02*
X41226346Y-72658896D01*
%TO.C,C25*%
X99524051Y-81029198D02*
X99317198Y-81236051D01*
X98802802Y-80307949D02*
X98595949Y-80514802D01*
%TO.C,R22*%
X85827776Y-65927500D02*
X86337224Y-65927500D01*
X85827776Y-64882500D02*
X86337224Y-64882500D01*
D15*
%TO.C,U8*%
X50070000Y-103045000D02*
X50070000Y-103045000D01*
X50070000Y-103145000D02*
X50070000Y-103145000D01*
X50070000Y-103145000D02*
X50070000Y-103145000D01*
X50070000Y-103145000D02*
G75*
G03*
X50070000Y-103045000I0J50000D01*
G01*
X50070000Y-103145000D02*
G75*
G03*
X50070000Y-103045000I0J50000D01*
G01*
X50070000Y-103045000D02*
G75*
G03*
X50070000Y-103145000I0J-50000D01*
G01*
D13*
%TO.C,Y1*%
X96959154Y-81109736D02*
X92539736Y-85529153D01*
X93388264Y-77538846D02*
X88968847Y-81958264D01*
X88968847Y-81958264D02*
G75*
G03*
X92539736Y-85529153I1785445J-1785444D01*
G01*
X96959154Y-81109736D02*
G75*
G03*
X93388264Y-77538846I-1785445J1785445D01*
G01*
%TO.C,U3*%
X40360000Y-86425000D02*
G75*
G03*
X38360000Y-86425000I-1000000J0D01*
G01*
X40360000Y-86425000D02*
X42010000Y-86425000D01*
X36710000Y-86425000D02*
X38360000Y-86425000D01*
X36710000Y-81225000D02*
X36710000Y-86425000D01*
X42010000Y-81225000D02*
X36710000Y-81225000D01*
X42010000Y-86425000D02*
X42010000Y-81225000D01*
%TO.C,R53*%
X114299276Y-113015500D02*
X114808724Y-113015500D01*
X114299276Y-114060500D02*
X114808724Y-114060500D01*
%TO.C,C10*%
X38588732Y-94740000D02*
X38881266Y-94740000D01*
X38588732Y-95760000D02*
X38881266Y-95760000D01*
%TO.C,SW4*%
X104140000Y-113030000D02*
X104140000Y-123190000D01*
X104140000Y-113030000D02*
X104140000Y-123190000D01*
X99060000Y-113030000D02*
X104140000Y-113030000D01*
X104140000Y-123190000D02*
X99060000Y-123190000D01*
X99060000Y-123190000D02*
X99060000Y-113030000D01*
%TO.C,SW6*%
X119110000Y-122122000D02*
X113110000Y-122122000D01*
X111010000Y-115572000D02*
X112010000Y-115572000D01*
X119010000Y-115622000D02*
X113210000Y-115622000D01*
X119210000Y-117572000D02*
X119210000Y-120172000D01*
X111010000Y-116572000D02*
X111010000Y-115572000D01*
X113010000Y-117572000D02*
X113010000Y-120172000D01*
%TO.C,J3*%
X108190000Y-62930000D02*
X105780000Y-62930000D01*
X92770000Y-54510000D02*
X92770000Y-62630000D01*
X107890000Y-54510000D02*
X92770000Y-54510000D01*
X107890000Y-62630000D02*
X107890000Y-54510000D01*
X92770000Y-62630000D02*
X107890000Y-62630000D01*
X108190000Y-60520000D02*
X108190000Y-62930000D01*
D15*
%TO.C,U9*%
X86540000Y-75680000D02*
X83640000Y-75680000D01*
X83640000Y-75680000D02*
X83640000Y-74180000D01*
X86540000Y-74180000D02*
X86540000Y-75680000D01*
X83640000Y-74180000D02*
X86540000Y-74180000D01*
X86600000Y-73255000D02*
X86600000Y-73830000D01*
D13*
%TO.C,R25*%
X85470276Y-108062500D02*
X85979724Y-108062500D01*
X85470276Y-109107500D02*
X85979724Y-109107500D01*
%TO.C,C9*%
X58151191Y-54888953D02*
X58443725Y-54888953D01*
X58151191Y-55908953D02*
X58443725Y-55908953D01*
D15*
%TO.C,U11*%
X60230000Y-92265000D02*
X60230000Y-92265000D01*
X60230000Y-92265000D02*
X60230000Y-92265000D01*
X60230000Y-92165000D02*
X60230000Y-92165000D01*
X60230000Y-92265000D02*
G75*
G03*
X60230000Y-92165000I0J50000D01*
G01*
X60230000Y-92165000D02*
G75*
G03*
X60230000Y-92265000I0J-50000D01*
G01*
X60230000Y-92265000D02*
G75*
G03*
X60230000Y-92165000I0J50000D01*
G01*
D13*
%TO.C,R15*%
X39624724Y-79487500D02*
X39115276Y-79487500D01*
X39624724Y-80532500D02*
X39115276Y-80532500D01*
%TO.C,J7*%
X53360000Y-115650000D02*
X53360000Y-123770000D01*
X63480000Y-115650000D02*
X53360000Y-115650000D01*
X53060000Y-117760000D02*
X53060000Y-115350000D01*
X63480000Y-123770000D02*
X63480000Y-115650000D01*
X53060000Y-115350000D02*
X55470000Y-115350000D01*
X53360000Y-123770000D02*
X63480000Y-123770000D01*
%TO.C,C22*%
X75624144Y-83905547D02*
X75331610Y-83905547D01*
X75624144Y-82885547D02*
X75331610Y-82885547D01*
%TO.C,R50*%
X95461578Y-86027683D02*
X95101344Y-85667449D01*
X96200504Y-85288757D02*
X95840270Y-84928523D01*
%TO.C,R30*%
X53085276Y-104252500D02*
X53594724Y-104252500D01*
X53085276Y-105297500D02*
X53594724Y-105297500D01*
%TO.C,C19*%
X80317993Y-75015956D02*
X80317993Y-74723422D01*
X81337993Y-75015956D02*
X81337993Y-74723422D01*
%TO.C,C29*%
X100984267Y-84072000D02*
X100691733Y-84072000D01*
X100984267Y-85092000D02*
X100691733Y-85092000D01*
%TO.C,R21*%
X82027500Y-75184724D02*
X82027500Y-74675276D01*
X83072500Y-75184724D02*
X83072500Y-74675276D01*
%TO.C,D4*%
X56170000Y-58690000D02*
X60070000Y-58690000D01*
X56170000Y-58690000D02*
X56170000Y-60690000D01*
X56170000Y-60690000D02*
X60070000Y-60690000D01*
%TO.C,D16*%
X126622506Y-104055968D02*
X124162506Y-104055968D01*
X124162506Y-105525968D02*
X126622506Y-105525968D01*
X126622506Y-105525968D02*
X126622506Y-104055968D01*
%TO.C,Q5*%
X87305000Y-113155000D02*
X86375000Y-113155000D01*
X84145000Y-113155000D02*
X85075000Y-113155000D01*
X87305000Y-113155000D02*
X87305000Y-109995000D01*
X84145000Y-113155000D02*
X84145000Y-111695000D01*
%TO.C,R29*%
X55861806Y-94206427D02*
X55861806Y-93696979D01*
X56906806Y-94206427D02*
X56906806Y-93696979D01*
%TO.C,R45*%
X68046747Y-97920793D02*
X67537299Y-97920793D01*
X68046747Y-98965793D02*
X67537299Y-98965793D01*
%TO.C,C20*%
X75320700Y-71604105D02*
X75028166Y-71604105D01*
X75320700Y-72624105D02*
X75028166Y-72624105D01*
%TO.C,C28*%
X93007949Y-88388802D02*
X93214802Y-88181949D01*
X93729198Y-89110051D02*
X93936051Y-88903198D01*
%TO.C,R47*%
X67922224Y-90917500D02*
X67412776Y-90917500D01*
X67922224Y-91962500D02*
X67412776Y-91962500D01*
%TO.C,R18*%
X80264724Y-59167500D02*
X79755276Y-59167500D01*
X80264724Y-60212500D02*
X79755276Y-60212500D01*
%TO.C,R35*%
X76454724Y-114822500D02*
X75945276Y-114822500D01*
X76454724Y-113777500D02*
X75945276Y-113777500D01*
D15*
%TO.C,U12*%
X60230000Y-102960000D02*
X60230000Y-102960000D01*
X60230000Y-103060000D02*
X60230000Y-103060000D01*
X60230000Y-103060000D02*
X60230000Y-103060000D01*
X60230000Y-103060000D02*
G75*
G03*
X60230000Y-102960000I0J50000D01*
G01*
X60230000Y-103060000D02*
G75*
G03*
X60230000Y-102960000I0J50000D01*
G01*
X60230000Y-102960000D02*
G75*
G03*
X60230000Y-103060000I0J-50000D01*
G01*
D13*
%TO.C,D11*%
X58150000Y-87285000D02*
X58150000Y-91185000D01*
X56150000Y-87285000D02*
X56150000Y-91185000D01*
X58150000Y-87285000D02*
X56150000Y-87285000D01*
%TO.C,SW7*%
X112522000Y-59436000D02*
X112522000Y-55880000D01*
X121158000Y-59436000D02*
X112522000Y-59436000D01*
X121158000Y-55880000D02*
X121158000Y-59436000D01*
X112522000Y-55880000D02*
X121158000Y-55880000D01*
%TO.C,SW2*%
X91313000Y-124333000D02*
X87757000Y-124333000D01*
X87757000Y-124333000D02*
X87757000Y-115697000D01*
X87757000Y-115697000D02*
X91313000Y-115697000D01*
X91313000Y-115697000D02*
X91313000Y-124333000D01*
%TO.C,D13*%
X78450000Y-82280000D02*
X74550000Y-82280000D01*
X78450000Y-80280000D02*
X74550000Y-80280000D01*
X78450000Y-82280000D02*
X78450000Y-80280000D01*
%TO.C,R5*%
X110235276Y-70089500D02*
X110744724Y-70089500D01*
X110235276Y-71134500D02*
X110744724Y-71134500D01*
%TO.C,R48*%
X114808724Y-123712500D02*
X114299276Y-123712500D01*
X114808724Y-122667500D02*
X114299276Y-122667500D01*
%TO.C,J1*%
X125557000Y-78741000D02*
X125557000Y-76455000D01*
X120731000Y-61215000D02*
X125557000Y-61215000D01*
X120731000Y-76455000D02*
X120731000Y-78741000D01*
X112335000Y-59945000D02*
X127335000Y-59945000D01*
X125557000Y-61215000D02*
X125557000Y-63501000D01*
X112335000Y-79945000D02*
X112335000Y-59945000D01*
X125557000Y-63501000D02*
X120731000Y-63501000D01*
X125557000Y-76455000D02*
X120731000Y-76455000D01*
X120731000Y-78741000D02*
X125557000Y-78741000D01*
X115335000Y-61145000D02*
X113135000Y-61145000D01*
X115335000Y-78745000D02*
X113135000Y-78745000D01*
X120731000Y-63501000D02*
X120731000Y-61215000D01*
X113135000Y-78745000D02*
X115335000Y-78745000D01*
X127335000Y-59945000D02*
X127335000Y-79945000D01*
X127335000Y-79945000D02*
X112335000Y-79945000D01*
X113135000Y-78745000D02*
X113135000Y-61145000D01*
X115335000Y-61145000D02*
X115335000Y-78745000D01*
%TO.C,R39*%
X86105276Y-61482500D02*
X86614724Y-61482500D01*
X86105276Y-60437500D02*
X86614724Y-60437500D01*
%TO.C,C26*%
X92611318Y-87941931D02*
X92818171Y-87735078D01*
X91890069Y-87220682D02*
X92096922Y-87013829D01*
%TO.C,U16*%
X69795000Y-91975000D02*
X69795000Y-97275000D01*
X74995000Y-97275000D02*
X74995000Y-95625000D01*
X74995000Y-93625000D02*
X74995000Y-91975000D01*
X69795000Y-97275000D02*
X74995000Y-97275000D01*
X74995000Y-91975000D02*
X69795000Y-91975000D01*
X74995000Y-93625000D02*
G75*
G03*
X74995000Y-95625000I0J-1000000D01*
G01*
%TO.C,C14*%
X104921267Y-64645000D02*
X104628733Y-64645000D01*
X104921267Y-63625000D02*
X104628733Y-63625000D01*
%TO.C,C11*%
X50206000Y-71814112D02*
X51030000Y-71814112D01*
X50972000Y-71254112D02*
X53168000Y-71254112D01*
X49569000Y-72975112D02*
X51030000Y-72975112D01*
X51059000Y-71214112D02*
X53081000Y-71214112D01*
X50035000Y-72014112D02*
X51030000Y-72014112D01*
X53110000Y-71734112D02*
X53855000Y-71734112D01*
X53110000Y-71614112D02*
X53723000Y-71614112D01*
X53110000Y-72654112D02*
X54468000Y-72654112D01*
X50570000Y-71494112D02*
X53570000Y-71494112D01*
X53110000Y-73575112D02*
X54650000Y-73575112D01*
X49948000Y-72134112D02*
X51030000Y-72134112D01*
X50371000Y-71654112D02*
X51030000Y-71654112D01*
X49505000Y-73335112D02*
X51030000Y-73335112D01*
X53110000Y-72214112D02*
X54245000Y-72214112D01*
X53110000Y-72334112D02*
X54317000Y-72334112D01*
X53110000Y-73295112D02*
X54631000Y-73295112D01*
X53110000Y-72494112D02*
X54399000Y-72494112D01*
X50133000Y-71894112D02*
X51030000Y-71894112D01*
X50819000Y-71334112D02*
X53321000Y-71334112D01*
X49672000Y-72654112D02*
X51030000Y-72654112D01*
X53110000Y-71694112D02*
X53813000Y-71694112D01*
X50327000Y-71694112D02*
X51030000Y-71694112D01*
X49527000Y-73175112D02*
X51030000Y-73175112D01*
X49501000Y-73375112D02*
X51030000Y-73375112D01*
X53110000Y-72094112D02*
X54165000Y-72094112D01*
X53110000Y-73175112D02*
X54613000Y-73175112D01*
X53110000Y-72294112D02*
X54294000Y-72294112D01*
X50005000Y-72054112D02*
X51030000Y-72054112D01*
X49494000Y-73455112D02*
X51030000Y-73455112D01*
X53110000Y-72894112D02*
X54550000Y-72894112D01*
X49895000Y-72214112D02*
X51030000Y-72214112D01*
X49509000Y-73295112D02*
X51030000Y-73295112D01*
X49590000Y-72894112D02*
X51030000Y-72894112D01*
X49534000Y-73135112D02*
X51030000Y-73135112D01*
X53110000Y-72134112D02*
X54192000Y-72134112D01*
X53110000Y-71654112D02*
X53769000Y-71654112D01*
X49780000Y-72414112D02*
X51030000Y-72414112D01*
X53110000Y-73255112D02*
X54626000Y-73255112D01*
X49559000Y-73015112D02*
X51030000Y-73015112D01*
X49602000Y-72854112D02*
X51030000Y-72854112D01*
X50751000Y-71374112D02*
X53389000Y-71374112D01*
X49490000Y-73615112D02*
X51030000Y-73615112D01*
X49760000Y-72454112D02*
X51030000Y-72454112D01*
X49802000Y-72374112D02*
X51030000Y-72374112D01*
X49628000Y-72774112D02*
X51030000Y-72774112D01*
X51155000Y-71174112D02*
X52985000Y-71174112D01*
X53110000Y-73015112D02*
X54581000Y-73015112D01*
X50516000Y-71534112D02*
X53624000Y-71534112D01*
X50687000Y-71414112D02*
X53453000Y-71414112D01*
X49722000Y-72534112D02*
X51030000Y-72534112D01*
X53110000Y-71814112D02*
X53934000Y-71814112D01*
X49823000Y-72334112D02*
X51030000Y-72334112D01*
X53110000Y-73055112D02*
X54590000Y-73055112D01*
X49741000Y-72494112D02*
X51030000Y-72494112D01*
X50595000Y-76419887D02*
X50595000Y-75919887D01*
X50285000Y-71734112D02*
X51030000Y-71734112D01*
X53110000Y-72014112D02*
X54105000Y-72014112D01*
X50169000Y-71854112D02*
X51030000Y-71854112D01*
X53110000Y-73335112D02*
X54635000Y-73335112D01*
X49615000Y-72814112D02*
X51030000Y-72814112D01*
X49921000Y-72174112D02*
X51030000Y-72174112D01*
X53110000Y-73215112D02*
X54620000Y-73215112D01*
X50627000Y-71454112D02*
X53513000Y-71454112D01*
X49656000Y-72694112D02*
X51030000Y-72694112D01*
X53110000Y-71974112D02*
X54074000Y-71974112D01*
X53110000Y-71774112D02*
X53896000Y-71774112D01*
X53110000Y-71934112D02*
X54041000Y-71934112D01*
X49542000Y-73095112D02*
X51030000Y-73095112D01*
X49870000Y-72254112D02*
X51030000Y-72254112D01*
X53110000Y-73535112D02*
X54649000Y-73535112D01*
X53110000Y-72174112D02*
X54219000Y-72174112D01*
X53110000Y-73375112D02*
X54639000Y-73375112D01*
X53110000Y-72734112D02*
X54498000Y-72734112D01*
X50244000Y-71774112D02*
X51030000Y-71774112D01*
X53110000Y-72534112D02*
X54418000Y-72534112D01*
X49642000Y-72734112D02*
X51030000Y-72734112D01*
X49550000Y-73055112D02*
X51030000Y-73055112D01*
X51786000Y-71014112D02*
X52354000Y-71014112D01*
X53110000Y-72054112D02*
X54135000Y-72054112D01*
X49688000Y-72614112D02*
X51030000Y-72614112D01*
X53110000Y-72454112D02*
X54380000Y-72454112D01*
X53110000Y-73615112D02*
X54650000Y-73615112D01*
X49846000Y-72294112D02*
X51030000Y-72294112D01*
X53110000Y-72694112D02*
X54484000Y-72694112D01*
X53110000Y-73495112D02*
X54648000Y-73495112D01*
X51265000Y-71134112D02*
X52875000Y-71134112D01*
X53110000Y-72574112D02*
X54435000Y-72574112D01*
X50099000Y-71934112D02*
X51030000Y-71934112D01*
X49579000Y-72935112D02*
X51030000Y-72935112D01*
X49491000Y-73535112D02*
X51030000Y-73535112D01*
X49492000Y-73495112D02*
X51030000Y-73495112D01*
X53110000Y-73455112D02*
X54646000Y-73455112D01*
X50345000Y-76169887D02*
X50845000Y-76169887D01*
X49490000Y-73575112D02*
X51030000Y-73575112D01*
X51552000Y-71054112D02*
X52588000Y-71054112D01*
X50066000Y-71974112D02*
X51030000Y-71974112D01*
X50465000Y-71574112D02*
X53675000Y-71574112D01*
X49520000Y-73215112D02*
X51030000Y-73215112D01*
X53110000Y-72254112D02*
X54270000Y-72254112D01*
X53110000Y-72774112D02*
X54512000Y-72774112D01*
X53110000Y-72975112D02*
X54571000Y-72975112D01*
X50417000Y-71614112D02*
X51030000Y-71614112D01*
X53110000Y-72374112D02*
X54338000Y-72374112D01*
X53110000Y-72414112D02*
X54360000Y-72414112D01*
X49705000Y-72574112D02*
X51030000Y-72574112D01*
X53110000Y-73415112D02*
X54643000Y-73415112D01*
X49975000Y-72094112D02*
X51030000Y-72094112D01*
X53110000Y-71894112D02*
X54007000Y-71894112D01*
X50892000Y-71294112D02*
X53248000Y-71294112D01*
X53110000Y-72614112D02*
X54452000Y-72614112D01*
X53110000Y-73135112D02*
X54606000Y-73135112D01*
X53110000Y-72854112D02*
X54538000Y-72854112D01*
X53110000Y-72935112D02*
X54561000Y-72935112D01*
X51393000Y-71094112D02*
X52747000Y-71094112D01*
X49497000Y-73415112D02*
X51030000Y-73415112D01*
X53110000Y-71854112D02*
X53971000Y-71854112D01*
X53110000Y-73095112D02*
X54598000Y-73095112D01*
X49514000Y-73255112D02*
X51030000Y-73255112D01*
X53110000Y-72814112D02*
X54525000Y-72814112D01*
X54690000Y-73615112D02*
G75*
G03*
X54690000Y-73615112I-2620000J0D01*
G01*
%TO.C,J2*%
X42610000Y-56465000D02*
X43200000Y-56465000D01*
X43200000Y-58685000D02*
X43200000Y-63585000D01*
X43200000Y-63585000D02*
X53320000Y-63585000D01*
X53320000Y-56465000D02*
X53910000Y-56465000D01*
X43200000Y-54365000D02*
X43200000Y-56465000D01*
X43200000Y-54365000D02*
X53320000Y-54365000D01*
X42610000Y-58685000D02*
X43200000Y-58685000D01*
X53320000Y-58685000D02*
X53320000Y-63585000D01*
X53320000Y-54365000D02*
X53320000Y-56465000D01*
X53320000Y-58685000D02*
X53910000Y-58685000D01*
X53910000Y-58685000D02*
G75*
G03*
X53910000Y-56465000I0J1110000D01*
G01*
X42610000Y-56465000D02*
G75*
G03*
X42610000Y-58685000I0J-1110000D01*
G01*
%TO.C,R12*%
X71142776Y-87742500D02*
X71652224Y-87742500D01*
X71142776Y-88787500D02*
X71652224Y-88787500D01*
%TO.C,J6*%
X75920000Y-115360000D02*
X78330000Y-115360000D01*
X86340000Y-123780000D02*
X86340000Y-115660000D01*
X75920000Y-117770000D02*
X75920000Y-115360000D01*
X76220000Y-115660000D02*
X76220000Y-123780000D01*
X76220000Y-123780000D02*
X86340000Y-123780000D01*
X86340000Y-115660000D02*
X76220000Y-115660000D01*
%TO.C,R24*%
X69327500Y-111505276D02*
X69327500Y-112014724D01*
X70372500Y-111505276D02*
X70372500Y-112014724D01*
%TO.C,SW5*%
X104902000Y-122428000D02*
X104902000Y-113792000D01*
X108458000Y-122428000D02*
X104902000Y-122428000D01*
X108458000Y-113792000D02*
X108458000Y-122428000D01*
X104902000Y-113792000D02*
X108458000Y-113792000D01*
%TO.C,R13*%
X65785276Y-71232500D02*
X66294724Y-71232500D01*
X65785276Y-72277500D02*
X66294724Y-72277500D01*
%TO.C,R46*%
X75677500Y-98044724D02*
X75677500Y-97535276D01*
X76722500Y-98044724D02*
X76722500Y-97535276D01*
%TO.C,R23*%
X57650261Y-111536930D02*
X57650261Y-112046378D01*
X58695261Y-111536930D02*
X58695261Y-112046378D01*
D10*
%TO.C,MD1*%
X74680000Y-69600000D02*
X62480000Y-69600000D01*
X74680000Y-69600000D02*
X74680000Y-57400000D01*
X62480000Y-69600000D02*
X62480000Y-57400000D01*
X74680000Y-57400000D02*
X62480000Y-57400000D01*
D16*
X68705000Y-70745000D02*
G75*
G03*
X68705000Y-70745000I-125000J0D01*
G01*
D13*
%TO.C,R49*%
X96584654Y-84877580D02*
X96224420Y-84517346D01*
X97323580Y-84138654D02*
X96963346Y-83778420D01*
%TO.C,Q4*%
X71130000Y-113385000D02*
X72060000Y-113385000D01*
X71130000Y-113385000D02*
X71130000Y-111925000D01*
X74290000Y-113385000D02*
X73360000Y-113385000D01*
X74290000Y-113385000D02*
X74290000Y-110225000D01*
%TO.C,D15*%
X124198928Y-103939699D02*
X126658928Y-103939699D01*
X126658928Y-102469699D02*
X124198928Y-102469699D01*
X126658928Y-103939699D02*
X126658928Y-102469699D01*
%TO.C,D10*%
X87160000Y-62765000D02*
X84700000Y-62765000D01*
X84700000Y-64235000D02*
X87160000Y-64235000D01*
X84700000Y-62765000D02*
X84700000Y-64235000D01*
%TO.C,D5*%
X40910000Y-93054999D02*
X40910000Y-89154999D01*
X42910000Y-93054999D02*
X42910000Y-89154999D01*
X40910000Y-93054999D02*
X42910000Y-93054999D01*
%TO.C,U15*%
X71120000Y-104795000D02*
X74570000Y-104795000D01*
X71120000Y-104795000D02*
X69170000Y-104795000D01*
X71120000Y-99675000D02*
X69170000Y-99675000D01*
X71120000Y-99675000D02*
X73070000Y-99675000D01*
%TO.C,U4*%
X40660000Y-90805000D02*
X40660000Y-92755000D01*
X35540000Y-90805000D02*
X35540000Y-92755000D01*
X35540000Y-90805000D02*
X35540000Y-88855000D01*
X40660000Y-90805000D02*
X40660000Y-87355000D01*
%TO.C,C32*%
X100647273Y-99346988D02*
X100939807Y-99346988D01*
X100647273Y-100366988D02*
X100939807Y-100366988D01*
%TO.C,C34*%
X117863233Y-113028000D02*
X118155767Y-113028000D01*
X117863233Y-114048000D02*
X118155767Y-114048000D01*
D15*
%TO.C,U13*%
X94845000Y-64530000D02*
X95420000Y-64530000D01*
X97270000Y-67490000D02*
X95770000Y-67490000D01*
X95770000Y-67490000D02*
X95770000Y-64590000D01*
X95770000Y-64590000D02*
X97270000Y-64590000D01*
X97270000Y-64590000D02*
X97270000Y-67490000D01*
D13*
%TO.C,R16*%
X80264724Y-55132500D02*
X79755276Y-55132500D01*
X80264724Y-54087500D02*
X79755276Y-54087500D01*
%TO.C,R43*%
X63245276Y-104252500D02*
X63754724Y-104252500D01*
X63245276Y-105297500D02*
X63754724Y-105297500D01*
%TO.C,D12*%
X58150000Y-98080000D02*
X58150000Y-101980000D01*
X56150000Y-98080000D02*
X56150000Y-101980000D01*
X58150000Y-98080000D02*
X56150000Y-98080000D01*
%TO.C,R52*%
X106157500Y-110340224D02*
X106157500Y-109830776D01*
X107202500Y-110340224D02*
X107202500Y-109830776D01*
%TO.C,U17*%
X105731179Y-91227868D02*
X105943311Y-91440000D01*
X100838000Y-86334689D02*
X100625868Y-86546821D01*
X105943311Y-91440000D02*
X105731179Y-91652132D01*
X100838000Y-96545311D02*
X101050132Y-96333179D01*
X95944821Y-91652132D02*
X95732689Y-91440000D01*
X100625868Y-96333179D02*
X100838000Y-96545311D01*
X95732689Y-91440000D02*
X95944821Y-91227868D01*
X101050132Y-86546821D02*
X100838000Y-86334689D01*
X100625868Y-86546821D02*
X99696023Y-85616976D01*
%TO.C,R17*%
X79755276Y-56627500D02*
X80264724Y-56627500D01*
X79755276Y-57672500D02*
X80264724Y-57672500D01*
%TO.C,C33*%
X65258733Y-74805000D02*
X65551267Y-74805000D01*
X65258733Y-73785000D02*
X65551267Y-73785000D01*
%TO.C,U14*%
X75285000Y-73275000D02*
X76385000Y-73275000D01*
X73785000Y-79905000D02*
X75285000Y-79905000D01*
X75285000Y-73005000D02*
X75285000Y-73275000D01*
X75285000Y-79635000D02*
X78115000Y-79635000D01*
X73785000Y-73005000D02*
X75285000Y-73005000D01*
X75285000Y-79905000D02*
X75285000Y-79635000D01*
%TO.C,D7*%
X84700000Y-57685000D02*
X84700000Y-59155000D01*
X84700000Y-59155000D02*
X87160000Y-59155000D01*
X87160000Y-57685000D02*
X84700000Y-57685000D01*
%TO.C,R36*%
X83439724Y-113777500D02*
X82930276Y-113777500D01*
X83439724Y-114822500D02*
X82930276Y-114822500D01*
%TO.C,R41*%
X95907776Y-69102500D02*
X96417224Y-69102500D01*
X95907776Y-68057500D02*
X96417224Y-68057500D01*
%TO.C,R32*%
X64515276Y-113777500D02*
X65024724Y-113777500D01*
X64515276Y-114822500D02*
X65024724Y-114822500D01*
%TO.C,D14*%
X67245456Y-107193174D02*
X71145456Y-107193174D01*
X67245456Y-105193174D02*
X67245456Y-107193174D01*
X67245456Y-105193174D02*
X71145456Y-105193174D01*
%TO.C,Q3*%
X62540000Y-113155000D02*
X62540000Y-109995000D01*
X59380000Y-113155000D02*
X60310000Y-113155000D01*
X59380000Y-113155000D02*
X59380000Y-111695000D01*
X62540000Y-113155000D02*
X61610000Y-113155000D01*
%TO.C,J8*%
X74910000Y-115690000D02*
X64790000Y-115690000D01*
X74910000Y-123810000D02*
X74910000Y-115690000D01*
X64790000Y-123810000D02*
X74910000Y-123810000D01*
X64490000Y-117800000D02*
X64490000Y-115390000D01*
X64790000Y-115690000D02*
X64790000Y-123810000D01*
X64490000Y-115390000D02*
X66900000Y-115390000D01*
D15*
%TO.C,U7*%
X50070000Y-92265000D02*
X50070000Y-92265000D01*
X50070000Y-92265000D02*
X50070000Y-92265000D01*
X50070000Y-92165000D02*
X50070000Y-92165000D01*
X50070000Y-92165000D02*
G75*
G03*
X50070000Y-92265000I0J-50000D01*
G01*
X50070000Y-92265000D02*
G75*
G03*
X50070000Y-92165000I0J50000D01*
G01*
X50070000Y-92265000D02*
G75*
G03*
X50070000Y-92165000I0J50000D01*
G01*
D13*
%TO.C,SW8*%
X113010000Y-107920000D02*
X113010000Y-110520000D01*
X111010000Y-105920000D02*
X112010000Y-105920000D01*
X119110000Y-112470000D02*
X113110000Y-112470000D01*
X111010000Y-106920000D02*
X111010000Y-105920000D01*
X119010000Y-105970000D02*
X113210000Y-105970000D01*
X119210000Y-107920000D02*
X119210000Y-110520000D01*
%TO.C,R31*%
X86105276Y-56402500D02*
X86614724Y-56402500D01*
X86105276Y-55357500D02*
X86614724Y-55357500D01*
%TO.C,R11*%
X67690276Y-88787500D02*
X68199724Y-88787500D01*
X67690276Y-87742500D02*
X68199724Y-87742500D01*
%TO.C,C24*%
X73806267Y-106362269D02*
X73513733Y-106362269D01*
X73806267Y-105342269D02*
X73513733Y-105342269D01*
%TO.C,Q2*%
X38751000Y-67048999D02*
X38751000Y-67321999D01*
X36950000Y-62629999D02*
X36950000Y-69449999D01*
X39490000Y-62629999D02*
X36950000Y-62629999D01*
X38751000Y-62629999D02*
X38751000Y-62740999D01*
X38751000Y-69338999D02*
X38751000Y-69449999D01*
X39490000Y-69449999D02*
X36950000Y-69449999D01*
X39490000Y-62629999D02*
X39490000Y-69449999D01*
X38751000Y-64758999D02*
X38751000Y-65031999D01*
%TO.C,R20*%
X58651116Y-57012864D02*
X59160564Y-57012864D01*
X58651116Y-58057864D02*
X59160564Y-58057864D01*
%TO.C,C30*%
X100984267Y-97788000D02*
X100691733Y-97788000D01*
X100984267Y-98808000D02*
X100691733Y-98808000D01*
%TO.C,D6*%
X88735000Y-66140000D02*
X91195000Y-66140000D01*
X91195000Y-66140000D02*
X91195000Y-64670000D01*
X91195000Y-64670000D02*
X88735000Y-64670000D01*
%TO.C,R3*%
X110235276Y-66308500D02*
X110744724Y-66308500D01*
X110235276Y-65263500D02*
X110744724Y-65263500D01*
%TO.C,R44*%
X68057500Y-94234724D02*
X68057500Y-93725276D01*
X69102500Y-94234724D02*
X69102500Y-93725276D01*
%TO.C,J4*%
X127152500Y-81385000D02*
X127152500Y-101965000D01*
X111412500Y-87095000D02*
X112412500Y-86595000D01*
X111412500Y-86095000D02*
X111412500Y-87095000D01*
X118032500Y-101965000D02*
X118032500Y-81385000D01*
X118032500Y-89625000D02*
X127152500Y-89625000D01*
X112412500Y-86595000D02*
X111412500Y-86095000D01*
X127152500Y-101965000D02*
X118032500Y-101965000D01*
X118032500Y-81385000D02*
X127152500Y-81385000D01*
X118032500Y-93725000D02*
X127152500Y-93725000D01*
%TO.C,R26*%
X57375687Y-94206427D02*
X57375687Y-93696979D01*
X58420687Y-94206427D02*
X58420687Y-93696979D01*
%TO.C,D1*%
X108830000Y-64743000D02*
X111290000Y-64743000D01*
X111290000Y-63273000D02*
X108830000Y-63273000D01*
X108830000Y-63273000D02*
X108830000Y-64743000D01*
%TO.C,SW1*%
X76962000Y-64262000D02*
X80518000Y-64262000D01*
X80518000Y-64262000D02*
X80518000Y-72898000D01*
X76962000Y-72898000D02*
X76962000Y-64262000D01*
X80518000Y-72898000D02*
X76962000Y-72898000D01*
%TO.C,R7*%
X36082500Y-66294724D02*
X36082500Y-65785276D01*
X35037500Y-66294724D02*
X35037500Y-65785276D01*
%TO.C,R51*%
X102361276Y-109742500D02*
X102870724Y-109742500D01*
X102361276Y-108697500D02*
X102870724Y-108697500D01*
%TO.C,C17*%
X84013468Y-79098586D02*
X83331817Y-79780237D01*
X83759617Y-80540377D02*
X82621175Y-81678819D01*
X84028317Y-79423148D02*
X83501523Y-79949943D01*
X80757241Y-80147225D02*
X79669004Y-81235463D01*
X81691329Y-81081313D02*
X80888763Y-81883880D01*
X81917603Y-81307588D02*
X81283329Y-81941862D01*
X81578192Y-80968176D02*
X80709865Y-81836503D01*
X83809114Y-80434311D02*
X82515109Y-81728316D01*
X83848712Y-80338144D02*
X82418942Y-81767914D01*
X83964678Y-78807965D02*
X83162111Y-79610531D01*
X81323634Y-80713618D02*
X80342170Y-81695082D01*
X81068368Y-80458352D02*
X80016193Y-81510527D01*
X80898663Y-80288647D02*
X79820325Y-81366985D01*
X80728957Y-80118941D02*
X79640013Y-81207886D01*
X83828206Y-78378751D02*
X82879269Y-79327689D01*
X80983515Y-80373500D02*
X79915784Y-81441231D01*
X83930737Y-78672201D02*
X83077259Y-79525679D01*
X83996497Y-79794379D02*
X81875177Y-81915699D01*
X83568698Y-77901454D02*
X82510866Y-78959286D01*
X83970334Y-79933679D02*
X82014477Y-81889536D01*
X83613953Y-77969336D02*
X82567435Y-79015855D01*
X83904574Y-78585226D02*
X83020690Y-79469110D01*
X83473238Y-77770639D02*
X82397729Y-78846149D01*
X83370708Y-77646896D02*
X82284592Y-78733012D01*
X83447783Y-77739527D02*
X82369445Y-78817865D01*
X80495771Y-76329008D02*
X80849324Y-76682561D01*
X82002456Y-81392440D02*
X81446670Y-81948226D01*
X83497987Y-77802459D02*
X82426013Y-78874433D01*
X84006397Y-79727911D02*
X81808709Y-81925599D01*
X81238781Y-80628765D02*
X80229033Y-81638514D01*
X81436771Y-80826755D02*
X80499854Y-81763671D01*
X83917301Y-78629067D02*
X83048974Y-79497394D01*
X81351918Y-80741902D02*
X80380353Y-81713467D01*
X83396871Y-77677301D02*
X82312876Y-78761296D01*
X83657086Y-78039340D02*
X82624003Y-79072423D01*
X81663045Y-81053029D02*
X80842801Y-81873273D01*
X83613246Y-80799885D02*
X82880683Y-81532448D01*
X83954071Y-78762003D02*
X83133827Y-79582247D01*
X80813810Y-80203794D02*
X79727694Y-81289910D01*
X82115593Y-81505578D02*
X81682137Y-81939034D01*
X83316261Y-77588206D02*
X82228023Y-78676443D01*
X84019832Y-79601339D02*
X83586376Y-80034795D01*
X81634761Y-81024745D02*
X80797546Y-81861959D01*
X81493339Y-80883324D02*
X80581879Y-81794784D01*
X83591325Y-77935395D02*
X82539150Y-78987570D01*
X84027610Y-79310718D02*
X83444954Y-79893374D01*
X81861035Y-81251019D02*
X81179384Y-81932670D01*
X80849324Y-76329008D02*
X80495771Y-76682561D01*
X83992962Y-78949386D02*
X83246964Y-79695384D01*
X80870378Y-80260362D02*
X79789212Y-81341529D01*
X84014175Y-79663564D02*
X81744362Y-81933377D01*
X83260399Y-77530930D02*
X82171455Y-78619875D01*
X81153221Y-80543205D02*
X80120138Y-81576288D01*
X81945888Y-81335872D02*
X81337069Y-81944691D01*
X83738403Y-78185711D02*
X82737847Y-79186267D01*
X81747898Y-81137882D02*
X80982808Y-81902972D01*
X83844469Y-78419056D02*
X82907553Y-79355973D01*
X81011800Y-80401784D02*
X79949018Y-81464565D01*
X84022660Y-79202531D02*
X83388386Y-79836805D01*
X83983770Y-78902010D02*
X83218680Y-79667100D01*
X83881946Y-80248342D02*
X82329140Y-81801148D01*
X83545363Y-77868220D02*
X82482582Y-78931002D01*
X83422327Y-77708414D02*
X82341160Y-78789580D01*
X84029024Y-79365872D02*
X83473238Y-79921658D01*
X83775880Y-78261372D02*
X82794416Y-79242836D01*
X81040084Y-80430068D02*
X79982252Y-81487900D01*
X81295350Y-80685334D02*
X80303986Y-81676697D01*
X83635873Y-78003985D02*
X82595719Y-79044139D01*
X81096653Y-80486637D02*
X80050134Y-81533155D01*
X83757495Y-78223188D02*
X82766132Y-79214552D01*
X80785526Y-80175510D02*
X79697995Y-81263040D01*
X84025489Y-79256271D02*
X83416670Y-79865090D01*
X83933565Y-80083586D02*
X82164384Y-81852767D01*
X83794265Y-78299555D02*
X82822700Y-79271120D01*
X81889319Y-81279303D02*
X81231003Y-81937620D01*
X81521624Y-80911608D02*
X80623598Y-81809633D01*
X81776182Y-81166166D02*
X81030184Y-81912164D01*
X83288684Y-77559215D02*
X82199739Y-78648159D01*
X83875582Y-78501081D02*
X82964122Y-79412541D01*
X83953364Y-80007218D02*
X82088016Y-81872566D01*
X81267065Y-80657049D02*
X80266509Y-81657605D01*
X80842094Y-80232078D02*
X79758099Y-81316073D01*
X81465055Y-80855039D02*
X80540159Y-81779935D01*
X81181505Y-80571489D02*
X80155493Y-81597501D01*
X83942757Y-78716748D02*
X83105543Y-79553963D01*
X84007104Y-79048381D02*
X83303533Y-79751953D01*
X81210497Y-80600481D02*
X80192263Y-81618715D01*
X83974577Y-78854634D02*
X83190396Y-79638816D01*
X80700673Y-80090657D02*
X79611728Y-81179601D01*
X84024075Y-79540528D02*
X83558091Y-80006511D01*
X81832751Y-81222735D02*
X81129179Y-81926306D01*
X83984477Y-79862968D02*
X81943766Y-81903679D01*
X80955231Y-80345215D02*
X79883257Y-81417189D01*
X83719312Y-78148235D02*
X82709563Y-79157983D01*
X83860733Y-78459361D02*
X82935837Y-79384257D01*
X83343838Y-77617197D02*
X82256308Y-78704728D01*
X84000033Y-78998884D02*
X83275249Y-79723668D01*
X84018418Y-79150205D02*
X83360101Y-79808521D01*
X81719614Y-81109598D02*
X80935432Y-81893779D01*
X83697391Y-80659171D02*
X82739969Y-81616593D01*
X84026903Y-79481131D02*
X83529807Y-79978227D01*
X82059025Y-81449009D02*
X81561929Y-81946105D01*
X81974172Y-81364156D02*
X81391516Y-81946812D01*
X83910230Y-80163489D02*
X82244287Y-81829432D01*
X82030741Y-81420725D02*
X81503946Y-81947519D01*
X81408487Y-80798471D02*
X80459549Y-81747408D01*
X83699513Y-78111465D02*
X82681279Y-79129699D01*
X82087309Y-81477293D02*
X81621326Y-81943277D01*
X80926947Y-80316931D02*
X79851437Y-81392440D01*
X81124937Y-80514921D02*
X80084783Y-81555075D01*
X81549908Y-80939892D02*
X80666024Y-81823776D01*
X83522029Y-77834986D02*
X82454298Y-78902717D01*
X83811235Y-78339153D02*
X82850984Y-79299404D01*
X81380202Y-80770186D02*
X80419951Y-81730437D01*
X83476067Y-80993632D02*
X83074430Y-81395269D01*
X83890431Y-78542800D02*
X82992406Y-79440826D01*
X83678299Y-78074695D02*
X82652287Y-79100707D01*
X81804466Y-81194451D02*
X81079682Y-81919235D01*
X81606477Y-80996461D02*
X80752999Y-81849939D01*
X84056064Y-79355266D02*
G75*
G03*
X84056064Y-79355266I-2620000J0D01*
G01*
%TO.C,D8*%
X47990000Y-87285000D02*
X47990000Y-91185000D01*
X47990000Y-87285000D02*
X45990000Y-87285000D01*
X45990000Y-87285000D02*
X45990000Y-91185000D01*
%TO.C,R55*%
X121812555Y-105342485D02*
X121303107Y-105342485D01*
X121812555Y-104297485D02*
X121303107Y-104297485D01*
%TO.C,C5*%
X37041633Y-78809494D02*
X35687633Y-78809494D01*
X38632633Y-77529494D02*
X37404633Y-77529494D01*
X35324633Y-77409494D02*
X34035633Y-77409494D01*
X38149633Y-78169494D02*
X37404633Y-78169494D01*
X37169633Y-78769494D02*
X35559633Y-78769494D01*
X35324633Y-77969494D02*
X34393633Y-77969494D01*
X35324633Y-76368494D02*
X33785633Y-76368494D01*
X35324633Y-78169494D02*
X34579633Y-78169494D01*
X38729633Y-77329494D02*
X37404633Y-77329494D01*
X37918633Y-78369494D02*
X34810633Y-78369494D01*
X38429633Y-77849494D02*
X37404633Y-77849494D01*
X38190633Y-78129494D02*
X37404633Y-78129494D01*
X38228633Y-78089494D02*
X37404633Y-78089494D01*
X38674633Y-77449494D02*
X37404633Y-77449494D01*
X35324633Y-77729494D02*
X34215633Y-77729494D01*
X37375633Y-78689494D02*
X35353633Y-78689494D01*
X37807633Y-78449494D02*
X34921633Y-78449494D01*
X38654633Y-77489494D02*
X37404633Y-77489494D01*
X37747633Y-78489494D02*
X34981633Y-78489494D01*
X35324633Y-76968494D02*
X33873633Y-76968494D01*
X38875633Y-76888494D02*
X37404633Y-76888494D01*
X38486633Y-77769494D02*
X37404633Y-77769494D01*
X38564633Y-77649494D02*
X37404633Y-77649494D01*
X38907633Y-76728494D02*
X37404633Y-76728494D01*
X35324633Y-76288494D02*
X33784633Y-76288494D01*
X35324633Y-77769494D02*
X34242633Y-77769494D01*
X38943633Y-76368494D02*
X37404633Y-76368494D01*
X35324633Y-76528494D02*
X33795633Y-76528494D01*
X35324633Y-76608494D02*
X33803633Y-76608494D01*
X38459633Y-77809494D02*
X37404633Y-77809494D01*
X38900633Y-76768494D02*
X37404633Y-76768494D01*
X35324633Y-77809494D02*
X34269633Y-77809494D01*
X35324633Y-77529494D02*
X34096633Y-77529494D01*
X38089633Y-73733719D02*
X37589633Y-73733719D01*
X35324633Y-77569494D02*
X34117633Y-77569494D01*
X35324633Y-76768494D02*
X33828633Y-76768494D01*
X36648633Y-78889494D02*
X36080633Y-78889494D01*
X38914633Y-76688494D02*
X37404633Y-76688494D01*
X35324633Y-77209494D02*
X33950633Y-77209494D01*
X38301633Y-78009494D02*
X37404633Y-78009494D01*
X38929633Y-76568494D02*
X37404633Y-76568494D01*
X37615633Y-78569494D02*
X35113633Y-78569494D01*
X36882633Y-78849494D02*
X35846633Y-78849494D01*
X38762633Y-77249494D02*
X37404633Y-77249494D01*
X38335633Y-77969494D02*
X37404633Y-77969494D01*
X35324633Y-78209494D02*
X34621633Y-78209494D01*
X37839633Y-73483719D02*
X37839633Y-73983719D01*
X35324633Y-76928494D02*
X33863633Y-76928494D01*
X35324633Y-77929494D02*
X34360633Y-77929494D01*
X35324633Y-77369494D02*
X34016633Y-77369494D01*
X38925633Y-76608494D02*
X37404633Y-76608494D01*
X35324633Y-77329494D02*
X33999633Y-77329494D01*
X35324633Y-76448494D02*
X33788633Y-76448494D01*
X37462633Y-78649494D02*
X35266633Y-78649494D01*
X38712633Y-77369494D02*
X37404633Y-77369494D01*
X38944633Y-76288494D02*
X37404633Y-76288494D01*
X38063633Y-78249494D02*
X37404633Y-78249494D01*
X38865633Y-76928494D02*
X37404633Y-76928494D01*
X38792633Y-77169494D02*
X37404633Y-77169494D01*
X35324633Y-77449494D02*
X34054633Y-77449494D01*
X35324633Y-77249494D02*
X33966633Y-77249494D01*
X35324633Y-77129494D02*
X33922633Y-77129494D01*
X35324633Y-78049494D02*
X34463633Y-78049494D01*
X35324633Y-77649494D02*
X34164633Y-77649494D01*
X38892633Y-76808494D02*
X37404633Y-76808494D01*
X35324633Y-76808494D02*
X33836633Y-76808494D01*
X35324633Y-77609494D02*
X34140633Y-77609494D01*
X38806633Y-77129494D02*
X37404633Y-77129494D01*
X38944633Y-76328494D02*
X37404633Y-76328494D01*
X37279633Y-78729494D02*
X35449633Y-78729494D01*
X37969633Y-78329494D02*
X34759633Y-78329494D01*
X35324633Y-76688494D02*
X33814633Y-76688494D01*
X38017633Y-78289494D02*
X37404633Y-78289494D01*
X35324633Y-77289494D02*
X33982633Y-77289494D01*
X35324633Y-77889494D02*
X34329633Y-77889494D01*
X38265633Y-78049494D02*
X37404633Y-78049494D01*
X35324633Y-76848494D02*
X33844633Y-76848494D01*
X38588633Y-77609494D02*
X37404633Y-77609494D01*
X38693633Y-77409494D02*
X37404633Y-77409494D01*
X38855633Y-76968494D02*
X37404633Y-76968494D01*
X35324633Y-76488494D02*
X33791633Y-76488494D01*
X38933633Y-76528494D02*
X37404633Y-76528494D01*
X35324633Y-76568494D02*
X33799633Y-76568494D01*
X35324633Y-76888494D02*
X33853633Y-76888494D01*
X35324633Y-77009494D02*
X33884633Y-77009494D01*
X38746633Y-77289494D02*
X37404633Y-77289494D01*
X35324633Y-76728494D02*
X33821633Y-76728494D01*
X38819633Y-77089494D02*
X37404633Y-77089494D01*
X38940633Y-76448494D02*
X37404633Y-76448494D01*
X38399633Y-77889494D02*
X37404633Y-77889494D01*
X35324633Y-78249494D02*
X34665633Y-78249494D01*
X37542633Y-78609494D02*
X35186633Y-78609494D01*
X37864633Y-78409494D02*
X34864633Y-78409494D01*
X35324633Y-77689494D02*
X34189633Y-77689494D01*
X38884633Y-76848494D02*
X37404633Y-76848494D01*
X35324633Y-76648494D02*
X33808633Y-76648494D01*
X35324633Y-77849494D02*
X34299633Y-77849494D01*
X35324633Y-77089494D02*
X33909633Y-77089494D01*
X38513633Y-77729494D02*
X37404633Y-77729494D01*
X38611633Y-77569494D02*
X37404633Y-77569494D01*
X38937633Y-76488494D02*
X37404633Y-76488494D01*
X38539633Y-77689494D02*
X37404633Y-77689494D01*
X35324633Y-78009494D02*
X34427633Y-78009494D01*
X35324633Y-76328494D02*
X33784633Y-76328494D01*
X35324633Y-77169494D02*
X33936633Y-77169494D01*
X38920633Y-76648494D02*
X37404633Y-76648494D01*
X38368633Y-77929494D02*
X37404633Y-77929494D01*
X38778633Y-77209494D02*
X37404633Y-77209494D01*
X38844633Y-77009494D02*
X37404633Y-77009494D01*
X38942633Y-76408494D02*
X37404633Y-76408494D01*
X38107633Y-78209494D02*
X37404633Y-78209494D01*
X35324633Y-78289494D02*
X34711633Y-78289494D01*
X35324633Y-77489494D02*
X34074633Y-77489494D01*
X37683633Y-78529494D02*
X35045633Y-78529494D01*
X38832633Y-77049494D02*
X37404633Y-77049494D01*
X35324633Y-76408494D02*
X33786633Y-76408494D01*
X35324633Y-78089494D02*
X34500633Y-78089494D01*
X35324633Y-77049494D02*
X33896633Y-77049494D01*
X35324633Y-78129494D02*
X34538633Y-78129494D01*
X38984633Y-76288494D02*
G75*
G03*
X38984633Y-76288494I-2620000J0D01*
G01*
%TO.C,J5*%
X34040000Y-115490000D02*
X42160000Y-115490000D01*
X42160000Y-115490000D02*
X42160000Y-97870000D01*
X34040000Y-97870000D02*
X34040000Y-115490000D01*
X42460000Y-97570000D02*
X42460000Y-99980000D01*
X42160000Y-97870000D02*
X34040000Y-97870000D01*
X40050000Y-97570000D02*
X42460000Y-97570000D01*
%TO.C,C27*%
X117810233Y-123700000D02*
X118102767Y-123700000D01*
X117810233Y-122680000D02*
X118102767Y-122680000D01*
%TO.C,R54*%
X121861420Y-102670875D02*
X121351972Y-102670875D01*
X121861420Y-103715875D02*
X121351972Y-103715875D01*
%TD*%
M02*
