M48
; DRILL file {KiCad (6.0.7)} date Sat Jun 24 17:20:53 2023
; FORMAT={-:-/ absolute / inch / decimal}
; #@! TF.CreationDate,2023-06-24T17:20:53+09:00
; #@! TF.GenerationSoftware,Kicad,Pcbnew,(6.0.7)
; #@! TF.FileFunction,Plated,1,2,PTH
FMAT,2
INCH
; #@! TA.AperFunction,Plated,PTH,ViaDrill
T1C0.0157
; #@! TA.AperFunction,Plated,PTH,ComponentDrill
T2C0.0300
; #@! TA.AperFunction,Plated,PTH,ComponentDrill
T3C0.0315
; #@! TA.AperFunction,Plated,PTH,ComponentDrill
T4C0.0335
; #@! TA.AperFunction,Plated,PTH,ComponentDrill
T5C0.0394
; #@! TA.AperFunction,Plated,PTH,ComponentDrill
T6C0.0433
; #@! TA.AperFunction,Plated,PTH,ComponentDrill
T7C0.0748
%
G90
G05
T1
X1.35Y-2.15
X1.35Y-2.3
X1.35Y-2.5
X1.35Y-2.75
X1.35Y-2.975
X1.35Y-3.2
X1.35Y-3.525
X1.35Y-3.7
X1.35Y-3.925
X1.35Y-4.125
X1.35Y-4.375
X1.35Y-4.65
X1.35Y-4.75
X1.35Y-4.9
X1.4312Y-2.8741
X1.44Y-3.81
X1.45Y-3.31
X1.45Y-3.41
X1.45Y-3.53
X1.45Y-3.62
X1.47Y-4.11
X1.4825Y-2.7582
X1.5Y-2.15
X1.5Y-2.3
X1.5Y-3.62
X1.5Y-4.75
X1.5Y-4.9
X1.53Y-4.2
X1.54Y-4.3
X1.54Y-4.43
X1.5577Y-3.0314
X1.56Y-3.3
X1.56Y-3.58
X1.56Y-4.11
X1.564Y-2.5288
X1.5715Y-2.861
X1.6051Y-3.7538
X1.61Y-3.35
X1.62Y-3.86
X1.62Y-4.51
X1.6229Y-3.7068
X1.6354Y-2.4047
X1.6367Y-3.2727
X1.65Y-4.51
X1.65Y-4.54
X1.66Y-4.12
X1.6668Y-2.7469
X1.675Y-4.9
X1.68Y-3.41
X1.68Y-4.51
X1.68Y-4.54
X1.68Y-4.57
X1.7Y-2.15
X1.7019Y-2.5301
X1.71Y-4.51
X1.71Y-4.54
X1.71Y-4.57
X1.71Y-4.6
X1.7119Y-2.8434
X1.7144Y-2.975
X1.73Y-4.05
X1.73Y-4.2
X1.74Y-4.38
X1.74Y-4.51
X1.74Y-4.54
X1.74Y-4.57
X1.74Y-4.6
X1.7407Y-3.2012
X1.751Y-3.6
X1.76Y-3.64
X1.76Y-3.75
X1.7658Y-3.1129
X1.77Y-3.31
X1.77Y-4.35
X1.77Y-4.38
X1.77Y-4.51
X1.77Y-4.54
X1.77Y-4.57
X1.77Y-4.6
X1.7839Y-3.2107
X1.8Y-4.32
X1.8Y-4.35
X1.8Y-4.38
X1.8Y-4.51
X1.8Y-4.54
X1.8Y-4.57
X1.8Y-4.6
X1.825Y-4.9
X1.83Y-4.29
X1.83Y-4.32
X1.83Y-4.35
X1.83Y-4.38
X1.83Y-4.51
X1.83Y-4.54
X1.83Y-4.57
X1.83Y-4.6
X1.8358Y-3.1419
X1.8397Y-2.5376
X1.8431Y-3.2438
X1.85Y-3.7
X1.86Y-4.29
X1.86Y-4.32
X1.86Y-4.35
X1.86Y-4.38
X1.86Y-4.51
X1.86Y-4.54
X1.86Y-4.57
X1.86Y-4.6
X1.87Y-3.93
X1.87Y-3.97
X1.87Y-4.15
X1.8761Y-2.9725
X1.89Y-4.29
X1.89Y-4.32
X1.89Y-4.35
X1.89Y-4.38
X1.89Y-4.51
X1.89Y-4.54
X1.89Y-4.57
X1.89Y-4.6
X1.9Y-2.15
X1.9Y-3.375
X1.9Y-4.0
X1.9Y-4.03
X1.9Y-4.06
X1.9Y-4.09
X1.92Y-3.63
X1.92Y-4.2
X1.92Y-4.29
X1.92Y-4.32
X1.92Y-4.35
X1.92Y-4.38
X1.92Y-4.51
X1.92Y-4.54
X1.92Y-4.57
X1.92Y-4.6
X1.9225Y-2.2907
X1.925Y-3.55
X1.93Y-3.86
X1.93Y-3.97
X1.93Y-4.02
X1.93Y-4.05
X1.93Y-4.08
X1.93Y-4.11
X1.9413Y-2.7532
X1.95Y-4.29
X1.95Y-4.32
X1.95Y-4.35
X1.95Y-4.38
X1.95Y-4.51
X1.95Y-4.54
X1.95Y-4.57
X1.95Y-4.6
X1.96Y-4.01
X1.96Y-4.04
X1.96Y-4.07
X1.96Y-4.1
X1.96Y-4.13
X1.975Y-3.125
X1.975Y-3.65
X1.975Y-3.7
X1.975Y-3.75
X1.98Y-4.16
X1.98Y-4.29
X1.98Y-4.32
X1.98Y-4.35
X1.98Y-4.38
X1.98Y-4.51
X1.98Y-4.54
X1.98Y-4.57
X1.98Y-4.6
X1.99Y-4.01
X1.99Y-4.04
X1.99Y-4.07
X1.99Y-4.1
X1.99Y-4.13
X1.9976Y-2.871
X2.01Y-2.53
X2.01Y-4.29
X2.01Y-4.32
X2.01Y-4.35
X2.01Y-4.51
X2.01Y-4.54
X2.01Y-4.57
X2.01Y-4.6
X2.02Y-4.01
X2.02Y-4.04
X2.02Y-4.07
X2.02Y-4.1
X2.02Y-4.13
X2.025Y-3.65
X2.025Y-3.7
X2.025Y-3.75
X2.04Y-4.29
X2.04Y-4.32
X2.05Y-4.01
X2.05Y-4.04
X2.05Y-4.07
X2.05Y-4.9
X2.056Y-4.4863
X2.07Y-4.29
X2.075Y-2.15
X2.075Y-3.65
X2.075Y-3.7
X2.075Y-3.75
X2.075Y-4.095
X2.08Y-4.05
X2.0979Y-2.4311
X2.1Y-4.16
X2.1205Y-2.9336
X2.125Y-3.65
X2.125Y-3.7
X2.125Y-3.75
X2.1278Y-4.4211
X2.15Y-2.45
X2.159Y-2.6436
X2.16Y-4.07
X2.17Y-3.84
X2.17Y-3.97
X2.1763Y-3.2559
X2.1763Y-3.2973
X2.18Y-4.16
X2.1813Y-3.0855
X2.1813Y-3.192
X2.1819Y-2.3158
X2.189Y-2.8642
X2.1932Y-2.411
X2.2Y-3.58
X2.24Y-3.84
X2.24Y-3.93
X2.24Y-3.96
X2.24Y-3.99
X2.25Y-2.55
X2.25Y-3.78
X2.2632Y-4.2849
X2.27Y-3.93
X2.27Y-3.96
X2.27Y-3.99
X2.275Y-2.15
X2.275Y-3.7058
X2.2935Y-2.957
X2.2951Y-2.7656
X2.3Y-3.89
X2.3Y-3.92
X2.3Y-3.95
X2.3Y-3.98
X2.3Y-4.01
X2.3Y-4.04
X2.306Y-2.3183
X2.3085Y-2.6667
X2.3183Y-4.7412
X2.32Y-3.62
X2.32Y-3.77
X2.3225Y-4.4032
X2.325Y-4.9
X2.3267Y-3.3011
X2.33Y-3.86
X2.33Y-3.89
X2.33Y-3.92
X2.33Y-3.95
X2.33Y-3.98
X2.33Y-4.01
X2.3486Y-2.5965
X2.35Y-4.2
X2.3543Y-4.564
X2.3575Y-4.4862
X2.375Y-3.65
X2.375Y-3.7
X2.375Y-3.75
X2.3774Y-2.421
X2.3849Y-2.6742
X2.3927Y-4.2841
X2.4Y-3.09
X2.4117Y-2.142
X2.4126Y-2.1803
X2.4171Y-2.2134
X2.418Y-2.2446
X2.425Y-3.65
X2.425Y-3.7
X2.425Y-3.75
X2.437Y-3.2547
X2.4395Y-3.192
X2.4445Y-4.447
X2.4462Y-4.5197
X2.4474Y-2.1429
X2.4497Y-2.9578
X2.4519Y-2.1794
X2.4537Y-2.2134
X2.4546Y-2.2473
X2.4673Y-2.7782
X2.475Y-3.65
X2.475Y-3.7
X2.475Y-3.75
X2.484Y-2.1429
X2.4885Y-2.1759
X2.5247Y-4.63
X2.525Y-3.65
X2.525Y-3.7
X2.525Y-3.75
X2.5251Y-2.1446
X2.5277Y-2.1794
X2.5531Y-4.5406
X2.5652Y-2.1446
X2.567Y-2.1794
X2.5715Y-2.2205
X2.5733Y-2.2553
X2.5774Y-3.3424
X2.5779Y-3.5564
X2.5823Y-3.4918
X2.6Y-4.9
X2.6036Y-2.2187
X2.6063Y-2.1429
X2.6063Y-2.1786
X2.609Y-2.2526
X2.6263Y-3.088
X2.6357Y-2.2178
X2.6393Y-2.2491
X2.6425Y-3.1594
X2.6446Y-2.1438
X2.6473Y-2.1777
X2.6643Y-4.4784
X2.6698Y-3.5586
X2.6857Y-2.1438
X2.6866Y-2.1777
X2.6911Y-3.0089
X2.6995Y-2.8108
X2.7152Y-4.7654
X2.7267Y-2.1438
X2.7294Y-2.1794
X2.734Y-3.2547
X2.7411Y-3.0089
X2.7444Y-3.6333
X2.7734Y-3.7664
X2.775Y-3.9513
X2.7911Y-3.0089
X2.7913Y-2.1284
X2.7988Y-3.999
X2.8004Y-4.5582
X2.8117Y-3.3499
X2.814Y-2.8663
X2.8163Y-4.4738
X2.8207Y-3.6338
X2.8252Y-3.9675
X2.8411Y-3.0089
X2.8431Y-3.1557
X2.8631Y-3.7502
X2.875Y-4.9
X2.8807Y-3.2559
X2.8839Y-3.0089
X2.9033Y-4.0
X2.9126Y-3.6316
X2.915Y-3.01
X2.9321Y-3.4701
X2.9333Y-4.2691
X2.9335Y-2.7581
X2.9377Y-3.0769
X2.9391Y-4.6342
X2.9602Y-2.9444
X2.9622Y-4.0591
X2.9636Y-2.3182
X2.9639Y-3.7753
X2.975Y-4.1
X2.98Y-3.9614
X2.9856Y-3.621
X2.9903Y-2.6537
X2.9945Y-2.5438
X2.997Y-2.4561
X2.9993Y-4.5339
X3.0Y-3.19
X3.0Y-4.0
X3.004Y-3.5397
X3.014Y-3.9329
X3.0205Y-3.6552
X3.03Y-2.72
X3.0307Y-3.704
X3.0354Y-2.281
X3.0411Y-4.7671
X3.0532Y-2.1328
X3.0558Y-3.6115
X3.063Y-3.4746
X3.0658Y-3.5408
X3.0714Y-3.0629
X3.0735Y-2.3184
X3.075Y-3.75
X3.0829Y-4.4771
X3.092Y-3.3303
X3.0959Y-3.4061
X3.0998Y-4.266
X3.1Y-3.45
X3.1Y-4.1
X3.1Y-4.9
X3.1153Y-3.7432
X3.1304Y-3.8349
X3.1343Y-3.9758
X3.1399Y-2.6537
X3.143Y-2.393
X3.145Y-3.12
X3.1462Y-2.1989
X3.1499Y-2.5008
X3.1934Y-3.9045
X3.1939Y-4.1747
X3.1967Y-4.0048
X3.2Y-4.4535
X3.21Y-3.41
X3.2141Y-2.5366
X3.2141Y-2.5741
X3.2141Y-2.6141
X3.2249Y-4.7119
X3.225Y-3.725
X3.225Y-3.775
X3.2256Y-2.2782
X3.248Y-2.902
X3.25Y-2.15
X3.25Y-3.1
X3.2506Y-3.4761
X3.2545Y-3.575
X3.2545Y-3.675
X3.2746Y-3.7195
X3.2872Y-3.5424
X3.302Y-3.8338
X3.3064Y-3.4739
X3.3098Y-4.0572
X3.3242Y-2.3693
X3.3318Y-4.7971
X3.34Y-3.19
X3.34Y-3.3
X3.3502Y-4.6434
X3.3516Y-3.1085
X3.3701Y-2.4654
X3.3732Y-3.4066
X3.3745Y-4.1797
X3.375Y-2.6
X3.3761Y-4.3109
X3.3917Y-3.9107
X3.3952Y-2.244
X3.3961Y-2.4439
X3.403Y-2.1309
X3.4084Y-3.2313
X3.4104Y-4.4287
X3.425Y-4.9
X3.4275Y-3.3536
X3.4361Y-2.3564
X3.4518Y-3.4756
X3.4555Y-4.3317
X3.4624Y-3.709
X3.4646Y-2.2515
X3.468Y-4.7094
X3.4764Y-4.5339
X3.4821Y-2.5222
X3.4863Y-2.1989
X3.499Y-4.4028
X3.5228Y-3.4455
X3.5265Y-4.0209
X3.5359Y-3.8316
X3.5452Y-4.2127
X3.5488Y-3.3112
X3.5631Y-2.4855
X3.5648Y-2.3543
X3.5657Y-2.259
X3.575Y-3.1985
X3.58Y-3.0631
X3.5888Y-3.5424
X3.5924Y-2.1309
X3.5933Y-3.7681
X3.6Y-2.8
X3.625Y-4.9
X3.6317Y-2.254
X3.6325Y-2.4303
X3.6423Y-3.3699
X3.65Y-2.5598
X3.6502Y-4.5481
X3.6505Y-4.4439
X3.6618Y-3.709
X3.675Y-2.375
X3.675Y-2.925
X3.6816Y-3.3079
X3.6986Y-3.8546
X3.7045Y-2.625
X3.7069Y-2.2523
X3.7087Y-4.7645
X3.7094Y-2.498
X3.7144Y-3.414
X3.7163Y-4.1149
X3.7463Y-4.6459
X3.7514Y-3.031
X3.7526Y-3.2176
X3.7855Y-3.7611
X3.788Y-3.8998
X3.8Y-2.525
X3.8063Y-2.4721
X3.8156Y-4.0192
X3.8159Y-4.3405
X3.8185Y-3.4341
X3.8197Y-2.2444
X3.8216Y-3.2006
X3.8231Y-4.6108
X3.8305Y-3.0377
X3.836Y-3.6094
X3.85Y-3.95
X3.875Y-2.125
X3.875Y-4.9
X3.8795Y-4.025
X3.8884Y-3.3145
X3.8925Y-4.7921
X3.9141Y-3.2315
X3.9192Y-3.5167
X3.925Y-2.5
X3.9322Y-3.4795
X3.9334Y-3.9775
X3.951Y-4.0577
X3.9518Y-4.6877
X3.9531Y-3.5866
X3.961Y-4.5999
X3.9669Y-3.8342
X3.9677Y-4.2189
X3.9703Y-3.3925
X3.975Y-3.2
X3.975Y-3.675
X3.9884Y-2.2507
X4.0Y-3.55
X4.0161Y-4.0669
X4.0178Y-3.9775
X4.0245Y-4.122
X4.025Y-3.5
X4.025Y-4.025
X4.0377Y-2.3367
X4.0555Y-3.3769
X4.0588Y-4.5431
X4.0805Y-4.3443
X4.0867Y-3.9878
X4.0867Y-4.0572
X4.0884Y-3.8926
X4.0895Y-2.2465
X4.0917Y-4.1867
X4.0974Y-3.3974
X4.1Y-3.125
X4.1Y-3.8
X4.1Y-4.9
X4.1059Y-2.6226
X4.1092Y-2.676
X4.125Y-2.15
X4.1253Y-3.4253
X4.149Y-4.686
X4.15Y-4.35
X4.164Y-4.412
X4.1682Y-4.6008
X4.1711Y-3.7405
X4.1853Y-3.0905
X4.1878Y-2.8415
X4.2Y-3.5
X4.2048Y-2.2615
X4.2133Y-4.8247
X4.2162Y-3.8859
X4.2317Y-4.4278
X4.2413Y-4.3413
X4.2626Y-4.6325
X4.2847Y-2.6301
X4.2886Y-4.2114
X4.2902Y-4.5047
X4.2931Y-4.0563
X4.2939Y-3.9953
X4.3013Y-2.9588
X4.3052Y-4.8038
X4.3131Y-3.0997
X4.3165Y-3.7372
X4.325Y-4.625
X4.325Y-4.9
X4.35Y-3.525
X4.35Y-3.675
X4.3507Y-4.4465
X4.3545Y-4.757
X4.3616Y-4.3438
X4.3687Y-4.6267
X4.3942Y-3.8709
X4.4Y-2.15
X4.4038Y-4.5022
X4.4099Y-2.8449
X4.4107Y-3.5478
X4.4288Y-2.4742
X4.4355Y-2.7669
X4.4418Y-2.6451
X4.4463Y-2.259
X4.4627Y-4.3446
X4.4643Y-3.0061
X4.4643Y-4.7248
X4.4677Y-4.1925
X4.468Y-2.3217
X4.4685Y-2.6033
X4.4685Y-2.905
X4.4685Y-3.2475
X4.4836Y-4.063
X4.4961Y-3.9953
X4.5Y-3.14
X4.5078Y-4.51
X4.5111Y-4.3897
X4.5125Y-4.8899
X4.5362Y-4.2126
X4.5391Y-2.3142
X4.5437Y-3.0002
X4.5529Y-2.8975
X4.5576Y-4.8038
X4.5586Y-2.5665
X4.5599Y-2.4646
X4.5603Y-2.6906
X4.5621Y-4.1432
X4.5638Y-3.9176
X4.5654Y-4.0346
X4.5691Y-2.1972
X4.573Y-4.6362
X4.5813Y-4.424
X4.6Y-4.125
X4.62Y-3.12
X4.6317Y-3.3736
X4.6381Y-3.5358
X4.6438Y-2.8377
X4.6448Y-4.0146
X4.6473Y-4.5059
X4.65Y-2.15
X4.6535Y-2.2975
X4.6622Y-2.6722
X4.6704Y-4.732
X4.6923Y-3.004
X4.7Y-4.05
X4.7041Y-4.0923
X4.7057Y-2.4832
X4.7083Y-4.1583
X4.709Y-2.7149
X4.71Y-3.96
X4.72Y-3.6377
X4.7209Y-3.4251
X4.7234Y-3.4932
X4.725Y-4.9
X4.7292Y-3.2534
X4.7633Y-2.7625
X4.7697Y-2.6467
X4.7708Y-2.8627
X4.78Y-2.69
X4.7852Y-4.0964
X4.7877Y-4.0204
X4.7977Y-4.3718
X4.8061Y-2.9944
X4.8069Y-4.6337
X4.8086Y-3.1105
X4.85Y-2.15
X4.85Y-2.3
X4.85Y-4.75
X4.85Y-4.9
X4.8545Y-4.1666
X4.8554Y-3.3779
X4.8554Y-4.4975
X4.857Y-3.5408
X4.86Y-3.46
X4.8646Y-3.9043
X4.8657Y-2.6434
X4.8771Y-3.6712
X4.915Y-3.3122
X4.9214Y-4.0229
X4.9381Y-4.2819
X4.95Y-3.78
X4.9739Y-2.945
X5.0Y-2.15
X5.0Y-2.3
X5.0Y-4.75
X5.0Y-4.9
X5.025Y-2.425
X5.025Y-2.625
X5.025Y-2.85
X5.025Y-3.125
X5.025Y-3.375
X5.025Y-3.65
X5.025Y-3.9
X5.025Y-4.125
X5.025Y-4.425
X5.025Y-4.625
T2
X3.1Y-2.6
X3.1Y-2.7
X3.1Y-2.8
X3.525Y-4.625
X3.525Y-4.725
X3.525Y-4.825
X3.55Y-2.2059
X3.55Y-2.3059
X3.55Y-2.4059
X4.2Y-4.55
X4.2Y-4.65
X4.2Y-4.75
X4.4976Y-2.4537
X4.4976Y-2.5537
X4.4976Y-2.6537
X4.4976Y-2.7537
X4.4976Y-2.8537
X4.4976Y-2.9537
X4.4976Y-3.0537
X4.5Y-2.27
X4.6Y-2.27
X4.7Y-2.27
X4.7976Y-2.4537
X4.7976Y-3.0537
X4.8976Y-2.4537
X4.8976Y-3.0537
T3
X1.3996Y-3.2502
X1.3996Y-3.3502
X1.4317Y-2.9641
X1.4317Y-3.0429
X1.6996Y-3.2502
X1.6996Y-3.3502
X2.05Y-2.8589
X2.05Y-2.9376
X2.8002Y-3.5754
X2.8002Y-3.8754
X2.9002Y-3.5754
X2.9002Y-3.8754
X3.1783Y-3.0964
X3.234Y-3.1521
X3.5918Y-3.2782
X3.7282Y-3.1418
T4
X1.6043Y-3.9539
X1.6043Y-4.0524
X1.6043Y-4.1508
X1.6043Y-4.2492
X1.6043Y-4.3476
X1.6043Y-4.4461
X2.2016Y-4.6087
X2.3Y-4.6087
X2.3984Y-4.6087
X2.6516Y-4.6102
X2.75Y-4.6102
X2.8484Y-4.6102
X3.1016Y-4.6091
X3.2Y-4.6091
X3.2984Y-4.6091
X3.7531Y-2.4102
X3.8516Y-2.4102
X3.95Y-2.4102
X4.0484Y-2.4102
X4.1469Y-2.4102
T5
X1.6835Y-2.2667
X2.1165Y-2.2667
X3.7098Y-2.18
X3.8098Y-2.18
X4.4788Y-3.4093
X4.4788Y-3.5093
X4.4788Y-3.6093
X4.4788Y-3.7093
X4.4788Y-3.8093
X4.5788Y-3.4093
X4.5788Y-3.5093
X4.5788Y-3.6093
X4.5788Y-3.7093
X4.5788Y-3.8093
T6
X1.5Y-2.5098
X1.5Y-2.6
X1.5Y-2.6902
X4.0Y-4.45
X4.0Y-4.55
X4.0Y-4.65
X4.0Y-4.75
X4.0Y-4.85
T7
X1.8016Y-2.6604
X1.9984Y-2.6604
T0
M30
