%TF.GenerationSoftware,KiCad,Pcbnew,(6.0.7)*%
%TF.CreationDate,2023-06-24T17:20:50+09:00*%
%TF.ProjectId,motordriver,6d6f746f-7264-4726-9976-65722e6b6963,rev?*%
%TF.SameCoordinates,Original*%
%TF.FileFunction,Soldermask,Bot*%
%TF.FilePolarity,Negative*%
%FSLAX46Y46*%
G04 Gerber Fmt 4.6, Leading zero omitted, Abs format (unit mm)*
G04 Created by KiCad (PCBNEW (6.0.7)) date 2023-06-24 17:20:50*
%MOMM*%
%LPD*%
G01*
G04 APERTURE LIST*
G04 Aperture macros list*
%AMRoundRect*
0 Rectangle with rounded corners*
0 $1 Rounding radius*
0 $2 $3 $4 $5 $6 $7 $8 $9 X,Y pos of 4 corners*
0 Add a 4 corners polygon primitive as box body*
4,1,4,$2,$3,$4,$5,$6,$7,$8,$9,$2,$3,0*
0 Add four circle primitives for the rounded corners*
1,1,$1+$1,$2,$3*
1,1,$1+$1,$4,$5*
1,1,$1+$1,$6,$7*
1,1,$1+$1,$8,$9*
0 Add four rect primitives between the rounded corners*
20,1,$1+$1,$2,$3,$4,$5,0*
20,1,$1+$1,$4,$5,$6,$7,0*
20,1,$1+$1,$6,$7,$8,$9,0*
20,1,$1+$1,$8,$9,$2,$3,0*%
%AMRotRect*
0 Rectangle, with rotation*
0 The origin of the aperture is its center*
0 $1 length*
0 $2 width*
0 $3 Rotation angle, in degrees counterclockwise*
0 Add horizontal line*
21,1,$1,$2,0,0,$3*%
%AMFreePoly0*
4,1,6,1.000000,0.000000,0.500000,-0.750000,-0.500000,-0.750000,-0.500000,0.750000,0.500000,0.750000,1.000000,0.000000,1.000000,0.000000,$1*%
G04 Aperture macros list end*
%ADD10C,1.524000*%
%ADD11C,2.800000*%
%ADD12RoundRect,0.237500X-0.300000X-0.237500X0.300000X-0.237500X0.300000X0.237500X-0.300000X0.237500X0*%
%ADD13C,1.500000*%
%ADD14O,1.600000X1.600000*%
%ADD15R,1.600000X1.600000*%
%ADD16C,1.700000*%
%ADD17RoundRect,0.250000X0.600000X0.675000X-0.600000X0.675000X-0.600000X-0.675000X0.600000X-0.675000X0*%
%ADD18O,1.700000X1.850000*%
%ADD19RoundRect,0.250000X-0.600000X-0.675000X0.600000X-0.675000X0.600000X0.675000X-0.600000X0.675000X0*%
%ADD20RoundRect,0.237500X-0.250000X-0.237500X0.250000X-0.237500X0.250000X0.237500X-0.250000X0.237500X0*%
%ADD21RoundRect,0.237500X-0.237500X0.300000X-0.237500X-0.300000X0.237500X-0.300000X0.237500X0.300000X0*%
%ADD22RoundRect,0.237500X0.300000X0.237500X-0.300000X0.237500X-0.300000X-0.237500X0.300000X-0.237500X0*%
%ADD23RoundRect,0.237500X0.237500X-0.300000X0.237500X0.300000X-0.237500X0.300000X-0.237500X-0.300000X0*%
%ADD24R,1.524000X1.524000*%
%ADD25C,1.600000*%
%ADD26C,1.400000*%
%ADD27R,3.500000X3.500000*%
%ADD28C,3.500000*%
%ADD29RoundRect,0.237500X0.237500X-0.250000X0.237500X0.250000X-0.237500X0.250000X-0.237500X-0.250000X0*%
%ADD30R,1.800000X1.717500*%
%ADD31O,1.800000X1.717500*%
%ADD32RoundRect,0.250000X-0.600000X-0.600000X0.600000X-0.600000X0.600000X0.600000X-0.600000X0.600000X0*%
%ADD33R,0.575000X0.620000*%
%ADD34RotRect,1.600000X1.600000X315.000000*%
%ADD35RoundRect,0.250000X-0.675000X0.600000X-0.675000X-0.600000X0.675000X-0.600000X0.675000X0.600000X0*%
%ADD36O,1.850000X1.700000*%
%ADD37R,1.500000X1.500000*%
%ADD38FreePoly0,270.000000*%
%ADD39FreePoly0,90.000000*%
%ADD40RoundRect,0.150000X0.675000X0.150000X-0.675000X0.150000X-0.675000X-0.150000X0.675000X-0.150000X0*%
%ADD41RoundRect,0.237500X0.250000X0.237500X-0.250000X0.237500X-0.250000X-0.237500X0.250000X-0.237500X0*%
%ADD42RoundRect,0.250000X-0.475000X0.337500X-0.475000X-0.337500X0.475000X-0.337500X0.475000X0.337500X0*%
%ADD43R,0.900000X0.800000*%
%ADD44R,1.900000X0.800000*%
%ADD45RoundRect,0.237500X-0.237500X0.250000X-0.237500X-0.250000X0.237500X-0.250000X0.237500X0.250000X0*%
%ADD46R,1.700000X1.700000*%
%ADD47O,1.700000X1.700000*%
%ADD48R,1.400000X0.300000*%
G04 APERTURE END LIST*
D10*
%TO.C,SW3*%
X90170000Y-56030000D03*
X90170000Y-58570000D03*
X90170000Y-61110000D03*
%TD*%
D11*
%TO.C,REF\u002A\u002A*%
X125300000Y-122520000D03*
%TD*%
D12*
%TO.C,C16*%
X56515001Y-119380000D03*
X58240001Y-119380000D03*
%TD*%
D13*
%TO.C,Y1*%
X94696412Y-79801588D03*
X91231589Y-83266411D03*
%TD*%
D14*
%TO.C,U3*%
X35550000Y-85095000D03*
X35550000Y-82555000D03*
X43170000Y-82555000D03*
D15*
X43170000Y-85095000D03*
%TD*%
D16*
%TO.C,SW4*%
X101600000Y-115570000D03*
X101600000Y-118110000D03*
X101600000Y-120650000D03*
X101600000Y-113030000D03*
X101600000Y-123190000D03*
%TD*%
D17*
%TO.C,J3*%
X105330000Y-61220000D03*
D18*
X102830000Y-61220000D03*
X100330000Y-61220000D03*
X97830000Y-61220000D03*
X95330000Y-61220000D03*
%TD*%
D19*
%TO.C,J7*%
X55920000Y-117060000D03*
D18*
X58420000Y-117060000D03*
X60920000Y-117060000D03*
%TD*%
D20*
%TO.C,R19*%
X37822500Y-85090000D03*
X39647500Y-85090000D03*
%TD*%
D21*
%TO.C,C18*%
X65405000Y-116840001D03*
X65405000Y-118565001D03*
%TD*%
D22*
%TO.C,C7*%
X115797500Y-84455000D03*
X114072500Y-84455000D03*
%TD*%
D21*
%TO.C,C15*%
X76835000Y-117475001D03*
X76835000Y-119200001D03*
%TD*%
D10*
%TO.C,SW7*%
X114300000Y-57658000D03*
X116840000Y-57658000D03*
X119380000Y-57658000D03*
%TD*%
%TO.C,SW2*%
X89535000Y-122555000D03*
X89535000Y-120015000D03*
X89535000Y-117475000D03*
%TD*%
D23*
%TO.C,C31*%
X118110000Y-88746500D03*
X118110000Y-87021500D03*
%TD*%
D10*
%TO.C,J1*%
X121860000Y-77565000D03*
X124400000Y-62325000D03*
X124400000Y-77565000D03*
X121860000Y-62325000D03*
X114240000Y-77565000D03*
X114240000Y-69945000D03*
D24*
X114240000Y-62325000D03*
D10*
X114240000Y-72485000D03*
X114240000Y-67405000D03*
X114240000Y-64865000D03*
X114240000Y-75025000D03*
%TD*%
D11*
%TO.C,REF\u002A\u002A*%
X36300000Y-122520000D03*
%TD*%
D15*
%TO.C,U16*%
X73665000Y-90815000D03*
D14*
X71125000Y-90815000D03*
X71125000Y-98435000D03*
X73665000Y-98435000D03*
%TD*%
D15*
%TO.C,C11*%
X52070000Y-74615112D03*
D25*
X52070000Y-72615112D03*
%TD*%
D26*
%TO.C,J2*%
X53760000Y-57575000D03*
X42760000Y-57575000D03*
D27*
X50760000Y-67575000D03*
D28*
X45760000Y-67575000D03*
%TD*%
D29*
%TO.C,R56*%
X118158345Y-93889641D03*
X118158345Y-92064641D03*
%TD*%
D19*
%TO.C,J6*%
X78780000Y-117070000D03*
D18*
X81280000Y-117070000D03*
X83780000Y-117070000D03*
%TD*%
D10*
%TO.C,SW5*%
X106680000Y-115570000D03*
X106680000Y-118110000D03*
X106680000Y-120650000D03*
%TD*%
D19*
%TO.C,J8*%
X67350000Y-117100000D03*
D18*
X69850000Y-117100000D03*
X72350000Y-117100000D03*
%TD*%
D30*
%TO.C,Q2*%
X38100000Y-63749999D03*
D31*
X38100000Y-66039999D03*
X38100000Y-68329999D03*
%TD*%
D32*
%TO.C,J4*%
X113762500Y-86595000D03*
D16*
X116302500Y-86595000D03*
X113762500Y-89135000D03*
X116302500Y-89135000D03*
X113762500Y-91675000D03*
X116302500Y-91675000D03*
X113762500Y-94215000D03*
X116302500Y-94215000D03*
X113762500Y-96755000D03*
X116302500Y-96755000D03*
%TD*%
D11*
%TO.C,REF\u002A\u002A*%
X125300000Y-56520000D03*
%TD*%
D10*
%TO.C,SW1*%
X78740000Y-66040000D03*
X78740000Y-68580000D03*
X78740000Y-71120000D03*
%TD*%
D33*
%TO.C,U10*%
X79892000Y-112710000D03*
X79892000Y-111760000D03*
X79892000Y-110810000D03*
X82668000Y-110810000D03*
X82668000Y-111760000D03*
X82668000Y-112710000D03*
%TD*%
D34*
%TO.C,C17*%
X80728957Y-78648159D03*
D25*
X82143171Y-80062373D03*
%TD*%
D11*
%TO.C,REF\u002A\u002A*%
X36300000Y-56520000D03*
%TD*%
D20*
%TO.C,R40*%
X80367500Y-109220000D03*
X82192500Y-109220000D03*
%TD*%
D15*
%TO.C,C5*%
X36364633Y-75288494D03*
D25*
X36364633Y-77288494D03*
%TD*%
D35*
%TO.C,J5*%
X40750000Y-100430000D03*
D36*
X40750000Y-102930000D03*
X40750000Y-105430000D03*
X40750000Y-107930000D03*
X40750000Y-110430000D03*
X40750000Y-112930000D03*
%TD*%
D37*
%TO.C,JP3*%
X121920000Y-96958000D03*
X121920000Y-94558000D03*
D38*
X121920000Y-93758000D03*
D39*
X121920000Y-97758000D03*
%TD*%
D20*
%TO.C,R9*%
X100433500Y-58166000D03*
X102258500Y-58166000D03*
%TD*%
D29*
%TO.C,R34*%
X90170000Y-68222500D03*
X90170000Y-66397500D03*
%TD*%
D20*
%TO.C,R10*%
X96877500Y-58166000D03*
X98702500Y-58166000D03*
%TD*%
D29*
%TO.C,R1*%
X116586000Y-77620500D03*
X116586000Y-75795500D03*
%TD*%
D20*
%TO.C,R38*%
X81628067Y-67935247D03*
X83453067Y-67935247D03*
%TD*%
D33*
%TO.C,U6*%
X83937290Y-61894497D03*
X83937290Y-62844497D03*
X83937290Y-63794497D03*
X81161290Y-63794497D03*
X81161290Y-62844497D03*
X81161290Y-61894497D03*
%TD*%
D29*
%TO.C,R4*%
X104648000Y-71016500D03*
X104648000Y-69191500D03*
%TD*%
D12*
%TO.C,C3*%
X119533500Y-73914000D03*
X121258500Y-73914000D03*
%TD*%
D40*
%TO.C,U1*%
X102701000Y-65151000D03*
X102701000Y-66421000D03*
X102701000Y-67691000D03*
X102701000Y-68961000D03*
X97451000Y-68961000D03*
X97451000Y-67691000D03*
X97451000Y-66421000D03*
X97451000Y-65151000D03*
%TD*%
D20*
%TO.C,R8*%
X93321500Y-58166000D03*
X95146500Y-58166000D03*
%TD*%
D37*
%TO.C,JP2*%
X121920000Y-89084000D03*
X121920000Y-86684000D03*
D38*
X121920000Y-85884000D03*
D39*
X121920000Y-89884000D03*
%TD*%
D29*
%TO.C,R33*%
X87630000Y-68222500D03*
X87630000Y-66397500D03*
%TD*%
D21*
%TO.C,C12*%
X87630000Y-70257500D03*
X87630000Y-71982500D03*
%TD*%
D41*
%TO.C,R6*%
X99060000Y-70612000D03*
X97235000Y-70612000D03*
%TD*%
D42*
%TO.C,C1*%
X126746000Y-66780500D03*
X126746000Y-68855500D03*
%TD*%
D43*
%TO.C,Q1*%
X103054000Y-70932000D03*
X103054000Y-72832000D03*
X100654000Y-71882000D03*
%TD*%
D44*
%TO.C,Q6*%
X85550000Y-70170000D03*
X85550000Y-72070000D03*
X82550000Y-71120000D03*
%TD*%
D29*
%TO.C,R2*%
X116586000Y-74318500D03*
X116586000Y-72493500D03*
%TD*%
D21*
%TO.C,C2*%
X124714000Y-66955500D03*
X124714000Y-68680500D03*
%TD*%
D45*
%TO.C,R28*%
X92710000Y-66397500D03*
X92710000Y-68222500D03*
%TD*%
D46*
%TO.C,JP1*%
X94229000Y-55372000D03*
D47*
X96769000Y-55372000D03*
%TD*%
D41*
%TO.C,R37*%
X83462500Y-66040000D03*
X81637500Y-66040000D03*
%TD*%
D48*
%TO.C,U2*%
X118196000Y-70850000D03*
X118196000Y-70350000D03*
X118196000Y-69850000D03*
X118196000Y-69350000D03*
X118196000Y-68850000D03*
X122596000Y-68850000D03*
X122596000Y-69350000D03*
X122596000Y-69850000D03*
X122596000Y-70350000D03*
X122596000Y-70850000D03*
%TD*%
D23*
%TO.C,C13*%
X92710000Y-71982500D03*
X92710000Y-70257500D03*
%TD*%
D12*
%TO.C,C4*%
X104039500Y-58166000D03*
X105764500Y-58166000D03*
%TD*%
M02*
