%TF.GenerationSoftware,KiCad,Pcbnew,(6.0.7)*%
%TF.CreationDate,2023-06-24T17:20:50+09:00*%
%TF.ProjectId,motordriver,6d6f746f-7264-4726-9976-65722e6b6963,rev?*%
%TF.SameCoordinates,Original*%
%TF.FileFunction,Legend,Bot*%
%TF.FilePolarity,Positive*%
%FSLAX46Y46*%
G04 Gerber Fmt 4.6, Leading zero omitted, Abs format (unit mm)*
G04 Created by KiCad (PCBNEW (6.0.7)) date 2023-06-24 17:20:50*
%MOMM*%
%LPD*%
G01*
G04 APERTURE LIST*
%ADD10C,0.150000*%
%ADD11C,0.254000*%
%ADD12C,0.120000*%
%ADD13C,0.200000*%
G04 APERTURE END LIST*
D10*
%TO.C,C16*%
X58020358Y-121167142D02*
X58067977Y-121214761D01*
X58210834Y-121262380D01*
X58306072Y-121262380D01*
X58448929Y-121214761D01*
X58544167Y-121119523D01*
X58591786Y-121024285D01*
X58639405Y-120833809D01*
X58639405Y-120690952D01*
X58591786Y-120500476D01*
X58544167Y-120405238D01*
X58448929Y-120310000D01*
X58306072Y-120262380D01*
X58210834Y-120262380D01*
X58067977Y-120310000D01*
X58020358Y-120357619D01*
X57067977Y-121262380D02*
X57639405Y-121262380D01*
X57353691Y-121262380D02*
X57353691Y-120262380D01*
X57448929Y-120405238D01*
X57544167Y-120500476D01*
X57639405Y-120548095D01*
X56210834Y-120262380D02*
X56401310Y-120262380D01*
X56496548Y-120310000D01*
X56544167Y-120357619D01*
X56639405Y-120500476D01*
X56687024Y-120690952D01*
X56687024Y-121071904D01*
X56639405Y-121167142D01*
X56591786Y-121214761D01*
X56496548Y-121262380D01*
X56306072Y-121262380D01*
X56210834Y-121214761D01*
X56163215Y-121167142D01*
X56115596Y-121071904D01*
X56115596Y-120833809D01*
X56163215Y-120738571D01*
X56210834Y-120690952D01*
X56306072Y-120643333D01*
X56496548Y-120643333D01*
X56591786Y-120690952D01*
X56639405Y-120738571D01*
X56687024Y-120833809D01*
%TO.C,R19*%
X39377857Y-84272380D02*
X39711190Y-83796190D01*
X39949285Y-84272380D02*
X39949285Y-83272380D01*
X39568333Y-83272380D01*
X39473095Y-83320000D01*
X39425476Y-83367619D01*
X39377857Y-83462857D01*
X39377857Y-83605714D01*
X39425476Y-83700952D01*
X39473095Y-83748571D01*
X39568333Y-83796190D01*
X39949285Y-83796190D01*
X38425476Y-84272380D02*
X38996904Y-84272380D01*
X38711190Y-84272380D02*
X38711190Y-83272380D01*
X38806428Y-83415238D01*
X38901666Y-83510476D01*
X38996904Y-83558095D01*
X37949285Y-84272380D02*
X37758809Y-84272380D01*
X37663571Y-84224761D01*
X37615952Y-84177142D01*
X37520714Y-84034285D01*
X37473095Y-83843809D01*
X37473095Y-83462857D01*
X37520714Y-83367619D01*
X37568333Y-83320000D01*
X37663571Y-83272380D01*
X37854047Y-83272380D01*
X37949285Y-83320000D01*
X37996904Y-83367619D01*
X38044523Y-83462857D01*
X38044523Y-83700952D01*
X37996904Y-83796190D01*
X37949285Y-83843809D01*
X37854047Y-83891428D01*
X37663571Y-83891428D01*
X37568333Y-83843809D01*
X37520714Y-83796190D01*
X37473095Y-83700952D01*
%TO.C,C18*%
X64332142Y-117059643D02*
X64379761Y-117012024D01*
X64427380Y-116869167D01*
X64427380Y-116773929D01*
X64379761Y-116631072D01*
X64284523Y-116535834D01*
X64189285Y-116488215D01*
X63998809Y-116440596D01*
X63855952Y-116440596D01*
X63665476Y-116488215D01*
X63570238Y-116535834D01*
X63475000Y-116631072D01*
X63427380Y-116773929D01*
X63427380Y-116869167D01*
X63475000Y-117012024D01*
X63522619Y-117059643D01*
X64427380Y-118012024D02*
X64427380Y-117440596D01*
X64427380Y-117726310D02*
X63427380Y-117726310D01*
X63570238Y-117631072D01*
X63665476Y-117535834D01*
X63713095Y-117440596D01*
X63855952Y-118583453D02*
X63808333Y-118488215D01*
X63760714Y-118440596D01*
X63665476Y-118392977D01*
X63617857Y-118392977D01*
X63522619Y-118440596D01*
X63475000Y-118488215D01*
X63427380Y-118583453D01*
X63427380Y-118773929D01*
X63475000Y-118869167D01*
X63522619Y-118916786D01*
X63617857Y-118964405D01*
X63665476Y-118964405D01*
X63760714Y-118916786D01*
X63808333Y-118869167D01*
X63855952Y-118773929D01*
X63855952Y-118583453D01*
X63903571Y-118488215D01*
X63951190Y-118440596D01*
X64046428Y-118392977D01*
X64236904Y-118392977D01*
X64332142Y-118440596D01*
X64379761Y-118488215D01*
X64427380Y-118583453D01*
X64427380Y-118773929D01*
X64379761Y-118869167D01*
X64332142Y-118916786D01*
X64236904Y-118964405D01*
X64046428Y-118964405D01*
X63951190Y-118916786D01*
X63903571Y-118869167D01*
X63855952Y-118773929D01*
%TO.C,C7*%
X114955399Y-83542142D02*
X115003018Y-83589761D01*
X115145875Y-83637380D01*
X115241113Y-83637380D01*
X115383971Y-83589761D01*
X115479209Y-83494523D01*
X115526828Y-83399285D01*
X115574447Y-83208809D01*
X115574447Y-83065952D01*
X115526828Y-82875476D01*
X115479209Y-82780238D01*
X115383971Y-82685000D01*
X115241113Y-82637380D01*
X115145875Y-82637380D01*
X115003018Y-82685000D01*
X114955399Y-82732619D01*
X114622066Y-82637380D02*
X113955399Y-82637380D01*
X114383971Y-83637380D01*
%TO.C,C15*%
X75762142Y-117694643D02*
X75809761Y-117647024D01*
X75857380Y-117504167D01*
X75857380Y-117408929D01*
X75809761Y-117266072D01*
X75714523Y-117170834D01*
X75619285Y-117123215D01*
X75428809Y-117075596D01*
X75285952Y-117075596D01*
X75095476Y-117123215D01*
X75000238Y-117170834D01*
X74905000Y-117266072D01*
X74857380Y-117408929D01*
X74857380Y-117504167D01*
X74905000Y-117647024D01*
X74952619Y-117694643D01*
X75857380Y-118647024D02*
X75857380Y-118075596D01*
X75857380Y-118361310D02*
X74857380Y-118361310D01*
X75000238Y-118266072D01*
X75095476Y-118170834D01*
X75143095Y-118075596D01*
X74857380Y-119551786D02*
X74857380Y-119075596D01*
X75333571Y-119027977D01*
X75285952Y-119075596D01*
X75238333Y-119170834D01*
X75238333Y-119408929D01*
X75285952Y-119504167D01*
X75333571Y-119551786D01*
X75428809Y-119599405D01*
X75666904Y-119599405D01*
X75762142Y-119551786D01*
X75809761Y-119504167D01*
X75857380Y-119408929D01*
X75857380Y-119170834D01*
X75809761Y-119075596D01*
X75762142Y-119027977D01*
%TO.C,C31*%
X119897142Y-87241142D02*
X119944761Y-87193523D01*
X119992380Y-87050666D01*
X119992380Y-86955428D01*
X119944761Y-86812571D01*
X119849523Y-86717333D01*
X119754285Y-86669714D01*
X119563809Y-86622095D01*
X119420952Y-86622095D01*
X119230476Y-86669714D01*
X119135238Y-86717333D01*
X119040000Y-86812571D01*
X118992380Y-86955428D01*
X118992380Y-87050666D01*
X119040000Y-87193523D01*
X119087619Y-87241142D01*
X118992380Y-87574476D02*
X118992380Y-88193523D01*
X119373333Y-87860190D01*
X119373333Y-88003047D01*
X119420952Y-88098285D01*
X119468571Y-88145904D01*
X119563809Y-88193523D01*
X119801904Y-88193523D01*
X119897142Y-88145904D01*
X119944761Y-88098285D01*
X119992380Y-88003047D01*
X119992380Y-87717333D01*
X119944761Y-87622095D01*
X119897142Y-87574476D01*
X119992380Y-89145904D02*
X119992380Y-88574476D01*
X119992380Y-88860190D02*
X118992380Y-88860190D01*
X119135238Y-88764952D01*
X119230476Y-88669714D01*
X119278095Y-88574476D01*
%TO.C,R56*%
X120040725Y-92334283D02*
X119564535Y-92000950D01*
X120040725Y-91762855D02*
X119040725Y-91762855D01*
X119040725Y-92143807D01*
X119088345Y-92239045D01*
X119135964Y-92286664D01*
X119231202Y-92334283D01*
X119374059Y-92334283D01*
X119469297Y-92286664D01*
X119516916Y-92239045D01*
X119564535Y-92143807D01*
X119564535Y-91762855D01*
X119040725Y-93239045D02*
X119040725Y-92762855D01*
X119516916Y-92715236D01*
X119469297Y-92762855D01*
X119421678Y-92858093D01*
X119421678Y-93096188D01*
X119469297Y-93191426D01*
X119516916Y-93239045D01*
X119612154Y-93286664D01*
X119850249Y-93286664D01*
X119945487Y-93239045D01*
X119993106Y-93191426D01*
X120040725Y-93096188D01*
X120040725Y-92858093D01*
X119993106Y-92762855D01*
X119945487Y-92715236D01*
X119040725Y-94143807D02*
X119040725Y-93953331D01*
X119088345Y-93858093D01*
X119135964Y-93810474D01*
X119278821Y-93715236D01*
X119469297Y-93667617D01*
X119850249Y-93667617D01*
X119945487Y-93715236D01*
X119993106Y-93762855D01*
X120040725Y-93858093D01*
X120040725Y-94048569D01*
X119993106Y-94143807D01*
X119945487Y-94191426D01*
X119850249Y-94239045D01*
X119612154Y-94239045D01*
X119516916Y-94191426D01*
X119469297Y-94143807D01*
X119421678Y-94048569D01*
X119421678Y-93858093D01*
X119469297Y-93762855D01*
X119516916Y-93715236D01*
X119612154Y-93667617D01*
D11*
%TO.C,U10*%
X82852380Y-113604523D02*
X82852380Y-114632619D01*
X82791904Y-114753571D01*
X82731428Y-114814047D01*
X82610476Y-114874523D01*
X82368571Y-114874523D01*
X82247619Y-114814047D01*
X82187142Y-114753571D01*
X82126666Y-114632619D01*
X82126666Y-113604523D01*
X80856666Y-114874523D02*
X81582380Y-114874523D01*
X81219523Y-114874523D02*
X81219523Y-113604523D01*
X81340476Y-113785952D01*
X81461428Y-113906904D01*
X81582380Y-113967380D01*
X80070476Y-113604523D02*
X79949523Y-113604523D01*
X79828571Y-113665000D01*
X79768095Y-113725476D01*
X79707619Y-113846428D01*
X79647142Y-114088333D01*
X79647142Y-114390714D01*
X79707619Y-114632619D01*
X79768095Y-114753571D01*
X79828571Y-114814047D01*
X79949523Y-114874523D01*
X80070476Y-114874523D01*
X80191428Y-114814047D01*
X80251904Y-114753571D01*
X80312380Y-114632619D01*
X80372857Y-114390714D01*
X80372857Y-114088333D01*
X80312380Y-113846428D01*
X80251904Y-113725476D01*
X80191428Y-113665000D01*
X80070476Y-113604523D01*
D10*
%TO.C,R40*%
X85097857Y-109672380D02*
X85431190Y-109196190D01*
X85669285Y-109672380D02*
X85669285Y-108672380D01*
X85288333Y-108672380D01*
X85193095Y-108720000D01*
X85145476Y-108767619D01*
X85097857Y-108862857D01*
X85097857Y-109005714D01*
X85145476Y-109100952D01*
X85193095Y-109148571D01*
X85288333Y-109196190D01*
X85669285Y-109196190D01*
X84240714Y-109005714D02*
X84240714Y-109672380D01*
X84478809Y-108624761D02*
X84716904Y-109339047D01*
X84097857Y-109339047D01*
X83526428Y-108672380D02*
X83431190Y-108672380D01*
X83335952Y-108720000D01*
X83288333Y-108767619D01*
X83240714Y-108862857D01*
X83193095Y-109053333D01*
X83193095Y-109291428D01*
X83240714Y-109481904D01*
X83288333Y-109577142D01*
X83335952Y-109624761D01*
X83431190Y-109672380D01*
X83526428Y-109672380D01*
X83621666Y-109624761D01*
X83669285Y-109577142D01*
X83716904Y-109481904D01*
X83764523Y-109291428D01*
X83764523Y-109053333D01*
X83716904Y-108862857D01*
X83669285Y-108767619D01*
X83621666Y-108720000D01*
X83526428Y-108672380D01*
%TO.C,JP3*%
X119597380Y-95649666D02*
X120311666Y-95649666D01*
X120454523Y-95602047D01*
X120549761Y-95506809D01*
X120597380Y-95363952D01*
X120597380Y-95268714D01*
X120597380Y-96125857D02*
X119597380Y-96125857D01*
X119597380Y-96506809D01*
X119645000Y-96602047D01*
X119692619Y-96649666D01*
X119787857Y-96697285D01*
X119930714Y-96697285D01*
X120025952Y-96649666D01*
X120073571Y-96602047D01*
X120121190Y-96506809D01*
X120121190Y-96125857D01*
X119597380Y-97030619D02*
X119597380Y-97649666D01*
X119978333Y-97316333D01*
X119978333Y-97459190D01*
X120025952Y-97554428D01*
X120073571Y-97602047D01*
X120168809Y-97649666D01*
X120406904Y-97649666D01*
X120502142Y-97602047D01*
X120549761Y-97554428D01*
X120597380Y-97459190D01*
X120597380Y-97173476D01*
X120549761Y-97078238D01*
X120502142Y-97030619D01*
X122372380Y-92693714D02*
X122372380Y-92122285D01*
X122372380Y-92408000D02*
X121372380Y-92408000D01*
X121515238Y-92312761D01*
X121610476Y-92217523D01*
X121658095Y-92122285D01*
X121372380Y-98824666D02*
X121372380Y-99443714D01*
X121753333Y-99110380D01*
X121753333Y-99253238D01*
X121800952Y-99348476D01*
X121848571Y-99396095D01*
X121943809Y-99443714D01*
X122181904Y-99443714D01*
X122277142Y-99396095D01*
X122324761Y-99348476D01*
X122372380Y-99253238D01*
X122372380Y-98967523D01*
X122324761Y-98872285D01*
X122277142Y-98824666D01*
%TO.C,R9*%
X101512666Y-60048380D02*
X101846000Y-59572190D01*
X102084095Y-60048380D02*
X102084095Y-59048380D01*
X101703142Y-59048380D01*
X101607904Y-59096000D01*
X101560285Y-59143619D01*
X101512666Y-59238857D01*
X101512666Y-59381714D01*
X101560285Y-59476952D01*
X101607904Y-59524571D01*
X101703142Y-59572190D01*
X102084095Y-59572190D01*
X101036476Y-60048380D02*
X100846000Y-60048380D01*
X100750761Y-60000761D01*
X100703142Y-59953142D01*
X100607904Y-59810285D01*
X100560285Y-59619809D01*
X100560285Y-59238857D01*
X100607904Y-59143619D01*
X100655523Y-59096000D01*
X100750761Y-59048380D01*
X100941238Y-59048380D01*
X101036476Y-59096000D01*
X101084095Y-59143619D01*
X101131714Y-59238857D01*
X101131714Y-59476952D01*
X101084095Y-59572190D01*
X101036476Y-59619809D01*
X100941238Y-59667428D01*
X100750761Y-59667428D01*
X100655523Y-59619809D01*
X100607904Y-59572190D01*
X100560285Y-59476952D01*
%TO.C,R34*%
X92052380Y-66667142D02*
X91576190Y-66333809D01*
X92052380Y-66095714D02*
X91052380Y-66095714D01*
X91052380Y-66476666D01*
X91100000Y-66571904D01*
X91147619Y-66619523D01*
X91242857Y-66667142D01*
X91385714Y-66667142D01*
X91480952Y-66619523D01*
X91528571Y-66571904D01*
X91576190Y-66476666D01*
X91576190Y-66095714D01*
X91052380Y-67000476D02*
X91052380Y-67619523D01*
X91433333Y-67286190D01*
X91433333Y-67429047D01*
X91480952Y-67524285D01*
X91528571Y-67571904D01*
X91623809Y-67619523D01*
X91861904Y-67619523D01*
X91957142Y-67571904D01*
X92004761Y-67524285D01*
X92052380Y-67429047D01*
X92052380Y-67143333D01*
X92004761Y-67048095D01*
X91957142Y-67000476D01*
X91385714Y-68476666D02*
X92052380Y-68476666D01*
X91004761Y-68238571D02*
X91719047Y-68000476D01*
X91719047Y-68619523D01*
%TO.C,R10*%
X98432857Y-60048380D02*
X98766190Y-59572190D01*
X99004285Y-60048380D02*
X99004285Y-59048380D01*
X98623333Y-59048380D01*
X98528095Y-59096000D01*
X98480476Y-59143619D01*
X98432857Y-59238857D01*
X98432857Y-59381714D01*
X98480476Y-59476952D01*
X98528095Y-59524571D01*
X98623333Y-59572190D01*
X99004285Y-59572190D01*
X97480476Y-60048380D02*
X98051904Y-60048380D01*
X97766190Y-60048380D02*
X97766190Y-59048380D01*
X97861428Y-59191238D01*
X97956666Y-59286476D01*
X98051904Y-59334095D01*
X96861428Y-59048380D02*
X96766190Y-59048380D01*
X96670952Y-59096000D01*
X96623333Y-59143619D01*
X96575714Y-59238857D01*
X96528095Y-59429333D01*
X96528095Y-59667428D01*
X96575714Y-59857904D01*
X96623333Y-59953142D01*
X96670952Y-60000761D01*
X96766190Y-60048380D01*
X96861428Y-60048380D01*
X96956666Y-60000761D01*
X97004285Y-59953142D01*
X97051904Y-59857904D01*
X97099523Y-59667428D01*
X97099523Y-59429333D01*
X97051904Y-59238857D01*
X97004285Y-59143619D01*
X96956666Y-59096000D01*
X96861428Y-59048380D01*
%TO.C,R1*%
X118468380Y-76541333D02*
X117992190Y-76208000D01*
X118468380Y-75969904D02*
X117468380Y-75969904D01*
X117468380Y-76350857D01*
X117516000Y-76446095D01*
X117563619Y-76493714D01*
X117658857Y-76541333D01*
X117801714Y-76541333D01*
X117896952Y-76493714D01*
X117944571Y-76446095D01*
X117992190Y-76350857D01*
X117992190Y-75969904D01*
X118468380Y-77493714D02*
X118468380Y-76922285D01*
X118468380Y-77208000D02*
X117468380Y-77208000D01*
X117611238Y-77112761D01*
X117706476Y-77017523D01*
X117754095Y-76922285D01*
%TO.C,R38*%
X86262887Y-68396839D02*
X86596220Y-67920649D01*
X86834315Y-68396839D02*
X86834315Y-67396839D01*
X86453363Y-67396839D01*
X86358125Y-67444459D01*
X86310506Y-67492078D01*
X86262887Y-67587316D01*
X86262887Y-67730173D01*
X86310506Y-67825411D01*
X86358125Y-67873030D01*
X86453363Y-67920649D01*
X86834315Y-67920649D01*
X85929553Y-67396839D02*
X85310506Y-67396839D01*
X85643839Y-67777792D01*
X85500982Y-67777792D01*
X85405744Y-67825411D01*
X85358125Y-67873030D01*
X85310506Y-67968268D01*
X85310506Y-68206363D01*
X85358125Y-68301601D01*
X85405744Y-68349220D01*
X85500982Y-68396839D01*
X85786696Y-68396839D01*
X85881934Y-68349220D01*
X85929553Y-68301601D01*
X84739077Y-67825411D02*
X84834315Y-67777792D01*
X84881934Y-67730173D01*
X84929553Y-67634935D01*
X84929553Y-67587316D01*
X84881934Y-67492078D01*
X84834315Y-67444459D01*
X84739077Y-67396839D01*
X84548601Y-67396839D01*
X84453363Y-67444459D01*
X84405744Y-67492078D01*
X84358125Y-67587316D01*
X84358125Y-67634935D01*
X84405744Y-67730173D01*
X84453363Y-67777792D01*
X84548601Y-67825411D01*
X84739077Y-67825411D01*
X84834315Y-67873030D01*
X84881934Y-67920649D01*
X84929553Y-68015887D01*
X84929553Y-68206363D01*
X84881934Y-68301601D01*
X84834315Y-68349220D01*
X84739077Y-68396839D01*
X84548601Y-68396839D01*
X84453363Y-68349220D01*
X84405744Y-68301601D01*
X84358125Y-68206363D01*
X84358125Y-68015887D01*
X84405744Y-67920649D01*
X84453363Y-67873030D01*
X84548601Y-67825411D01*
D11*
%TO.C,U6*%
X83516909Y-60264523D02*
X83516909Y-61292619D01*
X83456432Y-61413571D01*
X83395956Y-61474047D01*
X83275004Y-61534523D01*
X83033099Y-61534523D01*
X82912147Y-61474047D01*
X82851670Y-61413571D01*
X82791194Y-61292619D01*
X82791194Y-60264523D01*
X81642147Y-60264523D02*
X81884051Y-60264523D01*
X82005004Y-60325000D01*
X82065480Y-60385476D01*
X82186432Y-60566904D01*
X82246909Y-60808809D01*
X82246909Y-61292619D01*
X82186432Y-61413571D01*
X82125956Y-61474047D01*
X82005004Y-61534523D01*
X81763099Y-61534523D01*
X81642147Y-61474047D01*
X81581670Y-61413571D01*
X81521194Y-61292619D01*
X81521194Y-60990238D01*
X81581670Y-60869285D01*
X81642147Y-60808809D01*
X81763099Y-60748333D01*
X82005004Y-60748333D01*
X82125956Y-60808809D01*
X82186432Y-60869285D01*
X82246909Y-60990238D01*
D10*
%TO.C,R4*%
X106530380Y-69937333D02*
X106054190Y-69604000D01*
X106530380Y-69365904D02*
X105530380Y-69365904D01*
X105530380Y-69746857D01*
X105578000Y-69842095D01*
X105625619Y-69889714D01*
X105720857Y-69937333D01*
X105863714Y-69937333D01*
X105958952Y-69889714D01*
X106006571Y-69842095D01*
X106054190Y-69746857D01*
X106054190Y-69365904D01*
X105863714Y-70794476D02*
X106530380Y-70794476D01*
X105482761Y-70556380D02*
X106197047Y-70318285D01*
X106197047Y-70937333D01*
%TO.C,C3*%
X120562666Y-75701142D02*
X120610285Y-75748761D01*
X120753142Y-75796380D01*
X120848380Y-75796380D01*
X120991238Y-75748761D01*
X121086476Y-75653523D01*
X121134095Y-75558285D01*
X121181714Y-75367809D01*
X121181714Y-75224952D01*
X121134095Y-75034476D01*
X121086476Y-74939238D01*
X120991238Y-74844000D01*
X120848380Y-74796380D01*
X120753142Y-74796380D01*
X120610285Y-74844000D01*
X120562666Y-74891619D01*
X120229333Y-74796380D02*
X119610285Y-74796380D01*
X119943619Y-75177333D01*
X119800761Y-75177333D01*
X119705523Y-75224952D01*
X119657904Y-75272571D01*
X119610285Y-75367809D01*
X119610285Y-75605904D01*
X119657904Y-75701142D01*
X119705523Y-75748761D01*
X119800761Y-75796380D01*
X120086476Y-75796380D01*
X120181714Y-75748761D01*
X120229333Y-75701142D01*
%TO.C,U1*%
X100837904Y-63108380D02*
X100837904Y-63917904D01*
X100790285Y-64013142D01*
X100742666Y-64060761D01*
X100647428Y-64108380D01*
X100456952Y-64108380D01*
X100361714Y-64060761D01*
X100314095Y-64013142D01*
X100266476Y-63917904D01*
X100266476Y-63108380D01*
X99266476Y-64108380D02*
X99837904Y-64108380D01*
X99552190Y-64108380D02*
X99552190Y-63108380D01*
X99647428Y-63251238D01*
X99742666Y-63346476D01*
X99837904Y-63394095D01*
%TO.C,R8*%
X94400666Y-60048380D02*
X94734000Y-59572190D01*
X94972095Y-60048380D02*
X94972095Y-59048380D01*
X94591142Y-59048380D01*
X94495904Y-59096000D01*
X94448285Y-59143619D01*
X94400666Y-59238857D01*
X94400666Y-59381714D01*
X94448285Y-59476952D01*
X94495904Y-59524571D01*
X94591142Y-59572190D01*
X94972095Y-59572190D01*
X93829238Y-59476952D02*
X93924476Y-59429333D01*
X93972095Y-59381714D01*
X94019714Y-59286476D01*
X94019714Y-59238857D01*
X93972095Y-59143619D01*
X93924476Y-59096000D01*
X93829238Y-59048380D01*
X93638761Y-59048380D01*
X93543523Y-59096000D01*
X93495904Y-59143619D01*
X93448285Y-59238857D01*
X93448285Y-59286476D01*
X93495904Y-59381714D01*
X93543523Y-59429333D01*
X93638761Y-59476952D01*
X93829238Y-59476952D01*
X93924476Y-59524571D01*
X93972095Y-59572190D01*
X94019714Y-59667428D01*
X94019714Y-59857904D01*
X93972095Y-59953142D01*
X93924476Y-60000761D01*
X93829238Y-60048380D01*
X93638761Y-60048380D01*
X93543523Y-60000761D01*
X93495904Y-59953142D01*
X93448285Y-59857904D01*
X93448285Y-59667428D01*
X93495904Y-59572190D01*
X93543523Y-59524571D01*
X93638761Y-59476952D01*
%TO.C,JP2*%
X119597380Y-87775666D02*
X120311666Y-87775666D01*
X120454523Y-87728047D01*
X120549761Y-87632809D01*
X120597380Y-87489952D01*
X120597380Y-87394714D01*
X120597380Y-88251857D02*
X119597380Y-88251857D01*
X119597380Y-88632809D01*
X119645000Y-88728047D01*
X119692619Y-88775666D01*
X119787857Y-88823285D01*
X119930714Y-88823285D01*
X120025952Y-88775666D01*
X120073571Y-88728047D01*
X120121190Y-88632809D01*
X120121190Y-88251857D01*
X119692619Y-89204238D02*
X119645000Y-89251857D01*
X119597380Y-89347095D01*
X119597380Y-89585190D01*
X119645000Y-89680428D01*
X119692619Y-89728047D01*
X119787857Y-89775666D01*
X119883095Y-89775666D01*
X120025952Y-89728047D01*
X120597380Y-89156619D01*
X120597380Y-89775666D01*
X121372380Y-90950666D02*
X121372380Y-91569714D01*
X121753333Y-91236380D01*
X121753333Y-91379238D01*
X121800952Y-91474476D01*
X121848571Y-91522095D01*
X121943809Y-91569714D01*
X122181904Y-91569714D01*
X122277142Y-91522095D01*
X122324761Y-91474476D01*
X122372380Y-91379238D01*
X122372380Y-91093523D01*
X122324761Y-90998285D01*
X122277142Y-90950666D01*
X122372380Y-84819714D02*
X122372380Y-84248285D01*
X122372380Y-84534000D02*
X121372380Y-84534000D01*
X121515238Y-84438761D01*
X121610476Y-84343523D01*
X121658095Y-84248285D01*
%TO.C,R33*%
X89512380Y-66667142D02*
X89036190Y-66333809D01*
X89512380Y-66095714D02*
X88512380Y-66095714D01*
X88512380Y-66476666D01*
X88560000Y-66571904D01*
X88607619Y-66619523D01*
X88702857Y-66667142D01*
X88845714Y-66667142D01*
X88940952Y-66619523D01*
X88988571Y-66571904D01*
X89036190Y-66476666D01*
X89036190Y-66095714D01*
X88512380Y-67000476D02*
X88512380Y-67619523D01*
X88893333Y-67286190D01*
X88893333Y-67429047D01*
X88940952Y-67524285D01*
X88988571Y-67571904D01*
X89083809Y-67619523D01*
X89321904Y-67619523D01*
X89417142Y-67571904D01*
X89464761Y-67524285D01*
X89512380Y-67429047D01*
X89512380Y-67143333D01*
X89464761Y-67048095D01*
X89417142Y-67000476D01*
X88512380Y-67952857D02*
X88512380Y-68571904D01*
X88893333Y-68238571D01*
X88893333Y-68381428D01*
X88940952Y-68476666D01*
X88988571Y-68524285D01*
X89083809Y-68571904D01*
X89321904Y-68571904D01*
X89417142Y-68524285D01*
X89464761Y-68476666D01*
X89512380Y-68381428D01*
X89512380Y-68095714D01*
X89464761Y-68000476D01*
X89417142Y-67952857D01*
%TO.C,C12*%
X89257142Y-70623409D02*
X89304761Y-70575790D01*
X89352380Y-70432933D01*
X89352380Y-70337695D01*
X89304761Y-70194838D01*
X89209523Y-70099600D01*
X89114285Y-70051981D01*
X88923809Y-70004362D01*
X88780952Y-70004362D01*
X88590476Y-70051981D01*
X88495238Y-70099600D01*
X88400000Y-70194838D01*
X88352380Y-70337695D01*
X88352380Y-70432933D01*
X88400000Y-70575790D01*
X88447619Y-70623409D01*
X89352380Y-71575790D02*
X89352380Y-71004362D01*
X89352380Y-71290076D02*
X88352380Y-71290076D01*
X88495238Y-71194838D01*
X88590476Y-71099600D01*
X88638095Y-71004362D01*
X88447619Y-71956743D02*
X88400000Y-72004362D01*
X88352380Y-72099600D01*
X88352380Y-72337695D01*
X88400000Y-72432933D01*
X88447619Y-72480552D01*
X88542857Y-72528171D01*
X88638095Y-72528171D01*
X88780952Y-72480552D01*
X89352380Y-71909124D01*
X89352380Y-72528171D01*
%TO.C,R6*%
X98314166Y-72334380D02*
X98647500Y-71858190D01*
X98885595Y-72334380D02*
X98885595Y-71334380D01*
X98504642Y-71334380D01*
X98409404Y-71382000D01*
X98361785Y-71429619D01*
X98314166Y-71524857D01*
X98314166Y-71667714D01*
X98361785Y-71762952D01*
X98409404Y-71810571D01*
X98504642Y-71858190D01*
X98885595Y-71858190D01*
X97457023Y-71334380D02*
X97647500Y-71334380D01*
X97742738Y-71382000D01*
X97790357Y-71429619D01*
X97885595Y-71572476D01*
X97933214Y-71762952D01*
X97933214Y-72143904D01*
X97885595Y-72239142D01*
X97837976Y-72286761D01*
X97742738Y-72334380D01*
X97552261Y-72334380D01*
X97457023Y-72286761D01*
X97409404Y-72239142D01*
X97361785Y-72143904D01*
X97361785Y-71905809D01*
X97409404Y-71810571D01*
X97457023Y-71762952D01*
X97552261Y-71715333D01*
X97742738Y-71715333D01*
X97837976Y-71762952D01*
X97885595Y-71810571D01*
X97933214Y-71905809D01*
%TO.C,C1*%
X127357142Y-70445333D02*
X127404761Y-70397714D01*
X127452380Y-70254857D01*
X127452380Y-70159619D01*
X127404761Y-70016761D01*
X127309523Y-69921523D01*
X127214285Y-69873904D01*
X127023809Y-69826285D01*
X126880952Y-69826285D01*
X126690476Y-69873904D01*
X126595238Y-69921523D01*
X126500000Y-70016761D01*
X126452380Y-70159619D01*
X126452380Y-70254857D01*
X126500000Y-70397714D01*
X126547619Y-70445333D01*
X127452380Y-71397714D02*
X127452380Y-70826285D01*
X127452380Y-71112000D02*
X126452380Y-71112000D01*
X126595238Y-71016761D01*
X126690476Y-70921523D01*
X126738095Y-70826285D01*
%TO.C,Q1*%
X99917238Y-73699619D02*
X100012476Y-73652000D01*
X100107714Y-73556761D01*
X100250571Y-73413904D01*
X100345809Y-73366285D01*
X100441047Y-73366285D01*
X100393428Y-73604380D02*
X100488666Y-73556761D01*
X100583904Y-73461523D01*
X100631523Y-73271047D01*
X100631523Y-72937714D01*
X100583904Y-72747238D01*
X100488666Y-72652000D01*
X100393428Y-72604380D01*
X100202952Y-72604380D01*
X100107714Y-72652000D01*
X100012476Y-72747238D01*
X99964857Y-72937714D01*
X99964857Y-73271047D01*
X100012476Y-73461523D01*
X100107714Y-73556761D01*
X100202952Y-73604380D01*
X100393428Y-73604380D01*
X99012476Y-73604380D02*
X99583904Y-73604380D01*
X99298190Y-73604380D02*
X99298190Y-72604380D01*
X99393428Y-72747238D01*
X99488666Y-72842476D01*
X99583904Y-72890095D01*
%TO.C,Q6*%
X82455863Y-70386556D02*
X82551101Y-70338937D01*
X82646339Y-70243698D01*
X82789196Y-70100841D01*
X82884434Y-70053222D01*
X82979672Y-70053222D01*
X82932053Y-70291317D02*
X83027291Y-70243698D01*
X83122529Y-70148460D01*
X83170148Y-69957984D01*
X83170148Y-69624651D01*
X83122529Y-69434175D01*
X83027291Y-69338937D01*
X82932053Y-69291317D01*
X82741577Y-69291317D01*
X82646339Y-69338937D01*
X82551101Y-69434175D01*
X82503482Y-69624651D01*
X82503482Y-69957984D01*
X82551101Y-70148460D01*
X82646339Y-70243698D01*
X82741577Y-70291317D01*
X82932053Y-70291317D01*
X81646339Y-69291317D02*
X81836815Y-69291317D01*
X81932053Y-69338937D01*
X81979672Y-69386556D01*
X82074910Y-69529413D01*
X82122529Y-69719889D01*
X82122529Y-70100841D01*
X82074910Y-70196079D01*
X82027291Y-70243698D01*
X81932053Y-70291317D01*
X81741577Y-70291317D01*
X81646339Y-70243698D01*
X81598720Y-70196079D01*
X81551101Y-70100841D01*
X81551101Y-69862746D01*
X81598720Y-69767508D01*
X81646339Y-69719889D01*
X81741577Y-69672270D01*
X81932053Y-69672270D01*
X82027291Y-69719889D01*
X82074910Y-69767508D01*
X82122529Y-69862746D01*
%TO.C,R2*%
X118468380Y-73239333D02*
X117992190Y-72906000D01*
X118468380Y-72667904D02*
X117468380Y-72667904D01*
X117468380Y-73048857D01*
X117516000Y-73144095D01*
X117563619Y-73191714D01*
X117658857Y-73239333D01*
X117801714Y-73239333D01*
X117896952Y-73191714D01*
X117944571Y-73144095D01*
X117992190Y-73048857D01*
X117992190Y-72667904D01*
X117563619Y-73620285D02*
X117516000Y-73667904D01*
X117468380Y-73763142D01*
X117468380Y-74001238D01*
X117516000Y-74096476D01*
X117563619Y-74144095D01*
X117658857Y-74191714D01*
X117754095Y-74191714D01*
X117896952Y-74144095D01*
X118468380Y-73572666D01*
X118468380Y-74191714D01*
%TO.C,C2*%
X125071142Y-70445333D02*
X125118761Y-70397714D01*
X125166380Y-70254857D01*
X125166380Y-70159619D01*
X125118761Y-70016761D01*
X125023523Y-69921523D01*
X124928285Y-69873904D01*
X124737809Y-69826285D01*
X124594952Y-69826285D01*
X124404476Y-69873904D01*
X124309238Y-69921523D01*
X124214000Y-70016761D01*
X124166380Y-70159619D01*
X124166380Y-70254857D01*
X124214000Y-70397714D01*
X124261619Y-70445333D01*
X124261619Y-70826285D02*
X124214000Y-70873904D01*
X124166380Y-70969142D01*
X124166380Y-71207238D01*
X124214000Y-71302476D01*
X124261619Y-71350095D01*
X124356857Y-71397714D01*
X124452095Y-71397714D01*
X124594952Y-71350095D01*
X125166380Y-70778666D01*
X125166380Y-71397714D01*
%TO.C,R28*%
X94432380Y-66667142D02*
X93956190Y-66333809D01*
X94432380Y-66095714D02*
X93432380Y-66095714D01*
X93432380Y-66476666D01*
X93480000Y-66571904D01*
X93527619Y-66619523D01*
X93622857Y-66667142D01*
X93765714Y-66667142D01*
X93860952Y-66619523D01*
X93908571Y-66571904D01*
X93956190Y-66476666D01*
X93956190Y-66095714D01*
X93527619Y-67048095D02*
X93480000Y-67095714D01*
X93432380Y-67190952D01*
X93432380Y-67429047D01*
X93480000Y-67524285D01*
X93527619Y-67571904D01*
X93622857Y-67619523D01*
X93718095Y-67619523D01*
X93860952Y-67571904D01*
X94432380Y-67000476D01*
X94432380Y-67619523D01*
X93860952Y-68190952D02*
X93813333Y-68095714D01*
X93765714Y-68048095D01*
X93670476Y-68000476D01*
X93622857Y-68000476D01*
X93527619Y-68048095D01*
X93480000Y-68095714D01*
X93432380Y-68190952D01*
X93432380Y-68381428D01*
X93480000Y-68476666D01*
X93527619Y-68524285D01*
X93622857Y-68571904D01*
X93670476Y-68571904D01*
X93765714Y-68524285D01*
X93813333Y-68476666D01*
X93860952Y-68381428D01*
X93860952Y-68190952D01*
X93908571Y-68095714D01*
X93956190Y-68048095D01*
X94051428Y-68000476D01*
X94241904Y-68000476D01*
X94337142Y-68048095D01*
X94384761Y-68095714D01*
X94432380Y-68190952D01*
X94432380Y-68381428D01*
X94384761Y-68476666D01*
X94337142Y-68524285D01*
X94241904Y-68571904D01*
X94051428Y-68571904D01*
X93956190Y-68524285D01*
X93908571Y-68476666D01*
X93860952Y-68381428D01*
%TO.C,JP1*%
X91351380Y-54538666D02*
X92065666Y-54538666D01*
X92208523Y-54491047D01*
X92303761Y-54395809D01*
X92351380Y-54252952D01*
X92351380Y-54157714D01*
X92351380Y-55014857D02*
X91351380Y-55014857D01*
X91351380Y-55395809D01*
X91399000Y-55491047D01*
X91446619Y-55538666D01*
X91541857Y-55586285D01*
X91684714Y-55586285D01*
X91779952Y-55538666D01*
X91827571Y-55491047D01*
X91875190Y-55395809D01*
X91875190Y-55014857D01*
X92351380Y-56538666D02*
X92351380Y-55967238D01*
X92351380Y-56252952D02*
X91351380Y-56252952D01*
X91494238Y-56157714D01*
X91589476Y-56062476D01*
X91637095Y-55967238D01*
%TO.C,R37*%
X86408583Y-66586041D02*
X86741916Y-66109851D01*
X86980011Y-66586041D02*
X86980011Y-65586041D01*
X86599059Y-65586041D01*
X86503821Y-65633661D01*
X86456202Y-65681280D01*
X86408583Y-65776518D01*
X86408583Y-65919375D01*
X86456202Y-66014613D01*
X86503821Y-66062232D01*
X86599059Y-66109851D01*
X86980011Y-66109851D01*
X86075249Y-65586041D02*
X85456202Y-65586041D01*
X85789535Y-65966994D01*
X85646678Y-65966994D01*
X85551440Y-66014613D01*
X85503821Y-66062232D01*
X85456202Y-66157470D01*
X85456202Y-66395565D01*
X85503821Y-66490803D01*
X85551440Y-66538422D01*
X85646678Y-66586041D01*
X85932392Y-66586041D01*
X86027630Y-66538422D01*
X86075249Y-66490803D01*
X85122868Y-65586041D02*
X84456202Y-65586041D01*
X84884773Y-66586041D01*
%TO.C,U2*%
X121157904Y-71902380D02*
X121157904Y-72711904D01*
X121110285Y-72807142D01*
X121062666Y-72854761D01*
X120967428Y-72902380D01*
X120776952Y-72902380D01*
X120681714Y-72854761D01*
X120634095Y-72807142D01*
X120586476Y-72711904D01*
X120586476Y-71902380D01*
X120157904Y-71997619D02*
X120110285Y-71950000D01*
X120015047Y-71902380D01*
X119776952Y-71902380D01*
X119681714Y-71950000D01*
X119634095Y-71997619D01*
X119586476Y-72092857D01*
X119586476Y-72188095D01*
X119634095Y-72330952D01*
X120205523Y-72902380D01*
X119586476Y-72902380D01*
%TO.C,C13*%
X94497142Y-70477142D02*
X94544761Y-70429523D01*
X94592380Y-70286666D01*
X94592380Y-70191428D01*
X94544761Y-70048571D01*
X94449523Y-69953333D01*
X94354285Y-69905714D01*
X94163809Y-69858095D01*
X94020952Y-69858095D01*
X93830476Y-69905714D01*
X93735238Y-69953333D01*
X93640000Y-70048571D01*
X93592380Y-70191428D01*
X93592380Y-70286666D01*
X93640000Y-70429523D01*
X93687619Y-70477142D01*
X94592380Y-71429523D02*
X94592380Y-70858095D01*
X94592380Y-71143809D02*
X93592380Y-71143809D01*
X93735238Y-71048571D01*
X93830476Y-70953333D01*
X93878095Y-70858095D01*
X93592380Y-71762857D02*
X93592380Y-72381904D01*
X93973333Y-72048571D01*
X93973333Y-72191428D01*
X94020952Y-72286666D01*
X94068571Y-72334285D01*
X94163809Y-72381904D01*
X94401904Y-72381904D01*
X94497142Y-72334285D01*
X94544761Y-72286666D01*
X94592380Y-72191428D01*
X94592380Y-71905714D01*
X94544761Y-71810476D01*
X94497142Y-71762857D01*
%TO.C,C4*%
X105068666Y-59953142D02*
X105116285Y-60000761D01*
X105259142Y-60048380D01*
X105354380Y-60048380D01*
X105497238Y-60000761D01*
X105592476Y-59905523D01*
X105640095Y-59810285D01*
X105687714Y-59619809D01*
X105687714Y-59476952D01*
X105640095Y-59286476D01*
X105592476Y-59191238D01*
X105497238Y-59096000D01*
X105354380Y-59048380D01*
X105259142Y-59048380D01*
X105116285Y-59096000D01*
X105068666Y-59143619D01*
X104211523Y-59381714D02*
X104211523Y-60048380D01*
X104449619Y-59000761D02*
X104687714Y-59715047D01*
X104068666Y-59715047D01*
D12*
%TO.C,C16*%
X57231234Y-119890000D02*
X57523768Y-119890000D01*
X57231234Y-118870000D02*
X57523768Y-118870000D01*
%TO.C,R19*%
X38480276Y-84567500D02*
X38989724Y-84567500D01*
X38480276Y-85612500D02*
X38989724Y-85612500D01*
%TO.C,C18*%
X65915000Y-117556234D02*
X65915000Y-117848768D01*
X64895000Y-117556234D02*
X64895000Y-117848768D01*
%TO.C,C7*%
X115081267Y-84965000D02*
X114788733Y-84965000D01*
X115081267Y-83945000D02*
X114788733Y-83945000D01*
%TO.C,C15*%
X76325000Y-118191234D02*
X76325000Y-118483768D01*
X77345000Y-118191234D02*
X77345000Y-118483768D01*
%TO.C,C31*%
X117600000Y-88030267D02*
X117600000Y-87737733D01*
X118620000Y-88030267D02*
X118620000Y-87737733D01*
%TO.C,R56*%
X118680845Y-93231865D02*
X118680845Y-92722417D01*
X117635845Y-93231865D02*
X117635845Y-92722417D01*
D13*
%TO.C,U10*%
X82030000Y-113210000D02*
X82030000Y-110310000D01*
X80530000Y-110310000D02*
X80530000Y-113210000D01*
X80530000Y-113210000D02*
X82030000Y-113210000D01*
X79605000Y-113270000D02*
X80180000Y-113270000D01*
X82030000Y-110310000D02*
X80530000Y-110310000D01*
D12*
%TO.C,R40*%
X81025276Y-108697500D02*
X81534724Y-108697500D01*
X81025276Y-109742500D02*
X81534724Y-109742500D01*
%TO.C,JP3*%
X120920000Y-93008000D02*
X120920000Y-98508000D01*
X122870000Y-98508000D02*
X122870000Y-93008000D01*
X122870000Y-93008000D02*
X120920000Y-93008000D01*
X120920000Y-98508000D02*
X122870000Y-98508000D01*
%TO.C,R9*%
X101091276Y-58688500D02*
X101600724Y-58688500D01*
X101091276Y-57643500D02*
X101600724Y-57643500D01*
%TO.C,R34*%
X89647500Y-67564724D02*
X89647500Y-67055276D01*
X90692500Y-67564724D02*
X90692500Y-67055276D01*
%TO.C,R10*%
X97535276Y-57643500D02*
X98044724Y-57643500D01*
X97535276Y-58688500D02*
X98044724Y-58688500D01*
%TO.C,R1*%
X116063500Y-76962724D02*
X116063500Y-76453276D01*
X117108500Y-76962724D02*
X117108500Y-76453276D01*
%TO.C,R38*%
X82285843Y-67412747D02*
X82795291Y-67412747D01*
X82285843Y-68457747D02*
X82795291Y-68457747D01*
D13*
%TO.C,U6*%
X84224290Y-61334497D02*
X83649290Y-61334497D01*
X83299290Y-64294497D02*
X83299290Y-61394497D01*
X81799290Y-64294497D02*
X83299290Y-64294497D01*
X81799290Y-61394497D02*
X81799290Y-64294497D01*
X83299290Y-61394497D02*
X81799290Y-61394497D01*
D12*
%TO.C,R4*%
X104125500Y-70358724D02*
X104125500Y-69849276D01*
X105170500Y-70358724D02*
X105170500Y-69849276D01*
%TO.C,C3*%
X120249733Y-74424000D02*
X120542267Y-74424000D01*
X120249733Y-73404000D02*
X120542267Y-73404000D01*
%TO.C,U1*%
X100076000Y-64496000D02*
X103526000Y-64496000D01*
X100076000Y-64496000D02*
X98126000Y-64496000D01*
X100076000Y-69616000D02*
X98126000Y-69616000D01*
X100076000Y-69616000D02*
X102026000Y-69616000D01*
%TO.C,R8*%
X93979276Y-58688500D02*
X94488724Y-58688500D01*
X93979276Y-57643500D02*
X94488724Y-57643500D01*
%TO.C,JP2*%
X120920000Y-85134000D02*
X120920000Y-90634000D01*
X122870000Y-90634000D02*
X122870000Y-85134000D01*
X122870000Y-85134000D02*
X120920000Y-85134000D01*
X120920000Y-90634000D02*
X122870000Y-90634000D01*
%TO.C,R33*%
X87107500Y-67564724D02*
X87107500Y-67055276D01*
X88152500Y-67564724D02*
X88152500Y-67055276D01*
%TO.C,C12*%
X87120000Y-70973733D02*
X87120000Y-71266267D01*
X88140000Y-70973733D02*
X88140000Y-71266267D01*
%TO.C,R6*%
X98402224Y-71134500D02*
X97892776Y-71134500D01*
X98402224Y-70089500D02*
X97892776Y-70089500D01*
%TO.C,C1*%
X126011000Y-67556748D02*
X126011000Y-68079252D01*
X127481000Y-67556748D02*
X127481000Y-68079252D01*
%TO.C,Q1*%
X100904000Y-73532000D02*
X100904000Y-72482000D01*
X102704000Y-73532000D02*
X100904000Y-73532000D01*
X100904000Y-70232000D02*
X100904000Y-71282000D01*
X103304000Y-70232000D02*
X100904000Y-70232000D01*
%TO.C,Q6*%
X83290000Y-69540000D02*
X83290000Y-70470000D01*
X83290000Y-69540000D02*
X86450000Y-69540000D01*
X83290000Y-72700000D02*
X84750000Y-72700000D01*
X83290000Y-72700000D02*
X83290000Y-71770000D01*
%TO.C,R2*%
X117108500Y-73660724D02*
X117108500Y-73151276D01*
X116063500Y-73660724D02*
X116063500Y-73151276D01*
%TO.C,C2*%
X124204000Y-67671733D02*
X124204000Y-67964267D01*
X125224000Y-67671733D02*
X125224000Y-67964267D01*
%TO.C,R28*%
X93232500Y-67055276D02*
X93232500Y-67564724D01*
X92187500Y-67055276D02*
X92187500Y-67564724D01*
%TO.C,JP1*%
X95499000Y-54042000D02*
X98099000Y-54042000D01*
X95499000Y-56702000D02*
X98099000Y-56702000D01*
X94229000Y-54042000D02*
X92899000Y-54042000D01*
X95499000Y-54042000D02*
X95499000Y-56702000D01*
X98099000Y-54042000D02*
X98099000Y-56702000D01*
X92899000Y-54042000D02*
X92899000Y-55372000D01*
%TO.C,R37*%
X82804724Y-65517500D02*
X82295276Y-65517500D01*
X82804724Y-66562500D02*
X82295276Y-66562500D01*
D10*
%TO.C,U2*%
X122071000Y-68175000D02*
X122071000Y-68475000D01*
X118721000Y-71525000D02*
X122071000Y-71525000D01*
X118721000Y-68175000D02*
X118721000Y-68475000D01*
X118721000Y-71300000D02*
X117496000Y-71300000D01*
X118721000Y-71525000D02*
X118721000Y-71300000D01*
X122071000Y-71525000D02*
X122071000Y-71225000D01*
X118721000Y-68175000D02*
X122071000Y-68175000D01*
D12*
%TO.C,C13*%
X93220000Y-71266267D02*
X93220000Y-70973733D01*
X92200000Y-71266267D02*
X92200000Y-70973733D01*
%TO.C,C4*%
X104755733Y-58676000D02*
X105048267Y-58676000D01*
X104755733Y-57656000D02*
X105048267Y-57656000D01*
%TD*%
M02*
