%TF.GenerationSoftware,KiCad,Pcbnew,(6.0.7)*%
%TF.CreationDate,2023-06-24T17:20:50+09:00*%
%TF.ProjectId,motordriver,6d6f746f-7264-4726-9976-65722e6b6963,rev?*%
%TF.SameCoordinates,Original*%
%TF.FileFunction,Soldermask,Top*%
%TF.FilePolarity,Negative*%
%FSLAX46Y46*%
G04 Gerber Fmt 4.6, Leading zero omitted, Abs format (unit mm)*
G04 Created by KiCad (PCBNEW (6.0.7)) date 2023-06-24 17:20:50*
%MOMM*%
%LPD*%
G01*
G04 APERTURE LIST*
G04 Aperture macros list*
%AMRoundRect*
0 Rectangle with rounded corners*
0 $1 Rounding radius*
0 $2 $3 $4 $5 $6 $7 $8 $9 X,Y pos of 4 corners*
0 Add a 4 corners polygon primitive as box body*
4,1,4,$2,$3,$4,$5,$6,$7,$8,$9,$2,$3,0*
0 Add four circle primitives for the rounded corners*
1,1,$1+$1,$2,$3*
1,1,$1+$1,$4,$5*
1,1,$1+$1,$6,$7*
1,1,$1+$1,$8,$9*
0 Add four rect primitives between the rounded corners*
20,1,$1+$1,$2,$3,$4,$5,0*
20,1,$1+$1,$4,$5,$6,$7,0*
20,1,$1+$1,$6,$7,$8,$9,0*
20,1,$1+$1,$8,$9,$2,$3,0*%
%AMRotRect*
0 Rectangle, with rotation*
0 The origin of the aperture is its center*
0 $1 length*
0 $2 width*
0 $3 Rotation angle, in degrees counterclockwise*
0 Add horizontal line*
21,1,$1,$2,0,0,$3*%
%AMFreePoly0*
4,1,53,0.885000,-2.035000,0.700000,-2.035000,0.700000,-3.665000,0.695106,-3.680063,0.695106,-3.695902,0.685796,-3.708716,0.680902,-3.723779,0.668089,-3.733089,0.658779,-3.745902,0.643716,-3.750796,0.630902,-3.760106,0.615063,-3.760106,0.600000,-3.765000,-0.600000,-3.765000,-0.615063,-3.760106,-0.630902,-3.760106,-0.643716,-3.750796,-0.658779,-3.745902,-0.668089,-3.733089,-0.680902,-3.723779,
-0.685796,-3.708716,-0.695106,-3.695902,-0.695106,-3.680063,-0.700000,-3.665000,-0.700000,-2.035000,-0.885000,-2.035000,-0.885000,0.450000,-2.515000,0.450000,-2.530063,0.454894,-2.545902,0.454894,-2.558716,0.464204,-2.573779,0.469098,-2.583089,0.481911,-2.595902,0.491221,-2.600796,0.506284,-2.610106,0.519098,-2.610106,0.534937,-2.615000,0.550000,-2.615000,1.750000,-2.610106,1.765063,
-2.610106,1.780902,-2.600796,1.793716,-2.595902,1.808779,-2.583089,1.818089,-2.573779,1.830902,-2.558716,1.835796,-2.545902,1.845106,-2.530063,1.845106,-2.515000,1.850000,-0.885000,1.850000,-0.885000,2.035000,0.885000,2.035000,0.885000,-2.035000,0.885000,-2.035000,$1*%
%AMFreePoly1*
4,1,53,-0.534937,2.610106,-0.519098,2.610106,-0.506284,2.600796,-0.491221,2.595902,-0.481911,2.583089,-0.469098,2.573779,-0.464204,2.558716,-0.454894,2.545902,-0.454894,2.530063,-0.450000,2.515000,-0.450000,0.885000,0.450000,0.885000,0.450000,2.515000,0.454894,2.530063,0.454894,2.545902,0.464204,2.558716,0.469098,2.573779,0.481911,2.583089,0.491221,2.595902,0.506284,2.600796,
0.519098,2.610106,0.534937,2.610106,0.550000,2.615000,1.750000,2.615000,1.765063,2.610106,1.780902,2.610106,1.793716,2.600796,1.808779,2.595902,1.818089,2.583089,1.830902,2.573779,1.835796,2.558716,1.845106,2.545902,1.845106,2.530063,1.850000,2.515000,1.850000,0.885000,2.035000,0.885000,2.035000,-0.885000,-2.035000,-0.885000,-2.035000,0.885000,-1.850000,0.885000,
-1.850000,2.515000,-1.845106,2.530063,-1.845106,2.545902,-1.835796,2.558716,-1.830902,2.573779,-1.818089,2.583089,-1.808779,2.595902,-1.793716,2.600796,-1.780902,2.610106,-1.765063,2.610106,-1.750000,2.615000,-0.550000,2.615000,-0.534937,2.610106,-0.534937,2.610106,$1*%
%AMFreePoly2*
4,1,29,0.885000,1.850000,2.515000,1.850000,2.530063,1.845106,2.545902,1.845106,2.558716,1.835796,2.573779,1.830902,2.583089,1.818089,2.595902,1.808779,2.600796,1.793716,2.610106,1.780902,2.610106,1.765063,2.615000,1.750000,2.615000,0.550000,2.610106,0.534937,2.610106,0.519098,2.600796,0.506284,2.595902,0.491221,2.583089,0.481911,2.573779,0.469098,2.558716,0.464204,
2.545902,0.454894,2.530063,0.454894,2.515000,0.450000,0.885000,0.450000,0.885000,-2.035000,-0.885000,-2.035000,-0.885000,2.035000,0.885000,2.035000,0.885000,1.850000,0.885000,1.850000,$1*%
G04 Aperture macros list end*
%ADD10RoundRect,0.237500X-0.237500X0.300000X-0.237500X-0.300000X0.237500X-0.300000X0.237500X0.300000X0*%
%ADD11RoundRect,0.237500X0.237500X-0.250000X0.237500X0.250000X-0.237500X0.250000X-0.237500X-0.250000X0*%
%ADD12RoundRect,0.237500X-0.300000X-0.237500X0.300000X-0.237500X0.300000X0.237500X-0.300000X0.237500X0*%
%ADD13RoundRect,0.237500X-0.287500X-0.237500X0.287500X-0.237500X0.287500X0.237500X-0.287500X0.237500X0*%
%ADD14RoundRect,0.237500X-0.250000X-0.237500X0.250000X-0.237500X0.250000X0.237500X-0.250000X0.237500X0*%
%ADD15C,1.524000*%
%ADD16R,1.530000X2.720000*%
%ADD17R,0.620000X0.575000*%
%ADD18C,2.800000*%
%ADD19R,1.200000X0.900000*%
%ADD20R,0.900000X1.200000*%
%ADD21RoundRect,0.237500X0.044194X0.380070X-0.380070X-0.044194X-0.044194X-0.380070X0.380070X0.044194X0*%
%ADD22R,0.850000X1.450000*%
%ADD23R,0.850000X1.050000*%
%ADD24R,4.700000X3.750000*%
%ADD25C,1.500000*%
%ADD26O,1.600000X1.600000*%
%ADD27R,1.600000X1.600000*%
%ADD28C,1.700000*%
%ADD29R,1.600000X1.400000*%
%ADD30RoundRect,0.250000X0.600000X0.675000X-0.600000X0.675000X-0.600000X-0.675000X0.600000X-0.675000X0*%
%ADD31O,1.700000X1.850000*%
%ADD32RoundRect,0.237500X0.250000X0.237500X-0.250000X0.237500X-0.250000X-0.237500X0.250000X-0.237500X0*%
%ADD33RoundRect,0.250000X-0.600000X-0.675000X0.600000X-0.675000X0.600000X0.675000X-0.600000X0.675000X0*%
%ADD34RoundRect,0.237500X0.300000X0.237500X-0.300000X0.237500X-0.300000X-0.237500X0.300000X-0.237500X0*%
%ADD35RoundRect,0.237500X0.344715X-0.008839X-0.008839X0.344715X-0.344715X0.008839X0.008839X-0.344715X0*%
%ADD36RoundRect,0.237500X0.237500X-0.300000X0.237500X0.300000X-0.237500X0.300000X-0.237500X-0.300000X0*%
%ADD37RoundRect,0.237500X0.287500X0.237500X-0.287500X0.237500X-0.287500X-0.237500X0.287500X-0.237500X0*%
%ADD38R,0.800000X1.900000*%
%ADD39RoundRect,0.237500X-0.044194X-0.380070X0.380070X0.044194X0.044194X0.380070X-0.380070X-0.044194X0*%
%ADD40R,1.524000X1.524000*%
%ADD41C,1.600000*%
%ADD42C,1.400000*%
%ADD43R,3.500000X3.500000*%
%ADD44C,3.500000*%
%ADD45RoundRect,0.237500X-0.237500X0.250000X-0.237500X-0.250000X0.237500X-0.250000X0.237500X0.250000X0*%
%ADD46R,1.200000X3.000000*%
%ADD47FreePoly0,0.000000*%
%ADD48FreePoly1,90.000000*%
%ADD49FreePoly2,90.000000*%
%ADD50R,3.000000X1.200000*%
%ADD51R,1.200000X1.500000*%
%ADD52RoundRect,0.150000X0.675000X0.150000X-0.675000X0.150000X-0.675000X-0.150000X0.675000X-0.150000X0*%
%ADD53RoundRect,0.150000X-0.150000X0.675000X-0.150000X-0.675000X0.150000X-0.675000X0.150000X0.675000X0*%
%ADD54R,0.575000X0.620000*%
%ADD55RoundRect,0.125000X-0.530330X0.353553X0.353553X-0.530330X0.530330X-0.353553X-0.353553X0.530330X0*%
%ADD56RoundRect,0.125000X-0.530330X-0.353553X-0.353553X-0.530330X0.530330X0.353553X0.353553X0.530330X0*%
%ADD57R,2.200000X1.200000*%
%ADD58R,6.400000X5.800000*%
%ADD59R,1.800000X1.717500*%
%ADD60O,1.800000X1.717500*%
%ADD61RoundRect,0.250000X-0.600000X-0.600000X0.600000X-0.600000X0.600000X0.600000X-0.600000X0.600000X0*%
%ADD62RotRect,1.600000X1.600000X315.000000*%
%ADD63RoundRect,0.250000X-0.675000X0.600000X-0.675000X-0.600000X0.675000X-0.600000X0.675000X0.600000X0*%
%ADD64O,1.850000X1.700000*%
%ADD65R,1.700000X1.700000*%
%ADD66O,1.700000X1.700000*%
G04 APERTURE END LIST*
D10*
%TO.C,C21*%
X66675000Y-102007500D03*
X66675000Y-103732500D03*
%TD*%
D11*
%TO.C,R42*%
X66675000Y-93067500D03*
X66675000Y-94892500D03*
%TD*%
D12*
%TO.C,C8*%
X41910000Y-87630000D03*
X43635000Y-87630000D03*
%TD*%
D13*
%TO.C,D2*%
X109615000Y-68834000D03*
X111365000Y-68834000D03*
%TD*%
D14*
%TO.C,R27*%
X54252500Y-106680000D03*
X52427500Y-106680000D03*
%TD*%
D15*
%TO.C,SW3*%
X90170000Y-56030000D03*
X90170000Y-58570000D03*
X90170000Y-61110000D03*
%TD*%
D16*
%TO.C,C6*%
X44776610Y-74639237D03*
X42094610Y-74639237D03*
%TD*%
D17*
%TO.C,U5*%
X91120000Y-73542000D03*
X90170000Y-73542000D03*
X89220000Y-73542000D03*
X89220000Y-76318000D03*
X90170000Y-76318000D03*
X91120000Y-76318000D03*
%TD*%
D18*
%TO.C,REF\u002A\u002A*%
X125300000Y-122520000D03*
%TD*%
D19*
%TO.C,D9*%
X46990000Y-98680000D03*
X46990000Y-101980000D03*
%TD*%
D12*
%TO.C,C23*%
X74637153Y-85104507D03*
X76362153Y-85104507D03*
%TD*%
D20*
%TO.C,D3*%
X41826346Y-71658896D03*
X45126346Y-71658896D03*
%TD*%
D21*
%TO.C,C25*%
X99669880Y-80162120D03*
X98450120Y-81381880D03*
%TD*%
D14*
%TO.C,R22*%
X85170000Y-65405000D03*
X86995000Y-65405000D03*
%TD*%
D22*
%TO.C,U8*%
X50165000Y-101895000D03*
X51435000Y-101895000D03*
X52705000Y-101895000D03*
X53975000Y-101895000D03*
D23*
X53975000Y-96195000D03*
X52705000Y-96195000D03*
X51435000Y-96195000D03*
X50165000Y-96195000D03*
D24*
X52070000Y-98595000D03*
%TD*%
D25*
%TO.C,Y1*%
X94696412Y-79801588D03*
X91231589Y-83266411D03*
%TD*%
D26*
%TO.C,U3*%
X35550000Y-85095000D03*
X35550000Y-82555000D03*
X43170000Y-82555000D03*
D27*
X43170000Y-85095000D03*
%TD*%
D14*
%TO.C,R53*%
X113641500Y-113538000D03*
X115466500Y-113538000D03*
%TD*%
D12*
%TO.C,C10*%
X37872499Y-95250000D03*
X39597499Y-95250000D03*
%TD*%
D28*
%TO.C,SW4*%
X101600000Y-115570000D03*
X101600000Y-118110000D03*
X101600000Y-120650000D03*
X101600000Y-113030000D03*
X101600000Y-123190000D03*
%TD*%
D29*
%TO.C,SW6*%
X120110000Y-116622000D03*
X112110000Y-116622000D03*
X112110000Y-121122000D03*
X120110000Y-121122000D03*
%TD*%
D30*
%TO.C,J3*%
X105330000Y-61220000D03*
D31*
X102830000Y-61220000D03*
X100330000Y-61220000D03*
X97830000Y-61220000D03*
X95330000Y-61220000D03*
%TD*%
D17*
%TO.C,U9*%
X86040000Y-73542000D03*
X85090000Y-73542000D03*
X84140000Y-73542000D03*
X84140000Y-76318000D03*
X85090000Y-76318000D03*
X86040000Y-76318000D03*
%TD*%
D14*
%TO.C,R25*%
X84812500Y-108585000D03*
X86637500Y-108585000D03*
%TD*%
D12*
%TO.C,C9*%
X57434958Y-55398953D03*
X59159958Y-55398953D03*
%TD*%
D22*
%TO.C,U11*%
X60325000Y-91015000D03*
X61595000Y-91015000D03*
X62865000Y-91015000D03*
X64135000Y-91015000D03*
D23*
X64135000Y-85315000D03*
X62865000Y-85315000D03*
X61595000Y-85315000D03*
X60325000Y-85315000D03*
D24*
X62230000Y-87715000D03*
%TD*%
D32*
%TO.C,R15*%
X40282500Y-80010000D03*
X38457500Y-80010000D03*
%TD*%
D33*
%TO.C,J7*%
X55920000Y-117060000D03*
D31*
X58420000Y-117060000D03*
X60920000Y-117060000D03*
%TD*%
D34*
%TO.C,C22*%
X76340377Y-83395547D03*
X74615377Y-83395547D03*
%TD*%
D35*
%TO.C,R50*%
X96296159Y-86123338D03*
X95005689Y-84832868D03*
%TD*%
D14*
%TO.C,R30*%
X52427500Y-104775000D03*
X54252500Y-104775000D03*
%TD*%
D36*
%TO.C,C19*%
X80827993Y-75732189D03*
X80827993Y-74007189D03*
%TD*%
D34*
%TO.C,C29*%
X101700500Y-84582000D03*
X99975500Y-84582000D03*
%TD*%
D11*
%TO.C,R21*%
X82550000Y-75842500D03*
X82550000Y-74017500D03*
%TD*%
D20*
%TO.C,D4*%
X56770000Y-59690000D03*
X60070000Y-59690000D03*
%TD*%
D37*
%TO.C,D16*%
X125837506Y-104790968D03*
X124087506Y-104790968D03*
%TD*%
D38*
%TO.C,Q5*%
X86675000Y-110895000D03*
X84775000Y-110895000D03*
X85725000Y-113895000D03*
%TD*%
D11*
%TO.C,R29*%
X56384306Y-94864203D03*
X56384306Y-93039203D03*
%TD*%
D32*
%TO.C,R45*%
X68704523Y-98443293D03*
X66879523Y-98443293D03*
%TD*%
D34*
%TO.C,C20*%
X76036933Y-72114105D03*
X74311933Y-72114105D03*
%TD*%
D39*
%TO.C,C28*%
X92862120Y-89255880D03*
X94081880Y-88036120D03*
%TD*%
D32*
%TO.C,R47*%
X68580000Y-91440000D03*
X66755000Y-91440000D03*
%TD*%
%TO.C,R18*%
X80922500Y-59690000D03*
X79097500Y-59690000D03*
%TD*%
%TO.C,R35*%
X77112500Y-114300000D03*
X75287500Y-114300000D03*
%TD*%
D22*
%TO.C,U12*%
X60325000Y-101810000D03*
X61595000Y-101810000D03*
X62865000Y-101810000D03*
X64135000Y-101810000D03*
D23*
X64135000Y-96110000D03*
X62865000Y-96110000D03*
X61595000Y-96110000D03*
X60325000Y-96110000D03*
D24*
X62230000Y-98510000D03*
%TD*%
D19*
%TO.C,D11*%
X57150000Y-87885000D03*
X57150000Y-91185000D03*
%TD*%
D15*
%TO.C,SW7*%
X114300000Y-57658000D03*
X116840000Y-57658000D03*
X119380000Y-57658000D03*
%TD*%
%TO.C,SW2*%
X89535000Y-122555000D03*
X89535000Y-120015000D03*
X89535000Y-117475000D03*
%TD*%
D20*
%TO.C,D13*%
X77850000Y-81280000D03*
X74550000Y-81280000D03*
%TD*%
D14*
%TO.C,R5*%
X109577500Y-70612000D03*
X111402500Y-70612000D03*
%TD*%
D32*
%TO.C,R48*%
X115466500Y-123190000D03*
X113641500Y-123190000D03*
%TD*%
D15*
%TO.C,J1*%
X121860000Y-77565000D03*
X124400000Y-62325000D03*
X124400000Y-77565000D03*
X121860000Y-62325000D03*
X114240000Y-77565000D03*
X114240000Y-69945000D03*
D40*
X114240000Y-62325000D03*
D15*
X114240000Y-72485000D03*
X114240000Y-67405000D03*
X114240000Y-64865000D03*
X114240000Y-75025000D03*
%TD*%
D14*
%TO.C,R39*%
X85447500Y-60960000D03*
X87272500Y-60960000D03*
%TD*%
D18*
%TO.C,REF\u002A\u002A*%
X36300000Y-122520000D03*
%TD*%
D39*
%TO.C,C26*%
X91744240Y-88087760D03*
X92964000Y-86868000D03*
%TD*%
D27*
%TO.C,U16*%
X73665000Y-90815000D03*
D26*
X71125000Y-90815000D03*
X71125000Y-98435000D03*
X73665000Y-98435000D03*
%TD*%
D34*
%TO.C,C14*%
X105637500Y-64135000D03*
X103912500Y-64135000D03*
%TD*%
D27*
%TO.C,C11*%
X52070000Y-74615112D03*
D41*
X52070000Y-72615112D03*
%TD*%
D42*
%TO.C,J2*%
X53760000Y-57575000D03*
X42760000Y-57575000D03*
D43*
X50760000Y-67575000D03*
D44*
X45760000Y-67575000D03*
%TD*%
D14*
%TO.C,R12*%
X70485000Y-88265000D03*
X72310000Y-88265000D03*
%TD*%
D33*
%TO.C,J6*%
X78780000Y-117070000D03*
D31*
X81280000Y-117070000D03*
X83780000Y-117070000D03*
%TD*%
D45*
%TO.C,R24*%
X69850000Y-110847500D03*
X69850000Y-112672500D03*
%TD*%
D15*
%TO.C,SW5*%
X106680000Y-115570000D03*
X106680000Y-118110000D03*
X106680000Y-120650000D03*
%TD*%
D14*
%TO.C,R13*%
X65127500Y-71755000D03*
X66952500Y-71755000D03*
%TD*%
D11*
%TO.C,R46*%
X76200000Y-98702500D03*
X76200000Y-96877500D03*
%TD*%
D45*
%TO.C,R23*%
X58172761Y-110879154D03*
X58172761Y-112704154D03*
%TD*%
D46*
%TO.C,MD1*%
X68580000Y-69100000D03*
D47*
X63995000Y-66935000D03*
D48*
X63995000Y-62355000D03*
D49*
X65145000Y-58915000D03*
D46*
X68580000Y-57900000D03*
X73160000Y-57900000D03*
D50*
X74180000Y-63500000D03*
X74180000Y-65790000D03*
D46*
X73160000Y-69100000D03*
X70870000Y-69100000D03*
D51*
X70870000Y-57150000D03*
D50*
X74180000Y-61210000D03*
%TD*%
D35*
%TO.C,R49*%
X97419235Y-84973235D03*
X96128765Y-83682765D03*
%TD*%
D38*
%TO.C,Q4*%
X73660000Y-111125000D03*
X71760000Y-111125000D03*
X72710000Y-114125000D03*
%TD*%
D37*
%TO.C,D15*%
X124123928Y-103204699D03*
X125873928Y-103204699D03*
%TD*%
D13*
%TO.C,D10*%
X85485000Y-63500000D03*
X87235000Y-63500000D03*
%TD*%
D19*
%TO.C,D5*%
X41910000Y-92454999D03*
X41910000Y-89154999D03*
%TD*%
D52*
%TO.C,U15*%
X73745000Y-104140000D03*
X73745000Y-102870000D03*
X73745000Y-101600000D03*
X73745000Y-100330000D03*
X68495000Y-100330000D03*
X68495000Y-101600000D03*
X68495000Y-102870000D03*
X68495000Y-104140000D03*
%TD*%
D53*
%TO.C,U4*%
X40005000Y-88180000D03*
X38735000Y-88180000D03*
X37465000Y-88180000D03*
X36195000Y-88180000D03*
X36195000Y-93430000D03*
X37465000Y-93430000D03*
X38735000Y-93430000D03*
X40005000Y-93430000D03*
%TD*%
D12*
%TO.C,C32*%
X99931040Y-99856988D03*
X101656040Y-99856988D03*
%TD*%
%TO.C,C34*%
X117147000Y-113538000D03*
X118872000Y-113538000D03*
%TD*%
D54*
%TO.C,U13*%
X95132000Y-65090000D03*
X95132000Y-66040000D03*
X95132000Y-66990000D03*
X97908000Y-66990000D03*
X97908000Y-66040000D03*
X97908000Y-65090000D03*
%TD*%
D32*
%TO.C,R16*%
X80922500Y-54610000D03*
X79097500Y-54610000D03*
%TD*%
D14*
%TO.C,R43*%
X62587500Y-104775000D03*
X64412500Y-104775000D03*
%TD*%
D19*
%TO.C,D12*%
X57150000Y-98680000D03*
X57150000Y-101980000D03*
%TD*%
D11*
%TO.C,R52*%
X106680000Y-110998000D03*
X106680000Y-109173000D03*
%TD*%
D55*
%TO.C,U17*%
X99865728Y-86507930D03*
X99300043Y-87073616D03*
X98734357Y-87639301D03*
X98168672Y-88204986D03*
X97602986Y-88770672D03*
X97037301Y-89336357D03*
X96471616Y-89902043D03*
X95905930Y-90467728D03*
D56*
X95905930Y-92412272D03*
X96471616Y-92977957D03*
X97037301Y-93543643D03*
X97602986Y-94109328D03*
X98168672Y-94675014D03*
X98734357Y-95240699D03*
X99300043Y-95806384D03*
X99865728Y-96372070D03*
D55*
X101810272Y-96372070D03*
X102375957Y-95806384D03*
X102941643Y-95240699D03*
X103507328Y-94675014D03*
X104073014Y-94109328D03*
X104638699Y-93543643D03*
X105204384Y-92977957D03*
X105770070Y-92412272D03*
D56*
X105770070Y-90467728D03*
X105204384Y-89902043D03*
X104638699Y-89336357D03*
X104073014Y-88770672D03*
X103507328Y-88204986D03*
X102941643Y-87639301D03*
X102375957Y-87073616D03*
X101810272Y-86507930D03*
%TD*%
D14*
%TO.C,R17*%
X79097500Y-57150000D03*
X80922500Y-57150000D03*
%TD*%
D12*
%TO.C,C33*%
X64542500Y-74295000D03*
X66267500Y-74295000D03*
%TD*%
D57*
%TO.C,U14*%
X77015000Y-78735000D03*
X77015000Y-76455000D03*
D58*
X70715000Y-76455000D03*
D57*
X77015000Y-74175000D03*
%TD*%
D13*
%TO.C,D7*%
X85485000Y-58420000D03*
X87235000Y-58420000D03*
%TD*%
D32*
%TO.C,R36*%
X84097500Y-114300000D03*
X82272500Y-114300000D03*
%TD*%
D14*
%TO.C,R41*%
X95250000Y-68580000D03*
X97075000Y-68580000D03*
%TD*%
%TO.C,R32*%
X63857500Y-114300000D03*
X65682500Y-114300000D03*
%TD*%
D20*
%TO.C,D14*%
X67845456Y-106193174D03*
X71145456Y-106193174D03*
%TD*%
D38*
%TO.C,Q3*%
X61910000Y-110895000D03*
X60010000Y-110895000D03*
X60960000Y-113895000D03*
%TD*%
D33*
%TO.C,J8*%
X67350000Y-117100000D03*
D31*
X69850000Y-117100000D03*
X72350000Y-117100000D03*
%TD*%
D22*
%TO.C,U7*%
X50165000Y-91015000D03*
X51435000Y-91015000D03*
X52705000Y-91015000D03*
X53975000Y-91015000D03*
D23*
X53975000Y-85315000D03*
X52705000Y-85315000D03*
X51435000Y-85315000D03*
X50165000Y-85315000D03*
D24*
X52070000Y-87715000D03*
%TD*%
D29*
%TO.C,SW8*%
X112110000Y-106970000D03*
X120110000Y-106970000D03*
X120110000Y-111470000D03*
X112110000Y-111470000D03*
%TD*%
D14*
%TO.C,R31*%
X85447500Y-55880000D03*
X87272500Y-55880000D03*
%TD*%
%TO.C,R11*%
X67032500Y-88265000D03*
X68857500Y-88265000D03*
%TD*%
D34*
%TO.C,C24*%
X74522500Y-105852269D03*
X72797500Y-105852269D03*
%TD*%
D59*
%TO.C,Q2*%
X38100000Y-63749999D03*
D60*
X38100000Y-66039999D03*
X38100000Y-68329999D03*
%TD*%
D14*
%TO.C,R20*%
X57993340Y-57535364D03*
X59818340Y-57535364D03*
%TD*%
D34*
%TO.C,C30*%
X101700500Y-98298000D03*
X99975500Y-98298000D03*
%TD*%
D37*
%TO.C,D6*%
X90410000Y-65405000D03*
X88660000Y-65405000D03*
%TD*%
D14*
%TO.C,R3*%
X109577500Y-65786000D03*
X111402500Y-65786000D03*
%TD*%
D11*
%TO.C,R44*%
X68580000Y-94892500D03*
X68580000Y-93067500D03*
%TD*%
D61*
%TO.C,J4*%
X113762500Y-86595000D03*
D28*
X116302500Y-86595000D03*
X113762500Y-89135000D03*
X116302500Y-89135000D03*
X113762500Y-91675000D03*
X116302500Y-91675000D03*
X113762500Y-94215000D03*
X116302500Y-94215000D03*
X113762500Y-96755000D03*
X116302500Y-96755000D03*
%TD*%
D11*
%TO.C,R26*%
X57898187Y-93039203D03*
X57898187Y-94864203D03*
%TD*%
D13*
%TO.C,D1*%
X109615000Y-64008000D03*
X111365000Y-64008000D03*
%TD*%
D18*
%TO.C,REF\u002A\u002A*%
X125300000Y-56520000D03*
%TD*%
D15*
%TO.C,SW1*%
X78740000Y-66040000D03*
X78740000Y-68580000D03*
X78740000Y-71120000D03*
%TD*%
D11*
%TO.C,R7*%
X35560000Y-66952500D03*
X35560000Y-65127500D03*
%TD*%
D14*
%TO.C,R51*%
X101703500Y-109220000D03*
X103528500Y-109220000D03*
%TD*%
D62*
%TO.C,C17*%
X80728957Y-78648159D03*
D41*
X82143171Y-80062373D03*
%TD*%
D18*
%TO.C,REF\u002A\u002A*%
X36300000Y-56520000D03*
%TD*%
D19*
%TO.C,D8*%
X46990000Y-87885000D03*
X46990000Y-91185000D03*
%TD*%
D32*
%TO.C,R55*%
X122470331Y-104819985D03*
X120645331Y-104819985D03*
%TD*%
D27*
%TO.C,C5*%
X36364633Y-75288494D03*
D41*
X36364633Y-77288494D03*
%TD*%
D63*
%TO.C,J5*%
X40750000Y-100430000D03*
D64*
X40750000Y-102930000D03*
X40750000Y-105430000D03*
X40750000Y-107930000D03*
X40750000Y-110430000D03*
X40750000Y-112930000D03*
%TD*%
D12*
%TO.C,C27*%
X117094000Y-123190000D03*
X118819000Y-123190000D03*
%TD*%
D32*
%TO.C,R54*%
X122519196Y-103193375D03*
X120694196Y-103193375D03*
%TD*%
D65*
%TO.C,JP1*%
X94229000Y-55372000D03*
D66*
X96769000Y-55372000D03*
%TD*%
M02*
