%TF.GenerationSoftware,KiCad,Pcbnew,(6.0.7)*%
%TF.CreationDate,2023-06-24T17:20:50+09:00*%
%TF.ProjectId,motordriver,6d6f746f-7264-4726-9976-65722e6b6963,rev?*%
%TF.SameCoordinates,Original*%
%TF.FileFunction,Paste,Bot*%
%TF.FilePolarity,Positive*%
%FSLAX46Y46*%
G04 Gerber Fmt 4.6, Leading zero omitted, Abs format (unit mm)*
G04 Created by KiCad (PCBNEW (6.0.7)) date 2023-06-24 17:20:50*
%MOMM*%
%LPD*%
G01*
G04 APERTURE LIST*
G04 Aperture macros list*
%AMRoundRect*
0 Rectangle with rounded corners*
0 $1 Rounding radius*
0 $2 $3 $4 $5 $6 $7 $8 $9 X,Y pos of 4 corners*
0 Add a 4 corners polygon primitive as box body*
4,1,4,$2,$3,$4,$5,$6,$7,$8,$9,$2,$3,0*
0 Add four circle primitives for the rounded corners*
1,1,$1+$1,$2,$3*
1,1,$1+$1,$4,$5*
1,1,$1+$1,$6,$7*
1,1,$1+$1,$8,$9*
0 Add four rect primitives between the rounded corners*
20,1,$1+$1,$2,$3,$4,$5,0*
20,1,$1+$1,$4,$5,$6,$7,0*
20,1,$1+$1,$6,$7,$8,$9,0*
20,1,$1+$1,$8,$9,$2,$3,0*%
G04 Aperture macros list end*
%ADD10RoundRect,0.237500X-0.300000X-0.237500X0.300000X-0.237500X0.300000X0.237500X-0.300000X0.237500X0*%
%ADD11RoundRect,0.237500X-0.250000X-0.237500X0.250000X-0.237500X0.250000X0.237500X-0.250000X0.237500X0*%
%ADD12RoundRect,0.237500X-0.237500X0.300000X-0.237500X-0.300000X0.237500X-0.300000X0.237500X0.300000X0*%
%ADD13RoundRect,0.237500X0.300000X0.237500X-0.300000X0.237500X-0.300000X-0.237500X0.300000X-0.237500X0*%
%ADD14RoundRect,0.237500X0.237500X-0.300000X0.237500X0.300000X-0.237500X0.300000X-0.237500X-0.300000X0*%
%ADD15RoundRect,0.237500X0.237500X-0.250000X0.237500X0.250000X-0.237500X0.250000X-0.237500X-0.250000X0*%
%ADD16R,0.575000X0.620000*%
%ADD17RoundRect,0.150000X0.675000X0.150000X-0.675000X0.150000X-0.675000X-0.150000X0.675000X-0.150000X0*%
%ADD18RoundRect,0.237500X0.250000X0.237500X-0.250000X0.237500X-0.250000X-0.237500X0.250000X-0.237500X0*%
%ADD19RoundRect,0.250000X-0.475000X0.337500X-0.475000X-0.337500X0.475000X-0.337500X0.475000X0.337500X0*%
%ADD20R,0.900000X0.800000*%
%ADD21R,1.900000X0.800000*%
%ADD22RoundRect,0.237500X-0.237500X0.250000X-0.237500X-0.250000X0.237500X-0.250000X0.237500X0.250000X0*%
%ADD23R,1.400000X0.300000*%
G04 APERTURE END LIST*
D10*
%TO.C,C16*%
X56515001Y-119380000D03*
X58240001Y-119380000D03*
%TD*%
D11*
%TO.C,R19*%
X37822500Y-85090000D03*
X39647500Y-85090000D03*
%TD*%
D12*
%TO.C,C18*%
X65405000Y-116840001D03*
X65405000Y-118565001D03*
%TD*%
D13*
%TO.C,C7*%
X115797500Y-84455000D03*
X114072500Y-84455000D03*
%TD*%
D12*
%TO.C,C15*%
X76835000Y-117475001D03*
X76835000Y-119200001D03*
%TD*%
D14*
%TO.C,C31*%
X118110000Y-88746500D03*
X118110000Y-87021500D03*
%TD*%
D15*
%TO.C,R56*%
X118158345Y-93889641D03*
X118158345Y-92064641D03*
%TD*%
D16*
%TO.C,U10*%
X79892000Y-112710000D03*
X79892000Y-111760000D03*
X79892000Y-110810000D03*
X82668000Y-110810000D03*
X82668000Y-111760000D03*
X82668000Y-112710000D03*
%TD*%
D11*
%TO.C,R40*%
X80367500Y-109220000D03*
X82192500Y-109220000D03*
%TD*%
%TO.C,R9*%
X100433500Y-58166000D03*
X102258500Y-58166000D03*
%TD*%
D15*
%TO.C,R34*%
X90170000Y-68222500D03*
X90170000Y-66397500D03*
%TD*%
D11*
%TO.C,R10*%
X96877500Y-58166000D03*
X98702500Y-58166000D03*
%TD*%
D15*
%TO.C,R1*%
X116586000Y-77620500D03*
X116586000Y-75795500D03*
%TD*%
D11*
%TO.C,R38*%
X81628067Y-67935247D03*
X83453067Y-67935247D03*
%TD*%
D16*
%TO.C,U6*%
X83937290Y-61894497D03*
X83937290Y-62844497D03*
X83937290Y-63794497D03*
X81161290Y-63794497D03*
X81161290Y-62844497D03*
X81161290Y-61894497D03*
%TD*%
D15*
%TO.C,R4*%
X104648000Y-71016500D03*
X104648000Y-69191500D03*
%TD*%
D10*
%TO.C,C3*%
X119533500Y-73914000D03*
X121258500Y-73914000D03*
%TD*%
D17*
%TO.C,U1*%
X102701000Y-65151000D03*
X102701000Y-66421000D03*
X102701000Y-67691000D03*
X102701000Y-68961000D03*
X97451000Y-68961000D03*
X97451000Y-67691000D03*
X97451000Y-66421000D03*
X97451000Y-65151000D03*
%TD*%
D11*
%TO.C,R8*%
X93321500Y-58166000D03*
X95146500Y-58166000D03*
%TD*%
D15*
%TO.C,R33*%
X87630000Y-68222500D03*
X87630000Y-66397500D03*
%TD*%
D12*
%TO.C,C12*%
X87630000Y-70257500D03*
X87630000Y-71982500D03*
%TD*%
D18*
%TO.C,R6*%
X99060000Y-70612000D03*
X97235000Y-70612000D03*
%TD*%
D19*
%TO.C,C1*%
X126746000Y-66780500D03*
X126746000Y-68855500D03*
%TD*%
D20*
%TO.C,Q1*%
X103054000Y-70932000D03*
X103054000Y-72832000D03*
X100654000Y-71882000D03*
%TD*%
D21*
%TO.C,Q6*%
X85550000Y-70170000D03*
X85550000Y-72070000D03*
X82550000Y-71120000D03*
%TD*%
D15*
%TO.C,R2*%
X116586000Y-74318500D03*
X116586000Y-72493500D03*
%TD*%
D12*
%TO.C,C2*%
X124714000Y-66955500D03*
X124714000Y-68680500D03*
%TD*%
D22*
%TO.C,R28*%
X92710000Y-66397500D03*
X92710000Y-68222500D03*
%TD*%
D18*
%TO.C,R37*%
X83462500Y-66040000D03*
X81637500Y-66040000D03*
%TD*%
D23*
%TO.C,U2*%
X118196000Y-70850000D03*
X118196000Y-70350000D03*
X118196000Y-69850000D03*
X118196000Y-69350000D03*
X118196000Y-68850000D03*
X122596000Y-68850000D03*
X122596000Y-69350000D03*
X122596000Y-69850000D03*
X122596000Y-70350000D03*
X122596000Y-70850000D03*
%TD*%
D14*
%TO.C,C13*%
X92710000Y-71982500D03*
X92710000Y-70257500D03*
%TD*%
D10*
%TO.C,C4*%
X104039500Y-58166000D03*
X105764500Y-58166000D03*
%TD*%
M02*
