%TF.GenerationSoftware,KiCad,Pcbnew,(6.0.11)*%
%TF.CreationDate,2023-06-24T18:02:59+09:00*%
%TF.ProjectId,main,6d61696e-2e6b-4696-9361-645f70636258,rev?*%
%TF.SameCoordinates,Original*%
%TF.FileFunction,Paste,Top*%
%TF.FilePolarity,Positive*%
%FSLAX46Y46*%
G04 Gerber Fmt 4.6, Leading zero omitted, Abs format (unit mm)*
G04 Created by KiCad (PCBNEW (6.0.11)) date 2023-06-24 18:02:59*
%MOMM*%
%LPD*%
G01*
G04 APERTURE LIST*
G04 Aperture macros list*
%AMRoundRect*
0 Rectangle with rounded corners*
0 $1 Rounding radius*
0 $2 $3 $4 $5 $6 $7 $8 $9 X,Y pos of 4 corners*
0 Add a 4 corners polygon primitive as box body*
4,1,4,$2,$3,$4,$5,$6,$7,$8,$9,$2,$3,0*
0 Add four circle primitives for the rounded corners*
1,1,$1+$1,$2,$3*
1,1,$1+$1,$4,$5*
1,1,$1+$1,$6,$7*
1,1,$1+$1,$8,$9*
0 Add four rect primitives between the rounded corners*
20,1,$1+$1,$2,$3,$4,$5,0*
20,1,$1+$1,$4,$5,$6,$7,0*
20,1,$1+$1,$6,$7,$8,$9,0*
20,1,$1+$1,$8,$9,$2,$3,0*%
%AMFreePoly0*
4,1,53,0.885000,-2.035000,0.700000,-2.035000,0.700000,-3.665000,0.695106,-3.680063,0.695106,-3.695902,0.685796,-3.708716,0.680902,-3.723779,0.668089,-3.733089,0.658779,-3.745902,0.643716,-3.750796,0.630902,-3.760106,0.615063,-3.760106,0.600000,-3.765000,-0.600000,-3.765000,-0.615063,-3.760106,-0.630902,-3.760106,-0.643716,-3.750796,-0.658779,-3.745902,-0.668089,-3.733089,-0.680902,-3.723779,
-0.685796,-3.708716,-0.695106,-3.695902,-0.695106,-3.680063,-0.700000,-3.665000,-0.700000,-2.035000,-0.885000,-2.035000,-0.885000,0.450000,-2.515000,0.450000,-2.530063,0.454894,-2.545902,0.454894,-2.558716,0.464204,-2.573779,0.469098,-2.583089,0.481911,-2.595902,0.491221,-2.600796,0.506284,-2.610106,0.519098,-2.610106,0.534937,-2.615000,0.550000,-2.615000,1.750000,-2.610106,1.765063,
-2.610106,1.780902,-2.600796,1.793716,-2.595902,1.808779,-2.583089,1.818089,-2.573779,1.830902,-2.558716,1.835796,-2.545902,1.845106,-2.530063,1.845106,-2.515000,1.850000,-0.885000,1.850000,-0.885000,2.035000,0.885000,2.035000,0.885000,-2.035000,0.885000,-2.035000,$1*%
%AMFreePoly1*
4,1,53,-0.534937,2.610106,-0.519098,2.610106,-0.506284,2.600796,-0.491221,2.595902,-0.481911,2.583089,-0.469098,2.573779,-0.464204,2.558716,-0.454894,2.545902,-0.454894,2.530063,-0.450000,2.515000,-0.450000,0.885000,0.450000,0.885000,0.450000,2.515000,0.454894,2.530063,0.454894,2.545902,0.464204,2.558716,0.469098,2.573779,0.481911,2.583089,0.491221,2.595902,0.506284,2.600796,
0.519098,2.610106,0.534937,2.610106,0.550000,2.615000,1.750000,2.615000,1.765063,2.610106,1.780902,2.610106,1.793716,2.600796,1.808779,2.595902,1.818089,2.583089,1.830902,2.573779,1.835796,2.558716,1.845106,2.545902,1.845106,2.530063,1.850000,2.515000,1.850000,0.885000,2.035000,0.885000,2.035000,-0.885000,-2.035000,-0.885000,-2.035000,0.885000,-1.850000,0.885000,
-1.850000,2.515000,-1.845106,2.530063,-1.845106,2.545902,-1.835796,2.558716,-1.830902,2.573779,-1.818089,2.583089,-1.808779,2.595902,-1.793716,2.600796,-1.780902,2.610106,-1.765063,2.610106,-1.750000,2.615000,-0.550000,2.615000,-0.534937,2.610106,-0.534937,2.610106,$1*%
%AMFreePoly2*
4,1,29,0.885000,1.850000,2.515000,1.850000,2.530063,1.845106,2.545902,1.845106,2.558716,1.835796,2.573779,1.830902,2.583089,1.818089,2.595902,1.808779,2.600796,1.793716,2.610106,1.780902,2.610106,1.765063,2.615000,1.750000,2.615000,0.550000,2.610106,0.534937,2.610106,0.519098,2.600796,0.506284,2.595902,0.491221,2.583089,0.481911,2.573779,0.469098,2.558716,0.464204,
2.545902,0.454894,2.530063,0.454894,2.515000,0.450000,0.885000,0.450000,0.885000,-2.035000,-0.885000,-2.035000,-0.885000,2.035000,0.885000,2.035000,0.885000,1.850000,0.885000,1.850000,$1*%
G04 Aperture macros list end*
%ADD10RoundRect,0.250000X0.574524X0.097227X0.097227X0.574524X-0.574524X-0.097227X-0.097227X-0.574524X0*%
%ADD11RoundRect,0.237500X-0.044194X-0.380070X0.380070X0.044194X0.044194X0.380070X-0.380070X-0.044194X0*%
%ADD12R,3.050000X2.750000*%
%ADD13R,2.200000X1.200000*%
%ADD14RoundRect,0.237500X0.237500X-0.250000X0.237500X0.250000X-0.237500X0.250000X-0.237500X-0.250000X0*%
%ADD15R,3.400000X1.300000*%
%ADD16RoundRect,0.237500X0.300000X0.237500X-0.300000X0.237500X-0.300000X-0.237500X0.300000X-0.237500X0*%
%ADD17R,0.575000X0.620000*%
%ADD18RoundRect,0.250001X-0.799999X1.999999X-0.799999X-1.999999X0.799999X-1.999999X0.799999X1.999999X0*%
%ADD19R,0.620000X0.575000*%
%ADD20RoundRect,0.237500X-0.237500X0.250000X-0.237500X-0.250000X0.237500X-0.250000X0.237500X0.250000X0*%
%ADD21RoundRect,0.237500X0.380070X-0.044194X-0.044194X0.380070X-0.380070X0.044194X0.044194X-0.380070X0*%
%ADD22R,1.250000X1.820000*%
%ADD23RoundRect,0.237500X-0.287500X-0.237500X0.287500X-0.237500X0.287500X0.237500X-0.287500X0.237500X0*%
%ADD24R,1.900000X0.800000*%
%ADD25RoundRect,0.237500X0.044194X0.380070X-0.380070X-0.044194X-0.044194X-0.380070X0.380070X0.044194X0*%
%ADD26R,3.000000X1.200000*%
%ADD27FreePoly0,270.000000*%
%ADD28FreePoly1,0.000000*%
%ADD29FreePoly2,0.000000*%
%ADD30R,1.200000X3.000000*%
%ADD31R,1.500000X1.200000*%
%ADD32RoundRect,0.237500X-0.237500X0.300000X-0.237500X-0.300000X0.237500X-0.300000X0.237500X0.300000X0*%
%ADD33RoundRect,0.237500X-0.250000X-0.237500X0.250000X-0.237500X0.250000X0.237500X-0.250000X0.237500X0*%
%ADD34RoundRect,0.237500X0.287500X0.237500X-0.287500X0.237500X-0.287500X-0.237500X0.287500X-0.237500X0*%
%ADD35RoundRect,0.237500X-0.300000X-0.237500X0.300000X-0.237500X0.300000X0.237500X-0.300000X0.237500X0*%
%ADD36R,1.400000X1.600000*%
%ADD37R,1.530000X2.720000*%
%ADD38RoundRect,0.075000X0.548008X-0.441942X-0.441942X0.548008X-0.548008X0.441942X0.441942X-0.548008X0*%
%ADD39RoundRect,0.075000X0.548008X0.441942X0.441942X0.548008X-0.548008X-0.441942X-0.441942X-0.548008X0*%
%ADD40RoundRect,0.237500X0.237500X-0.300000X0.237500X0.300000X-0.237500X0.300000X-0.237500X-0.300000X0*%
%ADD41RoundRect,0.237500X0.250000X0.237500X-0.250000X0.237500X-0.250000X-0.237500X0.250000X-0.237500X0*%
G04 APERTURE END LIST*
D10*
%TO.C,C54*%
X134037223Y-89701623D03*
X132569977Y-88234377D03*
%TD*%
D11*
%TO.C,C44*%
X120361320Y-96711480D03*
X121581080Y-95491720D03*
%TD*%
D12*
%TO.C,U16*%
X143025000Y-77130600D03*
X146375000Y-77130600D03*
X146375000Y-80180600D03*
X143025000Y-80180600D03*
D13*
X138400000Y-76375600D03*
X138400000Y-78655600D03*
X138400000Y-80935600D03*
%TD*%
D14*
%TO.C,R54*%
X161271200Y-94464100D03*
X161271200Y-92639100D03*
%TD*%
D15*
%TO.C,LS1*%
X162005600Y-73201200D03*
X162005600Y-64501200D03*
%TD*%
D16*
%TO.C,C26*%
X150117300Y-86478800D03*
X148392300Y-86478800D03*
%TD*%
D17*
%TO.C,U17*%
X167051200Y-94501600D03*
X167051200Y-93551600D03*
X167051200Y-92601600D03*
X164275200Y-92601600D03*
X164275200Y-93551600D03*
X164275200Y-94501600D03*
%TD*%
D18*
%TO.C,C32*%
X122076800Y-80389600D03*
X122076800Y-87589600D03*
%TD*%
D16*
%TO.C,C37*%
X145783700Y-85001600D03*
X144058700Y-85001600D03*
%TD*%
D19*
%TO.C,U8*%
X127934000Y-78773600D03*
X128884000Y-78773600D03*
X129834000Y-78773600D03*
X129834000Y-75997600D03*
X128884000Y-75997600D03*
X127934000Y-75997600D03*
%TD*%
D20*
%TO.C,R60*%
X135691200Y-106902300D03*
X135691200Y-108727300D03*
%TD*%
D21*
%TO.C,C46*%
X138084110Y-94148203D03*
X136864350Y-92928443D03*
%TD*%
D22*
%TO.C,C27*%
X109742600Y-77461800D03*
X112602600Y-77461800D03*
%TD*%
D14*
%TO.C,R51*%
X153771200Y-94514100D03*
X153771200Y-92689100D03*
%TD*%
D23*
%TO.C,D3*%
X118966600Y-76598200D03*
X120716600Y-76598200D03*
%TD*%
D24*
%TO.C,Q8*%
X155971200Y-101251600D03*
X155971200Y-103151600D03*
X158971200Y-102201600D03*
%TD*%
D25*
%TO.C,C47*%
X137901280Y-98899120D03*
X136681520Y-100118880D03*
%TD*%
D17*
%TO.C,U14*%
X114512000Y-77050000D03*
X114512000Y-78000000D03*
X114512000Y-78950000D03*
X117288000Y-78950000D03*
X117288000Y-78000000D03*
X117288000Y-77050000D03*
%TD*%
D26*
%TO.C,MD1*%
X104406900Y-87113000D03*
D27*
X106571900Y-82528000D03*
D28*
X111151900Y-82528000D03*
D29*
X114591900Y-83678000D03*
D26*
X115606900Y-87113000D03*
X115606900Y-91693000D03*
D30*
X110006900Y-92713000D03*
X107716900Y-92713000D03*
D26*
X104406900Y-91693000D03*
X104406900Y-89403000D03*
D31*
X116356900Y-89403000D03*
D30*
X112296900Y-92713000D03*
%TD*%
D32*
%TO.C,C34*%
X129595200Y-82136500D03*
X129595200Y-83861500D03*
%TD*%
D33*
%TO.C,R57*%
X96481100Y-120101600D03*
X98306100Y-120101600D03*
%TD*%
D14*
%TO.C,R56*%
X161271200Y-103114100D03*
X161271200Y-101289100D03*
%TD*%
%TO.C,R53*%
X153771200Y-103114100D03*
X153771200Y-101289100D03*
%TD*%
D23*
%TO.C,D7*%
X149192600Y-81246400D03*
X150942600Y-81246400D03*
%TD*%
D34*
%TO.C,D9*%
X117262200Y-104309600D03*
X115512200Y-104309600D03*
%TD*%
D35*
%TO.C,C49*%
X100036300Y-120101600D03*
X101761300Y-120101600D03*
%TD*%
D24*
%TO.C,Q5*%
X135260800Y-77548200D03*
X135260800Y-75648200D03*
X132260800Y-76598200D03*
%TD*%
D25*
%TO.C,C55*%
X130281080Y-104891720D03*
X129061320Y-106111480D03*
%TD*%
D11*
%TO.C,C48*%
X127334320Y-105554480D03*
X128554080Y-104334720D03*
%TD*%
D36*
%TO.C,SW4*%
X151998000Y-110558000D03*
X151998000Y-118558000D03*
X156498000Y-118558000D03*
X156498000Y-110558000D03*
%TD*%
D24*
%TO.C,Q6*%
X156021200Y-92651600D03*
X156021200Y-94551600D03*
X159021200Y-93601600D03*
%TD*%
D33*
%TO.C,R18*%
X155403500Y-86428000D03*
X157228500Y-86428000D03*
%TD*%
D37*
%TO.C,C7*%
X104251200Y-77563400D03*
X106933200Y-77563400D03*
%TD*%
D36*
%TO.C,SW3*%
X142737600Y-110571200D03*
X142737600Y-118571200D03*
X147237600Y-110571200D03*
X147237600Y-118571200D03*
%TD*%
D34*
%TO.C,D10*%
X117262200Y-106087600D03*
X115512200Y-106087600D03*
%TD*%
D14*
%TO.C,R55*%
X161271200Y-98964100D03*
X161271200Y-97139100D03*
%TD*%
D18*
%TO.C,C5*%
X97997600Y-83767800D03*
X97997600Y-90967800D03*
%TD*%
D20*
%TO.C,R61*%
X137215200Y-106902300D03*
X137215200Y-108727300D03*
%TD*%
D32*
%TO.C,C25*%
X131728800Y-71392300D03*
X131728800Y-73117300D03*
%TD*%
D20*
%TO.C,R63*%
X133278200Y-106902300D03*
X133278200Y-108727300D03*
%TD*%
D35*
%TO.C,C45*%
X128580300Y-87875800D03*
X130305300Y-87875800D03*
%TD*%
D38*
%TO.C,U18*%
X130753181Y-102896881D03*
X131106734Y-102543328D03*
X131460287Y-102189775D03*
X131813841Y-101836221D03*
X132167394Y-101482668D03*
X132520948Y-101129114D03*
X132874501Y-100775561D03*
X133228054Y-100422008D03*
X133581608Y-100068454D03*
X133935161Y-99714901D03*
X134288714Y-99361348D03*
X134642268Y-99007794D03*
X134995821Y-98654241D03*
X135349375Y-98300687D03*
X135702928Y-97947134D03*
X136056481Y-97593581D03*
D39*
X136056481Y-94871219D03*
X135702928Y-94517666D03*
X135349375Y-94164113D03*
X134995821Y-93810559D03*
X134642268Y-93457006D03*
X134288714Y-93103452D03*
X133935161Y-92749899D03*
X133581608Y-92396346D03*
X133228054Y-92042792D03*
X132874501Y-91689239D03*
X132520948Y-91335686D03*
X132167394Y-90982132D03*
X131813841Y-90628579D03*
X131460287Y-90275025D03*
X131106734Y-89921472D03*
X130753181Y-89567919D03*
D38*
X128030819Y-89567919D03*
X127677266Y-89921472D03*
X127323713Y-90275025D03*
X126970159Y-90628579D03*
X126616606Y-90982132D03*
X126263052Y-91335686D03*
X125909499Y-91689239D03*
X125555946Y-92042792D03*
X125202392Y-92396346D03*
X124848839Y-92749899D03*
X124495286Y-93103452D03*
X124141732Y-93457006D03*
X123788179Y-93810559D03*
X123434625Y-94164113D03*
X123081072Y-94517666D03*
X122727519Y-94871219D03*
D39*
X122727519Y-97593581D03*
X123081072Y-97947134D03*
X123434625Y-98300687D03*
X123788179Y-98654241D03*
X124141732Y-99007794D03*
X124495286Y-99361348D03*
X124848839Y-99714901D03*
X125202392Y-100068454D03*
X125555946Y-100422008D03*
X125909499Y-100775561D03*
X126263052Y-101129114D03*
X126616606Y-101482668D03*
X126970159Y-101836221D03*
X127323713Y-102189775D03*
X127677266Y-102543328D03*
X128030819Y-102896881D03*
%TD*%
D23*
%TO.C,D1*%
X149192600Y-75912400D03*
X150942600Y-75912400D03*
%TD*%
D40*
%TO.C,C33*%
X127817200Y-83861500D03*
X127817200Y-82136500D03*
%TD*%
D19*
%TO.C,U15*%
X126227200Y-75997600D03*
X125277200Y-75997600D03*
X124327200Y-75997600D03*
X124327200Y-78773600D03*
X125277200Y-78773600D03*
X126227200Y-78773600D03*
%TD*%
D41*
%TO.C,R50*%
X166575700Y-90593600D03*
X164750700Y-90593600D03*
%TD*%
D35*
%TO.C,C35*%
X144071200Y-83401600D03*
X145796200Y-83401600D03*
%TD*%
D36*
%TO.C,SW6*%
X161192800Y-110571200D03*
X161192800Y-118571200D03*
X165692800Y-118571200D03*
X165692800Y-110571200D03*
%TD*%
D34*
%TO.C,D11*%
X117262200Y-107865600D03*
X115512200Y-107865600D03*
%TD*%
D23*
%TO.C,D5*%
X149192600Y-77690400D03*
X150942600Y-77690400D03*
%TD*%
D33*
%TO.C,R20*%
X151898300Y-86478800D03*
X153723300Y-86478800D03*
%TD*%
D20*
%TO.C,R62*%
X131576400Y-106902300D03*
X131576400Y-108727300D03*
%TD*%
D23*
%TO.C,D6*%
X149178600Y-79468400D03*
X150928600Y-79468400D03*
%TD*%
D14*
%TO.C,R52*%
X153771200Y-98864100D03*
X153771200Y-97039100D03*
%TD*%
D36*
%TO.C,SW10*%
X96894400Y-110099400D03*
X96894400Y-118099400D03*
X101394400Y-118099400D03*
X101394400Y-110099400D03*
%TD*%
D24*
%TO.C,Q7*%
X155971200Y-97001600D03*
X155971200Y-98901600D03*
X158971200Y-97951600D03*
%TD*%
M02*
