%TF.GenerationSoftware,KiCad,Pcbnew,(6.0.11)*%
%TF.CreationDate,2023-06-24T18:02:59+09:00*%
%TF.ProjectId,main,6d61696e-2e6b-4696-9361-645f70636258,rev?*%
%TF.SameCoordinates,Original*%
%TF.FileFunction,Soldermask,Top*%
%TF.FilePolarity,Negative*%
%FSLAX46Y46*%
G04 Gerber Fmt 4.6, Leading zero omitted, Abs format (unit mm)*
G04 Created by KiCad (PCBNEW (6.0.11)) date 2023-06-24 18:02:59*
%MOMM*%
%LPD*%
G01*
G04 APERTURE LIST*
G04 Aperture macros list*
%AMRoundRect*
0 Rectangle with rounded corners*
0 $1 Rounding radius*
0 $2 $3 $4 $5 $6 $7 $8 $9 X,Y pos of 4 corners*
0 Add a 4 corners polygon primitive as box body*
4,1,4,$2,$3,$4,$5,$6,$7,$8,$9,$2,$3,0*
0 Add four circle primitives for the rounded corners*
1,1,$1+$1,$2,$3*
1,1,$1+$1,$4,$5*
1,1,$1+$1,$6,$7*
1,1,$1+$1,$8,$9*
0 Add four rect primitives between the rounded corners*
20,1,$1+$1,$2,$3,$4,$5,0*
20,1,$1+$1,$4,$5,$6,$7,0*
20,1,$1+$1,$6,$7,$8,$9,0*
20,1,$1+$1,$8,$9,$2,$3,0*%
%AMFreePoly0*
4,1,53,0.885000,-2.035000,0.700000,-2.035000,0.700000,-3.665000,0.695106,-3.680063,0.695106,-3.695902,0.685796,-3.708716,0.680902,-3.723779,0.668089,-3.733089,0.658779,-3.745902,0.643716,-3.750796,0.630902,-3.760106,0.615063,-3.760106,0.600000,-3.765000,-0.600000,-3.765000,-0.615063,-3.760106,-0.630902,-3.760106,-0.643716,-3.750796,-0.658779,-3.745902,-0.668089,-3.733089,-0.680902,-3.723779,
-0.685796,-3.708716,-0.695106,-3.695902,-0.695106,-3.680063,-0.700000,-3.665000,-0.700000,-2.035000,-0.885000,-2.035000,-0.885000,0.450000,-2.515000,0.450000,-2.530063,0.454894,-2.545902,0.454894,-2.558716,0.464204,-2.573779,0.469098,-2.583089,0.481911,-2.595902,0.491221,-2.600796,0.506284,-2.610106,0.519098,-2.610106,0.534937,-2.615000,0.550000,-2.615000,1.750000,-2.610106,1.765063,
-2.610106,1.780902,-2.600796,1.793716,-2.595902,1.808779,-2.583089,1.818089,-2.573779,1.830902,-2.558716,1.835796,-2.545902,1.845106,-2.530063,1.845106,-2.515000,1.850000,-0.885000,1.850000,-0.885000,2.035000,0.885000,2.035000,0.885000,-2.035000,0.885000,-2.035000,$1*%
%AMFreePoly1*
4,1,53,-0.534937,2.610106,-0.519098,2.610106,-0.506284,2.600796,-0.491221,2.595902,-0.481911,2.583089,-0.469098,2.573779,-0.464204,2.558716,-0.454894,2.545902,-0.454894,2.530063,-0.450000,2.515000,-0.450000,0.885000,0.450000,0.885000,0.450000,2.515000,0.454894,2.530063,0.454894,2.545902,0.464204,2.558716,0.469098,2.573779,0.481911,2.583089,0.491221,2.595902,0.506284,2.600796,
0.519098,2.610106,0.534937,2.610106,0.550000,2.615000,1.750000,2.615000,1.765063,2.610106,1.780902,2.610106,1.793716,2.600796,1.808779,2.595902,1.818089,2.583089,1.830902,2.573779,1.835796,2.558716,1.845106,2.545902,1.845106,2.530063,1.850000,2.515000,1.850000,0.885000,2.035000,0.885000,2.035000,-0.885000,-2.035000,-0.885000,-2.035000,0.885000,-1.850000,0.885000,
-1.850000,2.515000,-1.845106,2.530063,-1.845106,2.545902,-1.835796,2.558716,-1.830902,2.573779,-1.818089,2.583089,-1.808779,2.595902,-1.793716,2.600796,-1.780902,2.610106,-1.765063,2.610106,-1.750000,2.615000,-0.550000,2.615000,-0.534937,2.610106,-0.534937,2.610106,$1*%
%AMFreePoly2*
4,1,29,0.885000,1.850000,2.515000,1.850000,2.530063,1.845106,2.545902,1.845106,2.558716,1.835796,2.573779,1.830902,2.583089,1.818089,2.595902,1.808779,2.600796,1.793716,2.610106,1.780902,2.610106,1.765063,2.615000,1.750000,2.615000,0.550000,2.610106,0.534937,2.610106,0.519098,2.600796,0.506284,2.595902,0.491221,2.583089,0.481911,2.573779,0.469098,2.558716,0.464204,
2.545902,0.454894,2.530063,0.454894,2.515000,0.450000,0.885000,0.450000,0.885000,-2.035000,-0.885000,-2.035000,-0.885000,2.035000,0.885000,2.035000,0.885000,1.850000,0.885000,1.850000,$1*%
G04 Aperture macros list end*
%ADD10RoundRect,0.250000X0.574524X0.097227X0.097227X0.574524X-0.574524X-0.097227X-0.097227X-0.574524X0*%
%ADD11RoundRect,0.237500X-0.044194X-0.380070X0.380070X0.044194X0.044194X0.380070X-0.380070X-0.044194X0*%
%ADD12R,2.200000X1.200000*%
%ADD13R,6.400000X5.800000*%
%ADD14RoundRect,0.237500X0.237500X-0.250000X0.237500X0.250000X-0.237500X0.250000X-0.237500X-0.250000X0*%
%ADD15R,3.400000X1.300000*%
%ADD16RoundRect,0.237500X0.300000X0.237500X-0.300000X0.237500X-0.300000X-0.237500X0.300000X-0.237500X0*%
%ADD17R,0.575000X0.620000*%
%ADD18RoundRect,0.250001X-0.799999X1.999999X-0.799999X-1.999999X0.799999X-1.999999X0.799999X1.999999X0*%
%ADD19R,0.620000X0.575000*%
%ADD20C,1.524000*%
%ADD21C,1.500000*%
%ADD22RoundRect,0.237500X-0.237500X0.250000X-0.237500X-0.250000X0.237500X-0.250000X0.237500X0.250000X0*%
%ADD23RoundRect,0.237500X0.380070X-0.044194X-0.044194X0.380070X-0.380070X0.044194X0.044194X-0.380070X0*%
%ADD24R,1.250000X1.820000*%
%ADD25RoundRect,0.237500X-0.287500X-0.237500X0.287500X-0.237500X0.287500X0.237500X-0.287500X0.237500X0*%
%ADD26C,1.600000*%
%ADD27C,2.200000*%
%ADD28RoundRect,0.250000X0.600000X-0.600000X0.600000X0.600000X-0.600000X0.600000X-0.600000X-0.600000X0*%
%ADD29C,1.700000*%
%ADD30R,1.900000X0.800000*%
%ADD31RoundRect,0.237500X0.044194X0.380070X-0.380070X-0.044194X-0.044194X-0.380070X0.380070X0.044194X0*%
%ADD32R,1.308000X1.308000*%
%ADD33C,1.308000*%
%ADD34R,3.000000X1.200000*%
%ADD35FreePoly0,270.000000*%
%ADD36FreePoly1,0.000000*%
%ADD37FreePoly2,0.000000*%
%ADD38R,1.200000X3.000000*%
%ADD39R,1.500000X1.200000*%
%ADD40R,1.600000X1.600000*%
%ADD41O,1.600000X1.600000*%
%ADD42RoundRect,0.237500X-0.237500X0.300000X-0.237500X-0.300000X0.237500X-0.300000X0.237500X0.300000X0*%
%ADD43RoundRect,0.250000X-0.600000X-0.675000X0.600000X-0.675000X0.600000X0.675000X-0.600000X0.675000X0*%
%ADD44O,1.700000X1.850000*%
%ADD45RoundRect,0.237500X-0.250000X-0.237500X0.250000X-0.237500X0.250000X0.237500X-0.250000X0.237500X0*%
%ADD46RoundRect,0.250000X-0.675000X0.600000X-0.675000X-0.600000X0.675000X-0.600000X0.675000X0.600000X0*%
%ADD47O,1.850000X1.700000*%
%ADD48RoundRect,0.237500X0.287500X0.237500X-0.287500X0.237500X-0.287500X-0.237500X0.287500X-0.237500X0*%
%ADD49RoundRect,0.237500X-0.300000X-0.237500X0.300000X-0.237500X0.300000X0.237500X-0.300000X0.237500X0*%
%ADD50RoundRect,0.425000X-0.425000X-0.425000X0.425000X-0.425000X0.425000X0.425000X-0.425000X0.425000X0*%
%ADD51RoundRect,0.250000X0.675000X-0.600000X0.675000X0.600000X-0.675000X0.600000X-0.675000X-0.600000X0*%
%ADD52C,1.400000*%
%ADD53R,3.500000X3.500000*%
%ADD54C,3.500000*%
%ADD55R,1.400000X1.600000*%
%ADD56R,1.717500X1.800000*%
%ADD57O,1.717500X1.800000*%
%ADD58R,1.530000X2.720000*%
%ADD59R,1.700000X1.700000*%
%ADD60O,1.700000X1.700000*%
%ADD61R,1.524000X1.524000*%
%ADD62RoundRect,0.075000X0.548008X-0.441942X-0.441942X0.548008X-0.548008X0.441942X0.441942X-0.548008X0*%
%ADD63RoundRect,0.075000X0.548008X0.441942X0.441942X0.548008X-0.548008X-0.441942X-0.441942X-0.548008X0*%
%ADD64RoundRect,0.237500X0.237500X-0.300000X0.237500X0.300000X-0.237500X0.300000X-0.237500X-0.300000X0*%
%ADD65RoundRect,0.237500X0.250000X0.237500X-0.250000X0.237500X-0.250000X-0.237500X0.250000X-0.237500X0*%
G04 APERTURE END LIST*
D10*
%TO.C,C54*%
X134037223Y-89701623D03*
X132569977Y-88234377D03*
%TD*%
D11*
%TO.C,C44*%
X120361320Y-96711480D03*
X121581080Y-95491720D03*
%TD*%
D12*
%TO.C,U16*%
X138400000Y-76375600D03*
D13*
X144700000Y-78655600D03*
D12*
X138400000Y-78655600D03*
X138400000Y-80935600D03*
%TD*%
D14*
%TO.C,R54*%
X161271200Y-94464100D03*
X161271200Y-92639100D03*
%TD*%
D15*
%TO.C,LS1*%
X162005600Y-73201200D03*
X162005600Y-64501200D03*
%TD*%
D16*
%TO.C,C26*%
X150117300Y-86478800D03*
X148392300Y-86478800D03*
%TD*%
D17*
%TO.C,U17*%
X167051200Y-94501600D03*
X167051200Y-93551600D03*
X167051200Y-92601600D03*
X164275200Y-92601600D03*
X164275200Y-93551600D03*
X164275200Y-94501600D03*
%TD*%
D18*
%TO.C,C32*%
X122076800Y-80389600D03*
X122076800Y-87589600D03*
%TD*%
D16*
%TO.C,C37*%
X145783700Y-85001600D03*
X144058700Y-85001600D03*
%TD*%
D19*
%TO.C,U8*%
X127934000Y-78773600D03*
X128884000Y-78773600D03*
X129834000Y-78773600D03*
X129834000Y-75997600D03*
X128884000Y-75997600D03*
X127934000Y-75997600D03*
%TD*%
D20*
%TO.C,SW12*%
X112170800Y-97527800D03*
X109630800Y-97527800D03*
X107090800Y-97527800D03*
%TD*%
D21*
%TO.C,Y2*%
X129392000Y-113199600D03*
X129392000Y-118099600D03*
%TD*%
D22*
%TO.C,R60*%
X135691200Y-106902300D03*
X135691200Y-108727300D03*
%TD*%
D23*
%TO.C,C46*%
X138084110Y-94148203D03*
X136864350Y-92928443D03*
%TD*%
D24*
%TO.C,C27*%
X109742600Y-77461800D03*
X112602600Y-77461800D03*
%TD*%
D20*
%TO.C,SW2*%
X102391800Y-99763000D03*
X102391800Y-102303000D03*
X102391800Y-104843000D03*
%TD*%
D14*
%TO.C,R51*%
X153771200Y-94514100D03*
X153771200Y-92689100D03*
%TD*%
D25*
%TO.C,D3*%
X118966600Y-76598200D03*
X120716600Y-76598200D03*
%TD*%
D26*
%TO.C,C51*%
X139755200Y-120493200D03*
X139755200Y-115493200D03*
%TD*%
D27*
%TO.C,REF\u002A\u002A*%
X86621200Y-128351600D03*
%TD*%
D28*
%TO.C,J7*%
X134929200Y-73329500D03*
D29*
X134929200Y-70789500D03*
X137469200Y-73329500D03*
X137469200Y-70789500D03*
X140009200Y-73329500D03*
X140009200Y-70789500D03*
X142549200Y-73329500D03*
X142549200Y-70789500D03*
X145089200Y-73329500D03*
X145089200Y-70789500D03*
%TD*%
D30*
%TO.C,Q8*%
X155971200Y-101251600D03*
X155971200Y-103151600D03*
X158971200Y-102201600D03*
%TD*%
D31*
%TO.C,C47*%
X137901280Y-98899120D03*
X136681520Y-100118880D03*
%TD*%
D17*
%TO.C,U14*%
X114512000Y-77050000D03*
X114512000Y-78000000D03*
X114512000Y-78950000D03*
X117288000Y-78950000D03*
X117288000Y-78000000D03*
X117288000Y-77050000D03*
%TD*%
D26*
%TO.C,C50*%
X139755200Y-108199600D03*
X139755200Y-113199600D03*
%TD*%
D32*
%TO.C,U2*%
X171378200Y-79036600D03*
D33*
X171378200Y-76496600D03*
X171378200Y-73956600D03*
X171378200Y-71416600D03*
X171378200Y-68876600D03*
X171378200Y-66336600D03*
X171378200Y-63796600D03*
X171378200Y-61256600D03*
X153344200Y-61256600D03*
X153344200Y-63796600D03*
X153344200Y-66336600D03*
X153344200Y-68876600D03*
X153344200Y-71416600D03*
X153344200Y-73956600D03*
X153344200Y-76496600D03*
X153344200Y-79036600D03*
%TD*%
D34*
%TO.C,MD1*%
X104406900Y-87113000D03*
D35*
X106571900Y-82528000D03*
D36*
X111151900Y-82528000D03*
D37*
X114591900Y-83678000D03*
D34*
X115606900Y-87113000D03*
X115606900Y-91693000D03*
D38*
X110006900Y-92713000D03*
X107716900Y-92713000D03*
D34*
X104406900Y-91693000D03*
X104406900Y-89403000D03*
D39*
X116356900Y-89403000D03*
D38*
X112296900Y-92713000D03*
%TD*%
D40*
%TO.C,SW5*%
X167761400Y-129013800D03*
D41*
X167761400Y-126473800D03*
X167761400Y-123933800D03*
X167761400Y-121393800D03*
X160141400Y-121393800D03*
X160141400Y-123933800D03*
X160141400Y-126473800D03*
X160141400Y-129013800D03*
%TD*%
D42*
%TO.C,C34*%
X129595200Y-82136500D03*
X129595200Y-83861500D03*
%TD*%
D43*
%TO.C,J9*%
X93302400Y-124062400D03*
D44*
X95802400Y-124062400D03*
X98302400Y-124062400D03*
X100802400Y-124062400D03*
X103302400Y-124062400D03*
%TD*%
D26*
%TO.C,C30*%
X132287600Y-84573800D03*
X132287600Y-79573800D03*
%TD*%
D43*
%TO.C,J8*%
X109329800Y-124062400D03*
D44*
X111829800Y-124062400D03*
X114329800Y-124062400D03*
X116829800Y-124062400D03*
X119329800Y-124062400D03*
%TD*%
D27*
%TO.C,REF\u002A\u002A*%
X86621200Y-62351600D03*
%TD*%
D45*
%TO.C,R57*%
X96481100Y-120101600D03*
X98306100Y-120101600D03*
%TD*%
D14*
%TO.C,R56*%
X161271200Y-103114100D03*
X161271200Y-101289100D03*
%TD*%
%TO.C,R53*%
X153771200Y-103114100D03*
X153771200Y-101289100D03*
%TD*%
D46*
%TO.C,J4*%
X91241200Y-86021600D03*
D47*
X91241200Y-88521600D03*
X91241200Y-91021600D03*
%TD*%
D25*
%TO.C,D7*%
X149192600Y-81246400D03*
X150942600Y-81246400D03*
%TD*%
D48*
%TO.C,D9*%
X117262200Y-104309600D03*
X115512200Y-104309600D03*
%TD*%
D43*
%TO.C,J10*%
X125382600Y-124062400D03*
D44*
X127882600Y-124062400D03*
X130382600Y-124062400D03*
X132882600Y-124062400D03*
X135382600Y-124062400D03*
%TD*%
D26*
%TO.C,C53*%
X124769200Y-120525600D03*
X124769200Y-115525600D03*
%TD*%
D20*
%TO.C,SW8*%
X112151200Y-102151600D03*
X109611200Y-102151600D03*
X107071200Y-102151600D03*
%TD*%
D26*
%TO.C,C29*%
X135437200Y-79584600D03*
X135437200Y-84584600D03*
%TD*%
D49*
%TO.C,C49*%
X100036300Y-120101600D03*
X101761300Y-120101600D03*
%TD*%
D30*
%TO.C,Q5*%
X135260800Y-77548200D03*
X135260800Y-75648200D03*
X132260800Y-76598200D03*
%TD*%
D31*
%TO.C,C55*%
X130281080Y-104891720D03*
X129061320Y-106111480D03*
%TD*%
D50*
%TO.C,U7*%
X150397800Y-84292600D03*
D29*
X152937800Y-84292600D03*
X155477800Y-84292600D03*
X158017800Y-84292600D03*
%TD*%
D51*
%TO.C,J12*%
X171121200Y-119251600D03*
D47*
X171121200Y-116751600D03*
X171121200Y-114251600D03*
%TD*%
D26*
%TO.C,C52*%
X124769200Y-108246600D03*
X124769200Y-113246600D03*
%TD*%
D46*
%TO.C,J6*%
X91241200Y-111421600D03*
D47*
X91241200Y-113921600D03*
X91241200Y-116421600D03*
%TD*%
D11*
%TO.C,C48*%
X127334320Y-105554480D03*
X128554080Y-104334720D03*
%TD*%
D20*
%TO.C,SW7*%
X171131200Y-83451600D03*
X173671200Y-83451600D03*
X176211200Y-83451600D03*
%TD*%
D52*
%TO.C,J1*%
X95190000Y-63256200D03*
X106190000Y-63256200D03*
D53*
X103190000Y-73256200D03*
D54*
X98190000Y-73256200D03*
%TD*%
D29*
%TO.C,SW11*%
X97083200Y-104741400D03*
X97083200Y-102201400D03*
X97083200Y-99661400D03*
X97083200Y-107281400D03*
X97083200Y-97121400D03*
%TD*%
D55*
%TO.C,SW4*%
X151998000Y-110558000D03*
X151998000Y-118558000D03*
X156498000Y-118558000D03*
X156498000Y-110558000D03*
%TD*%
D30*
%TO.C,Q6*%
X156021200Y-92651600D03*
X156021200Y-94551600D03*
X159021200Y-93601600D03*
%TD*%
D56*
%TO.C,Q1*%
X101176600Y-78103800D03*
D57*
X98886600Y-78103800D03*
X96596600Y-78103800D03*
%TD*%
D45*
%TO.C,R18*%
X155403500Y-86428000D03*
X157228500Y-86428000D03*
%TD*%
D58*
%TO.C,C7*%
X104251200Y-77563400D03*
X106933200Y-77563400D03*
%TD*%
D51*
%TO.C,J13*%
X171121200Y-94901600D03*
D47*
X171121200Y-92401600D03*
X171121200Y-89901600D03*
%TD*%
D59*
%TO.C,JP3*%
X156722400Y-126514200D03*
D60*
X156722400Y-123974200D03*
%TD*%
D55*
%TO.C,SW3*%
X142737600Y-110571200D03*
X142737600Y-118571200D03*
X147237600Y-110571200D03*
X147237600Y-118571200D03*
%TD*%
D51*
%TO.C,J14*%
X171121200Y-107101600D03*
D47*
X171121200Y-104601600D03*
X171121200Y-102101600D03*
%TD*%
D48*
%TO.C,D10*%
X117262200Y-106087600D03*
X115512200Y-106087600D03*
%TD*%
D20*
%TO.C,J2*%
X110945000Y-63060400D03*
X126185000Y-63060400D03*
X126185000Y-65600400D03*
X110945000Y-65600400D03*
X126185000Y-73220400D03*
X118565000Y-73220400D03*
D61*
X110945000Y-73220400D03*
D20*
X121105000Y-73220400D03*
X116025000Y-73220400D03*
X113485000Y-73220400D03*
X123645000Y-73220400D03*
%TD*%
%TO.C,U6*%
X111801200Y-119361600D03*
X111801200Y-111741600D03*
X109261200Y-119361600D03*
X116881200Y-111741600D03*
X114341200Y-111741600D03*
X116881200Y-119361600D03*
X114341200Y-119361600D03*
X109261200Y-111741600D03*
%TD*%
D14*
%TO.C,R55*%
X161271200Y-98964100D03*
X161271200Y-97139100D03*
%TD*%
D18*
%TO.C,C5*%
X97997600Y-83767800D03*
X97997600Y-90967800D03*
%TD*%
D20*
%TO.C,SW9*%
X112161200Y-106701600D03*
X109621200Y-106701600D03*
X107081200Y-106701600D03*
%TD*%
D22*
%TO.C,R61*%
X137215200Y-106902300D03*
X137215200Y-108727300D03*
%TD*%
D42*
%TO.C,C25*%
X131728800Y-71392300D03*
X131728800Y-73117300D03*
%TD*%
D22*
%TO.C,R63*%
X133278200Y-106902300D03*
X133278200Y-108727300D03*
%TD*%
D49*
%TO.C,C45*%
X128580300Y-87875800D03*
X130305300Y-87875800D03*
%TD*%
D27*
%TO.C,REF\u002A\u002A*%
X175621200Y-128351600D03*
%TD*%
D62*
%TO.C,U18*%
X130753181Y-102896881D03*
X131106734Y-102543328D03*
X131460287Y-102189775D03*
X131813841Y-101836221D03*
X132167394Y-101482668D03*
X132520948Y-101129114D03*
X132874501Y-100775561D03*
X133228054Y-100422008D03*
X133581608Y-100068454D03*
X133935161Y-99714901D03*
X134288714Y-99361348D03*
X134642268Y-99007794D03*
X134995821Y-98654241D03*
X135349375Y-98300687D03*
X135702928Y-97947134D03*
X136056481Y-97593581D03*
D63*
X136056481Y-94871219D03*
X135702928Y-94517666D03*
X135349375Y-94164113D03*
X134995821Y-93810559D03*
X134642268Y-93457006D03*
X134288714Y-93103452D03*
X133935161Y-92749899D03*
X133581608Y-92396346D03*
X133228054Y-92042792D03*
X132874501Y-91689239D03*
X132520948Y-91335686D03*
X132167394Y-90982132D03*
X131813841Y-90628579D03*
X131460287Y-90275025D03*
X131106734Y-89921472D03*
X130753181Y-89567919D03*
D62*
X128030819Y-89567919D03*
X127677266Y-89921472D03*
X127323713Y-90275025D03*
X126970159Y-90628579D03*
X126616606Y-90982132D03*
X126263052Y-91335686D03*
X125909499Y-91689239D03*
X125555946Y-92042792D03*
X125202392Y-92396346D03*
X124848839Y-92749899D03*
X124495286Y-93103452D03*
X124141732Y-93457006D03*
X123788179Y-93810559D03*
X123434625Y-94164113D03*
X123081072Y-94517666D03*
X122727519Y-94871219D03*
D63*
X122727519Y-97593581D03*
X123081072Y-97947134D03*
X123434625Y-98300687D03*
X123788179Y-98654241D03*
X124141732Y-99007794D03*
X124495286Y-99361348D03*
X124848839Y-99714901D03*
X125202392Y-100068454D03*
X125555946Y-100422008D03*
X125909499Y-100775561D03*
X126263052Y-101129114D03*
X126616606Y-101482668D03*
X126970159Y-101836221D03*
X127323713Y-102189775D03*
X127677266Y-102543328D03*
X128030819Y-102896881D03*
%TD*%
D25*
%TO.C,D1*%
X149192600Y-75912400D03*
X150942600Y-75912400D03*
%TD*%
D64*
%TO.C,C33*%
X127817200Y-83861500D03*
X127817200Y-82136500D03*
%TD*%
D19*
%TO.C,U15*%
X126227200Y-75997600D03*
X125277200Y-75997600D03*
X124327200Y-75997600D03*
X124327200Y-78773600D03*
X125277200Y-78773600D03*
X126227200Y-78773600D03*
%TD*%
D65*
%TO.C,R50*%
X166575700Y-90593600D03*
X164750700Y-90593600D03*
%TD*%
D49*
%TO.C,C35*%
X144071200Y-83401600D03*
X145796200Y-83401600D03*
%TD*%
D55*
%TO.C,SW6*%
X161192800Y-110571200D03*
X161192800Y-118571200D03*
X165692800Y-118571200D03*
X165692800Y-110571200D03*
%TD*%
D48*
%TO.C,D11*%
X117262200Y-107865600D03*
X115512200Y-107865600D03*
%TD*%
D25*
%TO.C,D5*%
X149192600Y-77690400D03*
X150942600Y-77690400D03*
%TD*%
D45*
%TO.C,R20*%
X151898300Y-86478800D03*
X153723300Y-86478800D03*
%TD*%
D46*
%TO.C,J5*%
X91241200Y-98721600D03*
D47*
X91241200Y-101221600D03*
X91241200Y-103721600D03*
%TD*%
D22*
%TO.C,R62*%
X131576400Y-106902300D03*
X131576400Y-108727300D03*
%TD*%
D20*
%TO.C,SW1*%
X175874000Y-78655600D03*
X175874000Y-76115600D03*
X175874000Y-73575600D03*
%TD*%
D25*
%TO.C,D6*%
X149178600Y-79468400D03*
X150928600Y-79468400D03*
%TD*%
D21*
%TO.C,Y1*%
X135183200Y-113188000D03*
X135183200Y-118088000D03*
%TD*%
D46*
%TO.C,J3*%
X91241200Y-73321600D03*
D47*
X91241200Y-75821600D03*
X91241200Y-78321600D03*
%TD*%
D14*
%TO.C,R52*%
X153771200Y-98864100D03*
X153771200Y-97039100D03*
%TD*%
D43*
%TO.C,J11*%
X141410000Y-124062400D03*
D44*
X143910000Y-124062400D03*
X146410000Y-124062400D03*
X148910000Y-124062400D03*
X151410000Y-124062400D03*
%TD*%
D27*
%TO.C,REF\u002A\u002A*%
X175621200Y-62351600D03*
%TD*%
D55*
%TO.C,SW10*%
X96894400Y-110099400D03*
X96894400Y-118099400D03*
X101394400Y-118099400D03*
X101394400Y-110099400D03*
%TD*%
D30*
%TO.C,Q7*%
X155971200Y-97001600D03*
X155971200Y-98901600D03*
X158971200Y-97951600D03*
%TD*%
M02*
