M48
; DRILL file {KiCad (6.0.11)} date Sat Jun 24 18:03:02 2023
; FORMAT={-:-/ absolute / metric / decimal}
; #@! TF.CreationDate,2023-06-24T18:03:02+09:00
; #@! TF.GenerationSoftware,Kicad,Pcbnew,(6.0.11)
; #@! TF.FileFunction,MixedPlating,1,2
FMAT,2
METRIC
; #@! TA.AperFunction,Plated,PTH,ViaDrill
T1C0.300
; #@! TA.AperFunction,Plated,PTH,ViaDrill
T2C0.400
; #@! TA.AperFunction,Plated,PTH,ViaDrill
T3C0.600
; #@! TA.AperFunction,Plated,PTH,ComponentDrill
T4C0.762
; #@! TA.AperFunction,Plated,PTH,ComponentDrill
T5C0.800
; #@! TA.AperFunction,Plated,PTH,ComponentDrill
T6C0.850
; #@! TA.AperFunction,Plated,PTH,ComponentDrill
T7C1.000
; #@! TA.AperFunction,Plated,PTH,ComponentDrill
T8C1.100
; #@! TA.AperFunction,Plated,PTH,ComponentDrill
T9C1.900
; #@! TA.AperFunction,NonPlated,NPTH,ComponentDrill
T10C2.200
%
G90
G05
T1
X105.059Y-85.869
X107.675Y-87.012
X108.564Y-79.265
X108.709Y-99.852
X110.647Y-98.671
X113.604Y-99.422
X114.355Y-105.376
X114.355Y-107.154
X114.512Y-78.95
X116.032Y-109.44
X116.489Y-112.946
X116.59Y-117.924
X116.895Y-99.331
X117.708Y-75.404
X127.055Y-92.575
X129.595Y-103.344
X129.9Y-75.9
X130.8Y-75.8
X131.2Y-77.8
X131.322Y-104.106
X131.881Y-71.848
X132.745Y-103.7
X132.897Y-105.275
X132.9Y-78.2
X133.3Y-77.8
X133.4Y-78.6
X133.7Y-75.6
X134.116Y-97.401
X134.269Y-104.564
X134.4Y-74.9
X134.8Y-78.4
X135.082Y-88.765
X135.4Y-75.7
X135.844Y-105.376
X135.945Y-103.243
X136.3Y-74.8
X136.758Y-89.476
X136.961Y-104.259
X137.114Y-124.833
X137.901Y-98.899
X138.282Y-88.257
X139.298Y-105.63
X139.908Y-88.257
X140.06Y-91.655
X140.67Y-128.795
X141.127Y-105.63
X141.482Y-88.257
X141.778Y-74.375
X141.94Y-103.141
X142.067Y-127.499
X143.108Y-88.257
X143.667Y-103.802
X143.698Y-127.512
X143.921Y-128.897
X144.429Y-103.141
X144.632Y-88.257
X144.683Y-92.118
X146.562Y-111.98
X146.664Y-98.518
X147.731Y-96.334
X148.239Y-91.66
X150.375Y-112.704
X154.03Y-99.941
X156.011Y-100.093
X162.158Y-77.386
X166.273Y-77.284
X167.746Y-90.898
X168.051Y-92.727
X169.473Y-92.676
X169.575Y-89.12
X169.829Y-91.152
X170.184Y-77.335
T2
X84.536Y-62.45
X84.536Y-64.533
X84.536Y-90.187
X84.536Y-95.267
X84.536Y-99.89
X84.536Y-104.868
X84.536Y-108.374
X84.536Y-112.387
X84.536Y-117.416
X84.536Y-122.293
X84.536Y-128.592
X84.561Y-60.368
X84.586Y-79.062
X84.586Y-84.752
X84.586Y-126.357
X84.586Y-130.37
X84.637Y-70.172
X86.542Y-60.317
X86.618Y-64.533
X86.618Y-126.204
X86.618Y-130.37
X87.025Y-79.011
X87.025Y-95.216
X87.025Y-99.941
X87.025Y-117.518
X87.076Y-84.802
X87.103Y-90.187
X87.126Y-104.767
X87.126Y-108.374
X87.177Y-112.387
X87.228Y-122.242
X88.65Y-69.867
X88.65Y-126.204
X88.701Y-64.584
X88.803Y-60.317
X88.803Y-62.501
X88.803Y-128.44
X88.803Y-130.37
X90.276Y-118.026
X90.936Y-122.394
X91.495Y-126.916
X93.172Y-116.044
X93.73Y-62.603
X93.934Y-130.421
X94.035Y-119.296
X94.137Y-60.317
X94.137Y-64.635
X94.137Y-69.715
X94.314Y-111.674
X94.746Y-115.841
X95.508Y-74.236
X96.016Y-100.906
X96.067Y-90.543
X96.067Y-103.446
X96.067Y-106.037
X96.067Y-108.628
X96.118Y-93.388
X96.118Y-98.315
X96.169Y-62.044
X96.169Y-127.525
X96.22Y-64.635
X96.474Y-128.694
X96.778Y-70.68
X97.083Y-110.406
X97.794Y-112.844
X97.845Y-116.349
X98.099Y-128.846
X99.014Y-130.522
X99.064Y-93.286
X99.064Y-116.857
X99.42Y-64.686
X99.522Y-60.317
X99.522Y-69.461
X99.623Y-95.724
X99.623Y-122.902
X100.08Y-98.315
X100.182Y-111.726
X100.182Y-115.689
X100.233Y-108.374
X100.436Y-127.068
X100.741Y-75.557
X100.771Y-88.202
X100.893Y-106.443
X101.147Y-125.9
X101.249Y-103.598
X102.062Y-122.801
X102.093Y-94.425
X102.265Y-88.841
X102.519Y-106.494
X102.57Y-113.301
X102.62Y-108.323
X102.671Y-111.676
X102.773Y-98.315
X102.773Y-128.948
X102.817Y-95.384
X102.942Y-101.058
X103.84Y-130.573
X103.941Y-122.191
X104.094Y-66.413
X104.094Y-70.375
X104.449Y-127.017
X104.551Y-63.111
X104.856Y-60.317
X105.059Y-124.782
X105.465Y-102.074
X105.516Y-97.502
X105.516Y-99.992
X105.516Y-108.932
X105.567Y-114.165
X105.586Y-116.521
X105.719Y-64.889
X105.927Y-126.687
X106.227Y-61.688
X106.227Y-123.461
X106.227Y-124.934
X106.363Y-93.591
X106.413Y-88.035
X106.888Y-115.282
X106.938Y-111.117
X106.955Y-75.655
X107.243Y-128.948
X107.269Y-127.411
X107.751Y-62.704
X107.937Y-82.528
X108.31Y-103.04
X108.31Y-105.529
X108.361Y-68.855
X108.361Y-88.968
X108.396Y-86.052
X108.462Y-117.772
X108.462Y-127.424
X108.869Y-130.573
X109.275Y-85.158
X109.275Y-113.504
X109.326Y-108.932
X109.377Y-115.232
X109.478Y-90.543
X109.743Y-77.462
X110.007Y-93.011
X110.444Y-120.667
X110.494Y-128.948
X110.748Y-60.317
X110.799Y-94.912
X110.799Y-103.243
X110.875Y-81.577
X110.901Y-107.815
X111.002Y-77.436
X111.053Y-79.062
X111.104Y-83.228
X111.155Y-74.947
X111.206Y-87.088
X111.358Y-85.158
X111.866Y-113.454
X112.018Y-122.14
X112.069Y-115.181
X112.171Y-64.33
X112.476Y-75.506
X112.5Y-65.9
X112.526Y-62.349
X112.628Y-128.186
X112.679Y-95.775
X112.78Y-80.738
X112.831Y-85.107
X112.882Y-90.594
X113.136Y-87.139
X113.593Y-93.032
X113.593Y-130.573
X113.695Y-65.956
X113.796Y-115.028
X113.898Y-97.553
X113.898Y-117.772
X113.898Y-128.694
X114.254Y-103.04
X114.389Y-98.619
X114.406Y-68.089
X114.457Y-71.036
X114.66Y-113.25
X114.795Y-82.102
X114.795Y-86.301
X114.812Y-74.134
X114.812Y-88.968
X115.07Y-116.502
X115.117Y-97.502
X115.245Y-101.085
X115.512Y-104.31
X115.512Y-106.088
X115.512Y-107.866
X115.574Y-69.004
X116.235Y-60.266
X116.235Y-64.33
X116.438Y-74.846
X116.438Y-101.058
X116.489Y-92.981
X116.54Y-102.481
X116.734Y-68.552
X116.743Y-115.079
X116.895Y-95.724
X116.946Y-71.747
X117.149Y-128.541
X117.295Y-91.752
X117.4Y-79.039
X117.52Y-100.716
X117.86Y-127.728
X117.911Y-88.917
X118.013Y-67.327
X118.064Y-85.31
X118.091Y-106.989
X118.267Y-90.746
X118.368Y-92.88
X118.377Y-101.275
X118.419Y-98.62
X118.775Y-120.921
X118.826Y-130.573
X118.978Y-114.724
X118.978Y-117.01
X119.029Y-112.387
X119.029Y-122.14
X119.046Y-75.438
X119.205Y-100.716
X119.486Y-62.45
X119.537Y-65.448
X119.567Y-102.147
X119.897Y-99.85
X119.969Y-69.202
X120.045Y-86.936
X120.146Y-88.917
X120.323Y-100.754
X120.371Y-96.702
X120.705Y-90.746
X120.756Y-118.889
X120.858Y-68.191
X120.858Y-122.547
X120.959Y-111.777
X120.959Y-115.13
X121.053Y-103.883
X121.061Y-71.594
X121.213Y-127.83
X121.581Y-95.492
X121.62Y-125.087
X121.67Y-68.902
X121.772Y-85.209
X121.778Y-103.103
X121.778Y-120.318
X121.954Y-126.687
X122.382Y-64.432
X122.483Y-60.317
X122.534Y-89.171
X122.558Y-102.478
X122.571Y-120.926
X122.815Y-77.54
X122.839Y-75.557
X122.839Y-122.953
X122.921Y-125.237
X123.347Y-130.624
X123.448Y-84.091
X123.47Y-100.281
X123.499Y-127.728
X123.554Y-114.372
X123.601Y-106.646
X123.652Y-111.879
X123.668Y-92.074
X123.855Y-104.411
X124.109Y-71.239
X124.109Y-87.546
X124.321Y-122.652
X124.363Y-65.549
X124.515Y-62.4
X124.668Y-128.44
X124.718Y-117.314
X124.754Y-97.274
X124.769Y-68.953
X124.871Y-74.134
X124.871Y-105.326
X124.89Y-94.666
X124.922Y-64.33
X125.445Y-90.228
X125.531Y-86.174
X125.602Y-93.941
X125.603Y-95.402
X125.713Y-98.838
X126.09Y-111.93
X126.242Y-83.99
X126.242Y-106.697
X126.344Y-114.52
X126.573Y-97.883
X126.649Y-120.413
X126.846Y-83.159
X126.852Y-68.191
X127.037Y-99.963
X127.36Y-64.33
X127.36Y-107.916
X127.444Y-87.616
X127.716Y-62.349
X127.721Y-70.052
X127.746Y-100.667
X127.766Y-73.372
X127.817Y-94.251
X127.868Y-71.34
X127.9Y-68.8
X127.919Y-116.806
X128.02Y-98.976
X128.173Y-119.296
X128.198Y-75.074
X128.274Y-111.98
X128.274Y-114.47
X128.297Y-91.246
X128.427Y-130.573
X128.554Y-104.462
X128.571Y-87.902
X128.63Y-110.456
X129.189Y-92.88
X129.24Y-60.266
X129.421Y-102.166
X129.443Y-97.502
X129.443Y-116.298
X129.544Y-65.956
X129.595Y-83.837
X129.733Y-77.779
X129.748Y-85.31
X129.798Y-120.566
X129.8Y-74.2
X129.9Y-71.137
X130.163Y-96.394
X130.205Y-108.12
X130.215Y-78.774
X130.28Y-101.442
X130.281Y-104.892
X130.3Y-69.1
X130.408Y-114.52
X130.417Y-91.175
X130.459Y-111.676
X130.5Y-73.4
X130.662Y-62.806
X130.916Y-98.976
X131.119Y-117.873
X131.137Y-70.067
X131.413Y-96.031
X131.5Y-74.3
X131.627Y-92.829
X131.664Y-83.321
X131.932Y-68.851
X132.186Y-113.708
X132.288Y-110.101
X132.306Y-97.292
X132.338Y-128.643
X132.389Y-117.619
X132.4Y-67.6
X132.765Y-98.959
X133.013Y-96.585
X133.1Y-66.4
X133.202Y-63.365
X133.608Y-130.573
X133.72Y-95.878
X133.761Y-118.635
X134.116Y-62.146
X134.218Y-114.724
X134.269Y-109.796
X134.269Y-111.828
X134.421Y-90.035
X134.472Y-108.018
X134.515Y-95.261
X134.574Y-120.566
X134.675Y-66.159
X135.031Y-116.4
X135.082Y-60.266
X135.742Y-119.753
X135.779Y-86.71
X135.945Y-67.734
X136.098Y-115.384
X136.171Y-64.633
X136.453Y-109.796
X136.453Y-111.93
X136.453Y-114.216
X136.6Y-78.6
X136.86Y-91.522
X136.9Y-79.8
X136.91Y-118.178
X137.171Y-88.402
X137.215Y-62.146
X137.266Y-94.962
X137.723Y-90.035
X137.751Y-81.585
X138.007Y-126.687
X138.065Y-75.176
X138.282Y-84.802
X138.282Y-116.756
X138.333Y-66.159
X138.333Y-111.879
X138.4Y-78.656
X138.4Y-80.936
X138.434Y-109.745
X138.536Y-114.368
X138.587Y-100.754
X138.79Y-127.881
X138.866Y-67.911
X138.926Y-96.824
X139.146Y-91.521
X139.196Y-130.573
X139.263Y-62.649
X139.298Y-95.623
X139.476Y-98.696
X139.908Y-84.853
X139.908Y-90.035
X140.347Y-69.239
X140.416Y-118.381
X140.517Y-117.01
X140.546Y-99.527
X140.644Y-64.633
X140.776Y-62.72
X140.873Y-109.898
X141.025Y-91.521
X141.127Y-60.317
X141.178Y-112.082
X141.432Y-114.368
X141.482Y-84.904
X141.482Y-90.035
X141.584Y-99.941
X141.584Y-108.17
X142.092Y-95.775
X142.244Y-116.806
X142.702Y-92.016
X143.057Y-84.345
X143.057Y-90.035
X143.1Y-74.905
X143.26Y-97.807
X143.464Y-108.475
X143.845Y-91.521
X143.87Y-113.047
X143.914Y-72.007
X144.073Y-110.456
X144.175Y-64.381
X144.175Y-67.683
X144.276Y-96.232
X144.454Y-104.589
X144.48Y-62.349
X144.48Y-66.413
X144.581Y-84.701
X144.632Y-83.482
X144.632Y-90.035
X144.683Y-130.573
X144.684Y-82.252
X144.784Y-127.411
X145.166Y-115.867
X145.191Y-99.941
X145.343Y-67.683
X145.75Y-74.896
X145.821Y-88.276
X146.308Y-99.941
X146.715Y-103.954
X146.789Y-109.098
X146.816Y-60.317
X146.867Y-74.846
X146.969Y-72.407
X147.02Y-83.177
X147.07Y-67.53
X147.07Y-68.597
X147.238Y-115.831
X147.68Y-102.227
X147.754Y-82.252
X147.883Y-64.076
X147.885Y-109.17
X147.958Y-95.445
X148.392Y-86.479
X148.442Y-89.984
X149.001Y-66.362
X149.001Y-70.375
X149.712Y-127.17
X149.915Y-89.933
X150.017Y-87.901
X150.202Y-111.701
X150.22Y-93.591
X150.319Y-109.161
X150.319Y-113.708
X150.423Y-71.798
X150.423Y-96.639
X150.423Y-102.227
X150.88Y-73.88
X151.033Y-90.072
X151.287Y-98.112
X151.348Y-101.73
X151.49Y-127.424
X151.541Y-105.122
X151.642Y-60.266
X151.693Y-66.413
X151.693Y-73.83
X151.896Y-71.848
X151.896Y-87.901
X151.998Y-97.045
X152.049Y-91.762
X152.125Y-74.998
X152.15Y-81.856
X152.188Y-78.553
X152.201Y-103.954
X152.252Y-115.841
X152.354Y-67.632
X152.354Y-92.422
X152.404Y-70.172
X152.455Y-110.558
X152.455Y-121.124
X152.506Y-118.584
X152.608Y-108.069
X152.811Y-80.992
X153.268Y-112.742
X153.471Y-104.31
X153.499Y-114.597
X153.624Y-107.307
X153.771Y-94.514
X153.771Y-97.039
X153.771Y-98.864
X153.805Y-82.393
X154.538Y-91.66
X154.64Y-102.176
X154.64Y-120.058
X154.792Y-104.818
X154.792Y-110.456
X154.944Y-78.91
X154.944Y-127.932
X155.046Y-117.67
X155.148Y-87.901
X155.249Y-112.59
X155.3Y-80.891
X155.403Y-86.428
X155.529Y-76.014
X155.91Y-82.415
X156.021Y-92.652
X156.367Y-104.462
X156.418Y-60.317
X156.498Y-116.193
X156.57Y-70.883
X156.672Y-66.718
X156.722Y-82.974
X157.129Y-87.749
X157.129Y-121.226
X157.23Y-91.66
X157.332Y-107.967
X157.561Y-77.841
X157.688Y-74.896
X157.688Y-114.825
X157.738Y-117.01
X157.84Y-100.957
X158.043Y-111.472
X158.094Y-80.332
X158.094Y-122.75
X158.094Y-127.982
X158.196Y-124.985
X158.5Y-99.077
X158.602Y-103.294
X158.704Y-77.081
X158.704Y-120.108
X158.768Y-88.772
X158.856Y-85.717
X158.907Y-92.27
X158.907Y-104.716
X159.008Y-86.936
X159.059Y-94.912
X159.059Y-96.588
X159.313Y-63.06
X159.466Y-65.752
X159.516Y-68.8
X159.516Y-71.848
X159.516Y-74.541
X159.821Y-92.27
X159.821Y-101.109
X159.923Y-94.962
X159.923Y-96.639
X159.974Y-103.294
X160.075Y-78.402
X160.075Y-99.128
X160.583Y-88.612
X160.634Y-75.404
X160.888Y-79.265
X161.04Y-114.825
X161.091Y-60.368
X161.193Y-104.564
X161.193Y-110.571
X161.193Y-118.571
X161.345Y-81.805
X161.499Y-82.999
X161.548Y-112.133
X161.65Y-62.755
X161.802Y-120.616
X161.904Y-124.122
X162.285Y-88.197
X162.4Y-95.4
X162.463Y-108.323
X162.463Y-130.472
X162.471Y-79.139
X162.617Y-109.847
X162.617Y-114.571
X162.717Y-102.532
X162.869Y-125.341
X162.871Y-94.452
X163.479Y-91.356
X163.631Y-110.964
X163.631Y-113.2
X163.69Y-88.291
X163.885Y-119.042
X163.936Y-68.851
X163.936Y-106.85
X164.132Y-81.44
X164.241Y-71.696
X164.3Y-100.4
X164.393Y-74.338
X164.444Y-103.141
X164.495Y-104.818
X164.546Y-112.285
X164.698Y-66.006
X164.8Y-63.72
X165.6Y-95.7
X165.663Y-88.511
X165.693Y-116.226
X165.714Y-108.78
X165.816Y-62.552
X165.968Y-75.303
X165.968Y-92.575
X165.968Y-125.442
X166.07Y-130.319
X166.171Y-60.164
X166.171Y-120.464
X166.374Y-89.476
X166.882Y-112.285
X166.882Y-115.232
X166.933Y-116.959
X167.035Y-72.458
X167.34Y-110.761
X167.401Y-78.085
X167.795Y-82.999
X167.797Y-108.17
X167.871Y-80.914
X168.203Y-94.505
X169.27Y-96.74
X169.422Y-120.566
X169.524Y-72.458
X169.524Y-100.906
X169.524Y-130.319
X169.575Y-105.681
X169.575Y-115.536
X169.626Y-103.294
X169.626Y-113.047
X169.676Y-126.001
X169.727Y-66.159
X169.88Y-84.599
X169.93Y-69.512
X170.083Y-62.501
X170.438Y-75.201
X170.642Y-87.342
X171.048Y-80.535
X171.2Y-100.195
X171.302Y-111.625
X172.572Y-88.663
X172.623Y-60.215
X172.674Y-91.051
X173.131Y-68.597
X173.131Y-72.052
X173.283Y-74.439
X173.334Y-64.736
X173.436Y-62.298
X173.436Y-128.186
X173.486Y-77.69
X173.537Y-125.95
X173.639Y-130.268
X173.69Y-95.724
X173.69Y-120.616
X173.74Y-115.282
X173.773Y-106.614
X173.791Y-103.294
X173.791Y-110.152
X173.893Y-99.534
X174.198Y-73.423
X174.604Y-91.254
X174.706Y-79.926
X175.518Y-60.215
X175.671Y-64.482
X175.671Y-126.154
X175.722Y-130.472
X175.976Y-71.798
X176.077Y-85.209
X176.992Y-80.027
X177.5Y-120.667
X177.55Y-68.597
X177.55Y-105.173
X177.55Y-110.304
X177.601Y-62.298
X177.601Y-78.046
X177.601Y-93.54
X177.601Y-99.179
X177.601Y-115.435
X177.601Y-126.154
X177.601Y-130.319
X177.652Y-88.257
X177.703Y-64.432
X177.703Y-73.22
X177.754Y-60.215
X177.804Y-83.329
X177.804Y-128.186
T3
X118.093Y-94.773
X140.085Y-103.153
X144.979Y-119.388
X145.821Y-86.702
X145.821Y-91.621
X147.021Y-91.621
X148.709Y-72.217
X149.102Y-115.206
X149.102Y-116.248
X149.458Y-72.966
X149.855Y-119.178
X161.3Y-101.3
X162.861Y-92.542
X163.017Y-99.544
T4
X102.392Y-99.763
X102.392Y-102.303
X102.392Y-104.843
X107.071Y-102.152
X107.081Y-106.702
X107.091Y-97.528
X109.261Y-111.742
X109.261Y-119.362
X109.611Y-102.152
X109.621Y-106.702
X109.631Y-97.528
X110.945Y-63.06
X110.945Y-65.6
X110.945Y-73.22
X111.801Y-111.742
X111.801Y-119.362
X112.151Y-102.152
X112.161Y-106.702
X112.171Y-97.528
X113.485Y-73.22
X114.341Y-111.742
X114.341Y-119.362
X116.025Y-73.22
X116.881Y-111.742
X116.881Y-119.362
X118.565Y-73.22
X121.105Y-73.22
X123.645Y-73.22
X126.185Y-63.06
X126.185Y-65.6
X126.185Y-73.22
X171.131Y-83.452
X173.671Y-83.452
X175.874Y-73.576
X175.874Y-76.116
X175.874Y-78.656
X176.211Y-83.452
T5
X124.769Y-108.247
X124.769Y-113.247
X124.769Y-115.526
X124.769Y-120.526
X129.392Y-113.2
X129.392Y-118.1
X132.288Y-79.574
X132.288Y-84.574
X135.183Y-113.188
X135.183Y-118.088
X135.437Y-79.585
X135.437Y-84.585
X139.755Y-108.2
X139.755Y-113.2
X139.755Y-115.493
X139.755Y-120.493
X153.344Y-61.257
X153.344Y-63.797
X153.344Y-66.337
X153.344Y-68.877
X153.344Y-71.417
X153.344Y-73.957
X153.344Y-76.497
X153.344Y-79.037
X160.141Y-121.394
X160.141Y-123.934
X160.141Y-126.474
X160.141Y-129.014
X167.761Y-121.394
X167.761Y-123.934
X167.761Y-126.474
X167.761Y-129.014
X171.378Y-61.257
X171.378Y-63.797
X171.378Y-66.337
X171.378Y-68.877
X171.378Y-71.417
X171.378Y-73.957
X171.378Y-76.497
X171.378Y-79.037
T6
X91.241Y-73.322
X91.241Y-75.822
X91.241Y-78.322
X91.241Y-86.022
X91.241Y-88.522
X91.241Y-91.022
X91.241Y-98.722
X91.241Y-101.222
X91.241Y-103.722
X91.241Y-111.422
X91.241Y-113.922
X91.241Y-116.422
X93.302Y-124.062
X95.802Y-124.062
X98.302Y-124.062
X100.802Y-124.062
X103.302Y-124.062
X109.33Y-124.062
X111.83Y-124.062
X114.33Y-124.062
X116.83Y-124.062
X119.33Y-124.062
X125.383Y-124.062
X127.883Y-124.062
X130.383Y-124.062
X132.883Y-124.062
X135.383Y-124.062
X141.41Y-124.062
X143.91Y-124.062
X146.41Y-124.062
X148.91Y-124.062
X151.41Y-124.062
X171.121Y-89.902
X171.121Y-92.402
X171.121Y-94.902
X171.121Y-102.102
X171.121Y-104.602
X171.121Y-107.102
X171.121Y-114.252
X171.121Y-116.752
X171.121Y-119.252
T7
X95.19Y-63.256
X106.19Y-63.256
X134.929Y-70.79
X134.929Y-73.329
X137.469Y-70.79
X137.469Y-73.329
X140.009Y-70.79
X140.009Y-73.329
X142.549Y-70.79
X142.549Y-73.329
X145.089Y-70.79
X145.089Y-73.329
X150.398Y-84.293
X152.938Y-84.293
X155.478Y-84.293
X156.722Y-123.974
X156.722Y-126.514
X158.018Y-84.293
T8
X96.597Y-78.104
X97.083Y-97.121
X97.083Y-99.661
X97.083Y-102.201
X97.083Y-104.741
X97.083Y-107.281
X98.887Y-78.104
X101.177Y-78.104
T9
X98.19Y-73.256
X103.19Y-73.256
T10
X86.621Y-62.352
X86.621Y-128.352
X175.621Y-62.352
X175.621Y-128.352
T0
M30
