%TF.GenerationSoftware,KiCad,Pcbnew,(6.0.11)*%
%TF.CreationDate,2023-06-24T18:02:59+09:00*%
%TF.ProjectId,main,6d61696e-2e6b-4696-9361-645f70636258,rev?*%
%TF.SameCoordinates,Original*%
%TF.FileFunction,Legend,Top*%
%TF.FilePolarity,Positive*%
%FSLAX46Y46*%
G04 Gerber Fmt 4.6, Leading zero omitted, Abs format (unit mm)*
G04 Created by KiCad (PCBNEW (6.0.11)) date 2023-06-24 18:02:59*
%MOMM*%
%LPD*%
G01*
G04 APERTURE LIST*
G04 Aperture macros list*
%AMRoundRect*
0 Rectangle with rounded corners*
0 $1 Rounding radius*
0 $2 $3 $4 $5 $6 $7 $8 $9 X,Y pos of 4 corners*
0 Add a 4 corners polygon primitive as box body*
4,1,4,$2,$3,$4,$5,$6,$7,$8,$9,$2,$3,0*
0 Add four circle primitives for the rounded corners*
1,1,$1+$1,$2,$3*
1,1,$1+$1,$4,$5*
1,1,$1+$1,$6,$7*
1,1,$1+$1,$8,$9*
0 Add four rect primitives between the rounded corners*
20,1,$1+$1,$2,$3,$4,$5,0*
20,1,$1+$1,$4,$5,$6,$7,0*
20,1,$1+$1,$6,$7,$8,$9,0*
20,1,$1+$1,$8,$9,$2,$3,0*%
%AMFreePoly0*
4,1,53,0.885000,-2.035000,0.700000,-2.035000,0.700000,-3.665000,0.695106,-3.680063,0.695106,-3.695902,0.685796,-3.708716,0.680902,-3.723779,0.668089,-3.733089,0.658779,-3.745902,0.643716,-3.750796,0.630902,-3.760106,0.615063,-3.760106,0.600000,-3.765000,-0.600000,-3.765000,-0.615063,-3.760106,-0.630902,-3.760106,-0.643716,-3.750796,-0.658779,-3.745902,-0.668089,-3.733089,-0.680902,-3.723779,
-0.685796,-3.708716,-0.695106,-3.695902,-0.695106,-3.680063,-0.700000,-3.665000,-0.700000,-2.035000,-0.885000,-2.035000,-0.885000,0.450000,-2.515000,0.450000,-2.530063,0.454894,-2.545902,0.454894,-2.558716,0.464204,-2.573779,0.469098,-2.583089,0.481911,-2.595902,0.491221,-2.600796,0.506284,-2.610106,0.519098,-2.610106,0.534937,-2.615000,0.550000,-2.615000,1.750000,-2.610106,1.765063,
-2.610106,1.780902,-2.600796,1.793716,-2.595902,1.808779,-2.583089,1.818089,-2.573779,1.830902,-2.558716,1.835796,-2.545902,1.845106,-2.530063,1.845106,-2.515000,1.850000,-0.885000,1.850000,-0.885000,2.035000,0.885000,2.035000,0.885000,-2.035000,0.885000,-2.035000,$1*%
%AMFreePoly1*
4,1,53,-0.534937,2.610106,-0.519098,2.610106,-0.506284,2.600796,-0.491221,2.595902,-0.481911,2.583089,-0.469098,2.573779,-0.464204,2.558716,-0.454894,2.545902,-0.454894,2.530063,-0.450000,2.515000,-0.450000,0.885000,0.450000,0.885000,0.450000,2.515000,0.454894,2.530063,0.454894,2.545902,0.464204,2.558716,0.469098,2.573779,0.481911,2.583089,0.491221,2.595902,0.506284,2.600796,
0.519098,2.610106,0.534937,2.610106,0.550000,2.615000,1.750000,2.615000,1.765063,2.610106,1.780902,2.610106,1.793716,2.600796,1.808779,2.595902,1.818089,2.583089,1.830902,2.573779,1.835796,2.558716,1.845106,2.545902,1.845106,2.530063,1.850000,2.515000,1.850000,0.885000,2.035000,0.885000,2.035000,-0.885000,-2.035000,-0.885000,-2.035000,0.885000,-1.850000,0.885000,
-1.850000,2.515000,-1.845106,2.530063,-1.845106,2.545902,-1.835796,2.558716,-1.830902,2.573779,-1.818089,2.583089,-1.808779,2.595902,-1.793716,2.600796,-1.780902,2.610106,-1.765063,2.610106,-1.750000,2.615000,-0.550000,2.615000,-0.534937,2.610106,-0.534937,2.610106,$1*%
%AMFreePoly2*
4,1,29,0.885000,1.850000,2.515000,1.850000,2.530063,1.845106,2.545902,1.845106,2.558716,1.835796,2.573779,1.830902,2.583089,1.818089,2.595902,1.808779,2.600796,1.793716,2.610106,1.780902,2.610106,1.765063,2.615000,1.750000,2.615000,0.550000,2.610106,0.534937,2.610106,0.519098,2.600796,0.506284,2.595902,0.491221,2.583089,0.481911,2.573779,0.469098,2.558716,0.464204,
2.545902,0.454894,2.530063,0.454894,2.515000,0.450000,0.885000,0.450000,0.885000,-2.035000,-0.885000,-2.035000,-0.885000,2.035000,0.885000,2.035000,0.885000,1.850000,0.885000,1.850000,$1*%
G04 Aperture macros list end*
%ADD10C,0.100000*%
%ADD11C,0.120000*%
%ADD12C,0.150000*%
%ADD13C,0.254000*%
%ADD14C,0.098425*%
%ADD15C,0.200000*%
%ADD16C,0.127000*%
%ADD17C,0.250000*%
%ADD18RoundRect,0.250000X0.574524X0.097227X0.097227X0.574524X-0.574524X-0.097227X-0.097227X-0.574524X0*%
%ADD19RoundRect,0.237500X-0.044194X-0.380070X0.380070X0.044194X0.044194X0.380070X-0.380070X-0.044194X0*%
%ADD20R,2.200000X1.200000*%
%ADD21R,6.400000X5.800000*%
%ADD22RoundRect,0.237500X0.237500X-0.250000X0.237500X0.250000X-0.237500X0.250000X-0.237500X-0.250000X0*%
%ADD23R,3.400000X1.300000*%
%ADD24RoundRect,0.237500X0.300000X0.237500X-0.300000X0.237500X-0.300000X-0.237500X0.300000X-0.237500X0*%
%ADD25R,0.575000X0.620000*%
%ADD26RoundRect,0.250001X-0.799999X1.999999X-0.799999X-1.999999X0.799999X-1.999999X0.799999X1.999999X0*%
%ADD27R,0.620000X0.575000*%
%ADD28C,1.524000*%
%ADD29C,1.500000*%
%ADD30RoundRect,0.237500X-0.237500X0.250000X-0.237500X-0.250000X0.237500X-0.250000X0.237500X0.250000X0*%
%ADD31RoundRect,0.237500X0.380070X-0.044194X-0.044194X0.380070X-0.380070X0.044194X0.044194X-0.380070X0*%
%ADD32R,1.250000X1.820000*%
%ADD33RoundRect,0.237500X-0.287500X-0.237500X0.287500X-0.237500X0.287500X0.237500X-0.287500X0.237500X0*%
%ADD34C,1.600000*%
%ADD35C,2.200000*%
%ADD36RoundRect,0.250000X0.600000X-0.600000X0.600000X0.600000X-0.600000X0.600000X-0.600000X-0.600000X0*%
%ADD37C,1.700000*%
%ADD38R,1.900000X0.800000*%
%ADD39RoundRect,0.237500X0.044194X0.380070X-0.380070X-0.044194X-0.044194X-0.380070X0.380070X0.044194X0*%
%ADD40R,1.308000X1.308000*%
%ADD41C,1.308000*%
%ADD42R,3.000000X1.200000*%
%ADD43FreePoly0,270.000000*%
%ADD44FreePoly1,0.000000*%
%ADD45FreePoly2,0.000000*%
%ADD46R,1.200000X3.000000*%
%ADD47R,1.500000X1.200000*%
%ADD48R,1.600000X1.600000*%
%ADD49O,1.600000X1.600000*%
%ADD50RoundRect,0.237500X-0.237500X0.300000X-0.237500X-0.300000X0.237500X-0.300000X0.237500X0.300000X0*%
%ADD51RoundRect,0.250000X-0.600000X-0.675000X0.600000X-0.675000X0.600000X0.675000X-0.600000X0.675000X0*%
%ADD52O,1.700000X1.850000*%
%ADD53RoundRect,0.237500X-0.250000X-0.237500X0.250000X-0.237500X0.250000X0.237500X-0.250000X0.237500X0*%
%ADD54RoundRect,0.250000X-0.675000X0.600000X-0.675000X-0.600000X0.675000X-0.600000X0.675000X0.600000X0*%
%ADD55O,1.850000X1.700000*%
%ADD56RoundRect,0.237500X0.287500X0.237500X-0.287500X0.237500X-0.287500X-0.237500X0.287500X-0.237500X0*%
%ADD57RoundRect,0.237500X-0.300000X-0.237500X0.300000X-0.237500X0.300000X0.237500X-0.300000X0.237500X0*%
%ADD58RoundRect,0.425000X-0.425000X-0.425000X0.425000X-0.425000X0.425000X0.425000X-0.425000X0.425000X0*%
%ADD59RoundRect,0.250000X0.675000X-0.600000X0.675000X0.600000X-0.675000X0.600000X-0.675000X-0.600000X0*%
%ADD60C,1.400000*%
%ADD61R,3.500000X3.500000*%
%ADD62C,3.500000*%
%ADD63R,1.400000X1.600000*%
%ADD64R,1.717500X1.800000*%
%ADD65O,1.717500X1.800000*%
%ADD66R,1.530000X2.720000*%
%ADD67R,1.700000X1.700000*%
%ADD68O,1.700000X1.700000*%
%ADD69R,1.524000X1.524000*%
%ADD70RoundRect,0.075000X0.548008X-0.441942X-0.441942X0.548008X-0.548008X0.441942X0.441942X-0.548008X0*%
%ADD71RoundRect,0.075000X0.548008X0.441942X0.441942X0.548008X-0.548008X-0.441942X-0.441942X-0.548008X0*%
%ADD72RoundRect,0.237500X0.237500X-0.300000X0.237500X0.300000X-0.237500X0.300000X-0.237500X-0.300000X0*%
%ADD73RoundRect,0.237500X0.250000X0.237500X-0.250000X0.237500X-0.250000X-0.237500X0.250000X-0.237500X0*%
G04 APERTURE END LIST*
D10*
X157266666Y-75816666D02*
X157266666Y-76383333D01*
X157300000Y-76450000D01*
X157333333Y-76483333D01*
X157400000Y-76516666D01*
X157533333Y-76516666D01*
X157600000Y-76483333D01*
X157633333Y-76450000D01*
X157666666Y-76383333D01*
X157666666Y-75816666D01*
X158333333Y-75816666D02*
X158000000Y-75816666D01*
X157966666Y-76150000D01*
X158000000Y-76116666D01*
X158066666Y-76083333D01*
X158233333Y-76083333D01*
X158300000Y-76116666D01*
X158333333Y-76150000D01*
X158366666Y-76216666D01*
X158366666Y-76383333D01*
X158333333Y-76450000D01*
X158300000Y-76483333D01*
X158233333Y-76516666D01*
X158066666Y-76516666D01*
X158000000Y-76483333D01*
X157966666Y-76450000D01*
X158566666Y-75816666D02*
X158800000Y-76516666D01*
X159033333Y-75816666D01*
X120699771Y-104877790D02*
X120699771Y-104377790D01*
X120890247Y-104377790D01*
X120937866Y-104401600D01*
X120961676Y-104425409D01*
X120985485Y-104473028D01*
X120985485Y-104544457D01*
X120961676Y-104592076D01*
X120937866Y-104615885D01*
X120890247Y-104639695D01*
X120699771Y-104639695D01*
X121175961Y-104734933D02*
X121414057Y-104734933D01*
X121128342Y-104877790D02*
X121295009Y-104377790D01*
X121461676Y-104877790D01*
X121890247Y-104877790D02*
X121604533Y-104877790D01*
X121747390Y-104877790D02*
X121747390Y-104377790D01*
X121699771Y-104449219D01*
X121652152Y-104496838D01*
X121604533Y-104520647D01*
X122080723Y-104425409D02*
X122104533Y-104401600D01*
X122152152Y-104377790D01*
X122271200Y-104377790D01*
X122318819Y-104401600D01*
X122342628Y-104425409D01*
X122366438Y-104473028D01*
X122366438Y-104520647D01*
X122342628Y-104592076D01*
X122056914Y-104877790D01*
X122366438Y-104877790D01*
X118704533Y-97715885D02*
X118775961Y-97739695D01*
X118799771Y-97763504D01*
X118823580Y-97811123D01*
X118823580Y-97882552D01*
X118799771Y-97930171D01*
X118775961Y-97953980D01*
X118728342Y-97977790D01*
X118537866Y-97977790D01*
X118537866Y-97477790D01*
X118704533Y-97477790D01*
X118752152Y-97501600D01*
X118775961Y-97525409D01*
X118799771Y-97573028D01*
X118799771Y-97620647D01*
X118775961Y-97668266D01*
X118752152Y-97692076D01*
X118704533Y-97715885D01*
X118537866Y-97715885D01*
X119133104Y-97477790D02*
X119228342Y-97477790D01*
X119275961Y-97501600D01*
X119323580Y-97549219D01*
X119347390Y-97644457D01*
X119347390Y-97811123D01*
X119323580Y-97906361D01*
X119275961Y-97953980D01*
X119228342Y-97977790D01*
X119133104Y-97977790D01*
X119085485Y-97953980D01*
X119037866Y-97906361D01*
X119014057Y-97811123D01*
X119014057Y-97644457D01*
X119037866Y-97549219D01*
X119085485Y-97501600D01*
X119133104Y-97477790D01*
X119656914Y-97477790D02*
X119752152Y-97477790D01*
X119799771Y-97501600D01*
X119847390Y-97549219D01*
X119871200Y-97644457D01*
X119871200Y-97811123D01*
X119847390Y-97906361D01*
X119799771Y-97953980D01*
X119752152Y-97977790D01*
X119656914Y-97977790D01*
X119609295Y-97953980D01*
X119561676Y-97906361D01*
X119537866Y-97811123D01*
X119537866Y-97644457D01*
X119561676Y-97549219D01*
X119609295Y-97501600D01*
X119656914Y-97477790D01*
X120014057Y-97477790D02*
X120299771Y-97477790D01*
X120156914Y-97977790D02*
X120156914Y-97477790D01*
X120561676Y-97477790D02*
X120609295Y-97477790D01*
X120656914Y-97501600D01*
X120680723Y-97525409D01*
X120704533Y-97573028D01*
X120728342Y-97668266D01*
X120728342Y-97787314D01*
X120704533Y-97882552D01*
X120680723Y-97930171D01*
X120656914Y-97953980D01*
X120609295Y-97977790D01*
X120561676Y-97977790D01*
X120514057Y-97953980D01*
X120490247Y-97930171D01*
X120466438Y-97882552D01*
X120442628Y-97787314D01*
X120442628Y-97668266D01*
X120466438Y-97573028D01*
X120490247Y-97525409D01*
X120514057Y-97501600D01*
X120561676Y-97477790D01*
X111499771Y-109777790D02*
X111499771Y-109277790D01*
X111690247Y-109277790D01*
X111737866Y-109301600D01*
X111761676Y-109325409D01*
X111785485Y-109373028D01*
X111785485Y-109444457D01*
X111761676Y-109492076D01*
X111737866Y-109515885D01*
X111690247Y-109539695D01*
X111499771Y-109539695D01*
X111975961Y-109634933D02*
X112214057Y-109634933D01*
X111928342Y-109777790D02*
X112095009Y-109277790D01*
X112261676Y-109777790D01*
X112690247Y-109777790D02*
X112404533Y-109777790D01*
X112547390Y-109777790D02*
X112547390Y-109277790D01*
X112499771Y-109349219D01*
X112452152Y-109396838D01*
X112404533Y-109420647D01*
X113166438Y-109777790D02*
X112880723Y-109777790D01*
X113023580Y-109777790D02*
X113023580Y-109277790D01*
X112975961Y-109349219D01*
X112928342Y-109396838D01*
X112880723Y-109420647D01*
D11*
X173404533Y-98068266D02*
X173804533Y-98068266D01*
X173604533Y-98768266D02*
X173604533Y-98068266D01*
X174337866Y-98768266D02*
X174337866Y-98401600D01*
X174304533Y-98334933D01*
X174237866Y-98301600D01*
X174104533Y-98301600D01*
X174037866Y-98334933D01*
X174337866Y-98734933D02*
X174271200Y-98768266D01*
X174104533Y-98768266D01*
X174037866Y-98734933D01*
X174004533Y-98668266D01*
X174004533Y-98601600D01*
X174037866Y-98534933D01*
X174104533Y-98501600D01*
X174271200Y-98501600D01*
X174337866Y-98468266D01*
X174671200Y-98301600D02*
X174671200Y-99001600D01*
X174671200Y-98334933D02*
X174737866Y-98301600D01*
X174871200Y-98301600D01*
X174937866Y-98334933D01*
X174971200Y-98368266D01*
X175004533Y-98434933D01*
X175004533Y-98634933D01*
X174971200Y-98701600D01*
X174937866Y-98734933D01*
X174871200Y-98768266D01*
X174737866Y-98768266D01*
X174671200Y-98734933D01*
X175571200Y-98734933D02*
X175504533Y-98768266D01*
X175371200Y-98768266D01*
X175304533Y-98734933D01*
X175271200Y-98668266D01*
X175271200Y-98401600D01*
X175304533Y-98334933D01*
X175371200Y-98301600D01*
X175504533Y-98301600D01*
X175571200Y-98334933D01*
X175604533Y-98401600D01*
X175604533Y-98468266D01*
X175271200Y-98534933D01*
X176237866Y-98768266D02*
X175904533Y-98768266D01*
X175904533Y-98068266D01*
X176471200Y-98401600D02*
X176704533Y-98401600D01*
X176804533Y-98768266D02*
X176471200Y-98768266D01*
X176471200Y-98068266D01*
X176804533Y-98068266D01*
X177104533Y-98768266D02*
X177104533Y-98068266D01*
X177271200Y-98068266D01*
X177371200Y-98101600D01*
X177437866Y-98168266D01*
X177471200Y-98234933D01*
X177504533Y-98368266D01*
X177504533Y-98468266D01*
X177471200Y-98601600D01*
X177437866Y-98668266D01*
X177371200Y-98734933D01*
X177271200Y-98768266D01*
X177104533Y-98768266D01*
X178171200Y-98768266D02*
X177771200Y-98768266D01*
X177971200Y-98768266D02*
X177971200Y-98068266D01*
X177904533Y-98168266D01*
X177837866Y-98234933D01*
X177771200Y-98268266D01*
X135604533Y-122068266D02*
X135604533Y-121368266D01*
X135837866Y-121868266D01*
X136071200Y-121368266D01*
X136071200Y-122068266D01*
X136404533Y-122068266D02*
X136404533Y-121368266D01*
X136571200Y-121368266D01*
X136671200Y-121401600D01*
X136737866Y-121468266D01*
X136771200Y-121534933D01*
X136804533Y-121668266D01*
X136804533Y-121768266D01*
X136771200Y-121901600D01*
X136737866Y-121968266D01*
X136671200Y-122034933D01*
X136571200Y-122068266D01*
X136404533Y-122068266D01*
X137037866Y-121368266D02*
X137471200Y-121368266D01*
X137237866Y-121634933D01*
X137337866Y-121634933D01*
X137404533Y-121668266D01*
X137437866Y-121701600D01*
X137471200Y-121768266D01*
X137471200Y-121934933D01*
X137437866Y-122001600D01*
X137404533Y-122034933D01*
X137337866Y-122068266D01*
X137137866Y-122068266D01*
X137071200Y-122034933D01*
X137037866Y-122001600D01*
D12*
X124772952Y-95684780D02*
X124772952Y-96399066D01*
X124725333Y-96541923D01*
X124630095Y-96637161D01*
X124487238Y-96684780D01*
X124392000Y-96684780D01*
X125725333Y-96684780D02*
X125249142Y-96684780D01*
X125249142Y-95684780D01*
X126630095Y-96589542D02*
X126582476Y-96637161D01*
X126439619Y-96684780D01*
X126344380Y-96684780D01*
X126201523Y-96637161D01*
X126106285Y-96541923D01*
X126058666Y-96446685D01*
X126011047Y-96256209D01*
X126011047Y-96113352D01*
X126058666Y-95922876D01*
X126106285Y-95827638D01*
X126201523Y-95732400D01*
X126344380Y-95684780D01*
X126439619Y-95684780D01*
X126582476Y-95732400D01*
X126630095Y-95780019D01*
X127344380Y-95684780D02*
X127344380Y-96399066D01*
X127296761Y-96541923D01*
X127201523Y-96637161D01*
X127058666Y-96684780D01*
X126963428Y-96684780D01*
X128296761Y-96684780D02*
X127820571Y-96684780D01*
X127820571Y-95684780D01*
X129201523Y-96589542D02*
X129153904Y-96637161D01*
X129011047Y-96684780D01*
X128915809Y-96684780D01*
X128772952Y-96637161D01*
X128677714Y-96541923D01*
X128630095Y-96446685D01*
X128582476Y-96256209D01*
X128582476Y-96113352D01*
X128630095Y-95922876D01*
X128677714Y-95827638D01*
X128772952Y-95732400D01*
X128915809Y-95684780D01*
X129011047Y-95684780D01*
X129153904Y-95732400D01*
X129201523Y-95780019D01*
X129915809Y-95684780D02*
X129915809Y-96399066D01*
X129868190Y-96541923D01*
X129772952Y-96637161D01*
X129630095Y-96684780D01*
X129534857Y-96684780D01*
X130868190Y-96684780D02*
X130392000Y-96684780D01*
X130392000Y-95684780D01*
X131772952Y-96589542D02*
X131725333Y-96637161D01*
X131582476Y-96684780D01*
X131487238Y-96684780D01*
X131344380Y-96637161D01*
X131249142Y-96541923D01*
X131201523Y-96446685D01*
X131153904Y-96256209D01*
X131153904Y-96113352D01*
X131201523Y-95922876D01*
X131249142Y-95827638D01*
X131344380Y-95732400D01*
X131487238Y-95684780D01*
X131582476Y-95684780D01*
X131725333Y-95732400D01*
X131772952Y-95780019D01*
X132487238Y-95684780D02*
X132487238Y-96399066D01*
X132439619Y-96541923D01*
X132344380Y-96637161D01*
X132201523Y-96684780D01*
X132106285Y-96684780D01*
X133439619Y-96684780D02*
X132963428Y-96684780D01*
X132963428Y-95684780D01*
X134344380Y-96589542D02*
X134296761Y-96637161D01*
X134153904Y-96684780D01*
X134058666Y-96684780D01*
X133915809Y-96637161D01*
X133820571Y-96541923D01*
X133772952Y-96446685D01*
X133725333Y-96256209D01*
X133725333Y-96113352D01*
X133772952Y-95922876D01*
X133820571Y-95827638D01*
X133915809Y-95732400D01*
X134058666Y-95684780D01*
X134153904Y-95684780D01*
X134296761Y-95732400D01*
X134344380Y-95780019D01*
D10*
X98464057Y-96677790D02*
X98464057Y-96177790D01*
X98654533Y-96177790D01*
X98702152Y-96201600D01*
X98725961Y-96225409D01*
X98749771Y-96273028D01*
X98749771Y-96344457D01*
X98725961Y-96392076D01*
X98702152Y-96415885D01*
X98654533Y-96439695D01*
X98464057Y-96439695D01*
X99130723Y-96415885D02*
X99202152Y-96439695D01*
X99225961Y-96463504D01*
X99249771Y-96511123D01*
X99249771Y-96582552D01*
X99225961Y-96630171D01*
X99202152Y-96653980D01*
X99154533Y-96677790D01*
X98964057Y-96677790D01*
X98964057Y-96177790D01*
X99130723Y-96177790D01*
X99178342Y-96201600D01*
X99202152Y-96225409D01*
X99225961Y-96273028D01*
X99225961Y-96320647D01*
X99202152Y-96368266D01*
X99178342Y-96392076D01*
X99130723Y-96415885D01*
X98964057Y-96415885D01*
X99725961Y-96677790D02*
X99440247Y-96677790D01*
X99583104Y-96677790D02*
X99583104Y-96177790D01*
X99535485Y-96249219D01*
X99487866Y-96296838D01*
X99440247Y-96320647D01*
X100178342Y-96177790D02*
X99940247Y-96177790D01*
X99916438Y-96415885D01*
X99940247Y-96392076D01*
X99987866Y-96368266D01*
X100106914Y-96368266D01*
X100154533Y-96392076D01*
X100178342Y-96415885D01*
X100202152Y-96463504D01*
X100202152Y-96582552D01*
X100178342Y-96630171D01*
X100154533Y-96653980D01*
X100106914Y-96677790D01*
X99987866Y-96677790D01*
X99940247Y-96653980D01*
X99916438Y-96630171D01*
D11*
X89154533Y-94968266D02*
X88921200Y-94634933D01*
X88754533Y-94968266D02*
X88754533Y-94268266D01*
X89021200Y-94268266D01*
X89087866Y-94301600D01*
X89121200Y-94334933D01*
X89154533Y-94401600D01*
X89154533Y-94501600D01*
X89121200Y-94568266D01*
X89087866Y-94601600D01*
X89021200Y-94634933D01*
X88754533Y-94634933D01*
X89454533Y-94968266D02*
X89454533Y-94501600D01*
X89454533Y-94268266D02*
X89421200Y-94301600D01*
X89454533Y-94334933D01*
X89487866Y-94301600D01*
X89454533Y-94268266D01*
X89454533Y-94334933D01*
X90087866Y-94501600D02*
X90087866Y-95068266D01*
X90054533Y-95134933D01*
X90021200Y-95168266D01*
X89954533Y-95201600D01*
X89854533Y-95201600D01*
X89787866Y-95168266D01*
X90087866Y-94934933D02*
X90021200Y-94968266D01*
X89887866Y-94968266D01*
X89821200Y-94934933D01*
X89787866Y-94901600D01*
X89754533Y-94834933D01*
X89754533Y-94634933D01*
X89787866Y-94568266D01*
X89821200Y-94534933D01*
X89887866Y-94501600D01*
X90021200Y-94501600D01*
X90087866Y-94534933D01*
X90421200Y-94968266D02*
X90421200Y-94268266D01*
X90721200Y-94968266D02*
X90721200Y-94601600D01*
X90687866Y-94534933D01*
X90621200Y-94501600D01*
X90521200Y-94501600D01*
X90454533Y-94534933D01*
X90421200Y-94568266D01*
X90954533Y-94501600D02*
X91221200Y-94501600D01*
X91054533Y-94268266D02*
X91054533Y-94868266D01*
X91087866Y-94934933D01*
X91154533Y-94968266D01*
X91221200Y-94968266D01*
X91421200Y-94768266D02*
X91754533Y-94768266D01*
X91354533Y-94968266D02*
X91587866Y-94268266D01*
X91821200Y-94968266D01*
X92054533Y-94968266D02*
X92054533Y-94501600D01*
X92054533Y-94634933D02*
X92087866Y-94568266D01*
X92121200Y-94534933D01*
X92187866Y-94501600D01*
X92254533Y-94501600D01*
X92487866Y-94968266D02*
X92487866Y-94501600D01*
X92487866Y-94568266D02*
X92521200Y-94534933D01*
X92587866Y-94501600D01*
X92687866Y-94501600D01*
X92754533Y-94534933D01*
X92787866Y-94601600D01*
X92787866Y-94968266D01*
X92787866Y-94601600D02*
X92821200Y-94534933D01*
X92887866Y-94501600D01*
X92987866Y-94501600D01*
X93054533Y-94534933D01*
X93087866Y-94601600D01*
X93087866Y-94968266D01*
X89754533Y-107668266D02*
X89421200Y-107668266D01*
X89421200Y-106968266D01*
X90254533Y-107634933D02*
X90187866Y-107668266D01*
X90054533Y-107668266D01*
X89987866Y-107634933D01*
X89954533Y-107568266D01*
X89954533Y-107301600D01*
X89987866Y-107234933D01*
X90054533Y-107201600D01*
X90187866Y-107201600D01*
X90254533Y-107234933D01*
X90287866Y-107301600D01*
X90287866Y-107368266D01*
X89954533Y-107434933D01*
X90487866Y-107201600D02*
X90754533Y-107201600D01*
X90587866Y-107668266D02*
X90587866Y-107068266D01*
X90621200Y-107001600D01*
X90687866Y-106968266D01*
X90754533Y-106968266D01*
X90887866Y-107201600D02*
X91154533Y-107201600D01*
X90987866Y-106968266D02*
X90987866Y-107568266D01*
X91021200Y-107634933D01*
X91087866Y-107668266D01*
X91154533Y-107668266D01*
X91354533Y-107468266D02*
X91687866Y-107468266D01*
X91287866Y-107668266D02*
X91521200Y-106968266D01*
X91754533Y-107668266D01*
X91987866Y-107668266D02*
X91987866Y-107201600D01*
X91987866Y-107334933D02*
X92021200Y-107268266D01*
X92054533Y-107234933D01*
X92121200Y-107201600D01*
X92187866Y-107201600D01*
X92421200Y-107668266D02*
X92421200Y-107201600D01*
X92421200Y-107268266D02*
X92454533Y-107234933D01*
X92521200Y-107201600D01*
X92621200Y-107201600D01*
X92687866Y-107234933D01*
X92721200Y-107301600D01*
X92721200Y-107668266D01*
X92721200Y-107301600D02*
X92754533Y-107234933D01*
X92821200Y-107201600D01*
X92921200Y-107201600D01*
X92987866Y-107234933D01*
X93021200Y-107301600D01*
X93021200Y-107668266D01*
X173404533Y-110268266D02*
X173804533Y-110268266D01*
X173604533Y-110968266D02*
X173604533Y-110268266D01*
X174337866Y-110968266D02*
X174337866Y-110601600D01*
X174304533Y-110534933D01*
X174237866Y-110501600D01*
X174104533Y-110501600D01*
X174037866Y-110534933D01*
X174337866Y-110934933D02*
X174271200Y-110968266D01*
X174104533Y-110968266D01*
X174037866Y-110934933D01*
X174004533Y-110868266D01*
X174004533Y-110801600D01*
X174037866Y-110734933D01*
X174104533Y-110701600D01*
X174271200Y-110701600D01*
X174337866Y-110668266D01*
X174671200Y-110501600D02*
X174671200Y-111201600D01*
X174671200Y-110534933D02*
X174737866Y-110501600D01*
X174871200Y-110501600D01*
X174937866Y-110534933D01*
X174971200Y-110568266D01*
X175004533Y-110634933D01*
X175004533Y-110834933D01*
X174971200Y-110901600D01*
X174937866Y-110934933D01*
X174871200Y-110968266D01*
X174737866Y-110968266D01*
X174671200Y-110934933D01*
X175571200Y-110934933D02*
X175504533Y-110968266D01*
X175371200Y-110968266D01*
X175304533Y-110934933D01*
X175271200Y-110868266D01*
X175271200Y-110601600D01*
X175304533Y-110534933D01*
X175371200Y-110501600D01*
X175504533Y-110501600D01*
X175571200Y-110534933D01*
X175604533Y-110601600D01*
X175604533Y-110668266D01*
X175271200Y-110734933D01*
X176237866Y-110968266D02*
X175904533Y-110968266D01*
X175904533Y-110268266D01*
X176471200Y-110601600D02*
X176704533Y-110601600D01*
X176804533Y-110968266D02*
X176471200Y-110968266D01*
X176471200Y-110268266D01*
X176804533Y-110268266D01*
X177104533Y-110968266D02*
X177104533Y-110268266D01*
X177271200Y-110268266D01*
X177371200Y-110301600D01*
X177437866Y-110368266D01*
X177471200Y-110434933D01*
X177504533Y-110568266D01*
X177504533Y-110668266D01*
X177471200Y-110801600D01*
X177437866Y-110868266D01*
X177371200Y-110934933D01*
X177271200Y-110968266D01*
X177104533Y-110968266D01*
X177771200Y-110334933D02*
X177804533Y-110301600D01*
X177871200Y-110268266D01*
X178037866Y-110268266D01*
X178104533Y-110301600D01*
X178137866Y-110334933D01*
X178171200Y-110401600D01*
X178171200Y-110468266D01*
X178137866Y-110568266D01*
X177737866Y-110968266D01*
X178171200Y-110968266D01*
X169304533Y-124368266D02*
X169304533Y-123668266D01*
X169537866Y-124168266D01*
X169771200Y-123668266D01*
X169771200Y-124368266D01*
X170104533Y-124368266D02*
X170104533Y-123668266D01*
X170271200Y-123668266D01*
X170371200Y-123701600D01*
X170437866Y-123768266D01*
X170471200Y-123834933D01*
X170504533Y-123968266D01*
X170504533Y-124068266D01*
X170471200Y-124201600D01*
X170437866Y-124268266D01*
X170371200Y-124334933D01*
X170271200Y-124368266D01*
X170104533Y-124368266D01*
X170771200Y-123734933D02*
X170804533Y-123701600D01*
X170871200Y-123668266D01*
X171037866Y-123668266D01*
X171104533Y-123701600D01*
X171137866Y-123734933D01*
X171171200Y-123801600D01*
X171171200Y-123868266D01*
X171137866Y-123968266D01*
X170737866Y-124368266D01*
X171171200Y-124368266D01*
X173404533Y-122468266D02*
X173804533Y-122468266D01*
X173604533Y-123168266D02*
X173604533Y-122468266D01*
X174337866Y-123168266D02*
X174337866Y-122801600D01*
X174304533Y-122734933D01*
X174237866Y-122701600D01*
X174104533Y-122701600D01*
X174037866Y-122734933D01*
X174337866Y-123134933D02*
X174271200Y-123168266D01*
X174104533Y-123168266D01*
X174037866Y-123134933D01*
X174004533Y-123068266D01*
X174004533Y-123001600D01*
X174037866Y-122934933D01*
X174104533Y-122901600D01*
X174271200Y-122901600D01*
X174337866Y-122868266D01*
X174671200Y-122701600D02*
X174671200Y-123401600D01*
X174671200Y-122734933D02*
X174737866Y-122701600D01*
X174871200Y-122701600D01*
X174937866Y-122734933D01*
X174971200Y-122768266D01*
X175004533Y-122834933D01*
X175004533Y-123034933D01*
X174971200Y-123101600D01*
X174937866Y-123134933D01*
X174871200Y-123168266D01*
X174737866Y-123168266D01*
X174671200Y-123134933D01*
X175571200Y-123134933D02*
X175504533Y-123168266D01*
X175371200Y-123168266D01*
X175304533Y-123134933D01*
X175271200Y-123068266D01*
X175271200Y-122801600D01*
X175304533Y-122734933D01*
X175371200Y-122701600D01*
X175504533Y-122701600D01*
X175571200Y-122734933D01*
X175604533Y-122801600D01*
X175604533Y-122868266D01*
X175271200Y-122934933D01*
X176237866Y-123168266D02*
X175904533Y-123168266D01*
X175904533Y-122468266D01*
X176471200Y-122801600D02*
X176704533Y-122801600D01*
X176804533Y-123168266D02*
X176471200Y-123168266D01*
X176471200Y-122468266D01*
X176804533Y-122468266D01*
X177104533Y-123168266D02*
X177104533Y-122468266D01*
X177271200Y-122468266D01*
X177371200Y-122501600D01*
X177437866Y-122568266D01*
X177471200Y-122634933D01*
X177504533Y-122768266D01*
X177504533Y-122868266D01*
X177471200Y-123001600D01*
X177437866Y-123068266D01*
X177371200Y-123134933D01*
X177271200Y-123168266D01*
X177104533Y-123168266D01*
X177737866Y-122468266D02*
X178171200Y-122468266D01*
X177937866Y-122734933D01*
X178037866Y-122734933D01*
X178104533Y-122768266D01*
X178137866Y-122801600D01*
X178171200Y-122868266D01*
X178171200Y-123034933D01*
X178137866Y-123101600D01*
X178104533Y-123134933D01*
X178037866Y-123168266D01*
X177837866Y-123168266D01*
X177771200Y-123134933D01*
X177737866Y-123101600D01*
X169304533Y-126868266D02*
X169304533Y-126168266D01*
X169537866Y-126668266D01*
X169771200Y-126168266D01*
X169771200Y-126868266D01*
X170104533Y-126868266D02*
X170104533Y-126168266D01*
X170271200Y-126168266D01*
X170371200Y-126201600D01*
X170437866Y-126268266D01*
X170471200Y-126334933D01*
X170504533Y-126468266D01*
X170504533Y-126568266D01*
X170471200Y-126701600D01*
X170437866Y-126768266D01*
X170371200Y-126834933D01*
X170271200Y-126868266D01*
X170104533Y-126868266D01*
X170737866Y-126168266D02*
X171171200Y-126168266D01*
X170937866Y-126434933D01*
X171037866Y-126434933D01*
X171104533Y-126468266D01*
X171137866Y-126501600D01*
X171171200Y-126568266D01*
X171171200Y-126734933D01*
X171137866Y-126801600D01*
X171104533Y-126834933D01*
X171037866Y-126868266D01*
X170837866Y-126868266D01*
X170771200Y-126834933D01*
X170737866Y-126801600D01*
X89754533Y-120468266D02*
X89421200Y-120468266D01*
X89421200Y-119768266D01*
X90254533Y-120434933D02*
X90187866Y-120468266D01*
X90054533Y-120468266D01*
X89987866Y-120434933D01*
X89954533Y-120368266D01*
X89954533Y-120101600D01*
X89987866Y-120034933D01*
X90054533Y-120001600D01*
X90187866Y-120001600D01*
X90254533Y-120034933D01*
X90287866Y-120101600D01*
X90287866Y-120168266D01*
X89954533Y-120234933D01*
X90487866Y-120001600D02*
X90754533Y-120001600D01*
X90587866Y-120468266D02*
X90587866Y-119868266D01*
X90621200Y-119801600D01*
X90687866Y-119768266D01*
X90754533Y-119768266D01*
X90887866Y-120001600D02*
X91154533Y-120001600D01*
X90987866Y-119768266D02*
X90987866Y-120368266D01*
X91021200Y-120434933D01*
X91087866Y-120468266D01*
X91154533Y-120468266D01*
X91354533Y-120268266D02*
X91687866Y-120268266D01*
X91287866Y-120468266D02*
X91521200Y-119768266D01*
X91754533Y-120468266D01*
X91987866Y-120468266D02*
X91987866Y-120001600D01*
X91987866Y-120134933D02*
X92021200Y-120068266D01*
X92054533Y-120034933D01*
X92121200Y-120001600D01*
X92187866Y-120001600D01*
X92421200Y-120468266D02*
X92421200Y-120001600D01*
X92421200Y-120068266D02*
X92454533Y-120034933D01*
X92521200Y-120001600D01*
X92621200Y-120001600D01*
X92687866Y-120034933D01*
X92721200Y-120101600D01*
X92721200Y-120468266D01*
X92721200Y-120101600D02*
X92754533Y-120034933D01*
X92821200Y-120001600D01*
X92921200Y-120001600D01*
X92987866Y-120034933D01*
X93021200Y-120101600D01*
X93021200Y-120468266D01*
D10*
X157766666Y-81016666D02*
X157433333Y-81016666D01*
X157400000Y-81350000D01*
X157433333Y-81316666D01*
X157500000Y-81283333D01*
X157666666Y-81283333D01*
X157733333Y-81316666D01*
X157766666Y-81350000D01*
X157800000Y-81416666D01*
X157800000Y-81583333D01*
X157766666Y-81650000D01*
X157733333Y-81683333D01*
X157666666Y-81716666D01*
X157500000Y-81716666D01*
X157433333Y-81683333D01*
X157400000Y-81650000D01*
X158000000Y-81016666D02*
X158233333Y-81716666D01*
X158466666Y-81016666D01*
X154590247Y-120575290D02*
X154875961Y-120575290D01*
X154733104Y-121075290D02*
X154733104Y-120575290D01*
X155233104Y-121051480D02*
X155185485Y-121075290D01*
X155090247Y-121075290D01*
X155042628Y-121051480D01*
X155018819Y-121003861D01*
X155018819Y-120813385D01*
X155042628Y-120765766D01*
X155090247Y-120741957D01*
X155185485Y-120741957D01*
X155233104Y-120765766D01*
X155256914Y-120813385D01*
X155256914Y-120861004D01*
X155018819Y-120908623D01*
X155471200Y-121075290D02*
X155471200Y-120741957D01*
X155471200Y-120837195D02*
X155495009Y-120789576D01*
X155518819Y-120765766D01*
X155566438Y-120741957D01*
X155614057Y-120741957D01*
X155780723Y-121075290D02*
X155780723Y-120741957D01*
X155780723Y-120789576D02*
X155804533Y-120765766D01*
X155852152Y-120741957D01*
X155923580Y-120741957D01*
X155971200Y-120765766D01*
X155995009Y-120813385D01*
X155995009Y-121075290D01*
X155995009Y-120813385D02*
X156018819Y-120765766D01*
X156066438Y-120741957D01*
X156137866Y-120741957D01*
X156185485Y-120765766D01*
X156209295Y-120813385D01*
X156209295Y-121075290D01*
X156447390Y-121075290D02*
X156447390Y-120741957D01*
X156447390Y-120575290D02*
X156423580Y-120599100D01*
X156447390Y-120622909D01*
X156471200Y-120599100D01*
X156447390Y-120575290D01*
X156447390Y-120622909D01*
X156685485Y-120741957D02*
X156685485Y-121075290D01*
X156685485Y-120789576D02*
X156709295Y-120765766D01*
X156756914Y-120741957D01*
X156828342Y-120741957D01*
X156875961Y-120765766D01*
X156899771Y-120813385D01*
X156899771Y-121075290D01*
X157352152Y-121075290D02*
X157352152Y-120813385D01*
X157328342Y-120765766D01*
X157280723Y-120741957D01*
X157185485Y-120741957D01*
X157137866Y-120765766D01*
X157352152Y-121051480D02*
X157304533Y-121075290D01*
X157185485Y-121075290D01*
X157137866Y-121051480D01*
X157114057Y-121003861D01*
X157114057Y-120956242D01*
X157137866Y-120908623D01*
X157185485Y-120884814D01*
X157304533Y-120884814D01*
X157352152Y-120861004D01*
X157518819Y-120741957D02*
X157709295Y-120741957D01*
X157590247Y-120575290D02*
X157590247Y-121003861D01*
X157614057Y-121051480D01*
X157661676Y-121075290D01*
X157709295Y-121075290D01*
X157875961Y-121075290D02*
X157875961Y-120741957D01*
X157875961Y-120575290D02*
X157852152Y-120599100D01*
X157875961Y-120622909D01*
X157899771Y-120599100D01*
X157875961Y-120575290D01*
X157875961Y-120622909D01*
X158185485Y-121075290D02*
X158137866Y-121051480D01*
X158114057Y-121027671D01*
X158090247Y-120980052D01*
X158090247Y-120837195D01*
X158114057Y-120789576D01*
X158137866Y-120765766D01*
X158185485Y-120741957D01*
X158256914Y-120741957D01*
X158304533Y-120765766D01*
X158328342Y-120789576D01*
X158352152Y-120837195D01*
X158352152Y-120980052D01*
X158328342Y-121027671D01*
X158304533Y-121051480D01*
X158256914Y-121075290D01*
X158185485Y-121075290D01*
X158566438Y-120741957D02*
X158566438Y-121075290D01*
X158566438Y-120789576D02*
X158590247Y-120765766D01*
X158637866Y-120741957D01*
X158709295Y-120741957D01*
X158756914Y-120765766D01*
X158780723Y-120813385D01*
X158780723Y-121075290D01*
X155614057Y-121880290D02*
X155447390Y-121642195D01*
X155328342Y-121880290D02*
X155328342Y-121380290D01*
X155518819Y-121380290D01*
X155566438Y-121404100D01*
X155590247Y-121427909D01*
X155614057Y-121475528D01*
X155614057Y-121546957D01*
X155590247Y-121594576D01*
X155566438Y-121618385D01*
X155518819Y-121642195D01*
X155328342Y-121642195D01*
X156018819Y-121856480D02*
X155971200Y-121880290D01*
X155875961Y-121880290D01*
X155828342Y-121856480D01*
X155804533Y-121808861D01*
X155804533Y-121618385D01*
X155828342Y-121570766D01*
X155875961Y-121546957D01*
X155971200Y-121546957D01*
X156018819Y-121570766D01*
X156042628Y-121618385D01*
X156042628Y-121666004D01*
X155804533Y-121713623D01*
X156233104Y-121856480D02*
X156280723Y-121880290D01*
X156375961Y-121880290D01*
X156423580Y-121856480D01*
X156447390Y-121808861D01*
X156447390Y-121785052D01*
X156423580Y-121737433D01*
X156375961Y-121713623D01*
X156304533Y-121713623D01*
X156256914Y-121689814D01*
X156233104Y-121642195D01*
X156233104Y-121618385D01*
X156256914Y-121570766D01*
X156304533Y-121546957D01*
X156375961Y-121546957D01*
X156423580Y-121570766D01*
X156661676Y-121880290D02*
X156661676Y-121546957D01*
X156661676Y-121380290D02*
X156637866Y-121404100D01*
X156661676Y-121427909D01*
X156685485Y-121404100D01*
X156661676Y-121380290D01*
X156661676Y-121427909D01*
X156875961Y-121856480D02*
X156923580Y-121880290D01*
X157018819Y-121880290D01*
X157066438Y-121856480D01*
X157090247Y-121808861D01*
X157090247Y-121785052D01*
X157066438Y-121737433D01*
X157018819Y-121713623D01*
X156947390Y-121713623D01*
X156899771Y-121689814D01*
X156875961Y-121642195D01*
X156875961Y-121618385D01*
X156899771Y-121570766D01*
X156947390Y-121546957D01*
X157018819Y-121546957D01*
X157066438Y-121570766D01*
X157233104Y-121546957D02*
X157423580Y-121546957D01*
X157304533Y-121380290D02*
X157304533Y-121808861D01*
X157328342Y-121856480D01*
X157375961Y-121880290D01*
X157423580Y-121880290D01*
X157661676Y-121880290D02*
X157614057Y-121856480D01*
X157590247Y-121832671D01*
X157566438Y-121785052D01*
X157566438Y-121642195D01*
X157590247Y-121594576D01*
X157614057Y-121570766D01*
X157661676Y-121546957D01*
X157733104Y-121546957D01*
X157780723Y-121570766D01*
X157804533Y-121594576D01*
X157828342Y-121642195D01*
X157828342Y-121785052D01*
X157804533Y-121832671D01*
X157780723Y-121856480D01*
X157733104Y-121880290D01*
X157661676Y-121880290D01*
X158042628Y-121880290D02*
X158042628Y-121546957D01*
X158042628Y-121642195D02*
X158066438Y-121594576D01*
X158090247Y-121570766D01*
X158137866Y-121546957D01*
X158185485Y-121546957D01*
D11*
X167204533Y-119568266D02*
X167204533Y-118868266D01*
X167437866Y-119368266D01*
X167671200Y-118868266D01*
X167671200Y-119568266D01*
X168004533Y-119568266D02*
X168004533Y-118868266D01*
X168171200Y-118868266D01*
X168271200Y-118901600D01*
X168337866Y-118968266D01*
X168371200Y-119034933D01*
X168404533Y-119168266D01*
X168404533Y-119268266D01*
X168371200Y-119401600D01*
X168337866Y-119468266D01*
X168271200Y-119534933D01*
X168171200Y-119568266D01*
X168004533Y-119568266D01*
X169071200Y-119568266D02*
X168671200Y-119568266D01*
X168871200Y-119568266D02*
X168871200Y-118868266D01*
X168804533Y-118968266D01*
X168737866Y-119034933D01*
X168671200Y-119068266D01*
D10*
X117502152Y-102577790D02*
X117502152Y-102077790D01*
X117692628Y-102077790D01*
X117740247Y-102101600D01*
X117764057Y-102125409D01*
X117787866Y-102173028D01*
X117787866Y-102244457D01*
X117764057Y-102292076D01*
X117740247Y-102315885D01*
X117692628Y-102339695D01*
X117502152Y-102339695D01*
X118287866Y-102530171D02*
X118264057Y-102553980D01*
X118192628Y-102577790D01*
X118145009Y-102577790D01*
X118073580Y-102553980D01*
X118025961Y-102506361D01*
X118002152Y-102458742D01*
X117978342Y-102363504D01*
X117978342Y-102292076D01*
X118002152Y-102196838D01*
X118025961Y-102149219D01*
X118073580Y-102101600D01*
X118145009Y-102077790D01*
X118192628Y-102077790D01*
X118264057Y-102101600D01*
X118287866Y-102125409D01*
X118573580Y-102292076D02*
X118525961Y-102268266D01*
X118502152Y-102244457D01*
X118478342Y-102196838D01*
X118478342Y-102173028D01*
X118502152Y-102125409D01*
X118525961Y-102101600D01*
X118573580Y-102077790D01*
X118668819Y-102077790D01*
X118716438Y-102101600D01*
X118740247Y-102125409D01*
X118764057Y-102173028D01*
X118764057Y-102196838D01*
X118740247Y-102244457D01*
X118716438Y-102268266D01*
X118668819Y-102292076D01*
X118573580Y-102292076D01*
X118525961Y-102315885D01*
X118502152Y-102339695D01*
X118478342Y-102387314D01*
X118478342Y-102482552D01*
X118502152Y-102530171D01*
X118525961Y-102553980D01*
X118573580Y-102577790D01*
X118668819Y-102577790D01*
X118716438Y-102553980D01*
X118740247Y-102530171D01*
X118764057Y-102482552D01*
X118764057Y-102387314D01*
X118740247Y-102339695D01*
X118716438Y-102315885D01*
X118668819Y-102292076D01*
X121602152Y-108377790D02*
X121602152Y-107877790D01*
X121792628Y-107877790D01*
X121840247Y-107901600D01*
X121864057Y-107925409D01*
X121887866Y-107973028D01*
X121887866Y-108044457D01*
X121864057Y-108092076D01*
X121840247Y-108115885D01*
X121792628Y-108139695D01*
X121602152Y-108139695D01*
X122387866Y-108330171D02*
X122364057Y-108353980D01*
X122292628Y-108377790D01*
X122245009Y-108377790D01*
X122173580Y-108353980D01*
X122125961Y-108306361D01*
X122102152Y-108258742D01*
X122078342Y-108163504D01*
X122078342Y-108092076D01*
X122102152Y-107996838D01*
X122125961Y-107949219D01*
X122173580Y-107901600D01*
X122245009Y-107877790D01*
X122292628Y-107877790D01*
X122364057Y-107901600D01*
X122387866Y-107925409D01*
X122625961Y-108377790D02*
X122721200Y-108377790D01*
X122768819Y-108353980D01*
X122792628Y-108330171D01*
X122840247Y-108258742D01*
X122864057Y-108163504D01*
X122864057Y-107973028D01*
X122840247Y-107925409D01*
X122816438Y-107901600D01*
X122768819Y-107877790D01*
X122673580Y-107877790D01*
X122625961Y-107901600D01*
X122602152Y-107925409D01*
X122578342Y-107973028D01*
X122578342Y-108092076D01*
X122602152Y-108139695D01*
X122625961Y-108163504D01*
X122673580Y-108187314D01*
X122768819Y-108187314D01*
X122816438Y-108163504D01*
X122840247Y-108139695D01*
X122864057Y-108092076D01*
X121637866Y-106577790D02*
X121637866Y-106077790D01*
X121828342Y-106077790D01*
X121875961Y-106101600D01*
X121899771Y-106125409D01*
X121923580Y-106173028D01*
X121923580Y-106244457D01*
X121899771Y-106292076D01*
X121875961Y-106315885D01*
X121828342Y-106339695D01*
X121637866Y-106339695D01*
X122114057Y-106434933D02*
X122352152Y-106434933D01*
X122066438Y-106577790D02*
X122233104Y-106077790D01*
X122399771Y-106577790D01*
X122637866Y-106292076D02*
X122590247Y-106268266D01*
X122566438Y-106244457D01*
X122542628Y-106196838D01*
X122542628Y-106173028D01*
X122566438Y-106125409D01*
X122590247Y-106101600D01*
X122637866Y-106077790D01*
X122733104Y-106077790D01*
X122780723Y-106101600D01*
X122804533Y-106125409D01*
X122828342Y-106173028D01*
X122828342Y-106196838D01*
X122804533Y-106244457D01*
X122780723Y-106268266D01*
X122733104Y-106292076D01*
X122637866Y-106292076D01*
X122590247Y-106315885D01*
X122566438Y-106339695D01*
X122542628Y-106387314D01*
X122542628Y-106482552D01*
X122566438Y-106530171D01*
X122590247Y-106553980D01*
X122637866Y-106577790D01*
X122733104Y-106577790D01*
X122780723Y-106553980D01*
X122804533Y-106530171D01*
X122828342Y-106482552D01*
X122828342Y-106387314D01*
X122804533Y-106339695D01*
X122780723Y-106315885D01*
X122733104Y-106292076D01*
D11*
X103704533Y-122068266D02*
X103704533Y-121368266D01*
X103937866Y-121868266D01*
X104171200Y-121368266D01*
X104171200Y-122068266D01*
X104504533Y-122068266D02*
X104504533Y-121368266D01*
X104671200Y-121368266D01*
X104771200Y-121401600D01*
X104837866Y-121468266D01*
X104871200Y-121534933D01*
X104904533Y-121668266D01*
X104904533Y-121768266D01*
X104871200Y-121901600D01*
X104837866Y-121968266D01*
X104771200Y-122034933D01*
X104671200Y-122068266D01*
X104504533Y-122068266D01*
X105571200Y-122068266D02*
X105171200Y-122068266D01*
X105371200Y-122068266D02*
X105371200Y-121368266D01*
X105304533Y-121468266D01*
X105237866Y-121534933D01*
X105171200Y-121568266D01*
D10*
X157350000Y-79916666D02*
X157350000Y-79216666D01*
X157683333Y-79450000D02*
X157683333Y-79916666D01*
X157683333Y-79516666D02*
X157716666Y-79483333D01*
X157783333Y-79450000D01*
X157883333Y-79450000D01*
X157950000Y-79483333D01*
X157983333Y-79550000D01*
X157983333Y-79916666D01*
X158616666Y-79916666D02*
X158616666Y-79216666D01*
X158616666Y-79883333D02*
X158550000Y-79916666D01*
X158416666Y-79916666D01*
X158350000Y-79883333D01*
X158316666Y-79850000D01*
X158283333Y-79783333D01*
X158283333Y-79583333D01*
X158316666Y-79516666D01*
X158350000Y-79483333D01*
X158416666Y-79450000D01*
X158550000Y-79450000D01*
X158616666Y-79483333D01*
X158950000Y-79916666D02*
X158950000Y-79450000D01*
X158950000Y-79216666D02*
X158916666Y-79250000D01*
X158950000Y-79283333D01*
X158983333Y-79250000D01*
X158950000Y-79216666D01*
X158950000Y-79283333D01*
X159583333Y-79883333D02*
X159516666Y-79916666D01*
X159383333Y-79916666D01*
X159316666Y-79883333D01*
X159283333Y-79850000D01*
X159250000Y-79783333D01*
X159250000Y-79583333D01*
X159283333Y-79516666D01*
X159316666Y-79483333D01*
X159383333Y-79450000D01*
X159516666Y-79450000D01*
X159583333Y-79483333D01*
X160183333Y-79916666D02*
X160183333Y-79550000D01*
X160150000Y-79483333D01*
X160083333Y-79450000D01*
X159950000Y-79450000D01*
X159883333Y-79483333D01*
X160183333Y-79883333D02*
X160116666Y-79916666D01*
X159950000Y-79916666D01*
X159883333Y-79883333D01*
X159850000Y-79816666D01*
X159850000Y-79750000D01*
X159883333Y-79683333D01*
X159950000Y-79650000D01*
X160116666Y-79650000D01*
X160183333Y-79616666D01*
X160416666Y-79450000D02*
X160683333Y-79450000D01*
X160516666Y-79216666D02*
X160516666Y-79816666D01*
X160550000Y-79883333D01*
X160616666Y-79916666D01*
X160683333Y-79916666D01*
X161016666Y-79916666D02*
X160950000Y-79883333D01*
X160916666Y-79850000D01*
X160883333Y-79783333D01*
X160883333Y-79583333D01*
X160916666Y-79516666D01*
X160950000Y-79483333D01*
X161016666Y-79450000D01*
X161116666Y-79450000D01*
X161183333Y-79483333D01*
X161216666Y-79516666D01*
X161250000Y-79583333D01*
X161250000Y-79783333D01*
X161216666Y-79850000D01*
X161183333Y-79883333D01*
X161116666Y-79916666D01*
X161016666Y-79916666D01*
X161550000Y-79916666D02*
X161550000Y-79450000D01*
X161550000Y-79583333D02*
X161583333Y-79516666D01*
X161616666Y-79483333D01*
X161683333Y-79450000D01*
X161750000Y-79450000D01*
D11*
X169304533Y-129468266D02*
X169304533Y-128768266D01*
X169537866Y-129268266D01*
X169771200Y-128768266D01*
X169771200Y-129468266D01*
X170104533Y-129468266D02*
X170104533Y-128768266D01*
X170271200Y-128768266D01*
X170371200Y-128801600D01*
X170437866Y-128868266D01*
X170471200Y-128934933D01*
X170504533Y-129068266D01*
X170504533Y-129168266D01*
X170471200Y-129301600D01*
X170437866Y-129368266D01*
X170371200Y-129434933D01*
X170271200Y-129468266D01*
X170104533Y-129468266D01*
X171104533Y-129001600D02*
X171104533Y-129468266D01*
X170937866Y-128734933D02*
X170771200Y-129234933D01*
X171204533Y-129234933D01*
D10*
X157316666Y-77850000D02*
X157550000Y-77850000D01*
X157650000Y-78216666D02*
X157316666Y-78216666D01*
X157316666Y-77516666D01*
X157650000Y-77516666D01*
X158283333Y-77516666D02*
X157950000Y-77516666D01*
X157916666Y-77850000D01*
X157950000Y-77816666D01*
X158016666Y-77783333D01*
X158183333Y-77783333D01*
X158250000Y-77816666D01*
X158283333Y-77850000D01*
X158316666Y-77916666D01*
X158316666Y-78083333D01*
X158283333Y-78150000D01*
X158250000Y-78183333D01*
X158183333Y-78216666D01*
X158016666Y-78216666D01*
X157950000Y-78183333D01*
X157916666Y-78150000D01*
X158516666Y-77516666D02*
X158750000Y-78216666D01*
X158983333Y-77516666D01*
D11*
X119604533Y-122068266D02*
X119604533Y-121368266D01*
X119837866Y-121868266D01*
X120071200Y-121368266D01*
X120071200Y-122068266D01*
X120404533Y-122068266D02*
X120404533Y-121368266D01*
X120571200Y-121368266D01*
X120671200Y-121401600D01*
X120737866Y-121468266D01*
X120771200Y-121534933D01*
X120804533Y-121668266D01*
X120804533Y-121768266D01*
X120771200Y-121901600D01*
X120737866Y-121968266D01*
X120671200Y-122034933D01*
X120571200Y-122068266D01*
X120404533Y-122068266D01*
X121071200Y-121434933D02*
X121104533Y-121401600D01*
X121171200Y-121368266D01*
X121337866Y-121368266D01*
X121404533Y-121401600D01*
X121437866Y-121434933D01*
X121471200Y-121501600D01*
X121471200Y-121568266D01*
X121437866Y-121668266D01*
X121037866Y-122068266D01*
X121471200Y-122068266D01*
D10*
X101159295Y-106977790D02*
X101254533Y-106977790D01*
X101302152Y-107001600D01*
X101349771Y-107049219D01*
X101373580Y-107144457D01*
X101373580Y-107311123D01*
X101349771Y-107406361D01*
X101302152Y-107453980D01*
X101254533Y-107477790D01*
X101159295Y-107477790D01*
X101111676Y-107453980D01*
X101064057Y-107406361D01*
X101040247Y-107311123D01*
X101040247Y-107144457D01*
X101064057Y-107049219D01*
X101111676Y-107001600D01*
X101159295Y-106977790D01*
X101587866Y-107477790D02*
X101587866Y-106977790D01*
X101873580Y-107477790D01*
X101873580Y-106977790D01*
X102468819Y-106953980D02*
X102040247Y-107596838D01*
X102730723Y-106977790D02*
X102825961Y-106977790D01*
X102873580Y-107001600D01*
X102921200Y-107049219D01*
X102945009Y-107144457D01*
X102945009Y-107311123D01*
X102921200Y-107406361D01*
X102873580Y-107453980D01*
X102825961Y-107477790D01*
X102730723Y-107477790D01*
X102683104Y-107453980D01*
X102635485Y-107406361D01*
X102611676Y-107311123D01*
X102611676Y-107144457D01*
X102635485Y-107049219D01*
X102683104Y-107001600D01*
X102730723Y-106977790D01*
X103325961Y-107215885D02*
X103159295Y-107215885D01*
X103159295Y-107477790D02*
X103159295Y-106977790D01*
X103397390Y-106977790D01*
X103754533Y-107215885D02*
X103587866Y-107215885D01*
X103587866Y-107477790D02*
X103587866Y-106977790D01*
X103825961Y-106977790D01*
D11*
X89054533Y-82268266D02*
X88821200Y-81934933D01*
X88654533Y-82268266D02*
X88654533Y-81568266D01*
X88921200Y-81568266D01*
X88987866Y-81601600D01*
X89021200Y-81634933D01*
X89054533Y-81701600D01*
X89054533Y-81801600D01*
X89021200Y-81868266D01*
X88987866Y-81901600D01*
X88921200Y-81934933D01*
X88654533Y-81934933D01*
X89354533Y-82268266D02*
X89354533Y-81801600D01*
X89354533Y-81568266D02*
X89321200Y-81601600D01*
X89354533Y-81634933D01*
X89387866Y-81601600D01*
X89354533Y-81568266D01*
X89354533Y-81634933D01*
X89987866Y-81801600D02*
X89987866Y-82368266D01*
X89954533Y-82434933D01*
X89921200Y-82468266D01*
X89854533Y-82501600D01*
X89754533Y-82501600D01*
X89687866Y-82468266D01*
X89987866Y-82234933D02*
X89921200Y-82268266D01*
X89787866Y-82268266D01*
X89721200Y-82234933D01*
X89687866Y-82201600D01*
X89654533Y-82134933D01*
X89654533Y-81934933D01*
X89687866Y-81868266D01*
X89721200Y-81834933D01*
X89787866Y-81801600D01*
X89921200Y-81801600D01*
X89987866Y-81834933D01*
X90321200Y-82268266D02*
X90321200Y-81568266D01*
X90621200Y-82268266D02*
X90621200Y-81901600D01*
X90587866Y-81834933D01*
X90521200Y-81801600D01*
X90421200Y-81801600D01*
X90354533Y-81834933D01*
X90321200Y-81868266D01*
X90854533Y-81801600D02*
X91121200Y-81801600D01*
X90954533Y-81568266D02*
X90954533Y-82168266D01*
X90987866Y-82234933D01*
X91054533Y-82268266D01*
X91121200Y-82268266D01*
X91321200Y-82068266D02*
X91654533Y-82068266D01*
X91254533Y-82268266D02*
X91487866Y-81568266D01*
X91721200Y-82268266D01*
X91954533Y-82268266D02*
X91954533Y-81801600D01*
X91954533Y-81934933D02*
X91987866Y-81868266D01*
X92021200Y-81834933D01*
X92087866Y-81801600D01*
X92154533Y-81801600D01*
X92387866Y-82268266D02*
X92387866Y-81801600D01*
X92387866Y-81868266D02*
X92421200Y-81834933D01*
X92487866Y-81801600D01*
X92587866Y-81801600D01*
X92654533Y-81834933D01*
X92687866Y-81901600D01*
X92687866Y-82268266D01*
X92687866Y-81901600D02*
X92721200Y-81834933D01*
X92787866Y-81801600D01*
X92887866Y-81801600D01*
X92954533Y-81834933D01*
X92987866Y-81901600D01*
X92987866Y-82268266D01*
X151604533Y-122068266D02*
X151604533Y-121368266D01*
X151837866Y-121868266D01*
X152071200Y-121368266D01*
X152071200Y-122068266D01*
X152404533Y-122068266D02*
X152404533Y-121368266D01*
X152571200Y-121368266D01*
X152671200Y-121401600D01*
X152737866Y-121468266D01*
X152771200Y-121534933D01*
X152804533Y-121668266D01*
X152804533Y-121768266D01*
X152771200Y-121901600D01*
X152737866Y-121968266D01*
X152671200Y-122034933D01*
X152571200Y-122068266D01*
X152404533Y-122068266D01*
X153404533Y-121601600D02*
X153404533Y-122068266D01*
X153237866Y-121334933D02*
X153071200Y-121834933D01*
X153504533Y-121834933D01*
D10*
X98299771Y-109577790D02*
X98299771Y-109077790D01*
X98585485Y-109577790D01*
X98585485Y-109077790D01*
X99109295Y-109577790D02*
X98942628Y-109339695D01*
X98823580Y-109577790D02*
X98823580Y-109077790D01*
X99014057Y-109077790D01*
X99061676Y-109101600D01*
X99085485Y-109125409D01*
X99109295Y-109173028D01*
X99109295Y-109244457D01*
X99085485Y-109292076D01*
X99061676Y-109315885D01*
X99014057Y-109339695D01*
X98823580Y-109339695D01*
X99299771Y-109553980D02*
X99371200Y-109577790D01*
X99490247Y-109577790D01*
X99537866Y-109553980D01*
X99561676Y-109530171D01*
X99585485Y-109482552D01*
X99585485Y-109434933D01*
X99561676Y-109387314D01*
X99537866Y-109363504D01*
X99490247Y-109339695D01*
X99395009Y-109315885D01*
X99347390Y-109292076D01*
X99323580Y-109268266D01*
X99299771Y-109220647D01*
X99299771Y-109173028D01*
X99323580Y-109125409D01*
X99347390Y-109101600D01*
X99395009Y-109077790D01*
X99514057Y-109077790D01*
X99585485Y-109101600D01*
X99728342Y-109077790D02*
X100014057Y-109077790D01*
X99871200Y-109577790D02*
X99871200Y-109077790D01*
D12*
%TO.C,C54*%
X135419169Y-91308706D02*
X135419169Y-91376050D01*
X135351825Y-91510737D01*
X135284482Y-91578080D01*
X135149795Y-91645424D01*
X135015108Y-91645424D01*
X134914093Y-91611752D01*
X134745734Y-91510737D01*
X134644719Y-91409722D01*
X134543703Y-91241363D01*
X134510032Y-91140348D01*
X134510032Y-91005661D01*
X134577375Y-90870974D01*
X134644719Y-90803630D01*
X134779406Y-90736287D01*
X134846749Y-90736287D01*
X135419169Y-90029180D02*
X135082451Y-90365897D01*
X135385497Y-90736287D01*
X135385497Y-90668943D01*
X135419169Y-90567928D01*
X135587528Y-90399569D01*
X135688543Y-90365897D01*
X135755887Y-90365897D01*
X135856902Y-90399569D01*
X136025261Y-90567928D01*
X136058932Y-90668943D01*
X136058932Y-90736287D01*
X136025261Y-90837302D01*
X135856902Y-91005661D01*
X135755887Y-91039332D01*
X135688543Y-91039332D01*
X136294635Y-89625119D02*
X136766039Y-90096523D01*
X135856902Y-89524103D02*
X136193619Y-90197538D01*
X136631352Y-89759806D01*
%TO.C,C44*%
X119758006Y-95797543D02*
X119758006Y-95864887D01*
X119690662Y-95999574D01*
X119623319Y-96066917D01*
X119488632Y-96134261D01*
X119353945Y-96134261D01*
X119252930Y-96100589D01*
X119084571Y-95999574D01*
X118983556Y-95898559D01*
X118882540Y-95730200D01*
X118848869Y-95629185D01*
X118848869Y-95494498D01*
X118916212Y-95359811D01*
X118983556Y-95292467D01*
X119118243Y-95225124D01*
X119185586Y-95225124D01*
X119960037Y-94787391D02*
X120431441Y-95258795D01*
X119522304Y-94686375D02*
X119859021Y-95359811D01*
X120296754Y-94922078D01*
X120633472Y-94113956D02*
X121104876Y-94585360D01*
X120195739Y-94012940D02*
X120532456Y-94686375D01*
X120970189Y-94248643D01*
%TO.C,U16*%
X139973580Y-79889695D02*
X140783104Y-79889695D01*
X140878342Y-79842076D01*
X140925961Y-79794457D01*
X140973580Y-79699219D01*
X140973580Y-79508742D01*
X140925961Y-79413504D01*
X140878342Y-79365885D01*
X140783104Y-79318266D01*
X139973580Y-79318266D01*
X140973580Y-78318266D02*
X140973580Y-78889695D01*
X140973580Y-78603980D02*
X139973580Y-78603980D01*
X140116438Y-78699219D01*
X140211676Y-78794457D01*
X140259295Y-78889695D01*
X139973580Y-77461123D02*
X139973580Y-77651600D01*
X140021200Y-77746838D01*
X140068819Y-77794457D01*
X140211676Y-77889695D01*
X140402152Y-77937314D01*
X140783104Y-77937314D01*
X140878342Y-77889695D01*
X140925961Y-77842076D01*
X140973580Y-77746838D01*
X140973580Y-77556361D01*
X140925961Y-77461123D01*
X140878342Y-77413504D01*
X140783104Y-77365885D01*
X140545009Y-77365885D01*
X140449771Y-77413504D01*
X140402152Y-77461123D01*
X140354533Y-77556361D01*
X140354533Y-77746838D01*
X140402152Y-77842076D01*
X140449771Y-77889695D01*
X140545009Y-77937314D01*
%TO.C,R54*%
X163323580Y-93994457D02*
X162847390Y-94327790D01*
X163323580Y-94565885D02*
X162323580Y-94565885D01*
X162323580Y-94184933D01*
X162371200Y-94089695D01*
X162418819Y-94042076D01*
X162514057Y-93994457D01*
X162656914Y-93994457D01*
X162752152Y-94042076D01*
X162799771Y-94089695D01*
X162847390Y-94184933D01*
X162847390Y-94565885D01*
X162323580Y-93089695D02*
X162323580Y-93565885D01*
X162799771Y-93613504D01*
X162752152Y-93565885D01*
X162704533Y-93470647D01*
X162704533Y-93232552D01*
X162752152Y-93137314D01*
X162799771Y-93089695D01*
X162895009Y-93042076D01*
X163133104Y-93042076D01*
X163228342Y-93089695D01*
X163275961Y-93137314D01*
X163323580Y-93232552D01*
X163323580Y-93470647D01*
X163275961Y-93565885D01*
X163228342Y-93613504D01*
X162656914Y-92184933D02*
X163323580Y-92184933D01*
X162275961Y-92423028D02*
X162990247Y-92661123D01*
X162990247Y-92042076D01*
%TO.C,LS1*%
X161362742Y-69303580D02*
X160886552Y-69303580D01*
X160886552Y-68303580D01*
X161648457Y-69255961D02*
X161791314Y-69303580D01*
X162029409Y-69303580D01*
X162124647Y-69255961D01*
X162172266Y-69208342D01*
X162219885Y-69113104D01*
X162219885Y-69017866D01*
X162172266Y-68922628D01*
X162124647Y-68875009D01*
X162029409Y-68827390D01*
X161838933Y-68779771D01*
X161743695Y-68732152D01*
X161696076Y-68684533D01*
X161648457Y-68589295D01*
X161648457Y-68494057D01*
X161696076Y-68398819D01*
X161743695Y-68351200D01*
X161838933Y-68303580D01*
X162077028Y-68303580D01*
X162219885Y-68351200D01*
X163172266Y-69303580D02*
X162600838Y-69303580D01*
X162886552Y-69303580D02*
X162886552Y-68303580D01*
X162791314Y-68446438D01*
X162696076Y-68541676D01*
X162600838Y-68589295D01*
%TO.C,C26*%
X148611942Y-88265942D02*
X148564323Y-88313561D01*
X148421466Y-88361180D01*
X148326228Y-88361180D01*
X148183371Y-88313561D01*
X148088133Y-88218323D01*
X148040514Y-88123085D01*
X147992895Y-87932609D01*
X147992895Y-87789752D01*
X148040514Y-87599276D01*
X148088133Y-87504038D01*
X148183371Y-87408800D01*
X148326228Y-87361180D01*
X148421466Y-87361180D01*
X148564323Y-87408800D01*
X148611942Y-87456419D01*
X148992895Y-87456419D02*
X149040514Y-87408800D01*
X149135752Y-87361180D01*
X149373847Y-87361180D01*
X149469085Y-87408800D01*
X149516704Y-87456419D01*
X149564323Y-87551657D01*
X149564323Y-87646895D01*
X149516704Y-87789752D01*
X148945276Y-88361180D01*
X149564323Y-88361180D01*
X150421466Y-87361180D02*
X150230990Y-87361180D01*
X150135752Y-87408800D01*
X150088133Y-87456419D01*
X149992895Y-87599276D01*
X149945276Y-87789752D01*
X149945276Y-88170704D01*
X149992895Y-88265942D01*
X150040514Y-88313561D01*
X150135752Y-88361180D01*
X150326228Y-88361180D01*
X150421466Y-88313561D01*
X150469085Y-88265942D01*
X150516704Y-88170704D01*
X150516704Y-87932609D01*
X150469085Y-87837371D01*
X150421466Y-87789752D01*
X150326228Y-87742133D01*
X150135752Y-87742133D01*
X150040514Y-87789752D01*
X149992895Y-87837371D01*
X149945276Y-87932609D01*
D13*
%TO.C,U17*%
X164048819Y-95906123D02*
X164048819Y-96934219D01*
X164109295Y-97055171D01*
X164169771Y-97115647D01*
X164290723Y-97176123D01*
X164532628Y-97176123D01*
X164653580Y-97115647D01*
X164714057Y-97055171D01*
X164774533Y-96934219D01*
X164774533Y-95906123D01*
X166044533Y-97176123D02*
X165318819Y-97176123D01*
X165681676Y-97176123D02*
X165681676Y-95906123D01*
X165560723Y-96087552D01*
X165439771Y-96208504D01*
X165318819Y-96268980D01*
X166467866Y-95906123D02*
X167314533Y-95906123D01*
X166770247Y-97176123D01*
D12*
%TO.C,C32*%
X121433942Y-84346742D02*
X121386323Y-84394361D01*
X121243466Y-84441980D01*
X121148228Y-84441980D01*
X121005371Y-84394361D01*
X120910133Y-84299123D01*
X120862514Y-84203885D01*
X120814895Y-84013409D01*
X120814895Y-83870552D01*
X120862514Y-83680076D01*
X120910133Y-83584838D01*
X121005371Y-83489600D01*
X121148228Y-83441980D01*
X121243466Y-83441980D01*
X121386323Y-83489600D01*
X121433942Y-83537219D01*
X121767276Y-83441980D02*
X122386323Y-83441980D01*
X122052990Y-83822933D01*
X122195847Y-83822933D01*
X122291085Y-83870552D01*
X122338704Y-83918171D01*
X122386323Y-84013409D01*
X122386323Y-84251504D01*
X122338704Y-84346742D01*
X122291085Y-84394361D01*
X122195847Y-84441980D01*
X121910133Y-84441980D01*
X121814895Y-84394361D01*
X121767276Y-84346742D01*
X122767276Y-83537219D02*
X122814895Y-83489600D01*
X122910133Y-83441980D01*
X123148228Y-83441980D01*
X123243466Y-83489600D01*
X123291085Y-83537219D01*
X123338704Y-83632457D01*
X123338704Y-83727695D01*
X123291085Y-83870552D01*
X122719657Y-84441980D01*
X123338704Y-84441980D01*
%TO.C,C37*%
X144278342Y-86908742D02*
X144230723Y-86956361D01*
X144087866Y-87003980D01*
X143992628Y-87003980D01*
X143849771Y-86956361D01*
X143754533Y-86861123D01*
X143706914Y-86765885D01*
X143659295Y-86575409D01*
X143659295Y-86432552D01*
X143706914Y-86242076D01*
X143754533Y-86146838D01*
X143849771Y-86051600D01*
X143992628Y-86003980D01*
X144087866Y-86003980D01*
X144230723Y-86051600D01*
X144278342Y-86099219D01*
X144611676Y-86003980D02*
X145230723Y-86003980D01*
X144897390Y-86384933D01*
X145040247Y-86384933D01*
X145135485Y-86432552D01*
X145183104Y-86480171D01*
X145230723Y-86575409D01*
X145230723Y-86813504D01*
X145183104Y-86908742D01*
X145135485Y-86956361D01*
X145040247Y-87003980D01*
X144754533Y-87003980D01*
X144659295Y-86956361D01*
X144611676Y-86908742D01*
X145564057Y-86003980D02*
X146230723Y-86003980D01*
X145802152Y-87003980D01*
D10*
%TO.C,U8*%
X128350666Y-77068266D02*
X128350666Y-77634933D01*
X128384000Y-77701600D01*
X128417333Y-77734933D01*
X128484000Y-77768266D01*
X128617333Y-77768266D01*
X128684000Y-77734933D01*
X128717333Y-77701600D01*
X128750666Y-77634933D01*
X128750666Y-77068266D01*
X129184000Y-77368266D02*
X129117333Y-77334933D01*
X129084000Y-77301600D01*
X129050666Y-77234933D01*
X129050666Y-77201600D01*
X129084000Y-77134933D01*
X129117333Y-77101600D01*
X129184000Y-77068266D01*
X129317333Y-77068266D01*
X129384000Y-77101600D01*
X129417333Y-77134933D01*
X129450666Y-77201600D01*
X129450666Y-77234933D01*
X129417333Y-77301600D01*
X129384000Y-77334933D01*
X129317333Y-77368266D01*
X129184000Y-77368266D01*
X129117333Y-77401600D01*
X129084000Y-77434933D01*
X129050666Y-77501600D01*
X129050666Y-77634933D01*
X129084000Y-77701600D01*
X129117333Y-77734933D01*
X129184000Y-77768266D01*
X129317333Y-77768266D01*
X129384000Y-77734933D01*
X129417333Y-77701600D01*
X129450666Y-77634933D01*
X129450666Y-77501600D01*
X129417333Y-77434933D01*
X129384000Y-77401600D01*
X129317333Y-77368266D01*
D12*
%TO.C,SW12*%
X114311676Y-97932561D02*
X114454533Y-97980180D01*
X114692628Y-97980180D01*
X114787866Y-97932561D01*
X114835485Y-97884942D01*
X114883104Y-97789704D01*
X114883104Y-97694466D01*
X114835485Y-97599228D01*
X114787866Y-97551609D01*
X114692628Y-97503990D01*
X114502152Y-97456371D01*
X114406914Y-97408752D01*
X114359295Y-97361133D01*
X114311676Y-97265895D01*
X114311676Y-97170657D01*
X114359295Y-97075419D01*
X114406914Y-97027800D01*
X114502152Y-96980180D01*
X114740247Y-96980180D01*
X114883104Y-97027800D01*
X115216438Y-96980180D02*
X115454533Y-97980180D01*
X115645009Y-97265895D01*
X115835485Y-97980180D01*
X116073580Y-96980180D01*
X116978342Y-97980180D02*
X116406914Y-97980180D01*
X116692628Y-97980180D02*
X116692628Y-96980180D01*
X116597390Y-97123038D01*
X116502152Y-97218276D01*
X116406914Y-97265895D01*
X117359295Y-97075419D02*
X117406914Y-97027800D01*
X117502152Y-96980180D01*
X117740247Y-96980180D01*
X117835485Y-97027800D01*
X117883104Y-97075419D01*
X117930723Y-97170657D01*
X117930723Y-97265895D01*
X117883104Y-97408752D01*
X117311676Y-97980180D01*
X117930723Y-97980180D01*
%TO.C,Y2*%
X128915809Y-115625790D02*
X128915809Y-116101980D01*
X128582476Y-115101980D02*
X128915809Y-115625790D01*
X129249142Y-115101980D01*
X129534857Y-115197219D02*
X129582476Y-115149600D01*
X129677714Y-115101980D01*
X129915809Y-115101980D01*
X130011047Y-115149600D01*
X130058666Y-115197219D01*
X130106285Y-115292457D01*
X130106285Y-115387695D01*
X130058666Y-115530552D01*
X129487238Y-116101980D01*
X130106285Y-116101980D01*
%TO.C,R60*%
X135478342Y-105803980D02*
X135145009Y-105327790D01*
X134906914Y-105803980D02*
X134906914Y-104803980D01*
X135287866Y-104803980D01*
X135383104Y-104851600D01*
X135430723Y-104899219D01*
X135478342Y-104994457D01*
X135478342Y-105137314D01*
X135430723Y-105232552D01*
X135383104Y-105280171D01*
X135287866Y-105327790D01*
X134906914Y-105327790D01*
X136335485Y-104803980D02*
X136145009Y-104803980D01*
X136049771Y-104851600D01*
X136002152Y-104899219D01*
X135906914Y-105042076D01*
X135859295Y-105232552D01*
X135859295Y-105613504D01*
X135906914Y-105708742D01*
X135954533Y-105756361D01*
X136049771Y-105803980D01*
X136240247Y-105803980D01*
X136335485Y-105756361D01*
X136383104Y-105708742D01*
X136430723Y-105613504D01*
X136430723Y-105375409D01*
X136383104Y-105280171D01*
X136335485Y-105232552D01*
X136240247Y-105184933D01*
X136049771Y-105184933D01*
X135954533Y-105232552D01*
X135906914Y-105280171D01*
X135859295Y-105375409D01*
X137049771Y-104803980D02*
X137145009Y-104803980D01*
X137240247Y-104851600D01*
X137287866Y-104899219D01*
X137335485Y-104994457D01*
X137383104Y-105184933D01*
X137383104Y-105423028D01*
X137335485Y-105613504D01*
X137287866Y-105708742D01*
X137240247Y-105756361D01*
X137145009Y-105803980D01*
X137049771Y-105803980D01*
X136954533Y-105756361D01*
X136906914Y-105708742D01*
X136859295Y-105613504D01*
X136811676Y-105423028D01*
X136811676Y-105184933D01*
X136859295Y-104994457D01*
X136906914Y-104899219D01*
X136954533Y-104851600D01*
X137049771Y-104803980D01*
%TO.C,C46*%
X139419169Y-95808706D02*
X139419169Y-95876050D01*
X139351825Y-96010737D01*
X139284482Y-96078080D01*
X139149795Y-96145424D01*
X139015108Y-96145424D01*
X138914093Y-96111752D01*
X138745734Y-96010737D01*
X138644719Y-95909722D01*
X138543703Y-95741363D01*
X138510032Y-95640348D01*
X138510032Y-95505661D01*
X138577375Y-95370974D01*
X138644719Y-95303630D01*
X138779406Y-95236287D01*
X138846749Y-95236287D01*
X139621200Y-94798554D02*
X140092604Y-95269958D01*
X139183467Y-94697538D02*
X139520184Y-95370974D01*
X139957917Y-94933241D01*
X140058932Y-93889416D02*
X139924245Y-94024103D01*
X139890574Y-94125119D01*
X139890574Y-94192462D01*
X139924245Y-94360821D01*
X140025261Y-94529180D01*
X140294635Y-94798554D01*
X140395650Y-94832225D01*
X140462993Y-94832225D01*
X140564009Y-94798554D01*
X140698696Y-94663867D01*
X140732367Y-94562851D01*
X140732367Y-94495508D01*
X140698696Y-94394493D01*
X140530337Y-94226134D01*
X140429322Y-94192462D01*
X140361978Y-94192462D01*
X140260963Y-94226134D01*
X140126276Y-94360821D01*
X140092604Y-94461836D01*
X140092604Y-94529180D01*
X140126276Y-94630195D01*
D14*
%TO.C,C27*%
X109859506Y-76102407D02*
X109840758Y-76121155D01*
X109784515Y-76139902D01*
X109747020Y-76139902D01*
X109690777Y-76121155D01*
X109653282Y-76083659D01*
X109634534Y-76046164D01*
X109615786Y-75971173D01*
X109615786Y-75914930D01*
X109634534Y-75839940D01*
X109653282Y-75802444D01*
X109690777Y-75764949D01*
X109747020Y-75746201D01*
X109784515Y-75746201D01*
X109840758Y-75764949D01*
X109859506Y-75783697D01*
X110009487Y-75783697D02*
X110028235Y-75764949D01*
X110065730Y-75746201D01*
X110159469Y-75746201D01*
X110196964Y-75764949D01*
X110215712Y-75783697D01*
X110234459Y-75821192D01*
X110234459Y-75858687D01*
X110215712Y-75914930D01*
X109990740Y-76139902D01*
X110234459Y-76139902D01*
X110365693Y-75746201D02*
X110628160Y-75746201D01*
X110459431Y-76139902D01*
D12*
%TO.C,SW2*%
X101037866Y-97506361D02*
X101180723Y-97553980D01*
X101418819Y-97553980D01*
X101514057Y-97506361D01*
X101561676Y-97458742D01*
X101609295Y-97363504D01*
X101609295Y-97268266D01*
X101561676Y-97173028D01*
X101514057Y-97125409D01*
X101418819Y-97077790D01*
X101228342Y-97030171D01*
X101133104Y-96982552D01*
X101085485Y-96934933D01*
X101037866Y-96839695D01*
X101037866Y-96744457D01*
X101085485Y-96649219D01*
X101133104Y-96601600D01*
X101228342Y-96553980D01*
X101466438Y-96553980D01*
X101609295Y-96601600D01*
X101942628Y-96553980D02*
X102180723Y-97553980D01*
X102371200Y-96839695D01*
X102561676Y-97553980D01*
X102799771Y-96553980D01*
X103133104Y-96649219D02*
X103180723Y-96601600D01*
X103275961Y-96553980D01*
X103514057Y-96553980D01*
X103609295Y-96601600D01*
X103656914Y-96649219D01*
X103704533Y-96744457D01*
X103704533Y-96839695D01*
X103656914Y-96982552D01*
X103085485Y-97553980D01*
X103704533Y-97553980D01*
%TO.C,R51*%
X152793580Y-94244457D02*
X152317390Y-94577790D01*
X152793580Y-94815885D02*
X151793580Y-94815885D01*
X151793580Y-94434933D01*
X151841200Y-94339695D01*
X151888819Y-94292076D01*
X151984057Y-94244457D01*
X152126914Y-94244457D01*
X152222152Y-94292076D01*
X152269771Y-94339695D01*
X152317390Y-94434933D01*
X152317390Y-94815885D01*
X151793580Y-93339695D02*
X151793580Y-93815885D01*
X152269771Y-93863504D01*
X152222152Y-93815885D01*
X152174533Y-93720647D01*
X152174533Y-93482552D01*
X152222152Y-93387314D01*
X152269771Y-93339695D01*
X152365009Y-93292076D01*
X152603104Y-93292076D01*
X152698342Y-93339695D01*
X152745961Y-93387314D01*
X152793580Y-93482552D01*
X152793580Y-93720647D01*
X152745961Y-93815885D01*
X152698342Y-93863504D01*
X152793580Y-92339695D02*
X152793580Y-92911123D01*
X152793580Y-92625409D02*
X151793580Y-92625409D01*
X151936438Y-92720647D01*
X152031676Y-92815885D01*
X152079295Y-92911123D01*
%TO.C,D3*%
X118483104Y-78603980D02*
X118483104Y-77603980D01*
X118721200Y-77603980D01*
X118864057Y-77651600D01*
X118959295Y-77746838D01*
X119006914Y-77842076D01*
X119054533Y-78032552D01*
X119054533Y-78175409D01*
X119006914Y-78365885D01*
X118959295Y-78461123D01*
X118864057Y-78556361D01*
X118721200Y-78603980D01*
X118483104Y-78603980D01*
X119387866Y-77603980D02*
X120006914Y-77603980D01*
X119673580Y-77984933D01*
X119816438Y-77984933D01*
X119911676Y-78032552D01*
X119959295Y-78080171D01*
X120006914Y-78175409D01*
X120006914Y-78413504D01*
X119959295Y-78508742D01*
X119911676Y-78556361D01*
X119816438Y-78603980D01*
X119530723Y-78603980D01*
X119435485Y-78556361D01*
X119387866Y-78508742D01*
%TO.C,C51*%
X140112342Y-118636057D02*
X140159961Y-118683676D01*
X140207580Y-118826533D01*
X140207580Y-118921771D01*
X140159961Y-119064628D01*
X140064723Y-119159866D01*
X139969485Y-119207485D01*
X139779009Y-119255104D01*
X139636152Y-119255104D01*
X139445676Y-119207485D01*
X139350438Y-119159866D01*
X139255200Y-119064628D01*
X139207580Y-118921771D01*
X139207580Y-118826533D01*
X139255200Y-118683676D01*
X139302819Y-118636057D01*
X139207580Y-117731295D02*
X139207580Y-118207485D01*
X139683771Y-118255104D01*
X139636152Y-118207485D01*
X139588533Y-118112247D01*
X139588533Y-117874152D01*
X139636152Y-117778914D01*
X139683771Y-117731295D01*
X139779009Y-117683676D01*
X140017104Y-117683676D01*
X140112342Y-117731295D01*
X140159961Y-117778914D01*
X140207580Y-117874152D01*
X140207580Y-118112247D01*
X140159961Y-118207485D01*
X140112342Y-118255104D01*
X140207580Y-116731295D02*
X140207580Y-117302723D01*
X140207580Y-117017009D02*
X139207580Y-117017009D01*
X139350438Y-117112247D01*
X139445676Y-117207485D01*
X139493295Y-117302723D01*
%TO.C,REF\u002A\u002A*%
X85287866Y-125603980D02*
X84954533Y-125127790D01*
X84716438Y-125603980D02*
X84716438Y-124603980D01*
X85097390Y-124603980D01*
X85192628Y-124651600D01*
X85240247Y-124699219D01*
X85287866Y-124794457D01*
X85287866Y-124937314D01*
X85240247Y-125032552D01*
X85192628Y-125080171D01*
X85097390Y-125127790D01*
X84716438Y-125127790D01*
X85716438Y-125080171D02*
X86049771Y-125080171D01*
X86192628Y-125603980D02*
X85716438Y-125603980D01*
X85716438Y-124603980D01*
X86192628Y-124603980D01*
X86954533Y-125080171D02*
X86621200Y-125080171D01*
X86621200Y-125603980D02*
X86621200Y-124603980D01*
X87097390Y-124603980D01*
X87621200Y-124603980D02*
X87621200Y-124842076D01*
X87383104Y-124746838D02*
X87621200Y-124842076D01*
X87859295Y-124746838D01*
X87478342Y-125032552D02*
X87621200Y-124842076D01*
X87764057Y-125032552D01*
X88383104Y-124603980D02*
X88383104Y-124842076D01*
X88145009Y-124746838D02*
X88383104Y-124842076D01*
X88621200Y-124746838D01*
X88240247Y-125032552D02*
X88383104Y-124842076D01*
X88525961Y-125032552D01*
%TO.C,J7*%
X139787866Y-64303980D02*
X139787866Y-65018266D01*
X139740247Y-65161123D01*
X139645009Y-65256361D01*
X139502152Y-65303980D01*
X139406914Y-65303980D01*
X140168819Y-64303980D02*
X140835485Y-64303980D01*
X140406914Y-65303980D01*
%TO.C,Q8*%
X159275961Y-100649219D02*
X159180723Y-100601600D01*
X159085485Y-100506361D01*
X158942628Y-100363504D01*
X158847390Y-100315885D01*
X158752152Y-100315885D01*
X158799771Y-100553980D02*
X158704533Y-100506361D01*
X158609295Y-100411123D01*
X158561676Y-100220647D01*
X158561676Y-99887314D01*
X158609295Y-99696838D01*
X158704533Y-99601600D01*
X158799771Y-99553980D01*
X158990247Y-99553980D01*
X159085485Y-99601600D01*
X159180723Y-99696838D01*
X159228342Y-99887314D01*
X159228342Y-100220647D01*
X159180723Y-100411123D01*
X159085485Y-100506361D01*
X158990247Y-100553980D01*
X158799771Y-100553980D01*
X159799771Y-99982552D02*
X159704533Y-99934933D01*
X159656914Y-99887314D01*
X159609295Y-99792076D01*
X159609295Y-99744457D01*
X159656914Y-99649219D01*
X159704533Y-99601600D01*
X159799771Y-99553980D01*
X159990247Y-99553980D01*
X160085485Y-99601600D01*
X160133104Y-99649219D01*
X160180723Y-99744457D01*
X160180723Y-99792076D01*
X160133104Y-99887314D01*
X160085485Y-99934933D01*
X159990247Y-99982552D01*
X159799771Y-99982552D01*
X159704533Y-100030171D01*
X159656914Y-100077790D01*
X159609295Y-100173028D01*
X159609295Y-100363504D01*
X159656914Y-100458742D01*
X159704533Y-100506361D01*
X159799771Y-100553980D01*
X159990247Y-100553980D01*
X160085485Y-100506361D01*
X160133104Y-100458742D01*
X160180723Y-100363504D01*
X160180723Y-100173028D01*
X160133104Y-100077790D01*
X160085485Y-100030171D01*
X159990247Y-99982552D01*
%TO.C,C47*%
X138100532Y-101227269D02*
X138100532Y-101294613D01*
X138033188Y-101429300D01*
X137965845Y-101496643D01*
X137831158Y-101563987D01*
X137696471Y-101563987D01*
X137595456Y-101530315D01*
X137427097Y-101429300D01*
X137326082Y-101328285D01*
X137225066Y-101159926D01*
X137191395Y-101058911D01*
X137191395Y-100924224D01*
X137258738Y-100789537D01*
X137326082Y-100722193D01*
X137460769Y-100654850D01*
X137528112Y-100654850D01*
X138302563Y-100217117D02*
X138773967Y-100688521D01*
X137864830Y-100116101D02*
X138201547Y-100789537D01*
X138639280Y-100351804D01*
X138369906Y-99678369D02*
X138841311Y-99206964D01*
X139245372Y-100217117D01*
D10*
%TO.C,U14*%
X115616666Y-78866666D02*
X116183333Y-78866666D01*
X116250000Y-78833333D01*
X116283333Y-78800000D01*
X116316666Y-78733333D01*
X116316666Y-78600000D01*
X116283333Y-78533333D01*
X116250000Y-78500000D01*
X116183333Y-78466666D01*
X115616666Y-78466666D01*
X116316666Y-77766666D02*
X116316666Y-78166666D01*
X116316666Y-77966666D02*
X115616666Y-77966666D01*
X115716666Y-78033333D01*
X115783333Y-78100000D01*
X115816666Y-78166666D01*
X115850000Y-77166666D02*
X116316666Y-77166666D01*
X115583333Y-77333333D02*
X116083333Y-77500000D01*
X116083333Y-77066666D01*
D12*
%TO.C,C50*%
X140112342Y-111342457D02*
X140159961Y-111390076D01*
X140207580Y-111532933D01*
X140207580Y-111628171D01*
X140159961Y-111771028D01*
X140064723Y-111866266D01*
X139969485Y-111913885D01*
X139779009Y-111961504D01*
X139636152Y-111961504D01*
X139445676Y-111913885D01*
X139350438Y-111866266D01*
X139255200Y-111771028D01*
X139207580Y-111628171D01*
X139207580Y-111532933D01*
X139255200Y-111390076D01*
X139302819Y-111342457D01*
X139207580Y-110437695D02*
X139207580Y-110913885D01*
X139683771Y-110961504D01*
X139636152Y-110913885D01*
X139588533Y-110818647D01*
X139588533Y-110580552D01*
X139636152Y-110485314D01*
X139683771Y-110437695D01*
X139779009Y-110390076D01*
X140017104Y-110390076D01*
X140112342Y-110437695D01*
X140159961Y-110485314D01*
X140207580Y-110580552D01*
X140207580Y-110818647D01*
X140159961Y-110913885D01*
X140112342Y-110961504D01*
X139207580Y-109771028D02*
X139207580Y-109675790D01*
X139255200Y-109580552D01*
X139302819Y-109532933D01*
X139398057Y-109485314D01*
X139588533Y-109437695D01*
X139826628Y-109437695D01*
X140017104Y-109485314D01*
X140112342Y-109532933D01*
X140159961Y-109580552D01*
X140207580Y-109675790D01*
X140207580Y-109771028D01*
X140159961Y-109866266D01*
X140112342Y-109913885D01*
X140017104Y-109961504D01*
X139826628Y-110009123D01*
X139588533Y-110009123D01*
X139398057Y-109961504D01*
X139302819Y-109913885D01*
X139255200Y-109866266D01*
X139207580Y-109771028D01*
%TO.C,U2*%
X166359295Y-78303980D02*
X166359295Y-79113504D01*
X166406914Y-79208742D01*
X166454533Y-79256361D01*
X166549771Y-79303980D01*
X166740247Y-79303980D01*
X166835485Y-79256361D01*
X166883104Y-79208742D01*
X166930723Y-79113504D01*
X166930723Y-78303980D01*
X167359295Y-78399219D02*
X167406914Y-78351600D01*
X167502152Y-78303980D01*
X167740247Y-78303980D01*
X167835485Y-78351600D01*
X167883104Y-78399219D01*
X167930723Y-78494457D01*
X167930723Y-78589695D01*
X167883104Y-78732552D01*
X167311676Y-79303980D01*
X167930723Y-79303980D01*
%TO.C,MD1*%
X108975778Y-87469205D02*
X108975778Y-86681803D01*
X109238245Y-87244233D01*
X109500713Y-86681803D01*
X109500713Y-87469205D01*
X109875666Y-87469205D02*
X109875666Y-86681803D01*
X110063143Y-86681803D01*
X110175629Y-86719299D01*
X110250619Y-86794289D01*
X110288115Y-86869280D01*
X110325610Y-87019261D01*
X110325610Y-87131747D01*
X110288115Y-87281729D01*
X110250619Y-87356719D01*
X110175629Y-87431710D01*
X110063143Y-87469205D01*
X109875666Y-87469205D01*
X111075517Y-87469205D02*
X110625573Y-87469205D01*
X110850545Y-87469205D02*
X110850545Y-86681803D01*
X110775554Y-86794289D01*
X110700563Y-86869280D01*
X110625573Y-86906775D01*
%TO.C,SW5*%
X162628066Y-128793561D02*
X162770923Y-128841180D01*
X163009019Y-128841180D01*
X163104257Y-128793561D01*
X163151876Y-128745942D01*
X163199495Y-128650704D01*
X163199495Y-128555466D01*
X163151876Y-128460228D01*
X163104257Y-128412609D01*
X163009019Y-128364990D01*
X162818542Y-128317371D01*
X162723304Y-128269752D01*
X162675685Y-128222133D01*
X162628066Y-128126895D01*
X162628066Y-128031657D01*
X162675685Y-127936419D01*
X162723304Y-127888800D01*
X162818542Y-127841180D01*
X163056638Y-127841180D01*
X163199495Y-127888800D01*
X163532828Y-127841180D02*
X163770923Y-128841180D01*
X163961400Y-128126895D01*
X164151876Y-128841180D01*
X164389971Y-127841180D01*
X165247114Y-127841180D02*
X164770923Y-127841180D01*
X164723304Y-128317371D01*
X164770923Y-128269752D01*
X164866161Y-128222133D01*
X165104257Y-128222133D01*
X165199495Y-128269752D01*
X165247114Y-128317371D01*
X165294733Y-128412609D01*
X165294733Y-128650704D01*
X165247114Y-128745942D01*
X165199495Y-128793561D01*
X165104257Y-128841180D01*
X164866161Y-128841180D01*
X164770923Y-128793561D01*
X164723304Y-128745942D01*
%TO.C,C34*%
X128478342Y-85608742D02*
X128430723Y-85656361D01*
X128287866Y-85703980D01*
X128192628Y-85703980D01*
X128049771Y-85656361D01*
X127954533Y-85561123D01*
X127906914Y-85465885D01*
X127859295Y-85275409D01*
X127859295Y-85132552D01*
X127906914Y-84942076D01*
X127954533Y-84846838D01*
X128049771Y-84751600D01*
X128192628Y-84703980D01*
X128287866Y-84703980D01*
X128430723Y-84751600D01*
X128478342Y-84799219D01*
X128811676Y-84703980D02*
X129430723Y-84703980D01*
X129097390Y-85084933D01*
X129240247Y-85084933D01*
X129335485Y-85132552D01*
X129383104Y-85180171D01*
X129430723Y-85275409D01*
X129430723Y-85513504D01*
X129383104Y-85608742D01*
X129335485Y-85656361D01*
X129240247Y-85703980D01*
X128954533Y-85703980D01*
X128859295Y-85656361D01*
X128811676Y-85608742D01*
X130287866Y-85037314D02*
X130287866Y-85703980D01*
X130049771Y-84656361D02*
X129811676Y-85370647D01*
X130430723Y-85370647D01*
%TO.C,J9*%
X97969066Y-126164780D02*
X97969066Y-126879066D01*
X97921447Y-127021923D01*
X97826209Y-127117161D01*
X97683352Y-127164780D01*
X97588114Y-127164780D01*
X98492876Y-127164780D02*
X98683352Y-127164780D01*
X98778590Y-127117161D01*
X98826209Y-127069542D01*
X98921447Y-126926685D01*
X98969066Y-126736209D01*
X98969066Y-126355257D01*
X98921447Y-126260019D01*
X98873828Y-126212400D01*
X98778590Y-126164780D01*
X98588114Y-126164780D01*
X98492876Y-126212400D01*
X98445257Y-126260019D01*
X98397638Y-126355257D01*
X98397638Y-126593352D01*
X98445257Y-126688590D01*
X98492876Y-126736209D01*
X98588114Y-126783828D01*
X98778590Y-126783828D01*
X98873828Y-126736209D01*
X98921447Y-126688590D01*
X98969066Y-126593352D01*
%TO.C,C30*%
X132644742Y-82716657D02*
X132692361Y-82764276D01*
X132739980Y-82907133D01*
X132739980Y-83002371D01*
X132692361Y-83145228D01*
X132597123Y-83240466D01*
X132501885Y-83288085D01*
X132311409Y-83335704D01*
X132168552Y-83335704D01*
X131978076Y-83288085D01*
X131882838Y-83240466D01*
X131787600Y-83145228D01*
X131739980Y-83002371D01*
X131739980Y-82907133D01*
X131787600Y-82764276D01*
X131835219Y-82716657D01*
X131739980Y-82383323D02*
X131739980Y-81764276D01*
X132120933Y-82097609D01*
X132120933Y-81954752D01*
X132168552Y-81859514D01*
X132216171Y-81811895D01*
X132311409Y-81764276D01*
X132549504Y-81764276D01*
X132644742Y-81811895D01*
X132692361Y-81859514D01*
X132739980Y-81954752D01*
X132739980Y-82240466D01*
X132692361Y-82335704D01*
X132644742Y-82383323D01*
X131739980Y-81145228D02*
X131739980Y-81049990D01*
X131787600Y-80954752D01*
X131835219Y-80907133D01*
X131930457Y-80859514D01*
X132120933Y-80811895D01*
X132359028Y-80811895D01*
X132549504Y-80859514D01*
X132644742Y-80907133D01*
X132692361Y-80954752D01*
X132739980Y-81049990D01*
X132739980Y-81145228D01*
X132692361Y-81240466D01*
X132644742Y-81288085D01*
X132549504Y-81335704D01*
X132359028Y-81383323D01*
X132120933Y-81383323D01*
X131930457Y-81335704D01*
X131835219Y-81288085D01*
X131787600Y-81240466D01*
X131739980Y-81145228D01*
%TO.C,J8*%
X113996466Y-126164780D02*
X113996466Y-126879066D01*
X113948847Y-127021923D01*
X113853609Y-127117161D01*
X113710752Y-127164780D01*
X113615514Y-127164780D01*
X114615514Y-126593352D02*
X114520276Y-126545733D01*
X114472657Y-126498114D01*
X114425038Y-126402876D01*
X114425038Y-126355257D01*
X114472657Y-126260019D01*
X114520276Y-126212400D01*
X114615514Y-126164780D01*
X114805990Y-126164780D01*
X114901228Y-126212400D01*
X114948847Y-126260019D01*
X114996466Y-126355257D01*
X114996466Y-126402876D01*
X114948847Y-126498114D01*
X114901228Y-126545733D01*
X114805990Y-126593352D01*
X114615514Y-126593352D01*
X114520276Y-126640971D01*
X114472657Y-126688590D01*
X114425038Y-126783828D01*
X114425038Y-126974304D01*
X114472657Y-127069542D01*
X114520276Y-127117161D01*
X114615514Y-127164780D01*
X114805990Y-127164780D01*
X114901228Y-127117161D01*
X114948847Y-127069542D01*
X114996466Y-126974304D01*
X114996466Y-126783828D01*
X114948847Y-126688590D01*
X114901228Y-126640971D01*
X114805990Y-126593352D01*
%TO.C,REF\u002A\u002A*%
X85787866Y-66303980D02*
X85454533Y-65827790D01*
X85216438Y-66303980D02*
X85216438Y-65303980D01*
X85597390Y-65303980D01*
X85692628Y-65351600D01*
X85740247Y-65399219D01*
X85787866Y-65494457D01*
X85787866Y-65637314D01*
X85740247Y-65732552D01*
X85692628Y-65780171D01*
X85597390Y-65827790D01*
X85216438Y-65827790D01*
X86216438Y-65780171D02*
X86549771Y-65780171D01*
X86692628Y-66303980D02*
X86216438Y-66303980D01*
X86216438Y-65303980D01*
X86692628Y-65303980D01*
X87454533Y-65780171D02*
X87121200Y-65780171D01*
X87121200Y-66303980D02*
X87121200Y-65303980D01*
X87597390Y-65303980D01*
X88121200Y-65303980D02*
X88121200Y-65542076D01*
X87883104Y-65446838D02*
X88121200Y-65542076D01*
X88359295Y-65446838D01*
X87978342Y-65732552D02*
X88121200Y-65542076D01*
X88264057Y-65732552D01*
X88883104Y-65303980D02*
X88883104Y-65542076D01*
X88645009Y-65446838D02*
X88883104Y-65542076D01*
X89121200Y-65446838D01*
X88740247Y-65732552D02*
X88883104Y-65542076D01*
X89025961Y-65732552D01*
%TO.C,R57*%
X96728342Y-122053980D02*
X96395009Y-121577790D01*
X96156914Y-122053980D02*
X96156914Y-121053980D01*
X96537866Y-121053980D01*
X96633104Y-121101600D01*
X96680723Y-121149219D01*
X96728342Y-121244457D01*
X96728342Y-121387314D01*
X96680723Y-121482552D01*
X96633104Y-121530171D01*
X96537866Y-121577790D01*
X96156914Y-121577790D01*
X97633104Y-121053980D02*
X97156914Y-121053980D01*
X97109295Y-121530171D01*
X97156914Y-121482552D01*
X97252152Y-121434933D01*
X97490247Y-121434933D01*
X97585485Y-121482552D01*
X97633104Y-121530171D01*
X97680723Y-121625409D01*
X97680723Y-121863504D01*
X97633104Y-121958742D01*
X97585485Y-122006361D01*
X97490247Y-122053980D01*
X97252152Y-122053980D01*
X97156914Y-122006361D01*
X97109295Y-121958742D01*
X98014057Y-121053980D02*
X98680723Y-121053980D01*
X98252152Y-122053980D01*
%TO.C,R56*%
X163323580Y-102844457D02*
X162847390Y-103177790D01*
X163323580Y-103415885D02*
X162323580Y-103415885D01*
X162323580Y-103034933D01*
X162371200Y-102939695D01*
X162418819Y-102892076D01*
X162514057Y-102844457D01*
X162656914Y-102844457D01*
X162752152Y-102892076D01*
X162799771Y-102939695D01*
X162847390Y-103034933D01*
X162847390Y-103415885D01*
X162323580Y-101939695D02*
X162323580Y-102415885D01*
X162799771Y-102463504D01*
X162752152Y-102415885D01*
X162704533Y-102320647D01*
X162704533Y-102082552D01*
X162752152Y-101987314D01*
X162799771Y-101939695D01*
X162895009Y-101892076D01*
X163133104Y-101892076D01*
X163228342Y-101939695D01*
X163275961Y-101987314D01*
X163323580Y-102082552D01*
X163323580Y-102320647D01*
X163275961Y-102415885D01*
X163228342Y-102463504D01*
X162323580Y-101034933D02*
X162323580Y-101225409D01*
X162371200Y-101320647D01*
X162418819Y-101368266D01*
X162561676Y-101463504D01*
X162752152Y-101511123D01*
X163133104Y-101511123D01*
X163228342Y-101463504D01*
X163275961Y-101415885D01*
X163323580Y-101320647D01*
X163323580Y-101130171D01*
X163275961Y-101034933D01*
X163228342Y-100987314D01*
X163133104Y-100939695D01*
X162895009Y-100939695D01*
X162799771Y-100987314D01*
X162752152Y-101034933D01*
X162704533Y-101130171D01*
X162704533Y-101320647D01*
X162752152Y-101415885D01*
X162799771Y-101463504D01*
X162895009Y-101511123D01*
%TO.C,R53*%
X152793580Y-102844457D02*
X152317390Y-103177790D01*
X152793580Y-103415885D02*
X151793580Y-103415885D01*
X151793580Y-103034933D01*
X151841200Y-102939695D01*
X151888819Y-102892076D01*
X151984057Y-102844457D01*
X152126914Y-102844457D01*
X152222152Y-102892076D01*
X152269771Y-102939695D01*
X152317390Y-103034933D01*
X152317390Y-103415885D01*
X151793580Y-101939695D02*
X151793580Y-102415885D01*
X152269771Y-102463504D01*
X152222152Y-102415885D01*
X152174533Y-102320647D01*
X152174533Y-102082552D01*
X152222152Y-101987314D01*
X152269771Y-101939695D01*
X152365009Y-101892076D01*
X152603104Y-101892076D01*
X152698342Y-101939695D01*
X152745961Y-101987314D01*
X152793580Y-102082552D01*
X152793580Y-102320647D01*
X152745961Y-102415885D01*
X152698342Y-102463504D01*
X151793580Y-101558742D02*
X151793580Y-100939695D01*
X152174533Y-101273028D01*
X152174533Y-101130171D01*
X152222152Y-101034933D01*
X152269771Y-100987314D01*
X152365009Y-100939695D01*
X152603104Y-100939695D01*
X152698342Y-100987314D01*
X152745961Y-101034933D01*
X152793580Y-101130171D01*
X152793580Y-101415885D01*
X152745961Y-101511123D01*
X152698342Y-101558742D01*
%TO.C,J4*%
X88257866Y-87973980D02*
X88257866Y-88688266D01*
X88210247Y-88831123D01*
X88115009Y-88926361D01*
X87972152Y-88973980D01*
X87876914Y-88973980D01*
X89162628Y-88307314D02*
X89162628Y-88973980D01*
X88924533Y-87926361D02*
X88686438Y-88640647D01*
X89305485Y-88640647D01*
%TO.C,D7*%
X154783104Y-81703980D02*
X154783104Y-80703980D01*
X155021200Y-80703980D01*
X155164057Y-80751600D01*
X155259295Y-80846838D01*
X155306914Y-80942076D01*
X155354533Y-81132552D01*
X155354533Y-81275409D01*
X155306914Y-81465885D01*
X155259295Y-81561123D01*
X155164057Y-81656361D01*
X155021200Y-81703980D01*
X154783104Y-81703980D01*
X155687866Y-80703980D02*
X156354533Y-80703980D01*
X155925961Y-81703980D01*
%TO.C,D9*%
X118633104Y-104803980D02*
X118633104Y-103803980D01*
X118871200Y-103803980D01*
X119014057Y-103851600D01*
X119109295Y-103946838D01*
X119156914Y-104042076D01*
X119204533Y-104232552D01*
X119204533Y-104375409D01*
X119156914Y-104565885D01*
X119109295Y-104661123D01*
X119014057Y-104756361D01*
X118871200Y-104803980D01*
X118633104Y-104803980D01*
X119680723Y-104803980D02*
X119871200Y-104803980D01*
X119966438Y-104756361D01*
X120014057Y-104708742D01*
X120109295Y-104565885D01*
X120156914Y-104375409D01*
X120156914Y-103994457D01*
X120109295Y-103899219D01*
X120061676Y-103851600D01*
X119966438Y-103803980D01*
X119775961Y-103803980D01*
X119680723Y-103851600D01*
X119633104Y-103899219D01*
X119585485Y-103994457D01*
X119585485Y-104232552D01*
X119633104Y-104327790D01*
X119680723Y-104375409D01*
X119775961Y-104423028D01*
X119966438Y-104423028D01*
X120061676Y-104375409D01*
X120109295Y-104327790D01*
X120156914Y-104232552D01*
%TO.C,J10*%
X129573076Y-126164780D02*
X129573076Y-126879066D01*
X129525457Y-127021923D01*
X129430219Y-127117161D01*
X129287361Y-127164780D01*
X129192123Y-127164780D01*
X130573076Y-127164780D02*
X130001647Y-127164780D01*
X130287361Y-127164780D02*
X130287361Y-126164780D01*
X130192123Y-126307638D01*
X130096885Y-126402876D01*
X130001647Y-126450495D01*
X131192123Y-126164780D02*
X131287361Y-126164780D01*
X131382600Y-126212400D01*
X131430219Y-126260019D01*
X131477838Y-126355257D01*
X131525457Y-126545733D01*
X131525457Y-126783828D01*
X131477838Y-126974304D01*
X131430219Y-127069542D01*
X131382600Y-127117161D01*
X131287361Y-127164780D01*
X131192123Y-127164780D01*
X131096885Y-127117161D01*
X131049266Y-127069542D01*
X131001647Y-126974304D01*
X130954028Y-126783828D01*
X130954028Y-126545733D01*
X131001647Y-126355257D01*
X131049266Y-126260019D01*
X131096885Y-126212400D01*
X131192123Y-126164780D01*
%TO.C,C53*%
X125126342Y-118668457D02*
X125173961Y-118716076D01*
X125221580Y-118858933D01*
X125221580Y-118954171D01*
X125173961Y-119097028D01*
X125078723Y-119192266D01*
X124983485Y-119239885D01*
X124793009Y-119287504D01*
X124650152Y-119287504D01*
X124459676Y-119239885D01*
X124364438Y-119192266D01*
X124269200Y-119097028D01*
X124221580Y-118954171D01*
X124221580Y-118858933D01*
X124269200Y-118716076D01*
X124316819Y-118668457D01*
X124221580Y-117763695D02*
X124221580Y-118239885D01*
X124697771Y-118287504D01*
X124650152Y-118239885D01*
X124602533Y-118144647D01*
X124602533Y-117906552D01*
X124650152Y-117811314D01*
X124697771Y-117763695D01*
X124793009Y-117716076D01*
X125031104Y-117716076D01*
X125126342Y-117763695D01*
X125173961Y-117811314D01*
X125221580Y-117906552D01*
X125221580Y-118144647D01*
X125173961Y-118239885D01*
X125126342Y-118287504D01*
X124221580Y-117382742D02*
X124221580Y-116763695D01*
X124602533Y-117097028D01*
X124602533Y-116954171D01*
X124650152Y-116858933D01*
X124697771Y-116811314D01*
X124793009Y-116763695D01*
X125031104Y-116763695D01*
X125126342Y-116811314D01*
X125173961Y-116858933D01*
X125221580Y-116954171D01*
X125221580Y-117239885D01*
X125173961Y-117335123D01*
X125126342Y-117382742D01*
%TO.C,SW8*%
X114287866Y-102506361D02*
X114430723Y-102553980D01*
X114668819Y-102553980D01*
X114764057Y-102506361D01*
X114811676Y-102458742D01*
X114859295Y-102363504D01*
X114859295Y-102268266D01*
X114811676Y-102173028D01*
X114764057Y-102125409D01*
X114668819Y-102077790D01*
X114478342Y-102030171D01*
X114383104Y-101982552D01*
X114335485Y-101934933D01*
X114287866Y-101839695D01*
X114287866Y-101744457D01*
X114335485Y-101649219D01*
X114383104Y-101601600D01*
X114478342Y-101553980D01*
X114716438Y-101553980D01*
X114859295Y-101601600D01*
X115192628Y-101553980D02*
X115430723Y-102553980D01*
X115621200Y-101839695D01*
X115811676Y-102553980D01*
X116049771Y-101553980D01*
X116573580Y-101982552D02*
X116478342Y-101934933D01*
X116430723Y-101887314D01*
X116383104Y-101792076D01*
X116383104Y-101744457D01*
X116430723Y-101649219D01*
X116478342Y-101601600D01*
X116573580Y-101553980D01*
X116764057Y-101553980D01*
X116859295Y-101601600D01*
X116906914Y-101649219D01*
X116954533Y-101744457D01*
X116954533Y-101792076D01*
X116906914Y-101887314D01*
X116859295Y-101934933D01*
X116764057Y-101982552D01*
X116573580Y-101982552D01*
X116478342Y-102030171D01*
X116430723Y-102077790D01*
X116383104Y-102173028D01*
X116383104Y-102363504D01*
X116430723Y-102458742D01*
X116478342Y-102506361D01*
X116573580Y-102553980D01*
X116764057Y-102553980D01*
X116859295Y-102506361D01*
X116906914Y-102458742D01*
X116954533Y-102363504D01*
X116954533Y-102173028D01*
X116906914Y-102077790D01*
X116859295Y-102030171D01*
X116764057Y-101982552D01*
%TO.C,C29*%
X135794342Y-82727457D02*
X135841961Y-82775076D01*
X135889580Y-82917933D01*
X135889580Y-83013171D01*
X135841961Y-83156028D01*
X135746723Y-83251266D01*
X135651485Y-83298885D01*
X135461009Y-83346504D01*
X135318152Y-83346504D01*
X135127676Y-83298885D01*
X135032438Y-83251266D01*
X134937200Y-83156028D01*
X134889580Y-83013171D01*
X134889580Y-82917933D01*
X134937200Y-82775076D01*
X134984819Y-82727457D01*
X134984819Y-82346504D02*
X134937200Y-82298885D01*
X134889580Y-82203647D01*
X134889580Y-81965552D01*
X134937200Y-81870314D01*
X134984819Y-81822695D01*
X135080057Y-81775076D01*
X135175295Y-81775076D01*
X135318152Y-81822695D01*
X135889580Y-82394123D01*
X135889580Y-81775076D01*
X135889580Y-81298885D02*
X135889580Y-81108409D01*
X135841961Y-81013171D01*
X135794342Y-80965552D01*
X135651485Y-80870314D01*
X135461009Y-80822695D01*
X135080057Y-80822695D01*
X134984819Y-80870314D01*
X134937200Y-80917933D01*
X134889580Y-81013171D01*
X134889580Y-81203647D01*
X134937200Y-81298885D01*
X134984819Y-81346504D01*
X135080057Y-81394123D01*
X135318152Y-81394123D01*
X135413390Y-81346504D01*
X135461009Y-81298885D01*
X135508628Y-81203647D01*
X135508628Y-81013171D01*
X135461009Y-80917933D01*
X135413390Y-80870314D01*
X135318152Y-80822695D01*
%TO.C,C49*%
X100255942Y-121958742D02*
X100208323Y-122006361D01*
X100065466Y-122053980D01*
X99970228Y-122053980D01*
X99827371Y-122006361D01*
X99732133Y-121911123D01*
X99684514Y-121815885D01*
X99636895Y-121625409D01*
X99636895Y-121482552D01*
X99684514Y-121292076D01*
X99732133Y-121196838D01*
X99827371Y-121101600D01*
X99970228Y-121053980D01*
X100065466Y-121053980D01*
X100208323Y-121101600D01*
X100255942Y-121149219D01*
X101113085Y-121387314D02*
X101113085Y-122053980D01*
X100874990Y-121006361D02*
X100636895Y-121720647D01*
X101255942Y-121720647D01*
X101684514Y-122053980D02*
X101874990Y-122053980D01*
X101970228Y-122006361D01*
X102017847Y-121958742D01*
X102113085Y-121815885D01*
X102160704Y-121625409D01*
X102160704Y-121244457D01*
X102113085Y-121149219D01*
X102065466Y-121101600D01*
X101970228Y-121053980D01*
X101779752Y-121053980D01*
X101684514Y-121101600D01*
X101636895Y-121149219D01*
X101589276Y-121244457D01*
X101589276Y-121482552D01*
X101636895Y-121577790D01*
X101684514Y-121625409D01*
X101779752Y-121673028D01*
X101970228Y-121673028D01*
X102065466Y-121625409D01*
X102113085Y-121577790D01*
X102160704Y-121482552D01*
%TO.C,Q5*%
X131825961Y-75599219D02*
X131730723Y-75551600D01*
X131635485Y-75456361D01*
X131492628Y-75313504D01*
X131397390Y-75265885D01*
X131302152Y-75265885D01*
X131349771Y-75503980D02*
X131254533Y-75456361D01*
X131159295Y-75361123D01*
X131111676Y-75170647D01*
X131111676Y-74837314D01*
X131159295Y-74646838D01*
X131254533Y-74551600D01*
X131349771Y-74503980D01*
X131540247Y-74503980D01*
X131635485Y-74551600D01*
X131730723Y-74646838D01*
X131778342Y-74837314D01*
X131778342Y-75170647D01*
X131730723Y-75361123D01*
X131635485Y-75456361D01*
X131540247Y-75503980D01*
X131349771Y-75503980D01*
X132683104Y-74503980D02*
X132206914Y-74503980D01*
X132159295Y-74980171D01*
X132206914Y-74932552D01*
X132302152Y-74884933D01*
X132540247Y-74884933D01*
X132635485Y-74932552D01*
X132683104Y-74980171D01*
X132730723Y-75075409D01*
X132730723Y-75313504D01*
X132683104Y-75408742D01*
X132635485Y-75456361D01*
X132540247Y-75503980D01*
X132302152Y-75503980D01*
X132206914Y-75456361D01*
X132159295Y-75408742D01*
%TO.C,C55*%
X127419169Y-108558706D02*
X127419169Y-108626050D01*
X127351825Y-108760737D01*
X127284482Y-108828080D01*
X127149795Y-108895424D01*
X127015108Y-108895424D01*
X126914093Y-108861752D01*
X126745734Y-108760737D01*
X126644719Y-108659722D01*
X126543703Y-108491363D01*
X126510032Y-108390348D01*
X126510032Y-108255661D01*
X126577375Y-108120974D01*
X126644719Y-108053630D01*
X126779406Y-107986287D01*
X126846749Y-107986287D01*
X127419169Y-107279180D02*
X127082451Y-107615897D01*
X127385497Y-107986287D01*
X127385497Y-107918943D01*
X127419169Y-107817928D01*
X127587528Y-107649569D01*
X127688543Y-107615897D01*
X127755887Y-107615897D01*
X127856902Y-107649569D01*
X128025261Y-107817928D01*
X128058932Y-107918943D01*
X128058932Y-107986287D01*
X128025261Y-108087302D01*
X127856902Y-108255661D01*
X127755887Y-108289332D01*
X127688543Y-108289332D01*
X128092604Y-106605745D02*
X127755887Y-106942462D01*
X128058932Y-107312851D01*
X128058932Y-107245508D01*
X128092604Y-107144493D01*
X128260963Y-106976134D01*
X128361978Y-106942462D01*
X128429322Y-106942462D01*
X128530337Y-106976134D01*
X128698696Y-107144493D01*
X128732367Y-107245508D01*
X128732367Y-107312851D01*
X128698696Y-107413867D01*
X128530337Y-107582225D01*
X128429322Y-107615897D01*
X128361978Y-107615897D01*
%TO.C,U7*%
X165109295Y-81803980D02*
X165109295Y-82613504D01*
X165156914Y-82708742D01*
X165204533Y-82756361D01*
X165299771Y-82803980D01*
X165490247Y-82803980D01*
X165585485Y-82756361D01*
X165633104Y-82708742D01*
X165680723Y-82613504D01*
X165680723Y-81803980D01*
X166061676Y-81803980D02*
X166728342Y-81803980D01*
X166299771Y-82803980D01*
%TO.C,J12*%
X172961676Y-116203980D02*
X172961676Y-116918266D01*
X172914057Y-117061123D01*
X172818819Y-117156361D01*
X172675961Y-117203980D01*
X172580723Y-117203980D01*
X173961676Y-117203980D02*
X173390247Y-117203980D01*
X173675961Y-117203980D02*
X173675961Y-116203980D01*
X173580723Y-116346838D01*
X173485485Y-116442076D01*
X173390247Y-116489695D01*
X174342628Y-116299219D02*
X174390247Y-116251600D01*
X174485485Y-116203980D01*
X174723580Y-116203980D01*
X174818819Y-116251600D01*
X174866438Y-116299219D01*
X174914057Y-116394457D01*
X174914057Y-116489695D01*
X174866438Y-116632552D01*
X174295009Y-117203980D01*
X174914057Y-117203980D01*
%TO.C,C52*%
X125126342Y-111389457D02*
X125173961Y-111437076D01*
X125221580Y-111579933D01*
X125221580Y-111675171D01*
X125173961Y-111818028D01*
X125078723Y-111913266D01*
X124983485Y-111960885D01*
X124793009Y-112008504D01*
X124650152Y-112008504D01*
X124459676Y-111960885D01*
X124364438Y-111913266D01*
X124269200Y-111818028D01*
X124221580Y-111675171D01*
X124221580Y-111579933D01*
X124269200Y-111437076D01*
X124316819Y-111389457D01*
X124221580Y-110484695D02*
X124221580Y-110960885D01*
X124697771Y-111008504D01*
X124650152Y-110960885D01*
X124602533Y-110865647D01*
X124602533Y-110627552D01*
X124650152Y-110532314D01*
X124697771Y-110484695D01*
X124793009Y-110437076D01*
X125031104Y-110437076D01*
X125126342Y-110484695D01*
X125173961Y-110532314D01*
X125221580Y-110627552D01*
X125221580Y-110865647D01*
X125173961Y-110960885D01*
X125126342Y-111008504D01*
X124316819Y-110056123D02*
X124269200Y-110008504D01*
X124221580Y-109913266D01*
X124221580Y-109675171D01*
X124269200Y-109579933D01*
X124316819Y-109532314D01*
X124412057Y-109484695D01*
X124507295Y-109484695D01*
X124650152Y-109532314D01*
X125221580Y-110103742D01*
X125221580Y-109484695D01*
%TO.C,J6*%
X88257866Y-113373980D02*
X88257866Y-114088266D01*
X88210247Y-114231123D01*
X88115009Y-114326361D01*
X87972152Y-114373980D01*
X87876914Y-114373980D01*
X89162628Y-113373980D02*
X88972152Y-113373980D01*
X88876914Y-113421600D01*
X88829295Y-113469219D01*
X88734057Y-113612076D01*
X88686438Y-113802552D01*
X88686438Y-114183504D01*
X88734057Y-114278742D01*
X88781676Y-114326361D01*
X88876914Y-114373980D01*
X89067390Y-114373980D01*
X89162628Y-114326361D01*
X89210247Y-114278742D01*
X89257866Y-114183504D01*
X89257866Y-113945409D01*
X89210247Y-113850171D01*
X89162628Y-113802552D01*
X89067390Y-113754933D01*
X88876914Y-113754933D01*
X88781676Y-113802552D01*
X88734057Y-113850171D01*
X88686438Y-113945409D01*
%TO.C,C48*%
X125669170Y-105558706D02*
X125669170Y-105626050D01*
X125601826Y-105760737D01*
X125534483Y-105828080D01*
X125399796Y-105895424D01*
X125265109Y-105895424D01*
X125164094Y-105861752D01*
X124995735Y-105760737D01*
X124894720Y-105659722D01*
X124793704Y-105491363D01*
X124760033Y-105390348D01*
X124760033Y-105255661D01*
X124827376Y-105120974D01*
X124894720Y-105053630D01*
X125029407Y-104986287D01*
X125096750Y-104986287D01*
X125871201Y-104548554D02*
X126342605Y-105019958D01*
X125433468Y-104447538D02*
X125770185Y-105120974D01*
X126207918Y-104683241D01*
X126409949Y-104144493D02*
X126308933Y-104178164D01*
X126241590Y-104178164D01*
X126140575Y-104144493D01*
X126106903Y-104110821D01*
X126073231Y-104009806D01*
X126073231Y-103942462D01*
X126106903Y-103841447D01*
X126241590Y-103706760D01*
X126342605Y-103673088D01*
X126409949Y-103673088D01*
X126510964Y-103706760D01*
X126544636Y-103740432D01*
X126578307Y-103841447D01*
X126578307Y-103908790D01*
X126544636Y-104009806D01*
X126409949Y-104144493D01*
X126376277Y-104245508D01*
X126376277Y-104312851D01*
X126409949Y-104413867D01*
X126544636Y-104548554D01*
X126645651Y-104582225D01*
X126712994Y-104582225D01*
X126814010Y-104548554D01*
X126948697Y-104413867D01*
X126982368Y-104312851D01*
X126982368Y-104245508D01*
X126948697Y-104144493D01*
X126814010Y-104009806D01*
X126712994Y-103976134D01*
X126645651Y-103976134D01*
X126544636Y-104009806D01*
%TO.C,SW7*%
X174787866Y-86506361D02*
X174930723Y-86553980D01*
X175168819Y-86553980D01*
X175264057Y-86506361D01*
X175311676Y-86458742D01*
X175359295Y-86363504D01*
X175359295Y-86268266D01*
X175311676Y-86173028D01*
X175264057Y-86125409D01*
X175168819Y-86077790D01*
X174978342Y-86030171D01*
X174883104Y-85982552D01*
X174835485Y-85934933D01*
X174787866Y-85839695D01*
X174787866Y-85744457D01*
X174835485Y-85649219D01*
X174883104Y-85601600D01*
X174978342Y-85553980D01*
X175216438Y-85553980D01*
X175359295Y-85601600D01*
X175692628Y-85553980D02*
X175930723Y-86553980D01*
X176121200Y-85839695D01*
X176311676Y-86553980D01*
X176549771Y-85553980D01*
X176835485Y-85553980D02*
X177502152Y-85553980D01*
X177073580Y-86553980D01*
%TO.C,J1*%
X100356666Y-67033580D02*
X100356666Y-67747866D01*
X100309047Y-67890723D01*
X100213809Y-67985961D01*
X100070952Y-68033580D01*
X99975714Y-68033580D01*
X101356666Y-68033580D02*
X100785238Y-68033580D01*
X101070952Y-68033580D02*
X101070952Y-67033580D01*
X100975714Y-67176438D01*
X100880476Y-67271676D01*
X100785238Y-67319295D01*
X94618571Y-73363342D02*
X95761428Y-73363342D01*
X95190000Y-73934771D02*
X95190000Y-72791914D01*
X105618571Y-73363342D02*
X106761428Y-73363342D01*
%TO.C,SW11*%
X95311676Y-95756361D02*
X95454533Y-95803980D01*
X95692628Y-95803980D01*
X95787866Y-95756361D01*
X95835485Y-95708742D01*
X95883104Y-95613504D01*
X95883104Y-95518266D01*
X95835485Y-95423028D01*
X95787866Y-95375409D01*
X95692628Y-95327790D01*
X95502152Y-95280171D01*
X95406914Y-95232552D01*
X95359295Y-95184933D01*
X95311676Y-95089695D01*
X95311676Y-94994457D01*
X95359295Y-94899219D01*
X95406914Y-94851600D01*
X95502152Y-94803980D01*
X95740247Y-94803980D01*
X95883104Y-94851600D01*
X96216438Y-94803980D02*
X96454533Y-95803980D01*
X96645009Y-95089695D01*
X96835485Y-95803980D01*
X97073580Y-94803980D01*
X97978342Y-95803980D02*
X97406914Y-95803980D01*
X97692628Y-95803980D02*
X97692628Y-94803980D01*
X97597390Y-94946838D01*
X97502152Y-95042076D01*
X97406914Y-95089695D01*
X98930723Y-95803980D02*
X98359295Y-95803980D01*
X98645009Y-95803980D02*
X98645009Y-94803980D01*
X98549771Y-94946838D01*
X98454533Y-95042076D01*
X98359295Y-95089695D01*
%TO.C,SW4*%
X152914666Y-114962761D02*
X153057523Y-115010380D01*
X153295619Y-115010380D01*
X153390857Y-114962761D01*
X153438476Y-114915142D01*
X153486095Y-114819904D01*
X153486095Y-114724666D01*
X153438476Y-114629428D01*
X153390857Y-114581809D01*
X153295619Y-114534190D01*
X153105142Y-114486571D01*
X153009904Y-114438952D01*
X152962285Y-114391333D01*
X152914666Y-114296095D01*
X152914666Y-114200857D01*
X152962285Y-114105619D01*
X153009904Y-114058000D01*
X153105142Y-114010380D01*
X153343238Y-114010380D01*
X153486095Y-114058000D01*
X153819428Y-114010380D02*
X154057523Y-115010380D01*
X154248000Y-114296095D01*
X154438476Y-115010380D01*
X154676571Y-114010380D01*
X155486095Y-114343714D02*
X155486095Y-115010380D01*
X155248000Y-113962761D02*
X155009904Y-114677047D01*
X155628952Y-114677047D01*
%TO.C,Q6*%
X159275961Y-92149219D02*
X159180723Y-92101600D01*
X159085485Y-92006361D01*
X158942628Y-91863504D01*
X158847390Y-91815885D01*
X158752152Y-91815885D01*
X158799771Y-92053980D02*
X158704533Y-92006361D01*
X158609295Y-91911123D01*
X158561676Y-91720647D01*
X158561676Y-91387314D01*
X158609295Y-91196838D01*
X158704533Y-91101600D01*
X158799771Y-91053980D01*
X158990247Y-91053980D01*
X159085485Y-91101600D01*
X159180723Y-91196838D01*
X159228342Y-91387314D01*
X159228342Y-91720647D01*
X159180723Y-91911123D01*
X159085485Y-92006361D01*
X158990247Y-92053980D01*
X158799771Y-92053980D01*
X160085485Y-91053980D02*
X159895009Y-91053980D01*
X159799771Y-91101600D01*
X159752152Y-91149219D01*
X159656914Y-91292076D01*
X159609295Y-91482552D01*
X159609295Y-91863504D01*
X159656914Y-91958742D01*
X159704533Y-92006361D01*
X159799771Y-92053980D01*
X159990247Y-92053980D01*
X160085485Y-92006361D01*
X160133104Y-91958742D01*
X160180723Y-91863504D01*
X160180723Y-91625409D01*
X160133104Y-91530171D01*
X160085485Y-91482552D01*
X159990247Y-91434933D01*
X159799771Y-91434933D01*
X159704533Y-91482552D01*
X159656914Y-91530171D01*
X159609295Y-91625409D01*
%TO.C,Q1*%
X96125961Y-76599219D02*
X96030723Y-76551600D01*
X95935485Y-76456361D01*
X95792628Y-76313504D01*
X95697390Y-76265885D01*
X95602152Y-76265885D01*
X95649771Y-76503980D02*
X95554533Y-76456361D01*
X95459295Y-76361123D01*
X95411676Y-76170647D01*
X95411676Y-75837314D01*
X95459295Y-75646838D01*
X95554533Y-75551600D01*
X95649771Y-75503980D01*
X95840247Y-75503980D01*
X95935485Y-75551600D01*
X96030723Y-75646838D01*
X96078342Y-75837314D01*
X96078342Y-76170647D01*
X96030723Y-76361123D01*
X95935485Y-76456361D01*
X95840247Y-76503980D01*
X95649771Y-76503980D01*
X97030723Y-76503980D02*
X96459295Y-76503980D01*
X96745009Y-76503980D02*
X96745009Y-75503980D01*
X96649771Y-75646838D01*
X96554533Y-75742076D01*
X96459295Y-75789695D01*
%TO.C,R18*%
X155673142Y-88303980D02*
X155339809Y-87827790D01*
X155101714Y-88303980D02*
X155101714Y-87303980D01*
X155482666Y-87303980D01*
X155577904Y-87351600D01*
X155625523Y-87399219D01*
X155673142Y-87494457D01*
X155673142Y-87637314D01*
X155625523Y-87732552D01*
X155577904Y-87780171D01*
X155482666Y-87827790D01*
X155101714Y-87827790D01*
X156625523Y-88303980D02*
X156054095Y-88303980D01*
X156339809Y-88303980D02*
X156339809Y-87303980D01*
X156244571Y-87446838D01*
X156149333Y-87542076D01*
X156054095Y-87589695D01*
X157196952Y-87732552D02*
X157101714Y-87684933D01*
X157054095Y-87637314D01*
X157006476Y-87542076D01*
X157006476Y-87494457D01*
X157054095Y-87399219D01*
X157101714Y-87351600D01*
X157196952Y-87303980D01*
X157387428Y-87303980D01*
X157482666Y-87351600D01*
X157530285Y-87399219D01*
X157577904Y-87494457D01*
X157577904Y-87542076D01*
X157530285Y-87637314D01*
X157482666Y-87684933D01*
X157387428Y-87732552D01*
X157196952Y-87732552D01*
X157101714Y-87780171D01*
X157054095Y-87827790D01*
X157006476Y-87923028D01*
X157006476Y-88113504D01*
X157054095Y-88208742D01*
X157101714Y-88256361D01*
X157196952Y-88303980D01*
X157387428Y-88303980D01*
X157482666Y-88256361D01*
X157530285Y-88208742D01*
X157577904Y-88113504D01*
X157577904Y-87923028D01*
X157530285Y-87827790D01*
X157482666Y-87780171D01*
X157387428Y-87732552D01*
D14*
%TO.C,C7*%
X103755583Y-75892207D02*
X103736835Y-75910955D01*
X103680592Y-75929702D01*
X103643097Y-75929702D01*
X103586854Y-75910955D01*
X103549358Y-75873459D01*
X103530611Y-75835964D01*
X103511863Y-75760973D01*
X103511863Y-75704730D01*
X103530611Y-75629740D01*
X103549358Y-75592244D01*
X103586854Y-75554749D01*
X103643097Y-75536001D01*
X103680592Y-75536001D01*
X103736835Y-75554749D01*
X103755583Y-75573497D01*
X103886816Y-75536001D02*
X104149284Y-75536001D01*
X103980555Y-75929702D01*
D12*
%TO.C,J13*%
X172961676Y-91853980D02*
X172961676Y-92568266D01*
X172914057Y-92711123D01*
X172818819Y-92806361D01*
X172675961Y-92853980D01*
X172580723Y-92853980D01*
X173961676Y-92853980D02*
X173390247Y-92853980D01*
X173675961Y-92853980D02*
X173675961Y-91853980D01*
X173580723Y-91996838D01*
X173485485Y-92092076D01*
X173390247Y-92139695D01*
X174295009Y-91853980D02*
X174914057Y-91853980D01*
X174580723Y-92234933D01*
X174723580Y-92234933D01*
X174818819Y-92282552D01*
X174866438Y-92330171D01*
X174914057Y-92425409D01*
X174914057Y-92663504D01*
X174866438Y-92758742D01*
X174818819Y-92806361D01*
X174723580Y-92853980D01*
X174437866Y-92853980D01*
X174342628Y-92806361D01*
X174295009Y-92758742D01*
%TO.C,JP3*%
X155889066Y-128553980D02*
X155889066Y-129268266D01*
X155841447Y-129411123D01*
X155746209Y-129506361D01*
X155603352Y-129553980D01*
X155508114Y-129553980D01*
X156365257Y-129553980D02*
X156365257Y-128553980D01*
X156746209Y-128553980D01*
X156841447Y-128601600D01*
X156889066Y-128649219D01*
X156936685Y-128744457D01*
X156936685Y-128887314D01*
X156889066Y-128982552D01*
X156841447Y-129030171D01*
X156746209Y-129077790D01*
X156365257Y-129077790D01*
X157270019Y-128553980D02*
X157889066Y-128553980D01*
X157555733Y-128934933D01*
X157698590Y-128934933D01*
X157793828Y-128982552D01*
X157841447Y-129030171D01*
X157889066Y-129125409D01*
X157889066Y-129363504D01*
X157841447Y-129458742D01*
X157793828Y-129506361D01*
X157698590Y-129553980D01*
X157412876Y-129553980D01*
X157317638Y-129506361D01*
X157270019Y-129458742D01*
%TO.C,SW3*%
X143654266Y-114975961D02*
X143797123Y-115023580D01*
X144035219Y-115023580D01*
X144130457Y-114975961D01*
X144178076Y-114928342D01*
X144225695Y-114833104D01*
X144225695Y-114737866D01*
X144178076Y-114642628D01*
X144130457Y-114595009D01*
X144035219Y-114547390D01*
X143844742Y-114499771D01*
X143749504Y-114452152D01*
X143701885Y-114404533D01*
X143654266Y-114309295D01*
X143654266Y-114214057D01*
X143701885Y-114118819D01*
X143749504Y-114071200D01*
X143844742Y-114023580D01*
X144082838Y-114023580D01*
X144225695Y-114071200D01*
X144559028Y-114023580D02*
X144797123Y-115023580D01*
X144987600Y-114309295D01*
X145178076Y-115023580D01*
X145416171Y-114023580D01*
X145701885Y-114023580D02*
X146320933Y-114023580D01*
X145987600Y-114404533D01*
X146130457Y-114404533D01*
X146225695Y-114452152D01*
X146273314Y-114499771D01*
X146320933Y-114595009D01*
X146320933Y-114833104D01*
X146273314Y-114928342D01*
X146225695Y-114975961D01*
X146130457Y-115023580D01*
X145844742Y-115023580D01*
X145749504Y-114975961D01*
X145701885Y-114928342D01*
%TO.C,J14*%
X172961676Y-104053980D02*
X172961676Y-104768266D01*
X172914057Y-104911123D01*
X172818819Y-105006361D01*
X172675961Y-105053980D01*
X172580723Y-105053980D01*
X173961676Y-105053980D02*
X173390247Y-105053980D01*
X173675961Y-105053980D02*
X173675961Y-104053980D01*
X173580723Y-104196838D01*
X173485485Y-104292076D01*
X173390247Y-104339695D01*
X174818819Y-104387314D02*
X174818819Y-105053980D01*
X174580723Y-104006361D02*
X174342628Y-104720647D01*
X174961676Y-104720647D01*
%TO.C,D10*%
X118656914Y-106553980D02*
X118656914Y-105553980D01*
X118895009Y-105553980D01*
X119037866Y-105601600D01*
X119133104Y-105696838D01*
X119180723Y-105792076D01*
X119228342Y-105982552D01*
X119228342Y-106125409D01*
X119180723Y-106315885D01*
X119133104Y-106411123D01*
X119037866Y-106506361D01*
X118895009Y-106553980D01*
X118656914Y-106553980D01*
X120180723Y-106553980D02*
X119609295Y-106553980D01*
X119895009Y-106553980D02*
X119895009Y-105553980D01*
X119799771Y-105696838D01*
X119704533Y-105792076D01*
X119609295Y-105839695D01*
X120799771Y-105553980D02*
X120895009Y-105553980D01*
X120990247Y-105601600D01*
X121037866Y-105649219D01*
X121085485Y-105744457D01*
X121133104Y-105934933D01*
X121133104Y-106173028D01*
X121085485Y-106363504D01*
X121037866Y-106458742D01*
X120990247Y-106506361D01*
X120895009Y-106553980D01*
X120799771Y-106553980D01*
X120704533Y-106506361D01*
X120656914Y-106458742D01*
X120609295Y-106363504D01*
X120561676Y-106173028D01*
X120561676Y-105934933D01*
X120609295Y-105744457D01*
X120656914Y-105649219D01*
X120704533Y-105601600D01*
X120799771Y-105553980D01*
%TO.C,J2*%
X118787866Y-66303980D02*
X118787866Y-67018266D01*
X118740247Y-67161123D01*
X118645009Y-67256361D01*
X118502152Y-67303980D01*
X118406914Y-67303980D01*
X119216438Y-66399219D02*
X119264057Y-66351600D01*
X119359295Y-66303980D01*
X119597390Y-66303980D01*
X119692628Y-66351600D01*
X119740247Y-66399219D01*
X119787866Y-66494457D01*
X119787866Y-66589695D01*
X119740247Y-66732552D01*
X119168819Y-67303980D01*
X119787866Y-67303980D01*
X121522142Y-70992066D02*
X121569761Y-71039685D01*
X121617380Y-71182542D01*
X121617380Y-71277780D01*
X121569761Y-71420638D01*
X121474523Y-71515876D01*
X121379285Y-71563495D01*
X121188809Y-71611114D01*
X121045952Y-71611114D01*
X120855476Y-71563495D01*
X120760238Y-71515876D01*
X120665000Y-71420638D01*
X120617380Y-71277780D01*
X120617380Y-71182542D01*
X120665000Y-71039685D01*
X120712619Y-70992066D01*
X121522142Y-69992066D02*
X121569761Y-70039685D01*
X121617380Y-70182542D01*
X121617380Y-70277780D01*
X121569761Y-70420638D01*
X121474523Y-70515876D01*
X121379285Y-70563495D01*
X121188809Y-70611114D01*
X121045952Y-70611114D01*
X120855476Y-70563495D01*
X120760238Y-70515876D01*
X120665000Y-70420638D01*
X120617380Y-70277780D01*
X120617380Y-70182542D01*
X120665000Y-70039685D01*
X120712619Y-69992066D01*
X121617380Y-69039685D02*
X121617380Y-69611114D01*
X121617380Y-69325400D02*
X120617380Y-69325400D01*
X120760238Y-69420638D01*
X120855476Y-69515876D01*
X120903095Y-69611114D01*
X114073580Y-71232552D02*
X113073580Y-71232552D01*
X113073580Y-70994457D01*
X113121200Y-70851600D01*
X113216438Y-70756361D01*
X113311676Y-70708742D01*
X113502152Y-70661123D01*
X113645009Y-70661123D01*
X113835485Y-70708742D01*
X113930723Y-70756361D01*
X114025961Y-70851600D01*
X114073580Y-70994457D01*
X114073580Y-71232552D01*
X113692628Y-70232552D02*
X113692628Y-69470647D01*
X116573580Y-71232552D02*
X115573580Y-71232552D01*
X115573580Y-70994457D01*
X115621200Y-70851600D01*
X115716438Y-70756361D01*
X115811676Y-70708742D01*
X116002152Y-70661123D01*
X116145009Y-70661123D01*
X116335485Y-70708742D01*
X116430723Y-70756361D01*
X116525961Y-70851600D01*
X116573580Y-70994457D01*
X116573580Y-71232552D01*
X116192628Y-70232552D02*
X116192628Y-69470647D01*
X116573580Y-69851600D02*
X115811676Y-69851600D01*
X118065000Y-71087304D02*
X118017380Y-71182542D01*
X118017380Y-71325400D01*
X118065000Y-71468257D01*
X118160238Y-71563495D01*
X118255476Y-71611114D01*
X118445952Y-71658733D01*
X118588809Y-71658733D01*
X118779285Y-71611114D01*
X118874523Y-71563495D01*
X118969761Y-71468257D01*
X119017380Y-71325400D01*
X119017380Y-71230161D01*
X118969761Y-71087304D01*
X118922142Y-71039685D01*
X118588809Y-71039685D01*
X118588809Y-71230161D01*
X119017380Y-70611114D02*
X118017380Y-70611114D01*
X119017380Y-70039685D01*
X118017380Y-70039685D01*
X119017380Y-69563495D02*
X118017380Y-69563495D01*
X118017380Y-69325400D01*
X118065000Y-69182542D01*
X118160238Y-69087304D01*
X118255476Y-69039685D01*
X118445952Y-68992066D01*
X118588809Y-68992066D01*
X118779285Y-69039685D01*
X118874523Y-69087304D01*
X118969761Y-69182542D01*
X119017380Y-69325400D01*
X119017380Y-69563495D01*
X124122142Y-70992066D02*
X124169761Y-71039685D01*
X124217380Y-71182542D01*
X124217380Y-71277780D01*
X124169761Y-71420638D01*
X124074523Y-71515876D01*
X123979285Y-71563495D01*
X123788809Y-71611114D01*
X123645952Y-71611114D01*
X123455476Y-71563495D01*
X123360238Y-71515876D01*
X123265000Y-71420638D01*
X123217380Y-71277780D01*
X123217380Y-71182542D01*
X123265000Y-71039685D01*
X123312619Y-70992066D01*
X124122142Y-69992066D02*
X124169761Y-70039685D01*
X124217380Y-70182542D01*
X124217380Y-70277780D01*
X124169761Y-70420638D01*
X124074523Y-70515876D01*
X123979285Y-70563495D01*
X123788809Y-70611114D01*
X123645952Y-70611114D01*
X123455476Y-70563495D01*
X123360238Y-70515876D01*
X123265000Y-70420638D01*
X123217380Y-70277780D01*
X123217380Y-70182542D01*
X123265000Y-70039685D01*
X123312619Y-69992066D01*
X123312619Y-69611114D02*
X123265000Y-69563495D01*
X123217380Y-69468257D01*
X123217380Y-69230161D01*
X123265000Y-69134923D01*
X123312619Y-69087304D01*
X123407857Y-69039685D01*
X123503095Y-69039685D01*
X123645952Y-69087304D01*
X124217380Y-69658733D01*
X124217380Y-69039685D01*
X125865000Y-71087304D02*
X125817380Y-71182542D01*
X125817380Y-71325400D01*
X125865000Y-71468257D01*
X125960238Y-71563495D01*
X126055476Y-71611114D01*
X126245952Y-71658733D01*
X126388809Y-71658733D01*
X126579285Y-71611114D01*
X126674523Y-71563495D01*
X126769761Y-71468257D01*
X126817380Y-71325400D01*
X126817380Y-71230161D01*
X126769761Y-71087304D01*
X126722142Y-71039685D01*
X126388809Y-71039685D01*
X126388809Y-71230161D01*
X126817380Y-70611114D02*
X125817380Y-70611114D01*
X126817380Y-70039685D01*
X125817380Y-70039685D01*
X126817380Y-69563495D02*
X125817380Y-69563495D01*
X125817380Y-69325400D01*
X125865000Y-69182542D01*
X125960238Y-69087304D01*
X126055476Y-69039685D01*
X126245952Y-68992066D01*
X126388809Y-68992066D01*
X126579285Y-69039685D01*
X126674523Y-69087304D01*
X126769761Y-69182542D01*
X126817380Y-69325400D01*
X126817380Y-69563495D01*
X110417380Y-71558733D02*
X111417380Y-71225400D01*
X110417380Y-70892066D01*
X110893571Y-70225400D02*
X110941190Y-70082542D01*
X110988809Y-70034923D01*
X111084047Y-69987304D01*
X111226904Y-69987304D01*
X111322142Y-70034923D01*
X111369761Y-70082542D01*
X111417380Y-70177780D01*
X111417380Y-70558733D01*
X110417380Y-70558733D01*
X110417380Y-70225400D01*
X110465000Y-70130161D01*
X110512619Y-70082542D01*
X110607857Y-70034923D01*
X110703095Y-70034923D01*
X110798333Y-70082542D01*
X110845952Y-70130161D01*
X110893571Y-70225400D01*
X110893571Y-70558733D01*
X110417380Y-69558733D02*
X111226904Y-69558733D01*
X111322142Y-69511114D01*
X111369761Y-69463495D01*
X111417380Y-69368257D01*
X111417380Y-69177780D01*
X111369761Y-69082542D01*
X111322142Y-69034923D01*
X111226904Y-68987304D01*
X110417380Y-68987304D01*
X111369761Y-68558733D02*
X111417380Y-68415876D01*
X111417380Y-68177780D01*
X111369761Y-68082542D01*
X111322142Y-68034923D01*
X111226904Y-67987304D01*
X111131666Y-67987304D01*
X111036428Y-68034923D01*
X110988809Y-68082542D01*
X110941190Y-68177780D01*
X110893571Y-68368257D01*
X110845952Y-68463495D01*
X110798333Y-68511114D01*
X110703095Y-68558733D01*
X110607857Y-68558733D01*
X110512619Y-68511114D01*
X110465000Y-68463495D01*
X110417380Y-68368257D01*
X110417380Y-68130161D01*
X110465000Y-67987304D01*
%TO.C,U6*%
X112309295Y-115003980D02*
X112309295Y-115813504D01*
X112356914Y-115908742D01*
X112404533Y-115956361D01*
X112499771Y-116003980D01*
X112690247Y-116003980D01*
X112785485Y-115956361D01*
X112833104Y-115908742D01*
X112880723Y-115813504D01*
X112880723Y-115003980D01*
X113785485Y-115003980D02*
X113595009Y-115003980D01*
X113499771Y-115051600D01*
X113452152Y-115099219D01*
X113356914Y-115242076D01*
X113309295Y-115432552D01*
X113309295Y-115813504D01*
X113356914Y-115908742D01*
X113404533Y-115956361D01*
X113499771Y-116003980D01*
X113690247Y-116003980D01*
X113785485Y-115956361D01*
X113833104Y-115908742D01*
X113880723Y-115813504D01*
X113880723Y-115575409D01*
X113833104Y-115480171D01*
X113785485Y-115432552D01*
X113690247Y-115384933D01*
X113499771Y-115384933D01*
X113404533Y-115432552D01*
X113356914Y-115480171D01*
X113309295Y-115575409D01*
%TO.C,R55*%
X163323580Y-98694457D02*
X162847390Y-99027790D01*
X163323580Y-99265885D02*
X162323580Y-99265885D01*
X162323580Y-98884933D01*
X162371200Y-98789695D01*
X162418819Y-98742076D01*
X162514057Y-98694457D01*
X162656914Y-98694457D01*
X162752152Y-98742076D01*
X162799771Y-98789695D01*
X162847390Y-98884933D01*
X162847390Y-99265885D01*
X162323580Y-97789695D02*
X162323580Y-98265885D01*
X162799771Y-98313504D01*
X162752152Y-98265885D01*
X162704533Y-98170647D01*
X162704533Y-97932552D01*
X162752152Y-97837314D01*
X162799771Y-97789695D01*
X162895009Y-97742076D01*
X163133104Y-97742076D01*
X163228342Y-97789695D01*
X163275961Y-97837314D01*
X163323580Y-97932552D01*
X163323580Y-98170647D01*
X163275961Y-98265885D01*
X163228342Y-98313504D01*
X162323580Y-96837314D02*
X162323580Y-97313504D01*
X162799771Y-97361123D01*
X162752152Y-97313504D01*
X162704533Y-97218266D01*
X162704533Y-96980171D01*
X162752152Y-96884933D01*
X162799771Y-96837314D01*
X162895009Y-96789695D01*
X163133104Y-96789695D01*
X163228342Y-96837314D01*
X163275961Y-96884933D01*
X163323580Y-96980171D01*
X163323580Y-97218266D01*
X163275961Y-97313504D01*
X163228342Y-97361123D01*
%TO.C,C5*%
X97830933Y-87724942D02*
X97783314Y-87772561D01*
X97640457Y-87820180D01*
X97545219Y-87820180D01*
X97402361Y-87772561D01*
X97307123Y-87677323D01*
X97259504Y-87582085D01*
X97211885Y-87391609D01*
X97211885Y-87248752D01*
X97259504Y-87058276D01*
X97307123Y-86963038D01*
X97402361Y-86867800D01*
X97545219Y-86820180D01*
X97640457Y-86820180D01*
X97783314Y-86867800D01*
X97830933Y-86915419D01*
X98735695Y-86820180D02*
X98259504Y-86820180D01*
X98211885Y-87296371D01*
X98259504Y-87248752D01*
X98354742Y-87201133D01*
X98592838Y-87201133D01*
X98688076Y-87248752D01*
X98735695Y-87296371D01*
X98783314Y-87391609D01*
X98783314Y-87629704D01*
X98735695Y-87724942D01*
X98688076Y-87772561D01*
X98592838Y-87820180D01*
X98354742Y-87820180D01*
X98259504Y-87772561D01*
X98211885Y-87724942D01*
%TO.C,SW9*%
X108287866Y-109756361D02*
X108430723Y-109803980D01*
X108668819Y-109803980D01*
X108764057Y-109756361D01*
X108811676Y-109708742D01*
X108859295Y-109613504D01*
X108859295Y-109518266D01*
X108811676Y-109423028D01*
X108764057Y-109375409D01*
X108668819Y-109327790D01*
X108478342Y-109280171D01*
X108383104Y-109232552D01*
X108335485Y-109184933D01*
X108287866Y-109089695D01*
X108287866Y-108994457D01*
X108335485Y-108899219D01*
X108383104Y-108851600D01*
X108478342Y-108803980D01*
X108716438Y-108803980D01*
X108859295Y-108851600D01*
X109192628Y-108803980D02*
X109430723Y-109803980D01*
X109621200Y-109089695D01*
X109811676Y-109803980D01*
X110049771Y-108803980D01*
X110478342Y-109803980D02*
X110668819Y-109803980D01*
X110764057Y-109756361D01*
X110811676Y-109708742D01*
X110906914Y-109565885D01*
X110954533Y-109375409D01*
X110954533Y-108994457D01*
X110906914Y-108899219D01*
X110859295Y-108851600D01*
X110764057Y-108803980D01*
X110573580Y-108803980D01*
X110478342Y-108851600D01*
X110430723Y-108899219D01*
X110383104Y-108994457D01*
X110383104Y-109232552D01*
X110430723Y-109327790D01*
X110478342Y-109375409D01*
X110573580Y-109423028D01*
X110764057Y-109423028D01*
X110859295Y-109375409D01*
X110906914Y-109327790D01*
X110954533Y-109232552D01*
%TO.C,R61*%
X138478342Y-105803980D02*
X138145009Y-105327790D01*
X137906914Y-105803980D02*
X137906914Y-104803980D01*
X138287866Y-104803980D01*
X138383104Y-104851600D01*
X138430723Y-104899219D01*
X138478342Y-104994457D01*
X138478342Y-105137314D01*
X138430723Y-105232552D01*
X138383104Y-105280171D01*
X138287866Y-105327790D01*
X137906914Y-105327790D01*
X139335485Y-104803980D02*
X139145009Y-104803980D01*
X139049771Y-104851600D01*
X139002152Y-104899219D01*
X138906914Y-105042076D01*
X138859295Y-105232552D01*
X138859295Y-105613504D01*
X138906914Y-105708742D01*
X138954533Y-105756361D01*
X139049771Y-105803980D01*
X139240247Y-105803980D01*
X139335485Y-105756361D01*
X139383104Y-105708742D01*
X139430723Y-105613504D01*
X139430723Y-105375409D01*
X139383104Y-105280171D01*
X139335485Y-105232552D01*
X139240247Y-105184933D01*
X139049771Y-105184933D01*
X138954533Y-105232552D01*
X138906914Y-105280171D01*
X138859295Y-105375409D01*
X140383104Y-105803980D02*
X139811676Y-105803980D01*
X140097390Y-105803980D02*
X140097390Y-104803980D01*
X140002152Y-104946838D01*
X139906914Y-105042076D01*
X139811676Y-105089695D01*
%TO.C,C25*%
X130478342Y-72897657D02*
X130525961Y-72945276D01*
X130573580Y-73088133D01*
X130573580Y-73183371D01*
X130525961Y-73326228D01*
X130430723Y-73421466D01*
X130335485Y-73469085D01*
X130145009Y-73516704D01*
X130002152Y-73516704D01*
X129811676Y-73469085D01*
X129716438Y-73421466D01*
X129621200Y-73326228D01*
X129573580Y-73183371D01*
X129573580Y-73088133D01*
X129621200Y-72945276D01*
X129668819Y-72897657D01*
X129668819Y-72516704D02*
X129621200Y-72469085D01*
X129573580Y-72373847D01*
X129573580Y-72135752D01*
X129621200Y-72040514D01*
X129668819Y-71992895D01*
X129764057Y-71945276D01*
X129859295Y-71945276D01*
X130002152Y-71992895D01*
X130573580Y-72564323D01*
X130573580Y-71945276D01*
X129573580Y-71040514D02*
X129573580Y-71516704D01*
X130049771Y-71564323D01*
X130002152Y-71516704D01*
X129954533Y-71421466D01*
X129954533Y-71183371D01*
X130002152Y-71088133D01*
X130049771Y-71040514D01*
X130145009Y-70992895D01*
X130383104Y-70992895D01*
X130478342Y-71040514D01*
X130525961Y-71088133D01*
X130573580Y-71183371D01*
X130573580Y-71421466D01*
X130525961Y-71516704D01*
X130478342Y-71564323D01*
%TO.C,R63*%
X132478342Y-105803980D02*
X132145009Y-105327790D01*
X131906914Y-105803980D02*
X131906914Y-104803980D01*
X132287866Y-104803980D01*
X132383104Y-104851600D01*
X132430723Y-104899219D01*
X132478342Y-104994457D01*
X132478342Y-105137314D01*
X132430723Y-105232552D01*
X132383104Y-105280171D01*
X132287866Y-105327790D01*
X131906914Y-105327790D01*
X133335485Y-104803980D02*
X133145009Y-104803980D01*
X133049771Y-104851600D01*
X133002152Y-104899219D01*
X132906914Y-105042076D01*
X132859295Y-105232552D01*
X132859295Y-105613504D01*
X132906914Y-105708742D01*
X132954533Y-105756361D01*
X133049771Y-105803980D01*
X133240247Y-105803980D01*
X133335485Y-105756361D01*
X133383104Y-105708742D01*
X133430723Y-105613504D01*
X133430723Y-105375409D01*
X133383104Y-105280171D01*
X133335485Y-105232552D01*
X133240247Y-105184933D01*
X133049771Y-105184933D01*
X132954533Y-105232552D01*
X132906914Y-105280171D01*
X132859295Y-105375409D01*
X133764057Y-104803980D02*
X134383104Y-104803980D01*
X134049771Y-105184933D01*
X134192628Y-105184933D01*
X134287866Y-105232552D01*
X134335485Y-105280171D01*
X134383104Y-105375409D01*
X134383104Y-105613504D01*
X134335485Y-105708742D01*
X134287866Y-105756361D01*
X134192628Y-105803980D01*
X133906914Y-105803980D01*
X133811676Y-105756361D01*
X133764057Y-105708742D01*
%TO.C,C45*%
X128478342Y-87008742D02*
X128430723Y-87056361D01*
X128287866Y-87103980D01*
X128192628Y-87103980D01*
X128049771Y-87056361D01*
X127954533Y-86961123D01*
X127906914Y-86865885D01*
X127859295Y-86675409D01*
X127859295Y-86532552D01*
X127906914Y-86342076D01*
X127954533Y-86246838D01*
X128049771Y-86151600D01*
X128192628Y-86103980D01*
X128287866Y-86103980D01*
X128430723Y-86151600D01*
X128478342Y-86199219D01*
X129335485Y-86437314D02*
X129335485Y-87103980D01*
X129097390Y-86056361D02*
X128859295Y-86770647D01*
X129478342Y-86770647D01*
X130335485Y-86103980D02*
X129859295Y-86103980D01*
X129811676Y-86580171D01*
X129859295Y-86532552D01*
X129954533Y-86484933D01*
X130192628Y-86484933D01*
X130287866Y-86532552D01*
X130335485Y-86580171D01*
X130383104Y-86675409D01*
X130383104Y-86913504D01*
X130335485Y-87008742D01*
X130287866Y-87056361D01*
X130192628Y-87103980D01*
X129954533Y-87103980D01*
X129859295Y-87056361D01*
X129811676Y-87008742D01*
%TO.C,REF\u002A\u002A*%
X174287866Y-125603980D02*
X173954533Y-125127790D01*
X173716438Y-125603980D02*
X173716438Y-124603980D01*
X174097390Y-124603980D01*
X174192628Y-124651600D01*
X174240247Y-124699219D01*
X174287866Y-124794457D01*
X174287866Y-124937314D01*
X174240247Y-125032552D01*
X174192628Y-125080171D01*
X174097390Y-125127790D01*
X173716438Y-125127790D01*
X174716438Y-125080171D02*
X175049771Y-125080171D01*
X175192628Y-125603980D02*
X174716438Y-125603980D01*
X174716438Y-124603980D01*
X175192628Y-124603980D01*
X175954533Y-125080171D02*
X175621200Y-125080171D01*
X175621200Y-125603980D02*
X175621200Y-124603980D01*
X176097390Y-124603980D01*
X176621200Y-124603980D02*
X176621200Y-124842076D01*
X176383104Y-124746838D02*
X176621200Y-124842076D01*
X176859295Y-124746838D01*
X176478342Y-125032552D02*
X176621200Y-124842076D01*
X176764057Y-125032552D01*
X177383104Y-124603980D02*
X177383104Y-124842076D01*
X177145009Y-124746838D02*
X177383104Y-124842076D01*
X177621200Y-124746838D01*
X177240247Y-125032552D02*
X177383104Y-124842076D01*
X177525961Y-125032552D01*
%TO.C,U18*%
X122608508Y-91589840D02*
X123180928Y-92162260D01*
X123281943Y-92195931D01*
X123349286Y-92195931D01*
X123450302Y-92162260D01*
X123584989Y-92027573D01*
X123618660Y-91926557D01*
X123618660Y-91859214D01*
X123584989Y-91758199D01*
X123012569Y-91185779D01*
X124426782Y-91185779D02*
X124022721Y-91589840D01*
X124224752Y-91387809D02*
X123517645Y-90680703D01*
X123551317Y-90849061D01*
X123551317Y-90983748D01*
X123517645Y-91084764D01*
X124426782Y-90377657D02*
X124325767Y-90411329D01*
X124258424Y-90411329D01*
X124157408Y-90377657D01*
X124123737Y-90343985D01*
X124090065Y-90242970D01*
X124090065Y-90175626D01*
X124123737Y-90074611D01*
X124258424Y-89939924D01*
X124359439Y-89906252D01*
X124426782Y-89906252D01*
X124527798Y-89939924D01*
X124561469Y-89973596D01*
X124595141Y-90074611D01*
X124595141Y-90141955D01*
X124561469Y-90242970D01*
X124426782Y-90377657D01*
X124393111Y-90478672D01*
X124393111Y-90546016D01*
X124426782Y-90647031D01*
X124561469Y-90781718D01*
X124662485Y-90815390D01*
X124729828Y-90815390D01*
X124830843Y-90781718D01*
X124965530Y-90647031D01*
X124999202Y-90546016D01*
X124999202Y-90478672D01*
X124965530Y-90377657D01*
X124830843Y-90242970D01*
X124729828Y-90209298D01*
X124662485Y-90209298D01*
X124561469Y-90242970D01*
%TO.C,D1*%
X154783104Y-76503980D02*
X154783104Y-75503980D01*
X155021200Y-75503980D01*
X155164057Y-75551600D01*
X155259295Y-75646838D01*
X155306914Y-75742076D01*
X155354533Y-75932552D01*
X155354533Y-76075409D01*
X155306914Y-76265885D01*
X155259295Y-76361123D01*
X155164057Y-76456361D01*
X155021200Y-76503980D01*
X154783104Y-76503980D01*
X156306914Y-76503980D02*
X155735485Y-76503980D01*
X156021200Y-76503980D02*
X156021200Y-75503980D01*
X155925961Y-75646838D01*
X155830723Y-75742076D01*
X155735485Y-75789695D01*
%TO.C,C33*%
X127578342Y-80958742D02*
X127530723Y-81006361D01*
X127387866Y-81053980D01*
X127292628Y-81053980D01*
X127149771Y-81006361D01*
X127054533Y-80911123D01*
X127006914Y-80815885D01*
X126959295Y-80625409D01*
X126959295Y-80482552D01*
X127006914Y-80292076D01*
X127054533Y-80196838D01*
X127149771Y-80101600D01*
X127292628Y-80053980D01*
X127387866Y-80053980D01*
X127530723Y-80101600D01*
X127578342Y-80149219D01*
X127911676Y-80053980D02*
X128530723Y-80053980D01*
X128197390Y-80434933D01*
X128340247Y-80434933D01*
X128435485Y-80482552D01*
X128483104Y-80530171D01*
X128530723Y-80625409D01*
X128530723Y-80863504D01*
X128483104Y-80958742D01*
X128435485Y-81006361D01*
X128340247Y-81053980D01*
X128054533Y-81053980D01*
X127959295Y-81006361D01*
X127911676Y-80958742D01*
X128864057Y-80053980D02*
X129483104Y-80053980D01*
X129149771Y-80434933D01*
X129292628Y-80434933D01*
X129387866Y-80482552D01*
X129435485Y-80530171D01*
X129483104Y-80625409D01*
X129483104Y-80863504D01*
X129435485Y-80958742D01*
X129387866Y-81006361D01*
X129292628Y-81053980D01*
X129006914Y-81053980D01*
X128911676Y-81006361D01*
X128864057Y-80958742D01*
D10*
%TO.C,U15*%
X124410533Y-77002266D02*
X124410533Y-77568933D01*
X124443866Y-77635600D01*
X124477200Y-77668933D01*
X124543866Y-77702266D01*
X124677200Y-77702266D01*
X124743866Y-77668933D01*
X124777200Y-77635600D01*
X124810533Y-77568933D01*
X124810533Y-77002266D01*
X125510533Y-77702266D02*
X125110533Y-77702266D01*
X125310533Y-77702266D02*
X125310533Y-77002266D01*
X125243866Y-77102266D01*
X125177200Y-77168933D01*
X125110533Y-77202266D01*
X126143866Y-77002266D02*
X125810533Y-77002266D01*
X125777200Y-77335600D01*
X125810533Y-77302266D01*
X125877200Y-77268933D01*
X126043866Y-77268933D01*
X126110533Y-77302266D01*
X126143866Y-77335600D01*
X126177200Y-77402266D01*
X126177200Y-77568933D01*
X126143866Y-77635600D01*
X126110533Y-77668933D01*
X126043866Y-77702266D01*
X125877200Y-77702266D01*
X125810533Y-77668933D01*
X125777200Y-77635600D01*
D12*
%TO.C,R50*%
X164757142Y-89303980D02*
X164423809Y-88827790D01*
X164185714Y-89303980D02*
X164185714Y-88303980D01*
X164566666Y-88303980D01*
X164661904Y-88351600D01*
X164709523Y-88399219D01*
X164757142Y-88494457D01*
X164757142Y-88637314D01*
X164709523Y-88732552D01*
X164661904Y-88780171D01*
X164566666Y-88827790D01*
X164185714Y-88827790D01*
X165661904Y-88303980D02*
X165185714Y-88303980D01*
X165138095Y-88780171D01*
X165185714Y-88732552D01*
X165280952Y-88684933D01*
X165519047Y-88684933D01*
X165614285Y-88732552D01*
X165661904Y-88780171D01*
X165709523Y-88875409D01*
X165709523Y-89113504D01*
X165661904Y-89208742D01*
X165614285Y-89256361D01*
X165519047Y-89303980D01*
X165280952Y-89303980D01*
X165185714Y-89256361D01*
X165138095Y-89208742D01*
X166328571Y-88303980D02*
X166423809Y-88303980D01*
X166519047Y-88351600D01*
X166566666Y-88399219D01*
X166614285Y-88494457D01*
X166661904Y-88684933D01*
X166661904Y-88923028D01*
X166614285Y-89113504D01*
X166566666Y-89208742D01*
X166519047Y-89256361D01*
X166423809Y-89303980D01*
X166328571Y-89303980D01*
X166233333Y-89256361D01*
X166185714Y-89208742D01*
X166138095Y-89113504D01*
X166090476Y-88923028D01*
X166090476Y-88684933D01*
X166138095Y-88494457D01*
X166185714Y-88399219D01*
X166233333Y-88351600D01*
X166328571Y-88303980D01*
%TO.C,C35*%
X147278342Y-84208742D02*
X147230723Y-84256361D01*
X147087866Y-84303980D01*
X146992628Y-84303980D01*
X146849771Y-84256361D01*
X146754533Y-84161123D01*
X146706914Y-84065885D01*
X146659295Y-83875409D01*
X146659295Y-83732552D01*
X146706914Y-83542076D01*
X146754533Y-83446838D01*
X146849771Y-83351600D01*
X146992628Y-83303980D01*
X147087866Y-83303980D01*
X147230723Y-83351600D01*
X147278342Y-83399219D01*
X147611676Y-83303980D02*
X148230723Y-83303980D01*
X147897390Y-83684933D01*
X148040247Y-83684933D01*
X148135485Y-83732552D01*
X148183104Y-83780171D01*
X148230723Y-83875409D01*
X148230723Y-84113504D01*
X148183104Y-84208742D01*
X148135485Y-84256361D01*
X148040247Y-84303980D01*
X147754533Y-84303980D01*
X147659295Y-84256361D01*
X147611676Y-84208742D01*
X149135485Y-83303980D02*
X148659295Y-83303980D01*
X148611676Y-83780171D01*
X148659295Y-83732552D01*
X148754533Y-83684933D01*
X148992628Y-83684933D01*
X149087866Y-83732552D01*
X149135485Y-83780171D01*
X149183104Y-83875409D01*
X149183104Y-84113504D01*
X149135485Y-84208742D01*
X149087866Y-84256361D01*
X148992628Y-84303980D01*
X148754533Y-84303980D01*
X148659295Y-84256361D01*
X148611676Y-84208742D01*
%TO.C,SW6*%
X162109466Y-114975961D02*
X162252323Y-115023580D01*
X162490419Y-115023580D01*
X162585657Y-114975961D01*
X162633276Y-114928342D01*
X162680895Y-114833104D01*
X162680895Y-114737866D01*
X162633276Y-114642628D01*
X162585657Y-114595009D01*
X162490419Y-114547390D01*
X162299942Y-114499771D01*
X162204704Y-114452152D01*
X162157085Y-114404533D01*
X162109466Y-114309295D01*
X162109466Y-114214057D01*
X162157085Y-114118819D01*
X162204704Y-114071200D01*
X162299942Y-114023580D01*
X162538038Y-114023580D01*
X162680895Y-114071200D01*
X163014228Y-114023580D02*
X163252323Y-115023580D01*
X163442800Y-114309295D01*
X163633276Y-115023580D01*
X163871371Y-114023580D01*
X164680895Y-114023580D02*
X164490419Y-114023580D01*
X164395180Y-114071200D01*
X164347561Y-114118819D01*
X164252323Y-114261676D01*
X164204704Y-114452152D01*
X164204704Y-114833104D01*
X164252323Y-114928342D01*
X164299942Y-114975961D01*
X164395180Y-115023580D01*
X164585657Y-115023580D01*
X164680895Y-114975961D01*
X164728514Y-114928342D01*
X164776133Y-114833104D01*
X164776133Y-114595009D01*
X164728514Y-114499771D01*
X164680895Y-114452152D01*
X164585657Y-114404533D01*
X164395180Y-114404533D01*
X164299942Y-114452152D01*
X164252323Y-114499771D01*
X164204704Y-114595009D01*
%TO.C,D11*%
X118656914Y-108303980D02*
X118656914Y-107303980D01*
X118895009Y-107303980D01*
X119037866Y-107351600D01*
X119133104Y-107446838D01*
X119180723Y-107542076D01*
X119228342Y-107732552D01*
X119228342Y-107875409D01*
X119180723Y-108065885D01*
X119133104Y-108161123D01*
X119037866Y-108256361D01*
X118895009Y-108303980D01*
X118656914Y-108303980D01*
X120180723Y-108303980D02*
X119609295Y-108303980D01*
X119895009Y-108303980D02*
X119895009Y-107303980D01*
X119799771Y-107446838D01*
X119704533Y-107542076D01*
X119609295Y-107589695D01*
X121133104Y-108303980D02*
X120561676Y-108303980D01*
X120847390Y-108303980D02*
X120847390Y-107303980D01*
X120752152Y-107446838D01*
X120656914Y-107542076D01*
X120561676Y-107589695D01*
%TO.C,D5*%
X154783104Y-78203980D02*
X154783104Y-77203980D01*
X155021200Y-77203980D01*
X155164057Y-77251600D01*
X155259295Y-77346838D01*
X155306914Y-77442076D01*
X155354533Y-77632552D01*
X155354533Y-77775409D01*
X155306914Y-77965885D01*
X155259295Y-78061123D01*
X155164057Y-78156361D01*
X155021200Y-78203980D01*
X154783104Y-78203980D01*
X156259295Y-77203980D02*
X155783104Y-77203980D01*
X155735485Y-77680171D01*
X155783104Y-77632552D01*
X155878342Y-77584933D01*
X156116438Y-77584933D01*
X156211676Y-77632552D01*
X156259295Y-77680171D01*
X156306914Y-77775409D01*
X156306914Y-78013504D01*
X156259295Y-78108742D01*
X156211676Y-78156361D01*
X156116438Y-78203980D01*
X155878342Y-78203980D01*
X155783104Y-78156361D01*
X155735485Y-78108742D01*
%TO.C,R20*%
X152167942Y-88303980D02*
X151834609Y-87827790D01*
X151596514Y-88303980D02*
X151596514Y-87303980D01*
X151977466Y-87303980D01*
X152072704Y-87351600D01*
X152120323Y-87399219D01*
X152167942Y-87494457D01*
X152167942Y-87637314D01*
X152120323Y-87732552D01*
X152072704Y-87780171D01*
X151977466Y-87827790D01*
X151596514Y-87827790D01*
X152548895Y-87399219D02*
X152596514Y-87351600D01*
X152691752Y-87303980D01*
X152929847Y-87303980D01*
X153025085Y-87351600D01*
X153072704Y-87399219D01*
X153120323Y-87494457D01*
X153120323Y-87589695D01*
X153072704Y-87732552D01*
X152501276Y-88303980D01*
X153120323Y-88303980D01*
X153739371Y-87303980D02*
X153834609Y-87303980D01*
X153929847Y-87351600D01*
X153977466Y-87399219D01*
X154025085Y-87494457D01*
X154072704Y-87684933D01*
X154072704Y-87923028D01*
X154025085Y-88113504D01*
X153977466Y-88208742D01*
X153929847Y-88256361D01*
X153834609Y-88303980D01*
X153739371Y-88303980D01*
X153644133Y-88256361D01*
X153596514Y-88208742D01*
X153548895Y-88113504D01*
X153501276Y-87923028D01*
X153501276Y-87684933D01*
X153548895Y-87494457D01*
X153596514Y-87399219D01*
X153644133Y-87351600D01*
X153739371Y-87303980D01*
%TO.C,J5*%
X88257866Y-100673980D02*
X88257866Y-101388266D01*
X88210247Y-101531123D01*
X88115009Y-101626361D01*
X87972152Y-101673980D01*
X87876914Y-101673980D01*
X89210247Y-100673980D02*
X88734057Y-100673980D01*
X88686438Y-101150171D01*
X88734057Y-101102552D01*
X88829295Y-101054933D01*
X89067390Y-101054933D01*
X89162628Y-101102552D01*
X89210247Y-101150171D01*
X89257866Y-101245409D01*
X89257866Y-101483504D01*
X89210247Y-101578742D01*
X89162628Y-101626361D01*
X89067390Y-101673980D01*
X88829295Y-101673980D01*
X88734057Y-101626361D01*
X88686438Y-101578742D01*
%TO.C,R62*%
X130573580Y-108494457D02*
X130097390Y-108827790D01*
X130573580Y-109065885D02*
X129573580Y-109065885D01*
X129573580Y-108684933D01*
X129621200Y-108589695D01*
X129668819Y-108542076D01*
X129764057Y-108494457D01*
X129906914Y-108494457D01*
X130002152Y-108542076D01*
X130049771Y-108589695D01*
X130097390Y-108684933D01*
X130097390Y-109065885D01*
X129573580Y-107637314D02*
X129573580Y-107827790D01*
X129621200Y-107923028D01*
X129668819Y-107970647D01*
X129811676Y-108065885D01*
X130002152Y-108113504D01*
X130383104Y-108113504D01*
X130478342Y-108065885D01*
X130525961Y-108018266D01*
X130573580Y-107923028D01*
X130573580Y-107732552D01*
X130525961Y-107637314D01*
X130478342Y-107589695D01*
X130383104Y-107542076D01*
X130145009Y-107542076D01*
X130049771Y-107589695D01*
X130002152Y-107637314D01*
X129954533Y-107732552D01*
X129954533Y-107923028D01*
X130002152Y-108018266D01*
X130049771Y-108065885D01*
X130145009Y-108113504D01*
X129668819Y-107161123D02*
X129621200Y-107113504D01*
X129573580Y-107018266D01*
X129573580Y-106780171D01*
X129621200Y-106684933D01*
X129668819Y-106637314D01*
X129764057Y-106589695D01*
X129859295Y-106589695D01*
X130002152Y-106637314D01*
X130573580Y-107208742D01*
X130573580Y-106589695D01*
%TO.C,SW1*%
X174537866Y-71256361D02*
X174680723Y-71303980D01*
X174918819Y-71303980D01*
X175014057Y-71256361D01*
X175061676Y-71208742D01*
X175109295Y-71113504D01*
X175109295Y-71018266D01*
X175061676Y-70923028D01*
X175014057Y-70875409D01*
X174918819Y-70827790D01*
X174728342Y-70780171D01*
X174633104Y-70732552D01*
X174585485Y-70684933D01*
X174537866Y-70589695D01*
X174537866Y-70494457D01*
X174585485Y-70399219D01*
X174633104Y-70351600D01*
X174728342Y-70303980D01*
X174966438Y-70303980D01*
X175109295Y-70351600D01*
X175442628Y-70303980D02*
X175680723Y-71303980D01*
X175871200Y-70589695D01*
X176061676Y-71303980D01*
X176299771Y-70303980D01*
X177204533Y-71303980D02*
X176633104Y-71303980D01*
X176918819Y-71303980D02*
X176918819Y-70303980D01*
X176823580Y-70446838D01*
X176728342Y-70542076D01*
X176633104Y-70589695D01*
%TO.C,D6*%
X154783104Y-79903980D02*
X154783104Y-78903980D01*
X155021200Y-78903980D01*
X155164057Y-78951600D01*
X155259295Y-79046838D01*
X155306914Y-79142076D01*
X155354533Y-79332552D01*
X155354533Y-79475409D01*
X155306914Y-79665885D01*
X155259295Y-79761123D01*
X155164057Y-79856361D01*
X155021200Y-79903980D01*
X154783104Y-79903980D01*
X156211676Y-78903980D02*
X156021200Y-78903980D01*
X155925961Y-78951600D01*
X155878342Y-78999219D01*
X155783104Y-79142076D01*
X155735485Y-79332552D01*
X155735485Y-79713504D01*
X155783104Y-79808742D01*
X155830723Y-79856361D01*
X155925961Y-79903980D01*
X156116438Y-79903980D01*
X156211676Y-79856361D01*
X156259295Y-79808742D01*
X156306914Y-79713504D01*
X156306914Y-79475409D01*
X156259295Y-79380171D01*
X156211676Y-79332552D01*
X156116438Y-79284933D01*
X155925961Y-79284933D01*
X155830723Y-79332552D01*
X155783104Y-79380171D01*
X155735485Y-79475409D01*
%TO.C,Y1*%
X134707009Y-115614190D02*
X134707009Y-116090380D01*
X134373676Y-115090380D02*
X134707009Y-115614190D01*
X135040342Y-115090380D01*
X135897485Y-116090380D02*
X135326057Y-116090380D01*
X135611771Y-116090380D02*
X135611771Y-115090380D01*
X135516533Y-115233238D01*
X135421295Y-115328476D01*
X135326057Y-115376095D01*
%TO.C,J3*%
X88257866Y-75273980D02*
X88257866Y-75988266D01*
X88210247Y-76131123D01*
X88115009Y-76226361D01*
X87972152Y-76273980D01*
X87876914Y-76273980D01*
X88638819Y-75273980D02*
X89257866Y-75273980D01*
X88924533Y-75654933D01*
X89067390Y-75654933D01*
X89162628Y-75702552D01*
X89210247Y-75750171D01*
X89257866Y-75845409D01*
X89257866Y-76083504D01*
X89210247Y-76178742D01*
X89162628Y-76226361D01*
X89067390Y-76273980D01*
X88781676Y-76273980D01*
X88686438Y-76226361D01*
X88638819Y-76178742D01*
%TO.C,R52*%
X152793580Y-98594457D02*
X152317390Y-98927790D01*
X152793580Y-99165885D02*
X151793580Y-99165885D01*
X151793580Y-98784933D01*
X151841200Y-98689695D01*
X151888819Y-98642076D01*
X151984057Y-98594457D01*
X152126914Y-98594457D01*
X152222152Y-98642076D01*
X152269771Y-98689695D01*
X152317390Y-98784933D01*
X152317390Y-99165885D01*
X151793580Y-97689695D02*
X151793580Y-98165885D01*
X152269771Y-98213504D01*
X152222152Y-98165885D01*
X152174533Y-98070647D01*
X152174533Y-97832552D01*
X152222152Y-97737314D01*
X152269771Y-97689695D01*
X152365009Y-97642076D01*
X152603104Y-97642076D01*
X152698342Y-97689695D01*
X152745961Y-97737314D01*
X152793580Y-97832552D01*
X152793580Y-98070647D01*
X152745961Y-98165885D01*
X152698342Y-98213504D01*
X151888819Y-97261123D02*
X151841200Y-97213504D01*
X151793580Y-97118266D01*
X151793580Y-96880171D01*
X151841200Y-96784933D01*
X151888819Y-96737314D01*
X151984057Y-96689695D01*
X152079295Y-96689695D01*
X152222152Y-96737314D01*
X152793580Y-97308742D01*
X152793580Y-96689695D01*
%TO.C,J11*%
X145600476Y-126164780D02*
X145600476Y-126879066D01*
X145552857Y-127021923D01*
X145457619Y-127117161D01*
X145314761Y-127164780D01*
X145219523Y-127164780D01*
X146600476Y-127164780D02*
X146029047Y-127164780D01*
X146314761Y-127164780D02*
X146314761Y-126164780D01*
X146219523Y-126307638D01*
X146124285Y-126402876D01*
X146029047Y-126450495D01*
X147552857Y-127164780D02*
X146981428Y-127164780D01*
X147267142Y-127164780D02*
X147267142Y-126164780D01*
X147171904Y-126307638D01*
X147076666Y-126402876D01*
X146981428Y-126450495D01*
%TO.C,REF\u002A\u002A*%
X174287866Y-66403980D02*
X173954533Y-65927790D01*
X173716438Y-66403980D02*
X173716438Y-65403980D01*
X174097390Y-65403980D01*
X174192628Y-65451600D01*
X174240247Y-65499219D01*
X174287866Y-65594457D01*
X174287866Y-65737314D01*
X174240247Y-65832552D01*
X174192628Y-65880171D01*
X174097390Y-65927790D01*
X173716438Y-65927790D01*
X174716438Y-65880171D02*
X175049771Y-65880171D01*
X175192628Y-66403980D02*
X174716438Y-66403980D01*
X174716438Y-65403980D01*
X175192628Y-65403980D01*
X175954533Y-65880171D02*
X175621200Y-65880171D01*
X175621200Y-66403980D02*
X175621200Y-65403980D01*
X176097390Y-65403980D01*
X176621200Y-65403980D02*
X176621200Y-65642076D01*
X176383104Y-65546838D02*
X176621200Y-65642076D01*
X176859295Y-65546838D01*
X176478342Y-65832552D02*
X176621200Y-65642076D01*
X176764057Y-65832552D01*
X177383104Y-65403980D02*
X177383104Y-65642076D01*
X177145009Y-65546838D02*
X177383104Y-65642076D01*
X177621200Y-65546838D01*
X177240247Y-65832552D02*
X177383104Y-65642076D01*
X177525961Y-65832552D01*
%TO.C,SW10*%
X97334876Y-114504161D02*
X97477733Y-114551780D01*
X97715828Y-114551780D01*
X97811066Y-114504161D01*
X97858685Y-114456542D01*
X97906304Y-114361304D01*
X97906304Y-114266066D01*
X97858685Y-114170828D01*
X97811066Y-114123209D01*
X97715828Y-114075590D01*
X97525352Y-114027971D01*
X97430114Y-113980352D01*
X97382495Y-113932733D01*
X97334876Y-113837495D01*
X97334876Y-113742257D01*
X97382495Y-113647019D01*
X97430114Y-113599400D01*
X97525352Y-113551780D01*
X97763447Y-113551780D01*
X97906304Y-113599400D01*
X98239638Y-113551780D02*
X98477733Y-114551780D01*
X98668209Y-113837495D01*
X98858685Y-114551780D01*
X99096780Y-113551780D01*
X100001542Y-114551780D02*
X99430114Y-114551780D01*
X99715828Y-114551780D02*
X99715828Y-113551780D01*
X99620590Y-113694638D01*
X99525352Y-113789876D01*
X99430114Y-113837495D01*
X100620590Y-113551780D02*
X100715828Y-113551780D01*
X100811066Y-113599400D01*
X100858685Y-113647019D01*
X100906304Y-113742257D01*
X100953923Y-113932733D01*
X100953923Y-114170828D01*
X100906304Y-114361304D01*
X100858685Y-114456542D01*
X100811066Y-114504161D01*
X100715828Y-114551780D01*
X100620590Y-114551780D01*
X100525352Y-114504161D01*
X100477733Y-114456542D01*
X100430114Y-114361304D01*
X100382495Y-114170828D01*
X100382495Y-113932733D01*
X100430114Y-113742257D01*
X100477733Y-113647019D01*
X100525352Y-113599400D01*
X100620590Y-113551780D01*
%TO.C,Q7*%
X159275961Y-96399219D02*
X159180723Y-96351600D01*
X159085485Y-96256361D01*
X158942628Y-96113504D01*
X158847390Y-96065885D01*
X158752152Y-96065885D01*
X158799771Y-96303980D02*
X158704533Y-96256361D01*
X158609295Y-96161123D01*
X158561676Y-95970647D01*
X158561676Y-95637314D01*
X158609295Y-95446838D01*
X158704533Y-95351600D01*
X158799771Y-95303980D01*
X158990247Y-95303980D01*
X159085485Y-95351600D01*
X159180723Y-95446838D01*
X159228342Y-95637314D01*
X159228342Y-95970647D01*
X159180723Y-96161123D01*
X159085485Y-96256361D01*
X158990247Y-96303980D01*
X158799771Y-96303980D01*
X159561676Y-95303980D02*
X160228342Y-95303980D01*
X159799771Y-96303980D01*
D11*
%TO.C,C54*%
X132968610Y-89672457D02*
X132599143Y-89302990D01*
X134008057Y-88633010D02*
X133638590Y-88263543D01*
%TO.C,C44*%
X121228398Y-96565651D02*
X121435251Y-96358798D01*
X120507149Y-95844402D02*
X120714002Y-95637549D01*
%TO.C,U16*%
X140130000Y-81835600D02*
X139030000Y-81835600D01*
X140130000Y-82105600D02*
X140130000Y-81835600D01*
X141630000Y-75205600D02*
X140130000Y-75205600D01*
X141630000Y-82105600D02*
X140130000Y-82105600D01*
X140130000Y-75475600D02*
X137300000Y-75475600D01*
X140130000Y-75205600D02*
X140130000Y-75475600D01*
%TO.C,R54*%
X160748700Y-93806324D02*
X160748700Y-93296876D01*
X161793700Y-93806324D02*
X161793700Y-93296876D01*
%TO.C,LS1*%
X166615600Y-73461200D02*
X163965600Y-73461200D01*
X157395600Y-73461200D02*
X157395600Y-64241200D01*
X157395600Y-64241200D02*
X160045600Y-64241200D01*
X163965600Y-64241200D02*
X166615600Y-64241200D01*
X160045600Y-73461200D02*
X157395600Y-73461200D01*
X166615600Y-64241200D02*
X166615600Y-73461200D01*
X160045600Y-73461200D02*
X160045600Y-73791200D01*
%TO.C,C26*%
X149401067Y-85968800D02*
X149108533Y-85968800D01*
X149401067Y-86988800D02*
X149108533Y-86988800D01*
D15*
%TO.C,U17*%
X164913200Y-95001600D02*
X164913200Y-92101600D01*
X164913200Y-92101600D02*
X166413200Y-92101600D01*
X167338200Y-95061600D02*
X166763200Y-95061600D01*
X166413200Y-95001600D02*
X164913200Y-95001600D01*
X166413200Y-92101600D02*
X166413200Y-95001600D01*
D11*
%TO.C,C32*%
X117816800Y-88249600D02*
X120766800Y-88249600D01*
X118881237Y-79729600D02*
X117816800Y-80794037D01*
X126336800Y-88249600D02*
X123386800Y-88249600D01*
X126336800Y-80794037D02*
X126336800Y-88249600D01*
X118881237Y-79729600D02*
X120766800Y-79729600D01*
X125272363Y-79729600D02*
X123386800Y-79729600D01*
X117816800Y-80794037D02*
X117816800Y-88249600D01*
X125272363Y-79729600D02*
X126336800Y-80794037D01*
%TO.C,C37*%
X145067467Y-85511600D02*
X144774933Y-85511600D01*
X145067467Y-84491600D02*
X144774933Y-84491600D01*
D15*
%TO.C,U8*%
X130334000Y-78135600D02*
X127434000Y-78135600D01*
X127434000Y-78135600D02*
X127434000Y-76635600D01*
X130334000Y-76635600D02*
X130334000Y-78135600D01*
X127374000Y-79060600D02*
X127374000Y-78485600D01*
X127434000Y-76635600D02*
X130334000Y-76635600D01*
D11*
%TO.C,SW12*%
X105312800Y-95749800D02*
X113948800Y-95749800D01*
X113948800Y-99305800D02*
X105312800Y-99305800D01*
X113948800Y-95749800D02*
X113948800Y-99305800D01*
X105312800Y-99305800D02*
X105312800Y-95749800D01*
%TO.C,Y2*%
X131917000Y-112524600D02*
X131917000Y-118774600D01*
X126867000Y-112524600D02*
X126867000Y-118774600D01*
X131917000Y-112524600D02*
G75*
G03*
X126867000Y-112524600I-2525000J0D01*
G01*
X126867000Y-118774600D02*
G75*
G03*
X131917000Y-118774600I2525000J0D01*
G01*
%TO.C,R60*%
X135168700Y-107560076D02*
X135168700Y-108069524D01*
X136213700Y-107560076D02*
X136213700Y-108069524D01*
%TO.C,C46*%
X137217032Y-94002374D02*
X137010179Y-93795521D01*
X137938281Y-93281125D02*
X137731428Y-93074272D01*
D16*
%TO.C,C27*%
X110692600Y-76561800D02*
X111652600Y-76561800D01*
X110692600Y-78361800D02*
X111652600Y-78361800D01*
D11*
%TO.C,SW2*%
X100613800Y-106621000D02*
X100613800Y-97985000D01*
X104169800Y-97985000D02*
X104169800Y-106621000D01*
X100613800Y-97985000D02*
X104169800Y-97985000D01*
X104169800Y-106621000D02*
X100613800Y-106621000D01*
%TO.C,R51*%
X154293700Y-93856324D02*
X154293700Y-93346876D01*
X153248700Y-93856324D02*
X153248700Y-93346876D01*
%TO.C,D3*%
X118181600Y-77333200D02*
X120641600Y-77333200D01*
X120641600Y-75863200D02*
X118181600Y-75863200D01*
X118181600Y-75863200D02*
X118181600Y-77333200D01*
%TO.C,C51*%
X140810200Y-115373200D02*
X141125200Y-115373200D01*
X138385200Y-120613200D02*
X138385200Y-115373200D01*
X138385200Y-115373200D02*
X138700200Y-115373200D01*
X138385200Y-120613200D02*
X138700200Y-120613200D01*
X141125200Y-120613200D02*
X141125200Y-115373200D01*
X140810200Y-120613200D02*
X141125200Y-120613200D01*
%TO.C,J7*%
X150299200Y-69059500D02*
X129719200Y-69059500D01*
X134429200Y-75679500D02*
X135429200Y-75679500D01*
X134929200Y-74679500D02*
X134429200Y-75679500D01*
X129719200Y-69059500D02*
X129719200Y-59939500D01*
X129719200Y-59939500D02*
X150299200Y-59939500D01*
X135429200Y-75679500D02*
X134929200Y-74679500D01*
X137959200Y-69059500D02*
X137959200Y-59939500D01*
X150299200Y-59939500D02*
X150299200Y-69059500D01*
X142059200Y-69059500D02*
X142059200Y-59939500D01*
%TO.C,Q8*%
X158231200Y-100621600D02*
X155071200Y-100621600D01*
X158231200Y-100621600D02*
X158231200Y-101551600D01*
X158231200Y-103781600D02*
X156771200Y-103781600D01*
X158231200Y-103781600D02*
X158231200Y-102851600D01*
%TO.C,C47*%
X137755451Y-99766198D02*
X137548598Y-99973051D01*
X137034202Y-99044949D02*
X136827349Y-99251802D01*
D15*
%TO.C,U14*%
X116650000Y-79450000D02*
X115150000Y-79450000D01*
X116650000Y-76550000D02*
X116650000Y-79450000D01*
X114225000Y-76490000D02*
X114800000Y-76490000D01*
X115150000Y-76550000D02*
X116650000Y-76550000D01*
X115150000Y-79450000D02*
X115150000Y-76550000D01*
D11*
%TO.C,C50*%
X138700200Y-113319600D02*
X138385200Y-113319600D01*
X138385200Y-108079600D02*
X138385200Y-113319600D01*
X141125200Y-113319600D02*
X140810200Y-113319600D01*
X141125200Y-108079600D02*
X140810200Y-108079600D01*
X138700200Y-108079600D02*
X138385200Y-108079600D01*
X141125200Y-108079600D02*
X141125200Y-113319600D01*
D16*
%TO.C,U2*%
X172521200Y-80306600D02*
X152201200Y-80306600D01*
X172521200Y-59986600D02*
X172521200Y-80306600D01*
X152201200Y-80306600D02*
X152201200Y-59986600D01*
X152201200Y-59986600D02*
X172521200Y-59986600D01*
D15*
X173261200Y-79036600D02*
G75*
G03*
X173261200Y-79036600I-100000J0D01*
G01*
D12*
%TO.C,MD1*%
X103906900Y-81013000D02*
X116106900Y-81013000D01*
X116106900Y-93213000D02*
X116106900Y-81013000D01*
X103906900Y-93213000D02*
X116106900Y-93213000D01*
X103906900Y-93213000D02*
X103906900Y-81013000D01*
D17*
X102886900Y-87113000D02*
G75*
G03*
X102886900Y-87113000I-125000J0D01*
G01*
D11*
%TO.C,SW5*%
X161301400Y-130343800D02*
X162951400Y-130343800D01*
X166601400Y-120063800D02*
X161301400Y-120063800D01*
X164951400Y-130343800D02*
X166601400Y-130343800D01*
X161301400Y-120063800D02*
X161301400Y-130343800D01*
X166601400Y-130343800D02*
X166601400Y-120063800D01*
X164951400Y-130343800D02*
G75*
G03*
X162951400Y-130343800I-1000000J0D01*
G01*
%TO.C,C34*%
X129085200Y-82852733D02*
X129085200Y-83145267D01*
X130105200Y-82852733D02*
X130105200Y-83145267D01*
%TO.C,J9*%
X90742400Y-122652400D02*
X90742400Y-130772400D01*
X105862400Y-122652400D02*
X90742400Y-122652400D01*
X105862400Y-130772400D02*
X105862400Y-122652400D01*
X90442400Y-124762400D02*
X90442400Y-122352400D01*
X90442400Y-122352400D02*
X92852400Y-122352400D01*
X90742400Y-130772400D02*
X105862400Y-130772400D01*
%TO.C,C30*%
X133342600Y-79453800D02*
X133657600Y-79453800D01*
X130917600Y-84693800D02*
X130917600Y-79453800D01*
X130917600Y-84693800D02*
X131232600Y-84693800D01*
X133342600Y-84693800D02*
X133657600Y-84693800D01*
X130917600Y-79453800D02*
X131232600Y-79453800D01*
X133657600Y-84693800D02*
X133657600Y-79453800D01*
%TO.C,J8*%
X121889800Y-130772400D02*
X121889800Y-122652400D01*
X106769800Y-130772400D02*
X121889800Y-130772400D01*
X121889800Y-122652400D02*
X106769800Y-122652400D01*
X106769800Y-122652400D02*
X106769800Y-130772400D01*
X106469800Y-122352400D02*
X108879800Y-122352400D01*
X106469800Y-124762400D02*
X106469800Y-122352400D01*
%TO.C,R57*%
X97138876Y-119579100D02*
X97648324Y-119579100D01*
X97138876Y-120624100D02*
X97648324Y-120624100D01*
%TO.C,R56*%
X161793700Y-102456324D02*
X161793700Y-101946876D01*
X160748700Y-102456324D02*
X160748700Y-101946876D01*
%TO.C,R53*%
X154293700Y-102456324D02*
X154293700Y-101946876D01*
X153248700Y-102456324D02*
X153248700Y-101946876D01*
%TO.C,J4*%
X90541200Y-83161600D02*
X92951200Y-83161600D01*
X92951200Y-83161600D02*
X92951200Y-85571600D01*
X92651200Y-93581600D02*
X92651200Y-83461600D01*
X84531200Y-93581600D02*
X92651200Y-93581600D01*
X84531200Y-83461600D02*
X84531200Y-93581600D01*
X92651200Y-83461600D02*
X84531200Y-83461600D01*
%TO.C,D7*%
X148407600Y-80511400D02*
X148407600Y-81981400D01*
X150867600Y-80511400D02*
X148407600Y-80511400D01*
X148407600Y-81981400D02*
X150867600Y-81981400D01*
%TO.C,D9*%
X118047200Y-103574600D02*
X115587200Y-103574600D01*
X115587200Y-105044600D02*
X118047200Y-105044600D01*
X118047200Y-105044600D02*
X118047200Y-103574600D01*
%TO.C,J10*%
X122822600Y-122652400D02*
X122822600Y-130772400D01*
X122522600Y-122352400D02*
X124932600Y-122352400D01*
X122522600Y-124762400D02*
X122522600Y-122352400D01*
X122822600Y-130772400D02*
X137942600Y-130772400D01*
X137942600Y-130772400D02*
X137942600Y-122652400D01*
X137942600Y-122652400D02*
X122822600Y-122652400D01*
%TO.C,C53*%
X123399200Y-120645600D02*
X123399200Y-115405600D01*
X123399200Y-120645600D02*
X123714200Y-120645600D01*
X126139200Y-120645600D02*
X126139200Y-115405600D01*
X125824200Y-115405600D02*
X126139200Y-115405600D01*
X125824200Y-120645600D02*
X126139200Y-120645600D01*
X123399200Y-115405600D02*
X123714200Y-115405600D01*
%TO.C,SW8*%
X113929200Y-103929600D02*
X105293200Y-103929600D01*
X105293200Y-103929600D02*
X105293200Y-100373600D01*
X113929200Y-100373600D02*
X113929200Y-103929600D01*
X105293200Y-100373600D02*
X113929200Y-100373600D01*
%TO.C,C29*%
X136807200Y-84704600D02*
X136492200Y-84704600D01*
X136807200Y-79464600D02*
X136807200Y-84704600D01*
X134382200Y-79464600D02*
X134067200Y-79464600D01*
X134382200Y-84704600D02*
X134067200Y-84704600D01*
X134067200Y-79464600D02*
X134067200Y-84704600D01*
X136807200Y-79464600D02*
X136492200Y-79464600D01*
%TO.C,C49*%
X100752533Y-120611600D02*
X101045067Y-120611600D01*
X100752533Y-119591600D02*
X101045067Y-119591600D01*
%TO.C,Q5*%
X133000800Y-75018200D02*
X133000800Y-75948200D01*
X133000800Y-75018200D02*
X134460800Y-75018200D01*
X133000800Y-78178200D02*
X133000800Y-77248200D01*
X133000800Y-78178200D02*
X136160800Y-78178200D01*
%TO.C,C55*%
X130135251Y-105758798D02*
X129928398Y-105965651D01*
X129414002Y-105037549D02*
X129207149Y-105244402D01*
%TO.C,U7*%
X141507800Y-83022600D02*
X166907800Y-83022600D01*
X166907800Y-83022600D02*
X166907800Y-109022600D01*
X166907800Y-109022600D02*
X141507800Y-109022600D01*
X141507800Y-109022600D02*
X141507800Y-83022600D01*
%TO.C,J12*%
X169711200Y-121811600D02*
X177831200Y-121811600D01*
X169411200Y-122111600D02*
X169411200Y-119701600D01*
X171821200Y-122111600D02*
X169411200Y-122111600D01*
X177831200Y-111691600D02*
X169711200Y-111691600D01*
X169711200Y-111691600D02*
X169711200Y-121811600D01*
X177831200Y-121811600D02*
X177831200Y-111691600D01*
%TO.C,C52*%
X123714200Y-113366600D02*
X123399200Y-113366600D01*
X126139200Y-108126600D02*
X126139200Y-113366600D01*
X126139200Y-108126600D02*
X125824200Y-108126600D01*
X123399200Y-108126600D02*
X123399200Y-113366600D01*
X126139200Y-113366600D02*
X125824200Y-113366600D01*
X123714200Y-108126600D02*
X123399200Y-108126600D01*
%TO.C,J6*%
X90541200Y-108561600D02*
X92951200Y-108561600D01*
X92951200Y-108561600D02*
X92951200Y-110971600D01*
X92651200Y-108861600D02*
X84531200Y-108861600D01*
X92651200Y-118981600D02*
X92651200Y-108861600D01*
X84531200Y-108861600D02*
X84531200Y-118981600D01*
X84531200Y-118981600D02*
X92651200Y-118981600D01*
%TO.C,C48*%
X127480149Y-104687402D02*
X127687002Y-104480549D01*
X128201398Y-105408651D02*
X128408251Y-105201798D01*
%TO.C,SW7*%
X177989200Y-85229600D02*
X169353200Y-85229600D01*
X169353200Y-81673600D02*
X177989200Y-81673600D01*
X177989200Y-81673600D02*
X177989200Y-85229600D01*
X169353200Y-85229600D02*
X169353200Y-81673600D01*
%TO.C,J1*%
X95630000Y-60046200D02*
X95630000Y-62146200D01*
X105750000Y-64366200D02*
X106340000Y-64366200D01*
X105750000Y-64366200D02*
X105750000Y-69266200D01*
X105750000Y-62146200D02*
X106340000Y-62146200D01*
X95630000Y-69266200D02*
X105750000Y-69266200D01*
X95040000Y-62146200D02*
X95630000Y-62146200D01*
X95630000Y-64366200D02*
X95630000Y-69266200D01*
X95040000Y-64366200D02*
X95630000Y-64366200D01*
X105750000Y-60046200D02*
X105750000Y-62146200D01*
X95630000Y-60046200D02*
X105750000Y-60046200D01*
X106340000Y-64366200D02*
G75*
G03*
X106340000Y-62146200I0J1110000D01*
G01*
X95040000Y-62146200D02*
G75*
G03*
X95040000Y-64366200I0J-1110000D01*
G01*
%TO.C,SW11*%
X94543200Y-107281400D02*
X94543200Y-97121400D01*
X94543200Y-97121400D02*
X99623200Y-97121400D01*
X94543200Y-107281400D02*
X94543200Y-97121400D01*
X99623200Y-107281400D02*
X94543200Y-107281400D01*
X99623200Y-97121400D02*
X99623200Y-107281400D01*
%TO.C,SW4*%
X150948000Y-119658000D02*
X150948000Y-118658000D01*
X150998000Y-111658000D02*
X150998000Y-117458000D01*
X152948000Y-111458000D02*
X155548000Y-111458000D01*
X151948000Y-119658000D02*
X150948000Y-119658000D01*
X157498000Y-111558000D02*
X157498000Y-117558000D01*
X152948000Y-117658000D02*
X155548000Y-117658000D01*
%TO.C,Q6*%
X158281200Y-95181600D02*
X158281200Y-94251600D01*
X158281200Y-92021600D02*
X158281200Y-92951600D01*
X158281200Y-95181600D02*
X156821200Y-95181600D01*
X158281200Y-92021600D02*
X155121200Y-92021600D01*
%TO.C,Q1*%
X100167600Y-78754800D02*
X99894600Y-78754800D01*
X102296600Y-79493800D02*
X95476600Y-79493800D01*
X102296600Y-76953800D02*
X95476600Y-76953800D01*
X97877600Y-78754800D02*
X97604600Y-78754800D01*
X102296600Y-79493800D02*
X102296600Y-76953800D01*
X95587600Y-78754800D02*
X95476600Y-78754800D01*
X95476600Y-79493800D02*
X95476600Y-76953800D01*
X102296600Y-78754800D02*
X102185600Y-78754800D01*
%TO.C,R18*%
X156061276Y-85905500D02*
X156570724Y-85905500D01*
X156061276Y-86950500D02*
X156570724Y-86950500D01*
D16*
%TO.C,C7*%
X105332200Y-76213400D02*
X105852200Y-76213400D01*
X105332200Y-78913400D02*
X105852200Y-78913400D01*
D11*
%TO.C,J13*%
X169711200Y-87341600D02*
X169711200Y-97461600D01*
X169411200Y-97761600D02*
X169411200Y-95351600D01*
X171821200Y-97761600D02*
X169411200Y-97761600D01*
X177831200Y-97461600D02*
X177831200Y-87341600D01*
X177831200Y-87341600D02*
X169711200Y-87341600D01*
X169711200Y-97461600D02*
X177831200Y-97461600D01*
%TO.C,JP3*%
X158052400Y-126514200D02*
X158052400Y-127844200D01*
X158052400Y-125244200D02*
X158052400Y-122644200D01*
X155392400Y-125244200D02*
X155392400Y-122644200D01*
X158052400Y-125244200D02*
X155392400Y-125244200D01*
X158052400Y-127844200D02*
X156722400Y-127844200D01*
X158052400Y-122644200D02*
X155392400Y-122644200D01*
%TO.C,SW3*%
X143687600Y-111471200D02*
X146287600Y-111471200D01*
X141687600Y-119671200D02*
X141687600Y-118671200D01*
X148237600Y-111571200D02*
X148237600Y-117571200D01*
X141737600Y-111671200D02*
X141737600Y-117471200D01*
X143687600Y-117671200D02*
X146287600Y-117671200D01*
X142687600Y-119671200D02*
X141687600Y-119671200D01*
%TO.C,J14*%
X171821200Y-109961600D02*
X169411200Y-109961600D01*
X177831200Y-109661600D02*
X177831200Y-99541600D01*
X169411200Y-109961600D02*
X169411200Y-107551600D01*
X169711200Y-99541600D02*
X169711200Y-109661600D01*
X177831200Y-99541600D02*
X169711200Y-99541600D01*
X169711200Y-109661600D02*
X177831200Y-109661600D01*
%TO.C,D10*%
X118047200Y-106822600D02*
X118047200Y-105352600D01*
X118047200Y-105352600D02*
X115587200Y-105352600D01*
X115587200Y-106822600D02*
X118047200Y-106822600D01*
%TO.C,J2*%
X127361000Y-61903400D02*
X125075000Y-61903400D01*
X109765000Y-72125400D02*
X109765000Y-74325400D01*
X112121000Y-66729400D02*
X109835000Y-66729400D01*
X108565000Y-60125400D02*
X128565000Y-60125400D01*
X127365000Y-74325400D02*
X109765000Y-74325400D01*
X108565000Y-75125400D02*
X108565000Y-60125400D01*
X127361000Y-66729400D02*
X127361000Y-61903400D01*
X128565000Y-75125400D02*
X108565000Y-75125400D01*
X109765000Y-72125400D02*
X127365000Y-72125400D01*
X128565000Y-60125400D02*
X128565000Y-75125400D01*
X125075000Y-66729400D02*
X127361000Y-66729400D01*
X127365000Y-74325400D02*
X127365000Y-72125400D01*
X127365000Y-72125400D02*
X127365000Y-74325400D01*
X112121000Y-61903400D02*
X112121000Y-66729400D01*
X109835000Y-66729400D02*
X109835000Y-61903400D01*
X109835000Y-61903400D02*
X112121000Y-61903400D01*
X125075000Y-61903400D02*
X125075000Y-66729400D01*
%TO.C,U6*%
X122071200Y-121051600D02*
X122071200Y-110051600D01*
X104071200Y-121051600D02*
X122071200Y-121051600D01*
X122071200Y-110051600D02*
X104071200Y-110051600D01*
X104071200Y-110051600D02*
X104071200Y-121051600D01*
%TO.C,R55*%
X161793700Y-98306324D02*
X161793700Y-97796876D01*
X160748700Y-98306324D02*
X160748700Y-97796876D01*
%TO.C,C5*%
X102257600Y-91627800D02*
X99307600Y-91627800D01*
X94802037Y-83107800D02*
X96687600Y-83107800D01*
X101193163Y-83107800D02*
X99307600Y-83107800D01*
X94802037Y-83107800D02*
X93737600Y-84172237D01*
X93737600Y-84172237D02*
X93737600Y-91627800D01*
X101193163Y-83107800D02*
X102257600Y-84172237D01*
X102257600Y-84172237D02*
X102257600Y-91627800D01*
X93737600Y-91627800D02*
X96687600Y-91627800D01*
%TO.C,SW9*%
X113939200Y-108479600D02*
X105303200Y-108479600D01*
X113939200Y-104923600D02*
X113939200Y-108479600D01*
X105303200Y-104923600D02*
X113939200Y-104923600D01*
X105303200Y-108479600D02*
X105303200Y-104923600D01*
%TO.C,R61*%
X137737700Y-107560076D02*
X137737700Y-108069524D01*
X136692700Y-107560076D02*
X136692700Y-108069524D01*
%TO.C,C25*%
X131218800Y-72108533D02*
X131218800Y-72401067D01*
X132238800Y-72108533D02*
X132238800Y-72401067D01*
%TO.C,R63*%
X133800700Y-107560076D02*
X133800700Y-108069524D01*
X132755700Y-107560076D02*
X132755700Y-108069524D01*
%TO.C,C45*%
X129296533Y-87365800D02*
X129589067Y-87365800D01*
X129296533Y-88385800D02*
X129589067Y-88385800D01*
%TO.C,U18*%
X128720249Y-102787280D02*
X129392000Y-103459031D01*
X136618631Y-96232400D02*
X135946880Y-96904151D01*
X129392000Y-103459031D02*
X130063751Y-102787280D01*
X122165369Y-96232400D02*
X122837120Y-95560649D01*
X129392000Y-89005769D02*
X128720249Y-89677520D01*
X135946880Y-95560649D02*
X136618631Y-96232400D01*
X130063751Y-89677520D02*
X129392000Y-89005769D01*
X130063751Y-102787280D02*
X131011275Y-103734803D01*
X122837120Y-96904151D02*
X122165369Y-96232400D01*
%TO.C,D1*%
X150867600Y-75177400D02*
X148407600Y-75177400D01*
X148407600Y-75177400D02*
X148407600Y-76647400D01*
X148407600Y-76647400D02*
X150867600Y-76647400D01*
%TO.C,C33*%
X127307200Y-83145267D02*
X127307200Y-82852733D01*
X128327200Y-83145267D02*
X128327200Y-82852733D01*
D15*
%TO.C,U15*%
X123827200Y-78135600D02*
X123827200Y-76635600D01*
X123827200Y-76635600D02*
X126727200Y-76635600D01*
X126787200Y-75710600D02*
X126787200Y-76285600D01*
X126727200Y-78135600D02*
X123827200Y-78135600D01*
X126727200Y-76635600D02*
X126727200Y-78135600D01*
D11*
%TO.C,R50*%
X165917924Y-91116100D02*
X165408476Y-91116100D01*
X165917924Y-90071100D02*
X165408476Y-90071100D01*
%TO.C,C35*%
X144787433Y-82891600D02*
X145079967Y-82891600D01*
X144787433Y-83911600D02*
X145079967Y-83911600D01*
%TO.C,SW6*%
X162142800Y-111471200D02*
X164742800Y-111471200D01*
X160142800Y-119671200D02*
X160142800Y-118671200D01*
X161142800Y-119671200D02*
X160142800Y-119671200D01*
X162142800Y-117671200D02*
X164742800Y-117671200D01*
X160192800Y-111671200D02*
X160192800Y-117471200D01*
X166692800Y-111571200D02*
X166692800Y-117571200D01*
%TO.C,D11*%
X118047200Y-107130600D02*
X115587200Y-107130600D01*
X118047200Y-108600600D02*
X118047200Y-107130600D01*
X115587200Y-108600600D02*
X118047200Y-108600600D01*
%TO.C,D5*%
X150867600Y-76955400D02*
X148407600Y-76955400D01*
X148407600Y-78425400D02*
X150867600Y-78425400D01*
X148407600Y-76955400D02*
X148407600Y-78425400D01*
%TO.C,R20*%
X152556076Y-85956300D02*
X153065524Y-85956300D01*
X152556076Y-87001300D02*
X153065524Y-87001300D01*
%TO.C,J5*%
X84531200Y-106281600D02*
X92651200Y-106281600D01*
X92951200Y-95861600D02*
X92951200Y-98271600D01*
X90541200Y-95861600D02*
X92951200Y-95861600D01*
X84531200Y-96161600D02*
X84531200Y-106281600D01*
X92651200Y-106281600D02*
X92651200Y-96161600D01*
X92651200Y-96161600D02*
X84531200Y-96161600D01*
%TO.C,R62*%
X131053900Y-107560076D02*
X131053900Y-108069524D01*
X132098900Y-107560076D02*
X132098900Y-108069524D01*
%TO.C,SW1*%
X174096000Y-80433600D02*
X174096000Y-71797600D01*
X177652000Y-71797600D02*
X177652000Y-80433600D01*
X174096000Y-71797600D02*
X177652000Y-71797600D01*
X177652000Y-80433600D02*
X174096000Y-80433600D01*
%TO.C,D6*%
X150853600Y-78733400D02*
X148393600Y-78733400D01*
X148393600Y-78733400D02*
X148393600Y-80203400D01*
X148393600Y-80203400D02*
X150853600Y-80203400D01*
%TO.C,Y1*%
X132658200Y-112513000D02*
X132658200Y-118763000D01*
X137708200Y-112513000D02*
X137708200Y-118763000D01*
X132658200Y-118763000D02*
G75*
G03*
X137708200Y-118763000I2525000J0D01*
G01*
X137708200Y-112513000D02*
G75*
G03*
X132658200Y-112513000I-2525000J0D01*
G01*
%TO.C,J3*%
X92951200Y-70461600D02*
X92951200Y-72871600D01*
X92651200Y-70761600D02*
X84531200Y-70761600D01*
X90541200Y-70461600D02*
X92951200Y-70461600D01*
X84531200Y-80881600D02*
X92651200Y-80881600D01*
X84531200Y-70761600D02*
X84531200Y-80881600D01*
X92651200Y-80881600D02*
X92651200Y-70761600D01*
%TO.C,R52*%
X154293700Y-98206324D02*
X154293700Y-97696876D01*
X153248700Y-98206324D02*
X153248700Y-97696876D01*
%TO.C,J11*%
X138850000Y-130772400D02*
X153970000Y-130772400D01*
X138550000Y-124762400D02*
X138550000Y-122352400D01*
X153970000Y-130772400D02*
X153970000Y-122652400D01*
X138850000Y-122652400D02*
X138850000Y-130772400D01*
X153970000Y-122652400D02*
X138850000Y-122652400D01*
X138550000Y-122352400D02*
X140960000Y-122352400D01*
%TO.C,SW10*%
X96844400Y-119199400D02*
X95844400Y-119199400D01*
X102394400Y-111099400D02*
X102394400Y-117099400D01*
X97844400Y-110999400D02*
X100444400Y-110999400D01*
X95844400Y-119199400D02*
X95844400Y-118199400D01*
X97844400Y-117199400D02*
X100444400Y-117199400D01*
X95894400Y-111199400D02*
X95894400Y-116999400D01*
%TO.C,Q7*%
X158231200Y-99531600D02*
X156771200Y-99531600D01*
X158231200Y-96371600D02*
X158231200Y-97301600D01*
X158231200Y-99531600D02*
X158231200Y-98601600D01*
X158231200Y-96371600D02*
X155071200Y-96371600D01*
%TD*%
%LPC*%
D18*
%TO.C,C54*%
X134037223Y-89701623D03*
X132569977Y-88234377D03*
%TD*%
D19*
%TO.C,C44*%
X120361320Y-96711480D03*
X121581080Y-95491720D03*
%TD*%
D20*
%TO.C,U16*%
X138400000Y-76375600D03*
D21*
X144700000Y-78655600D03*
D20*
X138400000Y-78655600D03*
X138400000Y-80935600D03*
%TD*%
D22*
%TO.C,R54*%
X161271200Y-94464100D03*
X161271200Y-92639100D03*
%TD*%
D23*
%TO.C,LS1*%
X162005600Y-73201200D03*
X162005600Y-64501200D03*
%TD*%
D24*
%TO.C,C26*%
X150117300Y-86478800D03*
X148392300Y-86478800D03*
%TD*%
D25*
%TO.C,U17*%
X167051200Y-94501600D03*
X167051200Y-93551600D03*
X167051200Y-92601600D03*
X164275200Y-92601600D03*
X164275200Y-93551600D03*
X164275200Y-94501600D03*
%TD*%
D26*
%TO.C,C32*%
X122076800Y-80389600D03*
X122076800Y-87589600D03*
%TD*%
D24*
%TO.C,C37*%
X145783700Y-85001600D03*
X144058700Y-85001600D03*
%TD*%
D27*
%TO.C,U8*%
X127934000Y-78773600D03*
X128884000Y-78773600D03*
X129834000Y-78773600D03*
X129834000Y-75997600D03*
X128884000Y-75997600D03*
X127934000Y-75997600D03*
%TD*%
D28*
%TO.C,SW12*%
X112170800Y-97527800D03*
X109630800Y-97527800D03*
X107090800Y-97527800D03*
%TD*%
D29*
%TO.C,Y2*%
X129392000Y-113199600D03*
X129392000Y-118099600D03*
%TD*%
D30*
%TO.C,R60*%
X135691200Y-106902300D03*
X135691200Y-108727300D03*
%TD*%
D31*
%TO.C,C46*%
X138084110Y-94148203D03*
X136864350Y-92928443D03*
%TD*%
D32*
%TO.C,C27*%
X109742600Y-77461800D03*
X112602600Y-77461800D03*
%TD*%
D28*
%TO.C,SW2*%
X102391800Y-99763000D03*
X102391800Y-102303000D03*
X102391800Y-104843000D03*
%TD*%
D22*
%TO.C,R51*%
X153771200Y-94514100D03*
X153771200Y-92689100D03*
%TD*%
D33*
%TO.C,D3*%
X118966600Y-76598200D03*
X120716600Y-76598200D03*
%TD*%
D34*
%TO.C,C51*%
X139755200Y-120493200D03*
X139755200Y-115493200D03*
%TD*%
D35*
%TO.C,REF\u002A\u002A*%
X86621200Y-128351600D03*
%TD*%
D36*
%TO.C,J7*%
X134929200Y-73329500D03*
D37*
X134929200Y-70789500D03*
X137469200Y-73329500D03*
X137469200Y-70789500D03*
X140009200Y-73329500D03*
X140009200Y-70789500D03*
X142549200Y-73329500D03*
X142549200Y-70789500D03*
X145089200Y-73329500D03*
X145089200Y-70789500D03*
%TD*%
D38*
%TO.C,Q8*%
X155971200Y-101251600D03*
X155971200Y-103151600D03*
X158971200Y-102201600D03*
%TD*%
D39*
%TO.C,C47*%
X137901280Y-98899120D03*
X136681520Y-100118880D03*
%TD*%
D25*
%TO.C,U14*%
X114512000Y-77050000D03*
X114512000Y-78000000D03*
X114512000Y-78950000D03*
X117288000Y-78950000D03*
X117288000Y-78000000D03*
X117288000Y-77050000D03*
%TD*%
D34*
%TO.C,C50*%
X139755200Y-108199600D03*
X139755200Y-113199600D03*
%TD*%
D40*
%TO.C,U2*%
X171378200Y-79036600D03*
D41*
X171378200Y-76496600D03*
X171378200Y-73956600D03*
X171378200Y-71416600D03*
X171378200Y-68876600D03*
X171378200Y-66336600D03*
X171378200Y-63796600D03*
X171378200Y-61256600D03*
X153344200Y-61256600D03*
X153344200Y-63796600D03*
X153344200Y-66336600D03*
X153344200Y-68876600D03*
X153344200Y-71416600D03*
X153344200Y-73956600D03*
X153344200Y-76496600D03*
X153344200Y-79036600D03*
%TD*%
D42*
%TO.C,MD1*%
X104406900Y-87113000D03*
D43*
X106571900Y-82528000D03*
D44*
X111151900Y-82528000D03*
D45*
X114591900Y-83678000D03*
D42*
X115606900Y-87113000D03*
X115606900Y-91693000D03*
D46*
X110006900Y-92713000D03*
X107716900Y-92713000D03*
D42*
X104406900Y-91693000D03*
X104406900Y-89403000D03*
D47*
X116356900Y-89403000D03*
D46*
X112296900Y-92713000D03*
%TD*%
D48*
%TO.C,SW5*%
X167761400Y-129013800D03*
D49*
X167761400Y-126473800D03*
X167761400Y-123933800D03*
X167761400Y-121393800D03*
X160141400Y-121393800D03*
X160141400Y-123933800D03*
X160141400Y-126473800D03*
X160141400Y-129013800D03*
%TD*%
D50*
%TO.C,C34*%
X129595200Y-82136500D03*
X129595200Y-83861500D03*
%TD*%
D51*
%TO.C,J9*%
X93302400Y-124062400D03*
D52*
X95802400Y-124062400D03*
X98302400Y-124062400D03*
X100802400Y-124062400D03*
X103302400Y-124062400D03*
%TD*%
D34*
%TO.C,C30*%
X132287600Y-84573800D03*
X132287600Y-79573800D03*
%TD*%
D51*
%TO.C,J8*%
X109329800Y-124062400D03*
D52*
X111829800Y-124062400D03*
X114329800Y-124062400D03*
X116829800Y-124062400D03*
X119329800Y-124062400D03*
%TD*%
D35*
%TO.C,REF\u002A\u002A*%
X86621200Y-62351600D03*
%TD*%
D53*
%TO.C,R57*%
X96481100Y-120101600D03*
X98306100Y-120101600D03*
%TD*%
D22*
%TO.C,R56*%
X161271200Y-103114100D03*
X161271200Y-101289100D03*
%TD*%
%TO.C,R53*%
X153771200Y-103114100D03*
X153771200Y-101289100D03*
%TD*%
D54*
%TO.C,J4*%
X91241200Y-86021600D03*
D55*
X91241200Y-88521600D03*
X91241200Y-91021600D03*
%TD*%
D33*
%TO.C,D7*%
X149192600Y-81246400D03*
X150942600Y-81246400D03*
%TD*%
D56*
%TO.C,D9*%
X117262200Y-104309600D03*
X115512200Y-104309600D03*
%TD*%
D51*
%TO.C,J10*%
X125382600Y-124062400D03*
D52*
X127882600Y-124062400D03*
X130382600Y-124062400D03*
X132882600Y-124062400D03*
X135382600Y-124062400D03*
%TD*%
D34*
%TO.C,C53*%
X124769200Y-120525600D03*
X124769200Y-115525600D03*
%TD*%
D28*
%TO.C,SW8*%
X112151200Y-102151600D03*
X109611200Y-102151600D03*
X107071200Y-102151600D03*
%TD*%
D34*
%TO.C,C29*%
X135437200Y-79584600D03*
X135437200Y-84584600D03*
%TD*%
D57*
%TO.C,C49*%
X100036300Y-120101600D03*
X101761300Y-120101600D03*
%TD*%
D38*
%TO.C,Q5*%
X135260800Y-77548200D03*
X135260800Y-75648200D03*
X132260800Y-76598200D03*
%TD*%
D39*
%TO.C,C55*%
X130281080Y-104891720D03*
X129061320Y-106111480D03*
%TD*%
D58*
%TO.C,U7*%
X150397800Y-84292600D03*
D37*
X152937800Y-84292600D03*
X155477800Y-84292600D03*
X158017800Y-84292600D03*
%TD*%
D59*
%TO.C,J12*%
X171121200Y-119251600D03*
D55*
X171121200Y-116751600D03*
X171121200Y-114251600D03*
%TD*%
D34*
%TO.C,C52*%
X124769200Y-108246600D03*
X124769200Y-113246600D03*
%TD*%
D54*
%TO.C,J6*%
X91241200Y-111421600D03*
D55*
X91241200Y-113921600D03*
X91241200Y-116421600D03*
%TD*%
D19*
%TO.C,C48*%
X127334320Y-105554480D03*
X128554080Y-104334720D03*
%TD*%
D28*
%TO.C,SW7*%
X171131200Y-83451600D03*
X173671200Y-83451600D03*
X176211200Y-83451600D03*
%TD*%
D60*
%TO.C,J1*%
X95190000Y-63256200D03*
X106190000Y-63256200D03*
D61*
X103190000Y-73256200D03*
D62*
X98190000Y-73256200D03*
%TD*%
D37*
%TO.C,SW11*%
X97083200Y-104741400D03*
X97083200Y-102201400D03*
X97083200Y-99661400D03*
X97083200Y-107281400D03*
X97083200Y-97121400D03*
%TD*%
D63*
%TO.C,SW4*%
X151998000Y-110558000D03*
X151998000Y-118558000D03*
X156498000Y-118558000D03*
X156498000Y-110558000D03*
%TD*%
D38*
%TO.C,Q6*%
X156021200Y-92651600D03*
X156021200Y-94551600D03*
X159021200Y-93601600D03*
%TD*%
D64*
%TO.C,Q1*%
X101176600Y-78103800D03*
D65*
X98886600Y-78103800D03*
X96596600Y-78103800D03*
%TD*%
D53*
%TO.C,R18*%
X155403500Y-86428000D03*
X157228500Y-86428000D03*
%TD*%
D66*
%TO.C,C7*%
X104251200Y-77563400D03*
X106933200Y-77563400D03*
%TD*%
D59*
%TO.C,J13*%
X171121200Y-94901600D03*
D55*
X171121200Y-92401600D03*
X171121200Y-89901600D03*
%TD*%
D67*
%TO.C,JP3*%
X156722400Y-126514200D03*
D68*
X156722400Y-123974200D03*
%TD*%
D63*
%TO.C,SW3*%
X142737600Y-110571200D03*
X142737600Y-118571200D03*
X147237600Y-110571200D03*
X147237600Y-118571200D03*
%TD*%
D59*
%TO.C,J14*%
X171121200Y-107101600D03*
D55*
X171121200Y-104601600D03*
X171121200Y-102101600D03*
%TD*%
D56*
%TO.C,D10*%
X117262200Y-106087600D03*
X115512200Y-106087600D03*
%TD*%
D28*
%TO.C,J2*%
X110945000Y-63060400D03*
X126185000Y-63060400D03*
X126185000Y-65600400D03*
X110945000Y-65600400D03*
X126185000Y-73220400D03*
X118565000Y-73220400D03*
D69*
X110945000Y-73220400D03*
D28*
X121105000Y-73220400D03*
X116025000Y-73220400D03*
X113485000Y-73220400D03*
X123645000Y-73220400D03*
%TD*%
%TO.C,U6*%
X111801200Y-119361600D03*
X111801200Y-111741600D03*
X109261200Y-119361600D03*
X116881200Y-111741600D03*
X114341200Y-111741600D03*
X116881200Y-119361600D03*
X114341200Y-119361600D03*
X109261200Y-111741600D03*
%TD*%
D22*
%TO.C,R55*%
X161271200Y-98964100D03*
X161271200Y-97139100D03*
%TD*%
D26*
%TO.C,C5*%
X97997600Y-83767800D03*
X97997600Y-90967800D03*
%TD*%
D28*
%TO.C,SW9*%
X112161200Y-106701600D03*
X109621200Y-106701600D03*
X107081200Y-106701600D03*
%TD*%
D30*
%TO.C,R61*%
X137215200Y-106902300D03*
X137215200Y-108727300D03*
%TD*%
D50*
%TO.C,C25*%
X131728800Y-71392300D03*
X131728800Y-73117300D03*
%TD*%
D30*
%TO.C,R63*%
X133278200Y-106902300D03*
X133278200Y-108727300D03*
%TD*%
D57*
%TO.C,C45*%
X128580300Y-87875800D03*
X130305300Y-87875800D03*
%TD*%
D35*
%TO.C,REF\u002A\u002A*%
X175621200Y-128351600D03*
%TD*%
D70*
%TO.C,U18*%
X130753181Y-102896881D03*
X131106734Y-102543328D03*
X131460287Y-102189775D03*
X131813841Y-101836221D03*
X132167394Y-101482668D03*
X132520948Y-101129114D03*
X132874501Y-100775561D03*
X133228054Y-100422008D03*
X133581608Y-100068454D03*
X133935161Y-99714901D03*
X134288714Y-99361348D03*
X134642268Y-99007794D03*
X134995821Y-98654241D03*
X135349375Y-98300687D03*
X135702928Y-97947134D03*
X136056481Y-97593581D03*
D71*
X136056481Y-94871219D03*
X135702928Y-94517666D03*
X135349375Y-94164113D03*
X134995821Y-93810559D03*
X134642268Y-93457006D03*
X134288714Y-93103452D03*
X133935161Y-92749899D03*
X133581608Y-92396346D03*
X133228054Y-92042792D03*
X132874501Y-91689239D03*
X132520948Y-91335686D03*
X132167394Y-90982132D03*
X131813841Y-90628579D03*
X131460287Y-90275025D03*
X131106734Y-89921472D03*
X130753181Y-89567919D03*
D70*
X128030819Y-89567919D03*
X127677266Y-89921472D03*
X127323713Y-90275025D03*
X126970159Y-90628579D03*
X126616606Y-90982132D03*
X126263052Y-91335686D03*
X125909499Y-91689239D03*
X125555946Y-92042792D03*
X125202392Y-92396346D03*
X124848839Y-92749899D03*
X124495286Y-93103452D03*
X124141732Y-93457006D03*
X123788179Y-93810559D03*
X123434625Y-94164113D03*
X123081072Y-94517666D03*
X122727519Y-94871219D03*
D71*
X122727519Y-97593581D03*
X123081072Y-97947134D03*
X123434625Y-98300687D03*
X123788179Y-98654241D03*
X124141732Y-99007794D03*
X124495286Y-99361348D03*
X124848839Y-99714901D03*
X125202392Y-100068454D03*
X125555946Y-100422008D03*
X125909499Y-100775561D03*
X126263052Y-101129114D03*
X126616606Y-101482668D03*
X126970159Y-101836221D03*
X127323713Y-102189775D03*
X127677266Y-102543328D03*
X128030819Y-102896881D03*
%TD*%
D33*
%TO.C,D1*%
X149192600Y-75912400D03*
X150942600Y-75912400D03*
%TD*%
D72*
%TO.C,C33*%
X127817200Y-83861500D03*
X127817200Y-82136500D03*
%TD*%
D27*
%TO.C,U15*%
X126227200Y-75997600D03*
X125277200Y-75997600D03*
X124327200Y-75997600D03*
X124327200Y-78773600D03*
X125277200Y-78773600D03*
X126227200Y-78773600D03*
%TD*%
D73*
%TO.C,R50*%
X166575700Y-90593600D03*
X164750700Y-90593600D03*
%TD*%
D57*
%TO.C,C35*%
X144071200Y-83401600D03*
X145796200Y-83401600D03*
%TD*%
D63*
%TO.C,SW6*%
X161192800Y-110571200D03*
X161192800Y-118571200D03*
X165692800Y-118571200D03*
X165692800Y-110571200D03*
%TD*%
D56*
%TO.C,D11*%
X117262200Y-107865600D03*
X115512200Y-107865600D03*
%TD*%
D33*
%TO.C,D5*%
X149192600Y-77690400D03*
X150942600Y-77690400D03*
%TD*%
D53*
%TO.C,R20*%
X151898300Y-86478800D03*
X153723300Y-86478800D03*
%TD*%
D54*
%TO.C,J5*%
X91241200Y-98721600D03*
D55*
X91241200Y-101221600D03*
X91241200Y-103721600D03*
%TD*%
D30*
%TO.C,R62*%
X131576400Y-106902300D03*
X131576400Y-108727300D03*
%TD*%
D28*
%TO.C,SW1*%
X175874000Y-78655600D03*
X175874000Y-76115600D03*
X175874000Y-73575600D03*
%TD*%
D33*
%TO.C,D6*%
X149178600Y-79468400D03*
X150928600Y-79468400D03*
%TD*%
D29*
%TO.C,Y1*%
X135183200Y-113188000D03*
X135183200Y-118088000D03*
%TD*%
D54*
%TO.C,J3*%
X91241200Y-73321600D03*
D55*
X91241200Y-75821600D03*
X91241200Y-78321600D03*
%TD*%
D22*
%TO.C,R52*%
X153771200Y-98864100D03*
X153771200Y-97039100D03*
%TD*%
D51*
%TO.C,J11*%
X141410000Y-124062400D03*
D52*
X143910000Y-124062400D03*
X146410000Y-124062400D03*
X148910000Y-124062400D03*
X151410000Y-124062400D03*
%TD*%
D35*
%TO.C,REF\u002A\u002A*%
X175621200Y-62351600D03*
%TD*%
D63*
%TO.C,SW10*%
X96894400Y-110099400D03*
X96894400Y-118099400D03*
X101394400Y-118099400D03*
X101394400Y-110099400D03*
%TD*%
D38*
%TO.C,Q7*%
X155971200Y-97001600D03*
X155971200Y-98901600D03*
X158971200Y-97951600D03*
%TD*%
M02*
