%TF.GenerationSoftware,KiCad,Pcbnew,(6.0.11)*%
%TF.CreationDate,2023-08-10T00:19:00+09:00*%
%TF.ProjectId,main,6d61696e-2e6b-4696-9361-645f70636258,rev?*%
%TF.SameCoordinates,Original*%
%TF.FileFunction,Paste,Bot*%
%TF.FilePolarity,Positive*%
%FSLAX46Y46*%
G04 Gerber Fmt 4.6, Leading zero omitted, Abs format (unit mm)*
G04 Created by KiCad (PCBNEW (6.0.11)) date 2023-08-10 00:19:00*
%MOMM*%
%LPD*%
G01*
G04 APERTURE LIST*
G04 Aperture macros list*
%AMRoundRect*
0 Rectangle with rounded corners*
0 $1 Rounding radius*
0 $2 $3 $4 $5 $6 $7 $8 $9 X,Y pos of 4 corners*
0 Add a 4 corners polygon primitive as box body*
4,1,4,$2,$3,$4,$5,$6,$7,$8,$9,$2,$3,0*
0 Add four circle primitives for the rounded corners*
1,1,$1+$1,$2,$3*
1,1,$1+$1,$4,$5*
1,1,$1+$1,$6,$7*
1,1,$1+$1,$8,$9*
0 Add four rect primitives between the rounded corners*
20,1,$1+$1,$2,$3,$4,$5,0*
20,1,$1+$1,$4,$5,$6,$7,0*
20,1,$1+$1,$6,$7,$8,$9,0*
20,1,$1+$1,$8,$9,$2,$3,0*%
G04 Aperture macros list end*
%ADD10R,0.800000X1.900000*%
%ADD11RoundRect,0.237500X-0.300000X-0.237500X0.300000X-0.237500X0.300000X0.237500X-0.300000X0.237500X0*%
%ADD12RoundRect,0.250000X0.475000X-0.337500X0.475000X0.337500X-0.475000X0.337500X-0.475000X-0.337500X0*%
%ADD13RoundRect,0.237500X0.250000X0.237500X-0.250000X0.237500X-0.250000X-0.237500X0.250000X-0.237500X0*%
%ADD14RoundRect,0.237500X-0.250000X-0.237500X0.250000X-0.237500X0.250000X0.237500X-0.250000X0.237500X0*%
%ADD15RoundRect,0.237500X-0.237500X0.300000X-0.237500X-0.300000X0.237500X-0.300000X0.237500X0.300000X0*%
%ADD16RoundRect,0.237500X-0.237500X0.250000X-0.237500X-0.250000X0.237500X-0.250000X0.237500X0.250000X0*%
%ADD17RoundRect,0.237500X0.300000X0.237500X-0.300000X0.237500X-0.300000X-0.237500X0.300000X-0.237500X0*%
%ADD18R,1.200000X0.900000*%
%ADD19RoundRect,0.237500X0.237500X-0.300000X0.237500X0.300000X-0.237500X0.300000X-0.237500X-0.300000X0*%
%ADD20R,0.575000X0.620000*%
%ADD21RoundRect,0.250000X0.337500X0.475000X-0.337500X0.475000X-0.337500X-0.475000X0.337500X-0.475000X0*%
%ADD22R,0.300000X1.400000*%
%ADD23R,0.900000X1.200000*%
%ADD24RoundRect,0.237500X0.287500X0.237500X-0.287500X0.237500X-0.287500X-0.237500X0.287500X-0.237500X0*%
%ADD25RoundRect,0.237500X0.237500X-0.250000X0.237500X0.250000X-0.237500X0.250000X-0.237500X-0.250000X0*%
%ADD26R,0.620000X0.575000*%
%ADD27RoundRect,0.250000X-0.337500X-0.475000X0.337500X-0.475000X0.337500X0.475000X-0.337500X0.475000X0*%
%ADD28R,1.900000X0.800000*%
G04 APERTURE END LIST*
D10*
%TO.C,Q12*%
X120720000Y-142140000D03*
X118820000Y-142140000D03*
X119770000Y-139140000D03*
%TD*%
D11*
%TO.C,C30*%
X92687500Y-133440000D03*
X94412500Y-133440000D03*
%TD*%
D12*
%TO.C,C2*%
X156400000Y-95967500D03*
X156400000Y-93892500D03*
%TD*%
D13*
%TO.C,R19*%
X146062500Y-131902500D03*
X144237500Y-131902500D03*
%TD*%
D14*
%TO.C,R45*%
X88737500Y-120740000D03*
X90562500Y-120740000D03*
%TD*%
D10*
%TO.C,Q13*%
X122570000Y-139140000D03*
X124470000Y-139140000D03*
X123520000Y-142140000D03*
%TD*%
D13*
%TO.C,R10*%
X153662500Y-59940000D03*
X151837500Y-59940000D03*
%TD*%
D15*
%TO.C,C4*%
X145250000Y-91177500D03*
X145250000Y-92902500D03*
%TD*%
D16*
%TO.C,R9*%
X74950000Y-112327500D03*
X74950000Y-114152500D03*
%TD*%
D17*
%TO.C,C23*%
X76412500Y-133440000D03*
X74687500Y-133440000D03*
%TD*%
%TO.C,C3*%
X142012500Y-88940000D03*
X140287500Y-88940000D03*
%TD*%
D14*
%TO.C,R61*%
X64537500Y-141090000D03*
X66362500Y-141090000D03*
%TD*%
D18*
%TO.C,D1*%
X73450000Y-65890000D03*
X73450000Y-69190000D03*
%TD*%
D14*
%TO.C,R3*%
X75737500Y-65690000D03*
X77562500Y-65690000D03*
%TD*%
D13*
%TO.C,R11*%
X150962500Y-55140000D03*
X149137500Y-55140000D03*
%TD*%
D19*
%TO.C,C8*%
X142750000Y-62302500D03*
X142750000Y-60577500D03*
%TD*%
D20*
%TO.C,Q20*%
X64112000Y-144540000D03*
X64112000Y-143590000D03*
X64112000Y-142640000D03*
X66888000Y-142640000D03*
X66888000Y-143590000D03*
X66888000Y-144540000D03*
%TD*%
D16*
%TO.C,R50*%
X117150000Y-138627500D03*
X117150000Y-140452500D03*
%TD*%
%TO.C,R4*%
X156400000Y-101767500D03*
X156400000Y-103592500D03*
%TD*%
D13*
%TO.C,R27*%
X155712500Y-138670000D03*
X153887500Y-138670000D03*
%TD*%
D20*
%TO.C,Q4*%
X148262000Y-93880000D03*
X148262000Y-92930000D03*
X148262000Y-91980000D03*
X151038000Y-91980000D03*
X151038000Y-92930000D03*
X151038000Y-93880000D03*
%TD*%
D13*
%TO.C,R5*%
X77562500Y-69490000D03*
X75737500Y-69490000D03*
%TD*%
%TO.C,R13*%
X79462500Y-81340000D03*
X77637500Y-81340000D03*
%TD*%
D19*
%TO.C,C32*%
X62250000Y-102502500D03*
X62250000Y-100777500D03*
%TD*%
D21*
%TO.C,C10*%
X83625000Y-82990000D03*
X81550000Y-82990000D03*
%TD*%
D22*
%TO.C,U1*%
X143550000Y-95192500D03*
X143050000Y-95192500D03*
X142550000Y-95192500D03*
X142050000Y-95192500D03*
X141550000Y-95192500D03*
X141550000Y-90792500D03*
X142050000Y-90792500D03*
X142550000Y-90792500D03*
X143050000Y-90792500D03*
X143550000Y-90792500D03*
%TD*%
D19*
%TO.C,C36*%
X62250000Y-144452500D03*
X62250000Y-142727500D03*
%TD*%
D20*
%TO.C,Q19*%
X64112000Y-130540000D03*
X64112000Y-129590000D03*
X64112000Y-128640000D03*
X66888000Y-128640000D03*
X66888000Y-129590000D03*
X66888000Y-130540000D03*
%TD*%
D18*
%TO.C,D4*%
X75250000Y-82290000D03*
X75250000Y-85590000D03*
%TD*%
D17*
%TO.C,C28*%
X88812500Y-133440000D03*
X87087500Y-133440000D03*
%TD*%
D13*
%TO.C,R8*%
X86150000Y-96540000D03*
X84325000Y-96540000D03*
%TD*%
D12*
%TO.C,C11*%
X75250000Y-80577500D03*
X75250000Y-78502500D03*
%TD*%
D13*
%TO.C,R42*%
X116462500Y-119240000D03*
X114637500Y-119240000D03*
%TD*%
D14*
%TO.C,R60*%
X64587500Y-127090000D03*
X66412500Y-127090000D03*
%TD*%
D23*
%TO.C,D5*%
X80800000Y-76940000D03*
X84100000Y-76940000D03*
%TD*%
D20*
%TO.C,Q17*%
X64112000Y-102540000D03*
X64112000Y-101590000D03*
X64112000Y-100640000D03*
X66888000Y-100640000D03*
X66888000Y-101590000D03*
X66888000Y-102540000D03*
%TD*%
D14*
%TO.C,R20*%
X140737500Y-131902500D03*
X142562500Y-131902500D03*
%TD*%
D24*
%TO.C,D6*%
X144275000Y-125740000D03*
X142525000Y-125740000D03*
%TD*%
D25*
%TO.C,R2*%
X156400000Y-108592500D03*
X156400000Y-106767500D03*
%TD*%
D14*
%TO.C,R7*%
X84325000Y-94940000D03*
X86150000Y-94940000D03*
%TD*%
D21*
%TO.C,C6*%
X141087500Y-54790000D03*
X139012500Y-54790000D03*
%TD*%
D14*
%TO.C,R37*%
X88737500Y-112840000D03*
X90562500Y-112840000D03*
%TD*%
D26*
%TO.C,Q5*%
X148700000Y-87792000D03*
X149650000Y-87792000D03*
X150600000Y-87792000D03*
X150600000Y-90568000D03*
X149650000Y-90568000D03*
X148700000Y-90568000D03*
%TD*%
D14*
%TO.C,R44*%
X88725000Y-116840000D03*
X90550000Y-116840000D03*
%TD*%
D13*
%TO.C,R29*%
X155712500Y-143670000D03*
X153887500Y-143670000D03*
%TD*%
%TO.C,R22*%
X92412500Y-87340000D03*
X90587500Y-87340000D03*
%TD*%
D19*
%TO.C,C34*%
X62250000Y-130452500D03*
X62250000Y-128727500D03*
%TD*%
D13*
%TO.C,R28*%
X155712500Y-141170000D03*
X153887500Y-141170000D03*
%TD*%
%TO.C,R17*%
X144312500Y-123990000D03*
X142487500Y-123990000D03*
%TD*%
D27*
%TO.C,C1*%
X75612500Y-67540000D03*
X77687500Y-67540000D03*
%TD*%
D20*
%TO.C,Q18*%
X64112000Y-116540000D03*
X64112000Y-115590000D03*
X64112000Y-114640000D03*
X66888000Y-114640000D03*
X66888000Y-115590000D03*
X66888000Y-116540000D03*
%TD*%
D19*
%TO.C,C33*%
X62250000Y-116502500D03*
X62250000Y-114777500D03*
%TD*%
D13*
%TO.C,R41*%
X116462500Y-117490000D03*
X114637500Y-117490000D03*
%TD*%
D14*
%TO.C,R55*%
X64587500Y-99090000D03*
X66412500Y-99090000D03*
%TD*%
%TO.C,R25*%
X94337500Y-87340000D03*
X96162500Y-87340000D03*
%TD*%
D13*
%TO.C,R46*%
X97862500Y-133440000D03*
X96037500Y-133440000D03*
%TD*%
D14*
%TO.C,R43*%
X83637500Y-133440000D03*
X85462500Y-133440000D03*
%TD*%
D13*
%TO.C,R30*%
X155712500Y-146170000D03*
X153887500Y-146170000D03*
%TD*%
D17*
%TO.C,C13*%
X83212500Y-81140000D03*
X81487500Y-81140000D03*
%TD*%
D16*
%TO.C,R14*%
X152400000Y-88267500D03*
X152400000Y-90092500D03*
%TD*%
D11*
%TO.C,C12*%
X77687500Y-82940000D03*
X79412500Y-82940000D03*
%TD*%
%TO.C,C29*%
X118187500Y-117490000D03*
X119912500Y-117490000D03*
%TD*%
D13*
%TO.C,R49*%
X124432500Y-137140000D03*
X122607500Y-137140000D03*
%TD*%
D14*
%TO.C,R56*%
X64587500Y-113090000D03*
X66412500Y-113090000D03*
%TD*%
D13*
%TO.C,R31*%
X79862500Y-133440000D03*
X78037500Y-133440000D03*
%TD*%
D28*
%TO.C,Q2*%
X75050000Y-73140000D03*
X75050000Y-71240000D03*
X78050000Y-72190000D03*
%TD*%
D25*
%TO.C,R16*%
X105050000Y-64652500D03*
X105050000Y-62827500D03*
%TD*%
D13*
%TO.C,R15*%
X79875000Y-87440000D03*
X78050000Y-87440000D03*
%TD*%
M02*
