%TF.GenerationSoftware,KiCad,Pcbnew,(6.0.11)*%
%TF.CreationDate,2023-04-21T23:53:47+09:00*%
%TF.ProjectId,line_board,6c696e65-5f62-46f6-9172-642e6b696361,rev?*%
%TF.SameCoordinates,Original*%
%TF.FileFunction,Drillmap*%
%TF.FilePolarity,Positive*%
%FSLAX45Y45*%
G04 Gerber Fmt 4.5, Leading zero omitted, Abs format (unit mm)*
G04 Created by KiCad (PCBNEW (6.0.11)) date 2023-04-21 23:53:47*
%MOMM*%
%LPD*%
G01*
G04 APERTURE LIST*
%ADD10C,0.200000*%
G04 APERTURE END LIST*
D10*
X13996000Y-7317000D02*
G75*
G03*
X13696000Y-7617000I0J-300000D01*
G01*
X13696000Y-11717000D02*
X13696000Y-7617000D01*
X13696000Y-11717000D02*
G75*
G03*
X13996000Y-12017000I300000J0D01*
G01*
X20596000Y-12017000D02*
X13996000Y-12017000D01*
X20596000Y-12017000D02*
G75*
G03*
X20896000Y-11717000I0J300000D01*
G01*
X20896000Y-7617000D02*
X20896000Y-11717000D01*
X20896000Y-7617000D02*
G75*
G03*
X20596000Y-7317000I-300000J0D01*
G01*
X13996000Y-7317000D02*
X20596000Y-7317000D01*
X20706000Y-7617000D02*
G75*
G03*
X20706000Y-7617000I-110000J0D01*
G01*
X20706000Y-11717000D02*
G75*
G03*
X20706000Y-11717000I-110000J0D01*
G01*
X14106000Y-11717000D02*
G75*
G03*
X14106000Y-11717000I-110000J0D01*
G01*
X14106000Y-7617000D02*
G75*
G03*
X14106000Y-7617000I-110000J0D01*
G01*
X13943619Y-12337476D02*
X13943619Y-12137476D01*
X13991238Y-12137476D01*
X14019809Y-12147000D01*
X14038857Y-12166048D01*
X14048381Y-12185095D01*
X14057905Y-12223190D01*
X14057905Y-12251762D01*
X14048381Y-12289857D01*
X14038857Y-12308905D01*
X14019809Y-12327952D01*
X13991238Y-12337476D01*
X13943619Y-12337476D01*
X14143619Y-12337476D02*
X14143619Y-12204143D01*
X14143619Y-12242238D02*
X14153143Y-12223190D01*
X14162667Y-12213667D01*
X14181714Y-12204143D01*
X14200762Y-12204143D01*
X14267428Y-12337476D02*
X14267428Y-12204143D01*
X14267428Y-12137476D02*
X14257905Y-12147000D01*
X14267428Y-12156524D01*
X14276952Y-12147000D01*
X14267428Y-12137476D01*
X14267428Y-12156524D01*
X14391238Y-12337476D02*
X14372190Y-12327952D01*
X14362667Y-12308905D01*
X14362667Y-12137476D01*
X14496000Y-12337476D02*
X14476952Y-12327952D01*
X14467428Y-12308905D01*
X14467428Y-12137476D01*
X14724571Y-12337476D02*
X14724571Y-12137476D01*
X14791238Y-12280333D01*
X14857905Y-12137476D01*
X14857905Y-12337476D01*
X15038857Y-12337476D02*
X15038857Y-12232714D01*
X15029333Y-12213667D01*
X15010286Y-12204143D01*
X14972190Y-12204143D01*
X14953143Y-12213667D01*
X15038857Y-12327952D02*
X15019809Y-12337476D01*
X14972190Y-12337476D01*
X14953143Y-12327952D01*
X14943619Y-12308905D01*
X14943619Y-12289857D01*
X14953143Y-12270809D01*
X14972190Y-12261286D01*
X15019809Y-12261286D01*
X15038857Y-12251762D01*
X15134095Y-12204143D02*
X15134095Y-12404143D01*
X15134095Y-12213667D02*
X15153143Y-12204143D01*
X15191238Y-12204143D01*
X15210286Y-12213667D01*
X15219809Y-12223190D01*
X15229333Y-12242238D01*
X15229333Y-12299381D01*
X15219809Y-12318428D01*
X15210286Y-12327952D01*
X15191238Y-12337476D01*
X15153143Y-12337476D01*
X15134095Y-12327952D01*
X15315048Y-12318428D02*
X15324571Y-12327952D01*
X15315048Y-12337476D01*
X15305524Y-12327952D01*
X15315048Y-12318428D01*
X15315048Y-12337476D01*
X15315048Y-12213667D02*
X15324571Y-12223190D01*
X15315048Y-12232714D01*
X15305524Y-12223190D01*
X15315048Y-12213667D01*
X15315048Y-12232714D01*
M02*
