%TF.GenerationSoftware,KiCad,Pcbnew,(6.0.11)*%
%TF.CreationDate,2023-04-21T23:53:04+09:00*%
%TF.ProjectId,line_board,6c696e65-5f62-46f6-9172-642e6b696361,rev?*%
%TF.SameCoordinates,Original*%
%TF.FileFunction,Copper,L1,Top*%
%TF.FilePolarity,Positive*%
%FSLAX46Y46*%
G04 Gerber Fmt 4.6, Leading zero omitted, Abs format (unit mm)*
G04 Created by KiCad (PCBNEW (6.0.11)) date 2023-04-21 23:53:04*
%MOMM*%
%LPD*%
G01*
G04 APERTURE LIST*
G04 Aperture macros list*
%AMRoundRect*
0 Rectangle with rounded corners*
0 $1 Rounding radius*
0 $2 $3 $4 $5 $6 $7 $8 $9 X,Y pos of 4 corners*
0 Add a 4 corners polygon primitive as box body*
4,1,4,$2,$3,$4,$5,$6,$7,$8,$9,$2,$3,0*
0 Add four circle primitives for the rounded corners*
1,1,$1+$1,$2,$3*
1,1,$1+$1,$4,$5*
1,1,$1+$1,$6,$7*
1,1,$1+$1,$8,$9*
0 Add four rect primitives between the rounded corners*
20,1,$1+$1,$2,$3,$4,$5,0*
20,1,$1+$1,$4,$5,$6,$7,0*
20,1,$1+$1,$6,$7,$8,$9,0*
20,1,$1+$1,$8,$9,$2,$3,0*%
G04 Aperture macros list end*
%TA.AperFunction,ComponentPad*%
%ADD10RoundRect,0.250000X0.600000X0.725000X-0.600000X0.725000X-0.600000X-0.725000X0.600000X-0.725000X0*%
%TD*%
%TA.AperFunction,ComponentPad*%
%ADD11O,1.700000X1.950000*%
%TD*%
%TA.AperFunction,ComponentPad*%
%ADD12R,1.800000X1.800000*%
%TD*%
%TA.AperFunction,ComponentPad*%
%ADD13C,1.800000*%
%TD*%
%TA.AperFunction,ComponentPad*%
%ADD14C,1.600000*%
%TD*%
%TA.AperFunction,ComponentPad*%
%ADD15O,1.600000X1.600000*%
%TD*%
%TA.AperFunction,ViaPad*%
%ADD16C,0.800000*%
%TD*%
%TA.AperFunction,Conductor*%
%ADD17C,0.250000*%
%TD*%
%TA.AperFunction,Conductor*%
%ADD18C,2.000000*%
%TD*%
G04 APERTURE END LIST*
D10*
%TO.P,J1,1,Pin_1*%
%TO.N,GND*%
X177960000Y-82620000D03*
D11*
%TO.P,J1,2,Pin_2*%
%TO.N,+3.3V*%
X175460000Y-82620000D03*
%TO.P,J1,3,Pin_3*%
%TO.N,sensor_output_0*%
X172960000Y-82620000D03*
%TO.P,J1,4,Pin_4*%
%TO.N,sensor_output_1*%
X170460000Y-82620000D03*
%TO.P,J1,5,Pin_5*%
%TO.N,sensor_output_2*%
X167960000Y-82620000D03*
%TD*%
D12*
%TO.P,D3,1,K*%
%TO.N,GND*%
X150100000Y-102560000D03*
D13*
%TO.P,D3,2,A*%
%TO.N,Net-(D3-Pad2)*%
X150100000Y-100020000D03*
%TD*%
D14*
%TO.P,R3,1*%
%TO.N,+3.3V*%
X157720000Y-102620000D03*
D15*
%TO.P,R3,2*%
%TO.N,sensor_output_2*%
X157720000Y-92460000D03*
%TD*%
D12*
%TO.P,D1,1,K*%
%TO.N,GND*%
X195820000Y-102560000D03*
D13*
%TO.P,D1,2,A*%
%TO.N,Net-(D1-Pad2)*%
X195820000Y-100020000D03*
%TD*%
%TO.P,Q3,2,C*%
%TO.N,sensor_output_2*%
X150100000Y-92460000D03*
D12*
%TO.P,Q3,1,E*%
%TO.N,GND*%
X150100000Y-95000000D03*
%TD*%
D15*
%TO.P,R6,2*%
%TO.N,Net-(D3-Pad2)*%
X152640000Y-107700000D03*
D14*
%TO.P,R6,1*%
%TO.N,+3.3V*%
X162800000Y-107700000D03*
%TD*%
%TO.P,R4,1*%
%TO.N,+3.3V*%
X183120000Y-107700000D03*
D15*
%TO.P,R4,2*%
%TO.N,Net-(D1-Pad2)*%
X193280000Y-107700000D03*
%TD*%
D12*
%TO.P,D2,1,K*%
%TO.N,GND*%
X172960000Y-102560000D03*
D13*
%TO.P,D2,2,A*%
%TO.N,Net-(D2-Pad2)*%
X172960000Y-100020000D03*
%TD*%
D14*
%TO.P,R1,1*%
%TO.N,+3.3V*%
X188200000Y-102620000D03*
D15*
%TO.P,R1,2*%
%TO.N,sensor_output_0*%
X188200000Y-92460000D03*
%TD*%
D14*
%TO.P,R2,1*%
%TO.N,+3.3V*%
X165340000Y-102620000D03*
D15*
%TO.P,R2,2*%
%TO.N,sensor_output_1*%
X165340000Y-92460000D03*
%TD*%
D12*
%TO.P,Q1,1,E*%
%TO.N,GND*%
X195820000Y-95000000D03*
D13*
%TO.P,Q1,2,C*%
%TO.N,sensor_output_0*%
X195820000Y-92460000D03*
%TD*%
D14*
%TO.P,R5,1*%
%TO.N,+3.3V*%
X180580000Y-92460000D03*
D15*
%TO.P,R5,2*%
%TO.N,Net-(D2-Pad2)*%
X180580000Y-102620000D03*
%TD*%
D13*
%TO.P,Q2,2,C*%
%TO.N,sensor_output_1*%
X172960000Y-92460000D03*
D12*
%TO.P,Q2,1,E*%
%TO.N,GND*%
X172960000Y-95000000D03*
%TD*%
D16*
%TO.N,GND*%
X194630000Y-109230000D03*
X151050000Y-109080000D03*
X174140000Y-80690000D03*
X171740000Y-81010000D03*
X169260000Y-80980000D03*
X166000000Y-82620000D03*
X193920000Y-100180000D03*
X193760000Y-93900000D03*
X193370000Y-97860000D03*
X199180000Y-98010000D03*
X156060000Y-91040000D03*
X151580000Y-91210000D03*
X158060000Y-90650000D03*
X161930000Y-86640000D03*
X157580000Y-88820000D03*
X152490000Y-88910000D03*
X146920000Y-89170000D03*
X147450000Y-93490000D03*
X142690000Y-89230000D03*
X142800000Y-93580000D03*
X138080000Y-93380000D03*
X138190000Y-89200000D03*
X138230000Y-84200000D03*
X142360000Y-84160000D03*
X146760000Y-83900000D03*
X152760000Y-83980000D03*
X157410000Y-83900000D03*
X162370000Y-83590000D03*
X146710000Y-78890000D03*
X152590000Y-79070000D03*
X157330000Y-79240000D03*
X162420000Y-79150000D03*
X167770000Y-78800000D03*
X147020000Y-74190000D03*
X152630000Y-74150000D03*
X157630000Y-74240000D03*
X162510000Y-74240000D03*
X167640000Y-74240000D03*
X177950000Y-79200000D03*
X172770000Y-79150000D03*
X172900000Y-74240000D03*
X177730000Y-74410000D03*
X182250000Y-74100000D03*
X182250000Y-78800000D03*
X187650000Y-74400000D03*
X187560000Y-78490000D03*
X192910000Y-78190000D03*
X193000000Y-74100000D03*
X182080000Y-83580000D03*
X187470000Y-83410000D03*
X192610000Y-83450000D03*
X178420000Y-84930000D03*
X181990000Y-88760000D03*
X187340000Y-88760000D03*
X192610000Y-88720000D03*
X198520000Y-74100000D03*
X198570000Y-78320000D03*
X198660000Y-83240000D03*
X199050000Y-88630000D03*
X199050000Y-93370000D03*
X199350000Y-102730000D03*
X203530000Y-83020000D03*
X203310000Y-88280000D03*
X203530000Y-93330000D03*
X203750000Y-98030000D03*
X203750000Y-102600000D03*
X207850000Y-82770000D03*
X207980000Y-88470000D03*
X208020000Y-93300000D03*
X208020000Y-98040000D03*
X207980000Y-102570000D03*
X207830000Y-107120000D03*
X204000000Y-107030000D03*
X199440000Y-106860000D03*
X187200000Y-106710000D03*
X158570000Y-106890000D03*
X207890000Y-111620000D03*
X203860000Y-111710000D03*
X199660000Y-115240000D03*
X199570000Y-111620000D03*
X194120000Y-111910000D03*
X194120000Y-115360000D03*
X188690000Y-111850000D03*
X188690000Y-115510000D03*
X182950000Y-111730000D03*
X183120000Y-115680000D03*
X177520000Y-111620000D03*
X177640000Y-115740000D03*
X172880000Y-115650000D03*
X172970000Y-111790000D03*
X167630000Y-111730000D03*
X167460000Y-115650000D03*
X199700000Y-119110000D03*
X194330000Y-119000000D03*
X188770000Y-119000000D03*
X183050000Y-119020000D03*
X177740000Y-118940000D03*
X173020000Y-118970000D03*
X167560000Y-119050000D03*
X162490000Y-119140000D03*
X162280000Y-115540000D03*
X157410000Y-119050000D03*
X157350000Y-115460000D03*
X152330000Y-119200000D03*
X152280000Y-115690000D03*
X147780000Y-119050000D03*
X147750000Y-115860000D03*
X162240000Y-111780000D03*
X157310000Y-111690000D03*
X152120000Y-111430000D03*
X147820000Y-111430000D03*
X143070000Y-111660000D03*
X138050000Y-111520000D03*
X138110000Y-106730000D03*
X142950000Y-106560000D03*
X147740000Y-106380000D03*
X147590000Y-101800000D03*
X138160000Y-101950000D03*
X142860000Y-101680000D03*
X192060000Y-109310000D03*
X194580000Y-106340000D03*
X192060000Y-106270000D03*
X153910000Y-109160000D03*
X151200000Y-106270000D03*
X154070000Y-106390000D03*
X153920000Y-102210000D03*
X152010000Y-100150000D03*
X138000000Y-97540000D03*
X142760000Y-97400000D03*
X147510000Y-97310000D03*
X152180000Y-97310000D03*
X156360000Y-97200000D03*
X156290000Y-93620000D03*
X159710000Y-93090000D03*
X162760000Y-89840000D03*
X165400000Y-87060000D03*
X167780000Y-84620000D03*
X160620000Y-97000000D03*
X157290000Y-100460000D03*
X156330000Y-104140000D03*
X162180000Y-109800000D03*
X169100000Y-109940000D03*
X176940000Y-109900000D03*
X184060000Y-109620000D03*
X189900000Y-103760000D03*
X189920000Y-98850000D03*
X185960000Y-94260000D03*
X189630000Y-93710000D03*
X194310000Y-91060000D03*
X189660000Y-91130000D03*
X186670000Y-91080000D03*
X183440000Y-91040000D03*
X166560000Y-97810000D03*
X164590000Y-100460000D03*
X169350000Y-96050000D03*
X207980000Y-76820000D03*
X206480000Y-78240000D03*
X204380000Y-77560000D03*
X204140000Y-75090000D03*
X205840000Y-74090000D03*
X207440000Y-74660000D03*
X142050000Y-75700000D03*
X141470000Y-77650000D03*
X139250000Y-78210000D03*
X137930000Y-76660000D03*
X140450000Y-74190000D03*
X138510000Y-74710000D03*
X140680000Y-119150000D03*
X142140000Y-117770000D03*
X141440000Y-115540000D03*
X139230000Y-115120000D03*
X137860000Y-116780000D03*
X138520000Y-118640000D03*
X203660000Y-116380000D03*
X205970000Y-114930000D03*
X207890000Y-115730000D03*
X204600000Y-119070000D03*
X206740000Y-119030000D03*
X207950000Y-117570000D03*
X174740000Y-101110000D03*
X171010000Y-99930000D03*
X168170000Y-102650000D03*
X177480000Y-101060000D03*
X178860000Y-102670000D03*
X178900000Y-99660000D03*
X180190000Y-100990000D03*
X169330000Y-94240000D03*
X163980000Y-93730000D03*
X166710000Y-91090000D03*
X169260000Y-88620000D03*
X171670000Y-86300000D03*
X173320000Y-84800000D03*
X171090000Y-92450000D03*
X162910000Y-100660000D03*
X173320000Y-90390000D03*
%TD*%
D17*
%TO.N,GND*%
X169250000Y-81360000D02*
X169250000Y-83990000D01*
D18*
%TO.N,+3.3V*%
X178470000Y-96700000D02*
X175460000Y-96700000D01*
X179690000Y-97920000D02*
X178470000Y-96700000D01*
X175460000Y-93690000D02*
X175460000Y-90370000D01*
X184390000Y-102620000D02*
X175460000Y-93690000D01*
X175460000Y-90370000D02*
X175460000Y-82620000D01*
X175460000Y-96700000D02*
X175460000Y-90370000D01*
X179690000Y-97920000D02*
X184390000Y-102620000D01*
X165340000Y-102620000D02*
X163410000Y-102620000D01*
X163410000Y-102620000D02*
X161895000Y-104135000D01*
X161895000Y-104135000D02*
X162860000Y-105100000D01*
X160380000Y-102620000D02*
X161895000Y-104135000D01*
X157720000Y-102620000D02*
X160380000Y-102620000D01*
X162860000Y-105100000D02*
X161840000Y-106120000D01*
X165340000Y-102620000D02*
X162860000Y-105100000D01*
X161840000Y-106120000D02*
X161840000Y-106740000D01*
X161840000Y-106740000D02*
X157720000Y-102620000D01*
X162800000Y-107700000D02*
X161840000Y-106740000D01*
X162800000Y-107700000D02*
X166270000Y-104230000D01*
X166270000Y-103550000D02*
X167380000Y-104660000D01*
X165340000Y-102620000D02*
X166270000Y-103550000D01*
X166270000Y-104230000D02*
X166270000Y-103550000D01*
X181460000Y-106040000D02*
X166000000Y-106040000D01*
X183120000Y-107700000D02*
X181460000Y-106040000D01*
X166000000Y-106040000D02*
X164340000Y-107700000D01*
X185930000Y-102620000D02*
X183120000Y-105430000D01*
X188200000Y-102620000D02*
X185930000Y-102620000D01*
D17*
%TO.N,GND*%
X150100000Y-102240000D02*
X148740000Y-100880000D01*
X150100000Y-102560000D02*
X150100000Y-102240000D01*
X150100000Y-102200000D02*
X151510000Y-100790000D01*
X150100000Y-102560000D02*
X150100000Y-102200000D01*
X150100000Y-94640000D02*
X148850000Y-93390000D01*
X150100000Y-95000000D02*
X150100000Y-94640000D01*
X150100000Y-94710000D02*
X151410000Y-93400000D01*
X150100000Y-95000000D02*
X150100000Y-94710000D01*
X171740000Y-81300000D02*
X171740000Y-83970000D01*
X174135000Y-83985000D02*
X174135000Y-81265000D01*
X173320000Y-84800000D02*
X174135000Y-83985000D01*
X177120000Y-84210000D02*
X177130000Y-84220000D01*
X177120000Y-83010000D02*
X177120000Y-84210000D01*
X177510000Y-82620000D02*
X177120000Y-83010000D01*
X177960000Y-82620000D02*
X177510000Y-82620000D01*
X177700000Y-82620000D02*
X176440000Y-81360000D01*
X177960000Y-82620000D02*
X177700000Y-82620000D01*
X195820000Y-94680000D02*
X197190000Y-93310000D01*
X195820000Y-95000000D02*
X195820000Y-94680000D01*
X195820000Y-94700000D02*
X194550000Y-93430000D01*
X195820000Y-95000000D02*
X195820000Y-94700000D01*
X195820000Y-102180000D02*
X197060000Y-100940000D01*
X195820000Y-102560000D02*
X195820000Y-102180000D01*
X195820000Y-102250000D02*
X194630000Y-101060000D01*
X195820000Y-102560000D02*
X195820000Y-102250000D01*
X172960000Y-102270000D02*
X174190000Y-101040000D01*
X172960000Y-102560000D02*
X172960000Y-102270000D01*
X172960000Y-102290000D02*
X171730000Y-101060000D01*
X172960000Y-102560000D02*
X172960000Y-102290000D01*
X172960000Y-94780000D02*
X171640000Y-93460000D01*
X172960000Y-95000000D02*
X172960000Y-94780000D01*
X171730000Y-96230000D02*
X171250000Y-96230000D01*
X172960000Y-95000000D02*
X171730000Y-96230000D01*
D18*
%TO.N,+3.3V*%
X183120000Y-105430000D02*
X182350000Y-104660000D01*
X183120000Y-107700000D02*
X183120000Y-105430000D01*
X164340000Y-107700000D02*
X167380000Y-104660000D01*
X162800000Y-107700000D02*
X164340000Y-107700000D01*
X175460000Y-87340000D02*
X179945000Y-91825000D01*
X158185000Y-102620000D02*
X157720000Y-102620000D01*
X175460000Y-85345000D02*
X158185000Y-102620000D01*
X175460000Y-82620000D02*
X175460000Y-85345000D01*
X179690000Y-97920000D02*
X171310000Y-97920000D01*
X167380000Y-104660000D02*
X182350000Y-104660000D01*
X182350000Y-104660000D02*
X184390000Y-102620000D01*
X183120000Y-107700000D02*
X162800000Y-107700000D01*
X188200000Y-102620000D02*
X183120000Y-107700000D01*
X188200000Y-102620000D02*
X184390000Y-102620000D01*
X171310000Y-97920000D02*
X174240000Y-97920000D01*
X170040000Y-97920000D02*
X171310000Y-97920000D01*
X179945000Y-91825000D02*
X188200000Y-100080000D01*
X179945000Y-91825000D02*
X180580000Y-92460000D01*
X165340000Y-102620000D02*
X170040000Y-97920000D01*
X174240000Y-97920000D02*
X175460000Y-96700000D01*
X188200000Y-100080000D02*
X188200000Y-102620000D01*
X175460000Y-82620000D02*
X175460000Y-87340000D01*
X165340000Y-102620000D02*
X157720000Y-102620000D01*
%TD*%
%TA.AperFunction,Conductor*%
%TO.N,GND*%
G36*
X205930018Y-73680000D02*
G01*
X205944851Y-73682310D01*
X205944855Y-73682310D01*
X205953724Y-73683691D01*
X205970923Y-73681442D01*
X205994863Y-73680609D01*
X206252710Y-73696206D01*
X206267814Y-73698040D01*
X206339786Y-73711229D01*
X206548760Y-73749525D01*
X206563526Y-73753164D01*
X206836231Y-73838142D01*
X206850445Y-73843534D01*
X207068223Y-73941547D01*
X207110906Y-73960757D01*
X207124379Y-73967828D01*
X207368813Y-74115595D01*
X207381334Y-74124238D01*
X207606171Y-74300385D01*
X207617560Y-74310475D01*
X207819525Y-74512440D01*
X207829615Y-74523829D01*
X208005762Y-74748666D01*
X208014405Y-74761187D01*
X208162172Y-75005621D01*
X208169242Y-75019092D01*
X208286466Y-75279555D01*
X208291858Y-75293769D01*
X208338071Y-75442072D01*
X208376836Y-75566473D01*
X208380475Y-75581240D01*
X208397881Y-75676221D01*
X208431960Y-75862186D01*
X208433794Y-75877290D01*
X208448953Y-76127904D01*
X208447692Y-76154716D01*
X208447690Y-76154852D01*
X208446309Y-76163724D01*
X208447473Y-76172626D01*
X208447473Y-76172628D01*
X208450436Y-76195283D01*
X208451500Y-76211621D01*
X208451500Y-117120633D01*
X208450000Y-117140018D01*
X208447690Y-117154851D01*
X208447690Y-117154855D01*
X208446309Y-117163724D01*
X208448558Y-117180919D01*
X208449391Y-117204863D01*
X208433794Y-117462710D01*
X208431960Y-117477814D01*
X208396162Y-117673164D01*
X208380477Y-117758754D01*
X208376836Y-117773526D01*
X208335331Y-117906722D01*
X208291859Y-118046227D01*
X208286466Y-118060445D01*
X208173747Y-118310898D01*
X208169243Y-118320906D01*
X208162172Y-118334379D01*
X208014405Y-118578813D01*
X208005762Y-118591334D01*
X207829615Y-118816171D01*
X207819525Y-118827560D01*
X207617560Y-119029525D01*
X207606171Y-119039615D01*
X207381334Y-119215762D01*
X207368813Y-119224405D01*
X207124379Y-119372172D01*
X207110908Y-119379242D01*
X206850445Y-119496466D01*
X206836231Y-119501858D01*
X206563527Y-119586836D01*
X206548760Y-119590475D01*
X206339786Y-119628771D01*
X206267814Y-119641960D01*
X206252710Y-119643794D01*
X206002096Y-119658953D01*
X205975284Y-119657692D01*
X205975148Y-119657690D01*
X205966276Y-119656309D01*
X205957374Y-119657473D01*
X205957372Y-119657473D01*
X205942707Y-119659391D01*
X205934714Y-119660436D01*
X205918379Y-119661500D01*
X140009367Y-119661500D01*
X139989982Y-119660000D01*
X139975149Y-119657690D01*
X139975145Y-119657690D01*
X139966276Y-119656309D01*
X139949077Y-119658558D01*
X139925137Y-119659391D01*
X139667290Y-119643794D01*
X139652186Y-119641960D01*
X139580214Y-119628771D01*
X139371240Y-119590475D01*
X139356473Y-119586836D01*
X139083769Y-119501858D01*
X139069555Y-119496466D01*
X138809092Y-119379242D01*
X138795621Y-119372172D01*
X138551187Y-119224405D01*
X138538666Y-119215762D01*
X138313829Y-119039615D01*
X138302440Y-119029525D01*
X138100475Y-118827560D01*
X138090385Y-118816171D01*
X137914238Y-118591334D01*
X137905595Y-118578813D01*
X137757828Y-118334379D01*
X137750757Y-118320906D01*
X137746253Y-118310898D01*
X137633534Y-118060445D01*
X137628141Y-118046227D01*
X137584670Y-117906722D01*
X137543164Y-117773526D01*
X137539523Y-117758754D01*
X137523839Y-117673164D01*
X137488040Y-117477814D01*
X137486206Y-117462710D01*
X137471269Y-117215768D01*
X137472520Y-117192216D01*
X137472334Y-117192199D01*
X137472769Y-117187350D01*
X137473576Y-117182552D01*
X137473729Y-117170000D01*
X138346526Y-117170000D01*
X138366391Y-117422403D01*
X138367545Y-117427210D01*
X138367546Y-117427216D01*
X138377894Y-117470317D01*
X138425495Y-117668591D01*
X138427388Y-117673162D01*
X138427389Y-117673164D01*
X138465949Y-117766255D01*
X138522384Y-117902502D01*
X138654672Y-118118376D01*
X138819102Y-118310898D01*
X139011624Y-118475328D01*
X139227498Y-118607616D01*
X139232068Y-118609509D01*
X139232072Y-118609511D01*
X139456836Y-118702611D01*
X139461409Y-118704505D01*
X139546032Y-118724821D01*
X139702784Y-118762454D01*
X139702790Y-118762455D01*
X139707597Y-118763609D01*
X139960000Y-118783474D01*
X140212403Y-118763609D01*
X140217210Y-118762455D01*
X140217216Y-118762454D01*
X140373968Y-118724821D01*
X140458591Y-118704505D01*
X140463164Y-118702611D01*
X140687928Y-118609511D01*
X140687932Y-118609509D01*
X140692502Y-118607616D01*
X140908376Y-118475328D01*
X141100898Y-118310898D01*
X141265328Y-118118376D01*
X141397616Y-117902502D01*
X141454052Y-117766255D01*
X141492611Y-117673164D01*
X141492612Y-117673162D01*
X141494505Y-117668591D01*
X141542106Y-117470317D01*
X141552454Y-117427216D01*
X141552455Y-117427210D01*
X141553609Y-117422403D01*
X141573474Y-117170000D01*
X204346526Y-117170000D01*
X204366391Y-117422403D01*
X204367545Y-117427210D01*
X204367546Y-117427216D01*
X204377894Y-117470317D01*
X204425495Y-117668591D01*
X204427388Y-117673162D01*
X204427389Y-117673164D01*
X204465949Y-117766255D01*
X204522384Y-117902502D01*
X204654672Y-118118376D01*
X204819102Y-118310898D01*
X205011624Y-118475328D01*
X205227498Y-118607616D01*
X205232068Y-118609509D01*
X205232072Y-118609511D01*
X205456836Y-118702611D01*
X205461409Y-118704505D01*
X205546032Y-118724821D01*
X205702784Y-118762454D01*
X205702790Y-118762455D01*
X205707597Y-118763609D01*
X205960000Y-118783474D01*
X206212403Y-118763609D01*
X206217210Y-118762455D01*
X206217216Y-118762454D01*
X206373968Y-118724821D01*
X206458591Y-118704505D01*
X206463164Y-118702611D01*
X206687928Y-118609511D01*
X206687932Y-118609509D01*
X206692502Y-118607616D01*
X206908376Y-118475328D01*
X207100898Y-118310898D01*
X207265328Y-118118376D01*
X207397616Y-117902502D01*
X207454052Y-117766255D01*
X207492611Y-117673164D01*
X207492612Y-117673162D01*
X207494505Y-117668591D01*
X207542106Y-117470317D01*
X207552454Y-117427216D01*
X207552455Y-117427210D01*
X207553609Y-117422403D01*
X207573474Y-117170000D01*
X207553609Y-116917597D01*
X207543203Y-116874250D01*
X207495660Y-116676221D01*
X207494505Y-116671409D01*
X207488846Y-116657746D01*
X207399511Y-116442072D01*
X207399509Y-116442068D01*
X207397616Y-116437498D01*
X207265328Y-116221624D01*
X207100898Y-116029102D01*
X206908376Y-115864672D01*
X206692502Y-115732384D01*
X206687932Y-115730491D01*
X206687928Y-115730489D01*
X206463164Y-115637389D01*
X206463162Y-115637388D01*
X206458591Y-115635495D01*
X206373968Y-115615179D01*
X206217216Y-115577546D01*
X206217210Y-115577545D01*
X206212403Y-115576391D01*
X205960000Y-115556526D01*
X205707597Y-115576391D01*
X205702790Y-115577545D01*
X205702784Y-115577546D01*
X205546032Y-115615179D01*
X205461409Y-115635495D01*
X205456838Y-115637388D01*
X205456836Y-115637389D01*
X205232072Y-115730489D01*
X205232068Y-115730491D01*
X205227498Y-115732384D01*
X205011624Y-115864672D01*
X204819102Y-116029102D01*
X204654672Y-116221624D01*
X204522384Y-116437498D01*
X204520491Y-116442068D01*
X204520489Y-116442072D01*
X204431154Y-116657746D01*
X204425495Y-116671409D01*
X204424340Y-116676221D01*
X204376798Y-116874250D01*
X204366391Y-116917597D01*
X204346526Y-117170000D01*
X141573474Y-117170000D01*
X141553609Y-116917597D01*
X141543203Y-116874250D01*
X141495660Y-116676221D01*
X141494505Y-116671409D01*
X141488846Y-116657746D01*
X141399511Y-116442072D01*
X141399509Y-116442068D01*
X141397616Y-116437498D01*
X141265328Y-116221624D01*
X141100898Y-116029102D01*
X140908376Y-115864672D01*
X140692502Y-115732384D01*
X140687932Y-115730491D01*
X140687928Y-115730489D01*
X140463164Y-115637389D01*
X140463162Y-115637388D01*
X140458591Y-115635495D01*
X140373968Y-115615179D01*
X140217216Y-115577546D01*
X140217210Y-115577545D01*
X140212403Y-115576391D01*
X139960000Y-115556526D01*
X139707597Y-115576391D01*
X139702790Y-115577545D01*
X139702784Y-115577546D01*
X139546032Y-115615179D01*
X139461409Y-115635495D01*
X139456838Y-115637388D01*
X139456836Y-115637389D01*
X139232072Y-115730489D01*
X139232068Y-115730491D01*
X139227498Y-115732384D01*
X139011624Y-115864672D01*
X138819102Y-116029102D01*
X138654672Y-116221624D01*
X138522384Y-116437498D01*
X138520491Y-116442068D01*
X138520489Y-116442072D01*
X138431154Y-116657746D01*
X138425495Y-116671409D01*
X138424340Y-116676221D01*
X138376798Y-116874250D01*
X138366391Y-116917597D01*
X138346526Y-117170000D01*
X137473729Y-117170000D01*
X137469773Y-117142376D01*
X137468500Y-117124514D01*
X137468500Y-107700000D01*
X151326502Y-107700000D01*
X151346457Y-107928087D01*
X151405716Y-108149243D01*
X151408039Y-108154224D01*
X151408039Y-108154225D01*
X151500151Y-108351762D01*
X151500154Y-108351767D01*
X151502477Y-108356749D01*
X151633802Y-108544300D01*
X151795700Y-108706198D01*
X151800208Y-108709355D01*
X151800211Y-108709357D01*
X151860115Y-108751302D01*
X151983251Y-108837523D01*
X151988233Y-108839846D01*
X151988238Y-108839849D01*
X152176144Y-108927470D01*
X152190757Y-108934284D01*
X152196065Y-108935706D01*
X152196067Y-108935707D01*
X152406598Y-108992119D01*
X152406600Y-108992119D01*
X152411913Y-108993543D01*
X152640000Y-109013498D01*
X152868087Y-108993543D01*
X152873400Y-108992119D01*
X152873402Y-108992119D01*
X153083933Y-108935707D01*
X153083935Y-108935706D01*
X153089243Y-108934284D01*
X153103856Y-108927470D01*
X153291762Y-108839849D01*
X153291767Y-108839846D01*
X153296749Y-108837523D01*
X153419885Y-108751302D01*
X153479789Y-108709357D01*
X153479792Y-108709355D01*
X153484300Y-108706198D01*
X153646198Y-108544300D01*
X153777523Y-108356749D01*
X153779846Y-108351767D01*
X153779849Y-108351762D01*
X153871961Y-108154225D01*
X153871961Y-108154224D01*
X153874284Y-108149243D01*
X153933543Y-107928087D01*
X153953498Y-107700000D01*
X153933543Y-107471913D01*
X153874284Y-107250757D01*
X153871961Y-107245775D01*
X153779849Y-107048238D01*
X153779846Y-107048233D01*
X153777523Y-107043251D01*
X153646198Y-106855700D01*
X153484300Y-106693802D01*
X153479792Y-106690645D01*
X153479789Y-106690643D01*
X153401611Y-106635902D01*
X153296749Y-106562477D01*
X153291767Y-106560154D01*
X153291762Y-106560151D01*
X153094225Y-106468039D01*
X153094224Y-106468039D01*
X153089243Y-106465716D01*
X153083935Y-106464294D01*
X153083933Y-106464293D01*
X152873402Y-106407881D01*
X152873400Y-106407881D01*
X152868087Y-106406457D01*
X152640000Y-106386502D01*
X152411913Y-106406457D01*
X152406600Y-106407881D01*
X152406598Y-106407881D01*
X152196067Y-106464293D01*
X152196065Y-106464294D01*
X152190757Y-106465716D01*
X152185776Y-106468039D01*
X152185775Y-106468039D01*
X151988238Y-106560151D01*
X151988233Y-106560154D01*
X151983251Y-106562477D01*
X151878389Y-106635902D01*
X151800211Y-106690643D01*
X151800208Y-106690645D01*
X151795700Y-106693802D01*
X151633802Y-106855700D01*
X151502477Y-107043251D01*
X151500154Y-107048233D01*
X151500151Y-107048238D01*
X151408039Y-107245775D01*
X151405716Y-107250757D01*
X151346457Y-107471913D01*
X151326502Y-107700000D01*
X137468500Y-107700000D01*
X137468500Y-103504669D01*
X148692001Y-103504669D01*
X148692371Y-103511490D01*
X148697895Y-103562352D01*
X148701521Y-103577604D01*
X148746676Y-103698054D01*
X148755214Y-103713649D01*
X148831715Y-103815724D01*
X148844276Y-103828285D01*
X148946351Y-103904786D01*
X148961946Y-103913324D01*
X149082394Y-103958478D01*
X149097649Y-103962105D01*
X149148514Y-103967631D01*
X149155328Y-103968000D01*
X149827885Y-103968000D01*
X149843124Y-103963525D01*
X149844329Y-103962135D01*
X149846000Y-103954452D01*
X149846000Y-103949884D01*
X150354000Y-103949884D01*
X150358475Y-103965123D01*
X150359865Y-103966328D01*
X150367548Y-103967999D01*
X151044669Y-103967999D01*
X151051490Y-103967629D01*
X151102352Y-103962105D01*
X151117604Y-103958479D01*
X151238054Y-103913324D01*
X151253649Y-103904786D01*
X151355724Y-103828285D01*
X151368285Y-103815724D01*
X151444786Y-103713649D01*
X151453324Y-103698054D01*
X151498478Y-103577606D01*
X151502105Y-103562351D01*
X151507631Y-103511486D01*
X151508000Y-103504672D01*
X151508000Y-102832115D01*
X151503525Y-102816876D01*
X151502135Y-102815671D01*
X151494452Y-102814000D01*
X150372115Y-102814000D01*
X150356876Y-102818475D01*
X150355671Y-102819865D01*
X150354000Y-102827548D01*
X150354000Y-103949884D01*
X149846000Y-103949884D01*
X149846000Y-102832115D01*
X149841525Y-102816876D01*
X149840135Y-102815671D01*
X149832452Y-102814000D01*
X148710116Y-102814000D01*
X148694877Y-102818475D01*
X148693672Y-102819865D01*
X148692001Y-102827548D01*
X148692001Y-103504669D01*
X137468500Y-103504669D01*
X137468500Y-102672817D01*
X156207514Y-102672817D01*
X156208095Y-102677837D01*
X156208272Y-102682907D01*
X156208255Y-102682908D01*
X156208524Y-102689090D01*
X156208542Y-102689089D01*
X156208807Y-102694151D01*
X156208666Y-102699205D01*
X156222732Y-102804619D01*
X156222833Y-102805379D01*
X156223103Y-102807549D01*
X156235415Y-102913956D01*
X156236792Y-102918824D01*
X156237776Y-102923791D01*
X156237760Y-102923794D01*
X156239016Y-102929861D01*
X156239033Y-102929857D01*
X156240101Y-102934794D01*
X156240771Y-102939820D01*
X156265401Y-103021398D01*
X156271717Y-103042318D01*
X156272335Y-103044429D01*
X156299411Y-103140114D01*
X156301510Y-103147532D01*
X156303646Y-103152113D01*
X156305411Y-103156858D01*
X156305396Y-103156864D01*
X156307608Y-103162657D01*
X156307623Y-103162651D01*
X156309472Y-103167368D01*
X156310933Y-103172208D01*
X156313149Y-103176752D01*
X156313150Y-103176754D01*
X156357888Y-103268480D01*
X156358833Y-103270463D01*
X156404099Y-103367536D01*
X156406941Y-103371718D01*
X156409444Y-103376124D01*
X156409430Y-103376132D01*
X156412537Y-103381492D01*
X156412551Y-103381484D01*
X156415130Y-103385844D01*
X156417346Y-103390388D01*
X156420263Y-103394523D01*
X156479086Y-103477911D01*
X156480338Y-103479718D01*
X156488543Y-103491791D01*
X156540544Y-103568307D01*
X156544020Y-103571983D01*
X156547194Y-103575930D01*
X156547181Y-103575941D01*
X156552495Y-103582434D01*
X156552509Y-103582423D01*
X156553774Y-103583996D01*
X156554850Y-103585311D01*
X156557274Y-103588747D01*
X156559941Y-103591667D01*
X156559946Y-103591674D01*
X156575938Y-103609187D01*
X156576909Y-103610250D01*
X156636325Y-103669666D01*
X156638779Y-103672188D01*
X156707332Y-103744681D01*
X156711358Y-103747759D01*
X156711359Y-103747760D01*
X156717708Y-103752614D01*
X156730274Y-103763615D01*
X160736625Y-107769966D01*
X160742044Y-107775736D01*
X160785350Y-107824858D01*
X160785353Y-107824861D01*
X160788698Y-107828655D01*
X160792606Y-107831865D01*
X160792607Y-107831866D01*
X160820989Y-107855179D01*
X160830108Y-107863449D01*
X161706575Y-108739916D01*
X161710526Y-108744049D01*
X161767858Y-108806836D01*
X161771822Y-108809978D01*
X161775524Y-108813430D01*
X161775512Y-108813443D01*
X161780082Y-108817630D01*
X161780093Y-108817618D01*
X161783862Y-108821011D01*
X161787332Y-108824681D01*
X161849757Y-108872408D01*
X161854892Y-108876552D01*
X161914720Y-108927470D01*
X161930595Y-108937085D01*
X161943564Y-108946099D01*
X161958098Y-108957618D01*
X161962523Y-108960091D01*
X161966721Y-108962901D01*
X161966711Y-108962916D01*
X161971888Y-108966317D01*
X161971897Y-108966303D01*
X161976153Y-108969045D01*
X161980174Y-108972120D01*
X162047944Y-109008458D01*
X162049401Y-109009239D01*
X162055126Y-109012504D01*
X162122358Y-109053221D01*
X162127041Y-109055113D01*
X162127045Y-109055115D01*
X162139553Y-109060168D01*
X162153825Y-109067006D01*
X162165581Y-109073577D01*
X162165587Y-109073580D01*
X162169998Y-109076045D01*
X162174749Y-109077774D01*
X162179358Y-109079884D01*
X162179351Y-109079900D01*
X162185004Y-109082429D01*
X162185011Y-109082412D01*
X162189639Y-109084434D01*
X162194109Y-109086831D01*
X162198905Y-109088482D01*
X162198904Y-109088482D01*
X162268401Y-109112412D01*
X162274579Y-109114722D01*
X162306159Y-109127481D01*
X162347429Y-109144155D01*
X162352360Y-109145275D01*
X162352359Y-109145275D01*
X162365506Y-109148262D01*
X162380686Y-109152730D01*
X162393348Y-109157339D01*
X162393353Y-109157340D01*
X162398105Y-109159070D01*
X162403076Y-109160018D01*
X162407955Y-109161362D01*
X162407951Y-109161378D01*
X162413938Y-109162971D01*
X162413942Y-109162955D01*
X162418842Y-109164213D01*
X162423631Y-109165862D01*
X162501100Y-109179243D01*
X162507504Y-109180523D01*
X162584144Y-109197935D01*
X162589193Y-109198253D01*
X162589195Y-109198253D01*
X162602640Y-109199099D01*
X162618333Y-109201081D01*
X162631587Y-109203609D01*
X162631590Y-109203609D01*
X162636553Y-109204556D01*
X162641605Y-109204697D01*
X162646639Y-109205244D01*
X162646637Y-109205259D01*
X162654993Y-109206094D01*
X162654995Y-109206077D01*
X162656923Y-109206286D01*
X162658682Y-109206462D01*
X162658915Y-109206502D01*
X162662836Y-109207179D01*
X162669644Y-109207488D01*
X162690506Y-109208436D01*
X162690525Y-109208436D01*
X162691925Y-109208500D01*
X162748108Y-109208500D01*
X162756019Y-109208749D01*
X162826413Y-109213178D01*
X162831450Y-109212684D01*
X162831455Y-109212684D01*
X162844863Y-109211369D01*
X162860676Y-109210816D01*
X162871458Y-109211118D01*
X162874153Y-109211193D01*
X162874155Y-109211193D01*
X162879205Y-109211334D01*
X162892150Y-109209607D01*
X162908812Y-109208500D01*
X164315984Y-109208500D01*
X164319502Y-109208549D01*
X164414150Y-109211193D01*
X164414153Y-109211193D01*
X164419205Y-109211334D01*
X164432150Y-109209607D01*
X164448812Y-109208500D01*
X183068108Y-109208500D01*
X183076019Y-109208749D01*
X183099971Y-109210256D01*
X183141358Y-109212860D01*
X183141359Y-109212860D01*
X183146413Y-109213178D01*
X183151451Y-109212684D01*
X183156510Y-109212596D01*
X183156510Y-109212612D01*
X183162711Y-109212450D01*
X183162710Y-109212433D01*
X183167762Y-109212257D01*
X183172817Y-109212486D01*
X183177838Y-109211905D01*
X183182906Y-109211728D01*
X183182907Y-109211745D01*
X183189090Y-109211476D01*
X183189089Y-109211458D01*
X183194151Y-109211193D01*
X183199205Y-109211334D01*
X183204744Y-109210595D01*
X183220077Y-109208549D01*
X183277098Y-109200941D01*
X183283639Y-109200242D01*
X183334521Y-109196148D01*
X183356920Y-109194346D01*
X183356921Y-109194346D01*
X183361965Y-109193940D01*
X183366877Y-109192733D01*
X183371880Y-109191923D01*
X183371883Y-109191940D01*
X183377984Y-109190898D01*
X183377981Y-109190880D01*
X183382960Y-109189984D01*
X183388002Y-109189490D01*
X183392901Y-109188195D01*
X183397878Y-109187300D01*
X183397881Y-109187316D01*
X183403967Y-109186167D01*
X183403964Y-109186150D01*
X183408933Y-109185166D01*
X183413956Y-109184585D01*
X183418821Y-109183208D01*
X183423792Y-109182224D01*
X183423795Y-109182240D01*
X183429861Y-109180984D01*
X183429857Y-109180967D01*
X183434794Y-109179899D01*
X183439820Y-109179229D01*
X183488453Y-109164546D01*
X183515029Y-109156522D01*
X183521392Y-109154781D01*
X183597706Y-109136037D01*
X183602363Y-109134060D01*
X183607170Y-109132461D01*
X183607175Y-109132477D01*
X183613031Y-109130472D01*
X183613025Y-109130456D01*
X183617800Y-109128774D01*
X183622696Y-109127481D01*
X183627324Y-109125421D01*
X183632093Y-109123741D01*
X183632099Y-109123758D01*
X183637924Y-109121649D01*
X183637918Y-109121632D01*
X183642660Y-109119869D01*
X183647532Y-109118490D01*
X183652122Y-109116350D01*
X183656862Y-109114587D01*
X183656868Y-109114603D01*
X183662657Y-109112392D01*
X183662651Y-109112377D01*
X183667370Y-109110528D01*
X183672208Y-109109067D01*
X183676748Y-109106853D01*
X183676760Y-109106848D01*
X183742818Y-109074629D01*
X183748820Y-109071893D01*
X183816501Y-109043164D01*
X183816502Y-109043164D01*
X183821156Y-109041188D01*
X183825434Y-109038494D01*
X183829922Y-109036148D01*
X183829929Y-109036162D01*
X183835400Y-109033242D01*
X183835392Y-109033227D01*
X183839834Y-109030805D01*
X183844456Y-109028747D01*
X183848688Y-109025977D01*
X183853133Y-109023554D01*
X183853141Y-109023569D01*
X183858559Y-109020554D01*
X183858550Y-109020539D01*
X183862951Y-109018039D01*
X183867536Y-109015901D01*
X183871718Y-109013059D01*
X183876124Y-109010556D01*
X183876132Y-109010570D01*
X183881492Y-109007463D01*
X183881484Y-109007449D01*
X183885845Y-109004870D01*
X183890388Y-109002654D01*
X183954600Y-108957357D01*
X183960086Y-108953699D01*
X184022286Y-108914529D01*
X184022287Y-108914528D01*
X184026567Y-108911833D01*
X184030358Y-108908491D01*
X184034414Y-108905457D01*
X184034424Y-108905470D01*
X184039357Y-108901712D01*
X184039347Y-108901699D01*
X184043344Y-108898598D01*
X184047579Y-108895827D01*
X184051314Y-108892416D01*
X184055317Y-108889311D01*
X184055327Y-108889324D01*
X184060184Y-108885488D01*
X184060173Y-108885475D01*
X184064122Y-108882300D01*
X184068307Y-108879456D01*
X184071984Y-108875979D01*
X184075931Y-108872805D01*
X184075942Y-108872819D01*
X184082434Y-108867505D01*
X184082423Y-108867491D01*
X184083996Y-108866226D01*
X184085311Y-108865150D01*
X184085505Y-108865013D01*
X184085507Y-108865011D01*
X184088747Y-108862726D01*
X184091667Y-108860059D01*
X184091674Y-108860054D01*
X184109187Y-108844062D01*
X184109195Y-108844054D01*
X184110250Y-108843091D01*
X184149966Y-108803375D01*
X184155736Y-108797956D01*
X184204864Y-108754644D01*
X184208655Y-108751302D01*
X184211862Y-108747398D01*
X184215384Y-108743751D01*
X184215396Y-108743762D01*
X184219661Y-108739267D01*
X184219649Y-108739256D01*
X184223104Y-108735551D01*
X184226837Y-108732142D01*
X184229977Y-108728180D01*
X184233432Y-108724475D01*
X184233444Y-108724486D01*
X184237626Y-108719922D01*
X184237614Y-108719911D01*
X184241007Y-108716142D01*
X184244681Y-108712668D01*
X184252614Y-108702292D01*
X184263615Y-108689726D01*
X185253341Y-107700000D01*
X191966502Y-107700000D01*
X191986457Y-107928087D01*
X192045716Y-108149243D01*
X192048039Y-108154224D01*
X192048039Y-108154225D01*
X192140151Y-108351762D01*
X192140154Y-108351767D01*
X192142477Y-108356749D01*
X192273802Y-108544300D01*
X192435700Y-108706198D01*
X192440208Y-108709355D01*
X192440211Y-108709357D01*
X192500115Y-108751302D01*
X192623251Y-108837523D01*
X192628233Y-108839846D01*
X192628238Y-108839849D01*
X192816144Y-108927470D01*
X192830757Y-108934284D01*
X192836065Y-108935706D01*
X192836067Y-108935707D01*
X193046598Y-108992119D01*
X193046600Y-108992119D01*
X193051913Y-108993543D01*
X193280000Y-109013498D01*
X193508087Y-108993543D01*
X193513400Y-108992119D01*
X193513402Y-108992119D01*
X193723933Y-108935707D01*
X193723935Y-108935706D01*
X193729243Y-108934284D01*
X193743856Y-108927470D01*
X193931762Y-108839849D01*
X193931767Y-108839846D01*
X193936749Y-108837523D01*
X194059885Y-108751302D01*
X194119789Y-108709357D01*
X194119792Y-108709355D01*
X194124300Y-108706198D01*
X194286198Y-108544300D01*
X194417523Y-108356749D01*
X194419846Y-108351767D01*
X194419849Y-108351762D01*
X194511961Y-108154225D01*
X194511961Y-108154224D01*
X194514284Y-108149243D01*
X194573543Y-107928087D01*
X194593498Y-107700000D01*
X194573543Y-107471913D01*
X194514284Y-107250757D01*
X194511961Y-107245775D01*
X194419849Y-107048238D01*
X194419846Y-107048233D01*
X194417523Y-107043251D01*
X194286198Y-106855700D01*
X194124300Y-106693802D01*
X194119792Y-106690645D01*
X194119789Y-106690643D01*
X194041611Y-106635902D01*
X193936749Y-106562477D01*
X193931767Y-106560154D01*
X193931762Y-106560151D01*
X193734225Y-106468039D01*
X193734224Y-106468039D01*
X193729243Y-106465716D01*
X193723935Y-106464294D01*
X193723933Y-106464293D01*
X193513402Y-106407881D01*
X193513400Y-106407881D01*
X193508087Y-106406457D01*
X193280000Y-106386502D01*
X193051913Y-106406457D01*
X193046600Y-106407881D01*
X193046598Y-106407881D01*
X192836067Y-106464293D01*
X192836065Y-106464294D01*
X192830757Y-106465716D01*
X192825776Y-106468039D01*
X192825775Y-106468039D01*
X192628238Y-106560151D01*
X192628233Y-106560154D01*
X192623251Y-106562477D01*
X192518389Y-106635902D01*
X192440211Y-106690643D01*
X192440208Y-106690645D01*
X192435700Y-106693802D01*
X192273802Y-106855700D01*
X192142477Y-107043251D01*
X192140154Y-107048233D01*
X192140151Y-107048238D01*
X192048039Y-107245775D01*
X192045716Y-107250757D01*
X191986457Y-107471913D01*
X191966502Y-107700000D01*
X185253341Y-107700000D01*
X189229966Y-103723375D01*
X189235736Y-103717956D01*
X189240621Y-103713649D01*
X189288655Y-103671302D01*
X189300428Y-103656969D01*
X189311211Y-103645406D01*
X189324681Y-103632668D01*
X189372411Y-103570239D01*
X189376552Y-103565108D01*
X189424189Y-103509136D01*
X189424193Y-103509130D01*
X189427470Y-103505280D01*
X189427840Y-103504669D01*
X194412001Y-103504669D01*
X194412371Y-103511490D01*
X194417895Y-103562352D01*
X194421521Y-103577604D01*
X194466676Y-103698054D01*
X194475214Y-103713649D01*
X194551715Y-103815724D01*
X194564276Y-103828285D01*
X194666351Y-103904786D01*
X194681946Y-103913324D01*
X194802394Y-103958478D01*
X194817649Y-103962105D01*
X194868514Y-103967631D01*
X194875328Y-103968000D01*
X195547885Y-103968000D01*
X195563124Y-103963525D01*
X195564329Y-103962135D01*
X195566000Y-103954452D01*
X195566000Y-103949884D01*
X196074000Y-103949884D01*
X196078475Y-103965123D01*
X196079865Y-103966328D01*
X196087548Y-103967999D01*
X196764669Y-103967999D01*
X196771490Y-103967629D01*
X196822352Y-103962105D01*
X196837604Y-103958479D01*
X196958054Y-103913324D01*
X196973649Y-103904786D01*
X197075724Y-103828285D01*
X197088285Y-103815724D01*
X197164786Y-103713649D01*
X197173324Y-103698054D01*
X197218478Y-103577606D01*
X197222105Y-103562351D01*
X197227631Y-103511486D01*
X197228000Y-103504672D01*
X197228000Y-102832115D01*
X197223525Y-102816876D01*
X197222135Y-102815671D01*
X197214452Y-102814000D01*
X196092115Y-102814000D01*
X196076876Y-102818475D01*
X196075671Y-102819865D01*
X196074000Y-102827548D01*
X196074000Y-103949884D01*
X195566000Y-103949884D01*
X195566000Y-102832115D01*
X195561525Y-102816876D01*
X195560135Y-102815671D01*
X195552452Y-102814000D01*
X194430116Y-102814000D01*
X194414877Y-102818475D01*
X194413672Y-102819865D01*
X194412001Y-102827548D01*
X194412001Y-103504669D01*
X189427840Y-103504669D01*
X189430091Y-103500953D01*
X189433053Y-103496845D01*
X189433067Y-103496855D01*
X189436645Y-103491800D01*
X189436632Y-103491791D01*
X189439525Y-103487629D01*
X189442734Y-103483722D01*
X189452062Y-103467694D01*
X189460854Y-103454561D01*
X189472120Y-103439826D01*
X189509243Y-103370592D01*
X189512507Y-103364868D01*
X189550603Y-103301965D01*
X189550604Y-103301964D01*
X189553221Y-103297642D01*
X189555115Y-103292953D01*
X189557381Y-103288429D01*
X189557396Y-103288436D01*
X189560125Y-103282864D01*
X189560110Y-103282857D01*
X189562294Y-103278298D01*
X189564841Y-103273922D01*
X189566655Y-103269196D01*
X189566658Y-103269190D01*
X189571484Y-103256618D01*
X189578071Y-103242229D01*
X189584442Y-103230347D01*
X189584443Y-103230344D01*
X189586831Y-103225891D01*
X189612412Y-103151599D01*
X189614722Y-103145421D01*
X189642256Y-103077271D01*
X189644155Y-103072571D01*
X189645278Y-103067627D01*
X189646789Y-103062806D01*
X189646805Y-103062811D01*
X189648607Y-103056881D01*
X189648590Y-103056876D01*
X189650016Y-103052030D01*
X189651833Y-103047298D01*
X189655623Y-103029159D01*
X189659823Y-103013908D01*
X189664215Y-103001152D01*
X189665862Y-102996369D01*
X189679243Y-102918900D01*
X189680526Y-102912482D01*
X189696813Y-102840794D01*
X189697935Y-102835856D01*
X189698253Y-102830801D01*
X189698974Y-102825800D01*
X189698990Y-102825802D01*
X189699822Y-102819653D01*
X189699805Y-102819651D01*
X189700438Y-102814639D01*
X189701474Y-102809680D01*
X189702315Y-102791161D01*
X189704023Y-102775437D01*
X189706504Y-102761071D01*
X189707179Y-102757164D01*
X189708500Y-102728075D01*
X189708500Y-102671892D01*
X189708749Y-102663980D01*
X189712860Y-102598642D01*
X189712860Y-102598641D01*
X189713178Y-102593587D01*
X189712684Y-102588549D01*
X189712596Y-102583490D01*
X189712612Y-102583490D01*
X189712450Y-102577289D01*
X189712433Y-102577290D01*
X189712257Y-102572237D01*
X189712486Y-102567183D01*
X189709335Y-102539949D01*
X189708500Y-102525468D01*
X189708500Y-100104016D01*
X189708549Y-100100498D01*
X189711193Y-100005850D01*
X189711193Y-100005847D01*
X189711334Y-100000795D01*
X189709289Y-99985469D01*
X194407095Y-99985469D01*
X194407392Y-99990622D01*
X194407392Y-99990625D01*
X194413067Y-100089041D01*
X194420427Y-100216697D01*
X194421564Y-100221743D01*
X194421565Y-100221749D01*
X194444851Y-100325076D01*
X194471346Y-100442642D01*
X194473288Y-100447424D01*
X194473289Y-100447428D01*
X194532768Y-100593907D01*
X194558484Y-100657237D01*
X194679501Y-100854719D01*
X194682882Y-100858622D01*
X194791653Y-100984191D01*
X194821135Y-101048776D01*
X194811020Y-101119049D01*
X194764519Y-101172697D01*
X194740646Y-101184670D01*
X194681944Y-101206677D01*
X194666351Y-101215214D01*
X194564276Y-101291715D01*
X194551715Y-101304276D01*
X194475214Y-101406351D01*
X194466676Y-101421946D01*
X194421522Y-101542394D01*
X194417895Y-101557649D01*
X194412369Y-101608514D01*
X194412000Y-101615328D01*
X194412000Y-102287885D01*
X194416475Y-102303124D01*
X194417865Y-102304329D01*
X194425548Y-102306000D01*
X197209884Y-102306000D01*
X197225123Y-102301525D01*
X197226328Y-102300135D01*
X197227999Y-102292452D01*
X197227999Y-101615331D01*
X197227629Y-101608510D01*
X197222105Y-101557648D01*
X197218479Y-101542396D01*
X197173324Y-101421946D01*
X197164786Y-101406351D01*
X197088285Y-101304276D01*
X197075724Y-101291715D01*
X196973649Y-101215214D01*
X196958052Y-101206675D01*
X196899415Y-101184693D01*
X196842650Y-101142052D01*
X196817950Y-101075490D01*
X196833157Y-101006141D01*
X196854703Y-100977461D01*
X196892641Y-100939654D01*
X196896303Y-100936005D01*
X197031458Y-100747917D01*
X197052748Y-100704841D01*
X197131784Y-100544922D01*
X197131785Y-100544920D01*
X197134078Y-100540280D01*
X197201408Y-100318671D01*
X197231640Y-100089041D01*
X197233327Y-100020000D01*
X197224806Y-99916353D01*
X197214773Y-99794318D01*
X197214772Y-99794312D01*
X197214349Y-99789167D01*
X197185762Y-99675358D01*
X197159184Y-99569544D01*
X197159183Y-99569540D01*
X197157925Y-99564533D01*
X197155866Y-99559797D01*
X197067630Y-99356868D01*
X197067628Y-99356865D01*
X197065570Y-99352131D01*
X196939764Y-99157665D01*
X196927032Y-99143672D01*
X196890134Y-99103122D01*
X196783887Y-98986358D01*
X196779836Y-98983159D01*
X196779832Y-98983155D01*
X196606177Y-98846011D01*
X196606172Y-98846008D01*
X196602123Y-98842810D01*
X196597607Y-98840317D01*
X196597604Y-98840315D01*
X196403879Y-98733373D01*
X196403875Y-98733371D01*
X196399355Y-98730876D01*
X196394486Y-98729152D01*
X196394482Y-98729150D01*
X196185903Y-98655288D01*
X196185899Y-98655287D01*
X196181028Y-98653562D01*
X196175935Y-98652655D01*
X196175932Y-98652654D01*
X195958095Y-98613851D01*
X195958089Y-98613850D01*
X195953006Y-98612945D01*
X195880096Y-98612054D01*
X195726581Y-98610179D01*
X195726579Y-98610179D01*
X195721411Y-98610116D01*
X195492464Y-98645150D01*
X195272314Y-98717106D01*
X195267726Y-98719494D01*
X195267722Y-98719496D01*
X195241065Y-98733373D01*
X195066872Y-98824052D01*
X195062739Y-98827155D01*
X195062736Y-98827157D01*
X195037625Y-98846011D01*
X194881655Y-98963117D01*
X194721639Y-99130564D01*
X194718725Y-99134836D01*
X194718724Y-99134837D01*
X194692396Y-99173433D01*
X194591119Y-99321899D01*
X194493602Y-99531981D01*
X194431707Y-99755169D01*
X194407095Y-99985469D01*
X189709289Y-99985469D01*
X189700941Y-99922902D01*
X189700241Y-99916353D01*
X189694346Y-99843077D01*
X189694345Y-99843073D01*
X189693940Y-99838035D01*
X189686101Y-99806122D01*
X189683573Y-99792738D01*
X189679898Y-99765194D01*
X189679229Y-99760180D01*
X189656522Y-99684971D01*
X189654781Y-99678608D01*
X189637244Y-99607209D01*
X189636037Y-99602294D01*
X189623199Y-99572048D01*
X189618561Y-99559237D01*
X189610530Y-99532638D01*
X189609067Y-99527792D01*
X189606849Y-99523244D01*
X189606846Y-99523237D01*
X189574629Y-99457182D01*
X189571893Y-99451180D01*
X189543162Y-99383495D01*
X189541188Y-99378844D01*
X189525877Y-99354532D01*
X189523681Y-99351044D01*
X189517052Y-99339134D01*
X189502654Y-99309612D01*
X189457357Y-99245400D01*
X189453699Y-99239914D01*
X189414529Y-99177714D01*
X189414528Y-99177713D01*
X189411833Y-99173433D01*
X189408492Y-99169644D01*
X189408488Y-99169638D01*
X189390102Y-99148783D01*
X189381656Y-99138088D01*
X189365009Y-99114490D01*
X189362726Y-99111253D01*
X189343091Y-99089750D01*
X189303375Y-99050034D01*
X189297956Y-99044264D01*
X189254650Y-98995142D01*
X189254647Y-98995139D01*
X189251302Y-98991345D01*
X189219011Y-98964821D01*
X189209892Y-98956551D01*
X188567678Y-98314337D01*
X188559598Y-98305448D01*
X186611067Y-95944669D01*
X194412001Y-95944669D01*
X194412371Y-95951490D01*
X194417895Y-96002352D01*
X194421521Y-96017604D01*
X194466676Y-96138054D01*
X194475214Y-96153649D01*
X194551715Y-96255724D01*
X194564276Y-96268285D01*
X194666351Y-96344786D01*
X194681946Y-96353324D01*
X194802394Y-96398478D01*
X194817649Y-96402105D01*
X194868514Y-96407631D01*
X194875328Y-96408000D01*
X195547885Y-96408000D01*
X195563124Y-96403525D01*
X195564329Y-96402135D01*
X195566000Y-96394452D01*
X195566000Y-96389884D01*
X196074000Y-96389884D01*
X196078475Y-96405123D01*
X196079865Y-96406328D01*
X196087548Y-96407999D01*
X196764669Y-96407999D01*
X196771490Y-96407629D01*
X196822352Y-96402105D01*
X196837604Y-96398479D01*
X196958054Y-96353324D01*
X196973649Y-96344786D01*
X197075724Y-96268285D01*
X197088285Y-96255724D01*
X197164786Y-96153649D01*
X197173324Y-96138054D01*
X197218478Y-96017606D01*
X197222105Y-96002351D01*
X197227631Y-95951486D01*
X197228000Y-95944672D01*
X197228000Y-95272115D01*
X197223525Y-95256876D01*
X197222135Y-95255671D01*
X197214452Y-95254000D01*
X196092115Y-95254000D01*
X196076876Y-95258475D01*
X196075671Y-95259865D01*
X196074000Y-95267548D01*
X196074000Y-96389884D01*
X195566000Y-96389884D01*
X195566000Y-95272115D01*
X195561525Y-95256876D01*
X195560135Y-95255671D01*
X195552452Y-95254000D01*
X194430116Y-95254000D01*
X194414877Y-95258475D01*
X194413672Y-95259865D01*
X194412001Y-95267548D01*
X194412001Y-95944669D01*
X186611067Y-95944669D01*
X183734905Y-92460000D01*
X186886502Y-92460000D01*
X186906457Y-92688087D01*
X186907881Y-92693400D01*
X186907881Y-92693402D01*
X186959871Y-92887428D01*
X186965716Y-92909243D01*
X186968039Y-92914224D01*
X186968039Y-92914225D01*
X187060151Y-93111762D01*
X187060154Y-93111767D01*
X187062477Y-93116749D01*
X187065634Y-93121257D01*
X187184012Y-93290318D01*
X187193802Y-93304300D01*
X187355700Y-93466198D01*
X187360208Y-93469355D01*
X187360211Y-93469357D01*
X187426096Y-93515490D01*
X187543251Y-93597523D01*
X187548233Y-93599846D01*
X187548238Y-93599849D01*
X187707238Y-93673991D01*
X187750757Y-93694284D01*
X187756065Y-93695706D01*
X187756067Y-93695707D01*
X187966598Y-93752119D01*
X187966600Y-93752119D01*
X187971913Y-93753543D01*
X188200000Y-93773498D01*
X188428087Y-93753543D01*
X188433400Y-93752119D01*
X188433402Y-93752119D01*
X188643933Y-93695707D01*
X188643935Y-93695706D01*
X188649243Y-93694284D01*
X188692762Y-93673991D01*
X188851762Y-93599849D01*
X188851767Y-93599846D01*
X188856749Y-93597523D01*
X188973904Y-93515490D01*
X189039789Y-93469357D01*
X189039792Y-93469355D01*
X189044300Y-93466198D01*
X189206198Y-93304300D01*
X189215989Y-93290318D01*
X189334366Y-93121257D01*
X189337523Y-93116749D01*
X189339846Y-93111767D01*
X189339849Y-93111762D01*
X189431961Y-92914225D01*
X189431961Y-92914224D01*
X189434284Y-92909243D01*
X189440130Y-92887428D01*
X189492119Y-92693402D01*
X189492119Y-92693400D01*
X189493543Y-92688087D01*
X189513498Y-92460000D01*
X189510477Y-92425469D01*
X194407095Y-92425469D01*
X194407392Y-92430622D01*
X194407392Y-92430625D01*
X194413067Y-92529041D01*
X194420427Y-92656697D01*
X194421564Y-92661743D01*
X194421565Y-92661749D01*
X194453741Y-92804523D01*
X194471346Y-92882642D01*
X194473288Y-92887424D01*
X194473289Y-92887428D01*
X194524266Y-93012969D01*
X194558484Y-93097237D01*
X194679501Y-93294719D01*
X194682882Y-93298622D01*
X194791653Y-93424191D01*
X194821135Y-93488776D01*
X194811020Y-93559049D01*
X194764519Y-93612697D01*
X194740646Y-93624670D01*
X194681944Y-93646677D01*
X194666351Y-93655214D01*
X194564276Y-93731715D01*
X194551715Y-93744276D01*
X194475214Y-93846351D01*
X194466676Y-93861946D01*
X194421522Y-93982394D01*
X194417895Y-93997649D01*
X194412369Y-94048514D01*
X194412000Y-94055328D01*
X194412000Y-94727885D01*
X194416475Y-94743124D01*
X194417865Y-94744329D01*
X194425548Y-94746000D01*
X197209884Y-94746000D01*
X197225123Y-94741525D01*
X197226328Y-94740135D01*
X197227999Y-94732452D01*
X197227999Y-94055331D01*
X197227629Y-94048510D01*
X197222105Y-93997648D01*
X197218479Y-93982396D01*
X197173324Y-93861946D01*
X197164786Y-93846351D01*
X197088285Y-93744276D01*
X197075724Y-93731715D01*
X196973649Y-93655214D01*
X196958052Y-93646675D01*
X196899415Y-93624693D01*
X196842650Y-93582052D01*
X196817950Y-93515490D01*
X196833157Y-93446141D01*
X196854703Y-93417461D01*
X196892641Y-93379654D01*
X196896303Y-93376005D01*
X197031458Y-93187917D01*
X197078641Y-93092450D01*
X197131784Y-92984922D01*
X197131785Y-92984920D01*
X197134078Y-92980280D01*
X197201408Y-92758671D01*
X197231640Y-92529041D01*
X197233327Y-92460000D01*
X197227032Y-92383434D01*
X197214773Y-92234318D01*
X197214772Y-92234312D01*
X197214349Y-92229167D01*
X197160822Y-92016067D01*
X197159184Y-92009544D01*
X197159183Y-92009540D01*
X197157925Y-92004533D01*
X197155866Y-91999797D01*
X197067630Y-91796868D01*
X197067628Y-91796865D01*
X197065570Y-91792131D01*
X196939764Y-91597665D01*
X196783887Y-91426358D01*
X196779836Y-91423159D01*
X196779832Y-91423155D01*
X196606177Y-91286011D01*
X196606172Y-91286008D01*
X196602123Y-91282810D01*
X196597607Y-91280317D01*
X196597604Y-91280315D01*
X196403879Y-91173373D01*
X196403875Y-91173371D01*
X196399355Y-91170876D01*
X196394486Y-91169152D01*
X196394482Y-91169150D01*
X196185903Y-91095288D01*
X196185899Y-91095287D01*
X196181028Y-91093562D01*
X196175935Y-91092655D01*
X196175932Y-91092654D01*
X195958095Y-91053851D01*
X195958089Y-91053850D01*
X195953006Y-91052945D01*
X195880096Y-91052054D01*
X195726581Y-91050179D01*
X195726579Y-91050179D01*
X195721411Y-91050116D01*
X195492464Y-91085150D01*
X195272314Y-91157106D01*
X195267726Y-91159494D01*
X195267722Y-91159496D01*
X195081911Y-91256223D01*
X195066872Y-91264052D01*
X195062739Y-91267155D01*
X195062736Y-91267157D01*
X194885790Y-91400012D01*
X194881655Y-91403117D01*
X194721639Y-91570564D01*
X194718725Y-91574836D01*
X194718724Y-91574837D01*
X194703152Y-91597665D01*
X194591119Y-91761899D01*
X194493602Y-91971981D01*
X194431707Y-92195169D01*
X194407095Y-92425469D01*
X189510477Y-92425469D01*
X189493543Y-92231913D01*
X189485073Y-92200301D01*
X189435707Y-92016067D01*
X189435706Y-92016065D01*
X189434284Y-92010757D01*
X189418522Y-91976954D01*
X189339849Y-91808238D01*
X189339846Y-91808233D01*
X189337523Y-91803251D01*
X189206198Y-91615700D01*
X189044300Y-91453802D01*
X189039792Y-91450645D01*
X189039789Y-91450643D01*
X188961611Y-91395902D01*
X188856749Y-91322477D01*
X188851767Y-91320154D01*
X188851762Y-91320151D01*
X188654225Y-91228039D01*
X188654224Y-91228039D01*
X188649243Y-91225716D01*
X188643935Y-91224294D01*
X188643933Y-91224293D01*
X188433402Y-91167881D01*
X188433400Y-91167881D01*
X188428087Y-91166457D01*
X188200000Y-91146502D01*
X187971913Y-91166457D01*
X187966600Y-91167881D01*
X187966598Y-91167881D01*
X187756067Y-91224293D01*
X187756065Y-91224294D01*
X187750757Y-91225716D01*
X187745776Y-91228039D01*
X187745775Y-91228039D01*
X187548238Y-91320151D01*
X187548233Y-91320154D01*
X187543251Y-91322477D01*
X187438389Y-91395902D01*
X187360211Y-91450643D01*
X187360208Y-91450645D01*
X187355700Y-91453802D01*
X187193802Y-91615700D01*
X187062477Y-91803251D01*
X187060154Y-91808233D01*
X187060151Y-91808238D01*
X186981478Y-91976954D01*
X186965716Y-92010757D01*
X186964294Y-92016065D01*
X186964293Y-92016067D01*
X186914927Y-92200301D01*
X186906457Y-92231913D01*
X186886502Y-92460000D01*
X183734905Y-92460000D01*
X176997325Y-84296957D01*
X176969388Y-84231688D01*
X176968500Y-84216751D01*
X176968500Y-84188323D01*
X176988502Y-84120202D01*
X177042158Y-84073709D01*
X177112432Y-84063605D01*
X177134167Y-84068730D01*
X177198707Y-84090137D01*
X177212086Y-84093005D01*
X177306438Y-84102672D01*
X177312854Y-84103000D01*
X177687885Y-84103000D01*
X177703124Y-84098525D01*
X177704329Y-84097135D01*
X177706000Y-84089452D01*
X177706000Y-84084884D01*
X178214000Y-84084884D01*
X178218475Y-84100123D01*
X178219865Y-84101328D01*
X178227548Y-84102999D01*
X178607095Y-84102999D01*
X178613614Y-84102662D01*
X178709206Y-84092743D01*
X178722600Y-84089851D01*
X178876784Y-84038412D01*
X178889962Y-84032239D01*
X179027807Y-83946937D01*
X179039208Y-83937901D01*
X179153739Y-83823171D01*
X179162751Y-83811760D01*
X179247816Y-83673757D01*
X179253963Y-83660576D01*
X179305138Y-83506290D01*
X179308005Y-83492914D01*
X179317672Y-83398562D01*
X179318000Y-83392146D01*
X179318000Y-82892115D01*
X179313525Y-82876876D01*
X179312135Y-82875671D01*
X179304452Y-82874000D01*
X178232115Y-82874000D01*
X178216876Y-82878475D01*
X178215671Y-82879865D01*
X178214000Y-82887548D01*
X178214000Y-84084884D01*
X177706000Y-84084884D01*
X177706000Y-82347885D01*
X178214000Y-82347885D01*
X178218475Y-82363124D01*
X178219865Y-82364329D01*
X178227548Y-82366000D01*
X179299884Y-82366000D01*
X179315123Y-82361525D01*
X179316328Y-82360135D01*
X179317999Y-82352452D01*
X179317999Y-81847905D01*
X179317662Y-81841386D01*
X179307743Y-81745794D01*
X179304851Y-81732400D01*
X179253412Y-81578216D01*
X179247239Y-81565038D01*
X179161937Y-81427193D01*
X179152901Y-81415792D01*
X179038171Y-81301261D01*
X179026760Y-81292249D01*
X178888757Y-81207184D01*
X178875576Y-81201037D01*
X178721290Y-81149862D01*
X178707914Y-81146995D01*
X178613562Y-81137328D01*
X178607145Y-81137000D01*
X178232115Y-81137000D01*
X178216876Y-81141475D01*
X178215671Y-81142865D01*
X178214000Y-81150548D01*
X178214000Y-82347885D01*
X177706000Y-82347885D01*
X177706000Y-81155116D01*
X177701525Y-81139877D01*
X177700135Y-81138672D01*
X177692452Y-81137001D01*
X177312905Y-81137001D01*
X177306386Y-81137338D01*
X177210794Y-81147257D01*
X177197400Y-81150149D01*
X177043216Y-81201588D01*
X177030038Y-81207761D01*
X176892193Y-81293063D01*
X176880792Y-81302099D01*
X176766261Y-81416829D01*
X176757249Y-81428240D01*
X176707576Y-81508825D01*
X176654804Y-81556318D01*
X176584732Y-81567742D01*
X176519608Y-81539468D01*
X176514116Y-81534537D01*
X176511302Y-81531345D01*
X176446020Y-81477722D01*
X176327628Y-81380474D01*
X176327625Y-81380472D01*
X176323722Y-81377266D01*
X176193133Y-81301261D01*
X176118290Y-81257701D01*
X176118288Y-81257700D01*
X176113922Y-81255159D01*
X175979725Y-81203646D01*
X175892022Y-81169980D01*
X175892018Y-81169979D01*
X175887298Y-81168167D01*
X175882348Y-81167133D01*
X175882345Y-81167132D01*
X175654631Y-81119560D01*
X175654627Y-81119560D01*
X175649680Y-81118526D01*
X175407183Y-81107514D01*
X175402163Y-81108095D01*
X175402159Y-81108095D01*
X175171071Y-81134833D01*
X175171067Y-81134834D01*
X175166044Y-81135415D01*
X175161180Y-81136791D01*
X175161177Y-81136792D01*
X175067171Y-81163393D01*
X174932468Y-81201510D01*
X174927892Y-81203644D01*
X174927886Y-81203646D01*
X174717046Y-81301962D01*
X174717042Y-81301964D01*
X174712464Y-81304099D01*
X174708283Y-81306940D01*
X174708282Y-81306941D01*
X174637408Y-81355107D01*
X174511693Y-81440544D01*
X174335319Y-81607332D01*
X174332241Y-81611358D01*
X174332240Y-81611359D01*
X174263668Y-81701048D01*
X174206404Y-81743016D01*
X174135540Y-81747361D01*
X174073577Y-81712705D01*
X174059052Y-81694886D01*
X174025539Y-81645108D01*
X174022559Y-81640681D01*
X173863424Y-81473865D01*
X173678458Y-81336246D01*
X173673707Y-81333830D01*
X173673703Y-81333828D01*
X173518971Y-81255159D01*
X173472949Y-81231760D01*
X173467855Y-81230178D01*
X173467852Y-81230177D01*
X173257871Y-81164976D01*
X173252773Y-81163393D01*
X173247484Y-81162692D01*
X173029511Y-81133802D01*
X173029506Y-81133802D01*
X173024226Y-81133102D01*
X173018897Y-81133302D01*
X173018895Y-81133302D01*
X172920368Y-81137001D01*
X172793842Y-81141751D01*
X172788623Y-81142846D01*
X172768849Y-81146995D01*
X172568209Y-81189093D01*
X172563250Y-81191051D01*
X172563248Y-81191052D01*
X172358744Y-81271815D01*
X172358742Y-81271816D01*
X172353779Y-81273776D01*
X172349220Y-81276543D01*
X172349217Y-81276544D01*
X172250832Y-81336246D01*
X172156683Y-81393377D01*
X172152653Y-81396874D01*
X172001390Y-81528133D01*
X171982555Y-81544477D01*
X171979168Y-81548608D01*
X171839760Y-81718627D01*
X171839756Y-81718633D01*
X171836376Y-81722755D01*
X171818448Y-81754250D01*
X171767368Y-81803555D01*
X171697738Y-81817417D01*
X171631667Y-81791434D01*
X171604427Y-81762284D01*
X171575035Y-81718627D01*
X171522559Y-81640681D01*
X171363424Y-81473865D01*
X171178458Y-81336246D01*
X171173707Y-81333830D01*
X171173703Y-81333828D01*
X171018971Y-81255159D01*
X170972949Y-81231760D01*
X170967855Y-81230178D01*
X170967852Y-81230177D01*
X170757871Y-81164976D01*
X170752773Y-81163393D01*
X170747484Y-81162692D01*
X170529511Y-81133802D01*
X170529506Y-81133802D01*
X170524226Y-81133102D01*
X170518897Y-81133302D01*
X170518895Y-81133302D01*
X170420368Y-81137001D01*
X170293842Y-81141751D01*
X170288623Y-81142846D01*
X170268849Y-81146995D01*
X170068209Y-81189093D01*
X170063250Y-81191051D01*
X170063248Y-81191052D01*
X169858744Y-81271815D01*
X169858742Y-81271816D01*
X169853779Y-81273776D01*
X169849220Y-81276543D01*
X169849217Y-81276544D01*
X169750832Y-81336246D01*
X169656683Y-81393377D01*
X169652653Y-81396874D01*
X169501390Y-81528133D01*
X169482555Y-81544477D01*
X169479168Y-81548608D01*
X169339760Y-81718627D01*
X169339756Y-81718633D01*
X169336376Y-81722755D01*
X169318448Y-81754250D01*
X169267368Y-81803555D01*
X169197738Y-81817417D01*
X169131667Y-81791434D01*
X169104427Y-81762284D01*
X169075035Y-81718627D01*
X169022559Y-81640681D01*
X168863424Y-81473865D01*
X168678458Y-81336246D01*
X168673707Y-81333830D01*
X168673703Y-81333828D01*
X168518971Y-81255159D01*
X168472949Y-81231760D01*
X168467855Y-81230178D01*
X168467852Y-81230177D01*
X168257871Y-81164976D01*
X168252773Y-81163393D01*
X168247484Y-81162692D01*
X168029511Y-81133802D01*
X168029506Y-81133802D01*
X168024226Y-81133102D01*
X168018897Y-81133302D01*
X168018895Y-81133302D01*
X167920368Y-81137001D01*
X167793842Y-81141751D01*
X167788623Y-81142846D01*
X167768849Y-81146995D01*
X167568209Y-81189093D01*
X167563250Y-81191051D01*
X167563248Y-81191052D01*
X167358744Y-81271815D01*
X167358742Y-81271816D01*
X167353779Y-81273776D01*
X167349220Y-81276543D01*
X167349217Y-81276544D01*
X167250832Y-81336246D01*
X167156683Y-81393377D01*
X167152653Y-81396874D01*
X167001390Y-81528133D01*
X166982555Y-81544477D01*
X166979168Y-81548608D01*
X166839760Y-81718627D01*
X166839756Y-81718633D01*
X166836376Y-81722755D01*
X166833738Y-81727390D01*
X166833735Y-81727394D01*
X166790382Y-81803555D01*
X166722325Y-81923114D01*
X166643663Y-82139825D01*
X166642714Y-82145074D01*
X166642713Y-82145077D01*
X166603377Y-82362608D01*
X166603376Y-82362615D01*
X166602639Y-82366692D01*
X166601500Y-82390844D01*
X166601500Y-82802890D01*
X166616080Y-82974720D01*
X166617418Y-82979875D01*
X166617419Y-82979881D01*
X166672657Y-83192703D01*
X166673999Y-83197872D01*
X166768688Y-83408075D01*
X166897441Y-83599319D01*
X167056576Y-83766135D01*
X167241542Y-83903754D01*
X167246293Y-83906170D01*
X167246297Y-83906172D01*
X167308704Y-83937901D01*
X167447051Y-84008240D01*
X167452145Y-84009822D01*
X167452148Y-84009823D01*
X167625354Y-84063605D01*
X167667227Y-84076607D01*
X167672516Y-84077308D01*
X167890489Y-84106198D01*
X167890494Y-84106198D01*
X167895774Y-84106898D01*
X167901103Y-84106698D01*
X167901105Y-84106698D01*
X168010966Y-84102574D01*
X168126158Y-84098249D01*
X168131468Y-84097135D01*
X168346572Y-84052002D01*
X168351791Y-84050907D01*
X168356750Y-84048949D01*
X168356752Y-84048948D01*
X168561256Y-83968185D01*
X168561258Y-83968184D01*
X168566221Y-83966224D01*
X168665184Y-83906172D01*
X168758757Y-83849390D01*
X168758756Y-83849390D01*
X168763317Y-83846623D01*
X168803493Y-83811760D01*
X168933412Y-83699023D01*
X168933414Y-83699021D01*
X168937445Y-83695523D01*
X168971516Y-83653970D01*
X169080240Y-83521373D01*
X169080244Y-83521367D01*
X169083624Y-83517245D01*
X169101552Y-83485750D01*
X169152632Y-83436445D01*
X169222262Y-83422583D01*
X169288333Y-83448566D01*
X169315573Y-83477716D01*
X169397441Y-83599319D01*
X169556576Y-83766135D01*
X169741542Y-83903754D01*
X169746293Y-83906170D01*
X169746297Y-83906172D01*
X169808704Y-83937901D01*
X169947051Y-84008240D01*
X169952145Y-84009822D01*
X169952148Y-84009823D01*
X170125354Y-84063605D01*
X170167227Y-84076607D01*
X170172516Y-84077308D01*
X170390489Y-84106198D01*
X170390494Y-84106198D01*
X170395774Y-84106898D01*
X170401103Y-84106698D01*
X170401105Y-84106698D01*
X170510966Y-84102574D01*
X170626158Y-84098249D01*
X170631468Y-84097135D01*
X170846572Y-84052002D01*
X170851791Y-84050907D01*
X170856750Y-84048949D01*
X170856752Y-84048948D01*
X171061256Y-83968185D01*
X171061258Y-83968184D01*
X171066221Y-83966224D01*
X171165184Y-83906172D01*
X171258757Y-83849390D01*
X171258756Y-83849390D01*
X171263317Y-83846623D01*
X171303493Y-83811760D01*
X171433412Y-83699023D01*
X171433414Y-83699021D01*
X171437445Y-83695523D01*
X171471516Y-83653970D01*
X171580240Y-83521373D01*
X171580244Y-83521367D01*
X171583624Y-83517245D01*
X171601552Y-83485750D01*
X171652632Y-83436445D01*
X171722262Y-83422583D01*
X171788333Y-83448566D01*
X171815573Y-83477716D01*
X171897441Y-83599319D01*
X172056576Y-83766135D01*
X172241542Y-83903754D01*
X172246293Y-83906170D01*
X172246297Y-83906172D01*
X172308704Y-83937901D01*
X172447051Y-84008240D01*
X172452145Y-84009822D01*
X172452148Y-84009823D01*
X172625354Y-84063605D01*
X172667227Y-84076607D01*
X172672516Y-84077308D01*
X172890489Y-84106198D01*
X172890494Y-84106198D01*
X172895774Y-84106898D01*
X172901103Y-84106698D01*
X172901105Y-84106698D01*
X173010966Y-84102574D01*
X173126158Y-84098249D01*
X173131468Y-84097135D01*
X173346572Y-84052002D01*
X173351791Y-84050907D01*
X173356750Y-84048949D01*
X173356752Y-84048948D01*
X173561256Y-83968185D01*
X173561258Y-83968184D01*
X173566221Y-83966224D01*
X173760135Y-83848554D01*
X173828748Y-83830315D01*
X173896330Y-83852066D01*
X173941425Y-83906903D01*
X173951500Y-83956273D01*
X173951500Y-84667969D01*
X173931498Y-84736090D01*
X173914595Y-84757064D01*
X166729072Y-91942587D01*
X166666760Y-91976613D01*
X166595945Y-91971548D01*
X166539109Y-91929001D01*
X166525782Y-91906742D01*
X166479849Y-91808238D01*
X166479846Y-91808233D01*
X166477523Y-91803251D01*
X166346198Y-91615700D01*
X166184300Y-91453802D01*
X166179792Y-91450645D01*
X166179789Y-91450643D01*
X166101611Y-91395902D01*
X165996749Y-91322477D01*
X165991767Y-91320154D01*
X165991762Y-91320151D01*
X165794225Y-91228039D01*
X165794224Y-91228039D01*
X165789243Y-91225716D01*
X165783935Y-91224294D01*
X165783933Y-91224293D01*
X165573402Y-91167881D01*
X165573400Y-91167881D01*
X165568087Y-91166457D01*
X165340000Y-91146502D01*
X165111913Y-91166457D01*
X165106600Y-91167881D01*
X165106598Y-91167881D01*
X164896067Y-91224293D01*
X164896065Y-91224294D01*
X164890757Y-91225716D01*
X164885776Y-91228039D01*
X164885775Y-91228039D01*
X164688238Y-91320151D01*
X164688233Y-91320154D01*
X164683251Y-91322477D01*
X164578389Y-91395902D01*
X164500211Y-91450643D01*
X164500208Y-91450645D01*
X164495700Y-91453802D01*
X164333802Y-91615700D01*
X164202477Y-91803251D01*
X164200154Y-91808233D01*
X164200151Y-91808238D01*
X164121478Y-91976954D01*
X164105716Y-92010757D01*
X164104294Y-92016065D01*
X164104293Y-92016067D01*
X164054927Y-92200301D01*
X164046457Y-92231913D01*
X164026502Y-92460000D01*
X164046457Y-92688087D01*
X164047881Y-92693400D01*
X164047881Y-92693402D01*
X164099871Y-92887428D01*
X164105716Y-92909243D01*
X164108039Y-92914224D01*
X164108039Y-92914225D01*
X164200151Y-93111762D01*
X164200154Y-93111767D01*
X164202477Y-93116749D01*
X164205634Y-93121257D01*
X164324012Y-93290318D01*
X164333802Y-93304300D01*
X164495700Y-93466198D01*
X164500208Y-93469355D01*
X164500211Y-93469357D01*
X164566096Y-93515490D01*
X164683251Y-93597523D01*
X164688233Y-93599846D01*
X164688238Y-93599849D01*
X164786742Y-93645782D01*
X164840027Y-93692700D01*
X164859488Y-93760977D01*
X164838946Y-93828937D01*
X164822587Y-93849072D01*
X157584292Y-101087367D01*
X157521980Y-101121393D01*
X157505302Y-101123866D01*
X157500087Y-101124286D01*
X157478035Y-101126060D01*
X157473114Y-101127269D01*
X157468129Y-101128076D01*
X157468126Y-101128060D01*
X157462007Y-101129106D01*
X157462010Y-101129122D01*
X157457036Y-101130017D01*
X157451998Y-101130511D01*
X157348398Y-101157883D01*
X157346367Y-101158400D01*
X157242294Y-101183963D01*
X157237629Y-101185943D01*
X157232835Y-101187538D01*
X157232830Y-101187522D01*
X157226963Y-101189530D01*
X157226969Y-101189546D01*
X157222198Y-101191226D01*
X157217304Y-101192519D01*
X157133885Y-101229660D01*
X157119425Y-101236098D01*
X157117525Y-101236924D01*
X157018844Y-101278812D01*
X157014565Y-101281507D01*
X157010071Y-101283856D01*
X157010063Y-101283841D01*
X157004607Y-101286755D01*
X157004615Y-101286770D01*
X157000163Y-101289198D01*
X156995544Y-101291254D01*
X156905874Y-101349932D01*
X156904115Y-101351061D01*
X156817720Y-101405466D01*
X156817709Y-101405474D01*
X156813433Y-101408167D01*
X156809640Y-101411511D01*
X156805582Y-101414547D01*
X156805572Y-101414534D01*
X156800648Y-101418284D01*
X156800659Y-101418298D01*
X156796653Y-101421406D01*
X156792422Y-101424174D01*
X156788687Y-101427584D01*
X156788685Y-101427586D01*
X156713365Y-101496362D01*
X156711741Y-101497819D01*
X156631345Y-101568698D01*
X156628135Y-101572606D01*
X156624618Y-101576248D01*
X156624606Y-101576237D01*
X156620338Y-101580734D01*
X156620351Y-101580746D01*
X156616900Y-101584446D01*
X156613164Y-101587858D01*
X156591390Y-101615331D01*
X156546639Y-101671793D01*
X156545283Y-101673473D01*
X156477266Y-101756278D01*
X156474721Y-101760651D01*
X156471830Y-101764810D01*
X156471816Y-101764801D01*
X156468328Y-101769915D01*
X156468342Y-101769924D01*
X156465525Y-101774132D01*
X156462382Y-101778098D01*
X156459912Y-101782518D01*
X156410149Y-101871558D01*
X156409059Y-101873469D01*
X156355159Y-101966078D01*
X156353343Y-101970808D01*
X156351158Y-101975369D01*
X156351143Y-101975362D01*
X156348515Y-101980972D01*
X156348531Y-101980979D01*
X156346426Y-101985577D01*
X156343955Y-101989998D01*
X156342224Y-101994755D01*
X156307319Y-102090654D01*
X156306549Y-102092713D01*
X156269981Y-102187975D01*
X156269979Y-102187981D01*
X156268167Y-102192702D01*
X156267133Y-102197652D01*
X156265702Y-102202513D01*
X156265685Y-102202508D01*
X156263988Y-102208467D01*
X156264004Y-102208472D01*
X156262660Y-102213352D01*
X156260930Y-102218105D01*
X156259982Y-102223072D01*
X156259982Y-102223074D01*
X156240854Y-102323348D01*
X156240423Y-102325505D01*
X156218526Y-102430320D01*
X156218296Y-102435375D01*
X156217662Y-102440395D01*
X156217645Y-102440393D01*
X156216922Y-102446551D01*
X156216938Y-102446553D01*
X156216391Y-102451586D01*
X156215444Y-102456553D01*
X156215303Y-102461607D01*
X156212452Y-102563657D01*
X156212371Y-102565854D01*
X156207913Y-102664032D01*
X156207514Y-102672817D01*
X137468500Y-102672817D01*
X137468500Y-99985469D01*
X148687095Y-99985469D01*
X148687392Y-99990622D01*
X148687392Y-99990625D01*
X148693067Y-100089041D01*
X148700427Y-100216697D01*
X148701564Y-100221743D01*
X148701565Y-100221749D01*
X148724851Y-100325076D01*
X148751346Y-100442642D01*
X148753288Y-100447424D01*
X148753289Y-100447428D01*
X148812768Y-100593907D01*
X148838484Y-100657237D01*
X148959501Y-100854719D01*
X148962882Y-100858622D01*
X149071653Y-100984191D01*
X149101135Y-101048776D01*
X149091020Y-101119049D01*
X149044519Y-101172697D01*
X149020646Y-101184670D01*
X148961944Y-101206677D01*
X148946351Y-101215214D01*
X148844276Y-101291715D01*
X148831715Y-101304276D01*
X148755214Y-101406351D01*
X148746676Y-101421946D01*
X148701522Y-101542394D01*
X148697895Y-101557649D01*
X148692369Y-101608514D01*
X148692000Y-101615328D01*
X148692000Y-102287885D01*
X148696475Y-102303124D01*
X148697865Y-102304329D01*
X148705548Y-102306000D01*
X151489884Y-102306000D01*
X151505123Y-102301525D01*
X151506328Y-102300135D01*
X151507999Y-102292452D01*
X151507999Y-101615331D01*
X151507629Y-101608510D01*
X151502105Y-101557648D01*
X151498479Y-101542396D01*
X151453324Y-101421946D01*
X151444786Y-101406351D01*
X151368285Y-101304276D01*
X151355724Y-101291715D01*
X151253649Y-101215214D01*
X151238052Y-101206675D01*
X151179415Y-101184693D01*
X151122650Y-101142052D01*
X151097950Y-101075490D01*
X151113157Y-101006141D01*
X151134703Y-100977461D01*
X151172641Y-100939654D01*
X151176303Y-100936005D01*
X151311458Y-100747917D01*
X151332748Y-100704841D01*
X151411784Y-100544922D01*
X151411785Y-100544920D01*
X151414078Y-100540280D01*
X151481408Y-100318671D01*
X151511640Y-100089041D01*
X151513327Y-100020000D01*
X151504806Y-99916353D01*
X151494773Y-99794318D01*
X151494772Y-99794312D01*
X151494349Y-99789167D01*
X151465762Y-99675358D01*
X151439184Y-99569544D01*
X151439183Y-99569540D01*
X151437925Y-99564533D01*
X151435866Y-99559797D01*
X151347630Y-99356868D01*
X151347628Y-99356865D01*
X151345570Y-99352131D01*
X151219764Y-99157665D01*
X151207032Y-99143672D01*
X151170134Y-99103122D01*
X151063887Y-98986358D01*
X151059836Y-98983159D01*
X151059832Y-98983155D01*
X150886177Y-98846011D01*
X150886172Y-98846008D01*
X150882123Y-98842810D01*
X150877607Y-98840317D01*
X150877604Y-98840315D01*
X150683879Y-98733373D01*
X150683875Y-98733371D01*
X150679355Y-98730876D01*
X150674486Y-98729152D01*
X150674482Y-98729150D01*
X150465903Y-98655288D01*
X150465899Y-98655287D01*
X150461028Y-98653562D01*
X150455935Y-98652655D01*
X150455932Y-98652654D01*
X150238095Y-98613851D01*
X150238089Y-98613850D01*
X150233006Y-98612945D01*
X150160096Y-98612054D01*
X150006581Y-98610179D01*
X150006579Y-98610179D01*
X150001411Y-98610116D01*
X149772464Y-98645150D01*
X149552314Y-98717106D01*
X149547726Y-98719494D01*
X149547722Y-98719496D01*
X149521065Y-98733373D01*
X149346872Y-98824052D01*
X149342739Y-98827155D01*
X149342736Y-98827157D01*
X149317625Y-98846011D01*
X149161655Y-98963117D01*
X149001639Y-99130564D01*
X148998725Y-99134836D01*
X148998724Y-99134837D01*
X148972396Y-99173433D01*
X148871119Y-99321899D01*
X148773602Y-99531981D01*
X148711707Y-99755169D01*
X148687095Y-99985469D01*
X137468500Y-99985469D01*
X137468500Y-95944669D01*
X148692001Y-95944669D01*
X148692371Y-95951490D01*
X148697895Y-96002352D01*
X148701521Y-96017604D01*
X148746676Y-96138054D01*
X148755214Y-96153649D01*
X148831715Y-96255724D01*
X148844276Y-96268285D01*
X148946351Y-96344786D01*
X148961946Y-96353324D01*
X149082394Y-96398478D01*
X149097649Y-96402105D01*
X149148514Y-96407631D01*
X149155328Y-96408000D01*
X149827885Y-96408000D01*
X149843124Y-96403525D01*
X149844329Y-96402135D01*
X149846000Y-96394452D01*
X149846000Y-96389884D01*
X150354000Y-96389884D01*
X150358475Y-96405123D01*
X150359865Y-96406328D01*
X150367548Y-96407999D01*
X151044669Y-96407999D01*
X151051490Y-96407629D01*
X151102352Y-96402105D01*
X151117604Y-96398479D01*
X151238054Y-96353324D01*
X151253649Y-96344786D01*
X151355724Y-96268285D01*
X151368285Y-96255724D01*
X151444786Y-96153649D01*
X151453324Y-96138054D01*
X151498478Y-96017606D01*
X151502105Y-96002351D01*
X151507631Y-95951486D01*
X151508000Y-95944672D01*
X151508000Y-95272115D01*
X151503525Y-95256876D01*
X151502135Y-95255671D01*
X151494452Y-95254000D01*
X150372115Y-95254000D01*
X150356876Y-95258475D01*
X150355671Y-95259865D01*
X150354000Y-95267548D01*
X150354000Y-96389884D01*
X149846000Y-96389884D01*
X149846000Y-95272115D01*
X149841525Y-95256876D01*
X149840135Y-95255671D01*
X149832452Y-95254000D01*
X148710116Y-95254000D01*
X148694877Y-95258475D01*
X148693672Y-95259865D01*
X148692001Y-95267548D01*
X148692001Y-95944669D01*
X137468500Y-95944669D01*
X137468500Y-92425469D01*
X148687095Y-92425469D01*
X148687392Y-92430622D01*
X148687392Y-92430625D01*
X148693067Y-92529041D01*
X148700427Y-92656697D01*
X148701564Y-92661743D01*
X148701565Y-92661749D01*
X148733741Y-92804523D01*
X148751346Y-92882642D01*
X148753288Y-92887424D01*
X148753289Y-92887428D01*
X148804266Y-93012969D01*
X148838484Y-93097237D01*
X148959501Y-93294719D01*
X148962882Y-93298622D01*
X149071653Y-93424191D01*
X149101135Y-93488776D01*
X149091020Y-93559049D01*
X149044519Y-93612697D01*
X149020646Y-93624670D01*
X148961944Y-93646677D01*
X148946351Y-93655214D01*
X148844276Y-93731715D01*
X148831715Y-93744276D01*
X148755214Y-93846351D01*
X148746676Y-93861946D01*
X148701522Y-93982394D01*
X148697895Y-93997649D01*
X148692369Y-94048514D01*
X148692000Y-94055328D01*
X148692000Y-94727885D01*
X148696475Y-94743124D01*
X148697865Y-94744329D01*
X148705548Y-94746000D01*
X151489884Y-94746000D01*
X151505123Y-94741525D01*
X151506328Y-94740135D01*
X151507999Y-94732452D01*
X151507999Y-94055331D01*
X151507629Y-94048510D01*
X151502105Y-93997648D01*
X151498479Y-93982396D01*
X151453324Y-93861946D01*
X151444786Y-93846351D01*
X151368285Y-93744276D01*
X151355724Y-93731715D01*
X151253649Y-93655214D01*
X151238052Y-93646675D01*
X151179415Y-93624693D01*
X151122650Y-93582052D01*
X151097950Y-93515490D01*
X151113157Y-93446141D01*
X151134703Y-93417461D01*
X151172641Y-93379654D01*
X151176303Y-93376005D01*
X151311458Y-93187917D01*
X151358641Y-93092450D01*
X151411784Y-92984922D01*
X151411785Y-92984920D01*
X151414078Y-92980280D01*
X151481408Y-92758671D01*
X151511640Y-92529041D01*
X151513327Y-92460000D01*
X156406502Y-92460000D01*
X156426457Y-92688087D01*
X156427881Y-92693400D01*
X156427881Y-92693402D01*
X156479871Y-92887428D01*
X156485716Y-92909243D01*
X156488039Y-92914224D01*
X156488039Y-92914225D01*
X156580151Y-93111762D01*
X156580154Y-93111767D01*
X156582477Y-93116749D01*
X156585634Y-93121257D01*
X156704012Y-93290318D01*
X156713802Y-93304300D01*
X156875700Y-93466198D01*
X156880208Y-93469355D01*
X156880211Y-93469357D01*
X156946096Y-93515490D01*
X157063251Y-93597523D01*
X157068233Y-93599846D01*
X157068238Y-93599849D01*
X157227238Y-93673991D01*
X157270757Y-93694284D01*
X157276065Y-93695706D01*
X157276067Y-93695707D01*
X157486598Y-93752119D01*
X157486600Y-93752119D01*
X157491913Y-93753543D01*
X157720000Y-93773498D01*
X157948087Y-93753543D01*
X157953400Y-93752119D01*
X157953402Y-93752119D01*
X158163933Y-93695707D01*
X158163935Y-93695706D01*
X158169243Y-93694284D01*
X158212762Y-93673991D01*
X158371762Y-93599849D01*
X158371767Y-93599846D01*
X158376749Y-93597523D01*
X158493904Y-93515490D01*
X158559789Y-93469357D01*
X158559792Y-93469355D01*
X158564300Y-93466198D01*
X158726198Y-93304300D01*
X158735989Y-93290318D01*
X158854366Y-93121257D01*
X158857523Y-93116749D01*
X158859846Y-93111767D01*
X158859849Y-93111762D01*
X158951961Y-92914225D01*
X158951961Y-92914224D01*
X158954284Y-92909243D01*
X158960130Y-92887428D01*
X159012119Y-92693402D01*
X159012119Y-92693400D01*
X159013543Y-92688087D01*
X159033498Y-92460000D01*
X159013543Y-92231913D01*
X159005073Y-92200301D01*
X158955707Y-92016067D01*
X158955706Y-92016065D01*
X158954284Y-92010757D01*
X158938522Y-91976954D01*
X158859849Y-91808238D01*
X158859846Y-91808233D01*
X158857523Y-91803251D01*
X158726198Y-91615700D01*
X158564300Y-91453802D01*
X158559792Y-91450645D01*
X158559789Y-91450643D01*
X158481611Y-91395902D01*
X158376749Y-91322477D01*
X158371767Y-91320154D01*
X158371762Y-91320151D01*
X158174225Y-91228039D01*
X158174224Y-91228039D01*
X158169243Y-91225716D01*
X158163935Y-91224294D01*
X158163933Y-91224293D01*
X157953402Y-91167881D01*
X157953400Y-91167881D01*
X157948087Y-91166457D01*
X157720000Y-91146502D01*
X157491913Y-91166457D01*
X157486600Y-91167881D01*
X157486598Y-91167881D01*
X157276067Y-91224293D01*
X157276065Y-91224294D01*
X157270757Y-91225716D01*
X157265776Y-91228039D01*
X157265775Y-91228039D01*
X157068238Y-91320151D01*
X157068233Y-91320154D01*
X157063251Y-91322477D01*
X156958389Y-91395902D01*
X156880211Y-91450643D01*
X156880208Y-91450645D01*
X156875700Y-91453802D01*
X156713802Y-91615700D01*
X156582477Y-91803251D01*
X156580154Y-91808233D01*
X156580151Y-91808238D01*
X156501478Y-91976954D01*
X156485716Y-92010757D01*
X156484294Y-92016065D01*
X156484293Y-92016067D01*
X156434927Y-92200301D01*
X156426457Y-92231913D01*
X156406502Y-92460000D01*
X151513327Y-92460000D01*
X151507032Y-92383434D01*
X151494773Y-92234318D01*
X151494772Y-92234312D01*
X151494349Y-92229167D01*
X151440822Y-92016067D01*
X151439184Y-92009544D01*
X151439183Y-92009540D01*
X151437925Y-92004533D01*
X151435866Y-91999797D01*
X151347630Y-91796868D01*
X151347628Y-91796865D01*
X151345570Y-91792131D01*
X151219764Y-91597665D01*
X151063887Y-91426358D01*
X151059836Y-91423159D01*
X151059832Y-91423155D01*
X150886177Y-91286011D01*
X150886172Y-91286008D01*
X150882123Y-91282810D01*
X150877607Y-91280317D01*
X150877604Y-91280315D01*
X150683879Y-91173373D01*
X150683875Y-91173371D01*
X150679355Y-91170876D01*
X150674486Y-91169152D01*
X150674482Y-91169150D01*
X150465903Y-91095288D01*
X150465899Y-91095287D01*
X150461028Y-91093562D01*
X150455935Y-91092655D01*
X150455932Y-91092654D01*
X150238095Y-91053851D01*
X150238089Y-91053850D01*
X150233006Y-91052945D01*
X150160096Y-91052054D01*
X150006581Y-91050179D01*
X150006579Y-91050179D01*
X150001411Y-91050116D01*
X149772464Y-91085150D01*
X149552314Y-91157106D01*
X149547726Y-91159494D01*
X149547722Y-91159496D01*
X149361911Y-91256223D01*
X149346872Y-91264052D01*
X149342739Y-91267155D01*
X149342736Y-91267157D01*
X149165790Y-91400012D01*
X149161655Y-91403117D01*
X149001639Y-91570564D01*
X148998725Y-91574836D01*
X148998724Y-91574837D01*
X148983152Y-91597665D01*
X148871119Y-91761899D01*
X148773602Y-91971981D01*
X148711707Y-92195169D01*
X148687095Y-92425469D01*
X137468500Y-92425469D01*
X137468500Y-76223250D01*
X137470246Y-76202345D01*
X137472770Y-76187344D01*
X137472770Y-76187341D01*
X137473576Y-76182552D01*
X137473729Y-76170000D01*
X138346526Y-76170000D01*
X138366391Y-76422403D01*
X138367545Y-76427210D01*
X138367546Y-76427216D01*
X138405179Y-76583968D01*
X138425495Y-76668591D01*
X138427388Y-76673162D01*
X138427389Y-76673164D01*
X138455631Y-76741345D01*
X138522384Y-76902502D01*
X138654672Y-77118376D01*
X138819102Y-77310898D01*
X139011624Y-77475328D01*
X139227498Y-77607616D01*
X139232068Y-77609509D01*
X139232072Y-77609511D01*
X139456836Y-77702611D01*
X139461409Y-77704505D01*
X139546032Y-77724821D01*
X139702784Y-77762454D01*
X139702790Y-77762455D01*
X139707597Y-77763609D01*
X139960000Y-77783474D01*
X140212403Y-77763609D01*
X140217210Y-77762455D01*
X140217216Y-77762454D01*
X140373968Y-77724821D01*
X140458591Y-77704505D01*
X140463164Y-77702611D01*
X140687928Y-77609511D01*
X140687932Y-77609509D01*
X140692502Y-77607616D01*
X140908376Y-77475328D01*
X141100898Y-77310898D01*
X141265328Y-77118376D01*
X141397616Y-76902502D01*
X141464370Y-76741345D01*
X141492611Y-76673164D01*
X141492612Y-76673162D01*
X141494505Y-76668591D01*
X141514821Y-76583968D01*
X141552454Y-76427216D01*
X141552455Y-76427210D01*
X141553609Y-76422403D01*
X141573474Y-76170000D01*
X204346526Y-76170000D01*
X204366391Y-76422403D01*
X204367545Y-76427210D01*
X204367546Y-76427216D01*
X204405179Y-76583968D01*
X204425495Y-76668591D01*
X204427388Y-76673162D01*
X204427389Y-76673164D01*
X204455631Y-76741345D01*
X204522384Y-76902502D01*
X204654672Y-77118376D01*
X204819102Y-77310898D01*
X205011624Y-77475328D01*
X205227498Y-77607616D01*
X205232068Y-77609509D01*
X205232072Y-77609511D01*
X205456836Y-77702611D01*
X205461409Y-77704505D01*
X205546032Y-77724821D01*
X205702784Y-77762454D01*
X205702790Y-77762455D01*
X205707597Y-77763609D01*
X205960000Y-77783474D01*
X206212403Y-77763609D01*
X206217210Y-77762455D01*
X206217216Y-77762454D01*
X206373968Y-77724821D01*
X206458591Y-77704505D01*
X206463164Y-77702611D01*
X206687928Y-77609511D01*
X206687932Y-77609509D01*
X206692502Y-77607616D01*
X206908376Y-77475328D01*
X207100898Y-77310898D01*
X207265328Y-77118376D01*
X207397616Y-76902502D01*
X207464370Y-76741345D01*
X207492611Y-76673164D01*
X207492612Y-76673162D01*
X207494505Y-76668591D01*
X207514821Y-76583968D01*
X207552454Y-76427216D01*
X207552455Y-76427210D01*
X207553609Y-76422403D01*
X207573474Y-76170000D01*
X207553609Y-75917597D01*
X207543933Y-75877290D01*
X207495660Y-75676221D01*
X207494505Y-75671409D01*
X207488846Y-75657746D01*
X207399511Y-75442072D01*
X207399509Y-75442068D01*
X207397616Y-75437498D01*
X207265328Y-75221624D01*
X207100898Y-75029102D01*
X206908376Y-74864672D01*
X206692502Y-74732384D01*
X206687932Y-74730491D01*
X206687928Y-74730489D01*
X206463164Y-74637389D01*
X206463162Y-74637388D01*
X206458591Y-74635495D01*
X206373968Y-74615179D01*
X206217216Y-74577546D01*
X206217210Y-74577545D01*
X206212403Y-74576391D01*
X205960000Y-74556526D01*
X205707597Y-74576391D01*
X205702790Y-74577545D01*
X205702784Y-74577546D01*
X205546032Y-74615179D01*
X205461409Y-74635495D01*
X205456838Y-74637388D01*
X205456836Y-74637389D01*
X205232072Y-74730489D01*
X205232068Y-74730491D01*
X205227498Y-74732384D01*
X205011624Y-74864672D01*
X204819102Y-75029102D01*
X204654672Y-75221624D01*
X204522384Y-75437498D01*
X204520491Y-75442068D01*
X204520489Y-75442072D01*
X204431154Y-75657746D01*
X204425495Y-75671409D01*
X204424340Y-75676221D01*
X204376068Y-75877290D01*
X204366391Y-75917597D01*
X204346526Y-76170000D01*
X141573474Y-76170000D01*
X141553609Y-75917597D01*
X141543933Y-75877290D01*
X141495660Y-75676221D01*
X141494505Y-75671409D01*
X141488846Y-75657746D01*
X141399511Y-75442072D01*
X141399509Y-75442068D01*
X141397616Y-75437498D01*
X141265328Y-75221624D01*
X141100898Y-75029102D01*
X140908376Y-74864672D01*
X140692502Y-74732384D01*
X140687932Y-74730491D01*
X140687928Y-74730489D01*
X140463164Y-74637389D01*
X140463162Y-74637388D01*
X140458591Y-74635495D01*
X140373968Y-74615179D01*
X140217216Y-74577546D01*
X140217210Y-74577545D01*
X140212403Y-74576391D01*
X139960000Y-74556526D01*
X139707597Y-74576391D01*
X139702790Y-74577545D01*
X139702784Y-74577546D01*
X139546032Y-74615179D01*
X139461409Y-74635495D01*
X139456838Y-74637388D01*
X139456836Y-74637389D01*
X139232072Y-74730489D01*
X139232068Y-74730491D01*
X139227498Y-74732384D01*
X139011624Y-74864672D01*
X138819102Y-75029102D01*
X138654672Y-75221624D01*
X138522384Y-75437498D01*
X138520491Y-75442068D01*
X138520489Y-75442072D01*
X138431154Y-75657746D01*
X138425495Y-75671409D01*
X138424340Y-75676221D01*
X138376068Y-75877290D01*
X138366391Y-75917597D01*
X138346526Y-76170000D01*
X137473729Y-76170000D01*
X137473040Y-76165186D01*
X137473039Y-76165177D01*
X137471869Y-76157006D01*
X137470827Y-76131540D01*
X137486206Y-75877290D01*
X137488040Y-75862186D01*
X137522119Y-75676221D01*
X137539525Y-75581240D01*
X137543164Y-75566473D01*
X137581929Y-75442072D01*
X137628142Y-75293769D01*
X137633534Y-75279555D01*
X137750758Y-75019092D01*
X137757828Y-75005621D01*
X137905595Y-74761187D01*
X137914238Y-74748666D01*
X138090385Y-74523829D01*
X138100475Y-74512440D01*
X138302440Y-74310475D01*
X138313829Y-74300385D01*
X138538666Y-74124238D01*
X138551187Y-74115595D01*
X138795621Y-73967828D01*
X138809094Y-73960757D01*
X138851777Y-73941547D01*
X139069555Y-73843534D01*
X139083769Y-73838142D01*
X139356474Y-73753164D01*
X139371240Y-73749525D01*
X139580214Y-73711229D01*
X139652186Y-73698040D01*
X139667290Y-73696206D01*
X139917904Y-73681047D01*
X139944716Y-73682308D01*
X139944852Y-73682310D01*
X139953724Y-73683691D01*
X139962626Y-73682527D01*
X139962628Y-73682527D01*
X139977677Y-73680559D01*
X139985286Y-73679564D01*
X140001621Y-73678500D01*
X205910633Y-73678500D01*
X205930018Y-73680000D01*
G37*
%TD.AperFunction*%
%TA.AperFunction,Conductor*%
G36*
X171564722Y-99448502D02*
G01*
X171611215Y-99502158D01*
X171621319Y-99572432D01*
X171618019Y-99588172D01*
X171571707Y-99755169D01*
X171547095Y-99985469D01*
X171547392Y-99990622D01*
X171547392Y-99990625D01*
X171553067Y-100089041D01*
X171560427Y-100216697D01*
X171561564Y-100221743D01*
X171561565Y-100221749D01*
X171584851Y-100325076D01*
X171611346Y-100442642D01*
X171613288Y-100447424D01*
X171613289Y-100447428D01*
X171672768Y-100593907D01*
X171698484Y-100657237D01*
X171819501Y-100854719D01*
X171822882Y-100858622D01*
X171931653Y-100984191D01*
X171961135Y-101048776D01*
X171951020Y-101119049D01*
X171904519Y-101172697D01*
X171880646Y-101184670D01*
X171821944Y-101206677D01*
X171806351Y-101215214D01*
X171704276Y-101291715D01*
X171691715Y-101304276D01*
X171615214Y-101406351D01*
X171606676Y-101421946D01*
X171561522Y-101542394D01*
X171557895Y-101557649D01*
X171552369Y-101608514D01*
X171552000Y-101615328D01*
X171552000Y-102287885D01*
X171556475Y-102303124D01*
X171557865Y-102304329D01*
X171565548Y-102306000D01*
X174349884Y-102306000D01*
X174365123Y-102301525D01*
X174366328Y-102300135D01*
X174367999Y-102292452D01*
X174367999Y-101615331D01*
X174367629Y-101608510D01*
X174362105Y-101557648D01*
X174358479Y-101542396D01*
X174313324Y-101421946D01*
X174304786Y-101406351D01*
X174228285Y-101304276D01*
X174215724Y-101291715D01*
X174113649Y-101215214D01*
X174098052Y-101206675D01*
X174039415Y-101184693D01*
X173982650Y-101142052D01*
X173957950Y-101075490D01*
X173973157Y-101006141D01*
X173994703Y-100977461D01*
X174032641Y-100939654D01*
X174036303Y-100936005D01*
X174060028Y-100902988D01*
X174168446Y-100752109D01*
X174168447Y-100752107D01*
X174171458Y-100747917D01*
X174173751Y-100743278D01*
X174247574Y-100593907D01*
X174295688Y-100541699D01*
X174327472Y-100528148D01*
X174531882Y-100472567D01*
X178355395Y-99432915D01*
X178388455Y-99428500D01*
X179012969Y-99428500D01*
X179081090Y-99448502D01*
X179102064Y-99465405D01*
X180733192Y-101096533D01*
X180767218Y-101158845D01*
X180762153Y-101229660D01*
X180719606Y-101286496D01*
X180653086Y-101311307D01*
X180633116Y-101311149D01*
X180580000Y-101306502D01*
X180351913Y-101326457D01*
X180346600Y-101327881D01*
X180346598Y-101327881D01*
X180136067Y-101384293D01*
X180136065Y-101384294D01*
X180130757Y-101385716D01*
X180125776Y-101388039D01*
X180125775Y-101388039D01*
X179928238Y-101480151D01*
X179928233Y-101480154D01*
X179923251Y-101482477D01*
X179902359Y-101497106D01*
X179740211Y-101610643D01*
X179740208Y-101610645D01*
X179735700Y-101613802D01*
X179573802Y-101775700D01*
X179442477Y-101963251D01*
X179440154Y-101968233D01*
X179440151Y-101968238D01*
X179383068Y-102090654D01*
X179345716Y-102170757D01*
X179344294Y-102176065D01*
X179344293Y-102176067D01*
X179310248Y-102303124D01*
X179286457Y-102391913D01*
X179266502Y-102620000D01*
X179286457Y-102848087D01*
X179325257Y-102992888D01*
X179323567Y-103063865D01*
X179283773Y-103122661D01*
X179218509Y-103150609D01*
X179203550Y-103151500D01*
X174494000Y-103151500D01*
X174425879Y-103131498D01*
X174379386Y-103077842D01*
X174368000Y-103025500D01*
X174368000Y-102832115D01*
X174363525Y-102816876D01*
X174362135Y-102815671D01*
X174354452Y-102814000D01*
X171570116Y-102814000D01*
X171554877Y-102818475D01*
X171553672Y-102819865D01*
X171552001Y-102827548D01*
X171552001Y-103025500D01*
X171531999Y-103093621D01*
X171478343Y-103140114D01*
X171426001Y-103151500D01*
X168057031Y-103151500D01*
X167988910Y-103131498D01*
X167967936Y-103114595D01*
X167562436Y-102709095D01*
X167528410Y-102646783D01*
X167533475Y-102575968D01*
X167562436Y-102530905D01*
X170627936Y-99465405D01*
X170690248Y-99431379D01*
X170717031Y-99428500D01*
X171496601Y-99428500D01*
X171564722Y-99448502D01*
G37*
%TD.AperFunction*%
%TA.AperFunction,Conductor*%
G36*
X173869532Y-89172976D02*
G01*
X173926368Y-89215523D01*
X173951179Y-89282043D01*
X173951500Y-89291032D01*
X173951500Y-91188102D01*
X173931498Y-91256223D01*
X173877842Y-91302716D01*
X173807568Y-91312820D01*
X173750779Y-91288431D01*
X173750485Y-91288874D01*
X173748061Y-91287263D01*
X173747406Y-91286982D01*
X173746179Y-91286013D01*
X173746176Y-91286011D01*
X173742123Y-91282810D01*
X173737607Y-91280317D01*
X173737604Y-91280315D01*
X173543879Y-91173373D01*
X173543875Y-91173371D01*
X173539355Y-91170876D01*
X173534486Y-91169152D01*
X173534482Y-91169150D01*
X173325903Y-91095288D01*
X173325899Y-91095287D01*
X173321028Y-91093562D01*
X173315935Y-91092655D01*
X173315932Y-91092654D01*
X173098095Y-91053851D01*
X173098089Y-91053850D01*
X173093006Y-91052945D01*
X173020096Y-91052054D01*
X172866581Y-91050179D01*
X172866579Y-91050179D01*
X172861411Y-91050116D01*
X172632464Y-91085150D01*
X172412314Y-91157106D01*
X172407726Y-91159494D01*
X172407722Y-91159496D01*
X172221911Y-91256223D01*
X172206872Y-91264052D01*
X172202739Y-91267155D01*
X172202736Y-91267157D01*
X172025790Y-91400012D01*
X172021655Y-91403117D01*
X171861639Y-91570564D01*
X171858725Y-91574836D01*
X171858724Y-91574837D01*
X171843152Y-91597665D01*
X171731119Y-91761899D01*
X171633602Y-91971981D01*
X171571707Y-92195169D01*
X171547095Y-92425469D01*
X171547392Y-92430622D01*
X171547392Y-92430625D01*
X171553067Y-92529041D01*
X171560427Y-92656697D01*
X171561564Y-92661743D01*
X171561565Y-92661749D01*
X171593741Y-92804523D01*
X171611346Y-92882642D01*
X171613288Y-92887424D01*
X171613289Y-92887428D01*
X171664266Y-93012969D01*
X171698484Y-93097237D01*
X171819501Y-93294719D01*
X171822882Y-93298622D01*
X171931653Y-93424191D01*
X171961135Y-93488776D01*
X171951020Y-93559049D01*
X171904519Y-93612697D01*
X171880646Y-93624670D01*
X171821944Y-93646677D01*
X171806351Y-93655214D01*
X171704276Y-93731715D01*
X171691715Y-93744276D01*
X171615214Y-93846351D01*
X171606676Y-93861946D01*
X171561522Y-93982394D01*
X171557895Y-93997649D01*
X171552369Y-94048514D01*
X171552000Y-94055328D01*
X171552000Y-94727885D01*
X171556475Y-94743124D01*
X171557865Y-94744329D01*
X171565548Y-94746000D01*
X173088000Y-94746000D01*
X173156121Y-94766002D01*
X173202614Y-94819658D01*
X173214000Y-94872000D01*
X173214000Y-95128000D01*
X173193998Y-95196121D01*
X173140342Y-95242614D01*
X173088000Y-95254000D01*
X171570116Y-95254000D01*
X171554877Y-95258475D01*
X171553672Y-95259865D01*
X171552001Y-95267548D01*
X171552001Y-95944669D01*
X171552371Y-95951490D01*
X171557895Y-96002352D01*
X171561521Y-96017604D01*
X171606676Y-96138054D01*
X171615214Y-96153649D01*
X171657398Y-96209935D01*
X171682246Y-96276442D01*
X171667193Y-96345824D01*
X171617018Y-96396054D01*
X171556572Y-96411500D01*
X170064016Y-96411500D01*
X170060498Y-96411451D01*
X169965850Y-96408807D01*
X169965847Y-96408807D01*
X169960795Y-96408666D01*
X169882902Y-96419059D01*
X169876361Y-96419758D01*
X169847668Y-96422067D01*
X169803077Y-96425654D01*
X169803073Y-96425655D01*
X169798035Y-96426060D01*
X169766122Y-96433899D01*
X169752742Y-96436426D01*
X169720180Y-96440771D01*
X169715339Y-96442232D01*
X169715337Y-96442233D01*
X169644971Y-96463478D01*
X169638610Y-96465219D01*
X169562294Y-96483963D01*
X169557634Y-96485941D01*
X169532049Y-96496801D01*
X169519239Y-96501438D01*
X169487792Y-96510933D01*
X169483244Y-96513151D01*
X169483237Y-96513154D01*
X169417182Y-96545371D01*
X169411180Y-96548107D01*
X169366496Y-96567075D01*
X169338844Y-96578812D01*
X169314532Y-96594123D01*
X169311044Y-96596319D01*
X169299140Y-96602945D01*
X169269612Y-96617346D01*
X169265475Y-96620265D01*
X169265474Y-96620265D01*
X169205403Y-96662641D01*
X169199914Y-96666301D01*
X169137714Y-96705471D01*
X169133433Y-96708167D01*
X169129644Y-96711508D01*
X169129638Y-96711512D01*
X169108783Y-96729898D01*
X169098088Y-96738344D01*
X169071253Y-96757274D01*
X169049750Y-96776909D01*
X169010034Y-96816625D01*
X169004264Y-96822044D01*
X168955142Y-96865350D01*
X168955139Y-96865353D01*
X168951345Y-96868698D01*
X168948135Y-96872606D01*
X168948134Y-96872607D01*
X168924821Y-96900989D01*
X168916551Y-96910108D01*
X164752064Y-101074595D01*
X164689752Y-101108621D01*
X164662969Y-101111500D01*
X163434016Y-101111500D01*
X163430498Y-101111451D01*
X163335850Y-101108807D01*
X163335847Y-101108807D01*
X163330795Y-101108666D01*
X163317850Y-101110393D01*
X163301188Y-101111500D01*
X162131031Y-101111500D01*
X162062910Y-101091498D01*
X162016417Y-101037842D01*
X162006313Y-100967568D01*
X162035807Y-100902988D01*
X162041936Y-100896405D01*
X173736405Y-89201937D01*
X173798717Y-89167911D01*
X173869532Y-89172976D01*
G37*
%TD.AperFunction*%
%TD*%
M02*
