%TF.GenerationSoftware,KiCad,Pcbnew,(6.0.11)*%
%TF.CreationDate,2023-04-21T23:53:04+09:00*%
%TF.ProjectId,line_board,6c696e65-5f62-46f6-9172-642e6b696361,rev?*%
%TF.SameCoordinates,Original*%
%TF.FileFunction,Copper,L2,Bot*%
%TF.FilePolarity,Positive*%
%FSLAX46Y46*%
G04 Gerber Fmt 4.6, Leading zero omitted, Abs format (unit mm)*
G04 Created by KiCad (PCBNEW (6.0.11)) date 2023-04-21 23:53:04*
%MOMM*%
%LPD*%
G01*
G04 APERTURE LIST*
G04 Aperture macros list*
%AMRoundRect*
0 Rectangle with rounded corners*
0 $1 Rounding radius*
0 $2 $3 $4 $5 $6 $7 $8 $9 X,Y pos of 4 corners*
0 Add a 4 corners polygon primitive as box body*
4,1,4,$2,$3,$4,$5,$6,$7,$8,$9,$2,$3,0*
0 Add four circle primitives for the rounded corners*
1,1,$1+$1,$2,$3*
1,1,$1+$1,$4,$5*
1,1,$1+$1,$6,$7*
1,1,$1+$1,$8,$9*
0 Add four rect primitives between the rounded corners*
20,1,$1+$1,$2,$3,$4,$5,0*
20,1,$1+$1,$4,$5,$6,$7,0*
20,1,$1+$1,$6,$7,$8,$9,0*
20,1,$1+$1,$8,$9,$2,$3,0*%
G04 Aperture macros list end*
%TA.AperFunction,ComponentPad*%
%ADD10RoundRect,0.250000X0.600000X0.725000X-0.600000X0.725000X-0.600000X-0.725000X0.600000X-0.725000X0*%
%TD*%
%TA.AperFunction,ComponentPad*%
%ADD11O,1.700000X1.950000*%
%TD*%
%TA.AperFunction,ComponentPad*%
%ADD12R,1.800000X1.800000*%
%TD*%
%TA.AperFunction,ComponentPad*%
%ADD13C,1.800000*%
%TD*%
%TA.AperFunction,ComponentPad*%
%ADD14C,1.600000*%
%TD*%
%TA.AperFunction,ComponentPad*%
%ADD15O,1.600000X1.600000*%
%TD*%
%TA.AperFunction,ViaPad*%
%ADD16C,0.800000*%
%TD*%
%TA.AperFunction,Conductor*%
%ADD17C,0.250000*%
%TD*%
%TA.AperFunction,Conductor*%
%ADD18C,0.500000*%
%TD*%
G04 APERTURE END LIST*
D10*
%TO.P,J1,1,Pin_1*%
%TO.N,GND*%
X177960000Y-82620000D03*
D11*
%TO.P,J1,2,Pin_2*%
%TO.N,+3.3V*%
X175460000Y-82620000D03*
%TO.P,J1,3,Pin_3*%
%TO.N,sensor_output_0*%
X172960000Y-82620000D03*
%TO.P,J1,4,Pin_4*%
%TO.N,sensor_output_1*%
X170460000Y-82620000D03*
%TO.P,J1,5,Pin_5*%
%TO.N,sensor_output_2*%
X167960000Y-82620000D03*
%TD*%
D12*
%TO.P,D3,1,K*%
%TO.N,GND*%
X150100000Y-102560000D03*
D13*
%TO.P,D3,2,A*%
%TO.N,Net-(D3-Pad2)*%
X150100000Y-100020000D03*
%TD*%
D14*
%TO.P,R3,1*%
%TO.N,+3.3V*%
X157720000Y-102620000D03*
D15*
%TO.P,R3,2*%
%TO.N,sensor_output_2*%
X157720000Y-92460000D03*
%TD*%
D12*
%TO.P,D1,1,K*%
%TO.N,GND*%
X195820000Y-102560000D03*
D13*
%TO.P,D1,2,A*%
%TO.N,Net-(D1-Pad2)*%
X195820000Y-100020000D03*
%TD*%
%TO.P,Q3,2,C*%
%TO.N,sensor_output_2*%
X150100000Y-92460000D03*
D12*
%TO.P,Q3,1,E*%
%TO.N,GND*%
X150100000Y-95000000D03*
%TD*%
D15*
%TO.P,R6,2*%
%TO.N,Net-(D3-Pad2)*%
X152640000Y-107700000D03*
D14*
%TO.P,R6,1*%
%TO.N,+3.3V*%
X162800000Y-107700000D03*
%TD*%
%TO.P,R4,1*%
%TO.N,+3.3V*%
X183120000Y-107700000D03*
D15*
%TO.P,R4,2*%
%TO.N,Net-(D1-Pad2)*%
X193280000Y-107700000D03*
%TD*%
D12*
%TO.P,D2,1,K*%
%TO.N,GND*%
X172960000Y-102560000D03*
D13*
%TO.P,D2,2,A*%
%TO.N,Net-(D2-Pad2)*%
X172960000Y-100020000D03*
%TD*%
D14*
%TO.P,R1,1*%
%TO.N,+3.3V*%
X188200000Y-102620000D03*
D15*
%TO.P,R1,2*%
%TO.N,sensor_output_0*%
X188200000Y-92460000D03*
%TD*%
D14*
%TO.P,R2,1*%
%TO.N,+3.3V*%
X165340000Y-102620000D03*
D15*
%TO.P,R2,2*%
%TO.N,sensor_output_1*%
X165340000Y-92460000D03*
%TD*%
D12*
%TO.P,Q1,1,E*%
%TO.N,GND*%
X195820000Y-95000000D03*
D13*
%TO.P,Q1,2,C*%
%TO.N,sensor_output_0*%
X195820000Y-92460000D03*
%TD*%
D14*
%TO.P,R5,1*%
%TO.N,+3.3V*%
X180580000Y-92460000D03*
D15*
%TO.P,R5,2*%
%TO.N,Net-(D2-Pad2)*%
X180580000Y-102620000D03*
%TD*%
D13*
%TO.P,Q2,2,C*%
%TO.N,sensor_output_1*%
X172960000Y-92460000D03*
D12*
%TO.P,Q2,1,E*%
%TO.N,GND*%
X172960000Y-95000000D03*
%TD*%
D16*
%TO.N,GND*%
X194630000Y-109230000D03*
X151050000Y-109080000D03*
X174140000Y-80690000D03*
X171740000Y-81010000D03*
X169260000Y-80980000D03*
X166000000Y-82620000D03*
X193920000Y-100180000D03*
X193760000Y-93900000D03*
X193370000Y-97860000D03*
X199180000Y-98010000D03*
X156060000Y-91040000D03*
X151580000Y-91210000D03*
X158060000Y-90650000D03*
X161930000Y-86640000D03*
X157580000Y-88820000D03*
X152490000Y-88910000D03*
X146920000Y-89170000D03*
X147450000Y-93490000D03*
X142690000Y-89230000D03*
X142800000Y-93580000D03*
X138080000Y-93380000D03*
X138190000Y-89200000D03*
X138230000Y-84200000D03*
X142360000Y-84160000D03*
X146760000Y-83900000D03*
X152760000Y-83980000D03*
X157410000Y-83900000D03*
X162370000Y-83590000D03*
X146710000Y-78890000D03*
X152590000Y-79070000D03*
X157330000Y-79240000D03*
X162420000Y-79150000D03*
X167770000Y-78800000D03*
X147020000Y-74190000D03*
X152630000Y-74150000D03*
X157630000Y-74240000D03*
X162510000Y-74240000D03*
X167640000Y-74240000D03*
X177950000Y-79200000D03*
X172770000Y-79150000D03*
X172900000Y-74240000D03*
X177730000Y-74410000D03*
X182250000Y-74100000D03*
X182250000Y-78800000D03*
X187650000Y-74400000D03*
X187560000Y-78490000D03*
X192910000Y-78190000D03*
X193000000Y-74100000D03*
X182080000Y-83580000D03*
X187470000Y-83410000D03*
X192610000Y-83450000D03*
X178420000Y-84930000D03*
X181990000Y-88760000D03*
X187340000Y-88760000D03*
X192610000Y-88720000D03*
X198520000Y-74100000D03*
X198570000Y-78320000D03*
X198660000Y-83240000D03*
X199050000Y-88630000D03*
X199050000Y-93370000D03*
X199350000Y-102730000D03*
X203530000Y-83020000D03*
X203310000Y-88280000D03*
X203530000Y-93330000D03*
X203750000Y-98030000D03*
X203750000Y-102600000D03*
X207850000Y-82770000D03*
X207980000Y-88470000D03*
X208020000Y-93300000D03*
X208020000Y-98040000D03*
X207980000Y-102570000D03*
X207830000Y-107120000D03*
X204000000Y-107030000D03*
X199440000Y-106860000D03*
X187200000Y-106710000D03*
X158570000Y-106890000D03*
X207890000Y-111620000D03*
X203860000Y-111710000D03*
X199660000Y-115240000D03*
X199570000Y-111620000D03*
X194120000Y-111910000D03*
X194120000Y-115360000D03*
X188690000Y-111850000D03*
X188690000Y-115510000D03*
X182950000Y-111730000D03*
X183120000Y-115680000D03*
X177520000Y-111620000D03*
X177640000Y-115740000D03*
X172880000Y-115650000D03*
X172970000Y-111790000D03*
X167630000Y-111730000D03*
X167460000Y-115650000D03*
X199700000Y-119110000D03*
X194330000Y-119000000D03*
X188770000Y-119000000D03*
X183050000Y-119020000D03*
X177740000Y-118940000D03*
X173020000Y-118970000D03*
X167560000Y-119050000D03*
X162490000Y-119140000D03*
X162280000Y-115540000D03*
X157410000Y-119050000D03*
X157350000Y-115460000D03*
X152330000Y-119200000D03*
X152280000Y-115690000D03*
X147780000Y-119050000D03*
X147750000Y-115860000D03*
X162240000Y-111780000D03*
X157310000Y-111690000D03*
X152120000Y-111430000D03*
X147820000Y-111430000D03*
X143070000Y-111660000D03*
X138050000Y-111520000D03*
X138110000Y-106730000D03*
X142950000Y-106560000D03*
X147740000Y-106380000D03*
X147590000Y-101800000D03*
X138160000Y-101950000D03*
X142860000Y-101680000D03*
X192060000Y-109310000D03*
X194580000Y-106340000D03*
X192060000Y-106270000D03*
X153910000Y-109160000D03*
X151200000Y-106270000D03*
X154070000Y-106390000D03*
X153920000Y-102210000D03*
X152010000Y-100150000D03*
X138000000Y-97540000D03*
X142760000Y-97400000D03*
X147510000Y-97310000D03*
X152180000Y-97310000D03*
X156360000Y-97200000D03*
X156290000Y-93620000D03*
X159710000Y-93090000D03*
X162760000Y-89840000D03*
X165400000Y-87060000D03*
X167780000Y-84620000D03*
X160620000Y-97000000D03*
X157290000Y-100460000D03*
X156330000Y-104140000D03*
X162180000Y-109800000D03*
X169100000Y-109940000D03*
X176940000Y-109900000D03*
X184060000Y-109620000D03*
X189900000Y-103760000D03*
X189920000Y-98850000D03*
X185960000Y-94260000D03*
X189630000Y-93710000D03*
X194310000Y-91060000D03*
X189660000Y-91130000D03*
X186670000Y-91080000D03*
X183440000Y-91040000D03*
X166560000Y-97810000D03*
X164590000Y-100460000D03*
X169350000Y-96050000D03*
X207980000Y-76820000D03*
X206480000Y-78240000D03*
X204380000Y-77560000D03*
X204140000Y-75090000D03*
X205840000Y-74090000D03*
X207440000Y-74660000D03*
X142050000Y-75700000D03*
X141470000Y-77650000D03*
X139250000Y-78210000D03*
X137930000Y-76660000D03*
X140450000Y-74190000D03*
X138510000Y-74710000D03*
X140680000Y-119150000D03*
X142140000Y-117770000D03*
X141440000Y-115540000D03*
X139230000Y-115120000D03*
X137860000Y-116780000D03*
X138520000Y-118640000D03*
X203660000Y-116380000D03*
X205970000Y-114930000D03*
X207890000Y-115730000D03*
X204600000Y-119070000D03*
X206740000Y-119030000D03*
X207950000Y-117570000D03*
X174740000Y-101110000D03*
X171010000Y-99930000D03*
X168170000Y-102650000D03*
X177480000Y-101060000D03*
X178860000Y-102670000D03*
X178900000Y-99660000D03*
X180190000Y-100990000D03*
X169330000Y-94240000D03*
X163980000Y-93730000D03*
X166710000Y-91090000D03*
X169260000Y-88620000D03*
X171670000Y-86300000D03*
X173320000Y-84800000D03*
X171090000Y-92450000D03*
X162910000Y-100660000D03*
X173320000Y-90390000D03*
%TD*%
D17*
%TO.N,GND*%
X171740000Y-81010000D02*
X171740000Y-84370000D01*
X194690000Y-102560000D02*
X194320000Y-102930000D01*
X195820000Y-102560000D02*
X194690000Y-102560000D01*
X172960000Y-94640000D02*
X174460000Y-93140000D01*
X172960000Y-95000000D02*
X172960000Y-94640000D01*
X172960000Y-94710000D02*
X171620000Y-93370000D01*
X172960000Y-95000000D02*
X172960000Y-94710000D01*
X150100000Y-94740000D02*
X151420000Y-93420000D01*
X150100000Y-95000000D02*
X150100000Y-94740000D01*
X150100000Y-94630000D02*
X148870000Y-93400000D01*
X150100000Y-95000000D02*
X150100000Y-94630000D01*
X151300000Y-102560000D02*
X151670000Y-102930000D01*
X150100000Y-102560000D02*
X151300000Y-102560000D01*
X172960000Y-102250000D02*
X171720000Y-101010000D01*
X172960000Y-102560000D02*
X172960000Y-102250000D01*
X172960000Y-102190000D02*
X174250000Y-100900000D01*
X172960000Y-102560000D02*
X172960000Y-102190000D01*
%TO.N,Net-(D2-Pad2)*%
X177980000Y-100020000D02*
X180580000Y-102620000D01*
X172960000Y-100020000D02*
X177980000Y-100020000D01*
%TO.N,GND*%
X195820000Y-102230000D02*
X197170000Y-100880000D01*
X195820000Y-102560000D02*
X195820000Y-102230000D01*
X195820000Y-94710000D02*
X194550000Y-93440000D01*
X195820000Y-95000000D02*
X195820000Y-94710000D01*
X195820000Y-95000000D02*
X195820000Y-94670000D01*
X195820000Y-94670000D02*
X197100000Y-93390000D01*
X177700000Y-82620000D02*
X176290000Y-81210000D01*
X177960000Y-82620000D02*
X177700000Y-82620000D01*
X177080000Y-82970000D02*
X177080000Y-84090000D01*
X177430000Y-82620000D02*
X177080000Y-82970000D01*
X177080000Y-84090000D02*
X177400000Y-84410000D01*
X177960000Y-82620000D02*
X177430000Y-82620000D01*
X169260000Y-84360000D02*
X169260000Y-80980000D01*
X171740000Y-80880000D02*
X171740000Y-81010000D01*
X150100000Y-102260000D02*
X148790000Y-100950000D01*
X150100000Y-102560000D02*
X150100000Y-102260000D01*
D18*
%TO.N,Net-(D1-Pad2)*%
X193280000Y-102560000D02*
X195820000Y-100020000D01*
X193280000Y-107700000D02*
X193280000Y-102560000D01*
%TO.N,Net-(D3-Pad2)*%
X152640000Y-102560000D02*
X152640000Y-107700000D01*
X150100000Y-100020000D02*
X152640000Y-102560000D01*
%TO.N,sensor_output_1*%
X167960000Y-92460000D02*
X170460000Y-89960000D01*
X165340000Y-92460000D02*
X167960000Y-92460000D01*
%TO.N,sensor_output_0*%
X188200000Y-92460000D02*
X195820000Y-92460000D01*
X182800000Y-92460000D02*
X188200000Y-92460000D01*
X172960000Y-82620000D02*
X182800000Y-92460000D01*
%TO.N,sensor_output_1*%
X170460000Y-82620000D02*
X170460000Y-89960000D01*
X170460000Y-89960000D02*
X172960000Y-92460000D01*
%TO.N,sensor_output_2*%
X157720000Y-92460000D02*
X150100000Y-92460000D01*
X157720000Y-92860000D02*
X157720000Y-92460000D01*
X167960000Y-82620000D02*
X157720000Y-92860000D01*
%TD*%
%TA.AperFunction,Conductor*%
%TO.N,GND*%
G36*
X205930018Y-73680000D02*
G01*
X205944851Y-73682310D01*
X205944855Y-73682310D01*
X205953724Y-73683691D01*
X205970923Y-73681442D01*
X205994863Y-73680609D01*
X206252710Y-73696206D01*
X206267814Y-73698040D01*
X206339786Y-73711229D01*
X206548760Y-73749525D01*
X206563526Y-73753164D01*
X206836231Y-73838142D01*
X206850445Y-73843534D01*
X207068223Y-73941547D01*
X207110906Y-73960757D01*
X207124379Y-73967828D01*
X207368813Y-74115595D01*
X207381334Y-74124238D01*
X207606171Y-74300385D01*
X207617560Y-74310475D01*
X207819525Y-74512440D01*
X207829615Y-74523829D01*
X208005762Y-74748666D01*
X208014405Y-74761187D01*
X208162172Y-75005621D01*
X208169242Y-75019092D01*
X208286466Y-75279555D01*
X208291858Y-75293769D01*
X208338071Y-75442072D01*
X208376836Y-75566473D01*
X208380475Y-75581240D01*
X208397881Y-75676221D01*
X208431960Y-75862186D01*
X208433794Y-75877290D01*
X208448953Y-76127904D01*
X208447692Y-76154716D01*
X208447690Y-76154852D01*
X208446309Y-76163724D01*
X208447473Y-76172626D01*
X208447473Y-76172628D01*
X208450436Y-76195283D01*
X208451500Y-76211621D01*
X208451500Y-117120633D01*
X208450000Y-117140018D01*
X208447690Y-117154851D01*
X208447690Y-117154855D01*
X208446309Y-117163724D01*
X208448558Y-117180919D01*
X208449391Y-117204863D01*
X208433794Y-117462710D01*
X208431960Y-117477814D01*
X208396162Y-117673164D01*
X208380477Y-117758754D01*
X208376836Y-117773526D01*
X208335331Y-117906722D01*
X208291859Y-118046227D01*
X208286466Y-118060445D01*
X208173747Y-118310898D01*
X208169243Y-118320906D01*
X208162172Y-118334379D01*
X208014405Y-118578813D01*
X208005762Y-118591334D01*
X207829615Y-118816171D01*
X207819525Y-118827560D01*
X207617560Y-119029525D01*
X207606171Y-119039615D01*
X207381334Y-119215762D01*
X207368813Y-119224405D01*
X207124379Y-119372172D01*
X207110908Y-119379242D01*
X206850445Y-119496466D01*
X206836231Y-119501858D01*
X206563527Y-119586836D01*
X206548760Y-119590475D01*
X206339786Y-119628771D01*
X206267814Y-119641960D01*
X206252710Y-119643794D01*
X206002096Y-119658953D01*
X205975284Y-119657692D01*
X205975148Y-119657690D01*
X205966276Y-119656309D01*
X205957374Y-119657473D01*
X205957372Y-119657473D01*
X205942707Y-119659391D01*
X205934714Y-119660436D01*
X205918379Y-119661500D01*
X140009367Y-119661500D01*
X139989982Y-119660000D01*
X139975149Y-119657690D01*
X139975145Y-119657690D01*
X139966276Y-119656309D01*
X139949077Y-119658558D01*
X139925137Y-119659391D01*
X139667290Y-119643794D01*
X139652186Y-119641960D01*
X139580214Y-119628771D01*
X139371240Y-119590475D01*
X139356473Y-119586836D01*
X139083769Y-119501858D01*
X139069555Y-119496466D01*
X138809092Y-119379242D01*
X138795621Y-119372172D01*
X138551187Y-119224405D01*
X138538666Y-119215762D01*
X138313829Y-119039615D01*
X138302440Y-119029525D01*
X138100475Y-118827560D01*
X138090385Y-118816171D01*
X137914238Y-118591334D01*
X137905595Y-118578813D01*
X137757828Y-118334379D01*
X137750757Y-118320906D01*
X137746253Y-118310898D01*
X137633534Y-118060445D01*
X137628141Y-118046227D01*
X137584670Y-117906722D01*
X137543164Y-117773526D01*
X137539523Y-117758754D01*
X137523839Y-117673164D01*
X137488040Y-117477814D01*
X137486206Y-117462710D01*
X137471269Y-117215768D01*
X137472520Y-117192216D01*
X137472334Y-117192199D01*
X137472769Y-117187350D01*
X137473576Y-117182552D01*
X137473729Y-117170000D01*
X138346526Y-117170000D01*
X138366391Y-117422403D01*
X138367545Y-117427210D01*
X138367546Y-117427216D01*
X138377894Y-117470317D01*
X138425495Y-117668591D01*
X138427388Y-117673162D01*
X138427389Y-117673164D01*
X138465949Y-117766255D01*
X138522384Y-117902502D01*
X138654672Y-118118376D01*
X138819102Y-118310898D01*
X139011624Y-118475328D01*
X139227498Y-118607616D01*
X139232068Y-118609509D01*
X139232072Y-118609511D01*
X139456836Y-118702611D01*
X139461409Y-118704505D01*
X139546032Y-118724821D01*
X139702784Y-118762454D01*
X139702790Y-118762455D01*
X139707597Y-118763609D01*
X139960000Y-118783474D01*
X140212403Y-118763609D01*
X140217210Y-118762455D01*
X140217216Y-118762454D01*
X140373968Y-118724821D01*
X140458591Y-118704505D01*
X140463164Y-118702611D01*
X140687928Y-118609511D01*
X140687932Y-118609509D01*
X140692502Y-118607616D01*
X140908376Y-118475328D01*
X141100898Y-118310898D01*
X141265328Y-118118376D01*
X141397616Y-117902502D01*
X141454052Y-117766255D01*
X141492611Y-117673164D01*
X141492612Y-117673162D01*
X141494505Y-117668591D01*
X141542106Y-117470317D01*
X141552454Y-117427216D01*
X141552455Y-117427210D01*
X141553609Y-117422403D01*
X141573474Y-117170000D01*
X204346526Y-117170000D01*
X204366391Y-117422403D01*
X204367545Y-117427210D01*
X204367546Y-117427216D01*
X204377894Y-117470317D01*
X204425495Y-117668591D01*
X204427388Y-117673162D01*
X204427389Y-117673164D01*
X204465949Y-117766255D01*
X204522384Y-117902502D01*
X204654672Y-118118376D01*
X204819102Y-118310898D01*
X205011624Y-118475328D01*
X205227498Y-118607616D01*
X205232068Y-118609509D01*
X205232072Y-118609511D01*
X205456836Y-118702611D01*
X205461409Y-118704505D01*
X205546032Y-118724821D01*
X205702784Y-118762454D01*
X205702790Y-118762455D01*
X205707597Y-118763609D01*
X205960000Y-118783474D01*
X206212403Y-118763609D01*
X206217210Y-118762455D01*
X206217216Y-118762454D01*
X206373968Y-118724821D01*
X206458591Y-118704505D01*
X206463164Y-118702611D01*
X206687928Y-118609511D01*
X206687932Y-118609509D01*
X206692502Y-118607616D01*
X206908376Y-118475328D01*
X207100898Y-118310898D01*
X207265328Y-118118376D01*
X207397616Y-117902502D01*
X207454052Y-117766255D01*
X207492611Y-117673164D01*
X207492612Y-117673162D01*
X207494505Y-117668591D01*
X207542106Y-117470317D01*
X207552454Y-117427216D01*
X207552455Y-117427210D01*
X207553609Y-117422403D01*
X207573474Y-117170000D01*
X207553609Y-116917597D01*
X207543203Y-116874250D01*
X207495660Y-116676221D01*
X207494505Y-116671409D01*
X207488846Y-116657746D01*
X207399511Y-116442072D01*
X207399509Y-116442068D01*
X207397616Y-116437498D01*
X207265328Y-116221624D01*
X207100898Y-116029102D01*
X206908376Y-115864672D01*
X206692502Y-115732384D01*
X206687932Y-115730491D01*
X206687928Y-115730489D01*
X206463164Y-115637389D01*
X206463162Y-115637388D01*
X206458591Y-115635495D01*
X206373968Y-115615179D01*
X206217216Y-115577546D01*
X206217210Y-115577545D01*
X206212403Y-115576391D01*
X205960000Y-115556526D01*
X205707597Y-115576391D01*
X205702790Y-115577545D01*
X205702784Y-115577546D01*
X205546032Y-115615179D01*
X205461409Y-115635495D01*
X205456838Y-115637388D01*
X205456836Y-115637389D01*
X205232072Y-115730489D01*
X205232068Y-115730491D01*
X205227498Y-115732384D01*
X205011624Y-115864672D01*
X204819102Y-116029102D01*
X204654672Y-116221624D01*
X204522384Y-116437498D01*
X204520491Y-116442068D01*
X204520489Y-116442072D01*
X204431154Y-116657746D01*
X204425495Y-116671409D01*
X204424340Y-116676221D01*
X204376798Y-116874250D01*
X204366391Y-116917597D01*
X204346526Y-117170000D01*
X141573474Y-117170000D01*
X141553609Y-116917597D01*
X141543203Y-116874250D01*
X141495660Y-116676221D01*
X141494505Y-116671409D01*
X141488846Y-116657746D01*
X141399511Y-116442072D01*
X141399509Y-116442068D01*
X141397616Y-116437498D01*
X141265328Y-116221624D01*
X141100898Y-116029102D01*
X140908376Y-115864672D01*
X140692502Y-115732384D01*
X140687932Y-115730491D01*
X140687928Y-115730489D01*
X140463164Y-115637389D01*
X140463162Y-115637388D01*
X140458591Y-115635495D01*
X140373968Y-115615179D01*
X140217216Y-115577546D01*
X140217210Y-115577545D01*
X140212403Y-115576391D01*
X139960000Y-115556526D01*
X139707597Y-115576391D01*
X139702790Y-115577545D01*
X139702784Y-115577546D01*
X139546032Y-115615179D01*
X139461409Y-115635495D01*
X139456838Y-115637388D01*
X139456836Y-115637389D01*
X139232072Y-115730489D01*
X139232068Y-115730491D01*
X139227498Y-115732384D01*
X139011624Y-115864672D01*
X138819102Y-116029102D01*
X138654672Y-116221624D01*
X138522384Y-116437498D01*
X138520491Y-116442068D01*
X138520489Y-116442072D01*
X138431154Y-116657746D01*
X138425495Y-116671409D01*
X138424340Y-116676221D01*
X138376798Y-116874250D01*
X138366391Y-116917597D01*
X138346526Y-117170000D01*
X137473729Y-117170000D01*
X137469773Y-117142376D01*
X137468500Y-117124514D01*
X137468500Y-103504669D01*
X148692001Y-103504669D01*
X148692371Y-103511490D01*
X148697895Y-103562352D01*
X148701521Y-103577604D01*
X148746676Y-103698054D01*
X148755214Y-103713649D01*
X148831715Y-103815724D01*
X148844276Y-103828285D01*
X148946351Y-103904786D01*
X148961946Y-103913324D01*
X149082394Y-103958478D01*
X149097649Y-103962105D01*
X149148514Y-103967631D01*
X149155328Y-103968000D01*
X149827885Y-103968000D01*
X149843124Y-103963525D01*
X149844329Y-103962135D01*
X149846000Y-103954452D01*
X149846000Y-102832115D01*
X149841525Y-102816876D01*
X149840135Y-102815671D01*
X149832452Y-102814000D01*
X148710116Y-102814000D01*
X148694877Y-102818475D01*
X148693672Y-102819865D01*
X148692001Y-102827548D01*
X148692001Y-103504669D01*
X137468500Y-103504669D01*
X137468500Y-99985469D01*
X148687095Y-99985469D01*
X148687392Y-99990622D01*
X148687392Y-99990625D01*
X148693067Y-100089041D01*
X148700427Y-100216697D01*
X148701564Y-100221743D01*
X148701565Y-100221749D01*
X148725078Y-100326083D01*
X148751346Y-100442642D01*
X148753288Y-100447424D01*
X148753289Y-100447428D01*
X148836540Y-100652450D01*
X148838484Y-100657237D01*
X148959501Y-100854719D01*
X148962882Y-100858622D01*
X149071653Y-100984191D01*
X149101135Y-101048776D01*
X149091020Y-101119049D01*
X149044519Y-101172697D01*
X149020646Y-101184670D01*
X148961944Y-101206677D01*
X148946351Y-101215214D01*
X148844276Y-101291715D01*
X148831715Y-101304276D01*
X148755214Y-101406351D01*
X148746676Y-101421946D01*
X148701522Y-101542394D01*
X148697895Y-101557649D01*
X148692369Y-101608514D01*
X148692000Y-101615328D01*
X148692000Y-102287885D01*
X148696475Y-102303124D01*
X148697865Y-102304329D01*
X148705548Y-102306000D01*
X150228000Y-102306000D01*
X150296121Y-102326002D01*
X150342614Y-102379658D01*
X150354000Y-102432000D01*
X150354000Y-103949884D01*
X150358475Y-103965123D01*
X150359865Y-103966328D01*
X150367548Y-103967999D01*
X151044669Y-103967999D01*
X151051490Y-103967629D01*
X151102352Y-103962105D01*
X151117604Y-103958479D01*
X151238054Y-103913324D01*
X151253649Y-103904786D01*
X151355724Y-103828285D01*
X151368285Y-103815724D01*
X151444786Y-103713649D01*
X151453324Y-103698054D01*
X151498478Y-103577606D01*
X151502105Y-103562351D01*
X151507631Y-103511486D01*
X151508000Y-103504672D01*
X151507999Y-102804870D01*
X151528001Y-102736749D01*
X151581657Y-102690256D01*
X151651930Y-102680152D01*
X151716511Y-102709645D01*
X151723094Y-102715775D01*
X151844595Y-102837276D01*
X151878621Y-102899588D01*
X151881500Y-102926371D01*
X151881500Y-106568133D01*
X151861498Y-106636254D01*
X151827772Y-106671345D01*
X151795700Y-106693802D01*
X151633802Y-106855700D01*
X151502477Y-107043251D01*
X151500154Y-107048233D01*
X151500151Y-107048238D01*
X151408039Y-107245775D01*
X151405716Y-107250757D01*
X151346457Y-107471913D01*
X151326502Y-107700000D01*
X151346457Y-107928087D01*
X151405716Y-108149243D01*
X151408039Y-108154224D01*
X151408039Y-108154225D01*
X151500151Y-108351762D01*
X151500154Y-108351767D01*
X151502477Y-108356749D01*
X151633802Y-108544300D01*
X151795700Y-108706198D01*
X151800208Y-108709355D01*
X151800211Y-108709357D01*
X151878389Y-108764098D01*
X151983251Y-108837523D01*
X151988233Y-108839846D01*
X151988238Y-108839849D01*
X152185775Y-108931961D01*
X152190757Y-108934284D01*
X152196065Y-108935706D01*
X152196067Y-108935707D01*
X152406598Y-108992119D01*
X152406600Y-108992119D01*
X152411913Y-108993543D01*
X152640000Y-109013498D01*
X152868087Y-108993543D01*
X152873400Y-108992119D01*
X152873402Y-108992119D01*
X153083933Y-108935707D01*
X153083935Y-108935706D01*
X153089243Y-108934284D01*
X153094225Y-108931961D01*
X153291762Y-108839849D01*
X153291767Y-108839846D01*
X153296749Y-108837523D01*
X153401611Y-108764098D01*
X153479789Y-108709357D01*
X153479792Y-108709355D01*
X153484300Y-108706198D01*
X153646198Y-108544300D01*
X153777523Y-108356749D01*
X153779846Y-108351767D01*
X153779849Y-108351762D01*
X153871961Y-108154225D01*
X153871961Y-108154224D01*
X153874284Y-108149243D01*
X153933543Y-107928087D01*
X153953498Y-107700000D01*
X161486502Y-107700000D01*
X161506457Y-107928087D01*
X161565716Y-108149243D01*
X161568039Y-108154224D01*
X161568039Y-108154225D01*
X161660151Y-108351762D01*
X161660154Y-108351767D01*
X161662477Y-108356749D01*
X161793802Y-108544300D01*
X161955700Y-108706198D01*
X161960208Y-108709355D01*
X161960211Y-108709357D01*
X162038389Y-108764098D01*
X162143251Y-108837523D01*
X162148233Y-108839846D01*
X162148238Y-108839849D01*
X162345775Y-108931961D01*
X162350757Y-108934284D01*
X162356065Y-108935706D01*
X162356067Y-108935707D01*
X162566598Y-108992119D01*
X162566600Y-108992119D01*
X162571913Y-108993543D01*
X162800000Y-109013498D01*
X163028087Y-108993543D01*
X163033400Y-108992119D01*
X163033402Y-108992119D01*
X163243933Y-108935707D01*
X163243935Y-108935706D01*
X163249243Y-108934284D01*
X163254225Y-108931961D01*
X163451762Y-108839849D01*
X163451767Y-108839846D01*
X163456749Y-108837523D01*
X163561611Y-108764098D01*
X163639789Y-108709357D01*
X163639792Y-108709355D01*
X163644300Y-108706198D01*
X163806198Y-108544300D01*
X163937523Y-108356749D01*
X163939846Y-108351767D01*
X163939849Y-108351762D01*
X164031961Y-108154225D01*
X164031961Y-108154224D01*
X164034284Y-108149243D01*
X164093543Y-107928087D01*
X164113498Y-107700000D01*
X181806502Y-107700000D01*
X181826457Y-107928087D01*
X181885716Y-108149243D01*
X181888039Y-108154224D01*
X181888039Y-108154225D01*
X181980151Y-108351762D01*
X181980154Y-108351767D01*
X181982477Y-108356749D01*
X182113802Y-108544300D01*
X182275700Y-108706198D01*
X182280208Y-108709355D01*
X182280211Y-108709357D01*
X182358389Y-108764098D01*
X182463251Y-108837523D01*
X182468233Y-108839846D01*
X182468238Y-108839849D01*
X182665775Y-108931961D01*
X182670757Y-108934284D01*
X182676065Y-108935706D01*
X182676067Y-108935707D01*
X182886598Y-108992119D01*
X182886600Y-108992119D01*
X182891913Y-108993543D01*
X183120000Y-109013498D01*
X183348087Y-108993543D01*
X183353400Y-108992119D01*
X183353402Y-108992119D01*
X183563933Y-108935707D01*
X183563935Y-108935706D01*
X183569243Y-108934284D01*
X183574225Y-108931961D01*
X183771762Y-108839849D01*
X183771767Y-108839846D01*
X183776749Y-108837523D01*
X183881611Y-108764098D01*
X183959789Y-108709357D01*
X183959792Y-108709355D01*
X183964300Y-108706198D01*
X184126198Y-108544300D01*
X184257523Y-108356749D01*
X184259846Y-108351767D01*
X184259849Y-108351762D01*
X184351961Y-108154225D01*
X184351961Y-108154224D01*
X184354284Y-108149243D01*
X184413543Y-107928087D01*
X184433498Y-107700000D01*
X191966502Y-107700000D01*
X191986457Y-107928087D01*
X192045716Y-108149243D01*
X192048039Y-108154224D01*
X192048039Y-108154225D01*
X192140151Y-108351762D01*
X192140154Y-108351767D01*
X192142477Y-108356749D01*
X192273802Y-108544300D01*
X192435700Y-108706198D01*
X192440208Y-108709355D01*
X192440211Y-108709357D01*
X192518389Y-108764098D01*
X192623251Y-108837523D01*
X192628233Y-108839846D01*
X192628238Y-108839849D01*
X192825775Y-108931961D01*
X192830757Y-108934284D01*
X192836065Y-108935706D01*
X192836067Y-108935707D01*
X193046598Y-108992119D01*
X193046600Y-108992119D01*
X193051913Y-108993543D01*
X193280000Y-109013498D01*
X193508087Y-108993543D01*
X193513400Y-108992119D01*
X193513402Y-108992119D01*
X193723933Y-108935707D01*
X193723935Y-108935706D01*
X193729243Y-108934284D01*
X193734225Y-108931961D01*
X193931762Y-108839849D01*
X193931767Y-108839846D01*
X193936749Y-108837523D01*
X194041611Y-108764098D01*
X194119789Y-108709357D01*
X194119792Y-108709355D01*
X194124300Y-108706198D01*
X194286198Y-108544300D01*
X194417523Y-108356749D01*
X194419846Y-108351767D01*
X194419849Y-108351762D01*
X194511961Y-108154225D01*
X194511961Y-108154224D01*
X194514284Y-108149243D01*
X194573543Y-107928087D01*
X194593498Y-107700000D01*
X194573543Y-107471913D01*
X194514284Y-107250757D01*
X194511961Y-107245775D01*
X194419849Y-107048238D01*
X194419846Y-107048233D01*
X194417523Y-107043251D01*
X194286198Y-106855700D01*
X194124300Y-106693802D01*
X194092229Y-106671345D01*
X194047901Y-106615890D01*
X194038500Y-106568133D01*
X194038500Y-102926371D01*
X194058502Y-102858250D01*
X194075405Y-102837276D01*
X194196905Y-102715776D01*
X194259217Y-102681750D01*
X194330032Y-102686815D01*
X194386868Y-102729362D01*
X194411679Y-102795882D01*
X194412000Y-102804871D01*
X194412001Y-103504669D01*
X194412371Y-103511490D01*
X194417895Y-103562352D01*
X194421521Y-103577604D01*
X194466676Y-103698054D01*
X194475214Y-103713649D01*
X194551715Y-103815724D01*
X194564276Y-103828285D01*
X194666351Y-103904786D01*
X194681946Y-103913324D01*
X194802394Y-103958478D01*
X194817649Y-103962105D01*
X194868514Y-103967631D01*
X194875328Y-103968000D01*
X195547885Y-103968000D01*
X195563124Y-103963525D01*
X195564329Y-103962135D01*
X195566000Y-103954452D01*
X195566000Y-103949884D01*
X196074000Y-103949884D01*
X196078475Y-103965123D01*
X196079865Y-103966328D01*
X196087548Y-103967999D01*
X196764669Y-103967999D01*
X196771490Y-103967629D01*
X196822352Y-103962105D01*
X196837604Y-103958479D01*
X196958054Y-103913324D01*
X196973649Y-103904786D01*
X197075724Y-103828285D01*
X197088285Y-103815724D01*
X197164786Y-103713649D01*
X197173324Y-103698054D01*
X197218478Y-103577606D01*
X197222105Y-103562351D01*
X197227631Y-103511486D01*
X197228000Y-103504672D01*
X197228000Y-102832115D01*
X197223525Y-102816876D01*
X197222135Y-102815671D01*
X197214452Y-102814000D01*
X196092115Y-102814000D01*
X196076876Y-102818475D01*
X196075671Y-102819865D01*
X196074000Y-102827548D01*
X196074000Y-103949884D01*
X195566000Y-103949884D01*
X195566000Y-102432000D01*
X195586002Y-102363879D01*
X195639658Y-102317386D01*
X195692000Y-102306000D01*
X197209884Y-102306000D01*
X197225123Y-102301525D01*
X197226328Y-102300135D01*
X197227999Y-102292452D01*
X197227999Y-101615331D01*
X197227629Y-101608510D01*
X197222105Y-101557648D01*
X197218479Y-101542396D01*
X197173324Y-101421946D01*
X197164786Y-101406351D01*
X197088285Y-101304276D01*
X197075724Y-101291715D01*
X196973649Y-101215214D01*
X196958052Y-101206675D01*
X196899415Y-101184693D01*
X196842650Y-101142052D01*
X196817950Y-101075490D01*
X196833157Y-101006141D01*
X196854703Y-100977461D01*
X196892641Y-100939654D01*
X196896303Y-100936005D01*
X197031458Y-100747917D01*
X197078641Y-100652450D01*
X197131784Y-100544922D01*
X197131785Y-100544920D01*
X197134078Y-100540280D01*
X197201408Y-100318671D01*
X197231640Y-100089041D01*
X197233327Y-100020000D01*
X197227032Y-99943434D01*
X197214773Y-99794318D01*
X197214772Y-99794312D01*
X197214349Y-99789167D01*
X197157925Y-99564533D01*
X197150158Y-99546669D01*
X197067630Y-99356868D01*
X197067628Y-99356865D01*
X197065570Y-99352131D01*
X196939764Y-99157665D01*
X196783887Y-98986358D01*
X196779836Y-98983159D01*
X196779832Y-98983155D01*
X196606177Y-98846011D01*
X196606172Y-98846008D01*
X196602123Y-98842810D01*
X196597607Y-98840317D01*
X196597604Y-98840315D01*
X196403879Y-98733373D01*
X196403875Y-98733371D01*
X196399355Y-98730876D01*
X196394486Y-98729152D01*
X196394482Y-98729150D01*
X196185903Y-98655288D01*
X196185899Y-98655287D01*
X196181028Y-98653562D01*
X196175935Y-98652655D01*
X196175932Y-98652654D01*
X195958095Y-98613851D01*
X195958089Y-98613850D01*
X195953006Y-98612945D01*
X195880096Y-98612054D01*
X195726581Y-98610179D01*
X195726579Y-98610179D01*
X195721411Y-98610116D01*
X195492464Y-98645150D01*
X195272314Y-98717106D01*
X195267726Y-98719494D01*
X195267722Y-98719496D01*
X195071461Y-98821663D01*
X195066872Y-98824052D01*
X195062739Y-98827155D01*
X195062736Y-98827157D01*
X194885790Y-98960012D01*
X194881655Y-98963117D01*
X194721639Y-99130564D01*
X194718725Y-99134836D01*
X194718724Y-99134837D01*
X194703152Y-99157665D01*
X194591119Y-99321899D01*
X194493602Y-99531981D01*
X194431707Y-99755169D01*
X194407095Y-99985469D01*
X194407392Y-99990622D01*
X194407392Y-99990625D01*
X194413067Y-100089041D01*
X194420427Y-100216697D01*
X194429112Y-100255234D01*
X194424576Y-100326083D01*
X194395290Y-100372029D01*
X192791089Y-101976230D01*
X192776677Y-101988616D01*
X192765082Y-101997149D01*
X192765077Y-101997154D01*
X192759182Y-102001492D01*
X192754443Y-102007070D01*
X192754440Y-102007073D01*
X192724965Y-102041768D01*
X192718035Y-102049284D01*
X192712340Y-102054979D01*
X192710060Y-102057861D01*
X192694719Y-102077251D01*
X192691928Y-102080655D01*
X192649409Y-102130703D01*
X192644667Y-102136285D01*
X192641339Y-102142801D01*
X192637972Y-102147850D01*
X192634805Y-102152979D01*
X192630266Y-102158716D01*
X192599345Y-102224875D01*
X192597442Y-102228769D01*
X192564231Y-102293808D01*
X192562492Y-102300916D01*
X192560393Y-102306559D01*
X192558476Y-102312322D01*
X192555378Y-102318950D01*
X192553888Y-102326112D01*
X192553888Y-102326113D01*
X192540514Y-102390412D01*
X192539544Y-102394696D01*
X192522192Y-102465610D01*
X192521500Y-102476764D01*
X192521464Y-102476762D01*
X192521225Y-102480755D01*
X192520851Y-102484947D01*
X192519360Y-102492115D01*
X192519558Y-102499432D01*
X192521454Y-102569521D01*
X192521500Y-102572928D01*
X192521500Y-106568133D01*
X192501498Y-106636254D01*
X192467772Y-106671345D01*
X192435700Y-106693802D01*
X192273802Y-106855700D01*
X192142477Y-107043251D01*
X192140154Y-107048233D01*
X192140151Y-107048238D01*
X192048039Y-107245775D01*
X192045716Y-107250757D01*
X191986457Y-107471913D01*
X191966502Y-107700000D01*
X184433498Y-107700000D01*
X184413543Y-107471913D01*
X184354284Y-107250757D01*
X184351961Y-107245775D01*
X184259849Y-107048238D01*
X184259846Y-107048233D01*
X184257523Y-107043251D01*
X184126198Y-106855700D01*
X183964300Y-106693802D01*
X183959792Y-106690645D01*
X183959789Y-106690643D01*
X183853030Y-106615890D01*
X183776749Y-106562477D01*
X183771767Y-106560154D01*
X183771762Y-106560151D01*
X183574225Y-106468039D01*
X183574224Y-106468039D01*
X183569243Y-106465716D01*
X183563935Y-106464294D01*
X183563933Y-106464293D01*
X183353402Y-106407881D01*
X183353400Y-106407881D01*
X183348087Y-106406457D01*
X183120000Y-106386502D01*
X182891913Y-106406457D01*
X182886600Y-106407881D01*
X182886598Y-106407881D01*
X182676067Y-106464293D01*
X182676065Y-106464294D01*
X182670757Y-106465716D01*
X182665776Y-106468039D01*
X182665775Y-106468039D01*
X182468238Y-106560151D01*
X182468233Y-106560154D01*
X182463251Y-106562477D01*
X182386970Y-106615890D01*
X182280211Y-106690643D01*
X182280208Y-106690645D01*
X182275700Y-106693802D01*
X182113802Y-106855700D01*
X181982477Y-107043251D01*
X181980154Y-107048233D01*
X181980151Y-107048238D01*
X181888039Y-107245775D01*
X181885716Y-107250757D01*
X181826457Y-107471913D01*
X181806502Y-107700000D01*
X164113498Y-107700000D01*
X164093543Y-107471913D01*
X164034284Y-107250757D01*
X164031961Y-107245775D01*
X163939849Y-107048238D01*
X163939846Y-107048233D01*
X163937523Y-107043251D01*
X163806198Y-106855700D01*
X163644300Y-106693802D01*
X163639792Y-106690645D01*
X163639789Y-106690643D01*
X163533030Y-106615890D01*
X163456749Y-106562477D01*
X163451767Y-106560154D01*
X163451762Y-106560151D01*
X163254225Y-106468039D01*
X163254224Y-106468039D01*
X163249243Y-106465716D01*
X163243935Y-106464294D01*
X163243933Y-106464293D01*
X163033402Y-106407881D01*
X163033400Y-106407881D01*
X163028087Y-106406457D01*
X162800000Y-106386502D01*
X162571913Y-106406457D01*
X162566600Y-106407881D01*
X162566598Y-106407881D01*
X162356067Y-106464293D01*
X162356065Y-106464294D01*
X162350757Y-106465716D01*
X162345776Y-106468039D01*
X162345775Y-106468039D01*
X162148238Y-106560151D01*
X162148233Y-106560154D01*
X162143251Y-106562477D01*
X162066970Y-106615890D01*
X161960211Y-106690643D01*
X161960208Y-106690645D01*
X161955700Y-106693802D01*
X161793802Y-106855700D01*
X161662477Y-107043251D01*
X161660154Y-107048233D01*
X161660151Y-107048238D01*
X161568039Y-107245775D01*
X161565716Y-107250757D01*
X161506457Y-107471913D01*
X161486502Y-107700000D01*
X153953498Y-107700000D01*
X153933543Y-107471913D01*
X153874284Y-107250757D01*
X153871961Y-107245775D01*
X153779849Y-107048238D01*
X153779846Y-107048233D01*
X153777523Y-107043251D01*
X153646198Y-106855700D01*
X153484300Y-106693802D01*
X153452229Y-106671345D01*
X153407901Y-106615890D01*
X153398500Y-106568133D01*
X153398500Y-102627063D01*
X153399034Y-102620000D01*
X156406502Y-102620000D01*
X156426457Y-102848087D01*
X156485716Y-103069243D01*
X156488039Y-103074224D01*
X156488039Y-103074225D01*
X156580151Y-103271762D01*
X156580154Y-103271767D01*
X156582477Y-103276749D01*
X156713802Y-103464300D01*
X156875700Y-103626198D01*
X156880208Y-103629355D01*
X156880211Y-103629357D01*
X156958389Y-103684098D01*
X157063251Y-103757523D01*
X157068233Y-103759846D01*
X157068238Y-103759849D01*
X157265775Y-103851961D01*
X157270757Y-103854284D01*
X157276065Y-103855706D01*
X157276067Y-103855707D01*
X157486598Y-103912119D01*
X157486600Y-103912119D01*
X157491913Y-103913543D01*
X157720000Y-103933498D01*
X157948087Y-103913543D01*
X157953400Y-103912119D01*
X157953402Y-103912119D01*
X158163933Y-103855707D01*
X158163935Y-103855706D01*
X158169243Y-103854284D01*
X158174225Y-103851961D01*
X158371762Y-103759849D01*
X158371767Y-103759846D01*
X158376749Y-103757523D01*
X158481611Y-103684098D01*
X158559789Y-103629357D01*
X158559792Y-103629355D01*
X158564300Y-103626198D01*
X158726198Y-103464300D01*
X158857523Y-103276749D01*
X158859846Y-103271767D01*
X158859849Y-103271762D01*
X158951961Y-103074225D01*
X158951961Y-103074224D01*
X158954284Y-103069243D01*
X159013543Y-102848087D01*
X159033498Y-102620000D01*
X164026502Y-102620000D01*
X164046457Y-102848087D01*
X164105716Y-103069243D01*
X164108039Y-103074224D01*
X164108039Y-103074225D01*
X164200151Y-103271762D01*
X164200154Y-103271767D01*
X164202477Y-103276749D01*
X164333802Y-103464300D01*
X164495700Y-103626198D01*
X164500208Y-103629355D01*
X164500211Y-103629357D01*
X164578389Y-103684098D01*
X164683251Y-103757523D01*
X164688233Y-103759846D01*
X164688238Y-103759849D01*
X164885775Y-103851961D01*
X164890757Y-103854284D01*
X164896065Y-103855706D01*
X164896067Y-103855707D01*
X165106598Y-103912119D01*
X165106600Y-103912119D01*
X165111913Y-103913543D01*
X165340000Y-103933498D01*
X165568087Y-103913543D01*
X165573400Y-103912119D01*
X165573402Y-103912119D01*
X165783933Y-103855707D01*
X165783935Y-103855706D01*
X165789243Y-103854284D01*
X165794225Y-103851961D01*
X165991762Y-103759849D01*
X165991767Y-103759846D01*
X165996749Y-103757523D01*
X166101611Y-103684098D01*
X166179789Y-103629357D01*
X166179792Y-103629355D01*
X166184300Y-103626198D01*
X166305829Y-103504669D01*
X171552001Y-103504669D01*
X171552371Y-103511490D01*
X171557895Y-103562352D01*
X171561521Y-103577604D01*
X171606676Y-103698054D01*
X171615214Y-103713649D01*
X171691715Y-103815724D01*
X171704276Y-103828285D01*
X171806351Y-103904786D01*
X171821946Y-103913324D01*
X171942394Y-103958478D01*
X171957649Y-103962105D01*
X172008514Y-103967631D01*
X172015328Y-103968000D01*
X172687885Y-103968000D01*
X172703124Y-103963525D01*
X172704329Y-103962135D01*
X172706000Y-103954452D01*
X172706000Y-103949884D01*
X173214000Y-103949884D01*
X173218475Y-103965123D01*
X173219865Y-103966328D01*
X173227548Y-103967999D01*
X173904669Y-103967999D01*
X173911490Y-103967629D01*
X173962352Y-103962105D01*
X173977604Y-103958479D01*
X174098054Y-103913324D01*
X174113649Y-103904786D01*
X174215724Y-103828285D01*
X174228285Y-103815724D01*
X174304786Y-103713649D01*
X174313324Y-103698054D01*
X174358478Y-103577606D01*
X174362105Y-103562351D01*
X174367631Y-103511486D01*
X174368000Y-103504672D01*
X174368000Y-102832115D01*
X174363525Y-102816876D01*
X174362135Y-102815671D01*
X174354452Y-102814000D01*
X173232115Y-102814000D01*
X173216876Y-102818475D01*
X173215671Y-102819865D01*
X173214000Y-102827548D01*
X173214000Y-103949884D01*
X172706000Y-103949884D01*
X172706000Y-102832115D01*
X172701525Y-102816876D01*
X172700135Y-102815671D01*
X172692452Y-102814000D01*
X171570116Y-102814000D01*
X171554877Y-102818475D01*
X171553672Y-102819865D01*
X171552001Y-102827548D01*
X171552001Y-103504669D01*
X166305829Y-103504669D01*
X166346198Y-103464300D01*
X166477523Y-103276749D01*
X166479846Y-103271767D01*
X166479849Y-103271762D01*
X166571961Y-103074225D01*
X166571961Y-103074224D01*
X166574284Y-103069243D01*
X166633543Y-102848087D01*
X166653498Y-102620000D01*
X166633543Y-102391913D01*
X166626031Y-102363879D01*
X166575707Y-102176067D01*
X166575706Y-102176065D01*
X166574284Y-102170757D01*
X166571961Y-102165775D01*
X166479849Y-101968238D01*
X166479846Y-101968233D01*
X166477523Y-101963251D01*
X166346198Y-101775700D01*
X166184300Y-101613802D01*
X166179792Y-101610645D01*
X166179789Y-101610643D01*
X166082319Y-101542394D01*
X165996749Y-101482477D01*
X165991767Y-101480154D01*
X165991762Y-101480151D01*
X165794225Y-101388039D01*
X165794224Y-101388039D01*
X165789243Y-101385716D01*
X165783935Y-101384294D01*
X165783933Y-101384293D01*
X165573402Y-101327881D01*
X165573400Y-101327881D01*
X165568087Y-101326457D01*
X165340000Y-101306502D01*
X165111913Y-101326457D01*
X165106600Y-101327881D01*
X165106598Y-101327881D01*
X164896067Y-101384293D01*
X164896065Y-101384294D01*
X164890757Y-101385716D01*
X164885776Y-101388039D01*
X164885775Y-101388039D01*
X164688238Y-101480151D01*
X164688233Y-101480154D01*
X164683251Y-101482477D01*
X164597681Y-101542394D01*
X164500211Y-101610643D01*
X164500208Y-101610645D01*
X164495700Y-101613802D01*
X164333802Y-101775700D01*
X164202477Y-101963251D01*
X164200154Y-101968233D01*
X164200151Y-101968238D01*
X164108039Y-102165775D01*
X164105716Y-102170757D01*
X164104294Y-102176065D01*
X164104293Y-102176067D01*
X164053969Y-102363879D01*
X164046457Y-102391913D01*
X164026502Y-102620000D01*
X159033498Y-102620000D01*
X159013543Y-102391913D01*
X159006031Y-102363879D01*
X158955707Y-102176067D01*
X158955706Y-102176065D01*
X158954284Y-102170757D01*
X158951961Y-102165775D01*
X158859849Y-101968238D01*
X158859846Y-101968233D01*
X158857523Y-101963251D01*
X158726198Y-101775700D01*
X158564300Y-101613802D01*
X158559792Y-101610645D01*
X158559789Y-101610643D01*
X158462319Y-101542394D01*
X158376749Y-101482477D01*
X158371767Y-101480154D01*
X158371762Y-101480151D01*
X158174225Y-101388039D01*
X158174224Y-101388039D01*
X158169243Y-101385716D01*
X158163935Y-101384294D01*
X158163933Y-101384293D01*
X157953402Y-101327881D01*
X157953400Y-101327881D01*
X157948087Y-101326457D01*
X157720000Y-101306502D01*
X157491913Y-101326457D01*
X157486600Y-101327881D01*
X157486598Y-101327881D01*
X157276067Y-101384293D01*
X157276065Y-101384294D01*
X157270757Y-101385716D01*
X157265776Y-101388039D01*
X157265775Y-101388039D01*
X157068238Y-101480151D01*
X157068233Y-101480154D01*
X157063251Y-101482477D01*
X156977681Y-101542394D01*
X156880211Y-101610643D01*
X156880208Y-101610645D01*
X156875700Y-101613802D01*
X156713802Y-101775700D01*
X156582477Y-101963251D01*
X156580154Y-101968233D01*
X156580151Y-101968238D01*
X156488039Y-102165775D01*
X156485716Y-102170757D01*
X156484294Y-102176065D01*
X156484293Y-102176067D01*
X156433969Y-102363879D01*
X156426457Y-102391913D01*
X156406502Y-102620000D01*
X153399034Y-102620000D01*
X153399933Y-102608114D01*
X153402097Y-102593886D01*
X153403198Y-102586651D01*
X153398915Y-102533990D01*
X153398500Y-102523777D01*
X153398500Y-102515707D01*
X153398078Y-102512087D01*
X153398077Y-102512069D01*
X153395208Y-102487461D01*
X153394775Y-102483086D01*
X153394586Y-102480755D01*
X153388860Y-102410363D01*
X153386604Y-102403399D01*
X153385413Y-102397440D01*
X153384029Y-102391585D01*
X153383182Y-102384319D01*
X153358265Y-102315673D01*
X153356848Y-102311545D01*
X153336607Y-102249064D01*
X153336606Y-102249062D01*
X153334351Y-102242101D01*
X153330555Y-102235846D01*
X153328049Y-102230372D01*
X153325330Y-102224942D01*
X153322833Y-102218063D01*
X153282809Y-102157016D01*
X153280472Y-102153312D01*
X153245509Y-102095693D01*
X153245505Y-102095688D01*
X153242595Y-102090892D01*
X153235197Y-102082516D01*
X153235223Y-102082493D01*
X153232574Y-102079503D01*
X153229866Y-102076264D01*
X153225856Y-102070148D01*
X153220549Y-102065121D01*
X153220546Y-102065117D01*
X153169617Y-102016872D01*
X153167175Y-102014494D01*
X151524176Y-100371495D01*
X151490150Y-100309183D01*
X151488349Y-100265954D01*
X151511203Y-100092362D01*
X151511203Y-100092358D01*
X151511640Y-100089041D01*
X151513327Y-100020000D01*
X151510488Y-99985469D01*
X171547095Y-99985469D01*
X171547392Y-99990622D01*
X171547392Y-99990625D01*
X171553067Y-100089041D01*
X171560427Y-100216697D01*
X171561564Y-100221743D01*
X171561565Y-100221749D01*
X171585078Y-100326083D01*
X171611346Y-100442642D01*
X171613288Y-100447424D01*
X171613289Y-100447428D01*
X171696540Y-100652450D01*
X171698484Y-100657237D01*
X171819501Y-100854719D01*
X171822882Y-100858622D01*
X171931653Y-100984191D01*
X171961135Y-101048776D01*
X171951020Y-101119049D01*
X171904519Y-101172697D01*
X171880646Y-101184670D01*
X171821944Y-101206677D01*
X171806351Y-101215214D01*
X171704276Y-101291715D01*
X171691715Y-101304276D01*
X171615214Y-101406351D01*
X171606676Y-101421946D01*
X171561522Y-101542394D01*
X171557895Y-101557649D01*
X171552369Y-101608514D01*
X171552000Y-101615328D01*
X171552000Y-102287885D01*
X171556475Y-102303124D01*
X171557865Y-102304329D01*
X171565548Y-102306000D01*
X174349884Y-102306000D01*
X174365123Y-102301525D01*
X174366328Y-102300135D01*
X174367999Y-102292452D01*
X174367999Y-101615331D01*
X174367629Y-101608510D01*
X174362105Y-101557648D01*
X174358479Y-101542396D01*
X174313324Y-101421946D01*
X174304786Y-101406351D01*
X174228285Y-101304276D01*
X174215724Y-101291715D01*
X174113649Y-101215214D01*
X174098052Y-101206675D01*
X174039415Y-101184693D01*
X173982650Y-101142052D01*
X173957950Y-101075490D01*
X173973157Y-101006141D01*
X173994703Y-100977461D01*
X174032641Y-100939654D01*
X174036303Y-100936005D01*
X174171458Y-100747917D01*
X174183440Y-100723672D01*
X174231553Y-100671466D01*
X174296397Y-100653500D01*
X177665406Y-100653500D01*
X177733527Y-100673502D01*
X177754501Y-100690405D01*
X179270848Y-102206752D01*
X179304874Y-102269064D01*
X179303459Y-102328459D01*
X179287882Y-102386591D01*
X179287881Y-102386598D01*
X179286457Y-102391913D01*
X179266502Y-102620000D01*
X179286457Y-102848087D01*
X179345716Y-103069243D01*
X179348039Y-103074224D01*
X179348039Y-103074225D01*
X179440151Y-103271762D01*
X179440154Y-103271767D01*
X179442477Y-103276749D01*
X179573802Y-103464300D01*
X179735700Y-103626198D01*
X179740208Y-103629355D01*
X179740211Y-103629357D01*
X179818389Y-103684098D01*
X179923251Y-103757523D01*
X179928233Y-103759846D01*
X179928238Y-103759849D01*
X180125775Y-103851961D01*
X180130757Y-103854284D01*
X180136065Y-103855706D01*
X180136067Y-103855707D01*
X180346598Y-103912119D01*
X180346600Y-103912119D01*
X180351913Y-103913543D01*
X180580000Y-103933498D01*
X180808087Y-103913543D01*
X180813400Y-103912119D01*
X180813402Y-103912119D01*
X181023933Y-103855707D01*
X181023935Y-103855706D01*
X181029243Y-103854284D01*
X181034225Y-103851961D01*
X181231762Y-103759849D01*
X181231767Y-103759846D01*
X181236749Y-103757523D01*
X181341611Y-103684098D01*
X181419789Y-103629357D01*
X181419792Y-103629355D01*
X181424300Y-103626198D01*
X181586198Y-103464300D01*
X181717523Y-103276749D01*
X181719846Y-103271767D01*
X181719849Y-103271762D01*
X181811961Y-103074225D01*
X181811961Y-103074224D01*
X181814284Y-103069243D01*
X181873543Y-102848087D01*
X181893498Y-102620000D01*
X186886502Y-102620000D01*
X186906457Y-102848087D01*
X186965716Y-103069243D01*
X186968039Y-103074224D01*
X186968039Y-103074225D01*
X187060151Y-103271762D01*
X187060154Y-103271767D01*
X187062477Y-103276749D01*
X187193802Y-103464300D01*
X187355700Y-103626198D01*
X187360208Y-103629355D01*
X187360211Y-103629357D01*
X187438389Y-103684098D01*
X187543251Y-103757523D01*
X187548233Y-103759846D01*
X187548238Y-103759849D01*
X187745775Y-103851961D01*
X187750757Y-103854284D01*
X187756065Y-103855706D01*
X187756067Y-103855707D01*
X187966598Y-103912119D01*
X187966600Y-103912119D01*
X187971913Y-103913543D01*
X188200000Y-103933498D01*
X188428087Y-103913543D01*
X188433400Y-103912119D01*
X188433402Y-103912119D01*
X188643933Y-103855707D01*
X188643935Y-103855706D01*
X188649243Y-103854284D01*
X188654225Y-103851961D01*
X188851762Y-103759849D01*
X188851767Y-103759846D01*
X188856749Y-103757523D01*
X188961611Y-103684098D01*
X189039789Y-103629357D01*
X189039792Y-103629355D01*
X189044300Y-103626198D01*
X189206198Y-103464300D01*
X189337523Y-103276749D01*
X189339846Y-103271767D01*
X189339849Y-103271762D01*
X189431961Y-103074225D01*
X189431961Y-103074224D01*
X189434284Y-103069243D01*
X189493543Y-102848087D01*
X189513498Y-102620000D01*
X189493543Y-102391913D01*
X189486031Y-102363879D01*
X189435707Y-102176067D01*
X189435706Y-102176065D01*
X189434284Y-102170757D01*
X189431961Y-102165775D01*
X189339849Y-101968238D01*
X189339846Y-101968233D01*
X189337523Y-101963251D01*
X189206198Y-101775700D01*
X189044300Y-101613802D01*
X189039792Y-101610645D01*
X189039789Y-101610643D01*
X188942319Y-101542394D01*
X188856749Y-101482477D01*
X188851767Y-101480154D01*
X188851762Y-101480151D01*
X188654225Y-101388039D01*
X188654224Y-101388039D01*
X188649243Y-101385716D01*
X188643935Y-101384294D01*
X188643933Y-101384293D01*
X188433402Y-101327881D01*
X188433400Y-101327881D01*
X188428087Y-101326457D01*
X188200000Y-101306502D01*
X187971913Y-101326457D01*
X187966600Y-101327881D01*
X187966598Y-101327881D01*
X187756067Y-101384293D01*
X187756065Y-101384294D01*
X187750757Y-101385716D01*
X187745776Y-101388039D01*
X187745775Y-101388039D01*
X187548238Y-101480151D01*
X187548233Y-101480154D01*
X187543251Y-101482477D01*
X187457681Y-101542394D01*
X187360211Y-101610643D01*
X187360208Y-101610645D01*
X187355700Y-101613802D01*
X187193802Y-101775700D01*
X187062477Y-101963251D01*
X187060154Y-101968233D01*
X187060151Y-101968238D01*
X186968039Y-102165775D01*
X186965716Y-102170757D01*
X186964294Y-102176065D01*
X186964293Y-102176067D01*
X186913969Y-102363879D01*
X186906457Y-102391913D01*
X186886502Y-102620000D01*
X181893498Y-102620000D01*
X181873543Y-102391913D01*
X181866031Y-102363879D01*
X181815707Y-102176067D01*
X181815706Y-102176065D01*
X181814284Y-102170757D01*
X181811961Y-102165775D01*
X181719849Y-101968238D01*
X181719846Y-101968233D01*
X181717523Y-101963251D01*
X181586198Y-101775700D01*
X181424300Y-101613802D01*
X181419792Y-101610645D01*
X181419789Y-101610643D01*
X181322319Y-101542394D01*
X181236749Y-101482477D01*
X181231767Y-101480154D01*
X181231762Y-101480151D01*
X181034225Y-101388039D01*
X181034224Y-101388039D01*
X181029243Y-101385716D01*
X181023935Y-101384294D01*
X181023933Y-101384293D01*
X180813402Y-101327881D01*
X180813400Y-101327881D01*
X180808087Y-101326457D01*
X180580000Y-101306502D01*
X180351913Y-101326457D01*
X180288458Y-101343460D01*
X180217482Y-101341770D01*
X180166753Y-101310848D01*
X178483652Y-99627747D01*
X178476112Y-99619461D01*
X178472000Y-99612982D01*
X178422348Y-99566356D01*
X178419507Y-99563602D01*
X178399770Y-99543865D01*
X178396573Y-99541385D01*
X178387551Y-99533680D01*
X178361100Y-99508841D01*
X178355321Y-99503414D01*
X178348375Y-99499595D01*
X178348372Y-99499593D01*
X178337566Y-99493652D01*
X178321047Y-99482801D01*
X178320583Y-99482441D01*
X178305041Y-99470386D01*
X178297772Y-99467241D01*
X178297768Y-99467238D01*
X178264463Y-99452826D01*
X178253813Y-99447609D01*
X178215060Y-99426305D01*
X178195437Y-99421267D01*
X178176734Y-99414863D01*
X178165420Y-99409967D01*
X178165419Y-99409967D01*
X178158145Y-99406819D01*
X178150322Y-99405580D01*
X178150312Y-99405577D01*
X178114476Y-99399901D01*
X178102856Y-99397495D01*
X178067711Y-99388472D01*
X178067710Y-99388472D01*
X178060030Y-99386500D01*
X178039776Y-99386500D01*
X178020065Y-99384949D01*
X178007886Y-99383020D01*
X178000057Y-99381780D01*
X177966269Y-99384974D01*
X177956039Y-99385941D01*
X177944181Y-99386500D01*
X177681853Y-99386500D01*
X177662303Y-99384974D01*
X173576887Y-98743328D01*
X173544788Y-98733782D01*
X173543878Y-98733373D01*
X173539355Y-98730876D01*
X173534486Y-98729152D01*
X173534482Y-98729150D01*
X173325903Y-98655288D01*
X173325899Y-98655287D01*
X173321028Y-98653562D01*
X173315935Y-98652655D01*
X173315932Y-98652654D01*
X173098095Y-98613851D01*
X173098089Y-98613850D01*
X173093006Y-98612945D01*
X173020096Y-98612054D01*
X172866581Y-98610179D01*
X172866579Y-98610179D01*
X172861411Y-98610116D01*
X172632464Y-98645150D01*
X172412314Y-98717106D01*
X172407726Y-98719494D01*
X172407722Y-98719496D01*
X172211461Y-98821663D01*
X172206872Y-98824052D01*
X172202739Y-98827155D01*
X172202736Y-98827157D01*
X172025790Y-98960012D01*
X172021655Y-98963117D01*
X171861639Y-99130564D01*
X171858725Y-99134836D01*
X171858724Y-99134837D01*
X171843152Y-99157665D01*
X171731119Y-99321899D01*
X171633602Y-99531981D01*
X171571707Y-99755169D01*
X171547095Y-99985469D01*
X151510488Y-99985469D01*
X151507032Y-99943434D01*
X151494773Y-99794318D01*
X151494772Y-99794312D01*
X151494349Y-99789167D01*
X151437925Y-99564533D01*
X151430158Y-99546669D01*
X151347630Y-99356868D01*
X151347628Y-99356865D01*
X151345570Y-99352131D01*
X151219764Y-99157665D01*
X151063887Y-98986358D01*
X151059836Y-98983159D01*
X151059832Y-98983155D01*
X150886177Y-98846011D01*
X150886172Y-98846008D01*
X150882123Y-98842810D01*
X150877607Y-98840317D01*
X150877604Y-98840315D01*
X150683879Y-98733373D01*
X150683875Y-98733371D01*
X150679355Y-98730876D01*
X150674486Y-98729152D01*
X150674482Y-98729150D01*
X150465903Y-98655288D01*
X150465899Y-98655287D01*
X150461028Y-98653562D01*
X150455935Y-98652655D01*
X150455932Y-98652654D01*
X150238095Y-98613851D01*
X150238089Y-98613850D01*
X150233006Y-98612945D01*
X150160096Y-98612054D01*
X150006581Y-98610179D01*
X150006579Y-98610179D01*
X150001411Y-98610116D01*
X149772464Y-98645150D01*
X149552314Y-98717106D01*
X149547726Y-98719494D01*
X149547722Y-98719496D01*
X149351461Y-98821663D01*
X149346872Y-98824052D01*
X149342739Y-98827155D01*
X149342736Y-98827157D01*
X149165790Y-98960012D01*
X149161655Y-98963117D01*
X149001639Y-99130564D01*
X148998725Y-99134836D01*
X148998724Y-99134837D01*
X148983152Y-99157665D01*
X148871119Y-99321899D01*
X148773602Y-99531981D01*
X148711707Y-99755169D01*
X148687095Y-99985469D01*
X137468500Y-99985469D01*
X137468500Y-95944669D01*
X148692001Y-95944669D01*
X148692371Y-95951490D01*
X148697895Y-96002352D01*
X148701521Y-96017604D01*
X148746676Y-96138054D01*
X148755214Y-96153649D01*
X148831715Y-96255724D01*
X148844276Y-96268285D01*
X148946351Y-96344786D01*
X148961946Y-96353324D01*
X149082394Y-96398478D01*
X149097649Y-96402105D01*
X149148514Y-96407631D01*
X149155328Y-96408000D01*
X149827885Y-96408000D01*
X149843124Y-96403525D01*
X149844329Y-96402135D01*
X149846000Y-96394452D01*
X149846000Y-96389884D01*
X150354000Y-96389884D01*
X150358475Y-96405123D01*
X150359865Y-96406328D01*
X150367548Y-96407999D01*
X151044669Y-96407999D01*
X151051490Y-96407629D01*
X151102352Y-96402105D01*
X151117604Y-96398479D01*
X151238054Y-96353324D01*
X151253649Y-96344786D01*
X151355724Y-96268285D01*
X151368285Y-96255724D01*
X151444786Y-96153649D01*
X151453324Y-96138054D01*
X151498478Y-96017606D01*
X151502105Y-96002351D01*
X151507631Y-95951486D01*
X151508000Y-95944672D01*
X151508000Y-95944669D01*
X171552001Y-95944669D01*
X171552371Y-95951490D01*
X171557895Y-96002352D01*
X171561521Y-96017604D01*
X171606676Y-96138054D01*
X171615214Y-96153649D01*
X171691715Y-96255724D01*
X171704276Y-96268285D01*
X171806351Y-96344786D01*
X171821946Y-96353324D01*
X171942394Y-96398478D01*
X171957649Y-96402105D01*
X172008514Y-96407631D01*
X172015328Y-96408000D01*
X172687885Y-96408000D01*
X172703124Y-96403525D01*
X172704329Y-96402135D01*
X172706000Y-96394452D01*
X172706000Y-96389884D01*
X173214000Y-96389884D01*
X173218475Y-96405123D01*
X173219865Y-96406328D01*
X173227548Y-96407999D01*
X173904669Y-96407999D01*
X173911490Y-96407629D01*
X173962352Y-96402105D01*
X173977604Y-96398479D01*
X174098054Y-96353324D01*
X174113649Y-96344786D01*
X174215724Y-96268285D01*
X174228285Y-96255724D01*
X174304786Y-96153649D01*
X174313324Y-96138054D01*
X174358478Y-96017606D01*
X174362105Y-96002351D01*
X174367631Y-95951486D01*
X174368000Y-95944672D01*
X174368000Y-95944669D01*
X194412001Y-95944669D01*
X194412371Y-95951490D01*
X194417895Y-96002352D01*
X194421521Y-96017604D01*
X194466676Y-96138054D01*
X194475214Y-96153649D01*
X194551715Y-96255724D01*
X194564276Y-96268285D01*
X194666351Y-96344786D01*
X194681946Y-96353324D01*
X194802394Y-96398478D01*
X194817649Y-96402105D01*
X194868514Y-96407631D01*
X194875328Y-96408000D01*
X195547885Y-96408000D01*
X195563124Y-96403525D01*
X195564329Y-96402135D01*
X195566000Y-96394452D01*
X195566000Y-96389884D01*
X196074000Y-96389884D01*
X196078475Y-96405123D01*
X196079865Y-96406328D01*
X196087548Y-96407999D01*
X196764669Y-96407999D01*
X196771490Y-96407629D01*
X196822352Y-96402105D01*
X196837604Y-96398479D01*
X196958054Y-96353324D01*
X196973649Y-96344786D01*
X197075724Y-96268285D01*
X197088285Y-96255724D01*
X197164786Y-96153649D01*
X197173324Y-96138054D01*
X197218478Y-96017606D01*
X197222105Y-96002351D01*
X197227631Y-95951486D01*
X197228000Y-95944672D01*
X197228000Y-95272115D01*
X197223525Y-95256876D01*
X197222135Y-95255671D01*
X197214452Y-95254000D01*
X196092115Y-95254000D01*
X196076876Y-95258475D01*
X196075671Y-95259865D01*
X196074000Y-95267548D01*
X196074000Y-96389884D01*
X195566000Y-96389884D01*
X195566000Y-95272115D01*
X195561525Y-95256876D01*
X195560135Y-95255671D01*
X195552452Y-95254000D01*
X194430116Y-95254000D01*
X194414877Y-95258475D01*
X194413672Y-95259865D01*
X194412001Y-95267548D01*
X194412001Y-95944669D01*
X174368000Y-95944669D01*
X174368000Y-95272115D01*
X174363525Y-95256876D01*
X174362135Y-95255671D01*
X174354452Y-95254000D01*
X173232115Y-95254000D01*
X173216876Y-95258475D01*
X173215671Y-95259865D01*
X173214000Y-95267548D01*
X173214000Y-96389884D01*
X172706000Y-96389884D01*
X172706000Y-95272115D01*
X172701525Y-95256876D01*
X172700135Y-95255671D01*
X172692452Y-95254000D01*
X171570116Y-95254000D01*
X171554877Y-95258475D01*
X171553672Y-95259865D01*
X171552001Y-95267548D01*
X171552001Y-95944669D01*
X151508000Y-95944669D01*
X151508000Y-95272115D01*
X151503525Y-95256876D01*
X151502135Y-95255671D01*
X151494452Y-95254000D01*
X150372115Y-95254000D01*
X150356876Y-95258475D01*
X150355671Y-95259865D01*
X150354000Y-95267548D01*
X150354000Y-96389884D01*
X149846000Y-96389884D01*
X149846000Y-95272115D01*
X149841525Y-95256876D01*
X149840135Y-95255671D01*
X149832452Y-95254000D01*
X148710116Y-95254000D01*
X148694877Y-95258475D01*
X148693672Y-95259865D01*
X148692001Y-95267548D01*
X148692001Y-95944669D01*
X137468500Y-95944669D01*
X137468500Y-92425469D01*
X148687095Y-92425469D01*
X148687392Y-92430622D01*
X148687392Y-92430625D01*
X148693067Y-92529041D01*
X148700427Y-92656697D01*
X148701564Y-92661743D01*
X148701565Y-92661749D01*
X148726795Y-92773702D01*
X148751346Y-92882642D01*
X148753288Y-92887424D01*
X148753289Y-92887428D01*
X148817387Y-93045281D01*
X148838484Y-93097237D01*
X148901735Y-93200453D01*
X148956799Y-93290309D01*
X148959501Y-93294719D01*
X148962882Y-93298622D01*
X149071653Y-93424191D01*
X149101135Y-93488776D01*
X149091020Y-93559049D01*
X149044519Y-93612697D01*
X149020646Y-93624670D01*
X148961944Y-93646677D01*
X148946351Y-93655214D01*
X148844276Y-93731715D01*
X148831715Y-93744276D01*
X148755214Y-93846351D01*
X148746676Y-93861946D01*
X148701522Y-93982394D01*
X148697895Y-93997649D01*
X148692369Y-94048514D01*
X148692000Y-94055328D01*
X148692000Y-94727885D01*
X148696475Y-94743124D01*
X148697865Y-94744329D01*
X148705548Y-94746000D01*
X151489884Y-94746000D01*
X151505123Y-94741525D01*
X151506328Y-94740135D01*
X151507999Y-94732452D01*
X151507999Y-94055331D01*
X151507629Y-94048510D01*
X151502105Y-93997648D01*
X151498479Y-93982396D01*
X151453324Y-93861946D01*
X151444786Y-93846351D01*
X151368285Y-93744276D01*
X151355724Y-93731715D01*
X151253649Y-93655214D01*
X151238052Y-93646675D01*
X151179415Y-93624693D01*
X151122650Y-93582052D01*
X151097950Y-93515490D01*
X151113157Y-93446141D01*
X151134703Y-93417461D01*
X151172642Y-93379653D01*
X151176303Y-93376005D01*
X151251777Y-93270973D01*
X151307770Y-93227326D01*
X151354098Y-93218500D01*
X156588133Y-93218500D01*
X156656254Y-93238502D01*
X156691345Y-93272228D01*
X156713802Y-93304300D01*
X156875700Y-93466198D01*
X156880208Y-93469355D01*
X156880211Y-93469357D01*
X156918344Y-93496058D01*
X157063251Y-93597523D01*
X157068233Y-93599846D01*
X157068238Y-93599849D01*
X157261737Y-93690078D01*
X157270757Y-93694284D01*
X157276065Y-93695706D01*
X157276067Y-93695707D01*
X157486598Y-93752119D01*
X157486600Y-93752119D01*
X157491913Y-93753543D01*
X157720000Y-93773498D01*
X157948087Y-93753543D01*
X157953400Y-93752119D01*
X157953402Y-93752119D01*
X158163933Y-93695707D01*
X158163935Y-93695706D01*
X158169243Y-93694284D01*
X158178263Y-93690078D01*
X158371762Y-93599849D01*
X158371767Y-93599846D01*
X158376749Y-93597523D01*
X158521656Y-93496058D01*
X158559789Y-93469357D01*
X158559792Y-93469355D01*
X158564300Y-93466198D01*
X158726198Y-93304300D01*
X158735989Y-93290318D01*
X158799281Y-93199927D01*
X158857523Y-93116749D01*
X158859846Y-93111767D01*
X158859849Y-93111762D01*
X158951961Y-92914225D01*
X158951961Y-92914224D01*
X158954284Y-92909243D01*
X159013543Y-92688087D01*
X159014022Y-92682613D01*
X159014023Y-92682607D01*
X159014239Y-92680132D01*
X159014639Y-92679108D01*
X159014978Y-92677188D01*
X159015364Y-92677256D01*
X159040101Y-92614013D01*
X159050665Y-92602016D01*
X167544103Y-84108578D01*
X167606415Y-84074552D01*
X167660255Y-84074612D01*
X167662129Y-84075024D01*
X167667227Y-84076607D01*
X167750263Y-84087612D01*
X167890489Y-84106198D01*
X167890494Y-84106198D01*
X167895774Y-84106898D01*
X167901103Y-84106698D01*
X167901105Y-84106698D01*
X168015108Y-84102418D01*
X168126158Y-84098249D01*
X168131468Y-84097135D01*
X168346572Y-84052002D01*
X168351791Y-84050907D01*
X168356750Y-84048949D01*
X168356752Y-84048948D01*
X168561256Y-83968185D01*
X168561258Y-83968184D01*
X168566221Y-83966224D01*
X168604810Y-83942808D01*
X168758757Y-83849390D01*
X168758756Y-83849390D01*
X168763317Y-83846623D01*
X168803493Y-83811760D01*
X168933412Y-83699023D01*
X168933414Y-83699021D01*
X168937445Y-83695523D01*
X169005967Y-83611955D01*
X169080240Y-83521373D01*
X169080244Y-83521367D01*
X169083624Y-83517245D01*
X169101552Y-83485750D01*
X169152632Y-83436445D01*
X169222262Y-83422583D01*
X169288333Y-83448566D01*
X169315573Y-83477716D01*
X169397441Y-83599319D01*
X169556576Y-83766135D01*
X169560854Y-83769318D01*
X169650713Y-83836175D01*
X169693426Y-83892885D01*
X169701500Y-83937264D01*
X169701500Y-89593629D01*
X169681498Y-89661750D01*
X169664595Y-89682724D01*
X167682724Y-91664595D01*
X167620412Y-91698621D01*
X167593629Y-91701500D01*
X166471867Y-91701500D01*
X166403746Y-91681498D01*
X166368655Y-91647772D01*
X166346198Y-91615700D01*
X166184300Y-91453802D01*
X166179792Y-91450645D01*
X166179789Y-91450643D01*
X166101611Y-91395902D01*
X165996749Y-91322477D01*
X165991767Y-91320154D01*
X165991762Y-91320151D01*
X165794225Y-91228039D01*
X165794224Y-91228039D01*
X165789243Y-91225716D01*
X165783935Y-91224294D01*
X165783933Y-91224293D01*
X165573402Y-91167881D01*
X165573400Y-91167881D01*
X165568087Y-91166457D01*
X165340000Y-91146502D01*
X165111913Y-91166457D01*
X165106600Y-91167881D01*
X165106598Y-91167881D01*
X164896067Y-91224293D01*
X164896065Y-91224294D01*
X164890757Y-91225716D01*
X164885776Y-91228039D01*
X164885775Y-91228039D01*
X164688238Y-91320151D01*
X164688233Y-91320154D01*
X164683251Y-91322477D01*
X164578389Y-91395902D01*
X164500211Y-91450643D01*
X164500208Y-91450645D01*
X164495700Y-91453802D01*
X164333802Y-91615700D01*
X164330645Y-91620208D01*
X164330643Y-91620211D01*
X164312232Y-91646505D01*
X164202477Y-91803251D01*
X164200154Y-91808233D01*
X164200151Y-91808238D01*
X164158364Y-91897852D01*
X164105716Y-92010757D01*
X164104294Y-92016065D01*
X164104293Y-92016067D01*
X164054927Y-92200301D01*
X164046457Y-92231913D01*
X164026502Y-92460000D01*
X164046457Y-92688087D01*
X164047881Y-92693400D01*
X164047881Y-92693402D01*
X164099871Y-92887428D01*
X164105716Y-92909243D01*
X164108039Y-92914224D01*
X164108039Y-92914225D01*
X164200151Y-93111762D01*
X164200154Y-93111767D01*
X164202477Y-93116749D01*
X164260719Y-93199927D01*
X164324012Y-93290318D01*
X164333802Y-93304300D01*
X164495700Y-93466198D01*
X164500208Y-93469355D01*
X164500211Y-93469357D01*
X164538344Y-93496058D01*
X164683251Y-93597523D01*
X164688233Y-93599846D01*
X164688238Y-93599849D01*
X164881737Y-93690078D01*
X164890757Y-93694284D01*
X164896065Y-93695706D01*
X164896067Y-93695707D01*
X165106598Y-93752119D01*
X165106600Y-93752119D01*
X165111913Y-93753543D01*
X165340000Y-93773498D01*
X165568087Y-93753543D01*
X165573400Y-93752119D01*
X165573402Y-93752119D01*
X165743824Y-93706454D01*
X165789243Y-93694284D01*
X165794232Y-93691957D01*
X165799396Y-93690078D01*
X165800002Y-93691744D01*
X165844863Y-93682082D01*
X166602216Y-93691098D01*
X169030000Y-93720000D01*
X170476787Y-92273213D01*
X170506474Y-92251192D01*
X170532284Y-92237393D01*
X170956178Y-92010757D01*
X171187772Y-91886935D01*
X171257276Y-91872456D01*
X171323575Y-91897852D01*
X171336275Y-91908956D01*
X171534017Y-92106698D01*
X171568043Y-92169010D01*
X171570209Y-92209182D01*
X171563366Y-92273213D01*
X171547095Y-92425469D01*
X171547392Y-92430622D01*
X171547392Y-92430625D01*
X171553067Y-92529041D01*
X171560427Y-92656697D01*
X171561564Y-92661743D01*
X171561565Y-92661749D01*
X171586795Y-92773702D01*
X171611346Y-92882642D01*
X171613288Y-92887424D01*
X171613289Y-92887428D01*
X171677387Y-93045281D01*
X171698484Y-93097237D01*
X171761735Y-93200453D01*
X171816799Y-93290309D01*
X171819501Y-93294719D01*
X171822882Y-93298622D01*
X171931653Y-93424191D01*
X171961135Y-93488776D01*
X171951020Y-93559049D01*
X171904519Y-93612697D01*
X171880646Y-93624670D01*
X171821944Y-93646677D01*
X171806351Y-93655214D01*
X171704276Y-93731715D01*
X171691715Y-93744276D01*
X171615214Y-93846351D01*
X171606676Y-93861946D01*
X171561522Y-93982394D01*
X171557895Y-93997649D01*
X171552369Y-94048514D01*
X171552000Y-94055328D01*
X171552000Y-94727885D01*
X171556475Y-94743124D01*
X171557865Y-94744329D01*
X171565548Y-94746000D01*
X174349884Y-94746000D01*
X174365123Y-94741525D01*
X174366328Y-94740135D01*
X174367999Y-94732452D01*
X174367999Y-94055331D01*
X174367629Y-94048510D01*
X174362105Y-93997648D01*
X174358479Y-93982396D01*
X174313324Y-93861946D01*
X174304786Y-93846351D01*
X174228285Y-93744276D01*
X174215724Y-93731715D01*
X174113649Y-93655214D01*
X174098052Y-93646675D01*
X174039415Y-93624693D01*
X173982650Y-93582052D01*
X173957950Y-93515490D01*
X173973157Y-93446141D01*
X173994703Y-93417461D01*
X174032641Y-93379654D01*
X174032642Y-93379653D01*
X174036303Y-93376005D01*
X174171458Y-93187917D01*
X174193871Y-93142569D01*
X174271784Y-92984922D01*
X174271785Y-92984920D01*
X174274078Y-92980280D01*
X174341408Y-92758671D01*
X174371640Y-92529041D01*
X174373327Y-92460000D01*
X174367032Y-92383434D01*
X174354773Y-92234318D01*
X174354772Y-92234312D01*
X174354349Y-92229167D01*
X174300822Y-92016067D01*
X174299184Y-92009544D01*
X174299183Y-92009540D01*
X174297925Y-92004533D01*
X174295866Y-91999797D01*
X174207630Y-91796868D01*
X174207628Y-91796865D01*
X174205570Y-91792131D01*
X174079764Y-91597665D01*
X173923887Y-91426358D01*
X173919836Y-91423159D01*
X173919832Y-91423155D01*
X173746177Y-91286011D01*
X173746172Y-91286008D01*
X173742123Y-91282810D01*
X173737607Y-91280317D01*
X173737604Y-91280315D01*
X173543879Y-91173373D01*
X173543875Y-91173371D01*
X173539355Y-91170876D01*
X173534486Y-91169152D01*
X173534482Y-91169150D01*
X173325903Y-91095288D01*
X173325899Y-91095287D01*
X173321028Y-91093562D01*
X173315935Y-91092655D01*
X173315932Y-91092654D01*
X173098095Y-91053851D01*
X173098089Y-91053850D01*
X173093006Y-91052945D01*
X173020096Y-91052054D01*
X172866581Y-91050179D01*
X172866579Y-91050179D01*
X172861411Y-91050116D01*
X172717515Y-91072135D01*
X172647152Y-91062667D01*
X172609361Y-91036680D01*
X171255405Y-89682724D01*
X171221379Y-89620412D01*
X171218500Y-89593629D01*
X171218500Y-83942808D01*
X171238502Y-83874687D01*
X171264103Y-83847529D01*
X171263317Y-83846623D01*
X171433412Y-83699023D01*
X171433414Y-83699021D01*
X171437445Y-83695523D01*
X171505967Y-83611955D01*
X171580240Y-83521373D01*
X171580244Y-83521367D01*
X171583624Y-83517245D01*
X171601552Y-83485750D01*
X171652632Y-83436445D01*
X171722262Y-83422583D01*
X171788333Y-83448566D01*
X171815573Y-83477716D01*
X171897441Y-83599319D01*
X172056576Y-83766135D01*
X172241542Y-83903754D01*
X172246293Y-83906170D01*
X172246297Y-83906172D01*
X172326477Y-83946937D01*
X172447051Y-84008240D01*
X172452145Y-84009822D01*
X172452148Y-84009823D01*
X172648307Y-84070732D01*
X172667227Y-84076607D01*
X172672516Y-84077308D01*
X172890489Y-84106198D01*
X172890494Y-84106198D01*
X172895774Y-84106898D01*
X172901103Y-84106698D01*
X172901105Y-84106698D01*
X173015108Y-84102418D01*
X173126158Y-84098249D01*
X173257303Y-84070732D01*
X173328078Y-84076319D01*
X173372271Y-84104952D01*
X174518854Y-85251535D01*
X174535923Y-85272769D01*
X179283594Y-92700161D01*
X179299137Y-92735410D01*
X179310507Y-92777841D01*
X179345716Y-92909243D01*
X179348039Y-92914224D01*
X179348039Y-92914225D01*
X179440151Y-93111762D01*
X179440154Y-93111767D01*
X179442477Y-93116749D01*
X179500719Y-93199927D01*
X179564012Y-93290318D01*
X179573802Y-93304300D01*
X179735700Y-93466198D01*
X179740208Y-93469355D01*
X179740211Y-93469357D01*
X179778344Y-93496058D01*
X179923251Y-93597523D01*
X179928233Y-93599846D01*
X179928238Y-93599849D01*
X180121737Y-93690078D01*
X180130757Y-93694284D01*
X180136065Y-93695706D01*
X180136067Y-93695707D01*
X180346598Y-93752119D01*
X180346600Y-93752119D01*
X180351913Y-93753543D01*
X180580000Y-93773498D01*
X180808087Y-93753543D01*
X180813403Y-93752118D01*
X180813406Y-93752118D01*
X180840156Y-93744950D01*
X180873093Y-93740656D01*
X188031696Y-93759226D01*
X188042343Y-93759705D01*
X188200000Y-93773498D01*
X188428087Y-93753543D01*
X188433400Y-93752119D01*
X188433402Y-93752119D01*
X188643933Y-93695707D01*
X188643935Y-93695706D01*
X188649243Y-93694284D01*
X188658263Y-93690078D01*
X188851762Y-93599849D01*
X188851767Y-93599846D01*
X188856749Y-93597523D01*
X189001656Y-93496058D01*
X189039789Y-93469357D01*
X189039792Y-93469355D01*
X189044300Y-93466198D01*
X189206198Y-93304300D01*
X189228655Y-93272229D01*
X189284110Y-93227901D01*
X189331867Y-93218500D01*
X194562230Y-93218500D01*
X194630351Y-93238502D01*
X194669662Y-93278665D01*
X194676798Y-93290309D01*
X194676801Y-93290314D01*
X194679501Y-93294719D01*
X194682882Y-93298622D01*
X194791653Y-93424191D01*
X194821135Y-93488776D01*
X194811020Y-93559049D01*
X194764519Y-93612697D01*
X194740646Y-93624670D01*
X194681944Y-93646677D01*
X194666351Y-93655214D01*
X194564276Y-93731715D01*
X194551715Y-93744276D01*
X194475214Y-93846351D01*
X194466676Y-93861946D01*
X194421522Y-93982394D01*
X194417895Y-93997649D01*
X194412369Y-94048514D01*
X194412000Y-94055328D01*
X194412000Y-94727885D01*
X194416475Y-94743124D01*
X194417865Y-94744329D01*
X194425548Y-94746000D01*
X197209884Y-94746000D01*
X197225123Y-94741525D01*
X197226328Y-94740135D01*
X197227999Y-94732452D01*
X197227999Y-94055331D01*
X197227629Y-94048510D01*
X197222105Y-93997648D01*
X197218479Y-93982396D01*
X197173324Y-93861946D01*
X197164786Y-93846351D01*
X197088285Y-93744276D01*
X197075724Y-93731715D01*
X196973649Y-93655214D01*
X196958052Y-93646675D01*
X196899415Y-93624693D01*
X196842650Y-93582052D01*
X196817950Y-93515490D01*
X196833157Y-93446141D01*
X196854703Y-93417461D01*
X196892641Y-93379654D01*
X196892642Y-93379653D01*
X196896303Y-93376005D01*
X197031458Y-93187917D01*
X197053871Y-93142569D01*
X197131784Y-92984922D01*
X197131785Y-92984920D01*
X197134078Y-92980280D01*
X197201408Y-92758671D01*
X197231640Y-92529041D01*
X197233327Y-92460000D01*
X197227032Y-92383434D01*
X197214773Y-92234318D01*
X197214772Y-92234312D01*
X197214349Y-92229167D01*
X197160822Y-92016067D01*
X197159184Y-92009544D01*
X197159183Y-92009540D01*
X197157925Y-92004533D01*
X197155866Y-91999797D01*
X197067630Y-91796868D01*
X197067628Y-91796865D01*
X197065570Y-91792131D01*
X196939764Y-91597665D01*
X196783887Y-91426358D01*
X196779836Y-91423159D01*
X196779832Y-91423155D01*
X196606177Y-91286011D01*
X196606172Y-91286008D01*
X196602123Y-91282810D01*
X196597607Y-91280317D01*
X196597604Y-91280315D01*
X196403879Y-91173373D01*
X196403875Y-91173371D01*
X196399355Y-91170876D01*
X196394486Y-91169152D01*
X196394482Y-91169150D01*
X196185903Y-91095288D01*
X196185899Y-91095287D01*
X196181028Y-91093562D01*
X196175935Y-91092655D01*
X196175932Y-91092654D01*
X195958095Y-91053851D01*
X195958089Y-91053850D01*
X195953006Y-91052945D01*
X195880096Y-91052054D01*
X195726581Y-91050179D01*
X195726579Y-91050179D01*
X195721411Y-91050116D01*
X195492464Y-91085150D01*
X195272314Y-91157106D01*
X195267726Y-91159494D01*
X195267722Y-91159496D01*
X195134936Y-91228620D01*
X195066872Y-91264052D01*
X195062739Y-91267155D01*
X195062736Y-91267157D01*
X194885790Y-91400012D01*
X194881655Y-91403117D01*
X194721639Y-91570564D01*
X194703152Y-91597665D01*
X194669835Y-91646505D01*
X194614923Y-91691507D01*
X194565747Y-91701500D01*
X189331867Y-91701500D01*
X189263746Y-91681498D01*
X189228655Y-91647772D01*
X189206198Y-91615700D01*
X189044300Y-91453802D01*
X189039792Y-91450645D01*
X189039789Y-91450643D01*
X188961611Y-91395902D01*
X188856749Y-91322477D01*
X188851767Y-91320154D01*
X188851762Y-91320151D01*
X188654225Y-91228039D01*
X188654224Y-91228039D01*
X188649243Y-91225716D01*
X188643935Y-91224294D01*
X188643933Y-91224293D01*
X188433402Y-91167881D01*
X188433400Y-91167881D01*
X188428087Y-91166457D01*
X188200000Y-91146502D01*
X187971913Y-91166457D01*
X187966600Y-91167881D01*
X187966598Y-91167881D01*
X187756067Y-91224293D01*
X187756065Y-91224294D01*
X187750757Y-91225716D01*
X187745776Y-91228039D01*
X187745775Y-91228039D01*
X187548238Y-91320151D01*
X187548233Y-91320154D01*
X187543251Y-91322477D01*
X187438389Y-91395902D01*
X187360211Y-91450643D01*
X187360208Y-91450645D01*
X187355700Y-91453802D01*
X187193802Y-91615700D01*
X187171345Y-91647771D01*
X187115890Y-91692099D01*
X187068133Y-91701500D01*
X183166371Y-91701500D01*
X183098250Y-91681498D01*
X183077276Y-91664595D01*
X182518972Y-91106291D01*
X182509784Y-91096040D01*
X177044407Y-84283151D01*
X177017382Y-84217499D01*
X177030143Y-84147658D01*
X177078636Y-84095803D01*
X177147466Y-84078398D01*
X177182357Y-84084714D01*
X177198707Y-84090137D01*
X177212086Y-84093005D01*
X177306438Y-84102672D01*
X177312854Y-84103000D01*
X177687885Y-84103000D01*
X177703124Y-84098525D01*
X177704329Y-84097135D01*
X177706000Y-84089452D01*
X177706000Y-84084884D01*
X178214000Y-84084884D01*
X178218475Y-84100123D01*
X178219865Y-84101328D01*
X178227548Y-84102999D01*
X178607095Y-84102999D01*
X178613614Y-84102662D01*
X178709206Y-84092743D01*
X178722600Y-84089851D01*
X178876784Y-84038412D01*
X178889962Y-84032239D01*
X179027807Y-83946937D01*
X179039208Y-83937901D01*
X179153739Y-83823171D01*
X179162751Y-83811760D01*
X179247816Y-83673757D01*
X179253963Y-83660576D01*
X179305138Y-83506290D01*
X179308005Y-83492914D01*
X179317672Y-83398562D01*
X179318000Y-83392146D01*
X179318000Y-82892115D01*
X179313525Y-82876876D01*
X179312135Y-82875671D01*
X179304452Y-82874000D01*
X178232115Y-82874000D01*
X178216876Y-82878475D01*
X178215671Y-82879865D01*
X178214000Y-82887548D01*
X178214000Y-84084884D01*
X177706000Y-84084884D01*
X177706000Y-82347885D01*
X178214000Y-82347885D01*
X178218475Y-82363124D01*
X178219865Y-82364329D01*
X178227548Y-82366000D01*
X179299884Y-82366000D01*
X179315123Y-82361525D01*
X179316328Y-82360135D01*
X179317999Y-82352452D01*
X179317999Y-81847905D01*
X179317662Y-81841386D01*
X179307743Y-81745794D01*
X179304851Y-81732400D01*
X179253412Y-81578216D01*
X179247239Y-81565038D01*
X179161937Y-81427193D01*
X179152901Y-81415792D01*
X179038171Y-81301261D01*
X179026760Y-81292249D01*
X178888757Y-81207184D01*
X178875576Y-81201037D01*
X178721290Y-81149862D01*
X178707914Y-81146995D01*
X178613562Y-81137328D01*
X178607145Y-81137000D01*
X178232115Y-81137000D01*
X178216876Y-81141475D01*
X178215671Y-81142865D01*
X178214000Y-81150548D01*
X178214000Y-82347885D01*
X177706000Y-82347885D01*
X177706000Y-81155116D01*
X177701525Y-81139877D01*
X177700135Y-81138672D01*
X177692452Y-81137001D01*
X177312905Y-81137001D01*
X177306386Y-81137338D01*
X177210794Y-81147257D01*
X177197400Y-81150149D01*
X177043216Y-81201588D01*
X177030038Y-81207761D01*
X176892193Y-81293063D01*
X176880792Y-81302099D01*
X176766261Y-81416829D01*
X176757247Y-81428243D01*
X176671277Y-81567713D01*
X176618505Y-81615207D01*
X176548434Y-81626631D01*
X176483310Y-81598357D01*
X176472847Y-81588570D01*
X176452951Y-81567713D01*
X176363424Y-81473865D01*
X176178458Y-81336246D01*
X176173707Y-81333830D01*
X176173703Y-81333828D01*
X176051731Y-81271815D01*
X175972949Y-81231760D01*
X175967855Y-81230178D01*
X175967852Y-81230177D01*
X175757871Y-81164976D01*
X175752773Y-81163393D01*
X175747484Y-81162692D01*
X175529511Y-81133802D01*
X175529506Y-81133802D01*
X175524226Y-81133102D01*
X175518897Y-81133302D01*
X175518895Y-81133302D01*
X175420368Y-81137001D01*
X175293842Y-81141751D01*
X175288623Y-81142846D01*
X175268849Y-81146995D01*
X175068209Y-81189093D01*
X175068114Y-81188639D01*
X175041694Y-81192844D01*
X174372352Y-81208934D01*
X173490000Y-81230144D01*
X173449608Y-81224512D01*
X173257875Y-81164977D01*
X173257872Y-81164976D01*
X173252773Y-81163393D01*
X173247484Y-81162692D01*
X173029511Y-81133802D01*
X173029506Y-81133802D01*
X173024226Y-81133102D01*
X173018897Y-81133302D01*
X173018895Y-81133302D01*
X172920368Y-81137001D01*
X172793842Y-81141751D01*
X172788623Y-81142846D01*
X172768849Y-81146995D01*
X172568209Y-81189093D01*
X172563250Y-81191051D01*
X172563248Y-81191052D01*
X172358744Y-81271815D01*
X172358742Y-81271816D01*
X172353779Y-81273776D01*
X172349220Y-81276543D01*
X172349217Y-81276544D01*
X172250832Y-81336246D01*
X172156683Y-81393377D01*
X172152653Y-81396874D01*
X172059484Y-81477722D01*
X171982555Y-81544477D01*
X171979168Y-81548608D01*
X171839760Y-81718627D01*
X171839756Y-81718633D01*
X171836376Y-81722755D01*
X171818448Y-81754250D01*
X171767368Y-81803555D01*
X171697738Y-81817417D01*
X171631667Y-81791434D01*
X171604427Y-81762284D01*
X171525539Y-81645108D01*
X171522559Y-81640681D01*
X171472848Y-81588570D01*
X171367103Y-81477722D01*
X171363424Y-81473865D01*
X171178458Y-81336246D01*
X171173707Y-81333830D01*
X171173703Y-81333828D01*
X171051731Y-81271815D01*
X170972949Y-81231760D01*
X170967855Y-81230178D01*
X170967852Y-81230177D01*
X170757871Y-81164976D01*
X170752773Y-81163393D01*
X170747484Y-81162692D01*
X170529511Y-81133802D01*
X170529506Y-81133802D01*
X170524226Y-81133102D01*
X170518897Y-81133302D01*
X170518895Y-81133302D01*
X170420368Y-81137001D01*
X170293842Y-81141751D01*
X170288623Y-81142846D01*
X170268849Y-81146995D01*
X170068209Y-81189093D01*
X170063250Y-81191051D01*
X170063248Y-81191052D01*
X169858744Y-81271815D01*
X169858742Y-81271816D01*
X169853779Y-81273776D01*
X169849220Y-81276543D01*
X169849217Y-81276544D01*
X169750832Y-81336246D01*
X169656683Y-81393377D01*
X169652653Y-81396874D01*
X169559484Y-81477722D01*
X169482555Y-81544477D01*
X169479168Y-81548608D01*
X169339760Y-81718627D01*
X169339756Y-81718633D01*
X169336376Y-81722755D01*
X169318448Y-81754250D01*
X169267368Y-81803555D01*
X169197738Y-81817417D01*
X169131667Y-81791434D01*
X169104427Y-81762284D01*
X169025539Y-81645108D01*
X169022559Y-81640681D01*
X168972848Y-81588570D01*
X168867103Y-81477722D01*
X168863424Y-81473865D01*
X168678458Y-81336246D01*
X168673707Y-81333830D01*
X168673703Y-81333828D01*
X168551731Y-81271815D01*
X168472949Y-81231760D01*
X168467855Y-81230178D01*
X168467852Y-81230177D01*
X168257871Y-81164976D01*
X168252773Y-81163393D01*
X168247484Y-81162692D01*
X168029511Y-81133802D01*
X168029506Y-81133802D01*
X168024226Y-81133102D01*
X168018897Y-81133302D01*
X168018895Y-81133302D01*
X167920368Y-81137001D01*
X167793842Y-81141751D01*
X167788623Y-81142846D01*
X167768849Y-81146995D01*
X167568209Y-81189093D01*
X167563250Y-81191051D01*
X167563248Y-81191052D01*
X167358744Y-81271815D01*
X167358742Y-81271816D01*
X167353779Y-81273776D01*
X167349220Y-81276543D01*
X167349217Y-81276544D01*
X167250832Y-81336246D01*
X167156683Y-81393377D01*
X167152653Y-81396874D01*
X167059484Y-81477722D01*
X166982555Y-81544477D01*
X166979168Y-81548608D01*
X166839760Y-81718627D01*
X166839756Y-81718633D01*
X166836376Y-81722755D01*
X166833738Y-81727390D01*
X166833735Y-81727394D01*
X166790382Y-81803555D01*
X166722325Y-81923114D01*
X166643663Y-82139825D01*
X166642714Y-82145074D01*
X166642713Y-82145077D01*
X166603377Y-82362608D01*
X166603376Y-82362615D01*
X166602639Y-82366692D01*
X166601500Y-82390844D01*
X166601500Y-82802890D01*
X166601725Y-82805540D01*
X166604600Y-82839425D01*
X166590429Y-82908993D01*
X166568146Y-82939173D01*
X158308007Y-91199312D01*
X158245695Y-91233338D01*
X158175821Y-91228620D01*
X158174225Y-91228039D01*
X158169243Y-91225716D01*
X157964579Y-91170876D01*
X157953402Y-91167881D01*
X157953400Y-91167881D01*
X157948087Y-91166457D01*
X157720000Y-91146502D01*
X157491913Y-91166457D01*
X157486600Y-91167881D01*
X157486598Y-91167881D01*
X157276067Y-91224293D01*
X157276065Y-91224294D01*
X157270757Y-91225716D01*
X157265776Y-91228039D01*
X157265775Y-91228039D01*
X157068238Y-91320151D01*
X157068233Y-91320154D01*
X157063251Y-91322477D01*
X156958389Y-91395902D01*
X156880211Y-91450643D01*
X156880208Y-91450645D01*
X156875700Y-91453802D01*
X156713802Y-91615700D01*
X156691345Y-91647771D01*
X156635890Y-91692099D01*
X156588133Y-91701500D01*
X151355493Y-91701500D01*
X151287372Y-91681498D01*
X151249701Y-91643941D01*
X151239981Y-91628915D01*
X151219764Y-91597665D01*
X151063887Y-91426358D01*
X151059836Y-91423159D01*
X151059832Y-91423155D01*
X150886177Y-91286011D01*
X150886172Y-91286008D01*
X150882123Y-91282810D01*
X150877607Y-91280317D01*
X150877604Y-91280315D01*
X150683879Y-91173373D01*
X150683875Y-91173371D01*
X150679355Y-91170876D01*
X150674486Y-91169152D01*
X150674482Y-91169150D01*
X150465903Y-91095288D01*
X150465899Y-91095287D01*
X150461028Y-91093562D01*
X150455935Y-91092655D01*
X150455932Y-91092654D01*
X150238095Y-91053851D01*
X150238089Y-91053850D01*
X150233006Y-91052945D01*
X150160096Y-91052054D01*
X150006581Y-91050179D01*
X150006579Y-91050179D01*
X150001411Y-91050116D01*
X149772464Y-91085150D01*
X149552314Y-91157106D01*
X149547726Y-91159494D01*
X149547722Y-91159496D01*
X149414936Y-91228620D01*
X149346872Y-91264052D01*
X149342739Y-91267155D01*
X149342736Y-91267157D01*
X149165790Y-91400012D01*
X149161655Y-91403117D01*
X149001639Y-91570564D01*
X148998725Y-91574836D01*
X148998724Y-91574837D01*
X148948973Y-91647770D01*
X148871119Y-91761899D01*
X148773602Y-91971981D01*
X148711707Y-92195169D01*
X148687095Y-92425469D01*
X137468500Y-92425469D01*
X137468500Y-76223250D01*
X137470246Y-76202345D01*
X137472770Y-76187344D01*
X137472770Y-76187341D01*
X137473576Y-76182552D01*
X137473729Y-76170000D01*
X138346526Y-76170000D01*
X138366391Y-76422403D01*
X138367545Y-76427210D01*
X138367546Y-76427216D01*
X138405179Y-76583968D01*
X138425495Y-76668591D01*
X138427388Y-76673162D01*
X138427389Y-76673164D01*
X138455631Y-76741345D01*
X138522384Y-76902502D01*
X138654672Y-77118376D01*
X138819102Y-77310898D01*
X139011624Y-77475328D01*
X139227498Y-77607616D01*
X139232068Y-77609509D01*
X139232072Y-77609511D01*
X139456836Y-77702611D01*
X139461409Y-77704505D01*
X139546032Y-77724821D01*
X139702784Y-77762454D01*
X139702790Y-77762455D01*
X139707597Y-77763609D01*
X139960000Y-77783474D01*
X140212403Y-77763609D01*
X140217210Y-77762455D01*
X140217216Y-77762454D01*
X140373968Y-77724821D01*
X140458591Y-77704505D01*
X140463164Y-77702611D01*
X140687928Y-77609511D01*
X140687932Y-77609509D01*
X140692502Y-77607616D01*
X140908376Y-77475328D01*
X141100898Y-77310898D01*
X141265328Y-77118376D01*
X141397616Y-76902502D01*
X141464370Y-76741345D01*
X141492611Y-76673164D01*
X141492612Y-76673162D01*
X141494505Y-76668591D01*
X141514821Y-76583968D01*
X141552454Y-76427216D01*
X141552455Y-76427210D01*
X141553609Y-76422403D01*
X141573474Y-76170000D01*
X204346526Y-76170000D01*
X204366391Y-76422403D01*
X204367545Y-76427210D01*
X204367546Y-76427216D01*
X204405179Y-76583968D01*
X204425495Y-76668591D01*
X204427388Y-76673162D01*
X204427389Y-76673164D01*
X204455631Y-76741345D01*
X204522384Y-76902502D01*
X204654672Y-77118376D01*
X204819102Y-77310898D01*
X205011624Y-77475328D01*
X205227498Y-77607616D01*
X205232068Y-77609509D01*
X205232072Y-77609511D01*
X205456836Y-77702611D01*
X205461409Y-77704505D01*
X205546032Y-77724821D01*
X205702784Y-77762454D01*
X205702790Y-77762455D01*
X205707597Y-77763609D01*
X205960000Y-77783474D01*
X206212403Y-77763609D01*
X206217210Y-77762455D01*
X206217216Y-77762454D01*
X206373968Y-77724821D01*
X206458591Y-77704505D01*
X206463164Y-77702611D01*
X206687928Y-77609511D01*
X206687932Y-77609509D01*
X206692502Y-77607616D01*
X206908376Y-77475328D01*
X207100898Y-77310898D01*
X207265328Y-77118376D01*
X207397616Y-76902502D01*
X207464370Y-76741345D01*
X207492611Y-76673164D01*
X207492612Y-76673162D01*
X207494505Y-76668591D01*
X207514821Y-76583968D01*
X207552454Y-76427216D01*
X207552455Y-76427210D01*
X207553609Y-76422403D01*
X207573474Y-76170000D01*
X207553609Y-75917597D01*
X207543933Y-75877290D01*
X207495660Y-75676221D01*
X207494505Y-75671409D01*
X207488846Y-75657746D01*
X207399511Y-75442072D01*
X207399509Y-75442068D01*
X207397616Y-75437498D01*
X207265328Y-75221624D01*
X207100898Y-75029102D01*
X206908376Y-74864672D01*
X206692502Y-74732384D01*
X206687932Y-74730491D01*
X206687928Y-74730489D01*
X206463164Y-74637389D01*
X206463162Y-74637388D01*
X206458591Y-74635495D01*
X206373968Y-74615179D01*
X206217216Y-74577546D01*
X206217210Y-74577545D01*
X206212403Y-74576391D01*
X205960000Y-74556526D01*
X205707597Y-74576391D01*
X205702790Y-74577545D01*
X205702784Y-74577546D01*
X205546032Y-74615179D01*
X205461409Y-74635495D01*
X205456838Y-74637388D01*
X205456836Y-74637389D01*
X205232072Y-74730489D01*
X205232068Y-74730491D01*
X205227498Y-74732384D01*
X205011624Y-74864672D01*
X204819102Y-75029102D01*
X204654672Y-75221624D01*
X204522384Y-75437498D01*
X204520491Y-75442068D01*
X204520489Y-75442072D01*
X204431154Y-75657746D01*
X204425495Y-75671409D01*
X204424340Y-75676221D01*
X204376068Y-75877290D01*
X204366391Y-75917597D01*
X204346526Y-76170000D01*
X141573474Y-76170000D01*
X141553609Y-75917597D01*
X141543933Y-75877290D01*
X141495660Y-75676221D01*
X141494505Y-75671409D01*
X141488846Y-75657746D01*
X141399511Y-75442072D01*
X141399509Y-75442068D01*
X141397616Y-75437498D01*
X141265328Y-75221624D01*
X141100898Y-75029102D01*
X140908376Y-74864672D01*
X140692502Y-74732384D01*
X140687932Y-74730491D01*
X140687928Y-74730489D01*
X140463164Y-74637389D01*
X140463162Y-74637388D01*
X140458591Y-74635495D01*
X140373968Y-74615179D01*
X140217216Y-74577546D01*
X140217210Y-74577545D01*
X140212403Y-74576391D01*
X139960000Y-74556526D01*
X139707597Y-74576391D01*
X139702790Y-74577545D01*
X139702784Y-74577546D01*
X139546032Y-74615179D01*
X139461409Y-74635495D01*
X139456838Y-74637388D01*
X139456836Y-74637389D01*
X139232072Y-74730489D01*
X139232068Y-74730491D01*
X139227498Y-74732384D01*
X139011624Y-74864672D01*
X138819102Y-75029102D01*
X138654672Y-75221624D01*
X138522384Y-75437498D01*
X138520491Y-75442068D01*
X138520489Y-75442072D01*
X138431154Y-75657746D01*
X138425495Y-75671409D01*
X138424340Y-75676221D01*
X138376068Y-75877290D01*
X138366391Y-75917597D01*
X138346526Y-76170000D01*
X137473729Y-76170000D01*
X137473040Y-76165186D01*
X137473039Y-76165177D01*
X137471869Y-76157006D01*
X137470827Y-76131540D01*
X137486206Y-75877290D01*
X137488040Y-75862186D01*
X137522119Y-75676221D01*
X137539525Y-75581240D01*
X137543164Y-75566473D01*
X137581929Y-75442072D01*
X137628142Y-75293769D01*
X137633534Y-75279555D01*
X137750758Y-75019092D01*
X137757828Y-75005621D01*
X137905595Y-74761187D01*
X137914238Y-74748666D01*
X138090385Y-74523829D01*
X138100475Y-74512440D01*
X138302440Y-74310475D01*
X138313829Y-74300385D01*
X138538666Y-74124238D01*
X138551187Y-74115595D01*
X138795621Y-73967828D01*
X138809094Y-73960757D01*
X138851777Y-73941547D01*
X139069555Y-73843534D01*
X139083769Y-73838142D01*
X139356474Y-73753164D01*
X139371240Y-73749525D01*
X139580214Y-73711229D01*
X139652186Y-73698040D01*
X139667290Y-73696206D01*
X139917904Y-73681047D01*
X139944716Y-73682308D01*
X139944852Y-73682310D01*
X139953724Y-73683691D01*
X139962626Y-73682527D01*
X139962628Y-73682527D01*
X139977677Y-73680559D01*
X139985286Y-73679564D01*
X140001621Y-73678500D01*
X205910633Y-73678500D01*
X205930018Y-73680000D01*
G37*
%TD.AperFunction*%
%TD*%
M02*
