%TF.GenerationSoftware,KiCad,Pcbnew,(6.0.11)*%
%TF.CreationDate,2023-04-21T23:53:04+09:00*%
%TF.ProjectId,line_board,6c696e65-5f62-46f6-9172-642e6b696361,rev?*%
%TF.SameCoordinates,Original*%
%TF.FileFunction,Legend,Top*%
%TF.FilePolarity,Positive*%
%FSLAX46Y46*%
G04 Gerber Fmt 4.6, Leading zero omitted, Abs format (unit mm)*
G04 Created by KiCad (PCBNEW (6.0.11)) date 2023-04-21 23:53:04*
%MOMM*%
%LPD*%
G01*
G04 APERTURE LIST*
%ADD10C,0.150000*%
%ADD11C,0.120000*%
G04 APERTURE END LIST*
D10*
%TO.C,J1*%
X172626666Y-85572380D02*
X172626666Y-86286666D01*
X172579047Y-86429523D01*
X172483809Y-86524761D01*
X172340952Y-86572380D01*
X172245714Y-86572380D01*
X173626666Y-86572380D02*
X173055238Y-86572380D01*
X173340952Y-86572380D02*
X173340952Y-85572380D01*
X173245714Y-85715238D01*
X173150476Y-85810476D01*
X173055238Y-85858095D01*
D11*
X179100000Y-80530000D02*
X172960000Y-80530000D01*
X168210000Y-79420000D02*
X168210000Y-73920000D01*
X175710000Y-73920000D02*
X175210000Y-73920000D01*
X180520000Y-73310000D02*
X180520000Y-85030000D01*
X167710000Y-79420000D02*
X168210000Y-79420000D01*
X178210000Y-73920000D02*
X177710000Y-73920000D01*
X175210000Y-73920000D02*
X175210000Y-79420000D01*
X173210000Y-79420000D02*
X173210000Y-73920000D01*
X170710000Y-79420000D02*
X170710000Y-73920000D01*
X175710000Y-79420000D02*
X175710000Y-73920000D01*
X173210000Y-73920000D02*
X172710000Y-73920000D01*
X165400000Y-73310000D02*
X165400000Y-85030000D01*
X166820000Y-85030000D02*
X166820000Y-80530000D01*
X170710000Y-73920000D02*
X170210000Y-73920000D01*
X175210000Y-79420000D02*
X175710000Y-79420000D01*
X172960000Y-73310000D02*
X165400000Y-73310000D01*
X168210000Y-73920000D02*
X167710000Y-73920000D01*
X177960000Y-84120000D02*
X178260000Y-84720000D01*
X170210000Y-73920000D02*
X170210000Y-79420000D01*
X172710000Y-73920000D02*
X172710000Y-79420000D01*
X165400000Y-85030000D02*
X166820000Y-85030000D01*
X178260000Y-84720000D02*
X177660000Y-84720000D01*
X167710000Y-73920000D02*
X167710000Y-79420000D01*
X166820000Y-80530000D02*
X172960000Y-80530000D01*
X177660000Y-84720000D02*
X177960000Y-84120000D01*
X177710000Y-73920000D02*
X177710000Y-79420000D01*
X178210000Y-79420000D02*
X178210000Y-73920000D01*
X177710000Y-79420000D02*
X178210000Y-79420000D01*
X170210000Y-79420000D02*
X170710000Y-79420000D01*
X172960000Y-73310000D02*
X180520000Y-73310000D01*
X179100000Y-85030000D02*
X179100000Y-80530000D01*
X180520000Y-85030000D02*
X179100000Y-85030000D01*
X172710000Y-79420000D02*
X173210000Y-79420000D01*
%TD*%
M02*
