M48
; DRILL file {KiCad (6.0.11)} date Fri Apr 21 23:53:46 2023
; FORMAT={-:-/ absolute / metric / decimal}
; #@! TF.CreationDate,2023-04-21T23:53:46+09:00
; #@! TF.GenerationSoftware,Kicad,Pcbnew,(6.0.11)
; #@! TF.FileFunction,Plated,1,2,PTH
FMAT,2
METRIC
; #@! TA.AperFunction,Plated,PTH,ViaDrill
T1C0.400
; #@! TA.AperFunction,Plated,PTH,ComponentDrill
T2C0.800
; #@! TA.AperFunction,Plated,PTH,ComponentDrill
T3C0.900
; #@! TA.AperFunction,Plated,PTH,ComponentDrill
T4C0.950
%
G90
G05
T1
X137.86Y-116.78
X137.93Y-76.66
X138.0Y-97.54
X138.05Y-111.52
X138.08Y-93.38
X138.11Y-106.73
X138.16Y-101.95
X138.19Y-89.2
X138.23Y-84.2
X138.51Y-74.71
X138.52Y-118.64
X139.23Y-115.12
X139.25Y-78.21
X140.45Y-74.19
X140.68Y-119.15
X141.44Y-115.54
X141.47Y-77.65
X142.05Y-75.7
X142.14Y-117.77
X142.36Y-84.16
X142.69Y-89.23
X142.76Y-97.4
X142.8Y-93.58
X142.86Y-101.68
X142.95Y-106.56
X143.07Y-111.66
X146.71Y-78.89
X146.76Y-83.9
X146.92Y-89.17
X147.02Y-74.19
X147.45Y-93.49
X147.51Y-97.31
X147.59Y-101.8
X147.74Y-106.38
X147.75Y-115.86
X147.78Y-119.05
X147.82Y-111.43
X151.05Y-109.08
X151.2Y-106.27
X151.58Y-91.21
X152.01Y-100.15
X152.12Y-111.43
X152.18Y-97.31
X152.28Y-115.69
X152.33Y-119.2
X152.49Y-88.91
X152.59Y-79.07
X152.63Y-74.15
X152.76Y-83.98
X153.91Y-109.16
X153.92Y-102.21
X154.07Y-106.39
X156.06Y-91.04
X156.29Y-93.62
X156.33Y-104.14
X156.36Y-97.2
X157.29Y-100.46
X157.31Y-111.69
X157.33Y-79.24
X157.35Y-115.46
X157.41Y-83.9
X157.41Y-119.05
X157.58Y-88.82
X157.63Y-74.24
X158.06Y-90.65
X158.57Y-106.89
X159.71Y-93.09
X160.62Y-97.0
X161.93Y-86.64
X162.18Y-109.8
X162.24Y-111.78
X162.28Y-115.54
X162.37Y-83.59
X162.42Y-79.15
X162.49Y-119.14
X162.51Y-74.24
X162.76Y-89.84
X162.91Y-100.66
X163.98Y-93.73
X164.59Y-100.46
X165.4Y-87.06
X166.0Y-82.62
X166.56Y-97.81
X166.71Y-91.09
X167.46Y-115.65
X167.56Y-119.05
X167.63Y-111.73
X167.64Y-74.24
X167.77Y-78.8
X167.78Y-84.62
X168.17Y-102.65
X169.1Y-109.94
X169.26Y-80.98
X169.26Y-88.62
X169.33Y-94.24
X169.35Y-96.05
X171.01Y-99.93
X171.09Y-92.45
X171.67Y-86.3
X171.74Y-81.01
X172.77Y-79.15
X172.88Y-115.65
X172.9Y-74.24
X172.97Y-111.79
X173.02Y-118.97
X173.32Y-84.8
X173.32Y-90.39
X174.14Y-80.69
X174.74Y-101.11
X176.94Y-109.9
X177.48Y-101.06
X177.52Y-111.62
X177.64Y-115.74
X177.73Y-74.41
X177.74Y-118.94
X177.95Y-79.2
X178.42Y-84.93
X178.86Y-102.67
X178.9Y-99.66
X180.19Y-100.99
X181.99Y-88.76
X182.08Y-83.58
X182.25Y-74.1
X182.25Y-78.8
X182.95Y-111.73
X183.05Y-119.02
X183.12Y-115.68
X183.44Y-91.04
X184.06Y-109.62
X185.96Y-94.26
X186.67Y-91.08
X187.2Y-106.71
X187.34Y-88.76
X187.47Y-83.41
X187.56Y-78.49
X187.65Y-74.4
X188.69Y-111.85
X188.69Y-115.51
X188.77Y-119.0
X189.63Y-93.71
X189.66Y-91.13
X189.9Y-103.76
X189.92Y-98.85
X192.06Y-106.27
X192.06Y-109.31
X192.61Y-83.45
X192.61Y-88.72
X192.91Y-78.19
X193.0Y-74.1
X193.37Y-97.86
X193.76Y-93.9
X193.92Y-100.18
X194.12Y-111.91
X194.12Y-115.36
X194.31Y-91.06
X194.33Y-119.0
X194.58Y-106.34
X194.63Y-109.23
X198.52Y-74.1
X198.57Y-78.32
X198.66Y-83.24
X199.05Y-88.63
X199.05Y-93.37
X199.18Y-98.01
X199.35Y-102.73
X199.44Y-106.86
X199.57Y-111.62
X199.66Y-115.24
X199.7Y-119.11
X203.31Y-88.28
X203.53Y-83.02
X203.53Y-93.33
X203.66Y-116.38
X203.75Y-98.03
X203.75Y-102.6
X203.86Y-111.71
X204.0Y-107.03
X204.14Y-75.09
X204.38Y-77.56
X204.6Y-119.07
X205.84Y-74.09
X205.97Y-114.93
X206.48Y-78.24
X206.74Y-119.03
X207.44Y-74.66
X207.83Y-107.12
X207.85Y-82.77
X207.89Y-111.62
X207.89Y-115.73
X207.95Y-117.57
X207.98Y-76.82
X207.98Y-88.47
X207.98Y-102.57
X208.02Y-93.3
X208.02Y-98.04
T2
X152.64Y-107.7
X157.72Y-92.46
X157.72Y-102.62
X162.8Y-107.7
X165.34Y-92.46
X165.34Y-102.62
X180.58Y-92.46
X180.58Y-102.62
X183.12Y-107.7
X188.2Y-92.46
X188.2Y-102.62
X193.28Y-107.7
T3
X150.1Y-92.46
X150.1Y-95.0
X150.1Y-100.02
X150.1Y-102.56
X172.96Y-92.46
X172.96Y-95.0
X172.96Y-100.02
X172.96Y-102.56
X195.82Y-92.46
X195.82Y-95.0
X195.82Y-100.02
X195.82Y-102.56
T4
X167.96Y-82.62
X170.46Y-82.62
X172.96Y-82.62
X175.46Y-82.62
X177.96Y-82.62
T0
M30
