M48
; DRILL file {KiCad (6.0.7)} date Thu Sep 14 07:07:16 2023
; FORMAT={-:-/ absolute / inch / decimal}
; #@! TF.CreationDate,2023-09-14T07:07:16+09:00
; #@! TF.GenerationSoftware,Kicad,Pcbnew,(6.0.7)
; #@! TF.FileFunction,Plated,1,2,PTH
FMAT,2
INCH
; #@! TA.AperFunction,Plated,PTH,ViaDrill
T1C0.0157
; #@! TA.AperFunction,Plated,PTH,ComponentDrill
T2C0.0256
; #@! TA.AperFunction,Plated,PTH,ComponentDrill
T3C0.0335
; #@! TA.AperFunction,Plated,PTH,ComponentDrill
T4C0.0394
; #@! TA.AperFunction,Plated,PTH,ComponentDrill
T5C0.0591
; #@! TA.AperFunction,Plated,PTH,ComponentDrill
T6C0.0748
%
G90
G05
T1
X3.8559Y-4.249
X3.8566Y-4.589
X3.8575Y-2.9861
X3.8584Y-3.4732
X3.8609Y-4.8847
X3.8634Y-3.9018
X4.0155Y-2.8382
X4.0188Y-5.0351
X4.0272Y-4.341
X4.0277Y-3.5472
X4.1443Y-4.7766
X4.148Y-3.8271
X4.15Y-4.44
X4.1555Y-4.0847
X4.1563Y-3.6307
X4.1656Y-4.3194
X4.1672Y-3.4461
X4.1781Y-3.1128
X4.3193Y-4.2618
X4.3217Y-4.6142
X4.3359Y-3.5559
X4.3475Y-3.8274
X4.3492Y-4.0095
X4.3585Y-3.2531
X4.3997Y-2.8366
X4.4154Y-4.5292
X4.4279Y-3.3558
X4.4315Y-5.0351
X4.4394Y-4.1014
X4.477Y-3.931
X4.4963Y-3.8449
X4.5055Y-3.6686
X4.508Y-4.1699
X4.5248Y-4.4623
X4.5774Y-4.8586
X4.5848Y-3.9769
X4.5932Y-4.073
X4.6099Y-4.2426
X4.6209Y-2.9974
X4.6259Y-4.7389
X4.635Y-3.5408
X4.6769Y-3.1119
X4.6968Y-3.6109
X4.7085Y-4.4837
X4.7394Y-4.21
X4.7571Y-3.2238
X4.872Y-3.245
X4.8828Y-4.486
X4.8829Y-2.9922
X4.8861Y-5.0393
X4.8919Y-2.835
X4.9005Y-3.4651
X4.9023Y-4.261
X4.9027Y-3.6127
X4.9978Y-4.6578
X5.0404Y-4.3453
X5.0781Y-3.2583
X5.0913Y-3.1411
X5.0955Y-4.5033
X5.1043Y-3.6795
X5.1062Y-4.2184
X5.14Y-3.4684
X5.1406Y-3.0041
X5.1467Y-3.3882
X5.1872Y-4.2577
X5.1923Y-4.1791
X5.2383Y-3.9546
X5.2698Y-3.4322
X5.2765Y-2.8375
X5.2943Y-3.3249
X5.2976Y-4.5397
X5.3039Y-3.5556
X5.3194Y-3.6784
X5.3303Y-4.738
X5.3353Y-3.1971
X5.3763Y-4.0838
X5.3782Y-4.8573
X5.3846Y-4.2493
X5.4122Y-5.0369
X5.4205Y-4.0036
X5.4472Y-3.4386
X5.4531Y-3.0759
X5.459Y-4.3052
X5.4932Y-3.523
X5.4966Y-4.1055
X5.5107Y-3.7201
X5.5191Y-3.2029
X5.5383Y-3.9201
X5.5517Y-3.3291
X5.5809Y-3.1328
X5.6302Y-4.4425
X5.6411Y-3.3667
X5.6544Y-3.5773
X5.687Y-3.1988
X5.698Y-4.7822
X5.7731Y-3.116
X5.778Y-5.0329
X5.7928Y-2.8387
X5.804Y-3.3141
X5.8048Y-3.5054
X5.8207Y-3.7201
X5.8274Y-3.9184
X5.8633Y-4.3936
X5.9201Y-3.2723
X5.9277Y-3.5021
X5.936Y-4.2131
X5.9426Y-4.8649
X5.9432Y-2.9829
X5.9479Y-4.5857
X5.9486Y-3.8733
T2
X4.4094Y-3.837
X4.4094Y-3.937
X4.4094Y-4.037
T3
X4.0945Y-3.4933
X4.0945Y-3.5917
X4.0945Y-4.2807
X4.0945Y-4.3791
T4
X4.685Y-2.9331
X4.685Y-4.9409
X5.1181Y-2.9331
X5.1181Y-4.9409
T5
X5.8661Y-3.5827
X5.8661Y-3.8189
X5.8661Y-4.0551
X5.8661Y-4.2913
T6
X4.8031Y-3.3268
X4.8031Y-4.5472
X5.0Y-3.3268
X5.0Y-4.5472
T0
M30
