G04 #@! TF.GenerationSoftware,KiCad,Pcbnew,(6.0.7)*
G04 #@! TF.CreationDate,2023-09-14T07:07:10+09:00*
G04 #@! TF.ProjectId,StepDown,53746570-446f-4776-9e2e-6b696361645f,rev?*
G04 #@! TF.SameCoordinates,Original*
G04 #@! TF.FileFunction,Soldermask,Top*
G04 #@! TF.FilePolarity,Negative*
%FSLAX46Y46*%
G04 Gerber Fmt 4.6, Leading zero omitted, Abs format (unit mm)*
G04 Created by KiCad (PCBNEW (6.0.7)) date 2023-09-14 07:07:10*
%MOMM*%
%LPD*%
G01*
G04 APERTURE LIST*
G04 Aperture macros list*
%AMRoundRect*
0 Rectangle with rounded corners*
0 $1 Rounding radius*
0 $2 $3 $4 $5 $6 $7 $8 $9 X,Y pos of 4 corners*
0 Add a 4 corners polygon primitive as box body*
4,1,4,$2,$3,$4,$5,$6,$7,$8,$9,$2,$3,0*
0 Add four circle primitives for the rounded corners*
1,1,$1+$1,$2,$3*
1,1,$1+$1,$4,$5*
1,1,$1+$1,$6,$7*
1,1,$1+$1,$8,$9*
0 Add four rect primitives between the rounded corners*
20,1,$1+$1,$2,$3,$4,$5,0*
20,1,$1+$1,$4,$5,$6,$7,0*
20,1,$1+$1,$6,$7,$8,$9,0*
20,1,$1+$1,$8,$9,$2,$3,0*%
%AMFreePoly0*
4,1,53,0.885000,-2.035000,0.700000,-2.035000,0.700000,-3.665000,0.695106,-3.680063,0.695106,-3.695902,0.685796,-3.708716,0.680902,-3.723779,0.668089,-3.733089,0.658779,-3.745902,0.643716,-3.750796,0.630902,-3.760106,0.615063,-3.760106,0.600000,-3.765000,-0.600000,-3.765000,-0.615063,-3.760106,-0.630902,-3.760106,-0.643716,-3.750796,-0.658779,-3.745902,-0.668089,-3.733089,-0.680902,-3.723779,
-0.685796,-3.708716,-0.695106,-3.695902,-0.695106,-3.680063,-0.700000,-3.665000,-0.700000,-2.035000,-0.885000,-2.035000,-0.885000,0.450000,-2.515000,0.450000,-2.530063,0.454894,-2.545902,0.454894,-2.558716,0.464204,-2.573779,0.469098,-2.583089,0.481911,-2.595902,0.491221,-2.600796,0.506284,-2.610106,0.519098,-2.610106,0.534937,-2.615000,0.550000,-2.615000,1.750000,-2.610106,1.765063,
-2.610106,1.780902,-2.600796,1.793716,-2.595902,1.808779,-2.583089,1.818089,-2.573779,1.830902,-2.558716,1.835796,-2.545902,1.845106,-2.530063,1.845106,-2.515000,1.850000,-0.885000,1.850000,-0.885000,2.035000,0.885000,2.035000,0.885000,-2.035000,0.885000,-2.035000,$1*%
%AMFreePoly1*
4,1,53,-0.534937,2.610106,-0.519098,2.610106,-0.506284,2.600796,-0.491221,2.595902,-0.481911,2.583089,-0.469098,2.573779,-0.464204,2.558716,-0.454894,2.545902,-0.454894,2.530063,-0.450000,2.515000,-0.450000,0.885000,0.450000,0.885000,0.450000,2.515000,0.454894,2.530063,0.454894,2.545902,0.464204,2.558716,0.469098,2.573779,0.481911,2.583089,0.491221,2.595902,0.506284,2.600796,
0.519098,2.610106,0.534937,2.610106,0.550000,2.615000,1.750000,2.615000,1.765063,2.610106,1.780902,2.610106,1.793716,2.600796,1.808779,2.595902,1.818089,2.583089,1.830902,2.573779,1.835796,2.558716,1.845106,2.545902,1.845106,2.530063,1.850000,2.515000,1.850000,0.885000,2.035000,0.885000,2.035000,-0.885000,-2.035000,-0.885000,-2.035000,0.885000,-1.850000,0.885000,
-1.850000,2.515000,-1.845106,2.530063,-1.845106,2.545902,-1.835796,2.558716,-1.830902,2.573779,-1.818089,2.583089,-1.808779,2.595902,-1.793716,2.600796,-1.780902,2.610106,-1.765063,2.610106,-1.750000,2.615000,-0.550000,2.615000,-0.534937,2.610106,-0.534937,2.610106,$1*%
%AMFreePoly2*
4,1,29,0.885000,1.850000,2.515000,1.850000,2.530063,1.845106,2.545902,1.845106,2.558716,1.835796,2.573779,1.830902,2.583089,1.818089,2.595902,1.808779,2.600796,1.793716,2.610106,1.780902,2.610106,1.765063,2.615000,1.750000,2.615000,0.550000,2.610106,0.534937,2.610106,0.519098,2.600796,0.506284,2.595902,0.491221,2.583089,0.481911,2.573779,0.469098,2.558716,0.464204,
2.545902,0.454894,2.530063,0.454894,2.515000,0.450000,0.885000,0.450000,0.885000,-2.035000,-0.885000,-2.035000,-0.885000,2.035000,0.885000,2.035000,0.885000,1.850000,0.885000,1.850000,$1*%
G04 Aperture macros list end*
%ADD10C,1.400000*%
%ADD11R,3.500000X3.500000*%
%ADD12C,3.500000*%
%ADD13C,3.000000*%
%ADD14RoundRect,0.237500X-0.237500X0.250000X-0.237500X-0.250000X0.237500X-0.250000X0.237500X0.250000X0*%
%ADD15RoundRect,0.250000X-0.412500X-1.100000X0.412500X-1.100000X0.412500X1.100000X-0.412500X1.100000X0*%
%ADD16RoundRect,0.250000X0.337500X0.475000X-0.337500X0.475000X-0.337500X-0.475000X0.337500X-0.475000X0*%
%ADD17RoundRect,0.250000X-0.675000X0.600000X-0.675000X-0.600000X0.675000X-0.600000X0.675000X0.600000X0*%
%ADD18O,1.850000X1.700000*%
%ADD19RoundRect,0.237500X-0.250000X-0.237500X0.250000X-0.237500X0.250000X0.237500X-0.250000X0.237500X0*%
%ADD20RoundRect,0.381000X-0.381000X-0.381000X0.381000X-0.381000X0.381000X0.381000X-0.381000X0.381000X0*%
%ADD21C,1.524000*%
%ADD22RoundRect,0.237500X0.250000X0.237500X-0.250000X0.237500X-0.250000X-0.237500X0.250000X-0.237500X0*%
%ADD23R,1.200000X0.900000*%
%ADD24R,3.000000X1.200000*%
%ADD25FreePoly0,270.000000*%
%ADD26FreePoly1,0.000000*%
%ADD27FreePoly2,0.000000*%
%ADD28R,1.200000X3.000000*%
%ADD29R,1.500000X1.200000*%
%ADD30R,1.500000X0.900000*%
G04 APERTURE END LIST*
D10*
G04 #@! TO.C,J2*
X119000000Y-125500000D03*
X130000000Y-125500000D03*
D11*
X122000000Y-115500000D03*
D12*
X127000000Y-115500000D03*
G04 #@! TD*
D13*
G04 #@! TO.C,H1*
X149000000Y-91000000D03*
G04 #@! TD*
D14*
G04 #@! TO.C,R1*
X115570000Y-96877500D03*
X115570000Y-98702500D03*
G04 #@! TD*
D15*
G04 #@! TO.C,C1*
X122943853Y-89885363D03*
X126068853Y-89885363D03*
G04 #@! TD*
D10*
G04 #@! TO.C,J1*
X130000000Y-74500000D03*
X119000000Y-74500000D03*
D11*
X127000000Y-84500000D03*
D12*
X122000000Y-84500000D03*
G04 #@! TD*
D16*
G04 #@! TO.C,C2*
X131847500Y-91440000D03*
X129772500Y-91440000D03*
G04 #@! TD*
D13*
G04 #@! TO.C,H2*
X149000000Y-97000000D03*
G04 #@! TD*
D17*
G04 #@! TO.C,J4*
X104000000Y-88730000D03*
D18*
X104000000Y-91230000D03*
G04 #@! TD*
D19*
G04 #@! TO.C,R4*
X133373226Y-106309210D03*
X135198226Y-106309210D03*
G04 #@! TD*
D17*
G04 #@! TO.C,J3*
X104000000Y-108730000D03*
D18*
X104000000Y-111230000D03*
G04 #@! TD*
D13*
G04 #@! TO.C,H4*
X149000000Y-109000000D03*
G04 #@! TD*
D20*
G04 #@! TO.C,SW1*
X112000000Y-97460000D03*
D21*
X112000000Y-100000000D03*
X112000000Y-102540000D03*
G04 #@! TD*
D22*
G04 #@! TO.C,R2*
X135192937Y-102434756D03*
X133367937Y-102434756D03*
G04 #@! TD*
D19*
G04 #@! TO.C,R5*
X133346356Y-108044322D03*
X135171356Y-108044322D03*
G04 #@! TD*
D23*
G04 #@! TO.C,D1*
X134985961Y-88713846D03*
X134985961Y-92013846D03*
G04 #@! TD*
D24*
G04 #@! TO.C,MD1*
X118900000Y-100000000D03*
D25*
X121065000Y-95415000D03*
D26*
X125645000Y-95415000D03*
D27*
X129085000Y-96565000D03*
D24*
X130100000Y-100000000D03*
X130100000Y-104580000D03*
D28*
X124500000Y-105600000D03*
X122210000Y-105600000D03*
D24*
X118900000Y-104580000D03*
X118900000Y-102290000D03*
D29*
X130850000Y-102290000D03*
D28*
X126790000Y-105600000D03*
G04 #@! TD*
D30*
G04 #@! TO.C,D2*
X139950000Y-79470000D03*
X139950000Y-82770000D03*
X144850000Y-82770000D03*
X144850000Y-79470000D03*
G04 #@! TD*
D19*
G04 #@! TO.C,R6*
X129661592Y-89489604D03*
X131486592Y-89489604D03*
G04 #@! TD*
G04 #@! TO.C,R3*
X133385803Y-104557737D03*
X135210803Y-104557737D03*
G04 #@! TD*
D13*
G04 #@! TO.C,H3*
X149000000Y-103000000D03*
G04 #@! TD*
M02*
