G04 #@! TF.GenerationSoftware,KiCad,Pcbnew,(6.0.7)*
G04 #@! TF.CreationDate,2023-09-14T07:07:10+09:00*
G04 #@! TF.ProjectId,StepDown,53746570-446f-4776-9e2e-6b696361645f,rev?*
G04 #@! TF.SameCoordinates,Original*
G04 #@! TF.FileFunction,Legend,Bot*
G04 #@! TF.FilePolarity,Positive*
%FSLAX46Y46*%
G04 Gerber Fmt 4.6, Leading zero omitted, Abs format (unit mm)*
G04 Created by KiCad (PCBNEW (6.0.7)) date 2023-09-14 07:07:10*
%MOMM*%
%LPD*%
G01*
G04 APERTURE LIST*
%ADD10C,1.000000*%
%ADD11C,0.500000*%
G04 APERTURE END LIST*
D10*
X123785238Y-91321904D02*
X114261428Y-91321904D01*
X124975714Y-102036190D02*
X111880476Y-102036190D01*
X128547142Y-110369523D02*
X109499523Y-110369523D01*
X124975714Y-96083809D02*
X124975714Y-102036190D01*
X124975714Y-96083809D02*
X111880476Y-96083809D01*
X111880476Y-102036190D01*
X133309047Y-82988571D02*
X133309047Y-100845714D01*
X128547142Y-105607619D01*
X116642380Y-86560000D02*
X109499523Y-93702857D01*
X109499523Y-86560000D02*
X114261428Y-88940952D01*
X126166190Y-86560000D02*
X123785238Y-88940952D01*
X129737619Y-94893333D01*
X113070952Y-82988571D02*
X116642380Y-86560000D01*
X122594761Y-104417142D02*
X122594761Y-107988571D01*
X117832857Y-81798095D02*
X115451904Y-88940952D01*
X114261428Y-103226666D02*
X116642380Y-107988571D01*
X129737619Y-87750476D02*
X132118571Y-92512380D01*
X134499523Y-100845714D02*
X138070952Y-110369523D01*
X127356666Y-84179047D02*
X120213809Y-82988571D01*
X123785238Y-90131428D01*
X136880476Y-88940952D02*
X139261428Y-94893333D01*
X133309047Y-94893333D02*
X135690000Y-106798095D01*
D11*
X146317142Y-116094285D02*
X142888571Y-116094285D01*
X144602857Y-122094285D02*
X144602857Y-116094285D01*
X140031428Y-122094285D02*
X140602857Y-121808571D01*
X140888571Y-121522857D01*
X141174285Y-120951428D01*
X141174285Y-119237142D01*
X140888571Y-118665714D01*
X140602857Y-118380000D01*
X140031428Y-118094285D01*
X139174285Y-118094285D01*
X138602857Y-118380000D01*
X138317142Y-118665714D01*
X138031428Y-119237142D01*
X138031428Y-120951428D01*
X138317142Y-121522857D01*
X138602857Y-121808571D01*
X139174285Y-122094285D01*
X140031428Y-122094285D01*
X135460000Y-122094285D02*
X135460000Y-118094285D01*
X135460000Y-118665714D02*
X135174285Y-118380000D01*
X134602857Y-118094285D01*
X133745714Y-118094285D01*
X133174285Y-118380000D01*
X132888571Y-118951428D01*
X132888571Y-122094285D01*
X132888571Y-118951428D02*
X132602857Y-118380000D01*
X132031428Y-118094285D01*
X131174285Y-118094285D01*
X130602857Y-118380000D01*
X130317142Y-118951428D01*
X130317142Y-122094285D01*
X126602857Y-122094285D02*
X127174285Y-121808571D01*
X127460000Y-121522857D01*
X127745714Y-120951428D01*
X127745714Y-119237142D01*
X127460000Y-118665714D01*
X127174285Y-118380000D01*
X126602857Y-118094285D01*
X125745714Y-118094285D01*
X125174285Y-118380000D01*
X124888571Y-118665714D01*
X124602857Y-119237142D01*
X124602857Y-120951428D01*
X124888571Y-121522857D01*
X125174285Y-121808571D01*
X125745714Y-122094285D01*
X126602857Y-122094285D01*
X122317142Y-121808571D02*
X121745714Y-122094285D01*
X120602857Y-122094285D01*
X120031428Y-121808571D01*
X119745714Y-121237142D01*
X119745714Y-120951428D01*
X120031428Y-120380000D01*
X120602857Y-120094285D01*
X121460000Y-120094285D01*
X122031428Y-119808571D01*
X122317142Y-119237142D01*
X122317142Y-118951428D01*
X122031428Y-118380000D01*
X121460000Y-118094285D01*
X120602857Y-118094285D01*
X120031428Y-118380000D01*
X117174285Y-122094285D02*
X117174285Y-116094285D01*
X114602857Y-122094285D02*
X114602857Y-118951428D01*
X114888571Y-118380000D01*
X115460000Y-118094285D01*
X116317142Y-118094285D01*
X116888571Y-118380000D01*
X117174285Y-118665714D01*
X111745714Y-122094285D02*
X111745714Y-118094285D01*
X111745714Y-116094285D02*
X112031428Y-116380000D01*
X111745714Y-116665714D01*
X111460000Y-116380000D01*
X111745714Y-116094285D01*
X111745714Y-116665714D01*
X108888571Y-122094285D02*
X108888571Y-116094285D01*
X108888571Y-118380000D02*
X108317142Y-118094285D01*
X107174285Y-118094285D01*
X106602857Y-118380000D01*
X106317142Y-118665714D01*
X106031428Y-119237142D01*
X106031428Y-120951428D01*
X106317142Y-121522857D01*
X106602857Y-121808571D01*
X107174285Y-122094285D01*
X108317142Y-122094285D01*
X108888571Y-121808571D01*
X103460000Y-122094285D02*
X103460000Y-118094285D01*
X103460000Y-116094285D02*
X103745714Y-116380000D01*
X103460000Y-116665714D01*
X103174285Y-116380000D01*
X103460000Y-116094285D01*
X103460000Y-116665714D01*
M02*
