%TF.GenerationSoftware,KiCad,Pcbnew,(6.0.11)*%
%TF.CreationDate,2023-12-12T02:53:41+09:00*%
%TF.ProjectId,Common_Control,436f6d6d-6f6e-45f4-936f-6e74726f6c2e,rev?*%
%TF.SameCoordinates,Original*%
%TF.FileFunction,Legend,Bot*%
%TF.FilePolarity,Positive*%
%FSLAX46Y46*%
G04 Gerber Fmt 4.6, Leading zero omitted, Abs format (unit mm)*
G04 Created by KiCad (PCBNEW (6.0.11)) date 2023-12-12 02:53:41*
%MOMM*%
%LPD*%
G01*
G04 APERTURE LIST*
G04 Aperture macros list*
%AMRoundRect*
0 Rectangle with rounded corners*
0 $1 Rounding radius*
0 $2 $3 $4 $5 $6 $7 $8 $9 X,Y pos of 4 corners*
0 Add a 4 corners polygon primitive as box body*
4,1,4,$2,$3,$4,$5,$6,$7,$8,$9,$2,$3,0*
0 Add four circle primitives for the rounded corners*
1,1,$1+$1,$2,$3*
1,1,$1+$1,$4,$5*
1,1,$1+$1,$6,$7*
1,1,$1+$1,$8,$9*
0 Add four rect primitives between the rounded corners*
20,1,$1+$1,$2,$3,$4,$5,0*
20,1,$1+$1,$4,$5,$6,$7,0*
20,1,$1+$1,$6,$7,$8,$9,0*
20,1,$1+$1,$8,$9,$2,$3,0*%
G04 Aperture macros list end*
%ADD10C,0.120000*%
%ADD11C,2.000000*%
%ADD12RoundRect,0.250000X-0.675000X0.600000X-0.675000X-0.600000X0.675000X-0.600000X0.675000X0.600000X0*%
%ADD13O,1.850000X1.700000*%
%ADD14RoundRect,0.425000X-0.425000X-0.425000X0.425000X-0.425000X0.425000X0.425000X-0.425000X0.425000X0*%
%ADD15C,1.700000*%
%ADD16C,1.400000*%
%ADD17R,3.500000X3.500000*%
%ADD18C,3.500000*%
%ADD19C,3.200000*%
%ADD20RoundRect,0.250000X0.675000X-0.600000X0.675000X0.600000X-0.675000X0.600000X-0.675000X-0.600000X0*%
%ADD21RoundRect,0.381000X-0.381000X-0.381000X0.381000X-0.381000X0.381000X0.381000X-0.381000X0.381000X0*%
%ADD22C,1.524000*%
%ADD23RoundRect,0.250000X-0.600000X-0.675000X0.600000X-0.675000X0.600000X0.675000X-0.600000X0.675000X0*%
%ADD24O,1.700000X1.850000*%
%ADD25C,1.600000*%
%ADD26R,1.700000X1.700000*%
%ADD27O,1.700000X1.700000*%
%ADD28RoundRect,0.425000X0.425000X0.425000X-0.425000X0.425000X-0.425000X-0.425000X0.425000X-0.425000X0*%
%ADD29R,1.400000X1.400000*%
%ADD30RoundRect,0.250000X0.600000X0.600000X-0.600000X0.600000X-0.600000X-0.600000X0.600000X-0.600000X0*%
%ADD31O,3.100000X4.300000*%
%ADD32R,1.600000X1.600000*%
%ADD33O,1.600000X1.600000*%
%ADD34R,1.524000X1.524000*%
%ADD35C,1.440000*%
%ADD36RoundRect,0.237500X-0.250000X-0.237500X0.250000X-0.237500X0.250000X0.237500X-0.250000X0.237500X0*%
%ADD37R,0.900000X1.200000*%
%ADD38R,1.500000X1.500000*%
%ADD39R,0.800000X1.800000*%
%ADD40R,1.800000X0.800000*%
%ADD41RoundRect,0.237500X-0.344715X0.008839X0.008839X-0.344715X0.344715X-0.008839X-0.008839X0.344715X0*%
%ADD42R,1.200000X0.900000*%
G04 APERTURE END LIST*
D10*
%TO.C,R62*%
X147305276Y-104462500D02*
X147814724Y-104462500D01*
X147305276Y-103417500D02*
X147814724Y-103417500D01*
%TO.C,D7*%
X139120000Y-53520000D02*
X143020000Y-53520000D01*
X139120000Y-55520000D02*
X139120000Y-53520000D01*
X139120000Y-55520000D02*
X143020000Y-55520000D01*
%TO.C,H10*%
X160700000Y-149980000D02*
X160700000Y-148080000D01*
X158800000Y-148080000D02*
X158800000Y-149980000D01*
X160700000Y-148080000D02*
X158800000Y-148080000D01*
X158800000Y-149980000D02*
X160700000Y-149980000D01*
%TO.C,Q10*%
X143840000Y-57840000D02*
X143840000Y-60240000D01*
X147140000Y-58440000D02*
X147140000Y-60240000D01*
X143840000Y-60240000D02*
X144890000Y-60240000D01*
X147140000Y-60240000D02*
X146090000Y-60240000D01*
%TO.C,Q19*%
X155840000Y-73820000D02*
X153440000Y-73820000D01*
X155240000Y-77120000D02*
X153440000Y-77120000D01*
X153440000Y-77120000D02*
X153440000Y-76070000D01*
X153440000Y-73820000D02*
X153440000Y-74870000D01*
%TO.C,R17*%
X131129346Y-73600420D02*
X131489580Y-73960654D01*
X130390420Y-74339346D02*
X130750654Y-74699580D01*
%TO.C,H13*%
X196550000Y-122970000D02*
X196550000Y-121070000D01*
X194650000Y-121070000D02*
X194650000Y-122970000D01*
X196550000Y-121070000D02*
X194650000Y-121070000D01*
X194650000Y-122970000D02*
X196550000Y-122970000D01*
%TO.C,Q12*%
X147610000Y-60140000D02*
X147610000Y-58340000D01*
X147610000Y-58340000D02*
X148660000Y-58340000D01*
X150910000Y-58340000D02*
X149860000Y-58340000D01*
X150910000Y-60740000D02*
X150910000Y-58340000D01*
%TO.C,Q7*%
X158780000Y-57510000D02*
X157730000Y-57510000D01*
X155480000Y-55110000D02*
X155480000Y-57510000D01*
X158780000Y-55710000D02*
X158780000Y-57510000D01*
X155480000Y-57510000D02*
X156530000Y-57510000D01*
%TO.C,D9*%
X153120000Y-43640000D02*
X153120000Y-39740000D01*
X153120000Y-43640000D02*
X151120000Y-43640000D01*
X151120000Y-43640000D02*
X151120000Y-39740000D01*
%TO.C,D8*%
X150620000Y-43640000D02*
X148620000Y-43640000D01*
X150620000Y-43640000D02*
X150620000Y-39740000D01*
X148620000Y-43640000D02*
X148620000Y-39740000D01*
%TO.C,H12*%
X196710000Y-134120000D02*
X194810000Y-134120000D01*
X196710000Y-136020000D02*
X196710000Y-134120000D01*
X194810000Y-134120000D02*
X194810000Y-136020000D01*
X194810000Y-136020000D02*
X196710000Y-136020000D01*
%TO.C,Q9*%
X154900000Y-58030000D02*
X154900000Y-55630000D01*
X154900000Y-55630000D02*
X153850000Y-55630000D01*
X151600000Y-57430000D02*
X151600000Y-55630000D01*
X151600000Y-55630000D02*
X152650000Y-55630000D01*
%TO.C,R16*%
X127750420Y-71679346D02*
X128110654Y-72039580D01*
X128489346Y-70940420D02*
X128849580Y-71300654D01*
%TO.C,D10*%
X151480000Y-59680000D02*
X151480000Y-63580000D01*
X151480000Y-59680000D02*
X153480000Y-59680000D01*
X153480000Y-59680000D02*
X153480000Y-63580000D01*
%TO.C,D3*%
X155990000Y-52730000D02*
X153990000Y-52730000D01*
X155990000Y-52730000D02*
X155990000Y-48830000D01*
X153990000Y-52730000D02*
X153990000Y-48830000D01*
%TO.C,D2*%
X101590000Y-63220000D02*
X99590000Y-63220000D01*
X99590000Y-63220000D02*
X99590000Y-59320000D01*
X101590000Y-63220000D02*
X101590000Y-59320000D01*
%TO.C,H6*%
X124250000Y-104900000D02*
X124250000Y-106800000D01*
X126150000Y-104900000D02*
X124250000Y-104900000D01*
X124250000Y-106800000D02*
X126150000Y-106800000D01*
X126150000Y-106800000D02*
X126150000Y-104900000D01*
%TO.C,H11*%
X183100000Y-148130000D02*
X183100000Y-150030000D01*
X185000000Y-148130000D02*
X183100000Y-148130000D01*
X185000000Y-150030000D02*
X185000000Y-148130000D01*
X183100000Y-150030000D02*
X185000000Y-150030000D01*
%TO.C,R61*%
X143305276Y-104462500D02*
X143814724Y-104462500D01*
X143305276Y-103417500D02*
X143814724Y-103417500D01*
%TO.C,Q16*%
X153530000Y-69980000D02*
X155330000Y-69980000D01*
X152930000Y-73280000D02*
X155330000Y-73280000D01*
X155330000Y-69980000D02*
X155330000Y-71030000D01*
X155330000Y-73280000D02*
X155330000Y-72230000D01*
%TD*%
%LPC*%
D11*
%TO.C,TP3*%
X196800000Y-96260000D03*
%TD*%
D12*
%TO.C,J20*%
X97100000Y-46720000D03*
D13*
X97100000Y-49220000D03*
X97100000Y-51720000D03*
%TD*%
D14*
%TO.C,U7*%
X140930000Y-100925000D03*
D15*
X143470000Y-100925000D03*
X146010000Y-100925000D03*
X148550000Y-100925000D03*
%TD*%
D16*
%TO.C,J5*%
X172940000Y-36735000D03*
X183940000Y-36735000D03*
D17*
X180940000Y-46735000D03*
D18*
X175940000Y-46735000D03*
%TD*%
D19*
%TO.C,H16*%
X94740000Y-38060000D03*
%TD*%
D20*
%TO.C,J19*%
X192590000Y-127060000D03*
D13*
X192590000Y-124560000D03*
X192590000Y-122060000D03*
%TD*%
D21*
%TO.C,SW16*%
X170440000Y-145410000D03*
D22*
X170440000Y-147950000D03*
X170440000Y-150490000D03*
%TD*%
D23*
%TO.C,J17*%
X179050000Y-145910000D03*
D24*
X181550000Y-145910000D03*
X184050000Y-145910000D03*
%TD*%
D16*
%TO.C,J2*%
X116820000Y-36735000D03*
X105820000Y-36735000D03*
D17*
X113820000Y-46735000D03*
D18*
X108820000Y-46735000D03*
%TD*%
D21*
%TO.C,SW7*%
X126220000Y-117610000D03*
D22*
X126220000Y-120150000D03*
X126220000Y-122690000D03*
%TD*%
D25*
%TO.C,C14*%
X146940000Y-43780000D03*
X146940000Y-38780000D03*
%TD*%
D26*
%TO.C,JP1*%
X164200000Y-96565000D03*
D27*
X164200000Y-94025000D03*
%TD*%
D11*
%TO.C,TP1*%
X114760000Y-70100000D03*
%TD*%
D20*
%TO.C,J9*%
X192590000Y-65170000D03*
D13*
X192590000Y-62670000D03*
X192590000Y-60170000D03*
%TD*%
D23*
%TO.C,J22*%
X105240000Y-145910000D03*
D24*
X107740000Y-145910000D03*
X110240000Y-145910000D03*
X112740000Y-145910000D03*
X115240000Y-145910000D03*
%TD*%
D15*
%TO.C,SW1*%
X102170000Y-125410000D03*
X102170000Y-115250000D03*
D28*
X99630000Y-122870000D03*
D15*
X99630000Y-120330000D03*
X99630000Y-117790000D03*
X104710000Y-122870000D03*
X104710000Y-120330000D03*
X104710000Y-117790000D03*
%TD*%
D20*
%TO.C,J10*%
X192590000Y-78350000D03*
D13*
X192590000Y-75850000D03*
X192590000Y-73350000D03*
%TD*%
D29*
%TO.C,SW5*%
X112180000Y-79972500D03*
D16*
X112180000Y-82472500D03*
X112180000Y-84972500D03*
X108880000Y-79972500D03*
X108880000Y-82472500D03*
X108880000Y-84972500D03*
%TD*%
D20*
%TO.C,J18*%
X192590000Y-140060000D03*
D13*
X192590000Y-137560000D03*
X192590000Y-135060000D03*
%TD*%
D30*
%TO.C,J7*%
X103937500Y-84850000D03*
D15*
X101397500Y-84850000D03*
X103937500Y-82310000D03*
X101397500Y-82310000D03*
X103937500Y-79770000D03*
X101397500Y-79770000D03*
X103937500Y-77230000D03*
X101397500Y-77230000D03*
X103937500Y-74690000D03*
X101397500Y-74690000D03*
%TD*%
D31*
%TO.C,U2*%
X172746007Y-109636712D03*
%TD*%
D26*
%TO.C,J1*%
X188840000Y-115210000D03*
D27*
X188840000Y-112670000D03*
X188840000Y-110130000D03*
X188840000Y-107590000D03*
X188840000Y-105050000D03*
X188840000Y-102510000D03*
X188840000Y-99970000D03*
%TD*%
D32*
%TO.C,U6*%
X161350000Y-67170000D03*
D33*
X161350000Y-69710000D03*
X161350000Y-72250000D03*
X161350000Y-74790000D03*
X168970000Y-74790000D03*
X168970000Y-72250000D03*
X168970000Y-69710000D03*
X168970000Y-67170000D03*
%TD*%
D21*
%TO.C,SW15*%
X146170000Y-145410000D03*
D22*
X146170000Y-147950000D03*
X146170000Y-150490000D03*
%TD*%
D20*
%TO.C,J11*%
X192590000Y-91360000D03*
D13*
X192590000Y-88860000D03*
X192590000Y-86360000D03*
%TD*%
D23*
%TO.C,J16*%
X154740000Y-145910000D03*
D24*
X157240000Y-145910000D03*
X159740000Y-145910000D03*
%TD*%
D32*
%TO.C,SW4*%
X167117428Y-120772700D03*
D33*
X167117428Y-123312700D03*
X174737428Y-123312700D03*
X174737428Y-120772700D03*
%TD*%
D11*
%TO.C,TP5*%
X188700000Y-38780000D03*
%TD*%
D32*
%TO.C,SW14*%
X161310000Y-79335000D03*
D33*
X161310000Y-81875000D03*
X168930000Y-81875000D03*
X168930000Y-79335000D03*
%TD*%
D16*
%TO.C,J4*%
X167990000Y-36735000D03*
X156990000Y-36735000D03*
D17*
X164990000Y-46735000D03*
D18*
X159990000Y-46735000D03*
%TD*%
D16*
%TO.C,J3*%
X124610000Y-36735000D03*
X135610000Y-36735000D03*
D17*
X132610000Y-46735000D03*
D18*
X127610000Y-46735000D03*
%TD*%
D12*
%TO.C,J21*%
X97070000Y-59790000D03*
D13*
X97070000Y-62290000D03*
X97070000Y-64790000D03*
%TD*%
D20*
%TO.C,J8*%
X192590000Y-52270000D03*
D13*
X192590000Y-49770000D03*
X192590000Y-47270000D03*
%TD*%
D32*
%TO.C,SW13*%
X110330000Y-127390000D03*
D33*
X110330000Y-129930000D03*
X110330000Y-132470000D03*
X110330000Y-135010000D03*
X117950000Y-135010000D03*
X117950000Y-132470000D03*
X117950000Y-129930000D03*
X117950000Y-127390000D03*
%TD*%
D22*
%TO.C,J6*%
X103190000Y-101705000D03*
X103190000Y-94085000D03*
D34*
X103190000Y-109325000D03*
D22*
X103190000Y-99165000D03*
X103190000Y-104245000D03*
X103190000Y-106785000D03*
X103190000Y-96625000D03*
X93030000Y-109325000D03*
X93030000Y-94085000D03*
X95570000Y-109325000D03*
X95570000Y-94085000D03*
%TD*%
D35*
%TO.C,RV1*%
X176203950Y-72005000D03*
X178000000Y-70208950D03*
X179796050Y-72005000D03*
%TD*%
D19*
%TO.C,H17*%
X194740000Y-148060000D03*
%TD*%
%TO.C,H15*%
X94740000Y-148060000D03*
%TD*%
D23*
%TO.C,J23*%
X123740000Y-145910000D03*
D24*
X126240000Y-145910000D03*
X128740000Y-145910000D03*
X131240000Y-145910000D03*
X133740000Y-145910000D03*
%TD*%
D21*
%TO.C,SW8*%
X126070000Y-131288000D03*
D22*
X126070000Y-133828000D03*
X126070000Y-136368000D03*
%TD*%
D11*
%TO.C,TP4*%
X172820000Y-81900000D03*
%TD*%
D19*
%TO.C,H14*%
X194740000Y-38060000D03*
%TD*%
D25*
%TO.C,C23*%
X117490000Y-94430000D03*
X122490000Y-94430000D03*
%TD*%
D36*
%TO.C,R62*%
X146647500Y-103940000D03*
X148472500Y-103940000D03*
%TD*%
D37*
%TO.C,D7*%
X139720000Y-54520000D03*
X143020000Y-54520000D03*
%TD*%
D38*
%TO.C,H10*%
X159750000Y-149030000D03*
%TD*%
D39*
%TO.C,Q10*%
X144540000Y-57640000D03*
X146440000Y-57640000D03*
X145490000Y-60940000D03*
%TD*%
D40*
%TO.C,Q19*%
X156040000Y-74520000D03*
X156040000Y-76420000D03*
X152740000Y-75470000D03*
%TD*%
D41*
%TO.C,R17*%
X130294765Y-73504765D03*
X131585235Y-74795235D03*
%TD*%
D38*
%TO.C,H13*%
X195600000Y-122020000D03*
%TD*%
D39*
%TO.C,Q12*%
X150210000Y-60940000D03*
X148310000Y-60940000D03*
X149260000Y-57640000D03*
%TD*%
%TO.C,Q7*%
X156180000Y-54910000D03*
X158080000Y-54910000D03*
X157130000Y-58210000D03*
%TD*%
D42*
%TO.C,D9*%
X152120000Y-43040000D03*
X152120000Y-39740000D03*
%TD*%
%TO.C,D8*%
X149620000Y-43040000D03*
X149620000Y-39740000D03*
%TD*%
D38*
%TO.C,H12*%
X195760000Y-135070000D03*
%TD*%
D39*
%TO.C,Q9*%
X154200000Y-58230000D03*
X152300000Y-58230000D03*
X153250000Y-54930000D03*
%TD*%
D41*
%TO.C,R16*%
X127654765Y-70844765D03*
X128945235Y-72135235D03*
%TD*%
D42*
%TO.C,D10*%
X152480000Y-60280000D03*
X152480000Y-63580000D03*
%TD*%
%TO.C,D3*%
X154990000Y-52130000D03*
X154990000Y-48830000D03*
%TD*%
%TO.C,D2*%
X100590000Y-62620000D03*
X100590000Y-59320000D03*
%TD*%
D38*
%TO.C,H6*%
X125200000Y-105850000D03*
%TD*%
%TO.C,H11*%
X184050000Y-149080000D03*
%TD*%
D36*
%TO.C,R61*%
X142647500Y-103940000D03*
X144472500Y-103940000D03*
%TD*%
D40*
%TO.C,Q16*%
X152730000Y-72580000D03*
X152730000Y-70680000D03*
X156030000Y-71630000D03*
%TD*%
M02*
