%TF.GenerationSoftware,KiCad,Pcbnew,(6.0.11)*%
%TF.CreationDate,2023-09-13T23:25:57+09:00*%
%TF.ProjectId,Power,506f7765-722e-46b6-9963-61645f706362,rev?*%
%TF.SameCoordinates,Original*%
%TF.FileFunction,Soldermask,Top*%
%TF.FilePolarity,Negative*%
%FSLAX46Y46*%
G04 Gerber Fmt 4.6, Leading zero omitted, Abs format (unit mm)*
G04 Created by KiCad (PCBNEW (6.0.11)) date 2023-09-13 23:25:57*
%MOMM*%
%LPD*%
G01*
G04 APERTURE LIST*
G04 Aperture macros list*
%AMRoundRect*
0 Rectangle with rounded corners*
0 $1 Rounding radius*
0 $2 $3 $4 $5 $6 $7 $8 $9 X,Y pos of 4 corners*
0 Add a 4 corners polygon primitive as box body*
4,1,4,$2,$3,$4,$5,$6,$7,$8,$9,$2,$3,0*
0 Add four circle primitives for the rounded corners*
1,1,$1+$1,$2,$3*
1,1,$1+$1,$4,$5*
1,1,$1+$1,$6,$7*
1,1,$1+$1,$8,$9*
0 Add four rect primitives between the rounded corners*
20,1,$1+$1,$2,$3,$4,$5,0*
20,1,$1+$1,$4,$5,$6,$7,0*
20,1,$1+$1,$6,$7,$8,$9,0*
20,1,$1+$1,$8,$9,$2,$3,0*%
G04 Aperture macros list end*
%ADD10R,2.200000X1.200000*%
%ADD11R,6.400000X5.800000*%
%ADD12O,9.000000X3.500000*%
%ADD13O,3.500000X9.000000*%
%ADD14C,1.400000*%
%ADD15R,3.500000X3.500000*%
%ADD16C,3.500000*%
%ADD17RoundRect,0.250001X1.999999X0.799999X-1.999999X0.799999X-1.999999X-0.799999X1.999999X-0.799999X0*%
%ADD18C,3.200000*%
%ADD19R,0.800000X1.900000*%
%ADD20C,1.524000*%
%ADD21R,1.200000X2.200000*%
%ADD22R,5.800000X6.400000*%
%ADD23RoundRect,0.237500X-0.250000X-0.237500X0.250000X-0.237500X0.250000X0.237500X-0.250000X0.237500X0*%
%ADD24RoundRect,0.250000X-0.675000X0.600000X-0.675000X-0.600000X0.675000X-0.600000X0.675000X0.600000X0*%
%ADD25O,1.850000X1.700000*%
%ADD26RoundRect,0.237500X0.250000X0.237500X-0.250000X0.237500X-0.250000X-0.237500X0.250000X-0.237500X0*%
%ADD27R,0.900000X2.000000*%
%ADD28RoundRect,1.025000X-1.025000X-1.025000X1.025000X-1.025000X1.025000X1.025000X-1.025000X1.025000X0*%
%ADD29C,4.100000*%
%ADD30C,2.780000*%
%ADD31RoundRect,0.250000X-0.337500X-0.475000X0.337500X-0.475000X0.337500X0.475000X-0.337500X0.475000X0*%
%ADD32O,4.000000X1.524000*%
G04 APERTURE END LIST*
D10*
%TO.C,Q2*%
X164800000Y-99030995D03*
X164800000Y-96750995D03*
D11*
X158500000Y-96750995D03*
D10*
X164800000Y-94470995D03*
%TD*%
D12*
%TO.C,K1*%
X127060000Y-90470000D03*
D13*
X136960000Y-90470000D03*
X144960000Y-90470000D03*
D12*
X136560000Y-98870000D03*
X136560000Y-82070000D03*
%TD*%
D14*
%TO.C,J3*%
X198060000Y-85970000D03*
X198060000Y-96970000D03*
D15*
X188060000Y-93970000D03*
D16*
X188060000Y-88970000D03*
%TD*%
D10*
%TO.C,Q4*%
X168400000Y-86470995D03*
D11*
X174700000Y-88750995D03*
D10*
X168400000Y-88750995D03*
X168400000Y-91030995D03*
%TD*%
D17*
%TO.C,C2*%
X113660000Y-107470000D03*
X106460000Y-107470000D03*
%TD*%
D18*
%TO.C,H3*%
X97060000Y-128470000D03*
%TD*%
D19*
%TO.C,Q5*%
X158010000Y-63970000D03*
X156110000Y-63970000D03*
X157060000Y-66970000D03*
%TD*%
D20*
%TO.C,MES1*%
X149060000Y-60470000D03*
X147060000Y-60455000D03*
%TD*%
D21*
%TO.C,Q1*%
X160320000Y-90950995D03*
X162600000Y-90950995D03*
D22*
X162600000Y-84650995D03*
D21*
X164880000Y-90950995D03*
%TD*%
%TO.C,Q3*%
X172880000Y-94550995D03*
D22*
X170600000Y-100850995D03*
D21*
X170600000Y-94550995D03*
X168320000Y-94550995D03*
%TD*%
D23*
%TO.C,R2*%
X156147500Y-73470000D03*
X157972500Y-73470000D03*
%TD*%
D14*
%TO.C,J4*%
X198060000Y-67970000D03*
X198060000Y-56970000D03*
D15*
X188060000Y-64970000D03*
D16*
X188060000Y-59970000D03*
%TD*%
D24*
%TO.C,J2*%
X99710000Y-94220000D03*
D25*
X99710000Y-96720000D03*
%TD*%
D14*
%TO.C,J8*%
X198060000Y-71470000D03*
X198060000Y-82470000D03*
D15*
X188060000Y-79470000D03*
D16*
X188060000Y-74470000D03*
%TD*%
D18*
%TO.C,H2*%
X197060000Y-48470000D03*
%TD*%
D26*
%TO.C,R3*%
X161972500Y-71470000D03*
X160147500Y-71470000D03*
%TD*%
D14*
%TO.C,J10*%
X188810000Y-129470000D03*
X177810000Y-129470000D03*
D15*
X180810000Y-119470000D03*
D16*
X185810000Y-119470000D03*
%TD*%
D27*
%TO.C,J1*%
X117410000Y-54510000D03*
X103910000Y-54510000D03*
D28*
X107060000Y-60510000D03*
D29*
X114260000Y-60510000D03*
%TD*%
D14*
%TO.C,J9*%
X134310000Y-129470000D03*
X145310000Y-129470000D03*
D15*
X137310000Y-119470000D03*
D16*
X142310000Y-119470000D03*
%TD*%
D18*
%TO.C,H4*%
X197060000Y-128470000D03*
%TD*%
D30*
%TO.C,F1*%
X110760000Y-78510000D03*
X107360000Y-78510000D03*
X110760000Y-88430000D03*
X107360000Y-88430000D03*
%TD*%
D14*
%TO.C,J5*%
X105310000Y-129470000D03*
X116310000Y-129470000D03*
D15*
X108310000Y-119470000D03*
D16*
X113310000Y-119470000D03*
%TD*%
D23*
%TO.C,R4*%
X160147500Y-69470000D03*
X161972500Y-69470000D03*
%TD*%
D31*
%TO.C,C1*%
X156022500Y-71470000D03*
X158097500Y-71470000D03*
%TD*%
D14*
%TO.C,J6*%
X148810000Y-129470000D03*
X159810000Y-129470000D03*
D15*
X151810000Y-119470000D03*
D16*
X156810000Y-119470000D03*
%TD*%
D14*
%TO.C,J12*%
X130810000Y-129470000D03*
X119810000Y-129470000D03*
D15*
X122810000Y-119470000D03*
D16*
X127810000Y-119470000D03*
%TD*%
D26*
%TO.C,R6*%
X157972500Y-61470000D03*
X156147500Y-61470000D03*
%TD*%
D14*
%TO.C,J7*%
X198060000Y-111470000D03*
X198060000Y-100470000D03*
D15*
X188060000Y-108470000D03*
D16*
X188060000Y-103470000D03*
%TD*%
D18*
%TO.C,H1*%
X97060000Y-48470000D03*
%TD*%
D23*
%TO.C,R5*%
X156147500Y-69470000D03*
X157972500Y-69470000D03*
%TD*%
D14*
%TO.C,J11*%
X163310000Y-129470000D03*
X174310000Y-129470000D03*
D15*
X166310000Y-119470000D03*
D16*
X171310000Y-119470000D03*
%TD*%
D32*
%TO.C,SW1*%
X169060000Y-62470000D03*
X169060000Y-56470000D03*
%TD*%
M02*
