%TF.GenerationSoftware,KiCad,Pcbnew,(6.0.11)*%
%TF.CreationDate,2023-09-13T23:25:57+09:00*%
%TF.ProjectId,Power,506f7765-722e-46b6-9963-61645f706362,rev?*%
%TF.SameCoordinates,Original*%
%TF.FileFunction,Soldermask,Bot*%
%TF.FilePolarity,Negative*%
%FSLAX46Y46*%
G04 Gerber Fmt 4.6, Leading zero omitted, Abs format (unit mm)*
G04 Created by KiCad (PCBNEW (6.0.11)) date 2023-09-13 23:25:57*
%MOMM*%
%LPD*%
G01*
G04 APERTURE LIST*
G04 Aperture macros list*
%AMRoundRect*
0 Rectangle with rounded corners*
0 $1 Rounding radius*
0 $2 $3 $4 $5 $6 $7 $8 $9 X,Y pos of 4 corners*
0 Add a 4 corners polygon primitive as box body*
4,1,4,$2,$3,$4,$5,$6,$7,$8,$9,$2,$3,0*
0 Add four circle primitives for the rounded corners*
1,1,$1+$1,$2,$3*
1,1,$1+$1,$4,$5*
1,1,$1+$1,$6,$7*
1,1,$1+$1,$8,$9*
0 Add four rect primitives between the rounded corners*
20,1,$1+$1,$2,$3,$4,$5,0*
20,1,$1+$1,$4,$5,$6,$7,0*
20,1,$1+$1,$6,$7,$8,$9,0*
20,1,$1+$1,$8,$9,$2,$3,0*%
G04 Aperture macros list end*
%ADD10C,1.400000*%
%ADD11R,3.500000X3.500000*%
%ADD12C,3.500000*%
%ADD13C,3.200000*%
%ADD14C,1.524000*%
%ADD15RoundRect,0.250000X-0.675000X0.600000X-0.675000X-0.600000X0.675000X-0.600000X0.675000X0.600000X0*%
%ADD16O,1.850000X1.700000*%
%ADD17R,0.900000X2.000000*%
%ADD18RoundRect,1.025000X-1.025000X-1.025000X1.025000X-1.025000X1.025000X1.025000X-1.025000X1.025000X0*%
%ADD19C,4.100000*%
%ADD20C,2.780000*%
%ADD21O,4.000000X1.524000*%
%ADD22R,0.900000X1.200000*%
%ADD23RoundRect,0.237500X-0.250000X-0.237500X0.250000X-0.237500X0.250000X0.237500X-0.250000X0.237500X0*%
G04 APERTURE END LIST*
D10*
%TO.C,J3*%
X198060000Y-85970000D03*
X198060000Y-96970000D03*
D11*
X188060000Y-93970000D03*
D12*
X188060000Y-88970000D03*
%TD*%
D13*
%TO.C,H3*%
X97060000Y-128470000D03*
%TD*%
D14*
%TO.C,MES1*%
X149060000Y-60470000D03*
X147060000Y-60455000D03*
%TD*%
D10*
%TO.C,J4*%
X198060000Y-67970000D03*
X198060000Y-56970000D03*
D11*
X188060000Y-64970000D03*
D12*
X188060000Y-59970000D03*
%TD*%
D15*
%TO.C,J2*%
X99710000Y-94220000D03*
D16*
X99710000Y-96720000D03*
%TD*%
D10*
%TO.C,J8*%
X198060000Y-71470000D03*
X198060000Y-82470000D03*
D11*
X188060000Y-79470000D03*
D12*
X188060000Y-74470000D03*
%TD*%
D13*
%TO.C,H2*%
X197060000Y-48470000D03*
%TD*%
D10*
%TO.C,J10*%
X188810000Y-129470000D03*
X177810000Y-129470000D03*
D11*
X180810000Y-119470000D03*
D12*
X185810000Y-119470000D03*
%TD*%
D17*
%TO.C,J1*%
X117410000Y-54510000D03*
X103910000Y-54510000D03*
D18*
X107060000Y-60510000D03*
D19*
X114260000Y-60510000D03*
%TD*%
D10*
%TO.C,J9*%
X134310000Y-129470000D03*
X145310000Y-129470000D03*
D11*
X137310000Y-119470000D03*
D12*
X142310000Y-119470000D03*
%TD*%
D13*
%TO.C,H4*%
X197060000Y-128470000D03*
%TD*%
D20*
%TO.C,F1*%
X110760000Y-78510000D03*
X107360000Y-78510000D03*
X110760000Y-88430000D03*
X107360000Y-88430000D03*
%TD*%
D10*
%TO.C,J5*%
X105310000Y-129470000D03*
X116310000Y-129470000D03*
D11*
X108310000Y-119470000D03*
D12*
X113310000Y-119470000D03*
%TD*%
D10*
%TO.C,J6*%
X148810000Y-129470000D03*
X159810000Y-129470000D03*
D11*
X151810000Y-119470000D03*
D12*
X156810000Y-119470000D03*
%TD*%
D10*
%TO.C,J12*%
X130810000Y-129470000D03*
X119810000Y-129470000D03*
D11*
X122810000Y-119470000D03*
D12*
X127810000Y-119470000D03*
%TD*%
D10*
%TO.C,J7*%
X198060000Y-111470000D03*
X198060000Y-100470000D03*
D11*
X188060000Y-108470000D03*
D12*
X188060000Y-103470000D03*
%TD*%
D13*
%TO.C,H1*%
X97060000Y-48470000D03*
%TD*%
D10*
%TO.C,J11*%
X163310000Y-129470000D03*
X174310000Y-129470000D03*
D11*
X166310000Y-119470000D03*
D12*
X171310000Y-119470000D03*
%TD*%
D21*
%TO.C,SW1*%
X169060000Y-62470000D03*
X169060000Y-56470000D03*
%TD*%
D22*
%TO.C,D1*%
X164630000Y-91620000D03*
X161330000Y-91620000D03*
%TD*%
D23*
%TO.C,R1*%
X162747500Y-93780000D03*
X164572500Y-93780000D03*
%TD*%
M02*
