M48
; DRILL file {KiCad (6.0.11)} date Wed Sep 13 23:25:57 2023
; FORMAT={-:-/ absolute / inch / decimal}
; #@! TF.CreationDate,2023-09-13T23:25:57+09:00
; #@! TF.GenerationSoftware,Kicad,Pcbnew,(6.0.11)
; #@! TF.FileFunction,Plated,1,2,PTH
FMAT,2
INCH
; #@! TA.AperFunction,Plated,PTH,ViaDrill
T1C0.0157
; #@! TA.AperFunction,Plated,PTH,ComponentDrill
T2C0.0236
; #@! TA.AperFunction,Plated,PTH,ComponentDrill
T3C0.0300
; #@! TA.AperFunction,Plated,PTH,ComponentDrill
T4C0.0335
; #@! TA.AperFunction,Plated,PTH,ComponentDrill
T5C0.0394
; #@! TA.AperFunction,Plated,PTH,ComponentDrill
T6C0.0591
; #@! TA.AperFunction,Plated,PTH,ComponentDrill
T7C0.0701
; #@! TA.AperFunction,Plated,PTH,ComponentDrill
T8C0.0748
; #@! TA.AperFunction,Plated,PTH,ComponentDrill
T9C0.1063
%
G90
G05
T1
X3.6697Y-4.5705
X3.6697Y-4.9622
X3.6724Y-4.1681
X3.6811Y-3.6331
X3.6815Y-5.213
X3.6902Y-1.7728
X3.7008Y-2.0618
X3.7138Y-2.5756
X3.7185Y-3.1421
X3.7819Y-3.3772
X3.8024Y-4.7972
X3.8327Y-3.7866
X3.8587Y-2.2701
X3.8689Y-4.2437
X3.8689Y-4.5614
X3.8791Y-2.8697
X3.8846Y-3.9937
X3.9492Y-5.1961
X3.9504Y-4.9701
X3.9717Y-1.7728
X3.9807Y-2.0705
X4.011Y-4.7075
X4.0362Y-4.4307
X4.0476Y-3.1465
X4.052Y-2.5846
X4.0996Y-4.0996
X4.1406Y-1.8803
X4.165Y-4.9661
X4.172Y-4.2429
X4.3252Y-4.5673
X4.3268Y-4.8772
X4.3331Y-4.3854
X4.3445Y-5.076
X4.3724Y-5.2197
X4.3772Y-2.0398
X4.3858Y-1.763
X4.422Y-4.1028
X4.511Y-2.2398
X4.5138Y-5.0591
X4.6469Y-5.102
X4.6531Y-1.8496
X4.789Y-5.1043
X4.8425Y-1.987
X4.8602Y-1.772
X4.937Y-5.2055
X4.972Y-3.1319
X4.9965Y-1.9961
X5.0024Y-2.1921
X5.0075Y-2.3402
X5.0614Y-3.9669
X5.0673Y-2.7134
X5.0787Y-5.1028
X5.1378Y-3.1921
X5.1677Y-3.9669
X5.2106Y-5.2091
X5.2122Y-2.9106
X5.2161Y-1.7984
X5.2224Y-2.4854
X5.2417Y-3.0902
X5.278Y-3.378
X5.2799Y-3.7626
X5.2866Y-2.678
X5.3606Y-5.1039
X5.3815Y-2.3673
X5.4343Y-2.9598
X5.4524Y-2.6764
X5.4823Y-3.7665
X5.4957Y-3.3555
X5.5134Y-5.213
X5.5236Y-1.7575
X5.5504Y-2.5008
X5.5764Y-3.1646
X5.6362Y-5.1008
X5.6685Y-2.8543
X5.7142Y-2.3618
X5.778Y-2.6598
X5.7898Y-5.1016
X5.8Y-1.8114
X5.8413Y-3.0217
X5.9063Y-2.8106
X5.9299Y-2.5366
X5.9299Y-5.1028
X6.0004Y-2.1992
X6.0016Y-1.7575
X6.0031Y-2.0181
X6.0165Y-2.274
X6.0811Y-5.213
X6.087Y-2.8744
X6.0961Y-2.6854
X6.1016Y-3.0291
X6.1598Y-2.4587
X6.1642Y-2.5563
X6.1953Y-1.8201
X6.2213Y-5.1004
X6.2433Y-2.0457
X6.2882Y-2.3945
X6.2909Y-2.2646
X6.3114Y-3.5638
X6.3114Y-3.6024
X6.3559Y-3.0453
X6.3575Y-5.0984
X6.4159Y-2.488
X6.4252Y-2.3906
X6.463Y-3.9012
X6.4724Y-3.6953
X6.4774Y-3.5947
X6.4839Y-1.8988
X6.4844Y-3.6266
X6.4949Y-5.1028
X6.5087Y-3.8996
X6.5114Y-2.0579
X6.5492Y-1.7634
X6.5492Y-2.2713
X6.5843Y-2.3921
X6.6015Y-3.3407
X6.6138Y-3.5677
X6.6374Y-5.2126
X6.6398Y-3.35
X6.685Y-2.2854
X6.7606Y-2.3854
X6.7677Y-2.163
X6.7819Y-5.1
X6.8063Y-3.7225
X6.8465Y-1.9142
X6.8744Y-2.2776
X6.9299Y-5.1028
X7.015Y-2.161
X7.0728Y-5.1012
X7.0756Y-1.7673
X7.1055Y-2.0496
X7.2201Y-5.2157
X7.2634Y-2.2343
X7.3575Y-5.1008
X7.3587Y-1.902
X7.3772Y-2.111
X7.4657Y-5.0122
X7.5264Y-1.7713
X7.5535Y-2.0559
X7.6004Y-2.2504
X7.6209Y-5.2028
X7.6472Y-4.9614
X7.7949Y-2.8846
X7.7969Y-4.65
X7.7969Y-4.8102
X7.7972Y-3.7425
X7.798Y-3.3169
X7.7992Y-4.0343
X7.8Y-2.7449
X7.8004Y-3.4591
X7.8004Y-3.8846
X7.8004Y-4.3134
X7.8016Y-2.6067
X7.8016Y-3.178
X7.8193Y-2.4492
X7.8961Y-2.2543
X7.9024Y-1.7665
X7.9039Y-4.9614
X7.9098Y-2.0484
X7.9106Y-4.6228
X7.9106Y-5.2004
X7.9114Y-3.039
X7.9134Y-2.665
X7.9157Y-4.1846
X7.9205Y-3.6071
T3
X5.7898Y-2.3801
X5.8685Y-2.3807
T4
X3.9256Y-3.7094
X3.9256Y-3.8079
T5
X4.1461Y-5.0972
X4.5791Y-5.0972
X4.7169Y-5.0972
X5.15Y-5.0972
X5.2878Y-5.0972
X5.7209Y-5.0972
X5.8587Y-5.0972
X6.2917Y-5.0972
X6.4295Y-5.0972
X6.8626Y-5.0972
X7.0004Y-5.0972
X7.4335Y-5.0972
X7.7976Y-2.2429
X7.7976Y-2.676
X7.7976Y-2.8138
X7.7976Y-3.2469
X7.7976Y-3.3846
X7.7976Y-3.8177
X7.7976Y-3.9555
X7.7976Y-4.3886
T7
X4.2268Y-3.0909
X4.2268Y-3.4815
X4.3606Y-3.0909
X4.3606Y-3.4815
T8
X4.2642Y-4.7035
X4.461Y-4.7035
X4.835Y-4.7035
X5.0319Y-4.7035
X5.4059Y-4.7035
X5.6028Y-4.7035
X5.9768Y-4.7035
X6.1736Y-4.7035
X6.5476Y-4.7035
X6.7445Y-4.7035
X7.1185Y-4.7035
X7.3154Y-4.7035
X7.4039Y-2.361
X7.4039Y-2.5579
X7.4039Y-2.9319
X7.4039Y-3.1287
X7.4039Y-3.5028
X7.4039Y-3.6996
X7.4039Y-4.0736
X7.4039Y-4.2705
T9
X4.215Y-2.3823
X4.4984Y-2.3823
T2
G00X4.0909Y-2.1244
M15
G01X4.0909Y-2.1677
M16
G05
G00X4.6224Y-2.1244
M15
G01X4.6224Y-2.1677
M16
G05
T3
G00X6.7039Y-2.2232
M15
G01X6.6079Y-2.2232
M16
G05
G00X6.6079Y-2.4594
M15
G01X6.7039Y-2.4594
M16
G05
T6
G00X5.1106Y-3.5618
M15
G01X4.8941Y-3.5618
M16
G05
G00X5.4846Y-3.2311
M15
G01X5.2681Y-3.2311
M16
G05
G00X5.4846Y-3.8925
M15
G01X5.2681Y-3.8925
M16
G05
G00X5.3921Y-3.4535
M15
G01X5.3921Y-3.6701
M16
G05
G00X5.7071Y-3.4535
M15
G01X5.7071Y-3.6701
M16
G05
T0
M30
